<?xml version="1.0" encoding="UTF-8" standalone="no"?>
<!-- Created with matplotlib (https://matplotlib.org/) -->

<svg
   inkscape:version="1.1.2 (0a00cf5339, 2022-02-04)"
   sodipodi:docname="dw_diff_cs.svg"
   id="svg749"
   width="464.39566pt"
   viewBox="0 0 464.39567 376.9043"
   version="1.1"
   height="376.9043pt"
   xmlns:inkscape="http://www.inkscape.org/namespaces/inkscape"
   xmlns:sodipodi="http://sodipodi.sourceforge.net/DTD/sodipodi-0.dtd"
   xmlns:xlink="http://www.w3.org/1999/xlink"
   xmlns="http://www.w3.org/2000/svg"
   xmlns:svg="http://www.w3.org/2000/svg"
   xmlns:rdf="http://www.w3.org/1999/02/22-rdf-syntax-ns#"
   xmlns:cc="http://creativecommons.org/ns#"
   xmlns:dc="http://purl.org/dc/elements/1.1/"
   xmlns:ns0="http://www.iki.fi/pav/software/textext/">
  <sodipodi:namedview
     pagecolor="#ffffff"
     bordercolor="#666666"
     borderopacity="1"
     objecttolerance="10"
     gridtolerance="10"
     guidetolerance="10"
     inkscape:pageopacity="0"
     inkscape:pageshadow="2"
     inkscape:window-width="2560"
     inkscape:window-height="1368"
     id="namedview751"
     showgrid="false"
     inkscape:zoom="1.185541"
     inkscape:cx="98.689122"
     inkscape:cy="253.47078"
     inkscape:window-x="0"
     inkscape:window-y="0"
     inkscape:window-maximized="1"
     inkscape:current-layer="g4158"
     fit-margin-top="10"
     fit-margin-left="10"
     fit-margin-right="10"
     fit-margin-bottom="10"
     inkscape:pagecheckerboard="0"
     inkscape:document-units="pt" />
  <metadata
     id="metadata2">
    <rdf:RDF>
      <cc:Work>
        <dc:type
           rdf:resource="http://purl.org/dc/dcmitype/StillImage" />
        <dc:date>2021-04-20T16:14:38.140687</dc:date>
        <dc:format>image/svg+xml</dc:format>
        <dc:creator>
          <cc:Agent>
            <dc:title>Matplotlib v3.3.2, https://matplotlib.org/</dc:title>
          </cc:Agent>
        </dc:creator>
      </cc:Work>
    </rdf:RDF>
  </metadata>
  <defs
     id="defs6"
     style="stroke-linecap:butt;stroke-linejoin:round">
    <style
       type="text/css"
       id="style4">*{stroke-linecap:butt;stroke-linejoin:round;}</style>
    <defs
       id="defs394">
      <path
         inkscape:connector-curvature="0"
         style="stroke:#000000;stroke-linecap:butt;stroke-linejoin:round"
         id="m243f5958d7"
         d="M 0,2.5 C 0.663008,2.5 1.29895,2.236584 1.767767,1.767767 2.236584,1.29895 2.5,0.663008 2.5,0 2.5,-0.663008 2.236584,-1.29895 1.767767,-1.767767 1.29895,-2.236584 0.663008,-2.5 0,-2.5 c -0.663008,0 -1.29895,0.263416 -1.767767,0.732233 C -2.236584,-1.29895 -2.5,-0.663008 -2.5,0 c 0,0.663008 0.263416,1.29895 0.732233,1.767767 C -1.29895,2.236584 -0.663008,2.5 0,2.5 Z" />
    </defs>
    <defs
       id="defs329">
      <path
         inkscape:connector-curvature="0"
         style="stroke:#000000;stroke-linecap:butt;stroke-linejoin:round"
         id="mb0553f5a1c"
         d="M 5,0 H -5" />
    </defs>
    <defs
       id="defs439">
      <path
         d="m 40.234375,0 v 6.546875 q -4.9375,-7.71875 -14.5,-7.71875 -6.203125,0 -11.40625,3.421875 -5.203125,3.421875 -8.0625,9.546875 -2.84375,6.125 -2.84375,14.078125 0,7.765625 2.578125,14.09375 2.59375,6.328125 7.765625,9.6875 5.1875,3.375 11.578125,3.375 4.6875,0 8.34375,-1.984375 3.671875,-1.96875 5.96875,-5.140625 v 25.671875 h 8.734375 V 0 Z m -27.78125,25.875 q 0,-9.953125 4.1875,-14.890625 Q 20.84375,6.0625 26.5625,6.0625 q 5.765625,0 9.78125,4.703125 4.03125,4.71875 4.03125,14.375 0,10.65625 -4.109375,15.625 Q 32.171875,45.75 26.171875,45.75 20.3125,45.75 16.375,40.96875 12.453125,36.1875 12.453125,25.875 Z"
         id="ArialMT-100"
         inkscape:connector-curvature="0"
         style="stroke-linecap:butt;stroke-linejoin:round" />
      <path
         d="M 16.15625,0 0.296875,51.859375 H 9.375 l 8.25,-29.9375 3.078125,-11.125 q 0.203125,0.828125 2.6875,10.6875 l 8.25,30.375 h 9.03125 L 48.4375,21.78125 51.03125,11.859375 54,21.875 62.890625,51.859375 H 71.4375 L 55.21875,0 h -9.125 l -8.25,31.0625 -2,8.828125 L 25.34375,0 Z"
         id="ArialMT-119"
         inkscape:connector-curvature="0"
         style="stroke-linecap:butt;stroke-linejoin:round" />
      <path
         d="m 3.171875,21.484375 v 8.84375 h 27 v -8.84375 z"
         id="ArialMT-45"
         inkscape:connector-curvature="0"
         style="stroke-linecap:butt;stroke-linejoin:round" />
      <path
         d="M 6.640625,61.46875 V 71.578125 H 15.4375 V 61.46875 Z M 6.640625,0 V 51.859375 H 15.4375 V 0 Z"
         id="ArialMT-105"
         inkscape:connector-curvature="0"
         style="stroke-linecap:butt;stroke-linejoin:round" />
      <path
         d="M 8.6875,0 V 45.015625 H 0.921875 v 6.84375 H 8.6875 V 57.375 q 0,5.21875 0.9375,7.765625 1.265625,3.421875 4.453125,5.53125 3.203125,2.125 8.96875,2.125 3.71875,0 8.203125,-0.875 l -1.3125,-7.65625 Q 27.203125,64.75 24.75,64.75 q -4,0 -5.65625,-1.71875 -1.65625,-1.703125 -1.65625,-6.390625 v -4.78125 h 10.109375 v -6.84375 H 17.4375 V 0 Z"
         id="ArialMT-102"
         inkscape:connector-curvature="0"
         style="stroke-linecap:butt;stroke-linejoin:round" />
      <path
         d="M 9.078125,0 V 10.015625 H 19.09375 V 0 Z"
         id="ArialMT-46"
         inkscape:connector-curvature="0"
         style="stroke-linecap:butt;stroke-linejoin:round" />
    </defs>
    <defs
       id="defs26">
      <path
         inkscape:connector-curvature="0"
         style="stroke:#000000;stroke-width:0.80000001;stroke-linecap:butt;stroke-linejoin:round"
         id="m3c07dd4a5e"
         d="M 0,0 V 3.5" />
    </defs>
    <defs
       id="defs18">
      <path
         inkscape:connector-curvature="0"
         style="stroke:#000000;stroke-width:0.80000001;stroke-linecap:butt;stroke-linejoin:round"
         id="m5813ac42b2"
         d="M 0,0 V -3.5" />
    </defs>
    <defs
       id="defs130">
      <path
         style="stroke-linecap:butt;stroke-linejoin:round"
         inkscape:connector-curvature="0"
         id="ArialMT-84"
         d="M 25.921875,0 V 63.140625 H 2.34375 v 8.4375 h 56.734375 v -8.4375 H 35.40625 V 0 Z" />
      <path
         style="stroke-linecap:butt;stroke-linejoin:round"
         inkscape:connector-curvature="0"
         id="ArialMT-32"
         d="" />
      <path
         style="stroke-linecap:butt;stroke-linejoin:round"
         inkscape:connector-curvature="0"
         id="ArialMT-40"
         d="m 23.390625,-21.046875 q -7.28125,9.1875 -12.3125,21.484375 Q 6.0625,12.75 6.0625,25.921875 q 0,11.625 3.75,22.265625 4.390625,12.359375 13.578125,24.609375 H 29.6875 q -5.90625,-10.15625 -7.8125,-14.5 -2.984375,-6.734375 -4.6875,-14.0625 -2.09375,-9.125 -2.09375,-18.359375 0,-23.484375 14.59375,-46.921875 z" />
      <path
         style="stroke-linecap:butt;stroke-linejoin:round"
         inkscape:connector-curvature="0"
         id="ArialMT-77"
         d="M 7.421875,0 V 71.578125 H 21.6875 L 38.625,20.90625 q 2.34375,-7.09375 3.421875,-10.609375 1.21875,3.90625 3.796875,11.484375 l 17.140625,49.796875 h 12.75 V 0 h -9.125 V 59.90625 L 45.796875,0 H 37.25 L 16.546875,60.9375 V 0 Z" />
      <path
         style="stroke-linecap:butt;stroke-linejoin:round"
         inkscape:connector-curvature="0"
         id="ArialMT-101"
         d="m 42.09375,16.703125 9.078125,-1.125 Q 49.03125,7.625 43.21875,3.21875 37.40625,-1.171875 28.375,-1.171875 q -11.375,0 -18.046875,7 -6.671875,7.015625 -6.671875,19.65625 0,13.09375 6.734375,20.3125 6.75,7.234375 17.484375,7.234375 10.40625,0 17,-7.078125 6.59375,-7.078125 6.59375,-19.921875 0,-0.78125 -0.04687,-2.34375 H 12.75 q 0.484375,-8.546875 4.828125,-13.09375 4.34375,-4.53125 10.84375,-4.53125 4.828125,0 8.25,2.53125 3.421875,2.546875 5.421875,8.109375 z M 13.234375,30.90625 H 42.1875 q -0.578125,6.546875 -3.3125,9.8125 -4.203125,5.078125 -10.890625,5.078125 -6.0625,0 -10.1875,-4.046875 -4.125,-4.046875 -4.5625,-10.84375 z" />
      <path
         style="stroke-linecap:butt;stroke-linejoin:round"
         inkscape:connector-curvature="0"
         id="ArialMT-86"
         d="M 28.171875,0 0.4375,71.578125 h 10.25 l 18.609375,-52 q 2.25,-6.25 3.765625,-11.71875 1.65625,5.859375 3.859375,11.71875 l 19.328125,52 h 9.671875 L 37.890625,0 Z" />
      <path
         style="stroke-linecap:butt;stroke-linejoin:round"
         inkscape:connector-curvature="0"
         id="ArialMT-41"
         d="M 12.359375,-21.046875 H 6.0625 q 14.59375,23.4375 14.59375,46.921875 0,9.1875 -2.09375,18.21875 -1.671875,7.328125 -4.640625,14.0625 -1.90625,4.390625 -7.859375,14.640625 h 6.296875 Q 21.53125,60.546875 25.921875,48.1875 29.6875,37.546875 29.6875,25.921875 29.6875,12.75 24.625,0.4375 19.578125,-11.859375 12.359375,-21.046875 Z" />
    </defs>
    <defs
       id="defs164">
      <path
         inkscape:connector-curvature="0"
         style="stroke:#000000;stroke-width:0.80000001;stroke-linecap:butt;stroke-linejoin:round"
         id="m42f3f62e02"
         d="M 0,0 H -3.5" />
    </defs>
    <defs
       id="defs156">
      <path
         inkscape:connector-curvature="0"
         style="stroke:#000000;stroke-width:0.80000001;stroke-linecap:butt;stroke-linejoin:round"
         id="mce90378eab"
         d="M 0,0 H 3.5" />
    </defs>
    <defs
       id="defs472">
      <path
         style="stroke-linecap:butt;stroke-linejoin:round"
         inkscape:connector-curvature="0"
         id="ArialMT-75"
         d="m 7.328125,0 v 71.578125 h 9.46875 v -35.5 l 35.546875,35.5 H 65.1875 l -30.03125,-29 L 66.5,0 H 54 L 28.515625,36.234375 16.796875,24.8125 V 0 Z" />
      <path
         style="stroke-linecap:butt;stroke-linejoin:round"
         inkscape:connector-curvature="0"
         id="ArialMT-114"
         d="m 6.5,0 v 51.859375 h 7.90625 V 44 Q 17.4375,49.515625 20,51.265625 q 2.5625,1.765625 5.640625,1.765625 4.4375,0 9.03125,-2.828125 l -3.03125,-8.15625 q -3.21875,1.90625 -6.4375,1.90625 -2.890625,0 -5.1875,-1.734375 -2.296875,-1.734375 -3.265625,-4.8125 -1.46875,-4.6875 -1.46875,-10.25 V 0 Z" />
      <path
         style="stroke-linecap:butt;stroke-linejoin:round"
         inkscape:connector-curvature="0"
         id="ArialMT-97"
         d="M 40.4375,6.390625 Q 35.546875,2.25 31.03125,0.53125 q -4.515625,-1.703125 -9.6875,-1.703125 -8.546875,0 -13.140625,4.171875 -4.59375,4.171875 -4.59375,10.671875 0,3.8125 1.734375,6.953125 1.734375,3.15625 4.546875,5.0625 2.8125,1.90625 6.328125,2.875 2.578125,0.6875 7.8125,1.328125 10.640625,1.265625 15.671875,3.015625 0.04687,1.8125 0.04687,2.296875 0,5.375 -2.5,7.578125 -3.359375,2.96875 -10,2.96875 -6.203125,0 -9.15625,-2.171875 -2.953125,-2.171875 -4.375,-7.6875 L 5.125,37.0625 q 1.171875,5.515625 3.859375,8.90625 2.6875,3.390625 7.765625,5.21875 5.078125,1.84375 11.765625,1.84375 6.640625,0 10.78125,-1.5625 4.15625,-1.5625 6.109375,-3.9375 1.953125,-2.359375 2.734375,-5.984375 0.4375,-2.234375 0.4375,-8.09375 v -11.71875 q 0,-12.265625 0.5625,-15.515625 Q 49.703125,2.984375 51.375,0 h -9.1875 q -1.359375,2.734375 -1.75,6.390625 z M 39.703125,26.03125 Q 34.90625,24.078125 25.34375,22.703125 19.921875,21.921875 17.671875,20.9375 15.4375,19.96875 14.203125,18.09375 q -1.21875,-1.875 -1.21875,-4.171875 0,-3.515625 2.65625,-5.859375 2.671875,-2.34375 7.796875,-2.34375 5.078125,0 9.03125,2.21875 3.953125,2.21875 5.8125,6.078125 1.421875,2.984375 1.421875,8.78125 z" />
      <path
         style="stroke-linecap:butt;stroke-linejoin:round"
         inkscape:connector-curvature="0"
         id="ArialMT-109"
         d="m 6.59375,0 v 51.859375 h 7.859375 v -7.28125 q 2.4375,3.8125 6.484375,6.125 4.0625,2.328125 9.234375,2.328125 5.765625,0 9.453125,-2.390625 3.6875,-2.390625 5.203125,-6.6875 6.15625,9.078125 16.015625,9.078125 7.71875,0 11.859375,-4.28125 4.15625,-4.265625 4.15625,-13.15625 V 0 h -8.75 v 32.671875 q 0,5.265625 -0.859375,7.578125 -0.84375,2.328125 -3.09375,3.734375 -2.234375,1.421875 -5.265625,1.421875 -5.46875,0 -9.09375,-3.640625 Q 46.1875,38.140625 46.1875,30.125 V 0 h -8.78125 v 33.6875 q 0,5.859375 -2.15625,8.78125 -2.140625,2.9375 -7.03125,2.9375 -3.703125,0 -6.859375,-1.953125 Q 18.21875,41.5 16.796875,37.734375 15.375,33.984375 15.375,26.90625 V 0 Z" />
      <path
         style="stroke-linecap:butt;stroke-linejoin:round"
         inkscape:connector-curvature="0"
         id="ArialMT-44"
         d="m 8.890625,0 v 10.015625 h 10 V 0 q 0,-5.515625 -1.953125,-8.90625 -1.953125,-3.40625 -6.1875,-5.25 l -2.453125,3.75 q 2.78125,1.21875 4.09375,3.59375 Q 13.71875,-4.4375 13.875,0 Z" />
      <path
         style="stroke-linecap:butt;stroke-linejoin:round"
         inkscape:connector-curvature="0"
         id="ArialMT-83"
         d="m 4.5,23 8.921875,0.78125 q 0.640625,-5.375 2.953125,-8.8125 2.328125,-3.4375 7.203125,-5.5625 4.890625,-2.125 11,-2.125 5.40625,0 9.5625,1.609375 4.15625,1.609375 6.171875,4.40625 2.03125,2.8125 2.03125,6.140625 0,3.359375 -1.953125,5.875 -1.953125,2.515625 -6.4375,4.234375 -2.890625,1.125 -12.75,3.484375 -9.859375,2.375 -13.8125,4.46875 -5.140625,2.6875 -7.65625,6.65625 -2.5,3.984375 -2.5,8.921875 0,5.421875 3.0625,10.125 3.078125,4.71875 8.984375,7.15625 5.921875,2.4375 13.140625,2.4375 7.953125,0 14.03125,-2.5625 6.09375,-2.5625 9.359375,-7.546875 3.265625,-4.96875 3.515625,-11.265625 L 50.25,50.734375 q -0.734375,6.78125 -4.96875,10.25 -4.21875,3.46875 -12.46875,3.46875 -8.59375,0 -12.53125,-3.15625 -3.921875,-3.140625 -3.921875,-7.578125 0,-3.859375 2.78125,-6.359375 2.734375,-2.484375 14.28125,-5.09375 11.546875,-2.609375 15.84375,-4.5625 6.25,-2.890625 9.21875,-7.3125 2.984375,-4.40625 2.984375,-10.171875 0,-5.71875 -3.265625,-10.78125 -3.265625,-5.046875 -9.40625,-7.859375 -6.125,-2.796875 -13.78125,-2.796875 -9.71875,0 -16.296875,2.828125 Q 12.15625,4.4375 8.421875,10.125 4.6875,15.828125 4.5,23 Z" />
      <path
         style="stroke-linecap:butt;stroke-linejoin:round"
         inkscape:connector-curvature="0"
         id="ArialMT-61"
         d="M 52.828125,42.09375 H 5.5625 v 8.203125 h 47.265625 z m 0,-21.734375 H 5.5625 V 28.5625 h 47.265625 z" />
      <path
         style="stroke-linecap:butt;stroke-linejoin:round"
         inkscape:connector-curvature="0"
         id="ArialMT-43"
         d="m 25.046875,11.578125 v 19.625 H 5.5625 V 39.40625 H 25.046875 V 58.890625 H 33.34375 V 39.40625 H 52.828125 V 31.203125 H 33.34375 v -19.625 z" />
    </defs>
    <defs
       id="defs531">
      <path
         style="stroke-linecap:butt;stroke-linejoin:round"
         inkscape:connector-curvature="0"
         id="ArialMT-95"
         d="m -1.515625,-19.875 v 6.34375 h 58.25 V -19.875 Z" />
      <path
         style="stroke-linecap:butt;stroke-linejoin:round"
         inkscape:connector-curvature="0"
         id="ArialMT-99"
         d="m 40.4375,19 8.640625,-1.125 Q 47.65625,8.9375 41.8125,3.875 35.984375,-1.171875 27.484375,-1.171875 16.84375,-1.171875 10.375,5.78125 3.90625,12.75 3.90625,25.734375 q 0,8.390625 2.78125,14.6875 2.78125,6.3125 8.46875,9.453125 5.6875,3.15625 12.390625,3.15625 8.4375,0 13.8125,-4.28125 5.375,-4.265625 6.890625,-12.125 l -8.546875,-1.328125 q -1.21875,5.234375 -4.328125,7.859375 -3.09375,2.640625 -7.5,2.640625 -6.640625,0 -10.796875,-4.765625 -4.140625,-4.75 -4.140625,-15.046875 0,-10.453125 4,-15.1875 Q 20.953125,6.0625 27.390625,6.0625 32.5625,6.0625 36.03125,9.234375 39.5,12.40625 40.4375,19 Z" />
    </defs>
    <defs
       id="defs668">
      <path
         style="stroke-linecap:butt;stroke-linejoin:round"
         inkscape:connector-curvature="0"
         id="ArialMT-79"
         d="m 4.828125,34.859375 q 0,17.828125 9.5625,27.90625 9.578125,10.09375 24.71875,10.09375 9.921875,0 17.875,-4.75 7.953125,-4.734375 12.125,-13.203125 4.1875,-8.46875 4.1875,-19.21875 0,-10.875 -4.40625,-19.46875 Q 64.5,7.625 56.4375,3.203125 48.390625,-1.21875 39.0625,-1.21875 q -10.109375,0 -18.078125,4.875 -7.953125,4.890625 -12.0625,13.328125 -4.09375,8.453125 -4.09375,17.875 z M 14.59375,34.71875 q 0,-12.9375 6.953125,-20.390625 6.96875,-7.4375 17.46875,-7.4375 10.6875,0 17.59375,7.515625 6.921875,7.515625 6.921875,21.34375 0,8.734375 -2.953125,15.25 -2.953125,6.515625 -8.65625,10.109375 -5.6875,3.59375 -12.765625,3.59375 -10.046875,0 -17.3125,-6.921875 -7.25,-6.90625 -7.25,-23.0625 z" />
    </defs>
    <defs
       id="defs730">
      <path
         style="stroke-linecap:butt;stroke-linejoin:round"
         inkscape:connector-curvature="0"
         id="ArialMT-120"
         d="m 0.734375,0 18.9375,26.953125 -17.515625,24.90625 h 10.984375 l 7.953125,-12.15625 q 2.25,-3.46875 3.609375,-5.8125 2.15625,3.21875 3.953125,5.703125 l 8.75,12.265625 h 10.5 L 29.984375,27.4375 49.265625,0 H 38.484375 L 27.828125,16.109375 25,20.453125 11.375,0 Z" />
      <path
         style="stroke-linecap:butt;stroke-linejoin:round"
         inkscape:connector-curvature="0"
         id="ArialMT-112"
         d="m 6.59375,-19.875 v 71.734375 h 8 V 45.125 Q 17.4375,49.078125 21,51.046875 q 3.5625,1.984375 8.640625,1.984375 6.640625,0 11.71875,-3.421875 5.078125,-3.421875 7.65625,-9.65625 2.59375,-6.21875 2.59375,-13.640625 0,-7.953125 -2.859375,-14.328125 Q 45.90625,5.609375 40.453125,2.21875 35.015625,-1.171875 29,-1.171875 q -4.390625,0 -7.890625,1.859375 Q 17.625,2.546875 15.375,5.375 v -25.25 z m 7.953125,45.515625 q 0,-10.015625 4.046875,-14.796875 4.0625,-4.78125 9.828125,-4.78125 5.859375,0 10.03125,4.953125 Q 42.625,15.96875 42.625,26.375 q 0,9.90625 -4.078125,14.828125 -4.078125,4.9375 -9.734375,4.9375 -5.625,0 -9.953125,-5.25 -4.3125,-5.25 -4.3125,-15.25 z" />
    </defs>
    <defs
       id="defs281">
      <path
         d="M 4.15625,18.75 13.375,19.53125 Q 14.40625,12.796875 18.140625,9.390625 21.875,6 27.15625,6 33.5,6 37.890625,10.78125 42.28125,15.578125 42.28125,23.484375 42.28125,31 38.0625,35.34375 33.84375,39.703125 27,39.703125 q -4.25,0 -7.671875,-1.9375 -3.40625,-1.921875 -5.359375,-5 l -8.25,1.078125 6.921875,36.765625 H 48.25 v -8.40625 H 19.671875 L 15.828125,42.96875 q 6.4375,4.5 13.515625,4.5 9.375,0 15.8125,-6.5 6.453125,-6.5 6.453125,-16.703125 0,-9.71875 -5.65625,-16.796875 -6.890625,-8.6875 -18.796875,-8.6875 -9.765625,0 -15.953125,5.46875 Q 5.03125,9.71875 4.15625,18.75 Z"
         id="ArialMT-53"
         inkscape:connector-curvature="0"
         style="stroke-linecap:butt;stroke-linejoin:round" />
    </defs>
    <defs
       id="defs257">
      <path
         d="m 32.328125,0 v 17.140625 h -31.0625 v 8.0625 l 32.671875,46.375 h 7.171875 v -46.375 h 9.671875 v -8.0625 H 41.109375 V 0 Z m 0,25.203125 V 57.46875 L 9.90625,25.203125 Z"
         id="ArialMT-52"
         inkscape:connector-curvature="0"
         style="stroke-linecap:butt;stroke-linejoin:round" />
    </defs>
    <defs
       id="defs212">
      <path
         d="M 50.34375,8.453125 V 0 H 3.03125 Q 2.9375,3.171875 4.046875,6.109375 5.859375,10.9375 9.828125,15.625 13.8125,20.3125 21.34375,26.46875 q 11.671875,9.5625 15.765625,15.15625 4.109375,5.59375 4.109375,10.578125 0,5.21875 -3.75,8.796875 -3.734375,3.59375 -9.734375,3.59375 -6.34375,0 -10.15625,-3.8125 Q 13.765625,56.984375 13.71875,50.25 L 4.6875,51.171875 q 0.921875,10.109375 6.96875,15.40625 6.0625,5.296875 16.28125,5.296875 10.296875,0 16.296875,-5.71875 Q 50.25,60.453125 50.25,52 50.25,47.703125 48.484375,43.546875 46.734375,39.40625 42.65625,34.8125 38.578125,30.21875 29.109375,22.21875 21.1875,15.578125 18.9375,13.203125 q -2.234375,-2.359375 -3.703125,-4.75 z"
         id="ArialMT-50"
         inkscape:connector-curvature="0"
         style="stroke-linecap:butt;stroke-linejoin:round" />
    </defs>
    <defs
       id="defs111">
      <path
         d="M 49.75,54.046875 41.015625,53.375 q -1.171875,5.171875 -3.3125,7.515625 -3.578125,3.765625 -8.796875,3.765625 -4.203125,0 -7.375,-2.34375 Q 17.390625,59.28125 14.984375,53.46875 12.59375,47.65625 12.5,36.921875 15.671875,41.75 20.265625,44.09375 q 4.59375,2.34375 9.625,2.34375 8.78125,0 14.953125,-6.46875 Q 51.03125,33.5 51.03125,23.25 51.03125,16.5 48.125,10.71875 45.21875,4.9375 40.140625,1.859375 35.0625,-1.21875 28.609375,-1.21875 17.625,-1.21875 10.6875,6.859375 3.765625,14.9375 3.765625,33.5 q 0,20.75 7.65625,30.171875 6.6875,8.203125 18.015625,8.203125 8.453125,0 13.84375,-4.734375 Q 48.6875,62.40625 49.75,54.046875 Z M 13.875,23.1875 q 0,-4.53125 1.921875,-8.6875 Q 17.71875,10.359375 21.1875,8.171875 24.65625,6 28.46875,6 q 5.5625,0 9.5625,4.484375 4.015625,4.5 4.015625,12.21875 0,7.421875 -3.96875,11.6875 -3.953125,4.28125 -9.953125,4.28125 -5.953125,0 -10.109375,-4.28125 Q 13.875,30.125 13.875,23.1875 Z"
         id="ArialMT-54"
         inkscape:connector-curvature="0"
         style="stroke-linecap:butt;stroke-linejoin:round" />
    </defs>
    <defs
       id="defs85">
      <path
         d="m 4.203125,18.890625 8.78125,1.171875 Q 14.5,12.59375 18.140625,9.296875 21.78125,6 27,6 33.203125,6 37.46875,10.296875 41.75,14.59375 41.75,20.953125 q 0,6.046875 -3.953125,9.96875 -3.953125,3.9375 -10.0625,3.9375 -2.484375,0 -6.203125,-0.96875 l 0.984375,7.71875 Q 23.390625,41.5 23.921875,41.5 q 5.625,0 10.109375,2.921875 4.5,2.9375 4.5,9.046875 0,4.828125 -3.28125,8 -3.265625,3.1875 -8.4375,3.1875 -5.125,0 -8.546875,-3.234375 -3.421875,-3.21875 -4.390625,-9.65625 l -8.796875,1.5625 q 1.609375,8.828125 7.3125,13.6875 5.71875,4.859375 14.21875,4.859375 5.859375,0 10.78125,-2.515625 4.9375,-2.515625 7.546875,-6.859375 2.625,-4.34375 2.625,-9.234375 0,-4.625 -2.5,-8.4375 -2.484375,-3.8125 -7.359375,-6.0625 6.34375,-1.453125 9.859375,-6.078125 3.515625,-4.609375 3.515625,-11.546875 0,-9.375 -6.84375,-15.890625 -6.828125,-6.515625 -17.28125,-6.515625 -9.421875,0 -15.65625,5.609375 -6.21875,5.625 -7.09375,14.546875 z"
         id="ArialMT-51"
         inkscape:connector-curvature="0"
         style="stroke-linecap:butt;stroke-linejoin:round" />
    </defs>
    <defs
       id="defs59">
      <path
         d="m 37.25,0 h -8.78125 v 56 q -3.171875,-3.015625 -8.328125,-6.046875 -5.15625,-3.03125 -9.25,-4.546875 v 8.5 q 7.375,3.46875 12.890625,8.390625 5.515625,4.9375 7.8125,9.578125 H 37.25 Z"
         id="ArialMT-49"
         inkscape:connector-curvature="0"
         style="stroke-linecap:butt;stroke-linejoin:round" />
    </defs>
    <defs
       id="defs35">
      <path
         d="m 4.734375,62.203125 v 8.453125 h 46.34375 V 63.8125 Q 44.234375,56.546875 37.515625,44.484375 30.8125,32.421875 27.15625,19.671875 24.515625,10.6875 23.78125,0 H 14.75 q 0.140625,8.453125 3.3125,20.40625 3.171875,11.96875 9.109375,23.078125 5.9375,11.109375 12.625,18.71875 z"
         id="ArialMT-55"
         inkscape:connector-curvature="0"
         style="stroke-linecap:butt;stroke-linejoin:round" />
      <path
         d="m 4.15625,35.296875 q 0,12.703125 2.609375,20.4375 2.609375,7.75 7.75,11.9375 5.15625,4.203125 12.96875,4.203125 5.765625,0 10.109375,-2.328125 4.34375,-2.3125 7.171875,-6.6875 Q 47.609375,58.5 49.21875,52.21875 q 1.609375,-6.265625 1.609375,-16.921875 0,-12.59375 -2.59375,-20.328125 Q 45.65625,7.234375 40.5,3 35.359375,-1.21875 27.484375,-1.21875 q -10.34375,0 -16.25,7.421875 -7.078125,8.9375 -7.078125,29.09375 z m 9.03125,0 q 0,-17.625 4.125,-23.46875 Q 21.4375,6 27.484375,6 q 6.0625,0 10.1875,5.859375 4.125,5.859375 4.125,23.4375 0,17.6875 -4.125,23.484375 -4.125,5.8125 -10.28125,5.8125 -6.046875,0 -9.671875,-5.125 Q 13.1875,52.9375 13.1875,35.296875 Z"
         id="ArialMT-48"
         inkscape:connector-curvature="0"
         style="stroke-linecap:butt;stroke-linejoin:round" />
    </defs>
  </defs>
  <path
     d="M 18.158454,366.387 H 454.39565 V 9.9999997 H 18.158454 Z"
     style="fill:none;stroke-linecap:butt;stroke-linejoin:round"
     id="path8"
     inkscape:connector-curvature="0" />
  <path
     inkscape:connector-curvature="0"
     id="path11"
     style="fill:none;stroke-linecap:butt;stroke-linejoin:round"
     d="M 73.392829,309.62763 H 430.51283 V 43.515625 H 73.392829 Z" />
  <path
     inkscape:connector-curvature="0"
     id="path14"
     style="fill:none;stroke:#b0b0b0;stroke-width:0.80000001;stroke-linecap:square;stroke-linejoin:round"
     d="M 55.234375,299.62763 V 33.515625"
     clip-path="url(#p8bef54b5ae)"
     transform="translate(18.158454,9.9999997)" />
  <use
     style="stroke:#000000;stroke-width:0.80000001;stroke-linecap:butt;stroke-linejoin:round"
     x="55.234375"
     xlink:href="#m5813ac42b2"
     y="299.62762"
     id="use20"
     width="100%"
     height="100%"
     transform="translate(18.158454,9.9999997)" />
  <use
     style="stroke:#000000;stroke-width:0.80000001;stroke-linecap:butt;stroke-linejoin:round"
     x="55.234375"
     xlink:href="#m3c07dd4a5e"
     y="33.515625"
     id="use28"
     width="100%"
     height="100%"
     transform="translate(18.158454,9.9999997)" />
  <use
     xlink:href="#ArialMT-55"
     id="use37"
     style="stroke-linecap:butt;stroke-linejoin:round"
     x="0"
     y="0"
     width="100%"
     height="100%"
     transform="matrix(0.2,0,0,-0.2,62.270954,332.44325)" />
  <use
     x="55.615234"
     xlink:href="#ArialMT-48"
     id="use39"
     style="stroke-linecap:butt;stroke-linejoin:round"
     y="0"
     width="100%"
     height="100%"
     transform="matrix(0.2,0,0,-0.2,62.270954,332.44325)" />
  <use
     style="stroke:#000000;stroke-width:0.80000001;stroke-linecap:butt;stroke-linejoin:round"
     x="174.27437"
     xlink:href="#m5813ac42b2"
     y="299.62762"
     id="use48"
     width="100%"
     height="100%"
     transform="translate(18.158454,9.9999997)" />
  <use
     style="stroke:#000000;stroke-width:0.80000001;stroke-linecap:butt;stroke-linejoin:round"
     x="174.27437"
     xlink:href="#m3c07dd4a5e"
     y="33.515625"
     id="use53"
     width="100%"
     height="100%"
     transform="translate(18.158454,9.9999997)" />
  <use
     xlink:href="#ArialMT-49"
     id="use61"
     style="stroke-linecap:butt;stroke-linejoin:round"
     x="0"
     y="0"
     width="100%"
     height="100%"
     transform="matrix(0.2,0,0,-0.2,175.75002,332.44325)" />
  <use
     x="55.615234"
     xlink:href="#ArialMT-48"
     id="use63"
     style="stroke-linecap:butt;stroke-linejoin:round"
     y="0"
     width="100%"
     height="100%"
     transform="matrix(0.2,0,0,-0.2,175.75002,332.44325)" />
  <use
     x="111.23047"
     xlink:href="#ArialMT-48"
     id="use65"
     style="stroke-linecap:butt;stroke-linejoin:round"
     y="0"
     width="100%"
     height="100%"
     transform="matrix(0.2,0,0,-0.2,175.75002,332.44325)" />
  <use
     style="stroke:#000000;stroke-width:0.80000001;stroke-linecap:butt;stroke-linejoin:round"
     x="293.31436"
     xlink:href="#m5813ac42b2"
     y="299.62762"
     id="use74"
     width="100%"
     height="100%"
     transform="translate(18.158454,9.9999997)" />
  <use
     style="stroke:#000000;stroke-width:0.80000001;stroke-linecap:butt;stroke-linejoin:round"
     x="293.31436"
     xlink:href="#m3c07dd4a5e"
     y="33.515625"
     id="use79"
     width="100%"
     height="100%"
     transform="translate(18.158454,9.9999997)" />
  <use
     xlink:href="#ArialMT-49"
     id="use87"
     style="stroke-linecap:butt;stroke-linejoin:round"
     x="0"
     y="0"
     width="100%"
     height="100%"
     transform="matrix(0.2,0,0,-0.2,294.79002,332.44325)" />
  <use
     x="55.615234"
     xlink:href="#ArialMT-51"
     id="use89"
     style="stroke-linecap:butt;stroke-linejoin:round"
     y="0"
     width="100%"
     height="100%"
     transform="matrix(0.2,0,0,-0.2,294.79002,332.44325)" />
  <use
     x="111.23047"
     xlink:href="#ArialMT-48"
     id="use91"
     style="stroke-linecap:butt;stroke-linejoin:round"
     y="0"
     width="100%"
     height="100%"
     transform="matrix(0.2,0,0,-0.2,294.79002,332.44325)" />
  <path
     inkscape:connector-curvature="0"
     id="path97"
     style="fill:none;stroke:#b0b0b0;stroke-width:0.80000001;stroke-linecap:square;stroke-linejoin:round"
     d="M 412.35437,299.62763 V 33.515625"
     clip-path="url(#p8bef54b5ae)"
     transform="translate(18.158454,9.9999997)" />
  <use
     style="stroke:#000000;stroke-width:0.80000001;stroke-linecap:butt;stroke-linejoin:round"
     x="412.35437"
     xlink:href="#m5813ac42b2"
     y="299.62762"
     id="use100"
     width="100%"
     height="100%"
     transform="translate(18.158454,9.9999997)" />
  <use
     style="stroke:#000000;stroke-width:0.80000001;stroke-linecap:butt;stroke-linejoin:round"
     x="412.35437"
     xlink:href="#m3c07dd4a5e"
     y="33.515625"
     id="use105"
     width="100%"
     height="100%"
     transform="translate(18.158454,9.9999997)" />
  <use
     xlink:href="#ArialMT-49"
     id="use113"
     style="stroke-linecap:butt;stroke-linejoin:round"
     x="0"
     y="0"
     width="100%"
     height="100%"
     transform="matrix(0.2,0,0,-0.2,413.83002,332.44325)" />
  <use
     x="55.615234"
     xlink:href="#ArialMT-54"
     id="use115"
     style="stroke-linecap:butt;stroke-linejoin:round"
     y="0"
     width="100%"
     height="100%"
     transform="matrix(0.2,0,0,-0.2,413.83002,332.44325)" />
  <use
     x="111.23047"
     xlink:href="#ArialMT-48"
     id="use117"
     style="stroke-linecap:butt;stroke-linejoin:round"
     y="0"
     width="100%"
     height="100%"
     transform="matrix(0.2,0,0,-0.2,413.83002,332.44325)" />
  <use
     height="100%"
     width="100%"
     y="0"
     style="stroke-linecap:butt;stroke-linejoin:round"
     id="use136"
     xlink:href="#ArialMT-32"
     x="116.69922"
     transform="matrix(0.2,0,0,-0.2,210.28565,354.97762)" />
  <path
     inkscape:connector-curvature="0"
     id="path152"
     style="fill:none;stroke:#b0b0b0;stroke-width:0.80000001;stroke-linecap:square;stroke-linejoin:round"
     d="M 55.234375,299.62763 H 412.35437"
     clip-path="url(#p8bef54b5ae)"
     transform="translate(18.158454,9.9999997)" />
  <use
     style="stroke:#000000;stroke-width:0.80000001;stroke-linecap:butt;stroke-linejoin:round"
     x="55.234375"
     xlink:href="#mce90378eab"
     y="299.62762"
     id="use158"
     width="100%"
     height="100%"
     transform="translate(18.158454,9.9999997)" />
  <use
     style="stroke:#000000;stroke-width:0.80000001;stroke-linecap:butt;stroke-linejoin:round"
     x="412.35437"
     xlink:href="#m42f3f62e02"
     y="299.62762"
     id="use166"
     width="100%"
     height="100%"
     transform="translate(18.158454,9.9999997)" />
  <use
     xlink:href="#ArialMT-48"
     id="use171"
     style="stroke-linecap:butt;stroke-linejoin:round"
     x="0"
     y="0"
     width="100%"
     height="100%"
     transform="matrix(0.2,0,0,-0.2,58.770954,316.78544)" />
  <use
     style="stroke:#000000;stroke-width:0.80000001;stroke-linecap:butt;stroke-linejoin:round"
     x="55.234375"
     xlink:href="#mce90378eab"
     y="246.40523"
     id="use180"
     width="100%"
     height="100%"
     transform="translate(18.158454,9.9999997)" />
  <use
     style="stroke:#000000;stroke-width:0.80000001;stroke-linecap:butt;stroke-linejoin:round"
     x="412.35437"
     xlink:href="#m42f3f62e02"
     y="246.40523"
     id="use185"
     width="100%"
     height="100%"
     transform="translate(18.158454,9.9999997)" />
  <use
     xlink:href="#ArialMT-49"
     id="use190"
     style="stroke-linecap:butt;stroke-linejoin:round"
     x="0"
     y="0"
     width="100%"
     height="100%"
     transform="matrix(0.2,0,0,-0.2,47.649079,263.56304)" />
  <use
     x="55.615234"
     xlink:href="#ArialMT-48"
     id="use192"
     style="stroke-linecap:butt;stroke-linejoin:round"
     y="0"
     width="100%"
     height="100%"
     transform="matrix(0.2,0,0,-0.2,47.649079,263.56304)" />
  <use
     style="stroke:#000000;stroke-width:0.80000001;stroke-linecap:butt;stroke-linejoin:round"
     x="55.234375"
     xlink:href="#mce90378eab"
     y="193.18283"
     id="use201"
     width="100%"
     height="100%"
     transform="translate(18.158454,9.9999997)" />
  <use
     style="stroke:#000000;stroke-width:0.80000001;stroke-linecap:butt;stroke-linejoin:round"
     x="412.35437"
     xlink:href="#m42f3f62e02"
     y="193.18283"
     id="use206"
     width="100%"
     height="100%"
     transform="translate(18.158454,9.9999997)" />
  <use
     xlink:href="#ArialMT-50"
     id="use214"
     style="stroke-linecap:butt;stroke-linejoin:round"
     x="0"
     y="0"
     width="100%"
     height="100%"
     transform="matrix(0.2,0,0,-0.2,47.649079,210.34064)" />
  <use
     x="55.615234"
     xlink:href="#ArialMT-48"
     id="use216"
     style="stroke-linecap:butt;stroke-linejoin:round"
     y="0"
     width="100%"
     height="100%"
     transform="matrix(0.2,0,0,-0.2,47.649079,210.34064)" />
  <use
     style="stroke:#000000;stroke-width:0.80000001;stroke-linecap:butt;stroke-linejoin:round"
     x="55.234375"
     xlink:href="#mce90378eab"
     y="139.96042"
     id="use225"
     width="100%"
     height="100%"
     transform="translate(18.158454,9.9999997)" />
  <use
     style="stroke:#000000;stroke-width:0.80000001;stroke-linecap:butt;stroke-linejoin:round"
     x="412.35437"
     xlink:href="#m42f3f62e02"
     y="139.96042"
     id="use230"
     width="100%"
     height="100%"
     transform="translate(18.158454,9.9999997)" />
  <use
     xlink:href="#ArialMT-51"
     id="use235"
     style="stroke-linecap:butt;stroke-linejoin:round"
     x="0"
     y="0"
     width="100%"
     height="100%"
     transform="matrix(0.2,0,0,-0.2,47.649079,157.11824)" />
  <use
     x="55.615234"
     xlink:href="#ArialMT-48"
     id="use237"
     style="stroke-linecap:butt;stroke-linejoin:round"
     y="0"
     width="100%"
     height="100%"
     transform="matrix(0.2,0,0,-0.2,47.649079,157.11824)" />
  <use
     style="stroke:#000000;stroke-width:0.80000001;stroke-linecap:butt;stroke-linejoin:round"
     x="55.234375"
     xlink:href="#mce90378eab"
     y="86.738022"
     id="use246"
     width="100%"
     height="100%"
     transform="translate(18.158454,9.9999997)" />
  <use
     style="stroke:#000000;stroke-width:0.80000001;stroke-linecap:butt;stroke-linejoin:round"
     x="412.35437"
     xlink:href="#m42f3f62e02"
     y="86.738022"
     id="use251"
     width="100%"
     height="100%"
     transform="translate(18.158454,9.9999997)" />
  <use
     xlink:href="#ArialMT-52"
     id="use259"
     style="stroke-linecap:butt;stroke-linejoin:round"
     x="0"
     y="0"
     width="100%"
     height="100%"
     transform="matrix(0.2,0,0,-0.2,47.649079,103.89584)" />
  <use
     x="55.615234"
     xlink:href="#ArialMT-48"
     id="use261"
     style="stroke-linecap:butt;stroke-linejoin:round"
     y="0"
     width="100%"
     height="100%"
     transform="matrix(0.2,0,0,-0.2,47.649079,103.89584)" />
  <path
     inkscape:connector-curvature="0"
     id="path267"
     style="fill:none;stroke:#b0b0b0;stroke-width:0.80000001;stroke-linecap:square;stroke-linejoin:round"
     d="M 55.234375,33.515625 H 412.35437"
     clip-path="url(#p8bef54b5ae)"
     transform="translate(18.158454,9.9999997)" />
  <use
     style="stroke:#000000;stroke-width:0.80000001;stroke-linecap:butt;stroke-linejoin:round"
     x="55.234375"
     xlink:href="#mce90378eab"
     y="33.515625"
     id="use270"
     width="100%"
     height="100%"
     transform="translate(18.158454,9.9999997)" />
  <use
     style="stroke:#000000;stroke-width:0.80000001;stroke-linecap:butt;stroke-linejoin:round"
     x="412.35437"
     xlink:href="#m42f3f62e02"
     y="33.515625"
     id="use275"
     width="100%"
     height="100%"
     transform="translate(18.158454,9.9999997)" />
  <use
     xlink:href="#ArialMT-53"
     id="use283"
     style="stroke-linecap:butt;stroke-linejoin:round"
     x="0"
     y="0"
     width="100%"
     height="100%"
     transform="matrix(0.2,0,0,-0.2,47.649079,50.673437)" />
  <use
     x="55.615234"
     xlink:href="#ArialMT-48"
     id="use285"
     style="stroke-linecap:butt;stroke-linejoin:round"
     y="0"
     width="100%"
     height="100%"
     transform="matrix(0.2,0,0,-0.2,47.649079,50.673437)" />
  <path
     inkscape:connector-curvature="0"
     id="path305"
     style="fill:none;stroke:#000000;stroke-width:3;stroke-linecap:butt;stroke-linejoin:round"
     d="M 141.82132,204.77229 V 193.00453"
     clip-path="url(#p8bef54b5ae)"
     transform="translate(18.158454,9.9999997)" />
  <path
     inkscape:connector-curvature="0"
     id="path307"
     style="fill:none;stroke:#000000;stroke-width:3;stroke-linecap:butt;stroke-linejoin:round"
     d="M 158.1842,209.76468 V 198.71011"
     clip-path="url(#p8bef54b5ae)"
     transform="translate(18.158454,9.9999997)" />
  <path
     inkscape:connector-curvature="0"
     id="path309"
     style="fill:none;stroke:#000000;stroke-width:3;stroke-linecap:butt;stroke-linejoin:round"
     d="M 204.54571,187.29894 V 173.03498"
     clip-path="url(#p8bef54b5ae)"
     transform="translate(18.158454,9.9999997)" />
  <path
     inkscape:connector-curvature="0"
     id="path311"
     style="fill:none;stroke:#000000;stroke-width:3;stroke-linecap:butt;stroke-linejoin:round"
     d="M 222.54489,146.64666 V 130.2431"
     clip-path="url(#p8bef54b5ae)"
     transform="translate(18.158454,9.9999997)" />
  <path
     inkscape:connector-curvature="0"
     id="path313"
     style="fill:none;stroke:#000000;stroke-width:3;stroke-linecap:butt;stroke-linejoin:round"
     d="m 243.27121,119.18853 v -9.27157"
     clip-path="url(#p8bef54b5ae)"
     transform="translate(18.158454,9.9999997)" />
  <path
     inkscape:connector-curvature="0"
     id="path315"
     style="fill:none;stroke:#000000;stroke-width:3;stroke-linecap:butt;stroke-linejoin:round"
     d="M 263.45211,103.14158 V 93.870005"
     clip-path="url(#p8bef54b5ae)"
     transform="translate(18.158454,9.9999997)" />
  <path
     inkscape:connector-curvature="0"
     id="path317"
     style="fill:none;stroke:#000000;stroke-width:3;stroke-linecap:butt;stroke-linejoin:round"
     d="M 266.72468,97.792594 V 89.590817"
     clip-path="url(#p8bef54b5ae)"
     transform="translate(18.158454,9.9999997)" />
  <path
     inkscape:connector-curvature="0"
     id="path319"
     style="fill:none;stroke:#000000;stroke-width:3;stroke-linecap:butt;stroke-linejoin:round"
     d="m 287.45101,107.42077 v -6.06219"
     clip-path="url(#p8bef54b5ae)"
     transform="translate(18.158454,9.9999997)" />
  <path
     inkscape:connector-curvature="0"
     id="path321"
     style="fill:none;stroke:#000000;stroke-width:3;stroke-linecap:butt;stroke-linejoin:round"
     d="m 308.72276,143.79386 v -9.62817"
     clip-path="url(#p8bef54b5ae)"
     transform="translate(18.158454,9.9999997)" />
  <path
     inkscape:connector-curvature="0"
     id="path323"
     style="fill:none;stroke:#000000;stroke-width:3;stroke-linecap:butt;stroke-linejoin:round"
     d="m 359.99314,214.75706 v -6.06218"
     clip-path="url(#p8bef54b5ae)"
     transform="translate(18.158454,9.9999997)" />
  <path
     inkscape:connector-curvature="0"
     id="path325"
     style="fill:none;stroke:#000000;stroke-width:3;stroke-linecap:butt;stroke-linejoin:round"
     d="m 384.53747,237.5794 v 0"
     clip-path="url(#p8bef54b5ae)"
     transform="translate(18.158454,9.9999997)" />
  <use
     style="stroke:#000000;stroke-linecap:butt;stroke-linejoin:round"
     x="141.82132"
     xlink:href="#mb0553f5a1c"
     y="204.77229"
     id="use331"
     width="100%"
     height="100%"
     transform="translate(18.158454,9.9999997)" />
  <use
     style="stroke:#000000;stroke-linecap:butt;stroke-linejoin:round"
     x="158.1842"
     xlink:href="#mb0553f5a1c"
     y="209.76468"
     id="use333"
     width="100%"
     height="100%"
     transform="translate(18.158454,9.9999997)" />
  <use
     style="stroke:#000000;stroke-linecap:butt;stroke-linejoin:round"
     x="204.54572"
     xlink:href="#mb0553f5a1c"
     y="187.29893"
     id="use335"
     width="100%"
     height="100%"
     transform="translate(18.158454,9.9999997)" />
  <use
     style="stroke:#000000;stroke-linecap:butt;stroke-linejoin:round"
     x="222.54489"
     xlink:href="#mb0553f5a1c"
     y="146.64665"
     id="use337"
     width="100%"
     height="100%"
     transform="translate(18.158454,9.9999997)" />
  <use
     style="stroke:#000000;stroke-linecap:butt;stroke-linejoin:round"
     x="243.27121"
     xlink:href="#mb0553f5a1c"
     y="119.18854"
     id="use339"
     width="100%"
     height="100%"
     transform="translate(18.158454,9.9999997)" />
  <use
     style="stroke:#000000;stroke-linecap:butt;stroke-linejoin:round"
     x="263.45212"
     xlink:href="#mb0553f5a1c"
     y="103.14158"
     id="use341"
     width="100%"
     height="100%"
     transform="translate(18.158454,9.9999997)" />
  <use
     style="stroke:#000000;stroke-linecap:butt;stroke-linejoin:round"
     x="266.72467"
     xlink:href="#mb0553f5a1c"
     y="97.792595"
     id="use343"
     width="100%"
     height="100%"
     transform="translate(18.158454,9.9999997)" />
  <use
     style="stroke:#000000;stroke-linecap:butt;stroke-linejoin:round"
     x="287.45102"
     xlink:href="#mb0553f5a1c"
     y="107.42077"
     id="use345"
     width="100%"
     height="100%"
     transform="translate(18.158454,9.9999997)" />
  <use
     style="stroke:#000000;stroke-linecap:butt;stroke-linejoin:round"
     x="308.72275"
     xlink:href="#mb0553f5a1c"
     y="143.79387"
     id="use347"
     width="100%"
     height="100%"
     transform="translate(18.158454,9.9999997)" />
  <use
     style="stroke:#000000;stroke-linecap:butt;stroke-linejoin:round"
     x="359.99313"
     xlink:href="#mb0553f5a1c"
     y="214.75706"
     id="use349"
     width="100%"
     height="100%"
     transform="translate(18.158454,9.9999997)" />
  <use
     style="stroke:#000000;stroke-linecap:butt;stroke-linejoin:round"
     x="384.53748"
     xlink:href="#mb0553f5a1c"
     y="237.57941"
     id="use351"
     width="100%"
     height="100%"
     transform="translate(18.158454,9.9999997)" />
  <use
     style="stroke:#000000;stroke-linecap:butt;stroke-linejoin:round"
     x="141.82132"
     xlink:href="#mb0553f5a1c"
     y="193.00453"
     id="use356"
     width="100%"
     height="100%"
     transform="translate(18.158454,9.9999997)" />
  <use
     style="stroke:#000000;stroke-linecap:butt;stroke-linejoin:round"
     x="158.1842"
     xlink:href="#mb0553f5a1c"
     y="198.71011"
     id="use358"
     width="100%"
     height="100%"
     transform="translate(18.158454,9.9999997)" />
  <use
     style="stroke:#000000;stroke-linecap:butt;stroke-linejoin:round"
     x="204.54572"
     xlink:href="#mb0553f5a1c"
     y="173.03499"
     id="use360"
     width="100%"
     height="100%"
     transform="translate(18.158454,9.9999997)" />
  <use
     style="stroke:#000000;stroke-linecap:butt;stroke-linejoin:round"
     x="222.54489"
     xlink:href="#mb0553f5a1c"
     y="130.2431"
     id="use362"
     width="100%"
     height="100%"
     transform="translate(18.158454,9.9999997)" />
  <use
     style="stroke:#000000;stroke-linecap:butt;stroke-linejoin:round"
     x="243.27121"
     xlink:href="#mb0553f5a1c"
     y="109.91696"
     id="use364"
     width="100%"
     height="100%"
     transform="translate(18.158454,9.9999997)" />
  <use
     style="stroke:#000000;stroke-linecap:butt;stroke-linejoin:round"
     x="263.45212"
     xlink:href="#mb0553f5a1c"
     y="93.870003"
     id="use366"
     width="100%"
     height="100%"
     transform="translate(18.158454,9.9999997)" />
  <use
     style="stroke:#000000;stroke-linecap:butt;stroke-linejoin:round"
     x="266.72467"
     xlink:href="#mb0553f5a1c"
     y="89.59082"
     id="use368"
     width="100%"
     height="100%"
     transform="translate(18.158454,9.9999997)" />
  <use
     style="stroke:#000000;stroke-linecap:butt;stroke-linejoin:round"
     x="287.45102"
     xlink:href="#mb0553f5a1c"
     y="101.35858"
     id="use370"
     width="100%"
     height="100%"
     transform="translate(18.158454,9.9999997)" />
  <use
     style="stroke:#000000;stroke-linecap:butt;stroke-linejoin:round"
     x="308.72275"
     xlink:href="#mb0553f5a1c"
     y="134.1657"
     id="use372"
     width="100%"
     height="100%"
     transform="translate(18.158454,9.9999997)" />
  <use
     style="stroke:#000000;stroke-linecap:butt;stroke-linejoin:round"
     x="359.99313"
     xlink:href="#mb0553f5a1c"
     y="208.69489"
     id="use374"
     width="100%"
     height="100%"
     transform="translate(18.158454,9.9999997)" />
  <use
     style="stroke:#000000;stroke-linecap:butt;stroke-linejoin:round"
     x="384.53748"
     xlink:href="#mb0553f5a1c"
     y="237.57941"
     id="use376"
     width="100%"
     height="100%"
     transform="translate(18.158454,9.9999997)" />
  <path
     inkscape:connector-curvature="0"
     id="path381"
     style="fill:none;stroke:#000000;stroke-width:1.5;stroke-linecap:butt;stroke-linejoin:round;stroke-dashoffset:0"
     d="m -1,134.63538 1.168253,-2.16351 8.097959,-13.64104 8.097959,-11.42493 8.097959,-8.377407 8.097959,-4.584679 8.097959,-0.103873 8.09796,4.556173 8.097959,9.050896 8.097959,13.08292 8.097959,16.00317 8.097959,17.7103 8.09796,18.08695 8.097959,17.07673 8.097957,14.99472 8.09796,12.37582 8.09796,9.36449 8.09796,6.54534 8.09796,4.14414 8.09796,2.09627 8.09796,0.31723 8.09796,-1.29593 8.09795,-3.19547 8.09796,-5.50965 8.09796,-8.16929 8.09796,-11.10517 8.09796,-14.10831 8.09796,-16.46942 8.09796,-18.01063 8.09796,-18.35336 8.09796,-17.20648 8.09796,-14.68826 8.09796,-11.12199 8.09796,-6.623451 8.09796,-1.85908 8.09796,2.776073 8.09795,7.047028 8.09796,10.50729 8.09796,13.10253 8.09796,14.81043 8.09796,15.62341 8.09796,15.6731 8.09796,15.15466 8.09796,14.13826 8.09796,12.91777 8.09796,11.5921 8.09796,10.16134 8.09795,8.62549"
     clip-path="url(#p8bef54b5ae)"
     transform="translate(18.158454,9.9999997)" />
  <path
     inkscape:connector-curvature="0"
     id="path384"
     style="fill:none;stroke:#ff0000;stroke-width:1.5;stroke-linecap:butt;stroke-linejoin:round;stroke-dasharray:9, 1.5;stroke-dashoffset:0"
     d="m -1,133.43202 1.168253,-2.09417 8.097959,-13.13987 8.097959,-10.95466 8.097959,-7.983546 8.097959,-4.294944 8.097959,0.05677 8.09796,4.556169 8.097959,8.854251 8.097959,12.65746 8.097959,15.32537 8.097959,16.76095 8.09796,16.87417 8.097959,15.62315 8.097957,13.3564 8.09796,10.66539 8.09796,7.70367 8.09796,5.07887 8.09796,3.02471 8.09796,1.43755 8.09796,0.18219 8.09796,-0.86977 8.09795,-2.27308 8.09796,-4.18709 8.09796,-6.57294 8.09796,-9.3917 8.09796,-12.42297 8.09796,-14.91344 8.09796,-16.6728 8.09796,-17.2779 8.09796,-16.40327 8.09796,-14.156 8.09796,-10.83298 8.09796,-6.545837 8.09796,-1.961613 8.09796,2.524307 8.09795,6.678203 8.09796,10.05603 8.09796,12.60508 8.09796,14.31279 8.09796,15.17596 8.09796,15.3219 8.09796,14.93954 8.09796,14.0924 8.09796,13.04166 8.09796,11.87518 8.09796,10.59304 8.09795,9.19524"
     clip-path="url(#p8bef54b5ae)"
     transform="translate(18.158454,9.9999997)" />
  <path
     inkscape:connector-curvature="0"
     id="path390"
     style="fill:none;stroke:#008000;stroke-width:1.5;stroke-linecap:butt;stroke-linejoin:round;stroke-miterlimit:4;stroke-dasharray:1.50000002, 1.50000002;stroke-dashoffset:0;stroke-opacity:1"
     d="m -1,129.9746 1.168253,-1.91572 8.097959,-11.95976 8.097959,-9.85642 8.097959,-6.99664 8.097959,-3.462078 8.097959,0.693669 8.09796,4.994759 8.097959,9.11904 8.097959,12.80332 8.097959,15.47372 8.097959,17.04164 8.09796,17.41134 8.097959,16.53702 8.097957,14.68808 8.09796,12.32182 8.09796,9.55957 8.09796,6.88728 8.09796,4.49303 8.09796,2.33971 8.09796,0.37864 8.09796,-1.46416 8.09795,-3.51738 8.09796,-5.87323 8.09796,-8.45776 8.09796,-11.197 8.09796,-13.91538 8.09796,-16.01944 8.09796,-17.36068 8.09796,-17.62716 8.09796,-16.57904 8.09796,-14.30499 8.09796,-11.04903 8.09796,-6.910044 8.09796,-2.510125 8.09796,1.781939 8.09795,5.74677 8.09796,8.96751 8.09796,11.39521 8.09796,13.02217 8.09796,13.84713 8.09796,13.98705 8.09796,13.6154 8.09796,12.79784 8.09796,11.81374 8.09796,10.75709 8.09796,9.62796 8.09795,8.42636"
     clip-path="url(#p8bef54b5ae)"
     transform="translate(18.158454,9.9999997)" />
  <use
     style="stroke:#000000;stroke-linecap:butt;stroke-linejoin:round"
     x="141.82132"
     xlink:href="#m243f5958d7"
     y="198.71011"
     id="use396"
     width="100%"
     height="100%"
     transform="translate(18.158454,9.9999997)" />
  <use
     style="stroke:#000000;stroke-linecap:butt;stroke-linejoin:round"
     x="158.1842"
     xlink:href="#m243f5958d7"
     y="204.0591"
     id="use398"
     width="100%"
     height="100%"
     transform="translate(18.158454,9.9999997)" />
  <use
     style="stroke:#000000;stroke-linecap:butt;stroke-linejoin:round"
     x="204.54572"
     xlink:href="#m243f5958d7"
     y="180.16696"
     id="use400"
     width="100%"
     height="100%"
     transform="translate(18.158454,9.9999997)" />
  <use
     style="stroke:#000000;stroke-linecap:butt;stroke-linejoin:round"
     x="222.54489"
     xlink:href="#m243f5958d7"
     y="138.44489"
     id="use402"
     width="100%"
     height="100%"
     transform="translate(18.158454,9.9999997)" />
  <use
     style="stroke:#000000;stroke-linecap:butt;stroke-linejoin:round"
     x="243.27121"
     xlink:href="#m243f5958d7"
     y="114.19615"
     id="use404"
     width="100%"
     height="100%"
     transform="translate(18.158454,9.9999997)" />
  <use
     style="stroke:#000000;stroke-linecap:butt;stroke-linejoin:round"
     x="263.45212"
     xlink:href="#m243f5958d7"
     y="98.505791"
     id="use406"
     width="100%"
     height="100%"
     transform="translate(18.158454,9.9999997)" />
  <use
     style="stroke:#000000;stroke-linecap:butt;stroke-linejoin:round"
     x="266.72467"
     xlink:href="#m243f5958d7"
     y="93.156807"
     id="use408"
     width="100%"
     height="100%"
     transform="translate(18.158454,9.9999997)" />
  <use
     style="stroke:#000000;stroke-linecap:butt;stroke-linejoin:round"
     x="287.45102"
     xlink:href="#m243f5958d7"
     y="104.21137"
     id="use410"
     width="100%"
     height="100%"
     transform="translate(18.158454,9.9999997)" />
  <use
     style="stroke:#000000;stroke-linecap:butt;stroke-linejoin:round"
     x="308.72275"
     xlink:href="#m243f5958d7"
     y="139.15808"
     id="use412"
     width="100%"
     height="100%"
     transform="translate(18.158454,9.9999997)" />
  <use
     style="stroke:#000000;stroke-linecap:butt;stroke-linejoin:round"
     x="359.99313"
     xlink:href="#m243f5958d7"
     y="211.54767"
     id="use414"
     width="100%"
     height="100%"
     transform="translate(18.158454,9.9999997)" />
  <use
     style="stroke:#000000;stroke-linecap:butt;stroke-linejoin:round"
     x="384.53748"
     xlink:href="#m243f5958d7"
     y="237.57941"
     id="use416"
     width="100%"
     height="100%"
     transform="translate(18.158454,9.9999997)" />
  <path
     inkscape:connector-curvature="0"
     id="path421"
     style="fill:none;stroke:#000000;stroke-width:0.80000001;stroke-linecap:square;stroke-linejoin:miter"
     d="M 73.392829,309.62763 V 43.515625" />
  <path
     inkscape:connector-curvature="0"
     id="path424"
     style="fill:none;stroke:#000000;stroke-width:0.80000001;stroke-linecap:square;stroke-linejoin:miter"
     d="M 430.51283,309.62763 V 43.515625" />
  <path
     inkscape:connector-curvature="0"
     id="path427"
     style="fill:none;stroke:#000000;stroke-width:0.80000001;stroke-linecap:square;stroke-linejoin:miter"
     d="M 73.392829,309.62763 H 430.51283" />
  <path
     inkscape:connector-curvature="0"
     id="path430"
     style="fill:none;stroke:#000000;stroke-width:0.80000001;stroke-linecap:square;stroke-linejoin:miter"
     d="M 73.392829,43.515625 H 430.51283" />
  <g
     style="stroke-linecap:butt;stroke-linejoin:round"
     id="line2d_39"
     transform="translate(18.158454,9.9999997)" />
  <use
     height="100%"
     width="100%"
     y="0"
     style="stroke-linecap:butt;stroke-linejoin:round"
     id="use486"
     xlink:href="#ArialMT-32"
     x="327.83203"
     transform="matrix(0.14,0,0,-0.14,200.78815,66.136562)" />
  <g
     style="stroke-linecap:butt;stroke-linejoin:round"
     id="line2d_41"
     transform="translate(18.158454,9.9999997)" />
  <g
     style="stroke-linecap:butt;stroke-linejoin:round"
     id="line2d_43"
     transform="translate(18.158454,9.9999997)" />
  <g
     style="stroke-linecap:butt;stroke-linejoin:round"
     id="line2d_45"
     transform="translate(18.158454,9.9999997)" />
  <g
     style="stroke-linecap:butt;stroke-linejoin:round"
     id="line2d_48"
     transform="translate(18.158454,9.9999997)" />
  <defs
     id="defs747">
    <clipPath
       id="p8bef54b5ae"
       style="stroke-linecap:butt;stroke-linejoin:round">
      <rect
         height="266.112"
         width="357.12"
         x="55.234375"
         y="33.515625"
         id="rect744"
         style="stroke-linecap:butt;stroke-linejoin:round" />
    </clipPath>
  </defs>
  <g
     id="g4180"
     transform="matrix(1.0745941,0,0,1.0745941,-479.47249,-147.96028)"
     style="stroke-linecap:butt;stroke-linejoin:round">
    <g
       id="g1143"
       transform="matrix(0.88616675,0,0,0.88616675,58.930623,21.893248)"
       style="stroke-linecap:butt;stroke-linejoin:round">
      <g
         style="stroke-linecap:butt;stroke-linejoin:round"
         id="g4139">
        <path
           inkscape:connector-curvature="0"
           id="path460"
           style="fill:none;stroke:#000000;stroke-width:1.5;stroke-linecap:butt;stroke-linejoin:round;stroke-dashoffset:0"
           d="m 532.06259,195.96232 h 28" />
        <text
           id="text4042"
           y="202.33942"
           x="574.89911"
           style="font-style:normal;font-variant:normal;font-weight:normal;font-stretch:normal;font-size:19.6691px;line-height:1.25;font-family:'Times New Roman';-inkscape-font-specification:'Times New Roman, Normal';font-variant-ligatures:normal;font-variant-caps:normal;font-variant-numeric:normal;text-align:start;letter-spacing:0px;word-spacing:0px;writing-mode:lr-tb;text-anchor:start;fill:#000000;fill-opacity:1;stroke:none;stroke-width:0.491728;stroke-linecap:butt;stroke-linejoin:round"
           xml:space="preserve"><tspan
             y="202.33942"
             x="574.89911"
             style="stroke-width:0.491728;stroke-linecap:butt;stroke-linejoin:round"
             id="tspan4040"
             sodipodi:role="line">Kramer + KD</tspan></text>
      </g>
      <g
         id="g4144"
         transform="translate(0,-0.89362336)"
         style="stroke-linecap:butt;stroke-linejoin:round">
        <path
           inkscape:connector-curvature="0"
           id="path525"
           style="fill:none;stroke:#ff0000;stroke-width:1.5;stroke-linecap:butt;stroke-linejoin:round;stroke-dasharray:8.99999985, 1.49999998;stroke-dashoffset:0"
           d="m 532.06259,216.42252 h 28" />
        <text
           id="text4046"
           y="222.79962"
           x="574.89911"
           style="font-style:normal;font-variant:normal;font-weight:normal;font-stretch:normal;font-size:19.6691px;line-height:1.25;font-family:'Times New Roman';-inkscape-font-specification:'Times New Roman, Normal';font-variant-ligatures:normal;font-variant-caps:normal;font-variant-numeric:normal;text-align:start;letter-spacing:0px;word-spacing:0px;writing-mode:lr-tb;text-anchor:start;fill:#000000;fill-opacity:1;stroke:none;stroke-width:0.491728;stroke-linecap:butt;stroke-linejoin:round"
           xml:space="preserve"><tspan
             y="222.79962"
             x="574.89911"
             style="stroke-width:0.491728;stroke-linecap:butt;stroke-linejoin:round"
             id="tspan4044"
             sodipodi:role="line">Kramer + DP</tspan></text>
      </g>
      <g
         id="g4149"
         transform="translate(0,-1.7872582)"
         style="stroke-linecap:butt;stroke-linejoin:round">
        <text
           id="text4050"
           y="243.39429"
           x="574.88947"
           style="font-style:normal;font-variant:normal;font-weight:normal;font-stretch:normal;font-size:19.6691px;line-height:1.25;font-family:'Times New Roman';-inkscape-font-specification:'Times New Roman, Normal';font-variant-ligatures:normal;font-variant-caps:normal;font-variant-numeric:normal;text-align:start;letter-spacing:0px;word-spacing:0px;writing-mode:lr-tb;text-anchor:start;fill:#000000;fill-opacity:1;stroke:none;stroke-width:0.491728;stroke-linecap:butt;stroke-linejoin:round"
           xml:space="preserve"><tspan
             y="243.39429"
             x="574.88947"
             style="stroke-width:0.491728;stroke-linecap:butt;stroke-linejoin:round"
             id="tspan4048"
             sodipodi:role="line">DOM</tspan></text>
        <path
           inkscape:transform-center-y="-5.4741648"
           inkscape:transform-center-x="9.2494508"
           inkscape:connector-curvature="0"
           id="path587"
           style="fill:none;stroke:#008000;stroke-width:1.58815897;stroke-linecap:butt;stroke-linejoin:round;stroke-dasharray:1.58815892, 1.58815892;stroke-dashoffset:0"
           d="m 530.78652,237.09443 h 29.64564" />
      </g>
      <g
         style="stroke-linecap:butt;stroke-linejoin:round"
         id="g4158">
        <g
           style="stroke-linecap:butt;stroke-linejoin:round"
           id="g4074"
           transform="translate(388.6329,149.37049)">
          <path
             d="m 157.42969,112.29156 v -14"
             style="fill:none;stroke:#000000;stroke-width:3;stroke-linecap:butt;stroke-linejoin:round"
             id="path709"
             inkscape:connector-curvature="0" />
          <use
             height="100%"
             width="100%"
             id="use712"
             y="137.79156"
             xlink:href="#mb0553f5a1c"
             x="157.42969"
             style="stroke:#000000;stroke-linecap:butt;stroke-linejoin:round"
             transform="translate(0,-25.5)" />
          <use
             height="100%"
             width="100%"
             id="use717"
             y="123.79156"
             xlink:href="#mb0553f5a1c"
             x="157.42969"
             style="stroke:#000000;stroke-linecap:butt;stroke-linejoin:round"
             transform="translate(0,-25.5)" />
          <use
             height="100%"
             width="100%"
             id="use723"
             y="130.79156"
             xlink:href="#m243f5958d7"
             x="157.42969"
             style="stroke:#000000;stroke-linecap:butt;stroke-linejoin:round"
             transform="translate(0,-25.5)" />
        </g>
        <text
           id="text4050-3"
           y="257.09189"
           x="574.49573"
           style="font-style:normal;font-variant:normal;font-weight:normal;font-stretch:normal;font-size:19.6691px;line-height:1.25;font-family:'Times New Roman';-inkscape-font-specification:'Times New Roman, Normal';font-variant-ligatures:normal;font-variant-caps:normal;font-variant-numeric:normal;text-align:start;letter-spacing:0px;word-spacing:0px;writing-mode:lr-tb;text-anchor:start;fill:#000000;fill-opacity:1;stroke:none;stroke-width:0.491728;stroke-linecap:butt;stroke-linejoin:round"
           xml:space="preserve"><tspan
             y="257.09189"
             x="574.49573"
             style="stroke-width:0.491728;stroke-linecap:butt;stroke-linejoin:round"
             id="tspan4048-6"
             sodipodi:role="line">Noro <tspan
   style="font-style:italic"
   id="tspan1517">et al.</tspan></tspan></text>
      </g>
    </g>
  </g>
  <g
     id="g743"
     style="stroke-linecap:butt;stroke-linejoin:round"
     transform="matrix(0,-2.1591385,2.1591385,0,-256.22613,830.20384)"
     ns0:preamble="/home/yoshidak/.config/inkscape/extensions/package.tex"
     ns0:text="$d^3\\sigma^\\mathrm{L} /dT_1^\\mathrm{L} d\\Omega_1^\\mathrm{L} d\\Omega_2^\\mathrm{L}$ [$\\mu$b/(MeV sr$^2$)]\n\n\n\n\n\n">
    <defs
       id="defs636">
      <g
         id="g634">
        <symbol
           id="textext-9701c133-0"
           overflow="visible">
          <path
             id="path562"
             d=""
             style="stroke:none;" />
        </symbol>
        <symbol
           id="textext-9701c133-1"
           overflow="visible">
          <path
             id="path565"
             d="M 5.140625 -6.8125 C 5.140625 -6.8125 5.140625 -6.921875 5.015625 -6.921875 C 4.859375 -6.921875 3.921875 -6.828125 3.75 -6.8125 C 3.671875 -6.796875 3.609375 -6.75 3.609375 -6.625 C 3.609375 -6.5 3.703125 -6.5 3.84375 -6.5 C 4.328125 -6.5 4.34375 -6.4375 4.34375 -6.328125 L 4.3125 -6.125 L 3.71875 -3.765625 C 3.53125 -4.140625 3.25 -4.40625 2.796875 -4.40625 C 1.640625 -4.40625 0.40625 -2.9375 0.40625 -1.484375 C 0.40625 -0.546875 0.953125 0.109375 1.71875 0.109375 C 1.921875 0.109375 2.421875 0.0625 3.015625 -0.640625 C 3.09375 -0.21875 3.453125 0.109375 3.921875 0.109375 C 4.28125 0.109375 4.5 -0.125 4.671875 -0.4375 C 4.828125 -0.796875 4.96875 -1.40625 4.96875 -1.421875 C 4.96875 -1.53125 4.875 -1.53125 4.84375 -1.53125 C 4.75 -1.53125 4.734375 -1.484375 4.703125 -1.34375 C 4.53125 -0.703125 4.359375 -0.109375 3.953125 -0.109375 C 3.671875 -0.109375 3.65625 -0.375 3.65625 -0.5625 C 3.65625 -0.8125 3.671875 -0.875 3.703125 -1.046875 Z M 3.078125 -1.1875 C 3.015625 -1 3.015625 -0.984375 2.875 -0.8125 C 2.4375 -0.265625 2.03125 -0.109375 1.75 -0.109375 C 1.25 -0.109375 1.109375 -0.65625 1.109375 -1.046875 C 1.109375 -1.546875 1.421875 -2.765625 1.65625 -3.234375 C 1.96875 -3.8125 2.40625 -4.1875 2.8125 -4.1875 C 3.453125 -4.1875 3.59375 -3.375 3.59375 -3.3125 C 3.59375 -3.25 3.578125 -3.1875 3.5625 -3.140625 Z M 3.078125 -1.1875 "
             style="stroke:none;" />
        </symbol>
        <symbol
           id="textext-9701c133-2"
           overflow="visible">
          <path
             id="path568"
             d="M 5.15625 -3.71875 C 5.296875 -3.71875 5.65625 -3.71875 5.65625 -4.0625 C 5.65625 -4.296875 5.4375 -4.296875 5.265625 -4.296875 L 2.984375 -4.296875 C 1.484375 -4.296875 0.375 -2.65625 0.375 -1.46875 C 0.375 -0.59375 0.96875 0.109375 1.875 0.109375 C 3.046875 0.109375 4.375 -1.09375 4.375 -2.625 C 4.375 -2.796875 4.375 -3.28125 4.0625 -3.71875 Z M 1.890625 -0.109375 C 1.390625 -0.109375 1 -0.46875 1 -1.1875 C 1 -1.484375 1.109375 -2.296875 1.46875 -2.890625 C 1.890625 -3.578125 2.484375 -3.71875 2.828125 -3.71875 C 3.65625 -3.71875 3.734375 -3.0625 3.734375 -2.75 C 3.734375 -2.28125 3.53125 -1.46875 3.203125 -0.953125 C 2.8125 -0.375 2.265625 -0.109375 1.890625 -0.109375 Z M 1.890625 -0.109375 "
             style="stroke:none;" />
        </symbol>
        <symbol
           id="textext-9701c133-3"
           overflow="visible">
          <path
             id="path571"
             d="M 4.375 -7.09375 C 4.421875 -7.234375 4.421875 -7.265625 4.421875 -7.28125 C 4.421875 -7.390625 4.34375 -7.484375 4.234375 -7.484375 C 4.15625 -7.484375 4.09375 -7.453125 4.0625 -7.390625 L 0.59375 2.109375 C 0.546875 2.25 0.546875 2.28125 0.546875 2.296875 C 0.546875 2.40625 0.640625 2.5 0.75 2.5 C 0.875 2.5 0.90625 2.421875 0.96875 2.25 Z M 4.375 -7.09375 "
             style="stroke:none;" />
        </symbol>
        <symbol
           id="textext-9701c133-4"
           overflow="visible">
          <path
             id="path574"
             d="M 4.25 -6.046875 C 4.328125 -6.328125 4.359375 -6.390625 4.484375 -6.421875 C 4.578125 -6.4375 4.90625 -6.4375 5.109375 -6.4375 C 6.125 -6.4375 6.5625 -6.40625 6.5625 -5.625 C 6.5625 -5.46875 6.53125 -5.078125 6.484375 -4.828125 C 6.484375 -4.78125 6.453125 -4.671875 6.453125 -4.640625 C 6.453125 -4.578125 6.484375 -4.5 6.578125 -4.5 C 6.6875 -4.5 6.703125 -4.578125 6.734375 -4.734375 L 7 -6.46875 C 7.015625 -6.515625 7.015625 -6.609375 7.015625 -6.640625 C 7.015625 -6.75 6.921875 -6.75 6.75 -6.75 L 1.21875 -6.75 C 0.984375 -6.75 0.96875 -6.734375 0.890625 -6.546875 L 0.296875 -4.796875 C 0.296875 -4.78125 0.234375 -4.640625 0.234375 -4.609375 C 0.234375 -4.5625 0.296875 -4.5 0.359375 -4.5 C 0.453125 -4.5 0.46875 -4.5625 0.53125 -4.71875 C 1.0625 -6.265625 1.328125 -6.4375 2.796875 -6.4375 L 3.1875 -6.4375 C 3.46875 -6.4375 3.46875 -6.40625 3.46875 -6.3125 C 3.46875 -6.265625 3.4375 -6.140625 3.421875 -6.109375 L 2.09375 -0.78125 C 2 -0.421875 1.96875 -0.3125 0.90625 -0.3125 C 0.546875 -0.3125 0.484375 -0.3125 0.484375 -0.125 C 0.484375 0 0.59375 0 0.65625 0 C 0.921875 0 1.203125 -0.015625 1.46875 -0.015625 C 1.75 -0.015625 2.046875 -0.03125 2.328125 -0.03125 C 2.609375 -0.03125 2.875 -0.015625 3.15625 -0.015625 C 3.4375 -0.015625 3.734375 0 4.015625 0 C 4.109375 0 4.234375 0 4.234375 -0.203125 C 4.234375 -0.3125 4.15625 -0.3125 3.890625 -0.3125 C 3.65625 -0.3125 3.515625 -0.3125 3.265625 -0.328125 C 2.96875 -0.359375 2.890625 -0.390625 2.890625 -0.546875 C 2.890625 -0.5625 2.890625 -0.609375 2.9375 -0.75 Z M 4.25 -6.046875 "
             style="stroke:none;" />
        </symbol>
        <symbol
           id="textext-9701c133-5"
           overflow="visible">
          <path
             id="path577"
             d="M 2.296875 -3.5 C 2.359375 -3.703125 2.453125 -4.09375 2.453125 -4.140625 C 2.453125 -4.3125 2.328125 -4.40625 2.15625 -4.40625 C 2.140625 -4.40625 1.859375 -4.390625 1.765625 -4.046875 L 0.328125 1.71875 C 0.296875 1.84375 0.296875 1.859375 0.296875 1.890625 C 0.296875 2.03125 0.40625 2.15625 0.578125 2.15625 C 0.78125 2.15625 0.90625 1.96875 0.921875 1.9375 C 0.96875 1.859375 1.09375 1.328125 1.46875 -0.203125 C 1.796875 0.0625 2.25 0.109375 2.4375 0.109375 C 3.140625 0.109375 3.53125 -0.34375 3.765625 -0.625 C 3.859375 -0.171875 4.234375 0.109375 4.671875 0.109375 C 5.015625 0.109375 5.25 -0.125 5.40625 -0.4375 C 5.578125 -0.796875 5.703125 -1.40625 5.703125 -1.421875 C 5.703125 -1.53125 5.609375 -1.53125 5.578125 -1.53125 C 5.484375 -1.53125 5.46875 -1.484375 5.4375 -1.34375 C 5.28125 -0.703125 5.09375 -0.109375 4.6875 -0.109375 C 4.421875 -0.109375 4.390625 -0.375 4.390625 -0.5625 C 4.390625 -0.78125 4.5 -1.25 4.578125 -1.609375 L 4.859375 -2.6875 C 4.890625 -2.828125 5 -3.203125 5.03125 -3.359375 C 5.078125 -3.59375 5.1875 -3.96875 5.1875 -4.03125 C 5.1875 -4.203125 5.046875 -4.296875 4.890625 -4.296875 C 4.84375 -4.296875 4.578125 -4.28125 4.5 -3.953125 L 4.03125 -2.078125 C 3.921875 -1.578125 3.8125 -1.171875 3.78125 -1.0625 C 3.765625 -1.015625 3.296875 -0.109375 2.484375 -0.109375 C 1.984375 -0.109375 1.75 -0.4375 1.75 -0.984375 C 1.75 -1.265625 1.8125 -1.546875 1.890625 -1.828125 Z M 2.296875 -3.5 "
             style="stroke:none;" />
        </symbol>
        <symbol
           id="textext-9701c133-6"
           overflow="visible">
          <path
             id="path580"
             d=""
             style="stroke:none;" />
        </symbol>
        <symbol
           id="textext-9701c133-7"
           overflow="visible">
          <path
             id="path583"
             d="M 1.90625 -2.328125 C 2.453125 -2.328125 2.84375 -1.953125 2.84375 -1.203125 C 2.84375 -0.34375 2.328125 -0.078125 1.9375 -0.078125 C 1.65625 -0.078125 1.03125 -0.15625 0.75 -0.578125 C 1.078125 -0.578125 1.15625 -0.8125 1.15625 -0.96875 C 1.15625 -1.1875 0.984375 -1.34375 0.765625 -1.34375 C 0.578125 -1.34375 0.375 -1.21875 0.375 -0.9375 C 0.375 -0.28125 1.09375 0.140625 1.9375 0.140625 C 2.90625 0.140625 3.578125 -0.515625 3.578125 -1.203125 C 3.578125 -1.75 3.140625 -2.296875 2.375 -2.453125 C 3.09375 -2.71875 3.359375 -3.234375 3.359375 -3.671875 C 3.359375 -4.21875 2.734375 -4.625 1.953125 -4.625 C 1.1875 -4.625 0.59375 -4.25 0.59375 -3.6875 C 0.59375 -3.453125 0.75 -3.328125 0.953125 -3.328125 C 1.171875 -3.328125 1.3125 -3.484375 1.3125 -3.671875 C 1.3125 -3.875 1.171875 -4.03125 0.953125 -4.046875 C 1.203125 -4.34375 1.671875 -4.421875 1.9375 -4.421875 C 2.25 -4.421875 2.6875 -4.265625 2.6875 -3.671875 C 2.6875 -3.375 2.59375 -3.046875 2.40625 -2.84375 C 2.1875 -2.578125 1.984375 -2.5625 1.640625 -2.53125 C 1.46875 -2.515625 1.453125 -2.515625 1.421875 -2.515625 C 1.40625 -2.515625 1.34375 -2.5 1.34375 -2.421875 C 1.34375 -2.328125 1.40625 -2.328125 1.53125 -2.328125 Z M 1.90625 -2.328125 "
             style="stroke:none;" />
        </symbol>
        <symbol
           id="textext-9701c133-8"
           overflow="visible">
          <path
             id="path586"
             d="M 4.53125 -1.828125 L 4.296875 -1.828125 C 4.21875 -1.15625 4.125 -0.25 2.796875 -0.25 L 2.109375 -0.25 C 1.78125 -0.25 1.765625 -0.3125 1.765625 -0.515625 L 1.765625 -4.1875 C 1.765625 -4.421875 1.765625 -4.515625 2.421875 -4.515625 L 2.671875 -4.515625 L 2.671875 -4.765625 C 2.515625 -4.75 1.625 -4.734375 1.453125 -4.734375 C 1.1875 -4.734375 0.390625 -4.765625 0.390625 -4.765625 L 0.390625 -4.515625 L 0.5625 -4.515625 C 1.09375 -4.515625 1.109375 -4.4375 1.109375 -4.1875 L 1.109375 -0.5625 C 1.109375 -0.328125 1.09375 -0.25 0.5625 -0.25 L 0.390625 -0.25 L 0.390625 0 L 4.328125 0 Z M 4.53125 -1.828125 "
             style="stroke:none;" />
        </symbol>
        <symbol
           id="textext-9701c133-9"
           overflow="visible">
          <path
             id="path589"
             d="M 2.328125 -4.4375 C 2.328125 -4.625 2.328125 -4.625 2.125 -4.625 C 1.671875 -4.1875 1.046875 -4.1875 0.765625 -4.1875 L 0.765625 -3.9375 C 0.921875 -3.9375 1.390625 -3.9375 1.765625 -4.125 L 1.765625 -0.578125 C 1.765625 -0.34375 1.765625 -0.25 1.078125 -0.25 L 0.8125 -0.25 L 0.8125 0 C 0.9375 0 1.796875 -0.03125 2.046875 -0.03125 C 2.265625 -0.03125 3.140625 0 3.296875 0 L 3.296875 -0.25 L 3.03125 -0.25 C 2.328125 -0.25 2.328125 -0.34375 2.328125 -0.578125 Z M 2.328125 -4.4375 "
             style="stroke:none;" />
        </symbol>
        <symbol
           id="textext-9701c133-10"
           overflow="visible">
          <path
             id="path592"
             d="M 3.515625 -1.265625 L 3.28125 -1.265625 C 3.265625 -1.109375 3.1875 -0.703125 3.09375 -0.640625 C 3.046875 -0.59375 2.515625 -0.59375 2.40625 -0.59375 L 1.125 -0.59375 C 1.859375 -1.234375 2.109375 -1.4375 2.515625 -1.765625 C 3.03125 -2.171875 3.515625 -2.609375 3.515625 -3.265625 C 3.515625 -4.109375 2.78125 -4.625 1.890625 -4.625 C 1.03125 -4.625 0.4375 -4.015625 0.4375 -3.375 C 0.4375 -3.03125 0.734375 -2.984375 0.8125 -2.984375 C 0.96875 -2.984375 1.171875 -3.109375 1.171875 -3.359375 C 1.171875 -3.484375 1.125 -3.734375 0.765625 -3.734375 C 0.984375 -4.21875 1.453125 -4.375 1.78125 -4.375 C 2.484375 -4.375 2.84375 -3.828125 2.84375 -3.265625 C 2.84375 -2.65625 2.40625 -2.1875 2.1875 -1.9375 L 0.515625 -0.265625 C 0.4375 -0.203125 0.4375 -0.1875 0.4375 0 L 3.3125 0 Z M 3.515625 -1.265625 "
             style="stroke:none;" />
        </symbol>
        <symbol
           id="textext-9701c133-11"
           overflow="visible">
          <path
             id="path595"
             d=""
             style="stroke:none;" />
        </symbol>
        <symbol
           id="textext-9701c133-12"
           overflow="visible">
          <path
             id="path598"
             d="M 6.75 -1.609375 L 6.5 -1.609375 C 6.453125 -1.359375 6.40625 -1.125 6.3125 -0.890625 C 6.265625 -0.734375 6.234375 -0.640625 5.65625 -0.640625 L 4.859375 -0.640625 C 5 -1.203125 5.296875 -1.6875 5.75 -2.34375 C 6.21875 -3.046875 6.625 -3.734375 6.625 -4.53125 C 6.625 -5.90625 5.28125 -7.03125 3.59375 -7.03125 C 1.890625 -7.03125 0.5625 -5.890625 0.5625 -4.53125 C 0.5625 -3.734375 0.96875 -3.046875 1.4375 -2.34375 C 1.875 -1.6875 2.1875 -1.203125 2.328125 -0.640625 L 1.53125 -0.640625 C 0.953125 -0.640625 0.921875 -0.734375 0.875 -0.875 C 0.78125 -1.109375 0.734375 -1.359375 0.6875 -1.609375 L 0.4375 -1.609375 L 0.765625 0 L 2.359375 0 C 2.578125 0 2.609375 0 2.609375 -0.203125 C 2.609375 -0.90625 2.296875 -1.78125 2.078125 -2.421875 C 1.859375 -3 1.578125 -3.78125 1.578125 -4.53125 C 1.578125 -6.125 2.6875 -6.8125 3.59375 -6.8125 C 4.546875 -6.8125 5.609375 -6.09375 5.609375 -4.53125 C 5.609375 -3.78125 5.328125 -3.03125 5.046875 -2.21875 C 4.890625 -1.796875 4.578125 -0.890625 4.578125 -0.203125 C 4.578125 0 4.609375 0 4.828125 0 L 6.421875 0 Z M 6.75 -1.609375 "
             style="stroke:none;" />
        </symbol>
        <symbol
           id="textext-9701c133-13"
           overflow="visible">
          <path
             id="path601"
             d="M 2.546875 2.5 L 2.546875 2.09375 L 1.578125 2.09375 L 1.578125 -7.078125 L 2.546875 -7.078125 L 2.546875 -7.484375 L 1.171875 -7.484375 L 1.171875 2.5 Z M 2.546875 2.5 "
             style="stroke:none;" />
        </symbol>
        <symbol
           id="textext-9701c133-14"
           overflow="visible">
          <path
             id="path604"
             d="M 1.71875 -3.765625 L 1.71875 -6.921875 L 0.28125 -6.8125 L 0.28125 -6.5 C 0.984375 -6.5 1.0625 -6.4375 1.0625 -5.9375 L 1.0625 0 L 1.3125 0 C 1.3125 -0.015625 1.390625 -0.15625 1.671875 -0.625 C 1.8125 -0.390625 2.234375 0.109375 2.96875 0.109375 C 4.15625 0.109375 5.1875 -0.875 5.1875 -2.15625 C 5.1875 -3.421875 4.21875 -4.40625 3.078125 -4.40625 C 2.296875 -4.40625 1.875 -3.9375 1.71875 -3.765625 Z M 1.75 -1.140625 L 1.75 -3.1875 C 1.75 -3.375 1.75 -3.390625 1.859375 -3.546875 C 2.25 -4.109375 2.796875 -4.1875 3.03125 -4.1875 C 3.484375 -4.1875 3.84375 -3.921875 4.078125 -3.546875 C 4.34375 -3.140625 4.359375 -2.578125 4.359375 -2.15625 C 4.359375 -1.796875 4.34375 -1.203125 4.0625 -0.75 C 3.84375 -0.4375 3.46875 -0.109375 2.9375 -0.109375 C 2.484375 -0.109375 2.125 -0.34375 1.890625 -0.71875 C 1.75 -0.921875 1.75 -0.953125 1.75 -1.140625 Z M 1.75 -1.140625 "
             style="stroke:none;" />
        </symbol>
        <symbol
           id="textext-9701c133-15"
           overflow="visible">
          <path
             id="path607"
             d="M 4.359375 -7.09375 C 4.421875 -7.234375 4.421875 -7.25 4.421875 -7.28125 C 4.421875 -7.390625 4.328125 -7.484375 4.21875 -7.484375 C 4.078125 -7.484375 4.03125 -7.375 4 -7.28125 L 0.609375 2.109375 C 0.5625 2.25 0.5625 2.265625 0.5625 2.296875 C 0.5625 2.40625 0.640625 2.5 0.75 2.5 C 0.890625 2.5 0.9375 2.390625 0.96875 2.296875 Z M 4.359375 -7.09375 "
             style="stroke:none;" />
        </symbol>
        <symbol
           id="textext-9701c133-16"
           overflow="visible">
          <path
             id="path610"
             d="M 3.296875 2.390625 C 3.296875 2.359375 3.296875 2.34375 3.125 2.171875 C 1.890625 0.921875 1.5625 -0.96875 1.5625 -2.5 C 1.5625 -4.234375 1.9375 -5.96875 3.171875 -7.203125 C 3.296875 -7.328125 3.296875 -7.34375 3.296875 -7.375 C 3.296875 -7.453125 3.265625 -7.484375 3.203125 -7.484375 C 3.09375 -7.484375 2.203125 -6.796875 1.609375 -5.53125 C 1.109375 -4.4375 0.984375 -3.328125 0.984375 -2.5 C 0.984375 -1.71875 1.09375 -0.515625 1.640625 0.625 C 2.25 1.84375 3.09375 2.5 3.203125 2.5 C 3.265625 2.5 3.296875 2.46875 3.296875 2.390625 Z M 3.296875 2.390625 "
             style="stroke:none;" />
        </symbol>
        <symbol
           id="textext-9701c133-17"
           overflow="visible">
          <path
             id="path613"
             d="M 2.40625 -6.59375 C 2.3125 -6.8125 2.28125 -6.8125 2.046875 -6.8125 L 0.375 -6.8125 L 0.375 -6.5 L 0.609375 -6.5 C 1.375 -6.5 1.390625 -6.390625 1.390625 -6.03125 L 1.390625 -1.046875 C 1.390625 -0.78125 1.390625 -0.3125 0.375 -0.3125 L 0.375 0 C 0.71875 -0.015625 1.203125 -0.03125 1.53125 -0.03125 C 1.859375 -0.03125 2.359375 -0.015625 2.703125 0 L 2.703125 -0.3125 C 1.671875 -0.3125 1.671875 -0.78125 1.671875 -1.046875 L 1.671875 -6.421875 L 1.6875 -6.421875 L 4.09375 -0.21875 C 4.140625 -0.09375 4.1875 0 4.28125 0 C 4.390625 0 4.421875 -0.078125 4.46875 -0.1875 L 6.921875 -6.5 L 6.921875 -0.78125 C 6.921875 -0.421875 6.90625 -0.3125 6.140625 -0.3125 L 5.90625 -0.3125 L 5.90625 0 C 6.265625 -0.03125 6.953125 -0.03125 7.34375 -0.03125 C 7.71875 -0.03125 8.390625 -0.03125 8.765625 0 L 8.765625 -0.3125 L 8.515625 -0.3125 C 7.75 -0.3125 7.734375 -0.421875 7.734375 -0.78125 L 7.734375 -6.03125 C 7.734375 -6.390625 7.75 -6.5 8.515625 -6.5 L 8.765625 -6.5 L 8.765625 -6.8125 L 7.078125 -6.8125 C 6.8125 -6.8125 6.8125 -6.796875 6.75 -6.625 L 4.5625 -1 Z M 2.40625 -6.59375 "
             style="stroke:none;" />
        </symbol>
        <symbol
           id="textext-9701c133-18"
           overflow="visible">
          <path
             id="path616"
             d="M 1.109375 -2.515625 C 1.171875 -4 2.015625 -4.25 2.359375 -4.25 C 3.375 -4.25 3.484375 -2.90625 3.484375 -2.515625 Z M 1.109375 -2.296875 L 3.890625 -2.296875 C 4.109375 -2.296875 4.140625 -2.296875 4.140625 -2.515625 C 4.140625 -3.5 3.59375 -4.46875 2.359375 -4.46875 C 1.203125 -4.46875 0.28125 -3.4375 0.28125 -2.1875 C 0.28125 -0.859375 1.328125 0.109375 2.46875 0.109375 C 3.6875 0.109375 4.140625 -1 4.140625 -1.1875 C 4.140625 -1.28125 4.0625 -1.3125 4 -1.3125 C 3.921875 -1.3125 3.890625 -1.25 3.875 -1.171875 C 3.53125 -0.140625 2.625 -0.140625 2.53125 -0.140625 C 2.03125 -0.140625 1.640625 -0.4375 1.40625 -0.8125 C 1.109375 -1.28125 1.109375 -1.9375 1.109375 -2.296875 Z M 1.109375 -2.296875 "
             style="stroke:none;" />
        </symbol>
        <symbol
           id="textext-9701c133-19"
           overflow="visible">
          <path
             id="path619"
             d="M 6.1875 -5.828125 C 6.328125 -6.203125 6.59375 -6.484375 7.28125 -6.5 L 7.28125 -6.8125 C 6.96875 -6.78125 6.5625 -6.78125 6.3125 -6.78125 C 6.015625 -6.78125 5.4375 -6.796875 5.171875 -6.8125 L 5.171875 -6.5 C 5.6875 -6.484375 5.90625 -6.234375 5.90625 -6 C 5.90625 -5.921875 5.875 -5.859375 5.859375 -5.796875 L 4.03125 -1 L 2.125 -6.03125 C 2.0625 -6.171875 2.0625 -6.1875 2.0625 -6.203125 C 2.0625 -6.5 2.625 -6.5 2.875 -6.5 L 2.875 -6.8125 C 2.515625 -6.78125 1.828125 -6.78125 1.453125 -6.78125 C 0.984375 -6.78125 0.546875 -6.796875 0.1875 -6.8125 L 0.1875 -6.5 C 0.84375 -6.5 1.03125 -6.5 1.171875 -6.125 L 3.484375 0 C 3.546875 0.1875 3.59375 0.21875 3.734375 0.21875 C 3.890625 0.21875 3.921875 0.171875 3.96875 0.03125 Z M 6.1875 -5.828125 "
             style="stroke:none;" />
        </symbol>
        <symbol
           id="textext-9701c133-20"
           overflow="visible">
          <path
             id="path622"
             d="M 2.078125 -1.9375 C 2.296875 -1.890625 3.109375 -1.734375 3.109375 -1.015625 C 3.109375 -0.515625 2.765625 -0.109375 1.984375 -0.109375 C 1.140625 -0.109375 0.78125 -0.671875 0.59375 -1.53125 C 0.5625 -1.65625 0.5625 -1.6875 0.453125 -1.6875 C 0.328125 -1.6875 0.328125 -1.625 0.328125 -1.453125 L 0.328125 -0.125 C 0.328125 0.046875 0.328125 0.109375 0.4375 0.109375 C 0.484375 0.109375 0.5 0.09375 0.6875 -0.09375 C 0.703125 -0.109375 0.703125 -0.125 0.890625 -0.3125 C 1.328125 0.09375 1.78125 0.109375 1.984375 0.109375 C 3.125 0.109375 3.59375 -0.5625 3.59375 -1.28125 C 3.59375 -1.796875 3.296875 -2.109375 3.171875 -2.21875 C 2.84375 -2.546875 2.453125 -2.625 2.03125 -2.703125 C 1.46875 -2.8125 0.8125 -2.9375 0.8125 -3.515625 C 0.8125 -3.875 1.0625 -4.28125 1.921875 -4.28125 C 3.015625 -4.28125 3.078125 -3.375 3.09375 -3.078125 C 3.09375 -2.984375 3.1875 -2.984375 3.203125 -2.984375 C 3.34375 -2.984375 3.34375 -3.03125 3.34375 -3.21875 L 3.34375 -4.234375 C 3.34375 -4.390625 3.34375 -4.46875 3.234375 -4.46875 C 3.1875 -4.46875 3.15625 -4.46875 3.03125 -4.34375 C 3 -4.3125 2.90625 -4.21875 2.859375 -4.1875 C 2.484375 -4.46875 2.078125 -4.46875 1.921875 -4.46875 C 0.703125 -4.46875 0.328125 -3.796875 0.328125 -3.234375 C 0.328125 -2.890625 0.484375 -2.609375 0.75 -2.390625 C 1.078125 -2.140625 1.359375 -2.078125 2.078125 -1.9375 Z M 2.078125 -1.9375 "
             style="stroke:none;" />
        </symbol>
        <symbol
           id="textext-9701c133-21"
           overflow="visible">
          <path
             id="path625"
             d="M 1.671875 -3.3125 L 1.671875 -4.40625 L 0.28125 -4.296875 L 0.28125 -3.984375 C 0.984375 -3.984375 1.0625 -3.921875 1.0625 -3.421875 L 1.0625 -0.75 C 1.0625 -0.3125 0.953125 -0.3125 0.28125 -0.3125 L 0.28125 0 C 0.671875 -0.015625 1.140625 -0.03125 1.421875 -0.03125 C 1.8125 -0.03125 2.28125 -0.03125 2.6875 0 L 2.6875 -0.3125 L 2.46875 -0.3125 C 1.734375 -0.3125 1.71875 -0.421875 1.71875 -0.78125 L 1.71875 -2.3125 C 1.71875 -3.296875 2.140625 -4.1875 2.890625 -4.1875 C 2.953125 -4.1875 2.984375 -4.1875 3 -4.171875 C 2.96875 -4.171875 2.765625 -4.046875 2.765625 -3.78125 C 2.765625 -3.515625 2.984375 -3.359375 3.203125 -3.359375 C 3.375 -3.359375 3.625 -3.484375 3.625 -3.796875 C 3.625 -4.109375 3.3125 -4.40625 2.890625 -4.40625 C 2.15625 -4.40625 1.796875 -3.734375 1.671875 -3.3125 Z M 1.671875 -3.3125 "
             style="stroke:none;" />
        </symbol>
        <symbol
           id="textext-9701c133-22"
           overflow="visible">
          <path
             id="path628"
             d="M 2.875 -2.5 C 2.875 -3.265625 2.765625 -4.46875 2.21875 -5.609375 C 1.625 -6.828125 0.765625 -7.484375 0.671875 -7.484375 C 0.609375 -7.484375 0.5625 -7.4375 0.5625 -7.375 C 0.5625 -7.34375 0.5625 -7.328125 0.75 -7.140625 C 1.734375 -6.15625 2.296875 -4.578125 2.296875 -2.5 C 2.296875 -0.78125 1.9375 0.96875 0.703125 2.21875 C 0.5625 2.34375 0.5625 2.359375 0.5625 2.390625 C 0.5625 2.453125 0.609375 2.5 0.671875 2.5 C 0.765625 2.5 1.671875 1.8125 2.25 0.546875 C 2.765625 -0.546875 2.875 -1.65625 2.875 -2.5 Z M 2.875 -2.5 "
             style="stroke:none;" />
        </symbol>
        <symbol
           id="textext-9701c133-23"
           overflow="visible">
          <path
             id="path631"
             d="M 1.578125 -7.484375 L 0.21875 -7.484375 L 0.21875 -7.078125 L 1.1875 -7.078125 L 1.1875 2.09375 L 0.21875 2.09375 L 0.21875 2.5 L 1.578125 2.5 Z M 1.578125 -7.484375 "
             style="stroke:none;" />
        </symbol>
      </g>
    </defs>
    <g
       id="textext-9701c133-24">
      <g
         id="g640"
         style="fill:rgb(0%,0%,0%);fill-opacity:1;">
        <use
           id="use638"
           y="134.765"
           x="223.432"
           xlink:href="#textext-9701c133-1" />
      </g>
      <g
         id="g644"
         style="fill:rgb(0%,0%,0%);fill-opacity:1;">
        <use
           id="use642"
           y="131.15"
           x="228.618"
           xlink:href="#textext-9701c133-7" />
      </g>
      <g
         id="g648"
         style="fill:rgb(0%,0%,0%);fill-opacity:1;">
        <use
           id="use646"
           y="134.765"
           x="233.087"
           xlink:href="#textext-9701c133-2" />
      </g>
      <g
         id="g652"
         style="fill:rgb(0%,0%,0%);fill-opacity:1;">
        <use
           id="use650"
           y="131.15"
           x="239.137"
           xlink:href="#textext-9701c133-8" />
      </g>
      <g
         id="g660"
         style="fill:rgb(0%,0%,0%);fill-opacity:1;">
        <use
           id="use654"
           y="134.765"
           x="244.561"
           xlink:href="#textext-9701c133-3" />
        <use
           id="use656"
           y="134.765"
           x="249.5423"
           xlink:href="#textext-9701c133-1" />
        <use
           id="use658"
           y="134.765"
           x="254.727833"
           xlink:href="#textext-9701c133-4" />
      </g>
      <g
         id="g664"
         style="fill:rgb(0%,0%,0%);fill-opacity:1;">
        <use
           id="use662"
           y="131.15"
           x="261.934"
           xlink:href="#textext-9701c133-8" />
      </g>
      <g
         id="g668"
         style="fill:rgb(0%,0%,0%);fill-opacity:1;">
        <use
           id="use666"
           y="137.238"
           x="260.55"
           xlink:href="#textext-9701c133-9" />
      </g>
      <g
         id="g672"
         style="fill:rgb(0%,0%,0%);fill-opacity:1;">
        <use
           id="use670"
           y="134.765"
           x="267.358"
           xlink:href="#textext-9701c133-1" />
      </g>
      <g
         id="g676"
         style="fill:rgb(0%,0%,0%);fill-opacity:1;">
        <use
           id="use674"
           y="134.765"
           x="272.543"
           xlink:href="#textext-9701c133-12" />
      </g>
      <g
         id="g680"
         style="fill:rgb(0%,0%,0%);fill-opacity:1;">
        <use
           id="use678"
           y="131.15"
           x="279.738"
           xlink:href="#textext-9701c133-8" />
      </g>
      <g
         id="g684"
         style="fill:rgb(0%,0%,0%);fill-opacity:1;">
        <use
           id="use682"
           y="137.238"
           x="279.738"
           xlink:href="#textext-9701c133-9" />
      </g>
      <g
         id="g688"
         style="fill:rgb(0%,0%,0%);fill-opacity:1;">
        <use
           id="use686"
           y="134.765"
           x="285.163"
           xlink:href="#textext-9701c133-1" />
      </g>
      <g
         id="g692"
         style="fill:rgb(0%,0%,0%);fill-opacity:1;">
        <use
           id="use690"
           y="134.765"
           x="290.348"
           xlink:href="#textext-9701c133-12" />
      </g>
      <g
         id="g696"
         style="fill:rgb(0%,0%,0%);fill-opacity:1;">
        <use
           id="use694"
           y="131.15"
           x="297.543"
           xlink:href="#textext-9701c133-8" />
      </g>
      <g
         id="g700"
         style="fill:rgb(0%,0%,0%);fill-opacity:1;">
        <use
           id="use698"
           y="137.238"
           x="297.543"
           xlink:href="#textext-9701c133-10" />
      </g>
      <g
         id="g704"
         style="fill:rgb(0%,0%,0%);fill-opacity:1;">
        <use
           id="use702"
           y="134.765"
           x="306.288"
           xlink:href="#textext-9701c133-13" />
      </g>
      <g
         id="g708"
         style="fill:rgb(0%,0%,0%);fill-opacity:1;">
        <use
           id="use706"
           y="134.765"
           x="309.056"
           xlink:href="#textext-9701c133-5" />
      </g>
      <g
         id="g724"
         style="fill:rgb(0%,0%,0%);fill-opacity:1;">
        <use
           id="use710"
           y="134.765"
           x="315.059"
           xlink:href="#textext-9701c133-14" />
        <use
           id="use713"
           y="134.765"
           x="320.594221"
           xlink:href="#textext-9701c133-15" />
        <use
           id="use715"
           y="134.765"
           x="325.575521"
           xlink:href="#textext-9701c133-16" />
        <use
           id="use718"
           y="134.765"
           x="329.449976"
           xlink:href="#textext-9701c133-17" />
        <use
           id="use720"
           y="134.765"
           x="338.582691"
           xlink:href="#textext-9701c133-18" />
        <use
           id="use722"
           y="134.765"
           x="343.010071"
           xlink:href="#textext-9701c133-19" />
      </g>
      <g
         id="g730"
         style="fill:rgb(0%,0%,0%);fill-opacity:1;">
        <use
           id="use726"
           y="134.765"
           x="353.799566"
           xlink:href="#textext-9701c133-20" />
        <use
           id="use728"
           y="134.765"
           x="357.728816"
           xlink:href="#textext-9701c133-21" />
      </g>
      <g
         id="g734"
         style="fill:rgb(0%,0%,0%);fill-opacity:1;">
        <use
           id="use732"
           y="131.15"
           x="361.634"
           xlink:href="#textext-9701c133-10" />
      </g>
      <g
         id="g740"
         style="fill:rgb(0%,0%,0%);fill-opacity:1;">
        <use
           id="use736"
           y="134.765"
           x="366.103"
           xlink:href="#textext-9701c133-22" />
        <use
           id="use738"
           y="134.765"
           x="369.977455"
           xlink:href="#textext-9701c133-23" />
      </g>
    </g>
  </g>
  <g
     id="g1208"
     style="stroke-linecap:butt;stroke-linejoin:round"
     transform="matrix(2.5176955,0,0,2.5176955,-373.6218,21.312802)"
     ns0:preamble="/home/yoshidak/.config/inkscape/extensions/package.tex"
     ns0:text="$T_1^\\mathrm{L}$ (MeV)\n\n">
    <defs
       id="defs1181">
      <g
         id="g1179">
        <symbol
           id="textext-a032cb60-0"
           overflow="visible">
          <path
             id="path1146"
             d=""
             style="stroke:none;" />
        </symbol>
        <symbol
           id="textext-a032cb60-1"
           overflow="visible">
          <path
             id="path1149"
             d="M 4.25 -6.046875 C 4.328125 -6.328125 4.359375 -6.390625 4.484375 -6.421875 C 4.578125 -6.4375 4.90625 -6.4375 5.109375 -6.4375 C 6.125 -6.4375 6.5625 -6.40625 6.5625 -5.625 C 6.5625 -5.46875 6.53125 -5.078125 6.484375 -4.828125 C 6.484375 -4.78125 6.453125 -4.671875 6.453125 -4.640625 C 6.453125 -4.578125 6.484375 -4.5 6.578125 -4.5 C 6.6875 -4.5 6.703125 -4.578125 6.734375 -4.734375 L 7 -6.46875 C 7.015625 -6.515625 7.015625 -6.609375 7.015625 -6.640625 C 7.015625 -6.75 6.921875 -6.75 6.75 -6.75 L 1.21875 -6.75 C 0.984375 -6.75 0.96875 -6.734375 0.890625 -6.546875 L 0.296875 -4.796875 C 0.296875 -4.78125 0.234375 -4.640625 0.234375 -4.609375 C 0.234375 -4.5625 0.296875 -4.5 0.359375 -4.5 C 0.453125 -4.5 0.46875 -4.5625 0.53125 -4.71875 C 1.0625 -6.265625 1.328125 -6.4375 2.796875 -6.4375 L 3.1875 -6.4375 C 3.46875 -6.4375 3.46875 -6.40625 3.46875 -6.3125 C 3.46875 -6.265625 3.4375 -6.140625 3.421875 -6.109375 L 2.09375 -0.78125 C 2 -0.421875 1.96875 -0.3125 0.90625 -0.3125 C 0.546875 -0.3125 0.484375 -0.3125 0.484375 -0.125 C 0.484375 0 0.59375 0 0.65625 0 C 0.921875 0 1.203125 -0.015625 1.46875 -0.015625 C 1.75 -0.015625 2.046875 -0.03125 2.328125 -0.03125 C 2.609375 -0.03125 2.875 -0.015625 3.15625 -0.015625 C 3.4375 -0.015625 3.734375 0 4.015625 0 C 4.109375 0 4.234375 0 4.234375 -0.203125 C 4.234375 -0.3125 4.15625 -0.3125 3.890625 -0.3125 C 3.65625 -0.3125 3.515625 -0.3125 3.265625 -0.328125 C 2.96875 -0.359375 2.890625 -0.390625 2.890625 -0.546875 C 2.890625 -0.5625 2.890625 -0.609375 2.9375 -0.75 Z M 4.25 -6.046875 "
             style="stroke:none;" />
        </symbol>
        <symbol
           id="textext-a032cb60-2"
           overflow="visible">
          <path
             id="path1152"
             d=""
             style="stroke:none;" />
        </symbol>
        <symbol
           id="textext-a032cb60-3"
           overflow="visible">
          <path
             id="path1155"
             d="M 4.53125 -1.828125 L 4.296875 -1.828125 C 4.21875 -1.15625 4.125 -0.25 2.796875 -0.25 L 2.109375 -0.25 C 1.78125 -0.25 1.765625 -0.3125 1.765625 -0.515625 L 1.765625 -4.1875 C 1.765625 -4.421875 1.765625 -4.515625 2.421875 -4.515625 L 2.671875 -4.515625 L 2.671875 -4.765625 C 2.515625 -4.75 1.625 -4.734375 1.453125 -4.734375 C 1.1875 -4.734375 0.390625 -4.765625 0.390625 -4.765625 L 0.390625 -4.515625 L 0.5625 -4.515625 C 1.09375 -4.515625 1.109375 -4.4375 1.109375 -4.1875 L 1.109375 -0.5625 C 1.109375 -0.328125 1.09375 -0.25 0.5625 -0.25 L 0.390625 -0.25 L 0.390625 0 L 4.328125 0 Z M 4.53125 -1.828125 "
             style="stroke:none;" />
        </symbol>
        <symbol
           id="textext-a032cb60-4"
           overflow="visible">
          <path
             id="path1158"
             d="M 2.328125 -4.4375 C 2.328125 -4.625 2.328125 -4.625 2.125 -4.625 C 1.671875 -4.1875 1.046875 -4.1875 0.765625 -4.1875 L 0.765625 -3.9375 C 0.921875 -3.9375 1.390625 -3.9375 1.765625 -4.125 L 1.765625 -0.578125 C 1.765625 -0.34375 1.765625 -0.25 1.078125 -0.25 L 0.8125 -0.25 L 0.8125 0 C 0.9375 0 1.796875 -0.03125 2.046875 -0.03125 C 2.265625 -0.03125 3.140625 0 3.296875 0 L 3.296875 -0.25 L 3.03125 -0.25 C 2.328125 -0.25 2.328125 -0.34375 2.328125 -0.578125 Z M 2.328125 -4.4375 "
             style="stroke:none;" />
        </symbol>
        <symbol
           id="textext-a032cb60-5"
           overflow="visible">
          <path
             id="path1161"
             d=""
             style="stroke:none;" />
        </symbol>
        <symbol
           id="textext-a032cb60-6"
           overflow="visible">
          <path
             id="path1164"
             d="M 3.296875 2.390625 C 3.296875 2.359375 3.296875 2.34375 3.125 2.171875 C 1.890625 0.921875 1.5625 -0.96875 1.5625 -2.5 C 1.5625 -4.234375 1.9375 -5.96875 3.171875 -7.203125 C 3.296875 -7.328125 3.296875 -7.34375 3.296875 -7.375 C 3.296875 -7.453125 3.265625 -7.484375 3.203125 -7.484375 C 3.09375 -7.484375 2.203125 -6.796875 1.609375 -5.53125 C 1.109375 -4.4375 0.984375 -3.328125 0.984375 -2.5 C 0.984375 -1.71875 1.09375 -0.515625 1.640625 0.625 C 2.25 1.84375 3.09375 2.5 3.203125 2.5 C 3.265625 2.5 3.296875 2.46875 3.296875 2.390625 Z M 3.296875 2.390625 "
             style="stroke:none;" />
        </symbol>
        <symbol
           id="textext-a032cb60-7"
           overflow="visible">
          <path
             id="path1167"
             d="M 2.40625 -6.59375 C 2.3125 -6.8125 2.28125 -6.8125 2.046875 -6.8125 L 0.375 -6.8125 L 0.375 -6.5 L 0.609375 -6.5 C 1.375 -6.5 1.390625 -6.390625 1.390625 -6.03125 L 1.390625 -1.046875 C 1.390625 -0.78125 1.390625 -0.3125 0.375 -0.3125 L 0.375 0 C 0.71875 -0.015625 1.203125 -0.03125 1.53125 -0.03125 C 1.859375 -0.03125 2.359375 -0.015625 2.703125 0 L 2.703125 -0.3125 C 1.671875 -0.3125 1.671875 -0.78125 1.671875 -1.046875 L 1.671875 -6.421875 L 1.6875 -6.421875 L 4.09375 -0.21875 C 4.140625 -0.09375 4.1875 0 4.28125 0 C 4.390625 0 4.421875 -0.078125 4.46875 -0.1875 L 6.921875 -6.5 L 6.921875 -0.78125 C 6.921875 -0.421875 6.90625 -0.3125 6.140625 -0.3125 L 5.90625 -0.3125 L 5.90625 0 C 6.265625 -0.03125 6.953125 -0.03125 7.34375 -0.03125 C 7.71875 -0.03125 8.390625 -0.03125 8.765625 0 L 8.765625 -0.3125 L 8.515625 -0.3125 C 7.75 -0.3125 7.734375 -0.421875 7.734375 -0.78125 L 7.734375 -6.03125 C 7.734375 -6.390625 7.75 -6.5 8.515625 -6.5 L 8.765625 -6.5 L 8.765625 -6.8125 L 7.078125 -6.8125 C 6.8125 -6.8125 6.8125 -6.796875 6.75 -6.625 L 4.5625 -1 Z M 2.40625 -6.59375 "
             style="stroke:none;" />
        </symbol>
        <symbol
           id="textext-a032cb60-8"
           overflow="visible">
          <path
             id="path1170"
             d="M 1.109375 -2.515625 C 1.171875 -4 2.015625 -4.25 2.359375 -4.25 C 3.375 -4.25 3.484375 -2.90625 3.484375 -2.515625 Z M 1.109375 -2.296875 L 3.890625 -2.296875 C 4.109375 -2.296875 4.140625 -2.296875 4.140625 -2.515625 C 4.140625 -3.5 3.59375 -4.46875 2.359375 -4.46875 C 1.203125 -4.46875 0.28125 -3.4375 0.28125 -2.1875 C 0.28125 -0.859375 1.328125 0.109375 2.46875 0.109375 C 3.6875 0.109375 4.140625 -1 4.140625 -1.1875 C 4.140625 -1.28125 4.0625 -1.3125 4 -1.3125 C 3.921875 -1.3125 3.890625 -1.25 3.875 -1.171875 C 3.53125 -0.140625 2.625 -0.140625 2.53125 -0.140625 C 2.03125 -0.140625 1.640625 -0.4375 1.40625 -0.8125 C 1.109375 -1.28125 1.109375 -1.9375 1.109375 -2.296875 Z M 1.109375 -2.296875 "
             style="stroke:none;" />
        </symbol>
        <symbol
           id="textext-a032cb60-9"
           overflow="visible">
          <path
             id="path1173"
             d="M 6.1875 -5.828125 C 6.328125 -6.203125 6.59375 -6.484375 7.28125 -6.5 L 7.28125 -6.8125 C 6.96875 -6.78125 6.5625 -6.78125 6.3125 -6.78125 C 6.015625 -6.78125 5.4375 -6.796875 5.171875 -6.8125 L 5.171875 -6.5 C 5.6875 -6.484375 5.90625 -6.234375 5.90625 -6 C 5.90625 -5.921875 5.875 -5.859375 5.859375 -5.796875 L 4.03125 -1 L 2.125 -6.03125 C 2.0625 -6.171875 2.0625 -6.1875 2.0625 -6.203125 C 2.0625 -6.5 2.625 -6.5 2.875 -6.5 L 2.875 -6.8125 C 2.515625 -6.78125 1.828125 -6.78125 1.453125 -6.78125 C 0.984375 -6.78125 0.546875 -6.796875 0.1875 -6.8125 L 0.1875 -6.5 C 0.84375 -6.5 1.03125 -6.5 1.171875 -6.125 L 3.484375 0 C 3.546875 0.1875 3.59375 0.21875 3.734375 0.21875 C 3.890625 0.21875 3.921875 0.171875 3.96875 0.03125 Z M 6.1875 -5.828125 "
             style="stroke:none;" />
        </symbol>
        <symbol
           id="textext-a032cb60-10"
           overflow="visible">
          <path
             id="path1176"
             d="M 2.875 -2.5 C 2.875 -3.265625 2.765625 -4.46875 2.21875 -5.609375 C 1.625 -6.828125 0.765625 -7.484375 0.671875 -7.484375 C 0.609375 -7.484375 0.5625 -7.4375 0.5625 -7.375 C 0.5625 -7.34375 0.5625 -7.328125 0.75 -7.140625 C 1.734375 -6.15625 2.296875 -4.578125 2.296875 -2.5 C 2.296875 -0.78125 1.9375 0.96875 0.703125 2.21875 C 0.5625 2.34375 0.5625 2.359375 0.5625 2.390625 C 0.5625 2.453125 0.609375 2.5 0.671875 2.5 C 0.765625 2.5 1.671875 1.8125 2.25 0.546875 C 2.765625 -0.546875 2.875 -1.65625 2.875 -2.5 Z M 2.875 -2.5 "
             style="stroke:none;" />
        </symbol>
      </g>
    </defs>
    <g
       id="textext-a032cb60-11">
      <g
         id="g1185"
         style="fill:rgb(0%,0%,0%);fill-opacity:1;">
        <use
           id="use1183"
           y="134.765"
           x="223.432"
           xlink:href="#textext-a032cb60-1" />
      </g>
      <g
         id="g1189"
         style="fill:rgb(0%,0%,0%);fill-opacity:1;">
        <use
           id="use1187"
           y="131.15"
           x="230.638"
           xlink:href="#textext-a032cb60-3" />
      </g>
      <g
         id="g1193"
         style="fill:rgb(0%,0%,0%);fill-opacity:1;">
        <use
           id="use1191"
           y="137.238"
           x="229.254"
           xlink:href="#textext-a032cb60-4" />
      </g>
      <g
         id="g1205"
         style="fill:rgb(0%,0%,0%);fill-opacity:1;">
        <use
           id="use1195"
           y="134.765"
           x="239.383"
           xlink:href="#textext-a032cb60-6" />
        <use
           id="use1197"
           y="134.765"
           x="243.257455"
           xlink:href="#textext-a032cb60-7" />
        <use
           id="use1199"
           y="134.765"
           x="252.390171"
           xlink:href="#textext-a032cb60-8" />
        <use
           id="use1201"
           y="134.765"
           x="256.81755"
           xlink:href="#textext-a032cb60-9" />
        <use
           id="use1203"
           y="134.765"
           x="264.2895"
           xlink:href="#textext-a032cb60-10" />
      </g>
    </g>
  </g>
</svg>
