<?xml version="1.0" encoding="UTF-8" standalone="no"?>
<svg
   xmlns:dc="http://purl.org/dc/elements/1.1/"
   xmlns:cc="http://creativecommons.org/ns#"
   xmlns:rdf="http://www.w3.org/1999/02/22-rdf-syntax-ns#"
   xmlns:svg="http://www.w3.org/2000/svg"
   xmlns="http://www.w3.org/2000/svg"
   viewBox="0 0 480 402.66666"
   height="402.66666"
   width="480"
   xml:space="preserve"
   id="svg2"
   version="1.1"><metadata
     id="metadata8"><rdf:RDF><cc:Work
         rdf:about=""><dc:format>image/svg+xml</dc:format><dc:type
           rdf:resource="http://purl.org/dc/dcmitype/StillImage" /></cc:Work></rdf:RDF></metadata><defs
     id="defs6" /><g
     transform="matrix(1.3333333,0,0,-1.3333333,0,402.66667)"
     id="g10"><g
       transform="scale(0.1)"
       id="g12"><path
         id="path14"
         style="fill:none;stroke:#000000;stroke-width:5;stroke-linecap:butt;stroke-linejoin:miter;stroke-miterlimit:3.79999995;stroke-dasharray:none;stroke-opacity:1"
         d="m 675,480 h 31.5 m 2623,0 H 3298" /><g
         transform="scale(10)"
         id="g16"><text
           id="text20"
           style="font-variant:normal;font-weight:normal;font-size:15px;font-family:Helvetica;-inkscape-font-specification:Helvetica;writing-mode:lr-tb;fill:#000000;fill-opacity:1;fill-rule:nonzero;stroke:none"
           transform="matrix(1,0,0,-1,50.1602,43)"><tspan
             id="tspan18"
             y="0"
             x="0">0</tspan></text>
</g><path
         id="path22"
         style="fill:none;stroke:#000000;stroke-width:5;stroke-linecap:butt;stroke-linejoin:miter;stroke-miterlimit:3.79999995;stroke-dasharray:none;stroke-opacity:1"
         d="m 675,952.5 h 31.5 m 2623,0 H 3298" /><g
         transform="scale(10)"
         id="g24"><text
           id="text28"
           style="font-variant:normal;font-weight:normal;font-size:15px;font-family:Helvetica;-inkscape-font-specification:Helvetica;writing-mode:lr-tb;fill:#000000;fill-opacity:1;fill-rule:nonzero;stroke:none"
           transform="matrix(1,0,0,-1,29.3106,90.25)"><tspan
             id="tspan26"
             y="0"
             x="0 8.3400002 12.51 20.85">0.05</tspan></text>
</g><path
         id="path30"
         style="fill:none;stroke:#000000;stroke-width:5;stroke-linecap:butt;stroke-linejoin:miter;stroke-miterlimit:3.79999995;stroke-dasharray:none;stroke-opacity:1"
         d="m 675,1425.5 h 31.5 m 2623,0 H 3298" /><g
         transform="scale(10)"
         id="g32"><text
           id="text36"
           style="font-variant:normal;font-weight:normal;font-size:15px;font-family:Helvetica;-inkscape-font-specification:Helvetica;writing-mode:lr-tb;fill:#000000;fill-opacity:1;fill-rule:nonzero;stroke:none"
           transform="matrix(1,0,0,-1,37.6505,137.55)"><tspan
             id="tspan34"
             y="0"
             x="0 8.3400002 12.51">0.1</tspan></text>
</g><path
         id="path38"
         style="fill:none;stroke:#000000;stroke-width:5;stroke-linecap:butt;stroke-linejoin:miter;stroke-miterlimit:3.79999995;stroke-dasharray:none;stroke-opacity:1"
         d="m 675,1898 h 31.5 m 2623,0 H 3298" /><g
         transform="scale(10)"
         id="g40"><text
           id="text44"
           style="font-variant:normal;font-weight:normal;font-size:15px;font-family:Helvetica;-inkscape-font-specification:Helvetica;writing-mode:lr-tb;fill:#000000;fill-opacity:1;fill-rule:nonzero;stroke:none"
           transform="matrix(1,0,0,-1,29.3106,184.8)"><tspan
             id="tspan42"
             y="0"
             x="0 8.3400002 12.51 20.85">0.15</tspan></text>
</g><path
         id="path46"
         style="fill:none;stroke:#000000;stroke-width:5;stroke-linecap:butt;stroke-linejoin:miter;stroke-miterlimit:3.79999995;stroke-dasharray:none;stroke-opacity:1"
         d="m 675,2371 h 31.5 m 2623,0 H 3298" /><g
         transform="scale(10)"
         id="g48"><text
           id="text52"
           style="font-variant:normal;font-weight:normal;font-size:15px;font-family:Helvetica;-inkscape-font-specification:Helvetica;writing-mode:lr-tb;fill:#000000;fill-opacity:1;fill-rule:nonzero;stroke:none"
           transform="matrix(1,0,0,-1,37.6505,232.1)"><tspan
             id="tspan50"
             y="0"
             x="0 8.3400002 12.51">0.2</tspan></text>
</g><path
         id="path54"
         style="fill:none;stroke:#000000;stroke-width:5;stroke-linecap:butt;stroke-linejoin:miter;stroke-miterlimit:3.79999995;stroke-dasharray:none;stroke-opacity:1"
         d="m 675,2843.5 h 31.5 m 2623,0 H 3298" /><g
         transform="scale(10)"
         id="g56"><text
           id="text60"
           style="font-variant:normal;font-weight:normal;font-size:15px;font-family:Helvetica;-inkscape-font-specification:Helvetica;writing-mode:lr-tb;fill:#000000;fill-opacity:1;fill-rule:nonzero;stroke:none"
           transform="matrix(1,0,0,-1,29.3106,279.35)"><tspan
             id="tspan58"
             y="0"
             x="0 8.3400002 12.51 20.85">0.25</tspan></text>
</g><path
         id="path62"
         style="fill:none;stroke:#000000;stroke-width:5;stroke-linecap:butt;stroke-linejoin:miter;stroke-miterlimit:3.79999995;stroke-dasharray:none;stroke-opacity:1"
         d="m 1007,480 v 31.5 m 0,2332 V 2812" /><g
         transform="scale(10)"
         id="g64"><text
           id="text68"
           style="font-variant:normal;font-weight:normal;font-size:15px;font-family:Helvetica;-inkscape-font-specification:Helvetica;writing-mode:lr-tb;fill:#000000;fill-opacity:1;fill-rule:nonzero;stroke:none"
           transform="matrix(1,0,0,-1,90.2755,28)"><tspan
             id="tspan66"
             y="0"
             x="0 8.3400002 16.68">112</tspan></text>
</g><path
         id="path70"
         style="fill:none;stroke:#000000;stroke-width:5;stroke-linecap:butt;stroke-linejoin:miter;stroke-miterlimit:3.79999995;stroke-dasharray:none;stroke-opacity:1"
         d="m 1670.5,480 v 31.5 m 0,2332 V 2812" /><g
         transform="scale(10)"
         id="g72"><text
           id="text76"
           style="font-variant:normal;font-weight:normal;font-size:15px;font-family:Helvetica;-inkscape-font-specification:Helvetica;writing-mode:lr-tb;fill:#000000;fill-opacity:1;fill-rule:nonzero;stroke:none"
           transform="matrix(1,0,0,-1,156.625,28)"><tspan
             id="tspan74"
             y="0"
             x="0 8.3400002 16.68">116</tspan></text>
</g><path
         id="path78"
         style="fill:none;stroke:#000000;stroke-width:5;stroke-linecap:butt;stroke-linejoin:miter;stroke-miterlimit:3.79999995;stroke-dasharray:none;stroke-opacity:1"
         d="m 2334,480 v 31.5 m 0,2332 V 2812" /><g
         transform="scale(10)"
         id="g80"><text
           id="text84"
           style="font-variant:normal;font-weight:normal;font-size:15px;font-family:Helvetica;-inkscape-font-specification:Helvetica;writing-mode:lr-tb;fill:#000000;fill-opacity:1;fill-rule:nonzero;stroke:none"
           transform="matrix(1,0,0,-1,222.975,28)"><tspan
             id="tspan82"
             y="0"
             x="0 8.3400002 16.68">120</tspan></text>
</g><path
         id="path86"
         style="fill:none;stroke:#000000;stroke-width:5;stroke-linecap:butt;stroke-linejoin:miter;stroke-miterlimit:3.79999995;stroke-dasharray:none;stroke-opacity:1"
         d="m 2997.5,480 v 31.5 m 0,2332 V 2812" /><g
         transform="scale(10)"
         id="g88"><text
           id="text92"
           style="font-variant:normal;font-weight:normal;font-size:15px;font-family:Helvetica;-inkscape-font-specification:Helvetica;writing-mode:lr-tb;fill:#000000;fill-opacity:1;fill-rule:nonzero;stroke:none"
           transform="matrix(1,0,0,-1,289.325,28)"><tspan
             id="tspan90"
             y="0"
             x="0 8.3400002 16.68">124</tspan></text>
</g><path
         id="path94"
         style="fill:none;stroke:#000000;stroke-width:5;stroke-linecap:butt;stroke-linejoin:miter;stroke-miterlimit:3.79999995;stroke-dasharray:none;stroke-opacity:1"
         d="M 675,2843.5 V 480 h 2654.5 v 2363.5 z" /><g
         transform="scale(10)"
         id="g96"><text
           id="text100"
           style="font-variant:normal;font-weight:normal;font-size:20.27700996px;font-family:Symbol;-inkscape-font-specification:Symbol;writing-mode:lr-tb;fill:#000000;fill-opacity:1;fill-rule:nonzero;stroke:none"
           transform="matrix(0,0.986341,0.986341,-0.164719,21.6648,140.661)"><tspan
             id="tspan98"
             y="0"
             x="0">σ</tspan></text>
<text
           id="text104"
           style="font-variant:normal;font-weight:normal;font-size:20px;font-family:Helvetica;-inkscape-font-specification:Helvetica;writing-mode:lr-tb;fill:#000000;fill-opacity:1;fill-rule:nonzero;stroke:none"
           transform="matrix(0,1,1,0,21.6648,158.281)"><tspan
             id="tspan102"
             y="0"
             x="0 5.5599999 16.68 27.799999">[nb]</tspan></text>
<text
           id="text108"
           style="font-variant:normal;font-weight:normal;font-size:20px;font-family:Helvetica;-inkscape-font-specification:Helvetica;writing-mode:lr-tb;fill:#000000;fill-opacity:1;fill-rule:nonzero;stroke:none"
           transform="matrix(1,0,0,-1,129.631,3.83516)"><tspan
             id="tspan106"
             y="0"
             x="0 16.66 27.780001 37.779999 47.779999 53.34 64.459999 75.580002 92.239998 103.36 114.48 121.14">Mass number </tspan></text>
<text
           id="text112"
           style="font-variant:normal;font-weight:normal;font-size:20.27700996px;font-family:Symbol;-inkscape-font-specification:Symbol;writing-mode:lr-tb;fill:#000000;fill-opacity:1;fill-rule:nonzero;stroke:none"
           transform="matrix(0.986341,0,-0.164719,-0.986341,256.331,3.83516)"><tspan
             id="tspan110"
             y="0"
             x="0">Α</tspan></text>
<text
           id="text116"
           style="font-variant:normal;font-weight:normal;font-size:15px;font-family:Helvetica;-inkscape-font-specification:Helvetica;writing-mode:lr-tb;fill:#000000;fill-opacity:1;fill-rule:nonzero;stroke:none"
           transform="matrix(1,0,0,-1,190.946,268.7)"><tspan
             id="tspan114"
             y="0"
             x="0 10.005 17.504999 25.844999 34.185001 39.18 42.509998 55.005001 63.345001 71.684998">Experiment</tspan></text>
</g><path
         id="path118"
         style="fill:none;stroke:#e61f0f;stroke-width:10;stroke-linecap:butt;stroke-linejoin:miter;stroke-miterlimit:3.79999995;stroke-dasharray:none;stroke-opacity:1"
         d="m 2758,2737 h 391.5 m -391.5,15.5 v -31 m 391.5,31 v -31 M 1007,1854.5 v 229 m -15.5,-229 h 31 m -31,229 h 31 m 648,-367 V 2072 M 1655,1716.5 h 31 m -31,355.5 h 31 m 648,-749.5 v 293 m -15.5,-293 h 31 m -31,293 h 31 m 648,-680 v 214 m -15.5,-214 h 31 m -31,214 h 31" /><path
         id="path120"
         style="fill:#e61f0f;fill-opacity:1;fill-rule:nonzero;stroke:none"
         d="m 1038.5,1969 c 0,17.39 -14.11,31.5 -31.5,31.5 -17.395,0 -31.5,-14.11 -31.5,-31.5 0,-17.39 14.105,-31.5 31.5,-31.5 17.39,0 31.5,14.11 31.5,31.5" /><path
         id="path122"
         style="fill:#e61f0f;fill-opacity:1;fill-rule:nonzero;stroke:none"
         d="m 1702,1894.5 c 0,17.39 -14.11,31.5 -31.5,31.5 -17.39,0 -31.5,-14.11 -31.5,-31.5 0,-17.39 14.11,-31.5 31.5,-31.5 17.39,0 31.5,14.11 31.5,31.5" /><path
         id="path124"
         style="fill:#e61f0f;fill-opacity:1;fill-rule:nonzero;stroke:none"
         d="m 2365.5,1469 c 0,17.39 -14.11,31.5 -31.5,31.5 -17.39,0 -31.5,-14.11 -31.5,-31.5 0,-17.39 14.11,-31.5 31.5,-31.5 17.39,0 31.5,14.11 31.5,31.5" /><path
         id="path126"
         style="fill:#e61f0f;fill-opacity:1;fill-rule:nonzero;stroke:none"
         d="m 3029,1042.5 c 0,17.39 -14.11,31.5 -31.5,31.5 -17.39,0 -31.5,-14.11 -31.5,-31.5 0,-17.39 14.11,-31.5 31.5,-31.5 17.39,0 31.5,14.11 31.5,31.5" /><path
         id="path128"
         style="fill:#e61f0f;fill-opacity:1;fill-rule:nonzero;stroke:none"
         d="m 2985,2737 c 0,17.39 -14.11,31.5 -31.5,31.5 -17.39,0 -31.5,-14.11 -31.5,-31.5 0,-17.39 14.11,-31.5 31.5,-31.5 17.39,0 31.5,14.11 31.5,31.5" /><path
         id="path130"
         style="fill:none;stroke:#000000;stroke-width:5;stroke-linecap:butt;stroke-linejoin:miter;stroke-miterlimit:3.79999995;stroke-dasharray:none;stroke-opacity:1"
         d="M 675,2843.5 V 480 h 2654.5 v 2363.5 z" /></g></g></svg>