<?xml version="1.0" encoding="UTF-8" standalone="no"?>
<svg
   xmlns:dc="http://purl.org/dc/elements/1.1/"
   xmlns:cc="http://creativecommons.org/ns#"
   xmlns:rdf="http://www.w3.org/1999/02/22-rdf-syntax-ns#"
   xmlns:svg="http://www.w3.org/2000/svg"
   xmlns="http://www.w3.org/2000/svg"
   viewBox="0 0 288 336"
   height="336"
   width="288"
   xml:space="preserve"
   id="svg2"
   version="1.1"><metadata
     id="metadata8"><rdf:RDF><cc:Work
         rdf:about=""><dc:format>image/svg+xml</dc:format><dc:type
           rdf:resource="http://purl.org/dc/dcmitype/StillImage" /></cc:Work></rdf:RDF></metadata><defs
     id="defs6" /><g
     transform="matrix(1.3333333,0,0,-1.3333333,0,336)"
     id="g10"><g
       transform="scale(0.1)"
       id="g12"><path
         id="path14"
         style="fill:none;stroke:#000000;stroke-width:2.5;stroke-linecap:butt;stroke-linejoin:miter;stroke-miterlimit:3.79999995;stroke-dasharray:none;stroke-opacity:1"
         d="m 430,685 h 31.5 m 1518,0 H 1948" /><g
         transform="scale(10)"
         id="g16"><text
           id="text20"
           style="font-variant:normal;font-weight:normal;font-size:10px;font-family:Helvetica;-inkscape-font-specification:Helvetica;writing-mode:lr-tb;fill:#000000;fill-opacity:1;fill-rule:nonzero;stroke:none"
           transform="matrix(1,0,0,-1,25.8805,65.1648)"><tspan
             id="tspan18"
             y="0"
             x="0 5.5599999">50</tspan></text>
</g><path
         id="path22"
         style="fill:none;stroke:#000000;stroke-width:2.5;stroke-linecap:butt;stroke-linejoin:miter;stroke-miterlimit:3.79999995;stroke-dasharray:none;stroke-opacity:1"
         d="m 430,1006 h 31.5 m 1518,0 H 1948" /><g
         transform="scale(10)"
         id="g24"><text
           id="text28"
           style="font-variant:normal;font-weight:normal;font-size:10px;font-family:Helvetica;-inkscape-font-specification:Helvetica;writing-mode:lr-tb;fill:#000000;fill-opacity:1;fill-rule:nonzero;stroke:none"
           transform="matrix(1,0,0,-1,20.3207,97.2648)"><tspan
             id="tspan26"
             y="0"
             x="0 5.5599999 11.12">100</tspan></text>
</g><path
         id="path30"
         style="fill:none;stroke:#000000;stroke-width:2.5;stroke-linecap:butt;stroke-linejoin:miter;stroke-miterlimit:3.79999995;stroke-dasharray:none;stroke-opacity:1"
         d="m 430,1327.5 h 31.5 m 1518,0 H 1948" /><g
         transform="scale(10)"
         id="g32"><text
           id="text36"
           style="font-variant:normal;font-weight:normal;font-size:10px;font-family:Helvetica;-inkscape-font-specification:Helvetica;writing-mode:lr-tb;fill:#000000;fill-opacity:1;fill-rule:nonzero;stroke:none"
           transform="matrix(1,0,0,-1,20.3207,129.415)"><tspan
             id="tspan34"
             y="0"
             x="0 5.5599999 11.12">150</tspan></text>
</g><path
         id="path38"
         style="fill:none;stroke:#000000;stroke-width:2.5;stroke-linecap:butt;stroke-linejoin:miter;stroke-miterlimit:3.79999995;stroke-dasharray:none;stroke-opacity:1"
         d="m 430,1648.5 h 31.5 m 1518,0 H 1948" /><g
         transform="scale(10)"
         id="g40"><text
           id="text44"
           style="font-variant:normal;font-weight:normal;font-size:10px;font-family:Helvetica;-inkscape-font-specification:Helvetica;writing-mode:lr-tb;fill:#000000;fill-opacity:1;fill-rule:nonzero;stroke:none"
           transform="matrix(1,0,0,-1,20.3207,161.515)"><tspan
             id="tspan42"
             y="0"
             x="0 5.5599999 11.12">200</tspan></text>
</g><path
         id="path46"
         style="fill:none;stroke:#000000;stroke-width:2.5;stroke-linecap:butt;stroke-linejoin:miter;stroke-miterlimit:3.79999995;stroke-dasharray:none;stroke-opacity:1"
         d="m 430,1970 h 31.5 m 1518,0 H 1948" /><g
         transform="scale(10)"
         id="g48"><text
           id="text52"
           style="font-variant:normal;font-weight:normal;font-size:10px;font-family:Helvetica;-inkscape-font-specification:Helvetica;writing-mode:lr-tb;fill:#000000;fill-opacity:1;fill-rule:nonzero;stroke:none"
           transform="matrix(1,0,0,-1,20.3207,193.665)"><tspan
             id="tspan50"
             y="0"
             x="0 5.5599999 11.12">250</tspan></text>
</g><path
         id="path54"
         style="fill:none;stroke:#000000;stroke-width:2.5;stroke-linecap:butt;stroke-linejoin:miter;stroke-miterlimit:3.79999995;stroke-dasharray:none;stroke-opacity:1"
         d="m 430,2291 h 31.5 m 1518,0 H 1948" /><g
         transform="scale(10)"
         id="g56"><text
           id="text60"
           style="font-variant:normal;font-weight:normal;font-size:10px;font-family:Helvetica;-inkscape-font-specification:Helvetica;writing-mode:lr-tb;fill:#000000;fill-opacity:1;fill-rule:nonzero;stroke:none"
           transform="matrix(1,0,0,-1,20.3207,225.765)"><tspan
             id="tspan58"
             y="0"
             x="0 5.5599999 11.12">300</tspan></text>
</g><path
         id="path62"
         style="fill:none;stroke:#000000;stroke-width:2.5;stroke-linecap:butt;stroke-linejoin:miter;stroke-miterlimit:3.79999995;stroke-dasharray:none;stroke-opacity:1"
         d="m 430,370 v 31.5 m 0,2018 V 2388" /><g
         transform="scale(10)"
         id="g64"><text
           id="text68"
           style="font-variant:normal;font-weight:normal;font-size:10px;font-family:Helvetica;-inkscape-font-specification:Helvetica;writing-mode:lr-tb;fill:#000000;fill-opacity:1;fill-rule:nonzero;stroke:none"
           transform="matrix(1,0,0,-1,32.9957,23.6648)"><tspan
             id="tspan66"
             y="0"
             x="0 3.3299999 8.8900003 14.45">-100</tspan></text>
</g><path
         id="path70"
         style="fill:none;stroke:#000000;stroke-width:2.5;stroke-linecap:butt;stroke-linejoin:miter;stroke-miterlimit:3.79999995;stroke-dasharray:none;stroke-opacity:1"
         d="m 817.5,370 v 31.5 m 0,2018 V 2388" /><g
         transform="scale(10)"
         id="g72"><text
           id="text76"
           style="font-variant:normal;font-weight:normal;font-size:10px;font-family:Helvetica;-inkscape-font-specification:Helvetica;writing-mode:lr-tb;fill:#000000;fill-opacity:1;fill-rule:nonzero;stroke:none"
           transform="matrix(1,0,0,-1,74.5254,23.6648)"><tspan
             id="tspan74"
             y="0"
             x="0 3.3299999 8.8900003">-50</tspan></text>
</g><path
         id="path78"
         style="fill:none;stroke:#000000;stroke-width:2.5;stroke-linecap:butt;stroke-linejoin:miter;stroke-miterlimit:3.79999995;stroke-dasharray:none;stroke-opacity:1"
         d="m 1205,370 v 31.5 m 0,2018 V 2388" /><g
         transform="scale(10)"
         id="g80"><text
           id="text84"
           style="font-variant:normal;font-weight:normal;font-size:10px;font-family:Helvetica;-inkscape-font-specification:Helvetica;writing-mode:lr-tb;fill:#000000;fill-opacity:1;fill-rule:nonzero;stroke:none"
           transform="matrix(1,0,0,-1,119.11,23.6648)"><tspan
             id="tspan82"
             y="0"
             x="0">0</tspan></text>
</g><path
         id="path86"
         style="fill:none;stroke:#000000;stroke-width:2.5;stroke-linecap:butt;stroke-linejoin:miter;stroke-miterlimit:3.79999995;stroke-dasharray:none;stroke-opacity:1"
         d="m 1592,370 v 31.5 m 0,2018 V 2388" /><g
         transform="scale(10)"
         id="g88"><text
           id="text92"
           style="font-variant:normal;font-weight:normal;font-size:10px;font-family:Helvetica;-inkscape-font-specification:Helvetica;writing-mode:lr-tb;fill:#000000;fill-opacity:1;fill-rule:nonzero;stroke:none"
           transform="matrix(1,0,0,-1,155.03,23.6648)"><tspan
             id="tspan90"
             y="0"
             x="0 5.5599999">50</tspan></text>
</g><path
         id="path94"
         style="fill:none;stroke:#000000;stroke-width:2.5;stroke-linecap:butt;stroke-linejoin:miter;stroke-miterlimit:3.79999995;stroke-dasharray:none;stroke-opacity:1"
         d="m 1979.5,370 v 31.5 m 0,2018 V 2388" /><g
         transform="scale(10)"
         id="g96"><text
           id="text100"
           style="font-variant:normal;font-weight:normal;font-size:10px;font-family:Helvetica;-inkscape-font-specification:Helvetica;writing-mode:lr-tb;fill:#000000;fill-opacity:1;fill-rule:nonzero;stroke:none"
           transform="matrix(1,0,0,-1,191.001,23.6648)"><tspan
             id="tspan98"
             y="0"
             x="0 5.5599999 11.12">100</tspan></text>
</g><path
         id="path102"
         style="fill:none;stroke:#000000;stroke-width:5;stroke-linecap:butt;stroke-linejoin:miter;stroke-miterlimit:3.79999995;stroke-dasharray:none;stroke-opacity:1"
         d="M 430,2419.5 V 370 h 1549.5 v 2049.5 z" /><g
         transform="scale(10)"
         id="g104"><text
           id="text108"
           style="font-variant:normal;font-weight:normal;font-size:10px;font-family:Helvetica;-inkscape-font-specification:Helvetica;writing-mode:lr-tb;fill:#000000;fill-opacity:1;fill-rule:nonzero;stroke:none"
           transform="matrix(0,1,1,0,12.8352,123.611)"><tspan
             id="tspan106"
             y="0"
             x="0 7.2199998 12.78 18.34 23.9 26.68">Counts</tspan></text>
<text
           id="text112"
           style="font-variant:normal;font-weight:normal;font-size:10px;font-family:Helvetica;-inkscape-font-specification:Helvetica;writing-mode:lr-tb;fill:#000000;fill-opacity:1;fill-rule:nonzero;stroke:none"
           transform="matrix(1,0,0,-1,94.2813,14.6648)"><tspan
             id="tspan110"
             y="0"
             x="0">Q</tspan></text>
<text
           id="text116"
           style="font-variant:normal;font-weight:normal;font-size:8px;font-family:Helvetica;-inkscape-font-specification:Helvetica;writing-mode:lr-tb;fill:#000000;fill-opacity:1;fill-rule:nonzero;stroke:none"
           transform="matrix(1,0,0,-1,102.06138,11.6648)"><tspan
             id="tspan114"
             y="0"
             x="0">z</tspan></text>
<text
           id="text120"
           style="font-variant:normal;font-weight:normal;font-size:10px;font-family:Helvetica;-inkscape-font-specification:Helvetica;writing-mode:lr-tb;fill:#000000;fill-opacity:1;fill-rule:nonzero;stroke:none"
           transform="matrix(1,0,0,-1,111.62138,14.6648)"><tspan
             id="tspan118"
             y="0"
             x="0 3.3299999 11.66 17.219999 23.889999 26.67 31.67">(MeV/c)</tspan></text>
</g><path
         id="path122"
         style="fill:#d4d4d4;fill-opacity:1;fill-rule:nonzero;stroke:none"
         d="M 430,2419.5 H 894.5 V 370 h 558 l 0.5,2049.5 h 1 0.5 1 1 0.5 1 0.5 1 0.5 1 0.5 1 1 0.5 1 0.5 1 0.5 1 0.5 1 0.5 1 1 0.5 1 0.5 1 0.5 1 0.5 1 1 0.5 1 0.5 1 0.5 1 0.5 1 0.5 1 1 0.5 1 0.5 1 0.5 1 0.5 1 1 0.5 1 0.5 1 0.5 1 0.5 1 0.5 1 1 0.5 1 0.5 1 0.5 1 0.5 1 1 0.5 1 0.5 1 0.5 1 0.5 1 0.5 1 1 0.5 1 0.5 1 0.5 1 0.5 1 1 0.5 1 0.5 1 0.5 1 0.5 1 0.5 1 1 0.5 1 0.5 1 0.5 1 0.5 1 1 0.5 1 0.5 1 0.5 1 0.5 1 0.5 1 1 0.5 1 0.5 1 0.5 1 0.5 1 1 0.5 1 0.5 1 0.5 1 0.5 1 1 0.5 1 0.5 1 0.5 1 0.5 1 0.5 1 1 0.5 1 0.5 1 0.5 1 0.5 1 1 0.5 1 0.5 1 0.5 1 0.5 1 0.5 1 1 0.5 1 0.5 1 0.5 1 0.5 1 1 0.5 1 0.5 1 0.5 1 0.5 1 0.5 1 1 0.5 1 0.5 1 0.5 1 0.5 1 1 0.5 1 0.5 1 0.5 1 0.5 1 0.5 1 1 0.5 1 0.5 1 0.5 1 0.5 1 1 0.5 1 0.5 1 0.5 1 0.5 1 0.5 1 1 0.5 1 0.5 1 0.5 1 0.5 1 1 0.5 1 0.5 1 0.5 1 0.5 1 0.5 1 1 0.5 1 0.5 1 0.5 1 0.5 1 1 0.5 1 0.5 1 0.5 1 0.5 1 0.5 1 1 0.5 1 0.5 1 0.5 1 0.5 1 1 0.5 1 0.5 1 0.5 1 0.5 1 0.5 1 1 0.5 1 0.5 1 0.5 1 0.5 1 1 0.5 1 0.5 1 0.5 1 0.5 1 0.5 1 1 0.5 1 0.5 1 0.5 1 0.5 1 1 0.5 1 0.5 1 0.5 1 0.5 1 1 0.5 1 0.5 1 0.5 1 0.5 1 0.5 1 1 0.5 1 0.5 1 0.5 1 0.5 1 1 0.5 1 0.5 1 0.5 1 0.5 1 0.5 1 1 0.5 1 0.5 1 0.5 1 0.5 1 1 0.5 1 0.5 1 0.5 1 0.5 1 0.5 1 1 0.5 1 0.5 1 0.5 1 0.5 1 1 0.5 1 0.5 1 0.5 1 0.5 1 0.5 1 1 0.5 1 0.5 1 0.5 1 0.5 1 1 0.5 1 0.5 1 0.5 1 0.5 1 0.5 1 1 0.5 1 0.5 1 0.5 1 0.5 1 1 0.5 1 0.5 1 0.5 1 0.5 1 0.5 1 1 0.5 1 0.5 1 0.5 1 0.5 1 1 0.5 1 0.5 1 0.5 1 0.5 1 0.5 1 1 0.5 1 0.5 1 0.5 1 0.5 1 1 0.5 1 0.5 1 0.5 1 0.5 1 0.5 1 1 0.5 1 0.5 1 0.5 1 0.5 1 1 0.5 1 0.5 1 0.5 1 0.5 1 1 0.5 1 0.5 1 0.5 1 0.5 1 0.5 1 1 0.5 1 0.5 1 0.5 1 0.5 1 1 0.5 1 0.5 1 0.5 1 0.5 1 0.5 1 1 0.5 1 0.5 1 0.5 1 0.5 1 1 0.5 1 0.5 1 0.5 1 0.5 1 0.5 1 1 0.5 1 0.5 1 0.5 1 0.5 1 1 0.5 1 0.5 1 0.5 1 0.5 1 0.5 1 1 0.5 1 0.5 1 0.5 1 0.5 1 1 0.5 1 0.5 1 0.5 1 0.5 1 0.5 1 1 0.5 1 0.5 1 0.5 1 0.5 1 1 0.5 1 0.5 1 0.5 1 0.5 1 0.5 1 1 0.5 1 0.5 1 0.5 1 0.5 1 1 0.5 1 0.5 1 0.5 1 0.5 1 0.5 1 1 0.5 1 0.5 1 0.5 1 0.5 1 1 0.5 1 0.5 1 0.5 1 0.5 1 0.5 1 1 0.5 1 0.5 1 0.5 1 0.5 1 1 0.5 1 0.5 1 0.5 1 0.5 1 0.5 1 1 0.5 1 0.5 1 0.5 1 0.5 1 V 370 H 430" /><path
         id="path124"
         style="fill:none;stroke:#000000;stroke-width:5;stroke-linecap:butt;stroke-linejoin:miter;stroke-miterlimit:3.79999995;stroke-dasharray:none;stroke-opacity:1"
         d="M 802,407.5 V 493 m -25,-85.5 h 49.5 M 777,493 h 49.5 M 864,565 V 750 M 839,565 h 49.5 M 839,750 h 49.5 M 926,789.5 V 1075 M 901,789.5 h 49.5 M 901,1075 h 49.5 M 988,823 v 363 M 963,823 h 49.5 M 963,1186 h 49.5 m 37.5,-23.5 v 423 m -25,-423 h 49.5 m -49.5,423 h 49.5 M 1112,1505 v 444.5 M 1087,1505 h 49.5 m -49.5,444.5 h 49.5 M 1174,1508 v 451 m -25,-451 h 49.5 m -49.5,451 h 49.5 m 37,-503 v 443 m -25,-443 h 49.5 m -49.5,443 h 49.5 m 37.5,-669 v 410 m -25,-410 h 49.5 m -49.5,410 h 49.5 m 37.5,-765.5 V 1234 m -25,-359.5 h 49.5 m -49.5,359.5 h 49.5 m 37.5,-490 v 293 m -25,-293 h 49.5 m -49.5,293 h 49.5 m 37.5,-626 v 217 m -25,-217 h 49.5 m -49.5,217 h 49.5 m 37.5,-137 v 150 m -25,-150 h 49.5 m -49.5,150 h 49.5" /><path
         id="path126"
         style="fill:#000000;fill-opacity:1;fill-rule:nonzero;stroke:none"
         d="m 820.898,450.5 c 0,10.438 -8.46,18.898 -18.898,18.898 -10.437,0 -18.898,-8.46 -18.898,-18.898 0,-10.437 8.461,-18.898 18.898,-18.898 10.438,0 18.898,8.461 18.898,18.898" /><path
         id="path128"
         style="fill:#000000;fill-opacity:1;fill-rule:nonzero;stroke:none"
         d="m 882.898,657.5 c 0,10.438 -8.46,18.898 -18.898,18.898 -10.437,0 -18.898,-8.46 -18.898,-18.898 0,-10.437 8.461,-18.898 18.898,-18.898 10.438,0 18.898,8.461 18.898,18.898" /><path
         id="path130"
         style="fill:#000000;fill-opacity:1;fill-rule:nonzero;stroke:none"
         d="m 944.898,932 c 0,10.438 -8.46,18.898 -18.898,18.898 -10.437,0 -18.898,-8.46 -18.898,-18.898 0,-10.437 8.461,-18.898 18.898,-18.898 10.438,0 18.898,8.461 18.898,18.898" /><path
         id="path132"
         style="fill:#000000;fill-opacity:1;fill-rule:nonzero;stroke:none"
         d="m 1006.9,1004.5 c 0,10.44 -8.462,18.9 -18.9,18.9 -10.437,0 -18.898,-8.46 -18.898,-18.9 0,-10.437 8.461,-18.898 18.898,-18.898 10.438,0 18.9,8.461 18.9,18.898" /><path
         id="path134"
         style="fill:#000000;fill-opacity:1;fill-rule:nonzero;stroke:none"
         d="m 1068.9,1374 c 0,10.44 -8.46,18.9 -18.9,18.9 -10.44,0 -18.9,-8.46 -18.9,-18.9 0,-10.44 8.46,-18.9 18.9,-18.9 10.44,0 18.9,8.46 18.9,18.9" /><path
         id="path136"
         style="fill:#000000;fill-opacity:1;fill-rule:nonzero;stroke:none"
         d="m 1130.9,1727 c 0,10.44 -8.46,18.9 -18.9,18.9 -10.44,0 -18.9,-8.46 -18.9,-18.9 0,-10.44 8.46,-18.9 18.9,-18.9 10.44,0 18.9,8.46 18.9,18.9" /><path
         id="path138"
         style="fill:#000000;fill-opacity:1;fill-rule:nonzero;stroke:none"
         d="m 1192.9,1733.5 c 0,10.44 -8.46,18.9 -18.9,18.9 -10.44,0 -18.9,-8.46 -18.9,-18.9 0,-10.44 8.46,-18.9 18.9,-18.9 10.44,0 18.9,8.46 18.9,18.9" /><path
         id="path140"
         style="fill:#000000;fill-opacity:1;fill-rule:nonzero;stroke:none"
         d="m 1254.4,1677.5 c 0,10.44 -8.46,18.9 -18.9,18.9 -10.44,0 -18.9,-8.46 -18.9,-18.9 0,-10.44 8.46,-18.9 18.9,-18.9 10.44,0 18.9,8.46 18.9,18.9" /><path
         id="path142"
         style="fill:#000000;fill-opacity:1;fill-rule:nonzero;stroke:none"
         d="m 1316.4,1435 c 0,10.44 -8.46,18.9 -18.9,18.9 -10.44,0 -18.9,-8.46 -18.9,-18.9 0,-10.44 8.46,-18.9 18.9,-18.9 10.44,0 18.9,8.46 18.9,18.9" /><path
         id="path144"
         style="fill:#000000;fill-opacity:1;fill-rule:nonzero;stroke:none"
         d="m 1378.4,1054 c 0,10.44 -8.46,18.9 -18.9,18.9 -10.44,0 -18.9,-8.46 -18.9,-18.9 0,-10.44 8.46,-18.9 18.9,-18.9 10.44,0 18.9,8.46 18.9,18.9" /><path
         id="path146"
         style="fill:#000000;fill-opacity:1;fill-rule:nonzero;stroke:none"
         d="m 1440.4,890.5 c 0,10.438 -8.46,18.898 -18.9,18.898 -10.44,0 -18.9,-8.46 -18.9,-18.898 0,-10.437 8.46,-18.898 18.9,-18.898 10.44,0 18.9,8.461 18.9,18.898" /><path
         id="path148"
         style="fill:#000000;fill-opacity:1;fill-rule:nonzero;stroke:none"
         d="m 1502.4,519.5 c 0,10.438 -8.46,18.898 -18.9,18.898 -10.44,0 -18.9,-8.46 -18.9,-18.898 0,-10.437 8.46,-18.898 18.9,-18.898 10.44,0 18.9,8.461 18.9,18.898" /><path
         id="path150"
         style="fill:#000000;fill-opacity:1;fill-rule:nonzero;stroke:none"
         d="m 1564.4,566 c 0,10.438 -8.46,18.898 -18.9,18.898 -10.44,0 -18.9,-8.46 -18.9,-18.898 0,-10.437 8.46,-18.898 18.9,-18.898 10.44,0 18.9,8.461 18.9,18.898" /><g
         transform="scale(10)"
         id="g152"><text
           id="text156"
           style="font-variant:normal;font-weight:normal;font-size:10px;font-family:Helvetica;-inkscape-font-specification:Helvetica;writing-mode:lr-tb;fill:#000000;fill-opacity:1;fill-rule:nonzero;stroke:none"
           transform="matrix(1,0,0,-1,109.342,232.615)"><tspan
             id="tspan154"
             y="0"
             x="0 5.5599999 10.56 16.120001 21.68 25.01 27.23 35.560001 41.119999 46.68">experiment</tspan></text>
</g><path
         id="path158"
         style="fill:none;stroke:#000000;stroke-width:5;stroke-linecap:butt;stroke-linejoin:miter;stroke-miterlimit:3.79999995;stroke-dasharray:none;stroke-opacity:1"
         d="m 1648,2359.5 h 271.5 M 771,370 v 80.5 h 62 v 207 h 62 V 932 h 62 v 72.5 h 62 V 1374 h 62 v 353 h 62 v 6.5 h 62 v -56 h 61.5 V 1435 h 62 v -381 h 62 V 890.5 h 62 v -371 h 62 V 566 h 62 V 370" /><path
         id="path160"
         style="fill:none;stroke:#000000;stroke-width:5;stroke-linecap:butt;stroke-linejoin:miter;stroke-miterlimit:3.79999995;stroke-dasharray:none;stroke-opacity:1"
         d="m 771,370 v 80.5 h 62 v 207 h 62 V 932 h 62 v 72.5 h 62 V 1374 h 62 v 353 h 62 v 6.5 h 62 v -56 h 61.5 V 1435 h 62 v -381 h 62 V 890.5 h 62 v -371 h 62 V 566 h 62 V 370" /><g
         transform="scale(10)"
         id="g162"><text
           id="text166"
           style="font-variant:normal;font-weight:normal;font-size:10px;font-family:Helvetica;-inkscape-font-specification:Helvetica;writing-mode:lr-tb;fill:#000000;fill-opacity:1;fill-rule:nonzero;stroke:none"
           transform="matrix(1,0,0,-1,109.352,220.615)"><tspan
             id="tspan164"
             y="0"
             x="0 7.2199998 13.33 19.440001 22.219999 30.549999 36.110001 41.669998 47.23">RTF model</tspan></text>
</g><path
         id="path168"
         style="fill:none;stroke:#ff0000;stroke-width:10;stroke-linecap:butt;stroke-linejoin:miter;stroke-miterlimit:3.79999995;stroke-dasharray:none;stroke-opacity:1"
         d="m 1648,2239.5 h 271.5 M 430,570 l 1,0.5 h 0.5 l 1,0.5 0.5,0.5 h 1 l 0.5,0.5 h 1 l 0.5,0.5 1,0.5 h 1 l 0.5,0.5 h 1 l 0.5,0.5 1,0.5 h 0.5 l 1,0.5 h 0.5 l 1,0.5 h 0.5 l 1,0.5 1,0.5 h 0.5 l 1,0.5 h 0.5 l 1,0.5 h 0.5 l 1,0.5 h 0.5 l 1,0.5 h 1 l 0.5,0.5 h 1 l 0.5,0.5 h 1 0.5 l 1,0.5 h 0.5 l 1,0.5 h 0.5 1 l 1,0.5 h 0.5 l 1,0.5 h 0.5 1 l 0.5,0.5 h 1 0.5 l 1,0.5 h 1 0.5 l 1,0.5 h 0.5 1 0.5 l 1,0.5 h 0.5 1 l 0.5,0.5 h 1 1 0.5 1 l 0.5,0.5 h 1 0.5 1 l 0.5,0.5 h 1 1 0.5 1 l 0.5,0.5 h 1 0.5 1 0.5 l 1,0.5 h 0.5 1 1 0.5 1 l 0.5,0.5 h 1 0.5 1 0.5 1 1 l 0.5,0.5 h 1 0.5 1 0.5 1 l 0.5,0.5 h 1 0.5 1 1 0.5 l 1,0.5 h 0.5 1 0.5 1 0.5 l 1,0.5 h 1 0.5 1 0.5 l 1,0.5 h 0.5 1 0.5 l 1,0.5 h 0.5 1 1 l 0.5,0.5 h 1 0.5 1 l 0.5,0.5 h 1 0.5 l 1,0.5 h 1 0.5 l 1,0.5 h 0.5 1 l 0.5,0.5 h 1 0.5 l 1,0.5 h 0.5 l 1,0.5 h 1 0.5 l 1,0.5 h 0.5 l 1,0.5 h 0.5 l 1,0.5 h 0.5 1 l 1,0.5 h 0.5 l 1,0.5 h 0.5 l 1,0.5 h 0.5 l 1,0.5 h 0.5 l 1,0.5 h 0.5 l 1,0.5 h 1 l 0.5,0.5 h 1 l 0.5,0.5 h 1 l 0.5,0.5 h 1 l 0.5,0.5 h 1 l 1,0.5 h 0.5 l 1,0.5 h 0.5 l 1,0.5 h 0.5 l 1,0.5 0.5,0.5 h 1 l 0.5,0.5 h 1 l 1,0.5 h 0.5 l 1,0.5 h 0.5 l 1,0.5 h 0.5 l 1,0.5 h 0.5 l 1,0.5 1,0.5 h 0.5 l 1,0.5 h 0.5 l 1,0.5 h 0.5 l 1,0.5 h 0.5 1 l 1,0.5 h 0.5 l 1,0.5 h 0.5 l 1,0.5 h 0.5 l 1,0.5 h 0.5 1 l 0.5,0.5 h 1 1 l 0.5,0.5 h 1 0.5 l 1,0.5 h 0.5 1 0.5 l 1,0.5 h 1 0.5 1 0.5 l 1,0.5 h 0.5 1 0.5 1 0.5 1 1 0.5 1 0.5 1 0.5 1 0.5 1 1 0.5 1 0.5 1 0.5 1 0.5 1" /><path
         id="path170"
         style="fill:none;stroke:#ff0000;stroke-width:10;stroke-linecap:butt;stroke-linejoin:miter;stroke-miterlimit:3.79999995;stroke-dasharray:none;stroke-opacity:1"
         d="m 621.5,611.5 h 11 l 0.5,0.5 h 2.5 l 0.5,0.5 h 1 0.5 l 1,0.5 h 1 l 0.5,0.5 h 1 l 0.5,0.5 h 1 l 0.5,0.5 1,0.5 h 0.5 l 1,0.5 1,0.5 0.5,0.5 h 1 l 0.5,0.5 1,0.5 0.5,0.5 1,0.5 0.5,0.5 1,0.5 0.5,0.5 1,0.5 1,0.5 0.5,1 1,0.5 0.5,0.5 1,0.5 0.5,0.5 1,1 0.5,0.5 1,0.5 1,0.5 0.5,1 1,0.5 0.5,0.5 1,0.5 0.5,1 1,0.5 0.5,0.5 1,1 0.5,0.5 1,0.5 1,1 0.5,0.5 1,0.5 0.5,1 1,0.5 0.5,0.5 1,1 0.5,0.5 1,0.5 1,1 0.5,0.5 1,0.5 0.5,1 1,0.5 0.5,0.5 1,0.5 0.5,1 1,0.5 0.5,0.5 1,0.5 1,0.5 0.5,0.5 1,0.5 0.5,0.5 1,1 0.5,0.5 1,0.5 0.5,0.5 1,0.5 1,0.5 0.5,0.5 1,0.5 0.5,0.5 1,0.5 0.5,0.5 1,0.5 0.5,0.5 1,0.5 0.5,0.5 1,0.5 h 1 l 0.5,0.5 1,0.5 0.5,0.5 1,0.5 0.5,0.5 1,0.5 0.5,0.5 1,0.5 1,0.5 0.5,0.5 h 1 l 0.5,0.5 1,0.5 0.5,0.5 1,0.5 0.5,0.5 1,0.5 1,0.5 0.5,0.5 1,0.5 0.5,0.5 1,0.5 h 0.5 l 1,0.5 0.5,0.5 1,0.5 0.5,0.5 1,0.5 1,0.5 0.5,0.5 1,0.5 0.5,0.5 1,0.5 0.5,0.5 1,0.5 0.5,0.5 1,0.5 1,0.5 0.5,0.5 1,1 0.5,0.5 1,0.5 0.5,0.5 1,0.5 0.5,0.5 1,0.5 0.5,1 1,0.5 1,0.5 0.5,0.5 1,0.5 0.5,1 1,0.5 0.5,0.5 1,1 0.5,0.5 1,0.5 1,1 0.5,0.5 1,0.5 0.5,1 1,0.5 0.5,1 1,0.5 0.5,1 1,0.5 0.5,1 1,0.5 1,1 0.5,1 1,0.5 0.5,1 1,1 0.5,0.5 1,1 0.5,1 1,1 1,0.5 0.5,1 1,1 0.5,1 1,1 0.5,1 1,1 0.5,1 1,1 0.5,1 1,1 1,1 0.5,1 1,1 0.5,1 1,1 0.5,1 1,1 0.5,1 1,1.5 1,1 0.5,1 1,1 0.5,1 1,1.5 0.5,1 1,1 0.5,1 1,1 0.5,1.5 1,1 1,1 0.5,1 1,1.5 0.5,1 1,1 0.5,1 1,1.5 0.5,1 1,1 1,1.5 0.5,1 1,1 0.5,1 1,1.5 0.5,1 1,1 0.5,1 1,1.5 0.5,1 1,1 1,1 0.5,1 1,1.5 0.5,1 1,1 0.5,1 1,1.5 0.5,1 1,1 1,1 0.5,1 1,1.5 0.5,1 1,1 0.5,1 1,1 0.5,1.5 1,1" /><path
         id="path172"
         style="fill:none;stroke:#ff0000;stroke-width:10;stroke-linecap:butt;stroke-linejoin:miter;stroke-miterlimit:3.79999995;stroke-dasharray:none;stroke-opacity:1"
         d="m 814.5,776.5 0.5,1 1,1 1,1.5 0.5,1 1,1 0.5,1 1,1.5 0.5,1 1,1 0.5,1.5 1,1 1,1 0.5,1.5 1,1 0.5,1 1,1.5 0.5,1 1,1.5 0.5,1 1,1 0.5,1.5 1,1 1,1.5 0.5,1 1,1.5 0.5,1 1,1.5 0.5,1.5 1,1 0.5,1.5 1,1 1,1.5 0.5,1.5 1,1.5 0.5,1 1,1.5 0.5,1.5 1,1.5 0.5,1 1,1.5 0.5,1.5 1,1.5 1,1.5 0.5,1.5 1,1.5 0.5,1 1,1.5 0.5,1.5 1,1.5 0.5,1.5 1,1.5 1,1.5 0.5,1.5 1,1.5 0.5,1.5 1,1.5 0.5,1.5 1,1.5 0.5,2 1,1.5 1,1.5 0.5,1.5 1,1.5 0.5,1.5 1,1.5 0.5,1.5 1,2 0.5,1.5 1,1.5 0.5,1.5 1,1.5 1,1.5 0.5,2 1,1.5 0.5,1.5 1,1.5 0.5,2 1,1.5 0.5,1.5 1,1.5 1,1.5 0.5,2 1,1.5 0.5,1.5 1,1.5 0.5,2 1,1.5 0.5,1.5 1,2 0.5,1.5 1,1.5 1,1.5 0.5,2 1,1.5 0.5,1.5 1,2 0.5,1.5 1,1.5 0.5,2 1,1.5 1,1.5 0.5,2 1,1.5 0.5,1.5 1,2 0.5,1.5 1,1.5 0.5,2 1,1.5 0.5,2 1,1.5 1,1.5 0.5,2 1,1.5 0.5,2 1,1.5 0.5,2 1,1.5 0.5,2 1,1.5 1,1.5 0.5,2 1,1.5 0.5,2 1,1.5 0.5,2 1,1.5 0.5,2 1,1.5 0.5,2 1,1.5 1,2 0.5,2 1,1.5 0.5,2 1,1.5 0.5,2 1,1.5 0.5,2 1,2 1,1.5 0.5,2 1,2 0.5,1.5 1,2 0.5,1.5 1,2 0.5,2 1,1.5 0.5,2 1,2 1,1.5 0.5,2 1,2 0.5,1.5 1,2 0.5,2 1,2 0.5,1.5 1,2 1,2 0.5,2 1,1.5 0.5,2 1,2 0.5,2 1,1.5 0.5,2 1,2 0.5,2 1,1.5 1,2 0.5,2 1,2 0.5,2 1,1.5 0.5,2 1,2 0.5,2 1,2 1,1.5 0.5,2 1,2 0.5,2 1,2 0.5,2 1,2 0.5,1.5 1,2 0.5,2 1,2 1,2 0.5,2 1,2 0.5,2 1,2 0.5,2 1,2 0.5,2 1,2 1,2 0.5,2 1,2 0.5,2 1,2 0.5,2 1,2 0.5,2 1,2 0.5,2.5 1,2 1,2 0.5,2 1,2 0.5,2.5 1,2 0.5,2 1,2.5 0.5,2 1,2 1,2.5 0.5,2 1,2 0.5,2.5 1,2 0.5,2.5 1,2 0.5,2.5 1,2 0.5,2.5 1,2.5 1,2 0.5,2.5 1,2.5 0.5,2 1,2.5 0.5,2.5 1,2.5 0.5,2 1,2.5 1,2.5 0.5,2.5 1,2 0.5,2.5 1,2.5 0.5,2.5 1,2.5 0.5,2 1,2.5" /><path
         id="path174"
         style="fill:none;stroke:#ff0000;stroke-width:10;stroke-linecap:butt;stroke-linejoin:miter;stroke-miterlimit:3.79999995;stroke-dasharray:none;stroke-opacity:1"
         d="m 1007.5,1212.5 1,2.5 0.5,2.5 1,2.5 0.5,2 1,2.5 0.5,2.5 1,2.5 0.5,2 1,2.5 0.5,2.5 1,2 1,2.5 0.5,2.5 1,2 0.5,2.5 1,2 0.5,2.5 1,2 0.5,2.5 1,2 1,2.5 0.5,2 1,2 0.5,2.5 1,2 0.5,2 1,2 0.5,2 1,2 0.5,2 1,2 1,2 0.5,2 1,2 0.5,2 1,1.5 0.5,2 1,2 0.5,2 1,1.5 1,2 0.5,1.5 1,2 0.5,1.5 1,2 0.5,1.5 1,2 0.5,1.5 1,2 0.5,1.5 1,2 1,1.5 0.5,2 1,1.5 0.5,1.5 1,2 0.5,1.5 1,2 0.5,1.5 1,2 1,1.5 0.5,2 1,1.5 0.5,2 1,1.5 0.5,2 1,2 0.5,1.5 1,2 0.5,2 1,2 1,1.5 0.5,2 1,2 0.5,2 1,2 0.5,2 1,2 0.5,2 1,2 1,2 0.5,2.5 1,2 0.5,2 1,2.5 0.5,2 1,2.5 0.5,2 1,2.5 0.5,2 1,2.5 1,2.5 0.5,2.5 1,2 0.5,2.5 1,2.5 0.5,2.5 1,2.5 0.5,2 1,2.5 1,2.5 0.5,2.5 1,2.5 0.5,2.5 1,2.5 0.5,2.5 1,2.5 0.5,2.5 1,2.5 0.5,2.5 1,2.5 1,2.5 0.5,2.5 1,2 0.5,2.5 1,2.5 0.5,2.5 1,2.5 0.5,2.5 1,2.5 1,2.5 0.5,2 1,2.5 0.5,2.5 1,2.5 0.5,2 1,2.5 0.5,2.5 1,2 0.5,2.5 1,2 1,2.5 0.5,2 1,2.5 0.5,2 1,2 0.5,2.5 1,2 0.5,2 1,2.5 1,2 0.5,2 1,2 0.5,2.5 1,2 0.5,2 1,2.5 0.5,2 1,2.5 0.5,2 1,2.5 1,2 0.5,2.5 1,2 0.5,2.5 1,2 0.5,2.5 1,2.5 0.5,2.5 1,2.5 1,2.5 0.5,2.5 1,2.5 0.5,2.5 1,2.5 0.5,3 1,2.5 0.5,3 1,3 1,2.5 0.5,3 1,3 0.5,3 1,3 0.5,3.5 1,3 0.5,3.5 1,3 0.5,3.5 1,3.5 1,3.5 0.5,3.5 1,4 0.5,3.5 1,4 0.5,3.5 1,4 0.5,3.5 1,4 1,4 0.5,4 1,3.5 0.5,4 1,4 0.5,4 1,3.5 0.5,4 1,4 0.5,3.5 1,4 1,3.5 0.5,3.5 1,3.5 0.5,3.5 1,3.5 0.5,3.5 1,3.5 0.5,3 1,3 1,3 0.5,3 1,3 0.5,2.5 1,2.5 0.5,2.5 1,2.5 0.5,2 1,2 0.5,2 1,1.5 1,2 0.5,1 1,1.5 0.5,1 1,1 0.5,0.5 1,0.5 0.5,0.5 h 1 1 0.5 l 1,-0.5 0.5,-1 1,-1 0.5,-1 1,-1 0.5,-1.5 1,-1.5 0.5,-2 1,-1.5 1,-2 0.5,-2.5 1,-2 0.5,-2.5 1,-2.5 0.5,-3 1,-2.5 0.5,-3 1,-3" /><path
         id="path176"
         style="fill:none;stroke:#ff0000;stroke-width:10;stroke-linecap:butt;stroke-linejoin:miter;stroke-miterlimit:3.79999995;stroke-dasharray:none;stroke-opacity:1"
         d="m 1200.5,1723 1,-3 0.5,-3.5 1,-3 0.5,-3.5 1,-3.5 0.5,-3.5 1,-3.5 0.5,-3.5 1,-3.5 0.5,-4 1,-3.5 1,-4 0.5,-3.5 1,-4 0.5,-3.5 1,-4 0.5,-3.5 1,-4 0.5,-3.5 1,-4 1,-3.5 0.5,-4 1,-3.5 0.5,-3.5 1,-3.5 0.5,-3.5 1,-3.5 0.5,-3.5 1,-3.5 0.5,-3 1,-3 1,-3.5 0.5,-2.5 1,-3 0.5,-3 1,-2.5 0.5,-3 1,-2.5 0.5,-2.5 1,-2.5 1,-2 0.5,-2.5 1,-2 0.5,-2.5 1,-2 0.5,-2 1,-2 0.5,-2 1,-2 0.5,-2 1,-2 1,-2 0.5,-1.5 1,-2 0.5,-1.5 1,-2 0.5,-1.5 1,-1.5 0.5,-2 1,-1.5 1,-1.5 0.5,-1.5 1,-1.5 0.5,-2 1,-1.5 0.5,-1.5 1,-1.5 0.5,-1.5 1,-1.5 0.5,-2 1,-1.5 1,-1.5 0.5,-1.5 1,-2 0.5,-1.5 1,-1.5 0.5,-2 1,-1.5 0.5,-2 1,-2 1,-1.5 0.5,-2 1,-2 0.5,-2 1,-2 0.5,-2 1,-2 0.5,-2 1,-2.5 0.5,-2 1,-2 1,-2 0.5,-2.5 1,-2 0.5,-2.5 1,-2 0.5,-2.5 1,-2.5 0.5,-2 1,-2.5 1,-2.5 0.5,-2 1,-2.5 0.5,-2.5 1,-2.5 0.5,-2 1,-2.5 0.5,-2.5 1,-2.5 1,-2.5 0.5,-2.5 1,-2 0.5,-2.5 1,-2.5 0.5,-2.5 1,-2.5 0.5,-2 1,-2.5 0.5,-2.5 1,-2 1,-2.5 0.5,-2.5 1,-2 0.5,-2.5 1,-2.5 0.5,-2 1,-2.5 0.5,-2 1,-2 1,-2.5 0.5,-2 1,-2 0.5,-2 1,-2.5 0.5,-2 1,-2 0.5,-2 1,-2 0.5,-2 1,-2 1,-2 0.5,-1.5 1,-2 0.5,-2 1,-2 0.5,-1.5 1,-2 0.5,-2 1,-1.5 1,-2 0.5,-2 1,-1.5 0.5,-2 1,-1.5 0.5,-2 1,-2 0.5,-1.5 1,-2 0.5,-1.5 1,-2 1,-1.5 0.5,-2 1,-1.5 0.5,-2 1,-1.5 0.5,-2 1,-1.5 0.5,-2 1,-1.5 1,-2 0.5,-2 1,-1.5 0.5,-2 1,-2 0.5,-1.5 1,-2 0.5,-2 1,-1.5 0.5,-2 1,-2 1,-2 0.5,-2 1,-2 0.5,-2 1,-2 0.5,-2 1,-2 0.5,-2 1,-2 1,-2 0.5,-2 1,-2 0.5,-2 1,-2 0.5,-2.5 1,-2 0.5,-2 1,-2 0.5,-2.5 1,-2 1,-2 0.5,-2.5 1,-2 0.5,-2 1,-2.5 0.5,-2 1,-2.5 0.5,-2 1,-2.5 1,-2 0.5,-2.5 1,-2 0.5,-2.5 1,-2 0.5,-2.5 1,-2 0.5,-2.5 1,-2 0.5,-2.5 1,-2 1,-2.5 0.5,-2 1,-2.5 0.5,-2 1,-2.5 0.5,-2 1,-2.5 0.5,-2 1,-2.5 1,-2 0.5,-2.5 1,-2.5 0.5,-2 1,-2.5 0.5,-2 1,-2.5 0.5,-2 1,-2 0.5,-2.5 1,-2 1,-2.5 0.5,-2 1,-2.5 0.5,-2 1,-2.5 0.5,-2 1,-2.5 0.5,-2 1,-2" /><path
         id="path178"
         style="fill:none;stroke:#ff0000;stroke-width:10;stroke-linecap:butt;stroke-linejoin:miter;stroke-miterlimit:3.79999995;stroke-dasharray:none;stroke-opacity:1"
         d="m 1393.5,1160 1,-2.5 0.5,-2 1,-2.5 0.5,-2 1,-2 0.5,-2.5 1,-2 0.5,-2 1,-2.5 0.5,-2 1,-2 1,-2.5 0.5,-2 1,-2 0.5,-2.5 1,-2 0.5,-2 1,-2 0.5,-2.5 1,-2 1,-2 0.5,-2 1,-2.5 0.5,-2 1,-2 0.5,-2 1,-2 0.5,-2.5 1,-2 1,-2 0.5,-2 1,-2 0.5,-2 1,-2.5 0.5,-2 1,-2 0.5,-2 1,-2 0.5,-2 1,-2 1,-2 0.5,-2 1,-2 0.5,-2 1,-2 0.5,-2 1,-2 0.5,-2 1,-2 1,-2 0.5,-2 1,-2 0.5,-2 1,-2 0.5,-2 1,-2 0.5,-1.5 1,-2 0.5,-2 1,-2 1,-2 0.5,-2 1,-1.5 0.5,-2 1,-2 0.5,-2 1,-2 0.5,-1.5 1,-2 1,-2 0.5,-2 1,-1.5 0.5,-2 1,-2 0.5,-1.5 1,-2 0.5,-2 1,-1.5 0.5,-2 1,-2 1,-1.5 0.5,-2 1,-1.5 0.5,-2 1,-1.5 0.5,-2 1,-1.5 0.5,-2 1,-2 1,-1.5 0.5,-2 1,-1.5 0.5,-1.5 1,-2 0.5,-1.5 1,-2 0.5,-1.5 1,-2 0.5,-1.5 1,-2 1,-1.5 0.5,-1.5 1,-2 0.5,-1.5 1,-2 0.5,-1.5 1,-1.5 0.5,-2 1,-1.5 1,-2 0.5,-1.5 1,-1.5 0.5,-2 1,-1.5 0.5,-1.5 1,-2 0.5,-1.5 1,-2 0.5,-1.5 1,-1.5 1,-2 0.5,-1.5 1,-1.5 0.5,-2 1,-1.5 0.5,-2 1,-1.5 0.5,-1.5 1,-2 1,-1.5 0.5,-2 1,-1.5 0.5,-1.5 1,-2 0.5,-1.5 1,-2 0.5,-1.5 1,-1.5 0.5,-2 1,-1.5 1,-2 0.5,-1.5 1,-1.5 0.5,-2 1,-1.5 0.5,-2 1,-1.5 0.5,-1.5 1,-2 1,-1.5 0.5,-2 1,-1.5 0.5,-1.5 1,-2 0.5,-1.5 1,-1.5 0.5,-2 1,-1.5 0.5,-1.5 1,-2 1,-1.5 0.5,-1.5 1,-2 0.5,-1.5 1,-1.5 0.5,-1.5 1,-2 0.5,-1.5 1,-1.5 1,-1.5 0.5,-1.5 1,-2 0.5,-1.5 1,-1.5 0.5,-1.5 1,-1.5 0.5,-1.5 1,-1.5 0.5,-1.5 1,-1.5 1,-1.5 0.5,-1.5 1,-1.5 0.5,-1.5 1,-1.5 0.5,-1.5 1,-1.5 0.5,-1.5 1,-1.5 1,-1 0.5,-1.5 1,-1.5 0.5,-1.5 1,-1 0.5,-1.5 1,-1.5 0.5,-1.5 1,-1 0.5,-1.5 1,-1.5 1,-1 0.5,-1.5 1,-1.5 0.5,-1 1,-1.5 0.5,-1 1,-1.5 0.5,-1.5 1,-1 1,-1.5 0.5,-1 1,-1.5 0.5,-1 1,-1.5 0.5,-1 1,-1.5 0.5,-1 1,-1.5 1,-1 0.5,-1.5 1,-1 0.5,-1.5 1,-1 0.5,-1.5 1,-1 0.5,-1.5 1,-1 0.5,-1.5 1,-1 1,-1.5 0.5,-1 1,-1.5 0.5,-1 1,-1 0.5,-1.5 1,-1 0.5,-1.5 1,-1 1,-1.5 0.5,-1 1,-1.5 0.5,-1 1,-1.5 0.5,-1 1,-1 0.5,-1.5 1,-1 0.5,-1.5 1,-1" /><path
         id="path180"
         style="fill:none;stroke:#ff0000;stroke-width:10;stroke-linecap:butt;stroke-linejoin:miter;stroke-miterlimit:3.79999995;stroke-dasharray:none;stroke-opacity:1"
         d="m 1586.5,740.5 1,-1 0.5,-1.5 1,-1 0.5,-1.5 1,-1 0.5,-1 1,-1.5 0.5,-1 1,-1 1,-1.5 0.5,-1 1,-1 0.5,-1 1,-1.5 0.5,-1 1,-1 0.5,-1 1,-1.5 0.5,-1 1,-1 1,-1 0.5,-1 1,-1 0.5,-1 1,-1.5 0.5,-1 1,-1 0.5,-1 1,-1 1,-1 0.5,-1 1,-1 0.5,-1 1,-0.5 0.5,-1 1,-1 0.5,-1 1,-1 0.5,-1 1,-0.5 1,-1 0.5,-1 1,-1 0.5,-0.5 1,-1 0.5,-1 1,-0.5 0.5,-1 1,-1 1,-0.5 0.5,-1 1,-0.5 0.5,-1 1,-0.5 0.5,-1 1,-0.5 0.5,-1 1,-0.5 0.5,-1 1,-0.5 1,-1 0.5,-0.5 1,-1 0.5,-0.5 1,-1 0.5,-0.5 1,-1 0.5,-0.5 1,-0.5 1,-1 0.5,-0.5 1,-1 0.5,-0.5 1,-0.5 0.5,-1 1,-0.5 0.5,-0.5 1,-1 0.5,-0.5 1,-0.5 1,-1 0.5,-0.5 1,-1 0.5,-0.5 1,-0.5 0.5,-1 1,-0.5 0.5,-0.5 1,-1 1,-0.5 0.5,-0.5 1,-1 0.5,-0.5 1,-0.5 0.5,-1 1,-0.5 0.5,-0.5 1,-0.5 0.5,-1 1,-0.5 1,-0.5 0.5,-1 1,-0.5 0.5,-0.5 1,-1 0.5,-0.5 1,-0.5 0.5,-0.5 1,-1 1,-0.5 0.5,-0.5 1,-0.5 0.5,-0.5 1,-1 0.5,-0.5 1,-0.5 0.5,-0.5 1,-0.5 0.5,-1 1,-0.5 1,-0.5 0.5,-0.5 1,-0.5 0.5,-0.5 1,-1 0.5,-0.5 1,-0.5 0.5,-0.5 1,-0.5 1,-0.5 0.5,-0.5 1,-0.5 0.5,-0.5 1,-0.5 0.5,-0.5 1,-0.5 0.5,-0.5 1,-0.5 0.5,-0.5 1,-0.5 1,-0.5 0.5,-0.5 1,-0.5 0.5,-0.5 1,-0.5 0.5,-0.5 h 1 l 0.5,-0.5 1,-0.5 1,-0.5 0.5,-0.5 1,-0.5 0.5,-0.5 h 1 l 0.5,-0.5 1,-0.5 0.5,-0.5 1,-0.5 1,-0.5 h 0.5 l 1,-0.5 0.5,-0.5 1,-0.5 h 0.5 l 1,-0.5 0.5,-0.5 1,-0.5 h 0.5 l 1,-0.5 1,-0.5 0.5,-0.5 h 1 l 0.5,-0.5 1,-0.5 0.5,-0.5 h 1 l 0.5,-0.5 1,-0.5 h 1 l 0.5,-0.5 1,-0.5 0.5,-0.5 h 1 l 0.5,-0.5 1,-0.5 h 0.5 l 1,-0.5 0.5,-0.5 1,-0.5 h 1 l 0.5,-0.5 1,-0.5 h 0.5 l 1,-0.5 0.5,-0.5 h 1 l 0.5,-0.5 1,-0.5 h 1 l 0.5,-0.5 h 1 l 0.5,-0.5 1,-0.5 h 0.5 l 1,-0.5 0.5,-0.5 h 1 l 0.5,-0.5 h 1 l 1,-0.5 h 0.5 l 1,-0.5 0.5,-0.5 h 1 l 0.5,-0.5 h 1 l 0.5,-0.5 h 1 l 1,-0.5 h 0.5 l 1,-0.5 h 0.5 l 1,-0.5 h 0.5 1 l 0.5,-0.5 h 1 l 0.5,-0.5 h 1 1 l 0.5,-0.5 h 1 0.5 l 1,-0.5 h 0.5 1 l 0.5,-0.5 h 1 1 0.5 l 1,-0.5 h 0.5 1 0.5 l 1,-0.5 h 0.5 1 0.5 1" /><path
         id="path182"
         style="fill:none;stroke:#ff0000;stroke-width:10;stroke-linecap:butt;stroke-linejoin:miter;stroke-miterlimit:3.79999995;stroke-dasharray:none;stroke-opacity:1"
         d="m 1779.5,598.5 1,-0.5 h 4.5 l 0.5,-0.5 h 1 1 0.5 1 0.5 1 l 0.5,-0.5 h 1 0.5 1 0.5 1 1 l 0.5,-0.5 h 1 0.5 1 0.5 1 l 0.5,-0.5 h 1 1 0.5 1 l 0.5,-0.5 h 1 0.5 1 l 0.5,-0.5 h 1 0.5 1 l 1,-0.5 h 0.5 1 l 0.5,-0.5 h 1 0.5 1 l 0.5,-0.5 h 1 1 l 0.5,-0.5 h 1 0.5 l 1,-0.5 h 0.5 1 l 0.5,-0.5 h 1 0.5 l 1,-0.5 h 1 l 0.5,-0.5 h 1 0.5 l 1,-0.5 h 0.5 1 l 0.5,-0.5 h 1 1 l 0.5,-0.5 h 1 0.5 l 1,-0.5 h 0.5 1 l 0.5,-0.5 h 1 1 l 0.5,-0.5 h 1 0.5 l 1,-0.5 h 0.5 1 0.5 l 1,-0.5 h 0.5 1 1 l 0.5,-0.5 h 1 0.5 1 l 0.5,-0.5 h 1 0.5 1 l 1,-0.5 h 0.5 1 0.5 1 l 0.5,-0.5 h 1 0.5 1 0.5 1 l 1,-0.5 h 0.5 1 0.5 1 0.5 l 1,-0.5 h 0.5 1 1 0.5 1 0.5 l 1,-0.5 h 0.5 1 0.5 1 0.5 1 1 l 0.5,-0.5 h 1 0.5 1 0.5 1 0.5 1 l 1,-0.5 h 0.5 1 0.5 1 0.5 1 0.5 1 l 0.5,-0.5 h 1 1 0.5 1 0.5 1 0.5 l 1,-0.5 h 0.5 1 1 0.5 1 0.5 l 1,-0.5 h 0.5 1 0.5 1 0.5 l 1,-0.5 h 1 0.5 1 0.5 l 1,-0.5 h 0.5 1 0.5 l 1,-0.5 h 1 0.5 1 l 0.5,-0.5 h 1 0.5 l 1,-0.5 h 0.5 1 l 0.5,-0.5 h 1 1 l 0.5,-0.5 h 1 0.5 l 1,-0.5 h 0.5 1 l 0.5,-0.5 h 1 l 1,-0.5 h 0.5 1 l 0.5,-0.5 h 1 l 0.5,-0.5 h 1 l 0.5,-0.5 h 1 l 0.5,-0.5 h 1 l 1,-0.5 h 0.5 l 1,-0.5 h 0.5 l 1,-0.5 h 0.5 l 1,-0.5 h 0.5 l 1,-0.5 h 1 l 0.5,-0.5 h 1 l 0.5,-0.5 h 1 l 0.5,-0.5 1,-0.5 h 0.5 l 1,-0.5 h 0.5 l 1,-0.5 h 1 l 0.5,-0.5 1,-0.5 h 0.5 l 1,-0.5 0.5,-0.5 h 1 l 0.5,-0.5 h 1 l 1,-0.5 0.5,-0.5 h 1 l 0.5,-0.5 1,-0.5 h 0.5 l 1,-0.5 0.5,-0.5 h 1 l 0.5,-0.5 1,-0.5" /><path
         id="path184"
         style="fill:none;stroke:#ff0000;stroke-width:10;stroke-linecap:butt;stroke-linejoin:miter;stroke-miterlimit:3.79999995;stroke-dasharray:none;stroke-opacity:1"
         d="m 1972.5,562 h 1 l 0.5,-0.5 1,-0.5 h 0.5 l 1,-0.5 0.5,-0.5 h 1 l 0.5,-0.5 1,-0.5" /><path
         id="path186"
         style="fill:none;stroke:#000000;stroke-width:5;stroke-linecap:butt;stroke-linejoin:miter;stroke-miterlimit:3.79999995;stroke-dasharray:none;stroke-opacity:1"
         d="M 430,2419.5 V 370 h 1549.5 v 2049.5 z" /></g></g></svg>