<?xml version="1.0" encoding="UTF-8" standalone="no"?>
<svg
   xmlns:dc="http://purl.org/dc/elements/1.1/"
   xmlns:cc="http://creativecommons.org/ns#"
   xmlns:rdf="http://www.w3.org/1999/02/22-rdf-syntax-ns#"
   xmlns:svg="http://www.w3.org/2000/svg"
   xmlns="http://www.w3.org/2000/svg"
   viewBox="0 0 288 336"
   height="336"
   width="288"
   xml:space="preserve"
   id="svg2"
   version="1.1"><metadata
     id="metadata8"><rdf:RDF><cc:Work
         rdf:about=""><dc:format>image/svg+xml</dc:format><dc:type
           rdf:resource="http://purl.org/dc/dcmitype/StillImage" /></cc:Work></rdf:RDF></metadata><defs
     id="defs6" /><g
     transform="matrix(1.3333333,0,0,-1.3333333,0,336)"
     id="g10"><g
       transform="scale(0.1)"
       id="g12"><path
         id="path14"
         style="fill:none;stroke:#000000;stroke-width:2.5;stroke-linecap:butt;stroke-linejoin:miter;stroke-miterlimit:3.79999995;stroke-dasharray:none;stroke-opacity:1"
         d="m 430,685 h 31.5 m 1518,0 H 1948" /><g
         transform="scale(10)"
         id="g16"><text
           id="text20"
           style="font-variant:normal;font-weight:normal;font-size:10px;font-family:Helvetica;-inkscape-font-specification:Helvetica;writing-mode:lr-tb;fill:#000000;fill-opacity:1;fill-rule:nonzero;stroke:none"
           transform="matrix(1,0,0,-1,25.8805,65.1648)"><tspan
             id="tspan18"
             y="0"
             x="0 5.5599999">50</tspan></text>
</g><path
         id="path22"
         style="fill:none;stroke:#000000;stroke-width:2.5;stroke-linecap:butt;stroke-linejoin:miter;stroke-miterlimit:3.79999995;stroke-dasharray:none;stroke-opacity:1"
         d="m 430,1006 h 31.5 m 1518,0 H 1948" /><g
         transform="scale(10)"
         id="g24"><text
           id="text28"
           style="font-variant:normal;font-weight:normal;font-size:10px;font-family:Helvetica;-inkscape-font-specification:Helvetica;writing-mode:lr-tb;fill:#000000;fill-opacity:1;fill-rule:nonzero;stroke:none"
           transform="matrix(1,0,0,-1,20.3207,97.2648)"><tspan
             id="tspan26"
             y="0"
             x="0 5.5599999 11.12">100</tspan></text>
</g><path
         id="path30"
         style="fill:none;stroke:#000000;stroke-width:2.5;stroke-linecap:butt;stroke-linejoin:miter;stroke-miterlimit:3.79999995;stroke-dasharray:none;stroke-opacity:1"
         d="m 430,1327.5 h 31.5 m 1518,0 H 1948" /><g
         transform="scale(10)"
         id="g32"><text
           id="text36"
           style="font-variant:normal;font-weight:normal;font-size:10px;font-family:Helvetica;-inkscape-font-specification:Helvetica;writing-mode:lr-tb;fill:#000000;fill-opacity:1;fill-rule:nonzero;stroke:none"
           transform="matrix(1,0,0,-1,20.3207,129.415)"><tspan
             id="tspan34"
             y="0"
             x="0 5.5599999 11.12">150</tspan></text>
</g><path
         id="path38"
         style="fill:none;stroke:#000000;stroke-width:2.5;stroke-linecap:butt;stroke-linejoin:miter;stroke-miterlimit:3.79999995;stroke-dasharray:none;stroke-opacity:1"
         d="m 430,1648.5 h 31.5 m 1518,0 H 1948" /><g
         transform="scale(10)"
         id="g40"><text
           id="text44"
           style="font-variant:normal;font-weight:normal;font-size:10px;font-family:Helvetica;-inkscape-font-specification:Helvetica;writing-mode:lr-tb;fill:#000000;fill-opacity:1;fill-rule:nonzero;stroke:none"
           transform="matrix(1,0,0,-1,20.3207,161.515)"><tspan
             id="tspan42"
             y="0"
             x="0 5.5599999 11.12">200</tspan></text>
</g><path
         id="path46"
         style="fill:none;stroke:#000000;stroke-width:2.5;stroke-linecap:butt;stroke-linejoin:miter;stroke-miterlimit:3.79999995;stroke-dasharray:none;stroke-opacity:1"
         d="m 430,1970 h 31.5 m 1518,0 H 1948" /><g
         transform="scale(10)"
         id="g48"><text
           id="text52"
           style="font-variant:normal;font-weight:normal;font-size:10px;font-family:Helvetica;-inkscape-font-specification:Helvetica;writing-mode:lr-tb;fill:#000000;fill-opacity:1;fill-rule:nonzero;stroke:none"
           transform="matrix(1,0,0,-1,20.3207,193.665)"><tspan
             id="tspan50"
             y="0"
             x="0 5.5599999 11.12">250</tspan></text>
</g><path
         id="path54"
         style="fill:none;stroke:#000000;stroke-width:2.5;stroke-linecap:butt;stroke-linejoin:miter;stroke-miterlimit:3.79999995;stroke-dasharray:none;stroke-opacity:1"
         d="m 430,2291 h 31.5 m 1518,0 H 1948" /><g
         transform="scale(10)"
         id="g56"><text
           id="text60"
           style="font-variant:normal;font-weight:normal;font-size:10px;font-family:Helvetica;-inkscape-font-specification:Helvetica;writing-mode:lr-tb;fill:#000000;fill-opacity:1;fill-rule:nonzero;stroke:none"
           transform="matrix(1,0,0,-1,20.3207,225.765)"><tspan
             id="tspan58"
             y="0"
             x="0 5.5599999 11.12">300</tspan></text>
</g><path
         id="path62"
         style="fill:none;stroke:#000000;stroke-width:2.5;stroke-linecap:butt;stroke-linejoin:miter;stroke-miterlimit:3.79999995;stroke-dasharray:none;stroke-opacity:1"
         d="m 430,370 v 31.5 m 0,2018 V 2388" /><g
         transform="scale(10)"
         id="g64"><text
           id="text68"
           style="font-variant:normal;font-weight:normal;font-size:10px;font-family:Helvetica;-inkscape-font-specification:Helvetica;writing-mode:lr-tb;fill:#000000;fill-opacity:1;fill-rule:nonzero;stroke:none"
           transform="matrix(1,0,0,-1,35.7754,23.6648)"><tspan
             id="tspan66"
             y="0"
             x="0 3.3299999 8.8900003">-60</tspan></text>
</g><path
         id="path70"
         style="fill:none;stroke:#000000;stroke-width:2.5;stroke-linecap:butt;stroke-linejoin:miter;stroke-miterlimit:3.79999995;stroke-dasharray:none;stroke-opacity:1"
         d="m 688.5,370 v 31.5 m 0,2018 V 2388" /><g
         transform="scale(10)"
         id="g72"><text
           id="text76"
           style="font-variant:normal;font-weight:normal;font-size:10px;font-family:Helvetica;-inkscape-font-specification:Helvetica;writing-mode:lr-tb;fill:#000000;fill-opacity:1;fill-rule:nonzero;stroke:none"
           transform="matrix(1,0,0,-1,61.6254,23.6648)"><tspan
             id="tspan74"
             y="0"
             x="0 3.3299999 8.8900003">-40</tspan></text>
</g><path
         id="path78"
         style="fill:none;stroke:#000000;stroke-width:2.5;stroke-linecap:butt;stroke-linejoin:miter;stroke-miterlimit:3.79999995;stroke-dasharray:none;stroke-opacity:1"
         d="m 946.5,370 v 31.5 m 0,2018 V 2388" /><g
         transform="scale(10)"
         id="g80"><text
           id="text84"
           style="font-variant:normal;font-weight:normal;font-size:10px;font-family:Helvetica;-inkscape-font-specification:Helvetica;writing-mode:lr-tb;fill:#000000;fill-opacity:1;fill-rule:nonzero;stroke:none"
           transform="matrix(1,0,0,-1,87.4254,23.6648)"><tspan
             id="tspan82"
             y="0"
             x="0 3.3299999 8.8900003">-20</tspan></text>
</g><path
         id="path86"
         style="fill:none;stroke:#000000;stroke-width:2.5;stroke-linecap:butt;stroke-linejoin:miter;stroke-miterlimit:3.79999995;stroke-dasharray:none;stroke-opacity:1"
         d="m 1205,370 v 31.5 m 0,2018 V 2388" /><g
         transform="scale(10)"
         id="g88"><text
           id="text92"
           style="font-variant:normal;font-weight:normal;font-size:10px;font-family:Helvetica;-inkscape-font-specification:Helvetica;writing-mode:lr-tb;fill:#000000;fill-opacity:1;fill-rule:nonzero;stroke:none"
           transform="matrix(1,0,0,-1,119.11,23.6648)"><tspan
             id="tspan90"
             y="0"
             x="0">0</tspan></text>
</g><path
         id="path94"
         style="fill:none;stroke:#000000;stroke-width:2.5;stroke-linecap:butt;stroke-linejoin:miter;stroke-miterlimit:3.79999995;stroke-dasharray:none;stroke-opacity:1"
         d="m 1463,370 v 31.5 m 0,2018 V 2388" /><g
         transform="scale(10)"
         id="g96"><text
           id="text100"
           style="font-variant:normal;font-weight:normal;font-size:10px;font-family:Helvetica;-inkscape-font-specification:Helvetica;writing-mode:lr-tb;fill:#000000;fill-opacity:1;fill-rule:nonzero;stroke:none"
           transform="matrix(1,0,0,-1,142.13,23.6648)"><tspan
             id="tspan98"
             y="0"
             x="0 5.5599999">20</tspan></text>
</g><path
         id="path102"
         style="fill:none;stroke:#000000;stroke-width:2.5;stroke-linecap:butt;stroke-linejoin:miter;stroke-miterlimit:3.79999995;stroke-dasharray:none;stroke-opacity:1"
         d="m 1721.5,370 v 31.5 m 0,2018 V 2388" /><g
         transform="scale(10)"
         id="g104"><text
           id="text108"
           style="font-variant:normal;font-weight:normal;font-size:10px;font-family:Helvetica;-inkscape-font-specification:Helvetica;writing-mode:lr-tb;fill:#000000;fill-opacity:1;fill-rule:nonzero;stroke:none"
           transform="matrix(1,0,0,-1,167.98,23.6648)"><tspan
             id="tspan106"
             y="0"
             x="0 5.5599999">40</tspan></text>
</g><path
         id="path110"
         style="fill:none;stroke:#000000;stroke-width:2.5;stroke-linecap:butt;stroke-linejoin:miter;stroke-miterlimit:3.79999995;stroke-dasharray:none;stroke-opacity:1"
         d="m 1979.5,370 v 31.5 m 0,2018 V 2388" /><g
         transform="scale(10)"
         id="g112"><text
           id="text116"
           style="font-variant:normal;font-weight:normal;font-size:10px;font-family:Helvetica;-inkscape-font-specification:Helvetica;writing-mode:lr-tb;fill:#000000;fill-opacity:1;fill-rule:nonzero;stroke:none"
           transform="matrix(1,0,0,-1,193.78,23.6648)"><tspan
             id="tspan114"
             y="0"
             x="0 5.5599999">60</tspan></text>
</g><path
         id="path118"
         style="fill:none;stroke:#000000;stroke-width:5;stroke-linecap:butt;stroke-linejoin:miter;stroke-miterlimit:3.79999995;stroke-dasharray:none;stroke-opacity:1"
         d="M 430,2419.5 V 370 h 1549.5 v 2049.5 z" /><g
         transform="scale(10)"
         id="g120"><text
           id="text124"
           style="font-variant:normal;font-weight:normal;font-size:10px;font-family:Helvetica;-inkscape-font-specification:Helvetica;writing-mode:lr-tb;fill:#000000;fill-opacity:1;fill-rule:nonzero;stroke:none"
           transform="matrix(0,1,1,0,12.8352,123.611)"><tspan
             id="tspan122"
             y="0"
             x="0 7.2199998 12.78 18.34 23.9 26.68">Counts</tspan></text>
<text
           id="text128"
           style="font-variant:normal;font-weight:normal;font-size:10px;font-family:Helvetica;-inkscape-font-specification:Helvetica;writing-mode:lr-tb;fill:#000000;fill-opacity:1;fill-rule:nonzero;stroke:none"
           transform="matrix(1,0,0,-1,94.2813,14.6648)"><tspan
             id="tspan126"
             y="0"
             x="0">Q</tspan></text>
<text
           id="text132"
           style="font-variant:normal;font-weight:normal;font-size:8px;font-family:Helvetica;-inkscape-font-specification:Helvetica;writing-mode:lr-tb;fill:#000000;fill-opacity:1;fill-rule:nonzero;stroke:none"
           transform="matrix(1,0,0,-1,102.06138,11.6648)"><tspan
             id="tspan130"
             y="0"
             x="0">z</tspan></text>
<text
           id="text136"
           style="font-variant:normal;font-weight:normal;font-size:10px;font-family:Helvetica;-inkscape-font-specification:Helvetica;writing-mode:lr-tb;fill:#000000;fill-opacity:1;fill-rule:nonzero;stroke:none"
           transform="matrix(1,0,0,-1,111.62138,14.6648)"><tspan
             id="tspan134"
             y="0"
             x="0 3.3299999 11.66 17.219999 23.889999 26.67 31.67">(MeV/c)</tspan></text>
</g><path
         id="path138"
         style="fill:#d4d4d4;fill-opacity:1;fill-rule:nonzero;stroke:none"
         d="M 430,2419.5 H 720 V 370 h 930 l 1,2049.5 h 0.5 1 0.5 1 0.5 1 1 0.5 1 0.5 1 0.5 1 0.5 1 0.5 1 1 0.5 1 0.5 1 0.5 1 0.5 1 1 0.5 1 0.5 1 0.5 1 0.5 1 0.5 1 1 0.5 1 0.5 1 0.5 1 0.5 1 1 0.5 1 0.5 1 0.5 1 0.5 1 0.5 1 1 0.5 1 0.5 1 0.5 1 0.5 1 1 0.5 1 0.5 1 0.5 1 0.5 1 1 0.5 1 0.5 1 0.5 1 0.5 1 0.5 1 1 0.5 1 0.5 1 0.5 1 0.5 1 1 0.5 1 0.5 1 0.5 1 0.5 1 0.5 1 1 0.5 1 0.5 1 0.5 1 0.5 1 1 0.5 1 0.5 1 0.5 1 0.5 1 0.5 1 1 0.5 1 0.5 1 0.5 1 0.5 1 1 0.5 1 0.5 1 0.5 1 0.5 1 0.5 1 1 0.5 1 0.5 1 0.5 1 0.5 1 1 0.5 1 0.5 1 0.5 1 0.5 1 0.5 1 1 0.5 1 0.5 1 0.5 1 0.5 1 1 0.5 1 0.5 1 0.5 1 0.5 1 0.5 1 1 0.5 1 0.5 1 0.5 1 0.5 1 1 0.5 1 0.5 1 0.5 1 0.5 1 0.5 1 1 0.5 1 0.5 1 0.5 1 0.5 1 1 0.5 1 0.5 1 0.5 1 0.5 1 0.5 1 1 0.5 1 0.5 1 0.5 1 0.5 1 1 0.5 1 0.5 1 0.5 1 0.5 1 1 0.5 1 0.5 1 0.5 1 0.5 1 0.5 1 1 0.5 1 0.5 1 0.5 1 0.5 1 1 0.5 1 0.5 1 0.5 1 0.5 1 0.5 1 1 0.5 1 0.5 1 0.5 1 0.5 1 1 0.5 1 0.5 1 0.5 1 0.5 1 0.5 1 1 0.5 1 0.5 1 0.5 1 0.5 1 1 0.5 1 0.5 1 0.5 1 0.5 1 0.5 1 1 0.5 1 0.5 1 0.5 1 0.5 1 1 0.5 1 0.5 1 0.5 1 0.5 1 0.5 1 1 0.5 1 0.5 1 0.5 1 0.5 1 1 0.5 1 0.5 1 0.5 1 0.5 1 0.5 1 1 0.5 1 0.5 1 0.5 1 0.5 1 1 0.5 1 0.5 1 0.5 1 0.5 1 0.5 1 1 0.5 1 0.5 1 0.5 1 0.5 1 1 0.5 1 0.5 1 0.5 1 0.5 1 0.5 1 1 0.5 1 0.5 1 0.5 1 0.5 1 1 0.5 1 0.5 1 0.5 1 0.5 1 0.5 1 1 0.5 1 0.5 1 0.5 1 0.5 1 V 370 H 430" /><path
         id="path140"
         style="fill:none;stroke:#000000;stroke-width:5;stroke-linecap:butt;stroke-linejoin:miter;stroke-miterlimit:3.79999995;stroke-dasharray:none;stroke-opacity:1"
         d="M 565.5,407.5 V 493 m -25,-85.5 H 590 M 540.5,493 H 590 m 79,72 V 750 M 644,565 h 49.5 M 644,750 h 49.5 M 772,789.5 V 1075 M 747,789.5 h 49.5 M 747,1075 h 49.5 m 79,-252 v 363 m -25,-363 H 900 m -49.5,363 H 900 m 79,-23.5 v 423 m -25,-423 h 49.5 m -49.5,423 h 49.5 M 1082,1505 v 444.5 M 1057,1505 h 49.5 m -49.5,444.5 h 49.5 m 79,-441.5 v 451 m -25,-451 h 49.5 m -49.5,451 h 49.5 m 78.5,-503 v 443 m -25,-443 h 49.5 m -49.5,443 h 49.5 m 79,-669 v 410 m -25,-410 h 49.5 m -49.5,410 h 49.5 m 79,-765.5 V 1234 m -25,-359.5 h 49.5 m -49.5,359.5 h 49.5 m 78.5,-490 v 293 m -25,-293 h 49.5 m -49.5,293 h 49.5 m 79,-626 v 217 m -25,-217 h 49.5 M 1677,628 h 49.5 M 1805,491 v 150 m -25,-150 h 49.5 M 1780,641 h 49.5" /><path
         id="path142"
         style="fill:#000000;fill-opacity:1;fill-rule:nonzero;stroke:none"
         d="m 584.398,450.5 c 0,10.438 -8.46,18.898 -18.898,18.898 -10.437,0 -18.898,-8.46 -18.898,-18.898 0,-10.437 8.461,-18.898 18.898,-18.898 10.438,0 18.898,8.461 18.898,18.898" /><path
         id="path144"
         style="fill:#000000;fill-opacity:1;fill-rule:nonzero;stroke:none"
         d="m 687.898,657.5 c 0,10.438 -8.46,18.898 -18.898,18.898 -10.437,0 -18.898,-8.46 -18.898,-18.898 0,-10.437 8.461,-18.898 18.898,-18.898 10.438,0 18.898,8.461 18.898,18.898" /><path
         id="path146"
         style="fill:#000000;fill-opacity:1;fill-rule:nonzero;stroke:none"
         d="m 790.898,932 c 0,10.438 -8.46,18.898 -18.898,18.898 -10.437,0 -18.898,-8.46 -18.898,-18.898 0,-10.437 8.461,-18.898 18.898,-18.898 10.438,0 18.898,8.461 18.898,18.898" /><path
         id="path148"
         style="fill:#000000;fill-opacity:1;fill-rule:nonzero;stroke:none"
         d="m 894.398,1004.5 c 0,10.44 -8.46,18.9 -18.898,18.9 -10.437,0 -18.898,-8.46 -18.898,-18.9 0,-10.437 8.461,-18.898 18.898,-18.898 10.438,0 18.898,8.461 18.898,18.898" /><path
         id="path150"
         style="fill:#000000;fill-opacity:1;fill-rule:nonzero;stroke:none"
         d="m 997.898,1374 c 0,10.44 -8.46,18.9 -18.898,18.9 -10.437,0 -18.898,-8.46 -18.898,-18.9 0,-10.44 8.461,-18.9 18.898,-18.9 10.438,0 18.898,8.46 18.898,18.9" /><path
         id="path152"
         style="fill:#000000;fill-opacity:1;fill-rule:nonzero;stroke:none"
         d="m 1100.9,1727 c 0,10.44 -8.46,18.9 -18.9,18.9 -10.44,0 -18.9,-8.46 -18.9,-18.9 0,-10.44 8.46,-18.9 18.9,-18.9 10.44,0 18.9,8.46 18.9,18.9" /><path
         id="path154"
         style="fill:#000000;fill-opacity:1;fill-rule:nonzero;stroke:none"
         d="m 1204.4,1733.5 c 0,10.44 -8.46,18.9 -18.9,18.9 -10.44,0 -18.9,-8.46 -18.9,-18.9 0,-10.44 8.46,-18.9 18.9,-18.9 10.44,0 18.9,8.46 18.9,18.9" /><path
         id="path156"
         style="fill:#000000;fill-opacity:1;fill-rule:nonzero;stroke:none"
         d="m 1307.4,1677.5 c 0,10.44 -8.46,18.9 -18.9,18.9 -10.44,0 -18.9,-8.46 -18.9,-18.9 0,-10.44 8.46,-18.9 18.9,-18.9 10.44,0 18.9,8.46 18.9,18.9" /><path
         id="path158"
         style="fill:#000000;fill-opacity:1;fill-rule:nonzero;stroke:none"
         d="m 1410.9,1435 c 0,10.44 -8.46,18.9 -18.9,18.9 -10.44,0 -18.9,-8.46 -18.9,-18.9 0,-10.44 8.46,-18.9 18.9,-18.9 10.44,0 18.9,8.46 18.9,18.9" /><path
         id="path160"
         style="fill:#000000;fill-opacity:1;fill-rule:nonzero;stroke:none"
         d="m 1514.4,1054 c 0,10.44 -8.46,18.9 -18.9,18.9 -10.44,0 -18.9,-8.46 -18.9,-18.9 0,-10.44 8.46,-18.9 18.9,-18.9 10.44,0 18.9,8.46 18.9,18.9" /><path
         id="path162"
         style="fill:#000000;fill-opacity:1;fill-rule:nonzero;stroke:none"
         d="m 1617.4,890.5 c 0,10.438 -8.46,18.898 -18.9,18.898 -10.44,0 -18.9,-8.46 -18.9,-18.898 0,-10.437 8.46,-18.898 18.9,-18.898 10.44,0 18.9,8.461 18.9,18.898" /><path
         id="path164"
         style="fill:#000000;fill-opacity:1;fill-rule:nonzero;stroke:none"
         d="m 1720.9,519.5 c 0,10.438 -8.46,18.898 -18.9,18.898 -10.44,0 -18.9,-8.46 -18.9,-18.898 0,-10.437 8.46,-18.898 18.9,-18.898 10.44,0 18.9,8.461 18.9,18.898" /><path
         id="path166"
         style="fill:#000000;fill-opacity:1;fill-rule:nonzero;stroke:none"
         d="m 1823.9,566 c 0,10.438 -8.46,18.898 -18.9,18.898 -10.44,0 -18.9,-8.46 -18.9,-18.898 0,-10.437 8.46,-18.898 18.9,-18.898 10.44,0 18.9,8.461 18.9,18.898" /><g
         transform="scale(10)"
         id="g168"><text
           id="text172"
           style="font-variant:normal;font-weight:normal;font-size:10px;font-family:Helvetica;-inkscape-font-specification:Helvetica;writing-mode:lr-tb;fill:#000000;fill-opacity:1;fill-rule:nonzero;stroke:none"
           transform="matrix(1,0,0,-1,109.342,232.615)"><tspan
             id="tspan170"
             y="0"
             x="0 5.5599999 10.56 16.120001 21.68 25.01 27.23 35.560001 41.119999 46.68">experiment</tspan></text>
</g><path
         id="path174"
         style="fill:none;stroke:#000000;stroke-width:5;stroke-linecap:butt;stroke-linejoin:miter;stroke-miterlimit:3.79999995;stroke-dasharray:none;stroke-opacity:1"
         d="m 1648,2359.5 h 271.5 M 514,370 v 80.5 h 103 v 207 H 720.5 V 932 H 824 v 72.5 H 927 V 1374 h 103.5 v 353 h 103 v 6.5 H 1237 v -56 h 103.5 V 1435 h 103 V 1054 H 1547 V 890.5 h 103 v -371 h 103.5 V 566 H 1857 V 370" /><path
         id="path176"
         style="fill:none;stroke:#000000;stroke-width:5;stroke-linecap:butt;stroke-linejoin:miter;stroke-miterlimit:3.79999995;stroke-dasharray:none;stroke-opacity:1"
         d="m 514,370 v 80.5 h 103 v 207 H 720.5 V 932 H 824 v 72.5 H 927 V 1374 h 103.5 v 353 h 103 v 6.5 H 1237 v -56 h 103.5 V 1435 h 103 V 1054 H 1547 V 890.5 h 103 v -371 h 103.5 V 566 H 1857 V 370" /><g
         transform="scale(10)"
         id="g178"><text
           id="text182"
           style="font-variant:normal;font-weight:normal;font-size:10px;font-family:Helvetica;-inkscape-font-specification:Helvetica;writing-mode:lr-tb;fill:#000000;fill-opacity:1;fill-rule:nonzero;stroke:none"
           transform="matrix(1,0,0,-1,109.352,220.615)"><tspan
             id="tspan180"
             y="0"
             x="0 7.2199998 13.33 19.440001 22.219999 30.549999 36.110001 41.669998 47.23">RTF model</tspan></text>
</g><path
         id="path184"
         style="fill:none;stroke:#ff0000;stroke-width:10;stroke-linecap:butt;stroke-linejoin:miter;stroke-miterlimit:3.79999995;stroke-dasharray:none;stroke-opacity:1"
         d="m 1648,2239.5 h 271.5 M 430,708.5 l 1,0.5 0.5,0.5 1,0.5 0.5,0.5 1,0.5 h 0.5 l 1,0.5 0.5,0.5 1,0.5 1,0.5 0.5,0.5 1,0.5 h 0.5 l 1,0.5 0.5,0.5 1,0.5 0.5,0.5 1,0.5 0.5,0.5 1,0.5 1,0.5 0.5,0.5 h 1 l 0.5,0.5 1,0.5 0.5,0.5 1,0.5 0.5,0.5 1,0.5 1,0.5 0.5,0.5 1,0.5 0.5,0.5 1,0.5 0.5,0.5 1,0.5 0.5,0.5 1,0.5 0.5,0.5 1,0.5 1,0.5 0.5,0.5 1,0.5 0.5,0.5 1,0.5 0.5,0.5 1,1 0.5,0.5 1,0.5 1,0.5 0.5,0.5 1,0.5 0.5,0.5 1,0.5 0.5,0.5 1,1 0.5,0.5 1,0.5 0.5,0.5 1,0.5 1,0.5 0.5,1 1,0.5 0.5,0.5 1,0.5 0.5,0.5 1,1 0.5,0.5 1,0.5 1,0.5 0.5,0.5 1,1 0.5,0.5 1,0.5 0.5,0.5 1,1 0.5,0.5 1,0.5 0.5,0.5 1,1 1,0.5 0.5,0.5 1,0.5 0.5,1 1,0.5 0.5,0.5 1,1 0.5,0.5 1,0.5 1,0.5 0.5,1 1,0.5 0.5,0.5 1,1 0.5,0.5 1,0.5 0.5,1 1,0.5 0.5,0.5 1,1 1,0.5 0.5,0.5 1,1 0.5,0.5 1,0.5 0.5,1 1,0.5 0.5,0.5 1,1 1,0.5 0.5,0.5 1,1 0.5,0.5 1,0.5 0.5,1 1,0.5 0.5,0.5 1,1 0.5,0.5 1,0.5 1,1 0.5,0.5 1,0.5 0.5,1 1,0.5 0.5,0.5 1,1 0.5,0.5 1,0.5 1,1 0.5,0.5 1,0.5 0.5,1 1,0.5 0.5,1 1,0.5 0.5,0.5 1,1 0.5,0.5 1,0.5 1,1 0.5,0.5 1,0.5 0.5,1 1,0.5 0.5,0.5 1,1 0.5,0.5 1,0.5 1,1 0.5,0.5 1,1 0.5,0.5 1,0.5 0.5,1 1,0.5 0.5,0.5 1,1 0.5,0.5 1,1 1,0.5 0.5,0.5 1,1 0.5,0.5 1,1 0.5,0.5 1,1 0.5,0.5 1,0.5 1,1 0.5,0.5 1,1 0.5,0.5 1,1 0.5,0.5 1,1 0.5,0.5 1,1 0.5,0.5 1,1 1,0.5 0.5,1 1,0.5 0.5,1 1,0.5 0.5,1 1,0.5 0.5,1 1,0.5 1,1 0.5,1 1,0.5 0.5,1 1,0.5 0.5,1 1,1 0.5,0.5 1,1 1,1 0.5,0.5 1,1 0.5,0.5 1,1 0.5,1 1,1 0.5,0.5 1,1 0.5,1 1,0.5 1,1 0.5,1 1,1 0.5,0.5 1,1 0.5,1 1,1 0.5,1 1,0.5 1,1 0.5,1 1,1 0.5,1 1,1 0.5,1 1,0.5 0.5,1 1,1 0.5,1 1,1 1,1 0.5,1 1,1 0.5,1 1,1 0.5,1 1,1 0.5,1 1,0.5 1,1 0.5,1 1,1 0.5,1 1,1 0.5,1 1,1 0.5,1.5 1,1" /><path
         id="path186"
         style="fill:none;stroke:#ff0000;stroke-width:10;stroke-linecap:butt;stroke-linejoin:miter;stroke-miterlimit:3.79999995;stroke-dasharray:none;stroke-opacity:1"
         d="m 621.5,878 0.5,1 1,1 1,1 0.5,1 1,1 0.5,1 1,1 0.5,1 1,1 0.5,1 1,1 1,1 0.5,1 1,1 0.5,1.5 1,1 0.5,1 1,1 0.5,1 1,1 0.5,1 1,1 1,1.5 0.5,1 1,1 0.5,1 1,1 0.5,1 1,1 0.5,1.5 1,1 1,1 0.5,1 1,1 0.5,1 1,1.5 0.5,1 1,1 0.5,1 1,1 0.5,1 1,1.5 1,1 0.5,1 1,1 0.5,1 1,1 0.5,1.5 1,1 0.5,1 1,1 1,1 0.5,1.5 1,1 0.5,1 1,1 0.5,1 1,1 0.5,1.5 1,1 0.5,1 1,1 1,1 0.5,1.5 1,1 0.5,1 1,1 0.5,1 1,1.5 0.5,1 1,1 1,1 0.5,1 1,1.5 0.5,1 1,1 0.5,1 1,1 0.5,1 1,1.5 0.5,1 1,1 1,1 0.5,1 1,1.5 0.5,1 1,1 0.5,1 1,1 0.5,1 1,1.5 1,1 0.5,1 1,1 0.5,1 1,1 0.5,1.5 1,1 0.5,1 1,1 0.5,1 1,1 1,1.5 0.5,1 1,1 0.5,1 1,1 0.5,1 1,1 0.5,1.5 1,1 1,1 0.5,1 1,1 0.5,1 1,1 0.5,1.5 1,1 0.5,1 1,1 1,1 0.5,1 1,1 0.5,1 1,1.5 0.5,1 1,1 0.5,1 1,1 0.5,1 1,1 1,1 0.5,1 1,1 0.5,1 1,1.5 0.5,1 1,1 0.5,1 1,1 1,1 0.5,1 1,1 0.5,1 1,1 0.5,1 1,1 0.5,1 1,1 0.5,1 1,1.5 1,1 0.5,1 1,1 0.5,1 1,1 0.5,1 1,1 0.5,1 1,1 1,1 0.5,1 1,1 0.5,1 1,1 0.5,1 1,1 0.5,1.5 1,1 0.5,1 1,1 1,1 0.5,1 1,1 0.5,1 1,1 0.5,1 1,1 0.5,1 1,1 1,1 0.5,1.5 1,1 0.5,1 1,1 0.5,1 1,1 0.5,1 1,1 0.5,1 1,1 1,1.5 0.5,1 1,1 0.5,1 1,1 0.5,1 1,1 0.5,1 1,1.5 1,1 0.5,1 1,1 0.5,1 1,1 0.5,1.5 1,1 0.5,1 1,1 0.5,1 1,1 1,1.5 0.5,1 1,1 0.5,1 1,1.5 0.5,1 1,1 0.5,1 1,1 1,1.5 0.5,1 1,1 0.5,1 1,1.5 0.5,1 1,1 0.5,1.5 1,1 0.5,1 1,1 1,1.5 0.5,1 1,1 0.5,1.5 1,1 0.5,1 1,1.5 0.5,1 1,1 1,1.5 0.5,1 1,1 0.5,1.5 1,1 0.5,1 1,1.5 0.5,1 1,1.5" /><path
         id="path188"
         style="fill:none;stroke:#ff0000;stroke-width:10;stroke-linecap:butt;stroke-linejoin:miter;stroke-miterlimit:3.79999995;stroke-dasharray:none;stroke-opacity:1"
         d="m 814.5,1146 0.5,1 1,1 1,1.5 0.5,1 1,1.5 0.5,1 1,1 0.5,1.5 1,1 0.5,1.5 1,1 1,1 0.5,1.5 1,1 0.5,1.5 1,1 0.5,1.5 1,1 0.5,1.5 1,1 0.5,1.5 1,1 1,1 0.5,1.5 1,1 0.5,1.5 1,1 0.5,1.5 1,1 0.5,1.5 1,1 1,1.5 0.5,1 1,1.5 0.5,1 1,1.5 0.5,1.5 1,1 0.5,1.5 1,1 0.5,1.5 1,1 1,1.5 0.5,1 1,1.5 0.5,1 1,1.5 0.5,1.5 1,1 0.5,1.5 1,1 1,1.5 0.5,1 1,1.5 0.5,1.5 1,1 0.5,1.5 1,1 0.5,1.5 1,1.5 1,1 0.5,1.5 1,1 0.5,1.5 1,1.5 0.5,1 1,1.5 0.5,1 1,1.5 0.5,1.5 1,1 1,1.5 0.5,1 1,1.5 0.5,1.5 1,1 0.5,1.5 1,1 0.5,1.5 1,1.5 1,1 0.5,1.5 1,1 0.5,1.5 1,1 0.5,1.5 1,1.5 0.5,1 1,1.5 0.5,1 1,1.5 1,1 0.5,1.5 1,1 0.5,1.5 1,1.5 0.5,1 1,1.5 0.5,1 1,1.5 1,1 0.5,1.5 1,1 0.5,1.5 1,1 0.5,1.5 1,1 0.5,1.5 1,1 0.5,1.5 1,1 1,1 0.5,1.5 1,1 0.5,1.5 1,1 0.5,1.5 1,1 0.5,1 1,1.5 1,1 0.5,1.5 1,1 0.5,1 1,1.5 0.5,1 1,1 0.5,1.5 1,1 0.5,1 1,1.5 1,1 0.5,1 1,1 0.5,1.5 1,1 0.5,1 1,1 0.5,1.5 1,1 1,1 0.5,1 1,1 0.5,1.5 1,1 0.5,1 1,1 0.5,1 1,1.5 0.5,1 1,1 1,1 0.5,1 1,1 0.5,1 1,1.5 0.5,1 1,1 0.5,1 1,1 1,1 0.5,1 1,1 0.5,1 1,1.5 0.5,1 1,1 0.5,1 1,1 0.5,1 1,1 1,1 0.5,1 1,1 0.5,1.5 1,1 0.5,1 1,1 0.5,1 1,1 1,1 0.5,1 1,1 0.5,1 1,1.5 0.5,1 1,1 0.5,1 1,1 0.5,1 1,1 1,1 0.5,1 1,1.5 0.5,1 1,1 0.5,1 1,1 0.5,1 1,1 1,1.5 0.5,1 1,1 0.5,1 1,1 0.5,1.5 1,1 0.5,1 1,1 0.5,1 1,1.5 1,1 0.5,1 1,1 0.5,1.5 1,1 0.5,1 1,1 0.5,1.5 1,1 1,1 0.5,1.5 1,1 0.5,1 1,1.5 0.5,1 1,1 0.5,1.5 1,1 0.5,1 1,1.5 1,1 0.5,1 1,1.5 0.5,1 1,1.5 0.5,1 1,1 0.5,1.5 1,1 1,1.5 0.5,1 1,1.5 0.5,1 1,1 0.5,1.5 1,1 0.5,1.5 1,1" /><path
         id="path190"
         style="fill:none;stroke:#ff0000;stroke-width:10;stroke-linecap:butt;stroke-linejoin:miter;stroke-miterlimit:3.79999995;stroke-dasharray:none;stroke-opacity:1"
         d="m 1007.5,1440.5 1,1.5 0.5,1 1,1 0.5,1.5 1,1 0.5,1.5 1,1 0.5,1.5 1,1 0.5,1.5 1,1 1,1.5 0.5,1 1,1.5 0.5,1 1,1.5 0.5,1 1,1.5 0.5,1 1,1 1,1.5 0.5,1 1,1.5 0.5,1 1,1.5 0.5,1 1,1.5 0.5,1 1,1.5 0.5,1 1,1.5 1,1 0.5,1.5 1,1 0.5,1.5 1,1 0.5,1.5 1,1 0.5,1.5 1,1 1,1.5 0.5,1 1,1.5 0.5,1 1,1.5 0.5,1 1,1 0.5,1.5 1,1 0.5,1.5 1,1 1,1.5 0.5,1 1,1.5 0.5,1 1,1.5 0.5,1 1,1 0.5,1.5 1,1 1,1.5 0.5,1 1,1.5 0.5,1 1,1.5 0.5,1 1,1.5 0.5,1 1,1.5 0.5,1 1,1.5 1,1 0.5,1.5 1,1 0.5,1.5 1,1 0.5,1.5 1,1 0.5,1.5 1,1 1,1.5 0.5,1 1,1.5 0.5,1 1,1.5 0.5,1.5 1,1 0.5,1.5 1,1.5 0.5,1 1,1.5 1,1 0.5,1.5 1,1.5 0.5,1.5 1,1 0.5,1.5 1,1.5 0.5,1 1,1.5 1,1.5 0.5,1.5 1,1.5 0.5,1 1,1.5 0.5,1.5 1,1.5 0.5,1.5 1,1.5 0.5,1.5 1,1.5 1,1.5 0.5,1 1,1.5 0.5,1.5 1,1.5 0.5,2 1,1.5 0.5,1.5 1,1.5 1,1.5 0.5,1.5 1,1.5 0.5,1.5 1,2 0.5,1.5 1,1.5 0.5,1.5 1,2 0.5,1.5 1,1.5 1,2 0.5,1.5 1,1.5 0.5,2 1,1.5 0.5,2 1,1.5 0.5,2 1,1.5 1,2 0.5,1.5 1,2 0.5,1.5 1,1.5 0.5,2 1,1.5 0.5,2 1,1.5 0.5,2 1,1.5 1,2 0.5,1.5 1,2 0.5,1.5 1,1.5 0.5,2 1,1.5 0.5,1.5 1,2 1,1.5 0.5,1.5 1,2 0.5,1.5 1,1.5 0.5,1.5 1,1.5 0.5,1.5 1,1.5 1,1.5 0.5,1.5 1,1.5 0.5,1.5 1,1.5 0.5,1.5 1,1 0.5,1.5 1,1.5 0.5,1 1,1.5 1,1 0.5,1.5 1,1 0.5,1 1,1.5 0.5,1 1,1 0.5,1 1,1 1,1 0.5,1 1,0.5 0.5,1 1,1 0.5,0.5 1,1 0.5,0.5 1,0.5 0.5,0.5 1,1 1,0.5 h 0.5 l 1,0.5 0.5,0.5 1,0.5 h 0.5 l 1,0.5 h 0.5 1 l 1,0.5 h 0.5 1 0.5 l 1,-0.5 h 0.5 1 l 0.5,-0.5 1,-0.5 h 0.5 l 1,-0.5 1,-0.5 0.5,-0.5 1,-0.5 0.5,-1 1,-0.5 0.5,-0.5 1,-1 0.5,-0.5 1,-1 1,-1 0.5,-1 1,-0.5 0.5,-1 1,-1 0.5,-1.5 1,-1 0.5,-1 1,-1 0.5,-1.5 1,-1 1,-1.5 0.5,-1 1,-1.5 0.5,-1.5 1,-1 0.5,-1.5 1,-1.5 0.5,-1.5 1,-1.5" /><path
         id="path192"
         style="fill:none;stroke:#ff0000;stroke-width:10;stroke-linecap:butt;stroke-linejoin:miter;stroke-miterlimit:3.79999995;stroke-dasharray:none;stroke-opacity:1"
         d="m 1200.5,1682 1,-1.5 0.5,-1.5 1,-1.5 0.5,-2 1,-1.5 0.5,-1.5 1,-1.5 0.5,-2 1,-1.5 0.5,-2 1,-1.5 1,-1.5 0.5,-2 1,-2 0.5,-1.5 1,-2 0.5,-1.5 1,-2 0.5,-2 1,-1.5 1,-2 0.5,-2 1,-2 0.5,-1.5 1,-2 0.5,-2 1,-2 0.5,-2 1,-1.5 0.5,-2 1,-2 1,-2 0.5,-2 1,-1.5 0.5,-2 1,-2 0.5,-2 1,-2 0.5,-2 1,-1.5 1,-2 0.5,-2 1,-2 0.5,-1.5 1,-2 0.5,-2 1,-1.5 0.5,-2 1,-2 0.5,-1.5 1,-2 1,-1.5 0.5,-2 1,-1.5 0.5,-2 1,-1.5 0.5,-2 1,-1.5 0.5,-2 1,-1.5 1,-1.5 0.5,-2 1,-1.5 0.5,-1.5 1,-2 0.5,-1.5 1,-1.5 0.5,-1.5 1,-2 0.5,-1.5 1,-1.5 1,-1.5 0.5,-1.5 1,-1.5 0.5,-2 1,-1.5 0.5,-1.5 1,-1.5 0.5,-1.5 1,-1.5 1,-1.5 0.5,-1.5 1,-1.5 0.5,-1.5 1,-1.5 0.5,-1.5 1,-1.5 0.5,-1 1,-1.5 0.5,-1.5 1,-1.5 1,-1.5 0.5,-1.5 1,-1.5 0.5,-1 1,-1.5 0.5,-1.5 1,-1.5 0.5,-1.5 1,-1 1,-1.5 0.5,-1.5 1,-1.5 0.5,-1 1,-1.5 0.5,-1.5 1,-1 0.5,-1.5 1,-1.5 1,-1 0.5,-1.5 1,-1.5 0.5,-1 1,-1.5 0.5,-1 1,-1.5 0.5,-1.5 1,-1 0.5,-1.5 1,-1 1,-1.5 0.5,-1.5 1,-1 0.5,-1.5 1,-1 0.5,-1.5 1,-1 0.5,-1.5 1,-1 1,-1.5 0.5,-1 1,-1.5 0.5,-1 1,-1.5 0.5,-1 1,-1.5 0.5,-1 1,-1.5 0.5,-1 1,-1.5 1,-1 0.5,-1.5 1,-1 0.5,-1.5 1,-1 0.5,-1.5 1,-1 0.5,-1.5 1,-1 1,-1.5 0.5,-1 1,-1 0.5,-1.5 1,-1 0.5,-1.5 1,-1 0.5,-1.5 1,-1 0.5,-1.5 1,-1 1,-1 0.5,-1.5 1,-1 0.5,-1.5 1,-1 0.5,-1 1,-1.5 0.5,-1 1,-1.5 1,-1 0.5,-1 1,-1.5 0.5,-1 1,-1.5 0.5,-1 1,-1 0.5,-1.5 1,-1 0.5,-1.5 1,-1 1,-1 0.5,-1.5 1,-1 0.5,-1 1,-1.5 0.5,-1 1,-1.5 0.5,-1 1,-1 1,-1.5 0.5,-1 1,-1 0.5,-1.5 1,-1 0.5,-1.5 1,-1 0.5,-1 1,-1.5 0.5,-1 1,-1 1,-1.5 0.5,-1 1,-1 0.5,-1.5 1,-1 0.5,-1 1,-1.5 0.5,-1 1,-1 1,-1.5 0.5,-1 1,-1.5 0.5,-1 1,-1 0.5,-1.5 1,-1 0.5,-1 1,-1.5 0.5,-1 1,-1 1,-1.5 0.5,-1 1,-1 0.5,-1.5 1,-1 0.5,-1 1,-1.5 0.5,-1 1,-1 1,-1.5 0.5,-1 1,-1 0.5,-1.5 1,-1 0.5,-1.5 1,-1 0.5,-1 1,-1.5 0.5,-1 1,-1 1,-1.5 0.5,-1 1,-1 0.5,-1.5 1,-1 0.5,-1 1,-1.5 0.5,-1 1,-1" /><path
         id="path194"
         style="fill:none;stroke:#ff0000;stroke-width:10;stroke-linecap:butt;stroke-linejoin:miter;stroke-miterlimit:3.79999995;stroke-dasharray:none;stroke-opacity:1"
         d="m 1393.5,1332 1,-1.5 0.5,-1 1,-1.5 0.5,-1 1,-1 0.5,-1.5 1,-1 0.5,-1 1,-1.5 0.5,-1 1,-1 1,-1.5 0.5,-1 1,-1.5 0.5,-1 1,-1 0.5,-1.5 1,-1 0.5,-1 1,-1.5 1,-1 0.5,-1.5 1,-1 0.5,-1 1,-1.5 0.5,-1 1,-1 0.5,-1.5 1,-1 1,-1.5 0.5,-1 1,-1 0.5,-1.5 1,-1 0.5,-1 1,-1.5 0.5,-1 1,-1.5 0.5,-1 1,-1 1,-1.5 0.5,-1 1,-1.5 0.5,-1 1,-1 0.5,-1.5 1,-1 0.5,-1.5 1,-1 1,-1.5 0.5,-1 1,-1 0.5,-1.5 1,-1 0.5,-1.5 1,-1 0.5,-1 1,-1.5 0.5,-1 1,-1.5 1,-1 0.5,-1.5 1,-1 0.5,-1 1,-1.5 0.5,-1 1,-1.5 0.5,-1 1,-1.5 1,-1 0.5,-1.5 1,-1 0.5,-1 1,-1.5 0.5,-1 1,-1.5 0.5,-1 1,-1.5 0.5,-1 1,-1.5 1,-1 0.5,-1 1,-1.5 0.5,-1 1,-1.5 0.5,-1 1,-1.5 0.5,-1 1,-1.5 1,-1 0.5,-1 1,-1.5 0.5,-1 1,-1.5 0.5,-1 1,-1.5 0.5,-1 1,-1.5 0.5,-1 1,-1.5 1,-1 0.5,-1 1,-1.5 0.5,-1 1,-1.5 0.5,-1 1,-1.5 0.5,-1 1,-1.5 1,-1 0.5,-1 1,-1.5 0.5,-1 1,-1.5 0.5,-1 1,-1.5 0.5,-1 1,-1.5 0.5,-1 1,-1 1,-1.5 0.5,-1 1,-1.5 0.5,-1 1,-1.5 0.5,-1 1,-1.5 0.5,-1 1,-1 1,-1.5 0.5,-1 1,-1.5 0.5,-1 1,-1.5 0.5,-1 1,-1 0.5,-1.5 1,-1 0.5,-1.5 1,-1 1,-1.5 0.5,-1 1,-1 0.5,-1.5 1,-1 0.5,-1.5 1,-1 0.5,-1 1,-1.5 1,-1 0.5,-1.5 1,-1 0.5,-1.5 1,-1 0.5,-1 1,-1.5 0.5,-1 1,-1.5 0.5,-1 1,-1 1,-1.5 0.5,-1 1,-1.5 0.5,-1 1,-1 0.5,-1.5 1,-1 0.5,-1 1,-1.5 1,-1 0.5,-1.5 1,-1 0.5,-1 1,-1.5 0.5,-1 1,-1.5 0.5,-1 1,-1 0.5,-1.5 1,-1 1,-1 0.5,-1.5 1,-1 0.5,-1.5 1,-1 0.5,-1 1,-1.5 0.5,-1 1,-1.5 1,-1 0.5,-1 1,-1.5 0.5,-1 1,-1 0.5,-1.5 1,-1 0.5,-1 1,-1.5 0.5,-1 1,-1.5 1,-1 0.5,-1 1,-1.5 0.5,-1 1,-1 0.5,-1.5 1,-1 0.5,-1 1,-1.5 1,-1 0.5,-1.5 1,-1 0.5,-1 1,-1.5 0.5,-1 1,-1 0.5,-1.5 1,-1 1,-1 0.5,-1.5 1,-1 0.5,-1 1,-1.5 0.5,-1 1,-1 0.5,-1.5 1,-1 0.5,-1 1,-1.5 1,-1 0.5,-1 1,-1.5 0.5,-1 1,-1 0.5,-1.5 1,-1 0.5,-1 1,-1.5 1,-1 0.5,-1 1,-1.5 0.5,-1 1,-1 0.5,-1.5 1,-1 0.5,-1 1,-1.5 0.5,-1 1,-1" /><path
         id="path196"
         style="fill:none;stroke:#ff0000;stroke-width:10;stroke-linecap:butt;stroke-linejoin:miter;stroke-miterlimit:3.79999995;stroke-dasharray:none;stroke-opacity:1"
         d="m 1586.5,1033.5 1,-1 0.5,-1.5 1,-1 0.5,-1 1,-1.5 0.5,-1 1,-1 0.5,-1 1,-1.5 1,-1 0.5,-1 1,-1.5 0.5,-1 1,-1 0.5,-1 1,-1.5 0.5,-1 1,-1 0.5,-1 1,-1.5 1,-1 0.5,-1 1,-1 0.5,-1 1,-1.5 0.5,-1 1,-1 0.5,-1 1,-1 1,-1.5 0.5,-1 1,-1 0.5,-1 1,-1 0.5,-1.5 1,-1 0.5,-1 1,-1 0.5,-1 1,-1 1,-1 0.5,-1.5 1,-1 0.5,-1 1,-1 0.5,-1 1,-1 0.5,-1 1,-1 1,-1.5 0.5,-1 1,-1 0.5,-1 1,-1 0.5,-1 1,-1 0.5,-1 1,-1 0.5,-1 1,-1 1,-1 0.5,-1 1,-1 0.5,-1 1,-1 0.5,-1 1,-1 0.5,-1 1,-1 1,-1 0.5,-1 1,-1 0.5,-1 1,-1 0.5,-1 1,-1 0.5,-1 1,-1 0.5,-1 1,-1 1,-1 0.5,-1 1,-1 0.5,-1 1,-1 0.5,-1 1,-1 0.5,-1 1,-1 1,-1 0.5,-1 1,-1 0.5,-1 1,-1 0.5,-1 1,-1 0.5,-1 1,-0.5 0.5,-1 1,-1 1,-1 0.5,-1 1,-1 0.5,-1 1,-1 0.5,-1 1,-1 0.5,-1 1,-1 1,-1 0.5,-1 1,-1 0.5,-0.5 1,-1 0.5,-1 1,-1 0.5,-1 1,-1 0.5,-1 1,-1 1,-1 0.5,-1 1,-1 0.5,-1 1,-1 0.5,-1 1,-0.5 0.5,-1 1,-1 1,-1 0.5,-1 1,-1 0.5,-1 1,-1 0.5,-1 1,-1 0.5,-1 1,-1 0.5,-1 1,-1 1,-1 0.5,-1 1,-1 0.5,-1 1,-1 0.5,-1 1,-1 0.5,-0.5 1,-1 1,-1 0.5,-1 1,-1 0.5,-1 1,-1 0.5,-1 1,-1 0.5,-1 1,-1 1,-1 0.5,-1 1,-1 0.5,-1 1,-1 0.5,-1 1,-1 0.5,-1 1,-1 0.5,-1 1,-1 1,-1 0.5,-1 1,-1 0.5,-0.5 1,-1 0.5,-1 1,-1 0.5,-1 1,-1 1,-1 0.5,-1 1,-1 0.5,-1 1,-1 0.5,-1 1,-1 0.5,-1 1,-1 0.5,-0.5 1,-1 1,-1 0.5,-1 1,-1 0.5,-1 1,-1 0.5,-1 1,-1 0.5,-1 1,-1 1,-0.5 0.5,-1 1,-1 0.5,-1 1,-1 0.5,-1 1,-1 0.5,-0.5 1,-1 0.5,-1 1,-1 1,-1 0.5,-1 1,-1 0.5,-0.5 1,-1 0.5,-1 1,-1 0.5,-1 1,-0.5 1,-1 0.5,-1 1,-1 0.5,-1 1,-0.5 0.5,-1 1,-1 0.5,-1 1,-0.5 0.5,-1 1,-1 1,-1 0.5,-0.5 1,-1 0.5,-1 1,-1 0.5,-0.5 1,-1 0.5,-1 1,-1 1,-0.5 0.5,-1 1,-1 0.5,-0.5 1,-1 0.5,-1 1,-0.5 0.5,-1 1,-1 0.5,-0.5 1,-1" /><path
         id="path198"
         style="fill:none;stroke:#ff0000;stroke-width:10;stroke-linecap:butt;stroke-linejoin:miter;stroke-miterlimit:3.79999995;stroke-dasharray:none;stroke-opacity:1"
         d="m 1779.5,788 1,-1 0.5,-0.5 1,-1 0.5,-1 1,-0.5 0.5,-1 1,-1 0.5,-0.5 1,-1 1,-1 0.5,-0.5 1,-1 0.5,-0.5 1,-1 0.5,-1 1,-0.5 0.5,-1 1,-0.5 0.5,-1 1,-1 1,-0.5 0.5,-1 1,-0.5 0.5,-1 1,-0.5 0.5,-1 1,-1 0.5,-0.5 1,-1 1,-0.5 0.5,-1 1,-0.5 0.5,-1 1,-0.5 0.5,-1 1,-0.5 0.5,-1 1,-0.5 0.5,-1 1,-0.5 1,-1 0.5,-0.5 1,-1 0.5,-0.5 1,-1 0.5,-0.5 1,-1 0.5,-0.5 1,-1 1,-0.5 0.5,-1 1,-0.5 0.5,-1 1,-0.5 0.5,-1 1,-0.5 0.5,-1 1,-0.5 0.5,-1 1,-0.5 1,-0.5 0.5,-1 1,-0.5 0.5,-1 1,-0.5 0.5,-1 1,-0.5 0.5,-0.5 1,-1 1,-0.5 0.5,-1 1,-0.5 0.5,-0.5 1,-1 0.5,-0.5 1,-0.5 0.5,-1 1,-0.5 1,-1 0.5,-0.5 1,-0.5 0.5,-1 1,-0.5 0.5,-0.5 1,-1 0.5,-0.5 1,-0.5 0.5,-0.5 1,-1 1,-0.5 0.5,-0.5 1,-1 0.5,-0.5 1,-0.5 0.5,-0.5 1,-1 0.5,-0.5 1,-0.5 1,-0.5 0.5,-1 1,-0.5 0.5,-0.5 1,-0.5 0.5,-1 1,-0.5 0.5,-0.5 1,-0.5 0.5,-0.5 1,-0.5 1,-1 0.5,-0.5 1,-0.5 0.5,-0.5 1,-0.5 0.5,-0.5 1,-0.5 0.5,-1 1,-0.5 1,-0.5 0.5,-0.5 1,-0.5 0.5,-0.5 1,-0.5 0.5,-0.5 1,-0.5 0.5,-0.5 1,-0.5 0.5,-0.5 1,-0.5 1,-0.5 0.5,-0.5 1,-0.5 0.5,-0.5 1,-0.5 0.5,-0.5 1,-0.5 0.5,-0.5 1,-0.5 1,-0.5 0.5,-0.5 1,-0.5 0.5,-0.5 h 1 l 0.5,-0.5 1,-0.5 0.5,-0.5 1,-0.5 0.5,-0.5 1,-0.5 1,-0.5 h 0.5 l 1,-0.5 0.5,-0.5 1,-0.5 0.5,-0.5 1,-0.5 h 0.5 l 1,-0.5 1,-0.5 0.5,-0.5 h 1 l 0.5,-0.5 1,-0.5 0.5,-0.5 1,-0.5 h 0.5 l 1,-0.5 0.5,-0.5 1,-0.5 h 1 l 0.5,-0.5 1,-0.5 0.5,-0.5 h 1 l 0.5,-0.5 1,-0.5 0.5,-0.5 h 1 l 1,-0.5 0.5,-0.5 1,-0.5 h 0.5 l 1,-0.5 0.5,-0.5 h 1 l 0.5,-0.5 1,-0.5 0.5,-0.5 h 1 l 1,-0.5 0.5,-0.5 h 1 l 0.5,-0.5 1,-0.5 0.5,-0.5 h 1 l 0.5,-0.5 1,-0.5 1,-0.5 h 0.5 l 1,-0.5 0.5,-0.5 1,-0.5 h 0.5 l 1,-0.5 0.5,-0.5 h 1 l 0.5,-0.5 1,-0.5 1,-0.5 0.5,-0.5 h 1 l 0.5,-0.5 1,-0.5 0.5,-0.5 h 1 l 0.5,-0.5 1,-0.5 1,-0.5 0.5,-0.5 h 1 l 0.5,-0.5 1,-0.5 0.5,-0.5 1,-0.5 h 0.5 l 1,-0.5 0.5,-0.5 1,-0.5 1,-0.5 0.5,-0.5 h 1 l 0.5,-0.5 1,-0.5 0.5,-0.5 1,-0.5 0.5,-0.5 h 1 l 1,-0.5 0.5,-0.5 1,-0.5 0.5,-0.5 1,-0.5 h 0.5 l 1,-0.5 0.5,-0.5 1,-0.5 0.5,-0.5 1,-0.5" /><path
         id="path200"
         style="fill:none;stroke:#ff0000;stroke-width:10;stroke-linecap:butt;stroke-linejoin:miter;stroke-miterlimit:3.79999995;stroke-dasharray:none;stroke-opacity:1"
         d="m 1972.5,650 1,-0.5 h 0.5 l 1,-0.5 0.5,-0.5 1,-0.5 0.5,-0.5 1,-0.5 0.5,-0.5 h 1" /><path
         id="path202"
         style="fill:none;stroke:#000000;stroke-width:5;stroke-linecap:butt;stroke-linejoin:miter;stroke-miterlimit:3.79999995;stroke-dasharray:none;stroke-opacity:1"
         d="M 430,2419.5 V 370 h 1549.5 v 2049.5 z" /></g></g></svg>