<?xml version="1.0" encoding="UTF-8" standalone="no"?>
<svg
   xmlns:dc="http://purl.org/dc/elements/1.1/"
   xmlns:cc="http://creativecommons.org/ns#"
   xmlns:rdf="http://www.w3.org/1999/02/22-rdf-syntax-ns#"
   xmlns:svg="http://www.w3.org/2000/svg"
   xmlns="http://www.w3.org/2000/svg"
   viewBox="0 0 457.33334 746.66669"
   height="746.66669"
   width="457.33334"
   xml:space="preserve"
   id="svg2"
   version="1.1"><metadata
     id="metadata8"><rdf:RDF><cc:Work
         rdf:about=""><dc:format>image/svg+xml</dc:format><dc:type
           rdf:resource="http://purl.org/dc/dcmitype/StillImage" /></cc:Work></rdf:RDF></metadata><defs
     id="defs6" /><g
     transform="matrix(1.3333333,0,0,-1.3333333,0,746.66667)"
     id="g10"><g
       transform="scale(0.1)"
       id="g12"><path
         id="path14"
         style="fill:none;stroke:#000000;stroke-width:5;stroke-linecap:butt;stroke-linejoin:miter;stroke-miterlimit:3.79999995;stroke-dasharray:none;stroke-opacity:1"
         d="m 430,302 h 63 m 2926.5,0 h -63" /><g
         transform="scale(10)"
         id="g16"><text
           id="text20"
           style="font-variant:normal;font-weight:normal;font-size:10px;font-family:Helvetica;-inkscape-font-specification:Helvetica;writing-mode:lr-tb;fill:#000000;fill-opacity:1;fill-rule:nonzero;stroke:none"
           transform="matrix(1,0,0,-1,23.1008,26.8648)"><tspan
             id="tspan18"
             y="0"
             x="0 5.5599999 8.3400002">0.0</tspan></text>
</g><path
         id="path22"
         style="fill:none;stroke:#000000;stroke-width:5;stroke-linecap:butt;stroke-linejoin:miter;stroke-miterlimit:3.79999995;stroke-dasharray:none;stroke-opacity:1"
         d="m 430,522.5 h 31.5 m 2958,0 H 3388 M 430,743 h 63 m 2926.5,0 h -63" /><g
         transform="scale(10)"
         id="g24"><text
           id="text28"
           style="font-variant:normal;font-weight:normal;font-size:10px;font-family:Helvetica;-inkscape-font-specification:Helvetica;writing-mode:lr-tb;fill:#000000;fill-opacity:1;fill-rule:nonzero;stroke:none"
           transform="matrix(1,0,0,-1,23.1008,70.9648)"><tspan
             id="tspan26"
             y="0"
             x="0 5.5599999 8.3400002">0.2</tspan></text>
</g><path
         id="path30"
         style="fill:none;stroke:#000000;stroke-width:5;stroke-linecap:butt;stroke-linejoin:miter;stroke-miterlimit:3.79999995;stroke-dasharray:none;stroke-opacity:1"
         d="m 430,963.5 h 31.5 m 2958,0 H 3388 M 430,1184 h 63 m 2926.5,0 h -63" /><g
         transform="scale(10)"
         id="g32"><text
           id="text36"
           style="font-variant:normal;font-weight:normal;font-size:10px;font-family:Helvetica;-inkscape-font-specification:Helvetica;writing-mode:lr-tb;fill:#000000;fill-opacity:1;fill-rule:nonzero;stroke:none"
           transform="matrix(1,0,0,-1,23.1008,115.065)"><tspan
             id="tspan34"
             y="0"
             x="0 5.5599999 8.3400002">0.4</tspan></text>
</g><path
         id="path38"
         style="fill:none;stroke:#000000;stroke-width:5;stroke-linecap:butt;stroke-linejoin:miter;stroke-miterlimit:3.79999995;stroke-dasharray:none;stroke-opacity:1"
         d="m 430,1404.5 h 31.5 m 2958,0 H 3388 M 430,1625 h 63 m 2926.5,0 h -63" /><g
         transform="scale(10)"
         id="g40"><text
           id="text44"
           style="font-variant:normal;font-weight:normal;font-size:10px;font-family:Helvetica;-inkscape-font-specification:Helvetica;writing-mode:lr-tb;fill:#000000;fill-opacity:1;fill-rule:nonzero;stroke:none"
           transform="matrix(1,0,0,-1,23.1008,159.165)"><tspan
             id="tspan42"
             y="0"
             x="0 5.5599999 8.3400002">0.6</tspan></text>
</g><path
         id="path46"
         style="fill:none;stroke:#000000;stroke-width:5;stroke-linecap:butt;stroke-linejoin:miter;stroke-miterlimit:3.79999995;stroke-dasharray:none;stroke-opacity:1"
         d="m 803.5,302 v 63 m 0,1701 v -63" /><g
         transform="scale(10)"
         id="g48"><text
           id="text52"
           style="font-variant:normal;font-weight:normal;font-size:10px;font-family:Helvetica;-inkscape-font-specification:Helvetica;writing-mode:lr-tb;fill:#000000;fill-opacity:1;fill-rule:nonzero;stroke:none"
           transform="matrix(1,0,0,-1,73.4007,16.8648)"><tspan
             id="tspan50"
             y="0"
             x="0 5.5599999 11.12">112</tspan></text>
</g><path
         id="path54"
         style="fill:none;stroke:#000000;stroke-width:5;stroke-linecap:butt;stroke-linejoin:miter;stroke-miterlimit:3.79999995;stroke-dasharray:none;stroke-opacity:1"
         d="m 1551,302 v 63 m 0,1701 v -63" /><g
         transform="scale(10)"
         id="g56"><text
           id="text60"
           style="font-variant:normal;font-weight:normal;font-size:10px;font-family:Helvetica;-inkscape-font-specification:Helvetica;writing-mode:lr-tb;fill:#000000;fill-opacity:1;fill-rule:nonzero;stroke:none"
           transform="matrix(1,0,0,-1,148.151,16.8648)"><tspan
             id="tspan58"
             y="0"
             x="0 5.5599999 11.12">116</tspan></text>
</g><path
         id="path62"
         style="fill:none;stroke:#000000;stroke-width:5;stroke-linecap:butt;stroke-linejoin:miter;stroke-miterlimit:3.79999995;stroke-dasharray:none;stroke-opacity:1"
         d="m 2298.5,302 v 63 m 0,1701 v -63" /><g
         transform="scale(10)"
         id="g64"><text
           id="text68"
           style="font-variant:normal;font-weight:normal;font-size:10px;font-family:Helvetica;-inkscape-font-specification:Helvetica;writing-mode:lr-tb;fill:#000000;fill-opacity:1;fill-rule:nonzero;stroke:none"
           transform="matrix(1,0,0,-1,222.901,16.8648)"><tspan
             id="tspan66"
             y="0"
             x="0 5.5599999 11.12">120</tspan></text>
</g><path
         id="path70"
         style="fill:none;stroke:#000000;stroke-width:5;stroke-linecap:butt;stroke-linejoin:miter;stroke-miterlimit:3.79999995;stroke-dasharray:none;stroke-opacity:1"
         d="m 3046,302 v 63 m 0,1701 v -63" /><g
         transform="scale(10)"
         id="g72"><text
           id="text76"
           style="font-variant:normal;font-weight:normal;font-size:10px;font-family:Helvetica;-inkscape-font-specification:Helvetica;writing-mode:lr-tb;fill:#000000;fill-opacity:1;fill-rule:nonzero;stroke:none"
           transform="matrix(1,0,0,-1,297.651,16.8648)"><tspan
             id="tspan74"
             y="0"
             x="0 5.5599999 11.12">124</tspan></text>
</g><path
         id="path78"
         style="fill:none;stroke:#000000;stroke-width:5;stroke-linecap:butt;stroke-linejoin:miter;stroke-miterlimit:3.79999995;stroke-dasharray:none;stroke-opacity:1"
         d="M 430,2066 V 302 h 2989.5 v 1764 z" /><g
         transform="scale(10)"
         id="g80"><text
           id="text84"
           style="font-variant:normal;font-weight:bold;font-size:12.5px;font-family:Helvetica;-inkscape-font-specification:Helvetica-Bold;writing-mode:lr-tb;fill:#000000;fill-opacity:1;fill-rule:nonzero;stroke:none"
           transform="matrix(1,0,0,-1,1.9,193.635)"><tspan
             id="tspan82"
             y="0"
             x="0">c</tspan></text>
<text
           id="text88"
           style="font-variant:normal;font-weight:normal;font-size:10.13850498px;font-family:Symbol;-inkscape-font-specification:Symbol;writing-mode:lr-tb;fill:#000000;fill-opacity:1;fill-rule:nonzero;stroke:none"
           transform="matrix(0,0.986341,0.986341,-0.164719,10.3352,97.5824)"><tspan
             id="tspan86"
             y="0"
             x="0">σ</tspan></text>
<text
           id="text92"
           style="font-variant:normal;font-weight:normal;font-size:10px;font-family:Helvetica;-inkscape-font-specification:Helvetica;writing-mode:lr-tb;fill:#000000;fill-opacity:1;fill-rule:nonzero;stroke:none"
           transform="matrix(0,1,1,0,10.3352,103.613)"><tspan
             id="tspan90"
             y="0"
             x="0">/</tspan></text>
<text
           id="text96"
           style="font-style:oblique;font-variant:normal;font-size:10px;font-family:Helvetica;-inkscape-font-specification:Helvetica-Oblique;writing-mode:lr-tb;fill:#000000;fill-opacity:1;fill-rule:nonzero;stroke:none"
           transform="matrix(0,1,1,0,10.3352,106.39308)"><tspan
             id="tspan94"
             y="0"
             x="0">N</tspan></text>
<text
           id="text100"
           style="font-variant:normal;font-weight:normal;font-size:8.11079407px;font-family:Symbol;-inkscape-font-specification:Symbol;writing-mode:lr-tb;fill:#000000;fill-opacity:1;fill-rule:nonzero;stroke:none"
           transform="matrix(0,0.986341,0.986341,-0.164719,13.3352,113.613)"><tspan
             id="tspan98"
             y="0"
             x="0">α</tspan></text>
<text
           id="text104"
           style="font-variant:normal;font-weight:normal;font-size:10px;font-family:Helvetica;-inkscape-font-specification:Helvetica;writing-mode:lr-tb;fill:#000000;fill-opacity:1;fill-rule:nonzero;stroke:none"
           transform="matrix(0,1,1,0,10.3352,121.441)"><tspan
             id="tspan102"
             y="0"
             x="0 3.3299999 8.8900003 14.45">(nb)</tspan></text>
<text
           id="text108"
           style="font-variant:normal;font-weight:normal;font-size:10px;font-family:Helvetica;-inkscape-font-specification:Helvetica;writing-mode:lr-tb;fill:#000000;fill-opacity:1;fill-rule:nonzero;stroke:none"
           transform="matrix(1,0,0,-1,157.441,1.86484)"><tspan
             id="tspan106"
             y="0"
             x="0 8.3299999 13.89 18.889999 23.889999 26.67 32.23 37.790001 46.119999 51.68 57.240002 60.57">Mass number </tspan></text>
<text
           id="text112"
           style="font-style:oblique;font-variant:normal;font-size:10px;font-family:Helvetica;-inkscape-font-specification:Helvetica-Oblique;writing-mode:lr-tb;fill:#000000;fill-opacity:1;fill-rule:nonzero;stroke:none"
           transform="matrix(1,0,0,-1,220.791,1.86484)"><tspan
             id="tspan110"
             y="0"
             x="0">A</tspan></text>
</g><path
         id="path114"
         style="fill:none;stroke:#000000;stroke-width:15;stroke-linecap:butt;stroke-linejoin:miter;stroke-miterlimit:3.79999995;stroke-dasharray:none;stroke-opacity:1"
         d="m 803.5,1128.5 v 134 m -31,-134 h 62 m -62,134 h 62 M 1551,1175 v 251 m -31,-251 h 62 m -62,251 h 62 m 716.5,-387.5 v 256 m -31,-256 h 62 m -62,256 h 62 m 716.5,-167 V 1382 m -31,-254.5 h 62 m -62,254.5 h 62" /><path
         id="path116"
         style="fill:#000000;fill-opacity:1;fill-rule:nonzero;stroke:none"
         d="m 827.125,1195.5 c 0,13.05 -10.578,23.63 -23.625,23.63 -13.047,0 -23.625,-10.58 -23.625,-23.63 0,-13.05 10.578,-23.62 23.625,-23.62 13.047,0 23.625,10.57 23.625,23.62" /><path
         id="path118"
         style="fill:#000000;fill-opacity:1;fill-rule:nonzero;stroke:none"
         d="m 1574.63,1300.5 c 0,13.05 -10.58,23.63 -23.63,23.63 -13.05,0 -23.62,-10.58 -23.62,-23.63 0,-13.05 10.57,-23.62 23.62,-23.62 13.05,0 23.63,10.57 23.63,23.62" /><path
         id="path120"
         style="fill:#000000;fill-opacity:1;fill-rule:nonzero;stroke:none"
         d="m 2322.13,1166.5 c 0,13.05 -10.58,23.63 -23.63,23.63 -13.05,0 -23.62,-10.58 -23.62,-23.63 0,-13.05 10.57,-23.62 23.62,-23.62 13.05,0 23.63,10.57 23.63,23.62" /><path
         id="path122"
         style="fill:#000000;fill-opacity:1;fill-rule:nonzero;stroke:none"
         d="m 3069.63,1254.5 c 0,13.05 -10.58,23.63 -23.63,23.63 -13.05,0 -23.62,-10.58 -23.62,-23.63 0,-13.05 10.57,-23.62 23.62,-23.62 13.05,0 23.63,10.57 23.63,23.62" /><path
         id="path124"
         style="fill:#ff0000;fill-opacity:1;fill-rule:nonzero;stroke:none"
         d="m 772,1292 v -63 h 63 v 63 h -63" /><path
         id="path126"
         style="fill:#ff0000;fill-opacity:1;fill-rule:nonzero;stroke:none"
         d="m 1519.5,1239 v -63 h 63 v 63 h -63" /><path
         id="path128"
         style="fill:#ff0000;fill-opacity:1;fill-rule:nonzero;stroke:none"
         d="m 2267,1198 v -63 h 63 v 63 h -63" /><path
         id="path130"
         style="fill:#ff0000;fill-opacity:1;fill-rule:nonzero;stroke:none"
         d="m 3014.5,1157 v -63 h 63 v 63 h -63" /><path
         id="path132"
         style="fill:none;stroke:#ff0000;stroke-width:10;stroke-linecap:butt;stroke-linejoin:miter;stroke-miterlimit:3.79999995;stroke-dasharray:50, 25;stroke-dashoffset:0;stroke-opacity:1"
         d="m 803.5,1260.5 747.5,-53 747.5,-41 747.5,-41" /><path
         id="path134"
         style="fill:#ffffff;fill-opacity:1;fill-rule:nonzero;stroke:none"
         d="m 787.75,1276.25 v -31.5 h 31.5 v 31.5 h -31.5" /><path
         id="path136"
         style="fill:#ffffff;fill-opacity:1;fill-rule:nonzero;stroke:none"
         d="m 1535.25,1223.25 v -31.5 h 31.5 v 31.5 h -31.5" /><path
         id="path138"
         style="fill:#ffffff;fill-opacity:1;fill-rule:nonzero;stroke:none"
         d="m 2282.75,1182.25 v -31.5 h 31.5 v 31.5 h -31.5" /><path
         id="path140"
         style="fill:#ffffff;fill-opacity:1;fill-rule:nonzero;stroke:none"
         d="m 3030.25,1141.25 v -31.5 h 31.5 v 31.5 h -31.5" /><path
         id="path142"
         style="fill:none;stroke:#000000;stroke-width:5;stroke-linecap:butt;stroke-linejoin:miter;stroke-miterlimit:3.79999995;stroke-dasharray:none;stroke-opacity:1"
         d="M 430,2066 V 302 h 2989.5 v 1764 z" /><path
         id="path144"
         style="fill:none;stroke:#000000;stroke-width:5;stroke-linecap:butt;stroke-linejoin:miter;stroke-miterlimit:3.79999995;stroke-dasharray:none;stroke-opacity:1"
         d="m 430,2066 h 63 m 2926.5,0 h -63" /><g
         transform="scale(10)"
         id="g146"><text
           id="text150"
           style="font-variant:normal;font-weight:normal;font-size:10px;font-family:Helvetica;-inkscape-font-specification:Helvetica;writing-mode:lr-tb;fill:#000000;fill-opacity:1;fill-rule:nonzero;stroke:none"
           transform="matrix(1,0,0,-1,23.1008,203.265)"><tspan
             id="tspan148"
             y="0"
             x="0 5.5599999 8.3400002">0.0</tspan></text>
</g><path
         id="path152"
         style="fill:none;stroke:#000000;stroke-width:5;stroke-linecap:butt;stroke-linejoin:miter;stroke-miterlimit:3.79999995;stroke-dasharray:none;stroke-opacity:1"
         d="m 430,2213 h 31.5 m 2958,0 H 3388 M 430,2360 h 63 m 2926.5,0 h -63" /><g
         transform="scale(10)"
         id="g154"><text
           id="text158"
           style="font-variant:normal;font-weight:normal;font-size:10px;font-family:Helvetica;-inkscape-font-specification:Helvetica;writing-mode:lr-tb;fill:#000000;fill-opacity:1;fill-rule:nonzero;stroke:none"
           transform="matrix(1,0,0,-1,23.1008,232.665)"><tspan
             id="tspan156"
             y="0"
             x="0 5.5599999 8.3400002">0.1</tspan></text>
</g><path
         id="path160"
         style="fill:none;stroke:#000000;stroke-width:5;stroke-linecap:butt;stroke-linejoin:miter;stroke-miterlimit:3.79999995;stroke-dasharray:none;stroke-opacity:1"
         d="m 430,2507 h 31.5 m 2958,0 H 3388 M 430,2654 h 63 m 2926.5,0 h -63" /><g
         transform="scale(10)"
         id="g162"><text
           id="text166"
           style="font-variant:normal;font-weight:normal;font-size:10px;font-family:Helvetica;-inkscape-font-specification:Helvetica;writing-mode:lr-tb;fill:#000000;fill-opacity:1;fill-rule:nonzero;stroke:none"
           transform="matrix(1,0,0,-1,23.1008,262.065)"><tspan
             id="tspan164"
             y="0"
             x="0 5.5599999 8.3400002">0.2</tspan></text>
</g><path
         id="path168"
         style="fill:none;stroke:#000000;stroke-width:5;stroke-linecap:butt;stroke-linejoin:miter;stroke-miterlimit:3.79999995;stroke-dasharray:none;stroke-opacity:1"
         d="m 430,2801 h 31.5 m 2958,0 H 3388 M 430,2948 h 63 m 2926.5,0 h -63" /><g
         transform="scale(10)"
         id="g170"><text
           id="text174"
           style="font-variant:normal;font-weight:normal;font-size:10px;font-family:Helvetica;-inkscape-font-specification:Helvetica;writing-mode:lr-tb;fill:#000000;fill-opacity:1;fill-rule:nonzero;stroke:none"
           transform="matrix(1,0,0,-1,23.1008,291.465)"><tspan
             id="tspan172"
             y="0"
             x="0 5.5599999 8.3400002">0.3</tspan></text>
</g><path
         id="path176"
         style="fill:none;stroke:#000000;stroke-width:5;stroke-linecap:butt;stroke-linejoin:miter;stroke-miterlimit:3.79999995;stroke-dasharray:none;stroke-opacity:1"
         d="m 430,3094.5 h 31.5 m 2958,0 H 3388 m -2958,147 h 63 m 2926.5,0 h -63" /><g
         transform="scale(10)"
         id="g178"><text
           id="text182"
           style="font-variant:normal;font-weight:normal;font-size:10px;font-family:Helvetica;-inkscape-font-specification:Helvetica;writing-mode:lr-tb;fill:#000000;fill-opacity:1;fill-rule:nonzero;stroke:none"
           transform="matrix(1,0,0,-1,23.1008,320.815)"><tspan
             id="tspan180"
             y="0"
             x="0 5.5599999 8.3400002">0.4</tspan></text>
</g><path
         id="path184"
         style="fill:none;stroke:#000000;stroke-width:5;stroke-linecap:butt;stroke-linejoin:miter;stroke-miterlimit:3.79999995;stroke-dasharray:none;stroke-opacity:1"
         d="m 430,3388.5 h 31.5 m 2958,0 H 3388 m -2958,147 h 63 m 2926.5,0 h -63" /><g
         transform="scale(10)"
         id="g186"><text
           id="text190"
           style="font-variant:normal;font-weight:normal;font-size:10px;font-family:Helvetica;-inkscape-font-specification:Helvetica;writing-mode:lr-tb;fill:#000000;fill-opacity:1;fill-rule:nonzero;stroke:none"
           transform="matrix(1,0,0,-1,23.1008,350.215)"><tspan
             id="tspan188"
             y="0"
             x="0 5.5599999 8.3400002">0.5</tspan></text>
</g><path
         id="path192"
         style="fill:none;stroke:#000000;stroke-width:5;stroke-linecap:butt;stroke-linejoin:miter;stroke-miterlimit:3.79999995;stroke-dasharray:none;stroke-opacity:1"
         d="m 803.5,2066 v 63 m 0,1700.5 v -63" /><path
         id="path194"
         style="fill:none;stroke:#000000;stroke-width:5;stroke-linecap:butt;stroke-linejoin:miter;stroke-miterlimit:3.79999995;stroke-dasharray:none;stroke-opacity:1"
         d="m 1551,2066 v 63 m 0,1700.5 v -63" /><path
         id="path196"
         style="fill:none;stroke:#000000;stroke-width:5;stroke-linecap:butt;stroke-linejoin:miter;stroke-miterlimit:3.79999995;stroke-dasharray:none;stroke-opacity:1"
         d="m 2298.5,2066 v 63 m 0,1700.5 v -63" /><path
         id="path198"
         style="fill:none;stroke:#000000;stroke-width:5;stroke-linecap:butt;stroke-linejoin:miter;stroke-miterlimit:3.79999995;stroke-dasharray:none;stroke-opacity:1"
         d="m 3046,2066 v 63 m 0,1700.5 v -63" /><path
         id="path200"
         style="fill:none;stroke:#000000;stroke-width:5;stroke-linecap:butt;stroke-linejoin:miter;stroke-miterlimit:3.79999995;stroke-dasharray:none;stroke-opacity:1"
         d="M 430,3829.5 V 2066 h 2989.5 v 1763.5 z" /><g
         transform="scale(10)"
         id="g202"><text
           id="text206"
           style="font-variant:normal;font-weight:bold;font-size:12.5px;font-family:Helvetica;-inkscape-font-specification:Helvetica-Bold;writing-mode:lr-tb;fill:#000000;fill-opacity:1;fill-rule:nonzero;stroke:none"
           transform="matrix(1,0,0,-1,1.9,369.985)"><tspan
             id="tspan204"
             y="0"
             x="0">b</tspan></text>
<text
           id="text210"
           style="font-style:oblique;font-variant:normal;font-size:10px;font-family:Helvetica;-inkscape-font-specification:Helvetica-Oblique;writing-mode:lr-tb;fill:#000000;fill-opacity:1;fill-rule:nonzero;stroke:none"
           transform="matrix(0,1,1,0,10.3352,288.616)"><tspan
             id="tspan208"
             y="0"
             x="0">N</tspan></text>
<text
           id="text214"
           style="font-variant:normal;font-weight:normal;font-size:8.11079407px;font-family:Symbol;-inkscape-font-specification:Symbol;writing-mode:lr-tb;fill:#000000;fill-opacity:1;fill-rule:nonzero;stroke:none"
           transform="matrix(0,0.986341,0.986341,-0.164719,13.3352,295.836)"><tspan
             id="tspan212"
             y="0"
             x="0">α</tspan></text>
</g><path
         id="path216"
         style="fill:#ff0000;fill-opacity:1;fill-rule:nonzero;stroke:none"
         d="m 772,3237 v -63 h 63 v 63 h -63" /><path
         id="path218"
         style="fill:#ff0000;fill-opacity:1;fill-rule:nonzero;stroke:none"
         d="m 1519.5,3068.5 v -63 h 63 v 63 h -63" /><path
         id="path220"
         style="fill:#ff0000;fill-opacity:1;fill-rule:nonzero;stroke:none"
         d="m 2267,2881.5 v -63 h 63 v 63 h -63" /><path
         id="path222"
         style="fill:#ff0000;fill-opacity:1;fill-rule:nonzero;stroke:none"
         d="m 3014.5,2673 v -63 h 63 v 63 h -63" /><path
         id="path224"
         style="fill:none;stroke:#ff0000;stroke-width:10;stroke-linecap:butt;stroke-linejoin:miter;stroke-miterlimit:3.79999995;stroke-dasharray:50, 25;stroke-dashoffset:0;stroke-opacity:1"
         d="m 430,3287.5 187,-36.5 186.5,-41.5 187,-39.5 187,-41.5 186.5,-42 187,-44 187,-47 187,-44.5 186.5,-47 187,-49.5 187,-49.5 186.5,-52.5 187,-52 187,-55 186.5,-54.5 187,-57.5" /><path
         id="path226"
         style="fill:#ffffff;fill-opacity:1;fill-rule:nonzero;stroke:none"
         d="m 787.75,3221.25 v -31.5 h 31.5 v 31.5 h -31.5" /><path
         id="path228"
         style="fill:#ffffff;fill-opacity:1;fill-rule:nonzero;stroke:none"
         d="m 1535.25,3052.75 v -31.5 h 31.5 v 31.5 h -31.5" /><path
         id="path230"
         style="fill:#ffffff;fill-opacity:1;fill-rule:nonzero;stroke:none"
         d="m 2282.75,2865.75 v -31.5 h 31.5 v 31.5 h -31.5" /><path
         id="path232"
         style="fill:#ffffff;fill-opacity:1;fill-rule:nonzero;stroke:none"
         d="m 3030.25,2657.25 v -31.5 h 31.5 v 31.5 h -31.5" /><path
         id="path234"
         style="fill:none;stroke:#000000;stroke-width:5;stroke-linecap:butt;stroke-linejoin:miter;stroke-miterlimit:3.79999995;stroke-dasharray:none;stroke-opacity:1"
         d="M 430,3829.5 V 2066 h 2989.5 v 1763.5 z" /><path
         id="path236"
         style="fill:none;stroke:#000000;stroke-width:5;stroke-linecap:butt;stroke-linejoin:miter;stroke-miterlimit:3.79999995;stroke-dasharray:none;stroke-opacity:1"
         d="m 430,3830 h 63 m 2926.5,0 h -63" /><g
         transform="scale(10)"
         id="g238"><text
           id="text242"
           style="font-variant:normal;font-weight:normal;font-size:10px;font-family:Helvetica;-inkscape-font-specification:Helvetica;writing-mode:lr-tb;fill:#000000;fill-opacity:1;fill-rule:nonzero;stroke:none"
           transform="matrix(1,0,0,-1,17.541,379.665)"><tspan
             id="tspan240"
             y="0"
             x="0 5.5599999 8.3400002 13.9">0.00</tspan></text>
</g><path
         id="path244"
         style="fill:none;stroke:#000000;stroke-width:5;stroke-linecap:butt;stroke-linejoin:miter;stroke-miterlimit:3.79999995;stroke-dasharray:none;stroke-opacity:1"
         d="m 430,4006.5 h 31.5 m 2958,0 H 3388 m -2958,176 h 63 m 2926.5,0 h -63" /><g
         transform="scale(10)"
         id="g246"><text
           id="text250"
           style="font-variant:normal;font-weight:normal;font-size:10px;font-family:Helvetica;-inkscape-font-specification:Helvetica;writing-mode:lr-tb;fill:#000000;fill-opacity:1;fill-rule:nonzero;stroke:none"
           transform="matrix(1,0,0,-1,17.541,414.915)"><tspan
             id="tspan248"
             y="0"
             x="0 5.5599999 8.3400002 13.9">0.05</tspan></text>
</g><path
         id="path252"
         style="fill:none;stroke:#000000;stroke-width:5;stroke-linecap:butt;stroke-linejoin:miter;stroke-miterlimit:3.79999995;stroke-dasharray:none;stroke-opacity:1"
         d="m 430,4359 h 31.5 m 2958,0 H 3388 M 430,4535.5 h 63 m 2926.5,0 h -63" /><g
         transform="scale(10)"
         id="g254"><text
           id="text258"
           style="font-variant:normal;font-weight:normal;font-size:10px;font-family:Helvetica;-inkscape-font-specification:Helvetica;writing-mode:lr-tb;fill:#000000;fill-opacity:1;fill-rule:nonzero;stroke:none"
           transform="matrix(1,0,0,-1,17.541,450.215)"><tspan
             id="tspan256"
             y="0"
             x="0 5.5599999 8.3400002 13.9">0.10</tspan></text>
</g><path
         id="path260"
         style="fill:none;stroke:#000000;stroke-width:5;stroke-linecap:butt;stroke-linejoin:miter;stroke-miterlimit:3.79999995;stroke-dasharray:none;stroke-opacity:1"
         d="m 430,4712 h 31.5 m 2958,0 H 3388 M 430,4888 h 63 m 2926.5,0 h -63" /><g
         transform="scale(10)"
         id="g262"><text
           id="text266"
           style="font-variant:normal;font-weight:normal;font-size:10px;font-family:Helvetica;-inkscape-font-specification:Helvetica;writing-mode:lr-tb;fill:#000000;fill-opacity:1;fill-rule:nonzero;stroke:none"
           transform="matrix(1,0,0,-1,17.541,485.465)"><tspan
             id="tspan264"
             y="0"
             x="0 5.5599999 8.3400002 13.9">0.15</tspan></text>
</g><path
         id="path268"
         style="fill:none;stroke:#000000;stroke-width:5;stroke-linecap:butt;stroke-linejoin:miter;stroke-miterlimit:3.79999995;stroke-dasharray:none;stroke-opacity:1"
         d="m 430,5064.5 h 31.5 m 2958,0 H 3388 M 430,5241 h 63 m 2926.5,0 h -63" /><g
         transform="scale(10)"
         id="g270"><text
           id="text274"
           style="font-variant:normal;font-weight:normal;font-size:10px;font-family:Helvetica;-inkscape-font-specification:Helvetica;writing-mode:lr-tb;fill:#000000;fill-opacity:1;fill-rule:nonzero;stroke:none"
           transform="matrix(1,0,0,-1,17.541,520.765)"><tspan
             id="tspan272"
             y="0"
             x="0 5.5599999 8.3400002 13.9">0.20</tspan></text>
</g><path
         id="path276"
         style="fill:none;stroke:#000000;stroke-width:5;stroke-linecap:butt;stroke-linejoin:miter;stroke-miterlimit:3.79999995;stroke-dasharray:none;stroke-opacity:1"
         d="m 430,5417 h 31.5 m 2958,0 H 3388 M 803.5,3830 v 63 m 0,1700.5 v -63" /><path
         id="path278"
         style="fill:none;stroke:#000000;stroke-width:5;stroke-linecap:butt;stroke-linejoin:miter;stroke-miterlimit:3.79999995;stroke-dasharray:none;stroke-opacity:1"
         d="m 1551,3830 v 63 m 0,1700.5 v -63" /><path
         id="path280"
         style="fill:none;stroke:#000000;stroke-width:5;stroke-linecap:butt;stroke-linejoin:miter;stroke-miterlimit:3.79999995;stroke-dasharray:none;stroke-opacity:1"
         d="m 2298.5,3830 v 63 m 0,1700.5 v -63" /><path
         id="path282"
         style="fill:none;stroke:#000000;stroke-width:5;stroke-linecap:butt;stroke-linejoin:miter;stroke-miterlimit:3.79999995;stroke-dasharray:none;stroke-opacity:1"
         d="m 3046,3830 v 63 m 0,1700.5 v -63" /><path
         id="path284"
         style="fill:none;stroke:#000000;stroke-width:5;stroke-linecap:butt;stroke-linejoin:miter;stroke-miterlimit:3.79999995;stroke-dasharray:none;stroke-opacity:1"
         d="M 430,5593.5 V 3830 h 2989.5 v 1763.5 z" /><g
         transform="scale(10)"
         id="g286"><text
           id="text290"
           style="font-variant:normal;font-weight:normal;font-size:10px;font-family:Helvetica;-inkscape-font-specification:Helvetica;writing-mode:lr-tb;fill:#000000;fill-opacity:1;fill-rule:nonzero;stroke:none"
           transform="matrix(1,0,0,-1,69.15,421.965)"><tspan
             id="tspan288"
             y="0"
             x="0 5.5599999 10.56 16.120001 21.68 25.01 27.23 35.560001 41.119999 46.68">experiment</tspan></text>
</g><g
         transform="scale(10)"
         id="g292"><text
           id="text296"
           style="font-variant:normal;font-weight:normal;font-size:10px;font-family:Helvetica;-inkscape-font-specification:Helvetica;writing-mode:lr-tb;fill:#ff0000;fill-opacity:1;fill-rule:nonzero;stroke:none"
           transform="matrix(1,0,0,-1,89.7,404.365)"><tspan
             id="tspan294"
             y="0"
             x="0 2.78 8.3400002 13.9 19.459999 22.790001">theory</tspan></text>
</g><g
         transform="scale(10)"
         id="g298"><text
           id="text302"
           style="font-variant:normal;font-weight:bold;font-size:12.5px;font-family:Helvetica;-inkscape-font-specification:Helvetica-Bold;writing-mode:lr-tb;fill:#000000;fill-opacity:1;fill-rule:nonzero;stroke:none"
           transform="matrix(1,0,0,-1,1.9,546.385)"><tspan
             id="tspan300"
             y="0"
             x="0">a</tspan></text>
<text
           id="text306"
           style="font-variant:normal;font-weight:normal;font-size:10.13850498px;font-family:Symbol;-inkscape-font-specification:Symbol;writing-mode:lr-tb;fill:#000000;fill-opacity:1;fill-rule:nonzero;stroke:none"
           transform="matrix(0,0.986341,0.986341,-0.164719,11.3352,457.856)"><tspan
             id="tspan304"
             y="0"
             x="0">σ</tspan></text>
<text
           id="text310"
           style="font-variant:normal;font-weight:normal;font-size:10px;font-family:Helvetica;-inkscape-font-specification:Helvetica;writing-mode:lr-tb;fill:#000000;fill-opacity:1;fill-rule:nonzero;stroke:none"
           transform="matrix(0,1,1,0,11.3352,466.666)"><tspan
             id="tspan308"
             y="0"
             x="0 3.3299999 8.8900003 14.45">(nb)</tspan></text>
</g><path
         id="path312"
         style="fill:none;stroke:#000000;stroke-width:15;stroke-linecap:butt;stroke-linejoin:miter;stroke-miterlimit:3.79999995;stroke-dasharray:none;stroke-opacity:1"
         d="m 803.5,4855 v 166.5 m -31,-166.5 h 62 m -62,166.5 h 62 m 716.5,-269 V 5018 m -31,-265.5 h 62 m -62,265.5 h 62 m 716.5,-559.5 V 4677 m -31,-218.5 h 62 m -62,218.5 h 62 M 3046,4347 v 159.5 M 3015,4347 h 62 m -62,159.5 h 62" /><path
         id="path314"
         style="fill:#000000;fill-opacity:1;fill-rule:nonzero;stroke:none"
         d="m 831.852,4938 c 0,15.66 -12.696,28.35 -28.352,28.35 -15.656,0 -28.352,-12.69 -28.352,-28.35 0,-15.66 12.696,-28.35 28.352,-28.35 15.656,0 28.352,12.69 28.352,28.35" /><path
         id="path316"
         style="fill:#000000;fill-opacity:1;fill-rule:nonzero;stroke:none"
         d="m 1579.35,4885.5 c 0,15.66 -12.69,28.35 -28.35,28.35 -15.66,0 -28.35,-12.69 -28.35,-28.35 0,-15.66 12.69,-28.35 28.35,-28.35 15.66,0 28.35,12.69 28.35,28.35" /><path
         id="path318"
         style="fill:#000000;fill-opacity:1;fill-rule:nonzero;stroke:none"
         d="m 2326.85,4568 c 0,15.66 -12.69,28.35 -28.35,28.35 -15.66,0 -28.35,-12.69 -28.35,-28.35 0,-15.66 12.69,-28.35 28.35,-28.35 15.66,0 28.35,12.69 28.35,28.35" /><path
         id="path320"
         style="fill:#000000;fill-opacity:1;fill-rule:nonzero;stroke:none"
         d="m 3074.35,4427 c 0,15.66 -12.69,28.35 -28.35,28.35 -15.66,0 -28.35,-12.69 -28.35,-28.35 0,-15.66 12.69,-28.35 28.35,-28.35 15.66,0 28.35,12.69 28.35,28.35" /><path
         id="path322"
         style="fill:#ff0000;fill-opacity:1;fill-rule:nonzero;stroke:none"
         d="m 772,5050 v -63 h 63 v 63 h -63" /><path
         id="path324"
         style="fill:#ff0000;fill-opacity:1;fill-rule:nonzero;stroke:none"
         d="m 1519.5,4818.5 v -63 h 63 v 63 h -63" /><path
         id="path326"
         style="fill:#ff0000;fill-opacity:1;fill-rule:nonzero;stroke:none"
         d="m 2267,4599 v -63 h 63 v 63 h -63" /><path
         id="path328"
         style="fill:#ff0000;fill-opacity:1;fill-rule:nonzero;stroke:none"
         d="m 3014.5,4377.5 v -63 h 63 v 63 h -63" /><path
         id="path330"
         style="fill:none;stroke:#ff0000;stroke-width:10;stroke-linecap:butt;stroke-linejoin:miter;stroke-miterlimit:3.79999995;stroke-dasharray:50, 25;stroke-dashoffset:0;stroke-opacity:1"
         d="M 803.5,5018.5 1551,4787 2298.5,4567.5 3046,4346" /><path
         id="path332"
         style="fill:#ff0000;fill-opacity:1;fill-rule:nonzero;stroke:none"
         d="m 585.5,4108.5 v -63 h 63 v 63 h -63" /><path
         id="path334"
         style="fill:#ff0000;fill-opacity:1;fill-rule:nonzero;stroke:none"
         d="m 772,4108.5 v -63 h 63 v 63 h -63" /><path
         id="path336"
         style="fill:none;stroke:#ff0000;stroke-width:10;stroke-linecap:butt;stroke-linejoin:miter;stroke-miterlimit:3.79999995;stroke-dasharray:50, 25;stroke-dashoffset:0;stroke-opacity:1"
         d="M 617,4077 H 803.5" /><path
         id="path338"
         style="fill:#ffffff;fill-opacity:1;fill-rule:nonzero;stroke:none"
         d="m 787.75,5034.25 v -31.5 h 31.5 v 31.5 h -31.5" /><path
         id="path340"
         style="fill:#ffffff;fill-opacity:1;fill-rule:nonzero;stroke:none"
         d="m 1535.25,4802.75 v -31.5 h 31.5 v 31.5 h -31.5" /><path
         id="path342"
         style="fill:#ffffff;fill-opacity:1;fill-rule:nonzero;stroke:none"
         d="m 2282.75,4583.25 v -31.5 h 31.5 v 31.5 h -31.5" /><path
         id="path344"
         style="fill:#ffffff;fill-opacity:1;fill-rule:nonzero;stroke:none"
         d="m 3030.25,4361.75 v -31.5 h 31.5 v 31.5 h -31.5" /><path
         id="path346"
         style="fill:#ffffff;fill-opacity:1;fill-rule:nonzero;stroke:none"
         d="m 601.25,4092.75 v -31.5 h 31.5 v 31.5 h -31.5" /><path
         id="path348"
         style="fill:#ffffff;fill-opacity:1;fill-rule:nonzero;stroke:none"
         d="m 787.75,4092.75 v -31.5 h 31.5 v 31.5 h -31.5" /><path
         id="path350"
         style="fill:none;stroke:#000000;stroke-width:10;stroke-linecap:butt;stroke-linejoin:miter;stroke-miterlimit:3.79999995;stroke-dasharray:none;stroke-opacity:1"
         d="M 617,4182.5 V 4324 m -31,-141.5 h 62 M 586,4324 h 62" /><path
         id="path352"
         style="fill:#000000;fill-opacity:1;fill-rule:nonzero;stroke:none"
         d="m 645.352,4253 c 0,15.66 -12.696,28.35 -28.352,28.35 -15.656,0 -28.352,-12.69 -28.352,-28.35 0,-15.66 12.696,-28.35 28.352,-28.35 15.656,0 28.352,12.69 28.352,28.35" /><path
         id="path354"
         style="fill:none;stroke:#000000;stroke-width:5;stroke-linecap:butt;stroke-linejoin:miter;stroke-miterlimit:3.79999995;stroke-dasharray:none;stroke-opacity:1"
         d="M 430,5593.5 V 3830 h 2989.5 v 1763.5 z" /></g></g></svg>