<?xml version="1.0" encoding="UTF-8" standalone="no"?>
<svg
   xmlns:dc="http://purl.org/dc/elements/1.1/"
   xmlns:cc="http://creativecommons.org/ns#"
   xmlns:rdf="http://www.w3.org/1999/02/22-rdf-syntax-ns#"
   xmlns:svg="http://www.w3.org/2000/svg"
   xmlns="http://www.w3.org/2000/svg"
   viewBox="0 0 480 336"
   height="336"
   width="480"
   xml:space="preserve"
   id="svg2"
   version="1.1"><metadata
     id="metadata8"><rdf:RDF><cc:Work
         rdf:about=""><dc:format>image/svg+xml</dc:format><dc:type
           rdf:resource="http://purl.org/dc/dcmitype/StillImage" /></cc:Work></rdf:RDF></metadata><defs
     id="defs6" /><g
     transform="matrix(1.3333333,0,0,-1.3333333,0,336)"
     id="g10"><g
       transform="scale(0.1)"
       id="g12"><path
         id="path14"
         style="fill:none;stroke:#000000;stroke-width:2.5;stroke-linecap:butt;stroke-linejoin:miter;stroke-miterlimit:3.79999995;stroke-dasharray:none;stroke-opacity:1"
         d="M 537.5,400 H 569 m 2805.5,0 H 3343" /><g
         transform="scale(10)"
         id="g16"><text
           id="text20"
           style="font-variant:normal;font-weight:normal;font-size:12.5px;font-family:Helvetica;-inkscape-font-specification:Helvetica;writing-mode:lr-tb;fill:#000000;fill-opacity:1;fill-rule:nonzero;stroke:none"
           transform="matrix(1,0,0,-1,28.875,35.8352)"><tspan
             id="tspan18"
             y="0"
             x="0 6.9499998 10.425">4.5</tspan></text>
</g><path
         id="path22"
         style="fill:none;stroke:#000000;stroke-width:2.5;stroke-linecap:butt;stroke-linejoin:miter;stroke-miterlimit:3.79999995;stroke-dasharray:none;stroke-opacity:1"
         d="M 537.5,1023.5 H 569 m 2805.5,0 H 3343" /><g
         transform="scale(10)"
         id="g24"><text
           id="text28"
           style="font-variant:normal;font-weight:normal;font-size:12.5px;font-family:Helvetica;-inkscape-font-specification:Helvetica;writing-mode:lr-tb;fill:#000000;fill-opacity:1;fill-rule:nonzero;stroke:none"
           transform="matrix(1,0,0,-1,28.875,98.1852)"><tspan
             id="tspan26"
             y="0"
             x="0 6.9499998 10.425">4.6</tspan></text>
</g><path
         id="path30"
         style="fill:none;stroke:#000000;stroke-width:2.5;stroke-linecap:butt;stroke-linejoin:miter;stroke-miterlimit:3.79999995;stroke-dasharray:none;stroke-opacity:1"
         d="M 537.5,1646.5 H 569 m 2805.5,0 H 3343" /><g
         transform="scale(10)"
         id="g32"><text
           id="text36"
           style="font-variant:normal;font-weight:normal;font-size:12.5px;font-family:Helvetica;-inkscape-font-specification:Helvetica;writing-mode:lr-tb;fill:#000000;fill-opacity:1;fill-rule:nonzero;stroke:none"
           transform="matrix(1,0,0,-1,28.875,160.485)"><tspan
             id="tspan34"
             y="0"
             x="0 6.9499998 10.425">4.7</tspan></text>
</g><path
         id="path38"
         style="fill:none;stroke:#000000;stroke-width:2.5;stroke-linecap:butt;stroke-linejoin:miter;stroke-miterlimit:3.79999995;stroke-dasharray:none;stroke-opacity:1"
         d="M 537.5,2270 H 569 m 2805.5,0 H 3343" /><g
         transform="scale(10)"
         id="g40"><text
           id="text44"
           style="font-variant:normal;font-weight:normal;font-size:12.5px;font-family:Helvetica;-inkscape-font-specification:Helvetica;writing-mode:lr-tb;fill:#000000;fill-opacity:1;fill-rule:nonzero;stroke:none"
           transform="matrix(1,0,0,-1,28.875,222.835)"><tspan
             id="tspan42"
             y="0"
             x="0 6.9499998 10.425">4.8</tspan></text>
</g><path
         id="path46"
         style="fill:none;stroke:#000000;stroke-width:2.5;stroke-linecap:butt;stroke-linejoin:miter;stroke-miterlimit:3.79999995;stroke-dasharray:none;stroke-opacity:1"
         d="m 740,400 v 31.5 m 0,1963 V 2363" /><g
         transform="scale(10)"
         id="g48"><text
           id="text52"
           style="font-variant:normal;font-weight:normal;font-size:12.5px;font-family:Helvetica;-inkscape-font-specification:Helvetica;writing-mode:lr-tb;fill:#000000;fill-opacity:1;fill-rule:nonzero;stroke:none"
           transform="matrix(1,0,0,-1,65.3125,23.3352)"><tspan
             id="tspan50"
             y="0"
             x="0 6.9499998 13.9">108</tspan></text>
</g><path
         id="path54"
         style="fill:none;stroke:#000000;stroke-width:2.5;stroke-linecap:butt;stroke-linejoin:miter;stroke-miterlimit:3.79999995;stroke-dasharray:none;stroke-opacity:1"
         d="m 1145.5,400 v 31.5 m 0,1963 V 2363" /><g
         transform="scale(10)"
         id="g56"><text
           id="text60"
           style="font-variant:normal;font-weight:normal;font-size:12.5px;font-family:Helvetica;-inkscape-font-specification:Helvetica;writing-mode:lr-tb;fill:#000000;fill-opacity:1;fill-rule:nonzero;stroke:none"
           transform="matrix(1,0,0,-1,105.863,23.3352)"><tspan
             id="tspan58"
             y="0"
             x="0 6.9499998 13.9">112</tspan></text>
</g><path
         id="path62"
         style="fill:none;stroke:#000000;stroke-width:2.5;stroke-linecap:butt;stroke-linejoin:miter;stroke-miterlimit:3.79999995;stroke-dasharray:none;stroke-opacity:1"
         d="m 1550.5,400 v 31.5 m 0,1963 V 2363" /><g
         transform="scale(10)"
         id="g64"><text
           id="text68"
           style="font-variant:normal;font-weight:normal;font-size:12.5px;font-family:Helvetica;-inkscape-font-specification:Helvetica;writing-mode:lr-tb;fill:#000000;fill-opacity:1;fill-rule:nonzero;stroke:none"
           transform="matrix(1,0,0,-1,146.363,23.3352)"><tspan
             id="tspan66"
             y="0"
             x="0 6.9499998 13.9">116</tspan></text>
</g><path
         id="path70"
         style="fill:none;stroke:#000000;stroke-width:2.5;stroke-linecap:butt;stroke-linejoin:miter;stroke-miterlimit:3.79999995;stroke-dasharray:none;stroke-opacity:1"
         d="m 1956,400 v 31.5 m 0,1963 V 2363" /><g
         transform="scale(10)"
         id="g72"><text
           id="text76"
           style="font-variant:normal;font-weight:normal;font-size:12.5px;font-family:Helvetica;-inkscape-font-specification:Helvetica;writing-mode:lr-tb;fill:#000000;fill-opacity:1;fill-rule:nonzero;stroke:none"
           transform="matrix(1,0,0,-1,186.913,23.3352)"><tspan
             id="tspan74"
             y="0"
             x="0 6.9499998 13.9">120</tspan></text>
</g><path
         id="path78"
         style="fill:none;stroke:#000000;stroke-width:2.5;stroke-linecap:butt;stroke-linejoin:miter;stroke-miterlimit:3.79999995;stroke-dasharray:none;stroke-opacity:1"
         d="m 2361.5,400 v 31.5 m 0,1963 V 2363" /><g
         transform="scale(10)"
         id="g80"><text
           id="text84"
           style="font-variant:normal;font-weight:normal;font-size:12.5px;font-family:Helvetica;-inkscape-font-specification:Helvetica;writing-mode:lr-tb;fill:#000000;fill-opacity:1;fill-rule:nonzero;stroke:none"
           transform="matrix(1,0,0,-1,227.463,23.3352)"><tspan
             id="tspan82"
             y="0"
             x="0 6.9499998 13.9">124</tspan></text>
</g><path
         id="path86"
         style="fill:none;stroke:#000000;stroke-width:2.5;stroke-linecap:butt;stroke-linejoin:miter;stroke-miterlimit:3.79999995;stroke-dasharray:none;stroke-opacity:1"
         d="m 2766.5,400 v 31.5 m 0,1963 V 2363" /><g
         transform="scale(10)"
         id="g88"><text
           id="text92"
           style="font-variant:normal;font-weight:normal;font-size:12.5px;font-family:Helvetica;-inkscape-font-specification:Helvetica;writing-mode:lr-tb;fill:#000000;fill-opacity:1;fill-rule:nonzero;stroke:none"
           transform="matrix(1,0,0,-1,267.963,23.3352)"><tspan
             id="tspan90"
             y="0"
             x="0 6.9499998 13.9">128</tspan></text>
</g><path
         id="path94"
         style="fill:none;stroke:#000000;stroke-width:2.5;stroke-linecap:butt;stroke-linejoin:miter;stroke-miterlimit:3.79999995;stroke-dasharray:none;stroke-opacity:1"
         d="m 3172,400 v 31.5 m 0,1963 V 2363" /><g
         transform="scale(10)"
         id="g96"><text
           id="text100"
           style="font-variant:normal;font-weight:normal;font-size:12.5px;font-family:Helvetica;-inkscape-font-specification:Helvetica;writing-mode:lr-tb;fill:#000000;fill-opacity:1;fill-rule:nonzero;stroke:none"
           transform="matrix(1,0,0,-1,308.513,23.3352)"><tspan
             id="tspan98"
             y="0"
             x="0 6.9499998 13.9">132</tspan></text>
</g><path
         id="path102"
         style="fill:none;stroke:#000000;stroke-width:5;stroke-linecap:butt;stroke-linejoin:miter;stroke-miterlimit:3.79999995;stroke-dasharray:none;stroke-opacity:1"
         d="M 537.5,2394.5 V 400 h 2837 v 1994.5 z" /><g
         transform="scale(10)"
         id="g104"><text
           id="text108"
           style="font-variant:normal;font-weight:normal;font-size:12.5px;font-family:Helvetica;-inkscape-font-specification:Helvetica;writing-mode:lr-tb;fill:#000000;fill-opacity:1;fill-rule:nonzero;stroke:none"
           transform="matrix(0,1,1,0,23.5148,59.475)"><tspan
             id="tspan106"
             y="0"
             x="0 9.0249996 15.975 22.225 25 31.950001 38.900002 43.0625 46.537498 52.787498 59.737499 66.6875 70.849998 77.800003 84.75 88.224998 92.387497 99.337502 106.2875 109.0625 116.0125 122.2625 125.7375 134.7625 138.2375 142.39999 145.875 156.28751">Nuclear charge radius R (fm)</tspan></text>
<text
           id="text114"
           style="font-variant:normal;font-weight:normal;font-size:12.5px;font-family:Helvetica;-inkscape-font-specification:Helvetica;writing-mode:lr-tb;fill:#000000;fill-opacity:1;fill-rule:nonzero;stroke:none"
           transform="matrix(1,0,0,-1,151.838,4.58516)"><tspan
             id="tspan110"
             y="0"
             x="0 10.4125 17.362499 23.612499 29.862499 33.337502 40.287498 47.237499 57.650002 64.599998 71.550003 75.712502 79.1875">Mass number A</tspan><tspan
             id="tspan112"
             y="-218.14999"
             x="-69.912498 -62.962502 -56.712502 -49.762501 -42.8125 -38.650002 -35.875 -25.4625 -18.512501 -11.5625">experiment</tspan></text>
</g><path
         id="path116"
         style="fill:none;stroke:#000000;stroke-width:5;stroke-linecap:butt;stroke-linejoin:miter;stroke-miterlimit:3.79999995;stroke-dasharray:none;stroke-opacity:1"
         d="M 1512.5,2269 H 1844 m -331.5,15.5 v -31 m 331.5,31 v -31 M 740,759 v 36 m -15.5,-36 h 31 m -31,36 h 31 m 86,11.5 V 840 M 826,806.5 h 31 M 826,840 h 31 m 86,33.5 V 905 m -15.5,-31.5 h 31 m -31,31.5 h 31 m 85.5,1 v 30 m -15.5,-30 h 31 m -31,30 h 31 m 86,41 v 27.5 M 1130,977 h 31 m -31,27.5 h 31 m 86,15 v 26 m -15.5,-26 h 31 m -31,26 h 31 m 85.5,27 v 25 m -15.5,-25 h 31 m -31,25 h 31 m 86,6 v 24 m -15.5,-24 h 31 m -31,24 h 31 m 85.5,40 v 23.5 m -15.5,-23.5 h 31 m -31,23.5 h 31 m 86,8.5 v 24 m -15.5,-24 h 31 m -31,24 h 31 m 86,33 v 23.5 m -15.5,-23.5 h 31 m -31,23.5 h 31 m 85.5,4 v 24.5 M 1839,1284 h 31 m -31,24.5 h 31 m 86,25 v 26.5 m -15.5,-26.5 h 31 m -31,26.5 h 31 m 86,3 v 26 m -15.5,-26 h 31 m -31,26 h 31 m 85.5,15.5 v 27.5 m -15.5,-27.5 h 31 m -31,27.5 h 31 m 86,-8.5 v 28.5 m -15.5,-28.5 h 31 m -31,28.5 h 31 m 86,15 v 28.5 M 2346,1467 h 31 m -31,28.5 h 31 m 85.5,-11.5 v 32.5 M 2447,1484 h 31 m -31,32.5 h 31 m 86,-1 v 54 m -15.5,-54 h 31 m -31,54 h 31 m 86,-36 v 60 m -15.5,-60 h 31 m -31,60 h 31 m 85.5,-30 v 67.5 m -15.5,-67.5 h 31 m -31,67.5 h 31 m 86,-61.5 v 72 m -15.5,-72 h 31 m -31,72 h 31 m 85.5,-24 v 82 m -15.5,-82 h 31 m -31,82 h 31 m 86,-50 v 91 m -15.5,-91 h 31 m -31,91 h 31 m 86,-83.5 v 95 m -15.5,-95 h 31 m -31,95 h 31" /><path
         id="path118"
         style="fill:#000000;fill-opacity:1;fill-rule:nonzero;stroke:none"
         d="m 758.898,777 c 0,10.438 -8.46,18.898 -18.898,18.898 -10.437,0 -18.898,-8.46 -18.898,-18.898 0,-10.437 8.461,-18.898 18.898,-18.898 10.438,0 18.898,8.461 18.898,18.898" /><path
         id="path120"
         style="fill:#000000;fill-opacity:1;fill-rule:nonzero;stroke:none"
         d="m 860.398,823 c 0,10.438 -8.46,18.898 -18.898,18.898 -10.437,0 -18.898,-8.46 -18.898,-18.898 0,-10.437 8.461,-18.898 18.898,-18.898 10.438,0 18.898,8.461 18.898,18.898" /><path
         id="path122"
         style="fill:#000000;fill-opacity:1;fill-rule:nonzero;stroke:none"
         d="m 961.898,889.5 c 0,10.438 -8.46,18.898 -18.898,18.898 -10.437,0 -18.898,-8.46 -18.898,-18.898 0,-10.437 8.461,-18.898 18.898,-18.898 10.438,0 18.898,8.461 18.898,18.898" /><path
         id="path124"
         style="fill:#000000;fill-opacity:1;fill-rule:nonzero;stroke:none"
         d="m 1062.9,921 c 0,10.438 -8.46,18.898 -18.9,18.898 -10.44,0 -18.9,-8.46 -18.9,-18.898 0,-10.437 8.46,-18.898 18.9,-18.898 10.44,0 18.9,8.461 18.9,18.898" /><path
         id="path126"
         style="fill:#000000;fill-opacity:1;fill-rule:nonzero;stroke:none"
         d="m 1164.4,991 c 0,10.44 -8.46,18.9 -18.9,18.9 -10.44,0 -18.9,-8.46 -18.9,-18.9 0,-10.437 8.46,-18.898 18.9,-18.898 10.44,0 18.9,8.461 18.9,18.898" /><path
         id="path128"
         style="fill:#000000;fill-opacity:1;fill-rule:nonzero;stroke:none"
         d="m 1265.9,1032.5 c 0,10.44 -8.46,18.9 -18.9,18.9 -10.44,0 -18.9,-8.46 -18.9,-18.9 0,-10.44 8.46,-18.9 18.9,-18.9 10.44,0 18.9,8.46 18.9,18.9" /><path
         id="path130"
         style="fill:#000000;fill-opacity:1;fill-rule:nonzero;stroke:none"
         d="m 1366.9,1085 c 0,10.44 -8.46,18.9 -18.9,18.9 -10.44,0 -18.9,-8.46 -18.9,-18.9 0,-10.44 8.46,-18.9 18.9,-18.9 10.44,0 18.9,8.46 18.9,18.9" /><path
         id="path132"
         style="fill:#000000;fill-opacity:1;fill-rule:nonzero;stroke:none"
         d="m 1468.4,1115.5 c 0,10.44 -8.46,18.9 -18.9,18.9 -10.44,0 -18.9,-8.46 -18.9,-18.9 0,-10.44 8.46,-18.9 18.9,-18.9 10.44,0 18.9,8.46 18.9,18.9" /><path
         id="path134"
         style="fill:#000000;fill-opacity:1;fill-rule:nonzero;stroke:none"
         d="m 1569.4,1179 c 0,10.44 -8.46,18.9 -18.9,18.9 -10.44,0 -18.9,-8.46 -18.9,-18.9 0,-10.44 8.46,-18.9 18.9,-18.9 10.44,0 18.9,8.46 18.9,18.9" /><path
         id="path136"
         style="fill:#000000;fill-opacity:1;fill-rule:nonzero;stroke:none"
         d="m 1670.9,1211.5 c 0,10.44 -8.46,18.9 -18.9,18.9 -10.44,0 -18.9,-8.46 -18.9,-18.9 0,-10.44 8.46,-18.9 18.9,-18.9 10.44,0 18.9,8.46 18.9,18.9" /><path
         id="path138"
         style="fill:#000000;fill-opacity:1;fill-rule:nonzero;stroke:none"
         d="m 1772.4,1268 c 0,10.44 -8.46,18.9 -18.9,18.9 -10.44,0 -18.9,-8.46 -18.9,-18.9 0,-10.44 8.46,-18.9 18.9,-18.9 10.44,0 18.9,8.46 18.9,18.9" /><path
         id="path140"
         style="fill:#000000;fill-opacity:1;fill-rule:nonzero;stroke:none"
         d="m 1873.4,1296.5 c 0,10.44 -8.46,18.9 -18.9,18.9 -10.44,0 -18.9,-8.46 -18.9,-18.9 0,-10.44 8.46,-18.9 18.9,-18.9 10.44,0 18.9,8.46 18.9,18.9" /><path
         id="path142"
         style="fill:#000000;fill-opacity:1;fill-rule:nonzero;stroke:none"
         d="m 1974.9,1347 c 0,10.44 -8.46,18.9 -18.9,18.9 -10.44,0 -18.9,-8.46 -18.9,-18.9 0,-10.44 8.46,-18.9 18.9,-18.9 10.44,0 18.9,8.46 18.9,18.9" /><path
         id="path144"
         style="fill:#000000;fill-opacity:1;fill-rule:nonzero;stroke:none"
         d="m 2076.4,1376 c 0,10.44 -8.46,18.9 -18.9,18.9 -10.44,0 -18.9,-8.46 -18.9,-18.9 0,-10.44 8.46,-18.9 18.9,-18.9 10.44,0 18.9,8.46 18.9,18.9" /><path
         id="path146"
         style="fill:#000000;fill-opacity:1;fill-rule:nonzero;stroke:none"
         d="m 2177.4,1418.5 c 0,10.44 -8.46,18.9 -18.9,18.9 -10.44,0 -18.9,-8.46 -18.9,-18.9 0,-10.44 8.46,-18.9 18.9,-18.9 10.44,0 18.9,8.46 18.9,18.9" /><path
         id="path148"
         style="fill:#000000;fill-opacity:1;fill-rule:nonzero;stroke:none"
         d="m 2278.9,1438 c 0,10.44 -8.46,18.9 -18.9,18.9 -10.44,0 -18.9,-8.46 -18.9,-18.9 0,-10.44 8.46,-18.9 18.9,-18.9 10.44,0 18.9,8.46 18.9,18.9" /><path
         id="path150"
         style="fill:#000000;fill-opacity:1;fill-rule:nonzero;stroke:none"
         d="m 2380.4,1481.5 c 0,10.44 -8.46,18.9 -18.9,18.9 -10.44,0 -18.9,-8.46 -18.9,-18.9 0,-10.44 8.46,-18.9 18.9,-18.9 10.44,0 18.9,8.46 18.9,18.9" /><path
         id="path152"
         style="fill:#000000;fill-opacity:1;fill-rule:nonzero;stroke:none"
         d="m 2481.4,1500 c 0,10.44 -8.46,18.9 -18.9,18.9 -10.44,0 -18.9,-8.46 -18.9,-18.9 0,-10.44 8.46,-18.9 18.9,-18.9 10.44,0 18.9,8.46 18.9,18.9" /><path
         id="path154"
         style="fill:#000000;fill-opacity:1;fill-rule:nonzero;stroke:none"
         d="m 2582.9,1542.5 c 0,10.44 -8.46,18.9 -18.9,18.9 -10.44,0 -18.9,-8.46 -18.9,-18.9 0,-10.44 8.46,-18.9 18.9,-18.9 10.44,0 18.9,8.46 18.9,18.9" /><path
         id="path156"
         style="fill:#000000;fill-opacity:1;fill-rule:nonzero;stroke:none"
         d="m 2684.4,1563.5 c 0,10.44 -8.46,18.9 -18.9,18.9 -10.44,0 -18.9,-8.46 -18.9,-18.9 0,-10.44 8.46,-18.9 18.9,-18.9 10.44,0 18.9,8.46 18.9,18.9" /><path
         id="path158"
         style="fill:#000000;fill-opacity:1;fill-rule:nonzero;stroke:none"
         d="m 2785.4,1597.5 c 0,10.44 -8.46,18.9 -18.9,18.9 -10.44,0 -18.9,-8.46 -18.9,-18.9 0,-10.44 8.46,-18.9 18.9,-18.9 10.44,0 18.9,8.46 18.9,18.9" /><path
         id="path160"
         style="fill:#000000;fill-opacity:1;fill-rule:nonzero;stroke:none"
         d="m 2886.9,1605.5 c 0,10.44 -8.46,18.9 -18.9,18.9 -10.44,0 -18.9,-8.46 -18.9,-18.9 0,-10.44 8.46,-18.9 18.9,-18.9 10.44,0 18.9,8.46 18.9,18.9" /><path
         id="path162"
         style="fill:#000000;fill-opacity:1;fill-rule:nonzero;stroke:none"
         d="m 2987.9,1658.5 c 0,10.44 -8.46,18.9 -18.9,18.9 -10.44,0 -18.9,-8.46 -18.9,-18.9 0,-10.44 8.46,-18.9 18.9,-18.9 10.44,0 18.9,8.46 18.9,18.9" /><path
         id="path164"
         style="fill:#000000;fill-opacity:1;fill-rule:nonzero;stroke:none"
         d="m 3089.4,1695 c 0,10.44 -8.46,18.9 -18.9,18.9 -10.44,0 -18.9,-8.46 -18.9,-18.9 0,-10.44 8.46,-18.9 18.9,-18.9 10.44,0 18.9,8.46 18.9,18.9" /><path
         id="path166"
         style="fill:#000000;fill-opacity:1;fill-rule:nonzero;stroke:none"
         d="m 3190.9,1704.5 c 0,10.44 -8.46,18.9 -18.9,18.9 -10.44,0 -18.9,-8.46 -18.9,-18.9 0,-10.44 8.46,-18.9 18.9,-18.9 10.44,0 18.9,8.46 18.9,18.9" /><path
         id="path168"
         style="fill:#000000;fill-opacity:1;fill-rule:nonzero;stroke:none"
         d="m 1696.9,2269 c 0,10.44 -8.46,18.9 -18.9,18.9 -10.44,0 -18.9,-8.46 -18.9,-18.9 0,-10.44 8.46,-18.9 18.9,-18.9 10.44,0 18.9,8.46 18.9,18.9" /><g
         transform="scale(10)"
         id="g170"><text
           id="text174"
           style="font-variant:normal;font-weight:normal;font-size:12.5px;font-family:Helvetica;-inkscape-font-specification:Helvetica;writing-mode:lr-tb;fill:#000000;fill-opacity:1;fill-rule:nonzero;stroke:none"
           transform="matrix(1,0,0,-1,86.0875,203.985)"><tspan
             id="tspan172"
             y="0"
             x="0 2.7750001 5.5500002 12.5 19.450001 22.225 29.174999 32.650002 39.599998 43.762501 50.712502">liquid drop</tspan></text>
</g><path
         id="path176"
         style="fill:none;stroke:#0000ff;stroke-width:12.5;stroke-linecap:butt;stroke-linejoin:miter;stroke-miterlimit:3.79999995;stroke-dasharray:62.5, 62.5;stroke-dashoffset:0;stroke-opacity:1"
         d="M 1512.5,2081.5 H 1844 M 841.5,400 l 11,9 29,24.5 28.5,24 28.5,24 29,24.5 28.5,24 28.5,24 29,24 28.5,24 28.5,23.5 29,24 28.5,24 28.5,23.5 29,24 28.5,23.5 28.5,23.5 28.5,24 29,23.5 28.5,23.5 28.5,23.5 29,23.5 28.5,23.5 28.5,23 29,23.5 28.5,23.5 28.5,23 29,23.5 28.5,23 28.5,23 29,23.5 28.5,23 28.5,23 28.5,23 29,23 28.5,23 28.5,22.5 29,23 28.5,23 28.5,22.5 29,23 28.5,22.5 28.5,23 29,22.5 28.5,22.5 28.5,22.5 29,22.5 28.5,22.5 28.5,22.5 28.5,22.5 29,22.5 28.5,22.5 28.5,22 29,22.5 28.5,22.5 28.5,22 29,22 28.5,22.5 28.5,22 29,22 28.5,22 28.5,22 29,22 28.5,22 28.5,22 28.5,22 29,22 28.5,21.5 28.5,22 29,22 28.5,21.5 28.5,21.5 29,22 28.5,21.5 28.5,21.5 29,22 28.5,21.5 28.5,21.5 29,21.5 28.5,21.5 28.5,21 28.5,21.5 29,21.5 28.5,21.5 28.5,21 29,21.5 28.5,21 28.5,21.5 29,21 23.5,17.5" /><g
         transform="scale(10)"
         id="g178"><text
           id="text182"
           style="font-variant:normal;font-weight:normal;font-size:12.5px;font-family:Helvetica;-inkscape-font-specification:Helvetica;writing-mode:lr-tb;fill:#000000;fill-opacity:1;fill-rule:nonzero;stroke:none"
           transform="matrix(1,0,0,-1,88.2,185.235)"><tspan
             id="tspan180"
             y="0"
             x="0 9.0249996 19.4375 27.075001 30.549999 39.575001 48.599998">RMF DD2</tspan></text>
</g><path
         id="path184"
         style="fill:none;stroke:#ff0000;stroke-width:12.5;stroke-linecap:butt;stroke-linejoin:miter;stroke-miterlimit:3.79999995;stroke-dasharray:none;stroke-opacity:1"
         d="M 740,924 708.5,892.5 740,861 l 31.5,31.5 z" /><path
         id="path186"
         style="fill:none;stroke:#ff0000;stroke-width:12.5;stroke-linecap:round;stroke-linejoin:miter;stroke-miterlimit:3.79999995;stroke-dasharray:none;stroke-opacity:1"
         d="m 740,892.5 v 0" /><path
         id="path188"
         style="fill:none;stroke:#ff0000;stroke-width:12.5;stroke-linecap:butt;stroke-linejoin:miter;stroke-miterlimit:3.79999995;stroke-dasharray:none;stroke-opacity:1"
         d="M 841.5,961.5 810,930 841.5,898.5 873,930 Z" /><path
         id="path190"
         style="fill:none;stroke:#ff0000;stroke-width:12.5;stroke-linecap:round;stroke-linejoin:miter;stroke-miterlimit:3.79999995;stroke-dasharray:none;stroke-opacity:1"
         d="m 841.5,930 v 0" /><path
         id="path192"
         style="fill:none;stroke:#ff0000;stroke-width:12.5;stroke-linecap:butt;stroke-linejoin:miter;stroke-miterlimit:3.79999995;stroke-dasharray:none;stroke-opacity:1"
         d="M 943,1005 911.5,973.5 943,942 l 31.5,31.5 z" /><path
         id="path194"
         style="fill:none;stroke:#ff0000;stroke-width:12.5;stroke-linecap:round;stroke-linejoin:miter;stroke-miterlimit:3.79999995;stroke-dasharray:none;stroke-opacity:1"
         d="m 943,973.5 v 0" /><path
         id="path196"
         style="fill:none;stroke:#ff0000;stroke-width:12.5;stroke-linecap:butt;stroke-linejoin:miter;stroke-miterlimit:3.79999995;stroke-dasharray:none;stroke-opacity:1"
         d="m 1044,1042.5 -31.5,-31.5 31.5,-31.5 31.5,31.5 z" /><path
         id="path198"
         style="fill:none;stroke:#ff0000;stroke-width:12.5;stroke-linecap:round;stroke-linejoin:miter;stroke-miterlimit:3.79999995;stroke-dasharray:none;stroke-opacity:1"
         d="m 1044,1011 v 0" /><path
         id="path200"
         style="fill:none;stroke:#ff0000;stroke-width:12.5;stroke-linecap:butt;stroke-linejoin:miter;stroke-miterlimit:3.79999995;stroke-dasharray:none;stroke-opacity:1"
         d="m 1145.5,1079.5 -31.5,-31.5 31.5,-31.5 31.5,31.5 z" /><path
         id="path202"
         style="fill:none;stroke:#ff0000;stroke-width:12.5;stroke-linecap:round;stroke-linejoin:miter;stroke-miterlimit:3.79999995;stroke-dasharray:none;stroke-opacity:1"
         d="m 1145.5,1048 v 0" /><path
         id="path204"
         style="fill:none;stroke:#ff0000;stroke-width:12.5;stroke-linecap:butt;stroke-linejoin:miter;stroke-miterlimit:3.79999995;stroke-dasharray:none;stroke-opacity:1"
         d="m 1247,1117 -31.5,-31.5 31.5,-31.5 31.5,31.5 z" /><path
         id="path206"
         style="fill:none;stroke:#ff0000;stroke-width:12.5;stroke-linecap:round;stroke-linejoin:miter;stroke-miterlimit:3.79999995;stroke-dasharray:none;stroke-opacity:1"
         d="m 1247,1085.5 v 0" /><path
         id="path208"
         style="fill:none;stroke:#ff0000;stroke-width:12.5;stroke-linecap:butt;stroke-linejoin:miter;stroke-miterlimit:3.79999995;stroke-dasharray:none;stroke-opacity:1"
         d="m 1348,1160.5 -31.5,-31.5 31.5,-31.5 31.5,31.5 z" /><path
         id="path210"
         style="fill:none;stroke:#ff0000;stroke-width:12.5;stroke-linecap:round;stroke-linejoin:miter;stroke-miterlimit:3.79999995;stroke-dasharray:none;stroke-opacity:1"
         d="m 1348,1129 v 0" /><path
         id="path212"
         style="fill:none;stroke:#ff0000;stroke-width:12.5;stroke-linecap:butt;stroke-linejoin:miter;stroke-miterlimit:3.79999995;stroke-dasharray:none;stroke-opacity:1"
         d="m 1449.5,1198 -31.5,-31.5 31.5,-31.5 31.5,31.5 z" /><path
         id="path214"
         style="fill:none;stroke:#ff0000;stroke-width:12.5;stroke-linecap:round;stroke-linejoin:miter;stroke-miterlimit:3.79999995;stroke-dasharray:none;stroke-opacity:1"
         d="m 1449.5,1166.5 v 0" /><path
         id="path216"
         style="fill:none;stroke:#ff0000;stroke-width:12.5;stroke-linecap:butt;stroke-linejoin:miter;stroke-miterlimit:3.79999995;stroke-dasharray:none;stroke-opacity:1"
         d="m 1550.5,1242 -31.5,-31.5 31.5,-31.5 31.5,31.5 z" /><path
         id="path218"
         style="fill:none;stroke:#ff0000;stroke-width:12.5;stroke-linecap:round;stroke-linejoin:miter;stroke-miterlimit:3.79999995;stroke-dasharray:none;stroke-opacity:1"
         d="m 1550.5,1210.5 v 0" /><path
         id="path220"
         style="fill:none;stroke:#ff0000;stroke-width:12.5;stroke-linecap:butt;stroke-linejoin:miter;stroke-miterlimit:3.79999995;stroke-dasharray:none;stroke-opacity:1"
         d="m 1652,1298 -31.5,-31.5 31.5,-31.5 31.5,31.5 z" /><path
         id="path222"
         style="fill:none;stroke:#ff0000;stroke-width:12.5;stroke-linecap:round;stroke-linejoin:miter;stroke-miterlimit:3.79999995;stroke-dasharray:none;stroke-opacity:1"
         d="m 1652,1266.5 v 0" /><path
         id="path224"
         style="fill:none;stroke:#ff0000;stroke-width:12.5;stroke-linecap:butt;stroke-linejoin:miter;stroke-miterlimit:3.79999995;stroke-dasharray:none;stroke-opacity:1"
         d="m 1753.5,1347.5 -31.5,-31.5 31.5,-31.5 31.5,31.5 z" /><path
         id="path226"
         style="fill:none;stroke:#ff0000;stroke-width:12.5;stroke-linecap:round;stroke-linejoin:miter;stroke-miterlimit:3.79999995;stroke-dasharray:none;stroke-opacity:1"
         d="m 1753.5,1316 v 0" /><path
         id="path228"
         style="fill:none;stroke:#ff0000;stroke-width:12.5;stroke-linecap:butt;stroke-linejoin:miter;stroke-miterlimit:3.79999995;stroke-dasharray:none;stroke-opacity:1"
         d="m 1854.5,1404 -31.5,-31.5 31.5,-31.5 31.5,31.5 z" /><path
         id="path230"
         style="fill:none;stroke:#ff0000;stroke-width:12.5;stroke-linecap:round;stroke-linejoin:miter;stroke-miterlimit:3.79999995;stroke-dasharray:none;stroke-opacity:1"
         d="m 1854.5,1372.5 v 0" /><path
         id="path232"
         style="fill:none;stroke:#ff0000;stroke-width:12.5;stroke-linecap:butt;stroke-linejoin:miter;stroke-miterlimit:3.79999995;stroke-dasharray:none;stroke-opacity:1"
         d="m 1956,1460 -31.5,-31.5 31.5,-31.5 31.5,31.5 z" /><path
         id="path234"
         style="fill:none;stroke:#ff0000;stroke-width:12.5;stroke-linecap:round;stroke-linejoin:miter;stroke-miterlimit:3.79999995;stroke-dasharray:none;stroke-opacity:1"
         d="m 1956,1428.5 v 0" /><path
         id="path236"
         style="fill:none;stroke:#ff0000;stroke-width:12.5;stroke-linecap:butt;stroke-linejoin:miter;stroke-miterlimit:3.79999995;stroke-dasharray:none;stroke-opacity:1"
         d="m 2057.5,1491 -31.5,-31.5 31.5,-31.5 31.5,31.5 z" /><path
         id="path238"
         style="fill:none;stroke:#ff0000;stroke-width:12.5;stroke-linecap:round;stroke-linejoin:miter;stroke-miterlimit:3.79999995;stroke-dasharray:none;stroke-opacity:1"
         d="m 2057.5,1459.5 v 0" /><path
         id="path240"
         style="fill:none;stroke:#ff0000;stroke-width:12.5;stroke-linecap:butt;stroke-linejoin:miter;stroke-miterlimit:3.79999995;stroke-dasharray:none;stroke-opacity:1"
         d="m 2158.5,1528.5 -31.5,-31.5 31.5,-31.5 31.5,31.5 z" /><path
         id="path242"
         style="fill:none;stroke:#ff0000;stroke-width:12.5;stroke-linecap:round;stroke-linejoin:miter;stroke-miterlimit:3.79999995;stroke-dasharray:none;stroke-opacity:1"
         d="m 2158.5,1497 v 0" /><path
         id="path244"
         style="fill:none;stroke:#ff0000;stroke-width:12.5;stroke-linecap:butt;stroke-linejoin:miter;stroke-miterlimit:3.79999995;stroke-dasharray:none;stroke-opacity:1"
         d="m 2260,1559.5 -31.5,-31.5 31.5,-31.5 31.5,31.5 z" /><path
         id="path246"
         style="fill:none;stroke:#ff0000;stroke-width:12.5;stroke-linecap:round;stroke-linejoin:miter;stroke-miterlimit:3.79999995;stroke-dasharray:none;stroke-opacity:1"
         d="m 2260,1528 v 0" /><path
         id="path248"
         style="fill:none;stroke:#ff0000;stroke-width:12.5;stroke-linecap:butt;stroke-linejoin:miter;stroke-miterlimit:3.79999995;stroke-dasharray:none;stroke-opacity:1"
         d="m 2361.5,1597 -31.5,-31.5 31.5,-31.5 31.5,31.5 z" /><path
         id="path250"
         style="fill:none;stroke:#ff0000;stroke-width:12.5;stroke-linecap:round;stroke-linejoin:miter;stroke-miterlimit:3.79999995;stroke-dasharray:none;stroke-opacity:1"
         d="m 2361.5,1565.5 v 0" /><path
         id="path252"
         style="fill:none;stroke:#ff0000;stroke-width:12.5;stroke-linecap:butt;stroke-linejoin:miter;stroke-miterlimit:3.79999995;stroke-dasharray:none;stroke-opacity:1"
         d="m 2462.5,1634.5 -31.5,-31.5 31.5,-31.5 31.5,31.5 z" /><path
         id="path254"
         style="fill:none;stroke:#ff0000;stroke-width:12.5;stroke-linecap:round;stroke-linejoin:miter;stroke-miterlimit:3.79999995;stroke-dasharray:none;stroke-opacity:1"
         d="m 2462.5,1603 v 0" /><path
         id="path256"
         style="fill:none;stroke:#ff0000;stroke-width:12.5;stroke-linecap:butt;stroke-linejoin:miter;stroke-miterlimit:3.79999995;stroke-dasharray:none;stroke-opacity:1"
         d="m 2564,1665.5 -31.5,-31.5 31.5,-31.5 31.5,31.5 z" /><path
         id="path258"
         style="fill:none;stroke:#ff0000;stroke-width:12.5;stroke-linecap:round;stroke-linejoin:miter;stroke-miterlimit:3.79999995;stroke-dasharray:none;stroke-opacity:1"
         d="m 2564,1634 v 0" /><path
         id="path260"
         style="fill:none;stroke:#ff0000;stroke-width:12.5;stroke-linecap:butt;stroke-linejoin:miter;stroke-miterlimit:3.79999995;stroke-dasharray:none;stroke-opacity:1"
         d="m 2665.5,1703 -31.5,-31.5 31.5,-31.5 31.5,31.5 z" /><path
         id="path262"
         style="fill:none;stroke:#ff0000;stroke-width:12.5;stroke-linecap:round;stroke-linejoin:miter;stroke-miterlimit:3.79999995;stroke-dasharray:none;stroke-opacity:1"
         d="m 2665.5,1671.5 v 0" /><path
         id="path264"
         style="fill:none;stroke:#ff0000;stroke-width:12.5;stroke-linecap:butt;stroke-linejoin:miter;stroke-miterlimit:3.79999995;stroke-dasharray:none;stroke-opacity:1"
         d="m 2766.5,1740.5 -31.5,-31.5 31.5,-31.5 31.5,31.5 z" /><path
         id="path266"
         style="fill:none;stroke:#ff0000;stroke-width:12.5;stroke-linecap:round;stroke-linejoin:miter;stroke-miterlimit:3.79999995;stroke-dasharray:none;stroke-opacity:1"
         d="m 2766.5,1709 v 0" /><path
         id="path268"
         style="fill:none;stroke:#ff0000;stroke-width:12.5;stroke-linecap:butt;stroke-linejoin:miter;stroke-miterlimit:3.79999995;stroke-dasharray:none;stroke-opacity:1"
         d="m 2868,1771.5 -31.5,-31.5 31.5,-31.5 31.5,31.5 z" /><path
         id="path270"
         style="fill:none;stroke:#ff0000;stroke-width:12.5;stroke-linecap:round;stroke-linejoin:miter;stroke-miterlimit:3.79999995;stroke-dasharray:none;stroke-opacity:1"
         d="m 2868,1740 v 0" /><path
         id="path272"
         style="fill:none;stroke:#ff0000;stroke-width:12.5;stroke-linecap:butt;stroke-linejoin:miter;stroke-miterlimit:3.79999995;stroke-dasharray:none;stroke-opacity:1"
         d="m 2969,1809 -31.5,-31.5 31.5,-31.5 31.5,31.5 z" /><path
         id="path274"
         style="fill:none;stroke:#ff0000;stroke-width:12.5;stroke-linecap:round;stroke-linejoin:miter;stroke-miterlimit:3.79999995;stroke-dasharray:none;stroke-opacity:1"
         d="m 2969,1777.5 v 0" /><path
         id="path276"
         style="fill:none;stroke:#ff0000;stroke-width:12.5;stroke-linecap:butt;stroke-linejoin:miter;stroke-miterlimit:3.79999995;stroke-dasharray:none;stroke-opacity:1"
         d="m 3070.5,1840 -31.5,-31.5 31.5,-31.5 31.5,31.5 z" /><path
         id="path278"
         style="fill:none;stroke:#ff0000;stroke-width:12.5;stroke-linecap:round;stroke-linejoin:miter;stroke-miterlimit:3.79999995;stroke-dasharray:none;stroke-opacity:1"
         d="m 3070.5,1808.5 v 0" /><path
         id="path280"
         style="fill:none;stroke:#ff0000;stroke-width:12.5;stroke-linecap:butt;stroke-linejoin:miter;stroke-miterlimit:3.79999995;stroke-dasharray:none;stroke-opacity:1"
         d="m 3172,1877.5 -31.5,-31.5 31.5,-31.5 31.5,31.5 z" /><path
         id="path282"
         style="fill:none;stroke:#ff0000;stroke-width:12.5;stroke-linecap:round;stroke-linejoin:miter;stroke-miterlimit:3.79999995;stroke-dasharray:none;stroke-opacity:1"
         d="m 3172,1846 v 0" /><path
         id="path284"
         style="fill:none;stroke:#ff0000;stroke-width:12.5;stroke-linecap:butt;stroke-linejoin:miter;stroke-miterlimit:3.79999995;stroke-dasharray:none;stroke-opacity:1"
         d="m 1678,1925.5 -31.5,-31.5 31.5,-31.5 31.5,31.5 z" /><path
         id="path286"
         style="fill:none;stroke:#ff0000;stroke-width:12.5;stroke-linecap:round;stroke-linejoin:miter;stroke-miterlimit:3.79999995;stroke-dasharray:none;stroke-opacity:1"
         d="m 1678,1894 v 0" /><path
         id="path288"
         style="fill:none;stroke:#000000;stroke-width:5;stroke-linecap:butt;stroke-linejoin:miter;stroke-miterlimit:3.79999995;stroke-dasharray:none;stroke-opacity:1"
         d="M 537.5,2394.5 V 400 h 2837 v 1994.5 z" /></g></g></svg>