<?xml version="1.0" encoding="UTF-8" standalone="no"?>
<!-- Created with Inkscape (http://www.inkscape.org/) -->

<svg
   xmlns:dc="http://purl.org/dc/elements/1.1/"
   xmlns:cc="http://creativecommons.org/ns#"
   xmlns:rdf="http://www.w3.org/1999/02/22-rdf-syntax-ns#"
   xmlns:svg="http://www.w3.org/2000/svg"
   xmlns="http://www.w3.org/2000/svg"
   xmlns:xlink="http://www.w3.org/1999/xlink"
   xmlns:sodipodi="http://sodipodi.sourceforge.net/DTD/sodipodi-0.dtd"
   xmlns:inkscape="http://www.inkscape.org/namespaces/inkscape"
   width="103.98611mm"
   height="73.128761mm"
   viewBox="0 0 103.98611 73.128763"
   version="1.1"
   id="svg3091"
   inkscape:version="0.92.5 (2060ec1f9f, 2020-04-08)"
   sodipodi:docname="decay.svg">
  <defs
     id="defs3085">
    <marker
       inkscape:isstock="true"
       style="overflow:visible"
       id="marker926"
       refX="0"
       refY="0"
       orient="auto"
       inkscape:stockid="Arrow1Lend">
      <path
         inkscape:connector-curvature="0"
         transform="matrix(-0.8,0,0,-0.8,-10,0)"
         style="fill:#000000;fill-opacity:1;fill-rule:evenodd;stroke:#000000;stroke-width:1.00000003pt;stroke-opacity:1"
         d="M 0,0 5,-5 -12.5,0 5,5 Z"
         id="path924" />
    </marker>
    <marker
       inkscape:stockid="Arrow1Lend"
       orient="auto"
       refY="0"
       refX="0"
       id="Arrow1Lend"
       style="overflow:visible"
       inkscape:isstock="true"
       inkscape:collect="always">
      <path
         id="path843"
         d="M 0,0 5,-5 -12.5,0 5,5 Z"
         style="fill:#000000;fill-opacity:1;fill-rule:evenodd;stroke:#000000;stroke-width:1.00000003pt;stroke-opacity:1"
         transform="matrix(-0.8,0,0,-0.8,-10,0)"
         inkscape:connector-curvature="0" />
    </marker>
    <marker
       inkscape:stockid="Arrow1Lstart"
       orient="auto"
       refY="0"
       refX="0"
       id="Arrow1Lstart"
       style="overflow:visible"
       inkscape:isstock="true">
      <path
         id="path840"
         d="M 0,0 5,-5 -12.5,0 5,5 Z"
         style="fill:#000000;fill-opacity:1;fill-rule:evenodd;stroke:#000000;stroke-width:1.00000003pt;stroke-opacity:1"
         transform="matrix(0.8,0,0,0.8,10,0)"
         inkscape:connector-curvature="0" />
    </marker>
    <radialGradient
       r="66.145836"
       fy="151.34657"
       fx="23.625412"
       cy="151.34657"
       cx="23.625412"
       gradientTransform="matrix(0.82915101,2.0267835e-7,-6.2898116e-8,0.50304445,592.91877,-294.50437)"
       gradientUnits="userSpaceOnUse"
       id="radialGradient2318"
       xlink:href="#linearGradient2283" />
    <linearGradient
       id="linearGradient2283">
      <stop
         id="stop2279"
         offset="0"
         style="stop-color:#faffff;stop-opacity:1" />
      <stop
         id="stop2281"
         offset="1"
         style="stop-color:#c8c8c8;stop-opacity:1" />
    </linearGradient>
    <radialGradient
       gradientTransform="matrix(0.15632952,0,0,0.16198523,49.606353,128.9283)"
       gradientUnits="userSpaceOnUse"
       r="66.145836"
       fy="122.1791"
       fx="0.34650609"
       cy="122.1791"
       cx="0.34650609"
       id="radialGradient2006-2-5"
       xlink:href="#linearGradient2164" />
    <linearGradient
       id="linearGradient2164">
      <stop
         id="stop2160"
         offset="0"
         style="stop-color:#ffffff;stop-opacity:1" />
      <stop
         id="stop2162"
         offset="1"
         style="stop-color:#0000ff;stop-opacity:1" />
    </linearGradient>
    <radialGradient
       gradientTransform="matrix(0.15632952,0,0,0.16198523,65.891753,134.33068)"
       gradientUnits="userSpaceOnUse"
       r="66.145836"
       fy="122.1791"
       fx="0.34650609"
       cy="122.1791"
       cx="0.34650609"
       id="radialGradient2006-7"
       xlink:href="#linearGradient2158" />
    <linearGradient
       id="linearGradient2158">
      <stop
         style="stop-color:#ffffff;stop-opacity:1"
         offset="0"
         id="stop2154" />
      <stop
         style="stop-color:#ff0000;stop-opacity:1"
         offset="1"
         id="stop2156" />
    </linearGradient>
    <radialGradient
       gradientTransform="matrix(0.15632952,0,0,0.16198523,39.17958,143.35624)"
       gradientUnits="userSpaceOnUse"
       r="66.145836"
       fy="122.1791"
       fx="0.34650609"
       cy="122.1791"
       cx="0.34650609"
       id="radialGradient2006-6"
       xlink:href="#linearGradient2158" />
    <radialGradient
       gradientTransform="matrix(0.15632952,0,0,0.16198523,56.409925,149.40386)"
       gradientUnits="userSpaceOnUse"
       r="66.145836"
       fy="122.1791"
       fx="0.34650609"
       cy="122.1791"
       cx="0.34650609"
       id="radialGradient2006-2-6"
       xlink:href="#linearGradient2164" />
    <radialGradient
       gradientTransform="matrix(0.28584759,0,0,0.29618902,626.19226,-263.20808)"
       gradientUnits="userSpaceOnUse"
       r="66.145836"
       fy="122.1791"
       fx="0.34650609"
       cy="122.1791"
       cx="0.34650609"
       id="radialGradient2006-2-8-7"
       xlink:href="#linearGradient2098" />
    <linearGradient
       id="linearGradient2098">
      <stop
         id="stop2094"
         offset="0"
         style="stop-color:#ffffff;stop-opacity:1" />
      <stop
         id="stop2096"
         offset="1"
         style="stop-color:#aa00aa;stop-opacity:1" />
    </linearGradient>
    <marker
       inkscape:stockid="Arrow1Lend"
       orient="auto"
       refY="0"
       refX="0"
       id="Arrow1Lend-3"
       style="overflow:visible"
       inkscape:isstock="true">
      <path
         inkscape:connector-curvature="0"
         id="path843-6"
         d="M 0,0 5,-5 -12.5,0 5,5 Z"
         style="fill:#000000;fill-opacity:1;fill-rule:evenodd;stroke:#000000;stroke-width:1.00000003pt;stroke-opacity:1"
         transform="matrix(-0.8,0,0,-0.8,-10,0)" />
    </marker>
    <clipPath
       clipPathUnits="userSpaceOnUse"
       id="clipPath20">
      <path
         d="M 960,420 H 2930 V 1850 H 960 Z"
         id="path18"
         inkscape:connector-curvature="0" />
    </clipPath>
    <clipPath
       clipPathUnits="userSpaceOnUse"
       id="clipPath20-3">
      <path
         d="M 900,420 H 2930 V 1850 H 900 Z"
         id="path18-5"
         inkscape:connector-curvature="0" />
    </clipPath>
    <radialGradient
       gradientTransform="matrix(0.1011287,0,0,0.10478735,129.33708,277.59046)"
       gradientUnits="userSpaceOnUse"
       r="66.145836"
       fy="122.1791"
       fx="0.34650609"
       cy="122.1791"
       cx="0.34650609"
       id="radialGradient2006-2-5-0"
       xlink:href="#linearGradient2164" />
    <radialGradient
       gradientTransform="matrix(0.1011287,0,0,0.10478735,139.87202,281.08523)"
       gradientUnits="userSpaceOnUse"
       r="66.145836"
       fy="122.1791"
       fx="0.34650609"
       cy="122.1791"
       cx="0.34650609"
       id="radialGradient2006-7-3"
       xlink:href="#linearGradient2158" />
    <radialGradient
       gradientTransform="matrix(0.1011287,0,0,0.10478735,122.59206,286.92382)"
       gradientUnits="userSpaceOnUse"
       r="66.145836"
       fy="122.1791"
       fx="0.34650609"
       cy="122.1791"
       cx="0.34650609"
       id="radialGradient2006-6-4"
       xlink:href="#linearGradient2158" />
    <radialGradient
       gradientTransform="matrix(0.1011287,0,0,0.10478735,133.73827,290.83599)"
       gradientUnits="userSpaceOnUse"
       r="66.145836"
       fy="122.1791"
       fx="0.34650609"
       cy="122.1791"
       cx="0.34650609"
       id="radialGradient2006-2-6-0"
       xlink:href="#linearGradient2164" />
  </defs>
  <sodipodi:namedview
     id="base"
     pagecolor="#ffffff"
     bordercolor="#666666"
     borderopacity="1.0"
     inkscape:pageopacity="0.0"
     inkscape:pageshadow="2"
     inkscape:zoom="2.0000001"
     inkscape:cx="96.675172"
     inkscape:cy="105.92666"
     inkscape:document-units="mm"
     inkscape:current-layer="layer1"
     showgrid="false"
     fit-margin-top="0"
     fit-margin-left="0"
     fit-margin-right="0"
     fit-margin-bottom="0"
     inkscape:window-width="1920"
     inkscape:window-height="1018"
     inkscape:window-x="0"
     inkscape:window-y="0"
     inkscape:window-maximized="1" />
  <metadata
     id="metadata3088">
    <rdf:RDF>
      <cc:Work
         rdf:about="">
        <dc:format>image/svg+xml</dc:format>
        <dc:type
           rdf:resource="http://purl.org/dc/dcmitype/StillImage" />
        <dc:title />
      </cc:Work>
    </rdf:RDF>
  </metadata>
  <g
     inkscape:label="レイヤー 1"
     inkscape:groupmode="layer"
     id="layer1"
     transform="translate(18.603468,-58.907401)">
    <path
       style="fill:none;stroke:#000000;stroke-width:0.45638254;stroke-linecap:butt;stroke-linejoin:miter;stroke-miterlimit:5.44999981;stroke-dasharray:none;stroke-opacity:1;marker-end:url(#Arrow1Lend)"
       d="M -13.243561,132.03616 V 60.55225"
       id="path838"
       inkscape:connector-curvature="0" />
    <path
       style="fill:none;stroke:#000000;stroke-width:0.5;stroke-linecap:butt;stroke-linejoin:miter;stroke-miterlimit:5.44999981;stroke-dasharray:none;stroke-opacity:1;marker-end:url(#Arrow1Lend-3)"
       d="M -18.603468,94.707805 H 67.197123"
       id="path838-7"
       inkscape:connector-curvature="0" />
    <path
       inkscape:connector-curvature="0"
       id="path182"
       style="fill:none;stroke:#000000;stroke-width:0.5;stroke-linecap:butt;stroke-linejoin:miter;stroke-miterlimit:5.44999981;stroke-dasharray:none;stroke-opacity:1"
       d="m -13.161898,112.0455 0.505333,0.0209 h 0.47943 l 0.505334,0.0209 0.479429,0.0395 0.505333,0.0415 0.479445,0.0416 0.5053184,0.0601 0.4794463,0.0602 0.5053157,0.083 0.4794458,0.081 0.505318,0.0808 0.479446,0.10173 0.5053179,0.10173 0.4794451,0.12256 0.5053181,0.1224 0.479445,0.14109 0.505334,0.12257 0.4794293,0.16195 0.5053339,0.16406 0.4794292,0.16178 0.5053339,0.16406 0.4794452,0.18278 0.5053179,0.20346 0.4794452,0.18261 0.50531793,0.22428 0.47944514,0.20344 0.50531801,0.22412 0.47944513,0.22217 0.50531799,0.24495 0.4794452,0.24496 0.505318,0.24284 0.4794451,0.24512 0.505334,0.2635 0.4794291,0.26578 0.505334,0.2845 0.4794291,0.26352 0.5053339,0.28449 0.4794292,0.2658 0.505334,0.28435 0.4794452,0.28432 0.505318,0.28451 0.479445,0.26579 0.5053182,0.28433 0.4794453,0.26369 0.5053173,0.24494 0.4794453,0.24495 0.5053182,0.22217 0.4794458,0.22411 0.505318,0.16407 0.479444,0.16195 0.505334,0.12255 0.47943,0.0601 0.505334,0.0417 0.479429,-0.0417 0.505334,-0.0808 0.479429,-0.16195 0.505334,-0.2658 0.479445,-0.34455 0.505318,-0.44841 0.479446,-0.56884 0.505317,-0.71206 0.479445,-0.83447 0.505318,-0.99658 0.479446,-1.13964 0.505319,-1.30176 0.479444,-1.46564 0.505318,-1.60676 0.479446,-1.771 0.505335,-1.89109 0.479427,-2.01382 0.505335,-2.11749 0.479429,-2.15495 0.505334,-2.219208 0.479428,-2.217197 0.505335,-2.237944 0.479446,-2.156963 0.505316,-2.115474 0.479444,-1.992982 0.505319,-1.872542 0.479445,-1.750074 0.505318,-1.586093 0.479446,-1.444892 0.505319,-1.280922 0.479444,-1.118972 0.505334,-0.977771 0.479429,-0.832522 0.505334,-0.712071 0.479429,-0.591631 0.505333,-0.467122 0.479431,-0.365389 0.505333,-0.286461 0.479446,-0.203439 0.505316,-0.141201 0.479447,-0.08097 0.505318,-0.02075 h 0.479445 l 0.505318,0.0602 0.479445,0.101731 0.505318,0.122481 0.508141,0.143231 0.476622,0.161939 0.508142,0.16195 0.476637,0.203451 0.508126,0.20345 0.476636,0.203451 0.508142,0.2242 0.476623,0.224201 0.50814,0.2242 0.476623,0.224201 0.50814,0.24292 0.476623,0.2242 0.508141,0.2242 0.476621,0.24292 0.508143,0.224201 0.476621,0.2242 0.508142,0.244951 0.476621,0.22217 0.508141,0.224201 0.476622,0.2242 0.508142,0.2242 0.476637,0.20345 0.508125,0.224201 0.476639,0.203451 0.50814,0.222159 0.476622,0.20345 0.508142,0.203451 0.476622,0.20345 0.508142,0.20345 0.476621,0.18473 0.508141,0.203451 0.476622,0.182689 0.508142,0.182701 0.476621,0.182701 0.508141,0.1827 0.476621,0.184731 0.508143,0.18269 0.476637,0.182699 0.508125,0.161951 0.476638,0.163982 0.508125,0.182688 0.476639,0.161951 0.508141,0.163981 0.476621,0.161938 0.508142,0.163982 0.476622,0.1412 0.508141,0.163981 0.476621,0.141189 0.508142,0.163982 0.476622,0.141189 0.508141,0.14323 0.476621,0.141201 0.508142,0.14322 0.476622,0.143231 0.508142,0.1412 0.476637,0.143219 0.508125,0.122481 0.476638,0.141189 0.508125,0.122481 0.476638,0.143231 0.508142,0.120439 0.476621,0.122482 0.508142,0.143219 0.476621,0.122481 0.508142,0.120439 0.476621,0.122481 0.508142,0.101731 0.476622,0.122481 0.508141,0.122481 0.476623,0.122469 0.50814,0.101731 0.476623,0.120439 0.50814,0.101732 0.476638,0.122481 0.508127,0.10173 0.476636,0.101732 0.508141,0.10173 0.476622,0.122481 0.508142,0.101732 0.476622,0.10173 0.50814,0.101732 0.476623,0.10173 0.508141,0.101732 0.476623,0.08097 0.508139,0.101731 0.476623,0.101731 0.508142,0.101731 0.476622,0.08097 0.508141,0.101731 0.476636,0.08305 0.508127,0.10173 0.476639,0.08097 0.508124,0.101731 0.476638,0.08097 0.50814,0.08097 0.476623,0.08097 0.50814,0.101731 0.476623,0.08305 0.508142,0.08097 0.476621,0.08097 0.508141,0.08097" />
    <g
       id="g4243"
       transform="matrix(0.32301632,0,0,0.32301632,-26.247567,-10.993788)"
       inkscape:export-xdpi="450"
       inkscape:export-ydpi="450">
      <circle
         r="8.5561295"
         cy="293.40106"
         cx="131.72302"
         id="path1990-0-8-4"
         style="opacity:1;fill:url(#radialGradient2006-2-5-0);fill-opacity:1;fill-rule:nonzero;stroke:none;stroke-width:0.1711226;stroke-miterlimit:4;stroke-dasharray:none;stroke-dashoffset:0;stroke-opacity:1" />
      <circle
         r="8.5561295"
         cy="296.89581"
         cx="142.25795"
         id="path1990-2-4"
         style="opacity:1;fill:url(#radialGradient2006-7-3);fill-opacity:1;fill-rule:nonzero;stroke:none;stroke-width:0.1711226;stroke-miterlimit:4;stroke-dasharray:none;stroke-dashoffset:0;stroke-opacity:1" />
      <circle
         r="8.5561295"
         cy="302.73441"
         cx="124.978"
         id="path1990-04-9"
         style="opacity:1;fill:url(#radialGradient2006-6-4);fill-opacity:1;fill-rule:nonzero;stroke:none;stroke-width:0.1711226;stroke-miterlimit:4;stroke-dasharray:none;stroke-dashoffset:0;stroke-opacity:1" />
      <circle
         r="8.5561295"
         cy="306.64658"
         cx="136.12421"
         id="path1990-0-7-9"
         style="opacity:1;fill:url(#radialGradient2006-2-6-0);fill-opacity:1;fill-rule:nonzero;stroke:none;stroke-width:0.1711226;stroke-miterlimit:4;stroke-dasharray:none;stroke-dashoffset:0;stroke-opacity:1" />
    </g>
    <path
       style="fill:none;stroke:#000000;stroke-width:0.35800001;stroke-linecap:butt;stroke-linejoin:miter;stroke-miterlimit:4;stroke-dasharray:none;stroke-opacity:1;marker-start:url(#Arrow1Lstart)"
       d="M 79.212691,85.825255 H 16.616007"
       id="path916"
       inkscape:connector-curvature="0" />
    <text
       xml:space="preserve"
       style="font-style:normal;font-variant:normal;font-weight:normal;font-stretch:normal;font-size:6.99124193px;line-height:1.25;font-family:'Times New Roman';-inkscape-font-specification:'Times New Roman, Normal';font-variant-ligatures:normal;font-variant-caps:normal;font-variant-numeric:normal;text-align:start;letter-spacing:0px;word-spacing:0px;writing-mode:lr-tb;text-anchor:start;fill:#000000;fill-opacity:1;stroke:none;stroke-width:0.17478105"
       x="35.019405"
       y="91.863853"
       id="text946"><tspan
         sodipodi:role="line"
         id="tspan944"
         x="35.019405"
         y="91.863853"
         style="stroke-width:0.17478105">decay</tspan></text>
  </g>
</svg>
