<?xml version="1.0" encoding="UTF-8" standalone="no"?>
<!-- Created with Inkscape (http://www.inkscape.org/) -->

<svg
   xmlns:dc="http://purl.org/dc/elements/1.1/"
   xmlns:cc="http://creativecommons.org/ns#"
   xmlns:rdf="http://www.w3.org/1999/02/22-rdf-syntax-ns#"
   xmlns:svg="http://www.w3.org/2000/svg"
   xmlns="http://www.w3.org/2000/svg"
   xmlns:sodipodi="http://sodipodi.sourceforge.net/DTD/sodipodi-0.dtd"
   xmlns:inkscape="http://www.inkscape.org/namespaces/inkscape"
   version="1.1"
   id="svg2"
   xml:space="preserve"
   width="302.61734"
   height="222.61703"
   viewBox="0 0 302.61733 222.61703"
   sodipodi:docname="shell_evolution.svg"
   inkscape:version="0.92.5 (2060ec1f9f, 2020-04-08)"><metadata
     id="metadata8"><rdf:RDF><cc:Work
         rdf:about=""><dc:format>image/svg+xml</dc:format><dc:type
           rdf:resource="http://purl.org/dc/dcmitype/StillImage" /><dc:title /></cc:Work></rdf:RDF></metadata><defs
     id="defs6"><clipPath
       clipPathUnits="userSpaceOnUse"
       id="clipPath66"><path
         d="m 291.912,479.338 h 33.562 v -12.359 h -33.562"
         id="path64"
         inkscape:connector-curvature="0" /></clipPath><clipPath
       clipPathUnits="userSpaceOnUse"
       id="clipPath94"><path
         d="m 403.483,479.565 h 21.09 V 468.17 h -21.09"
         id="path92"
         inkscape:connector-curvature="0" /></clipPath><clipPath
       clipPathUnits="userSpaceOnUse"
       id="clipPath344"><path
         d="m 182.778,341.858 h 20.636 v -12.359 h -20.636"
         id="path342"
         inkscape:connector-curvature="0" /></clipPath><clipPath
       clipPathUnits="userSpaceOnUse"
       id="clipPath372"><path
         d="m 227.395,341.858 h 20.353 v -12.416 h -20.353"
         id="path370"
         inkscape:connector-curvature="0" /></clipPath><clipPath
       clipPathUnits="userSpaceOnUse"
       id="clipPath462"><path
         d="m 237.6,316.743 h 20.353 V 304.328 H 237.6"
         id="path460"
         inkscape:connector-curvature="0" /></clipPath><clipPath
       clipPathUnits="userSpaceOnUse"
       id="clipPath538"><path
         d="m 128.863,291.401 h 7.597 v -11.225 h -7.597"
         id="path536"
         inkscape:connector-curvature="0" /></clipPath><clipPath
       clipPathUnits="userSpaceOnUse"
       id="clipPath620"><path
         d="m 207.383,253.984 h 52.554 v -12.359 h -52.554"
         id="path618"
         inkscape:connector-curvature="0" /></clipPath><clipPath
       clipPathUnits="userSpaceOnUse"
       id="clipPath974"><path
         d="M 158.851,741.035 H 403.05 V 573.121 H 158.851 Z"
         id="path972"
         inkscape:connector-curvature="0" /></clipPath></defs><sodipodi:namedview
     pagecolor="#ffffff"
     bordercolor="#666666"
     borderopacity="1"
     objecttolerance="10"
     gridtolerance="10"
     guidetolerance="10"
     inkscape:pageopacity="0"
     inkscape:pageshadow="2"
     inkscape:window-width="2560"
     inkscape:window-height="1378"
     id="namedview4"
     showgrid="false"
     inkscape:zoom="1.6819299"
     inkscape:cx="267.0445"
     inkscape:cy="36.734781"
     inkscape:window-x="0"
     inkscape:window-y="0"
     inkscape:window-maximized="1"
     inkscape:current-layer="g10"
     fit-margin-top="0"
     fit-margin-left="0"
     fit-margin-right="0"
     fit-margin-bottom="0" /><g
     id="g10"
     inkscape:groupmode="layer"
     inkscape:label="Otsuka_2016_J._Phys._G__Nucl._Part._Phys._43_024009"
     transform="matrix(1.3333333,0,0,-1.3333333,-224.55333,964.66931)"><g
   id="g1019"><g
     transform="translate(221.693,633.006)"
     id="g820"><path
       inkscape:connector-curvature="0"
       id="path822"
       style="fill:none;stroke:#231f20;stroke-width:0.852;stroke-linecap:butt;stroke-linejoin:miter;stroke-miterlimit:10;stroke-dasharray:none;stroke-opacity:1"
       d="M 0,0 H 37.083" /><g
       transform="translate(-53.278,-20.033)"
       id="g824"><path
         inkscape:connector-curvature="0"
         id="path826"
         style="fill:none;stroke:#231f20;stroke-width:0.852;stroke-linecap:butt;stroke-linejoin:miter;stroke-miterlimit:10;stroke-dasharray:none;stroke-opacity:1"
         d="M 0,0 H 39.427" /><g
         transform="translate(112.238,0.426)"
         id="g828"><path
           inkscape:connector-curvature="0"
           id="path830"
           style="fill:none;stroke:#231f20;stroke-width:0.852;stroke-linecap:butt;stroke-linejoin:miter;stroke-miterlimit:10;stroke-dasharray:none;stroke-opacity:1"
           d="M 0,0 H 42.056" /></g></g></g><g
     transform="translate(222.119,651.333)"
     id="g832"><path
       inkscape:connector-curvature="0"
       id="path834"
       style="fill:none;stroke:#ed1c24;stroke-width:1.27900004;stroke-linecap:butt;stroke-linejoin:miter;stroke-miterlimit:10;stroke-dasharray:none;stroke-opacity:1"
       d="M 0,0 H 37.084" /></g><g
     transform="translate(222.545,671.792)"
     id="g836"><path
       inkscape:connector-curvature="0"
       id="path838"
       style="fill:none;stroke:#231f20;stroke-width:0.852;stroke-linecap:butt;stroke-linejoin:miter;stroke-miterlimit:10;stroke-dasharray:none;stroke-opacity:1"
       d="M 0,0 H 37.083" /><g
       transform="translate(112.949,-37.508)"
       id="g840"><path
         inkscape:connector-curvature="0"
         id="path842"
         style="fill:none;stroke:#231f20;stroke-width:0.852;stroke-linecap:butt;stroke-linejoin:miter;stroke-miterlimit:10;stroke-dasharray:none;stroke-opacity:1"
         d="M 0,0 H 37.083" /><g
         transform="translate(1.704,36.655)"
         id="g844"><path
           inkscape:connector-curvature="0"
           id="path846"
           style="fill:none;stroke:#231f20;stroke-width:0.852;stroke-linecap:butt;stroke-linejoin:miter;stroke-miterlimit:10;stroke-dasharray:none;stroke-opacity:1"
           d="M 0,0 H 37.084" /></g></g></g><g
     transform="translate(337.625,713.135)"
     id="g848"><path
       inkscape:connector-curvature="0"
       id="path850"
       style="fill:none;stroke:#ed1c24;stroke-width:1.27900004;stroke-linecap:butt;stroke-linejoin:miter;stroke-miterlimit:10;stroke-dasharray:none;stroke-opacity:1"
       d="M 0,0 H 37.083" /></g><g
     transform="translate(264.95,652.925)"
     id="g852"><path
       inkscape:connector-curvature="0"
       id="path854"
       style="fill:none;stroke:#ed1c24;stroke-width:0.852;stroke-linecap:butt;stroke-linejoin:miter;stroke-miterlimit:10;stroke-dasharray:none;stroke-opacity:1"
       d="M 0,0 67.568,56.697" /><g
       transform="translate(65.582,51.899)"
       id="g856"><path
         inkscape:connector-curvature="0"
         id="path858"
         style="fill:none;stroke:#ed1c24;stroke-width:0.852;stroke-linecap:butt;stroke-linejoin:miter;stroke-miterlimit:10;stroke-dasharray:none;stroke-opacity:1"
         d="M 0,0 1.877,4.798" /><g
         transform="translate(-3.246,3.524)"
         id="g860"><path
           inkscape:connector-curvature="0"
           id="path862"
           style="fill:none;stroke:#ed1c24;stroke-width:0.852;stroke-linecap:butt;stroke-linejoin:miter;stroke-miterlimit:10;stroke-dasharray:none;stroke-opacity:1"
           d="M 0,0 5.052,1.015" /></g></g></g><g
     transform="translate(174.88,613.186)"
     id="g864"><path
       inkscape:connector-curvature="0"
       id="path866"
       style="fill:#1b75bc;fill-opacity:1;fill-rule:nonzero;stroke:none"
       d="M 0,0 C 0,1.001 0.811,1.812 1.812,1.812 2.813,1.812 3.624,1.001 3.624,0 3.624,-1.001 2.813,-1.812 1.812,-1.812 0.811,-1.812 0,-1.001 0,0" /></g><g
     transform="translate(169.765,613.186)"
     id="g868"><path
       inkscape:connector-curvature="0"
       id="path870"
       style="fill:#1b75bc;fill-opacity:1;fill-rule:nonzero;stroke:none"
       d="m 0,0 c 0,1.001 0.811,1.812 1.813,1.812 1,0 1.812,-0.811 1.812,-1.812 0,-1.001 -0.812,-1.812 -1.812,-1.812 C 0.811,-1.812 0,-1.001 0,0" /></g><g
     transform="translate(203.258,613.186)"
     id="g872"><path
       inkscape:connector-curvature="0"
       id="path874"
       style="fill:#1b75bc;fill-opacity:1;fill-rule:nonzero;stroke:none"
       d="M 0,0 C 0,1.001 0.811,1.812 1.812,1.812 2.813,1.812 3.624,1.001 3.624,0 3.624,-1.001 2.813,-1.812 1.812,-1.812 0.811,-1.812 0,-1.001 0,0" /></g><g
     transform="translate(198.57,613.186)"
     id="g876"><path
       inkscape:connector-curvature="0"
       id="path878"
       style="fill:#1b75bc;fill-opacity:1;fill-rule:nonzero;stroke:none"
       d="M 0,0 C 0,1.001 0.811,1.812 1.812,1.812 2.813,1.812 3.624,1.001 3.624,0 3.624,-1.001 2.813,-1.812 1.812,-1.812 0.811,-1.812 0,-1.001 0,0" /></g><g
     transform="translate(194.094,613.186)"
     id="g880"><path
       inkscape:connector-curvature="0"
       id="path882"
       style="fill:#1b75bc;fill-opacity:1;fill-rule:nonzero;stroke:none"
       d="m 0,0 c 0,1.001 0.811,1.812 1.813,1.812 1,0 1.812,-0.811 1.812,-1.812 0,-1.001 -0.812,-1.812 -1.812,-1.812 C 0.811,-1.812 0,-1.001 0,0" /></g><g
     transform="translate(188.979,613.186)"
     id="g884"><path
       inkscape:connector-curvature="0"
       id="path886"
       style="fill:#1b75bc;fill-opacity:1;fill-rule:nonzero;stroke:none"
       d="M 0,0 C 0,1.001 0.811,1.812 1.813,1.812 2.814,1.812 3.625,1.001 3.625,0 3.625,-1.001 2.814,-1.812 1.813,-1.812 0.811,-1.812 0,-1.001 0,0" /></g><g
     transform="translate(184.433,613.186)"
     id="g888"><path
       inkscape:connector-curvature="0"
       id="path890"
       style="fill:#1b75bc;fill-opacity:1;fill-rule:nonzero;stroke:none"
       d="m 0,0 c 0,1.001 0.812,1.812 1.813,1.812 1,0 1.812,-0.811 1.812,-1.812 0,-1.001 -0.812,-1.812 -1.812,-1.812 C 0.812,-1.812 0,-1.001 0,0" /></g><g
     transform="translate(179.816,613.186)"
     id="g892"><path
       inkscape:connector-curvature="0"
       id="path894"
       style="fill:#1b75bc;fill-opacity:1;fill-rule:nonzero;stroke:none"
       d="m 0,0 c 0,1.001 0.812,1.812 1.813,1.812 1,0 1.812,-0.811 1.812,-1.812 0,-1.001 -0.812,-1.812 -1.812,-1.812 C 0.812,-1.812 0,-1.001 0,0" /></g><g
     transform="translate(192.776,614.083)"
     id="g896"><path
       inkscape:connector-curvature="0"
       id="path898"
       style="fill:none;stroke:#050100;stroke-width:0.426;stroke-linecap:butt;stroke-linejoin:miter;stroke-miterlimit:10;stroke-dasharray:none;stroke-opacity:1"
       d="m 0,0 c -0.017,0.472 -0.027,0.94 0.006,1.432 0.015,0.235 0.087,0.476 0.182,0.725 0.076,0.199 0.291,0.509 0.51,0.613 1.021,0.486 1.94,0.293 2.814,0.272 0.73,-0.017 2.34,-0.059 2.542,1.287 0.151,1.007 0.034,1.898 0.045,2.85 0.005,0.436 0.051,0.969 0.423,1.445 0.392,0.499 1.059,0.528 1.475,0.562 0.934,0.077 1.754,-0.152 2.721,0.011 0.248,0.042 0.513,0.08 0.773,0.246 0.302,0.195 0.425,0.382 0.58,0.682 0.123,0.238 0.133,0.525 0.159,0.744 0.027,0.218 0.03,0.43 0.026,0.635 -0.012,0.494 -0.034,0.982 -0.047,1.477 -0.009,0.385 -0.029,0.943 0.202,1.391 0.16,0.31 0.296,0.477 0.604,0.676 0.25,0.159 0.537,0.186 0.772,0.225 0.493,0.083 0.958,0.039 1.41,0.021 0.429,-0.018 0.858,-0.049 1.311,-0.012 0.443,0.036 1.061,0.083 1.467,0.6 0.32,0.408 0.348,0.847 0.382,1.231 0.033,0.382 0.01,0.744 -0.002,1.106" /><g
       transform="translate(18.116,17.841)"
       id="g900"><path
         inkscape:connector-curvature="0"
         id="path902"
         style="fill:none;stroke:#050100;stroke-width:0.426;stroke-linecap:butt;stroke-linejoin:miter;stroke-miterlimit:10;stroke-dasharray:none;stroke-opacity:1"
         d="M 0,0 C -0.018,0.471 -0.027,0.94 0.006,1.433 0.021,1.667 0.092,1.908 0.188,2.158 0.264,2.357 0.478,2.666 0.697,2.771 1.718,3.256 2.638,3.063 3.511,3.043 4.242,3.025 5.852,2.984 6.053,4.33 6.205,5.336 6.087,6.227 6.098,7.178 6.103,7.615 6.149,8.149 6.522,8.625 6.914,9.123 7.581,9.153 7.996,9.187 8.93,9.263 9.75,9.035 10.718,9.198 c 0.247,0.041 0.513,0.079 0.773,0.246 0.301,0.193 0.425,0.382 0.579,0.681 0.123,0.238 0.134,0.525 0.16,0.745 0.027,0.218 0.03,0.429 0.026,0.635 -0.013,0.494 -0.035,0.982 -0.047,1.477 -0.01,0.385 -0.03,0.941 0.201,1.39 0.161,0.311 0.297,0.478 0.604,0.675 0.25,0.161 0.537,0.187 0.772,0.227 0.494,0.083 0.959,0.039 1.411,0.02 0.429,-0.017 0.857,-0.049 1.31,-0.012 0.443,0.036 1.062,0.083 1.467,0.599 0.321,0.409 0.349,0.849 0.382,1.233 0.034,0.381 0.011,0.743 -0.002,1.105" /></g></g><g
     transform="translate(209.273,605.464)"
     id="g904"><path
       inkscape:connector-curvature="0"
       id="path906"
       style="fill:#231f20;fill-opacity:1;fill-rule:nonzero;stroke:none"
       d="M 0,0 H 0.295 C 0.43,0 0.546,-0.018 0.626,-0.063 0.689,-0.09 0.788,-0.188 0.931,-0.34 l 0.071,-0.081 v -4.376 c 0,-0.277 -0.089,-0.51 -0.268,-0.698 C 0.555,-5.683 0.304,-5.79 0,-5.799 V -6.13 h 2.461 v 0.331 c -0.376,0.009 -0.645,0.098 -0.824,0.268 -0.179,0.17 -0.268,0.439 -0.268,0.788 v 3.911 L 5.414,-6.13 h 0.402 v 5.128 c 0,0.206 0.045,0.385 0.126,0.554 0.089,0.17 0.188,0.287 0.295,0.349 C 6.353,-0.036 6.524,0 6.756,0 V 0.331 H 4.51 V 0 C 4.814,-0.009 5.047,-0.09 5.199,-0.251 5.37,-0.43 5.45,-0.707 5.45,-1.074 V -4.752 L 1.539,0.331 H 0 Z M 7.958,0.259 C 7.859,0.161 7.806,0.045 7.806,-0.08 c 0,-0.135 0.044,-0.251 0.143,-0.35 0.098,-0.098 0.214,-0.144 0.349,-0.144 0.135,0 0.251,0.046 0.349,0.144 0.099,0.099 0.143,0.215 0.143,0.34 0,0.135 -0.053,0.251 -0.152,0.349 C 8.54,0.358 8.423,0.412 8.298,0.412 8.163,0.412 8.056,0.358 7.958,0.259 M 7.152,-2.363 h 0.341 c 0.178,0 0.322,-0.044 0.411,-0.126 0.098,-0.08 0.143,-0.205 0.143,-0.366 V -5.432 C 8.047,-5.549 8.02,-5.648 7.958,-5.71 7.895,-5.772 7.806,-5.799 7.671,-5.799 H 7.242 V -6.13 h 2.336 v 0.331 H 9.112 c -0.098,0 -0.188,0.027 -0.251,0.089 -0.044,0.036 -0.071,0.107 -0.071,0.206 v 3.517 L 7.152,-2.032 Z M 118.61,0.322 c -0.268,0.099 -0.536,0.144 -0.815,0.144 -0.5,0 -0.966,-0.144 -1.404,-0.43 -0.43,-0.277 -0.788,-0.707 -1.064,-1.271 -0.278,-0.564 -0.421,-1.164 -0.421,-1.808 0,-0.608 0.133,-1.163 0.402,-1.673 0.269,-0.511 0.636,-0.896 1.083,-1.172 0.447,-0.269 0.949,-0.403 1.485,-0.403 0.662,0 1.217,0.206 1.657,0.617 0.428,0.421 0.697,1.012 0.787,1.781 h -0.314 c -0.107,-0.681 -0.34,-1.19 -0.697,-1.521 -0.35,-0.34 -0.797,-0.51 -1.316,-0.51 -0.599,0 -1.065,0.214 -1.406,0.643 -0.384,0.511 -0.581,1.254 -0.581,2.22 0,1.154 0.17,1.978 0.51,2.461 0.34,0.484 0.788,0.726 1.324,0.726 0.502,0 0.931,-0.216 1.298,-0.654 0.287,-0.349 0.537,-0.885 0.726,-1.62 h 0.295 l -0.126,2.605 h -0.277 L 119.47,-0.17 c -0.313,0.232 -0.601,0.403 -0.86,0.492 m 6.401,-6.139 c -0.107,0 -0.188,0.045 -0.251,0.143 -0.062,0.099 -0.099,0.242 -0.099,0.438 v 2.238 c 0,0.295 -0.125,0.554 -0.384,0.769 -0.259,0.206 -0.626,0.314 -1.118,0.314 -0.529,0 -0.95,-0.117 -1.28,-0.359 -0.322,-0.241 -0.483,-0.501 -0.483,-0.796 0,-0.152 0.045,-0.277 0.142,-0.376 0.099,-0.097 0.225,-0.151 0.368,-0.151 0.134,0 0.241,0.044 0.331,0.125 0.08,0.08 0.125,0.188 0.125,0.321 0,0.09 -0.045,0.198 -0.125,0.314 -0.073,0.09 -0.108,0.161 -0.108,0.206 0,0.071 0.063,0.152 0.198,0.224 0.178,0.107 0.402,0.161 0.652,0.161 0.268,0 0.502,-0.081 0.672,-0.233 0.178,-0.161 0.268,-0.349 0.268,-0.564 V -3.66 c -0.823,-0.089 -1.485,-0.278 -1.986,-0.564 -0.492,-0.277 -0.743,-0.636 -0.743,-1.057 0,-0.286 0.107,-0.518 0.322,-0.697 0.224,-0.179 0.537,-0.268 0.957,-0.268 0.296,0 0.546,0.045 0.752,0.143 0.206,0.098 0.447,0.295 0.726,0.59 0.097,-0.277 0.223,-0.465 0.357,-0.572 0.134,-0.108 0.304,-0.161 0.501,-0.161 0.269,0 0.501,0.107 0.716,0.331 l -0.161,0.241 c -0.125,-0.098 -0.241,-0.143 -0.349,-0.143 m -1.092,1.288 c 0,-0.393 -0.125,-0.724 -0.376,-0.984 -0.251,-0.259 -0.546,-0.394 -0.885,-0.394 -0.198,0 -0.35,0.063 -0.466,0.188 -0.116,0.126 -0.179,0.305 -0.179,0.528 0,0.323 0.116,0.573 0.34,0.743 0.313,0.233 0.833,0.403 1.566,0.501 v -0.582" /></g><g
     transform="translate(175.465,591.341)"
     id="g908"><path
       inkscape:connector-curvature="0"
       id="path910"
       style="fill:#231f20;fill-opacity:1;fill-rule:nonzero;stroke:none"
       d="m 0,0 v -0.253 c 0.246,-0.008 0.407,-0.046 0.491,-0.115 0.085,-0.078 0.123,-0.201 0.123,-0.37 v -3.69 C 0.614,-4.505 0.583,-4.575 0.522,-4.62 0.468,-4.666 0.376,-4.69 0.253,-4.69 H 0 V -4.958 H 1.872 V -4.69 H 1.62 c -0.123,0 -0.215,0.031 -0.284,0.093 -0.054,0.046 -0.077,0.122 -0.077,0.23 v 1.419 c 0.138,-0.221 0.291,-0.391 0.468,-0.498 0.176,-0.115 0.376,-0.17 0.599,-0.17 0.383,0 0.713,0.155 0.989,0.454 0.331,0.353 0.499,0.821 0.499,1.389 0,0.361 -0.068,0.683 -0.199,0.967 C 3.476,-0.522 3.3,-0.307 3.078,-0.161 2.863,-0.016 2.633,0.061 2.395,0.061 2.172,0.061 1.965,0.007 1.781,-0.108 1.589,-0.223 1.405,-0.414 1.236,-0.683 1.229,-0.446 1.19,-0.2 1.136,0.061 Z m 2.855,-0.622 c 0.161,-0.231 0.246,-0.621 0.246,-1.166 0,-0.523 -0.092,-0.921 -0.277,-1.19 -0.138,-0.207 -0.337,-0.307 -0.606,-0.307 -0.284,0 -0.514,0.123 -0.691,0.361 -0.184,0.237 -0.276,0.613 -0.276,1.12 0,0.499 0.092,0.875 0.284,1.144 0.184,0.26 0.414,0.391 0.691,0.391 0.253,0 0.46,-0.115 0.629,-0.353 m 1.511,0.353 h 0.306 c 0.138,0 0.238,-0.038 0.315,-0.115 0.07,-0.084 0.108,-0.207 0.108,-0.376 v -2.233 c 0,-0.07 -0.031,-0.123 -0.092,-0.169 -0.062,-0.046 -0.147,-0.07 -0.261,-0.07 H 4.389 v -0.283 h 2.187 v 0.283 H 6.131 c -0.146,0 -0.246,0.024 -0.307,0.07 -0.062,0.046 -0.092,0.107 -0.092,0.192 v 0.752 c 0,0.276 0.076,0.637 0.222,1.09 0.1,0.299 0.238,0.529 0.414,0.69 0.131,0.123 0.246,0.185 0.354,0.185 0.045,0 0.069,-0.024 0.069,-0.062 0,-0.008 -0.016,-0.046 -0.054,-0.115 -0.038,-0.069 -0.061,-0.146 -0.061,-0.23 0,-0.124 0.03,-0.231 0.099,-0.3 0.07,-0.076 0.161,-0.115 0.277,-0.115 0.114,0 0.207,0.046 0.283,0.13 0.077,0.085 0.116,0.207 0.116,0.369 0,0.192 -0.054,0.345 -0.169,0.46 C 7.166,0 7.013,0.061 6.822,0.061 6.545,0.061 6.307,-0.062 6.123,-0.299 5.931,-0.537 5.77,-0.891 5.632,-1.359 v 1.42 L 4.366,0 Z M 8.317,-0.414 C 8.002,-0.76 7.841,-1.205 7.841,-1.758 c 0,-0.553 0.161,-0.997 0.476,-1.343 0.315,-0.345 0.699,-0.515 1.159,-0.515 0.307,0 0.591,0.078 0.859,0.239 0.261,0.154 0.468,0.368 0.614,0.636 0.146,0.277 0.215,0.6 0.215,0.983 0,0.56 -0.161,1.006 -0.483,1.344 -0.323,0.344 -0.714,0.513 -1.19,0.513 -0.468,0 -0.859,-0.169 -1.174,-0.513 m 1.888,-0.116 c 0.176,-0.246 0.269,-0.636 0.269,-1.174 0,-0.583 -0.093,-0.997 -0.269,-1.258 -0.184,-0.254 -0.422,-0.384 -0.714,-0.384 -0.284,0 -0.514,0.13 -0.691,0.384 -0.176,0.261 -0.268,0.659 -0.268,1.219 0,0.545 0.092,0.944 0.268,1.198 0.184,0.253 0.415,0.376 0.691,0.376 0.299,0 0.537,-0.123 0.714,-0.361 m 2.04,0.798 C 12.099,0.084 11.884,-0.038 11.601,-0.084 v -0.262 h 0.613 v -2.363 c 0,-0.253 0.085,-0.46 0.246,-0.621 0.161,-0.162 0.391,-0.239 0.682,-0.239 0.308,0 0.569,0.116 0.769,0.337 0.191,0.231 0.299,0.576 0.314,1.044 h -0.253 c -0.023,-0.36 -0.092,-0.621 -0.207,-0.782 -0.116,-0.161 -0.262,-0.238 -0.431,-0.238 -0.138,0 -0.253,0.053 -0.345,0.153 -0.092,0.107 -0.138,0.254 -0.138,0.453 v 2.256 h 1.136 V 0 H 12.851 V 1.427 H 12.598 C 12.582,0.928 12.46,0.545 12.245,0.268 m 2.893,-0.682 c -0.315,-0.346 -0.476,-0.791 -0.476,-1.344 0,-0.553 0.161,-0.997 0.476,-1.343 0.314,-0.345 0.698,-0.515 1.158,-0.515 0.307,0 0.591,0.078 0.86,0.239 0.26,0.154 0.467,0.368 0.613,0.636 0.146,0.277 0.216,0.6 0.216,0.983 0,0.56 -0.162,1.006 -0.484,1.344 -0.322,0.344 -0.713,0.513 -1.19,0.513 -0.467,0 -0.859,-0.169 -1.173,-0.513 m 1.887,-0.116 c 0.177,-0.246 0.269,-0.636 0.269,-1.174 0,-0.583 -0.092,-0.997 -0.269,-1.258 -0.184,-0.254 -0.422,-0.384 -0.714,-0.384 -0.284,0 -0.514,0.13 -0.69,0.384 -0.177,0.261 -0.269,0.659 -0.269,1.219 0,0.545 0.092,0.944 0.269,1.198 0.184,0.253 0.414,0.376 0.69,0.376 0.3,0 0.538,-0.123 0.714,-0.361 m 1.465,0.291 h 0.176 c 0.154,0 0.277,-0.038 0.353,-0.114 0.085,-0.077 0.123,-0.192 0.123,-0.346 V -2.97 c 0,-0.077 -0.03,-0.139 -0.092,-0.185 -0.069,-0.053 -0.161,-0.077 -0.276,-0.077 h -0.246 v -0.283 h 1.858 v 0.283 h -0.247 c -0.13,0 -0.229,0.024 -0.291,0.077 -0.054,0.054 -0.084,0.146 -0.084,0.277 v 1.297 c 0,0.368 0.092,0.66 0.284,0.89 0.184,0.223 0.422,0.338 0.706,0.338 0.284,0 0.491,-0.115 0.637,-0.338 0.099,-0.154 0.145,-0.399 0.145,-0.721 v -1.504 c 0,-0.108 -0.03,-0.185 -0.1,-0.239 -0.061,-0.053 -0.176,-0.077 -0.337,-0.077 h -0.176 v -0.283 h 1.849 v 0.283 h -0.246 c -0.138,0 -0.23,0.024 -0.291,0.077 -0.054,0.054 -0.084,0.146 -0.084,0.277 v 1.703 c 0,0.246 -0.047,0.469 -0.146,0.669 -0.093,0.199 -0.215,0.337 -0.377,0.429 -0.153,0.092 -0.353,0.138 -0.583,0.138 -0.268,0 -0.514,-0.061 -0.721,-0.192 -0.215,-0.13 -0.399,-0.322 -0.56,-0.575 -0.023,0.299 -0.062,0.552 -0.108,0.775 L 18.49,0.007 Z M 114.654,0 v -0.253 c 0.246,-0.008 0.407,-0.046 0.491,-0.115 0.085,-0.078 0.123,-0.201 0.123,-0.37 v -3.69 c 0,-0.077 -0.03,-0.147 -0.091,-0.192 -0.054,-0.046 -0.147,-0.07 -0.27,-0.07 h -0.253 v -0.268 h 1.873 v 0.268 h -0.254 c -0.122,0 -0.215,0.031 -0.283,0.093 -0.054,0.046 -0.077,0.122 -0.077,0.23 v 1.419 c 0.139,-0.221 0.291,-0.391 0.468,-0.498 0.176,-0.115 0.377,-0.17 0.599,-0.17 0.384,0 0.713,0.155 0.989,0.454 0.331,0.353 0.5,0.821 0.5,1.389 0,0.361 -0.07,0.683 -0.2,0.967 -0.137,0.284 -0.315,0.499 -0.538,0.645 -0.215,0.145 -0.444,0.222 -0.682,0.222 -0.223,0 -0.43,-0.054 -0.615,-0.169 -0.191,-0.115 -0.376,-0.306 -0.544,-0.575 -0.007,0.237 -0.046,0.483 -0.1,0.744 z m 2.856,-0.622 c 0.161,-0.231 0.245,-0.621 0.245,-1.166 0,-0.523 -0.092,-0.921 -0.277,-1.19 -0.137,-0.207 -0.337,-0.307 -0.605,-0.307 -0.284,0 -0.515,0.123 -0.692,0.361 -0.183,0.237 -0.276,0.613 -0.276,1.12 0,0.499 0.093,0.875 0.284,1.144 0.185,0.26 0.414,0.391 0.692,0.391 0.253,0 0.46,-0.115 0.629,-0.353 m 1.509,0.353 h 0.308 c 0.138,0 0.238,-0.038 0.314,-0.115 0.07,-0.084 0.108,-0.207 0.108,-0.376 v -2.233 c 0,-0.07 -0.03,-0.123 -0.092,-0.169 -0.062,-0.046 -0.146,-0.07 -0.262,-0.07 h -0.352 v -0.283 h 2.187 v 0.283 h -0.445 c -0.146,0 -0.245,0.024 -0.307,0.07 -0.061,0.046 -0.092,0.107 -0.092,0.192 v 0.752 c 0,0.276 0.077,0.637 0.222,1.09 0.1,0.299 0.238,0.529 0.415,0.69 0.13,0.123 0.245,0.185 0.353,0.185 0.046,0 0.069,-0.024 0.069,-0.062 0,-0.008 -0.016,-0.046 -0.054,-0.115 -0.039,-0.069 -0.061,-0.146 -0.061,-0.23 0,-0.124 0.031,-0.231 0.099,-0.3 0.07,-0.076 0.162,-0.115 0.277,-0.115 0.115,0 0.207,0.046 0.284,0.13 0.076,0.085 0.115,0.207 0.115,0.369 0,0.192 -0.053,0.345 -0.169,0.46 -0.115,0.116 -0.268,0.177 -0.461,0.177 -0.275,0 -0.513,-0.123 -0.698,-0.36 -0.192,-0.238 -0.352,-0.592 -0.491,-1.06 v 1.42 L 119.019,0 Z m 3.952,-0.145 c -0.315,-0.346 -0.476,-0.791 -0.476,-1.344 0,-0.553 0.161,-0.997 0.476,-1.343 0.315,-0.345 0.699,-0.515 1.159,-0.515 0.307,0 0.59,0.078 0.859,0.239 0.262,0.154 0.468,0.368 0.614,0.636 0.146,0.277 0.215,0.6 0.215,0.983 0,0.56 -0.161,1.006 -0.483,1.344 -0.323,0.344 -0.714,0.513 -1.19,0.513 -0.468,0 -0.859,-0.169 -1.174,-0.513 m 1.888,-0.116 c 0.177,-0.246 0.269,-0.636 0.269,-1.174 0,-0.583 -0.092,-0.997 -0.269,-1.258 -0.184,-0.254 -0.422,-0.384 -0.714,-0.384 -0.284,0 -0.513,0.13 -0.69,0.384 -0.177,0.261 -0.269,0.659 -0.269,1.219 0,0.545 0.092,0.944 0.269,1.198 0.183,0.253 0.414,0.376 0.69,0.376 0.299,0 0.537,-0.123 0.714,-0.361 m 2.04,0.798 c -0.145,-0.184 -0.361,-0.306 -0.644,-0.352 v -0.262 h 0.614 v -2.363 c 0,-0.253 0.084,-0.46 0.245,-0.621 0.161,-0.162 0.392,-0.239 0.683,-0.239 0.306,0 0.568,0.116 0.767,0.337 0.193,0.231 0.3,0.576 0.315,1.044 h -0.253 c -0.023,-0.36 -0.092,-0.621 -0.207,-0.782 -0.116,-0.161 -0.261,-0.238 -0.43,-0.238 -0.139,0 -0.253,0.053 -0.346,0.153 -0.091,0.107 -0.137,0.254 -0.137,0.453 v 2.256 h 1.135 V 0 h -1.135 v 1.427 h -0.253 c -0.016,-0.499 -0.139,-0.882 -0.354,-1.159 m 2.893,-0.682 c -0.316,-0.346 -0.476,-0.791 -0.476,-1.344 0,-0.553 0.16,-0.997 0.476,-1.343 0.314,-0.345 0.698,-0.515 1.158,-0.515 0.308,0 0.592,0.078 0.859,0.239 0.261,0.154 0.469,0.368 0.615,0.636 0.146,0.277 0.215,0.6 0.215,0.983 0,0.56 -0.161,1.006 -0.484,1.344 -0.322,0.344 -0.715,0.513 -1.189,0.513 -0.468,0 -0.86,-0.169 -1.174,-0.513 m 1.886,-0.116 c 0.177,-0.246 0.27,-0.636 0.27,-1.174 0,-0.583 -0.093,-0.997 -0.27,-1.258 -0.183,-0.254 -0.42,-0.384 -0.712,-0.384 -0.285,0 -0.514,0.13 -0.691,0.384 -0.177,0.261 -0.268,0.659 -0.268,1.219 0,0.545 0.091,0.944 0.268,1.198 0.184,0.253 0.414,0.376 0.691,0.376 0.299,0 0.537,-0.123 0.712,-0.361 m 1.465,0.291 h 0.177 c 0.154,0 0.276,-0.038 0.353,-0.114 0.086,-0.077 0.124,-0.192 0.124,-0.346 V -2.97 c 0,-0.077 -0.033,-0.139 -0.093,-0.185 -0.069,-0.053 -0.16,-0.077 -0.276,-0.077 h -0.246 v -0.283 h 1.858 v 0.283 h -0.247 c -0.13,0 -0.23,0.024 -0.29,0.077 -0.054,0.054 -0.086,0.146 -0.086,0.277 v 1.297 c 0,0.368 0.092,0.66 0.285,0.89 0.183,0.223 0.422,0.338 0.706,0.338 0.283,0 0.49,-0.115 0.636,-0.338 0.099,-0.154 0.145,-0.399 0.145,-0.721 v -1.504 c 0,-0.108 -0.03,-0.185 -0.099,-0.239 -0.061,-0.053 -0.177,-0.077 -0.337,-0.077 h -0.177 v -0.283 h 1.849 v 0.283 h -0.246 c -0.137,0 -0.229,0.024 -0.291,0.077 -0.053,0.054 -0.085,0.146 -0.085,0.277 v 1.703 c 0,0.246 -0.045,0.469 -0.145,0.669 -0.092,0.199 -0.215,0.337 -0.375,0.429 -0.155,0.092 -0.355,0.138 -0.584,0.138 -0.269,0 -0.514,-0.061 -0.722,-0.192 -0.215,-0.13 -0.399,-0.322 -0.56,-0.575 -0.022,0.299 -0.062,0.552 -0.108,0.775 l -1.166,-0.062 v -0.246" /></g><g
     transform="translate(224.504,591.102)"
     id="g912"><path
       inkscape:connector-curvature="0"
       id="path914"
       style="fill:#231f20;fill-opacity:1;fill-rule:nonzero;stroke:none"
       d="M 0,0 H 0.176 C 0.33,0 0.453,-0.038 0.529,-0.115 0.614,-0.191 0.652,-0.306 0.652,-0.46 V -2.731 C 0.652,-2.808 0.621,-2.87 0.56,-2.916 0.491,-2.969 0.399,-2.993 0.284,-2.993 H 0.039 v -0.283 h 1.856 v 0.283 H 1.65 c -0.13,0 -0.231,0.024 -0.292,0.077 -0.053,0.054 -0.084,0.146 -0.084,0.277 v 1.297 c 0,0.368 0.092,0.66 0.284,0.89 0.184,0.223 0.421,0.337 0.706,0.337 0.284,0 0.491,-0.114 0.637,-0.337 C 3,-0.605 3.046,-0.851 3.046,-1.173 v -1.504 c 0,-0.108 -0.03,-0.185 -0.099,-0.239 C 2.885,-2.969 2.77,-2.993 2.609,-2.993 H 2.433 v -0.283 h 1.849 v 0.283 H 4.037 c -0.139,0 -0.23,0.024 -0.292,0.077 -0.054,0.054 -0.084,0.146 -0.084,0.277 v 1.703 c 0,0.246 -0.046,0.469 -0.146,0.669 C 3.422,-0.068 3.3,0.07 3.139,0.162 2.985,0.254 2.786,0.3 2.556,0.3 2.287,0.3 2.041,0.239 1.834,0.108 1.619,-0.022 1.435,-0.214 1.274,-0.467 1.251,-0.169 1.212,0.085 1.166,0.308 L 0,0.246 Z M 7.834,-0.674 C 7.711,-0.344 7.52,-0.099 7.274,0.078 7.028,0.254 6.736,0.338 6.399,0.338 5.931,0.338 5.547,0.162 5.232,-0.183 4.917,-0.536 4.757,-0.997 4.757,-1.565 c 0,-0.529 0.16,-0.967 0.483,-1.305 0.315,-0.337 0.714,-0.506 1.182,-0.506 0.691,0 1.22,0.353 1.581,1.059 L 7.757,-2.21 c -0.291,-0.56 -0.69,-0.836 -1.174,-0.836 -0.33,0 -0.606,0.123 -0.821,0.369 -0.185,0.222 -0.284,0.598 -0.3,1.135 h 2.51 C 7.964,-1.197 7.918,-0.905 7.834,-0.674 M 5.747,-0.229 C 5.923,0 6.145,0.116 6.407,0.116 6.637,0.116 6.836,0.024 7.013,-0.169 7.182,-0.36 7.266,-0.597 7.266,-0.867 7.266,-1.02 7.243,-1.12 7.189,-1.181 7.144,-1.243 7.074,-1.273 6.982,-1.273 h -1.52 c 0.008,0.46 0.1,0.813 0.285,1.044 m 2.731,0.468 v -0.261 c 0.23,-0.008 0.383,-0.031 0.46,-0.085 0.107,-0.068 0.161,-0.169 0.161,-0.307 v -1.527 c 0,-0.507 0.108,-0.859 0.322,-1.066 0.216,-0.215 0.484,-0.323 0.798,-0.323 0.223,0 0.438,0.062 0.645,0.185 0.215,0.13 0.43,0.313 0.637,0.559 l 0.077,-0.682 1.174,0.022 v 0.253 h -0.223 c -0.13,0 -0.237,0.039 -0.307,0.108 -0.077,0.069 -0.115,0.169 -0.115,0.307 V 0.3 L 10.872,0.239 v -0.261 c 0.246,-0.008 0.414,-0.046 0.499,-0.107 0.084,-0.07 0.13,-0.162 0.13,-0.285 v -1.32 c 0,-0.337 -0.1,-0.621 -0.292,-0.852 -0.199,-0.222 -0.437,-0.337 -0.713,-0.337 -0.23,0 -0.414,0.077 -0.56,0.23 -0.146,0.161 -0.215,0.376 -0.215,0.66 V 0.3 Z m 5.309,0.268 C 13.641,0.323 13.426,0.201 13.142,0.154 v -0.261 h 0.614 V -2.47 c 0,-0.254 0.084,-0.46 0.245,-0.621 0.162,-0.162 0.392,-0.239 0.684,-0.239 0.307,0 0.567,0.116 0.767,0.337 0.192,0.231 0.299,0.576 0.315,1.044 h -0.254 c -0.023,-0.36 -0.092,-0.621 -0.207,-0.782 -0.115,-0.161 -0.261,-0.238 -0.43,-0.238 -0.138,0 -0.253,0.053 -0.345,0.153 -0.092,0.107 -0.138,0.253 -0.138,0.453 v 2.256 h 1.135 V 0.239 H 14.393 V 1.666 H 14.14 C 14.124,1.167 14.001,0.784 13.787,0.507 m 2.347,-0.537 h 0.307 c 0.138,0 0.238,-0.038 0.314,-0.115 0.07,-0.084 0.108,-0.207 0.108,-0.376 v -2.233 c 0,-0.07 -0.03,-0.123 -0.092,-0.169 -0.062,-0.046 -0.146,-0.07 -0.261,-0.07 h -0.353 v -0.283 h 2.187 v 0.283 h -0.445 c -0.146,0 -0.246,0.024 -0.307,0.07 -0.061,0.046 -0.092,0.107 -0.092,0.192 v 0.752 c 0,0.276 0.077,0.637 0.223,1.09 0.099,0.3 0.237,0.529 0.414,0.69 0.131,0.123 0.246,0.185 0.353,0.185 0.047,0 0.069,-0.024 0.069,-0.062 0,-0.008 -0.015,-0.046 -0.054,-0.115 -0.038,-0.069 -0.061,-0.146 -0.061,-0.23 0,-0.124 0.031,-0.23 0.1,-0.3 0.069,-0.076 0.161,-0.115 0.276,-0.115 0.115,0 0.207,0.046 0.284,0.131 0.077,0.084 0.115,0.207 0.115,0.368 0,0.192 -0.054,0.345 -0.169,0.46 C 18.935,0.239 18.782,0.3 18.59,0.3 18.313,0.3 18.076,0.177 17.891,-0.061 17.7,-0.298 17.538,-0.651 17.4,-1.12 V 0.3 L 16.134,0.239 Z m 3.951,-0.145 C 19.77,-0.521 19.61,-0.966 19.61,-1.519 c 0,-0.552 0.16,-0.997 0.475,-1.343 0.315,-0.345 0.699,-0.514 1.159,-0.514 0.307,0 0.591,0.077 0.86,0.238 0.261,0.154 0.468,0.368 0.614,0.636 0.145,0.277 0.214,0.6 0.214,0.983 0,0.56 -0.161,1.006 -0.483,1.344 -0.322,0.344 -0.714,0.513 -1.189,0.513 -0.469,0 -0.86,-0.169 -1.175,-0.513 m 1.889,-0.116 c 0.176,-0.245 0.268,-0.636 0.268,-1.174 0,-0.583 -0.092,-0.997 -0.268,-1.259 -0.185,-0.253 -0.423,-0.383 -0.714,-0.383 -0.285,0 -0.515,0.13 -0.691,0.383 -0.177,0.262 -0.269,0.661 -0.269,1.22 0,0.545 0.092,0.945 0.269,1.198 0.184,0.253 0.414,0.376 0.691,0.376 0.298,0 0.536,-0.123 0.714,-0.361 M 23.438,0 h 0.176 c 0.153,0 0.277,-0.038 0.353,-0.115 0.085,-0.076 0.123,-0.191 0.123,-0.345 v -2.271 c 0,-0.077 -0.031,-0.139 -0.092,-0.185 -0.069,-0.053 -0.161,-0.077 -0.276,-0.077 h -0.246 v -0.283 h 1.857 v 0.283 h -0.245 c -0.131,0 -0.23,0.024 -0.292,0.077 -0.053,0.054 -0.084,0.146 -0.084,0.277 v 1.297 c 0,0.368 0.092,0.66 0.283,0.89 0.185,0.223 0.423,0.337 0.707,0.337 0.284,0 0.491,-0.114 0.637,-0.337 0.099,-0.153 0.145,-0.399 0.145,-0.721 v -1.504 c 0,-0.108 -0.031,-0.185 -0.099,-0.239 -0.062,-0.053 -0.177,-0.077 -0.338,-0.077 h -0.176 v -0.283 h 1.849 v 0.283 h -0.246 c -0.138,0 -0.229,0.024 -0.292,0.077 -0.053,0.054 -0.084,0.146 -0.084,0.277 v 1.703 c 0,0.246 -0.046,0.469 -0.145,0.669 C 26.86,-0.068 26.738,0.07 26.577,0.162 26.423,0.254 26.224,0.3 25.994,0.3 c -0.27,0 -0.515,-0.061 -0.722,-0.192 -0.215,-0.13 -0.399,-0.322 -0.56,-0.575 -0.023,0.298 -0.062,0.552 -0.108,0.775 L 23.438,0.246 Z m 92.069,0 h 0.176 c 0.154,0 0.277,-0.038 0.354,-0.115 0.084,-0.076 0.122,-0.191 0.122,-0.345 v -2.271 c 0,-0.077 -0.03,-0.139 -0.092,-0.185 -0.069,-0.053 -0.161,-0.077 -0.275,-0.077 h -0.246 v -0.283 h 1.856 v 0.283 h -0.245 c -0.131,0 -0.23,0.024 -0.292,0.077 -0.054,0.054 -0.084,0.146 -0.084,0.277 v 1.297 c 0,0.368 0.092,0.66 0.283,0.89 0.186,0.223 0.423,0.337 0.707,0.337 0.284,0 0.492,-0.114 0.637,-0.337 0.1,-0.153 0.146,-0.399 0.146,-0.721 v -1.504 c 0,-0.108 -0.031,-0.185 -0.1,-0.239 -0.062,-0.053 -0.177,-0.077 -0.338,-0.077 h -0.176 v -0.283 h 1.849 v 0.283 h -0.245 c -0.139,0 -0.231,0.024 -0.291,0.077 -0.054,0.054 -0.085,0.146 -0.085,0.277 v 1.703 c 0,0.246 -0.046,0.469 -0.146,0.669 -0.092,0.199 -0.215,0.337 -0.376,0.429 -0.154,0.092 -0.353,0.138 -0.584,0.138 -0.267,0 -0.513,-0.061 -0.72,-0.192 -0.216,-0.13 -0.4,-0.322 -0.561,-0.575 -0.023,0.298 -0.061,0.552 -0.107,0.775 l -1.167,-0.062 z m 7.834,-0.674 c -0.122,0.33 -0.315,0.575 -0.56,0.752 -0.246,0.176 -0.537,0.26 -0.875,0.26 -0.468,0 -0.851,-0.176 -1.167,-0.521 -0.314,-0.353 -0.475,-0.814 -0.475,-1.382 0,-0.529 0.161,-0.967 0.484,-1.305 0.313,-0.337 0.713,-0.506 1.181,-0.506 0.691,0 1.22,0.353 1.581,1.059 l -0.246,0.107 c -0.292,-0.56 -0.69,-0.836 -1.174,-0.836 -0.329,0 -0.606,0.123 -0.821,0.369 -0.184,0.222 -0.284,0.598 -0.299,1.135 h 2.509 c -0.007,0.345 -0.053,0.637 -0.138,0.868 m -2.087,0.445 c 0.176,0.229 0.399,0.345 0.659,0.345 0.231,0 0.431,-0.092 0.607,-0.285 0.168,-0.191 0.253,-0.428 0.253,-0.698 0,-0.153 -0.022,-0.253 -0.076,-0.314 -0.047,-0.062 -0.115,-0.092 -0.208,-0.092 h -1.519 c 0.007,0.46 0.099,0.813 0.284,1.044 m 2.73,0.468 v -0.261 c 0.231,-0.008 0.384,-0.031 0.461,-0.085 0.108,-0.068 0.161,-0.169 0.161,-0.307 v -1.527 c 0,-0.507 0.108,-0.859 0.323,-1.066 0.214,-0.215 0.483,-0.323 0.797,-0.323 0.224,0 0.438,0.062 0.645,0.185 0.216,0.13 0.431,0.313 0.637,0.559 l 0.077,-0.682 1.175,0.022 v 0.253 h -0.223 c -0.131,0 -0.238,0.039 -0.308,0.108 -0.076,0.069 -0.115,0.169 -0.115,0.307 V 0.3 l -1.235,-0.061 v -0.261 c 0.246,-0.008 0.414,-0.046 0.499,-0.107 0.085,-0.07 0.13,-0.162 0.13,-0.285 v -1.32 c 0,-0.337 -0.099,-0.621 -0.291,-0.852 -0.2,-0.222 -0.438,-0.337 -0.714,-0.337 -0.231,0 -0.414,0.077 -0.561,0.23 -0.145,0.161 -0.215,0.376 -0.215,0.66 V 0.3 Z m 5.31,0.268 c -0.147,-0.184 -0.361,-0.306 -0.645,-0.353 v -0.261 h 0.614 V -2.47 c 0,-0.254 0.083,-0.46 0.246,-0.621 0.16,-0.162 0.391,-0.239 0.682,-0.239 0.308,0 0.568,0.116 0.769,0.337 0.191,0.231 0.299,0.576 0.312,1.044 h -0.252 c -0.023,-0.36 -0.092,-0.621 -0.207,-0.782 -0.115,-0.161 -0.261,-0.238 -0.429,-0.238 -0.138,0 -0.254,0.053 -0.346,0.153 -0.093,0.107 -0.138,0.253 -0.138,0.453 v 2.256 h 1.135 V 0.239 H 129.9 v 1.427 h -0.253 c -0.015,-0.499 -0.138,-0.882 -0.353,-1.159 m 2.347,-0.537 h 0.306 c 0.139,0 0.239,-0.038 0.315,-0.115 0.069,-0.084 0.107,-0.207 0.107,-0.376 v -2.233 c 0,-0.07 -0.03,-0.123 -0.092,-0.169 -0.06,-0.046 -0.145,-0.07 -0.261,-0.07 h -0.352 v -0.283 h 2.186 v 0.283 h -0.445 c -0.145,0 -0.245,0.024 -0.307,0.07 -0.061,0.046 -0.091,0.107 -0.091,0.192 v 0.752 c 0,0.276 0.076,0.637 0.222,1.09 0.099,0.3 0.238,0.529 0.414,0.69 0.13,0.123 0.246,0.185 0.354,0.185 0.045,0 0.068,-0.024 0.068,-0.062 0,-0.008 -0.014,-0.046 -0.053,-0.115 -0.039,-0.069 -0.061,-0.146 -0.061,-0.23 0,-0.124 0.03,-0.23 0.1,-0.3 0.068,-0.076 0.16,-0.115 0.275,-0.115 0.115,0 0.207,0.046 0.285,0.131 0.076,0.084 0.114,0.207 0.114,0.368 0,0.192 -0.053,0.345 -0.169,0.46 -0.115,0.116 -0.268,0.177 -0.46,0.177 -0.276,0 -0.514,-0.123 -0.699,-0.361 -0.191,-0.237 -0.351,-0.59 -0.489,-1.059 V 0.3 l -1.267,-0.061 z m 3.951,-0.145 c -0.315,-0.346 -0.476,-0.791 -0.476,-1.344 0,-0.552 0.161,-0.997 0.476,-1.343 0.314,-0.345 0.698,-0.514 1.158,-0.514 0.307,0 0.592,0.077 0.86,0.238 0.261,0.154 0.468,0.368 0.613,0.636 0.146,0.277 0.216,0.6 0.216,0.983 0,0.56 -0.162,1.006 -0.484,1.344 -0.322,0.344 -0.713,0.513 -1.19,0.513 -0.467,0 -0.859,-0.169 -1.173,-0.513 m 1.887,-0.116 c 0.177,-0.245 0.269,-0.636 0.269,-1.174 0,-0.583 -0.092,-0.997 -0.269,-1.259 -0.183,-0.253 -0.422,-0.383 -0.714,-0.383 -0.283,0 -0.513,0.13 -0.69,0.383 -0.177,0.262 -0.269,0.661 -0.269,1.22 0,0.545 0.092,0.945 0.269,1.198 0.184,0.253 0.414,0.376 0.69,0.376 0.3,0 0.538,-0.123 0.714,-0.361 M 138.944,0 h 0.176 c 0.154,0 0.276,-0.038 0.353,-0.115 0.085,-0.076 0.123,-0.191 0.123,-0.345 v -2.271 c 0,-0.077 -0.031,-0.139 -0.091,-0.185 -0.07,-0.053 -0.162,-0.077 -0.278,-0.077 h -0.245 v -0.283 h 1.858 v 0.283 h -0.246 c -0.13,0 -0.231,0.024 -0.291,0.077 -0.054,0.054 -0.085,0.146 -0.085,0.277 v 1.297 c 0,0.368 0.091,0.66 0.284,0.89 0.184,0.223 0.423,0.337 0.706,0.337 0.284,0 0.491,-0.114 0.637,-0.337 0.099,-0.153 0.146,-0.399 0.146,-0.721 v -1.504 c 0,-0.108 -0.031,-0.185 -0.101,-0.239 -0.06,-0.053 -0.175,-0.077 -0.336,-0.077 h -0.177 v -0.283 h 1.849 v 0.283 h -0.245 c -0.138,0 -0.23,0.024 -0.292,0.077 -0.053,0.054 -0.084,0.146 -0.084,0.277 v 1.703 c 0,0.246 -0.047,0.469 -0.146,0.669 -0.092,0.199 -0.215,0.337 -0.376,0.429 -0.154,0.092 -0.354,0.138 -0.583,0.138 -0.269,0 -0.515,-0.061 -0.722,-0.192 -0.215,-0.13 -0.399,-0.322 -0.56,-0.575 -0.023,0.298 -0.061,0.552 -0.108,0.775 L 138.944,0.246 V 0" /></g><g
     transform="translate(285.928,623.283)"
     id="g916"><path
       inkscape:connector-curvature="0"
       id="path918"
       style="fill:#231f20;fill-opacity:1;fill-rule:nonzero;stroke:none"
       d="m 0,0 c -0.184,-0.139 -0.399,-0.245 -0.645,-0.33 -0.237,-0.085 -0.553,-0.146 -0.943,-0.199 v -0.262 h 0.828 c 0.093,0 0.162,-0.022 0.223,-0.077 0.053,-0.046 0.085,-0.108 0.085,-0.184 v -3.522 c 0,-0.1 -0.032,-0.185 -0.092,-0.245 -0.062,-0.062 -0.161,-0.092 -0.293,-0.092 h -0.621 v -0.285 h 2.694 v 0.285 h -0.73 c -0.099,0 -0.192,0.022 -0.26,0.076 -0.054,0.038 -0.077,0.092 -0.077,0.161 V 0 Z m 3.284,-0.906 c 0,0.369 0.069,0.652 0.215,0.837 0.146,0.191 0.33,0.283 0.538,0.283 0.114,0 0.199,-0.015 0.253,-0.053 C 4.343,0.13 4.374,0.092 4.374,0.046 4.374,0.015 4.336,-0.031 4.266,-0.085 4.174,-0.161 4.129,-0.261 4.129,-0.376 c 0,-0.1 0.03,-0.184 0.099,-0.253 0.07,-0.069 0.161,-0.1 0.261,-0.1 0.123,0 0.215,0.038 0.292,0.123 0.076,0.084 0.114,0.199 0.114,0.345 0,0.222 -0.076,0.399 -0.237,0.537 C 4.505,0.414 4.282,0.483 3.999,0.483 3.622,0.483 3.307,0.321 3.047,0 2.794,-0.33 2.663,-0.799 2.663,-1.412 V -1.681 H 2.056 v -0.33 H 2.663 V -4.636 C 2.663,-4.727 2.639,-4.797 2.586,-4.843 2.532,-4.889 2.44,-4.911 2.309,-4.911 H 2.01 v -0.285 h 2.149 v 0.285 H 3.683 c -0.138,0 -0.246,0.03 -0.314,0.092 -0.054,0.046 -0.085,0.13 -0.085,0.245 v 2.563 h 0.875 v 0.33 H 3.284 v 0.775" /></g><g
     transform="translate(291.189,618.684)"
     id="g920"><path
       inkscape:connector-curvature="0"
       id="path922"
       style="fill:#231f20;fill-opacity:1;fill-rule:nonzero;stroke:none"
       d="m 0,0 h 0.209 c 0.078,0.407 0.149,0.652 0.203,0.735 0.06,0.078 0.149,0.12 0.263,0.12 h 1.582 l -0.4,-0.74 C 1.702,-0.172 1.516,-0.572 1.307,-1.074 1.146,-1.45 1.044,-1.73 0.996,-1.921 0.955,-2.113 0.931,-2.268 0.931,-2.393 c 0,-0.144 0.03,-0.244 0.084,-0.311 0.054,-0.065 0.131,-0.101 0.227,-0.101 0.084,0 0.155,0.023 0.209,0.06 0.053,0.041 0.089,0.101 0.107,0.179 0.019,0.077 0.036,0.28 0.054,0.604 0.024,0.393 0.065,0.733 0.132,1.032 0.071,0.292 0.172,0.603 0.304,0.926 0.131,0.321 0.328,0.715 0.597,1.187 V 1.315 H 0.83 c -0.221,0 -0.43,0.023 -0.621,0.071 z m 4.16,1.583 -1.285,-4.31 h 0.377 l 1.29,4.31 z m 1.736,-3.253 0.765,0.644 c 0.178,0.144 0.345,0.322 0.513,0.531 0.101,0.12 0.172,0.251 0.22,0.389 0.054,0.137 0.078,0.274 0.078,0.405 0,0.198 -0.048,0.376 -0.149,0.537 C 7.221,1.004 7.067,1.135 6.87,1.237 6.666,1.338 6.452,1.386 6.212,1.386 5.98,1.386 5.752,1.332 5.549,1.231 5.341,1.123 5.191,0.992 5.089,0.831 4.989,0.669 4.935,0.491 4.935,0.293 c 0,-0.178 0.048,-0.322 0.137,-0.429 0.09,-0.114 0.191,-0.167 0.311,-0.167 0.102,0 0.185,0.03 0.25,0.095 0.066,0.066 0.102,0.15 0.102,0.25 0,0.18 -0.096,0.293 -0.292,0.341 C 5.365,0.402 5.311,0.425 5.287,0.449 5.263,0.479 5.25,0.514 5.25,0.562 c 0,0.144 0.084,0.274 0.252,0.4 0.167,0.125 0.382,0.191 0.645,0.191 0.232,0 0.418,-0.066 0.549,-0.202 C 6.828,0.813 6.893,0.622 6.893,0.383 6.893,0.24 6.863,0.079 6.797,-0.094 6.738,-0.267 6.636,-0.453 6.505,-0.638 6.41,-0.769 6.122,-1.091 5.657,-1.605 L 4.81,-2.572 v -0.155 h 2.602 l 0.096,1.212 H 7.305 C 7.228,-1.862 7.156,-2.071 7.096,-2.149 7.031,-2.226 6.929,-2.261 6.786,-2.261 c -0.968,0 -1.409,0.058 -1.32,0.172 0.09,0.114 0.233,0.252 0.43,0.419" /></g><g
     transform="translate(341.336,723.019)"
     id="g924"><path
       inkscape:connector-curvature="0"
       id="path926"
       style="fill:#ed1c24;fill-opacity:1;fill-rule:nonzero;stroke:none"
       d="m 0,0 c -0.184,-0.138 -0.399,-0.246 -0.645,-0.33 -0.238,-0.085 -0.552,-0.146 -0.943,-0.199 v -0.262 h 0.828 c 0.093,0 0.161,-0.023 0.223,-0.077 0.053,-0.046 0.085,-0.107 0.085,-0.184 v -3.522 c 0,-0.1 -0.032,-0.184 -0.093,-0.245 -0.061,-0.062 -0.16,-0.093 -0.291,-0.093 h -0.622 v -0.284 h 2.693 v 0.284 H 0.507 c -0.1,0 -0.193,0.023 -0.262,0.077 -0.054,0.039 -0.076,0.092 -0.076,0.161 V 0 Z m 3.284,-0.906 c 0,0.369 0.069,0.653 0.215,0.837 0.145,0.192 0.33,0.283 0.537,0.283 0.115,0 0.2,-0.015 0.254,-0.053 C 4.344,0.13 4.374,0.092 4.374,0.046 4.374,0.015 4.336,-0.031 4.266,-0.085 4.175,-0.161 4.129,-0.261 4.129,-0.376 c 0,-0.1 0.03,-0.184 0.099,-0.253 0.07,-0.069 0.161,-0.101 0.261,-0.101 0.122,0 0.215,0.039 0.292,0.124 0.076,0.084 0.114,0.199 0.114,0.345 0,0.222 -0.076,0.399 -0.237,0.537 C 4.505,0.414 4.282,0.483 3.998,0.483 3.622,0.483 3.307,0.322 3.047,0 2.793,-0.33 2.663,-0.798 2.663,-1.412 V -1.681 H 2.056 v -0.33 H 2.663 V -4.635 C 2.663,-4.727 2.639,-4.796 2.586,-4.842 2.532,-4.889 2.44,-4.912 2.309,-4.912 H 2.011 v -0.284 h 2.148 v 0.284 H 3.683 c -0.138,0 -0.246,0.031 -0.315,0.093 -0.054,0.046 -0.084,0.13 -0.084,0.245 v 2.563 h 0.875 v 0.33 H 3.284 v 0.775" /></g><g
     transform="translate(347.766,717.974)"
     id="g928"><path
       inkscape:connector-curvature="0"
       id="path930"
       style="fill:#ed1c24;fill-opacity:1;fill-rule:nonzero;stroke:none"
       d="M 0,0 -0.072,-0.859 -0.12,-0.931 c -0.077,-0.084 -0.119,-0.167 -0.119,-0.251 0,-0.048 0.012,-0.089 0.036,-0.113 l 0.089,-0.042 c 0.06,0 0.102,0.024 0.138,0.066 0.035,0.047 0.06,0.137 0.071,0.274 0.119,0.084 0.233,0.149 0.353,0.191 0.113,0.042 0.232,0.066 0.346,0.066 0.256,0 0.471,-0.09 0.632,-0.263 0.168,-0.173 0.251,-0.448 0.251,-0.824 0,-0.418 -0.077,-0.716 -0.232,-0.901 -0.155,-0.186 -0.383,-0.275 -0.681,-0.275 -0.149,0 -0.286,0.024 -0.4,0.072 -0.119,0.047 -0.209,0.107 -0.263,0.185 -0.059,0.072 -0.089,0.137 -0.089,0.203 0,0.042 0.041,0.077 0.125,0.113 0.083,0.03 0.144,0.066 0.173,0.114 0.029,0.047 0.048,0.113 0.048,0.196 0,0.108 -0.03,0.198 -0.096,0.269 -0.065,0.066 -0.149,0.102 -0.25,0.102 -0.107,0 -0.191,-0.042 -0.257,-0.131 -0.065,-0.084 -0.101,-0.209 -0.101,-0.365 0,-0.262 0.107,-0.489 0.316,-0.68 0.209,-0.191 0.484,-0.287 0.818,-0.287 0.442,0 0.799,0.131 1.075,0.4 0.274,0.263 0.412,0.603 0.412,1.015 0,0.364 -0.132,0.681 -0.389,0.932 -0.262,0.25 -0.579,0.375 -0.961,0.375 -0.12,0 -0.251,-0.017 -0.382,-0.054 C 0.406,-0.579 0.268,-0.639 0.12,-0.711 L 0.214,0.406 C 0.526,0.334 0.799,0.299 1.027,0.299 c 0.197,0 0.37,0.035 0.519,0.101 0.15,0.066 0.269,0.156 0.358,0.263 0.09,0.113 0.132,0.203 0.132,0.275 L 2.006,0.979 1.94,0.955 C 1.88,0.914 1.785,0.884 1.654,0.854 1.528,0.824 1.391,0.812 1.242,0.812 0.931,0.812 0.532,0.866 0.042,0.979 0.042,0.663 0.024,0.34 0,0 m 3.843,1.176 -1.284,-4.31 h 0.376 l 1.29,4.31 z m 1.737,-3.254 0.763,0.645 c 0.18,0.143 0.347,0.323 0.514,0.532 0.102,0.119 0.174,0.251 0.222,0.387 0.053,0.139 0.077,0.275 0.077,0.407 0,0.197 -0.048,0.375 -0.15,0.537 C 6.905,0.597 6.75,0.729 6.552,0.83 6.35,0.932 6.134,0.979 5.896,0.979 5.663,0.979 5.436,0.925 5.233,0.824 5.024,0.717 4.876,0.585 4.774,0.424 4.672,0.263 4.619,0.083 4.619,-0.113 c 0,-0.179 0.048,-0.323 0.136,-0.431 0.09,-0.113 0.192,-0.167 0.311,-0.167 0.101,0 0.185,0.03 0.25,0.096 0.066,0.066 0.102,0.149 0.102,0.251 0,0.179 -0.095,0.293 -0.292,0.34 C 5.047,-0.006 4.994,0.018 4.97,0.042 4.947,0.072 4.935,0.107 4.935,0.155 c 0,0.144 0.083,0.275 0.25,0.401 0.167,0.125 0.383,0.191 0.645,0.191 0.233,0 0.419,-0.066 0.549,-0.204 C 6.511,0.406 6.577,0.215 6.577,-0.024 6.577,-0.167 6.546,-0.328 6.481,-0.501 6.421,-0.675 6.32,-0.859 6.188,-1.045 6.092,-1.176 5.806,-1.499 5.34,-2.012 L 4.493,-2.979 v -0.155 h 2.603 l 0.096,1.212 H 6.989 C 6.911,-2.269 6.839,-2.478 6.78,-2.555 6.713,-2.633 6.612,-2.668 6.469,-2.668 c -0.968,0 -1.409,0.059 -1.32,0.172 0.09,0.114 0.233,0.251 0.431,0.418" /></g><g
     transform="translate(339.382,678.69)"
     id="g932"><path
       inkscape:connector-curvature="0"
       id="path934"
       style="fill:#231f20;fill-opacity:1;fill-rule:nonzero;stroke:none"
       d="m 0,0 0.982,0.829 c 0.231,0.184 0.445,0.415 0.66,0.683 0.131,0.153 0.223,0.323 0.284,0.499 0.07,0.177 0.1,0.353 0.1,0.522 0,0.253 -0.061,0.483 -0.192,0.69 C 1.704,3.438 1.505,3.607 1.251,3.738 0.99,3.868 0.714,3.929 0.407,3.929 0.107,3.929 -0.184,3.86 -0.445,3.73 -0.713,3.592 -0.906,3.423 -1.036,3.215 c -0.13,-0.207 -0.2,-0.437 -0.2,-0.69 0,-0.23 0.062,-0.415 0.177,-0.553 0.115,-0.145 0.245,-0.215 0.4,-0.215 0.129,0 0.237,0.039 0.322,0.123 0.084,0.084 0.13,0.192 0.13,0.323 0,0.23 -0.122,0.376 -0.376,0.437 -0.1,0.023 -0.169,0.054 -0.199,0.085 -0.032,0.038 -0.047,0.084 -0.047,0.145 0,0.185 0.107,0.353 0.323,0.514 0.215,0.161 0.491,0.246 0.828,0.246 0.3,0 0.538,-0.085 0.706,-0.261 C 1.198,3.192 1.282,2.947 1.282,2.64 1.282,2.456 1.243,2.249 1.159,2.026 1.082,1.804 0.952,1.565 0.783,1.328 0.66,1.159 0.292,0.745 -0.307,0.085 l -1.09,-1.244 V -1.358 H 1.949 L 2.072,0.2 H 1.811 C 1.712,-0.246 1.619,-0.514 1.543,-0.614 1.458,-0.713 1.328,-0.76 1.144,-0.76 -0.1,-0.76 -0.667,-0.683 -0.552,-0.537 -0.437,-0.391 -0.253,-0.214 0,0 M 2.739,2.157 V 1.903 C 2.985,1.895 3.146,1.857 3.23,1.788 3.315,1.711 3.353,1.589 3.353,1.42 V -2.271 C 3.353,-2.349 3.322,-2.417 3.261,-2.463 3.208,-2.509 3.116,-2.532 2.993,-2.532 H 2.739 v -0.269 h 1.873 v 0.269 H 4.359 c -0.123,0 -0.216,0.03 -0.284,0.092 -0.054,0.046 -0.077,0.123 -0.077,0.229 v 1.421 c 0.138,-0.223 0.292,-0.392 0.469,-0.499 0.175,-0.115 0.376,-0.169 0.597,-0.169 0.385,0 0.714,0.153 0.99,0.453 0.331,0.353 0.499,0.821 0.499,1.389 0,0.361 -0.069,0.683 -0.199,0.967 C 6.216,1.635 6.039,1.85 5.817,1.996 5.602,2.141 5.372,2.218 5.134,2.218 4.911,2.218 4.704,2.164 4.52,2.049 4.328,1.934 4.143,1.742 3.975,1.474 3.968,1.711 3.928,1.957 3.875,2.218 Z M 5.594,1.535 C 5.756,1.305 5.84,0.914 5.84,0.368 5.84,-0.153 5.748,-0.552 5.563,-0.821 5.426,-1.028 5.225,-1.128 4.957,-1.128 c -0.284,0 -0.514,0.123 -0.691,0.36 -0.183,0.239 -0.276,0.615 -0.276,1.121 0,0.499 0.093,0.875 0.284,1.144 0.185,0.26 0.414,0.391 0.691,0.391 0.253,0 0.461,-0.115 0.629,-0.353" /></g><g
     transform="translate(348.468,677.538)"
     id="g936"><path
       inkscape:connector-curvature="0"
       id="path938"
       style="fill:#231f20;fill-opacity:1;fill-rule:nonzero;stroke:none"
       d="m 0,0 c -0.143,-0.107 -0.311,-0.191 -0.501,-0.257 -0.186,-0.065 -0.43,-0.113 -0.736,-0.155 v -0.203 h 0.646 c 0.071,0 0.125,-0.018 0.173,-0.06 0.042,-0.035 0.066,-0.083 0.066,-0.143 v -2.741 c 0,-0.077 -0.024,-0.143 -0.072,-0.191 -0.048,-0.047 -0.125,-0.071 -0.227,-0.071 h -0.483 v -0.221 h 2.095 v 0.221 H 0.393 c -0.077,0 -0.148,0.018 -0.202,0.06 -0.042,0.03 -0.059,0.071 -0.059,0.125 V 0 Z M 2.715,0.269 1.431,-4.042 h 0.376 l 1.289,4.311 z m 1.736,-3.254 0.764,0.645 c 0.18,0.143 0.346,0.322 0.514,0.531 0.101,0.12 0.173,0.251 0.221,0.388 0.054,0.137 0.077,0.275 0.077,0.406 0,0.197 -0.048,0.376 -0.149,0.538 C 5.776,-0.31 5.621,-0.179 5.424,-0.078 5.221,0.024 5.007,0.072 4.767,0.072 4.535,0.072 4.308,0.018 4.105,-0.083 3.896,-0.191 3.747,-0.322 3.645,-0.484 3.544,-0.645 3.49,-0.824 3.49,-1.021 c 0,-0.179 0.048,-0.322 0.137,-0.43 0.089,-0.113 0.191,-0.167 0.311,-0.167 0.101,0 0.185,0.03 0.25,0.096 0.067,0.065 0.102,0.149 0.102,0.25 0,0.18 -0.096,0.293 -0.292,0.341 -0.078,0.018 -0.132,0.041 -0.156,0.065 -0.024,0.03 -0.036,0.066 -0.036,0.114 0,0.143 0.084,0.275 0.251,0.4 0.167,0.126 0.382,0.191 0.645,0.191 0.233,0 0.418,-0.065 0.55,-0.203 0.13,-0.137 0.197,-0.329 0.197,-0.567 0,-0.144 -0.03,-0.305 -0.097,-0.478 C 5.293,-1.582 5.191,-1.767 5.06,-1.952 4.965,-2.083 4.678,-2.406 4.213,-2.919 L 3.364,-3.887 V -4.042 H 5.967 L 6.063,-2.83 H 5.86 C 5.783,-3.176 5.712,-3.385 5.651,-3.463 5.586,-3.54 5.484,-3.576 5.34,-3.576 c -0.966,0 -1.409,0.06 -1.319,0.173 0.09,0.114 0.234,0.251 0.43,0.418" /></g><g
     transform="translate(395.165,652.611)"
     id="g940"><path
       inkscape:connector-curvature="0"
       id="path942"
       style="fill:none;stroke:#231f20;stroke-width:0.426;stroke-linecap:butt;stroke-linejoin:miter;stroke-miterlimit:10;stroke-dasharray:none;stroke-opacity:1"
       d="m 0,0 c 0,4.238 -3.435,7.672 -7.672,7.672 -4.237,0 -7.672,-3.434 -7.672,-7.672 0,-4.236 3.435,-7.672 7.672,-7.672 C -3.435,-7.672 0,-4.236 0,0 Z" /></g><g
     transform="translate(386.707,653.339)"
     id="g944"><path
       inkscape:connector-curvature="0"
       id="path946"
       style="fill:#231f20;fill-opacity:1;fill-rule:nonzero;stroke:none"
       d="m 0,0 c 0.153,0.192 0.23,0.422 0.23,0.691 0,0.369 -0.138,0.683 -0.422,0.936 -0.276,0.253 -0.652,0.376 -1.128,0.376 -0.498,0 -0.89,-0.145 -1.16,-0.43 -0.191,-0.207 -0.283,-0.444 -0.283,-0.706 0,-0.169 0.038,-0.3 0.115,-0.398 0.084,-0.093 0.184,-0.139 0.307,-0.139 0.115,0 0.215,0.038 0.284,0.108 0.077,0.069 0.116,0.153 0.116,0.253 0,0.13 -0.07,0.261 -0.2,0.384 -0.092,0.092 -0.138,0.168 -0.138,0.222 0,0.085 0.084,0.177 0.246,0.276 0.168,0.1 0.39,0.146 0.667,0.146 0.306,0 0.529,-0.084 0.683,-0.261 0.154,-0.177 0.231,-0.475 0.231,-0.891 0,-0.336 -0.085,-0.583 -0.246,-0.744 -0.161,-0.161 -0.4,-0.245 -0.722,-0.245 l -0.177,0.008 -0.206,0.008 c -0.093,0 -0.154,-0.016 -0.192,-0.046 -0.038,-0.024 -0.062,-0.069 -0.062,-0.115 0,-0.054 0.024,-0.092 0.062,-0.123 0.038,-0.032 0.099,-0.046 0.177,-0.046 0.045,0 0.114,0.007 0.221,0.023 0.123,0.023 0.231,0.03 0.316,0.03 0.322,0 0.559,-0.092 0.721,-0.284 0.161,-0.184 0.245,-0.499 0.245,-0.943 0,-0.431 -0.091,-0.737 -0.284,-0.93 -0.184,-0.191 -0.475,-0.291 -0.867,-0.291 -0.229,0 -0.414,0.031 -0.559,0.085 -0.155,0.054 -0.262,0.13 -0.339,0.222 -0.076,0.092 -0.116,0.177 -0.116,0.253 0,0.054 0.055,0.108 0.163,0.169 0.091,0.053 0.161,0.107 0.199,0.176 0.039,0.062 0.061,0.139 0.061,0.231 0,0.145 -0.038,0.261 -0.115,0.346 -0.076,0.084 -0.177,0.122 -0.308,0.122 -0.137,0 -0.252,-0.054 -0.344,-0.161 -0.092,-0.115 -0.138,-0.261 -0.138,-0.453 0,-0.238 0.062,-0.445 0.176,-0.629 0.123,-0.192 0.306,-0.337 0.545,-0.453 0.238,-0.107 0.53,-0.161 0.867,-0.161 0.553,0 1.006,0.146 1.35,0.446 0.308,0.259 0.461,0.605 0.461,1.035 0,0.376 -0.13,0.691 -0.383,0.952 -0.2,0.199 -0.476,0.346 -0.829,0.43 C -0.406,-0.368 -0.146,-0.199 0,0 m 2.548,-1.926 0.981,0.828 c 0.231,0.185 0.446,0.415 0.66,0.684 0.131,0.153 0.223,0.322 0.285,0.499 0.069,0.176 0.099,0.353 0.099,0.522 0,0.253 -0.061,0.483 -0.191,0.69 C 4.251,1.512 4.052,1.681 3.798,1.812 3.537,1.941 3.261,2.003 2.954,2.003 2.655,2.003 2.363,1.934 2.101,1.804 1.833,1.665 1.642,1.496 1.512,1.29 1.381,1.082 1.311,0.853 1.311,0.599 1.311,0.368 1.373,0.185 1.488,0.046 1.603,-0.1 1.734,-0.169 1.887,-0.169 c 0.131,0 0.238,0.039 0.322,0.123 C 2.294,0.038 2.34,0.146 2.34,0.276 2.34,0.507 2.217,0.652 1.964,0.714 1.864,0.737 1.795,0.768 1.765,0.799 1.734,0.837 1.719,0.883 1.719,0.944 c 0,0.185 0.107,0.353 0.322,0.514 0.215,0.161 0.491,0.246 0.829,0.246 0.299,0 0.537,-0.085 0.705,-0.262 C 3.744,1.267 3.829,1.022 3.829,0.714 3.829,0.529 3.79,0.322 3.706,0.1 3.629,-0.123 3.499,-0.36 3.33,-0.598 3.207,-0.767 2.839,-1.182 2.24,-1.842 L 1.15,-3.085 v -0.199 h 3.346 l 0.123,1.558 H 4.358 C 4.259,-2.172 4.167,-2.44 4.09,-2.54 4.006,-2.64 3.875,-2.685 3.69,-2.685 c -1.243,0 -1.81,0.076 -1.696,0.222 0.115,0.146 0.3,0.322 0.554,0.537" /></g><g
     transform="translate(363.198,693.103)"
     id="g948"><path
       inkscape:connector-curvature="0"
       id="path950"
       style="fill:none;stroke:#231f20;stroke-width:0.426;stroke-linecap:butt;stroke-linejoin:miter;stroke-miterlimit:10;stroke-dasharray:none;stroke-opacity:1"
       d="m 0,0 c 0,4.237 -3.434,7.672 -7.672,7.672 -4.237,0 -7.672,-3.435 -7.672,-7.672 0,-4.237 3.435,-7.672 7.672,-7.672 C -3.434,-7.672 0,-4.237 0,0 Z" /></g><g
     transform="translate(354.74,693.83)"
     id="g952"><path
       inkscape:connector-curvature="0"
       id="path954"
       style="fill:#231f20;fill-opacity:1;fill-rule:nonzero;stroke:none"
       d="m 0,0 c 0.153,0.192 0.231,0.422 0.231,0.69 0,0.37 -0.139,0.684 -0.422,0.937 -0.277,0.253 -0.653,0.376 -1.129,0.376 -0.498,0 -0.89,-0.146 -1.158,-0.43 -0.193,-0.207 -0.285,-0.445 -0.285,-0.705 0,-0.17 0.039,-0.3 0.116,-0.4 0.084,-0.092 0.183,-0.138 0.306,-0.138 0.116,0 0.215,0.038 0.284,0.107 0.078,0.07 0.116,0.154 0.116,0.253 0,0.131 -0.07,0.262 -0.199,0.385 -0.093,0.092 -0.139,0.168 -0.139,0.222 0,0.084 0.085,0.177 0.246,0.276 0.169,0.1 0.392,0.146 0.667,0.146 0.308,0 0.529,-0.084 0.684,-0.261 0.153,-0.176 0.23,-0.476 0.23,-0.89 0,-0.337 -0.085,-0.583 -0.246,-0.744 -0.161,-0.161 -0.4,-0.246 -0.722,-0.246 l -0.177,0.008 -0.206,0.008 c -0.092,0 -0.154,-0.016 -0.192,-0.047 -0.038,-0.023 -0.062,-0.068 -0.062,-0.114 0,-0.055 0.024,-0.093 0.062,-0.123 0.038,-0.032 0.1,-0.047 0.177,-0.047 0.046,0 0.115,0.008 0.221,0.024 0.124,0.023 0.231,0.03 0.316,0.03 0.322,0 0.559,-0.092 0.722,-0.284 0.161,-0.184 0.245,-0.499 0.245,-0.944 0,-0.43 -0.092,-0.736 -0.284,-0.928 -0.185,-0.192 -0.476,-0.292 -0.868,-0.292 -0.229,0 -0.414,0.031 -0.559,0.085 -0.155,0.053 -0.262,0.13 -0.338,0.222 -0.077,0.092 -0.115,0.177 -0.115,0.253 0,0.054 0.053,0.108 0.161,0.169 0.092,0.054 0.161,0.108 0.199,0.176 0.039,0.062 0.061,0.139 0.061,0.231 0,0.146 -0.038,0.261 -0.115,0.345 -0.076,0.085 -0.176,0.123 -0.306,0.123 -0.139,0 -0.254,-0.054 -0.346,-0.161 -0.092,-0.115 -0.138,-0.261 -0.138,-0.453 0,-0.238 0.062,-0.445 0.176,-0.63 0.123,-0.191 0.308,-0.337 0.545,-0.452 0.238,-0.108 0.53,-0.161 0.868,-0.161 0.552,0 1.005,0.146 1.351,0.445 0.306,0.261 0.46,0.606 0.46,1.036 0,0.376 -0.131,0.691 -0.384,0.951 -0.199,0.2 -0.476,0.346 -0.829,0.431 C -0.406,-0.368 -0.145,-0.199 0,0 M 1.197,-1.588 V -1.949 H 3.315 V -2.678 C 3.315,-2.786 3.284,-2.862 3.223,-2.916 3.161,-2.97 3.062,-3 2.932,-3 H 2.548 V -3.284 H 4.627 V -3 H 4.313 c -0.108,0 -0.2,0.03 -0.277,0.084 -0.053,0.046 -0.084,0.1 -0.084,0.169 v 0.798 h 0.86 v 0.322 H 3.952 V 1.911 H 3.706 Z M 3.315,-1.627 H 1.504 l 1.811,2.518 v -2.518" /></g><g
     transform="translate(378.977,652.714)"
     id="g956"><path
       inkscape:connector-curvature="0"
       id="path958"
       style="fill:none;stroke:#231f20;stroke-width:1.27900004;stroke-linecap:butt;stroke-linejoin:miter;stroke-miterlimit:10;stroke-dasharray:none;stroke-opacity:1"
       d="M 0,0 -20.861,-0.001" /></g><g
     transform="translate(362.722,650.315)"
     id="g960"><path
       inkscape:connector-curvature="0"
       id="path962"
       style="fill:none;stroke:#231f20;stroke-width:0.852;stroke-linecap:butt;stroke-linejoin:miter;stroke-miterlimit:10;stroke-dasharray:none;stroke-opacity:1"
       d="M 0,0 -4.522,2.469" /><g
       transform="translate(0.221,4.785)"
       id="g964"><path
         inkscape:connector-curvature="0"
         id="path966"
         style="fill:none;stroke:#231f20;stroke-width:0.852;stroke-linecap:butt;stroke-linejoin:miter;stroke-miterlimit:10;stroke-dasharray:none;stroke-opacity:1"
         d="M 0,0 -4.521,-2.469" /></g></g><g
     transform="translate(349.283,638.355)"
     id="g978"><path
       inkscape:connector-curvature="0"
       id="path980"
       style="fill:#231f20;fill-opacity:1;fill-rule:nonzero;stroke:none"
       d="m 0,0 c 0.118,0.15 0.178,0.329 0.178,0.538 0,0.287 -0.107,0.532 -0.326,0.729 -0.214,0.197 -0.504,0.292 -0.872,0.292 -0.386,0 -0.688,-0.113 -0.896,-0.334 -0.148,-0.161 -0.22,-0.347 -0.22,-0.55 0,-0.131 0.031,-0.232 0.09,-0.31 0.065,-0.072 0.142,-0.108 0.238,-0.108 0.088,0 0.166,0.03 0.219,0.084 0.059,0.054 0.088,0.119 0.088,0.197 0,0.102 -0.053,0.204 -0.154,0.299 -0.071,0.072 -0.107,0.131 -0.107,0.173 0,0.066 0.066,0.137 0.19,0.215 0.131,0.078 0.303,0.113 0.516,0.113 0.238,0 0.41,-0.065 0.528,-0.203 0.119,-0.137 0.178,-0.37 0.178,-0.692 0,-0.263 -0.065,-0.454 -0.19,-0.579 -0.124,-0.125 -0.308,-0.191 -0.557,-0.191 l -0.137,0.005 -0.159,0.007 c -0.072,0 -0.12,-0.012 -0.149,-0.036 l -0.047,-0.09 c 0,-0.042 0.017,-0.071 0.047,-0.096 0.029,-0.023 0.077,-0.036 0.136,-0.036 0.036,0 0.09,0.007 0.172,0.019 0.095,0.017 0.178,0.024 0.244,0.024 0.249,0 0.432,-0.072 0.557,-0.222 0.125,-0.142 0.19,-0.387 0.19,-0.734 0,-0.334 -0.071,-0.573 -0.22,-0.723 -0.141,-0.148 -0.367,-0.226 -0.67,-0.226 -0.177,0 -0.32,0.024 -0.433,0.065 -0.118,0.042 -0.201,0.102 -0.26,0.174 -0.06,0.071 -0.09,0.137 -0.09,0.196 0,0.042 0.042,0.084 0.125,0.132 0.071,0.042 0.125,0.084 0.154,0.138 0.03,0.048 0.048,0.107 0.048,0.179 0,0.113 -0.03,0.203 -0.09,0.268 -0.058,0.066 -0.135,0.096 -0.237,0.096 -0.106,0 -0.195,-0.042 -0.267,-0.125 -0.071,-0.09 -0.106,-0.203 -0.106,-0.353 0,-0.185 0.047,-0.346 0.136,-0.49 0.095,-0.148 0.237,-0.263 0.422,-0.352 0.183,-0.083 0.409,-0.125 0.67,-0.125 0.426,0 0.776,0.114 1.044,0.346 0.237,0.203 0.355,0.472 0.355,0.806 0,0.293 -0.101,0.538 -0.297,0.741 -0.153,0.155 -0.367,0.268 -0.641,0.334 0.286,0.119 0.488,0.251 0.6,0.405 m 1.891,1.756 -1.276,-4.31 h 0.374 l 1.282,4.31 z m 1.725,-3.254 0.76,0.645 c 0.178,0.143 0.344,0.323 0.51,0.531 0.1,0.12 0.172,0.251 0.22,0.389 0.052,0.136 0.076,0.274 0.076,0.406 0,0.196 -0.047,0.376 -0.148,0.537 C 4.933,1.177 4.779,1.309 4.583,1.41 4.382,1.512 4.168,1.559 3.931,1.559 3.699,1.559 3.475,1.505 3.273,1.404 3.065,1.296 2.916,1.165 2.816,1.004 2.715,0.843 2.661,0.663 2.661,0.467 c 0,-0.18 0.048,-0.323 0.137,-0.431 0.089,-0.113 0.189,-0.167 0.309,-0.167 0.1,0 0.183,0.031 0.249,0.096 0.065,0.066 0.1,0.15 0.1,0.251 0,0.179 -0.095,0.292 -0.29,0.34 C 3.088,0.575 3.035,0.598 3.012,0.621 2.987,0.652 2.976,0.688 2.976,0.736 c 0,0.142 0.083,0.274 0.249,0.399 0.166,0.126 0.38,0.192 0.64,0.192 0.232,0 0.416,-0.066 0.546,-0.204 C 4.541,0.986 4.608,0.795 4.608,0.556 4.608,0.413 4.577,0.251 4.512,0.078 4.453,-0.094 4.352,-0.279 4.222,-0.465 4.126,-0.596 3.842,-0.919 3.379,-1.432 L 2.537,-2.399 v -0.155 h 2.586 l 0.095,1.212 H 5.017 C 4.94,-1.689 4.868,-1.897 4.809,-1.975 4.744,-2.053 4.643,-2.089 4.5,-2.089 c -0.961,0 -1.399,0.06 -1.31,0.173 0.088,0.114 0.231,0.251 0.426,0.418" /></g><g
     transform="translate(339.382,641.183)"
     id="g982"><path
       inkscape:connector-curvature="0"
       id="path984"
       style="fill:#231f20;fill-opacity:1;fill-rule:nonzero;stroke:none"
       d="m 0,0 0.982,0.829 c 0.231,0.185 0.445,0.414 0.66,0.683 0.131,0.153 0.223,0.322 0.284,0.499 0.07,0.177 0.1,0.353 0.1,0.521 0,0.253 -0.061,0.484 -0.192,0.691 C 1.704,3.438 1.505,3.607 1.251,3.737 0.99,3.868 0.714,3.93 0.407,3.93 0.107,3.93 -0.184,3.86 -0.445,3.729 -0.713,3.592 -0.906,3.423 -1.036,3.216 c -0.13,-0.208 -0.2,-0.438 -0.2,-0.691 0,-0.23 0.062,-0.415 0.177,-0.552 0.115,-0.147 0.245,-0.216 0.4,-0.216 0.129,0 0.237,0.039 0.322,0.123 0.084,0.084 0.13,0.191 0.13,0.323 0,0.23 -0.122,0.376 -0.376,0.437 -0.1,0.023 -0.169,0.053 -0.199,0.085 -0.032,0.038 -0.047,0.084 -0.047,0.145 0,0.184 0.107,0.353 0.323,0.514 0.215,0.161 0.491,0.246 0.828,0.246 0.3,0 0.538,-0.085 0.706,-0.261 C 1.198,3.192 1.282,2.946 1.282,2.64 1.282,2.456 1.243,2.249 1.159,2.026 1.082,1.804 0.952,1.565 0.783,1.327 0.66,1.159 0.292,0.744 -0.307,0.084 l -1.09,-1.243 V -1.358 H 1.949 L 2.072,0.199 H 1.811 C 1.712,-0.245 1.619,-0.513 1.543,-0.614 1.458,-0.714 1.328,-0.759 1.144,-0.759 c -1.244,0 -1.811,0.077 -1.696,0.222 C -0.437,-0.391 -0.253,-0.214 0,0 M 2.739,2.156 V 1.903 C 2.985,1.896 3.146,1.856 3.23,1.788 3.315,1.711 3.353,1.589 3.353,1.42 V -2.271 C 3.353,-2.348 3.322,-2.418 3.261,-2.463 3.208,-2.509 3.116,-2.532 2.993,-2.532 H 2.739 V -2.8 h 1.873 v 0.268 H 4.359 c -0.123,0 -0.216,0.031 -0.284,0.092 -0.054,0.046 -0.077,0.122 -0.077,0.23 v 1.419 c 0.138,-0.222 0.292,-0.39 0.469,-0.498 0.175,-0.115 0.376,-0.169 0.597,-0.169 0.385,0 0.714,0.154 0.99,0.453 0.331,0.353 0.499,0.821 0.499,1.389 0,0.36 -0.069,0.683 -0.199,0.967 C 6.216,1.635 6.039,1.85 5.817,1.995 5.602,2.141 5.372,2.218 5.134,2.218 4.911,2.218 4.704,2.164 4.52,2.049 4.328,1.934 4.143,1.742 3.975,1.474 3.968,1.711 3.928,1.957 3.875,2.218 Z M 5.594,1.535 C 5.756,1.305 5.84,0.913 5.84,0.368 5.84,-0.153 5.748,-0.552 5.563,-0.821 5.426,-1.028 5.225,-1.127 4.957,-1.127 c -0.284,0 -0.514,0.122 -0.691,0.36 -0.183,0.238 -0.276,0.614 -0.276,1.12 0,0.499 0.093,0.875 0.284,1.143 0.185,0.261 0.414,0.392 0.691,0.392 0.253,0 0.461,-0.116 0.629,-0.353" /></g><g
     transform="translate(227.286,678.69)"
     id="g986"><path
       inkscape:connector-curvature="0"
       id="path988"
       style="fill:#231f20;fill-opacity:1;fill-rule:nonzero;stroke:none"
       d="m 0,0 0.982,0.829 c 0.23,0.184 0.445,0.415 0.661,0.683 0.129,0.153 0.222,0.323 0.283,0.499 0.069,0.177 0.1,0.353 0.1,0.522 0,0.253 -0.062,0.483 -0.192,0.69 C 1.704,3.438 1.504,3.607 1.251,3.738 0.99,3.868 0.713,3.93 0.407,3.93 0.107,3.93 -0.184,3.86 -0.445,3.73 -0.713,3.592 -0.906,3.423 -1.036,3.215 -1.167,3.008 -1.235,2.778 -1.235,2.525 c 0,-0.23 0.061,-0.415 0.176,-0.553 0.115,-0.145 0.246,-0.215 0.399,-0.215 0.131,0 0.238,0.039 0.323,0.123 0.084,0.084 0.13,0.192 0.13,0.323 0,0.23 -0.122,0.376 -0.376,0.437 -0.1,0.023 -0.169,0.054 -0.2,0.085 -0.03,0.038 -0.046,0.084 -0.046,0.145 0,0.185 0.107,0.353 0.323,0.514 0.214,0.161 0.491,0.246 0.828,0.246 0.3,0 0.538,-0.085 0.707,-0.261 C 1.197,3.193 1.282,2.947 1.282,2.64 1.282,2.456 1.243,2.249 1.159,2.026 1.083,1.804 0.952,1.565 0.783,1.328 0.66,1.159 0.292,0.745 -0.307,0.085 l -1.09,-1.244 V -1.358 H 1.949 L 2.072,0.2 H 1.811 C 1.711,-0.245 1.619,-0.514 1.542,-0.614 1.458,-0.713 1.328,-0.76 1.144,-0.76 -0.1,-0.76 -0.667,-0.683 -0.552,-0.537 -0.437,-0.391 -0.253,-0.214 0,0 M 2.739,2.157 V 1.903 C 2.985,1.895 3.146,1.857 3.23,1.788 3.315,1.711 3.353,1.589 3.353,1.42 V -2.271 C 3.353,-2.348 3.322,-2.417 3.261,-2.463 3.208,-2.509 3.115,-2.532 2.993,-2.532 H 2.739 v -0.269 h 1.873 v 0.269 H 4.359 c -0.123,0 -0.215,0.03 -0.284,0.092 -0.054,0.046 -0.077,0.123 -0.077,0.229 v 1.421 c 0.138,-0.223 0.292,-0.392 0.468,-0.499 0.177,-0.115 0.376,-0.169 0.598,-0.169 0.384,0 0.714,0.153 0.991,0.453 0.329,0.353 0.498,0.821 0.498,1.389 0,0.361 -0.069,0.683 -0.199,0.967 C 6.216,1.635 6.039,1.85 5.817,1.996 5.602,2.141 5.372,2.218 5.133,2.218 4.911,2.218 4.704,2.164 4.52,2.049 4.328,1.934 4.144,1.742 3.975,1.474 3.967,1.711 3.929,1.957 3.875,2.218 Z M 5.594,1.535 C 5.755,1.305 5.84,0.914 5.84,0.369 5.84,-0.153 5.748,-0.552 5.563,-0.821 5.425,-1.028 5.226,-1.128 4.957,-1.128 c -0.284,0 -0.514,0.123 -0.69,0.36 -0.184,0.239 -0.277,0.615 -0.277,1.121 0,0.499 0.093,0.875 0.284,1.144 0.184,0.26 0.414,0.391 0.691,0.391 0.253,0 0.46,-0.115 0.629,-0.353" /></g><g
     transform="translate(236.372,677.538)"
     id="g990"><path
       inkscape:connector-curvature="0"
       id="path992"
       style="fill:#231f20;fill-opacity:1;fill-rule:nonzero;stroke:none"
       d="m 0,0 c -0.143,-0.107 -0.311,-0.191 -0.502,-0.257 -0.185,-0.065 -0.43,-0.113 -0.734,-0.155 v -0.203 h 0.645 c 0.071,0 0.125,-0.018 0.173,-0.06 0.042,-0.035 0.066,-0.083 0.066,-0.143 v -2.741 c 0,-0.077 -0.024,-0.143 -0.072,-0.191 -0.048,-0.047 -0.125,-0.071 -0.227,-0.071 h -0.483 v -0.221 h 2.095 v 0.221 H 0.393 c -0.077,0 -0.148,0.018 -0.202,0.06 -0.042,0.03 -0.06,0.071 -0.06,0.125 V 0 Z M 2.714,0.269 1.431,-4.042 h 0.376 l 1.29,4.311 z m 1.737,-3.254 0.764,0.645 c 0.179,0.143 0.346,0.322 0.513,0.531 0.102,0.12 0.174,0.251 0.222,0.388 0.053,0.137 0.077,0.275 0.077,0.406 0,0.197 -0.048,0.376 -0.149,0.538 C 5.776,-0.31 5.622,-0.179 5.424,-0.078 5.221,0.024 5.006,0.072 4.768,0.072 4.535,0.072 4.308,0.018 4.105,-0.083 3.896,-0.191 3.747,-0.322 3.645,-0.484 3.543,-0.645 3.49,-0.824 3.49,-1.021 c 0,-0.179 0.048,-0.322 0.137,-0.43 0.089,-0.113 0.191,-0.167 0.31,-0.167 0.102,0 0.185,0.03 0.251,0.096 0.066,0.065 0.102,0.149 0.102,0.25 0,0.18 -0.096,0.293 -0.293,0.341 -0.077,0.018 -0.131,0.041 -0.155,0.065 -0.024,0.03 -0.035,0.066 -0.035,0.114 0,0.143 0.083,0.275 0.25,0.4 0.167,0.126 0.382,0.191 0.645,0.191 0.233,0 0.418,-0.065 0.549,-0.203 0.132,-0.137 0.197,-0.329 0.197,-0.567 0,-0.144 -0.03,-0.305 -0.096,-0.478 C 5.292,-1.582 5.191,-1.767 5.06,-1.952 4.964,-2.083 4.678,-2.406 4.212,-2.919 L 3.365,-3.887 V -4.042 H 5.967 L 6.063,-2.83 H 5.86 C 5.782,-3.176 5.711,-3.385 5.651,-3.463 5.585,-3.54 5.484,-3.576 5.34,-3.576 c -0.967,0 -1.408,0.06 -1.319,0.173 0.09,0.114 0.233,0.251 0.43,0.418" /></g><g
     transform="translate(227.109,661.856)"
     id="g994"><path
       inkscape:connector-curvature="0"
       id="path996"
       style="fill:#ed1c24;fill-opacity:1;fill-rule:nonzero;stroke:none"
       d="m 0,0 c -0.184,-0.138 -0.399,-0.246 -0.644,-0.33 -0.239,-0.084 -0.553,-0.146 -0.944,-0.199 v -0.262 h 0.828 c 0.093,0 0.162,-0.022 0.223,-0.076 0.054,-0.047 0.084,-0.108 0.084,-0.185 v -3.521 c 0,-0.1 -0.03,-0.185 -0.091,-0.246 -0.062,-0.062 -0.162,-0.092 -0.292,-0.092 h -0.622 v -0.284 h 2.694 v 0.284 h -0.73 c -0.099,0 -0.191,0.023 -0.26,0.076 -0.054,0.039 -0.077,0.092 -0.077,0.162 V 0 Z m 3.284,-0.906 c 0,0.369 0.069,0.653 0.215,0.837 0.146,0.192 0.33,0.284 0.538,0.284 C 4.151,0.215 4.236,0.2 4.29,0.161 4.343,0.13 4.374,0.092 4.374,0.046 4.374,0.015 4.336,-0.031 4.267,-0.084 4.174,-0.161 4.128,-0.261 4.128,-0.376 c 0,-0.1 0.031,-0.184 0.1,-0.253 0.069,-0.069 0.162,-0.1 0.261,-0.1 0.123,0 0.215,0.039 0.292,0.123 0.076,0.085 0.115,0.199 0.115,0.345 0,0.222 -0.077,0.399 -0.238,0.537 C 4.504,0.414 4.282,0.483 3.998,0.483 3.622,0.483 3.307,0.322 3.046,0 2.793,-0.33 2.663,-0.798 2.663,-1.412 V -1.681 H 2.056 v -0.33 H 2.663 V -4.636 C 2.663,-4.727 2.64,-4.796 2.586,-4.843 2.532,-4.888 2.44,-4.911 2.309,-4.911 H 2.01 v -0.284 h 2.149 v 0.284 H 3.683 c -0.138,0 -0.245,0.03 -0.314,0.092 -0.054,0.046 -0.085,0.131 -0.085,0.246 v 2.562 h 0.875 v 0.33 H 3.284 v 0.775" /></g><g
     transform="translate(233.539,656.811)"
     id="g998"><path
       inkscape:connector-curvature="0"
       id="path1000"
       style="fill:#ed1c24;fill-opacity:1;fill-rule:nonzero;stroke:none"
       d="m 0,0 -0.071,-0.859 -0.048,-0.072 c -0.078,-0.084 -0.12,-0.167 -0.12,-0.251 0,-0.047 0.012,-0.089 0.036,-0.113 l 0.09,-0.042 c 0.059,0 0.101,0.023 0.137,0.066 0.036,0.047 0.059,0.137 0.072,0.274 0.119,0.084 0.232,0.149 0.352,0.191 0.113,0.042 0.233,0.066 0.346,0.066 0.257,0 0.472,-0.089 0.633,-0.263 C 1.594,-1.176 1.678,-1.45 1.678,-1.826 1.678,-2.245 1.6,-2.543 1.445,-2.727 1.29,-2.913 1.062,-3.003 0.764,-3.003 c -0.149,0 -0.286,0.024 -0.4,0.071 -0.119,0.048 -0.209,0.108 -0.262,0.186 -0.06,0.072 -0.09,0.138 -0.09,0.203 0,0.042 0.042,0.078 0.126,0.113 0.083,0.03 0.143,0.066 0.172,0.114 0.03,0.047 0.048,0.113 0.048,0.197 0,0.107 -0.03,0.197 -0.095,0.268 -0.066,0.066 -0.15,0.102 -0.251,0.102 -0.107,0 -0.191,-0.042 -0.257,-0.131 -0.065,-0.084 -0.101,-0.21 -0.101,-0.365 0,-0.262 0.107,-0.488 0.316,-0.68 0.209,-0.191 0.484,-0.287 0.818,-0.287 0.442,0 0.8,0.132 1.075,0.401 0.275,0.262 0.412,0.602 0.412,1.014 0,0.364 -0.132,0.681 -0.388,0.932 -0.263,0.251 -0.579,0.376 -0.962,0.376 -0.119,0 -0.25,-0.018 -0.382,-0.054 C 0.406,-0.579 0.268,-0.639 0.12,-0.71 L 0.215,0.407 C 0.525,0.335 0.8,0.299 1.027,0.299 c 0.197,0 0.37,0.036 0.519,0.101 0.15,0.066 0.269,0.156 0.358,0.263 0.091,0.113 0.132,0.203 0.132,0.275 L 2.006,0.979 1.94,0.956 C 1.881,0.914 1.785,0.884 1.654,0.854 1.528,0.824 1.392,0.812 1.242,0.812 c -0.31,0 -0.71,0.054 -1.2,0.167 C 0.042,0.663 0.024,0.341 0,0 M 3.843,1.176 2.56,-3.134 h 0.376 l 1.289,4.31 z m 1.737,-3.254 0.764,0.645 c 0.179,0.144 0.346,0.323 0.513,0.532 0.102,0.119 0.174,0.251 0.221,0.388 0.054,0.137 0.078,0.275 0.078,0.406 0,0.197 -0.048,0.375 -0.149,0.538 C 6.905,0.597 6.749,0.728 6.553,0.83 6.35,0.932 6.135,0.979 5.896,0.979 5.664,0.979 5.436,0.926 5.233,0.824 5.024,0.717 4.875,0.585 4.774,0.425 4.672,0.263 4.619,0.084 4.619,-0.113 c 0,-0.179 0.047,-0.323 0.137,-0.43 0.09,-0.113 0.191,-0.167 0.31,-0.167 0.101,0 0.185,0.029 0.251,0.096 0.066,0.065 0.101,0.148 0.101,0.251 0,0.178 -0.095,0.292 -0.292,0.34 C 5.048,-0.006 4.995,0.018 4.971,0.042 4.947,0.071 4.935,0.107 4.935,0.155 c 0,0.144 0.083,0.276 0.25,0.401 0.167,0.125 0.383,0.191 0.646,0.191 0.232,0 0.417,-0.066 0.549,-0.203 0.131,-0.137 0.197,-0.329 0.197,-0.567 0,-0.144 -0.03,-0.305 -0.096,-0.479 C 6.421,-0.674 6.32,-0.859 6.189,-1.044 6.093,-1.176 5.807,-1.498 5.341,-2.012 L 4.493,-2.979 v -0.155 h 2.603 l 0.096,1.212 H 6.989 C 6.911,-2.269 6.839,-2.477 6.78,-2.555 6.714,-2.633 6.613,-2.668 6.469,-2.668 c -0.967,0 -1.409,0.06 -1.319,0.173 0.089,0.113 0.233,0.25 0.43,0.417" /></g><g
     transform="translate(237.187,636.224)"
     id="g1002"><path
       inkscape:connector-curvature="0"
       id="path1004"
       style="fill:#231f20;fill-opacity:1;fill-rule:nonzero;stroke:none"
       d="m 0,0 c 0.119,0.15 0.178,0.329 0.178,0.539 0,0.286 -0.107,0.531 -0.326,0.728 -0.214,0.196 -0.504,0.292 -0.872,0.292 -0.385,0 -0.688,-0.113 -0.896,-0.334 -0.148,-0.162 -0.219,-0.347 -0.219,-0.55 0,-0.131 0.03,-0.232 0.089,-0.31 0.065,-0.072 0.142,-0.108 0.237,-0.108 0.089,0 0.166,0.031 0.22,0.084 0.059,0.054 0.088,0.119 0.088,0.198 0,0.1 -0.053,0.202 -0.154,0.297 -0.071,0.073 -0.106,0.132 -0.106,0.173 0,0.067 0.065,0.138 0.189,0.216 0.131,0.077 0.303,0.113 0.516,0.113 0.238,0 0.41,-0.065 0.528,-0.203 0.119,-0.137 0.178,-0.37 0.178,-0.692 0,-0.263 -0.065,-0.454 -0.19,-0.579 -0.125,-0.125 -0.308,-0.192 -0.557,-0.192 l -0.296,0.013 c -0.072,0 -0.119,-0.013 -0.149,-0.036 l -0.047,-0.09 c 0,-0.042 0.017,-0.071 0.047,-0.096 0.03,-0.023 0.077,-0.036 0.137,-0.036 0.035,0 0.089,0.007 0.171,0.019 0.095,0.017 0.178,0.023 0.244,0.023 0.248,0 0.432,-0.071 0.557,-0.22 0.124,-0.144 0.19,-0.388 0.19,-0.735 0,-0.334 -0.071,-0.573 -0.219,-0.723 -0.142,-0.148 -0.368,-0.226 -0.671,-0.226 -0.178,0 -0.32,0.024 -0.433,0.065 -0.118,0.042 -0.202,0.102 -0.261,0.174 -0.059,0.071 -0.089,0.137 -0.089,0.196 0,0.042 0.042,0.084 0.124,0.132 0.072,0.042 0.125,0.083 0.155,0.137 0.03,0.048 0.048,0.107 0.048,0.18 0,0.113 -0.03,0.202 -0.089,0.268 -0.06,0.066 -0.136,0.096 -0.238,0.096 -0.106,0 -0.195,-0.042 -0.267,-0.126 -0.071,-0.09 -0.107,-0.203 -0.107,-0.352 0,-0.185 0.048,-0.346 0.137,-0.49 0.095,-0.148 0.237,-0.262 0.422,-0.351 0.183,-0.084 0.409,-0.126 0.67,-0.126 0.426,0 0.776,0.114 1.043,0.346 0.238,0.202 0.356,0.472 0.356,0.806 0,0.293 -0.1,0.537 -0.297,0.74 -0.153,0.156 -0.367,0.269 -0.64,0.335 C -0.314,-0.286 -0.112,-0.154 0,0 M 1.891,1.755 0.616,-2.554 H 0.989 L 2.27,1.755 Z m 1.726,-3.253 0.759,0.645 c 0.178,0.144 0.344,0.322 0.51,0.531 0.1,0.12 0.172,0.251 0.219,0.388 0.054,0.138 0.077,0.275 0.077,0.406 0,0.197 -0.047,0.376 -0.148,0.537 C 4.933,1.177 4.779,1.308 4.583,1.41 4.382,1.511 4.168,1.559 3.931,1.559 3.699,1.559 3.474,1.505 3.272,1.404 3.064,1.296 2.916,1.165 2.816,1.003 2.715,0.842 2.662,0.664 2.662,0.466 2.662,0.288 2.709,0.144 2.798,0.037 2.887,-0.077 2.987,-0.13 3.106,-0.13 c 0.101,0 0.184,0.03 0.249,0.094 0.065,0.067 0.102,0.15 0.102,0.251 0,0.18 -0.096,0.293 -0.291,0.341 C 3.088,0.574 3.035,0.598 3.011,0.622 2.987,0.652 2.976,0.687 2.976,0.735 c 0,0.143 0.083,0.274 0.249,0.4 C 3.391,1.26 3.604,1.327 3.866,1.327 4.097,1.327 4.281,1.26 4.411,1.124 4.541,0.986 4.607,0.794 4.607,0.556 4.607,0.413 4.577,0.251 4.512,0.079 4.453,-0.094 4.352,-0.28 4.221,-0.465 4.126,-0.596 3.842,-0.918 3.379,-1.432 L 2.537,-2.399 v -0.155 h 2.586 l 0.095,1.212 H 5.017 C 4.939,-1.689 4.868,-1.897 4.809,-1.976 4.744,-2.053 4.643,-2.089 4.5,-2.089 c -0.96,0 -1.399,0.059 -1.311,0.173 0.089,0.114 0.231,0.251 0.428,0.418" /></g><g
     transform="translate(227.286,639.052)"
     id="g1006"><path
       inkscape:connector-curvature="0"
       id="path1008"
       style="fill:#231f20;fill-opacity:1;fill-rule:nonzero;stroke:none"
       d="m 0,0 0.982,0.829 c 0.23,0.184 0.445,0.415 0.66,0.683 0.13,0.154 0.223,0.323 0.284,0.499 0.069,0.177 0.1,0.353 0.1,0.522 0,0.253 -0.062,0.483 -0.192,0.69 C 1.704,3.438 1.504,3.607 1.251,3.738 0.99,3.868 0.713,3.929 0.407,3.929 0.107,3.929 -0.184,3.861 -0.445,3.73 -0.713,3.592 -0.906,3.422 -1.036,3.215 c -0.131,-0.207 -0.2,-0.437 -0.2,-0.69 0,-0.229 0.062,-0.415 0.177,-0.553 0.115,-0.145 0.246,-0.215 0.399,-0.215 0.131,0 0.238,0.039 0.322,0.123 0.085,0.084 0.131,0.192 0.131,0.323 0,0.23 -0.123,0.376 -0.376,0.437 -0.1,0.023 -0.169,0.054 -0.2,0.084 -0.03,0.039 -0.046,0.085 -0.046,0.147 0,0.183 0.107,0.352 0.323,0.513 C -0.292,3.546 -0.015,3.63 0.322,3.63 0.621,3.63 0.86,3.546 1.028,3.369 1.197,3.193 1.282,2.947 1.282,2.64 1.282,2.457 1.243,2.249 1.159,2.026 1.082,1.803 0.952,1.566 0.783,1.328 0.66,1.159 0.292,0.745 -0.307,0.085 l -1.09,-1.244 V -1.358 H 1.949 L 2.072,0.2 H 1.811 C 1.711,-0.245 1.619,-0.514 1.542,-0.614 1.458,-0.713 1.328,-0.759 1.144,-0.759 c -1.244,0 -1.811,0.076 -1.696,0.222 C -0.437,-0.391 -0.253,-0.215 0,0 M 2.739,2.157 V 1.904 C 2.985,1.895 3.146,1.857 3.23,1.788 3.315,1.712 3.353,1.588 3.353,1.42 v -3.691 c 0,-0.077 -0.031,-0.146 -0.092,-0.192 -0.053,-0.046 -0.146,-0.07 -0.269,-0.07 H 2.739 v -0.268 h 1.873 v 0.268 H 4.358 c -0.122,0 -0.214,0.032 -0.283,0.092 -0.054,0.047 -0.077,0.123 -0.077,0.231 v 1.42 c 0.138,-0.223 0.292,-0.392 0.468,-0.499 0.177,-0.116 0.376,-0.169 0.598,-0.169 0.384,0 0.714,0.154 0.99,0.453 0.33,0.353 0.499,0.821 0.499,1.388 0,0.362 -0.069,0.684 -0.199,0.968 C 6.215,1.635 6.039,1.85 5.816,1.996 5.602,2.141 5.372,2.218 5.133,2.218 4.911,2.218 4.704,2.165 4.52,2.049 4.328,1.934 4.144,1.743 3.975,1.473 3.967,1.712 3.929,1.958 3.875,2.218 Z M 5.594,1.535 C 5.755,1.305 5.84,0.914 5.84,0.369 5.84,-0.153 5.748,-0.552 5.563,-0.821 5.425,-1.028 5.226,-1.128 4.957,-1.128 c -0.284,0 -0.514,0.123 -0.69,0.36 -0.184,0.239 -0.277,0.615 -0.277,1.121 0,0.499 0.093,0.875 0.284,1.144 0.184,0.26 0.414,0.391 0.69,0.391 0.254,0 0.461,-0.115 0.63,-0.353" /></g><g
     transform="translate(174.685,623.709)"
     id="g1010"><path
       inkscape:connector-curvature="0"
       id="path1012"
       style="fill:#231f20;fill-opacity:1;fill-rule:nonzero;stroke:none"
       d="m 0,0 c -0.185,-0.138 -0.399,-0.245 -0.644,-0.329 -0.239,-0.085 -0.553,-0.147 -0.945,-0.2 V -0.79 h 0.829 c 0.093,0 0.161,-0.024 0.223,-0.077 0.054,-0.046 0.084,-0.108 0.084,-0.184 v -3.522 c 0,-0.1 -0.03,-0.185 -0.092,-0.246 -0.061,-0.061 -0.161,-0.092 -0.292,-0.092 h -0.621 v -0.284 h 2.693 v 0.284 H 0.506 c -0.099,0 -0.192,0.023 -0.26,0.077 -0.054,0.038 -0.077,0.092 -0.077,0.161 V 0 Z m 3.284,-0.905 c 0,0.369 0.069,0.652 0.215,0.836 0.146,0.192 0.33,0.284 0.537,0.284 0.115,0 0.2,-0.015 0.253,-0.054 C 4.343,0.131 4.374,0.093 4.374,0.047 4.374,0.015 4.335,-0.03 4.266,-0.084 4.174,-0.161 4.128,-0.261 4.128,-0.375 c 0,-0.101 0.031,-0.185 0.1,-0.254 0.069,-0.068 0.161,-0.1 0.261,-0.1 0.122,0 0.215,0.038 0.291,0.123 0.077,0.084 0.115,0.2 0.115,0.345 0,0.223 -0.076,0.4 -0.237,0.537 C 4.504,0.415 4.282,0.483 3.998,0.483 3.622,0.483 3.307,0.322 3.046,0 2.793,-0.329 2.663,-0.798 2.663,-1.411 V -1.68 H 2.056 V -2.01 H 2.663 V -4.635 C 2.663,-4.727 2.639,-4.796 2.586,-4.842 2.532,-4.888 2.44,-4.911 2.309,-4.911 H 2.01 v -0.284 h 2.149 v 0.284 H 3.683 c -0.138,0 -0.245,0.031 -0.315,0.092 -0.054,0.046 -0.084,0.13 -0.084,0.246 v 2.563 h 0.875 v 0.33 H 3.284 v 0.775" /></g><g
     transform="translate(179.945,619.111)"
     id="g1014"><path
       inkscape:connector-curvature="0"
       id="path1016"
       style="fill:#231f20;fill-opacity:1;fill-rule:nonzero;stroke:none"
       d="m 0,0 h 0.209 c 0.078,0.406 0.149,0.652 0.203,0.735 0.06,0.078 0.149,0.119 0.263,0.119 H 2.257 L 1.857,0.113 C 1.702,-0.173 1.517,-0.573 1.308,-1.074 1.146,-1.451 1.045,-1.731 0.997,-1.922 0.955,-2.113 0.931,-2.268 0.931,-2.394 c 0,-0.143 0.03,-0.244 0.084,-0.31 0.054,-0.066 0.131,-0.102 0.227,-0.102 0.084,0 0.155,0.024 0.209,0.06 0.053,0.042 0.089,0.102 0.107,0.179 0.018,0.078 0.036,0.28 0.054,0.603 0.024,0.394 0.066,0.734 0.131,1.034 0.072,0.292 0.173,0.602 0.305,0.924 0.131,0.323 0.328,0.717 0.596,1.188 V 1.314 H 0.83 c -0.221,0 -0.43,0.023 -0.621,0.071 z m 4.16,1.582 -1.285,-4.31 h 0.377 l 1.29,4.31 z m 1.736,-3.254 0.764,0.645 c 0.179,0.143 0.347,0.322 0.514,0.531 0.101,0.12 0.173,0.251 0.22,0.389 0.054,0.137 0.078,0.274 0.078,0.406 0,0.197 -0.048,0.376 -0.149,0.537 C 7.222,1.003 7.066,1.134 6.869,1.237 6.666,1.337 6.451,1.385 6.212,1.385 5.979,1.385 5.753,1.331 5.55,1.23 5.341,1.122 5.191,0.991 5.09,0.83 4.988,0.669 4.935,0.49 4.935,0.293 c 0,-0.18 0.048,-0.323 0.137,-0.431 0.09,-0.113 0.191,-0.166 0.311,-0.166 0.101,0 0.185,0.03 0.25,0.095 0.066,0.066 0.102,0.15 0.102,0.251 0,0.179 -0.095,0.292 -0.293,0.34 C 5.365,0.401 5.311,0.424 5.287,0.448 5.263,0.478 5.251,0.514 5.251,0.562 c 0,0.143 0.083,0.274 0.251,0.399 0.167,0.125 0.382,0.192 0.644,0.192 0.234,0 0.419,-0.067 0.55,-0.204 C 6.827,0.813 6.893,0.621 6.893,0.382 6.893,0.239 6.863,0.078 6.797,-0.096 6.738,-0.268 6.636,-0.454 6.505,-0.638 6.41,-0.77 6.122,-1.092 5.657,-1.605 L 4.809,-2.573 v -0.155 h 2.603 l 0.096,1.212 H 7.305 C 7.227,-1.862 7.156,-2.072 7.096,-2.149 7.031,-2.226 6.929,-2.263 6.786,-2.263 c -0.968,0 -1.409,0.06 -1.32,0.173 0.09,0.114 0.233,0.251 0.43,0.418" /></g></g><text
   xml:space="preserve"
   style="font-style:normal;font-variant:normal;font-weight:normal;font-stretch:normal;font-size:9.11989975px;line-height:1.25;font-family:'Times New Roman';-inkscape-font-specification:'Times New Roman, Normal';font-variant-ligatures:normal;font-variant-caps:normal;font-variant-numeric:normal;text-align:start;letter-spacing:0px;word-spacing:0px;writing-mode:lr-tb;text-anchor:start;fill:#000000;fill-opacity:1;stroke:none;stroke-width:0.2279975"
   x="188.24835"
   y="-573.02875"
   id="text1120"
   transform="scale(1,-1)"><tspan
     sodipodi:role="line"
     id="tspan1118"
     x="188.24835"
     y="-573.02875"
     style="stroke-width:0.2279975">Figure from T. Otsuka and Y. Tsunoda </tspan><tspan
     sodipodi:role="line"
     x="188.24835"
     y="-561.62885"
     style="stroke-width:0.2279975"
     id="tspan1122">J. Phys. G: Nucl. Part. Phys. 43 024009 (2016). </tspan></text>



</g></svg>