<?xml version="1.0" encoding="UTF-8" standalone="no"?>
<svg
   xmlns:dc="http://purl.org/dc/elements/1.1/"
   xmlns:cc="http://creativecommons.org/ns#"
   xmlns:rdf="http://www.w3.org/1999/02/22-rdf-syntax-ns#"
   xmlns:svg="http://www.w3.org/2000/svg"
   xmlns="http://www.w3.org/2000/svg"
   viewBox="0 0 725.33331 1014.6667"
   height="1014.6667"
   width="725.33331"
   xml:space="preserve"
   id="svg2"
   version="1.1"><metadata
     id="metadata8"><rdf:RDF><cc:Work
         rdf:about=""><dc:format>image/svg+xml</dc:format><dc:type
           rdf:resource="http://purl.org/dc/dcmitype/StillImage" /></cc:Work></rdf:RDF></metadata><defs
     id="defs6" /><g
     transform="matrix(1.3333333,0,0,-1.3333333,0,1014.6667)"
     id="g10"><g
       transform="scale(0.1)"
       id="g12"><path
         id="path14"
         style="fill:none;stroke:#000000;stroke-width:5.59370995;stroke-linecap:butt;stroke-linejoin:miter;stroke-miterlimit:3.79999995;stroke-dasharray:none;stroke-opacity:1"
         d="m 850.16,4544.53 h 70.539" /><path
         id="path16"
         style="fill:none;stroke:#000000;stroke-width:5.59370995;stroke-linecap:butt;stroke-linejoin:miter;stroke-miterlimit:3.79999995;stroke-dasharray:none;stroke-opacity:1"
         d="m 5212.11,4544.53 h -70.43" /><g
         transform="scale(10)"
         id="g18"><text
           id="text22"
           style="font-variant:normal;font-weight:normal;font-size:26.84980011px;font-family:'Times New Roman';-inkscape-font-specification:TimesNewRomanPSMT;writing-mode:lr-tb;fill:#000000;fill-opacity:1;fill-rule:nonzero;stroke:none"
           transform="matrix(1,0,0,-1,60.2383,444.344)"><tspan
             id="tspan20"
             y="0"
             x="0">0</tspan></text>
</g><path
         id="path24"
         style="fill:none;stroke:#000000;stroke-width:5.59370995;stroke-linecap:butt;stroke-linejoin:miter;stroke-miterlimit:3.79999995;stroke-dasharray:none;stroke-opacity:1"
         d="m 850.16,4980.86 h 34.719" /><path
         id="path26"
         style="fill:none;stroke:#000000;stroke-width:5.59370995;stroke-linecap:butt;stroke-linejoin:miter;stroke-miterlimit:3.79999995;stroke-dasharray:none;stroke-opacity:1"
         d="m 5212.11,4980.86 h -34.57" /><path
         id="path28"
         style="fill:none;stroke:#000000;stroke-width:5.59370995;stroke-linecap:butt;stroke-linejoin:miter;stroke-miterlimit:3.79999995;stroke-dasharray:none;stroke-opacity:1"
         d="m 850.16,5417.15 h 70.539" /><path
         id="path30"
         style="fill:none;stroke:#000000;stroke-width:5.59370995;stroke-linecap:butt;stroke-linejoin:miter;stroke-miterlimit:3.79999995;stroke-dasharray:none;stroke-opacity:1"
         d="m 5212.11,5417.15 h -70.43" /><g
         transform="scale(10)"
         id="g32"><text
           id="text36"
           style="font-variant:normal;font-weight:normal;font-size:26.84980011px;font-family:'Times New Roman';-inkscape-font-specification:TimesNewRomanPSMT;writing-mode:lr-tb;fill:#000000;fill-opacity:1;fill-rule:nonzero;stroke:none"
           transform="matrix(1,0,0,-1,40.1012,531.606)"><tspan
             id="tspan34"
             y="0"
             x="0 13.4249 20.13735">0.1</tspan></text>
</g><path
         id="path38"
         style="fill:none;stroke:#000000;stroke-width:5.59370995;stroke-linecap:butt;stroke-linejoin:miter;stroke-miterlimit:3.79999995;stroke-dasharray:none;stroke-opacity:1"
         d="m 850.16,5853.48 h 34.719" /><path
         id="path40"
         style="fill:none;stroke:#000000;stroke-width:5.59370995;stroke-linecap:butt;stroke-linejoin:miter;stroke-miterlimit:3.79999995;stroke-dasharray:none;stroke-opacity:1"
         d="m 5212.11,5853.48 h -34.57" /><path
         id="path42"
         style="fill:none;stroke:#000000;stroke-width:5.59370995;stroke-linecap:butt;stroke-linejoin:miter;stroke-miterlimit:3.79999995;stroke-dasharray:none;stroke-opacity:1"
         d="m 850.16,6288.63 h 70.539" /><path
         id="path44"
         style="fill:none;stroke:#000000;stroke-width:5.59370995;stroke-linecap:butt;stroke-linejoin:miter;stroke-miterlimit:3.79999995;stroke-dasharray:none;stroke-opacity:1"
         d="m 5212.11,6288.63 h -70.43" /><g
         transform="scale(10)"
         id="g46"><text
           id="text50"
           style="font-variant:normal;font-weight:normal;font-size:26.84980011px;font-family:'Times New Roman';-inkscape-font-specification:TimesNewRomanPSMT;writing-mode:lr-tb;fill:#000000;fill-opacity:1;fill-rule:nonzero;stroke:none"
           transform="matrix(1,0,0,-1,40.1012,618.755)"><tspan
             id="tspan48"
             y="0"
             x="0 13.4249 20.13735">0.2</tspan></text>
</g><path
         id="path52"
         style="fill:none;stroke:#000000;stroke-width:5.59370995;stroke-linecap:butt;stroke-linejoin:miter;stroke-miterlimit:3.79999995;stroke-dasharray:none;stroke-opacity:1"
         d="m 850.16,6724.92 h 34.719" /><path
         id="path54"
         style="fill:none;stroke:#000000;stroke-width:5.59370995;stroke-linecap:butt;stroke-linejoin:miter;stroke-miterlimit:3.79999995;stroke-dasharray:none;stroke-opacity:1"
         d="m 5212.11,6724.92 h -34.57" /><path
         id="path56"
         style="fill:none;stroke:#000000;stroke-width:5.59370995;stroke-linecap:butt;stroke-linejoin:miter;stroke-miterlimit:3.79999995;stroke-dasharray:none;stroke-opacity:1"
         d="m 850.16,7161.25 h 70.539" /><path
         id="path58"
         style="fill:none;stroke:#000000;stroke-width:5.59370995;stroke-linecap:butt;stroke-linejoin:miter;stroke-miterlimit:3.79999995;stroke-dasharray:none;stroke-opacity:1"
         d="m 5212.11,7161.25 h -70.43" /><g
         transform="scale(10)"
         id="g60"><text
           id="text64"
           style="font-variant:normal;font-weight:normal;font-size:26.84980011px;font-family:'Times New Roman';-inkscape-font-specification:TimesNewRomanPSMT;writing-mode:lr-tb;fill:#000000;fill-opacity:1;fill-rule:nonzero;stroke:none"
           transform="matrix(1,0,0,-1,40.1012,706.017)"><tspan
             id="tspan62"
             y="0"
             x="0 13.4249 20.13735">0.3</tspan></text>
</g><path
         id="path66"
         style="fill:none;stroke:#000000;stroke-width:5.59370995;stroke-linecap:butt;stroke-linejoin:miter;stroke-miterlimit:3.79999995;stroke-dasharray:none;stroke-opacity:1"
         d="m 850.16,7597.54 h 34.719" /><path
         id="path68"
         style="fill:none;stroke:#000000;stroke-width:5.59370995;stroke-linecap:butt;stroke-linejoin:miter;stroke-miterlimit:3.79999995;stroke-dasharray:none;stroke-opacity:1"
         d="m 5212.11,7597.54 h -34.57" /><path
         id="path70"
         style="fill:none;stroke:#000000;stroke-width:5.59370995;stroke-linecap:butt;stroke-linejoin:miter;stroke-miterlimit:3.79999995;stroke-dasharray:none;stroke-opacity:1"
         d="m 850.16,4544.53 v 70.43" /><path
         id="path72"
         style="fill:none;stroke:#000000;stroke-width:5.59370995;stroke-linecap:butt;stroke-linejoin:miter;stroke-miterlimit:3.79999995;stroke-dasharray:none;stroke-opacity:1"
         d="m 850.16,7597.54 v -70.43" /><g
         transform="scale(10)"
         id="g74"><text
           id="text78"
           style="font-variant:normal;font-weight:normal;font-size:26.84980011px;font-family:'Times New Roman';-inkscape-font-specification:TimesNewRomanPSMT;writing-mode:lr-tb;fill:#000000;fill-opacity:1;fill-rule:nonzero;stroke:none"
           transform="matrix(1,0,0,-1,60.352,426.558)"><tspan
             id="tspan76"
             y="0"
             x="0 8.9409838 22.365883 35.790783">-200</tspan></text>
</g><path
         id="path80"
         style="fill:none;stroke:#000000;stroke-width:5.59370995;stroke-linecap:butt;stroke-linejoin:miter;stroke-miterlimit:3.79999995;stroke-dasharray:none;stroke-opacity:1"
         d="m 1395.04,4544.53 v 34.73" /><path
         id="path82"
         style="fill:none;stroke:#000000;stroke-width:5.59370995;stroke-linecap:butt;stroke-linejoin:miter;stroke-miterlimit:3.79999995;stroke-dasharray:none;stroke-opacity:1"
         d="m 1395.04,7597.54 v -34.69" /><path
         id="path84"
         style="fill:none;stroke:#000000;stroke-width:5.59370995;stroke-linecap:butt;stroke-linejoin:miter;stroke-miterlimit:3.79999995;stroke-dasharray:none;stroke-opacity:1"
         d="m 1940.94,4544.53 v 70.43" /><path
         id="path86"
         style="fill:none;stroke:#000000;stroke-width:5.59370995;stroke-linecap:butt;stroke-linejoin:miter;stroke-miterlimit:3.79999995;stroke-dasharray:none;stroke-opacity:1"
         d="m 1940.94,7597.54 v -70.43" /><g
         transform="scale(10)"
         id="g88"><text
           id="text92"
           style="font-variant:normal;font-weight:normal;font-size:26.84980011px;font-family:'Times New Roman';-inkscape-font-specification:TimesNewRomanPSMT;writing-mode:lr-tb;fill:#000000;fill-opacity:1;fill-rule:nonzero;stroke:none"
           transform="matrix(1,0,0,-1,169.43,426.558)"><tspan
             id="tspan90"
             y="0"
             x="0 8.9409838 22.365883 35.790783">-100</tspan></text>
</g><path
         id="path94"
         style="fill:none;stroke:#000000;stroke-width:5.59370995;stroke-linecap:butt;stroke-linejoin:miter;stroke-miterlimit:3.79999995;stroke-dasharray:none;stroke-opacity:1"
         d="m 2485.82,4544.53 v 34.73" /><path
         id="path96"
         style="fill:none;stroke:#000000;stroke-width:5.59370995;stroke-linecap:butt;stroke-linejoin:miter;stroke-miterlimit:3.79999995;stroke-dasharray:none;stroke-opacity:1"
         d="m 2485.82,7597.54 v -34.69" /><path
         id="path98"
         style="fill:none;stroke:#000000;stroke-width:5.59370995;stroke-linecap:butt;stroke-linejoin:miter;stroke-miterlimit:3.79999995;stroke-dasharray:none;stroke-opacity:1"
         d="m 3031.72,4544.53 v 70.43" /><path
         id="path100"
         style="fill:none;stroke:#000000;stroke-width:5.59370995;stroke-linecap:butt;stroke-linejoin:miter;stroke-miterlimit:3.79999995;stroke-dasharray:none;stroke-opacity:1"
         d="m 3031.72,7597.54 v -70.43" /><g
         transform="scale(10)"
         id="g102"><text
           id="text106"
           style="font-variant:normal;font-weight:normal;font-size:26.84980011px;font-family:'Times New Roman';-inkscape-font-specification:TimesNewRomanPSMT;writing-mode:lr-tb;fill:#000000;fill-opacity:1;fill-rule:nonzero;stroke:none"
           transform="matrix(1,0,0,-1,299.763,426.558)"><tspan
             id="tspan104"
             y="0"
             x="0">0</tspan></text>
</g><path
         id="path108"
         style="fill:none;stroke:#000000;stroke-width:5.59370995;stroke-linecap:butt;stroke-linejoin:miter;stroke-miterlimit:3.79999995;stroke-dasharray:none;stroke-opacity:1"
         d="m 3576.56,4544.53 v 34.73" /><path
         id="path110"
         style="fill:none;stroke:#000000;stroke-width:5.59370995;stroke-linecap:butt;stroke-linejoin:miter;stroke-miterlimit:3.79999995;stroke-dasharray:none;stroke-opacity:1"
         d="m 3576.56,7597.54 v -34.69" /><path
         id="path112"
         style="fill:none;stroke:#000000;stroke-width:5.59370995;stroke-linecap:butt;stroke-linejoin:miter;stroke-miterlimit:3.79999995;stroke-dasharray:none;stroke-opacity:1"
         d="m 4121.33,4544.53 v 70.43" /><path
         id="path114"
         style="fill:none;stroke:#000000;stroke-width:5.59370995;stroke-linecap:butt;stroke-linejoin:miter;stroke-miterlimit:3.79999995;stroke-dasharray:none;stroke-opacity:1"
         d="m 4121.33,7597.54 v -70.43" /><g
         transform="scale(10)"
         id="g116"><text
           id="text120"
           style="font-variant:normal;font-weight:normal;font-size:26.84980011px;font-family:'Times New Roman';-inkscape-font-specification:TimesNewRomanPSMT;writing-mode:lr-tb;fill:#000000;fill-opacity:1;fill-rule:nonzero;stroke:none"
           transform="matrix(1,0,0,-1,395.301,426.558)"><tspan
             id="tspan118"
             y="0"
             x="0 13.4249 26.8498">100</tspan></text>
</g><path
         id="path122"
         style="fill:none;stroke:#000000;stroke-width:5.59370995;stroke-linecap:butt;stroke-linejoin:miter;stroke-miterlimit:3.79999995;stroke-dasharray:none;stroke-opacity:1"
         d="m 4667.34,4544.53 v 34.73" /><path
         id="path124"
         style="fill:none;stroke:#000000;stroke-width:5.59370995;stroke-linecap:butt;stroke-linejoin:miter;stroke-miterlimit:3.79999995;stroke-dasharray:none;stroke-opacity:1"
         d="m 4667.34,7597.54 v -34.69" /><path
         id="path126"
         style="fill:none;stroke:#000000;stroke-width:5.59370995;stroke-linecap:butt;stroke-linejoin:miter;stroke-miterlimit:3.79999995;stroke-dasharray:none;stroke-opacity:1"
         d="m 5212.11,4544.53 v 70.43" /><path
         id="path128"
         style="fill:none;stroke:#000000;stroke-width:5.59370995;stroke-linecap:butt;stroke-linejoin:miter;stroke-miterlimit:3.79999995;stroke-dasharray:none;stroke-opacity:1"
         d="m 5212.11,7597.54 v -70.43" /><g
         transform="scale(10)"
         id="g130"><text
           id="text134"
           style="font-variant:normal;font-weight:normal;font-size:26.84980011px;font-family:'Times New Roman';-inkscape-font-specification:TimesNewRomanPSMT;writing-mode:lr-tb;fill:#000000;fill-opacity:1;fill-rule:nonzero;stroke:none"
           transform="matrix(1,0,0,-1,504.379,426.558)"><tspan
             id="tspan132"
             y="0"
             x="0 13.4249 26.8498">200</tspan></text>
</g><path
         id="path136"
         style="fill:none;stroke:#000000;stroke-width:5.59370995;stroke-linecap:butt;stroke-linejoin:miter;stroke-miterlimit:3.79999995;stroke-dasharray:none;stroke-opacity:1"
         d="M 850.16,4544.53 H 5212.11 V 7597.54 H 850.16 Z" /><path
         id="path138"
         style="fill:none;stroke:#ff0000;stroke-width:22.37479973;stroke-linecap:butt;stroke-linejoin:miter;stroke-miterlimit:3.79999995;stroke-dasharray:none;stroke-opacity:1"
         d="m 5212.11,4548.98 -28.99,1.14 -107.42,1.17 -107.42,3.28 -108.55,3.44 -107.35,4.45 -107.42,5.59 -107.42,4.45 -107.42,5.59 -107.42,4.45 -108.44,4.45 -107.42,5.59 -107.43,12.34 -107.42,22.38 -107.3,48.17 -107.42,95.08 -108.56,183.47 -21.25,51.49 -21.21,56.95 -21.25,63.83 -22.38,70.43 -21.33,77.26 -21.25,83.91 -21.21,91.68 -22.38,96.25 -21.25,105.12 -21.22,110.74 -21.36,114.14 -21.21,120.78 -22.39,122.03 -21.25,123.09 -21.21,124.06 -21.25,122.03 -22.38,117.5 -21.33,110.71 -21.25,102.89 -21.21,95.07 -22.38,80.59 -21.25,67.15 -21.21,53.63 -21.37,38.13 -21.21,20.11 -22.38,4.42 -21.25,-13.32 -21.21,-29.14 -21.26,-45.86 -22.38,-60.39 -21.33,-70.55 -21.25,-84.96 -21.21,-94.06 -22.38,-101.72 -21.25,-105.24 -21.21,-112.93 -21.37,-114.14 -22.34,-114.14 -21.25,-112.93 -21.25,-111.87 -21.21,-108.56 -21.25,-105.11 -22.39,-100.71 -21.32,-93.94 -21.25,-89.49 -21.21,-83.91 -22.39,-78.32 -21.25,-71.68 -21.21,-67.15 -21.37,-60.39 -108.43,-233.79 -107.42,-140.98 -107.43,-80.46 -107.42,-44.77 -107.3,-25.82 -107.43,-13.32 -108.55,-9.02 -107.42,-5.59 -107.31,-4.45 -107.42,-3.32 -107.42,-3.44 -107.42,-3.28 -108.48,-3.44 -107.42,-3.32 -107.418,-4.45 -29.102,-1.14" /><path
         id="path140"
         style="fill:none;stroke:#008800;stroke-width:22.37479973;stroke-linecap:butt;stroke-linejoin:miter;stroke-miterlimit:3.79999995;stroke-dasharray:123.062, 49.2246;stroke-dashoffset:0;stroke-opacity:1"
         d="m 5212.11,4550.12 -28.99,1.17 -107.42,3.28 -107.42,4.45 -108.55,5.59 -107.35,6.76 -107.42,6.72 -107.42,7.89 -107.42,8.9 -107.42,10.04 -108.44,12.35 -107.42,14.49 -107.43,16.76 -107.42,24.68 -107.3,44.73 -107.42,86.21 -108.56,163.24 -21.25,45.86 -21.21,50.35 -21.25,57.11 -22.38,62.66 -21.33,69.3 -21.25,76.13 -21.21,81.64 -22.38,87.3 -21.25,95.12 -21.22,100.67 -21.36,104.02 -21.21,108.55 -22.39,111.88 -42.46,223.75 -21.25,110.7 -22.38,107.42 -21.33,100.71 -21.25,92.81 -21.21,85.04 -22.38,72.73 -21.25,59.26 -21.21,48.16 -21.37,32.43 -21.21,15.62 -22.38,1.13 -21.25,-14.61 -21.21,-30.11 -21.26,-44.77 -22.38,-58.2 -21.33,-67.15 -21.25,-81.6 -21.21,-87.34 -22.38,-95.08 -21.25,-97.27 -21.21,-105.15 -21.37,-104.11 -22.34,-105.11 -21.25,-104.03 -21.25,-100.66 -21.21,-98.56 -21.25,-93.94 -22.39,-89.49 -21.32,-83.91 -21.25,-79.45 -21.21,-73.87 -22.39,-68.12 -21.25,-62.7 -21.21,-57.07 -21.37,-52.62 -108.43,-197.97 -107.42,-116.32 -107.43,-67.11 -107.42,-40.28 -107.3,-24.68 -107.43,-18.95 -108.55,-14.61 -107.42,-12.34 -107.31,-10.04 -107.42,-8.91 -107.42,-9.02 -107.42,-6.6 -108.48,-6.72 -107.42,-6.76 -107.418,-4.45 -29.102,-1.14" /><path
         id="path142"
         style="fill:none;stroke:#0000ff;stroke-width:22.37599945;stroke-linecap:butt;stroke-linejoin:miter;stroke-miterlimit:3.79999995;stroke-dasharray:44.752, 44.752;stroke-dashoffset:0;stroke-opacity:1"
         d="m 850.16,4571.37 11.211,1.13 h 32.418 l 11.172,1.13 H 937.5 l 11.172,1.14 h 21.25 l 11.168,1.05 h 21.25 l 11.18,1.13 h 32.42 l 11.21,1.14 h 22.34 l 10.08,1.17 h 22.34 l 11.21,1.13 h 10.16 l 11.17,1.02 h 119.65 l 11.17,-1.02 h 76.18 l 11.17,-1.13 11.17,1.13 h 87.23 l 11.17,-1.13 h 32.42 l 11.21,-1.17 h 10.04 l 11.17,1.17 h 22.38 l 10.16,1.13 h 11.21 l 11.17,1.02 11.17,1.13 10.08,1.13 22.35,2.31 h 11.21 l 10.04,1.01 22.38,2.31 h 11.17 l 10.04,1.13 h 11.21 l 11.17,1.13 h 11.21 l 10.04,1.02 h 11.18 l 22.38,2.3 10.15,1.14 11.18,1.13 11.21,1.05 11.17,1.14 10.04,1.13 11.21,1.13 11.17,2.19 11.21,1.13 10.04,1.13 11.17,2.31 11.21,1.02 11.18,2.26 10.03,1.17 11.22,2.15 11.17,2.31 10.04,2.26 11.21,2.15 11.17,2.3 11.17,2.19 10.16,2.27 11.21,3.32 11.17,3.44 11.21,3.28 10.04,4.45 11.17,4.57 11.21,4.45 11.18,5.59 10.03,4.45 11.21,3.32 11.18,4.57 11.17,4.46 10.08,3.28 11.17,3.43 11.17,2.19 11.21,1.14 10.04,2.26 11.17,3.32 11.21,4.45 11.18,5.59 10.15,6.76 11.21,7.85 11.17,8.91 11.18,10.03 10.07,13.52 22.35,31.25 11.21,14.61 10.04,14.49 11.17,14.53 11.21,14.61 11.17,14.49 10.04,13.48 11.21,14.49 11.17,14.61 11.18,13.36 10.07,14.61 11.18,14.49 11.17,16.8 11.21,15.63 10.16,17.93 11.17,17.93 11.21,20.07 11.17,21.25 10.04,19.07 11.21,15.62 11.17,20.2 11.17,25.7 10.08,30.23 11.17,35.75 11.18,40.27 11.21,44.76 10.04,49.22 11.17,52.62 11.21,55.94 11.17,63.71 10.04,64.96 11.21,65.98 11.17,67.11 11.21,65.97 10.16,65.98 11.17,66.09 11.17,67.15 11.21,64.85 10.04,65.97 11.18,64.96 11.21,62.54 11.17,62.7 10.04,60.39 11.21,58.2 11.17,57.07 11.21,54.81 10.04,53.67 11.17,52.61 11.21,49.18 11.17,45.9 10.04,42.46 11.21,41.45 11.18,40.31 11.17,38.01 10.15,36.87 11.22,35.86 11.17,32.43 11.21,31.36 10.04,27.97 11.17,28.99 11.21,31.4 11.17,26.84 10.04,21.21 11.21,15.66 11.17,12.31 11.18,6.76 10.07,2.26 11.18,-3.4 11.17,-6.75 11.21,-8.91 10.04,-11.17 11.17,-16.8 11.21,-21.21 10.16,-25.82 11.17,-28.99 11.21,-34.68 11.17,-37 10.04,-41.32 11.21,-43.64 11.17,-49.29 11.18,-54.81 10.07,-55.94 11.18,-58.08 22.38,-114.18 10.04,-58.2 11.17,-58.13 11.21,-58.2 11.17,-58.13 10.04,-58.2 11.21,-55.94 22.35,-114.18 10.19,-55.9 22.34,-111.87 11.22,-54.81 10.03,-54.8 11.18,-52.62 22.38,-107.3 10.04,-52.66 11.21,-51.48 11.17,-50.32 11.17,-46.95 10.08,-47.03 11.17,-43.59 11.17,-42.58 11.22,-41.33 10.04,-39.14 11.17,-36.99 11.21,-36.88 11.17,-34.72 10.16,-32.39 11.21,-31.29 11.17,-30.27 11.17,-29.1 10.08,-26.84 11.17,-25.66 22.38,-47.03 10.04,-22.39 11.17,-20.07 11.22,-19.07 11.17,-17.93 10.04,-16.79 11.21,-16.8 11.17,-14.45 11.21,-13.52 10.04,-13.32 22.38,-22.38 11.17,-10.16 10.16,-8.9 11.17,-8.91 22.38,-15.74 10.04,-6.64 11.21,-6.72 22.39,-11.21 10.04,-5.59 11.17,-4.45 11.21,-4.57 11.17,-4.45 10.04,-3.29 11.21,-4.49 11.17,-3.4 11.17,-3.32 10.08,-2.3 11.18,-3.28 11.17,-2.31 11.21,-3.28 10.15,-2.3 11.18,-2.15 11.21,-1.13 11.17,-2.31 10.04,-2.19 11.21,-1.13 11.17,-2.27 11.17,-1.13 10.08,-2.19 33.56,-3.43 10.03,-2.15 33.56,-3.44 10.04,-1.01 22.38,-2.31 10.16,-1.13 11.21,-1.13 11.17,-1.02 11.17,-1.13 10.08,-1.18 22.34,-2.26 h 11.21 l 10.04,-1.06 33.56,-3.39 h 10.04 l 11.21,-1.14 11.17,-1.05 11.17,-1.13 10.08,-1.14 h 11.17 l 22.39,-2.3 10.15,-1.02 h 11.17 l 22.39,-2.26 10.03,-1.18 h 11.22 l 11.17,-1.13 11.17,-1.01 10.08,-1.14 h 11.17 l 22.38,-2.3 h 10.04 l 11.17,-1.13 11.21,-1.02 h 11.18 l 10.04,-1.13 h 11.21 l 22.38,-2.31 h 10.16 l 11.17,-1.13 h 11.17 l 11.21,-1.05 h 10.04 l 11.17,-1.14 h 11.21 l 11.17,-1.13 h 10.04 l 11.21,-1.13 h 11.18 l 11.21,-1.14 h 10.04 l 11.17,-1.05 h 22.38 l 10.04,-1.13 h 11.21 l 11.17,-1.14 h 21.33 l 11.21,-1.13 h 22.38 l 10.04,-1.17 h 22.39 l 11.17,-1.02 h 21.25 l 11.17,-1.13 h 21.25 l 11.17,-1.13 h 32.42 l 11.18,-1.17 h 32.53 l 11.22,-1.14 h 32.42 l 11.17,-1.01 h 32.42 l 11.17,-1.13 h 54.81 l 11.17,-1.18 h 21.25" /><path
         id="path144"
         style="fill:none;stroke:#000000;stroke-width:5.59370995;stroke-linecap:butt;stroke-linejoin:miter;stroke-miterlimit:3.79999995;stroke-dasharray:none;stroke-opacity:1"
         d="M 850.16,4544.53 H 5212.11 V 7597.54 H 850.16 Z" /><path
         id="path146"
         style="fill:none;stroke:#000000;stroke-width:5.59370995;stroke-linecap:butt;stroke-linejoin:miter;stroke-miterlimit:3.79999995;stroke-dasharray:none;stroke-opacity:1"
         d="m 835.898,654.449 h 70.551" /><path
         id="path148"
         style="fill:none;stroke:#000000;stroke-width:5.59370995;stroke-linecap:butt;stroke-linejoin:miter;stroke-miterlimit:3.79999995;stroke-dasharray:none;stroke-opacity:1"
         d="m 5197.85,654.449 h -70.43" /><g
         transform="scale(10)"
         id="g150"><text
           id="text154"
           style="font-variant:normal;font-weight:normal;font-size:26.84980011px;font-family:'Times New Roman';-inkscape-font-specification:TimesNewRomanPSMT;writing-mode:lr-tb;fill:#000000;fill-opacity:1;fill-rule:nonzero;stroke:none"
           transform="matrix(1,0,0,-1,58.8125,55.3379)"><tspan
             id="tspan152"
             y="0"
             x="0">0</tspan></text>
</g><path
         id="path156"
         style="fill:none;stroke:#000000;stroke-width:5.59370995;stroke-linecap:butt;stroke-linejoin:miter;stroke-miterlimit:3.79999995;stroke-dasharray:none;stroke-opacity:1"
         d="M 835.898,959.84 H 870.59" /><path
         id="path158"
         style="fill:none;stroke:#000000;stroke-width:5.59370995;stroke-linecap:butt;stroke-linejoin:miter;stroke-miterlimit:3.79999995;stroke-dasharray:none;stroke-opacity:1"
         d="m 5197.85,959.84 h -34.61" /><path
         id="path160"
         style="fill:none;stroke:#000000;stroke-width:5.59370995;stroke-linecap:butt;stroke-linejoin:miter;stroke-miterlimit:3.79999995;stroke-dasharray:none;stroke-opacity:1"
         d="m 835.898,1265.31 h 70.551" /><path
         id="path162"
         style="fill:none;stroke:#000000;stroke-width:5.59370995;stroke-linecap:butt;stroke-linejoin:miter;stroke-miterlimit:3.79999995;stroke-dasharray:none;stroke-opacity:1"
         d="m 5197.85,1265.31 h -70.43" /><g
         transform="scale(10)"
         id="g164"><text
           id="text168"
           style="font-variant:normal;font-weight:normal;font-size:26.84980011px;font-family:'Times New Roman';-inkscape-font-specification:TimesNewRomanPSMT;writing-mode:lr-tb;fill:#000000;fill-opacity:1;fill-rule:nonzero;stroke:none"
           transform="matrix(1,0,0,-1,38.675,116.423)"><tspan
             id="tspan166"
             y="0"
             x="0 13.4249 20.13735">0.1</tspan></text>
</g><path
         id="path170"
         style="fill:none;stroke:#000000;stroke-width:5.59370995;stroke-linecap:butt;stroke-linejoin:miter;stroke-miterlimit:3.79999995;stroke-dasharray:none;stroke-opacity:1"
         d="M 835.898,1570.7 H 870.59" /><path
         id="path172"
         style="fill:none;stroke:#000000;stroke-width:5.59370995;stroke-linecap:butt;stroke-linejoin:miter;stroke-miterlimit:3.79999995;stroke-dasharray:none;stroke-opacity:1"
         d="m 5197.85,1570.7 h -34.61" /><path
         id="path174"
         style="fill:none;stroke:#000000;stroke-width:5.59370995;stroke-linecap:butt;stroke-linejoin:miter;stroke-miterlimit:3.79999995;stroke-dasharray:none;stroke-opacity:1"
         d="m 835.898,1876.17 h 70.551" /><path
         id="path176"
         style="fill:none;stroke:#000000;stroke-width:5.59370995;stroke-linecap:butt;stroke-linejoin:miter;stroke-miterlimit:3.79999995;stroke-dasharray:none;stroke-opacity:1"
         d="m 5197.85,1876.17 h -70.43" /><g
         transform="scale(10)"
         id="g178"><text
           id="text182"
           style="font-variant:normal;font-weight:normal;font-size:26.84980011px;font-family:'Times New Roman';-inkscape-font-specification:TimesNewRomanPSMT;writing-mode:lr-tb;fill:#000000;fill-opacity:1;fill-rule:nonzero;stroke:none"
           transform="matrix(1,0,0,-1,38.675,177.499)"><tspan
             id="tspan180"
             y="0"
             x="0 13.4249 20.13735">0.2</tspan></text>
</g><path
         id="path184"
         style="fill:none;stroke:#000000;stroke-width:5.59370995;stroke-linecap:butt;stroke-linejoin:miter;stroke-miterlimit:3.79999995;stroke-dasharray:none;stroke-opacity:1"
         d="M 835.898,2181.56 H 870.59" /><path
         id="path186"
         style="fill:none;stroke:#000000;stroke-width:5.59370995;stroke-linecap:butt;stroke-linejoin:miter;stroke-miterlimit:3.79999995;stroke-dasharray:none;stroke-opacity:1"
         d="m 5197.85,2181.56 h -34.61" /><path
         id="path188"
         style="fill:none;stroke:#000000;stroke-width:5.59370995;stroke-linecap:butt;stroke-linejoin:miter;stroke-miterlimit:3.79999995;stroke-dasharray:none;stroke-opacity:1"
         d="m 835.898,2485.9 h 70.551" /><path
         id="path190"
         style="fill:none;stroke:#000000;stroke-width:5.59370995;stroke-linecap:butt;stroke-linejoin:miter;stroke-miterlimit:3.79999995;stroke-dasharray:none;stroke-opacity:1"
         d="m 5197.85,2485.9 h -70.43" /><g
         transform="scale(10)"
         id="g192"><text
           id="text196"
           style="font-variant:normal;font-weight:normal;font-size:26.84980011px;font-family:'Times New Roman';-inkscape-font-specification:TimesNewRomanPSMT;writing-mode:lr-tb;fill:#000000;fill-opacity:1;fill-rule:nonzero;stroke:none"
           transform="matrix(1,0,0,-1,38.675,238.471)"><tspan
             id="tspan194"
             y="0"
             x="0 13.4249 20.13735">0.3</tspan></text>
</g><path
         id="path198"
         style="fill:none;stroke:#000000;stroke-width:5.59370995;stroke-linecap:butt;stroke-linejoin:miter;stroke-miterlimit:3.79999995;stroke-dasharray:none;stroke-opacity:1"
         d="M 835.898,2791.25 H 870.59" /><path
         id="path200"
         style="fill:none;stroke:#000000;stroke-width:5.59370995;stroke-linecap:butt;stroke-linejoin:miter;stroke-miterlimit:3.79999995;stroke-dasharray:none;stroke-opacity:1"
         d="m 5197.85,2791.25 h -34.61" /><path
         id="path202"
         style="fill:none;stroke:#000000;stroke-width:5.59370995;stroke-linecap:butt;stroke-linejoin:miter;stroke-miterlimit:3.79999995;stroke-dasharray:none;stroke-opacity:1"
         d="m 835.898,3096.64 h 70.551" /><path
         id="path204"
         style="fill:none;stroke:#000000;stroke-width:5.59370995;stroke-linecap:butt;stroke-linejoin:miter;stroke-miterlimit:3.79999995;stroke-dasharray:none;stroke-opacity:1"
         d="m 5197.85,3096.64 h -70.43" /><g
         transform="scale(10)"
         id="g206"><text
           id="text210"
           style="font-variant:normal;font-weight:normal;font-size:26.84980011px;font-family:'Times New Roman';-inkscape-font-specification:TimesNewRomanPSMT;writing-mode:lr-tb;fill:#000000;fill-opacity:1;fill-rule:nonzero;stroke:none"
           transform="matrix(1,0,0,-1,38.675,299.556)"><tspan
             id="tspan208"
             y="0"
             x="0 13.4249 20.13735">0.4</tspan></text>
</g><path
         id="path212"
         style="fill:none;stroke:#000000;stroke-width:5.59370995;stroke-linecap:butt;stroke-linejoin:miter;stroke-miterlimit:3.79999995;stroke-dasharray:none;stroke-opacity:1"
         d="M 835.898,3402.11 H 870.59" /><path
         id="path214"
         style="fill:none;stroke:#000000;stroke-width:5.59370995;stroke-linecap:butt;stroke-linejoin:miter;stroke-miterlimit:3.79999995;stroke-dasharray:none;stroke-opacity:1"
         d="m 5197.85,3402.11 h -34.61" /><path
         id="path216"
         style="fill:none;stroke:#000000;stroke-width:5.59370995;stroke-linecap:butt;stroke-linejoin:miter;stroke-miterlimit:3.79999995;stroke-dasharray:none;stroke-opacity:1"
         d="m 835.898,3707.5 h 70.551" /><path
         id="path218"
         style="fill:none;stroke:#000000;stroke-width:5.59370995;stroke-linecap:butt;stroke-linejoin:miter;stroke-miterlimit:3.79999995;stroke-dasharray:none;stroke-opacity:1"
         d="m 5197.85,3707.5 h -70.43" /><g
         transform="scale(10)"
         id="g220"><text
           id="text224"
           style="font-variant:normal;font-weight:normal;font-size:26.84980011px;font-family:'Times New Roman';-inkscape-font-specification:TimesNewRomanPSMT;writing-mode:lr-tb;fill:#000000;fill-opacity:1;fill-rule:nonzero;stroke:none"
           transform="matrix(1,0,0,-1,38.675,360.641)"><tspan
             id="tspan222"
             y="0"
             x="0 13.4249 20.13735">0.5</tspan></text>
</g><path
         id="path226"
         style="fill:none;stroke:#000000;stroke-width:5.59370995;stroke-linecap:butt;stroke-linejoin:miter;stroke-miterlimit:3.79999995;stroke-dasharray:none;stroke-opacity:1"
         d="m 835.898,654.449 v 70.473" /><path
         id="path228"
         style="fill:none;stroke:#000000;stroke-width:5.59370995;stroke-linecap:butt;stroke-linejoin:miter;stroke-miterlimit:3.79999995;stroke-dasharray:none;stroke-opacity:1"
         d="m 835.898,3707.5 v -70.43" /><g
         transform="scale(10)"
         id="g230"><text
           id="text234"
           style="font-variant:normal;font-weight:normal;font-size:26.84980011px;font-family:'Times New Roman';-inkscape-font-specification:TimesNewRomanPSMT;writing-mode:lr-tb;fill:#000000;fill-opacity:1;fill-rule:nonzero;stroke:none"
           transform="matrix(1,0,0,-1,58.9258,37.552)"><tspan
             id="tspan232"
             y="0"
             x="0 8.9409838 22.365883 35.790783">-400</tspan></text>
</g><path
         id="path236"
         style="fill:none;stroke:#000000;stroke-width:5.59370995;stroke-linecap:butt;stroke-linejoin:miter;stroke-miterlimit:3.79999995;stroke-dasharray:none;stroke-opacity:1"
         d="M 1380.78,654.449 V 689.18" /><path
         id="path238"
         style="fill:none;stroke:#000000;stroke-width:5.59370995;stroke-linecap:butt;stroke-linejoin:miter;stroke-miterlimit:3.79999995;stroke-dasharray:none;stroke-opacity:1"
         d="m 1380.78,3707.5 v -34.73" /><path
         id="path240"
         style="fill:none;stroke:#000000;stroke-width:5.59370995;stroke-linecap:butt;stroke-linejoin:miter;stroke-miterlimit:3.79999995;stroke-dasharray:none;stroke-opacity:1"
         d="m 1926.68,654.449 v 70.473" /><path
         id="path242"
         style="fill:none;stroke:#000000;stroke-width:5.59370995;stroke-linecap:butt;stroke-linejoin:miter;stroke-miterlimit:3.79999995;stroke-dasharray:none;stroke-opacity:1"
         d="m 1926.68,3707.5 v -70.43" /><g
         transform="scale(10)"
         id="g244"><text
           id="text248"
           style="font-variant:normal;font-weight:normal;font-size:26.84980011px;font-family:'Times New Roman';-inkscape-font-specification:TimesNewRomanPSMT;writing-mode:lr-tb;fill:#000000;fill-opacity:1;fill-rule:nonzero;stroke:none"
           transform="matrix(1,0,0,-1,168.004,37.552)"><tspan
             id="tspan246"
             y="0"
             x="0 8.9409838 22.365883 35.790783">-200</tspan></text>
</g><path
         id="path250"
         style="fill:none;stroke:#000000;stroke-width:5.59370995;stroke-linecap:butt;stroke-linejoin:miter;stroke-miterlimit:3.79999995;stroke-dasharray:none;stroke-opacity:1"
         d="M 2471.56,654.449 V 689.18" /><path
         id="path252"
         style="fill:none;stroke:#000000;stroke-width:5.59370995;stroke-linecap:butt;stroke-linejoin:miter;stroke-miterlimit:3.79999995;stroke-dasharray:none;stroke-opacity:1"
         d="m 2471.56,3707.5 v -34.73" /><path
         id="path254"
         style="fill:none;stroke:#000000;stroke-width:5.59370995;stroke-linecap:butt;stroke-linejoin:miter;stroke-miterlimit:3.79999995;stroke-dasharray:none;stroke-opacity:1"
         d="m 3017.46,654.449 v 70.473" /><path
         id="path256"
         style="fill:none;stroke:#000000;stroke-width:5.59370995;stroke-linecap:butt;stroke-linejoin:miter;stroke-miterlimit:3.79999995;stroke-dasharray:none;stroke-opacity:1"
         d="m 3017.46,3707.5 v -70.43" /><g
         transform="scale(10)"
         id="g258"><text
           id="text262"
           style="font-variant:normal;font-weight:normal;font-size:26.84980011px;font-family:'Times New Roman';-inkscape-font-specification:TimesNewRomanPSMT;writing-mode:lr-tb;fill:#000000;fill-opacity:1;fill-rule:nonzero;stroke:none"
           transform="matrix(1,0,0,-1,298.337,37.552)"><tspan
             id="tspan260"
             y="0"
             x="0">0</tspan></text>
</g><path
         id="path264"
         style="fill:none;stroke:#000000;stroke-width:5.59370995;stroke-linecap:butt;stroke-linejoin:miter;stroke-miterlimit:3.79999995;stroke-dasharray:none;stroke-opacity:1"
         d="M 3562.3,654.449 V 689.18" /><path
         id="path266"
         style="fill:none;stroke:#000000;stroke-width:5.59370995;stroke-linecap:butt;stroke-linejoin:miter;stroke-miterlimit:3.79999995;stroke-dasharray:none;stroke-opacity:1"
         d="m 3562.3,3707.5 v -34.73" /><path
         id="path268"
         style="fill:none;stroke:#000000;stroke-width:5.59370995;stroke-linecap:butt;stroke-linejoin:miter;stroke-miterlimit:3.79999995;stroke-dasharray:none;stroke-opacity:1"
         d="m 4107.07,654.449 v 70.473" /><path
         id="path270"
         style="fill:none;stroke:#000000;stroke-width:5.59370995;stroke-linecap:butt;stroke-linejoin:miter;stroke-miterlimit:3.79999995;stroke-dasharray:none;stroke-opacity:1"
         d="m 4107.07,3707.5 v -70.43" /><g
         transform="scale(10)"
         id="g272"><text
           id="text276"
           style="font-variant:normal;font-weight:normal;font-size:26.84980011px;font-family:'Times New Roman';-inkscape-font-specification:TimesNewRomanPSMT;writing-mode:lr-tb;fill:#000000;fill-opacity:1;fill-rule:nonzero;stroke:none"
           transform="matrix(1,0,0,-1,393.875,37.552)"><tspan
             id="tspan274"
             y="0"
             x="0 13.4249 26.8498">200</tspan></text>
</g><path
         id="path278"
         style="fill:none;stroke:#000000;stroke-width:5.59370995;stroke-linecap:butt;stroke-linejoin:miter;stroke-miterlimit:3.79999995;stroke-dasharray:none;stroke-opacity:1"
         d="M 4653.09,654.449 V 689.18" /><path
         id="path280"
         style="fill:none;stroke:#000000;stroke-width:5.59370995;stroke-linecap:butt;stroke-linejoin:miter;stroke-miterlimit:3.79999995;stroke-dasharray:none;stroke-opacity:1"
         d="m 4653.09,3707.5 v -34.73" /><path
         id="path282"
         style="fill:none;stroke:#000000;stroke-width:5.59370995;stroke-linecap:butt;stroke-linejoin:miter;stroke-miterlimit:3.79999995;stroke-dasharray:none;stroke-opacity:1"
         d="m 5197.85,654.449 v 70.473" /><path
         id="path284"
         style="fill:none;stroke:#000000;stroke-width:5.59370995;stroke-linecap:butt;stroke-linejoin:miter;stroke-miterlimit:3.79999995;stroke-dasharray:none;stroke-opacity:1"
         d="m 5197.85,3707.5 v -70.43" /><g
         transform="scale(10)"
         id="g286"><text
           id="text290"
           style="font-variant:normal;font-weight:normal;font-size:26.84980011px;font-family:'Times New Roman';-inkscape-font-specification:TimesNewRomanPSMT;writing-mode:lr-tb;fill:#000000;fill-opacity:1;fill-rule:nonzero;stroke:none"
           transform="matrix(1,0,0,-1,502.953,37.552)"><tspan
             id="tspan288"
             y="0"
             x="0 13.4249 26.8498">400</tspan></text>
</g><path
         id="path292"
         style="fill:none;stroke:#000000;stroke-width:5.59370995;stroke-linecap:butt;stroke-linejoin:miter;stroke-miterlimit:3.79999995;stroke-dasharray:none;stroke-opacity:1"
         d="m 835.898,654.449 h 4361.95 v 3053.05 H 835.898 Z" /><path
         id="path294"
         style="fill:none;stroke:#ff0000;stroke-width:22.37599945;stroke-linecap:butt;stroke-linejoin:miter;stroke-miterlimit:3.79999995;stroke-dasharray:none;stroke-opacity:1"
         d="m 5168.87,654.449 h -365.9 l -11.17,1.172 h -42.46 l -11.22,1.141 h -32.53 l -10.04,1.008 h -21.21 l -11.22,1.14 h -21.21 l -11.21,1.168 h -21.21 l -11.21,1.133 h -10.16 l -11.17,1.129 h -11.17 l -10.08,1.019 h -11.17 l -10.04,1.172 h -11.21 l -11.17,1.129 -10.04,1.141 h -11.21 l -11.17,1.129 -10.04,1.05 h -11.21 l -10.16,1.141 -22.34,2.258 -10.08,1.141 -11.17,1.05 -10.04,1.129 -22.38,2.313 -10.04,1.129 -11.21,1.019 -11.18,1.129 -10.04,1.133 -11.21,2.308 -10.15,1.008 -11.17,1.141 -11.18,2.301 -10.07,1.129 -11.18,2.191 -11.17,1.129 -10.08,2.269 -11.17,1.051 -10.04,2.27 -11.21,2.261 -11.17,1.059 -10.04,2.262 -11.21,2.308 -10.16,2.153 -11.17,2.297 -11.17,2.152 -10.08,2.309 -11.17,2.261 -11.17,2.188 -10.08,2.261 -11.17,3.321 -10.04,2.269 -11.21,2.192 -11.17,2.258 -10.04,3.32 -11.21,2.269 -10.16,2.301 -11.17,3.32 -11.17,2.27 -10.08,2.191 -11.17,3.399 -11.18,2.18 -10.07,3.402 -11.18,2.187 -10.03,3.442 -11.22,2.148 -11.17,2.301 -10.04,3.281 -11.21,2.309 -11.17,2.14 -10.16,3.442 -11.17,2.187 -10.08,2.262 -11.17,2.27 -11.17,2.187 -10.08,2.301 -11.17,2.152 -10.04,2.27 -11.17,2.301 -11.21,2.148 -10.04,1.172 -11.17,2.269 -11.21,1.008 -10.16,2.313 -11.17,1.129 -10.08,1.129 -11.17,1.058 -11.17,1.133 -10.04,1.129 -11.21,1.14 -10.04,1.129 h -11.17 l -11.22,1.051 -10.03,1.141 h -11.18 l -11.21,1.129 h -10.15 l -11.17,1.172 -10.04,1.128 -11.22,1.02 -11.17,1.129 -10.04,1.141 -11.21,2.3 -10.04,1.02 -11.17,3.43 -11.21,2.152 -10.04,3.437 -11.17,4.45 -11.21,5.589 -10.16,5.582 -11.17,7.891 -10.04,7.777 -11.21,10.043 -11.17,11.168 -10.04,13.481 -11.21,15.621 -11.17,16.801 -10.04,20.187 -11.21,23.442 -10.04,24.649 -11.17,29.1 -11.21,32.42 -10.16,36.88 -11.17,40.27 -10.04,44.77 -11.21,50.35 -11.17,54.8 -10.04,59.34 -11.21,66.01 -11.18,71.57 -10.04,78.32 -11.21,83.9 -10.04,89.5 -11.17,96.21 -11.21,101.83 -10.15,106.29 -11.18,111.88 -10.04,116.32 -11.21,117.47 -11.17,119.76 -10.04,120.78 -11.21,116.33 -11.17,114.14 -10.04,108.44 -11.21,100.7 -10.04,89.49 -11.17,78.32 -11.21,66.1 -10.16,50.35 -11.17,34.57 -10.04,16.8 h -11.21 l -11.17,-16.8 -10.04,-34.57 -11.21,-50.35 -11.17,-64.96 -10.04,-77.15 -11.21,-89.53 -10.04,-98.4 -11.17,-105.24 -11.22,-111.87 -10.15,-115.2 -22.38,-232.65 -10.04,-114.14 -11.18,-113.01 -10.03,-108.48 -11.22,-104.1 -11.17,-99.53 -10.04,-92.81 -11.21,-87.35 -10.04,-81.6 -11.17,-76.17 -11.21,-70.43 -10.16,-64.84 -11.17,-58.21 -11.21,-53.67 -10.04,-49.29 -11.17,-44.77 -10.04,-39.14 -11.21,-35.74 -11.17,-32.42 -10.04,-27.97 -11.21,-25.82 -10.04,-21.21 -11.17,-20.079 -11.21,-16.801 -10.16,-14.609 -11.17,-12.34 -11.17,-10.039 -10.08,-8.91 -11.17,-7.891 -10.04,-5.59 -11.21,-5.582 -11.18,-3.277 -10.03,-3.442 -11.21,-2.191 -11.18,-1.129 -10.04,-2.27 h -64.96 l -10.04,1.141 h -11.21 L 2403.28,895 h -10.04 l -11.21,1.129 h -11.17 l -10.04,1.141 h -21.37 l -11.17,-1.141 h -21.25 l -11.17,-1.129 -10.04,-1.129 -11.21,-1.141 -11.17,-1.05 -10.04,-1.129 -11.21,-1.141 -11.17,-2.301 -10.04,-2.148 -11.21,-1.133 -10.16,-2.308 -11.17,-3.321 -11.17,-2.258 -10.08,-2.152 -11.17,-3.437 -10.04,-2.192 -11.21,-3.39 -11.18,-3.321 -10.04,-3.328 -11.21,-3.43 -11.17,-3.281 -10.04,-3.441 -11.21,-4.449 -10.15,-3.321 -11.18,-3.398 -11.17,-4.5 -10.08,-3.281 -11.17,-3.43 -11.17,-4.461 -10.08,-3.277 -11.17,-4.493 -10.04,-3.398 -11.21,-4.449 -11.17,-3.321 -10.04,-4.57 -11.21,-3.32 -10.16,-4.422 -11.17,-3.43 -11.17,-4.461 -10.08,-3.316 -11.17,-3.442 -11.17,-4.449 -10.08,-3.281 -11.17,-3.441 -10.04,-3.321 -11.17,-3.316 -11.22,-3.402 -10.03,-3.321 -11.18,-3.429 -10.19,-3.29 -11.17,-3.32 -11.18,-3.43 -10.07,-2.152 -11.18,-3.437 -11.17,-3.321 -10.04,-2.269 -11.21,-3.321 -10.04,-2.261 -11.17,-2.188 -11.21,-3.441 -10.04,-2.141 -22.38,-4.578 -10.16,-2.141 -11.17,-2.308 -10.04,-2.192 -11.21,-2.261 -11.17,-1.129 -10.04,-2.192 -11.21,-2.269 -10.04,-1.129 -11.17,-2.191 -11.21,-2.258 -10.04,-1.172 -11.17,-1.141 -11.21,-2.148 -10.16,-1.168 -11.17,-1.133 -10.04,-1.129 -11.21,-2.148 -11.18,-1.172 -10.03,-1.141 -11.21,-1.129 -10.04,-1.05 -22.39,-2.27 h -10.04 l -22.38,-2.27 -10.15,-1.05 h -11.18 l -10.04,-1.129 -11.21,-1.141 h -11.17 l -10.04,-1.129 -11.21,-1.172 h -10.04 l -11.17,-1.019 h -11.21 l -10.04,-1.129 h -22.38 l -10.16,-1.133 h -21.21 l -11.21,-1.168 h -21.21 l -11.21,-1.14 h -32.42 l -10.04,-1.008 h -53.75 l -11.21,-1.141 h -74.891 l -11.168,-1.172 H 865" /><path
         id="path296"
         style="fill:none;stroke:#0000ff;stroke-width:22.37599945;stroke-linecap:butt;stroke-linejoin:miter;stroke-miterlimit:6.9000001;stroke-dasharray:44.752, 44.752;stroke-dashoffset:0;stroke-opacity:1"
         d="M 835.898,654.449 H 988.09 l 5.582,1.172 h 92.808 l 5.59,1.141 h 26.95 l 5.59,1.008 h 22.38 l 5.59,1.14 h 26.83 l 5.59,1.168 h 26.84 l 5.58,1.133 h 22.38 l 5.59,1.129 h 21.21 l 5.63,1.019 h 11.17 l 5.58,1.172 h 15.67 l 5.58,1.129 h 16.76 l 5.63,1.141 h 15.74 l 5.59,1.129 h 11.17 l 5.62,1.05 h 10.04 l 5.59,1.141 h 11.17 l 5.62,1.129 h 5.59 l 5.59,1.129 h 10.04 l 5.58,1.141 h 5.63 l 5.58,1.05 h 5.59 l 5.58,1.129 h 5.59 l 4.45,1.141 h 5.63 l 5.58,1.172 h 5.59 l 5.59,1.129 h 5.58 l 5.63,1.019 h 5.58 l 4.46,1.129 h 5.58 l 11.17,2.301 h 5.63 l 5.58,1.14 5.59,1.008 h 5.59 l 4.57,1.141 5.58,1.172 h 5.59 l 11.21,2.258 h 5.59 l 5.58,1.019 5.59,1.172 4.45,1.129 5.63,1.141 h 5.58 l 5.59,1.128 5.58,1.051 16.8,3.403 h 4.45 l 5.59,1.128 5.58,1.059 22.39,4.57 5.58,1.012 4.46,1.141 16.79,3.437 5.59,1.012 5.59,1.129 5.58,2.308 5.63,1.133 4.41,1.02 16.8,3.429 5.58,2.192 5.59,1.129 5.62,2.269 5.59,1.129 4.57,2.192 5.59,1.129 5.58,2.308 5.59,1.012 5.62,2.269 5.59,1.172 5.59,2.149 5.58,1.129 4.45,2.312 5.59,1.129 5.63,2.191 5.58,2.258 5.59,1.141 5.58,2.18 5.59,1.14 5.62,2.262 4.42,1.058 5.62,2.258 5.59,1.172 5.59,2.149 5.58,2.269 5.59,1.172 5.62,2.148 5.59,1.133 4.45,2.309 5.59,1.129 5.58,2.191 5.59,1.129 5.62,2.262 5.59,2.187 5.59,1.133 4.45,2.27 5.58,1.058 5.59,2.262 5.63,1.168 5.58,2.152 5.59,1.129 5.58,2.309 5.59,1.133 4.57,2.148 5.59,1.172 5.62,2.269 5.59,1.008 5.58,2.313 5.59,1.129 5.58,2.187 5.63,1.133 4.45,2.269 5.59,1.129 5.58,2.192 11.18,2.301 5.62,2.148 5.59,1.129 5.58,2.312 4.46,1.129 5.58,1.02 5.59,2.301 11.21,2.269 5.58,2.141 11.18,2.308 4.45,2.192 22.38,4.527 h 5.59 l 5.62,1.051 5.59,1.141 h 4.45 l 16.76,3.429 5.63,1.02 h 5.58 l 11.17,2.261 4.57,1.18 5.59,1.129 h 5.59 l 5.62,1.012 5.59,1.14 h 5.58 l 5.59,1.168 h 5.58 l 4.46,1.129 h 5.62 l 5.59,1.133 h 5.58 l 5.59,1.02 h 26.84 l 5.58,1.129 h 5.59 l 11.21,2.308 h 5.59 l 5.58,1.133 4.45,1.059 5.59,1.128 h 5.62 l 5.59,1.133 h 5.59 l 5.58,1.129 h 11.21 l 4.46,1.141 h 11.17 l 5.58,1.051 h 16.8 l 5.59,-1.051 h 4.57 l 11.17,-2.27 5.59,1.129 h 5.62 l 5.59,1.141 5.58,1.051 5.59,1.128 4.45,2.309 5.59,1.133 5.62,1.019 5.59,1.129 h 5.58 l 5.59,1.129 h 10.04 l 5.62,1.18 h 5.59 l 5.59,1.133 5.58,1.008 5.59,1.14 5.62,2.301 5.59,1.129 4.45,2.148 5.59,2.313 5.58,2.179 5.59,3.399 5.63,3.32 5.58,1.141 5.59,2.301 5.58,2.148 h 4.46 l 5.58,2.301 5.63,2.148 5.58,3.442 5.59,3.281 5.58,6.758 5.59,5.582 5.63,6.758 4.53,6.722 5.62,7.77 5.59,5.59 5.58,7.89 5.59,12.309 5.59,13.359 5.62,15.661 5.59,22.34 4.45,20.24 5.59,18.94 5.58,17.89 5.59,15.67 5.62,14.61 5.59,14.49 5.58,15.66 5.59,14.61 4.45,16.76 5.59,16.8 5.62,17.93 5.59,20.07 5.59,21.22 5.58,24.68 5.59,26.84 5.62,27.97 4.42,30.23 5.62,31.29 5.59,32.42 5.58,35.82 5.59,38.01 5.59,40.31 5.62,43.6 5.59,47.03 4.45,48.08 5.59,50.36 5.58,55.93 5.59,60.36 5.62,63.82 5.59,68.29 5.58,71.56 5.59,70.43 4.57,70.54 5.59,69.3 5.62,69.41 5.59,67.15 5.58,64.81 5.59,62.69 5.59,59.26 5.62,58.2 4.41,57.07 5.63,52.54 5.59,49.3 5.58,45.78 5.59,40.31 5.58,36.96 5.63,36.87 5.58,38.05 4.46,40.27 5.58,41.45 5.59,41.33 5.59,41.44 5.62,38.01 5.59,34.69 5.58,33.59 5.59,31.25 4.45,26.84 5.59,21.36 5.62,17.78 5.59,12.34 5.58,6.76 5.59,3.28 h 5.59 l 5.62,-1.02 4.45,-5.58 5.59,-3.44 5.59,-8.91 5.58,-14.6 5.59,-21.22 5.62,-26.83 5.59,-32.42 4.57,-37 5.58,-42.46 5.59,-45.9 5.59,-48.04 5.58,-52.66 5.63,-53.63 5.58,-54.81 5.59,-55.93 4.45,-55.94 11.17,-111.88 5.63,-54.92 5.59,-53.63 5.58,-54.8 5.59,-52.62 5.58,-52.5 4.46,-53.79 5.62,-52.5 5.59,-53.79 5.58,-54.77 5.59,-53.67 5.59,-52.62 5.62,-53.67 5.59,-52.61 4.45,-52.62 11.17,-100.7 5.59,-48.05 11.21,-91.8 5.58,-44.72 5.59,-42.5 4.45,-41.41 11.21,-78.32 5.59,-36.88 5.59,-35.86 5.58,-34.57 5.59,-33.55 5.62,-31.41 4.53,-30.15 5.63,-29.1 5.59,-26.84 5.58,-25.78 5.59,-24.53 5.58,-23.52 5.63,-22.38 5.58,-21.25 4.46,-20.2 5.58,-20.08 5.59,-17.92 11.21,-33.56 5.59,-14.53 5.58,-15.74 5.59,-13.36 4.45,-12.311 5.59,-12.34 5.62,-11.211 5.59,-10.039 5.58,-8.91 5.59,-7.847 5.59,-8.903 5.62,-6.719 4.45,-7.89 5.59,-5.629 5.59,-6.723 22.38,-22.379 5.58,-4.449 4.46,-4.461 5.58,-4.41 5.59,-3.437 5.62,-4.454 5.59,-3.32 5.59,-2.308 5.58,-3.282 5.59,-2.297 4.57,-2.152 5.58,-1.129 5.63,-2.308 5.58,-1.133 5.59,-2.149 16.8,-3.441 4.45,-1.051 22.34,-4.527 5.63,-1.063 5.59,-1.129 4.45,-1.129 h 5.58 l 5.59,-1.179 h 5.59 l 5.62,-1.129 h 5.59 l 5.58,-1.012 h 5.59 l 4.45,-1.14 h 11.21 l 5.59,-1.129 h 11.17 l 5.59,-1.172 h 5.62 l 4.42,-1.129 h 5.62 l 5.59,-1.02 h 5.58 l 5.59,-1.129 h 5.58 l 5.63,-1.171 h 5.59 l 4.57,-1.141 h 5.58 l 5.59,-1.129 h 5.58 l 5.63,-1.02 5.59,-1.128 h 5.58 l 5.59,-1.172 4.45,-1.129 5.59,-1.141 h 5.62 l 5.59,-1.051 22.38,-4.531 4.41,-1.058 5.63,-1.129 h 5.58 l 5.59,-1.129 5.59,-2.313 5.58,-1.008 11.21,-2.269 4.46,-1.172 5.58,-1.129 5.59,-1.019 11.21,-2.301 5.59,-2.27 5.58,-1.011 5.59,-1.141 4.45,-1.168 5.59,-2.262 5.62,-1.058 11.17,-2.27 5.59,-2.262 5.59,-1.058 5.62,-1.129 4.53,-1.133 5.63,-2.309 5.58,-1.011 5.59,-1.129 5.58,-2.309 5.59,-1.133 5.62,-1.019 5.59,-2.301 4.45,-1.129 5.59,-1.14 5.59,-1.008 5.58,-2.313 11.21,-2.258 5.59,-2.191 5.58,-1.129 4.46,-1.14 5.58,-2.18 11.21,-2.27 5.59,-2.3 5.59,-1.02 5.58,-1.129 5.63,-2.312 4.45,-1.129 5.59,-1.02 5.58,-1.129 5.59,-2.301 5.58,-1.14 5.63,-1.012 5.59,-1.129 5.58,-2.308 4.45,-1.129 5.59,-1.063 11.21,-2.258 5.59,-2.269 5.58,-1.051 5.59,-1.141 4.57,-1.128 11.17,-2.301 5.63,-2.153 16.75,-3.437 5.59,-1.012 4.45,-1.14 16.8,-3.438 5.59,-1.012 16.79,-3.437 4.46,-1.133 5.58,-1.059 16.8,-3.39 h 5.58 l 5.59,-1.141 5.59,-1.051 4.45,-1.128 11.21,-2.27 h 5.59 l 5.58,-1.172 5.59,-1.019 5.58,-1.129 h 5.63 l 4.45,-1.129 11.17,-2.313 h 5.59 l 5.59,-1.008 5.62,-1.14 h 5.59 l 5.58,-1.168 4.57,-1.133 h 5.59 l 5.59,-1.129 h 5.58 l 5.63,-1.019 5.58,-1.129 h 5.59 l 5.58,-1.172 h 4.46 l 5.58,-1.141 h 5.63 l 5.58,-1.129 h 5.59 l 5.59,-1.05 h 5.58 l 5.63,-1.141 h 4.45 l 5.59,-1.129 h 5.58 l 5.59,-1.129 h 11.21 l 5.58,-1.141 h 5.59 l 4.45,-1.05 h 11.18 l 5.62,-1.129 h 5.59 l 5.58,-1.141 h 11.17 l 4.46,-1.129 h 5.62 l 5.59,-1.172 h 11.17 l 5.59,-1.019 h 5.62 l 5.59,-1.129 h 91.75 l 5.63,-1.133 h 76.02 l 5.58,-1.168 h 33.56 l 4.57,-1.14 h 16.79 l 5.59,-1.008 h 11.17 l 5.63,-1.141 h 10.04 l 5.58,-1.172 h 354.57" /><path
         id="path298"
         style="fill:none;stroke:#000000;stroke-width:5.59370995;stroke-linecap:butt;stroke-linejoin:miter;stroke-miterlimit:3.79999995;stroke-dasharray:none;stroke-opacity:1"
         d="m 835.898,654.449 h 4361.95 v 3053.05 H 835.898 Z" /><g
         transform="scale(10)"
         id="g300"><text
           id="text304"
           style="font-variant:normal;font-weight:normal;font-size:25.70400047px;font-family:'Times New Roman';-inkscape-font-specification:TimesNewRomanPSMT;writing-mode:lr-tb;fill:#000000;fill-opacity:1;fill-rule:nonzero;stroke:none"
           transform="matrix(1,0,0,-1,390.484,716.604)"><tspan
             id="tspan302"
             y="0"
             x="0 15.705144 24.264576 32.824009 51.382298 75.646873 84.206306">EI-DWIA</tspan></text>
</g><path
         id="path306"
         style="fill:none;stroke:#ff0000;stroke-width:22.6439991;stroke-linecap:butt;stroke-linejoin:miter;stroke-miterlimit:10;stroke-dasharray:none;stroke-opacity:1"
         d="m 3537.66,7251.72 h 244.8" /><g
         transform="scale(10)"
         id="g308"><text
           id="text312"
           style="font-variant:normal;font-weight:normal;font-size:25.70400047px;font-family:'Times New Roman';-inkscape-font-specification:TimesNewRomanPSMT;writing-mode:lr-tb;fill:#000000;fill-opacity:1;fill-rule:nonzero;stroke:none"
           transform="matrix(1,0,0,-1,390.484,692.98)"><tspan
             id="tspan310"
             y="0"
             x="0 15.705144 34.263432 42.822865 61.381153 85.645729 94.205162">ED-DWIA</tspan></text>
</g><path
         id="path314"
         style="fill:none;stroke:#008b00;stroke-width:22.6439991;stroke-linecap:butt;stroke-linejoin:miter;stroke-miterlimit:10;stroke-dasharray:114.444, 68.544;stroke-dashoffset:0;stroke-opacity:1"
         d="m 3537.66,7014.88 h 244.8" /><g
         transform="scale(10)"
         id="g316"><text
           id="text320"
           style="font-variant:normal;font-weight:normal;font-size:25.70400047px;font-family:'Times New Roman';-inkscape-font-specification:TimesNewRomanPSMT;writing-mode:lr-tb;fill:#000000;fill-opacity:1;fill-rule:nonzero;stroke:none"
           transform="matrix(1,0,0,-1,390.484,669.111)"><tspan
             id="tspan318"
             y="0"
             x="0 15.705144">TC</tspan></text>
</g><path
         id="path322"
         style="fill:#ffffff;fill-opacity:1;fill-rule:nonzero;stroke:none"
         d="M 3719.61,2859.89 H 4873.2 v 536.129 H 3719.61 Z" /><path
         id="path324"
         style="fill:none;stroke:#ffffff;stroke-width:9.18000031;stroke-linecap:butt;stroke-linejoin:miter;stroke-miterlimit:10;stroke-dasharray:none;stroke-opacity:1"
         d="M 3719.61,2859.89 H 4873.2 v 536.129 H 3719.61 Z" /><g
         transform="scale(10)"
         id="g326"><text
           id="text330"
           style="font-variant:normal;font-weight:normal;font-size:25.70400047px;font-family:'Times New Roman';-inkscape-font-specification:TimesNewRomanPSMT;writing-mode:lr-tb;fill:#000000;fill-opacity:1;fill-rule:nonzero;stroke:none"
           transform="matrix(1,0,0,-1,415.963,316.22)"><tspan
             id="tspan328"
             y="0"
             x="0 14.291424 38.556 47.115433">PWIA</tspan></text>
</g><path
         id="path332"
         style="fill:none;stroke:#ff0000;stroke-width:22.6439991;stroke-linecap:butt;stroke-linejoin:miter;stroke-miterlimit:10;stroke-dasharray:none;stroke-opacity:1"
         d="m 3792.42,3247.27 h 244.81" /><g
         transform="scale(10)"
         id="g334"><text
           id="text338"
           style="font-variant:normal;font-weight:normal;font-size:25.70400047px;font-family:'Times New Roman';-inkscape-font-specification:TimesNewRomanPSMT;writing-mode:lr-tb;fill:#000000;fill-opacity:1;fill-rule:nonzero;stroke:none"
           transform="matrix(1,0,0,-1,415.963,292.352)"><tspan
             id="tspan336"
             y="0"
             x="0 15.705144">TC</tspan></text>
</g><path
         id="path340"
         style="fill:none;stroke:#0000ff;stroke-width:18.11520004;stroke-linecap:butt;stroke-linejoin:miter;stroke-miterlimit:6.9000001;stroke-dasharray:36.2304, 36.2304;stroke-dashoffset:0;stroke-opacity:1"
         d="m 3792.42,3009.84 h 244.81" /><g
         transform="scale(10)"
         id="g342"><text
           id="text348"
           style="font-variant:normal;font-weight:normal;font-size:25.70400047px;font-family:'Times New Roman';-inkscape-font-specification:TimesNewRomanPSMT;writing-mode:lr-tb;fill:#000000;fill-opacity:1;fill-rule:nonzero;stroke:none"
           transform="matrix(1,0,0,-1,126.094,694.93)"><tspan
             id="tspan344"
             y="0"
             x="0 8.559432 19.972008">(a)</tspan><tspan
             id="tspan346"
             y="391.496"
             x="-1.52969 7.0297418 19.881742">(b)</tspan></text>
</g><path
         id="path350"
         style="fill:#000000;fill-opacity:1;fill-rule:evenodd;stroke:none"
         d="m 2442.5,31.5586 -0.23,-0.7383 v -0.7422 l -0.24,-0.7383 -0.27,-0.75 v -0.4687 l -0.24,-0.7422 -0.23,-0.5 -0.27,-0.4687 v -0.5118 l -0.24,-0.5078 -0.23,-0.4687 -0.28,-0.2735 -0.23,-0.4687 -0.74,-0.7383 -0.47,-0.2422 -0.28,-0.2695 -0.46,-0.2305 -0.51,-0.2383 -0.24,-0.2695 h -0.5 l -0.75,-0.2422 h -0.5 l -0.47,-0.2304 h -1.25 l -0.24,-0.2696 h -4.45 c -2.93,0 -5.66,0 -5.66,-4.6875 0,-1.9609 1.25,-2.9336 3.2,-2.9336 6.68,0 13.83,0.7422 20.7,0.7422 8.17,0 16.53,-0.7422 24.42,-0.7422 1.25,0 4.45,0 4.45,4.9219 0,2.6992 -2.46,2.6992 -5.94,2.6992 -12.3,0 -12.3,1.75 -12.3,3.9414 0,2.9688 10.35,42.9297 12.07,49.0977 3.2,-7.1875 9.88,-15.7774 22.46,-15.7774 l -0.28,5.3907 c -16.01,0 -19.21,20.4687 -19.21,21.9492 0,0.5078 0,0.9805 0.74,3.9492 l 11.83,48.09 c 1.72,6.64 8.36,13.551 12.82,17.262 8.63,7.66 15.78,9.378 19.96,9.378 9.88,0 15.78,-8.64 15.78,-23.21 0,-14.532 -8.13,-42.6489 -12.58,-51.9887 -8.36,-17.2618 -20.19,-25.4297 -29.34,-25.4297 l 0.28,-5.3907 c 28.59,0 59.14,35.9805 59.14,71.9881 0,23.172 -13.79,39.461 -32.54,39.461 -12.3,0 -24.14,-8.91 -32.3,-18.519 -2.47,13.32 -12.82,18.519 -21.92,18.519 -11.37,0 -16.05,-9.648 -18.24,-14.07 -4.45,-8.391 -7.66,-23.199 -7.66,-23.899 0,-2.5 2.46,-2.5 2.97,-2.5 2.46,0 2.7,0.27 4.18,5.7 4.18,17.5 9.1,29.339 18.01,29.339 4.18,0 7.62,-2 7.62,-11.371 0,-5.66 -0.75,-8.359 -1.72,-12.578 z" /><path
         id="path352"
         style="fill:#000000;fill-opacity:1;fill-rule:evenodd;stroke:none"
         d="m 2583.79,39.7305 4.18,4.1797 0.51,0.4687 0.5,0.5 0.47,0.5117 0.51,0.4688 0.74,0.5117 0.47,0.5078 0.51,0.4609 0.74,0.5118 0.74,0.7382 0.75,0.4688 1.48,1.4922 0.74,0.5 0.98,0.75 0.98,0.9687 0.97,0.75 1.02,0.7422 0.97,0.9688 1.22,0.9804 1.25,1.0196 1.25,0.9687 1.21,0.9805 c 3.71,2.9687 16.52,13.3203 21.44,18.0117 10.63,10.3477 17.27,19.2188 17.27,21.207 0,2.2226 -2.23,2.2226 -2.97,2.2226 -1.49,0 -2.19,-0.5 -2.93,-1.7499 -5.43,-7.8906 -8.91,-10.5898 -13.09,-10.5898 -1.95,0 -4.68,0.2382 -9.84,5.1992 -5.94,5.8984 -9.65,7.1405 -13.59,7.1405 -13.79,0 -22.93,-15.0312 -22.93,-20.2304 0,-1.4804 1.75,-1.9492 2.73,-1.9492 2.23,0 2.46,0.4688 3.2,2.1797 2.46,6.1797 12.07,6.4102 15.04,6.4102 3.95,0 8.4,-0.9805 10.86,-1.4415 9.34,-2 10.59,-2 14.77,-2 -4.42,-4.6796 -7.39,-7.8906 -23.91,-20.9296 -13.32,-10.6289 -18.01,-14.8086 -21.21,-18.5196 -10.35,-10.1211 -15.27,-17.5 -15.27,-19.2187 0,-1.9922 2.22,-1.9922 2.97,-1.9922 1.71,0 1.95,0.2695 2.69,1.7187 4.69,6.6797 10.12,10.3907 16.02,10.3907 1.99,0 4.45,0 9.14,-4.4493 5.43,-5.1992 8.86,-7.6601 14.29,-7.6601 18.48,0 29.85,20.7422 29.85,26.6406 0,1.9492 -1.72,2.2305 -2.74,2.2305 -2.18,0 -2.46,-0.75 -3.2,-2.7422 -3.2,-8.6289 -13.32,-12.8086 -21.68,-12.8086 -4.18,0 -8.4,0.9805 -12.58,1.9883 -7.89,1.7226 -9.37,1.7226 -12.58,1.7226 -0.23,0 -2.69,0 -3.94,-0.2304 z" /><path
         id="path354"
         style="fill:#000000;fill-opacity:1;fill-rule:evenodd;stroke:none"
         d="m 2749.49,2.46094 v 0.73828 h -0.27 v 0.51172 h -0.24 v 0.23828 h -0.23 v 0.26953 l -0.27,0.23047 v 0.24219 h -0.24 v 0.26953 l -0.23,0.23828 h -0.24 v 0.23047 h -0.27 v 0.23047 h -0.23 v 0.28125 l -0.24,0.23047 -0.27,0.23828 -0.24,0.26953 -0.23,0.23047 -0.27,0.23828 -0.24,0.27344 v 0.23828 h -0.23 l -0.28,0.23047 c -30.82,31.08987 -38.43,77.41797 -38.43,114.91837 0,42.89 9.37,85.55 39.45,116.371 3.2,2.968 3.2,3.441 3.2,3.941 0,1.957 -1.01,2.469 -2.46,2.469 -2.5,0 -24.69,-16.531 -38.98,-47.82 -12.58,-26.872 -15.51,-54.25 -15.51,-74.961 0,-18.981 2.69,-48.8285 16.25,-76.4379 C 2723.36,16.0508 2744.53,0 2747.03,0 c 1.45,0 2.46,0.738281 2.46,2.46094 z" /><path
         id="path356"
         style="fill:#000000;fill-opacity:1;fill-rule:evenodd;stroke:none"
         d="m 2822.97,223.91 v 0.231 l -0.27,0.238 v 0.269 l -0.24,0.231 v 0.242 l -0.23,0.5 -0.28,0.469 -0.23,0.281 v 0.231 l -0.24,0.238 -0.27,0.5 v 0.238 l -0.23,0.274 h -0.24 l -0.23,0.238 v 0.23 h -0.28 l -0.23,0.27 h -0.23 l -0.28,0.238 h -0.23 l -0.24,0.231 h -1.48 l -0.51,0.242 h -44.14 v -7.621 h 5.94 c 18.98,0 19.22,-2.731 19.22,-11.602 V 87.3008 c 0,-6.6797 0,-18.2422 -25.16,-18.2422 v -7.6484 c 8.63,0.2304 20.74,0.7382 28.63,0.7382 8.13,0 20.2,-0.5078 28.83,-0.7382 v 7.6484 c -25.39,0 -25.39,11.5625 -25.39,18.2422 V 219.691 h 0.24 l 59.18,-152.8512 c 1.24,-3.2109 2.46,-5.4296 4.92,-5.4296 2.73,0 3.47,1.9492 4.45,4.6796 l 60.39,155.5902 h 0.27 V 80.6211 c 0,-8.8594 -0.5,-11.5625 -19.25,-11.5625 h -5.9 v -7.6484 c 9.1,0.7382 25.62,0.7382 35.27,0.7382 9.61,0 26.13,0 35.24,-0.7382 v 7.6484 h -5.9 c -18.99,0 -19.49,2.7031 -19.49,11.5625 V 210.078 c 0,8.871 0.5,11.602 19.49,11.602 h 5.9 v 7.621 h -41.68 c -6.41,0 -6.41,-0.242 -8.13,-4.653 L 2876.21,86.2891 Z" /><path
         id="path358"
         style="fill:#000000;fill-opacity:1;fill-rule:evenodd;stroke:none"
         d="m 3016.25,118.121 0.27,5.16 c 1.45,36.758 22.19,42.93 30.55,42.93 25.16,0 27.62,-33.32 27.62,-42.93 h -58.17 l -0.27,-5.16 h 68.55 c 5.43,0 6.18,0 6.18,5.16 0,24.418 -13.32,48.321 -43.91,48.321 -28.59,0 -51.29,-25.391 -51.29,-56.211 0,-32.7699 25.9,-56.6801 54.26,-56.6801 29.84,0 40.94,27.3399 40.94,32.0274 0,2.4609 -2,2.9726 -3.21,2.9726 -2.22,0 -2.73,-1.4804 -3.2,-3.4804 -8.63,-25.3907 -30.59,-25.3907 -33.05,-25.3907 -12.34,0 -22.18,7.4297 -27.85,16.5313 -7.42,11.8281 -7.42,28.1169 -7.42,36.7499 z" /><path
         id="path360"
         style="fill:#000000;fill-opacity:1;fill-rule:evenodd;stroke:none"
         d="m 3250.74,205.16 0.24,0.969 0.27,0.75 0.47,0.742 0.51,0.738 0.23,0.981 0.51,0.738 0.47,0.742 1.01,1.481 0.47,0.75 0.74,0.469 0.51,0.742 0.74,0.738 0.75,0.512 0.74,0.738 0.74,0.512 0.74,0.468 0.74,0.5 0.98,0.469 1.95,1.02 1.02,0.23 0.98,0.512 1.21,0.238 1.01,0.231 1.21,0.269 1.25,0.242 1.49,0.231 1.21,0.238 h 1.48 l 1.49,0.27 h 1.48 v 7.621 c -7.65,-0.473 -17.26,-0.711 -23.67,-0.711 -7.42,0 -21.72,0.469 -28.12,0.711 v -7.621 c 12.81,-0.27 18,-6.68 18,-12.34 0,-1.961 -0.74,-3.442 -1.25,-4.93 L 3197.23,86.0508 3150.39,210.078 c -1.48,3.442 -1.48,3.942 -1.48,4.453 0,7.149 14.06,7.149 20.23,7.149 v 7.621 c -8.87,-0.711 -25.9,-0.711 -35.04,-0.711 -11.83,0 -22.42,0.469 -31.29,0.711 v -7.621 c 16.02,0 20.71,0 24.14,-9.379 l 56.96,-150.8908 c 1.75,-4.6914 2.97,-5.4297 6.17,-5.4297 4.22,0 4.45,1.25 5.66,4.6797 z" /><path
         id="path362"
         style="fill:#000000;fill-opacity:1;fill-rule:evenodd;stroke:none"
         d="m 3393.75,236.48 v 0.469 h 0.23 v 0.512 l 0.28,0.238 v 0.742 l 0.23,0.231 v 0.508 h 0.24 v 1.25 h 0.27 v 0.468 c 0,2.731 -2.23,4.692 -4.96,4.692 -1.72,0 -3.44,-0.512 -4.18,-1.961 L 3300.55,9.37891 c -1.21,-3.20703 -1.21,-4.17969 -1.21,-4.41797 0,-2.73047 2.18,-4.96094 4.92,-4.96094 3.2,0 3.94,1.71875 5.43,5.94141 z" /><path
         id="path364"
         style="fill:#000000;fill-opacity:1;fill-rule:evenodd;stroke:none"
         d="m 3437.38,114.922 v 5.43 l 0.28,1.718 v 1.719 l 0.23,1.723 0.23,1.476 v 1.723 l 0.28,1.488 0.47,2.961 0.51,1.488 0.46,2.692 0.75,2.461 1.01,2.469 0.7,2.218 1.02,1.992 0.98,1.961 1.25,1.989 0.97,1.718 1.21,1.481 1.25,1.492 1.22,1.438 1.48,1.25 1.25,1.25 1.48,0.98 1.21,0.981 1.49,0.742 1.25,0.738 1.48,0.738 1.49,0.473 1.21,0.508 1.48,0.23 1.25,0.512 1.45,0.238 h 1.25 l 1.25,0.27 h 1.21 c 2.23,0 17.77,-0.27 26.37,-9.141 -10.08,-0.738 -11.57,-8.129 -11.57,-11.328 0,-6.41 4.42,-11.371 11.33,-11.371 6.41,0 11.33,4.223 11.33,11.601 0,16.758 -18.71,26.372 -37.69,26.372 -30.59,0 -53.29,-26.602 -53.29,-57.192 0,-31.3202 24.42,-55.6991 52.78,-55.6991 33.04,0 40.93,29.5704 40.93,32.0274 0,2.4609 -2.46,2.4609 -3.2,2.4609 -2.22,0 -2.73,-0.9687 -3.2,-2.4609 -7.15,-22.9297 -23.2,-25.8985 -32.31,-25.8985 -12.81,0 -34.53,10.629 -34.53,50.0822 z" /><path
         id="path366"
         style="fill:#000000;fill-opacity:1;fill-rule:evenodd;stroke:none"
         d="m 3588.79,122.809 v 3.671 l -0.24,2 v 1.95 l -0.27,4.218 -0.23,4.411 -0.51,4.461 -0.47,4.679 -0.51,4.922 -0.97,4.93 -0.98,4.961 -1.02,5.148 -1.48,5.199 -1.45,5.161 -1.75,5.191 -1.96,5.43 -0.97,2.461 -1.02,2.699 -1.21,2.73 -1.25,2.457 c -14.77,30.313 -35.74,46.102 -38.44,46.102 -1.25,0 -2.5,-0.981 -2.5,-2.469 0,-0.5 0,-0.973 4.69,-5.422 24.18,-24.418 38.24,-63.359 38.24,-114.89 0,-41.9106 -9.14,-85.0785 -39.69,-116.12931 -3.24,-2.96875 -3.24,-3.48047 -3.24,-4.21875 0,-1.44141 1.25,-2.46094 2.5,-2.46094 2.7,0 24.65,16.7617 39.18,48.0898 12.58,26.8711 15.55,54.2502 15.55,74.7192 z" /><path
         id="path368"
         style="fill:#000000;fill-opacity:1;fill-rule:evenodd;stroke:none"
         d="m 2443.98,3966.21 -0.27,-0.74 v -0.74 l -0.47,-1.49 v -0.51 l -0.27,-0.74 -0.24,-0.47 -0.23,-0.5 v -0.51 l -0.27,-0.47 -0.24,-0.51 -0.23,-0.23 -0.28,-0.51 -0.74,-0.74 -0.47,-0.24 -0.23,-0.23 -0.51,-0.28 -0.51,-0.23 -0.23,-0.23 h -0.51 l -0.74,-0.28 h -0.47 l -0.51,-0.23 h -1.21 l -0.27,-0.24 h -4.42 c -2.96,0 -5.7,0 -5.7,-4.68 0,-2 1.25,-2.97 3.24,-2.97 6.64,0 13.79,0.74 20.71,0.74 8.12,0 16.52,-0.74 24.41,-0.74 1.21,0 4.41,0 4.41,4.92 0,2.73 -2.46,2.73 -5.89,2.73 -12.35,0 -12.35,1.72 -12.35,3.95 0,2.97 10.35,42.89 12.07,49.06 3.24,-7.15 9.89,-15.78 22.46,-15.78 l -0.23,5.43 c -16.06,0 -19.26,20.47 -19.26,21.95 0,0.47 0,0.98 0.74,3.95 l 11.84,48.05 c 1.72,6.68 8.4,13.59 12.81,17.26 8.63,7.66 15.78,9.38 20,9.38 9.85,0 15.78,-8.64 15.78,-23.17 0,-14.57 -8.16,-42.65 -12.58,-52.03 -8.39,-17.26 -20.23,-25.39 -29.33,-25.39 l 0.23,-5.43 c 28.6,0 59.18,35.98 59.18,71.99 0,23.17 -13.82,39.46 -32.54,39.46 -12.34,0 -24.18,-8.87 -32.3,-18.48 -2.46,13.28 -12.85,18.48 -21.95,18.48 -11.33,0 -16.02,-9.61 -18.25,-14.07 -4.45,-8.36 -7.65,-23.16 -7.65,-23.9 0,-2.46 2.46,-2.46 2.97,-2.46 2.46,0 2.69,0.23 4.18,5.66 4.18,17.5 9.14,29.34 18,29.34 4.18,0 7.66,-1.96 7.66,-11.33 0,-5.67 -0.74,-8.4 -1.76,-12.58 z" /><path
         id="path370"
         style="fill:#000000;fill-opacity:1;fill-rule:evenodd;stroke:none"
         d="m 2585.23,3974.34 1.02,0.97 0.7,0.74 0.75,0.75 1.01,0.97 0.74,0.75 0.47,0.5 0.51,0.47 0.47,0.51 0.51,0.51 0.74,0.47 0.51,0.5 0.46,0.51 0.75,0.47 0.74,0.74 0.74,0.51 1.49,1.49 0.74,0.46 0.97,0.75 0.98,0.97 1.02,0.74 0.97,0.75 0.98,1.01 1.25,0.98 1.21,0.98 1.25,0.97 1.21,1.02 c 3.71,2.93 16.53,13.28 21.49,17.97 10.58,10.35 17.22,19.25 17.22,21.21 0,2.22 -2.18,2.22 -2.93,2.22 -1.48,0 -2.22,-0.5 -2.97,-1.71 -5.43,-7.9 -8.86,-10.63 -13.08,-10.63 -1.95,0 -4.69,0.27 -9.85,5.2 -5.93,5.89 -9.6,7.14 -13.55,7.14 -13.83,0 -22.93,-15.03 -22.93,-20.23 0,-1.45 1.72,-1.95 2.7,-1.95 2.22,0 2.46,0.5 3.2,2.22 2.46,6.14 12.07,6.41 15.04,6.41 3.94,0 8.4,-0.98 10.86,-1.48 9.37,-2 10.58,-2 14.8,-2 -4.45,-4.65 -7.42,-7.89 -23.94,-20.93 -13.28,-10.63 -17.97,-14.81 -21.18,-18.48 -10.39,-10.12 -15.31,-17.54 -15.31,-19.26 0,-1.95 2.23,-1.95 2.97,-1.95 1.72,0 1.95,0.23 2.7,1.72 4.68,6.64 10.11,10.35 16.05,10.35 1.95,0 4.41,0 9.1,-4.45 5.43,-5.16 8.87,-7.62 14.3,-7.62 18.51,0 29.84,20.7 29.84,26.6 0,1.99 -1.72,2.23 -2.69,2.23 -2.23,0 -2.46,-0.75 -3.21,-2.7 -3.2,-8.63 -13.32,-12.81 -21.71,-12.81 -4.18,0 -8.36,0.98 -12.58,1.95 -7.89,1.72 -9.38,1.72 -12.58,1.72 -0.23,0 -2.7,0 -3.95,-0.23 z" /><path
         id="path372"
         style="fill:#000000;fill-opacity:1;fill-rule:evenodd;stroke:none"
         d="m 2750.94,3937.11 v 0.74 h -0.24 v 0.47 h -0.27 v 0.27 h -0.23 v 0.24 l -0.24,0.23 v 0.28 h -0.27 v 0.23 l -0.24,0.23 h -0.23 v 0.28 h -0.27 v 0.23 h -0.24 v 0.24 l -0.23,0.23 -0.24,0.27 -0.27,0.24 -0.24,0.23 -0.23,0.28 -0.27,0.23 v 0.24 h -0.24 l -0.23,0.27 c -30.82,31.05 -38.48,77.42 -38.48,114.88 0,42.89 9.38,85.55 39.45,116.37 3.21,2.97 3.21,3.48 3.21,3.94 0,2 -0.98,2.47 -2.46,2.47 -2.46,0 -24.65,-16.49 -38.95,-47.82 -12.58,-26.87 -15.55,-54.26 -15.55,-74.96 0,-18.98 2.7,-48.83 16.29,-76.44 14.53,-30.32 35.75,-46.33 38.21,-46.33 1.48,0 2.46,0.74 2.46,2.46 z" /><path
         id="path374"
         style="fill:#000000;fill-opacity:1;fill-rule:evenodd;stroke:none"
         d="m 2824.41,4158.52 v 0.23 l -0.23,0.27 v 0.24 l -0.27,0.23 v 0.28 l -0.24,0.46 -0.23,0.51 -0.28,0.24 v 0.23 l -0.23,0.27 -0.23,0.47 v 0.28 l -0.28,0.23 h -0.23 l -0.24,0.24 v 0.27 h -0.23 l -0.27,0.23 h -0.24 l -0.23,0.24 h -0.28 l -0.23,0.27 h -1.49 l -0.5,0.24 h -44.1 v -7.66 h 5.89 c 18.99,0 19.22,-2.7 19.22,-11.56 v -122.82 c 0,-6.64 0,-18.24 -25.11,-18.24 v -7.65 c 8.63,0.27 20.7,0.74 28.59,0.74 8.12,0 20.19,-0.47 28.83,-0.74 v 7.65 c -25.39,0 -25.39,11.6 -25.39,18.24 v 132.43 h 0.27 l 59.14,-152.89 c 1.25,-3.21 2.5,-5.43 4.96,-5.43 2.7,0 3.44,1.99 4.42,4.68 l 60.42,155.59 h 0.24 v -141.02 c 0,-8.9 -0.51,-11.6 -19.22,-11.6 h -5.94 v -7.65 c 9.14,0.74 25.67,0.74 35.28,0.74 9.61,0 26.13,0 35.23,-0.74 v 7.65 h -5.9 c -18.98,0 -19.49,2.7 -19.49,11.6 v 129.46 c 0,8.86 0.51,11.56 19.49,11.56 h 5.9 v 7.66 h -41.64 c -6.41,0 -6.41,-0.24 -8.16,-4.69 l -53.75,-138.32 z" /><path
         id="path376"
         style="fill:#000000;fill-opacity:1;fill-rule:evenodd;stroke:none"
         d="m 3017.73,4052.73 0.24,5.2 c 1.48,36.72 22.19,42.89 30.58,42.89 25.12,0 27.62,-33.28 27.62,-42.89 h -58.2 l -0.24,-5.2 h 68.52 c 5.43,0 6.17,0 6.17,5.2 0,24.41 -13.32,48.32 -43.87,48.32 -28.63,0 -51.28,-25.39 -51.28,-56.21 0,-32.81 25.85,-56.72 54.21,-56.72 29.85,0 40.94,27.38 40.94,32.03 0,2.5 -1.95,2.97 -3.2,2.97 -2.23,0 -2.7,-1.48 -3.2,-3.44 -8.64,-25.39 -30.59,-25.39 -33.05,-25.39 -12.31,0 -22.19,7.39 -27.85,16.53 -7.39,11.83 -7.39,28.08 -7.39,36.71 z" /><path
         id="path378"
         style="fill:#000000;fill-opacity:1;fill-rule:evenodd;stroke:none"
         d="m 3252.19,4139.77 0.27,1.01 0.24,0.7 0.5,0.75 0.47,0.74 0.28,1.01 0.46,0.75 0.51,0.7 0.47,0.74 1.02,1.49 0.74,0.5 0.47,0.75 0.74,0.74 0.74,0.47 0.74,0.74 1.49,1.02 0.74,0.46 0.98,0.51 0.97,0.47 1.02,0.51 0.98,0.23 0.97,0.51 1.25,0.23 0.98,0.28 1.21,0.23 1.25,0.24 1.48,0.27 1.22,0.23 h 1.48 l 1.48,0.24 h 1.49 v 7.66 c -7.66,-0.51 -17.27,-0.75 -23.67,-0.75 -7.39,0 -21.68,0.51 -28.09,0.75 v -7.66 c 12.81,-0.24 17.97,-6.64 17.97,-12.31 0,-1.99 -0.74,-3.47 -1.21,-4.96 l -45.12,-118.32 -46.87,124.03 c -1.49,3.43 -1.49,3.9 -1.49,4.41 0,7.15 14.06,7.15 20.24,7.15 v 7.66 c -8.87,-0.75 -25.9,-0.75 -35,-0.75 -11.84,0 -22.47,0.51 -31.33,0.75 v -7.66 c 16.01,0 20.7,0 24.18,-9.38 l 56.95,-150.89 c 1.72,-4.69 2.97,-5.43 6.17,-5.43 4.18,0 4.42,1.25 5.67,4.68 z" /><path
         id="path380"
         style="fill:#000000;fill-opacity:1;fill-rule:evenodd;stroke:none"
         d="m 3395.2,4171.09 v 0.51 h 0.27 v 0.47 l 0.23,0.23 v 0.75 l 0.24,0.27 v 0.47 h 0.27 v 1.25 h 0.24 v 0.51 c 0,2.69 -2.23,4.65 -4.93,4.65 -1.75,0 -3.47,-0.47 -4.22,-1.96 l -85.31,-234.22 c -1.21,-3.24 -1.21,-4.22 -1.21,-4.45 0,-2.73 2.23,-4.92 4.92,-4.92 3.21,0 3.95,1.72 5.43,5.9 z" /><path
         id="path382"
         style="fill:#000000;fill-opacity:1;fill-rule:evenodd;stroke:none"
         d="m 3438.87,4049.53 v 5.43 l 0.23,1.72 v 1.72 l 0.24,1.72 0.23,1.48 v 1.76 l 0.27,1.44 0.47,2.97 0.51,1.49 0.51,2.69 0.74,2.5 0.98,2.46 0.74,2.23 1.95,3.91 1.25,1.99 0.98,1.72 1.25,1.48 1.21,1.49 1.25,1.48 1.48,1.21 1.22,1.25 1.48,0.98 1.25,0.97 1.48,0.75 1.21,0.74 1.49,0.74 1.48,0.51 1.21,0.47 1.49,0.27 1.25,0.47 1.48,0.27 h 1.21 l 1.25,0.24 h 1.22 c 2.22,0 17.77,-0.24 26.4,-9.14 -10.12,-0.71 -11.6,-8.13 -11.6,-11.33 0,-6.41 4.45,-11.33 11.33,-11.33 6.44,0 11.37,4.18 11.37,11.56 0,16.8 -18.76,26.41 -37.74,26.41 -30.59,0 -53.24,-26.64 -53.24,-57.23 0,-31.29 24.41,-55.7 52.73,-55.7 33.05,0 40.94,29.57 40.94,32.03 0,2.5 -2.46,2.5 -3.2,2.5 -2.23,0 -2.7,-1.01 -3.21,-2.5 -7.14,-22.93 -23.16,-25.86 -32.3,-25.86 -12.81,0 -34.49,10.59 -34.49,50.04 z" /><path
         id="path384"
         style="fill:#000000;fill-opacity:1;fill-rule:evenodd;stroke:none"
         d="m 3590.23,4057.42 v 3.71 l -0.23,1.96 v 1.99 l -0.23,4.18 -0.28,4.45 -0.47,4.41 -0.5,4.69 -0.51,4.92 -0.98,4.97 -0.98,4.92 -0.97,5.15 -2.97,10.39 -1.72,5.16 -1.99,5.43 -0.98,2.46 -0.97,2.74 -1.25,2.69 -1.22,2.46 c -14.8,30.31 -35.78,46.1 -38.47,46.1 -1.25,0 -2.46,-0.98 -2.46,-2.47 0,-0.46 0,-0.97 4.68,-5.43 24.15,-24.37 38.21,-63.35 38.21,-114.88 0,-41.91 -9.1,-85.08 -39.69,-116.13 -3.2,-2.97 -3.2,-3.44 -3.2,-4.18 0,-1.49 1.21,-2.46 2.46,-2.46 2.69,0 24.65,16.76 39.18,48.08 12.58,26.88 15.54,54.22 15.54,74.69 z" /><path
         id="path386"
         style="fill:#000000;fill-opacity:1;fill-rule:evenodd;stroke:none"
         d="m 17.2695,1033.01 h -1.0586 v -0.28 h -0.5117 v -0.27 h -0.2695 v -0.23 h -0.2305 v -0.28 h -0.2773 v -0.54 h -0.2735 v -0.79 l -0.2695,-0.23 v -0.78 c 0,-3.95 2.3828,-28.56 2.8906,-33.008 0.2696,-2.071 1.5586,-3.633 4.961,-3.633 3.1601,0 3.1601,2.34 3.1601,6.25 0,12.581 1.8399,13.081 4.4492,13.081 l 5.2383,-0.78 61.7617,-15.7 c -9.6914,-4.691 -16.7617,-12.3 -16.7617,-24.058 l 5.7813,0.269 c 0,16.989 21.4416,20.668 23.0116,20.668 1.559,0 3.16,-0.508 4.449,-0.789 l 51.02,-13.082 c 4.719,-1.328 5.23,-1.328 9.68,-5.238 14.421,-11.52 18.601,-21.988 18.601,-29.328 0,-13.09 -14.383,-16.723 -24.609,-16.723 -13.09,0 -45,8.359 -57.032,14.371 -15.4683,8.129 -25.1206,19.649 -25.1206,30.121 l -5.7813,-0.269 c 0,-30.352 38.4729,-62.813 76.4019,-62.813 24.61,0 41.879,14.371 41.879,34.801 0,4.961 -1.019,18.051 -19.609,33.75 10.98,2.109 19.609,11.25 19.609,23.83 0,9.14 -6.019,15.19 -14.379,19.37 -9.41,4.18 -25.39,7.58 -25.89,7.58 -2.621,0 -2.621,-2.34 -2.621,-3.12 0,-2.39 1.011,-2.89 4.691,-3.68 17.031,-4.45 32.461,-8.9 32.461,-19.64 0,-7.039 -6.801,-7.86 -12.031,-7.86 -6.289,0 -8.129,0.551 -12.578,1.61 z" /><path
         id="path388"
         style="fill:#000000;fill-opacity:1;fill-rule:evenodd;stroke:none"
         d="m 98.1211,1169.34 v 3.39 l -0.2305,0.55 v 1.06 l -0.2695,0.5 v 0.51 l -0.2813,0.55 v 0.51 l -0.2304,0.54 -0.5508,1.02 -0.2305,0.55 -0.2773,0.23 -0.2695,0.55 -0.5118,0.5 H 95 v 0.28 l -0.5117,0.51 h -0.2695 l -0.2696,0.27 h -0.2383 l -0.2695,0.27 -0.2812,0.24 h -0.5 l -0.5508,0.27 h -0.2305 l -0.2773,0.27 h -2.3399 c -6.2929,0 -6.2929,-5.5 -6.2929,-9.96 v -59.65 c 0,-39.25 43.1602,-68.32 74.0622,-68.32 23.008,0 41.328,15.43 41.328,39.26 l -5.738,0.28 c 0,-12.86 -9.422,-23.32 -28.281,-23.32 -7.86,0 -29.031,3.16 -44.461,12.3 -18.078,11.02 -21.7579,26.72 -21.7579,35.35 0,21.99 17.3089,24.06 25.3989,24.06 12.3,0 33.511,-5.23 46.871,-14.14 15.429,-10.19 22.23,-24.06 22.23,-34.25 l 5.738,-0.28 c 0,30.63 -31.64,65.43 -71.679,65.43 -4.45,0 -17.032,0 -28.5589,-8.12 z" /><path
         id="path390"
         style="fill:#000000;fill-opacity:1;fill-rule:evenodd;stroke:none"
         d="m 9.69141,1306.99 -0.28125,0.28 h -0.5 l -0.28125,0.27 H 8.12109 l -0.26953,0.23 H 7.33984 l -0.26953,0.28 H 6.28906 l -0.26953,0.27 H 4.96094 C 2.10938,1308.32 0,1305.98 0,1303.09 c 0,-1.84 0.511719,-3.68 2.10938,-4.46 L 250.699,1208.09 c 3.442,-1.33 4.461,-1.33 4.731,-1.33 2.89,0 5.23,2.38 5.23,5.23 0,3.4 -1.832,4.22 -6.281,5.78 z" /><path
         id="path392"
         style="fill:#000000;fill-opacity:1;fill-rule:evenodd;stroke:none"
         d="m 17.2695,1457.5 h -0.5078 l -0.2812,-0.27 h -0.5 v -0.28 h -0.5508 v -0.23 l -0.2305,-0.27 -0.2773,-0.28 v -0.23 l -0.2735,-0.28 v -0.78 h -0.2695 v -0.78 c 0,-3.94 2.3828,-28.79 2.8906,-33.24 0.2696,-2.11 1.5586,-3.67 4.961,-3.67 3.1601,0 3.1601,2.34 3.1601,6.29 0,12.54 1.8399,13.08 4.4492,13.08 l 5.2383,-0.78 61.7617,-15.7 c -9.6914,-4.73 -16.7617,-12.07 -16.7617,-23.83 l 5.7813,0.27 c 0,16.72 21.4416,20.39 23.0116,20.39 1.559,0 3.16,-0.5 4.449,-0.78 l 51.02,-12.81 c 4.719,-1.33 5.23,-1.33 9.68,-5.23 14.421,-11.53 18.601,-22.27 18.601,-29.57 0,-13.09 -14.383,-16.76 -24.609,-16.76 -13.09,0 -45,8.36 -57.032,14.41 -15.4683,8.09 -25.1206,19.88 -25.1206,30.35 l -5.7813,-0.27 c 0,-30.63 38.4729,-62.81 76.4019,-62.81 24.61,0 41.879,14.14 41.879,34.53 0,5.23 -1.019,18.32 -19.609,34.02 10.98,2.11 19.609,11.25 19.609,23.56 0,9.18 -6.019,15.19 -14.379,19.37 -9.41,4.46 -25.39,7.85 -25.89,7.85 -2.621,0 -2.621,-2.34 -2.621,-3.12 0,-2.62 1.011,-2.89 4.691,-3.67 17.031,-4.46 32.461,-9.18 32.461,-19.89 0,-7.07 -6.801,-7.85 -12.031,-7.85 -6.289,0 -8.129,0.51 -12.578,1.56 z" /><path
         id="path394"
         style="fill:#000000;fill-opacity:1;fill-rule:evenodd;stroke:none"
         d="m 227.148,1470.59 0.821,-0.28 0.781,-0.27 0.781,-0.24 h 0.778 l 0.511,-0.27 0.782,-0.27 h 0.546 l 0.512,-0.24 0.539,-0.27 0.512,-0.27 h 0.508 l 0.269,-0.28 0.512,-0.23 0.27,-0.27 0.281,-0.51 0.269,-0.28 0.231,-0.27 0.277,-0.51 0.274,-0.27 0.238,-0.51 0.269,-0.55 v -0.5 l 0.27,-0.51 v -0.55 l 0.242,-0.78 v -1.05 l 0.27,-0.51 v -4.45 c 0,-3.13 0,-6.02 4.961,-6.02 2.109,0 3.168,1.29 3.168,3.4 0,7.07 -0.79,14.65 -0.79,21.99 0,8.36 0.79,17.27 0.79,25.63 0,1.32 0,4.72 -5.239,4.72 -2.89,0 -2.89,-2.62 -2.89,-6.29 0,-13.08 -1.84,-13.08 -4.18,-13.08 -3.121,0 -45.551,11.01 -52.07,12.81 7.578,3.44 16.718,10.74 16.718,24.1 l -5.738,-0.27 c 0,-17.27 -21.723,-20.67 -23.281,-20.67 -0.551,0 -1.059,0 -4.18,0.78 l -51.058,12.82 c -7.071,1.83 -14.3715,8.9 -18.3207,13.63 -8.1211,9.14 -9.9219,16.72 -9.9219,20.94 0,10.47 9.1406,16.72 24.5706,16.72 15.468,0 45.269,-8.64 55.23,-13.32 18.32,-8.91 26.961,-21.22 26.961,-30.9 l 5.738,0.27 c 0,30.08 -38.199,62.81 -76.41,62.81 -24.6092,0 -41.8709,-14.92 -41.8709,-34.8 0,-12.85 9.4102,-25.39 19.6524,-34.02 -14.1407,-2.62 -19.6524,-13.87 -19.6524,-23.56 0,-12.03 10.1914,-17.03 14.9219,-19.1 8.91,-4.73 24.609,-8.13 25.391,-8.13 2.621,0 2.621,2.62 2.621,3.13 0,2.62 -0.282,2.89 -6.024,4.22 -18.5896,4.41 -31.1286,9.65 -31.1286,19.1 0,4.45 2.0703,8.09 12.0312,8.09 6.0194,0 8.9104,-0.79 13.3204,-1.84 z" /><path
         id="path396"
         style="fill:#000000;fill-opacity:1;fill-rule:evenodd;stroke:none"
         d="m 218.52,1620.55 -1.02,0.78 -0.82,1.05 -0.782,0.78 -1.019,0.79 -0.82,1.05 -3.118,3.12 -0.511,0.79 -0.551,0.78 -0.777,0.54 -0.512,0.79 -1.559,1.56 -0.551,1.05 -1.832,1.84 -0.777,1.01 -0.781,1.06 -1.059,1.33 -1.051,1.05 -1.019,1.29 -1.051,1.33 -1.058,1.56 c -3.122,3.91 -14.141,17.54 -19.102,22.78 -10.98,11.24 -20.43,18.04 -22.5,18.04 -2.379,0 -2.379,-2.34 -2.379,-3.16 0,-1.56 0.539,-2.07 1.828,-3.13 8.403,-5.51 11.25,-9.41 11.25,-13.86 0,-2.11 -0.23,-4.97 -5.469,-10.2 -6.281,-6.29 -7.609,-10.23 -7.609,-14.65 0,-14.41 15.969,-24.37 21.481,-24.37 1.558,0 2.07,1.83 2.07,3.16 0,2.07 -0.512,2.62 -2.344,3.13 -6.527,2.89 -6.797,13.08 -6.797,15.97 0,4.18 1.059,8.91 1.559,11.53 2.109,10.19 2.109,11.25 2.109,15.93 4.961,-4.68 8.36,-8.08 22.231,-25.35 11.25,-14.41 15.699,-19.14 19.648,-22.77 10.703,-10.74 18.551,-16.25 20.391,-16.25 2.109,0 2.109,2.38 2.109,3.16 0,1.84 -0.277,2.35 -1.84,3.13 -7.066,4.96 -10.968,10.47 -10.968,16.76 0,2.34 0,4.96 4.679,9.92 5.512,5.51 8.129,9.18 8.129,15.19 0,19.38 -21.988,31.68 -28.277,31.68 -2.071,0 -2.352,-2.11 -2.352,-3.16 0,-2.07 0.781,-2.62 2.891,-3.13 9.14,-3.67 13.601,-14.41 13.601,-23.28 0,-4.22 -1.062,-8.63 -2.07,-13.36 -1.84,-8.36 -1.84,-9.96 -1.84,-13.08 0,-0.28 0,-3.13 0.239,-4.18 z" /><path
         id="path398"
         style="fill:#000000;fill-opacity:1;fill-rule:evenodd;stroke:none"
         d="m 258.051,1796.13 h -1.063 v -0.23 h -0.226 l -0.551,-0.55 h -0.27 v -0.27 h -0.242 l -0.269,-0.24 h -0.27 v -0.27 l -0.238,-0.27 -0.274,-0.24 -0.269,-0.27 h -0.238 v -0.27 h -0.27 v -0.24 h -0.281 l -0.27,-0.27 v -0.28 h -0.23 l -0.281,-0.23 -0.27,-0.27 v -0.28 h -0.238 c -33,-32.69 -82.18,-41.09 -121.949,-41.09 -45.5512,0 -90.8207,9.96 -123.55122,42.15 -3.1289,3.12 -3.67969,3.12 -4.17969,3.12 C 0.511719,1796.13 0,1795.35 0,1793.79 c 0,-2.62 17.5391,-26.17 50.7813,-41.6 28.5195,-13.36 57.5777,-16.49 79.5707,-16.49 20.117,0 51.796,2.85 81.097,17.27 32.223,15.7 49.211,38.2 49.211,40.82 0,1.56 -0.781,2.34 -2.609,2.34 z" /><path
         id="path400"
         style="fill:#000000;fill-opacity:1;fill-rule:evenodd;stroke:none"
         d="m 105.738,1840.12 h 69.883 c 11.758,0 11.758,-2.89 11.758,-20.43 h 8.133 c -0.282,9.18 -0.782,22.5 -0.782,29.57 0,6.83 0.5,20.43 0.782,29.33 h -8.133 c 0,-17.54 0,-20.43 -11.758,-20.43 H 127.73 c -27.218,0 -41.8706,18.6 -41.8706,35.08 0,16.49 14.1015,19.38 29.0196,19.38 h 60.742 c 11.758,0 11.758,-2.89 11.758,-20.43 h 8.133 c -0.282,9.18 -0.782,22.5 -0.782,29.57 0,6.79 0.5,20.43 0.782,29.06 h -8.133 c 0,-17.27 0,-20.16 -11.758,-20.16 H 127.73 c -27.218,0 -41.8706,18.6 -41.8706,35.08 0,16.49 14.1015,19.38 29.0196,19.38 h 60.742 c 11.758,0 11.758,-2.89 11.758,-20.43 h 8.133 c -0.282,9.14 -0.782,22.5 -0.782,29.57 0,6.79 0.5,20.43 0.782,29.29 h -8.133 c 0,-13.59 0,-20.11 -7.848,-20.39 h -49.73 c -22.5,0 -30.6213,0 -40.0315,-8.12 -4.4609,-3.67 -9.6914,-12.31 -9.6914,-27.46 0,-21.72 15.7032,-33.24 25.6599,-37.7 -22.7692,-3.67 -25.6599,-23.04 -25.6599,-34.8 0,-18.87 11.25,-31.13 27.4999,-38.48 H 80.0781 l 2.8907,-36.91 h 8.121 c 0,18.32 1.8008,20.43 14.6482,20.43 z" /><path
         id="path402"
         style="fill:#000000;fill-opacity:1;fill-rule:evenodd;stroke:none"
         d="M 97.1094,2066.21 H 14.3789 l 2.8906,-37.66 h 8.1211 c 0,18.33 1.8399,20.4 14.6485,20.4 H 195.512 v 6.56 c -0.282,0.27 -3.953,2.34 -16.25,9.41 6.008,3.91 19.097,14.65 19.097,34.03 l -5.738,-1.06 c 0,-11.76 -6.293,-21.21 -15.98,-27.46 -5.469,-3.4 -6.25,-3.4 -10.981,-3.4 h -53.629 c -5,0 -5.23,0 -9.453,2.85 -14.6483,9.96 -16.7186,24.34 -16.7186,30.63 0,11.79 6.8008,21.21 16.7186,27.5 10.742,6.79 25.66,7.58 36.402,7.58 9.418,0 25.122,-0.51 36.879,-8.13 8.121,-5.47 16.762,-15.43 16.762,-29.57 l 5.738,1.06 c 0,31.13 -25.629,58.08 -59.14,58.08 -33.239,0 -59.1409,-25.39 -59.1409,-55.19 0,-20.43 12.3008,-31.68 17.0313,-35.63 z" /><path
         id="path404"
         style="fill:#000000;fill-opacity:1;fill-rule:evenodd;stroke:none"
         d="M 9.69141,2280.82 H 9.41016 v 0.27 h -0.5 l -0.28125,0.28 H 7.85156 l -0.27343,0.23 H 7.07031 l -0.26953,0.28 H 6.01953 l -0.28125,0.27 H 4.96094 C 2.10938,2282.15 0,2279.8 0,2276.91 c 0,-1.83 0.511719,-3.67 2.10938,-4.45 L 250.699,2181.91 c 3.442,-1.32 4.461,-1.32 4.731,-1.32 2.89,0 5.23,2.38 5.23,5.23 0,3.4 -1.832,4.22 -6.281,5.78 z" /><path
         id="path406"
         style="fill:#000000;fill-opacity:1;fill-rule:evenodd;stroke:none"
         d="m 258.051,2382.89 h -1.063 v -0.23 h -0.226 l -0.551,-0.55 h -0.27 v -0.27 h -0.242 v -0.24 h -0.269 l -0.27,-0.27 -0.238,-0.28 -0.274,-0.23 -0.269,-0.27 h -0.238 v -0.28 h -0.27 v -0.23 l -0.281,-0.27 h -0.27 v -0.28 l -0.23,-0.27 h -0.281 l -0.27,-0.24 v -0.27 l -0.238,-0.27 c -33,-32.42 -82.18,-40.82 -121.949,-40.82 -45.5512,0 -90.8207,9.96 -123.55122,41.87 -3.1289,3.4 -3.67969,3.4 -4.17969,3.4 C 0.511719,2382.89 0,2381.84 0,2380.27 c 0,-2.61 17.5391,-25.89 50.7813,-41.32 28.5195,-13.36 57.5777,-16.49 79.5707,-16.49 20.117,0 51.796,2.85 81.097,17.27 32.223,15.7 49.211,37.93 49.211,40.54 0,1.57 -0.781,2.62 -2.609,2.62 z" /><path
         id="path408"
         style="fill:#000000;fill-opacity:1;fill-rule:evenodd;stroke:none"
         d="m 23.0508,2460.9 -0.2813,-0.28 H 22.5 l -0.2695,-0.27 h -0.2422 l -0.2695,-0.23 -0.5079,-0.28 h -0.5507 l -0.2305,-0.27 -0.2695,-0.23 h -0.2813 l -0.5,-0.28 -1.0586,-1.05 v -0.28 l -0.2695,-0.23 v -0.27 l -0.2422,-0.28 v -0.23 l -0.2695,-0.27 v -1.57 l -0.2696,-0.27 v -47.11 h 8.1211 v 6.29 c 0,20.16 2.8907,20.66 12.3086,20.66 H 168.012 c 7.066,0 19.367,0 19.367,-26.95 h 8.133 c -0.282,9.18 -0.782,21.99 -0.782,30.62 0,8.64 0.5,21.45 0.782,30.36 h -8.133 c 0,-26.68 -12.301,-26.68 -19.367,-26.68 H 27.4609 v 0.23 l 162.2691,62.81 c 3.391,1.33 5.782,2.62 5.782,5.24 0,2.89 -2.114,3.67 -5,4.72 l -165.1214,64.11 v 0.27 H 175.078 c 9.41,0 12.301,-0.51 12.301,-20.66 v -6.29 h 8.133 c -0.782,9.68 -0.782,27.5 -0.782,37.69 0,10.2 0,27.46 0.782,37.15 h -8.133 v -6.29 c 0,-19.88 -2.891,-20.39 -12.301,-20.39 H 37.6992 c -9.4179,0 -12.3086,0.51 -12.3086,20.39 v 6.29 h -8.1211 v -43.95 c 0,-6.83 0.2696,-6.83 4.961,-8.63 l 146.8285,-57.07 z" /><path
         id="path410"
         style="fill:#000000;fill-opacity:1;fill-rule:evenodd;stroke:none"
         d="m 135.309,2666.05 -5.508,0.28 c -38.9807,1.56 -45.5393,23.28 -45.5393,32.19 0,26.95 35.3473,29.57 45.5393,29.57 v -61.76 l 5.508,-0.28 v 72.5 c 0,5.79 0,6.57 -5.508,6.57 -25.891,0 -51.2815,-13.87 -51.2815,-46.6 0,-30.08 26.9495,-54.18 59.6405,-54.18 34.852,0 60.199,27.22 60.199,57.34 0,31.91 -29.019,43.44 -34.019,43.44 -2.621,0 -3.129,-1.84 -3.129,-3.4 0,-2.38 1.559,-2.62 3.668,-3.4 26.961,-8.91 26.961,-32.46 26.961,-35.08 0,-13.08 -7.86,-23.55 -17.539,-29.33 -12.582,-7.86 -29.852,-7.86 -38.992,-7.86 z" /><path
         id="path412"
         style="fill:#000000;fill-opacity:1;fill-rule:evenodd;stroke:none"
         d="m 42.9297,2914.69 -1.0508,0.54 -0.7891,0.24 -0.7812,0.27 -0.7773,0.51 -1.0508,0.55 -0.7813,0.5 -0.789,0.28 -0.7813,0.51 -0.8203,0.78 -0.7773,0.54 -1.293,1.29 -0.7774,0.55 -0.5507,0.78 -0.7813,0.78 -0.5078,0.78 -0.543,1.06 -0.5078,0.78 -0.5117,1.05 -0.5391,0.79 -0.5078,1.05 -0.2812,1.02 -0.5,1.32 -0.2813,1.06 -0.2695,1.29 -0.2305,1.33 -0.2773,1.28 -0.2735,1.33 -0.2382,1.57 v 1.56 l -0.2696,1.56 v 1.6 h -8.1211 c 0.5391,-8.12 0.7813,-18.59 0.7813,-25.39 0,-7.85 -0.5117,-23.05 -0.7813,-29.57 h 8.1211 c 0.2696,13.32 7.0703,18.83 13.0899,18.83 2.0703,0 3.6679,-0.78 5.2304,-1.33 L 169.34,2858.16 37.6992,2808.44 c -3.6797,-1.56 -4.1797,-1.56 -4.7304,-1.56 -7.5782,0 -7.5782,14.92 -7.5782,21.21 h -8.1211 c 0.7813,-9.18 0.7813,-27.23 0.7813,-37.19 0,-12.54 -0.5117,-23.79 -0.7813,-33.24 h 8.1211 c 0,17.03 0,21.99 9.918,25.66 l 160.2034,60.47 c 4.957,1.83 5.738,3.12 5.738,6.52 0,4.46 -1.289,4.96 -4.961,6.29 z" /><path
         id="path414"
         style="fill:#000000;fill-opacity:1;fill-rule:evenodd;stroke:none"
         d="m 9.69141,3066.48 -0.28125,0.28 h -0.5 l -0.28125,0.27 H 8.12109 l -0.26953,0.24 H 7.33984 l -0.26953,0.27 H 6.28906 l -0.26953,0.27 H 4.96094 C 2.10938,3067.81 0,3065.43 0,3062.58 c 0,-1.84 0.511719,-3.67 2.10938,-4.46 L 250.699,2967.58 c 3.442,-1.06 4.461,-1.06 4.731,-1.06 2.89,0 5.23,2.35 5.23,4.96 0,3.4 -1.832,4.18 -6.281,5.79 z" /><path
         id="path416"
         style="fill:#000000;fill-opacity:1;fill-rule:evenodd;stroke:none"
         d="m 138.711,3112.81 h -2.109 l -1.832,0.28 h -3.641 l -1.828,0.23 h -1.84 l -1.563,0.27 -1.839,0.28 -1.559,0.27 -1.602,0.24 -3.128,0.54 -2.891,0.78 -5.231,1.57 -2.347,1.05 -2.102,1.02 -2.078,1.05 -2.101,1.06 -1.8403,1.32 -1.5586,1.29 -1.5703,1.33 -1.5625,1.29 -1.3281,1.33 -1.2813,1.56 -1.0586,1.29 -1.0508,1.56 -0.789,1.33 -1.5586,3.13 -0.543,1.32 -0.5078,1.57 -0.2813,1.32 -0.5,1.57 -0.2812,1.29 v 1.56 l -0.2695,1.33 v 1.28 c 0,2.39 0.2695,18.87 9.6914,27.78 0.7812,-10.47 8.6285,-12.07 12.0705,-12.07 6.789,0 12.027,4.72 12.027,11.79 0,6.8 -4.449,12.04 -12.308,12.04 -17.8091,0 -28.0005,-19.89 -28.0005,-39.77 0,-32.73 28.2815,-56.52 60.6995,-56.52 33.242,0 59.14,25.62 59.14,55.97 0,34.81 -31.41,43.21 -34.019,43.21 -2.621,0 -2.621,-2.62 -2.621,-3.4 0,-2.38 1.051,-2.89 2.621,-3.4 24.371,-7.62 27.5,-24.34 27.5,-34.02 0,-13.87 -11.25,-36.92 -53.129,-36.92 z" /><path
         id="path418"
         style="fill:#000000;fill-opacity:1;fill-rule:evenodd;stroke:none"
         d="m 130.352,3273.75 h -6.051 l -2.071,-0.23 h -4.46 l -4.719,-0.55 -4.692,-0.24 -5,-0.54 -10.4684,-1.57 -5.2304,-1.05 -5.4688,-1.29 -5.5117,-1.33 -5.5078,-1.56 -5.4727,-1.84 -5.7773,-2.1 -2.6211,-1.29 -2.8516,-1.06 -2.8906,-1.29 -2.6094,-1.33 C 16.7617,3240.78 0,3218.55 0,3215.94 c 0,-1.56 1.05078,-2.62 2.62109,-2.62 0.5,0 1.05079,0 5.73829,4.96 25.94142,25.39 67.26172,40.31 121.99262,40.31 44.449,0 90.269,-9.68 123.238,-41.87 3.172,-3.4 3.68,-3.4 4.461,-3.4 1.558,0 2.609,1.06 2.609,2.62 0,2.61 -17.808,25.9 -51.012,41.33 -28.558,13.35 -57.578,16.48 -79.296,16.48 z" /><path
         id="path420"
         style="fill:#000000;fill-opacity:1;fill-rule:evenodd;stroke:none"
         d="m 130.352,3375.04 h -6.051 l -2.071,-0.24 h -4.46 l -4.719,-0.54 -4.692,-0.28 -5,-0.5 -10.4684,-1.57 -5.2304,-1.05 -5.4688,-1.29 -5.5117,-1.33 -5.5078,-1.56 -5.4727,-1.84 -5.7773,-2.11 -2.6211,-1.28 -2.8516,-1.06 -2.8906,-1.29 -2.6094,-1.33 C 16.7617,3342.07 0,3319.84 0,3317.23 c 0,-1.61 1.05078,-2.62 2.62109,-2.62 0.5,0 1.05079,0 5.73829,4.96 25.94142,25.39 67.26172,40.31 121.99262,40.31 44.449,0 90.269,-9.68 123.238,-41.87 3.172,-3.4 3.68,-3.4 4.461,-3.4 1.558,0 2.609,1.01 2.609,2.62 0,2.61 -17.808,25.89 -51.012,41.32 -28.558,13.36 -57.578,16.49 -79.296,16.49 z" /><path
         id="path422"
         style="fill:#000000;fill-opacity:1;fill-rule:evenodd;stroke:none"
         d="m 17.2695,4945.08 h -1.0586 v -0.28 h -0.5117 v -0.27 h -0.2695 v -0.27 h -0.2305 v -0.24 h -0.2773 v -0.54 h -0.2735 v -0.78 l -0.2695,-0.24 v -0.82 c 0,-3.91 2.3828,-28.52 2.8906,-32.97 0.2696,-2.07 1.5586,-3.67 4.961,-3.67 3.1601,0 3.1601,2.38 3.1601,6.29 0,12.58 1.8399,13.09 4.4492,13.09 l 5.2383,-0.79 61.7617,-15.7 c -9.6914,-4.69 -16.7617,-12.3 -16.7617,-24.06 l 5.7813,0.27 c 0,16.99 21.4416,20.67 23.0116,20.67 1.559,0 3.16,-0.55 4.449,-0.79 l 51.02,-13.08 c 4.719,-1.33 5.23,-1.33 9.68,-5.24 14.421,-11.52 18.601,-21.99 18.601,-29.33 0,-13.09 -14.383,-16.72 -24.609,-16.72 -13.09,0 -45,8.36 -57.032,14.37 -15.4683,8.13 -25.1206,19.65 -25.1206,30.12 l -5.7813,-0.27 c 0,-30.35 38.4729,-62.81 76.4019,-62.81 24.61,0 41.879,14.37 41.879,34.8 0,4.96 -1.019,18.05 -19.609,33.75 10.98,2.11 19.609,11.25 19.609,23.83 0,9.14 -6.019,15.15 -14.379,19.37 -9.41,4.18 -25.39,7.58 -25.89,7.58 -2.621,0 -2.621,-2.34 -2.621,-3.12 0,-2.39 1.011,-2.89 4.691,-3.68 17.031,-4.45 32.461,-8.9 32.461,-19.64 0,-7.07 -6.801,-7.86 -12.031,-7.86 -6.289,0 -8.129,0.55 -12.578,1.57 z" /><path
         id="path424"
         style="fill:#000000;fill-opacity:1;fill-rule:evenodd;stroke:none"
         d="m 98.1211,5081.41 v 3.39 l -0.2305,0.55 v 1.02 l -0.2695,0.54 v 0.51 l -0.2813,0.55 v 0.51 l -0.2304,0.5 -0.2696,0.55 -0.2812,0.51 -0.2305,0.55 -0.2773,0.23 -0.2695,0.55 -0.5118,0.51 H 95 v 0.27 l -0.5117,0.51 h -0.2695 l -0.2696,0.27 h -0.2383 l -0.2695,0.27 -0.2812,0.24 h -0.5 l -0.5508,0.27 h -0.2305 l -0.2773,0.27 h -2.3399 c -6.2929,0 -6.2929,-5.5 -6.2929,-9.96 v -59.64 c 0,-39.26 43.1602,-68.33 74.0622,-68.33 23.008,0 41.328,15.43 41.328,39.26 l -5.738,0.28 c 0,-12.86 -9.422,-23.32 -28.281,-23.32 -7.86,0 -29.031,3.16 -44.461,12.3 -18.078,11.02 -21.7579,26.72 -21.7579,35.35 0,21.96 17.3089,24.06 25.3989,24.06 12.3,0 33.511,-5.23 46.871,-14.14 15.429,-10.19 22.23,-24.06 22.23,-34.25 l 5.738,-0.28 c 0,30.63 -31.64,65.43 -71.679,65.43 -4.45,0 -17.032,0 -28.5589,-8.12 z" /><path
         id="path426"
         style="fill:#000000;fill-opacity:1;fill-rule:evenodd;stroke:none"
         d="m 9.69141,5219.06 -0.28125,0.28 h -0.5 l -0.28125,0.27 H 8.12109 l -0.26953,0.23 H 7.33984 l -0.26953,0.28 H 6.28906 l -0.26953,0.27 H 4.96094 C 2.10938,5220.39 0,5218.01 0,5215.16 c 0,-1.84 0.511719,-3.68 2.10938,-4.46 L 250.699,5120.16 c 3.442,-1.33 4.461,-1.33 4.731,-1.33 2.89,0 5.23,2.38 5.23,5.23 0,3.4 -1.832,4.18 -6.281,5.78 z" /><path
         id="path428"
         style="fill:#000000;fill-opacity:1;fill-rule:evenodd;stroke:none"
         d="m 17.2695,5369.57 h -0.5078 l -0.2812,-0.27 h -0.5 v -0.28 h -0.5508 v -0.23 l -0.2305,-0.27 -0.2773,-0.28 v -0.27 l -0.2735,-0.24 v -0.78 h -0.2695 v -0.78 c 0,-3.94 2.3828,-28.79 2.8906,-33.24 0.2696,-2.11 1.5586,-3.67 4.961,-3.67 3.1601,0 3.1601,2.34 3.1601,6.29 0,12.54 1.8399,13.08 4.4492,13.08 l 5.2383,-0.78 61.7617,-15.7 c -9.6914,-4.73 -16.7617,-12.07 -16.7617,-23.83 l 5.7813,0.27 c 0,16.72 21.4416,20.39 23.0116,20.39 1.559,0 3.16,-0.5 4.449,-0.78 l 51.02,-12.81 c 4.719,-1.33 5.23,-1.33 9.68,-5.23 14.421,-11.53 18.601,-22.27 18.601,-29.57 0,-13.09 -14.383,-16.76 -24.609,-16.76 -13.09,0 -45,8.36 -57.032,14.37 -15.4683,8.13 -25.1206,19.92 -25.1206,30.39 l -5.7813,-0.27 c 0,-30.62 38.4729,-62.81 76.4019,-62.81 24.61,0 41.879,14.14 41.879,34.53 0,5.23 -1.019,18.32 -19.609,34.02 10.98,2.11 19.609,11.25 19.609,23.56 0,9.18 -6.019,15.19 -14.379,19.37 -9.41,4.46 -25.39,7.85 -25.89,7.85 -2.621,0 -2.621,-2.34 -2.621,-3.12 0,-2.62 1.011,-2.89 4.691,-3.67 17.031,-4.46 32.461,-9.18 32.461,-19.89 0,-7.07 -6.801,-7.85 -12.031,-7.85 -6.289,0 -8.129,0.51 -12.578,1.57 z" /><path
         id="path430"
         style="fill:#000000;fill-opacity:1;fill-rule:evenodd;stroke:none"
         d="m 227.148,5382.66 0.821,-0.28 0.781,-0.27 0.781,-0.23 h 0.778 l 0.511,-0.28 0.782,-0.27 h 0.546 l 0.512,-0.28 0.539,-0.23 0.512,-0.27 h 0.508 l 0.269,-0.28 0.512,-0.23 0.27,-0.27 0.281,-0.51 0.269,-0.28 0.231,-0.27 0.277,-0.51 0.274,-0.27 0.238,-0.51 0.269,-0.54 v -0.51 l 0.27,-0.55 v -0.51 l 0.242,-0.78 v -1.05 l 0.27,-0.51 v -4.45 c 0,-3.17 0,-6.02 4.961,-6.02 2.109,0 3.168,1.29 3.168,3.4 0,7.07 -0.79,14.65 -0.79,21.99 0,8.36 0.79,17.27 0.79,25.63 0,1.32 0,4.72 -5.239,4.72 -2.89,0 -2.89,-2.62 -2.89,-6.29 0,-13.08 -1.84,-13.08 -4.18,-13.08 -3.121,0 -45.551,10.97 -52.07,12.81 7.578,3.4 16.718,10.74 16.718,24.1 l -5.738,-0.27 c 0,-17.27 -21.723,-20.67 -23.281,-20.67 -0.551,0 -1.059,0 -4.18,0.78 l -51.058,12.82 c -7.071,1.83 -14.3715,8.9 -18.3207,13.59 -8.1211,9.18 -9.9219,16.76 -9.9219,20.94 0,10.47 9.1406,16.76 24.5706,16.76 15.468,0 45.269,-8.64 55.23,-13.32 18.32,-8.91 26.961,-21.21 26.961,-30.9 l 5.738,0.27 c 0,30.08 -38.199,62.81 -76.41,62.81 -24.6092,0 -41.8709,-14.92 -41.8709,-34.8 0,-12.85 9.4102,-25.39 19.6524,-34.02 -14.1407,-2.62 -19.6524,-13.87 -19.6524,-23.56 0,-12.07 10.1914,-17.03 14.9219,-19.1 8.91,-4.73 24.609,-8.13 25.391,-8.13 2.621,0 2.621,2.62 2.621,3.13 0,2.62 -0.282,2.89 -6.024,4.18 -18.5896,4.45 -31.1286,9.69 -31.1286,19.14 0,4.41 2.0703,8.09 12.0312,8.09 6.0194,0 8.9104,-0.79 13.3204,-1.84 z" /><path
         id="path432"
         style="fill:#000000;fill-opacity:1;fill-rule:evenodd;stroke:none"
         d="m 218.52,5532.62 -1.02,0.78 -0.82,1.05 -0.782,0.78 -1.019,0.79 -0.82,1.05 -3.118,3.13 -0.511,0.78 -0.551,0.78 -0.777,0.54 -0.512,0.79 -1.559,1.56 -0.551,1.05 -1.832,1.84 -0.777,1.01 -0.781,1.06 -1.059,1.33 -1.051,1.01 -1.019,1.33 -1.051,1.29 -1.058,1.6 c -3.122,3.91 -14.141,17.5 -19.102,22.74 -10.98,11.29 -20.43,18.08 -22.5,18.08 -2.379,0 -2.379,-2.38 -2.379,-3.16 0,-1.56 0.539,-2.07 1.828,-3.13 8.403,-5.5 11.25,-9.41 11.25,-13.86 0,-2.11 -0.23,-4.96 -5.469,-10.2 -6.281,-6.29 -7.609,-10.23 -7.609,-14.69 0,-14.37 15.969,-24.33 21.481,-24.33 1.558,0 2.07,1.83 2.07,3.16 0,2.07 -0.512,2.62 -2.344,3.13 -6.527,2.89 -6.797,13.08 -6.797,15.97 0,4.18 1.059,8.91 1.559,11.53 2.109,10.19 2.109,11.25 2.109,15.93 4.961,-4.68 8.36,-8.08 22.231,-25.39 11.25,-14.37 15.699,-19.1 19.648,-22.73 10.703,-10.74 18.551,-16.25 20.391,-16.25 2.109,0 2.109,2.34 2.109,3.16 0,1.8 -0.277,2.35 -1.84,3.13 -7.066,4.96 -10.968,10.47 -10.968,16.76 0,2.34 0,4.96 4.679,9.92 5.512,5.51 8.129,9.18 8.129,15.19 0,19.38 -21.988,31.68 -28.277,31.68 -2.071,0 -2.352,-2.11 -2.352,-3.16 0,-2.07 0.781,-2.62 2.891,-3.13 9.14,-3.67 13.601,-14.41 13.601,-23.28 0,-4.22 -1.062,-8.67 -2.07,-13.36 -1.84,-8.4 -1.84,-9.96 -1.84,-13.08 0,-0.28 0,-3.17 0.239,-4.18 z" /><path
         id="path434"
         style="fill:#000000;fill-opacity:1;fill-rule:evenodd;stroke:none"
         d="m 258.051,5708.2 h -1.063 v -0.27 h -0.226 l -0.282,-0.23 -0.269,-0.28 h -0.27 v -0.27 h -0.242 l -0.269,-0.24 h -0.27 v -0.27 l -0.238,-0.27 -0.274,-0.24 -0.269,-0.27 h -0.238 v -0.27 h -0.27 v -0.28 h -0.281 l -0.27,-0.23 v -0.28 h -0.23 l -0.281,-0.27 -0.27,-0.23 v -0.28 h -0.238 c -33,-32.69 -82.18,-41.09 -121.949,-41.09 -45.5512,0 -90.8207,9.96 -123.55122,42.15 -3.1289,3.12 -3.67969,3.12 -4.17969,3.12 C 0.511719,5708.2 0,5707.42 0,5705.86 c 0,-2.62 17.5391,-26.17 50.7813,-41.6 28.5195,-13.36 57.5777,-16.49 79.5707,-16.49 20.117,0 51.796,2.85 81.097,17.27 32.223,15.7 49.211,38.2 49.211,40.82 0,1.56 -0.781,2.34 -2.609,2.34 z" /><path
         id="path436"
         style="fill:#000000;fill-opacity:1;fill-rule:evenodd;stroke:none"
         d="m 105.738,5752.19 h 69.883 c 11.758,0 11.758,-2.89 11.758,-20.43 h 8.133 c -0.282,9.18 -0.782,22.5 -0.782,29.57 0,6.79 0.5,20.43 0.782,29.33 h -8.133 c 0,-17.54 0,-20.43 -11.758,-20.43 H 127.73 c -27.218,0 -41.8706,18.6 -41.8706,35.08 0,16.49 14.1015,19.38 29.0196,19.38 h 60.742 c 11.758,0 11.758,-2.89 11.758,-20.43 h 8.133 c -0.282,9.18 -0.782,22.5 -0.782,29.57 0,6.79 0.5,20.43 0.782,29.06 h -8.133 c 0,-17.27 0,-20.16 -11.758,-20.16 H 127.73 c -27.218,0 -41.8706,18.6 -41.8706,35.08 0,16.49 14.1015,19.34 29.0196,19.34 h 60.742 c 11.758,0 11.758,-2.85 11.758,-20.39 h 8.133 c -0.282,9.14 -0.782,22.5 -0.782,29.57 0,6.79 0.5,20.43 0.782,29.29 h -8.133 c 0,-13.59 0,-20.15 -7.848,-20.39 h -49.73 c -22.5,0 -30.6213,0 -40.0315,-8.12 -4.4609,-3.67 -9.6914,-12.31 -9.6914,-27.46 0,-21.76 15.7032,-33.24 25.6599,-37.7 -22.7692,-3.67 -25.6599,-23.04 -25.6599,-34.8 0,-18.87 11.25,-31.17 27.4999,-38.48 H 80.0781 l 2.8907,-36.91 h 8.121 c 0,18.32 1.8008,20.43 14.6482,20.43 z" /><path
         id="path438"
         style="fill:#000000;fill-opacity:1;fill-rule:evenodd;stroke:none"
         d="M 97.1094,5978.28 H 14.3789 l 2.8906,-37.66 h 8.1211 c 0,18.33 1.8399,20.4 14.6485,20.4 H 195.512 v 6.56 c -0.282,0.23 -3.953,2.34 -16.25,9.41 6.008,3.91 19.097,14.65 19.097,34.03 l -5.738,-1.06 c 0,-11.76 -6.293,-21.21 -15.98,-27.46 -5.469,-3.44 -6.25,-3.44 -10.981,-3.44 h -53.629 c -5,0 -5.23,0 -9.453,2.89 -14.6483,9.96 -16.7186,24.34 -16.7186,30.63 0,11.8 6.8008,21.21 16.7186,27.5 10.742,6.8 25.66,7.58 36.402,7.58 9.418,0 25.122,-0.55 36.879,-8.13 8.121,-5.51 16.762,-15.43 16.762,-29.57 l 5.738,1.06 c 0,31.13 -25.629,58.08 -59.14,58.08 -33.239,0 -59.1409,-25.39 -59.1409,-55.19 0,-20.43 12.3008,-31.68 17.0313,-35.63 z" /><path
         id="path440"
         style="fill:#000000;fill-opacity:1;fill-rule:evenodd;stroke:none"
         d="M 9.69141,6192.89 H 9.41016 v 0.27 h -0.5 l -0.28125,0.28 H 7.85156 l -0.27343,0.23 H 7.07031 l -0.26953,0.28 H 6.01953 l -0.28125,0.27 H 4.96094 C 2.10938,6194.22 0,6191.84 0,6188.98 c 0,-1.83 0.511719,-3.67 2.10938,-4.45 L 250.699,6093.98 c 3.442,-1.32 4.461,-1.32 4.731,-1.32 2.89,0 5.23,2.38 5.23,5.23 0,3.4 -1.832,4.18 -6.281,5.78 z" /><path
         id="path442"
         style="fill:#000000;fill-opacity:1;fill-rule:evenodd;stroke:none"
         d="m 258.051,6294.96 h -1.063 v -0.27 h -0.226 l -0.282,-0.24 -0.269,-0.27 h -0.27 v -0.27 h -0.242 v -0.24 h -0.269 l -0.27,-0.27 -0.238,-0.28 -0.274,-0.23 -0.269,-0.27 h -0.238 v -0.28 h -0.27 v -0.27 l -0.281,-0.23 h -0.27 v -0.28 l -0.23,-0.27 h -0.281 l -0.27,-0.24 v -0.27 l -0.238,-0.27 c -33,-32.46 -82.18,-40.82 -121.949,-40.82 -45.5512,0 -90.8207,9.96 -123.55122,41.87 -3.1289,3.4 -3.67969,3.4 -4.17969,3.4 C 0.511719,6294.96 0,6293.91 0,6292.34 c 0,-2.61 17.5391,-25.89 50.7813,-41.32 28.5195,-13.36 57.5777,-16.53 79.5707,-16.53 20.117,0 51.796,2.89 81.097,17.31 32.223,15.7 49.211,37.93 49.211,40.54 0,1.57 -0.781,2.62 -2.609,2.62 z" /><path
         id="path444"
         style="fill:#000000;fill-opacity:1;fill-rule:evenodd;stroke:none"
         d="m 23.0508,6372.97 -0.2813,-0.27 H 22.5 l -0.2695,-0.28 h -0.2422 l -0.2695,-0.23 -0.5079,-0.28 h -0.5507 l -0.2305,-0.27 -0.2695,-0.27 h -0.2813 l -0.5,-0.24 -1.0586,-1.05 v -0.28 l -0.2695,-0.23 v -0.27 l -0.2422,-0.28 v -0.27 l -0.2695,-0.23 v -1.57 l -0.2696,-0.27 v -47.11 h 8.1211 v 6.29 c 0,20.16 2.8907,20.66 12.3086,20.66 H 168.012 c 7.066,0 19.367,0 19.367,-26.95 h 8.133 c -0.282,9.14 -0.782,21.99 -0.782,30.63 0,8.63 0.5,21.44 0.782,30.35 h -8.133 c 0,-26.68 -12.301,-26.68 -19.367,-26.68 H 27.4609 v 0.23 l 162.2691,62.81 c 3.391,1.33 5.782,2.62 5.782,5.24 0,2.89 -2.114,3.67 -5,4.73 l -165.1214,64.1 v 0.27 H 175.078 c 9.41,0 12.301,-0.51 12.301,-20.66 v -6.29 h 8.133 c -0.782,9.68 -0.782,27.46 -0.782,37.69 0,10.2 0,27.46 0.782,37.15 h -8.133 v -6.29 c 0,-19.88 -2.891,-20.39 -12.301,-20.39 H 37.6992 c -9.4179,0 -12.3086,0.51 -12.3086,20.39 v 6.29 h -8.1211 v -43.98 c 0,-6.8 0.2696,-6.8 4.961,-8.64 l 146.8285,-57.03 z" /><path
         id="path446"
         style="fill:#000000;fill-opacity:1;fill-rule:evenodd;stroke:none"
         d="m 135.309,6578.12 -5.508,0.28 c -38.9807,1.56 -45.5393,23.28 -45.5393,32.19 0,26.95 35.3473,29.57 45.5393,29.57 v -61.76 l 5.508,-0.28 v 72.5 c 0,5.79 0,6.57 -5.508,6.57 -25.891,0 -51.2815,-13.87 -51.2815,-46.6 0,-30.08 26.9495,-54.18 59.6405,-54.18 34.852,0 60.199,27.22 60.199,57.34 0,31.91 -29.019,43.44 -34.019,43.44 -2.621,0 -3.129,-1.84 -3.129,-3.4 0,-2.38 1.559,-2.62 3.668,-3.44 26.961,-8.87 26.961,-32.42 26.961,-35.04 0,-13.08 -7.86,-23.55 -17.539,-29.33 -12.582,-7.86 -29.852,-7.86 -38.992,-7.86 z" /><path
         id="path448"
         style="fill:#000000;fill-opacity:1;fill-rule:evenodd;stroke:none"
         d="m 42.9297,6826.76 -1.0508,0.54 -0.7891,0.24 -0.7812,0.27 -0.7773,0.51 -1.0508,0.55 -0.7813,0.51 -0.789,0.27 -0.7813,0.51 -0.8203,0.78 -0.7773,0.54 -1.293,1.29 -0.7774,0.55 -0.5507,0.78 -0.7813,0.78 -0.5078,0.78 -0.543,1.06 -0.5078,0.78 -0.5117,1.05 -0.5391,0.79 -0.5078,1.05 -0.2812,1.02 -0.5,1.32 -0.2813,1.06 -0.2695,1.29 -0.2305,1.33 -0.2773,1.29 -0.2735,1.32 -0.2382,1.57 v 1.56 l -0.2696,1.56 v 1.56 h -8.1211 c 0.5391,-8.08 0.7813,-18.55 0.7813,-25.35 0,-7.85 -0.5117,-23.04 -0.7813,-29.61 h 8.1211 c 0.2696,13.36 7.0703,18.87 13.0899,18.87 2.0703,0 3.6679,-0.78 5.2304,-1.33 L 169.34,6770.23 37.6992,6720.51 c -3.6797,-1.56 -4.1797,-1.56 -4.7304,-1.56 -7.5782,0 -7.5782,14.92 -7.5782,21.21 h -8.1211 c 0.7813,-9.18 0.7813,-27.23 0.7813,-37.19 0,-12.54 -0.5117,-23.83 -0.7813,-33.24 h 8.1211 c 0,17.03 0,21.99 9.918,25.66 l 160.2034,60.47 c 4.957,1.8 5.738,3.12 5.738,6.52 0,4.46 -1.289,4.96 -4.961,6.29 z" /><path
         id="path450"
         style="fill:#000000;fill-opacity:1;fill-rule:evenodd;stroke:none"
         d="m 9.69141,6978.55 -0.28125,0.28 h -0.5 l -0.28125,0.23 H 8.12109 l -0.26953,0.28 H 7.33984 l -0.26953,0.27 H 6.28906 l -0.26953,0.27 H 4.96094 C 2.10938,6979.88 0,6977.5 0,6974.65 c 0,-1.84 0.511719,-3.67 2.10938,-4.45 L 250.699,6879.65 c 3.442,-1.06 4.461,-1.06 4.731,-1.06 2.89,0 5.23,2.35 5.23,4.96 0,3.4 -1.832,4.18 -6.281,5.75 z" /><path
         id="path452"
         style="fill:#000000;fill-opacity:1;fill-rule:evenodd;stroke:none"
         d="m 138.711,7024.88 h -2.109 l -1.832,0.28 h -3.641 l -1.828,0.23 h -1.84 l -1.563,0.27 -1.839,0.28 -1.559,0.23 -1.602,0.28 -1.558,0.27 -1.57,0.23 -2.891,0.82 -5.231,1.57 -2.347,1.05 -2.102,1.02 -2.078,1.05 -2.101,1.06 -1.8403,1.28 -1.5586,1.33 -1.5703,1.29 -1.5625,1.33 -1.3281,1.29 -1.2813,1.6 -1.0586,1.29 -1.0508,1.56 -0.789,1.33 -1.5586,3.13 -0.543,1.32 -0.5078,1.57 -0.2813,1.28 -0.5,1.61 -0.2812,1.29 v 1.56 l -0.2695,1.33 v 1.29 c 0,2.38 0.2695,18.86 9.6914,27.77 0.7812,-10.47 8.6285,-12.07 12.0705,-12.07 6.789,0 12.027,4.72 12.027,11.8 0,6.79 -4.449,12.03 -12.308,12.03 -17.8091,0 -28.0005,-19.89 -28.0005,-39.77 0,-32.73 28.2815,-56.52 60.6995,-56.52 33.242,0 59.14,25.62 59.14,55.97 0,34.81 -31.41,43.21 -34.019,43.21 -2.621,0 -2.621,-2.62 -2.621,-3.4 0,-2.38 1.051,-2.89 2.621,-3.4 24.371,-7.62 27.5,-24.37 27.5,-34.02 0,-13.91 -11.25,-36.92 -53.129,-36.92 z" /><path
         id="path454"
         style="fill:#000000;fill-opacity:1;fill-rule:evenodd;stroke:none"
         d="m 130.352,7185.82 h -6.051 l -2.071,-0.23 h -4.46 l -4.719,-0.55 -4.692,-0.27 -5,-0.51 -10.4684,-1.56 -5.2304,-1.06 -5.4688,-1.29 -5.5117,-1.33 -5.5078,-1.56 -5.4727,-1.84 -5.7773,-2.1 -2.6211,-1.29 -2.8516,-1.06 -2.8906,-1.29 -2.6094,-1.33 C 16.7617,7152.85 0,7130.62 0,7128.01 c 0,-1.6 1.05078,-2.62 2.62109,-2.62 0.5,0 1.05079,0 5.73829,4.96 25.94142,25.39 67.26172,40.31 121.99262,40.31 44.449,0 90.269,-9.68 123.238,-41.87 3.172,-3.4 3.68,-3.4 4.461,-3.4 1.558,0 2.609,1.02 2.609,2.62 0,2.61 -17.808,25.9 -51.012,41.33 -28.558,13.36 -57.578,16.48 -79.296,16.48 z" /><path
         id="path456"
         style="fill:#000000;fill-opacity:1;fill-rule:evenodd;stroke:none"
         d="m 130.352,7287.11 h -6.051 l -2.071,-0.27 h -4.46 l -4.719,-0.51 -4.692,-0.28 -5,-0.5 -10.4684,-1.57 -5.2304,-1.05 -5.4688,-1.33 -5.5117,-1.29 -5.5078,-1.56 -5.4727,-1.84 -5.7773,-2.11 -2.6211,-1.28 -2.8516,-1.06 -2.8906,-1.33 -2.6094,-1.29 C 16.7617,7254.14 0,7231.88 0,7229.26 c 0,-1.56 1.05078,-2.62 2.62109,-2.62 0.5,0 1.05079,0 5.73829,5 25.94142,25.39 67.26172,40.31 121.99262,40.31 44.449,0 90.269,-9.68 123.238,-41.87 3.172,-3.44 3.68,-3.44 4.461,-3.44 1.558,0 2.609,1.06 2.609,2.62 0,2.62 -17.808,25.94 -51.012,41.36 -28.558,13.36 -57.578,16.49 -79.296,16.49 z" /><path
         id="path458"
         style="fill:none;stroke:#0000ff;stroke-width:18.11520004;stroke-linecap:butt;stroke-linejoin:miter;stroke-miterlimit:6.9000001;stroke-dasharray:36.2304, 36.2304;stroke-dashoffset:0;stroke-opacity:1"
         d="m 3536.29,6765.16 h 244.8" /></g></g></svg>