<?xml version="1.0" encoding="UTF-8" standalone="no"?>
<svg
   xmlns:dc="http://purl.org/dc/elements/1.1/"
   xmlns:cc="http://creativecommons.org/ns#"
   xmlns:rdf="http://www.w3.org/1999/02/22-rdf-syntax-ns#"
   xmlns:svg="http://www.w3.org/2000/svg"
   xmlns="http://www.w3.org/2000/svg"
   viewBox="0 0 336 225.33333"
   height="225.33333"
   width="336"
   xml:space="preserve"
   id="svg2"
   version="1.1"><metadata
     id="metadata8"><rdf:RDF><cc:Work
         rdf:about=""><dc:format>image/svg+xml</dc:format><dc:type
           rdf:resource="http://purl.org/dc/dcmitype/StillImage" /></cc:Work></rdf:RDF></metadata><defs
     id="defs6" /><g
     transform="matrix(1.3333333,0,0,-1.3333333,0,225.33333)"
     id="g10"><g
       transform="scale(0.1)"
       id="g12"><path
         id="path14"
         style="fill:none;stroke:#000000;stroke-width:2.5;stroke-linecap:butt;stroke-linejoin:miter;stroke-miterlimit:3.79999995;stroke-dasharray:none;stroke-opacity:1"
         d="m 465.352,288.301 h 31.527" /><path
         id="path16"
         style="fill:none;stroke:#000000;stroke-width:2.5;stroke-linecap:butt;stroke-linejoin:miter;stroke-miterlimit:3.79999995;stroke-dasharray:none;stroke-opacity:1"
         d="m 2414.84,288.301 h -31.48" /><g
         transform="scale(10)"
         id="g18"><text
           id="text22"
           style="font-variant:normal;font-weight:normal;font-size:12px;font-family:'Times New Roman';-inkscape-font-specification:TimesNewRomanPSMT;writing-mode:lr-tb;fill:#000000;fill-opacity:1;fill-rule:nonzero;stroke:none"
           transform="matrix(1,0,0,-1,35.4609,24.3141)"><tspan
             id="tspan20"
             y="0"
             x="0">0</tspan></text>
</g><path
         id="path24"
         style="fill:none;stroke:#000000;stroke-width:2.5;stroke-linecap:butt;stroke-linejoin:miter;stroke-miterlimit:3.79999995;stroke-dasharray:none;stroke-opacity:1"
         d="m 465.352,401.859 h 15.507" /><path
         id="path26"
         style="fill:none;stroke:#000000;stroke-width:2.5;stroke-linecap:butt;stroke-linejoin:miter;stroke-miterlimit:3.79999995;stroke-dasharray:none;stroke-opacity:1"
         d="m 2414.84,401.859 h -15.46" /><path
         id="path28"
         style="fill:none;stroke:#000000;stroke-width:2.5;stroke-linecap:butt;stroke-linejoin:miter;stroke-miterlimit:3.79999995;stroke-dasharray:none;stroke-opacity:1"
         d="m 465.352,515.801 h 31.527" /><path
         id="path30"
         style="fill:none;stroke:#000000;stroke-width:2.5;stroke-linecap:butt;stroke-linejoin:miter;stroke-miterlimit:3.79999995;stroke-dasharray:none;stroke-opacity:1"
         d="m 2414.84,515.801 h -31.48" /><g
         transform="scale(10)"
         id="g32"><text
           id="text36"
           style="font-variant:normal;font-weight:normal;font-size:12px;font-family:'Times New Roman';-inkscape-font-specification:TimesNewRomanPSMT;writing-mode:lr-tb;fill:#000000;fill-opacity:1;fill-rule:nonzero;stroke:none"
           transform="matrix(1,0,0,-1,20.4609,47.0641)"><tspan
             id="tspan34"
             y="0"
             x="0 6 9 15">0.01</tspan></text>
</g><path
         id="path38"
         style="fill:none;stroke:#000000;stroke-width:2.5;stroke-linecap:butt;stroke-linejoin:miter;stroke-miterlimit:3.79999995;stroke-dasharray:none;stroke-opacity:1"
         d="m 465.352,629.359 h 15.507" /><path
         id="path40"
         style="fill:none;stroke:#000000;stroke-width:2.5;stroke-linecap:butt;stroke-linejoin:miter;stroke-miterlimit:3.79999995;stroke-dasharray:none;stroke-opacity:1"
         d="m 2414.84,629.359 h -15.46" /><path
         id="path42"
         style="fill:none;stroke:#000000;stroke-width:2.5;stroke-linecap:butt;stroke-linejoin:miter;stroke-miterlimit:3.79999995;stroke-dasharray:none;stroke-opacity:1"
         d="m 465.352,743.301 h 31.527" /><path
         id="path44"
         style="fill:none;stroke:#000000;stroke-width:2.5;stroke-linecap:butt;stroke-linejoin:miter;stroke-miterlimit:3.79999995;stroke-dasharray:none;stroke-opacity:1"
         d="m 2414.84,743.301 h -31.48" /><g
         transform="scale(10)"
         id="g46"><text
           id="text50"
           style="font-variant:normal;font-weight:normal;font-size:12px;font-family:'Times New Roman';-inkscape-font-specification:TimesNewRomanPSMT;writing-mode:lr-tb;fill:#000000;fill-opacity:1;fill-rule:nonzero;stroke:none"
           transform="matrix(1,0,0,-1,20.4609,69.8141)"><tspan
             id="tspan48"
             y="0"
             x="0 6 9 15">0.02</tspan></text>
</g><path
         id="path52"
         style="fill:none;stroke:#000000;stroke-width:2.5;stroke-linecap:butt;stroke-linejoin:miter;stroke-miterlimit:3.79999995;stroke-dasharray:none;stroke-opacity:1"
         d="m 465.352,856.859 h 15.507" /><path
         id="path54"
         style="fill:none;stroke:#000000;stroke-width:2.5;stroke-linecap:butt;stroke-linejoin:miter;stroke-miterlimit:3.79999995;stroke-dasharray:none;stroke-opacity:1"
         d="m 2414.84,856.859 h -15.46" /><path
         id="path56"
         style="fill:none;stroke:#000000;stroke-width:2.5;stroke-linecap:butt;stroke-linejoin:miter;stroke-miterlimit:3.79999995;stroke-dasharray:none;stroke-opacity:1"
         d="m 465.352,970.801 h 31.527" /><path
         id="path58"
         style="fill:none;stroke:#000000;stroke-width:2.5;stroke-linecap:butt;stroke-linejoin:miter;stroke-miterlimit:3.79999995;stroke-dasharray:none;stroke-opacity:1"
         d="m 2414.84,970.801 h -31.48" /><g
         transform="scale(10)"
         id="g60"><text
           id="text64"
           style="font-variant:normal;font-weight:normal;font-size:12px;font-family:'Times New Roman';-inkscape-font-specification:TimesNewRomanPSMT;writing-mode:lr-tb;fill:#000000;fill-opacity:1;fill-rule:nonzero;stroke:none"
           transform="matrix(1,0,0,-1,20.4609,92.5637)"><tspan
             id="tspan62"
             y="0"
             x="0 6 9 15">0.03</tspan></text>
</g><path
         id="path66"
         style="fill:none;stroke:#000000;stroke-width:2.5;stroke-linecap:butt;stroke-linejoin:miter;stroke-miterlimit:3.79999995;stroke-dasharray:none;stroke-opacity:1"
         d="m 465.352,1084.36 h 15.507" /><path
         id="path68"
         style="fill:none;stroke:#000000;stroke-width:2.5;stroke-linecap:butt;stroke-linejoin:miter;stroke-miterlimit:3.79999995;stroke-dasharray:none;stroke-opacity:1"
         d="m 2414.84,1084.36 h -15.46" /><path
         id="path70"
         style="fill:none;stroke:#000000;stroke-width:2.5;stroke-linecap:butt;stroke-linejoin:miter;stroke-miterlimit:3.79999995;stroke-dasharray:none;stroke-opacity:1"
         d="m 465.352,1197.79 h 31.527" /><path
         id="path72"
         style="fill:none;stroke:#000000;stroke-width:2.5;stroke-linecap:butt;stroke-linejoin:miter;stroke-miterlimit:3.79999995;stroke-dasharray:none;stroke-opacity:1"
         d="m 2414.84,1197.79 h -31.48" /><g
         transform="scale(10)"
         id="g74"><text
           id="text78"
           style="font-variant:normal;font-weight:normal;font-size:12px;font-family:'Times New Roman';-inkscape-font-specification:TimesNewRomanPSMT;writing-mode:lr-tb;fill:#000000;fill-opacity:1;fill-rule:nonzero;stroke:none"
           transform="matrix(1,0,0,-1,20.4609,115.264)"><tspan
             id="tspan76"
             y="0"
             x="0 6 9 15">0.04</tspan></text>
</g><path
         id="path80"
         style="fill:none;stroke:#000000;stroke-width:2.5;stroke-linecap:butt;stroke-linejoin:miter;stroke-miterlimit:3.79999995;stroke-dasharray:none;stroke-opacity:1"
         d="m 465.352,1311.86 h 15.507" /><path
         id="path82"
         style="fill:none;stroke:#000000;stroke-width:2.5;stroke-linecap:butt;stroke-linejoin:miter;stroke-miterlimit:3.79999995;stroke-dasharray:none;stroke-opacity:1"
         d="m 2414.84,1311.86 h -15.46" /><path
         id="path84"
         style="fill:none;stroke:#000000;stroke-width:2.5;stroke-linecap:butt;stroke-linejoin:miter;stroke-miterlimit:3.79999995;stroke-dasharray:none;stroke-opacity:1"
         d="m 465.352,1425.29 h 31.527" /><path
         id="path86"
         style="fill:none;stroke:#000000;stroke-width:2.5;stroke-linecap:butt;stroke-linejoin:miter;stroke-miterlimit:3.79999995;stroke-dasharray:none;stroke-opacity:1"
         d="m 2414.84,1425.29 h -31.48" /><g
         transform="scale(10)"
         id="g88"><text
           id="text92"
           style="font-variant:normal;font-weight:normal;font-size:12px;font-family:'Times New Roman';-inkscape-font-specification:TimesNewRomanPSMT;writing-mode:lr-tb;fill:#000000;fill-opacity:1;fill-rule:nonzero;stroke:none"
           transform="matrix(1,0,0,-1,20.4609,138.014)"><tspan
             id="tspan90"
             y="0"
             x="0 6 9 15">0.05</tspan></text>
</g><path
         id="path94"
         style="fill:none;stroke:#000000;stroke-width:2.5;stroke-linecap:butt;stroke-linejoin:miter;stroke-miterlimit:3.79999995;stroke-dasharray:none;stroke-opacity:1"
         d="m 465.352,1539.36 h 15.507" /><path
         id="path96"
         style="fill:none;stroke:#000000;stroke-width:2.5;stroke-linecap:butt;stroke-linejoin:miter;stroke-miterlimit:3.79999995;stroke-dasharray:none;stroke-opacity:1"
         d="m 2414.84,1539.36 h -15.46" /><path
         id="path98"
         style="fill:none;stroke:#000000;stroke-width:2.5;stroke-linecap:butt;stroke-linejoin:miter;stroke-miterlimit:3.79999995;stroke-dasharray:none;stroke-opacity:1"
         d="m 465.352,1652.79 h 31.527" /><path
         id="path100"
         style="fill:none;stroke:#000000;stroke-width:2.5;stroke-linecap:butt;stroke-linejoin:miter;stroke-miterlimit:3.79999995;stroke-dasharray:none;stroke-opacity:1"
         d="m 2414.84,1652.79 h -31.48" /><g
         transform="scale(10)"
         id="g102"><text
           id="text106"
           style="font-variant:normal;font-weight:normal;font-size:12px;font-family:'Times New Roman';-inkscape-font-specification:TimesNewRomanPSMT;writing-mode:lr-tb;fill:#000000;fill-opacity:1;fill-rule:nonzero;stroke:none"
           transform="matrix(1,0,0,-1,20.4609,160.764)"><tspan
             id="tspan104"
             y="0"
             x="0 6 9 15">0.06</tspan></text>
</g><path
         id="path108"
         style="fill:none;stroke:#000000;stroke-width:2.5;stroke-linecap:butt;stroke-linejoin:miter;stroke-miterlimit:3.79999995;stroke-dasharray:none;stroke-opacity:1"
         d="m 465.352,288.301 v 31.488" /><path
         id="path110"
         style="fill:none;stroke:#000000;stroke-width:2.5;stroke-linecap:butt;stroke-linejoin:miter;stroke-miterlimit:3.79999995;stroke-dasharray:none;stroke-opacity:1"
         d="m 465.352,1652.79 v -31.48" /><g
         transform="scale(10)"
         id="g112"><text
           id="text116"
           style="font-variant:normal;font-weight:normal;font-size:12px;font-family:'Times New Roman';-inkscape-font-specification:TimesNewRomanPSMT;writing-mode:lr-tb;fill:#000000;fill-opacity:1;fill-rule:nonzero;stroke:none"
           transform="matrix(1,0,0,-1,35.5117,16.3648)"><tspan
             id="tspan114"
             y="0"
             x="0 3.9960001 9.9960003 15.996">-400</tspan></text>
</g><path
         id="path118"
         style="fill:none;stroke:#000000;stroke-width:2.5;stroke-linecap:butt;stroke-linejoin:miter;stroke-miterlimit:3.79999995;stroke-dasharray:none;stroke-opacity:1"
         d="m 708.871,288.301 v 15.551" /><path
         id="path120"
         style="fill:none;stroke:#000000;stroke-width:2.5;stroke-linecap:butt;stroke-linejoin:miter;stroke-miterlimit:3.79999995;stroke-dasharray:none;stroke-opacity:1"
         d="m 708.871,1652.79 v -15.5" /><path
         id="path122"
         style="fill:none;stroke:#000000;stroke-width:2.5;stroke-linecap:butt;stroke-linejoin:miter;stroke-miterlimit:3.79999995;stroke-dasharray:none;stroke-opacity:1"
         d="m 952.852,288.301 v 31.488" /><path
         id="path124"
         style="fill:none;stroke:#000000;stroke-width:2.5;stroke-linecap:butt;stroke-linejoin:miter;stroke-miterlimit:3.79999995;stroke-dasharray:none;stroke-opacity:1"
         d="m 952.852,1652.79 v -31.48" /><g
         transform="scale(10)"
         id="g126"><text
           id="text130"
           style="font-variant:normal;font-weight:normal;font-size:12px;font-family:'Times New Roman';-inkscape-font-specification:TimesNewRomanPSMT;writing-mode:lr-tb;fill:#000000;fill-opacity:1;fill-rule:nonzero;stroke:none"
           transform="matrix(1,0,0,-1,84.2621,16.3648)"><tspan
             id="tspan128"
             y="0"
             x="0 3.9960001 9.9960003 15.996">-200</tspan></text>
</g><path
         id="path132"
         style="fill:none;stroke:#000000;stroke-width:2.5;stroke-linecap:butt;stroke-linejoin:miter;stroke-miterlimit:3.79999995;stroke-dasharray:none;stroke-opacity:1"
         d="m 1196.37,288.301 v 15.551" /><path
         id="path134"
         style="fill:none;stroke:#000000;stroke-width:2.5;stroke-linecap:butt;stroke-linejoin:miter;stroke-miterlimit:3.79999995;stroke-dasharray:none;stroke-opacity:1"
         d="m 1196.37,1652.79 v -15.5" /><path
         id="path136"
         style="fill:none;stroke:#000000;stroke-width:2.5;stroke-linecap:butt;stroke-linejoin:miter;stroke-miterlimit:3.79999995;stroke-dasharray:none;stroke-opacity:1"
         d="m 1440.35,288.301 v 31.488" /><path
         id="path138"
         style="fill:none;stroke:#000000;stroke-width:2.5;stroke-linecap:butt;stroke-linejoin:miter;stroke-miterlimit:3.79999995;stroke-dasharray:none;stroke-opacity:1"
         d="m 1440.35,1652.79 v -31.48" /><g
         transform="scale(10)"
         id="g140"><text
           id="text144"
           style="font-variant:normal;font-weight:normal;font-size:12px;font-family:'Times New Roman';-inkscape-font-specification:TimesNewRomanPSMT;writing-mode:lr-tb;fill:#000000;fill-opacity:1;fill-rule:nonzero;stroke:none"
           transform="matrix(1,0,0,-1,142.512,16.3648)"><tspan
             id="tspan142"
             y="0"
             x="0">0</tspan></text>
</g><path
         id="path146"
         style="fill:none;stroke:#000000;stroke-width:2.5;stroke-linecap:butt;stroke-linejoin:miter;stroke-miterlimit:3.79999995;stroke-dasharray:none;stroke-opacity:1"
         d="m 1683.87,288.301 v 15.551" /><path
         id="path148"
         style="fill:none;stroke:#000000;stroke-width:2.5;stroke-linecap:butt;stroke-linejoin:miter;stroke-miterlimit:3.79999995;stroke-dasharray:none;stroke-opacity:1"
         d="m 1683.87,1652.79 v -15.5" /><path
         id="path150"
         style="fill:none;stroke:#000000;stroke-width:2.5;stroke-linecap:butt;stroke-linejoin:miter;stroke-miterlimit:3.79999995;stroke-dasharray:none;stroke-opacity:1"
         d="m 1927.34,288.301 v 31.488" /><path
         id="path152"
         style="fill:none;stroke:#000000;stroke-width:2.5;stroke-linecap:butt;stroke-linejoin:miter;stroke-miterlimit:3.79999995;stroke-dasharray:none;stroke-opacity:1"
         d="m 1927.34,1652.79 v -31.48" /><g
         transform="scale(10)"
         id="g154"><text
           id="text158"
           style="font-variant:normal;font-weight:normal;font-size:12px;font-family:'Times New Roman';-inkscape-font-specification:TimesNewRomanPSMT;writing-mode:lr-tb;fill:#000000;fill-opacity:1;fill-rule:nonzero;stroke:none"
           transform="matrix(1,0,0,-1,185.211,16.3648)"><tspan
             id="tspan156"
             y="0"
             x="0 6 12">200</tspan></text>
</g><path
         id="path160"
         style="fill:none;stroke:#000000;stroke-width:2.5;stroke-linecap:butt;stroke-linejoin:miter;stroke-miterlimit:3.79999995;stroke-dasharray:none;stroke-opacity:1"
         d="m 2171.37,288.301 v 15.551" /><path
         id="path162"
         style="fill:none;stroke:#000000;stroke-width:2.5;stroke-linecap:butt;stroke-linejoin:miter;stroke-miterlimit:3.79999995;stroke-dasharray:none;stroke-opacity:1"
         d="m 2171.37,1652.79 v -15.5" /><path
         id="path164"
         style="fill:none;stroke:#000000;stroke-width:2.5;stroke-linecap:butt;stroke-linejoin:miter;stroke-miterlimit:3.79999995;stroke-dasharray:none;stroke-opacity:1"
         d="m 2414.84,288.301 v 31.488" /><path
         id="path166"
         style="fill:none;stroke:#000000;stroke-width:2.5;stroke-linecap:butt;stroke-linejoin:miter;stroke-miterlimit:3.79999995;stroke-dasharray:none;stroke-opacity:1"
         d="m 2414.84,1652.79 v -31.48" /><g
         transform="scale(10)"
         id="g168"><text
           id="text172"
           style="font-variant:normal;font-weight:normal;font-size:12px;font-family:'Times New Roman';-inkscape-font-specification:TimesNewRomanPSMT;writing-mode:lr-tb;fill:#000000;fill-opacity:1;fill-rule:nonzero;stroke:none"
           transform="matrix(1,0,0,-1,233.961,16.3648)"><tspan
             id="tspan170"
             y="0"
             x="0 6 12">400</tspan></text>
</g><path
         id="path174"
         style="fill:none;stroke:#000000;stroke-width:2.5;stroke-linecap:butt;stroke-linejoin:miter;stroke-miterlimit:3.79999995;stroke-dasharray:none;stroke-opacity:1"
         d="m 465.352,288.301 h 1949.49 v 1364.49 H 465.352 Z" /><path
         id="path176"
         style="fill:none;stroke:#ff0000;stroke-width:10;stroke-linecap:butt;stroke-linejoin:miter;stroke-miterlimit:3.79999995;stroke-dasharray:none;stroke-opacity:1"
         d="m 2401.88,288.301 h -216.53 l -23.98,1.488 -24.03,2.5 -23.98,2.5 -23.98,2.07 -24.03,2.5 -23.98,2.93 -24.03,2.5 -24.49,3.512 -23.98,3.558 -24.03,3.942 -23.98,4.488 -23.98,5.512 -24.03,6.488 -23.98,7.5 -24.03,8 -23.98,9.5 -23.98,11.563 -24.03,14.449 -23.98,19.488 -24.49,28.563 -24.03,40.507 -23.98,56.442 -24.03,75.551 -23.98,96.949 -23.98,116.988 -24.03,134.5 -23.98,144.021 -24.03,143.48 -23.98,131.01 -23.98,108.99 -24.03,73.51 -24.49,33.56 -23.98,-9.07 -24.03,-51.48 -23.98,-85 -24.03,-111.52 -23.98,-127.5 -23.98,-132.5 -24.03,-128.481 -23.98,-118.52 -24.03,-103 -23.98,-85.937 -24.49,-67.5 -24.03,-51.993 -23.98,-38.007 -23.98,-26.063 -24.03,-18 -23.98,-12 -24.03,-8 -23.981,-5.937 -23.98,-5 -24.027,-5 -23.981,-6.063 -24.031,-5.93 -24.488,-6.57 -23.981,-7.5 -24.031,-7.5 -23.981,-8.937 -23.98,-8.563 -24.027,-8 -23.981,-7 -24.031,-6.988 -23.981,-6.012 -23.98,-6.488 -24.027,-4.449 -24.493,-4.493 -23.98,-4.07 -24.027,-3 -23.981,-2.5 -24.031,-2 -23.981,-1.988" /><path
         id="path178"
         style="fill:none;stroke:#008800;stroke-width:10;stroke-linecap:butt;stroke-linejoin:miter;stroke-miterlimit:3.79999995;stroke-dasharray:55, 22;stroke-dashoffset:0;stroke-opacity:1"
         d="m 2401.88,288.301 h -216.53 l -23.98,1.488 -24.03,2.5 -47.96,5 -24.03,2.5 -23.98,2.5 -24.03,3.512 -24.49,3.558 -23.98,4.493 -24.03,5 -23.98,6.437 -23.98,8.012 -24.03,8.558 -23.98,10 -24.03,11.442 -23.98,11.488 -23.98,13.512 -24.03,16.488 -23.98,21.012 -24.49,28.988 -24.03,40 -23.98,56.012 -24.03,73.558 -23.98,93.942 -23.98,113.051 -24.03,126.949 -23.98,134.489 -24.03,131.57 -23.98,117.5 -23.98,95 -24.03,61.44 -24.49,25 -23.98,-13.51 -24.03,-50.98 -23.98,-78.52 -24.03,-100.93 -23.98,-112.5 -23.98,-114.57 -24.03,-110.431 -23.98,-102.07 -24.03,-88.988 -23.98,-75.512 -24.49,-60.93 -24.03,-49.57 -23.98,-38.437 -23.98,-29.493 -24.03,-23.558 -23.98,-18.012 -24.03,-15.5 -23.981,-12.93 -23.98,-12.07 -24.027,-10.937 -23.981,-11.063 -24.031,-10.5 -24.488,-10 -23.981,-10 -24.031,-8.988 -23.981,-9.449 -23.98,-9.063 -24.027,-7.93 -23.981,-6.57 -24.031,-5.93 -47.961,-10 -24.027,-3.558 -24.493,-3.512 -23.98,-2.93 -24.027,-2.07 -23.981,-1.488 -24.031,-1.442 -23.981,-1.058" /><path
         id="path180"
         style="fill:none;stroke:#0000ff;stroke-width:10;stroke-linecap:butt;stroke-linejoin:miter;stroke-miterlimit:3.79999995;stroke-dasharray:13.75, 13.75;stroke-dashoffset:0;stroke-opacity:1"
         d="m 465.352,292.289 h 9.488 l 2.5,0.5 h 7.5 l 2.5,0.512 h 7.039 l 2.5,0.551 h 5 l 2.5,0.507 h 5 l 2.5,0.43 h 6.992 l 2.5,0.5 h 5 l 2.5,0.512 h 6.988 l 2.5,0.551 h 5 l 2.5,0.507 h 5 l 1.993,0.43 h 2.5 l 2.5,0.5 h 2.5 l 2.5,0.512 h 5 l 2.5,0.551 h 1.988 l 2.5,0.507 h 2.5 l 2.5,0.43 h 2.5 l 2.5,0.5 h 2.5 l 2.5,0.512 2.039,0.551 h 2.5 l 2.5,0.507 h 2.5 l 2.5,0.43 2.5,0.5 h 2.5 l 2.5,0.512 1.992,0.551 h 2.5 l 2.5,0.507 2.5,0.43 h 2.5 l 7.5,1.563 h 1.988 l 2.5,0.507 2.5,0.43 5,1.012 h 2.5 l 5,1.058 1.993,0.43 10,2.07 2.5,0.43 5,1.012 1.988,0.551 2.5,0.507 2.5,0.43 10,2.07 2.5,0.93 2.039,0.512 5,1.058 2.5,0.93 5,1.063 2.5,0.937 2.5,0.5 1.992,0.512 2.5,1.058 2.5,0.43 2.5,0.5 2.5,1.063 2.5,0.507 2.5,0.43 1.988,1.012 2.5,0.551 2.5,0.937 2.5,0.5 2.5,1.063 2.5,0.507 2.5,0.93 2.5,0.512 1.993,1.058 2.5,0.43 2.5,1.012 2.5,0.551 2.5,0.937 2.5,0.5 2.5,1.063 2.5,0.507 1.988,0.93 2.5,1.063 2.5,0.507 2.5,0.93 2.5,0.512 2.5,1.058 2.5,0.93 2.5,0.512 2.039,1.058 2.5,0.93 2.5,0.512 2.5,1.058 2.5,0.93 2.5,0.512 2.5,1.058 2.5,0.93 1.992,0.512 2.5,1.058 2.5,0.93 2.5,0.512 2.5,1.058 2.5,0.93 2.5,0.512 2.5,1.058 1.988,0.93 2.5,0.512 2.5,1.058 2.5,0.43 5,2.07 2.5,0.43 2.5,1.012 1.993,0.551 2.5,0.937 2.5,0.5 2.5,1.063 2.5,0.507 2.5,0.93 2.5,1.063 2.5,0.507 1.988,0.93 2.5,0.512 2.5,1.058 2.5,0.93 2.5,0.512 2.5,1.058 2.5,0.93 2.5,0.512 2.039,1.058 2.5,0.43 2.5,1.012 2.5,0.551 2.5,0.937 2.5,0.5 2.5,1.063 2.5,0.507 1.992,0.93 5,1.063 2.5,0.937 7.5,1.563 2.5,0.937 1.988,0.5 7.5,1.57 2.5,0.93 7.5,1.57 1.993,0.43 2.5,1.012 5,1.058 2.5,0.43 2.5,0.5 2.5,1.063 1.988,0.507 2.5,0.43 5,1.012 h 2.5 l 5,1.058 2.5,0.43 2.039,0.5 7.5,1.57 h 2.5 l 2.5,0.43 5,1.012 h 1.992 l 4.999,1.058 2.5,0.43 7.5,1.563 2.5,0.937 1.99,0.5 2.5,0.512 2.5,1.058 2.5,0.43 2.5,0.5 2.5,1.063 2.5,0.937 2.5,0.5 1.99,1.063 2.5,0.507 2.5,0.93 2.5,0.512 2.5,1.058 2.5,0.93 2.5,1.063 2.5,0.937 1.99,1.012 2.5,1.488 2.5,1.012 2.5,1.488 2.5,1.563 2.5,1.437 2.5,1.57 2.5,1.442 2.04,1.988 2.5,2 2.5,2.07 7.5,5.93 2.5,1.57 2.5,1.993 1.99,1.949 2.5,1.988 2.5,2.5 5,6.063 2.5,3.437 2.5,3.512 2.5,3.051 1.99,3.007 2.5,2.93 2.5,3.512 2.5,3.051 2.5,3.437 2.5,3.512 2.5,3.988 2.5,4.063 1.99,4.449 2.5,3.988 2.5,4.063 2.5,4.449 2.5,5.551 5,10 2.5,5.507 1.99,5.93 2.5,6.063 2.5,6.437 2.5,6.063 2.5,6.437 2.5,7 5,15 2.04,7.5 2.5,8 2.5,8.563 2.5,8.007 2.5,7.93 5,17.07 2.5,9.493 1.99,8.937 2.5,9.07 5,17.93 2.5,9.57 2.5,9.493 2.5,10 1.99,10.507 2.5,10.43 2.5,10.5 2.5,11.57 2.5,11.442 2.5,11.988 2.5,11.57 2.5,11.993 1.99,11.949 2.5,11.988 5,25 2.5,13.012 2.5,12.5 5,26.058 1.99,13.43 2.5,13.52 2.5,13.05 2.5,13.43 2.5,13.52 2.5,13.98 2.5,14.071 2.5,14.45 2.04,13.98 2.5,13.52 2.5,13.98 2.5,14.07 2.5,14.45 2.5,13.98 2.5,13.52 2.5,13.48 1.99,14.02 2.5,13.98 2.5,14.07 2.5,12.93 2.5,13.51 2.5,13.99 2.5,13.51 2.5,13.99 1.99,14.02 2.5,13.48 2.5,14.02 2.5,13.05 2.5,12.93 2.5,12.5 5,26.01 1.99,12.5 5,23.99 2.5,11.52 2.5,10.98 5,22.07 2.5,10.43 1.99,10.5 2.5,10.51 5,18.99 2.5,9.57 2.5,8.94 2.5,9.49 2.5,8.52 2.04,8.48 5,16.01 2.5,7.5 2.5,6.99 2.5,6.57 2.5,6.44 2.5,5.51 1.99,5.55 5,8.94 2.5,3.56 2.5,2.93 2.5,3 2.5,2.5 2.5,1.57 1.99,1.44 2.5,1.06 2.5,0.43 2.5,0.5 h 2.5 l 2.5,-0.5 2.5,-0.98 2.5,-1.52 1.99,-1.49 2.5,-1.99 5,-6.02 2.5,-3.43 2.5,-4.07 2.5,-3.98 2.5,-5.51 1.99,-5 2.5,-5.51 2.5,-5.93 2.5,-6.06 2.5,-6.99 5,-15 2.04,-7.5 2.5,-8.52 2.5,-8 5,-18.99 7.5,-30 1.99,-10.51 2.5,-10.93 5,-22.07 2.5,-11.49 5,-23.94 2.5,-12.07 1.99,-12.93 7.5,-37.5 2.5,-13.05 2.5,-12.5 2.5,-13.52 2.5,-13.98 1.99,-14.02 2.5,-13.48 2.5,-13.01 2.5,-13.51 5,-27.93 2.5,-13.05 2.5,-13.52 1.99,-13.98 2.5,-14.02 2.5,-13.48 5,-26.02 2.5,-13.43 5,-26.06 2.04,-13.51 2.5,-12.93 2.5,-12.5 2.5,-13.051 2.5,-13.52 2.5,-13 2.5,-12.93 2.5,-12.5 1.99,-12.07 2.5,-12.5 2.5,-12 2.5,-12.5 5,-23.937 2.5,-11.063 2.5,-11.437 1.99,-11.563 2.5,-10.937 2.5,-11.063 2.5,-10.93 2.5,-10.507 2.5,-11.063 2.5,-10.5 2.5,-10.43 1.99,-10 2.5,-10 2.5,-9.57 5,-18.988 2.5,-8.512 5,-17.93 1.99,-8.558 2.5,-8.512 2.5,-8.437 2.5,-8.051 2.5,-7.5 2.5,-8.012 5,-15 2.04,-6.988 5,-13.942 2.5,-6.57 2.5,-6.437 2.5,-6.563 2.5,-6.488 2.5,-6.012 1.99,-6.488 2.5,-6.012 2.5,-5.43 7.5,-16.57 2.5,-5 1.99,-5 2.5,-5 7.5,-13.43 2.5,-4.57 5,-7.93 1.99,-4.07 2.5,-3.937 2.5,-3.563 2.5,-3.937 2.5,-3.563 2.5,-3 2.5,-3.437 2.5,-3.051 1.99,-3.512 2.5,-2.93 5,-6.058 2.5,-2.5 2.5,-3.012 5,-5 2.04,-2.5 5,-5 2.5,-1.988 2.5,-2.5 2.5,-1.949 2.5,-2.5 2.5,-1.993 1.99,-2.07 10,-7.93 2.5,-1.57 2.5,-1.988 2.5,-1.442 1.99,-1.57 2.5,-1.437 2.5,-1.993 2.5,-1.57 2.5,-1.437 2.5,-1.563 2.5,-1.488 2.5,-1.012 1.99,-1.488 2.5,-1.442 2.5,-1.57 2.5,-0.93 2.5,-1.57 2.5,-0.93 2.5,-1.57 2.5,-0.93 1.99,-1.058 2.5,-1.012 2.5,-0.937 2.5,-1.563 2.5,-0.937 2.5,-1.063 2.5,-0.93 2.5,-1.058 2.04,-1.012 2.5,-0.937 2.5,-0.551 2.5,-1.012 2.5,-0.937 2.5,-1.063 2.5,-0.93 2.5,-0.507 1.99,-1.063 2.5,-0.93 2.5,-0.507 2.5,-1.063 2.5,-0.93 2.5,-0.507 2.5,-1.063 2.5,-0.5 1.99,-0.937 2.5,-0.551 2.5,-1.012 2.5,-0.43 2.5,-1.058 2.5,-0.512 2.5,-0.93 2.5,-0.507 1.99,-0.551 2.5,-1.012 2.5,-0.43 2.5,-1.058 5,-1.012 2.5,-0.937 2.5,-0.551 1.99,-0.512 2.5,-0.5 2.5,-0.937 5,-1.063 2.5,-0.93 2.5,-0.507 2.04,-0.551 2.5,-0.512 2.5,-0.93 7.5,-1.57 2.5,-0.93 2.5,-0.507 1.99,-0.551 2.5,-1.012 2.5,-0.43 5,-1.058 2.5,-1.012 2.5,-0.43 2.5,-0.507 1.99,-1.063 2.5,-0.5 2.5,-0.43 2.5,-1.058 5,-1.012 2.5,-0.43 2.5,-1.058 1.99,-0.512 2.5,-0.5 2.5,-0.43 10,-2.07 2.5,-0.937 1.99,-0.551 5,-1.012 h 2.5 l 2.5,-0.43 7.5,-1.57 2.04,-0.5 2.5,-0.43 5,-1.058 h 2.5 l 5,-1.012 2.5,-0.43 1.99,-0.507 h 2.5 l 7.5,-1.563 2.5,-0.43 h 2.5 l 2.5,-0.507 1.99,-0.551 h 2.5 l 5,-1.012 h 2.5 l 2.5,-0.43 h 2.5 l 2.5,-0.507 1.99,-0.551 h 2.5 l 2.5,-0.512 h 2.5 l 2.5,-0.5 2.5,-0.43 h 2.5 l 2.5,-0.507 1.99,-0.551 5,-1.012 h 2.5 l 2.5,-0.43 7.5,-1.57 h 2.04 l 2.5,-0.5 h 5 l 2.5,-0.43 h 2.5 l 2.5,-0.507 2.5,-1.063 1.99,-0.93 5,-2.07 2.5,-1.488 2.5,-1.012 2.5,-1.488 2.5,-1.949 1.99,-1.563 2.5,-1.488 5,-3.942 2.5,-2.07 2.5,-0.43 h 228.98" /><path
         id="path182"
         style="fill:none;stroke:#000000;stroke-width:2.5;stroke-linecap:butt;stroke-linejoin:miter;stroke-miterlimit:3.79999995;stroke-dasharray:none;stroke-opacity:1"
         d="m 465.352,288.301 h 1949.49 v 1364.49 H 465.352 Z" /><g
         transform="scale(10)"
         id="g184"><text
           id="text188"
           style="font-variant:normal;font-weight:normal;font-size:9.46811962px;font-family:'Times New Roman';-inkscape-font-specification:TimesNewRomanPSMT;writing-mode:lr-tb;fill:#000000;fill-opacity:1;fill-rule:nonzero;stroke:none"
           transform="matrix(1,0,0,-1,188.729,145.896)"><tspan
             id="tspan186"
             y="0"
             x="0 5.7850213 8.9379053 12.090789 18.926771 27.864677 31.017561">EI-DWIA</tspan></text>
</g><path
         id="path190"
         style="fill:none;stroke:#ff0000;stroke-width:10.14439964;stroke-linecap:butt;stroke-linejoin:miter;stroke-miterlimit:10;stroke-dasharray:none;stroke-opacity:1"
         d="m 1706.72,1490.29 h 135.47" /><g
         transform="scale(10)"
         id="g192"><text
           id="text196"
           style="font-variant:normal;font-weight:normal;font-size:9.46811962px;font-family:'Times New Roman';-inkscape-font-specification:TimesNewRomanPSMT;writing-mode:lr-tb;fill:#000000;fill-opacity:1;fill-rule:nonzero;stroke:none"
           transform="matrix(1,0,0,-1,188.729,137.172)"><tspan
             id="tspan194"
             y="0"
             x="0 5.7850213 12.621004 15.773888 22.609871 31.547775 34.700661">ED-DWIA</tspan></text>
</g><path
         id="path198"
         style="fill:none;stroke:#008b00;stroke-width:8.34095955;stroke-linecap:butt;stroke-linejoin:miter;stroke-miterlimit:10;stroke-dasharray:42.1557, 25.2483;stroke-dashoffset:0;stroke-opacity:1"
         d="m 1706.72,1403.26 h 135.47" /><g
         transform="scale(10)"
         id="g200"><text
           id="text204"
           style="font-variant:normal;font-weight:normal;font-size:9.46811962px;font-family:'Times New Roman';-inkscape-font-specification:TimesNewRomanPSMT;writing-mode:lr-tb;fill:#000000;fill-opacity:1;fill-rule:nonzero;stroke:none"
           transform="matrix(1,0,0,-1,188.729,128.38)"><tspan
             id="tspan202"
             y="0"
             x="0 5.7850213">TC</tspan></text>
</g><path
         id="path206"
         style="fill:none;stroke:#0000ff;stroke-width:10.14439964;stroke-linecap:butt;stroke-linejoin:miter;stroke-miterlimit:10;stroke-dasharray:10.1444, 30.4332;stroke-dashoffset:0;stroke-opacity:1"
         d="m 1706.72,1315.57 h 135.47" /><path
         id="path208"
         style="fill:#000000;fill-opacity:1;fill-rule:evenodd;stroke:none"
         d="m 1158.59,25.3711 -0.11,-0.3516 v -0.3906 l -0.24,-0.6992 v -0.2383 l -0.12,-0.3906 -0.23,-0.4727 v -0.2265 l -0.23,-0.4727 -0.12,-0.1172 -0.12,-0.2304 -0.12,-0.1602 -0.15,-0.1211 -0.12,-0.1094 -0.23,-0.1211 -0.12,-0.1211 -0.47,-0.2265 -0.12,-0.1211 h -0.23 l -0.35,-0.1211 h -0.28 L 1155,20.5703 h -0.59 l -0.11,-0.1211 h -2.15 c -1.45,0 -2.77,0 -2.77,-2.3008 0,-0.9375 0.62,-1.4492 1.56,-1.4492 3.24,0 6.72,0.3906 10.08,0.3906 3.98,0 8.04,-0.3906 11.87,-0.3906 0.63,0 2.19,0 2.19,2.4219 0,1.3281 -1.21,1.3281 -2.89,1.3281 -6.02,0 -6.02,0.8203 -6.02,1.9102 0,1.4492 5.04,20.8594 5.9,23.8711 1.56,-3.4805 4.81,-7.6602 10.9,-7.6602 l -0.12,2.6211 c -7.77,0 -9.33,9.957 -9.33,10.707 0,0.2305 0,0.461 0.35,1.9102 l 5.74,23.4023 c 0.86,3.2383 4.1,6.5977 6.25,8.3985 4.22,3.7109 7.69,4.5703 9.73,4.5703 4.8,0 7.69,-4.2188 7.69,-11.2891 0,-7.0703 -3.98,-20.7812 -6.13,-25.3203 -4.1,-8.3906 -9.85,-12.3789 -14.3,-12.3789 l 0.12,-2.6211 c 13.94,0 28.83,17.5 28.83,35.0391 0,11.289 -6.72,19.1797 -15.86,19.1797 -5.98,0 -11.76,-4.2891 -15.71,-8.9805 -1.21,6.4805 -6.25,8.9805 -10.7,8.9805 -5.51,0 -7.77,-4.6797 -8.87,-6.8282 -2.14,-4.0625 -3.71,-11.289 -3.71,-11.6406 0,-1.2109 1.17,-1.2109 1.45,-1.2109 1.17,0 1.29,0.1523 2.03,2.7695 2.03,8.5195 4.41,14.3008 8.75,14.3008 2.03,0 3.71,-0.9805 3.71,-5.5508 0,-2.7305 -0.35,-4.0586 -0.82,-6.0898 z" /><path
         id="path210"
         style="fill:#000000;fill-opacity:1;fill-rule:evenodd;stroke:none"
         d="m 1227.38,29.3203 0.47,0.4688 0.35,0.3906 0.39,0.3516 1.06,1.0468 0.23,0.2813 0.24,0.2304 0.27,0.2305 0.35,0.2383 0.47,0.4727 0.35,0.2304 0.35,0.3867 0.39,0.2422 0.71,0.6992 0.35,0.2305 0.51,0.3985 0.47,0.4609 0.46,0.3594 0.51,0.3515 0.47,0.5078 0.59,0.461 0.62,0.4687 0.59,0.5117 0.58,0.4688 c 1.8,1.4414 8.05,6.4805 10.47,8.75 5.16,5.043 8.4,9.3711 8.4,10.3125 0,1.0977 -1.09,1.0977 -1.44,1.0977 -0.75,0 -1.1,-0.2383 -1.45,-0.8594 -2.66,-3.8281 -4.34,-5.1602 -6.37,-5.1602 -0.93,0 -2.26,0.1211 -4.8,2.5391 -2.89,2.8906 -4.69,3.4805 -6.6,3.4805 -6.72,0 -11.14,-7.3086 -11.14,-9.8477 0,-0.6992 0.82,-0.9727 1.29,-0.9727 1.1,0 1.21,0.2735 1.57,1.0899 1.21,3.0117 5.89,3.1211 7.34,3.1211 1.91,0 4.06,-0.461 5.27,-0.6992 4.57,-0.9805 5.16,-0.9805 7.19,-0.9805 -2.15,-2.2578 -3.59,-3.8203 -11.64,-10.1914 -6.48,-5.1602 -8.75,-7.2266 -10.31,-9.0195 -5.04,-4.9297 -7.46,-8.5196 -7.46,-9.3399 0,-0.9805 1.09,-0.9805 1.44,-0.9805 0.86,0 0.98,0.1211 1.33,0.8633 2.27,3.2383 4.92,5.0391 7.81,5.0391 0.94,0 2.15,0 4.42,-2.1914 2.65,-2.5 4.33,-3.711 6.99,-3.711 8.98,0 14.49,10.0821 14.49,12.9727 0,0.9805 -0.82,1.0977 -1.29,1.0977 -1.09,0 -1.21,-0.3985 -1.56,-1.3282 -1.56,-4.2187 -6.49,-6.25 -10.59,-6.25 -2.03,0 -4.06,0.4688 -6.09,0.9688 -3.87,0.8203 -4.57,0.8203 -6.13,0.8203 -0.12,0 -1.33,0 -1.92,-0.1094 z" /><path
         id="path212"
         style="fill:#000000;fill-opacity:1;fill-rule:evenodd;stroke:none"
         d="m 1308.01,11.1914 v 0.3477 h -0.12 v 0.2812 h -0.12 v 0.1094 h -0.11 v 0.1211 l -0.12,0.1211 v 0.1172 h -0.12 v 0.1093 l -0.12,0.1211 h -0.11 v 0.1211 h -0.12 V 12.75 h -0.12 v 0.1211 l -0.23,0.2383 -0.16,0.1094 -0.11,0.1601 -0.24,0.2305 v 0.1211 h -0.12 l -0.11,0.1211 c -15,15.1172 -18.71,37.6875 -18.71,55.9375 0,20.8593 4.57,41.6409 19.18,56.6409 1.56,1.441 1.56,1.679 1.56,1.91 0,0.941 -0.47,1.211 -1.17,1.211 -1.22,0 -12.04,-8.051 -18.99,-23.281 -6.13,-13.0903 -7.54,-26.4106 -7.54,-36.4809 0,-9.2578 1.29,-23.7891 7.89,-37.2305 7.11,-14.7695 17.42,-22.5391 18.64,-22.5391 0.7,0 1.17,0.3516 1.17,1.1719 z" /><path
         id="path214"
         style="fill:#000000;fill-opacity:1;fill-rule:evenodd;stroke:none"
         d="m 1343.79,118.969 v 0.109 l -0.12,0.121 v 0.121 l -0.12,0.11 v 0.121 l -0.11,0.269 -0.12,0.239 -0.12,0.121 v 0.109 l -0.15,0.121 -0.12,0.238 v 0.114 l -0.12,0.117 h -0.11 l -0.12,0.121 v 0.109 h -0.12 l -0.12,0.161 h -0.11 l -0.12,0.121 h -0.12 l -0.11,0.109 h -0.75 l -0.23,0.121 h -21.49 v -3.75 h 2.89 c 9.26,0 9.38,-1.293 9.38,-5.621 V 52.4805 c 0,-3.2422 0,-8.8711 -12.27,-8.8711 v -3.711 c 4.22,0.1211 10.08,0.3516 13.95,0.3516 3.94,0 9.84,-0.2305 14.02,-0.3516 v 3.711 c -12.34,0 -12.34,5.6289 -12.34,8.8711 V 116.93 h 0.12 l 28.79,-74.4105 c 0.58,-1.5586 1.21,-2.6211 2.42,-2.6211 1.29,0 1.68,0.9414 2.15,2.2735 l 29.41,75.6991 h 0.12 V 49.2383 c 0,-4.2969 -0.28,-5.6289 -9.38,-5.6289 h -2.89 v -3.711 c 4.45,0.3516 12.5,0.3516 17.19,0.3516 4.65,0 12.69,0 17.15,-0.3516 v 3.711 h -2.89 c -9.22,0 -9.5,1.332 -9.5,5.6289 V 112.25 c 0,4.328 0.28,5.621 9.5,5.621 h 2.89 v 3.75 h -20.28 c -3.12,0 -3.12,-0.121 -3.98,-2.301 l -26.13,-67.3083 z" /><path
         id="path216"
         style="fill:#000000;fill-opacity:1;fill-rule:evenodd;stroke:none"
         d="m 1437.89,67.4805 0.12,2.539 c 0.7,17.8516 10.78,20.8594 14.88,20.8594 12.23,0 13.44,-16.207 13.44,-20.8594 h -28.32 l -0.12,-2.539 h 33.36 c 2.62,0 3.01,0 3.01,2.539 0,11.8789 -6.49,23.5196 -21.37,23.5196 -13.94,0 -24.96,-12.3907 -24.96,-27.3907 0,-15.9296 12.58,-27.5781 26.41,-27.5781 14.49,0 19.92,13.3281 19.92,15.5899 0,1.2109 -0.98,1.4492 -1.56,1.4492 -1.1,0 -1.33,-0.711 -1.57,-1.6797 -4.22,-12.3906 -14.88,-12.3906 -16.09,-12.3906 -6.02,0 -10.82,3.6406 -13.56,8.0507 -3.59,5.7813 -3.59,13.711 -3.59,17.8907 z" /><path
         id="path218"
         style="fill:#000000;fill-opacity:1;fill-rule:evenodd;stroke:none"
         d="m 1551.99,109.859 0.12,0.469 0.16,0.352 0.23,0.359 0.23,0.391 0.12,0.468 0.47,0.704 0.23,0.386 0.47,0.703 0.39,0.239 0.24,0.351 0.35,0.391 0.35,0.226 0.35,0.352 0.39,0.238 0.71,0.473 0.47,0.23 0.5,0.278 0.47,0.23 0.47,0.121 0.51,0.231 0.58,0.121 0.47,0.117 0.63,0.109 0.58,0.122 0.71,0.121 0.62,0.109 h 0.71 l 0.74,0.16 h 0.7 v 3.711 c -3.71,-0.23 -8.4,-0.351 -11.52,-0.351 -3.6,0 -10.55,0.23 -13.67,0.351 v -3.711 c 6.25,-0.16 8.75,-3.238 8.75,-6.012 0,-0.976 -0.36,-1.679 -0.59,-2.429 l -21.95,-57.5706 -22.82,60.3516 c -0.7,1.68 -0.7,1.91 -0.7,2.148 0,3.512 6.84,3.512 9.81,3.512 v 3.711 c -4.3,-0.351 -12.58,-0.351 -17.04,-0.351 -5.74,0 -10.89,0.23 -15.23,0.351 v -3.711 c 7.81,0 10.08,0 11.76,-4.57 l 27.73,-73.4416 c 0.82,-2.2968 1.45,-2.6484 3.01,-2.6484 2.03,0 2.15,0.5781 2.73,2.2617 z" /><path
         id="path220"
         style="fill:#000000;fill-opacity:1;fill-rule:evenodd;stroke:none"
         d="m 1621.6,125.102 v 0.226 h 0.12 v 0.242 l 0.12,0.11 v 0.359 l 0.11,0.109 v 0.282 h 0.16 v 0.582 h 0.12 v 0.238 c 0,1.32 -1.1,2.301 -2.43,2.301 -0.82,0 -1.68,-0.27 -2.03,-0.981 L 1576.25,14.5508 c -0.59,-1.5625 -0.59,-2.0313 -0.59,-2.1524 0,-1.3281 1.06,-2.3789 2.39,-2.3789 1.56,0 1.91,0.8203 2.65,2.8516 z" /><path
         id="path222"
         style="fill:#000000;fill-opacity:1;fill-rule:evenodd;stroke:none"
         d="m 1642.85,65.9219 v 2.6484 l 0.12,0.8281 V 70.25 l 0.12,0.8203 0.11,0.75 v 0.8203 l 0.12,0.7383 0.12,0.6992 0.15,0.7422 0.24,0.711 0.23,1.3281 0.35,1.1719 0.47,1.207 0.39,1.0898 0.47,0.9414 0.47,0.9805 0.63,0.9688 0.46,0.8203 0.59,0.75 0.63,0.6992 0.58,0.7031 0.7,0.6289 0.63,0.5781 0.7,0.4727 0.63,0.5078 0.7,0.3516 0.59,0.3476 0.74,0.3516 0.7,0.2422 0.63,0.2695 0.7,0.1172 0.59,0.2305 0.74,0.1211 h 0.58 l 0.59,0.1211 h 0.63 c 1.05,0 8.63,-0.1211 12.85,-4.461 -4.92,-0.3515 -5.67,-3.9414 -5.67,-5.5 0,-3.1289 2.15,-5.5117 5.51,-5.5117 3.13,0 5.55,2.0312 5.55,5.6211 0,8.1719 -9.14,12.8594 -18.36,12.8594 -14.88,0 -25.94,-12.9688 -25.94,-27.8594 0,-15.2305 11.88,-27.1094 25.7,-27.1094 16.06,0 19.93,14.3789 19.93,15.5899 0,1.2109 -1.22,1.2109 -1.57,1.2109 -1.09,0 -1.33,-0.4727 -1.56,-1.2109 -3.48,-11.1719 -11.29,-12.6211 -15.74,-12.6211 -6.21,0 -16.8,5.1992 -16.8,24.3828 z" /><path
         id="path224"
         style="fill:#000000;fill-opacity:1;fill-rule:evenodd;stroke:none"
         d="m 1716.52,69.75 v 1.8281 l -0.11,0.9414 V 73.5 l -0.12,2.0313 -0.12,2.1484 -0.23,2.1797 -0.24,2.2695 -0.23,2.3828 -0.47,2.418 -0.51,2.3906 -0.47,2.5391 -0.74,2.5 -0.7,2.539 -0.82,2.5 -0.98,2.6526 -0.47,1.211 -0.51,1.289 -0.58,1.328 -0.59,1.211 c -7.22,14.769 -17.42,22.422 -18.75,22.422 -0.58,0 -1.17,-0.473 -1.17,-1.172 0,-0.231 0,-0.512 2.27,-2.66 11.75,-11.871 18.59,-30.8206 18.59,-55.93 0,-20.3906 -4.45,-41.3711 -19.3,-56.5312 -1.56,-1.3985 -1.56,-1.6797 -1.56,-2.0274 0,-0.7031 0.59,-1.21093 1.17,-1.21093 1.33,0 12.03,8.16793 19.1,23.44143 6.1,13.0469 7.54,26.3672 7.54,36.3281 z" /><path
         id="path226"
         style="fill:#000000;fill-opacity:1;fill-rule:evenodd;stroke:none"
         d="M 8.51953,402.871 H 8.01172 v -0.152 H 7.73047 v -0.117 H 7.62109 V 402.48 H 7.5 v -0.16 H 7.33984 v -0.23 H 7.23047 v -0.391 l -0.12109,-0.121 v -0.387 c 0,-1.953 1.1289,-14.062 1.41015,-16.25 0.10938,-1.05 0.78125,-1.793 2.46097,-1.793 1.5195,0 1.5195,1.133 1.5195,3.082 0,6.168 0.8984,6.45 2.1914,6.45 l 2.5781,-0.391 30.4297,-7.738 c -4.7695,-2.301 -8.25,-6.051 -8.25,-11.871 l 2.8516,0.148 c 0,8.363 10.5508,10.16 11.3281,10.16 0.7813,0 1.5703,-0.238 2.1914,-0.386 l 25.1602,-6.454 c 2.3008,-0.617 2.5703,-0.617 4.7578,-2.578 7.0703,-5.66 9.1406,-10.82 9.1406,-14.41 0,-6.441 -7.1094,-8.238 -12.1094,-8.238 -6.4414,0 -22.1797,4.098 -28.1211,7.066 -7.5781,3.981 -12.3476,9.692 -12.3476,14.84 l -2.8516,-0.148 c 0,-14.93 18.9492,-30.942 37.6602,-30.942 12.1094,0 20.6211,7.114 20.6211,17.153 0,2.461 -0.5391,8.898 -9.6797,16.64 5.4297,1.008 9.6797,5.539 9.6797,11.719 0,4.531 -2.961,7.5 -7.1094,9.531 -4.6406,2.071 -12.5,3.75 -12.7695,3.75 -1.293,0 -1.293,-1.172 -1.293,-1.531 0,-1.172 0.5508,-1.441 2.3516,-1.828 8.3593,-2.192 15.9687,-4.383 15.9687,-9.652 0,-3.481 -3.3594,-3.872 -5.9297,-3.872 -3.0898,0 -3.9883,0.243 -6.1797,0.782 z" /><path
         id="path228"
         style="fill:#000000;fill-opacity:1;fill-rule:evenodd;stroke:none"
         d="m 48.3594,470.02 v 1.679 l -0.1602,0.231 v 0.55 l -0.1094,0.239 v 0.269 l -0.121,0.231 v 0.281 l -0.1172,0.27 -0.1524,0.23 -0.1211,0.281 -0.1172,0.231 -0.1601,0.16 -0.1094,0.226 -0.2812,0.282 h -0.1094 v 0.109 l -0.1211,0.16 -0.1602,0.121 h -0.1093 l -0.1211,0.11 h -0.1602 l -0.1094,0.16 -0.1211,0.121 h -0.2773 l -0.2305,0.109 h -0.1601 l -0.1094,0.121 h -1.1719 c -3.0898,0 -3.0898,-2.691 -3.0898,-4.882 V 441.93 c 0,-19.328 21.289,-33.668 36.4804,-33.668 11.3321,0 20.3594,7.617 20.3594,19.34 l -2.8203,0.148 c 0,-6.32 -4.6484,-11.48 -13.9375,-11.48 -3.8711,0 -14.3008,1.558 -21.9219,6.05 -8.8593,5.43 -10.6992,13.168 -10.6992,17.43 0,10.82 8.5195,11.828 12.5391,11.828 6.0508,0 16.4804,-2.578 23.0508,-6.949 7.6093,-5.039 10.9687,-11.879 10.9687,-16.879 l 2.8203,-0.148 c 0,15.078 -15.5898,32.218 -35.3203,32.218 -2.1797,0 -8.3594,0 -14.0586,-3.98 z" /><path
         id="path230"
         style="fill:#000000;fill-opacity:1;fill-rule:evenodd;stroke:none"
         d="m 4.76953,537.828 -0.12109,0.121 H 4.37891 L 4.26172,538.07 H 4.01953 l -0.14844,0.149 H 3.62891 L 3.48047,538.34 H 3.08984 l -0.12109,0.121 H 2.46094 C 1.01953,538.461 0,537.32 0,535.879 0,534.98 0.269531,534.078 1.01953,533.691 L 123.48,489.078 c 1.68,-0.617 2.219,-0.617 2.34,-0.617 1.41,0 2.578,1.168 2.578,2.578 0,1.68 -0.898,2.07 -3.089,2.852 z" /><path
         id="path232"
         style="fill:#000000;fill-opacity:1;fill-rule:evenodd;stroke:none"
         d="M 8.51953,611.93 H 8.23828 L 8.12109,611.82 H 7.89063 v -0.121 H 7.62109 v -0.16 L 7.5,611.43 7.33984,611.309 v -0.161 l -0.10937,-0.109 v -0.391 H 7.10938 v -0.398 c 0,-1.91 1.1289,-14.18 1.41015,-16.359 0.10938,-1.02 0.78125,-1.801 2.46097,-1.801 1.5195,0 1.5195,1.172 1.5195,3.09 0,6.172 0.8984,6.441 2.1914,6.441 l 2.5781,-0.391 30.4297,-7.73 c -4.7695,-2.309 -8.25,-5.941 -8.25,-11.719 l 2.8516,0.117 c 0,8.243 10.5508,10.071 11.3281,10.071 0.7813,0 1.5703,-0.27 2.1914,-0.391 l 25.1602,-6.328 c 2.3008,-0.66 2.5703,-0.66 4.7578,-2.57 7.0703,-5.668 9.1406,-10.981 9.1406,-14.571 0,-6.449 -7.1094,-8.25 -12.1094,-8.25 -6.4414,0 -22.1797,4.11 -28.1211,7.071 -7.5781,4.031 -12.3476,9.808 -12.3476,14.968 l -2.8516,-0.117 c 0,-15.082 18.9492,-30.941 37.6602,-30.941 12.1094,0 20.6211,6.949 20.6211,16.988 0,2.582 -0.5391,9.031 -9.6797,16.762 5.4297,1.058 9.6797,5.551 9.6797,11.601 0,4.528 -2.961,7.5 -7.1094,9.571 -4.6406,2.187 -12.5,3.867 -12.7695,3.867 -1.293,0 -1.293,-1.168 -1.293,-1.559 0,-1.289 0.5508,-1.41 2.3516,-1.8 8.3593,-2.192 15.9687,-4.532 15.9687,-9.801 0,-3.481 -3.3594,-3.867 -5.9297,-3.867 -3.0898,0 -3.9883,0.269 -6.1797,0.777 z" /><path
         id="path234"
         style="fill:#000000;fill-opacity:1;fill-rule:evenodd;stroke:none"
         d="m 111.91,618.379 0.391,-0.117 0.359,-0.114 0.391,-0.16 h 0.39 l 0.27,-0.117 0.391,-0.121 h 0.238 l 0.269,-0.148 0.27,-0.122 0.242,-0.121 h 0.27 l 0.121,-0.148 0.269,-0.121 0.117,-0.121 0.122,-0.27 0.152,-0.121 0.117,-0.109 0.121,-0.278 0.11,-0.121 0.16,-0.269 0.121,-0.27 v -0.242 l 0.109,-0.269 v -0.231 l 0.16,-0.391 v -0.507 l 0.121,-0.282 v -2.179 c 0,-1.571 0,-2.969 2.457,-2.969 1.012,0 1.524,0.617 1.524,1.68 0,3.468 -0.391,7.218 -0.391,10.82 0,4.141 0.391,8.508 0.391,12.609 0,0.668 0,2.352 -2.582,2.352 -1.399,0 -1.399,-1.293 -1.399,-3.094 0,-6.437 -0.902,-6.437 -2.07,-6.437 -1.531,0 -22.4218,5.39 -25.6327,6.289 3.7109,1.679 8.2422,5.308 8.2422,11.871 l -2.8516,-0.121 c 0,-8.508 -10.6992,-10.192 -11.4805,-10.192 -0.2382,0 -0.5078,0 -2.0273,0.391 l -25.1602,6.332 c -3.4804,0.898 -7.0703,4.367 -9.0195,6.68 -3.9922,4.531 -4.8906,8.238 -4.8906,10.308 0,5.16 4.5,8.242 12.1094,8.242 7.6211,0 22.3086,-4.261 27.1914,-6.562 9.0195,-4.379 13.2773,-10.43 13.2773,-15.199 l 2.8516,0.121 c 0,14.808 -18.8203,30.937 -37.6524,30.937 -12.1093,0 -20.6289,-7.34 -20.6289,-17.148 0,-6.328 4.6524,-12.5 9.6914,-16.762 -6.9922,-1.289 -9.6914,-6.828 -9.6914,-11.598 0,-5.941 5.0391,-8.359 7.3516,-9.41 4.3711,-2.308 12.1094,-3.992 12.5,-3.992 1.289,0 1.289,1.293 1.289,1.531 0,1.289 -0.121,1.442 -2.9687,2.071 -9.1406,2.179 -15.3203,4.761 -15.3203,9.41 0,2.191 1.0195,3.98 5.9375,3.98 2.9336,0 4.3828,-0.351 6.5625,-0.89 z" /><path
         id="path236"
         style="fill:#000000;fill-opacity:1;fill-rule:evenodd;stroke:none"
         d="m 107.66,692.25 -0.512,0.391 -0.386,0.507 -0.391,0.391 -0.512,0.391 -0.39,0.5 -0.27,0.281 -0.277,0.23 -0.231,0.278 -0.781,0.781 -0.281,0.391 -0.231,0.39 -0.386,0.231 -0.282,0.386 -0.351,0.391 -0.391,0.391 -0.269,0.511 -0.899,0.899 -0.39,0.512 -0.391,0.546 -0.5077,0.622 -0.5118,0.511 -0.5,0.66 -0.5507,0.629 -0.5079,0.782 c -1.5195,1.949 -6.9492,8.628 -9.4101,11.207 -5.3906,5.55 -10.0391,8.91 -11.1016,8.91 -1.1289,0 -1.1289,-1.18 -1.1289,-1.571 0,-0.777 0.2305,-1.007 0.8985,-1.519 4.1015,-2.731 5.5507,-4.649 5.5507,-6.84 0,-1.051 -0.1601,-2.461 -2.7382,-5.039 -3.0821,-3.078 -3.711,-5.031 -3.711,-7.219 0,-7.07 7.8516,-11.992 10.5508,-11.992 0.7773,0 1.0508,0.891 1.0508,1.563 0,1.007 -0.2735,1.289 -1.1719,1.558 -3.1992,1.41 -3.3594,6.449 -3.3594,7.852 0,2.066 0.5078,4.379 0.7813,5.668 1.0195,5.039 1.0195,5.539 1.0195,7.851 2.457,-2.312 4.1367,-3.992 10.9688,-12.5 5.5508,-7.07 7.7378,-9.422 9.6488,-11.211 5.312,-5.281 9.179,-7.968 10.082,-7.968 1.019,0 1.019,1.128 1.019,1.519 0,0.899 -0.121,1.168 -0.898,1.559 -3.481,2.429 -5.391,5.16 -5.391,8.25 0,1.172 0,2.461 2.301,4.879 2.699,2.73 3.988,4.531 3.988,7.5 0,9.531 -10.82,15.589 -13.91,15.589 -1.051,0 -1.172,-1.019 -1.172,-1.57 0,-1.008 0.391,-1.289 1.402,-1.519 4.54,-1.797 6.719,-7.11 6.719,-11.489 0,-2.07 -0.5,-4.25 -1.008,-6.558 -0.902,-4.141 -0.902,-4.922 -0.902,-6.442 0,-0.121 0,-1.57 0.121,-2.07 z" /><path
         id="path238"
         style="fill:#000000;fill-opacity:1;fill-rule:evenodd;stroke:none"
         d="m 127.109,778.73 h -0.507 v -0.121 h -0.153 l -0.121,-0.109 -0.117,-0.16 h -0.121 v -0.121 h -0.149 l -0.121,-0.11 h -0.121 v -0.121 l -0.39,-0.386 h -0.149 v -0.161 h -0.121 v -0.121 h -0.117 l -0.152,-0.109 v -0.16 h -0.122 l -0.117,-0.121 -0.152,-0.11 v -0.16 h -0.117 c -16.25,-16.09 -40.4729,-20.23 -60.0823,-20.23 -22.418,0 -44.7305,4.922 -60.82032,20.781 -1.5586,1.519 -1.80079,1.519 -2.07032,1.519 C 0.269531,778.73 0,778.34 0,777.559 0,776.27 8.62891,764.672 25,757.09 c 14.0586,-6.602 28.3594,-8.121 39.1797,-8.121 9.9219,0 25.5508,1.402 39.9613,8.511 15.859,7.739 24.257,18.79 24.257,20.079 0,0.781 -0.386,1.171 -1.289,1.171 z" /><path
         id="path240"
         style="fill:#000000;fill-opacity:1;fill-rule:evenodd;stroke:none"
         d="m 52.0703,800.41 h 34.4492 c 5.7813,0 5.7813,-1.441 5.7813,-10.082 h 3.9883 c -0.1172,4.531 -0.3907,11.102 -0.3907,14.57 0,3.364 0.2735,10.082 0.3907,14.461 h -3.9883 c 0,-8.64 0,-10.078 -5.7813,-10.078 H 62.9297 c -13.4414,0 -20.6289,9.18 -20.6289,17.297 0,8.133 6.9609,9.531 14.3008,9.531 h 29.9179 c 5.7813,0 5.7813,-1.398 5.7813,-10.07 h 3.9883 c -0.1172,4.531 -0.3907,11.09 -0.3907,14.57 0,3.36 0.2735,10.071 0.3907,14.332 h -3.9883 c 0,-8.511 0,-9.921 -5.7813,-9.921 H 62.9297 c -13.4414,0 -20.6289,9.14 -20.6289,17.269 0,8.121 6.9609,9.531 14.3008,9.531 h 29.9179 c 5.7813,0 5.7813,-1.41 5.7813,-10.039 h 3.9883 c -0.1172,4.489 -0.3907,11.047 -0.3907,14.528 0,3.363 0.2735,10.082 0.3907,14.453 h -3.9883 c 0,-6.723 0,-9.922 -3.8594,-10.043 H 63.9492 c -11.0976,0 -15.0781,0 -19.7304,-4.02 -2.1875,-1.801 -4.7696,-6.051 -4.7696,-13.519 0,-10.7 7.7422,-16.36 12.6211,-18.551 -11.2109,-1.84 -12.6211,-11.367 -12.6211,-17.149 0,-9.3 5.5508,-15.351 13.5625,-18.941 H 39.4492 l 1.4102,-18.211 h 4.0195 c 0,9.031 0.9024,10.082 7.1914,10.082 z" /><path
         id="path242"
         style="fill:#000000;fill-opacity:1;fill-rule:evenodd;stroke:none"
         d="M 47.8516,911.781 H 7.10938 L 8.51953,893.219 H 12.5 c 0,9.031 0.8984,10.043 7.2305,10.043 h 76.5586 v 3.238 c -0.1172,0.121 -1.9102,1.141 -7.9688,4.609 2.9688,1.961 9.4102,7.231 9.4102,16.762 l -2.8516,-0.512 c 0,-5.781 -3.0781,-10.429 -7.8476,-13.507 -2.7305,-1.68 -3.0821,-1.68 -5.4297,-1.68 H 55.1992 c -2.4687,0 -2.5781,0 -4.6484,1.398 -7.2305,4.93 -8.25,12 -8.25,15.078 0,5.821 3.3203,10.473 8.25,13.563 5.2695,3.359 12.6094,3.711 17.9297,3.711 4.6093,0 12.3398,-0.242 18.1601,-3.992 3.9805,-2.692 8.2383,-7.61 8.2383,-14.571 l 2.8516,0.512 c 0,15.348 -12.6524,28.629 -29.1407,28.629 -16.3593,0 -29.1406,-12.5 -29.1406,-27.18 0,-10.082 6.0625,-15.629 8.4024,-17.539 z" /><path
         id="path244"
         style="fill:#000000;fill-opacity:1;fill-rule:evenodd;stroke:none"
         d="M 4.76953,1017.48 H 4.64844 v 0.12 H 4.37891 l -0.11719,0.15 H 3.87109 L 3.75,1017.87 H 3.48047 l -0.12109,0.16 H 2.96875 l -0.11719,0.12 H 2.46094 C 1.01953,1018.15 0,1016.97 0,1015.57 c 0,-0.9 0.269531,-1.8 1.01953,-2.19 L 123.48,968.77 c 1.68,-0.622 2.219,-0.622 2.34,-0.622 1.41,0 2.578,1.133 2.578,2.571 0,1.679 -0.898,2.031 -3.089,2.82 z" /><path
         id="path246"
         style="fill:#000000;fill-opacity:1;fill-rule:evenodd;stroke:none"
         d="m 127.109,1067.75 h -0.507 v -0.11 h -0.153 l -0.121,-0.12 -0.117,-0.16 h -0.121 v -0.11 h -0.149 v -0.12 h -0.121 l -0.121,-0.12 -0.148,-0.11 -0.242,-0.24 h -0.149 v -0.12 h -0.121 v -0.15 l -0.117,-0.12 h -0.152 v -0.12 l -0.122,-0.11 h -0.117 l -0.152,-0.12 v -0.12 l -0.117,-0.15 c -16.25,-15.98 -40.4729,-20.08 -60.0823,-20.08 -22.418,0 -44.7305,4.88 -60.82032,20.62 -1.5586,1.68 -1.80079,1.68 -2.07032,1.68 C 0.269531,1067.87 0,1067.32 0,1066.58 c 0,-1.29 8.62891,-12.77 25,-20.39 14.0586,-6.56 28.3594,-8.12 39.1797,-8.12 9.9219,0 25.5508,1.44 39.9613,8.51 15.859,7.74 24.257,18.71 24.257,20 0,0.74 -0.386,1.29 -1.289,1.29 z" /><path
         id="path248"
         style="fill:#000000;fill-opacity:1;fill-rule:evenodd;stroke:none"
         d="m 11.3711,1106.15 -0.1602,-0.11 h -0.1211 l -0.1093,-0.12 h -0.1602 l -0.1211,-0.12 -0.2304,-0.12 h -0.2696 l -0.27732,-0.27 h -0.1211 l -0.26953,-0.12 -0.23047,-0.23 -0.16015,-0.12 -0.1211,-0.12 v -0.11 l -0.10937,-0.16 v -0.12 l -0.1211,-0.11 v -0.12 l -0.16015,-0.12 v -0.74 l -0.10938,-0.12 v -23.2 H 12.5 v 3.09 c 0,9.92 1.4102,10.19 6.0508,10.19 h 64.2187 c 3.4805,0 9.5313,0 9.5313,-13.28 h 3.9883 c -0.1172,4.49 -0.3907,10.82 -0.3907,15.08 0,4.26 0.2735,10.58 0.3907,14.96 h -3.9883 c 0,-13.16 -6.0508,-13.16 -9.5313,-13.16 H 13.5508 v 0.11 l 79.9297,30.94 c 1.6406,0.66 2.8086,1.29 2.8086,2.58 0,1.44 -1.0196,1.83 -2.461,2.34 L 12.5,1164.43 v 0.12 h 73.75 c 4.6484,0 6.0508,-0.23 6.0508,-10.15 v -3.13 h 3.9883 c -0.3907,4.8 -0.3907,13.55 -0.3907,18.59 0,5 0,13.52 0.3907,18.29 h -3.9883 v -3.09 c 0,-9.81 -1.4024,-10.04 -6.0508,-10.04 H 18.5508 c -4.6406,0 -6.0508,0.23 -6.0508,10.04 v 3.09 H 8.51953 v -21.65 c 0,-3.35 0.10938,-3.35 2.46097,-4.25 l 72.3008,-28.09 z" /><path
         id="path250"
         style="fill:#000000;fill-opacity:1;fill-rule:evenodd;stroke:none"
         d="m 66.6406,1207.21 -2.6914,0.15 c -19.2187,0.75 -22.4297,11.45 -22.4297,15.86 0,13.25 17.3907,14.53 22.4297,14.53 v -30.39 l 2.6914,-0.15 v 35.74 c 0,2.81 0,3.2 -2.6914,3.2 -12.7773,0 -25.2773,-6.83 -25.2773,-22.93 0,-14.84 13.2773,-26.68 29.4179,-26.68 17.1407,0 29.6407,13.4 29.6407,28.21 0,15.74 -14.3321,21.4 -16.75,21.4 -1.2891,0 -1.5703,-0.9 -1.5703,-1.68 0,-1.17 0.789,-1.29 1.8007,-1.68 13.2774,-4.37 13.2774,-15.97 13.2774,-17.26 0,-6.45 -3.8672,-11.6 -8.6289,-14.46 -6.168,-3.86 -14.6875,-3.86 -19.2188,-3.86 z" /><path
         id="path252"
         style="fill:#000000;fill-opacity:1;fill-rule:evenodd;stroke:none"
         d="m 21.1289,1329.67 -0.5078,0.27 -0.3906,0.16 -0.3907,0.12 -0.3515,0.23 -0.5391,0.27 -0.3984,0.24 -0.3516,0.15 -0.3906,0.24 -0.3867,0.39 -0.3906,0.27 -0.2696,0.24 -0.3906,0.39 -0.3906,0.27 -0.2422,0.39 -0.3867,0.35 -0.2735,0.39 -0.2383,0.55 -0.2695,0.39 -0.2305,0.51 -0.2812,0.39 -0.2695,0.51 -0.1172,0.51 -0.2305,0.66 -0.1601,0.51 -0.1211,0.62 -0.1094,0.67 -0.1602,0.62 -0.1211,0.67 -0.1093,0.74 v 0.78 l -0.1602,0.78 v 0.78 H 8.51953 c 0.26953,-3.98 0.39063,-9.14 0.39063,-12.5 0,-3.87 -0.28125,-11.37 -0.39063,-14.57 H 12.5 c 0.1602,6.56 3.4805,9.26 6.4492,9.26 1.0508,0 1.8321,-0.35 2.5703,-0.63 l 61.8789,-23.47 -64.8476,-24.5 c -1.7891,-0.74 -2.0313,-0.74 -2.3008,-0.74 -3.75,0 -3.75,7.35 -3.75,10.43 H 8.51953 c 0.39063,-4.53 0.39063,-13.4 0.39063,-18.32 0,-6.17 -0.28125,-11.72 -0.39063,-16.37 H 12.5 c 0,8.4 0,10.83 4.9219,12.66 l 78.8672,29.77 c 2.4609,0.9 2.8515,1.52 2.8515,3.2 0,2.19 -0.6601,2.46 -2.4609,3.12 z" /><path
         id="path254"
         style="fill:#000000;fill-opacity:1;fill-rule:evenodd;stroke:none"
         d="m 4.76953,1404.43 -0.12109,0.16 H 4.37891 l -0.11719,0.12 H 4.01953 l -0.14844,0.15 H 3.62891 l -0.14844,0.12 H 3.08984 l -0.12109,0.16 H 2.46094 C 1.01953,1405.14 0,1403.97 0,1402.56 c 0,-0.9 0.269531,-1.8 1.01953,-2.19 L 123.48,1355.76 c 1.68,-0.51 2.219,-0.51 2.34,-0.51 1.41,0 2.578,1.14 2.578,2.43 0,1.68 -0.898,2.07 -3.089,2.85 z" /><path
         id="path256"
         style="fill:#000000;fill-opacity:1;fill-rule:evenodd;stroke:none"
         d="m 68.3203,1427.29 h -1.0195 l -0.8906,0.11 h -1.8008 l -0.9375,0.12 h -0.9024 l -0.7382,0.16 -0.9415,0.11 -0.7382,0.16 -0.7813,0.12 -0.7812,0.15 -0.7774,0.12 -1.4101,0.39 -2.5821,0.78 -1.1679,0.51 -1.0118,0.51 -1.0585,0.51 -1.0118,0.54 -0.8984,0.63 -0.7813,0.66 -0.789,0.63 -0.7422,0.66 -0.6602,0.63 -0.6289,0.78 -0.539,0.62 -0.5117,0.78 -0.3907,0.67 -0.3867,0.74 -0.3906,0.78 -0.2422,0.66 -0.2695,0.75 -0.1172,0.66 -0.2735,0.78 -0.1171,0.63 v 0.78 l -0.1211,0.66 v 0.63 c 0,1.17 0.1211,9.29 4.7695,13.67 0.3906,-5.16 4.2617,-5.94 5.9414,-5.94 3.3203,0 5.8984,2.31 5.8984,5.78 0,3.36 -2.1914,5.94 -6.0586,5.94 -8.75,0 -13.789,-9.8 -13.789,-19.57 0,-16.13 13.9492,-27.85 29.9179,-27.85 16.3711,0 29.1407,12.62 29.1407,27.58 0,17.15 -15.461,21.29 -16.75,21.29 -1.2891,0 -1.2891,-1.29 -1.2891,-1.68 0,-1.18 0.5078,-1.45 1.2891,-1.68 11.9883,-3.75 13.5078,-12 13.5078,-16.76 0,-6.84 -5.5391,-18.17 -26.168,-18.17 z" /><path
         id="path258"
         style="fill:#000000;fill-opacity:1;fill-rule:evenodd;stroke:none"
         d="M 64.2188,1506.54 H 61.25 l -1.0508,-0.11 h -2.1875 l -2.3125,-0.28 -2.3398,-0.15 -2.418,-0.24 -5.1601,-0.78 -2.5821,-0.51 -2.7304,-0.66 -2.6993,-0.63 -2.6914,-0.78 -2.6992,-0.9 -2.8476,-1.01 -1.293,-0.67 -1.3985,-0.5 -1.4492,-0.67 -1.289,-0.62 C 8.23828,1490.29 0,1479.32 0,1478.03 c 0,-0.74 0.511719,-1.29 1.28906,-1.29 0.26953,0 0.51172,0 2.85157,2.46 12.76957,12.5 33.12887,19.84 60.07817,19.84 21.9101,0 44.4532,-4.76 60.7032,-20.62 1.558,-1.68 1.797,-1.68 2.187,-1.68 0.782,0 1.289,0.55 1.289,1.29 0,1.29 -8.75,12.77 -25.117,20.39 -14.0622,6.56 -28.3591,8.12 -39.0622,8.12 z" /><path
         id="path260"
         style="fill:#000000;fill-opacity:1;fill-rule:evenodd;stroke:none"
         d="M 64.2188,1556.43 H 61.25 l -1.0508,-0.12 h -2.1875 l -2.3125,-0.27 -2.3398,-0.12 -2.418,-0.27 -5.1601,-0.79 -2.5821,-0.5 -2.7304,-0.67 -2.6993,-0.62 -2.6914,-0.78 -2.6992,-0.9 -2.8476,-1.02 -1.293,-0.66 -1.3985,-0.51 -1.4492,-0.63 -1.289,-0.66 C 8.23828,1540.18 0,1529.24 0,1527.95 c 0,-0.78 0.511719,-1.29 1.28906,-1.29 0.26953,0 0.51172,0 2.85157,2.42 12.76957,12.5 33.12887,19.85 60.07817,19.85 21.9101,0 44.4532,-4.77 60.7032,-20.63 1.558,-1.64 1.797,-1.64 2.187,-1.64 0.782,0 1.289,0.51 1.289,1.29 0,1.29 -8.75,12.73 -25.117,20.35 -14.0622,6.56 -28.3591,8.13 -39.0622,8.13 z" /></g></g></svg>