<?xml version="1.0" encoding="UTF-8" standalone="no"?>
<svg
   xmlns:dc="http://purl.org/dc/elements/1.1/"
   xmlns:cc="http://creativecommons.org/ns#"
   xmlns:rdf="http://www.w3.org/1999/02/22-rdf-syntax-ns#"
   xmlns:svg="http://www.w3.org/2000/svg"
   xmlns="http://www.w3.org/2000/svg"
   viewBox="0 0 721.33331 494.66666"
   height="494.66666"
   width="721.33331"
   xml:space="preserve"
   id="svg2"
   version="1.1"><metadata
     id="metadata8"><rdf:RDF><cc:Work
         rdf:about=""><dc:format>image/svg+xml</dc:format><dc:type
           rdf:resource="http://purl.org/dc/dcmitype/StillImage" /></cc:Work></rdf:RDF></metadata><defs
     id="defs6" /><g
     transform="matrix(1.3333333,0,0,-1.3333333,0,494.66667)"
     id="g10"><g
       transform="scale(0.1)"
       id="g12"><path
         id="path14"
         style="fill:none;stroke:#000000;stroke-width:5.51831007;stroke-linecap:butt;stroke-linejoin:miter;stroke-miterlimit:3.79999995;stroke-dasharray:none;stroke-opacity:1"
         d="m 879.922,618.352 h 69.609" /><path
         id="path16"
         style="fill:none;stroke:#000000;stroke-width:5.51831007;stroke-linecap:butt;stroke-linejoin:miter;stroke-miterlimit:3.79999995;stroke-dasharray:none;stroke-opacity:1"
         d="m 5183.09,618.352 h -69.5" /><g
         transform="scale(10)"
         id="g18"><text
           id="text22"
           style="font-variant:normal;font-weight:normal;font-size:26.48789978px;font-family:'Times New Roman';-inkscape-font-specification:TimesNewRomanPSMT;writing-mode:lr-tb;fill:#000000;fill-opacity:1;fill-rule:nonzero;stroke:none"
           transform="matrix(1,0,0,-1,63.5484,51.8637)"><tspan
             id="tspan20"
             y="0"
             x="0">0</tspan></text>
</g><path
         id="path24"
         style="fill:none;stroke:#000000;stroke-width:5.51831007;stroke-linecap:butt;stroke-linejoin:miter;stroke-miterlimit:3.79999995;stroke-dasharray:none;stroke-opacity:1"
         d="m 879.922,1120.54 h 34.219" /><path
         id="path26"
         style="fill:none;stroke:#000000;stroke-width:5.51831007;stroke-linecap:butt;stroke-linejoin:miter;stroke-miterlimit:3.79999995;stroke-dasharray:none;stroke-opacity:1"
         d="m 5183.09,1120.54 h -34.14" /><path
         id="path28"
         style="fill:none;stroke:#000000;stroke-width:5.51831007;stroke-linecap:butt;stroke-linejoin:miter;stroke-miterlimit:3.79999995;stroke-dasharray:none;stroke-opacity:1"
         d="m 879.922,1622.69 h 69.609" /><path
         id="path30"
         style="fill:none;stroke:#000000;stroke-width:5.51831007;stroke-linecap:butt;stroke-linejoin:miter;stroke-miterlimit:3.79999995;stroke-dasharray:none;stroke-opacity:1"
         d="m 5183.09,1622.69 h -69.5" /><g
         transform="scale(10)"
         id="g32"><text
           id="text36"
           style="font-variant:normal;font-weight:normal;font-size:26.48789978px;font-family:'Times New Roman';-inkscape-font-specification:TimesNewRomanPSMT;writing-mode:lr-tb;fill:#000000;fill-opacity:1;fill-rule:nonzero;stroke:none"
           transform="matrix(1,0,0,-1,30.4387,152.297)"><tspan
             id="tspan34"
             y="0"
             x="0 13.24395 19.865925 33.109875">0.05</tspan></text>
</g><path
         id="path38"
         style="fill:none;stroke:#000000;stroke-width:5.51831007;stroke-linecap:butt;stroke-linejoin:miter;stroke-miterlimit:3.79999995;stroke-dasharray:none;stroke-opacity:1"
         d="m 879.922,2124.83 h 34.219" /><path
         id="path40"
         style="fill:none;stroke:#000000;stroke-width:5.51831007;stroke-linecap:butt;stroke-linejoin:miter;stroke-miterlimit:3.79999995;stroke-dasharray:none;stroke-opacity:1"
         d="m 5183.09,2124.83 h -34.14" /><path
         id="path42"
         style="fill:none;stroke:#000000;stroke-width:5.51831007;stroke-linecap:butt;stroke-linejoin:miter;stroke-miterlimit:3.79999995;stroke-dasharray:none;stroke-opacity:1"
         d="m 879.922,2625.89 h 69.609" /><path
         id="path44"
         style="fill:none;stroke:#000000;stroke-width:5.51831007;stroke-linecap:butt;stroke-linejoin:miter;stroke-miterlimit:3.79999995;stroke-dasharray:none;stroke-opacity:1"
         d="m 5183.09,2625.89 h -69.5" /><g
         transform="scale(10)"
         id="g46"><text
           id="text50"
           style="font-variant:normal;font-weight:normal;font-size:26.48789978px;font-family:'Times New Roman';-inkscape-font-specification:TimesNewRomanPSMT;writing-mode:lr-tb;fill:#000000;fill-opacity:1;fill-rule:nonzero;stroke:none"
           transform="matrix(1,0,0,-1,43.6824,252.619)"><tspan
             id="tspan48"
             y="0"
             x="0 13.24395 19.865925">0.1</tspan></text>
</g><path
         id="path52"
         style="fill:none;stroke:#000000;stroke-width:5.51831007;stroke-linecap:butt;stroke-linejoin:miter;stroke-miterlimit:3.79999995;stroke-dasharray:none;stroke-opacity:1"
         d="m 879.922,3128.08 h 34.219" /><path
         id="path54"
         style="fill:none;stroke:#000000;stroke-width:5.51831007;stroke-linecap:butt;stroke-linejoin:miter;stroke-miterlimit:3.79999995;stroke-dasharray:none;stroke-opacity:1"
         d="m 5183.09,3128.08 h -34.14" /><path
         id="path56"
         style="fill:none;stroke:#000000;stroke-width:5.51831007;stroke-linecap:butt;stroke-linejoin:miter;stroke-miterlimit:3.79999995;stroke-dasharray:none;stroke-opacity:1"
         d="m 879.922,3630.23 h 69.609" /><path
         id="path58"
         style="fill:none;stroke:#000000;stroke-width:5.51831007;stroke-linecap:butt;stroke-linejoin:miter;stroke-miterlimit:3.79999995;stroke-dasharray:none;stroke-opacity:1"
         d="m 5183.09,3630.23 h -69.5" /><g
         transform="scale(10)"
         id="g60"><text
           id="text64"
           style="font-variant:normal;font-weight:normal;font-size:26.48789978px;font-family:'Times New Roman';-inkscape-font-specification:TimesNewRomanPSMT;writing-mode:lr-tb;fill:#000000;fill-opacity:1;fill-rule:nonzero;stroke:none"
           transform="matrix(1,0,0,-1,30.4387,353.052)"><tspan
             id="tspan62"
             y="0"
             x="0 13.24395 19.865925 33.109875">0.15</tspan></text>
</g><path
         id="path66"
         style="fill:none;stroke:#000000;stroke-width:5.51831007;stroke-linecap:butt;stroke-linejoin:miter;stroke-miterlimit:3.79999995;stroke-dasharray:none;stroke-opacity:1"
         d="M 879.922,618.352 V 687.84" /><path
         id="path68"
         style="fill:none;stroke:#000000;stroke-width:5.51831007;stroke-linecap:butt;stroke-linejoin:miter;stroke-miterlimit:3.79999995;stroke-dasharray:none;stroke-opacity:1"
         d="m 879.922,3630.23 v -69.5" /><g
         transform="scale(10)"
         id="g70"><text
           id="text74"
           style="font-variant:normal;font-weight:normal;font-size:26.48789978px;font-family:'Times New Roman';-inkscape-font-specification:TimesNewRomanPSMT;writing-mode:lr-tb;fill:#000000;fill-opacity:1;fill-rule:nonzero;stroke:none"
           transform="matrix(1,0,0,-1,63.6605,34.3172)"><tspan
             id="tspan72"
             y="0"
             x="0 8.8204708 22.064421 35.308372">-400</tspan></text>
</g><path
         id="path76"
         style="fill:none;stroke:#000000;stroke-width:5.51831007;stroke-linecap:butt;stroke-linejoin:miter;stroke-miterlimit:3.79999995;stroke-dasharray:none;stroke-opacity:1"
         d="m 1417.46,618.352 v 34.257" /><path
         id="path78"
         style="fill:none;stroke:#000000;stroke-width:5.51831007;stroke-linecap:butt;stroke-linejoin:miter;stroke-miterlimit:3.79999995;stroke-dasharray:none;stroke-opacity:1"
         d="m 1417.46,3630.23 v -34.22" /><path
         id="path80"
         style="fill:none;stroke:#000000;stroke-width:5.51831007;stroke-linecap:butt;stroke-linejoin:miter;stroke-miterlimit:3.79999995;stroke-dasharray:none;stroke-opacity:1"
         d="M 1955.98,618.352 V 687.84" /><path
         id="path82"
         style="fill:none;stroke:#000000;stroke-width:5.51831007;stroke-linecap:butt;stroke-linejoin:miter;stroke-miterlimit:3.79999995;stroke-dasharray:none;stroke-opacity:1"
         d="m 1955.98,3630.23 v -69.5" /><g
         transform="scale(10)"
         id="g84"><text
           id="text88"
           style="font-variant:normal;font-weight:normal;font-size:26.48789978px;font-family:'Times New Roman';-inkscape-font-specification:TimesNewRomanPSMT;writing-mode:lr-tb;fill:#000000;fill-opacity:1;fill-rule:nonzero;stroke:none"
           transform="matrix(1,0,0,-1,171.268,34.3172)"><tspan
             id="tspan86"
             y="0"
             x="0 8.8204708 22.064421 35.308372">-200</tspan></text>
</g><path
         id="path90"
         style="fill:none;stroke:#000000;stroke-width:5.51831007;stroke-linecap:butt;stroke-linejoin:miter;stroke-miterlimit:3.79999995;stroke-dasharray:none;stroke-opacity:1"
         d="m 2493.52,618.352 v 34.257" /><path
         id="path92"
         style="fill:none;stroke:#000000;stroke-width:5.51831007;stroke-linecap:butt;stroke-linejoin:miter;stroke-miterlimit:3.79999995;stroke-dasharray:none;stroke-opacity:1"
         d="m 2493.52,3630.23 v -34.22" /><path
         id="path94"
         style="fill:none;stroke:#000000;stroke-width:5.51831007;stroke-linecap:butt;stroke-linejoin:miter;stroke-miterlimit:3.79999995;stroke-dasharray:none;stroke-opacity:1"
         d="M 3032.07,618.352 V 687.84" /><path
         id="path96"
         style="fill:none;stroke:#000000;stroke-width:5.51831007;stroke-linecap:butt;stroke-linejoin:miter;stroke-miterlimit:3.79999995;stroke-dasharray:none;stroke-opacity:1"
         d="m 3032.07,3630.23 v -69.5" /><g
         transform="scale(10)"
         id="g98"><text
           id="text102"
           style="font-variant:normal;font-weight:normal;font-size:26.48789978px;font-family:'Times New Roman';-inkscape-font-specification:TimesNewRomanPSMT;writing-mode:lr-tb;fill:#000000;fill-opacity:1;fill-rule:nonzero;stroke:none"
           transform="matrix(1,0,0,-1,299.845,34.3172)"><tspan
             id="tspan100"
             y="0"
             x="0">0</tspan></text>
</g><path
         id="path104"
         style="fill:none;stroke:#000000;stroke-width:5.51831007;stroke-linecap:butt;stroke-linejoin:miter;stroke-miterlimit:3.79999995;stroke-dasharray:none;stroke-opacity:1"
         d="m 3569.61,618.352 v 34.257" /><path
         id="path106"
         style="fill:none;stroke:#000000;stroke-width:5.51831007;stroke-linecap:butt;stroke-linejoin:miter;stroke-miterlimit:3.79999995;stroke-dasharray:none;stroke-opacity:1"
         d="m 3569.61,3630.23 v -34.22" /><path
         id="path108"
         style="fill:none;stroke:#000000;stroke-width:5.51831007;stroke-linecap:butt;stroke-linejoin:miter;stroke-miterlimit:3.79999995;stroke-dasharray:none;stroke-opacity:1"
         d="M 4106.99,618.352 V 687.84" /><path
         id="path110"
         style="fill:none;stroke:#000000;stroke-width:5.51831007;stroke-linecap:butt;stroke-linejoin:miter;stroke-miterlimit:3.79999995;stroke-dasharray:none;stroke-opacity:1"
         d="m 4106.99,3630.23 v -69.5" /><g
         transform="scale(10)"
         id="g112"><text
           id="text116"
           style="font-variant:normal;font-weight:normal;font-size:26.48789978px;font-family:'Times New Roman';-inkscape-font-specification:TimesNewRomanPSMT;writing-mode:lr-tb;fill:#000000;fill-opacity:1;fill-rule:nonzero;stroke:none"
           transform="matrix(1,0,0,-1,394.095,34.3172)"><tspan
             id="tspan114"
             y="0"
             x="0 13.24395 26.4879">200</tspan></text>
</g><path
         id="path118"
         style="fill:none;stroke:#000000;stroke-width:5.51831007;stroke-linecap:butt;stroke-linejoin:miter;stroke-miterlimit:3.79999995;stroke-dasharray:none;stroke-opacity:1"
         d="m 4645.66,618.352 v 34.257" /><path
         id="path120"
         style="fill:none;stroke:#000000;stroke-width:5.51831007;stroke-linecap:butt;stroke-linejoin:miter;stroke-miterlimit:3.79999995;stroke-dasharray:none;stroke-opacity:1"
         d="m 4645.66,3630.23 v -34.22" /><path
         id="path122"
         style="fill:none;stroke:#000000;stroke-width:5.51831007;stroke-linecap:butt;stroke-linejoin:miter;stroke-miterlimit:3.79999995;stroke-dasharray:none;stroke-opacity:1"
         d="M 5183.09,618.352 V 687.84" /><path
         id="path124"
         style="fill:none;stroke:#000000;stroke-width:5.51831007;stroke-linecap:butt;stroke-linejoin:miter;stroke-miterlimit:3.79999995;stroke-dasharray:none;stroke-opacity:1"
         d="m 5183.09,3630.23 v -69.5" /><g
         transform="scale(10)"
         id="g126"><text
           id="text130"
           style="font-variant:normal;font-weight:normal;font-size:26.48789978px;font-family:'Times New Roman';-inkscape-font-specification:TimesNewRomanPSMT;writing-mode:lr-tb;fill:#000000;fill-opacity:1;fill-rule:nonzero;stroke:none"
           transform="matrix(1,0,0,-1,501.702,34.3172)"><tspan
             id="tspan128"
             y="0"
             x="0 13.24395 26.4879">400</tspan></text>
</g><path
         id="path132"
         style="fill:none;stroke:#000000;stroke-width:5.51831007;stroke-linecap:butt;stroke-linejoin:miter;stroke-miterlimit:3.79999995;stroke-dasharray:none;stroke-opacity:1"
         d="m 879.922,618.352 h 4303.16 v 3011.88 H 879.922 Z" /><path
         id="path134"
         style="fill:none;stroke:#ff0000;stroke-width:22.07320023;stroke-linecap:butt;stroke-linejoin:miter;stroke-miterlimit:3.79999995;stroke-dasharray:none;stroke-opacity:1"
         d="M 5154.45,618.352 H 4782.5 l -52.93,1.128 h -53.05 l -52.93,1.141 h -53.04 l -52.93,1.008 -52.93,1.101 -53.05,1.129 -52.93,2.262 -53.05,1.02 -54.06,2.269 -52.93,3.238 -53.05,3.403 -105.85,11.008 -53.05,8.793 -52.93,9.918 -53.05,10 -105.86,19.851 -53.04,9.879 -52.93,12.191 -54.03,17.688 -53.04,31.949 -52.93,56.332 -53.05,94.918 -52.93,152.272 -52.93,223.01 -53.05,303.47 -52.93,375.28 -53.04,417.11 -52.93,405.11 -52.93,323.33 -53.05,182.1 -54.06,3.25 -52.93,-172.07 -53.05,-302.5 -52.93,-372.97 -53.05,-383.05 -52.93,-348.63 -52.92,-291.49 -53.05,-226.25 -52.93,-165.54 -53.05,-114.772 -52.93,-75 -54.06,-48.508 -53.05,-28.718 -52.93,-18.821 -52.93,-11.062 -53.04,-8.75 -52.93,-6.641 -53.01,-6.679 -52.97,-7.649 -52.93,-7.781 -53.01,-8.75 -52.93,-8.899 -53.04,-7.66 -54.07,-8.91 -52.93,-6.64 -53.04,-7.649 -52.93,-6.641 -52.93,-5.55 -53.05,-5.508 -52.93,-4.371 -53.05,-3.403 -52.93,-3.238 -52.93,-2.269 -53.04,-2.153 -54.06,-2.258 -52.93,-1.101 -53.05,-1.008 -52.93,-1.141 -53.051,-1.128 h -52.93" /><path
         id="path136"
         style="fill:none;stroke:#008800;stroke-width:22.07320023;stroke-linecap:butt;stroke-linejoin:miter;stroke-miterlimit:3.79999995;stroke-dasharray:121.403, 48.5611;stroke-dashoffset:0;stroke-opacity:1"
         d="m 5154.45,618.352 h -424.88 l -53.05,1.128 h -52.93 l -53.04,1.141 -52.93,1.008 -52.93,1.101 -53.05,1.129 -52.93,1.129 -53.05,1.133 -54.06,2.149 -52.93,3.359 -53.05,4.422 -52.92,7.648 -52.93,8.91 -53.05,12.153 -52.93,13.16 -53.05,15.43 -52.93,15.546 -52.93,15.43 -53.04,16.563 -52.93,19.8 -54.03,27.618 -53.04,41.992 -52.93,63.988 -53.05,97.07 -52.93,143.471 -52.93,202.04 -53.05,267.03 -52.93,325.54 -53.04,359.85 -52.93,345.51 -52.93,272.53 -53.05,145.71 -54.06,-12.15 -52.93,-164.41 -53.05,-272.66 -52.93,-325.59 -53.05,-326.68 -52.93,-293.51 -52.92,-241.8 -53.05,-185.35 -52.93,-139.1 -53.05,-98.212 -52.93,-68.43 -54.06,-49.687 -53.05,-36.371 -52.93,-27.578 -52.93,-23.203 -53.04,-19.84 -52.93,-17.66 -53.01,-15.43 -52.97,-15.43 -52.93,-13.32 -53.01,-13.277 -52.93,-11.024 -53.04,-9.918 -54.07,-8.789 -52.93,-7.769 -53.04,-6.641 -52.93,-6.52 -52.93,-4.5 -53.05,-4.41 -52.93,-3.242 -53.05,-3.398 -52.93,-2.153 -52.93,-2.258 -53.04,-1.101 -54.06,-1.008 -52.93,-1.141 h -53.05 l -52.93,-1.128 H 908.629" /><path
         id="path138"
         style="fill:none;stroke:#0000ff;stroke-width:22.07320023;stroke-linecap:butt;stroke-linejoin:miter;stroke-miterlimit:3.79999995;stroke-dasharray:30.3507, 30.3507;stroke-dashoffset:0;stroke-opacity:1"
         d="m 879.922,618.352 5.508,1.128 h 150.12 l 5.54,1.141 h 43.01 l 5.51,1.008 h 43.05 l 5.5,1.101 h 43.13 l 5.51,1.129 h 43.04 l 5.51,1.129 h 37.5 l 5.51,1.133 h 26.48 l 5.51,1.02 h 26.49 l 5.5,1.129 h 16.57 l 5.5,1.14 h 21.06 l 5.51,1.129 h 16.56 l 5.51,1.09 h 9.92 l 5.51,1.019 h 16.56 l 5.51,1.133 h 9.92 l 5.51,1.129 h 11.05 l 5.51,1.141 h 11.05 l 4.38,1.129 h 11.05 l 5.51,1.011 h 5.51 l 5.51,1.098 h 11.05 l 4.38,1.133 h 5.54 l 5.51,1.129 h 5.51 l 5.55,1.14 h 5.5 l 5.51,1.008 h 10.04 l 5.51,1.129 h 5.51 l 5.5,1.102 h 5.55 l 11.02,2.261 h 5.54 l 4.38,1.02 h 5.51 l 5.5,1.129 h 5.55 l 5.51,1.14 h 5.51 l 11.05,2.219 h 4.38 l 5.54,1.02 h 5.51 l 11.02,2.261 h 5.54 l 11.02,2.27 4.41,1.012 h 5.51 l 16.56,3.359 h 5.51 l 5.51,1.141 5.55,1.008 4.37,1.14 h 5.51 l 16.56,3.352 5.51,1.019 h 5.55 l 5.5,1.129 4.5,1.141 11.05,2.219 5.51,1.019 h 5.51 l 16.56,3.402 4.37,1.129 5.55,1.008 h 5.51 l 22.07,4.5 h 5.51 l 4.41,1.012 22.07,4.488 h 5.51 l 5.51,1.024 5.54,1.128 4.38,1.141 5.51,1.129 h 5.54 l 5.51,1.129 5.51,1.019 11.05,2.223 4.38,1.141 5.51,1.129 5.54,1.019 22.07,4.488 5.51,1.012 4.49,1.141 h 5.55 l 16.52,3.359 5.55,1.012 h 5.51 l 5.51,1.129 4.41,1.14 h 5.51 l 11.01,2.258 h 5.55 l 5.51,1.02 h 5.51 l 5.54,1.09 h 9.89 l 5.54,1.132 h 5.51 l 5.51,1.137 h 5.51 l 5.54,1.133 h 5.51 l 4.38,1.019 h 5.54 l 11.02,2.258 h 5.51 l 5.54,1.09 h 5.51 l 5.51,1.141 h 4.41 l 5.51,1.011 h 5.51 l 5.51,1.141 h 5.54 l 5.51,1.129 h 5.51 l 5.55,1.129 h 4.49 l 5.51,1.101 h 5.5 l 5.55,1.008 h 5.51 l 11.01,2.274 h 5.55 l 4.38,1.129 5.5,1.129 5.55,1.019 5.51,2.223 11.01,2.269 5.55,2.149 5.51,2.261 4.37,1.098 5.55,2.152 5.51,2.258 5.51,2.11 11.05,4.531 5.51,1.019 5.51,2.219 4.41,2.274 5.51,2.148 5.51,2.262 5.54,3.25 5.51,2.258 5.51,2.152 11.05,4.488 4.38,3.25 5.51,2.262 11.05,6.519 5.51,3.399 5.51,4.379 5.54,3.281 5.51,4.488 4.49,5.512 5.55,4.41 5.51,6.641 5.51,5.508 5.5,6.562 5.55,7.738 5.51,6.68 5.51,8.75 4.41,8.902 5.51,8.789 5.51,9.93 5.5,8.86 5.55,9.921 11.02,22.071 4.41,11.058 5.51,12.149 5.51,11.051 5.5,12.031 5.55,11.058 5.51,12.151 5.51,13.28 5.54,13.2 4.38,13.28 5.51,14.3 5.54,14.41 5.51,15.43 11.02,33.13 5.54,17.65 5.51,18.72 4.38,19.92 16.56,62.85 5.51,22.07 11.05,46.41 5.51,24.29 4.49,25.35 5.55,25.36 5.51,26.56 11.05,52.93 11.02,55.19 5.5,28.71 4.42,28.71 5.51,29.73 5.5,30.98 11.06,61.72 5.51,30.97 5.5,32 5.55,34.21 4.38,35.28 5.5,37.61 5.55,37.5 5.51,39.73 5.51,40.78 5.5,41.99 11.06,86.06 4.37,43.01 5.55,42.03 11.02,83.79 5.54,40.86 5.51,41.91 11.02,81.76 4.41,39.65 5.51,38.59 5.51,35.39 5.54,36.37 11.02,70.7 5.51,36.41 5.54,34.22 4.5,33.12 16.56,95.94 5.51,30.98 5.5,30.86 5.55,29.84 5.51,29.73 4.37,29.84 5.55,28.71 5.51,29.73 5.51,27.61 5.5,25.43 5.55,23.21 5.51,19.84 5.51,18.79 4.41,16.56 5.51,15.43 5.51,13.17 5.5,12.14 5.55,9.93 5.51,7.77 5.51,6.64 5.54,4.41 4.38,2.23 h 5.51 l 5.54,-1.13 5.51,-3.36 5.51,-5.51 5.51,-6.56 5.54,-8.87 5.51,-11.05 4.38,-12.15 5.54,-14.3 5.51,-15.43 11.02,-35.39 5.54,-18.67 5.51,-19.92 4.49,-19.85 5.51,-22.07 5.55,-24.33 5.5,-26.45 5.51,-29.84 5.55,-29.73 5.51,-30.98 5.51,-31.99 4.41,-30.86 5.51,-33.08 5.5,-37.54 5.51,-39.73 11.06,-90.55 5.51,-44.14 5.5,-41.91 4.42,-40.86 5.5,-38.63 5.51,-39.77 11.06,-77.26 5.51,-37.5 5.5,-38.64 5.55,-37.5 4.37,-36.36 5.51,-36.49 5.55,-38.63 5.51,-41.88 5.51,-44.18 5.54,-46.36 5.51,-44.18 5.51,-41.88 4.41,-39.76 5.51,-38.64 5.51,-36.36 5.51,-35.35 5.54,-33.13 11.02,-63.94 5.51,-32.11 4.53,-32 11.01,-63.94 5.51,-33.13 5.55,-31.99 5.51,-34.22 5.5,-31.99 5.55,-28.71 4.37,-27.58 5.51,-24.33 5.55,-24.22 5.51,-23.21 5.51,-22.07 5.5,-20.93 5.55,-22.07 5.51,-21.06 4.37,-22.07 5.55,-20.98 5.51,-19.8 5.51,-19.92 5.5,-19.85 11.06,-35.35 5.51,-16.56 4.41,-16.56 11.02,-28.6 5.5,-13.28 11.06,-24.329 5.51,-12.043 5.54,-11.047 4.38,-11.051 5.51,-10 11.05,-19.851 5.51,-8.75 5.51,-8.899 5.54,-7.66 5.51,-7.769 4.49,-7.781 5.51,-7.649 16.56,-19.93 5.51,-6.562 5.55,-5.508 5.5,-6.641 9.93,-9.921 5.5,-4.489 16.57,-13.16 5.5,-3.398 4.42,-4.383 5.51,-3.277 5.5,-3.364 5.51,-4.41 5.55,-3.25 5.51,-3.387 5.5,-3.281 5.51,-2.23 4.42,-3.282 5.5,-2.226 5.51,-3.281 5.55,-2.27 5.51,-2.109 5.5,-3.391 5.51,-2.152 5.55,-2.27 4.37,-2.109 5.51,-3.399 5.55,-2.14 5.51,-2.231 5.5,-1.129 5.55,-2.152 11.02,-4.488 4.49,-2.153 5.55,-1.136 5.5,-2.223 5.51,-2.148 5.51,-1.129 5.55,-2.274 5.5,-2.109 5.51,-1.129 4.42,-2.27 5.5,-1.011 5.51,-2.231 5.51,-1.129 5.55,-2.148 11.01,-2.27 5.55,-2.222 4.37,-1.02 5.51,-2.258 11.06,-2.269 5.5,-2.113 11.06,-2.258 5.51,-2.153 4.37,-1.136 16.56,-3.352 5.51,-2.148 16.57,-3.364 4.41,-1.019 22.07,-4.527 5.51,-1.024 11.05,-2.219 4.49,-1.129 5.51,-1.14 5.51,-1.012 22.07,-4.5 5.55,-1.008 4.37,-1.129 h 5.51 l 16.56,-3.402 h 5.55 l 5.51,-1.019 5.5,-1.09 h 4.42 l 11.01,-2.27 h 5.51 l 5.55,-1.129 5.51,-1.019 h 5.5 l 5.51,-1.133 4.42,-1.09 h 5.5 l 11.06,-2.269 h 5.51 l 5.5,-1.008 h 5.51 l 5.55,-1.141 4.37,-1.133 h 5.51 l 5.55,-1.129 h 5.51 l 5.5,-1.097 h 5.55 l 5.51,-1.012 4.49,-1.129 h 5.51 l 5.55,-1.141 h 5.5 l 5.51,-1.128 h 5.51 l 5.55,-1.133 h 5.5 l 4.38,-1.02 h 5.55 l 5.5,-1.09 h 5.51 l 5.51,-1.129 h 5.55 l 5.5,-1.14 h 5.51 l 4.42,-1.129 h 5.5 l 5.51,-1.02 h 5.55 l 5.51,-1.132 h 5.5 l 5.51,-1.129 h 5.55 l 4.37,-1.102 h 5.51 l 5.55,-1.129 h 5.51 l 5.5,-1.008 h 5.51 l 5.55,-1.14 h 9.88 l 5.55,-1.129 h 5.51 l 5.5,-1.133 h 11.06 l 5.51,-1.098 h 10.04 l 5.5,-1.011 h 11.02 l 5.55,-1.129 h 11.01 l 5.51,-1.141 h 9.92 l 5.51,-1.129 h 11.05 l 5.51,-1.133 h 11.06 l 4.37,-1.019 h 11.06 l 5.5,-1.09 h 11.06 l 5.51,-1.129 h 5.5 l 4.42,-1.14 h 11.01 l 5.51,-1.129 h 5.55 l 5.51,-1.02 h 11.01 l 4.42,-1.133 h 91.68 l 5.5,-1.129 h 26.45 l 5.55,1.129 h 16.52 l 5.55,1.133 h 11.01 l 4.42,1.02 h 11.01 l 5.55,1.129 h 22.07 l 4.37,1.14 h 11.06 l 5.51,-1.14 h 16.56 l 5.51,-1.129 h 4.49 l 5.51,-1.02 11.05,-2.262 h 387.31" /><path
         id="path140"
         style="fill:none;stroke:#000000;stroke-width:5.51831007;stroke-linecap:butt;stroke-linejoin:miter;stroke-miterlimit:3.79999995;stroke-dasharray:none;stroke-opacity:1"
         d="m 879.922,618.352 h 4303.16 v 3011.88 H 879.922 Z" /><g
         transform="scale(10)"
         id="g142"><text
           id="text146"
           style="font-variant:normal;font-weight:normal;font-size:22.60880089px;font-family:'Times New Roman';-inkscape-font-specification:TimesNewRomanPSMT;writing-mode:lr-tb;fill:#000000;fill-opacity:1;fill-rule:nonzero;stroke:none"
           transform="matrix(1,0,0,-1,401.554,322.37)"><tspan
             id="tspan144"
             y="0"
             x="0 13.813977 21.342707 28.871437 45.194992 66.537697 74.066429">EI-DWIA</tspan></text>
</g><path
         id="path148"
         style="fill:none;stroke:#ff0000;stroke-width:24.22369957;stroke-linecap:butt;stroke-linejoin:miter;stroke-miterlimit:10;stroke-dasharray:none;stroke-opacity:1"
         d="m 3584.34,3298.55 h 323.55" /><g
         transform="scale(10)"
         id="g150"><text
           id="text154"
           style="font-variant:normal;font-weight:normal;font-size:22.60880089px;font-family:'Times New Roman';-inkscape-font-specification:TimesNewRomanPSMT;writing-mode:lr-tb;fill:#000000;fill-opacity:1;fill-rule:nonzero;stroke:none"
           transform="matrix(1,0,0,-1,401.554,301.538)"><tspan
             id="tspan152"
             y="0"
             x="0 13.813977 30.137531 37.66626 53.989815 75.33252 82.861252">ED-DWIA</tspan></text>
</g><path
         id="path156"
         style="fill:none;stroke:#008b00;stroke-width:19.91729927;stroke-linecap:butt;stroke-linejoin:miter;stroke-miterlimit:10;stroke-dasharray:100.663, 60.2902;stroke-dashoffset:0;stroke-opacity:1"
         d="m 3584.34,3090.73 h 323.55" /><g
         transform="scale(10)"
         id="g158"><text
           id="text162"
           style="font-variant:normal;font-weight:normal;font-size:22.60880089px;font-family:'Times New Roman';-inkscape-font-specification:TimesNewRomanPSMT;writing-mode:lr-tb;fill:#000000;fill-opacity:1;fill-rule:nonzero;stroke:none"
           transform="matrix(1,0,0,-1,401.554,280.544)"><tspan
             id="tspan160"
             y="0"
             x="0 13.813977">TC</tspan></text>
</g><path
         id="path164"
         style="fill:none;stroke:#0000ff;stroke-width:24.22369957;stroke-linecap:butt;stroke-linejoin:miter;stroke-miterlimit:10;stroke-dasharray:24.2237, 72.6712;stroke-dashoffset:0;stroke-opacity:1"
         d="m 3584.34,2881.32 h 323.55" /><path
         id="path166"
         style="fill:#000000;fill-opacity:1;fill-rule:evenodd;stroke:none"
         d="m 2453.95,41.5508 -0.24,-0.7422 v -0.7383 l -0.23,-0.7422 -0.28,-0.75 v -0.457 l -0.23,-0.75 -0.24,-0.5 -0.27,-0.4727 v -0.5078 l -0.23,-0.5117 -0.24,-0.4687 -0.23,-0.2696 -0.28,-0.4687 -0.23,-0.2735 -0.23,-0.2382 -0.28,-0.2305 -0.47,-0.2383 -0.27,-0.2695 -0.47,-0.2305 -0.51,-0.2422 -0.23,-0.2695 h -0.51 l -0.74,-0.2383 h -0.47 l -0.51,-0.2305 h -1.25 l -0.23,-0.2695 h -4.46 c -2.92,0 -5.66,0 -5.66,-4.6914 0,-1.9492 1.25,-2.9297 3.2,-2.9297 6.68,0 13.83,0.7383 20.75,0.7383 8.12,0 16.48,-0.7383 24.37,-0.7383 1.25,0 4.45,0 4.45,4.918 0,2.7031 -2.46,2.7031 -5.89,2.7031 -12.35,0 -12.35,1.7188 -12.35,3.9375 0,2.9727 10.35,42.9297 12.07,49.0625 3.21,-7.1406 9.89,-15.7812 22.46,-15.7812 l -0.27,5.4296 c -16.02,0 -19.22,20.4688 -19.22,21.961 0,0.5 0,0.9687 0.74,3.9375 l 11.84,48.0897 c 1.72,6.641 8.4,13.551 12.81,17.262 8.63,7.621 15.78,9.379 19.96,9.379 9.89,0 15.78,-8.641 15.78,-23.207 0,-14.532 -8.12,-42.653 -12.57,-52.0315 -8.36,-17.2188 -20.2,-25.3907 -29.34,-25.3907 l 0.27,-5.4296 c 28.6,0 59.18,36.0198 59.18,72.0308 0,23.168 -13.82,39.418 -32.58,39.418 -12.3,0 -24.14,-8.871 -32.3,-18.48 -2.46,13.32 -12.81,18.48 -21.91,18.48 -11.37,0 -16.06,-9.609 -18.25,-14.031 -4.45,-8.387 -7.65,-23.199 -7.65,-23.937 0,-2.461 2.46,-2.461 2.97,-2.461 2.46,0 2.69,0.269 4.18,5.66 4.18,17.539 9.14,29.379 18,29.379 4.18,0 7.62,-1.989 7.62,-11.367 0,-5.661 -0.74,-8.364 -1.72,-12.582 z" /><path
         id="path168"
         style="fill:#000000;fill-opacity:1;fill-rule:evenodd;stroke:none"
         d="m 2595.23,49.6797 0.98,1.0117 1.49,1.4883 1.01,0.9805 1.72,1.7109 0.47,0.5078 0.51,0.4727 0.74,0.5078 0.97,0.9687 0.75,0.5117 0.74,0.7383 0.74,0.4727 1.49,1.4883 0.74,0.5117 0.97,0.7383 0.98,0.9726 1.02,0.75 0.97,0.7383 0.98,0.9805 1.25,0.9687 1.21,1.0196 1.25,0.9726 1.21,0.9805 c 3.71,2.9687 16.53,13.3164 21.45,18.0078 10.62,10.3516 17.26,19.2183 17.26,21.2113 0,2.23 -2.22,2.23 -2.93,2.23 -1.48,0 -2.22,-0.512 -2.97,-1.762 -5.43,-7.89 -8.86,-10.5895 -13.08,-10.5895 -1.95,0 -4.69,0.2422 -9.85,5.1605 -5.93,5.941 -9.6,7.191 -13.55,7.191 -13.83,0 -22.93,-15.0819 -22.93,-20.2421 0,-1.4805 1.72,-1.9883 2.7,-1.9883 2.22,0 2.46,0.5078 3.2,2.2305 2.46,6.168 12.07,6.3984 15.04,6.3984 3.94,0 8.4,-0.9687 10.86,-1.4804 9.37,-1.961 10.58,-1.961 14.8,-1.961 -4.45,-4.6797 -7.42,-7.8867 -23.94,-20.9687 -13.32,-10.5899 -17.97,-14.7696 -21.21,-18.4805 -10.36,-10.1172 -15.28,-17.5 -15.28,-19.2187 0,-1.9883 2.23,-1.9883 2.97,-1.9883 1.72,0 1.95,0.2695 2.7,1.7187 4.68,6.6797 10.11,10.3907 16.05,10.3907 1.95,0 4.41,0 9.1,-4.4532 5.43,-5.1992 8.87,-7.6562 14.3,-7.6562 18.51,0 29.84,20.6992 29.84,26.6367 0,1.9531 -1.72,2.2305 -2.69,2.2305 -2.23,0 -2.5,-0.7383 -3.24,-2.7383 -3.21,-8.6289 -13.29,-12.8125 -21.68,-12.8125 -4.18,0 -8.4,0.9805 -12.58,1.9922 -7.89,1.7187 -9.38,1.7187 -12.58,1.7187 -0.23,0 -2.7,0 -3.95,-0.2695 z" /><path
         id="path170"
         style="fill:#000000;fill-opacity:1;fill-rule:evenodd;stroke:none"
         d="m 2760.94,12.4492 v 0.7422 h -0.24 v 0.5078 h -0.27 v 0.2422 h -0.23 v 0.2695 l -0.24,0.2305 v 0.2383 h -0.27 v 0.2695 l -0.24,0.2422 h -0.23 v 0.2305 h -0.27 v 0.2695 h -0.24 v 0.2383 l -0.23,0.2305 -0.28,0.2382 -0.23,0.2735 -0.24,0.2383 -0.27,0.2304 -0.23,0.2696 v 0.2382 h -0.24 l -0.27,0.2305 c -30.82,31.1016 -38.44,77.4219 -38.44,114.9221 0,42.89 9.38,85.551 39.45,116.371 3.21,2.969 3.21,3.437 3.21,3.949 0,1.988 -0.98,2.457 -2.46,2.457 -2.46,0 -24.69,-16.527 -38.99,-47.816 -12.58,-26.871 -15.51,-54.25 -15.51,-74.961 0,-18.981 2.7,-48.8205 16.25,-76.4416 14.57,-30.3086 35.79,-46.37112 38.25,-46.37112 1.48,0 2.46,0.74222 2.46,2.50002 z" /><path
         id="path172"
         style="fill:#000000;fill-opacity:1;fill-rule:evenodd;stroke:none"
         d="m 2834.41,233.898 v 0.231 l -0.23,0.242 v 0.231 l -0.27,0.269 v 0.238 l -0.24,0.512 -0.23,0.457 -0.28,0.281 v 0.231 l -0.23,0.238 -0.23,0.5 v 0.242 l -0.28,0.27 h -0.23 l -0.24,0.238 v 0.231 h -0.27 l -0.23,0.269 h -0.24 l -0.27,0.242 h -0.24 l -0.23,0.231 h -1.49 l -0.5,0.277 h -44.14 v -7.656 h 5.93 c 18.99,0 19.22,-2.731 19.22,-11.602 V 97.3008 c 0,-6.6797 0,-18.25 -25.15,-18.25 v -7.6524 c 8.63,0.2305 20.74,0.7422 28.63,0.7422 8.12,0 20.19,-0.5117 28.83,-0.7422 v 7.6524 c -25.39,0 -25.39,11.5703 -25.39,18.25 V 229.68 h 0.23 l 59.18,-152.8519 c 1.25,-3.207 2.46,-5.4297 4.92,-5.4297 2.74,0 3.48,1.9922 4.46,4.6797 l 60.39,155.5939 h 0.27 V 90.6211 c 0,-8.8711 -0.51,-11.5703 -19.26,-11.5703 h -5.9 v -7.6524 c 9.14,0.7422 25.63,0.7422 35.28,0.7422 9.61,0 26.13,0 35.23,-0.7422 v 7.6524 h -5.9 c -18.98,0 -19.49,2.6992 -19.49,11.5703 V 220.07 c 0,8.871 0.51,11.602 19.49,11.602 h 5.9 v 7.656 h -41.68 c -6.41,0 -6.41,-0.277 -8.12,-4.687 L 2887.66,96.3203 Z" /><path
         id="path174"
         style="fill:#000000;fill-opacity:1;fill-rule:evenodd;stroke:none"
         d="m 3027.7,128.121 0.27,5.149 c 1.48,36.761 22.19,42.929 30.55,42.929 25.15,0 27.61,-33.32 27.61,-42.929 h -58.16 l -0.27,-5.149 h 68.55 c 5.43,0 6.17,0 6.17,5.149 0,24.421 -13.32,48.32 -43.87,48.32 -28.63,0 -51.28,-25.391 -51.28,-56.211 0,-32.7696 25.85,-56.7188 54.21,-56.7188 29.85,0 40.94,27.3906 40.94,32.0698 0,2.461 -1.95,2.969 -3.2,2.969 -2.23,0 -2.7,-1.48 -3.2,-3.469 -8.64,-25.4019 -30.59,-25.4019 -33.05,-25.4019 -12.31,0 -22.19,7.4336 -27.85,16.5313 -7.42,11.8316 -7.42,28.1206 -7.42,36.7616 z" /><path
         id="path176"
         style="fill:#000000;fill-opacity:1;fill-rule:evenodd;stroke:none"
         d="m 3262.19,215.148 0.27,0.973 0.24,0.75 0.5,0.738 0.47,0.743 0.24,0.976 1.01,1.481 0.47,0.742 1.02,1.488 0.7,0.473 0.51,0.738 0.74,0.738 0.74,0.512 0.74,0.738 0.75,0.512 0.74,0.469 0.74,0.511 0.98,0.461 0.97,0.508 1.02,0.512 0.98,0.23 0.97,0.508 1.25,0.242 0.98,0.231 1.21,0.269 1.25,0.239 1.48,0.23 1.22,0.281 h 1.48 l 1.48,0.231 h 1.49 v 7.656 c -7.66,-0.508 -17.27,-0.75 -23.67,-0.75 -7.39,0 -21.68,0.473 -28.13,0.75 v -7.656 c 12.85,-0.231 18.01,-6.684 18.01,-12.344 0,-1.957 -0.74,-3.437 -1.21,-4.918 L 3208.71,96.0508 3161.84,220.07 c -1.49,3.481 -1.49,3.942 -1.49,4.45 0,7.152 14.06,7.152 20.24,7.152 v 7.656 c -8.87,-0.75 -25.9,-0.75 -35,-0.75 -11.84,0 -22.47,0.473 -31.33,0.75 v -7.656 c 16.01,0 20.7,0 24.18,-9.371 l 56.95,-150.9026 c 1.72,-4.6875 2.93,-5.4296 6.17,-5.4296 4.18,0 4.42,1.25 5.67,4.6914 z" /><path
         id="path178"
         style="fill:#000000;fill-opacity:1;fill-rule:evenodd;stroke:none"
         d="m 3405.2,246.441 v 0.5 h 0.27 v 0.508 l 0.23,0.242 v 0.739 l 0.24,0.23 v 0.512 h 0.23 v 1.25 h 0.28 v 0.469 c 0,2.73 -2.23,4.687 -4.93,4.687 -1.75,0 -3.47,-0.469 -4.22,-1.957 L 3311.99,19.3711 c -1.21,-3.2109 -1.21,-4.1797 -1.21,-4.4219 0,-2.7304 2.23,-4.96092 4.92,-4.96092 3.21,0 3.95,1.76172 5.43,5.94142 z" /><path
         id="path180"
         style="fill:#000000;fill-opacity:1;fill-rule:evenodd;stroke:none"
         d="m 3448.83,124.91 v 5.391 l 0.27,1.758 v 1.722 l 0.24,1.719 0.23,1.48 v 1.719 l 0.27,1.492 0.47,2.969 0.51,1.481 0.51,2.687 0.74,2.473 0.98,2.461 0.74,2.218 0.98,2 0.97,1.95 1.25,1.992 0.98,1.719 1.25,1.48 1.21,1.449 1.25,1.481 1.48,1.25 1.22,1.211 1.48,1.019 1.25,0.981 1.44,0.738 1.25,0.738 1.49,0.742 1.48,0.469 1.21,0.512 1.49,0.23 1.25,0.508 1.48,0.242 h 1.21 l 1.25,0.27 h 1.22 c 2.22,0 17.77,-0.27 26.4,-9.141 -10.12,-0.742 -11.6,-8.129 -11.6,-11.332 0,-6.41 4.45,-11.367 11.33,-11.367 6.44,0 11.37,4.219 11.37,11.609 0,16.75 -18.76,26.36 -37.74,26.36 -30.59,0 -53.24,-26.602 -53.24,-57.18 0,-31.3319 24.37,-55.7498 52.73,-55.7498 33.05,0 40.94,29.6093 40.94,32.0698 0,2.461 -2.46,2.461 -3.2,2.461 -2.23,0 -2.7,-0.972 -3.21,-2.461 -7.14,-22.9292 -23.16,-25.9019 -32.3,-25.9019 -12.81,0 -34.53,10.6328 -34.53,50.0819 z" /><path
         id="path182"
         style="fill:#000000;fill-opacity:1;fill-rule:evenodd;stroke:none"
         d="m 3600.23,132.801 v 3.679 l -0.23,1.989 v 1.953 l -0.27,4.219 -0.24,4.41 -0.51,4.461 -0.46,4.679 -0.51,4.93 -1.96,9.84 -0.97,5.199 -1.49,5.192 -1.48,5.16 -1.72,5.187 -1.99,5.43 -0.98,2.461 -0.97,2.699 -1.25,2.731 -1.25,2.46 c -14.77,30.321 -35.75,46.098 -38.44,46.098 -1.25,0 -2.46,-0.976 -2.46,-2.457 0,-0.512 0,-0.98 4.68,-5.43 24.15,-24.421 38.21,-63.363 38.21,-114.89 0,-41.9104 -9.14,-85.0705 -39.69,-116.1291 -3.2,-2.9727 -3.2,-3.4805 -3.2,-4.2227 0,-1.4804 1.21,-2.46092 2.46,-2.46092 2.69,0 24.65,16.76172 39.18,48.08982 12.58,26.8711 15.54,54.2499 15.54,74.7229 z" /><path
         id="path184"
         style="fill:#000000;fill-opacity:1;fill-rule:evenodd;stroke:none"
         d="M 17.2695,936.238 H 16.25 v -0.226 h -0.5508 v -0.282 h -0.2695 v -0.269 h -0.2305 v -0.27 h -0.2773 v -0.511 h -0.2735 v -0.782 l -0.2382,-0.277 v -0.781 c 0,-3.899 2.3515,-28.512 2.8593,-32.969 0.2696,-2.109 1.5586,-3.672 5,-3.672 3.1211,0 3.1211,2.352 3.1211,6.289 0,12.543 1.8399,13.09 4.4492,13.09 l 5.2383,-0.777 61.7617,-15.711 C 87.1484,894.371 80.0781,886.789 80.0781,874.988 l 5.7813,0.274 c 0,17.039 21.4416,20.668 23.0116,20.668 1.559,0 3.16,-0.508 4.449,-0.782 l 51.059,-13.089 c 4.68,-1.289 5.23,-1.289 9.641,-5.231 14.421,-11.527 18.601,-22 18.601,-29.297 0,-13.09 -14.383,-16.761 -24.609,-16.761 -13.09,0 -45,8.359 -57.032,14.421 -15.4292,8.079 -25.1206,19.61 -25.1206,30.071 l -5.7813,-0.274 c 0,-30.347 38.4729,-62.808 76.4419,-62.808 24.57,0 41.878,14.41 41.878,34.8 0,5 -1.058,18.09 -19.648,33.79 10.98,2.07 19.648,11.25 19.648,23.789 0,9.179 -6.058,15.203 -14.418,19.382 -9.41,4.18 -25.39,7.61 -25.89,7.61 -2.621,0 -2.621,-2.379 -2.621,-3.16 0,-2.34 1.051,-2.891 4.691,-3.672 17.031,-4.457 32.461,-8.867 32.461,-19.61 0,-7.07 -6.801,-7.847 -12.031,-7.847 -6.289,0 -8.129,0.5 -12.578,1.558 z" /><path
         id="path186"
         style="fill:#000000;fill-opacity:1;fill-rule:evenodd;stroke:none"
         d="m 98.1602,1072.61 v 3.4 l -0.2696,0.5 v 1.06 l -0.2695,0.51 v 0.54 l -0.2813,0.51 v 0.55 l -0.2304,0.51 -0.2696,0.5 -0.2812,0.55 -0.2305,0.51 -0.2773,0.27 -0.2695,0.51 -0.5118,0.55 H 95 v 0.23 l -0.2695,0.27 -0.2422,0.28 h -0.2695 l -0.2696,0.27 h -0.2383 l -0.2695,0.24 -0.2812,0.27 h -0.5 l -0.5508,0.27 h -0.2305 l -0.2773,0.24 h -2.3399 c -6.2929,0 -6.2929,-5.47 -6.2929,-9.92 v -59.69 c 0,-39.259 43.1602,-68.278 74.0622,-68.278 23.047,0 41.328,15.429 41.328,39.25 l -5.738,0.238 c 0,-12.809 -9.422,-23.281 -28.242,-23.281 -7.859,0 -29.07,3.121 -44.5,12.301 -18.078,10.98 -21.7579,26.68 -21.7579,35.31 0,22 17.3089,24.11 25.3989,24.11 12.3,0 33.511,-5.24 46.871,-14.14 15.429,-10.2 22.23,-24.07 22.23,-34.3 l 5.738,-0.238 c 0,30.588 -31.64,65.398 -71.679,65.398 -4.45,0 -17.032,0 -28.5589,-8.09 z" /><path
         id="path188"
         style="fill:#000000;fill-opacity:1;fill-rule:evenodd;stroke:none"
         d="m 9.69141,1210.26 -0.28125,0.28 h -0.5 l -0.28125,0.23 H 8.12109 l -0.26953,0.28 H 7.33984 l -0.26953,0.27 H 6.28906 l -0.26953,0.23 H 4.96094 C 2.10938,1211.55 0,1209.21 0,1206.32 c 0,-1.8 0.511719,-3.63 2.10938,-4.41 L 250.699,1111.32 c 3.442,-1.29 4.461,-1.29 4.731,-1.29 2.89,0 5.23,2.34 5.23,5.23 0,3.4 -1.832,4.18 -6.281,5.75 z" /><path
         id="path190"
         style="fill:#000000;fill-opacity:1;fill-rule:evenodd;stroke:none"
         d="m 17.2695,1360.73 h -0.5078 l -0.2812,-0.23 h -0.5 v -0.27 h -0.5508 v -0.28 l -0.2305,-0.27 -0.2773,-0.24 v -0.27 l -0.2735,-0.27 v -0.78 h -0.2382 v -0.79 c 0,-3.9 2.3515,-28.78 2.8593,-33.24 0.2696,-2.07 1.5586,-3.67 5,-3.67 3.1211,0 3.1211,2.38 3.1211,6.29 0,12.58 1.8399,13.09 4.4492,13.09 l 5.2383,-0.79 61.7617,-15.7 c -9.6914,-4.69 -16.7617,-12.03 -16.7617,-23.83 l 5.7813,0.28 c 0,16.75 21.4416,20.43 23.0116,20.43 1.559,0 3.16,-0.55 4.449,-0.78 l 51.059,-12.86 c 4.68,-1.29 5.23,-1.29 9.641,-5.23 14.421,-11.49 18.601,-22.23 18.601,-29.57 0,-13.09 -14.383,-16.76 -24.609,-16.76 -13.09,0 -45,8.4 -57.032,14.42 -15.4292,8.12 -25.1206,19.88 -25.1206,30.35 l -5.7813,-0.28 c 0,-30.58 38.4729,-62.81 76.4419,-62.81 24.57,0 41.878,14.14 41.878,34.57 0,5.24 -1.058,18.32 -19.648,34.02 10.98,2.07 19.648,11.25 19.648,23.56 0,9.14 -6.058,15.16 -14.418,19.37 -9.41,4.46 -25.39,7.86 -25.89,7.86 -2.621,0 -2.621,-2.39 -2.621,-3.17 0,-2.62 1.051,-2.85 4.691,-3.67 17.031,-4.41 32.461,-9.14 32.461,-19.88 0,-7.07 -6.801,-7.85 -12.031,-7.85 -6.289,0 -8.129,0.54 -12.578,1.56 z" /><path
         id="path192"
         style="fill:#000000;fill-opacity:1;fill-rule:evenodd;stroke:none"
         d="m 227.191,1373.82 0.778,-0.24 1.562,-0.54 h 0.778 l 0.511,-0.28 0.782,-0.23 h 0.546 l 0.512,-0.27 0.539,-0.28 0.512,-0.23 h 0.508 l 0.269,-0.27 0.512,-0.28 0.27,-0.27 0.281,-0.51 0.5,-0.51 0.277,-0.54 0.274,-0.24 0.238,-0.55 0.269,-0.5 v -0.55 l 0.27,-0.51 v -0.51 l 0.281,-0.78 v -1.05 l 0.231,-0.55 v -4.45 c 0,-3.13 0,-6.02 5,-6.02 2.07,0 3.129,1.33 3.129,3.4 0,7.07 -0.79,14.69 -0.79,21.99 0,8.4 0.79,17.27 0.79,25.67 0,1.29 0,4.69 -5.239,4.69 -2.89,0 -2.89,-2.62 -2.89,-6.25 0,-13.09 -1.84,-13.09 -4.18,-13.09 -3.121,0 -45.551,10.98 -52.07,12.81 7.578,3.4 16.757,10.74 16.757,24.06 l -5.777,-0.23 c 0,-17.3 -21.723,-20.7 -23.281,-20.7 -0.512,0 -1.059,0 -4.18,0.78 l -51.058,12.85 c -7.071,1.84 -14.3715,8.91 -18.3207,13.59 -8.0821,9.18 -9.9219,16.76 -9.9219,20.94 0,10.47 9.1406,16.76 24.5706,16.76 15.468,0 45.308,-8.63 55.23,-13.36 18.32,-8.91 26.961,-21.17 26.961,-30.86 l 5.777,0.23 c 0,30.12 -38.238,62.82 -76.449,62.82 -24.6092,0 -41.8709,-14.93 -41.8709,-34.81 0,-12.81 9.4102,-25.39 19.6524,-34.02 -14.1407,-2.62 -19.6524,-13.87 -19.6524,-23.56 0,-12.03 10.2305,-16.99 14.9219,-19.1 8.91,-4.69 24.609,-8.12 25.391,-8.12 2.621,0 2.621,2.61 2.621,3.16 0,2.62 -0.282,2.89 -6.024,4.18 -18.5896,4.45 -31.1286,9.69 -31.1286,19.1 0,4.46 2.0703,8.13 12.0312,8.13 6.0194,0 8.9104,-0.78 13.3594,-1.84 z" /><path
         id="path194"
         style="fill:#000000;fill-opacity:1;fill-rule:evenodd;stroke:none"
         d="m 218.52,1523.78 -1.02,0.78 -0.781,1.06 -0.778,0.78 -1.062,0.78 -0.777,1.05 -1.051,1.06 -0.551,0.51 -0.512,0.54 -1.047,1.06 -1.019,1.56 -0.82,0.51 -0.512,0.78 -1.559,1.56 -0.551,1.06 -0.781,0.78 -1.008,1.05 -0.82,1.06 -0.781,1.05 -1.02,1.29 -1.05,1.06 -1.059,1.28 -1.051,1.33 -1.058,1.56 c -3.122,3.95 -14.102,17.54 -19.102,22.78 -10.98,11.25 -20.391,18.05 -22.5,18.05 -2.34,0 -2.34,-2.35 -2.34,-3.13 0,-1.56 0.5,-2.11 1.828,-3.12 8.364,-5.51 11.25,-9.46 11.25,-13.91 0,-2.07 -0.269,-4.96 -5.508,-10.2 -6.281,-6.29 -7.57,-10.19 -7.57,-14.64 0,-14.42 15.93,-24.34 21.442,-24.34 1.558,0 2.109,1.84 2.109,3.12 0,2.11 -0.551,2.62 -2.383,3.17 -6.527,2.85 -6.797,13.08 -6.797,15.94 0,4.21 1.059,8.9 1.559,11.52 2.109,10.19 2.109,11.25 2.109,15.98 4.961,-4.73 8.36,-8.13 22.27,-25.39 11.25,-14.42 15.703,-19.11 19.609,-22.78 10.742,-10.74 18.594,-16.21 20.434,-16.21 2.066,0 2.066,2.34 2.066,3.13 0,1.83 -0.238,2.34 -1.84,3.12 -7.066,5 -10.968,10.47 -10.968,16.76 0,2.38 0,5 4.718,9.96 5.473,5.51 8.09,9.14 8.09,15.16 0,19.37 -21.988,31.68 -28.238,31.68 -2.11,0 -2.391,-2.07 -2.391,-3.13 0,-2.11 0.781,-2.62 2.891,-3.16 9.18,-3.64 13.601,-14.38 13.601,-23.28 0,-4.18 -1.019,-8.64 -2.07,-13.36 -1.84,-8.36 -1.84,-9.93 -1.84,-13.09 0,-0.23 0,-3.13 0.27,-4.18 z" /><path
         id="path196"
         style="fill:#000000;fill-opacity:1;fill-rule:evenodd;stroke:none"
         d="m 258.051,1699.41 h -1.063 v -0.28 h -0.226 l -0.282,-0.27 -0.269,-0.24 h -0.231 v -0.27 h -0.281 l -0.269,-0.27 h -0.27 v -0.24 l -0.238,-0.27 -0.543,-0.55 h -0.238 v -0.23 h -0.27 v -0.28 h -0.281 l -0.27,-0.27 v -0.23 h -0.23 l -0.551,-0.55 v -0.23 h -0.238 c -33,-32.74 -82.18,-41.1 -121.949,-41.1 -45.5512,0 -90.8207,9.92 -123.55122,42.11 -3.1289,3.17 -3.67969,3.17 -4.17969,3.17 C 0.511719,1699.41 0,1698.62 0,1697.02 c 0,-2.61 17.5391,-26.17 50.7813,-41.6 28.5195,-13.36 57.5777,-16.48 79.5707,-16.48 20.117,0 51.796,2.89 81.097,17.26 32.223,15.71 49.211,38.21 49.211,40.82 0,1.6 -0.781,2.39 -2.609,2.39 z" /><path
         id="path198"
         style="fill:#000000;fill-opacity:1;fill-rule:evenodd;stroke:none"
         d="m 105.738,1743.35 h 69.883 c 11.758,0 11.758,-2.85 11.758,-20.39 h 8.133 c -0.282,9.14 -0.782,22.5 -0.782,29.57 0,6.8 0.5,20.39 0.782,29.3 h -8.133 c 0,-17.54 0,-20.39 -11.758,-20.39 H 127.73 c -27.218,0 -41.8706,18.55 -41.8706,35.04 0,16.52 14.1015,19.37 29.0196,19.37 h 60.742 c 11.758,0 11.758,-2.85 11.758,-20.39 h 8.133 c -0.282,9.14 -0.782,22.5 -0.782,29.57 0,6.8 0.5,20.39 0.782,29.02 h -8.133 c 0,-17.26 0,-20.11 -11.758,-20.11 H 127.73 c -27.218,0 -41.8706,18.55 -41.8706,35.04 0,16.48 14.1015,19.37 29.0196,19.37 h 60.742 c 11.758,0 11.758,-2.89 11.758,-20.39 h 8.133 c -0.282,9.14 -0.782,22.5 -0.782,29.57 0,6.8 0.5,20.39 0.782,29.3 h -8.133 c 0,-13.6 0,-20.16 -7.848,-20.43 h -49.73 c -22.5,0 -30.6213,0 -40.0315,-8.09 -4.4609,-3.67 -9.6914,-12.3 -9.6914,-27.5 0,-21.72 15.7032,-33.24 25.6599,-37.69 -22.7692,-3.64 -25.6599,-23.01 -25.6599,-34.81 0,-18.83 11.25,-31.13 27.4999,-38.48 H 80.0781 l 2.8907,-36.87 h 8.121 c 0,18.32 1.8399,20.39 14.6482,20.39 z" /><path
         id="path200"
         style="fill:#000000;fill-opacity:1;fill-rule:evenodd;stroke:none"
         d="M 97.1094,1969.48 H 14.4102 l 2.8593,-37.69 h 8.1211 c 0,18.32 1.8399,20.43 14.6485,20.43 H 195.512 v 6.52 c -0.282,0.27 -3.953,2.38 -16.211,9.45 6.008,3.91 19.097,14.65 19.097,33.99 l -5.777,-1.02 c 0,-11.79 -6.293,-21.21 -15.941,-27.5 -5.508,-3.4 -6.289,-3.4 -11.02,-3.4 h -53.629 c -5,0 -5.23,0 -9.453,2.9 -14.6483,9.92 -16.7186,24.33 -16.7186,30.62 0,11.76 6.8008,21.17 16.7186,27.46 10.742,6.8 25.66,7.58 36.402,7.58 9.418,0 25.122,-0.51 36.879,-8.09 8.121,-5.5 16.762,-15.47 16.762,-29.57 l 5.777,1.02 c 0,31.17 -25.668,58.12 -59.179,58.12 -33.199,0 -59.1409,-25.39 -59.1409,-55.23 0,-20.39 12.3008,-31.64 17.0313,-35.59 z" /><path
         id="path202"
         style="fill:#000000;fill-opacity:1;fill-rule:evenodd;stroke:none"
         d="M 9.69141,2184.09 H 9.41016 v 0.28 h -0.5 l -0.28125,0.23 H 7.85156 l -0.27343,0.27 H 7.07031 l -0.26953,0.28 H 6.01953 l -0.28125,0.23 H 4.96094 C 2.10938,2185.38 0,2183.04 0,2180.15 c 0,-1.8 0.511719,-3.64 2.10938,-4.42 L 250.699,2085.15 c 3.442,-1.29 4.461,-1.29 4.731,-1.29 2.89,0 5.23,2.34 5.23,5.23 0,3.4 -1.832,4.18 -6.281,5.74 z" /><path
         id="path204"
         style="fill:#000000;fill-opacity:1;fill-rule:evenodd;stroke:none"
         d="m 258.051,2286.16 h -1.063 v -0.27 h -0.226 l -0.282,-0.27 -0.269,-0.24 h -0.231 v -0.27 h -0.281 v -0.28 h -0.269 l -0.27,-0.23 -0.238,-0.27 -0.543,-0.55 h -0.238 v -0.23 h -0.27 v -0.28 L 253.59,2283 h -0.27 v -0.24 l -0.23,-0.27 h -0.281 l -0.27,-0.27 v -0.28 l -0.238,-0.23 c -33,-32.46 -82.18,-40.82 -121.949,-40.82 -45.5512,0 -90.8207,9.92 -123.55122,41.87 -3.1289,3.4 -3.67969,3.4 -4.17969,3.4 C 0.511719,2286.16 0,2285.11 0,2283.55 c 0,-2.62 17.5391,-25.94 50.7813,-41.37 28.5195,-13.36 57.5777,-16.49 79.5707,-16.49 20.117,0 51.796,2.89 81.097,17.27 32.223,15.7 49.211,37.97 49.211,40.59 0,1.56 -0.781,2.61 -2.609,2.61 z" /><path
         id="path206"
         style="fill:#000000;fill-opacity:1;fill-rule:evenodd;stroke:none"
         d="m 23.0508,2364.13 -0.2813,-0.23 H 22.5 l -0.2305,-0.28 h -0.2812 l -0.2695,-0.27 -0.5079,-0.27 h -0.5507 l -0.5,-0.51 h -0.2813 l -0.5,-0.27 -0.2773,-0.24 -0.2305,-0.27 -0.2813,-0.28 -0.2695,-0.23 v -0.27 l -0.2695,-0.28 v -0.27 l -0.2422,-0.23 v -0.28 l -0.2695,-0.27 v -1.56 l -0.2696,-0.28 v -47.11 h 8.1211 v 6.29 c 0,20.16 2.8907,20.71 12.3086,20.71 H 168.012 c 7.066,0 19.367,0 19.367,-27 h 8.133 c -0.282,9.18 -0.782,22 -0.782,30.63 0,8.63 0.5,21.48 0.782,30.39 h -8.133 c 0,-26.72 -12.301,-26.72 -19.367,-26.72 H 27.5 v 0.27 l 162.23,62.82 c 3.43,1.29 5.782,2.61 5.782,5.23 0,2.85 -2.114,3.67 -4.961,4.69 l -165.1604,64.14 v 0.27 H 175.078 c 9.41,0 12.301,-0.54 12.301,-20.7 v -6.29 h 8.133 c -0.782,9.69 -0.782,27.5 -0.782,37.7 0,10.23 0,27.5 0.782,37.18 h -8.133 v -6.29 c 0,-19.88 -2.891,-20.43 -12.301,-20.43 H 37.6992 c -9.4179,0 -12.3086,0.55 -12.3086,20.43 v 6.29 h -8.1211 v -43.98 c 0,-6.8 0.2696,-6.8 5,-8.63 l 146.7895,-57.07 z" /><path
         id="path208"
         style="fill:#000000;fill-opacity:1;fill-rule:evenodd;stroke:none"
         d="m 135.309,2569.33 -5.508,0.27 c -38.9807,1.56 -45.5393,23.28 -45.5393,32.19 0,26.95 35.3473,29.57 45.5393,29.57 v -61.76 l 5.508,-0.27 v 72.5 c 0,5.74 0,6.52 -5.508,6.52 -25.891,0 -51.2815,-13.87 -51.2815,-46.56 0,-30.12 26.9495,-54.18 59.6795,-54.18 34.813,0 60.199,27.22 60.199,57.3 0,31.96 -29.058,43.44 -34.019,43.44 -2.617,0 -3.168,-1.84 -3.168,-3.4 0,-2.34 1.559,-2.62 3.668,-3.4 26.961,-8.9 26.961,-32.46 26.961,-35.07 0,-13.09 -7.86,-23.56 -17.539,-29.3 -12.539,-7.85 -29.852,-7.85 -38.992,-7.85 z" /><path
         id="path210"
         style="fill:#000000;fill-opacity:1;fill-rule:evenodd;stroke:none"
         d="m 42.9297,2817.96 -1.0508,0.51 -1.5703,0.54 -0.7773,0.51 -1.0508,0.51 -0.7813,0.55 -0.789,0.23 -0.7813,0.55 -0.7773,0.78 -0.7813,0.51 -1.332,1.33 -0.7774,0.5 -0.5117,0.78 -0.8203,0.79 -0.5078,0.78 -0.5,1.05 -0.5508,0.78 -0.5117,1.06 -0.5078,0.78 -0.5391,1.05 -0.2812,1.06 -0.5,1.29 -0.2813,1.05 -0.2304,1.33 -0.2696,1.29 -0.2773,1.33 -0.2735,1.29 -0.2382,1.56 v 1.6 l -0.2696,1.56 v 1.57 h -8.1211 c 0.5391,-8.13 0.7813,-18.6 0.7813,-25.4 0,-7.85 -0.5117,-23 -0.7813,-29.57 h 8.1211 c 0.2696,13.36 7.0703,18.83 13.0899,18.83 2.1093,0 3.6679,-0.78 5.2304,-1.29 L 169.34,2761.44 37.6992,2711.71 c -3.6797,-1.6 -4.1797,-1.6 -4.7304,-1.6 -7.5782,0 -7.5782,14.92 -7.5782,21.21 h -8.1211 c 0.7813,-9.14 0.7813,-27.23 0.7813,-37.15 0,-12.58 -0.5117,-23.83 -0.7813,-33.24 h 8.1211 c 0,16.99 0,21.99 9.961,25.62 l 160.1604,60.47 c 4.957,1.84 5.738,3.13 5.738,6.56 0,4.42 -1.289,4.97 -4.961,6.25 z" /><path
         id="path212"
         style="fill:#000000;fill-opacity:1;fill-rule:evenodd;stroke:none"
         d="m 9.69141,2969.76 -0.28125,0.23 h -0.5 l -0.28125,0.27 H 8.12109 l -0.26953,0.28 H 7.33984 l -0.26953,0.27 H 6.28906 l -0.26953,0.24 H 4.96094 C 2.10938,2971.05 0,2968.7 0,2965.81 c 0,-1.83 0.511719,-3.67 2.10938,-4.45 L 250.699,2870.81 c 3.442,-1.05 4.461,-1.05 4.731,-1.05 2.89,0 5.23,2.38 5.23,5 0,3.4 -1.832,4.18 -6.281,5.74 z" /><path
         id="path214"
         style="fill:#000000;fill-opacity:1;fill-rule:evenodd;stroke:none"
         d="m 138.711,3016.08 h -2.109 l -1.801,0.24 h -3.672 l -1.828,0.27 h -1.84 l -1.563,0.28 -1.839,0.23 -1.559,0.27 -1.602,0.28 -1.558,0.23 -1.57,0.28 -2.891,0.78 -5.231,1.56 -2.347,1.05 -2.102,1.06 -2.078,1.05 -2.101,1.06 -1.8403,1.29 -1.5586,1.32 -1.5703,1.29 -1.5625,1.33 -1.3281,1.29 -1.2813,1.56 -1.0586,1.33 -1.0508,1.56 -0.789,1.33 -1.5586,3.13 -0.5117,1.29 -0.5391,1.6 -0.2813,1.29 -0.5,1.56 -0.2812,1.33 v 1.56 l -0.2305,1.33 v 1.29 c 0,2.34 0.2305,18.83 9.6524,27.73 0.8203,-10.47 8.6675,-12.03 12.0705,-12.03 6.789,0 12.027,4.73 12.027,11.8 0,6.79 -4.449,12.03 -12.308,12.03 -17.8091,0 -28.0005,-19.88 -28.0005,-39.81 0,-32.69 28.2815,-56.52 60.6995,-56.52 33.242,0 59.179,25.66 59.179,56.02 0,34.8 -31.41,43.16 -34.019,43.16 -2.617,0 -2.617,-2.62 -2.617,-3.4 0,-2.34 1.008,-2.85 2.617,-3.4 24.332,-7.57 27.461,-24.33 27.461,-34.02 0,-13.87 -11.25,-36.88 -53.129,-36.88 z" /><path
         id="path216"
         style="fill:#000000;fill-opacity:1;fill-rule:evenodd;stroke:none"
         d="m 130.352,3177.02 h -6.012 l -2.11,-0.27 h -4.46 l -4.719,-0.51 -4.692,-0.27 -4.961,-0.51 -10.4683,-1.56 -5.2305,-1.06 -5.5078,-1.33 -5.5117,-1.28 -5.4688,-1.57 -5.5117,-1.83 -5.7773,-2.11 -2.6211,-1.29 -2.8516,-1.06 -2.8906,-1.32 -2.6094,-1.29 C 16.7617,3144.05 0,3121.79 0,3119.17 c 0,-1.56 1.05078,-2.62 2.62109,-2.62 0.53907,0 1.05079,0 5.77735,5 25.90236,25.36 67.22266,40.28 121.95356,40.28 44.488,0 90.269,-9.69 123.238,-41.88 3.172,-3.4 3.68,-3.4 4.461,-3.4 1.558,0 2.609,1.06 2.609,2.62 0,2.62 -17.769,25.94 -51.012,41.37 -28.558,13.36 -57.578,16.48 -79.296,16.48 z" /><path
         id="path218"
         style="fill:#000000;fill-opacity:1;fill-rule:evenodd;stroke:none"
         d="m 130.352,3278.31 h -6.012 l -2.11,-0.27 h -4.46 l -4.719,-0.51 -4.692,-0.27 -4.961,-0.51 -5.2378,-0.82 -5.2305,-0.78 -5.2305,-1.02 -5.5078,-1.33 -5.5117,-1.29 -5.4688,-1.6 -5.5117,-1.83 -5.7773,-2.07 -2.6211,-1.33 -2.8516,-1.02 -2.8906,-1.33 -2.6094,-1.28 C 16.7617,3245.34 0,3223.08 0,3220.46 c 0,-1.56 1.05078,-2.62 2.62109,-2.62 0.53907,0 1.05079,0 5.77735,4.96 25.90236,25.39 67.22266,40.32 121.95356,40.32 44.488,0 90.269,-9.69 123.238,-41.88 3.172,-3.4 3.68,-3.4 4.461,-3.4 1.558,0 2.609,1.06 2.609,2.62 0,2.62 -17.769,25.9 -51.012,41.37 -28.558,13.32 -57.578,16.48 -79.296,16.48 z" /></g></g></svg>