<?xml version="1.0" encoding="UTF-8" standalone="no"?>
<svg
   xmlns:dc="http://purl.org/dc/elements/1.1/"
   xmlns:cc="http://creativecommons.org/ns#"
   xmlns:rdf="http://www.w3.org/1999/02/22-rdf-syntax-ns#"
   xmlns:svg="http://www.w3.org/2000/svg"
   xmlns="http://www.w3.org/2000/svg"
   xmlns:sodipodi="http://sodipodi.sourceforge.net/DTD/sodipodi-0.dtd"
   xmlns:inkscape="http://www.inkscape.org/namespaces/inkscape"
   viewBox="0 0 724.92883 488.75825"
   height="488.75824"
   width="724.92883"
   xml:space="preserve"
   id="svg2"
   version="1.1"
   sodipodi:docname="dwia_tc.svg"
   inkscape:version="0.92.5 (2060ec1f9f, 2020-04-08)"><sodipodi:namedview
     pagecolor="#ffffff"
     bordercolor="#666666"
     borderopacity="1"
     objecttolerance="10"
     gridtolerance="10"
     guidetolerance="10"
     inkscape:pageopacity="0"
     inkscape:pageshadow="2"
     inkscape:window-width="1920"
     inkscape:window-height="1018"
     id="namedview230"
     showgrid="false"
     fit-margin-top="0"
     fit-margin-left="0"
     fit-margin-right="0"
     fit-margin-bottom="0"
     inkscape:zoom="0.65786017"
     inkscape:cx="507.25699"
     inkscape:cy="58.826161"
     inkscape:window-x="0"
     inkscape:window-y="0"
     inkscape:window-maximized="1"
     inkscape:current-layer="svg2" /><metadata
     id="metadata8"><rdf:RDF><cc:Work
         rdf:about=""><dc:format>image/svg+xml</dc:format><dc:type
           rdf:resource="http://purl.org/dc/dcmitype/StillImage" /><dc:title></dc:title></cc:Work></rdf:RDF></metadata><defs
     id="defs6">

























</defs><path
     id="path14"
     style="fill:none;stroke:#000000;stroke-width:0.74582797;stroke-linecap:butt;stroke-linejoin:miter;stroke-miterlimit:3.79999995;stroke-dasharray:none;stroke-opacity:1"
     d="m 113.35466,407.4409 h 9.4052"
     inkscape:connector-curvature="0" /><path
     id="path16"
     style="fill:none;stroke:#000000;stroke-width:0.74582797;stroke-linecap:butt;stroke-linejoin:miter;stroke-miterlimit:3.79999995;stroke-dasharray:none;stroke-opacity:1"
     d="m 694.94798,407.4409 h -9.39066"
     inkscape:connector-curvature="0" /><text
     style="font-variant:normal;font-weight:normal;font-size:35.79973221px;font-family:'Times New Roman';-inkscape-font-specification:TimesNewRomanPSMT;writing-mode:lr-tb;fill:#000000;fill-opacity:1;fill-rule:nonzero;stroke:none;stroke-width:1.33333325"
     id="text22"
     x="80.317734"
     y="420.91956"><tspan
       x="80.317734"
       y="420.91956"
       id="tspan20"
       style="stroke-width:1.33333325">0</tspan></text>
<path
     id="path24"
     style="fill:none;stroke:#000000;stroke-width:0.74582797;stroke-linecap:butt;stroke-linejoin:miter;stroke-miterlimit:3.79999995;stroke-dasharray:none;stroke-opacity:1"
     d="m 113.35466,349.26357 h 4.6292"
     inkscape:connector-curvature="0" /><path
     id="path26"
     style="fill:none;stroke:#000000;stroke-width:0.74582797;stroke-linecap:butt;stroke-linejoin:miter;stroke-miterlimit:3.79999995;stroke-dasharray:none;stroke-opacity:1"
     d="m 694.94798,349.26357 h -4.60933"
     inkscape:connector-curvature="0" /><path
     id="path28"
     style="fill:none;stroke:#000000;stroke-width:0.74582797;stroke-linecap:butt;stroke-linejoin:miter;stroke-miterlimit:3.79999995;stroke-dasharray:none;stroke-opacity:1"
     d="m 113.35466,291.09157 h 9.4052"
     inkscape:connector-curvature="0" /><path
     id="path30"
     style="fill:none;stroke:#000000;stroke-width:0.74582797;stroke-linecap:butt;stroke-linejoin:miter;stroke-miterlimit:3.79999995;stroke-dasharray:none;stroke-opacity:1"
     d="m 694.94798,291.09157 h -9.39066"
     inkscape:connector-curvature="0" /><text
     style="font-variant:normal;font-weight:normal;font-size:35.79973221px;font-family:'Times New Roman';-inkscape-font-specification:TimesNewRomanPSMT;writing-mode:lr-tb;fill:#000000;fill-opacity:1;fill-rule:nonzero;stroke:none;stroke-width:1.33333325"
     id="text36"
     x="53.468266"
     y="304.57025"><tspan
       x="53.468266 71.368134 80.318062"
       y="304.57025"
       id="tspan34"
       style="stroke-width:1.33333325">0.1</tspan></text>
<path
     id="path38"
     style="fill:none;stroke:#000000;stroke-width:0.74582797;stroke-linecap:butt;stroke-linejoin:miter;stroke-miterlimit:3.79999995;stroke-dasharray:none;stroke-opacity:1"
     d="m 113.35466,232.91424 h 4.6292"
     inkscape:connector-curvature="0" /><path
     id="path40"
     style="fill:none;stroke:#000000;stroke-width:0.74582797;stroke-linecap:butt;stroke-linejoin:miter;stroke-miterlimit:3.79999995;stroke-dasharray:none;stroke-opacity:1"
     d="m 694.94798,232.91424 h -4.60933"
     inkscape:connector-curvature="0" /><path
     id="path42"
     style="fill:none;stroke:#000000;stroke-width:0.74582797;stroke-linecap:butt;stroke-linejoin:miter;stroke-miterlimit:3.79999995;stroke-dasharray:none;stroke-opacity:1"
     d="m 113.35466,174.89424 h 9.4052"
     inkscape:connector-curvature="0" /><path
     id="path44"
     style="fill:none;stroke:#000000;stroke-width:0.74582797;stroke-linecap:butt;stroke-linejoin:miter;stroke-miterlimit:3.79999995;stroke-dasharray:none;stroke-opacity:1"
     d="m 694.94798,174.89424 h -9.39066"
     inkscape:connector-curvature="0" /><text
     style="font-variant:normal;font-weight:normal;font-size:35.79973221px;font-family:'Times New Roman';-inkscape-font-specification:TimesNewRomanPSMT;writing-mode:lr-tb;fill:#000000;fill-opacity:1;fill-rule:nonzero;stroke:none;stroke-width:1.33333325"
     id="text50"
     x="53.468266"
     y="188.37157"><tspan
       x="53.468266 71.368134 80.318062"
       y="188.37157"
       id="tspan48"
       style="stroke-width:1.33333325">0.2</tspan></text>
<path
     id="path52"
     style="fill:none;stroke:#000000;stroke-width:0.74582797;stroke-linecap:butt;stroke-linejoin:miter;stroke-miterlimit:3.79999995;stroke-dasharray:none;stroke-opacity:1"
     d="m 113.35466,116.72224 h 4.6292"
     inkscape:connector-curvature="0" /><path
     id="path54"
     style="fill:none;stroke:#000000;stroke-width:0.74582797;stroke-linecap:butt;stroke-linejoin:miter;stroke-miterlimit:3.79999995;stroke-dasharray:none;stroke-opacity:1"
     d="m 694.94798,116.72224 h -4.60933"
     inkscape:connector-curvature="0" /><path
     id="path56"
     style="fill:none;stroke:#000000;stroke-width:0.74582797;stroke-linecap:butt;stroke-linejoin:miter;stroke-miterlimit:3.79999995;stroke-dasharray:none;stroke-opacity:1"
     d="m 113.35466,58.544913 h 9.4052"
     inkscape:connector-curvature="0" /><path
     id="path58"
     style="fill:none;stroke:#000000;stroke-width:0.74582797;stroke-linecap:butt;stroke-linejoin:miter;stroke-miterlimit:3.79999995;stroke-dasharray:none;stroke-opacity:1"
     d="m 694.94798,58.544913 h -9.39066"
     inkscape:connector-curvature="0" /><text
     style="font-variant:normal;font-weight:normal;font-size:35.79973221px;font-family:'Times New Roman';-inkscape-font-specification:TimesNewRomanPSMT;writing-mode:lr-tb;fill:#000000;fill-opacity:1;fill-rule:nonzero;stroke:none;stroke-width:1.33333325"
     id="text64"
     x="53.468266"
     y="72.022247"><tspan
       x="53.468266 71.368134 80.318062"
       y="72.022247"
       id="tspan62"
       style="stroke-width:1.33333325">0.3</tspan></text>
<path
     id="path66"
     style="fill:none;stroke:#000000;stroke-width:0.74582797;stroke-linecap:butt;stroke-linejoin:miter;stroke-miterlimit:3.79999995;stroke-dasharray:none;stroke-opacity:1"
     d="m 113.35466,0.37291399 h 4.6292"
     inkscape:connector-curvature="0" /><path
     id="path68"
     style="fill:none;stroke:#000000;stroke-width:0.74582797;stroke-linecap:butt;stroke-linejoin:miter;stroke-miterlimit:3.79999995;stroke-dasharray:none;stroke-opacity:1"
     d="m 694.94798,0.37291399 h -4.60933"
     inkscape:connector-curvature="0" /><path
     id="path70"
     style="fill:none;stroke:#000000;stroke-width:0.74582797;stroke-linecap:butt;stroke-linejoin:miter;stroke-miterlimit:3.79999995;stroke-dasharray:none;stroke-opacity:1"
     d="m 113.35466,407.4409 v -9.39066"
     inkscape:connector-curvature="0" /><path
     id="path72"
     style="fill:none;stroke:#000000;stroke-width:0.74582797;stroke-linecap:butt;stroke-linejoin:miter;stroke-miterlimit:3.79999995;stroke-dasharray:none;stroke-opacity:1"
     d="M 113.35466,0.37291399 V 9.76358"
     inkscape:connector-curvature="0" /><text
     style="font-variant:normal;font-weight:normal;font-size:35.79973221px;font-family:'Times New Roman';-inkscape-font-specification:TimesNewRomanPSMT;writing-mode:lr-tb;fill:#000000;fill-opacity:1;fill-rule:nonzero;stroke:none;stroke-width:1.33333325"
     id="text78"
     x="80.46933"
     y="444.63422"><tspan
       x="80.46933 92.39064 110.2905 128.19037"
       y="444.63422"
       id="tspan76"
       style="stroke-width:1.33333325">-200</tspan></text>
<path
     id="path80"
     style="fill:none;stroke:#000000;stroke-width:0.74582797;stroke-linecap:butt;stroke-linejoin:miter;stroke-miterlimit:3.79999995;stroke-dasharray:none;stroke-opacity:1"
     d="m 186.00533,407.4409 v -4.63066"
     inkscape:connector-curvature="0" /><path
     id="path82"
     style="fill:none;stroke:#000000;stroke-width:0.74582797;stroke-linecap:butt;stroke-linejoin:miter;stroke-miterlimit:3.79999995;stroke-dasharray:none;stroke-opacity:1"
     d="M 186.00533,0.37291399 V 4.9982472"
     inkscape:connector-curvature="0" /><path
     id="path84"
     style="fill:none;stroke:#000000;stroke-width:0.74582797;stroke-linecap:butt;stroke-linejoin:miter;stroke-miterlimit:3.79999995;stroke-dasharray:none;stroke-opacity:1"
     d="m 258.79199,407.4409 v -9.39066"
     inkscape:connector-curvature="0" /><path
     id="path86"
     style="fill:none;stroke:#000000;stroke-width:0.74582797;stroke-linecap:butt;stroke-linejoin:miter;stroke-miterlimit:3.79999995;stroke-dasharray:none;stroke-opacity:1"
     d="M 258.79199,0.37291399 V 9.76358"
     inkscape:connector-curvature="0" /><text
     style="font-variant:normal;font-weight:normal;font-size:35.79973221px;font-family:'Times New Roman';-inkscape-font-specification:TimesNewRomanPSMT;writing-mode:lr-tb;fill:#000000;fill-opacity:1;fill-rule:nonzero;stroke:none;stroke-width:1.33333325"
     id="text92"
     x="225.90666"
     y="444.63422"><tspan
       x="225.90666 237.82797 255.72783 273.62772"
       y="444.63422"
       id="tspan90"
       style="stroke-width:1.33333325">-100</tspan></text>
<path
     id="path94"
     style="fill:none;stroke:#000000;stroke-width:0.74582797;stroke-linecap:butt;stroke-linejoin:miter;stroke-miterlimit:3.79999995;stroke-dasharray:none;stroke-opacity:1"
     d="m 331.44266,407.4409 v -4.63066"
     inkscape:connector-curvature="0" /><path
     id="path96"
     style="fill:none;stroke:#000000;stroke-width:0.74582797;stroke-linecap:butt;stroke-linejoin:miter;stroke-miterlimit:3.79999995;stroke-dasharray:none;stroke-opacity:1"
     d="M 331.44266,0.37291399 V 4.9982472"
     inkscape:connector-curvature="0" /><path
     id="path98"
     style="fill:none;stroke:#000000;stroke-width:0.74582797;stroke-linecap:butt;stroke-linejoin:miter;stroke-miterlimit:3.79999995;stroke-dasharray:none;stroke-opacity:1"
     d="m 404.22932,407.4409 v -9.39066"
     inkscape:connector-curvature="0" /><path
     id="path100"
     style="fill:none;stroke:#000000;stroke-width:0.74582797;stroke-linecap:butt;stroke-linejoin:miter;stroke-miterlimit:3.79999995;stroke-dasharray:none;stroke-opacity:1"
     d="M 404.22932,0.37291399 V 9.76358"
     inkscape:connector-curvature="0" /><text
     style="font-variant:normal;font-weight:normal;font-size:35.79973221px;font-family:'Times New Roman';-inkscape-font-specification:TimesNewRomanPSMT;writing-mode:lr-tb;fill:#000000;fill-opacity:1;fill-rule:nonzero;stroke:none;stroke-width:1.33333325"
     id="text106"
     x="399.68399"
     y="444.63422"><tspan
       x="399.68399"
       y="444.63422"
       id="tspan104"
       style="stroke-width:1.33333325">0</tspan></text>
<path
     id="path108"
     style="fill:none;stroke:#000000;stroke-width:0.74582797;stroke-linecap:butt;stroke-linejoin:miter;stroke-miterlimit:3.79999995;stroke-dasharray:none;stroke-opacity:1"
     d="m 476.87465,407.4409 v -4.63066"
     inkscape:connector-curvature="0" /><path
     id="path110"
     style="fill:none;stroke:#000000;stroke-width:0.74582797;stroke-linecap:butt;stroke-linejoin:miter;stroke-miterlimit:3.79999995;stroke-dasharray:none;stroke-opacity:1"
     d="M 476.87465,0.37291399 V 4.9982472"
     inkscape:connector-curvature="0" /><path
     id="path112"
     style="fill:none;stroke:#000000;stroke-width:0.74582797;stroke-linecap:butt;stroke-linejoin:miter;stroke-miterlimit:3.79999995;stroke-dasharray:none;stroke-opacity:1"
     d="m 549.51065,407.4409 v -9.39066"
     inkscape:connector-curvature="0" /><path
     id="path114"
     style="fill:none;stroke:#000000;stroke-width:0.74582797;stroke-linecap:butt;stroke-linejoin:miter;stroke-miterlimit:3.79999995;stroke-dasharray:none;stroke-opacity:1"
     d="M 549.51065,0.37291399 V 9.76358"
     inkscape:connector-curvature="0" /><text
     style="font-variant:normal;font-weight:normal;font-size:35.79973221px;font-family:'Times New Roman';-inkscape-font-specification:TimesNewRomanPSMT;writing-mode:lr-tb;fill:#000000;fill-opacity:1;fill-rule:nonzero;stroke:none;stroke-width:1.33333325"
     id="text120"
     x="527.06799"
     y="444.63422"><tspan
       x="527.06799 544.96783 562.86774"
       y="444.63422"
       id="tspan118"
       style="stroke-width:1.33333325">100</tspan></text>
<path
     id="path122"
     style="fill:none;stroke:#000000;stroke-width:0.74582797;stroke-linecap:butt;stroke-linejoin:miter;stroke-miterlimit:3.79999995;stroke-dasharray:none;stroke-opacity:1"
     d="m 622.31198,407.4409 v -4.63066"
     inkscape:connector-curvature="0" /><path
     id="path124"
     style="fill:none;stroke:#000000;stroke-width:0.74582797;stroke-linecap:butt;stroke-linejoin:miter;stroke-miterlimit:3.79999995;stroke-dasharray:none;stroke-opacity:1"
     d="M 622.31198,0.37291399 V 4.9982472"
     inkscape:connector-curvature="0" /><path
     id="path126"
     style="fill:none;stroke:#000000;stroke-width:0.74582797;stroke-linecap:butt;stroke-linejoin:miter;stroke-miterlimit:3.79999995;stroke-dasharray:none;stroke-opacity:1"
     d="m 694.94798,407.4409 v -9.39066"
     inkscape:connector-curvature="0" /><path
     id="path128"
     style="fill:none;stroke:#000000;stroke-width:0.74582797;stroke-linecap:butt;stroke-linejoin:miter;stroke-miterlimit:3.79999995;stroke-dasharray:none;stroke-opacity:1"
     d="M 694.94798,0.37291399 V 9.76358"
     inkscape:connector-curvature="0" /><text
     style="font-variant:normal;font-weight:normal;font-size:35.79973221px;font-family:'Times New Roman';-inkscape-font-specification:TimesNewRomanPSMT;writing-mode:lr-tb;fill:#000000;fill-opacity:1;fill-rule:nonzero;stroke:none;stroke-width:1.33333325"
     id="text134"
     x="672.50531"
     y="444.63422"><tspan
       x="672.50531 690.40521 708.30505"
       y="444.63422"
       id="tspan132"
       style="stroke-width:1.33333325">200</tspan></text>
<path
     id="path136"
     style="fill:none;stroke:#000000;stroke-width:0.74582797;stroke-linecap:butt;stroke-linejoin:miter;stroke-miterlimit:3.79999995;stroke-dasharray:none;stroke-opacity:1"
     d="M 113.35466,407.4409 H 694.94798 V 0.37291399 H 113.35466 Z"
     inkscape:connector-curvature="0" /><path
     id="path138"
     style="fill:none;stroke:#ff0000;stroke-width:2.98330665;stroke-linecap:butt;stroke-linejoin:miter;stroke-miterlimit:3.79999995;stroke-dasharray:none;stroke-opacity:1"
     d="m 694.94798,406.84757 -3.86533,-0.152 -14.32267,-0.156 -14.32266,-0.43733 -14.47334,-0.45867 -14.31333,-0.59333 -14.32267,-0.74534 -14.32266,-0.59333 -14.32267,-0.74533 -14.32266,-0.59334 -14.45867,-0.59333 -14.32267,-0.74533 -14.324,-1.64534 -14.32266,-2.984 -14.30667,-6.42266 -14.32267,-12.67734 -14.47466,-24.46266 -2.83334,-6.86534 -2.828,-7.59333 -2.83333,-8.51067 -2.984,-9.39066 -2.844,-10.30134 -2.83333,-11.188 -2.828,-12.224 -2.984,-12.83333 -2.83333,-14.016 -2.82934,-14.76533 -2.848,-15.21867 -2.828,-16.104 -2.98533,-16.27066 -2.83333,-16.412 -2.828,-16.54134 -2.83334,-16.27066 -2.984,-15.66667 -2.844,-14.76133 -2.83333,-13.71867 -2.828,-12.675995 -2.984,-10.745333 -2.83333,-8.953333 -2.828,-7.150667 -2.84934,-5.083999 -2.828,-2.681334 -2.984,-0.589333 -2.83333,1.776 -2.828,3.885333 -2.83467,6.114667 -2.984,8.051999 -2.844,9.406667 -2.83333,11.328 -2.828,12.541328 -2.984,13.56267 -2.83333,14.032 -2.828,15.05733 -2.84934,15.21867 -2.97866,15.21866 -2.83334,15.05734 -2.83333,14.916 -2.828,14.47466 -2.83333,14.01467 -2.98534,13.428 -2.84266,12.52533 -2.83334,11.932 -2.828,11.188 -2.98533,10.44267 -2.83333,9.55733 -2.828,8.95333 -2.84933,8.052 -14.45734,31.172 -14.32266,18.79734 -14.324,10.728 -14.32267,5.96933 -14.30667,3.44267 -14.324,1.776 -14.47333,1.20266 -14.32267,0.74534 -14.308,0.59333 -14.32266,0.44267 -14.32267,0.45866 -14.32266,0.43734 -14.464,0.45866 -14.32267,0.44267 -14.3224,0.59333 -3.88027,0.152"
     inkscape:connector-curvature="0" /><path
     id="path142"
     style="fill:none;stroke:#0000ff;stroke-width:2.98346663;stroke-linecap:butt;stroke-linejoin:miter;stroke-miterlimit:3.79999995;stroke-dasharray:5.96693318, 5.96693318;stroke-dashoffset:0;stroke-opacity:1"
     d="m 113.35466,403.86224 1.4948,-0.15067 h 4.3224 l 1.4896,-0.15067 H 125 l 1.4896,-0.152 h 2.83333 l 1.48907,-0.14 h 2.83333 l 1.49067,-0.15066 h 4.32266 l 1.49467,-0.152 h 2.97867 l 1.344,-0.156 h 2.97866 l 1.49467,-0.15067 h 1.35467 l 1.48933,-0.136 h 15.95333 l 1.48934,0.136 h 10.15733 l 1.48933,0.15067 1.48934,-0.15067 h 11.63066 l 1.48934,0.15067 h 4.32266 l 1.49467,0.156 h 1.33866 l 1.48934,-0.156 h 2.984 l 1.35466,-0.15067 h 1.49467 l 1.48933,-0.136 1.48934,-0.15067 1.344,-0.15066 2.98,-0.308 h 1.49466 l 1.33867,-0.13467 2.984,-0.308 h 1.48933 l 1.33867,-0.15067 h 1.49467 l 1.48933,-0.15066 h 1.49467 l 1.33866,-0.136 h 1.49067 l 2.984,-0.30667 1.35333,-0.152 1.49067,-0.15067 1.49467,-0.14 1.48933,-0.152 1.33867,-0.15066 1.49466,-0.15067 1.48934,-0.292 1.49466,-0.15067 1.33867,-0.15066 1.48933,-0.308 1.49467,-0.136 1.49067,-0.30134 1.33733,-0.156 1.496,-0.28666 1.48933,-0.308 1.33867,-0.30134 1.49467,-0.28666 1.48933,-0.30667 1.48933,-0.292 1.35467,-0.30267 1.49467,-0.44266 1.48933,-0.45867 1.49467,-0.43733 1.33866,-0.59334 1.48934,-0.60933 1.49466,-0.59333 1.49067,-0.74534 1.33733,-0.59333 1.49467,-0.44267 1.49067,-0.60933 1.48933,-0.59467 1.344,-0.43733 1.48933,-0.45733 1.48934,-0.292 1.49466,-0.152 1.33867,-0.30134 1.48933,-0.44266 1.49467,-0.59334 1.49067,-0.74533 1.35333,-0.90133 1.49467,-1.04667 1.48933,-1.188 1.49067,-1.33733 1.34266,-1.80267 2.98,-4.16667 1.49467,-1.948 1.33867,-1.932 1.48933,-1.93733 1.49467,-1.948 1.48933,-1.932 1.33867,-1.79733 1.49466,-1.932 1.48934,-1.948 1.49066,-1.78134 1.34267,-1.948 1.49067,-1.932 1.48933,-2.24 1.49467,-2.084 1.35466,-2.39066 1.48934,-2.39067 1.49466,-2.676 1.48934,-2.83333 1.33866,-2.54267 1.49467,-2.08267 1.48933,-2.69333 1.48933,-3.42667 1.344,-4.03066 1.48934,-4.76667 1.49066,-5.36933 1.49467,-5.968 1.33867,-6.56267 1.48933,-7.016 1.49467,-7.45867 1.48933,-8.49466 1.33867,-8.66133 1.49466,-8.79734 1.48934,-8.948 1.49466,-8.796 1.35467,-8.79733 1.48933,-8.812 1.48934,-8.95333 1.49466,-8.64667 1.33867,-8.796 1.49067,-8.66133 1.49466,-8.33867 1.48934,-8.36 1.33866,-8.052 1.49467,-7.76 1.48933,-7.60933 1.49467,-7.308 1.33867,-7.156 1.48933,-7.01467 1.49467,-6.55733 1.48933,-6.12 1.33867,-5.66133 1.49466,-5.52667 1.49067,-5.37467 1.48933,-5.067995 1.35334,-4.916 1.496,-4.781333 1.48933,-4.324 1.49467,-4.181333 1.33866,-3.729334 1.48934,-3.865333 1.49466,-4.186666 1.48934,-3.578667 1.33866,-2.828 1.49467,-2.088 1.48933,-1.641333 1.49067,-0.901333 1.34267,-0.301334 1.49066,0.453334 1.48934,0.9 1.49466,1.188 1.33867,1.489333 1.48933,2.24 1.49467,2.828 1.35467,3.442666 1.48933,3.865334 1.49467,4.623999 1.48933,4.933334 1.33867,5.509333 1.49466,5.818666 1.48934,6.572004 1.49066,7.307998 1.34267,7.45866 1.49067,7.744 2.984,15.224 1.33866,7.76 1.48934,7.75067 1.49466,7.76 1.48934,7.75066 1.33866,7.76 1.49467,7.45867 2.98,15.224 1.35867,7.45333 2.97866,14.916 1.496,7.308 1.33734,7.30667 1.49066,7.016 2.984,14.30667 1.33867,7.02133 1.49467,6.864 1.48933,6.70933 1.48933,6.26 1.344,6.27067 1.48934,5.812 1.48933,5.67733 1.496,5.51067 1.33867,5.21866 1.48933,4.932 1.49467,4.91734 1.48933,4.62933 1.35466,4.31867 1.49467,4.172 1.48933,4.036 1.48934,3.88 1.344,3.57866 1.48933,3.42134 2.984,6.27066 1.33867,2.98534 1.48933,2.676 1.496,2.54266 1.48933,2.39067 1.33867,2.23867 1.49467,2.24 1.48933,1.92666 1.49467,1.80267 1.33866,1.776 2.984,2.984 1.48934,1.35467 1.35466,1.18666 1.48934,1.188 2.984,2.09867 1.33866,0.88533 1.49467,0.896 2.98533,1.49467 1.33867,0.74533 1.48933,0.59334 1.49467,0.60933 1.48933,0.59333 1.33867,0.43867 1.49467,0.59867 1.48933,0.45333 1.48933,0.44267 1.344,0.30666 1.49067,0.43734 1.48933,0.308 1.49467,0.43733 1.35333,0.30667 1.49067,0.28666 1.49467,0.15067 1.48933,0.308 1.33867,0.292 1.49466,0.15067 1.48934,0.30266 1.48933,0.15067 1.344,0.292 4.47467,0.45733 1.33733,0.28667 4.47467,0.45867 1.33866,0.13466 2.984,0.308 1.35467,0.15067 1.49467,0.15067 1.48933,0.136 1.48933,0.15066 1.344,0.15734 2.97867,0.30133 h 1.49467 l 1.33866,0.14133 4.47467,0.452 h 1.33867 l 1.49466,0.152 1.48934,0.14 1.48933,0.15067 1.344,0.152 h 1.48933 l 2.98534,0.30667 1.35333,0.136 h 1.48933 l 2.98534,0.30133 1.33733,0.15733 h 1.496 l 1.48933,0.15067 1.48934,0.13467 1.344,0.152 h 1.48933 l 2.984,0.30666 h 1.33866 l 1.48934,0.15067 1.49466,0.136 h 1.49067 l 1.33867,0.15067 h 1.49466 l 2.984,0.308 h 1.35467 l 1.48933,0.15066 h 1.48934 l 1.49466,0.14 h 1.33867 l 1.48933,0.152 h 1.49467 l 1.48933,0.15067 h 1.33867 l 1.49467,0.15067 h 1.49066 l 1.49467,0.152 h 1.33867 l 1.48933,0.14 h 2.984 l 1.33867,0.15066 h 1.49466 l 1.48934,0.152 h 2.844 l 1.49466,0.15067 h 2.984 l 1.33867,0.156 h 2.98533 l 1.48934,0.136 h 2.83333 l 1.48933,0.15067 h 2.83334 l 1.48933,0.15066 h 4.32267 l 1.49066,0.156 h 4.33734 l 1.496,0.152 h 4.32266 l 1.48934,0.13467 h 4.32266 l 1.48934,0.15067 h 7.308 l 1.48933,0.15733 h 2.83333"
     inkscape:connector-curvature="0" /><path
     id="path144"
     style="fill:none;stroke:#000000;stroke-width:0.74582797;stroke-linecap:butt;stroke-linejoin:miter;stroke-miterlimit:3.79999995;stroke-dasharray:none;stroke-opacity:1"
     d="M 113.35466,407.4409 H 694.94798 V 0.37291399 H 113.35466 Z"
     inkscape:connector-curvature="0" /><text
     style="font-variant:normal;font-weight:normal;font-size:34.27199936px;font-family:'Times New Roman';-inkscape-font-specification:TimesNewRomanPSMT;writing-mode:lr-tb;fill:#000000;fill-opacity:1;fill-rule:nonzero;stroke:none;stroke-width:1.33333325"
     id="text304"
     x="520.64532"
     y="57.906246"><tspan
       x="520.64532 541.58551 552.99811 564.41064 589.15503 621.50781 632.92041"
       y="57.906246"
       id="tspan302"
       style="stroke-width:1.33333325">EI-DWIA</tspan></text>
<path
     id="path306"
     style="fill:none;stroke:#ff0000;stroke-width:3.01919985;stroke-linecap:butt;stroke-linejoin:miter;stroke-miterlimit:10;stroke-dasharray:none;stroke-opacity:1"
     d="m 471.68799,46.482246 h 32.64"
     inkscape:connector-curvature="0" /><text
     style="font-variant:normal;font-weight:normal;font-size:34.27199936px;font-family:'Times New Roman';-inkscape-font-specification:TimesNewRomanPSMT;writing-mode:lr-tb;fill:#000000;fill-opacity:1;fill-rule:nonzero;stroke:none;stroke-width:1.33333325"
     id="text320"
     x="520.64532"
     y="95.230247"><tspan
       x="520.64532 541.58551"
       y="95.230247"
       id="tspan318"
       style="stroke-width:1.33333325">TC</tspan></text>
<path
     id="path368"
     style="fill:#000000;fill-opacity:1;fill-rule:evenodd;stroke:none;stroke-width:0.13333333"
     d="m 325.86399,484.55023 -0.036,0.0987 v 0.0987 l -0.0627,0.19866 v 0.068 l -0.036,0.0987 -0.032,0.0627 -0.0307,0.0667 v 0.068 l -0.036,0.0627 -0.032,0.068 -0.0307,0.0307 -0.0373,0.068 -0.0987,0.0987 -0.0627,0.032 -0.0307,0.0307 -0.068,0.0373 -0.068,0.0307 -0.0307,0.0307 h -0.068 l -0.0987,0.0373 h -0.0627 l -0.068,0.0307 h -0.16133 l -0.036,0.032 h -0.58934 c -0.39466,0 -0.76,0 -0.76,0.624 0,0.26666 0.16667,0.396 0.432,0.396 0.88534,0 1.83867,-0.0987 2.76134,-0.0987 1.08266,0 2.20266,0.0987 3.25466,0.0987 0.16134,0 0.588,0 0.588,-0.656 0,-0.364 -0.328,-0.364 -0.78533,-0.364 -1.64667,0 -1.64667,-0.22934 -1.64667,-0.52667 0,-0.396 1.38,-5.71867 1.60934,-6.54133 0.432,0.95333 1.31866,2.104 2.99466,2.104 l -0.0307,-0.724 c -2.14134,0 -2.568,-2.72934 -2.568,-2.92667 0,-0.0627 0,-0.13067 0.0987,-0.52667 l 1.57867,-6.40666 c 0.22933,-0.89067 1.12,-1.812 1.708,-2.30134 1.15066,-1.02133 2.104,-1.25066 2.66666,-1.25066 1.31334,0 2.104,1.152 2.104,3.08933 0,1.94267 -1.088,5.68667 -1.67733,6.93733 -1.11867,2.30134 -2.69733,3.38534 -3.91066,3.38534 l 0.0307,0.724 c 3.81333,0 7.89067,-4.79734 7.89067,-9.59867 0,-3.08933 -1.84267,-5.26133 -4.33867,-5.26133 -1.64533,0 -3.224,1.18266 -4.30666,2.464 -0.328,-1.77067 -1.71334,-2.464 -2.92667,-2.464 -1.51067,0 -2.136,1.28133 -2.43333,1.876 -0.59334,1.11466 -1.02,3.088 -1.02,3.18666 0,0.328 0.328,0.328 0.396,0.328 0.328,0 0.35866,-0.0307 0.55733,-0.75466 0.55733,-2.33334 1.21867,-3.912 2.4,-3.912 0.55733,0 1.02133,0.26133 1.02133,1.51066 0,0.756 -0.0987,1.12 -0.23466,1.67734 z"
     inkscape:connector-curvature="0" /><path
     id="path370"
     style="fill:#000000;fill-opacity:1;fill-rule:evenodd;stroke:none;stroke-width:0.13333333"
     d="m 344.69732,483.46623 0.136,-0.12933 0.0933,-0.0987 0.1,-0.1 0.13466,-0.12933 0.0987,-0.1 0.0627,-0.0667 0.068,-0.0627 0.0627,-0.068 0.068,-0.068 0.0987,-0.0627 0.068,-0.0667 0.0613,-0.068 0.1,-0.0627 0.0987,-0.0987 0.0987,-0.068 0.19866,-0.19867 0.0987,-0.0613 0.12933,-0.1 0.13067,-0.12933 0.136,-0.0987 0.12933,-0.1 0.13067,-0.13467 0.16667,-0.13066 0.16133,-0.13067 0.16667,-0.12933 0.16133,-0.136 c 0.49467,-0.39067 2.204,-1.77067 2.86533,-2.396 1.41067,-1.38 2.296,-2.56667 2.296,-2.828 0,-0.296 -0.29066,-0.296 -0.39066,-0.296 -0.19734,0 -0.296,0.0667 -0.396,0.228 -0.724,1.05333 -1.18134,1.41733 -1.744,1.41733 -0.26,0 -0.62534,-0.036 -1.31334,-0.69333 -0.79066,-0.78534 -1.28,-0.952 -1.80666,-0.952 -1.844,0 -3.05734,2.004 -3.05734,2.69733 0,0.19333 0.22934,0.26 0.36,0.26 0.296,0 0.328,-0.0667 0.42667,-0.296 0.328,-0.81867 1.60933,-0.85467 2.00533,-0.85467 0.52534,0 1.12,0.13067 1.448,0.19734 1.24934,0.26666 1.41067,0.26666 1.97334,0.26666 -0.59334,0.62 -0.98934,1.052 -3.192,2.79067 -1.77067,1.41733 -2.396,1.97467 -2.824,2.464 -1.38534,1.34933 -2.04134,2.33867 -2.04134,2.568 0,0.26 0.29734,0.26 0.396,0.26 0.22934,0 0.26,-0.0307 0.36,-0.22933 0.624,-0.88534 1.348,-1.38 2.14,-1.38 0.26,0 0.588,0 1.21334,0.59333 0.724,0.688 1.18266,1.016 1.90666,1.016 2.468,0 3.97867,-2.76 3.97867,-3.54667 0,-0.26533 -0.22933,-0.29733 -0.35867,-0.29733 -0.29733,0 -0.328,0.1 -0.428,0.36 -0.42666,1.15067 -1.776,1.708 -2.89466,1.708 -0.55734,0 -1.11467,-0.13067 -1.67734,-0.26 -1.052,-0.22933 -1.25066,-0.22933 -1.67733,-0.22933 -0.0307,0 -0.36,0 -0.52667,0.0307 z"
     inkscape:connector-curvature="0" /><path
     id="path372"
     style="fill:#000000;fill-opacity:1;fill-rule:evenodd;stroke:none;stroke-width:0.13333333"
     d="m 366.79199,488.43023 v -0.0987 h -0.032 v -0.0627 h -0.036 v -0.036 h -0.0307 v -0.032 l -0.032,-0.0307 v -0.0373 h -0.036 v -0.0307 l -0.032,-0.0307 h -0.0307 v -0.0373 h -0.036 v -0.0307 h -0.032 v -0.032 l -0.0307,-0.0307 -0.032,-0.036 -0.036,-0.032 -0.032,-0.0307 -0.0307,-0.0373 -0.036,-0.0307 v -0.032 h -0.032 l -0.0307,-0.036 c -4.10934,-4.14 -5.13067,-10.32266 -5.13067,-15.31733 0,-5.71867 1.25067,-11.40667 5.26,-15.516 0.428,-0.396 0.428,-0.464 0.428,-0.52533 0,-0.26667 -0.13067,-0.32934 -0.328,-0.32934 -0.328,0 -3.28667,2.19867 -5.19333,6.376 -1.67734,3.58267 -2.07334,7.23467 -2.07334,9.99467 0,2.53067 0.36,6.51067 2.172,10.192 1.93734,4.04267 4.76667,6.17733 5.09467,6.17733 0.19733,0 0.328,-0.0987 0.328,-0.328 z"
     inkscape:connector-curvature="0" /><path
     id="path374"
     style="fill:#000000;fill-opacity:1;fill-rule:evenodd;stroke:none;stroke-width:0.13333333"
     d="m 376.58799,458.9089 v -0.0307 l -0.0307,-0.036 v -0.032 l -0.036,-0.0307 v -0.0373 l -0.032,-0.0613 -0.0307,-0.068 -0.0373,-0.032 v -0.0307 l -0.0307,-0.036 -0.0307,-0.0627 v -0.0373 l -0.0373,-0.0307 h -0.0307 l -0.032,-0.032 v -0.036 h -0.0307 l -0.036,-0.0307 h -0.032 l -0.0307,-0.032 h -0.0373 l -0.0307,-0.036 h -0.19867 l -0.0667,-0.032 h -5.88 v 1.02133 h 0.78534 c 2.532,0 2.56266,0.36 2.56266,1.54134 v 16.376 c 0,0.88533 0,2.432 -3.348,2.432 v 1.02 c 1.15067,-0.036 2.76,-0.0987 3.812,-0.0987 1.08267,0 2.692,0.0627 3.844,0.0987 v -1.02 c -3.38533,0 -3.38533,-1.54667 -3.38533,-2.432 v -17.65734 h 0.036 l 7.88533,20.38534 c 0.16667,0.428 0.33334,0.724 0.66134,0.724 0.36,0 0.45866,-0.26534 0.58933,-0.624 l 8.056,-20.74534 h 0.032 v 18.80267 c 0,1.18667 -0.068,1.54667 -2.56267,1.54667 h -0.792 v 1.02 c 1.21867,-0.0987 3.42267,-0.0987 4.704,-0.0987 1.28134,0 3.484,0 4.69734,0.0987 v -1.02 h -0.78667 c -2.53067,0 -2.59867,-0.36 -2.59867,-1.54667 v -17.26133 c 0,-1.18134 0.068,-1.54134 2.59867,-1.54134 h 0.78667 v -1.02133 h -5.552 c -0.85467,0 -0.85467,0.032 -1.088,0.62533 l -7.16667,18.44267 z"
     inkscape:connector-curvature="0" /><path
     id="path376"
     style="fill:#000000;fill-opacity:1;fill-rule:evenodd;stroke:none;stroke-width:0.13333333"
     d="m 402.36399,473.01423 0.032,-0.69333 c 0.19733,-4.896 2.95867,-5.71867 4.07733,-5.71867 3.34934,0 3.68267,4.43734 3.68267,5.71867 h -7.76 l -0.032,0.69333 h 9.136 c 0.724,0 0.82267,0 0.82267,-0.69333 0,-3.25467 -1.776,-6.44267 -5.84934,-6.44267 -3.81733,0 -6.83733,3.38534 -6.83733,7.49467 0,4.37467 3.44667,7.56267 7.228,7.56267 3.98,0 5.45867,-3.65067 5.45867,-4.27067 0,-0.33333 -0.26,-0.396 -0.42667,-0.396 -0.29733,0 -0.36,0.19733 -0.42667,0.45867 -1.152,3.38533 -4.07866,3.38533 -4.40666,3.38533 -1.64134,0 -2.95867,-0.98533 -3.71334,-2.204 -0.98533,-1.57733 -0.98533,-3.744 -0.98533,-4.89467 z"
     inkscape:connector-curvature="0" /><path
     id="path378"
     style="fill:#000000;fill-opacity:1;fill-rule:evenodd;stroke:none;stroke-width:0.13333333"
     d="m 433.62532,461.4089 0.036,-0.13467 0.032,-0.0933 0.0667,-0.1 0.0627,-0.0987 0.0373,-0.13466 0.0613,-0.1 0.068,-0.0933 0.0627,-0.0987 0.136,-0.19867 0.0987,-0.0667 0.0627,-0.1 0.0987,-0.0987 0.0987,-0.0627 0.0987,-0.0987 0.19867,-0.136 0.0987,-0.0613 0.13066,-0.068 0.12934,-0.0627 0.136,-0.068 0.13066,-0.0307 0.12934,-0.068 0.16666,-0.0307 0.13067,-0.0373 0.16133,-0.0307 0.16667,-0.032 0.19733,-0.036 0.16267,-0.0307 h 0.19733 l 0.19734,-0.032 h 0.19866 v -1.02133 c -1.02133,0.068 -2.30266,0.1 -3.156,0.1 -0.98533,0 -2.89066,-0.068 -3.74533,-0.1 v 1.02133 c 1.708,0.032 2.396,0.88534 2.396,1.64134 0,0.26533 -0.0987,0.46266 -0.16133,0.66133 l -6.016,15.776 -6.24934,-16.53733 c -0.19866,-0.45734 -0.19866,-0.52 -0.19866,-0.588 0,-0.95334 1.87466,-0.95334 2.69866,-0.95334 v -1.02133 c -1.18266,0.1 -3.45333,0.1 -4.66666,0.1 -1.57867,0 -2.996,-0.068 -4.17734,-0.1 v 1.02133 c 2.13467,0 2.76,0 3.224,1.25067 l 7.59334,20.11867 c 0.22933,0.62533 0.396,0.724 0.82266,0.724 0.55734,0 0.58934,-0.16667 0.756,-0.624 z"
     inkscape:connector-curvature="0" /><path
     id="path380"
     style="fill:#000000;fill-opacity:1;fill-rule:evenodd;stroke:none;stroke-width:0.13333333"
     d="m 452.69332,457.2329 v -0.068 h 0.036 v -0.0627 l 0.0307,-0.0307 v -0.1 l 0.032,-0.036 v -0.0627 h 0.036 v -0.16667 h 0.032 v -0.068 c 0,-0.35866 -0.29733,-0.62 -0.65733,-0.62 -0.23334,0 -0.46267,0.0627 -0.56267,0.26134 l -11.37467,31.22933 c -0.16133,0.432 -0.16133,0.56267 -0.16133,0.59333 0,0.364 0.29733,0.656 0.656,0.656 0.428,0 0.52667,-0.22933 0.724,-0.78666 z"
     inkscape:connector-curvature="0" /><path
     id="path382"
     style="fill:#000000;fill-opacity:1;fill-rule:evenodd;stroke:none;stroke-width:0.13333333"
     d="m 458.51599,473.4409 v -0.724 l 0.0307,-0.22933 v -0.22934 l 0.032,-0.22933 0.0307,-0.19733 v -0.23467 l 0.036,-0.192 0.0627,-0.396 0.068,-0.19867 0.068,-0.35866 0.0987,-0.33334 0.13066,-0.328 0.0987,-0.29733 0.26,-0.52133 0.16667,-0.26534 0.13066,-0.22933 0.16667,-0.19733 0.16133,-0.19867 0.16667,-0.19733 0.19733,-0.16134 0.16267,-0.16666 0.19733,-0.13067 0.16667,-0.12933 0.19733,-0.1 0.16134,-0.0987 0.19866,-0.0987 0.19734,-0.068 0.16133,-0.0627 0.19867,-0.036 0.16666,-0.0627 0.19734,-0.036 h 0.16133 l 0.16667,-0.032 h 0.16266 c 0.296,0 2.36934,0.032 3.52,1.21867 -1.34933,0.0947 -1.54666,1.084 -1.54666,1.51066 0,0.85467 0.59333,1.51067 1.51066,1.51067 0.85867,0 1.516,-0.55733 1.516,-1.54133 0,-2.24 -2.50133,-3.52134 -5.032,-3.52134 -4.07866,0 -7.09866,3.552 -7.09866,7.63067 0,4.172 3.25466,7.42667 7.03066,7.42667 4.40667,0 5.45867,-3.94267 5.45867,-4.27067 0,-0.33333 -0.328,-0.33333 -0.42667,-0.33333 -0.29733,0 -0.36,0.13466 -0.428,0.33333 -0.952,3.05733 -3.088,3.448 -4.30666,3.448 -1.708,0 -4.59867,-1.412 -4.59867,-6.672 z"
     inkscape:connector-curvature="0" /><path
     id="path384"
     style="fill:#000000;fill-opacity:1;fill-rule:evenodd;stroke:none;stroke-width:0.13333333"
     d="m 478.69732,472.3889 v -0.49467 l -0.0307,-0.26133 v -0.26533 l -0.0307,-0.55734 -0.0373,-0.59333 -0.0627,-0.588 -0.0667,-0.62533 -0.068,-0.656 -0.13067,-0.66267 -0.13066,-0.656 -0.12934,-0.68667 -0.396,-1.38533 -0.22933,-0.688 -0.26533,-0.724 -0.13067,-0.328 -0.12933,-0.36533 -0.16667,-0.35867 -0.16267,-0.328 c -1.97333,-4.04133 -4.77066,-6.14667 -5.12933,-6.14667 -0.16667,0 -0.328,0.13067 -0.328,0.32934 0,0.0613 0,0.12933 0.624,0.724 3.22,3.24933 5.09467,8.44666 5.09467,15.31733 0,5.588 -1.21334,11.344 -5.292,15.484 -0.42667,0.396 -0.42667,0.45867 -0.42667,0.55733 0,0.19867 0.16133,0.328 0.328,0.328 0.35867,0 3.28667,-2.23466 5.224,-6.41066 1.67733,-3.584 2.072,-7.22934 2.072,-9.95867 z"
     inkscape:connector-curvature="0" /><path
     id="path422"
     style="fill:#000000;fill-opacity:1;fill-rule:evenodd;stroke:none;stroke-width:0.13333333"
     d="M 2.3025999,354.03424 H 2.1614533 v 0.0373 h -0.068227 v 0.036 h -0.035933 v 0.036 h -0.030733 v 0.032 h -0.036973 v 0.072 H 1.95312 v 0.104 l -0.035933,0.032 v 0.10933 c 0,0.52134 0.3177067,3.80267 0.3854133,4.396 0.035947,0.276 0.2078134,0.48934 0.6614667,0.48934 0.4213466,0 0.4213466,-0.31734 0.4213466,-0.83867 0,-1.67733 0.24532,-1.74533 0.5932267,-1.74533 l 0.69844,0.10533 8.2348927,2.09333 c -1.292187,0.62534 -2.234893,1.64 -2.234893,3.208 l 0.77084,-0.036 c 0,-2.26533 2.85888,-2.756 3.068213,-2.756 0.207867,0 0.421333,0.0733 0.5932,0.10534 l 6.802666,1.744 c 0.6292,0.17733 0.697334,0.17733 1.290667,0.69866 1.9228,1.536 2.480133,2.932 2.480133,3.91067 0,1.74533 -1.917733,2.22933 -3.2812,2.22933 -1.745333,0 -5.999999,-1.11466 -7.604266,-1.916 -2.06244,-1.084 -3.349413,-2.62 -3.349413,-4.016 l -0.77084,0.036 c 0,4.04667 5.12972,8.37467 10.186919,8.37467 3.281334,0 5.583867,-1.916 5.583867,-4.64 0,-0.66133 -0.135867,-2.40667 -2.614533,-4.5 1.464,-0.28133 2.614533,-1.5 2.614533,-3.17733 0,-1.21867 -0.802533,-2.02 -1.9172,-2.58267 -1.254667,-0.55733 -3.385333,-1.01067 -3.452,-1.01067 -0.349467,0 -0.349467,0.312 -0.349467,0.416 0,0.31867 0.1348,0.38534 0.625467,0.49067 2.2708,0.59333 4.328133,1.18667 4.328133,2.61867 0,0.94266 -0.9068,1.048 -1.604133,1.048 -0.838533,0 -1.083867,-0.0733 -1.677067,-0.20934 z"
     inkscape:connector-curvature="0" /><path
     id="path424"
     style="fill:#000000;fill-opacity:1;fill-rule:evenodd;stroke:none;stroke-width:0.13333333"
     d="m 13.082813,335.8569 v -0.452 l -0.03073,-0.0733 v -0.136 l -0.03593,-0.072 v -0.068 l -0.03751,-0.0733 v -0.068 l -0.03072,-0.0667 -0.03595,-0.0733 -0.03749,-0.068 -0.03073,-0.0733 -0.03697,-0.0307 -0.03593,-0.0733 -0.06824,-0.068 h -0.03593 v -0.036 l -0.06823,-0.068 h -0.03593 l -0.03595,-0.036 h -0.03177 l -0.03593,-0.036 -0.03749,-0.032 h -0.06667 l -0.07344,-0.036 h -0.03073 l -0.03697,-0.036 H 11.90156 c -0.839054,0 -0.839054,0.73334 -0.839054,1.328 v 7.952 c 0,5.23467 5.754694,9.11067 9.87496,9.11067 3.067733,0 5.5104,-2.05733 5.5104,-5.23467 l -0.765067,-0.0373 c 0,1.71467 -1.256266,3.10933 -3.7708,3.10933 -1.048,0 -3.870799,-0.42133 -5.928133,-1.64 -2.4104,-1.46933 -2.901053,-3.56266 -2.901053,-4.71333 0,-2.928 2.307853,-3.208 3.38652,-3.208 1.64,0 4.468133,0.69733 6.249466,1.88533 2.0572,1.35867 2.964,3.208 2.964,4.56667 l 0.765067,0.0373 c 0,-4.084 -4.218667,-8.724 -9.5572,-8.724 -0.593333,0 -2.270933,0 -3.807853,1.08267 z"
     inkscape:connector-curvature="0" /><path
     id="path426"
     style="fill:#000000;fill-opacity:1;fill-rule:evenodd;stroke:none;stroke-width:0.13333333"
     d="m 1.292188,317.50357 -0.0375,-0.0373 H 1.188021 l -0.0375,-0.036 H 1.082812 l -0.035937,-0.0307 H 0.9786457 l -0.0359373,-0.0373 H 0.83854131 l -0.0359373,-0.036 H 0.66145865 C 0.28125066,317.32624 0,317.64357 0,318.02357 c 0,0.24533 0.0682292,0.49067 0.28125066,0.59467 l 33.14528134,12.072 c 0.458934,0.17733 0.5948,0.17733 0.6308,0.17733 0.385334,0 0.697334,-0.31733 0.697334,-0.69733 0,-0.45334 -0.244267,-0.55734 -0.837467,-0.77067 z"
     inkscape:connector-curvature="0" /><path
     id="path428"
     style="fill:#000000;fill-opacity:1;fill-rule:evenodd;stroke:none;stroke-width:0.13333333"
     d="m 2.3025999,297.43557 h -0.067707 l -0.037493,0.036 h -0.066667 v 0.0373 h -0.07344 v 0.0307 l -0.030733,0.036 -0.036973,0.0373 v 0.036 l -0.036467,0.032 v 0.104 h -0.035933 v 0.104 c 0,0.52534 0.3177067,3.83867 0.3854133,4.432 0.035947,0.28134 0.2078134,0.48934 0.6614667,0.48934 0.4213466,0 0.4213466,-0.312 0.4213466,-0.83867 0,-1.672 0.24532,-1.744 0.5932267,-1.744 l 0.69844,0.104 8.2348928,2.09333 c -1.292187,0.63067 -2.234893,1.60934 -2.234893,3.17734 l 0.77084,-0.036 c 0,-2.22934 2.85888,-2.71867 3.068213,-2.71867 0.207867,0 0.421333,0.0667 0.5932,0.104 l 6.802666,1.708 c 0.6292,0.17733 0.697334,0.17733 1.290667,0.69733 1.9228,1.53734 2.480133,2.96934 2.480133,3.94267 0,1.74533 -1.917733,2.23467 -3.2812,2.23467 -1.745333,0 -5.999999,-1.11467 -7.604266,-1.916 -2.06244,-1.084 -3.349413,-2.656 -3.349413,-4.052 l -0.77084,0.036 c 0,4.08266 5.12972,8.37466 10.186919,8.37466 3.281334,0 5.583867,-1.88533 5.583867,-4.604 0,-0.69733 -0.135867,-2.44266 -2.614533,-4.536 1.464,-0.28133 2.614533,-1.5 2.614533,-3.14133 0,-1.224 -0.802533,-2.02533 -1.9172,-2.58267 -1.254667,-0.59466 -3.385333,-1.04666 -3.452,-1.04666 -0.349467,0 -0.349467,0.312 -0.349467,0.416 0,0.34933 0.1348,0.38533 0.625467,0.48933 2.2708,0.59467 4.328133,1.224 4.328133,2.652 0,0.94267 -0.9068,1.04667 -1.604133,1.04667 -0.838533,0 -1.083867,-0.068 -1.677067,-0.20934 z"
     inkscape:connector-curvature="0" /><path
     id="path430"
     style="fill:#000000;fill-opacity:1;fill-rule:evenodd;stroke:none;stroke-width:0.13333333"
     d="m 30.286399,295.69024 0.109467,0.0373 0.104133,0.036 0.104134,0.0307 h 0.103733 l 0.06813,0.0373 0.104267,0.036 h 0.0728 l 0.06827,0.0373 0.07187,0.0307 0.06827,0.036 h 0.06773 l 0.03587,0.0373 0.06827,0.0307 0.036,0.036 0.03747,0.068 0.03587,0.0373 0.0308,0.036 0.03693,0.068 0.03653,0.036 0.03173,0.068 0.03587,0.072 v 0.068 l 0.036,0.0733 v 0.068 l 0.03227,0.104 v 0.14 l 0.036,0.068 v 0.59333 c 0,0.42267 0,0.80267 0.661467,0.80267 0.2812,0 0.4224,-0.172 0.4224,-0.45334 0,-0.94266 -0.105333,-1.95333 -0.105333,-2.932 0,-1.11466 0.105333,-2.30266 0.105333,-3.41733 0,-0.176 0,-0.62933 -0.698533,-0.62933 -0.385334,0 -0.385334,0.34933 -0.385334,0.83866 0,1.744 -0.245333,1.744 -0.557333,1.744 -0.416133,0 -6.073467,-1.46266 -6.942667,-1.708 1.0104,-0.45333 2.229067,-1.432 2.229067,-3.21333 l -0.765067,0.036 c 0,2.30267 -2.8964,2.756 -3.104133,2.756 -0.07347,0 -0.1412,0 -0.557333,-0.104 L 15.2136,289.58624 c -0.9428,-0.244 -1.9162,-1.18667 -2.44276,-1.812 -1.082814,-1.224 -1.32292,-2.23467 -1.32292,-2.792 0,-1.396 1.218746,-2.23467 3.27608,-2.23467 2.0624,0 6.035866,1.152 7.363999,1.776 2.442667,1.188 3.5948,2.828 3.5948,4.12 l 0.765067,-0.036 c 0,-4.01067 -5.0932,-8.37467 -10.188,-8.37467 -3.281226,0 -5.582786,1.98934 -5.582786,4.64 0,1.71334 1.254693,3.38534 2.62032,4.536 -1.885427,0.34934 -2.62032,1.84934 -2.62032,3.14134 0,1.60933 1.358853,2.27066 1.989586,2.54666 1.188,0.63067 3.2812,1.084 3.385467,1.084 0.349467,0 0.349467,-0.34933 0.349467,-0.41733 0,-0.34933 -0.0376,-0.38533 -0.8032,-0.55733 -2.478614,-0.59334 -4.15048,-1.292 -4.15048,-2.552 0,-0.588 0.27604,-1.07867 1.60416,-1.07867 0.802586,0 1.188053,0.10533 1.776053,0.24533 z"
     inkscape:connector-curvature="0" /><path
     id="path432"
     style="fill:#000000;fill-opacity:1;fill-rule:evenodd;stroke:none;stroke-width:0.13333333"
     d="m 29.135999,275.69557 -0.136,-0.104 -0.109333,-0.14 -0.104267,-0.104 -0.135866,-0.10533 -0.109334,-0.14 -0.415733,-0.41733 -0.06813,-0.104 -0.07347,-0.104 -0.1036,-0.072 -0.06827,-0.10534 -0.207866,-0.208 -0.07347,-0.14 -0.244267,-0.24533 -0.1036,-0.13467 -0.104133,-0.14133 -0.1412,-0.17733 -0.140133,-0.13467 -0.135867,-0.17733 -0.140133,-0.172 -0.141067,-0.21334 c -0.416267,-0.52133 -1.885467,-2.33333 -2.546933,-3.032 -1.464,-1.50533 -2.724,-2.41066 -3,-2.41066 -0.3172,0 -0.3172,0.31733 -0.3172,0.42133 0,0.208 0.07187,0.276 0.243733,0.41733 1.1204,0.73334 1.5,1.25467 1.5,1.848 0,0.28134 -0.03067,0.66134 -0.7292,1.36 -0.837467,0.83867 -1.014533,1.364 -1.014533,1.95867 0,1.916 2.1292,3.244 2.864133,3.244 0.207733,0 0.276,-0.244 0.276,-0.42133 0,-0.276 -0.06827,-0.34934 -0.312533,-0.41734 -0.870267,-0.38533 -0.906267,-1.744 -0.906267,-2.12933 0,-0.55733 0.1412,-1.188 0.207867,-1.53733 0.2812,-1.35867 0.2812,-1.5 0.2812,-2.124 0.661466,0.624 1.114666,1.07733 2.964133,3.38533 1.5,1.916 2.0932,2.54667 2.619733,3.03067 1.427067,1.432 2.473467,2.16666 2.7188,2.16666 0.2812,0 0.2812,-0.312 0.2812,-0.42133 0,-0.24 -0.03693,-0.31333 -0.245333,-0.41733 -0.942133,-0.66134 -1.4624,-1.396 -1.4624,-2.23467 0,-0.312 0,-0.66133 0.623867,-1.32267 0.734933,-0.73466 1.083866,-1.224 1.083866,-2.02533 0,-2.584 -2.931733,-4.224 -3.770266,-4.224 -0.276134,0 -0.3136,0.28133 -0.3136,0.42133 0,0.276 0.104133,0.34934 0.385466,0.41734 1.218667,0.48933 1.813467,1.92133 1.813467,3.104 0,0.56266 -0.1416,1.156 -0.276,1.78133 -0.245333,1.12 -0.245333,1.328 -0.245333,1.744 0,0.0373 0,0.42267 0.03187,0.55733 z"
     inkscape:connector-curvature="0" /><path
     id="path434"
     style="fill:#000000;fill-opacity:1;fill-rule:evenodd;stroke:none;stroke-width:0.13333333"
     d="m 34.406799,252.28491 h -0.141733 v 0.036 h -0.03013 l -0.0376,0.0307 -0.03587,0.0373 h -0.036 v 0.036 h -0.03227 l -0.03587,0.032 h -0.036 v 0.036 l -0.03173,0.036 -0.03653,0.032 -0.03587,0.036 h -0.03173 v 0.036 h -0.036 v 0.0373 h -0.03747 l -0.036,0.0307 v 0.0373 h -0.03067 l -0.03747,0.036 -0.036,0.0307 v 0.0373 h -0.03173 c -4.399999,4.35867 -10.957333,5.47867 -16.259866,5.47867 -6.073493,0 -12.1094261,-1.328 -16.47349536,-5.62 -0.41718665,-0.416 -0.49062532,-0.416 -0.55729198,-0.416 C 0.0682292,252.28491 0,252.38891 0,252.59691 c 0,0.34933 2.3385466,3.48933 6.7708398,5.54666 3.8026002,1.78134 7.6770262,2.19867 10.6094262,2.19867 2.682267,0 6.906133,-0.38 10.812933,-2.30267 4.2964,-2.09333 6.561467,-5.09333 6.561467,-5.44266 0,-0.208 -0.104134,-0.312 -0.347867,-0.312 z"
     inkscape:connector-curvature="0" /><path
     id="path436"
     style="fill:#000000;fill-opacity:1;fill-rule:evenodd;stroke:none;stroke-width:0.13333333"
     d="m 14.0984,246.41957 h 9.317733 c 1.567733,0 1.567733,0.38534 1.567733,2.724 h 1.0844 c -0.0376,-1.224 -0.104267,-3 -0.104267,-3.94266 0,-0.90534 0.06667,-2.724 0.104267,-3.91067 h -1.0844 c 0,2.33867 0,2.724 -1.567733,2.724 h -6.385467 c -3.629066,0 -5.582746,-2.48 -5.582746,-4.67733 0,-2.19867 1.8802,-2.584 3.86928,-2.584 h 8.098933 c 1.567733,0 1.567733,0.38533 1.567733,2.724 h 1.0844 c -0.0376,-1.224 -0.104267,-3 -0.104267,-3.94267 0,-0.90533 0.06667,-2.724 0.104267,-3.87467 h -1.0844 c 0,2.30267 0,2.688 -1.567733,2.688 h -6.385467 c -3.629066,0 -5.582746,-2.48 -5.582746,-4.67733 0,-2.19867 1.8802,-2.57867 3.86928,-2.57867 h 8.098933 c 1.567733,0 1.567733,0.38 1.567733,2.71867 h 1.0844 c -0.0376,-1.21867 -0.104267,-3 -0.104267,-3.94267 0,-0.90533 0.06667,-2.724 0.104267,-3.90533 h -1.0844 c 0,1.812 0,2.68667 -1.0464,2.71867 H 17.3068 c -3,0 -4.08284,0 -5.337534,1.08266 -0.594786,0.48934 -1.292186,1.64134 -1.292186,3.66134 0,2.90133 2.09376,4.432 3.42132,5.02666 -3.035894,0.48934 -3.42132,3.072 -3.42132,4.64 0,2.516 1.5,4.156 3.666653,5.13067 H 10.67708 l 0.385426,4.92133 h 1.0828 c 0,-2.44266 0.240107,-2.724 1.953094,-2.724 z"
     inkscape:connector-curvature="0" /><path
     id="path438"
     style="fill:#000000;fill-opacity:1;fill-rule:evenodd;stroke:none;stroke-width:0.13333333"
     d="M 12.94792,216.27424 H 1.9171866 l 0.3854133,5.02133 h 1.0828133 c 0,-2.444 0.24532,-2.72 1.9531333,-2.72 H 26.068266 v -0.87466 c -0.0376,-0.0307 -0.527067,-0.312 -2.166667,-1.25467 0.801067,-0.52133 2.546267,-1.95333 2.546267,-4.53733 l -0.765067,0.14133 c 0,1.568 -0.839066,2.828 -2.130666,3.66133 -0.7292,0.45867 -0.833334,0.45867 -1.464134,0.45867 h -7.150533 c -0.666666,0 -0.697333,0 -1.2604,-0.38533 -1.953106,-1.328 -2.229146,-3.24534 -2.229146,-4.084 0,-1.57334 0.906773,-2.828 2.229146,-3.66667 1.432267,-0.90667 3.421334,-1.01067 4.8536,-1.01067 1.255734,0 3.3496,0.0733 4.9172,1.084 1.0828,0.73467 2.234933,2.05734 2.234933,3.94267 l 0.765067,-0.14133 c 0,-4.15067 -3.4172,-7.744 -7.885333,-7.744 -4.431867,0 -7.885453,3.38533 -7.885453,7.35866 0,2.724 1.640106,4.224 2.27084,4.75067 z"
     inkscape:connector-curvature="0" /><path
     id="path440"
     style="fill:#000000;fill-opacity:1;fill-rule:evenodd;stroke:none;stroke-width:0.13333333"
     d="m 1.292188,187.65957 h -0.0375 v -0.036 H 1.188021 l -0.0375,-0.0373 H 1.0468746 l -0.036457,-0.0307 H 0.9427083 L 0.906771,187.51827 H 0.80260398 l -0.0375,-0.036 H 0.66145865 C 0.28125066,187.48224 0,187.79957 0,188.18091 c 0,0.244 0.0682292,0.48933 0.28125066,0.59333 L 33.426532,200.84757 c 0.458934,0.176 0.5948,0.176 0.6308,0.176 0.385334,0 0.697334,-0.31733 0.697334,-0.69733 0,-0.45333 -0.244267,-0.55733 -0.837467,-0.77067 z"
     inkscape:connector-curvature="0" /><path
     id="path442"
     style="fill:#000000;fill-opacity:1;fill-rule:evenodd;stroke:none;stroke-width:0.13333333"
     d="m 34.406799,174.05024 h -0.141733 v 0.036 h -0.03013 l -0.0376,0.032 -0.03587,0.036 h -0.036 v 0.036 h -0.03227 v 0.032 h -0.03587 l -0.036,0.036 -0.03173,0.0373 -0.03653,0.0307 -0.03587,0.036 h -0.03173 v 0.0373 h -0.036 v 0.036 l -0.03747,0.0307 h -0.036 v 0.0373 l -0.03067,0.036 h -0.03747 l -0.036,0.032 v 0.036 l -0.03173,0.036 c -4.399999,4.328 -10.957333,5.44267 -16.259866,5.44267 -6.073493,0 -12.1094261,-1.328 -16.47349536,-5.58267 -0.41718065,-0.4533 -0.49061932,-0.4533 -0.55728598,-0.4533 C 0.0682292,174.05024 0,174.19024 0,174.39957 c 0,0.348 2.3385466,3.452 6.7708398,5.50934 3.8026002,1.78133 7.6770262,2.204 10.6094262,2.204 2.682267,0 6.906133,-0.38534 10.812933,-2.308 4.2964,-2.09334 6.561467,-5.05734 6.561467,-5.40534 0,-0.20933 -0.104134,-0.34933 -0.347867,-0.34933 z"
     inkscape:connector-curvature="0" /><path
     id="path444"
     style="fill:#000000;fill-opacity:1;fill-rule:evenodd;stroke:none;stroke-width:0.13333333"
     d="m 3.0734399,163.64891 -0.037507,0.036 h -0.035933 l -0.035933,0.0373 h -0.032293 l -0.035933,0.0307 -0.06772,0.0373 h -0.073427 l -0.030733,0.036 -0.035933,0.036 h -0.037507 l -0.066667,0.032 -0.1411467,0.14 v 0.0373 l -0.035933,0.0307 v 0.036 l -0.032293,0.0373 v 0.036 l -0.035933,0.0307 v 0.20933 l -0.035947,0.036 v 6.28134 h 1.0828133 v -0.83867 c 0,-2.688 0.3854267,-2.75467 1.6411467,-2.75467 H 22.401599 c 0.942134,0 2.582267,0 2.582267,3.59334 h 1.0844 c -0.0376,-1.21867 -0.104267,-2.932 -0.104267,-4.084 0,-1.15067 0.06667,-2.85867 0.104267,-4.04667 h -1.0844 c 0,3.55733 -1.640133,3.55733 -2.582267,3.55733 H 3.6614532 v -0.0307 l 21.6358798,-8.37467 c 0.452133,-0.17733 0.770933,-0.34933 0.770933,-0.69867 0,-0.38533 -0.281867,-0.48933 -0.666667,-0.63066 l -22.0161858,-8.5466 v -0.036 H 23.343733 c 1.254666,0 1.640133,0.068 1.640133,2.75467 v 0.83866 h 1.0844 c -0.104267,-1.29066 -0.104267,-3.66133 -0.104267,-5.02533 0,-1.36 0,-3.66133 0.104267,-4.95333 h -1.0844 v 0.83867 c 0,2.65066 -0.385467,2.71866 -1.640133,2.71866 H 5.0265599 c -1.25572,0 -1.6411467,-0.068 -1.6411467,-2.71866 v -0.83867 H 2.3025999 v 5.864 c 0,0.90666 0.035947,0.90666 0.6614667,1.152 l 19.5771324,7.604 z"
     inkscape:connector-curvature="0" /><path
     id="path446"
     style="fill:#000000;fill-opacity:1;fill-rule:evenodd;stroke:none;stroke-width:0.13333333"
     d="m 18.0412,136.29558 -0.7344,-0.0373 c -5.197427,-0.208 -6.071907,-3.104 -6.071907,-4.292 0,-3.59333 4.712973,-3.94266 6.071907,-3.94266 v 8.23466 l 0.7344,0.0373 v -9.66667 c 0,-0.772 0,-0.876 -0.7344,-0.876 -3.452134,0 -6.837534,1.84933 -6.837534,6.21333 0,4.01067 3.593267,7.224 7.952067,7.224 4.646933,0 8.026533,-3.62933 8.026533,-7.64533 0,-4.25467 -3.8692,-5.792 -4.535867,-5.792 -0.349466,0 -0.4172,0.24533 -0.4172,0.45333 0,0.31734 0.207867,0.34934 0.489067,0.45867 3.5948,1.18267 3.5948,4.32267 3.5948,4.672 0,1.744 -1.048,3.14 -2.338533,3.91067 -1.6776,1.048 -3.980267,1.048 -5.198933,1.048 z"
     inkscape:connector-curvature="0" /><path
     id="path448"
     style="fill:#000000;fill-opacity:1;fill-rule:evenodd;stroke:none;stroke-width:0.13333333"
     d="m 5.7239599,103.14358 -0.1401067,-0.072 -0.1052133,-0.032 -0.10416,-0.036 -0.10364,-0.068 -0.1401067,-0.0733 -0.1041733,-0.068 -0.1052,-0.036 -0.1041734,-0.068 -0.1093733,-0.104 -0.10364,-0.072 -0.1724,-0.172 -0.1036533,-0.0733 -0.073427,-0.104 -0.1041733,-0.104 -0.067707,-0.104 -0.0724,-0.14133 -0.067707,-0.104 -0.068227,-0.14 -0.07188,-0.10534 -0.067707,-0.14 -0.037493,-0.136 -0.066667,-0.176 -0.037507,-0.14133 -0.035933,-0.172 -0.030733,-0.17733 -0.036973,-0.172 -0.036467,-0.176 -0.03176,-0.209338 v -0.208 l -0.035947,-0.208 v -0.208 H 2.3025999 c 0.07188,1.077338 0.1041734,2.473338 0.1041734,3.379998 0,1.04667 -0.068227,3.072 -0.1041734,3.948 h 1.0828133 c 0.035947,-1.78133 0.9427067,-2.516 1.74532,-2.516 0.27604,0 0.4890533,0.104 0.6973867,0.17734 l 16.7505461,6.34933 -17.5521061,6.62933 c -0.4906267,0.208 -0.5572933,0.208 -0.63072,0.208 -1.0104267,0 -1.0104267,-1.98933 -1.0104267,-2.828 H 2.3025999 c 0.1041734,1.224 0.1041734,3.63067 0.1041734,4.95867 0,1.672 -0.068227,3.17733 -0.1041734,4.432 h 1.0828133 c 0,-2.27067 0,-2.932 1.3224,-3.42133 l 21.3604528,-8.06267 c 0.660933,-0.24 0.765067,-0.416 0.765067,-0.86933 0,-0.59467 -0.171867,-0.66134 -0.661467,-0.83867 z"
     inkscape:connector-curvature="0" /><path
     id="path450"
     style="fill:#000000;fill-opacity:1;fill-rule:evenodd;stroke:none;stroke-width:0.13333333"
     d="m 1.292188,82.904912 -0.0375,-0.03733 H 1.188021 l -0.0375,-0.03067 H 1.082812 L 1.046875,82.799582 H 0.9786457 l -0.0359373,-0.036 H 0.83854131 l -0.0359373,-0.036 H 0.66145865 C 0.28125066,82.727579 0,83.044912 0,83.424912 c 0,0.245333 0.0682292,0.489333 0.28125066,0.593333 L 33.426532,96.091578 c 0.458934,0.141334 0.5948,0.141334 0.6308,0.141334 0.385334,0 0.697334,-0.313334 0.697334,-0.661334 0,-0.453333 -0.244267,-0.557333 -0.837467,-0.766666 z"
     inkscape:connector-curvature="0" /><path
     id="path452"
     style="fill:#000000;fill-opacity:1;fill-rule:evenodd;stroke:none;stroke-width:0.13333333"
     d="m 18.4948,76.727579 h -0.2812 l -0.244267,-0.03733 h -0.485467 l -0.243733,-0.03067 H 16.9948 l -0.2084,-0.036 -0.2452,-0.03733 -0.207867,-0.03067 -0.2136,-0.03733 -0.207733,-0.036 -0.209334,-0.03067 -0.385466,-0.109334 -0.697467,-0.209333 -0.312933,-0.14 -0.280267,-0.136 -0.277067,-0.14 -0.280133,-0.141333 -0.245373,-0.170667 -0.207814,-0.177333 -0.209373,-0.172 -0.208333,-0.177334 -0.17708,-0.172 -0.17084,-0.213333 -0.141147,-0.172 -0.140107,-0.208 -0.1052,-0.177333 -0.207813,-0.417334 -0.0724,-0.175999 -0.06771,-0.209334 -0.03751,-0.170666 -0.06667,-0.214667 -0.03749,-0.172 v -0.208 l -0.03593,-0.177333 v -0.172 c 0,-0.317334 0.03593,-2.514667 1.292187,-3.702667 0.10416,1.396 1.150467,1.609333 1.6094,1.609333 0.9052,0 1.6036,-0.629333 1.6036,-1.573333 0,-0.905333 -0.5932,-1.604 -1.641067,-1.604 -2.374546,0 -3.7334,2.652 -3.7334,5.302667 0,4.363999 3.770867,7.535999 8.093267,7.535999 4.432266,0 7.885333,-3.416 7.885333,-7.462666 0,-4.641333 -4.188,-5.761333 -4.535867,-5.761333 -0.349466,0 -0.349466,0.349333 -0.349466,0.453333 0,0.317333 0.140133,0.385333 0.349466,0.453333 3.249467,1.016 3.666667,3.249334 3.666667,4.536 0,1.854667 -1.5,4.922667 -7.083866,4.922667 z"
     inkscape:connector-curvature="0" /><path
     id="path454"
     style="fill:#000000;fill-opacity:1;fill-rule:evenodd;stroke:none;stroke-width:0.13333333"
     d="m 17.380266,55.268913 h -0.8068 l -0.276133,0.03067 h -0.594667 l -0.6292,0.07333 -0.6256,0.036 -0.666666,0.068 -1.395787,0.208 -0.697387,0.141333 -0.729173,0.172 -0.734893,0.177333 -0.7343736,0.208 -0.7296933,0.245334 -0.7703066,0.28 -0.34948,0.172 -0.3802133,0.141333 -0.3854134,0.172 -0.34792,0.177333 C 2.2348933,59.664913 0,62.628912 0,62.976912 c 0,0.213334 0.140104,0.349334 0.34947866,0.349334 0.0666667,0 0.14010533,0 0.76510534,-0.661334 3.4588559,-3.385333 8.968229,-5.374666 16.265682,-5.374666 5.926533,0 12.035867,1.290667 16.431733,5.582666 0.422933,0.453334 0.490667,0.453334 0.5948,0.453334 0.207733,0 0.347867,-0.136 0.347867,-0.349334 0,-0.348 -2.3744,-3.453333 -6.8016,-5.510666 -3.807733,-1.781333 -7.677067,-2.197333 -10.5728,-2.197333 z"
     inkscape:connector-curvature="0" /><path
     id="path456"
     style="fill:#000000;fill-opacity:1;fill-rule:evenodd;stroke:none;stroke-width:0.13333333"
     d="m 17.380266,41.76358 h -0.8068 l -0.276133,0.036 h -0.594667 l -0.6292,0.068 -0.6256,0.03733 -0.666666,0.06667 -1.395787,0.209333 -0.697387,0.14 -0.729173,0.177333 -0.734893,0.172 -0.7343736,0.208 -0.7296933,0.245334 -0.7703066,0.281333 -0.34948,0.170667 -0.3802133,0.141333 -0.3854134,0.177333 -0.34792,0.172 C 2.2348933,46.15958 0,49.127579 0,49.476913 c 0,0.208 0.140104,0.349333 0.34947866,0.349333 0.0666667,0 0.14010533,0 0.76510534,-0.666667 3.4588559,-3.385333 8.968229,-5.374666 16.265682,-5.374666 5.926533,0 12.035867,1.290667 16.431733,5.582666 0.422933,0.458667 0.490667,0.458667 0.5948,0.458667 0.207733,0 0.347867,-0.141333 0.347867,-0.349333 0,-0.349334 -2.3744,-3.458667 -6.8016,-5.514667 -3.807733,-1.781333 -7.677067,-2.198666 -10.5728,-2.198666 z"
     inkscape:connector-curvature="0" /><path
     id="path458"
     style="fill:none;stroke:#0000ff;stroke-width:2.41535997;stroke-linecap:butt;stroke-linejoin:miter;stroke-miterlimit:6.9000001;stroke-dasharray:4.83071988, 4.83071988;stroke-dashoffset:0;stroke-opacity:1"
     d="m 471.50532,85.356912 h 32.64"
     inkscape:connector-curvature="0" /></svg>