<?xml version="1.0" encoding="UTF-8" standalone="no"?>
<svg
   xmlns:dc="http://purl.org/dc/elements/1.1/"
   xmlns:cc="http://creativecommons.org/ns#"
   xmlns:rdf="http://www.w3.org/1999/02/22-rdf-syntax-ns#"
   xmlns:svg="http://www.w3.org/2000/svg"
   xmlns="http://www.w3.org/2000/svg"
   viewBox="0 0 793.33331 1122.6667"
   height="1122.6667"
   width="793.33331"
   xml:space="preserve"
   id="svg2"
   version="1.1"><metadata
     id="metadata8"><rdf:RDF><cc:Work
         rdf:about=""><dc:format>image/svg+xml</dc:format><dc:type
           rdf:resource="http://purl.org/dc/dcmitype/StillImage" /></cc:Work></rdf:RDF></metadata><defs
     id="defs6" /><g
     transform="matrix(1.3333333,0,0,-1.3333333,0,1122.6667)"
     id="g10"><g
       transform="scale(0.1)"
       id="g12"><path
         id="path14"
         style="fill:none;stroke:#008b00;stroke-width:22.6439991;stroke-linecap:butt;stroke-linejoin:miter;stroke-miterlimit:10;stroke-dasharray:114.444, 68.544;stroke-dashoffset:0;stroke-opacity:1"
         d="m 917.387,4429.04 h 3.062 l 11.016,1.23 10.402,0.61 11.016,0.61 10.406,1.22 11.016,0.62 11.015,0.61 10.403,1.22 11.017,0.62 10.4,0.61 11.02,1.22 10.4,0.61 11.02,1.23 10.4,0.61 11.02,1.23 10.4,0.6 11.02,1.23 10.4,0.61 11.02,1.23 10.4,0.61 11.02,1.22 10.4,1.23 11.02,0.61 10.41,1.22 11.01,0.61 10.4,1.23 11.02,1.22 10.41,0.61 11.01,1.23 11.02,0.61 10.4,1.23 11.02,1.22 10.4,0.61 11.02,1.22 10.4,1.23 11.01,0.61 10.41,1.22 11.02,1.23 10.4,0.61 11.01,1.23 10.41,1.22 11.02,0.61 10.4,1.22 11.01,1.23 10.41,0.61 11.02,1.22 10.4,1.23 11.01,0.61 10.41,1.23 11.02,1.22 10.4,0.61 11.01,1.22 11.02,1.23 10.41,0.61 11.01,1.22 10.41,1.23 11.01,0.61 10.41,1.23 11.01,1.22 10.41,0.61 11.01,1.22 10.41,0.62 11.01,1.22 10.41,0.61 11.01,1.23 10.41,0.61 11.01,1.22 10.41,0.61 11.01,0.62 10.41,1.22 11.01,0.61 10.41,0.61 11.01,0.62 10.41,0.61 11.01,0.61 11.02,0.61 10.4,0.62 11.02,0.61 h 10.4 l 11.02,0.61 10.4,0.61 h 11.02 l 10.4,0.61 h 11.02 10.4 l 11.02,0.61 h 10.4 11.02 10.4 11.02 10.4 11.02 10.4 11.02 10.4 11.02 10.4 11.02 11.01 10.41 11.02 10.4 11.01 10.41 11.02 10.4 11.01 10.41 l 11.01,0.62 h 10.41 l 11.01,0.61 10.41,0.61 11.01,0.61 10.41,0.61 11.01,0.62 10.41,1.22 11.01,0.61 10.41,1.22 11.01,1.23 10.41,1.84 11.01,1.83 11.02,1.84 10.4,2.44 11.02,2.45 10.4,2.45 11.02,3.06 10.4,3.06 11.02,3.68 10.4,4.28 11.02,4.28 10.41,4.9 11.01,5.5 10.4,6.13 11.02,6.12 10.41,7.34 11.01,7.34 10.4,8.57 11.02,9.18 10.41,9.79 11.01,10.41 10.4,11.62 11.02,12.25 10.41,13.46 11.01,14.69 11.02,15.91 10.4,16.52 11.01,18.37 10.41,18.96 11.02,20.81 10.4,22.03 11.01,23.88 10.41,25.09 11.02,26.31 10.4,28.15 11.01,29.99 10.41,31.83 11.02,33.66 10.4,34.88 11.01,36.72 10.41,39.17 11.02,40.39 10.4,42.23 11.02,44.06 10.4,45.29 11.02,47.74 10.4,48.35 11.02,50.18 11.01,52.02 10.41,53.24 11.01,53.86 10.41,55.08 11.01,56.3 10.41,56.92 11.01,58.14 10.41,58.75 11.01,58.14 10.41,58.75 11.01,58.76 10.41,58.13 11.01,58.14 10.41,57.53 11.01,56.31 10.41,55.08 11.01,53.24 10.41,52.02 11.01,49.57 10.41,48.35 11.01,45.9 10.41,43.45 11.01,41.01 11.02,37.94 10.4,34.27 11.02,30.6 10.4,27.54 11.02,23.87 10.4,19.58 11.02,16.53 10.4,11.63 11.02,8.56 10.4,3.68 h 11.02 l 10.4,-3.68 11.02,-8.56 10.4,-11.63 11.02,-16.53 10.4,-19.58 11.02,-23.87 10.4,-27.54 11.02,-30.6 10.4,-34.27 11.02,-37.94 11.02,-41.01 10.4,-43.45 11.01,-45.9 10.41,-48.35 11.01,-49.57 10.41,-52.02 11.01,-53.24 10.41,-55.08 11.01,-56.31 10.41,-57.53 11.01,-57.52 10.41,-58.75 11.01,-58.76 10.41,-58.75 11.01,-58.14 10.41,-58.75 11.01,-58.14 10.41,-56.92 11.01,-56.3 10.41,-55.08 11.01,-53.86 10.41,-53.24 11.02,-52.02 11.01,-50.18 10.4,-48.35 11.02,-47.74 10.41,-45.29 11.01,-44.06 10.4,-42.23 11.02,-41 10.41,-38.56 11.01,-36.72 10.4,-34.88 11.02,-33.66 10.41,-31.83 11.01,-29.99 10.4,-28.15 11.02,-26.31 10.41,-25.09 11.01,-23.88 10.4,-22.03 11.02,-20.81 10.41,-18.96 11.01,-18.37 10.4,-16.52 11.02,-15.91 11.01,-14.69 10.41,-13.46 11.02,-12.25 10.4,-11.62 11.01,-10.41 10.41,-9.79 11.02,-9.18 10.4,-8.57 11.01,-7.34 10.41,-7.34 11.02,-6.12 10.4,-6.13 11.02,-5.5 10.4,-4.9 11.02,-4.28 10.4,-4.28 11.02,-3.68 10.4,-3.06 11.02,-3.06 10.4,-2.45 11.02,-2.45 10.4,-2.44 11.02,-1.84 11.01,-1.83 10.41,-1.84 11.01,-1.23 10.41,-1.22 11.01,-1.22 10.41,-0.61 11.01,-0.62 10.41,-0.61 11.01,-0.61 10.41,-0.61 11.01,-0.61 h 10.41 l 11.01,-0.62 h 10.41 11.01 10.41 11.01 10.41 11.01 10.4 11.02 10.41 11.01 11.02 10.4 11.02 10.4 11.02 10.4 11.02 10.4 11.02 10.4 11.02 10.4 l 11.02,-0.61 h 10.4 11.02 l 10.4,-0.61 h 11.02 l 10.4,-0.61 11.02,-0.61 h 10.4 l 11.02,-0.61 10.4,-0.62 11.02,-0.61 11.01,-0.61 10.41,-0.61 11.01,-0.62 10.41,-0.61 11.01,-0.61 10.41,-1.22 11.01,-0.62 10.41,-0.61 11.01,-1.22 10.41,-0.61 11.01,-1.23 10.41,-0.61 11.01,-1.22 10.41,-0.62 11.02,-1.22 10.4,-0.61 11.01,-1.22 10.41,-1.23 11.02,-0.61 10.4,-1.23 11.01,-1.22 10.41,-0.61 11.02,-1.23 11.01,-1.22 10.4,-0.61 11.02,-1.22 10.41,-1.23 11.01,-0.61 10.4,-1.23 11.02,-1.22 10.41,-0.61 11.01,-1.23 10.4,-1.22 11.02,-0.61 10.41,-1.22 11.01,-1.23 10.4,-0.61 11.02,-1.23 10.41,-1.22 11.01,-0.61 10.4,-1.23 11.02,-1.22 10.41,-0.61 11.01,-1.22 10.4,-1.23 11.02,-0.61 11.01,-1.23 10.41,-0.61 11.02,-1.22 10.4,-1.23 11.02,-0.61 10.4,-1.22 11.02,-0.61 10.4,-1.23 11.02,-1.22 10.4,-0.61 11.02,-1.23 10.4,-0.61 11.02,-1.23 10.4,-0.6 11.02,-1.23 10.4,-0.61 11.02,-1.23 10.4,-0.61 11.02,-1.22 10.4,-0.61 11.02,-0.62 10.4,-1.22 11.02,-0.61 11.01,-0.62 10.41,-1.22 11.01,-0.61 10.41,-0.61 11.01,-1.23 h 3.06" /><path
         id="path16"
         style="fill:none;stroke:#0000ff;stroke-width:22.6439991;stroke-linecap:butt;stroke-linejoin:miter;stroke-miterlimit:10;stroke-dasharray:none;stroke-opacity:1"
         d="m 917.387,4421.7 h 15.301 l 93.632,9.79 68.55,9.8 119.34,4.89 145.65,9.79 110.78,9.8 85.68,4.89 136.47,9.79 77.11,-4.9 94.25,4.9 h 51.41 l 59.98,0.61 42.84,9.18 110.77,5.51 111.38,4.9 42.23,9.18 34.27,9.79 34.27,14.69 25.09,9.79 25.71,19.58 16.53,14.69 25.7,23.87 41.62,63.04 33.04,58.75 50.19,91.8 33.04,77.72 24.48,82.62 24.48,67.94 23.87,102.2 33.05,82.01 15.3,102.2 25.09,72.83 32.44,111.38 15.3,82.62 25.09,72.83 7.34,53.25 24.48,63.03 33.05,97.31 15.92,63.03 25.09,53.25 7.95,34.27 7.96,48.35 h 8.57 l 16.52,19.58 25.09,28.77 8.57,14.68 17.14,14.69 16.52,14.69 25.7,-9.79 26.32,-14.69 17.14,-14.08 26.31,-29.37 53.24,-116.28 26.32,-58.14 26.93,-92.41 27.54,-92.42 26.93,-82.01 36.1,-126.07 26.93,-77.72 18.36,-92.41 44.68,-116.28 17.75,-63.04 26.93,-72.83 26.93,-77.72 18.35,-77.72 26.32,-53.25 35.5,-77.72 26.92,-67.93 26.32,-53.25 35.5,-58.14 43.45,-53.24 26.31,-19.59 25.71,-23.86 42.84,-19.59 34.88,-14.69 34.27,-9.79 51.41,-9.18 59.98,-4.89 h 51.41 l 68.54,-4.9 94.25,-9.79 h 59.97 85.69 l 59.97,0.61 h 50.8 l 59.97,-4.9 68.55,-4.89 h 68.54 l 51.41,-4.9 59.97,-9.79 85.68,-9.18 h 34.28 l 42.84,-4.9 85.68,-4.89 h 42.84 l 77.11,-9.79 h 68.54 l 9.18,-0.62" /><path
         id="path18"
         style="fill:none;stroke:#ff0000;stroke-width:22.6439991;stroke-linecap:butt;stroke-linejoin:miter;stroke-miterlimit:10;stroke-dasharray:22.644, 68.544, 160.344, 68.544;stroke-dashoffset:0;stroke-opacity:1"
         d="M 917.387,4422.93 H 918 l 11.016,0.61 10.406,0.61 11.016,0.61 10.402,0.61 11.015,0.61 10.407,0.62 11.015,0.61 10.403,0.61 11.02,0.61 10.4,1.23 11.02,0.61 10.4,0.61 11.02,0.61 10.4,0.62 11.02,0.6 10.4,0.62 11.02,1.22 10.4,0.61 11.02,0.62 10.4,0.61 11.01,0.61 10.41,1.22 11.02,0.62 10.4,0.61 11.01,0.61 10.41,0.61 11.02,1.22 10.4,0.62 11.01,0.61 10.41,0.61 11.02,1.23 10.4,0.61 11.01,0.61 10.41,0.61 11.02,1.23 10.4,0.61 11.01,0.61 10.41,0.61 11.02,1.23 10.4,0.61 11.02,0.61 10.4,0.61 11.02,0.61 10.4,1.23 11.02,0.61 10.4,0.61 11.02,0.62 10.4,0.61 11.02,0.61 10.4,0.61 11.02,1.22 10.4,0.62 11.02,0.61 10.4,0.61 11.02,0.61 10.4,0.61 11.02,0.62 10.4,0.61 11.02,0.61 10.4,0.61 11.02,0.62 10.4,0.61 11.02,0.61 10.4,0.61 11.02,0.61 10.4,0.61 h 10.41 l 11.01,0.62 11.02,0.61 10.4,0.61 10.41,0.61 h 11.01 l 11.02,0.61 10.4,0.62 h 10.41 l 11.01,0.61 h 11.02 l 10.4,0.61 h 11.01 l 10.41,0.61 h 11.02 10.4 l 11.01,0.62 h 10.41 11.02 10.4 l 11.01,0.6 h 10.41 11.02 10.4 11.02 10.4 11.02 10.4 11.02 10.4 10.4 11.02 11.02 10.4 10.4 11.02 11.02 10.4 l 10.4,0.62 h 11.02 11.02 l 10.4,0.61 h 10.41 l 11.01,0.61 h 11.02 l 10.4,0.61 11.02,0.62 10.4,0.61 11.02,1.22 10.4,0.61 11.02,1.23 10.4,1.22 11.02,1.22 10.4,1.23 11.01,1.84 10.41,1.83 11.02,1.84 10.4,2.45 11.01,2.44 10.41,2.45 11.02,3.06 10.4,3.06 11.01,3.06 10.41,3.67 11.02,4.29 10.4,4.28 11.01,4.9 10.41,4.89 10.4,6.12 11.02,6.13 11.02,6.11 10.4,7.35 10.4,7.34 11.02,8.57 10.4,8.57 11.02,9.79 10.4,9.79 11.02,11.02 10.4,11.63 11.02,12.85 11.02,13.46 10.4,14.08 11.02,15.3 10.4,15.91 11.02,17.14 10.4,18.36 11.02,18.97 10.4,20.19 11.02,22.04 10.4,22.64 11.02,23.87 10.4,25.09 11.02,26.32 10.4,28.15 11.02,28.76 10.4,29.99 11.02,31.21 10.4,33.05 11.02,33.66 10.4,34.88 11.02,36.11 10.4,36.72 10.4,37.95 11.02,39.16 10.41,39.79 11.01,40.39 10.4,40.39 11.02,41.61 10.41,41.62 11.01,41.61 10.4,41.62 11.02,42.23 10.41,41 11.01,41.62 10.4,40.39 11.02,39.78 11.01,38.56 10.41,38.55 11.02,36.72 10.4,35.5 11.01,33.66 10.41,31.82 11.02,29.99 10.4,28.15 11.02,26.32 10.4,23.26 11.02,20.8 10.4,18.36 11.02,15.92 10.4,13.46 11.02,10.4 10.4,7.35 11.02,4.28 10.4,1.23 11.02,-1.23 10.4,-4.28 10.4,-7.35 11.02,-10.4 11.02,-13.46 10.4,-15.92 10.4,-18.36 11.02,-20.8 11.02,-23.87 10.4,-25.71 10.4,-28.15 11.02,-30.6 11.02,-31.82 10.4,-33.66 10.4,-35.5 11.02,-36.72 10.41,-37.94 11.01,-38.56 11.02,-39.78 10.4,-41 10.41,-41.01 11.01,-41 11.02,-42.23 10.4,-41.62 10.41,-42.22 11.01,-41.01 11.02,-41.61 10.4,-41.01 10.41,-40.39 11.01,-39.78 11.02,-38.55 10.4,-37.95 10.41,-36.72 11.01,-36.11 11.02,-34.88 10.4,-33.66 10.4,-32.44 11.02,-31.21 11.02,-30.6 10.4,-28.76 10.4,-27.54 11.02,-26.93 11.02,-25.09 10.4,-23.87 10.4,-22.64 11.02,-21.42 10.4,-20.81 11.02,-18.97 10.4,-18.36 11.02,-17.14 11.02,-15.91 10.4,-15.3 10.4,-14.08 11.02,-13.46 10.4,-12.85 11.02,-11.63 11.02,-11.02 10.4,-9.79 10.41,-9.79 11.01,-8.57 11.02,-8.57 10.4,-7.34 10.41,-7.35 11.01,-6.11 11.02,-6.13 10.4,-6.12 10.41,-4.89 11.01,-4.9 11.02,-4.28 10.4,-4.29 10.41,-3.67 11.01,-3.06 11.02,-3.06 10.4,-3.06 10.41,-2.45 11.01,-2.44 10.4,-2.45 11.02,-1.84 10.41,-1.83 11.01,-1.84 11.02,-1.23 10.4,-1.22 10.41,-1.22 11.01,-1.23 10.4,-0.61 11.02,-1.22 10.4,-0.61 11.02,-0.62 10.4,-0.61 h 11.02 l 11.02,-0.61 h 10.4 l 10.4,-0.61 h 11.02 11.02 l 10.4,-0.62 h 10.4 11.02 11.02 10.4 10.4 11.02 11.02 10.4 10.41 11.01 10.4 11.02 10.41 11.01 11.02 10.4 10.41 l 11.01,-0.6 h 10.4 11.02 10.41 l 11.01,-0.62 h 11.02 10.4 l 10.41,-0.61 h 11.01 l 10.4,-0.61 h 11.02 l 11.01,-0.61 h 10.41 l 10.4,-0.62 11.02,-0.61 h 11.01 l 10.41,-0.61 10.4,-0.61 11.02,-0.61 11.01,-0.62 h 10.41 l 10.4,-0.61 11.02,-0.61 10.4,-0.61 11.02,-0.61 10.4,-0.61 11.02,-0.62 11.02,-0.61 10.4,-0.61 10.4,-0.61 11.02,-0.62 10.4,-0.61 11.02,-0.61 10.4,-0.61 11.02,-0.61 11.02,-0.62 10.4,-1.22 10.4,-0.61 11.02,-0.61 10.4,-0.61 11.02,-0.62 10.41,-0.61 11.01,-0.61 11.02,-1.23 10.4,-0.61 10.41,-0.61 11.01,-0.61 10.4,-0.61 11.02,-1.23 11.02,-0.61 10.4,-0.61 10.4,-0.61 11.02,-1.23 10.41,-0.61 11.01,-0.61 10.4,-0.61 11.02,-1.23 11.01,-0.61 10.41,-0.61 10.4,-0.62 11.02,-1.22 10.41,-0.61 11.01,-0.61 10.4,-0.61 11.02,-0.62 11.01,-1.22 10.41,-0.61 10.4,-0.61 11.02,-0.62 10.41,-0.61 11.01,-1.22 10.4,-0.62 11.02,-0.6 11.02,-0.62 10.4,-0.61 10.4,-0.61 11.02,-0.61 10.4,-1.23 11.02,-0.61 10.4,-0.61 11.02,-0.61 10.4,-0.62 11.02,-0.61 10.4,-0.61 11.02,-0.61 10.4,-0.61 11.02,-0.61 h 0.61" /><path
         id="path20"
         style="fill:none;stroke:#000000;stroke-width:9.18000031;stroke-linecap:butt;stroke-linejoin:miter;stroke-miterlimit:10;stroke-dasharray:none;stroke-opacity:1"
         d="M 918,4396.61 H 5202" /><path
         id="path22"
         style="fill:none;stroke:#000000;stroke-width:9.18000031;stroke-linecap:butt;stroke-linejoin:miter;stroke-miterlimit:10;stroke-dasharray:none;stroke-opacity:1"
         d="M 918,7307.89 H 5202" /><path
         id="path24"
         style="fill:none;stroke:#000000;stroke-width:9.18000031;stroke-linecap:butt;stroke-linejoin:miter;stroke-miterlimit:10;stroke-dasharray:none;stroke-opacity:1"
         d="m 1453.5,4396.61 v 61.2" /><path
         id="path26"
         style="fill:none;stroke:#000000;stroke-width:9.18000031;stroke-linecap:butt;stroke-linejoin:miter;stroke-miterlimit:10;stroke-dasharray:none;stroke-opacity:1"
         d="m 1453.5,7307.89 v -61.2" /><path
         id="path28"
         style="fill:none;stroke:#000000;stroke-width:9.18000031;stroke-linecap:butt;stroke-linejoin:miter;stroke-miterlimit:10;stroke-dasharray:none;stroke-opacity:1"
         d="m 2524.5,4396.61 v 61.2" /><path
         id="path30"
         style="fill:none;stroke:#000000;stroke-width:9.18000031;stroke-linecap:butt;stroke-linejoin:miter;stroke-miterlimit:10;stroke-dasharray:none;stroke-opacity:1"
         d="m 2524.5,7307.89 v -61.2" /><path
         id="path32"
         style="fill:none;stroke:#000000;stroke-width:9.18000031;stroke-linecap:butt;stroke-linejoin:miter;stroke-miterlimit:10;stroke-dasharray:none;stroke-opacity:1"
         d="m 3595.5,4396.61 v 61.2" /><path
         id="path34"
         style="fill:none;stroke:#000000;stroke-width:9.18000031;stroke-linecap:butt;stroke-linejoin:miter;stroke-miterlimit:10;stroke-dasharray:none;stroke-opacity:1"
         d="m 3595.5,7307.89 v -61.2" /><path
         id="path36"
         style="fill:none;stroke:#000000;stroke-width:9.18000031;stroke-linecap:butt;stroke-linejoin:miter;stroke-miterlimit:10;stroke-dasharray:none;stroke-opacity:1"
         d="m 4666.5,4396.61 v 61.2" /><path
         id="path38"
         style="fill:none;stroke:#000000;stroke-width:9.18000031;stroke-linecap:butt;stroke-linejoin:miter;stroke-miterlimit:10;stroke-dasharray:none;stroke-opacity:1"
         d="m 4666.5,7307.89 v -61.2" /><path
         id="path40"
         style="fill:none;stroke:#000000;stroke-width:9.18000031;stroke-linecap:butt;stroke-linejoin:miter;stroke-miterlimit:10;stroke-dasharray:none;stroke-opacity:1"
         d="m 918,4396.61 v 122.4" /><path
         id="path42"
         style="fill:none;stroke:#000000;stroke-width:9.18000031;stroke-linecap:butt;stroke-linejoin:miter;stroke-miterlimit:10;stroke-dasharray:none;stroke-opacity:1"
         d="m 918,7307.89 v -122.4" /><path
         id="path44"
         style="fill:none;stroke:#000000;stroke-width:9.18000031;stroke-linecap:butt;stroke-linejoin:miter;stroke-miterlimit:10;stroke-dasharray:none;stroke-opacity:1"
         d="m 1989,4396.61 v 122.4" /><path
         id="path46"
         style="fill:none;stroke:#000000;stroke-width:9.18000031;stroke-linecap:butt;stroke-linejoin:miter;stroke-miterlimit:10;stroke-dasharray:none;stroke-opacity:1"
         d="m 1989,7307.89 v -122.4" /><path
         id="path48"
         style="fill:none;stroke:#000000;stroke-width:9.18000031;stroke-linecap:butt;stroke-linejoin:miter;stroke-miterlimit:10;stroke-dasharray:none;stroke-opacity:1"
         d="m 3060,4396.61 v 122.4" /><path
         id="path50"
         style="fill:none;stroke:#000000;stroke-width:9.18000031;stroke-linecap:butt;stroke-linejoin:miter;stroke-miterlimit:10;stroke-dasharray:none;stroke-opacity:1"
         d="m 3060,7307.89 v -122.4" /><path
         id="path52"
         style="fill:none;stroke:#000000;stroke-width:9.18000031;stroke-linecap:butt;stroke-linejoin:miter;stroke-miterlimit:10;stroke-dasharray:none;stroke-opacity:1"
         d="m 4131,4396.61 v 122.4" /><path
         id="path54"
         style="fill:none;stroke:#000000;stroke-width:9.18000031;stroke-linecap:butt;stroke-linejoin:miter;stroke-miterlimit:10;stroke-dasharray:none;stroke-opacity:1"
         d="m 4131,7307.89 v -122.4" /><path
         id="path56"
         style="fill:none;stroke:#000000;stroke-width:9.18000031;stroke-linecap:butt;stroke-linejoin:miter;stroke-miterlimit:10;stroke-dasharray:none;stroke-opacity:1"
         d="m 5202,4396.61 v 122.4" /><path
         id="path58"
         style="fill:none;stroke:#000000;stroke-width:9.18000031;stroke-linecap:butt;stroke-linejoin:miter;stroke-miterlimit:10;stroke-dasharray:none;stroke-opacity:1"
         d="m 5202,7307.89 v -122.4" /><g
         transform="scale(10)"
         id="g60"><text
           id="text66"
           style="font-variant:normal;font-weight:normal;font-size:25.70400047px;font-family:'Times New Roman';-inkscape-font-specification:Times-Roman;writing-mode:lr-tb;fill:#000000;fill-opacity:1;fill-rule:nonzero;stroke:none"
           transform="matrix(1,0,0,-1,68.5441,416.038)"><tspan
             id="tspan62"
             y="0"
             x="0 8.559432 21.411432 34.263432 107.10008 115.65952 128.51152 141.36351 231.336 325.58408 338.4361 351.28809 432.68417 445.53616 458.38818">-200-1000100200</tspan><tspan
             id="tspan64"
             y="23.868"
             x="179.62199">p</tspan></text>
<text
           id="text70"
           style="font-variant:normal;font-weight:normal;font-size:18.17639923px;font-family:'Times New Roman';-inkscape-font-specification:Times-Roman;writing-mode:lr-tb;fill:#000000;fill-opacity:1;fill-rule:nonzero;stroke:none"
           transform="matrix(1,0,0,-1,261.1403,381.8884)"><tspan
             id="tspan68"
             y="0"
             x="0">x</tspan></text>
<text
           id="text74"
           style="font-variant:normal;font-weight:normal;font-size:25.70400047px;font-family:'Times New Roman';-inkscape-font-specification:Times-Roman;writing-mode:lr-tb;fill:#000000;fill-opacity:1;fill-rule:nonzero;stroke:none"
           transform="matrix(1,0,0,-1,276.68544,392.17)"><tspan
             id="tspan72"
             y="0"
             x="0 8.559432 31.410288 42.822865 61.381153 68.526863 79.939438">(MeV/c)</tspan></text>
</g><path
         id="path76"
         style="fill:none;stroke:#000000;stroke-width:9.18000031;stroke-linecap:butt;stroke-linejoin:miter;stroke-miterlimit:10;stroke-dasharray:none;stroke-opacity:1"
         d="M 918,4396.61 V 7307.89" /><path
         id="path78"
         style="fill:none;stroke:#000000;stroke-width:9.18000031;stroke-linecap:butt;stroke-linejoin:miter;stroke-miterlimit:10;stroke-dasharray:none;stroke-opacity:1"
         d="M 5202,4396.61 V 7307.89" /><path
         id="path80"
         style="fill:none;stroke:#000000;stroke-width:9.18000031;stroke-linecap:butt;stroke-linejoin:miter;stroke-miterlimit:10;stroke-dasharray:none;stroke-opacity:1"
         d="m 918,4760.75 h 61.199" /><path
         id="path82"
         style="fill:none;stroke:#000000;stroke-width:9.18000031;stroke-linecap:butt;stroke-linejoin:miter;stroke-miterlimit:10;stroke-dasharray:none;stroke-opacity:1"
         d="m 5202,4760.75 h -61.2" /><path
         id="path84"
         style="fill:none;stroke:#000000;stroke-width:9.18000031;stroke-linecap:butt;stroke-linejoin:miter;stroke-miterlimit:10;stroke-dasharray:none;stroke-opacity:1"
         d="m 918,5488.42 h 61.199" /><path
         id="path86"
         style="fill:none;stroke:#000000;stroke-width:9.18000031;stroke-linecap:butt;stroke-linejoin:miter;stroke-miterlimit:10;stroke-dasharray:none;stroke-opacity:1"
         d="m 5202,5488.42 h -61.2" /><path
         id="path88"
         style="fill:none;stroke:#000000;stroke-width:9.18000031;stroke-linecap:butt;stroke-linejoin:miter;stroke-miterlimit:10;stroke-dasharray:none;stroke-opacity:1"
         d="m 918,6216.09 h 61.199" /><path
         id="path90"
         style="fill:none;stroke:#000000;stroke-width:9.18000031;stroke-linecap:butt;stroke-linejoin:miter;stroke-miterlimit:10;stroke-dasharray:none;stroke-opacity:1"
         d="m 5202,6216.09 h -61.2" /><path
         id="path92"
         style="fill:none;stroke:#000000;stroke-width:9.18000031;stroke-linecap:butt;stroke-linejoin:miter;stroke-miterlimit:10;stroke-dasharray:none;stroke-opacity:1"
         d="m 918,6944.36 h 61.199" /><path
         id="path94"
         style="fill:none;stroke:#000000;stroke-width:9.18000031;stroke-linecap:butt;stroke-linejoin:miter;stroke-miterlimit:10;stroke-dasharray:none;stroke-opacity:1"
         d="m 5202,6944.36 h -61.2" /><path
         id="path96"
         style="fill:none;stroke:#000000;stroke-width:9.18000031;stroke-linecap:butt;stroke-linejoin:miter;stroke-miterlimit:10;stroke-dasharray:none;stroke-opacity:1"
         d="m 918,4396.61 h 122.4" /><path
         id="path98"
         style="fill:none;stroke:#000000;stroke-width:9.18000031;stroke-linecap:butt;stroke-linejoin:miter;stroke-miterlimit:10;stroke-dasharray:none;stroke-opacity:1"
         d="M 5202,4396.61 H 5079.6" /><path
         id="path100"
         style="fill:none;stroke:#000000;stroke-width:9.18000031;stroke-linecap:butt;stroke-linejoin:miter;stroke-miterlimit:10;stroke-dasharray:none;stroke-opacity:1"
         d="m 918,5124.28 h 122.4" /><path
         id="path102"
         style="fill:none;stroke:#000000;stroke-width:9.18000031;stroke-linecap:butt;stroke-linejoin:miter;stroke-miterlimit:10;stroke-dasharray:none;stroke-opacity:1"
         d="M 5202,5124.28 H 5079.6" /><path
         id="path104"
         style="fill:none;stroke:#000000;stroke-width:9.18000031;stroke-linecap:butt;stroke-linejoin:miter;stroke-miterlimit:10;stroke-dasharray:none;stroke-opacity:1"
         d="m 918,5852.55 h 122.4" /><path
         id="path106"
         style="fill:none;stroke:#000000;stroke-width:9.18000031;stroke-linecap:butt;stroke-linejoin:miter;stroke-miterlimit:10;stroke-dasharray:none;stroke-opacity:1"
         d="M 5202,5852.55 H 5079.6" /><path
         id="path108"
         style="fill:none;stroke:#000000;stroke-width:9.18000031;stroke-linecap:butt;stroke-linejoin:miter;stroke-miterlimit:10;stroke-dasharray:none;stroke-opacity:1"
         d="m 918,6580.22 h 122.4" /><path
         id="path110"
         style="fill:none;stroke:#000000;stroke-width:9.18000031;stroke-linecap:butt;stroke-linejoin:miter;stroke-miterlimit:10;stroke-dasharray:none;stroke-opacity:1"
         d="M 5202,6580.22 H 5079.6" /><path
         id="path112"
         style="fill:none;stroke:#000000;stroke-width:9.18000031;stroke-linecap:butt;stroke-linejoin:miter;stroke-miterlimit:10;stroke-dasharray:none;stroke-opacity:1"
         d="m 918,7307.89 h 122.4" /><path
         id="path114"
         style="fill:none;stroke:#000000;stroke-width:9.18000031;stroke-linecap:butt;stroke-linejoin:miter;stroke-miterlimit:10;stroke-dasharray:none;stroke-opacity:1"
         d="M 5202,7307.89 H 5079.6" /><g
         transform="scale(10)"
         id="g116"><text
           id="text128"
           style="font-variant:normal;font-weight:normal;font-size:25.70400047px;font-family:'Times New Roman';-inkscape-font-specification:Times-Roman;writing-mode:lr-tb;fill:#000000;fill-opacity:1;fill-rule:nonzero;stroke:none"
           transform="matrix(1,0,0,-1,73.4398,431.032)"><tspan
             id="tspan118"
             y="0"
             x="0">0</tspan><tspan
             id="tspan120"
             y="-72.7668"
             x="-17.0133 -4.1613002 2.2646999">0.1</tspan><tspan
             id="tspan122"
             y="-145.5336"
             x="-19.21682 -6.36482 0.061179999">0.2</tspan><tspan
             id="tspan124"
             y="-218.36169"
             x="-17.992599 -5.1406002 1.2854">0.3</tspan><tspan
             id="tspan126"
             y="-291.12851"
             x="-19.21682 -6.36482 0.061179999">0.4</tspan></text>
<text
           id="text132"
           style="font-variant:normal;font-weight:normal;font-size:25.70400047px;font-family:'Times New Roman';-inkscape-font-specification:Times-Roman;writing-mode:lr-tb;fill:#000000;fill-opacity:1;fill-rule:nonzero;stroke:none"
           transform="matrix(0,1,1,0,37.8215,474.606)"><tspan
             id="tspan130"
             y="0"
             x="0">d</tspan></text>
<text
           id="text136"
           style="font-variant:normal;font-weight:normal;font-size:25.70400047px;font-family:Symbol;-inkscape-font-specification:Symbol;writing-mode:lr-tb;fill:#000000;fill-opacity:1;fill-rule:nonzero;stroke:none"
           transform="matrix(0,1,1,0,37.8215,487.5806)"><tspan
             id="tspan134"
             y="0"
             x="0">σ</tspan></text>
<text
           id="text140"
           style="font-variant:normal;font-weight:normal;font-size:25.70400047px;font-family:'Times New Roman';-inkscape-font-specification:Times-Roman;writing-mode:lr-tb;fill:#000000;fill-opacity:1;fill-rule:nonzero;stroke:none"
           transform="matrix(0,1,1,0,37.8215,503.1255)"><tspan
             id="tspan138"
             y="0"
             x="0 7.1457119 19.997711">/dp</tspan></text>
<text
           id="text144"
           style="font-variant:normal;font-weight:normal;font-size:18.17639923px;font-family:'Times New Roman';-inkscape-font-specification:Times-Roman;writing-mode:lr-tb;fill:#000000;fill-opacity:1;fill-rule:nonzero;stroke:none"
           transform="matrix(0,1,1,0,48.1031,536.0509)"><tspan
             id="tspan142"
             y="0"
             x="0">x</tspan></text>
<text
           id="text148"
           style="font-variant:normal;font-weight:normal;font-size:25.70400047px;font-family:'Times New Roman';-inkscape-font-specification:Times-Roman;writing-mode:lr-tb;fill:#000000;fill-opacity:1;fill-rule:nonzero;stroke:none"
           transform="matrix(0,1,1,0,37.8215,551.59565)"><tspan
             id="tspan146"
             y="0"
             x="0 8.559432 28.557144 41.409145 48.554855 57.114288 79.965141 91.377724 109.936 117.08172 128.49429 137.05373">(mb/(MeV/c))</tspan></text>
</g><path
         id="path150"
         style="fill:none;stroke:#000000;stroke-width:9.18000031;stroke-linecap:butt;stroke-linejoin:miter;stroke-miterlimit:10;stroke-dasharray:none;stroke-opacity:1"
         d="M 918,4396.61 V 7307.89 H 5202 V 4396.61 Z" /><path
         id="path152"
         style="fill:#ffffff;fill-opacity:1;fill-rule:nonzero;stroke:none"
         d="m 3694.64,6290.75 h 1259.5 v 720.32 h -1259.5 z" /><path
         id="path154"
         style="fill:none;stroke:#000000;stroke-width:9.18000031;stroke-linecap:butt;stroke-linejoin:miter;stroke-miterlimit:10;stroke-dasharray:none;stroke-opacity:1"
         d="m 3694.64,7011.07 v -720.32 h 1259.5 v 720.32 z" /><g
         transform="scale(10)"
         id="g156"><text
           id="text160"
           style="font-variant:normal;font-weight:normal;font-size:21.42000008px;font-family:'Times New Roman';-inkscape-font-specification:Times-Roman;writing-mode:lr-tb;fill:#000000;fill-opacity:1;fill-rule:nonzero;stroke:none"
           transform="matrix(1,0,0,-1,413.467,680.605)"><tspan
             id="tspan158"
             y="0"
             x="0 13.08762">TC</tspan></text>
</g><path
         id="path162"
         style="fill:none;stroke:#008b00;stroke-width:22.6439991;stroke-linecap:butt;stroke-linejoin:miter;stroke-miterlimit:10;stroke-dasharray:114.444, 68.544;stroke-dashoffset:0;stroke-opacity:1"
         d="m 3767.47,6876.43 h 244.8" /><g
         transform="scale(10)"
         id="g164"><text
           id="text168"
           style="font-variant:normal;font-weight:normal;font-size:21.42000008px;font-family:'Times New Roman';-inkscape-font-specification:Times-Roman;writing-mode:lr-tb;fill:#000000;fill-opacity:1;fill-rule:nonzero;stroke:none"
           transform="matrix(1,0,0,-1,413.467,659.797)"><tspan
             id="tspan166"
             y="0"
             x="0 11.90952 27.37476 42.84">FAGS</tspan></text>
</g><path
         id="path170"
         style="fill:none;stroke:#0000ff;stroke-width:22.6439991;stroke-linecap:butt;stroke-linejoin:miter;stroke-miterlimit:10;stroke-dasharray:none;stroke-opacity:1"
         d="m 3767.47,6668.96 h 244.8" /><g
         transform="scale(10)"
         id="g172"><text
           id="text176"
           style="font-variant:normal;font-weight:normal;font-size:21.42000008px;font-family:'Times New Roman';-inkscape-font-specification:Times-Roman;writing-mode:lr-tb;fill:#000000;fill-opacity:1;fill-rule:nonzero;stroke:none"
           transform="matrix(1,0,0,-1,413.467,639.05)"><tspan
             id="tspan174"
             y="0"
             x="0 13.08762 27.37476 32.729759 39.862621 55.327862 69.614998">TC (NR)</tspan></text>
</g><path
         id="path178"
         style="fill:none;stroke:#ff0000;stroke-width:22.6439991;stroke-linecap:butt;stroke-linejoin:miter;stroke-miterlimit:10;stroke-dasharray:22.644, 68.544, 160.344, 68.544;stroke-dashoffset:0;stroke-opacity:1"
         d="m 3767.47,6443.14 h 244.8" /><path
         id="path180"
         style="fill:none;stroke:#008b00;stroke-width:22.6439991;stroke-linecap:butt;stroke-linejoin:miter;stroke-miterlimit:10;stroke-dasharray:114.444, 68.544;stroke-dashoffset:0;stroke-opacity:1"
         d="m 917.387,708.695 0.613,0.614 11.016,1.222 10.406,1.227 11.016,1.836 10.402,1.222 11.015,1.836 10.407,1.223 11.015,1.836 10.403,1.227 11.02,1.835 10.4,1.223 11.02,1.836 10.4,1.223 11.02,1.836 10.4,1.836 11.02,1.226 10.4,1.836 11.02,1.836 10.4,1.223 11.02,1.836 10.4,1.836 11.01,1.222 10.41,1.836 11.02,1.84 10.4,1.836 11.01,1.223 10.41,1.836 11.02,1.835 10.4,1.223 11.01,1.836 10.41,1.836 11.02,1.227 10.4,1.835 11.01,1.836 10.41,1.223 11.02,1.836 10.4,1.223 11.01,1.226 10.41,1.836 11.02,1.223 10.4,1.222 11.02,1.836 10.4,1.227 11.02,1.223 10.4,1.222 11.02,1.227 10.4,1.223 11.02,1.222 10.4,1.227 11.02,1.222 10.4,0.614 11.02,1.222 10.4,0.614 11.02,1.222 10.4,0.614 11.02,1.222 10.4,0.613 11.02,0.614 10.4,0.609 11.02,0.613 10.4,1.223 11.02,0.613 h 10.4 l 11.02,0.614 10.4,0.609 11.02,0.613 10.4,0.614 h 10.41 l 11.01,0.609 h 11.02 l 10.4,0.613 h 10.41 l 11.01,0.614 h 11.02 l 10.4,0.609 h 10.41 11.01 11.02 l 10.4,0.613 h 11.01 10.41 11.02 10.4 l 11.01,0.613 h 10.41 11.02 10.4 11.01 10.41 11.02 10.4 11.02 l 10.4,0.61 h 11.02 10.4 11.02 10.4 10.4 l 11.02,0.613 h 11.02 10.4 l 10.4,0.613 h 11.02 l 11.02,0.61 h 10.4 l 10.4,0.613 11.02,0.613 11.02,0.61 10.4,0.613 10.41,0.613 11.01,1.223 11.02,1.223 10.4,1.226 11.02,1.223 10.4,1.222 11.02,1.836 10.4,1.836 11.02,1.836 10.4,2.449 11.02,3.059 10.4,2.449 11.01,3.672 10.41,3.063 11.02,4.281 10.4,4.285 11.01,4.895 10.41,4.898 11.02,6.117 10.4,6.121 11.01,6.735 10.41,7.343 11.02,8.567 10.4,8.566 11.01,9.793 10.41,10.406 10.4,11.016 11.02,12.238 11.02,13.465 10.4,14.074 10.4,14.692 11.02,16.523 10.4,17.137 11.02,17.75 10.4,19.58 11.02,20.81 10.4,22.03 11.02,23.26 11.02,24.48 10.4,25.7 11.02,27.54 10.4,28.76 11.02,29.99 10.4,31.21 11.02,32.44 10.4,34.27 11.02,35.5 10.4,37.33 11.02,37.94 10.4,39.79 11.02,40.39 10.4,42.23 11.02,43.45 10.4,44.67 11.02,46.51 10.4,47.13 11.02,48.35 10.4,49.57 11.02,50.18 10.4,50.19 10.4,51.4 11.02,51.41 10.41,51.41 11.01,52.02 10.4,52.02 11.02,51.41 10.41,52.02 11.01,51.4 10.4,50.19 11.02,49.57 10.41,48.35 11.01,47.73 10.4,47.13 11.02,45.29 11.01,44.06 10.41,42.23 11.02,41.01 10.4,38.55 11.01,36.72 10.41,34.89 11.02,32.43 10.4,29.99 11.02,27.54 10.4,25.09 11.02,22.03 10.4,18.97 11.02,16.53 10.4,13.46 11.02,10.4 10.4,7.96 11.02,4.9 10.4,1.22 11.02,-1.83 10.4,-4.29 10.4,-7.96 11.02,-10.4 11.02,-13.46 10.4,-16.53 10.4,-18.97 11.02,-22.03 11.02,-25.09 10.4,-27.54 10.4,-29.99 11.02,-32.43 11.02,-34.89 10.4,-36.72 10.4,-38.55 11.02,-41.01 10.41,-42.23 11.01,-44.06 11.02,-45.29 10.4,-47.13 10.41,-47.73 11.01,-48.35 11.02,-49.57 10.4,-50.19 10.41,-51.4 11.01,-52.02 11.02,-51.41 10.4,-52.02 10.41,-52.02 11.01,-51.41 11.02,-51.41 10.4,-50.79 10.41,-50.8 11.01,-50.18 11.02,-49.57 10.4,-48.35 10.4,-47.13 11.02,-46.51 11.02,-44.67 10.4,-43.45 10.4,-42.23 11.02,-40.39 11.02,-39.79 10.4,-38.55 10.4,-36.72 11.02,-35.5 10.4,-34.27 11.02,-32.44 10.4,-31.21 11.02,-29.99 11.02,-28.76 10.4,-27.54 10.4,-25.7 11.02,-24.48 10.4,-23.26 11.02,-22.03 11.02,-20.81 10.4,-18.97 10.41,-18.36 11.01,-17.137 11.02,-16.523 10.4,-14.692 10.41,-14.687 11.01,-12.852 11.02,-12.238 10.4,-11.016 10.41,-10.406 11.01,-9.793 11.02,-8.566 10.4,-8.567 10.41,-7.343 11.01,-6.735 11.02,-6.121 10.4,-6.117 10.41,-4.898 11.01,-4.895 10.4,-4.285 11.02,-4.281 10.41,-3.063 11.01,-3.672 11.02,-2.449 10.4,-3.059 10.41,-2.449 11.01,-1.836 10.4,-1.836 11.02,-1.836 10.4,-1.222 11.02,-1.223 10.4,-1.226 11.02,-1.223 11.02,-1.223 10.4,-0.613 10.4,-0.613 11.02,-0.61 11.02,-0.613 10.4,-0.613 h 10.4 l 11.02,-0.61 h 11.02 l 10.4,-0.613 h 10.4 11.02 l 11.02,-0.613 h 10.4 10.41 11.01 10.4 11.02 l 10.41,-0.61 h 11.01 11.02 10.4 10.41 11.01 10.4 11.02 10.41 l 11.01,-0.613 h 11.02 10.4 10.41 11.01 l 10.4,-0.613 h 11.02 11.01 10.41 l 10.4,-0.609 h 11.02 l 11.01,-0.614 h 10.41 l 10.4,-0.613 h 11.02 l 11.01,-0.609 h 10.41 l 10.4,-0.614 11.02,-0.613 10.4,-0.609 11.02,-0.614 h 10.4 l 11.02,-0.613 11.02,-1.223 10.4,-0.613 10.4,-0.609 11.02,-0.614 10.4,-0.613 11.02,-1.222 10.4,-0.614 11.02,-1.222 11.02,-0.614 10.4,-1.222 10.4,-0.614 11.02,-1.222 10.4,-1.227 11.02,-1.222 10.41,-1.223 11.01,-1.227 11.02,-1.222 10.4,-1.223 10.41,-1.227 11.01,-1.836 10.4,-1.222 11.02,-1.223 11.02,-1.836 10.4,-1.226 10.4,-1.223 11.02,-1.836 10.41,-1.223 11.01,-1.836 10.4,-1.835 11.02,-1.227 11.01,-1.836 10.41,-1.836 10.4,-1.223 11.02,-1.835 10.41,-1.836 11.01,-1.223 10.4,-1.836 11.02,-1.84 11.01,-1.836 10.41,-1.222 10.4,-1.836 11.02,-1.836 10.41,-1.223 11.01,-1.836 10.4,-1.836 11.02,-1.226 11.02,-1.836 10.4,-1.836 10.4,-1.223 11.02,-1.836 10.4,-1.223 11.02,-1.835 10.4,-1.227 11.02,-1.836 10.4,-1.223 11.02,-1.836 10.4,-1.222 11.02,-1.836 10.4,-1.227 11.02,-1.222 0.61,-0.614" /><path
         id="path182"
         style="fill:none;stroke:#0000ff;stroke-width:22.6439991;stroke-linecap:butt;stroke-linejoin:miter;stroke-miterlimit:10;stroke-dasharray:none;stroke-opacity:1"
         d="m 917.387,679.32 31.215,3.059 59.968,7.957 85.07,11.629 77.12,7.957 76.5,3.672 77.11,11.625 34.27,4.285 67.93,3.672 77.11,7.957 102.21,7.957 85.68,-4.285 94.25,4.285 h 51.4 59.98 25.7 51.41 l 50.8,7.953 77.11,3.672 68.55,4.285 50.79,7.344 25.71,11.629 25.7,4.285 25.09,11.625 17.14,7.957 17.13,7.344 33.66,11.629 25.1,27.539 25.7,18.972 25.09,31.211 16.52,27.539 16.53,34.887 24.48,38.559 24.48,54.46 41.61,81.4 15.92,39.17 24.47,77.72 32.44,96.7 15.3,69.76 33.05,74.06 15.3,93.02 15.91,58.14 15.91,74.05 32.44,85.07 15.91,62.43 23.87,97.3 7.34,46.52 24.48,73.44 24.48,66.09 23.87,89.35 15.92,50.19 24.48,58.75 25.09,46.51 15.91,42.23 17.13,12.24 16.53,15.3 17.13,7.96 17.14,7.34 25.7,-11.63 34.89,-26.93 26.32,-31.21 34.88,-54.47 18.97,-73.44 17.75,-54.47 26.93,-38.55 17.74,-46.51 0.62,-31.21 26.92,-58.14 18.37,-66.1 26.92,-73.44 9.79,-42.84 17.75,-39.17 0.61,-23.25 26.32,-46.52 0.61,-42.84 18.36,-58.14 18.36,-58.14 18.36,-73.43 36.11,-89.36 9.79,-50.79 26.93,-73.44 26.93,-61.82 18.36,-54.46 17.74,-58.14 26.32,-31.22 26.93,-66.09 26.93,-46.51 26.31,-42.843 26.32,-38.558 44.07,-39.168 v -23.254 l 34.88,-26.93 8.57,3.672 43.45,-30.598 51.4,-19.586 69.16,-11.629 77.11,-7.953 68.55,-3.672 85.68,-7.343 94.25,-4.285 h 42.22 102.82 l 119.95,-3.672 h 77.12 l 94.24,-7.344 94.25,-11.629 85.68,-7.957 94.25,-7.344 86.29,-15.91 111.38,-7.344 26.93,-3.062" /><path
         id="path184"
         style="fill:none;stroke:#ff0000;stroke-width:22.6439991;stroke-linecap:butt;stroke-linejoin:miter;stroke-miterlimit:10;stroke-dasharray:22.644, 68.544, 114.444, 68.544;stroke-dashoffset:0;stroke-opacity:1"
         d="m 917.387,682.992 0.613,0.613 11.016,0.61 10.406,1.226 11.016,1.223 10.402,0.613 11.015,1.223 10.407,1.223 11.015,0.613 10.403,1.223 11.02,1.226 10.4,1.223 11.02,0.613 10.4,1.223 11.02,1.222 10.4,1.227 11.02,1.223 10.4,0.613 11.02,1.223 10.4,1.222 11.02,1.227 10.4,1.222 11.01,0.614 10.41,1.222 11.02,1.227 10.4,1.223 11.01,1.222 10.41,1.227 11.02,1.222 10.4,0.614 11.01,1.222 10.41,1.223 11.02,1.227 10.4,1.222 11.01,1.223 10.41,0.613 11.02,1.223 10.4,1.226 11.01,1.223 10.41,0.613 11.02,1.223 10.4,1.223 11.02,1.226 10.4,0.61 11.02,1.226 10.4,1.223 11.02,0.613 10.4,1.223 11.02,0.613 10.4,1.223 11.02,0.613 10.4,0.609 11.02,1.227 10.4,0.609 11.02,0.614 10.4,0.613 11.02,1.223 10.4,0.613 11.02,0.609 10.4,0.613 11.02,0.614 10.4,0.609 h 11.02 l 10.4,0.613 11.02,0.614 10.4,0.613 h 11.02 l 10.4,0.609 h 10.41 l 11.01,0.614 h 11.02 l 10.4,0.613 h 10.41 11.01 l 11.02,0.609 h 10.4 10.41 11.01 l 11.02,0.614 h 10.4 11.01 10.41 11.02 10.4 11.01 10.41 11.02 10.4 11.01 10.41 l 11.02,0.613 h 10.4 11.02 10.4 11.02 10.4 11.02 10.4 l 10.4,0.609 h 11.02 11.02 l 10.4,0.614 h 10.4 11.02 l 11.02,0.613 10.4,0.609 h 10.4 l 11.02,0.613 11.02,0.614 10.4,0.609 10.41,0.613 11.01,0.614 11.02,1.222 10.4,0.614 11.02,1.222 10.4,1.223 11.02,1.226 10.4,1.223 11.02,1.836 10.4,1.836 11.02,1.836 10.4,2.449 11.01,2.445 10.41,2.45 11.02,2.449 10.4,3.672 11.01,3.058 10.41,3.672 11.02,4.285 10.4,4.286 11.01,4.894 10.41,5.508 11.02,5.508 10.4,6.121 11.01,6.73 10.41,7.344 10.4,7.957 11.02,7.957 11.02,9.18 10.4,9.793 10.4,10.402 11.02,11.016 10.4,12.242 11.02,12.238 10.4,13.465 11.02,14.688 10.4,15.3 11.02,16.524 11.02,17.136 10.4,18.355 11.02,18.98 10.4,20.19 11.02,21.42 10.4,22.04 11.02,23.86 10.4,23.87 11.02,25.7 10.4,26.93 11.02,27.54 10.4,28.77 11.02,29.37 10.4,30.6 11.02,31.82 10.4,31.83 11.02,33.05 10.4,34.27 11.02,34.89 10.4,35.49 11.02,36.72 10.4,37.33 10.4,37.94 11.02,38.56 10.41,38.56 11.01,39.17 10.4,39.78 11.02,39.77 10.41,39.79 11.01,39.16 10.4,39.17 11.02,37.95 10.41,37.94 11.01,36.72 10.4,36.11 11.02,35.49 11.01,34.28 10.41,33.04 11.02,31.83 10.4,29.99 11.01,28.76 10.41,26.93 11.02,25.7 10.4,23.26 11.02,22.03 10.4,19.58 11.02,17.14 10.4,15.3 11.02,13.46 10.4,11.02 11.02,8.57 10.4,5.51 11.02,3.67 10.4,1.22 11.02,-1.22 10.4,-3.67 10.4,-6.12 11.02,-7.96 11.02,-11.02 10.4,-13.46 10.4,-15.3 11.02,-17.14 11.02,-19.58 10.4,-22.03 10.4,-23.26 11.02,-25.7 11.02,-26.93 10.4,-28.76 10.4,-30.6 11.02,-31.83 10.41,-32.43 11.01,-34.28 11.02,-34.88 10.4,-36.11 10.41,-37.33 11.01,-37.94 11.02,-38.56 10.4,-39.17 10.41,-39.16 11.01,-39.79 11.02,-39.16 10.4,-39.78 10.41,-39.17 11.01,-39.17 11.02,-37.95 10.4,-37.94 10.41,-37.33 11.01,-36.11 11.02,-35.49 10.4,-34.89 10.4,-34.27 11.02,-33.05 11.02,-33.04 10.4,-31.22 10.4,-30.6 11.02,-29.99 11.02,-28.15 10.4,-27.54 10.4,-26.93 11.02,-25.09 10.4,-24.48 11.02,-23.25 10.4,-22.65 11.02,-21.42 11.02,-20.19 10.4,-18.98 10.4,-18.355 11.02,-17.136 10.4,-16.524 11.02,-15.3 11.02,-14.079 10.4,-14.074 10.41,-12.238 11.01,-12.242 11.02,-11.016 10.4,-10.402 10.41,-9.793 11.01,-9.18 11.02,-7.957 10.4,-7.957 10.41,-7.344 11.01,-6.73 11.02,-6.121 10.4,-5.508 10.41,-5.508 11.01,-4.894 11.02,-4.286 10.4,-4.285 10.41,-3.672 11.01,-3.058 10.4,-3.672 11.02,-2.449 10.41,-2.45 11.01,-2.445 11.02,-2.449 10.4,-1.836 10.41,-1.836 11.01,-1.836 10.4,-1.223 11.02,-1.226 10.4,-1.223 11.02,-1.222 10.4,-0.614 11.02,-1.222 11.02,-0.614 10.4,-0.613 10.4,-0.609 11.02,-0.614 11.02,-0.613 10.4,-0.609 h 10.4 l 11.02,-0.613 h 11.02 10.4 l 10.4,-0.614 h 11.02 11.02 l 10.4,-0.609 h 10.41 11.01 10.4 11.02 10.41 11.01 11.02 l 10.4,-0.613 h 10.41 11.01 10.4 11.02 10.41 11.01 11.02 10.4 10.41 11.01 10.4 l 11.02,-0.614 h 11.01 10.41 10.4 l 11.02,-0.609 h 11.01 10.41 l 10.4,-0.613 h 11.02 l 11.01,-0.614 h 10.41 l 10.4,-0.609 h 11.02 l 10.4,-0.613 11.02,-0.614 10.4,-0.613 h 11.02 l 11.02,-0.609 10.4,-0.614 10.4,-0.613 11.02,-0.609 10.4,-0.613 11.02,-1.223 10.4,-0.613 11.02,-0.614 11.02,-0.609 10.4,-1.227 10.4,-0.609 11.02,-0.613 10.4,-1.223 11.02,-0.613 10.41,-1.223 11.01,-0.613 11.02,-1.223 10.4,-1.226 10.41,-0.61 11.01,-1.226 10.4,-1.223 11.02,-1.223 11.02,-0.613 10.4,-1.223 10.4,-1.226 11.02,-1.223 10.41,-0.613 11.01,-1.223 10.4,-1.222 11.02,-1.227 11.01,-1.223 10.41,-1.222 10.4,-0.614 11.02,-1.222 10.41,-1.227 11.01,-1.222 10.4,-1.223 11.02,-1.227 11.01,-1.222 10.41,-0.614 10.4,-1.222 11.02,-1.227 10.41,-1.222 11.01,-1.223 10.4,-0.613 11.02,-1.223 11.02,-1.227 10.4,-1.222 10.4,-1.223 11.02,-0.613 10.4,-1.223 11.02,-1.226 10.4,-1.223 11.02,-0.613 10.4,-1.223 11.02,-1.223 10.4,-0.613 11.02,-1.223 10.4,-1.226 11.02,-0.61 0.61,-0.613" /><path
         id="path186"
         style="fill:none;stroke:#000000;stroke-width:9.18000031;stroke-linecap:butt;stroke-linejoin:miter;stroke-miterlimit:10;stroke-dasharray:none;stroke-opacity:1"
         d="M 918,612 H 5202" /><path
         id="path188"
         style="fill:none;stroke:#000000;stroke-width:9.18000031;stroke-linecap:butt;stroke-linejoin:miter;stroke-miterlimit:10;stroke-dasharray:none;stroke-opacity:1"
         d="M 918,3523.29 H 5202" /><path
         id="path190"
         style="fill:none;stroke:#000000;stroke-width:9.18000031;stroke-linecap:butt;stroke-linejoin:miter;stroke-miterlimit:10;stroke-dasharray:none;stroke-opacity:1"
         d="m 1453.5,612 v 61.199" /><path
         id="path192"
         style="fill:none;stroke:#000000;stroke-width:9.18000031;stroke-linecap:butt;stroke-linejoin:miter;stroke-miterlimit:10;stroke-dasharray:none;stroke-opacity:1"
         d="m 1453.5,3523.29 v -61.2" /><path
         id="path194"
         style="fill:none;stroke:#000000;stroke-width:9.18000031;stroke-linecap:butt;stroke-linejoin:miter;stroke-miterlimit:10;stroke-dasharray:none;stroke-opacity:1"
         d="m 2524.5,612 v 61.199" /><path
         id="path196"
         style="fill:none;stroke:#000000;stroke-width:9.18000031;stroke-linecap:butt;stroke-linejoin:miter;stroke-miterlimit:10;stroke-dasharray:none;stroke-opacity:1"
         d="m 2524.5,3523.29 v -61.2" /><path
         id="path198"
         style="fill:none;stroke:#000000;stroke-width:9.18000031;stroke-linecap:butt;stroke-linejoin:miter;stroke-miterlimit:10;stroke-dasharray:none;stroke-opacity:1"
         d="m 3595.5,612 v 61.199" /><path
         id="path200"
         style="fill:none;stroke:#000000;stroke-width:9.18000031;stroke-linecap:butt;stroke-linejoin:miter;stroke-miterlimit:10;stroke-dasharray:none;stroke-opacity:1"
         d="m 3595.5,3523.29 v -61.2" /><path
         id="path202"
         style="fill:none;stroke:#000000;stroke-width:9.18000031;stroke-linecap:butt;stroke-linejoin:miter;stroke-miterlimit:10;stroke-dasharray:none;stroke-opacity:1"
         d="m 4666.5,612 v 61.199" /><path
         id="path204"
         style="fill:none;stroke:#000000;stroke-width:9.18000031;stroke-linecap:butt;stroke-linejoin:miter;stroke-miterlimit:10;stroke-dasharray:none;stroke-opacity:1"
         d="m 4666.5,3523.29 v -61.2" /><path
         id="path206"
         style="fill:none;stroke:#000000;stroke-width:9.18000031;stroke-linecap:butt;stroke-linejoin:miter;stroke-miterlimit:10;stroke-dasharray:none;stroke-opacity:1"
         d="M 918,612 V 734.398" /><path
         id="path208"
         style="fill:none;stroke:#000000;stroke-width:9.18000031;stroke-linecap:butt;stroke-linejoin:miter;stroke-miterlimit:10;stroke-dasharray:none;stroke-opacity:1"
         d="M 918,3523.29 V 3400.88" /><path
         id="path210"
         style="fill:none;stroke:#000000;stroke-width:9.18000031;stroke-linecap:butt;stroke-linejoin:miter;stroke-miterlimit:10;stroke-dasharray:none;stroke-opacity:1"
         d="M 1989,612 V 734.398" /><path
         id="path212"
         style="fill:none;stroke:#000000;stroke-width:9.18000031;stroke-linecap:butt;stroke-linejoin:miter;stroke-miterlimit:10;stroke-dasharray:none;stroke-opacity:1"
         d="M 1989,3523.29 V 3400.88" /><path
         id="path214"
         style="fill:none;stroke:#000000;stroke-width:9.18000031;stroke-linecap:butt;stroke-linejoin:miter;stroke-miterlimit:10;stroke-dasharray:none;stroke-opacity:1"
         d="M 3060,612 V 734.398" /><path
         id="path216"
         style="fill:none;stroke:#000000;stroke-width:9.18000031;stroke-linecap:butt;stroke-linejoin:miter;stroke-miterlimit:10;stroke-dasharray:none;stroke-opacity:1"
         d="M 3060,3523.29 V 3400.88" /><path
         id="path218"
         style="fill:none;stroke:#000000;stroke-width:9.18000031;stroke-linecap:butt;stroke-linejoin:miter;stroke-miterlimit:10;stroke-dasharray:none;stroke-opacity:1"
         d="M 4131,612 V 734.398" /><path
         id="path220"
         style="fill:none;stroke:#000000;stroke-width:9.18000031;stroke-linecap:butt;stroke-linejoin:miter;stroke-miterlimit:10;stroke-dasharray:none;stroke-opacity:1"
         d="M 4131,3523.29 V 3400.88" /><path
         id="path222"
         style="fill:none;stroke:#000000;stroke-width:9.18000031;stroke-linecap:butt;stroke-linejoin:miter;stroke-miterlimit:10;stroke-dasharray:none;stroke-opacity:1"
         d="M 5202,612 V 734.398" /><path
         id="path224"
         style="fill:none;stroke:#000000;stroke-width:9.18000031;stroke-linecap:butt;stroke-linejoin:miter;stroke-miterlimit:10;stroke-dasharray:none;stroke-opacity:1"
         d="M 5202,3523.29 V 3400.88" /><g
         transform="scale(10)"
         id="g226"><text
           id="text232"
           style="font-variant:normal;font-weight:normal;font-size:25.70400047px;font-family:'Times New Roman';-inkscape-font-specification:Times-Roman;writing-mode:lr-tb;fill:#000000;fill-opacity:1;fill-rule:nonzero;stroke:none"
           transform="matrix(1,0,0,-1,68.5441,37.577)"><tspan
             id="tspan228"
             y="0"
             x="0 8.559432 21.411432 34.263432 107.10008 115.65952 128.51152 141.36351 231.336 325.58408 338.4361 351.28809 432.68417 445.53616 458.38818">-200-1000100200</tspan><tspan
             id="tspan230"
             y="23.868"
             x="179.62199">p</tspan></text>
<text
           id="text236"
           style="font-variant:normal;font-weight:normal;font-size:18.17639923px;font-family:'Times New Roman';-inkscape-font-specification:Times-Roman;writing-mode:lr-tb;fill:#000000;fill-opacity:1;fill-rule:nonzero;stroke:none"
           transform="matrix(1,0,0,-1,261.1403,3.4274)"><tspan
             id="tspan234"
             y="0"
             x="0">x</tspan></text>
<text
           id="text240"
           style="font-variant:normal;font-weight:normal;font-size:25.70400047px;font-family:'Times New Roman';-inkscape-font-specification:Times-Roman;writing-mode:lr-tb;fill:#000000;fill-opacity:1;fill-rule:nonzero;stroke:none"
           transform="matrix(1,0,0,-1,276.68544,13.709)"><tspan
             id="tspan238"
             y="0"
             x="0 8.559432 31.410288 42.822865 61.381153 68.526863 79.939438">(MeV/c)</tspan></text>
</g><path
         id="path242"
         style="fill:none;stroke:#000000;stroke-width:9.18000031;stroke-linecap:butt;stroke-linejoin:miter;stroke-miterlimit:10;stroke-dasharray:none;stroke-opacity:1"
         d="M 918,612 V 3523.29" /><path
         id="path244"
         style="fill:none;stroke:#000000;stroke-width:9.18000031;stroke-linecap:butt;stroke-linejoin:miter;stroke-miterlimit:10;stroke-dasharray:none;stroke-opacity:1"
         d="M 5202,612 V 3523.29" /><path
         id="path246"
         style="fill:none;stroke:#000000;stroke-width:9.18000031;stroke-linecap:butt;stroke-linejoin:miter;stroke-miterlimit:10;stroke-dasharray:none;stroke-opacity:1"
         d="m 918,903.313 h 61.199" /><path
         id="path248"
         style="fill:none;stroke:#000000;stroke-width:9.18000031;stroke-linecap:butt;stroke-linejoin:miter;stroke-miterlimit:10;stroke-dasharray:none;stroke-opacity:1"
         d="m 5202,903.313 h -61.2" /><path
         id="path250"
         style="fill:none;stroke:#000000;stroke-width:9.18000031;stroke-linecap:butt;stroke-linejoin:miter;stroke-miterlimit:10;stroke-dasharray:none;stroke-opacity:1"
         d="m 918,1485.32 h 61.199" /><path
         id="path252"
         style="fill:none;stroke:#000000;stroke-width:9.18000031;stroke-linecap:butt;stroke-linejoin:miter;stroke-miterlimit:10;stroke-dasharray:none;stroke-opacity:1"
         d="m 5202,1485.32 h -61.2" /><path
         id="path254"
         style="fill:none;stroke:#000000;stroke-width:9.18000031;stroke-linecap:butt;stroke-linejoin:miter;stroke-miterlimit:10;stroke-dasharray:none;stroke-opacity:1"
         d="m 918,2067.95 h 61.199" /><path
         id="path256"
         style="fill:none;stroke:#000000;stroke-width:9.18000031;stroke-linecap:butt;stroke-linejoin:miter;stroke-miterlimit:10;stroke-dasharray:none;stroke-opacity:1"
         d="m 5202,2067.95 h -61.2" /><path
         id="path258"
         style="fill:none;stroke:#000000;stroke-width:9.18000031;stroke-linecap:butt;stroke-linejoin:miter;stroke-miterlimit:10;stroke-dasharray:none;stroke-opacity:1"
         d="m 918,2649.96 h 61.199" /><path
         id="path260"
         style="fill:none;stroke:#000000;stroke-width:9.18000031;stroke-linecap:butt;stroke-linejoin:miter;stroke-miterlimit:10;stroke-dasharray:none;stroke-opacity:1"
         d="m 5202,2649.96 h -61.2" /><path
         id="path262"
         style="fill:none;stroke:#000000;stroke-width:9.18000031;stroke-linecap:butt;stroke-linejoin:miter;stroke-miterlimit:10;stroke-dasharray:none;stroke-opacity:1"
         d="m 918,3231.97 h 61.199" /><path
         id="path264"
         style="fill:none;stroke:#000000;stroke-width:9.18000031;stroke-linecap:butt;stroke-linejoin:miter;stroke-miterlimit:10;stroke-dasharray:none;stroke-opacity:1"
         d="m 5202,3231.97 h -61.2" /><path
         id="path266"
         style="fill:none;stroke:#000000;stroke-width:9.18000031;stroke-linecap:butt;stroke-linejoin:miter;stroke-miterlimit:10;stroke-dasharray:none;stroke-opacity:1"
         d="m 918,612 h 122.4" /><path
         id="path268"
         style="fill:none;stroke:#000000;stroke-width:9.18000031;stroke-linecap:butt;stroke-linejoin:miter;stroke-miterlimit:10;stroke-dasharray:none;stroke-opacity:1"
         d="M 5202,612 H 5079.6" /><path
         id="path270"
         style="fill:none;stroke:#000000;stroke-width:9.18000031;stroke-linecap:butt;stroke-linejoin:miter;stroke-miterlimit:10;stroke-dasharray:none;stroke-opacity:1"
         d="m 918,1194.01 h 122.4" /><path
         id="path272"
         style="fill:none;stroke:#000000;stroke-width:9.18000031;stroke-linecap:butt;stroke-linejoin:miter;stroke-miterlimit:10;stroke-dasharray:none;stroke-opacity:1"
         d="M 5202,1194.01 H 5079.6" /><path
         id="path274"
         style="fill:none;stroke:#000000;stroke-width:9.18000031;stroke-linecap:butt;stroke-linejoin:miter;stroke-miterlimit:10;stroke-dasharray:none;stroke-opacity:1"
         d="m 918,1776.64 h 122.4" /><path
         id="path276"
         style="fill:none;stroke:#000000;stroke-width:9.18000031;stroke-linecap:butt;stroke-linejoin:miter;stroke-miterlimit:10;stroke-dasharray:none;stroke-opacity:1"
         d="M 5202,1776.64 H 5079.6" /><path
         id="path278"
         style="fill:none;stroke:#000000;stroke-width:9.18000031;stroke-linecap:butt;stroke-linejoin:miter;stroke-miterlimit:10;stroke-dasharray:none;stroke-opacity:1"
         d="m 918,2358.65 h 122.4" /><path
         id="path280"
         style="fill:none;stroke:#000000;stroke-width:9.18000031;stroke-linecap:butt;stroke-linejoin:miter;stroke-miterlimit:10;stroke-dasharray:none;stroke-opacity:1"
         d="M 5202,2358.65 H 5079.6" /><path
         id="path282"
         style="fill:none;stroke:#000000;stroke-width:9.18000031;stroke-linecap:butt;stroke-linejoin:miter;stroke-miterlimit:10;stroke-dasharray:none;stroke-opacity:1"
         d="m 918,2941.27 h 122.4" /><path
         id="path284"
         style="fill:none;stroke:#000000;stroke-width:9.18000031;stroke-linecap:butt;stroke-linejoin:miter;stroke-miterlimit:10;stroke-dasharray:none;stroke-opacity:1"
         d="M 5202,2941.27 H 5079.6" /><path
         id="path286"
         style="fill:none;stroke:#000000;stroke-width:9.18000031;stroke-linecap:butt;stroke-linejoin:miter;stroke-miterlimit:10;stroke-dasharray:none;stroke-opacity:1"
         d="m 918,3523.29 h 122.4" /><path
         id="path288"
         style="fill:none;stroke:#000000;stroke-width:9.18000031;stroke-linecap:butt;stroke-linejoin:miter;stroke-miterlimit:10;stroke-dasharray:none;stroke-opacity:1"
         d="M 5202,3523.29 H 5079.6" /><g
         transform="scale(10)"
         id="g290"><text
           id="text304"
           style="font-variant:normal;font-weight:normal;font-size:25.70400047px;font-family:'Times New Roman';-inkscape-font-specification:Times-Roman;writing-mode:lr-tb;fill:#000000;fill-opacity:1;fill-rule:nonzero;stroke:none"
           transform="matrix(1,0,0,-1,73.4398,52.5707)"><tspan
             id="tspan292"
             y="0"
             x="0">0</tspan><tspan
             id="tspan294"
             y="-58.201199"
             x="-17.0133 -4.1613002 2.2646999">0.1</tspan><tspan
             id="tspan296"
             y="-116.4637"
             x="-19.21682 -6.36482 0.061179999">0.2</tspan><tspan
             id="tspan298"
             y="-174.6649"
             x="-17.992599 -5.1406002 1.2854">0.3</tspan><tspan
             id="tspan300"
             y="-232.8661"
             x="-19.21682 -6.36482 0.061179999">0.4</tspan><tspan
             id="tspan302"
             y="-291.00629"
             x="-18.237522 -5.3855228 1.040477">0.5</tspan></text>
<text
           id="text308"
           style="font-variant:normal;font-weight:normal;font-size:25.70400047px;font-family:'Times New Roman';-inkscape-font-specification:Times-Roman;writing-mode:lr-tb;fill:#000000;fill-opacity:1;fill-rule:nonzero;stroke:none"
           transform="matrix(0,1,1,0,37.8215,96.1453)"><tspan
             id="tspan306"
             y="0"
             x="0">d</tspan></text>
<text
           id="text312"
           style="font-variant:normal;font-weight:normal;font-size:25.70400047px;font-family:Symbol;-inkscape-font-specification:Symbol;writing-mode:lr-tb;fill:#000000;fill-opacity:1;fill-rule:nonzero;stroke:none"
           transform="matrix(0,1,1,0,37.8215,109.0586)"><tspan
             id="tspan310"
             y="0"
             x="0">σ</tspan></text>
<text
           id="text316"
           style="font-variant:normal;font-weight:normal;font-size:25.70400047px;font-family:'Times New Roman';-inkscape-font-specification:Times-Roman;writing-mode:lr-tb;fill:#000000;fill-opacity:1;fill-rule:nonzero;stroke:none"
           transform="matrix(0,1,1,0,37.8215,124.6645)"><tspan
             id="tspan314"
             y="0"
             x="0 7.1457119 19.997711">/dp</tspan></text>
<text
           id="text320"
           style="font-variant:normal;font-weight:normal;font-size:18.17639923px;font-family:'Times New Roman';-inkscape-font-specification:Times-Roman;writing-mode:lr-tb;fill:#000000;fill-opacity:1;fill-rule:nonzero;stroke:none"
           transform="matrix(0,1,1,0,48.1031,157.5899)"><tspan
             id="tspan318"
             y="0"
             x="0">x</tspan></text>
<text
           id="text324"
           style="font-variant:normal;font-weight:normal;font-size:25.70400047px;font-family:'Times New Roman';-inkscape-font-specification:Times-Roman;writing-mode:lr-tb;fill:#000000;fill-opacity:1;fill-rule:nonzero;stroke:none"
           transform="matrix(0,1,1,0,37.8215,173.13504)"><tspan
             id="tspan322"
             y="0"
             x="0 8.559432 28.557144 41.409145 48.554855 57.114288 79.965141 91.377724 109.936 117.08172 128.49429 137.05373">(mb/(MeV/c))</tspan></text>
</g><path
         id="path326"
         style="fill:none;stroke:#000000;stroke-width:9.18000031;stroke-linecap:butt;stroke-linejoin:miter;stroke-miterlimit:10;stroke-dasharray:none;stroke-opacity:1"
         d="M 918,612 V 3523.29 H 5202 V 612 Z" /><path
         id="path328"
         style="fill:#ffffff;fill-opacity:1;fill-rule:nonzero;stroke:none"
         d="m 3829.29,2571.01 h 1259.5 v 719.711 h -1259.5 z" /><path
         id="path330"
         style="fill:none;stroke:#000000;stroke-width:9.18000031;stroke-linecap:butt;stroke-linejoin:miter;stroke-miterlimit:10;stroke-dasharray:none;stroke-opacity:1"
         d="m 3829.29,3290.72 v -719.71 h 1259.49 v 719.71 z" /><g
         transform="scale(10)"
         id="g332"><text
           id="text336"
           style="font-variant:normal;font-weight:normal;font-size:21.42000008px;font-family:'Times New Roman';-inkscape-font-specification:Times-Roman;writing-mode:lr-tb;fill:#000000;fill-opacity:1;fill-rule:nonzero;stroke:none"
           transform="matrix(1,0,0,-1,426.931,308.57)"><tspan
             id="tspan334"
             y="0"
             x="0 13.08762">TC</tspan></text>
</g><path
         id="path338"
         style="fill:none;stroke:#008b00;stroke-width:22.6439991;stroke-linecap:butt;stroke-linejoin:miter;stroke-miterlimit:10;stroke-dasharray:114.444, 68.544;stroke-dashoffset:0;stroke-opacity:1"
         d="m 3902.11,3156.7 h 244.8" /><g
         transform="scale(10)"
         id="g340"><text
           id="text344"
           style="font-variant:normal;font-weight:normal;font-size:21.42000008px;font-family:'Times New Roman';-inkscape-font-specification:Times-Roman;writing-mode:lr-tb;fill:#000000;fill-opacity:1;fill-rule:nonzero;stroke:none"
           transform="matrix(1,0,0,-1,426.931,287.823)"><tspan
             id="tspan342"
             y="0"
             x="0 11.90952 27.37476 42.84">FAGS</tspan></text>
</g><path
         id="path346"
         style="fill:none;stroke:#0000ff;stroke-width:22.6439991;stroke-linecap:butt;stroke-linejoin:miter;stroke-miterlimit:10;stroke-dasharray:none;stroke-opacity:1"
         d="m 3902.11,2949.23 h 244.8" /><g
         transform="scale(10)"
         id="g348"><text
           id="text352"
           style="font-variant:normal;font-weight:normal;font-size:21.42000008px;font-family:'Times New Roman';-inkscape-font-specification:Times-Roman;writing-mode:lr-tb;fill:#000000;fill-opacity:1;fill-rule:nonzero;stroke:none"
           transform="matrix(1,0,0,-1,426.931,267.077)"><tspan
             id="tspan350"
             y="0"
             x="0 13.08762 27.37476 32.729759 39.862621 55.327862 69.614998">TC (NR)</tspan></text>
</g><path
         id="path354"
         style="fill:none;stroke:#ff0000;stroke-width:22.6439991;stroke-linecap:butt;stroke-linejoin:miter;stroke-miterlimit:10;stroke-dasharray:22.644, 68.544, 114.444, 68.544;stroke-dashoffset:0;stroke-opacity:1"
         d="m 3902.11,2723.4 h 244.8" /><g
         transform="scale(10)"
         id="g356"><text
           id="text362"
           style="font-variant:normal;font-weight:normal;font-size:25.70400047px;font-family:'Times New Roman';-inkscape-font-specification:Times-Roman;writing-mode:lr-tb;fill:#000000;fill-opacity:1;fill-rule:nonzero;stroke:none"
           transform="matrix(1,0,0,-1,136.476,679.504)"><tspan
             id="tspan358"
             y="0"
             x="0 8.559432 19.972008">(a)</tspan><tspan
             id="tspan360"
             y="383.23401"
             x="-3.7332001 4.826232 17.678232">(b)</tspan></text>
</g></g></g></svg>