<?xml version="1.0" encoding="UTF-8" standalone="no"?>
<!-- Created with Inkscape (http://www.inkscape.org/) -->

<svg
   xmlns:dc="http://purl.org/dc/elements/1.1/"
   xmlns:cc="http://creativecommons.org/ns#"
   xmlns:rdf="http://www.w3.org/1999/02/22-rdf-syntax-ns#"
   xmlns:svg="http://www.w3.org/2000/svg"
   xmlns="http://www.w3.org/2000/svg"
   xmlns:sodipodi="http://sodipodi.sourceforge.net/DTD/sodipodi-0.dtd"
   xmlns:inkscape="http://www.inkscape.org/namespaces/inkscape"
   version="1.1"
   id="svg2"
   xml:space="preserve"
   width="375.70557"
   height="321.8765"
   viewBox="0 0 375.70557 321.8765"
   sodipodi:docname="typel_Sn.svg"
   inkscape:version="0.92.5 (2060ec1f9f, 2020-04-08)"><metadata
     id="metadata8"><rdf:RDF><cc:Work
         rdf:about=""><dc:format>image/svg+xml</dc:format><dc:type
           rdf:resource="http://purl.org/dc/dcmitype/StillImage" /><dc:title></dc:title></cc:Work></rdf:RDF></metadata><defs
     id="defs6" /><sodipodi:namedview
     pagecolor="#ffffff"
     bordercolor="#666666"
     borderopacity="1"
     objecttolerance="10"
     gridtolerance="10"
     guidetolerance="10"
     inkscape:pageopacity="0"
     inkscape:pageshadow="2"
     inkscape:window-width="1680"
     inkscape:window-height="986"
     id="namedview4"
     showgrid="false"
     inkscape:zoom="1.7878788"
     inkscape:cx="217.52808"
     inkscape:cy="185.18821"
     inkscape:window-x="0"
     inkscape:window-y="0"
     inkscape:window-maximized="1"
     inkscape:current-layer="g10"
     fit-margin-top="0"
     fit-margin-left="0"
     fit-margin-right="0"
     fit-margin-bottom="0" /><g
     id="g10"
     inkscape:groupmode="layer"
     inkscape:label="Typel - 2014 - Neutron skin thickness of heavy nuclei with -particle correlations and the slope of the nuclear symmetry energy"
     transform="matrix(1.3333333,0,0,-1.3333333,-356.61735,967.52525)">






























<g
   id="g1118"><text
     id="text202"
     style="font-variant:normal;font-weight:normal;font-size:9.96259975px;font-family:MTSY;-inkscape-font-specification:MTSY;writing-mode:lr-tb;fill:#000000;fill-opacity:1;fill-rule:nonzero;stroke:none"
     transform="matrix(1,0,0,-1,88.47645,376.437)"><tspan
       id="tspan200"
       y="0"
       x="0" /></text>
<text
     id="text242"
     style="font-variant:normal;font-weight:normal;font-size:9.96259975px;font-family:MTSY;-inkscape-font-specification:MTSY;writing-mode:lr-tb;fill:#000000;fill-opacity:1;fill-rule:nonzero;stroke:none"
     transform="matrix(1,0,0,-1,150.33345,376.437)"><tspan
       id="tspan240"
       y="0"
       x="0" /></text>
<text
     id="text270"
     style="font-variant:normal;font-weight:normal;font-size:9.96259975px;font-family:MTSY;-inkscape-font-specification:MTSY;writing-mode:lr-tb;fill:#000000;fill-opacity:1;fill-rule:nonzero;stroke:none"
     transform="matrix(1,0,0,-1,185.60445,376.437)"><tspan
       id="tspan268"
       y="0"
       x="0" /></text>
<text
     id="text458"
     style="font-variant:normal;font-weight:normal;font-size:9.96259975px;font-family:MTSY;-inkscape-font-specification:MTSY;writing-mode:lr-tb;fill:#000000;fill-opacity:1;fill-rule:nonzero;stroke:none"
     transform="matrix(1,0,0,-1,56.30145,274.2151)"><tspan
       id="tspan456"
       y="0"
       x="0" /></text>
<text
     id="text566"
     style="font-style:italic;font-variant:normal;font-weight:normal;font-size:9.96259975px;font-family:MTMI;-inkscape-font-specification:MTMI;writing-mode:lr-tb;fill:#000000;fill-opacity:1;fill-rule:nonzero;stroke:none"
     transform="matrix(1,0,0,-1,105.26217,123.27598)"><tspan
       id="tspan564"
       y="0"
       x="0" /></text>
<path
     d="m 345.01,517.969 h 40.297 l 2.531,0.029 2.503,0.086 2.531,0.288 2.502,1.064 2.502,3.135 2.531,7.766 2.532,15.388 2.502,23.558 2.531,28.82 2.502,29.338 2.532,25.427 2.502,18.236 2.531,9.462 2.503,2.445 2.502,-2.559 2.531,-7.882 2.532,-11.217 2.502,-11.678 2.502,-11.419 2.531,-10.93 2.532,-10.383 2.501,-9.779 2.532,-9.119 2.502,-8.456 2.503,-7.824 2.531,-7.133 2.531,-6.529 2.503,-5.925 2.502,-5.35 2.531,-4.775 2.531,-4.314 2.503,-3.797 2.502,-3.394 2.531,-2.992 2.503,-2.617 2.53,-2.301 2.532,-2.013 2.502,-1.754 2.502,-1.525 2.531,-1.324 2.532,-1.15 2.502,-0.978 2.531,-0.863 2.503,-0.719 2.531,-0.633 2.503,-0.547 2.53,-0.46 2.502,-0.402 2.532,-0.346 2.502,-0.287 2.502,-0.23 2.531,-0.201 2.503,-0.202 5.063,-0.287 2.502,-0.087 2.531,-0.115 2.503,-0.086 7.536,-0.173 5.062,-0.057 2.502,-0.058 h 0.029"
     style="fill:none;stroke:#0000ff;stroke-width:0.86299998;stroke-linecap:butt;stroke-linejoin:miter;stroke-miterlimit:10;stroke-dasharray:none;stroke-opacity:1"
     id="path626"
     inkscape:connector-curvature="0" /><path
     d="m 345.01,517.969 h 47.862 l 2.502,0.057 2.502,0.173 2.531,0.547 2.532,1.582 2.502,4.026 2.531,8.543 2.502,14.698 2.532,20.364 2.502,23.27 2.531,22.406 2.503,18.293 2.502,12.512 2.531,7.507 2.532,3.567 2.502,-0.202 2.502,-3.796 2.531,-7.536 2.532,-9.923 2.501,-10.326 2.532,-10.096 2.502,-9.635 2.503,-9.033 2.531,-8.427 2.531,-7.766 2.503,-7.105 2.502,-6.471 2.531,-5.839 2.531,-5.264 2.503,-4.688 2.502,-4.171 2.531,-3.682 2.503,-3.25 2.53,-2.876 2.532,-2.473 2.502,-2.158 2.502,-1.869 2.531,-1.611 2.532,-1.409 2.502,-1.18 2.531,-1.035 2.503,-0.863 2.531,-0.747 2.503,-0.634 2.53,-0.546 2.502,-0.46 2.532,-0.374 2.502,-0.317 2.502,-0.288 2.531,-0.23 2.503,-0.201 2.532,-0.172 2.531,-0.144 2.502,-0.115 7.536,-0.259 2.53,-0.057 2.504,-0.058 7.564,-0.087 h 0.029"
     style="fill:none;stroke:#40e0d0;stroke-width:0.86299998;stroke-linecap:butt;stroke-linejoin:miter;stroke-miterlimit:10;stroke-dasharray:none;stroke-opacity:1"
     id="path630"
     inkscape:connector-curvature="0" /><path
     d="m 345.01,517.969 h 52.866 l 2.531,0.029 2.532,0.086 2.502,0.288 2.531,0.748 2.502,1.955 2.532,4.228 2.502,7.91 2.531,12.283 2.503,15.847 2.502,17.258 2.531,16.022 2.532,12.885 2.502,9.636 2.502,6.817 2.531,3.883 2.532,1.093 2.501,-1.64 2.532,-4.113 2.502,-6.587 2.503,-8.255 2.531,-8.686 2.531,-8.456 2.503,-8.083 2.502,-7.507 2.531,-6.932 2.531,-6.299 2.503,-5.695 2.502,-5.12 2.531,-4.573 2.503,-4.028 2.53,-3.537 2.532,-3.106 2.502,-2.704 2.502,-2.33 2.531,-2.042 2.532,-1.726 2.502,-1.496 2.531,-1.265 2.503,-1.064 2.531,-0.921 2.503,-0.776 2.53,-0.633 2.502,-0.575 2.532,-0.46 2.502,-0.374 2.502,-0.317 2.531,-0.288 2.503,-0.229 2.532,-0.202 2.531,-0.143 2.502,-0.145 2.531,-0.115 2.503,-0.086 2.502,-0.057 2.53,-0.086 2.504,-0.058 5.062,-0.058 2.502,-0.057 h 0.029"
     style="fill:none;stroke:#008b00;stroke-width:0.86299998;stroke-linecap:butt;stroke-linejoin:miter;stroke-miterlimit:10;stroke-dasharray:none;stroke-opacity:1"
     id="path634"
     inkscape:connector-curvature="0" /><path
     d="m 345.01,517.969 h 57.929 l 2.502,0.029 2.531,0.028 2.502,0.144 2.532,0.403 2.502,0.921 2.531,2.07 2.503,3.941 2.502,6.558 2.531,9.29 2.532,11.275 2.502,11.764 2.502,10.672 2.531,9.089 2.532,7.507 2.501,5.58 2.532,3.51 2.502,1.466 2.503,-0.461 2.531,-2.3 2.531,-3.768 2.503,-5.321 2.502,-6.414 2.531,-6.731 2.531,-6.616 2.503,-6.27 2.502,-5.782 2.531,-5.292 2.503,-4.774 2.53,-4.257 2.532,-3.769 2.502,-3.307 2.502,-2.877 2.531,-2.502 2.532,-2.157 2.502,-1.841 2.531,-1.553 2.503,-1.352 2.531,-1.121 2.503,-0.95 2.53,-0.805 2.502,-0.691 2.532,-0.575 2.502,-0.46 2.502,-0.402 2.531,-0.318 2.503,-0.258 2.532,-0.23 2.531,-0.201 2.502,-0.144 2.531,-0.144 5.005,-0.173 2.53,-0.086 2.504,-0.058 2.53,-0.057 5.034,-0.058 h 0.029"
     style="fill:none;stroke:#ffa500;stroke-width:0.86299998;stroke-linecap:butt;stroke-linejoin:miter;stroke-miterlimit:10;stroke-dasharray:none;stroke-opacity:1"
     id="path638"
     inkscape:connector-curvature="0" /><path
     d="m 345.01,517.969 h 65.464 l 2.532,0.029 2.502,0.086 2.531,0.202 2.503,0.431 2.502,1.006 2.531,1.87 2.532,3.164 2.502,4.745 2.502,6.214 2.531,7.076 2.532,7.104 2.501,6.701 2.532,6.127 2.502,5.206 2.503,4.028 2.531,2.674 2.531,1.324 2.503,0.057 2.502,-1.151 2.531,-2.186 2.531,-3.078 2.503,-3.883 2.502,-4.515 2.531,-4.689 2.503,-4.601 2.53,-4.315 2.532,-3.969 2.502,-3.596 2.502,-3.221 2.531,-2.819 2.532,-2.445 2.502,-2.128 2.531,-1.841 2.503,-1.554 2.531,-1.352 2.503,-1.121 2.53,-0.95 2.502,-0.776 2.532,-0.661 2.502,-0.576 2.502,-0.459 2.531,-0.375 2.503,-0.316 2.532,-0.26 2.531,-0.229 2.502,-0.172 2.531,-0.145 2.503,-0.115 5.032,-0.172 7.566,-0.173 2.502,-0.029 h 0.029"
     style="fill:none;stroke:#ff0000;stroke-width:0.86299998;stroke-linecap:butt;stroke-linejoin:miter;stroke-miterlimit:10;stroke-dasharray:none;stroke-opacity:1"
     id="path642"
     inkscape:connector-curvature="0" /><path
     d="m 345.01,517.969 h 70.498 l 5.034,0.057 2.502,0.087 2.531,0.201 2.532,0.403 2.502,0.777 2.502,1.322 2.531,1.985 2.532,2.704 2.501,3.221 2.532,3.538 2.502,3.624 2.503,3.596 2.531,3.365 2.531,2.905 2.503,2.301 2.502,1.611 2.531,0.863 2.531,0.173 2.503,-0.519 2.502,-1.093 2.531,-1.61 2.503,-1.984 2.53,-2.33 2.532,-2.56 2.502,-2.618 2.502,-2.531 2.531,-2.387 2.532,-2.158 2.502,-1.927 2.531,-1.696 2.503,-1.468 2.531,-1.294 2.503,-1.093 2.53,-0.921 2.502,-0.776 2.532,-0.662 2.502,-0.546 2.502,-0.46 2.531,-0.374 2.503,-0.317 2.532,-0.258 2.531,-0.202 2.502,-0.172 2.531,-0.144 2.503,-0.115 2.502,-0.087 2.53,-0.086 2.504,-0.058 5.062,-0.115 2.502,-0.028 h 0.029"
     style="fill:none;stroke:#7221bc;stroke-width:0.86299998;stroke-linecap:butt;stroke-linejoin:miter;stroke-miterlimit:10;stroke-dasharray:none;stroke-opacity:1"
     id="path646"
     inkscape:connector-curvature="0" /><path
     d="m 345.01,517.969 h 80.565 l 5.034,0.057 2.502,0.087 2.531,0.143 2.532,0.259 2.501,0.374 2.532,0.489 2.502,0.633 2.503,0.69 2.531,0.805 2.531,0.835 2.503,0.834 2.502,0.777 2.531,0.718 2.531,0.547 2.503,0.403 2.502,0.258 2.531,0.058 2.503,-0.115 2.53,-0.258 2.532,-0.346 2.502,-0.489 2.502,-0.547 2.531,-0.574 2.532,-0.634 2.502,-0.632 2.531,-0.575 2.503,-0.547 2.531,-0.489 2.503,-0.432 2.53,-0.374 2.502,-0.344 2.532,-0.259 2.502,-0.259 2.502,-0.173 2.531,-0.172 2.503,-0.144 2.532,-0.115 2.531,-0.086 2.502,-0.058 2.531,-0.086 2.503,-0.029 2.502,-0.058 2.53,-0.028 5.034,-0.058 h 2.532 l 2.502,-0.029 h 0.029"
     style="fill:none;stroke:#ff00ff;stroke-width:0.86299998;stroke-linecap:butt;stroke-linejoin:miter;stroke-miterlimit:10;stroke-dasharray:none;stroke-opacity:1"
     id="path650"
     inkscape:connector-curvature="0" /><path
     inkscape:connector-curvature="0"
     id="path652"
     style="fill:none;stroke:#0000ff;stroke-width:0.86299998;stroke-linecap:butt;stroke-linejoin:miter;stroke-miterlimit:10;stroke-dasharray:4.3145, 2.5887;stroke-dashoffset:0;stroke-opacity:1"
     d="m 418.183,719.339 2.359,-112.752 2.502,-73.23 2.531,-15.388 h 2.503 2.531 2.502 2.531 2.503 2.53 2.503 2.531 2.503 2.531 2.502 2.532 2.502 2.531 2.502 2.532 2.502 2.531 2.503 2.53 2.503 2.531 2.502 2.531 2.503 2.531 2.502 2.532 2.503 2.531 2.53 2.502 2.532 2.502 2.502 2.531 2.503 2.532 2.502 2.531 2.531 2.503 2.502 2.53 2.504 2.53 2.502 2.532 0.029" /><path
     inkscape:connector-curvature="0"
     id="path654"
     style="fill:none;stroke:#40e0d0;stroke-width:0.86299998;stroke-linecap:butt;stroke-linejoin:miter;stroke-miterlimit:10;stroke-dasharray:4.3145, 2.5887;stroke-dashoffset:0;stroke-opacity:1"
     d="m 427.387,719.339 0.691,-37.392 2.531,-95.119 2.502,-58.217 2.531,-10.642 h 2.503 2.53 2.503 2.531 2.503 2.531 2.502 2.532 2.502 2.531 2.502 2.532 2.502 2.531 2.503 2.53 2.503 2.531 2.502 2.531 2.503 2.531 2.502 2.532 2.503 2.531 2.53 2.502 2.532 2.502 2.502 2.531 2.503 2.532 2.502 2.531 2.531 2.503 2.502 2.53 2.504 2.53 2.502 2.532 0.029" /><path
     inkscape:connector-curvature="0"
     id="path656"
     style="fill:none;stroke:#008b00;stroke-width:0.86299998;stroke-linecap:butt;stroke-linejoin:miter;stroke-miterlimit:10;stroke-dasharray:4.3145, 2.5887;stroke-dashoffset:0;stroke-opacity:1"
     d="m 436.678,719.339 1.467,-63.739 2.53,-78.178 2.503,-49.185 2.531,-10.268 h 2.503 2.531 2.502 2.532 2.502 2.531 2.502 2.532 2.502 2.531 2.503 2.53 2.503 2.531 2.502 2.531 2.503 2.531 2.502 2.532 2.503 2.531 2.53 2.502 2.532 2.502 2.502 2.531 2.503 2.532 2.502 2.531 2.531 2.503 2.502 2.53 2.504 2.53 2.502 2.532 0.029" /><path
     inkscape:connector-curvature="0"
     id="path658"
     style="fill:none;stroke:#ffa500;stroke-width:0.86299998;stroke-linecap:butt;stroke-linejoin:miter;stroke-miterlimit:10;stroke-dasharray:4.3145, 2.5887;stroke-dashoffset:0;stroke-opacity:1"
     d="m 445.968,719.339 2.244,-79.501 2.531,-66.097 2.502,-43.922 2.532,-11.85 h 2.502 2.531 2.502 2.532 2.502 2.531 2.503 2.53 2.503 2.531 2.502 2.531 2.503 2.531 2.502 2.532 2.503 2.531 2.53 2.502 2.532 2.502 2.502 2.531 2.503 2.532 2.502 2.531 2.531 2.503 2.502 2.53 2.504 2.53 2.502 2.532 0.029" /><path
     inkscape:connector-curvature="0"
     id="path660"
     style="fill:none;stroke:#ff0000;stroke-width:0.86299998;stroke-linecap:butt;stroke-linejoin:miter;stroke-miterlimit:10;stroke-dasharray:4.3145, 2.5887;stroke-dashoffset:0;stroke-opacity:1"
     d="m 455.403,719.339 0.374,-13.777 2.502,-75.532 2.531,-57.929 2.502,-40.067 2.532,-14.065 h 2.502 2.531 2.503 2.53 2.503 2.531 2.502 2.531 2.503 2.531 2.502 2.532 2.503 2.531 2.53 2.502 2.532 2.502 2.502 2.531 2.503 2.532 2.502 2.531 2.531 2.503 2.502 2.53 2.504 2.53 2.502 2.532 0.029" /><path
     inkscape:connector-curvature="0"
     id="path662"
     style="fill:none;stroke:#7221bc;stroke-width:0.86299998;stroke-linecap:butt;stroke-linejoin:miter;stroke-miterlimit:10;stroke-dasharray:4.3145, 2.5887;stroke-dashoffset:0;stroke-opacity:1"
     d="m 464.894,719.339 0.95,-30.46 2.502,-65.925 2.531,-51.86 2.503,-37.133 2.53,-15.992 h 2.503 2.531 2.502 2.531 2.503 2.531 2.502 2.532 2.503 2.531 2.53 2.502 2.532 2.502 2.502 2.531 2.503 2.532 2.502 2.531 2.531 2.503 2.502 2.53 2.504 2.53 2.502 2.532 0.029" /><path
     inkscape:connector-curvature="0"
     id="path664"
     style="fill:none;stroke:#ff00ff;stroke-width:0.86299998;stroke-linecap:butt;stroke-linejoin:miter;stroke-miterlimit:10;stroke-dasharray:4.3145, 2.5887;stroke-dashoffset:0;stroke-opacity:1"
     d="m 474.386,719.339 1.524,-42.914 2.503,-59.425 2.531,-47.402 2.502,-34.601 2.531,-17.028 h 2.503 2.531 2.502 2.532 2.503 2.531 2.53 2.502 2.532 2.502 2.502 2.531 2.503 2.532 2.502 2.531 2.531 2.503 2.502 2.53 2.504 2.53 2.502 2.532 0.029" /><path
     d="M 345.039,719.311 H 546.38"
     style="fill:none;stroke:#000000;stroke-width:0.43099999;stroke-linecap:butt;stroke-linejoin:miter;stroke-miterlimit:10;stroke-dasharray:none;stroke-opacity:1"
     id="path668"
     inkscape:connector-curvature="0" /><path
     inkscape:connector-curvature="0"
     id="path672"
     style="fill:none;stroke:#000000;stroke-width:0.43099999;stroke-linecap:butt;stroke-linejoin:miter;stroke-miterlimit:10;stroke-dasharray:none;stroke-opacity:1"
     d="M 345.039,517.969 H 546.38" /><path
     d="m 546.38,719.311 v -5.753"
     style="fill:none;stroke:#000000;stroke-width:0.86299998;stroke-linecap:butt;stroke-linejoin:miter;stroke-miterlimit:10;stroke-dasharray:none;stroke-opacity:1"
     id="path676"
     inkscape:connector-curvature="0" /><path
     inkscape:connector-curvature="0"
     id="path680"
     style="fill:none;stroke:#000000;stroke-width:0.86299998;stroke-linecap:butt;stroke-linejoin:miter;stroke-miterlimit:10;stroke-dasharray:none;stroke-opacity:1"
     d="m 546.38,517.969 v 5.752" /><path
     d="m 496.045,719.311 v -5.753"
     style="fill:none;stroke:#000000;stroke-width:0.86299998;stroke-linecap:butt;stroke-linejoin:miter;stroke-miterlimit:10;stroke-dasharray:none;stroke-opacity:1"
     id="path684"
     inkscape:connector-curvature="0" /><path
     inkscape:connector-curvature="0"
     id="path688"
     style="fill:none;stroke:#000000;stroke-width:0.86299998;stroke-linecap:butt;stroke-linejoin:miter;stroke-miterlimit:10;stroke-dasharray:none;stroke-opacity:1"
     d="m 496.045,517.969 v 5.752" /><path
     d="m 445.709,719.311 v -5.753"
     style="fill:none;stroke:#000000;stroke-width:0.86299998;stroke-linecap:butt;stroke-linejoin:miter;stroke-miterlimit:10;stroke-dasharray:none;stroke-opacity:1"
     id="path692"
     inkscape:connector-curvature="0" /><path
     inkscape:connector-curvature="0"
     id="path696"
     style="fill:none;stroke:#000000;stroke-width:0.86299998;stroke-linecap:butt;stroke-linejoin:miter;stroke-miterlimit:10;stroke-dasharray:none;stroke-opacity:1"
     d="m 445.709,517.969 v 5.752" /><path
     d="m 395.374,719.311 v -5.753"
     style="fill:none;stroke:#000000;stroke-width:0.86299998;stroke-linecap:butt;stroke-linejoin:miter;stroke-miterlimit:10;stroke-dasharray:none;stroke-opacity:1"
     id="path700"
     inkscape:connector-curvature="0" /><path
     inkscape:connector-curvature="0"
     id="path704"
     style="fill:none;stroke:#000000;stroke-width:0.86299998;stroke-linecap:butt;stroke-linejoin:miter;stroke-miterlimit:10;stroke-dasharray:none;stroke-opacity:1"
     d="m 395.374,517.969 v 5.752" /><path
     d="m 345.039,719.311 v -5.753"
     style="fill:none;stroke:#000000;stroke-width:0.86299998;stroke-linecap:butt;stroke-linejoin:miter;stroke-miterlimit:10;stroke-dasharray:none;stroke-opacity:1"
     id="path708"
     inkscape:connector-curvature="0" /><path
     inkscape:connector-curvature="0"
     id="path712"
     style="fill:none;stroke:#000000;stroke-width:0.86299998;stroke-linecap:butt;stroke-linejoin:miter;stroke-miterlimit:10;stroke-dasharray:none;stroke-opacity:1"
     d="m 345.039,517.969 v 5.752" /><path
     d="m 521.213,719.311 v -2.876"
     style="fill:none;stroke:#000000;stroke-width:0.86299998;stroke-linecap:butt;stroke-linejoin:miter;stroke-miterlimit:10;stroke-dasharray:none;stroke-opacity:1"
     id="path716"
     inkscape:connector-curvature="0" /><path
     inkscape:connector-curvature="0"
     id="path720"
     style="fill:none;stroke:#000000;stroke-width:0.86299998;stroke-linecap:butt;stroke-linejoin:miter;stroke-miterlimit:10;stroke-dasharray:none;stroke-opacity:1"
     d="m 521.213,517.969 v 2.876" /><path
     d="m 470.877,719.311 v -2.876"
     style="fill:none;stroke:#000000;stroke-width:0.86299998;stroke-linecap:butt;stroke-linejoin:miter;stroke-miterlimit:10;stroke-dasharray:none;stroke-opacity:1"
     id="path724"
     inkscape:connector-curvature="0" /><path
     inkscape:connector-curvature="0"
     id="path728"
     style="fill:none;stroke:#000000;stroke-width:0.86299998;stroke-linecap:butt;stroke-linejoin:miter;stroke-miterlimit:10;stroke-dasharray:none;stroke-opacity:1"
     d="m 470.877,517.969 v 2.876" /><path
     d="m 420.542,719.311 v -2.876"
     style="fill:none;stroke:#000000;stroke-width:0.86299998;stroke-linecap:butt;stroke-linejoin:miter;stroke-miterlimit:10;stroke-dasharray:none;stroke-opacity:1"
     id="path732"
     inkscape:connector-curvature="0" /><path
     inkscape:connector-curvature="0"
     id="path736"
     style="fill:none;stroke:#000000;stroke-width:0.86299998;stroke-linecap:butt;stroke-linejoin:miter;stroke-miterlimit:10;stroke-dasharray:none;stroke-opacity:1"
     d="m 420.542,517.969 v 2.876" /><path
     d="m 370.206,719.311 v -2.876"
     style="fill:none;stroke:#000000;stroke-width:0.86299998;stroke-linecap:butt;stroke-linejoin:miter;stroke-miterlimit:10;stroke-dasharray:none;stroke-opacity:1"
     id="path740"
     inkscape:connector-curvature="0" /><path
     inkscape:connector-curvature="0"
     id="path744"
     style="fill:none;stroke:#000000;stroke-width:0.86299998;stroke-linecap:butt;stroke-linejoin:miter;stroke-miterlimit:10;stroke-dasharray:none;stroke-opacity:1"
     d="m 370.206,517.969 v 2.876" /><path
     d="M 546.38,517.969 V 719.311"
     style="fill:none;stroke:#000000;stroke-width:0.43099999;stroke-linecap:butt;stroke-linejoin:miter;stroke-miterlimit:10;stroke-dasharray:none;stroke-opacity:1"
     id="path760"
     inkscape:connector-curvature="0" /><path
     inkscape:connector-curvature="0"
     id="path764"
     style="fill:none;stroke:#000000;stroke-width:0.43099999;stroke-linecap:butt;stroke-linejoin:miter;stroke-miterlimit:10;stroke-dasharray:none;stroke-opacity:1"
     d="M 345.039,517.969 V 719.311" /><path
     d="m 546.38,719.311 h -5.752"
     style="fill:none;stroke:#000000;stroke-width:0.86299998;stroke-linecap:butt;stroke-linejoin:miter;stroke-miterlimit:10;stroke-dasharray:none;stroke-opacity:1"
     id="path768"
     inkscape:connector-curvature="0" /><path
     inkscape:connector-curvature="0"
     id="path772"
     style="fill:none;stroke:#000000;stroke-width:0.86299998;stroke-linecap:butt;stroke-linejoin:miter;stroke-miterlimit:10;stroke-dasharray:none;stroke-opacity:1"
     d="m 345.039,719.311 h 5.752" /><path
     d="m 546.38,685.745 h -5.752"
     style="fill:none;stroke:#000000;stroke-width:0.86299998;stroke-linecap:butt;stroke-linejoin:miter;stroke-miterlimit:10;stroke-dasharray:none;stroke-opacity:1"
     id="path776"
     inkscape:connector-curvature="0" /><path
     inkscape:connector-curvature="0"
     id="path780"
     style="fill:none;stroke:#000000;stroke-width:0.86299998;stroke-linecap:butt;stroke-linejoin:miter;stroke-miterlimit:10;stroke-dasharray:none;stroke-opacity:1"
     d="m 345.039,685.745 h 5.752" /><path
     d="m 546.38,652.207 h -5.752"
     style="fill:none;stroke:#000000;stroke-width:0.86299998;stroke-linecap:butt;stroke-linejoin:miter;stroke-miterlimit:10;stroke-dasharray:none;stroke-opacity:1"
     id="path784"
     inkscape:connector-curvature="0" /><path
     inkscape:connector-curvature="0"
     id="path788"
     style="fill:none;stroke:#000000;stroke-width:0.86299998;stroke-linecap:butt;stroke-linejoin:miter;stroke-miterlimit:10;stroke-dasharray:none;stroke-opacity:1"
     d="m 345.039,652.207 h 5.752" /><path
     d="m 546.38,618.641 h -5.752"
     style="fill:none;stroke:#000000;stroke-width:0.86299998;stroke-linecap:butt;stroke-linejoin:miter;stroke-miterlimit:10;stroke-dasharray:none;stroke-opacity:1"
     id="path792"
     inkscape:connector-curvature="0" /><path
     inkscape:connector-curvature="0"
     id="path796"
     style="fill:none;stroke:#000000;stroke-width:0.86299998;stroke-linecap:butt;stroke-linejoin:miter;stroke-miterlimit:10;stroke-dasharray:none;stroke-opacity:1"
     d="m 345.039,618.641 h 5.752" /><path
     d="m 546.38,585.074 h -5.752"
     style="fill:none;stroke:#000000;stroke-width:0.86299998;stroke-linecap:butt;stroke-linejoin:miter;stroke-miterlimit:10;stroke-dasharray:none;stroke-opacity:1"
     id="path800"
     inkscape:connector-curvature="0" /><path
     inkscape:connector-curvature="0"
     id="path804"
     style="fill:none;stroke:#000000;stroke-width:0.86299998;stroke-linecap:butt;stroke-linejoin:miter;stroke-miterlimit:10;stroke-dasharray:none;stroke-opacity:1"
     d="m 345.039,585.074 h 5.752" /><path
     d="m 546.38,551.537 h -5.752"
     style="fill:none;stroke:#000000;stroke-width:0.86299998;stroke-linecap:butt;stroke-linejoin:miter;stroke-miterlimit:10;stroke-dasharray:none;stroke-opacity:1"
     id="path808"
     inkscape:connector-curvature="0" /><path
     inkscape:connector-curvature="0"
     id="path812"
     style="fill:none;stroke:#000000;stroke-width:0.86299998;stroke-linecap:butt;stroke-linejoin:miter;stroke-miterlimit:10;stroke-dasharray:none;stroke-opacity:1"
     d="m 345.039,551.537 h 5.752" /><path
     d="m 546.38,517.97 h -5.752"
     style="fill:none;stroke:#000000;stroke-width:0.86299998;stroke-linecap:butt;stroke-linejoin:miter;stroke-miterlimit:10;stroke-dasharray:none;stroke-opacity:1"
     id="path816"
     inkscape:connector-curvature="0" /><path
     inkscape:connector-curvature="0"
     id="path820"
     style="fill:none;stroke:#000000;stroke-width:0.86299998;stroke-linecap:butt;stroke-linejoin:miter;stroke-miterlimit:10;stroke-dasharray:none;stroke-opacity:1"
     d="m 345.039,517.97 h 5.752" /><path
     d="m 546.38,702.543 h -2.876"
     style="fill:none;stroke:#000000;stroke-width:0.86299998;stroke-linecap:butt;stroke-linejoin:miter;stroke-miterlimit:10;stroke-dasharray:none;stroke-opacity:1"
     id="path824"
     inkscape:connector-curvature="0" /><path
     inkscape:connector-curvature="0"
     id="path828"
     style="fill:none;stroke:#000000;stroke-width:0.86299998;stroke-linecap:butt;stroke-linejoin:miter;stroke-miterlimit:10;stroke-dasharray:none;stroke-opacity:1"
     d="m 345.039,702.543 h 2.876" /><path
     d="m 546.38,668.977 h -2.876"
     style="fill:none;stroke:#000000;stroke-width:0.86299998;stroke-linecap:butt;stroke-linejoin:miter;stroke-miterlimit:10;stroke-dasharray:none;stroke-opacity:1"
     id="path832"
     inkscape:connector-curvature="0" /><path
     inkscape:connector-curvature="0"
     id="path836"
     style="fill:none;stroke:#000000;stroke-width:0.86299998;stroke-linecap:butt;stroke-linejoin:miter;stroke-miterlimit:10;stroke-dasharray:none;stroke-opacity:1"
     d="m 345.039,668.977 h 2.876" /><path
     d="m 546.38,635.411 h -2.876"
     style="fill:none;stroke:#000000;stroke-width:0.86299998;stroke-linecap:butt;stroke-linejoin:miter;stroke-miterlimit:10;stroke-dasharray:none;stroke-opacity:1"
     id="path840"
     inkscape:connector-curvature="0" /><path
     inkscape:connector-curvature="0"
     id="path844"
     style="fill:none;stroke:#000000;stroke-width:0.86299998;stroke-linecap:butt;stroke-linejoin:miter;stroke-miterlimit:10;stroke-dasharray:none;stroke-opacity:1"
     d="m 345.039,635.411 h 2.876" /><path
     d="m 546.38,601.873 h -2.876"
     style="fill:none;stroke:#000000;stroke-width:0.86299998;stroke-linecap:butt;stroke-linejoin:miter;stroke-miterlimit:10;stroke-dasharray:none;stroke-opacity:1"
     id="path848"
     inkscape:connector-curvature="0" /><path
     inkscape:connector-curvature="0"
     id="path852"
     style="fill:none;stroke:#000000;stroke-width:0.86299998;stroke-linecap:butt;stroke-linejoin:miter;stroke-miterlimit:10;stroke-dasharray:none;stroke-opacity:1"
     d="m 345.039,601.873 h 2.876" /><path
     d="m 546.38,568.306 h -2.876"
     style="fill:none;stroke:#000000;stroke-width:0.86299998;stroke-linecap:butt;stroke-linejoin:miter;stroke-miterlimit:10;stroke-dasharray:none;stroke-opacity:1"
     id="path856"
     inkscape:connector-curvature="0" /><path
     inkscape:connector-curvature="0"
     id="path860"
     style="fill:none;stroke:#000000;stroke-width:0.86299998;stroke-linecap:butt;stroke-linejoin:miter;stroke-miterlimit:10;stroke-dasharray:none;stroke-opacity:1"
     d="m 345.039,568.306 h 2.876" /><path
     d="m 546.38,534.74 h -2.876"
     style="fill:none;stroke:#000000;stroke-width:0.86299998;stroke-linecap:butt;stroke-linejoin:miter;stroke-miterlimit:10;stroke-dasharray:none;stroke-opacity:1"
     id="path864"
     inkscape:connector-curvature="0" /><path
     inkscape:connector-curvature="0"
     id="path868"
     style="fill:none;stroke:#000000;stroke-width:0.86299998;stroke-linecap:butt;stroke-linejoin:miter;stroke-miterlimit:10;stroke-dasharray:none;stroke-opacity:1"
     d="m 345.039,534.74 h 2.876" /><g
     transform="matrix(1.2030822,0,0,1.2030822,-86.16317,-125.87302)"
     id="g3216"><text
   transform="matrix(0,1,1,0,0,0)"
   style="font-variant:normal;font-weight:normal;font-size:14.61750507px;font-family:Symbol;-inkscape-font-specification:Symbol;writing-mode:lr-tb;fill:#000000;fill-opacity:1;fill-rule:nonzero;stroke:none;stroke-width:1.81500483"
   id="text888"
   x="521.33801"
   y="309.68546"><tspan
     x="521.33801"
     y="309.68546"
     id="tspan886"
     style="stroke-width:1.81500483">α</tspan></text>

<text
   transform="matrix(0,1,1,0,0,0)"
   style="font-variant:normal;font-weight:normal;font-size:14.61750507px;font-family:'Times New Roman';-inkscape-font-specification:TimesNewRomanPS;writing-mode:lr-tb;fill:#000000;fill-opacity:1;fill-rule:nonzero;stroke:none;stroke-width:1.81500483"
   id="text892"
   x="534.22772"
   y="309.68546"><tspan
     x="534.22772 541.5365 548.02667 552.89429 556.95795 561.02161 567.51178 571.57544 578.06561 581.72003 589.02875 595.51892 602.8277 608.51392 612.57758 616.64124 623.94995 634.91309"
     y="309.68546"
     sodipodi:role="line"
     id="tspan890"
     style="stroke-width:1.81500483">particle density n</tspan></text>

<text
   transform="matrix(0,1,1,0,0,0)"
   style="font-variant:normal;font-weight:normal;font-size:10.33663368px;font-family:Symbol;-inkscape-font-specification:Symbol;writing-mode:lr-tb;fill:#000000;fill-opacity:1;fill-rule:nonzero;stroke:none;stroke-width:1.81500483"
   id="text896"
   x="642.18793"
   y="315.54703"><tspan
     x="642.18793"
     y="315.54703"
     id="tspan894"
     style="stroke-width:1.81500483">α</tspan></text>

<text
   transform="matrix(0,1,1,0,0,0)"
   style="font-variant:normal;font-weight:normal;font-size:14.61750507px;font-family:'Times New Roman';-inkscape-font-specification:TimesNewRomanPS;writing-mode:lr-tb;fill:#000000;fill-opacity:1;fill-rule:nonzero;stroke:none;stroke-width:1.81500483"
   id="text900"
   x="648.75592"
   y="309.68546"><tspan
     x="648.75592 653.62354 658.49115 663.35876 674.3219 679.18951 684.05719"
     y="309.68546"
     sodipodi:role="line"
     id="tspan898"
     style="stroke-width:1.81500483">(<tspan
   id="tspan3334"
   style="font-style:italic">r</tspan>) [fm</tspan></text>

<text
   transform="matrix(0,1,1,0,0,0)"
   style="font-variant:normal;font-weight:normal;font-size:10.33663368px;font-family:'Times New Roman';-inkscape-font-specification:TimesNewRomanPS;writing-mode:lr-tb;fill:#000000;fill-opacity:1;fill-rule:nonzero;stroke:none;stroke-width:1.81500483"
   id="text904"
   x="695.487"
   y="300.91882"><tspan
     x="695.487 698.92914"
     y="300.91882"
     sodipodi:role="line"
     id="tspan902"
     style="stroke-width:1.81500483">-3</tspan></text>

<text
   transform="matrix(0,1,1,0,0,0)"
   style="font-variant:normal;font-weight:normal;font-size:14.61750507px;font-family:'Times New Roman';-inkscape-font-specification:TimesNewRomanPS;writing-mode:lr-tb;fill:#000000;fill-opacity:1;fill-rule:nonzero;stroke:none;stroke-width:1.81500483"
   id="text908"
   x="704.10376"
   y="309.68546"><tspan
     x="704.10376"
     y="309.68546"
     id="tspan906"
     style="stroke-width:1.81500483">]</tspan></text>

</g><path
     d="M 546.38,517.969 H 345.039 V 719.311 H 546.38 Z"
     style="fill:none;stroke:#000000;stroke-width:0.86299998;stroke-linecap:butt;stroke-linejoin:miter;stroke-miterlimit:10;stroke-dasharray:none;stroke-opacity:1"
     id="path912"
     inkscape:connector-curvature="0" /><path
     inkscape:connector-curvature="0"
     id="path916"
     style="fill:none;stroke:#000000;stroke-width:0.86299998;stroke-linecap:butt;stroke-linejoin:miter;stroke-miterlimit:10;stroke-dasharray:none;stroke-opacity:1"
     d="M 345.039,517.969 Z" /><path
     inkscape:connector-curvature="0"
     id="path918"
     style="fill:#ffffff;fill-opacity:1;fill-rule:nonzero;stroke:none;stroke-width:1.29722822"
     d="m 352.77218,598.10258 h 52.53516 v 109.69881 h -52.53516 z" /><path
     d="M 405.30734,707.80139 H 352.77218 V 598.10258 h 52.53516 z"
     style="fill:none;stroke:#000000;stroke-width:0.55910534;stroke-linecap:butt;stroke-linejoin:miter;stroke-miterlimit:10;stroke-dasharray:none;stroke-opacity:1"
     id="path922"
     inkscape:connector-curvature="0" /><path
     inkscape:connector-curvature="0"
     id="path926"
     style="fill:none;stroke:#000000;stroke-width:0.55910534;stroke-linecap:butt;stroke-linejoin:miter;stroke-miterlimit:10;stroke-dasharray:none;stroke-opacity:1"
     d="M 352.77218,707.80139 Z" /><text
     y="-699.11139"
     x="379.45166"
     id="text930"
     style="font-variant:normal;font-weight:normal;font-size:7.38784409px;font-family:'Times New Roman';-inkscape-font-specification:TimesNewRomanPS;writing-mode:lr-tb;fill:#000000;fill-opacity:1;fill-rule:nonzero;stroke:none;stroke-width:1.29722822"
     transform="scale(1,-1)"><tspan
       style="stroke-width:1.29722822"
       id="tspan928"
       sodipodi:role="line"
       y="-699.11139"
       x="379.45166 383.14484 386.83801">108</tspan></text>
<text
     y="-692.84503"
     x="390.60794"
     id="text934"
     style="font-variant:normal;font-weight:normal;font-size:10.44748783px;font-family:'Times New Roman';-inkscape-font-specification:TimesNewRomanPS;writing-mode:lr-tb;fill:#000000;fill-opacity:1;fill-rule:nonzero;stroke:none;stroke-width:1.29722822"
     transform="scale(1,-1)"><tspan
       style="stroke-width:1.29722822"
       id="tspan932"
       sodipodi:role="line"
       y="-692.84503"
       x="390.60794 396.41672">Sn</tspan></text>
<path
     d="m 357.06342,698.36146 h 14.92461"
     style="fill:none;stroke:#0000ff;stroke-width:1.11950791;stroke-linecap:butt;stroke-linejoin:miter;stroke-miterlimit:10;stroke-dasharray:none;stroke-opacity:1"
     id="path938"
     inkscape:connector-curvature="0" /><text
     y="-684.0014"
     x="379.45166"
     id="text942"
     style="font-variant:normal;font-weight:normal;font-size:7.38784409px;font-family:'Times New Roman';-inkscape-font-specification:TimesNewRomanPS;writing-mode:lr-tb;fill:#000000;fill-opacity:1;fill-rule:nonzero;stroke:none;stroke-width:1.29722822"
     transform="scale(1,-1)"><tspan
       style="stroke-width:1.29722822"
       id="tspan940"
       sodipodi:role="line"
       y="-684.0014"
       x="379.45166 383.14484 386.83801">112</tspan></text>
<text
     y="-677.73376"
     x="390.60794"
     id="text946"
     style="font-variant:normal;font-weight:normal;font-size:10.44748783px;font-family:'Times New Roman';-inkscape-font-specification:TimesNewRomanPS;writing-mode:lr-tb;fill:#000000;fill-opacity:1;fill-rule:nonzero;stroke:none;stroke-width:1.29722822"
     transform="scale(1,-1)"><tspan
       style="stroke-width:1.29722822"
       id="tspan944"
       sodipodi:role="line"
       y="-677.73376"
       x="390.60794 396.41672">Sn</tspan></text>
<path
     d="m 357.06342,683.25004 h 14.92461"
     style="fill:none;stroke:#40e0d0;stroke-width:1.11950791;stroke-linecap:butt;stroke-linejoin:miter;stroke-miterlimit:10;stroke-dasharray:none;stroke-opacity:1"
     id="path950"
     inkscape:connector-curvature="0" /><text
     y="-668.7392"
     x="379.45166"
     id="text954"
     style="font-variant:normal;font-weight:normal;font-size:7.38784409px;font-family:'Times New Roman';-inkscape-font-specification:TimesNewRomanPS;writing-mode:lr-tb;fill:#000000;fill-opacity:1;fill-rule:nonzero;stroke:none;stroke-width:1.29722822"
     transform="scale(1,-1)"><tspan
       style="stroke-width:1.29722822"
       id="tspan952"
       sodipodi:role="line"
       y="-668.7392"
       x="379.45166 383.14484 386.83801">116</tspan></text>
<text
     y="-662.47174"
     x="390.60794"
     id="text958"
     style="font-variant:normal;font-weight:normal;font-size:10.44748783px;font-family:'Times New Roman';-inkscape-font-specification:TimesNewRomanPS;writing-mode:lr-tb;fill:#000000;fill-opacity:1;fill-rule:nonzero;stroke:none;stroke-width:1.29722822"
     transform="scale(1,-1)"><tspan
       style="stroke-width:1.29722822"
       id="tspan956"
       sodipodi:role="line"
       y="-662.47174"
       x="390.60794 396.41672">Sn</tspan></text>
<path
     d="m 357.06342,668.0634 h 14.92461"
     style="fill:none;stroke:#008b00;stroke-width:1.11950791;stroke-linecap:butt;stroke-linejoin:miter;stroke-miterlimit:10;stroke-dasharray:none;stroke-opacity:1"
     id="path962"
     inkscape:connector-curvature="0" /><text
     y="-653.58997"
     x="379.45166"
     id="text966"
     style="font-variant:normal;font-weight:normal;font-size:7.38784409px;font-family:'Times New Roman';-inkscape-font-specification:TimesNewRomanPS;writing-mode:lr-tb;fill:#000000;fill-opacity:1;fill-rule:nonzero;stroke:none;stroke-width:1.29722822"
     transform="scale(1,-1)"><tspan
       style="stroke-width:1.29722822"
       id="tspan964"
       sodipodi:role="line"
       y="-653.58997"
       x="379.45166 383.14484 386.83801">120</tspan></text>
<text
     y="-647.32751"
     x="390.60794"
     id="text970"
     style="font-variant:normal;font-weight:normal;font-size:10.44748783px;font-family:'Times New Roman';-inkscape-font-specification:TimesNewRomanPS;writing-mode:lr-tb;fill:#000000;fill-opacity:1;fill-rule:nonzero;stroke:none;stroke-width:1.29722822"
     transform="scale(1,-1)"><tspan
       style="stroke-width:1.29722822"
       id="tspan968"
       sodipodi:role="line"
       y="-647.32751"
       x="390.60794 396.41672">Sn</tspan></text>
<path
     d="m 357.06342,652.87804 h 14.92461"
     style="fill:none;stroke:#ffa500;stroke-width:1.11950791;stroke-linecap:butt;stroke-linejoin:miter;stroke-miterlimit:10;stroke-dasharray:none;stroke-opacity:1"
     id="path974"
     inkscape:connector-curvature="0" /><text
     y="-638.47479"
     x="379.45166"
     id="text978"
     style="font-variant:normal;font-weight:normal;font-size:7.38784409px;font-family:'Times New Roman';-inkscape-font-specification:TimesNewRomanPS;writing-mode:lr-tb;fill:#000000;fill-opacity:1;fill-rule:nonzero;stroke:none;stroke-width:1.29722822"
     transform="scale(1,-1)"><tspan
       style="stroke-width:1.29722822"
       id="tspan976"
       sodipodi:role="line"
       y="-638.47479"
       x="379.45166 383.14484 386.83801">124</tspan></text>
<text
     y="-632.21301"
     x="390.60794"
     id="text982"
     style="font-variant:normal;font-weight:normal;font-size:10.44748783px;font-family:'Times New Roman';-inkscape-font-specification:TimesNewRomanPS;writing-mode:lr-tb;fill:#000000;fill-opacity:1;fill-rule:nonzero;stroke:none;stroke-width:1.29722822"
     transform="scale(1,-1)"><tspan
       style="stroke-width:1.29722822"
       id="tspan980"
       sodipodi:role="line"
       y="-632.21301"
       x="390.60794 396.41672">Sn</tspan></text>
<path
     d="m 357.06342,637.76663 h 14.92461"
     style="fill:none;stroke:#ff0000;stroke-width:1.11950791;stroke-linecap:butt;stroke-linejoin:miter;stroke-miterlimit:10;stroke-dasharray:none;stroke-opacity:1"
     id="path986"
     inkscape:connector-curvature="0" /><text
     y="-623.36975"
     x="379.45166"
     id="text990"
     style="font-variant:normal;font-weight:normal;font-size:7.38784409px;font-family:'Times New Roman';-inkscape-font-specification:TimesNewRomanPS;writing-mode:lr-tb;fill:#000000;fill-opacity:1;fill-rule:nonzero;stroke:none;stroke-width:1.29722822"
     transform="scale(1,-1)"><tspan
       style="stroke-width:1.29722822"
       id="tspan988"
       sodipodi:role="line"
       y="-623.36975"
       x="379.45166 383.14484 386.83801">128</tspan></text>
<text
     y="-617.09839"
     x="390.60794"
     id="text994"
     style="font-variant:normal;font-weight:normal;font-size:10.44748783px;font-family:'Times New Roman';-inkscape-font-specification:TimesNewRomanPS;writing-mode:lr-tb;fill:#000000;fill-opacity:1;fill-rule:nonzero;stroke:none;stroke-width:1.29722822"
     transform="scale(1,-1)"><tspan
       style="stroke-width:1.29722822"
       id="tspan992"
       sodipodi:role="line"
       y="-617.09839"
       x="390.60794 396.41672">Sn</tspan></text>
<path
     d="m 357.06342,622.65522 h 14.92461"
     style="fill:none;stroke:#7221bc;stroke-width:1.11950791;stroke-linecap:butt;stroke-linejoin:miter;stroke-miterlimit:10;stroke-dasharray:none;stroke-opacity:1"
     id="path998"
     inkscape:connector-curvature="0" /><text
     y="-608.2547"
     x="379.45166"
     id="text1002"
     style="font-variant:normal;font-weight:normal;font-size:7.38784409px;font-family:'Times New Roman';-inkscape-font-specification:TimesNewRomanPS;writing-mode:lr-tb;fill:#000000;fill-opacity:1;fill-rule:nonzero;stroke:none;stroke-width:1.29722822"
     transform="scale(1,-1)"><tspan
       style="stroke-width:1.29722822"
       id="tspan1000"
       sodipodi:role="line"
       y="-608.2547"
       x="379.45166 383.14557 387.03601">132</tspan></text>
<text
     y="-601.98633"
     x="390.60794"
     id="text1006"
     style="font-variant:normal;font-weight:normal;font-size:10.44748783px;font-family:'Times New Roman';-inkscape-font-specification:TimesNewRomanPS;writing-mode:lr-tb;fill:#000000;fill-opacity:1;fill-rule:nonzero;stroke:none;stroke-width:1.29722822"
     transform="scale(1,-1)"><tspan
       style="stroke-width:1.29722822"
       id="tspan1004"
       sodipodi:role="line"
       y="-601.98633"
       x="390.60794 396.41672">Sn</tspan></text>
<path
     d="m 357.06342,607.50619 h 14.92461"
     style="fill:none;stroke:#ff00ff;stroke-width:1.11950791;stroke-linecap:butt;stroke-linejoin:miter;stroke-miterlimit:10;stroke-dasharray:none;stroke-opacity:1"
     id="path1010"
     inkscape:connector-curvature="0" /><text
     transform="scale(1,-1)"
     id="text3103"
     y="-487.47449"
     x="395.60568"
     style="font-style:normal;font-weight:normal;font-size:18.29325867px;line-height:1.25;font-family:sans-serif;letter-spacing:0px;word-spacing:0px;fill:#000000;fill-opacity:1;stroke:none;stroke-width:0.45733148"
     xml:space="preserve"><tspan
       style="font-style:normal;font-variant:normal;font-weight:normal;font-stretch:normal;font-family:times;-inkscape-font-specification:times;stroke-width:0.45733148"
       y="-487.47449"
       x="395.60568"
       id="tspan3101"
       sodipodi:role="line">radius <tspan
   id="tspan3332"
   style="font-style:italic">r</tspan> (fm)</tspan></text>
<text
     transform="scale(1,-1)"
     id="text3202"
     y="-714.65033"
     x="300.99283"
     style="font-style:normal;font-weight:normal;font-size:14.52389622px;line-height:1.25;font-family:sans-serif;letter-spacing:0px;word-spacing:0px;fill:#000000;fill-opacity:1;stroke:none;stroke-width:0.36309743"
     xml:space="preserve"><tspan
       style="font-style:normal;font-variant:normal;font-weight:normal;font-stretch:normal;font-family:times;-inkscape-font-specification:times;stroke-width:0.36309743"
       y="-714.65033"
       x="300.99283"
       id="tspan3200"
       sodipodi:role="line">0.0012</tspan></text>
<text
     transform="scale(1,-1)"
     id="text3202-2"
     y="-681.28693"
     x="300.9783"
     style="font-style:normal;font-weight:normal;font-size:14.52389622px;line-height:1.25;font-family:sans-serif;letter-spacing:0px;word-spacing:0px;fill:#000000;fill-opacity:1;stroke:none;stroke-width:0.36309743"
     xml:space="preserve"><tspan
       style="font-style:normal;font-variant:normal;font-weight:normal;font-stretch:normal;font-family:times;-inkscape-font-specification:times;stroke-width:0.36309743"
       y="-681.28693"
       x="300.9783"
       id="tspan3200-4"
       sodipodi:role="line">0.0010</tspan></text>
<text
     transform="scale(1,-1)"
     id="text3202-2-7"
     y="-647.17505"
     x="301.42853"
     style="font-style:normal;font-weight:normal;font-size:14.52389622px;line-height:1.25;font-family:sans-serif;letter-spacing:0px;word-spacing:0px;fill:#000000;fill-opacity:1;stroke:none;stroke-width:0.36309743"
     xml:space="preserve"><tspan
       style="font-style:normal;font-variant:normal;font-weight:normal;font-stretch:normal;font-family:times;-inkscape-font-specification:times;stroke-width:0.36309743"
       y="-647.17505"
       x="301.42853"
       id="tspan3200-4-6"
       sodipodi:role="line">0.0008</tspan></text>
<text
     transform="scale(1,-1)"
     id="text3202-2-5"
     y="-613.65637"
     x="301.09448"
     style="font-style:normal;font-weight:normal;font-size:14.52389622px;line-height:1.25;font-family:sans-serif;letter-spacing:0px;word-spacing:0px;fill:#000000;fill-opacity:1;stroke:none;stroke-width:0.36309743"
     xml:space="preserve"><tspan
       style="font-style:normal;font-variant:normal;font-weight:normal;font-stretch:normal;font-family:times;-inkscape-font-specification:times;stroke-width:0.36309743"
       y="-613.65637"
       x="301.09448"
       id="tspan3200-4-7"
       sodipodi:role="line">0.0006</tspan></text>
<text
     transform="scale(1,-1)"
     id="text3202-2-1"
     y="-579.84106"
     x="301.03641"
     style="font-style:normal;font-weight:normal;font-size:14.52389622px;line-height:1.25;font-family:sans-serif;letter-spacing:0px;word-spacing:0px;fill:#000000;fill-opacity:1;stroke:none;stroke-width:0.36309743"
     xml:space="preserve"><tspan
       style="font-style:normal;font-variant:normal;font-weight:normal;font-stretch:normal;font-family:times;-inkscape-font-specification:times;stroke-width:0.36309743"
       y="-579.84106"
       x="301.03641"
       id="tspan3200-4-3"
       sodipodi:role="line">0.0004</tspan></text>
<text
     transform="scale(1,-1)"
     id="text3202-2-3"
     y="-547.21228"
     x="300.9783"
     style="font-style:normal;font-weight:normal;font-size:14.52389622px;line-height:1.25;font-family:sans-serif;letter-spacing:0px;word-spacing:0px;fill:#000000;fill-opacity:1;stroke:none;stroke-width:0.36309743"
     xml:space="preserve"><tspan
       style="font-style:normal;font-variant:normal;font-weight:normal;font-stretch:normal;font-family:times;-inkscape-font-specification:times;stroke-width:0.36309743"
       y="-547.21228"
       x="300.9783"
       id="tspan3200-4-38"
       sodipodi:role="line">0.0020</tspan></text>
<text
     transform="scale(1,-1)"
     id="text3202-2-51"
     y="-513.10034"
     x="300.9783"
     style="font-style:normal;font-weight:normal;font-size:14.52389622px;line-height:1.25;font-family:sans-serif;letter-spacing:0px;word-spacing:0px;fill:#000000;fill-opacity:1;stroke:none;stroke-width:0.36309743"
     xml:space="preserve"><tspan
       style="font-style:normal;font-variant:normal;font-weight:normal;font-stretch:normal;font-family:times;-inkscape-font-specification:times;stroke-width:0.36309743"
       y="-513.10034"
       x="300.9783"
       id="tspan3200-4-0"
       sodipodi:role="line">0.0000</tspan></text>
<text
     transform="scale(1,-1)"
     id="text3288"
     y="-504.08871"
     x="340.97092"
     style="font-style:normal;font-weight:normal;font-size:14.08490181px;line-height:1.25;font-family:sans-serif;letter-spacing:0px;word-spacing:0px;fill:#000000;fill-opacity:1;stroke:none;stroke-width:0.35212252"
     xml:space="preserve"><tspan
       style="font-style:normal;font-variant:normal;font-weight:normal;font-stretch:normal;font-family:times;-inkscape-font-specification:times;stroke-width:0.35212252"
       y="-504.08871"
       x="340.97092"
       id="tspan3286"
       sodipodi:role="line">5</tspan></text>
<text
     transform="scale(1,-1)"
     id="text3288-5"
     y="-504.11688"
     x="391.49835"
     style="font-style:normal;font-weight:normal;font-size:14.08490181px;line-height:1.25;font-family:sans-serif;letter-spacing:0px;word-spacing:0px;fill:#000000;fill-opacity:1;stroke:none;stroke-width:0.35212252"
     xml:space="preserve"><tspan
       style="font-style:normal;font-variant:normal;font-weight:normal;font-stretch:normal;font-family:times;-inkscape-font-specification:times;stroke-width:0.35212252"
       y="-504.11688"
       x="391.49835"
       id="tspan3286-0"
       sodipodi:role="line">6</tspan></text>
<text
     transform="scale(1,-1)"
     id="text3288-8"
     y="-504.22958"
     x="441.62802"
     style="font-style:normal;font-weight:normal;font-size:14.08490181px;line-height:1.25;font-family:sans-serif;letter-spacing:0px;word-spacing:0px;fill:#000000;fill-opacity:1;stroke:none;stroke-width:0.35212252"
     xml:space="preserve"><tspan
       style="font-style:normal;font-variant:normal;font-weight:normal;font-stretch:normal;font-family:times;-inkscape-font-specification:times;stroke-width:0.35212252"
       y="-504.22958"
       x="441.62802"
       id="tspan3286-04"
       sodipodi:role="line">7</tspan></text>
<text
     transform="scale(1,-1)"
     id="text3288-1"
     y="-504.17325"
     x="492.64755"
     style="font-style:normal;font-weight:normal;font-size:14.08490181px;line-height:1.25;font-family:sans-serif;letter-spacing:0px;word-spacing:0px;fill:#000000;fill-opacity:1;stroke:none;stroke-width:0.35212252"
     xml:space="preserve"><tspan
       style="font-style:normal;font-variant:normal;font-weight:normal;font-stretch:normal;font-family:times;-inkscape-font-specification:times;stroke-width:0.35212252"
       y="-504.17325"
       x="492.64755"
       id="tspan3286-1"
       sodipodi:role="line">8</tspan></text>
<text
     transform="scale(1,-1)"
     id="text3288-3"
     y="-504.22958"
     x="542.77722"
     style="font-style:normal;font-weight:normal;font-size:14.08490181px;line-height:1.25;font-family:sans-serif;letter-spacing:0px;word-spacing:0px;fill:#000000;fill-opacity:1;stroke:none;stroke-width:0.35212252"
     xml:space="preserve"><tspan
       style="font-style:normal;font-variant:normal;font-weight:normal;font-stretch:normal;font-family:times;-inkscape-font-specification:times;stroke-width:0.35212252"
       y="-504.22958"
       x="542.77722"
       id="tspan3286-5"
       sodipodi:role="line">9</tspan></text>
</g>
</g></svg>