<?xml version="1.0" encoding="utf-8" standalone="no"?>
<!DOCTYPE svg PUBLIC "-//W3C//DTD SVG 1.1//EN"
  "http://www.w3.org/Graphics/SVG/1.1/DTD/svg11.dtd">
<svg xmlns:xlink="http://www.w3.org/1999/xlink" width="515.271303pt" height="401.883759pt" viewBox="0 0 515.271303 401.883759" xmlns="http://www.w3.org/2000/svg" version="1.1">
 <metadata>
  <rdf:RDF xmlns:dc="http://purl.org/dc/elements/1.1/" xmlns:cc="http://creativecommons.org/ns#" xmlns:rdf="http://www.w3.org/1999/02/22-rdf-syntax-ns#">
   <cc:Work>
    <dc:type rdf:resource="http://purl.org/dc/dcmitype/StillImage"/>
    <dc:date>2023-03-10T19:54:25.803129</dc:date>
    <dc:format>image/svg+xml</dc:format>
    <dc:creator>
     <cc:Agent>
      <dc:title>Matplotlib v3.6.3, https://matplotlib.org/</dc:title>
     </cc:Agent>
    </dc:creator>
   </cc:Work>
  </rdf:RDF>
 </metadata>
 <defs>
  <style type="text/css">*{stroke-linejoin: round; stroke-linecap: butt}</style>
 </defs>
 <g id="figure_1">
  <g id="patch_1">
   <path d="M 0 401.883759 
L 515.271303 401.883759 
L 515.271303 0 
L 0 0 
L 0 401.883759 
z
" style="fill: none"/>
  </g>
  <g id="axes_1">
   <g id="patch_2">
    <path d="M 57.102256 346.758498 
L 503.502256 346.758498 
L 503.502256 14.118498 
L 57.102256 14.118498 
L 57.102256 346.758498 
z
" style="fill: none"/>
   </g>
   <g id="matplotlib.axis_1">
    <g id="xtick_1">
     <g id="line2d_1">
      <path d="M 57.102256 346.758498 
L 57.102256 14.118498 
" clip-path="url(#p65b4c6cf94)" style="fill: none; stroke: #b0b0b0; stroke-width: 0.8; stroke-linecap: square"/>
     </g>
     <g id="line2d_2">
      <defs>
       <path id="m91c5d8ebf4" d="M 0 0 
L 0 -3.5 
" style="stroke: #000000; stroke-width: 0.8"/>
      </defs>
      <g>
       <use xlink:href="#m91c5d8ebf4" x="57.102256" y="346.758498" style="stroke: #000000; stroke-width: 0.8"/>
      </g>
     </g>
     <g id="line2d_3">
      <defs>
       <path id="m87ea17e54d" d="M 0 0 
L 0 3.5 
" style="stroke: #000000; stroke-width: 0.8"/>
      </defs>
      <g>
       <use xlink:href="#m87ea17e54d" x="57.102256" y="14.118498" style="stroke: #000000; stroke-width: 0.8"/>
      </g>
     </g>
     <g id="text_1">
      <!-- $\mathdefault{−3}$ -->
      <g transform="translate(44.784464 369.095495) scale(0.2 -0.2)">
       <defs>
        <path id="CMSY10-0" d="M 4218 1472 
C 4326 1472 4442 1472 4442 1600 
C 4442 1728 4326 1728 4218 1728 
L 755 1728 
C 646 1728 531 1728 531 1600 
C 531 1472 646 1472 755 1472 
L 4218 1472 
z
" transform="scale(0.015625)"/>
        <path id="CMR17-33" d="M 1414 2157 
C 1984 2157 2234 1662 2234 1090 
C 2234 320 1824 25 1453 25 
C 1114 25 563 194 390 693 
C 422 680 454 680 486 680 
C 640 680 755 782 755 948 
C 755 1133 614 1216 486 1216 
C 378 1216 211 1165 211 926 
C 211 335 787 -128 1466 -128 
C 2176 -128 2720 430 2720 1085 
C 2720 1707 2208 2157 1600 2227 
C 2086 2328 2554 2756 2554 3329 
C 2554 3820 2048 4179 1472 4179 
C 890 4179 378 3829 378 3329 
C 378 3110 544 3072 627 3072 
C 762 3072 877 3155 877 3321 
C 877 3486 762 3569 627 3569 
C 602 3569 570 3569 544 3557 
C 730 3959 1235 4032 1459 4032 
C 1683 4032 2106 3925 2106 3320 
C 2106 3143 2080 2828 1862 2550 
C 1670 2304 1453 2304 1242 2284 
C 1210 2284 1062 2269 1037 2269 
C 992 2263 966 2257 966 2208 
C 966 2163 973 2157 1101 2157 
L 1414 2157 
z
" transform="scale(0.015625)"/>
       </defs>
       <use xlink:href="#CMSY10-0" transform="scale(0.996264)"/>
       <use xlink:href="#CMR17-33" transform="translate(77.487468 0) scale(0.996264)"/>
      </g>
     </g>
    </g>
    <g id="xtick_2">
     <g id="line2d_4">
      <path d="M 131.502256 346.758498 
L 131.502256 14.118498 
" clip-path="url(#p65b4c6cf94)" style="fill: none; stroke: #b0b0b0; stroke-width: 0.8; stroke-linecap: square"/>
     </g>
     <g id="line2d_5">
      <g>
       <use xlink:href="#m91c5d8ebf4" x="131.502256" y="346.758498" style="stroke: #000000; stroke-width: 0.8"/>
      </g>
     </g>
     <g id="line2d_6">
      <g>
       <use xlink:href="#m87ea17e54d" x="131.502256" y="14.118498" style="stroke: #000000; stroke-width: 0.8"/>
      </g>
     </g>
     <g id="text_2">
      <!-- $\mathdefault{−2}$ -->
      <g transform="translate(119.184464 369.095495) scale(0.2 -0.2)">
       <defs>
        <path id="CMR17-32" d="M 2669 989 
L 2554 989 
C 2490 536 2438 459 2413 420 
C 2381 369 1920 369 1830 369 
L 602 369 
C 832 619 1280 1072 1824 1597 
C 2214 1967 2669 2402 2669 3035 
C 2669 3790 2067 4224 1395 4224 
C 691 4224 262 3604 262 3030 
C 262 2780 448 2748 525 2748 
C 589 2748 781 2787 781 3010 
C 781 3207 614 3264 525 3264 
C 486 3264 448 3258 422 3245 
C 544 3790 915 4058 1306 4058 
C 1862 4058 2227 3617 2227 3035 
C 2227 2479 1901 2000 1536 1584 
L 262 146 
L 262 0 
L 2515 0 
L 2669 989 
z
" transform="scale(0.015625)"/>
       </defs>
       <use xlink:href="#CMSY10-0" transform="scale(0.996264)"/>
       <use xlink:href="#CMR17-32" transform="translate(77.487468 0) scale(0.996264)"/>
      </g>
     </g>
    </g>
    <g id="xtick_3">
     <g id="line2d_7">
      <path d="M 205.902256 346.758498 
L 205.902256 14.118498 
" clip-path="url(#p65b4c6cf94)" style="fill: none; stroke: #b0b0b0; stroke-width: 0.8; stroke-linecap: square"/>
     </g>
     <g id="line2d_8">
      <g>
       <use xlink:href="#m91c5d8ebf4" x="205.902256" y="346.758498" style="stroke: #000000; stroke-width: 0.8"/>
      </g>
     </g>
     <g id="line2d_9">
      <g>
       <use xlink:href="#m87ea17e54d" x="205.902256" y="14.118498" style="stroke: #000000; stroke-width: 0.8"/>
      </g>
     </g>
     <g id="text_3">
      <!-- $\mathdefault{−1}$ -->
      <g transform="translate(193.584464 369.095495) scale(0.2 -0.2)">
       <defs>
        <path id="CMR17-31" d="M 1702 4058 
C 1702 4192 1696 4192 1606 4192 
C 1357 3916 979 3827 621 3827 
C 602 3827 570 3827 563 3808 
C 557 3795 557 3782 557 3648 
C 755 3648 1088 3686 1344 3839 
L 1344 461 
C 1344 236 1331 160 781 160 
L 589 160 
L 589 0 
C 896 0 1216 0 1523 0 
C 1830 0 2150 0 2458 0 
L 2458 160 
L 2266 160 
C 1715 160 1702 230 1702 458 
L 1702 4058 
z
" transform="scale(0.015625)"/>
       </defs>
       <use xlink:href="#CMSY10-0" transform="scale(0.996264)"/>
       <use xlink:href="#CMR17-31" transform="translate(77.487468 0) scale(0.996264)"/>
      </g>
     </g>
    </g>
    <g id="xtick_4">
     <g id="line2d_10">
      <path d="M 280.302256 346.758498 
L 280.302256 14.118498 
" clip-path="url(#p65b4c6cf94)" style="fill: none; stroke: #b0b0b0; stroke-width: 0.8; stroke-linecap: square"/>
     </g>
     <g id="line2d_11">
      <g>
       <use xlink:href="#m91c5d8ebf4" x="280.302256" y="346.758498" style="stroke: #000000; stroke-width: 0.8"/>
      </g>
     </g>
     <g id="line2d_12">
      <g>
       <use xlink:href="#m87ea17e54d" x="280.302256" y="14.118498" style="stroke: #000000; stroke-width: 0.8"/>
      </g>
     </g>
     <g id="text_4">
      <!-- $\mathdefault{0}$ -->
      <g transform="translate(275.733208 369.095495) scale(0.2 -0.2)">
       <defs>
        <path id="CMR17-30" d="M 2688 2025 
C 2688 2416 2682 3080 2413 3591 
C 2176 4039 1798 4198 1466 4198 
C 1158 4198 768 4058 525 3597 
C 269 3118 243 2524 243 2025 
C 243 1661 250 1106 448 619 
C 723 -39 1216 -128 1466 -128 
C 1760 -128 2208 -7 2470 600 
C 2662 1042 2688 1559 2688 2025 
z
M 1466 -26 
C 1056 -26 813 325 723 812 
C 653 1188 653 1738 653 2096 
C 653 2588 653 2997 736 3387 
C 858 3929 1216 4096 1466 4096 
C 1728 4096 2067 3923 2189 3400 
C 2272 3036 2278 2607 2278 2096 
C 2278 1680 2278 1169 2202 792 
C 2067 95 1690 -26 1466 -26 
z
" transform="scale(0.015625)"/>
       </defs>
       <use xlink:href="#CMR17-30" transform="scale(0.996264)"/>
      </g>
     </g>
    </g>
    <g id="xtick_5">
     <g id="line2d_13">
      <path d="M 354.702256 346.758498 
L 354.702256 14.118498 
" clip-path="url(#p65b4c6cf94)" style="fill: none; stroke: #b0b0b0; stroke-width: 0.8; stroke-linecap: square"/>
     </g>
     <g id="line2d_14">
      <g>
       <use xlink:href="#m91c5d8ebf4" x="354.702256" y="346.758498" style="stroke: #000000; stroke-width: 0.8"/>
      </g>
     </g>
     <g id="line2d_15">
      <g>
       <use xlink:href="#m87ea17e54d" x="354.702256" y="14.118498" style="stroke: #000000; stroke-width: 0.8"/>
      </g>
     </g>
     <g id="text_5">
      <!-- $\mathdefault{1}$ -->
      <g transform="translate(350.133208 369.095495) scale(0.2 -0.2)">
       <use xlink:href="#CMR17-31" transform="scale(0.996264)"/>
      </g>
     </g>
    </g>
    <g id="xtick_6">
     <g id="line2d_16">
      <path d="M 429.102256 346.758498 
L 429.102256 14.118498 
" clip-path="url(#p65b4c6cf94)" style="fill: none; stroke: #b0b0b0; stroke-width: 0.8; stroke-linecap: square"/>
     </g>
     <g id="line2d_17">
      <g>
       <use xlink:href="#m91c5d8ebf4" x="429.102256" y="346.758498" style="stroke: #000000; stroke-width: 0.8"/>
      </g>
     </g>
     <g id="line2d_18">
      <g>
       <use xlink:href="#m87ea17e54d" x="429.102256" y="14.118498" style="stroke: #000000; stroke-width: 0.8"/>
      </g>
     </g>
     <g id="text_6">
      <!-- $\mathdefault{2}$ -->
      <g transform="translate(424.533208 369.095495) scale(0.2 -0.2)">
       <use xlink:href="#CMR17-32" transform="scale(0.996264)"/>
      </g>
     </g>
    </g>
    <g id="xtick_7">
     <g id="line2d_19">
      <path d="M 503.502256 346.758498 
L 503.502256 14.118498 
" clip-path="url(#p65b4c6cf94)" style="fill: none; stroke: #b0b0b0; stroke-width: 0.8; stroke-linecap: square"/>
     </g>
     <g id="line2d_20">
      <g>
       <use xlink:href="#m91c5d8ebf4" x="503.502256" y="346.758498" style="stroke: #000000; stroke-width: 0.8"/>
      </g>
     </g>
     <g id="line2d_21">
      <g>
       <use xlink:href="#m87ea17e54d" x="503.502256" y="14.118498" style="stroke: #000000; stroke-width: 0.8"/>
      </g>
     </g>
     <g id="text_7">
      <!-- $\mathdefault{3}$ -->
      <g transform="translate(498.933208 369.095495) scale(0.2 -0.2)">
       <use xlink:href="#CMR17-33" transform="scale(0.996264)"/>
      </g>
     </g>
    </g>
    <g id="text_8">
     <!-- $g$ -->
     <g transform="translate(275.631166 390.808126) scale(0.2 -0.2)">
      <defs>
       <path id="CMMI12-67" d="M 2163 811 
C 2138 709 2125 683 2042 588 
C 1779 249 1510 128 1312 128 
C 1101 128 902 294 902 734 
C 902 1073 1094 1788 1235 2076 
C 1421 2433 1709 2689 1978 2689 
C 2400 2689 2483 2165 2483 2127 
L 2464 2037 
L 2163 811 
z
M 2560 2395 
C 2477 2580 2298 2816 1978 2816 
C 1280 2816 486 1941 486 990 
C 486 326 890 0 1299 0 
C 1638 0 1939 268 2054 396 
L 1914 -171 
C 1824 -516 1786 -674 1555 -894 
C 1293 -1152 1050 -1152 909 -1152 
C 717 -1152 557 -1139 397 -1089 
C 602 -1033 653 -858 653 -789 
C 653 -689 576 -588 435 -588 
C 282 -588 115 -714 115 -922 
C 115 -1180 378 -1280 922 -1280 
C 1747 -1280 2176 -753 2259 -410 
L 2970 2435 
C 2989 2511 2989 2524 2989 2536 
C 2989 2625 2918 2695 2822 2695 
C 2669 2695 2579 2567 2560 2395 
z
" transform="scale(0.015625)"/>
      </defs>
      <use xlink:href="#CMMI12-67" transform="scale(0.996264)"/>
     </g>
    </g>
   </g>
   <g id="matplotlib.axis_2">
    <g id="ytick_1">
     <g id="line2d_22">
      <path d="M 57.102256 346.758498 
L 503.502256 346.758498 
" clip-path="url(#p65b4c6cf94)" style="fill: none; stroke: #b0b0b0; stroke-width: 0.8; stroke-linecap: square"/>
     </g>
     <g id="line2d_23">
      <defs>
       <path id="m46a0f71040" d="M 0 0 
L 3.5 0 
" style="stroke: #000000; stroke-width: 0.8"/>
      </defs>
      <g>
       <use xlink:href="#m46a0f71040" x="57.102256" y="346.758498" style="stroke: #000000; stroke-width: 0.8"/>
      </g>
     </g>
     <g id="line2d_24">
      <defs>
       <path id="m2f6e66d2ed" d="M 0 0 
L -3.5 0 
" style="stroke: #000000; stroke-width: 0.8"/>
      </defs>
      <g>
       <use xlink:href="#m2f6e66d2ed" x="503.502256" y="346.758498" style="stroke: #000000; stroke-width: 0.8"/>
      </g>
     </g>
     <g id="text_9">
      <!-- $\mathdefault{−2}$ -->
      <g transform="translate(28.966673 353.676997) scale(0.2 -0.2)">
       <use xlink:href="#CMSY10-0" transform="scale(0.996264)"/>
       <use xlink:href="#CMR17-32" transform="translate(77.487468 0) scale(0.996264)"/>
      </g>
     </g>
    </g>
    <g id="ytick_2">
     <g id="line2d_25">
      <path d="M 57.102256 305.178498 
L 503.502256 305.178498 
" clip-path="url(#p65b4c6cf94)" style="fill: none; stroke: #b0b0b0; stroke-width: 0.8; stroke-linecap: square"/>
     </g>
     <g id="line2d_26">
      <g>
       <use xlink:href="#m46a0f71040" x="57.102256" y="305.178498" style="stroke: #000000; stroke-width: 0.8"/>
      </g>
     </g>
     <g id="line2d_27">
      <g>
       <use xlink:href="#m2f6e66d2ed" x="503.502256" y="305.178498" style="stroke: #000000; stroke-width: 0.8"/>
      </g>
     </g>
     <g id="text_10">
      <!-- $\mathdefault{−1}$ -->
      <g transform="translate(28.966673 312.096997) scale(0.2 -0.2)">
       <use xlink:href="#CMSY10-0" transform="scale(0.996264)"/>
       <use xlink:href="#CMR17-31" transform="translate(77.487468 0) scale(0.996264)"/>
      </g>
     </g>
    </g>
    <g id="ytick_3">
     <g id="line2d_28">
      <path d="M 57.102256 263.598498 
L 503.502256 263.598498 
" clip-path="url(#p65b4c6cf94)" style="fill: none; stroke: #b0b0b0; stroke-width: 0.8; stroke-linecap: square"/>
     </g>
     <g id="line2d_29">
      <g>
       <use xlink:href="#m46a0f71040" x="57.102256" y="263.598498" style="stroke: #000000; stroke-width: 0.8"/>
      </g>
     </g>
     <g id="line2d_30">
      <g>
       <use xlink:href="#m2f6e66d2ed" x="503.502256" y="263.598498" style="stroke: #000000; stroke-width: 0.8"/>
      </g>
     </g>
     <g id="text_11">
      <!-- $\mathdefault{0}$ -->
      <g transform="translate(44.46416 270.516997) scale(0.2 -0.2)">
       <use xlink:href="#CMR17-30" transform="scale(0.996264)"/>
      </g>
     </g>
    </g>
    <g id="ytick_4">
     <g id="line2d_31">
      <path d="M 57.102256 222.018498 
L 503.502256 222.018498 
" clip-path="url(#p65b4c6cf94)" style="fill: none; stroke: #b0b0b0; stroke-width: 0.8; stroke-linecap: square"/>
     </g>
     <g id="line2d_32">
      <g>
       <use xlink:href="#m46a0f71040" x="57.102256" y="222.018498" style="stroke: #000000; stroke-width: 0.8"/>
      </g>
     </g>
     <g id="line2d_33">
      <g>
       <use xlink:href="#m2f6e66d2ed" x="503.502256" y="222.018498" style="stroke: #000000; stroke-width: 0.8"/>
      </g>
     </g>
     <g id="text_12">
      <!-- $\mathdefault{1}$ -->
      <g transform="translate(44.46416 228.936997) scale(0.2 -0.2)">
       <use xlink:href="#CMR17-31" transform="scale(0.996264)"/>
      </g>
     </g>
    </g>
    <g id="ytick_5">
     <g id="line2d_34">
      <path d="M 57.102256 180.438498 
L 503.502256 180.438498 
" clip-path="url(#p65b4c6cf94)" style="fill: none; stroke: #b0b0b0; stroke-width: 0.8; stroke-linecap: square"/>
     </g>
     <g id="line2d_35">
      <g>
       <use xlink:href="#m46a0f71040" x="57.102256" y="180.438498" style="stroke: #000000; stroke-width: 0.8"/>
      </g>
     </g>
     <g id="line2d_36">
      <g>
       <use xlink:href="#m2f6e66d2ed" x="503.502256" y="180.438498" style="stroke: #000000; stroke-width: 0.8"/>
      </g>
     </g>
     <g id="text_13">
      <!-- $\mathdefault{2}$ -->
      <g transform="translate(44.46416 187.356997) scale(0.2 -0.2)">
       <use xlink:href="#CMR17-32" transform="scale(0.996264)"/>
      </g>
     </g>
    </g>
    <g id="ytick_6">
     <g id="line2d_37">
      <path d="M 57.102256 138.858498 
L 503.502256 138.858498 
" clip-path="url(#p65b4c6cf94)" style="fill: none; stroke: #b0b0b0; stroke-width: 0.8; stroke-linecap: square"/>
     </g>
     <g id="line2d_38">
      <g>
       <use xlink:href="#m46a0f71040" x="57.102256" y="138.858498" style="stroke: #000000; stroke-width: 0.8"/>
      </g>
     </g>
     <g id="line2d_39">
      <g>
       <use xlink:href="#m2f6e66d2ed" x="503.502256" y="138.858498" style="stroke: #000000; stroke-width: 0.8"/>
      </g>
     </g>
     <g id="text_14">
      <!-- $\mathdefault{3}$ -->
      <g transform="translate(44.46416 145.776997) scale(0.2 -0.2)">
       <use xlink:href="#CMR17-33" transform="scale(0.996264)"/>
      </g>
     </g>
    </g>
    <g id="ytick_7">
     <g id="line2d_40">
      <path d="M 57.102256 97.278498 
L 503.502256 97.278498 
" clip-path="url(#p65b4c6cf94)" style="fill: none; stroke: #b0b0b0; stroke-width: 0.8; stroke-linecap: square"/>
     </g>
     <g id="line2d_41">
      <g>
       <use xlink:href="#m46a0f71040" x="57.102256" y="97.278498" style="stroke: #000000; stroke-width: 0.8"/>
      </g>
     </g>
     <g id="line2d_42">
      <g>
       <use xlink:href="#m2f6e66d2ed" x="503.502256" y="97.278498" style="stroke: #000000; stroke-width: 0.8"/>
      </g>
     </g>
     <g id="text_15">
      <!-- $\mathdefault{4}$ -->
      <g transform="translate(44.46416 104.196997) scale(0.2 -0.2)">
       <defs>
        <path id="CMR17-34" d="M 2150 4122 
C 2150 4256 2144 4256 2029 4256 
L 128 1254 
L 128 1088 
L 1779 1088 
L 1779 457 
C 1779 224 1766 160 1318 160 
L 1197 160 
L 1197 0 
C 1402 0 1747 0 1965 0 
C 2182 0 2528 0 2733 0 
L 2733 160 
L 2611 160 
C 2163 160 2150 224 2150 457 
L 2150 1088 
L 2803 1088 
L 2803 1254 
L 2150 1254 
L 2150 4122 
z
M 1798 3703 
L 1798 1254 
L 256 1254 
L 1798 3703 
z
" transform="scale(0.015625)"/>
       </defs>
       <use xlink:href="#CMR17-34" transform="scale(0.996264)"/>
      </g>
     </g>
    </g>
    <g id="ytick_8">
     <g id="line2d_43">
      <path d="M 57.102256 55.698498 
L 503.502256 55.698498 
" clip-path="url(#p65b4c6cf94)" style="fill: none; stroke: #b0b0b0; stroke-width: 0.8; stroke-linecap: square"/>
     </g>
     <g id="line2d_44">
      <g>
       <use xlink:href="#m46a0f71040" x="57.102256" y="55.698498" style="stroke: #000000; stroke-width: 0.8"/>
      </g>
     </g>
     <g id="line2d_45">
      <g>
       <use xlink:href="#m2f6e66d2ed" x="503.502256" y="55.698498" style="stroke: #000000; stroke-width: 0.8"/>
      </g>
     </g>
     <g id="text_16">
      <!-- $\mathdefault{5}$ -->
      <g transform="translate(44.46416 62.616997) scale(0.2 -0.2)">
       <defs>
        <path id="CMR17-35" d="M 730 3692 
C 794 3666 1056 3584 1325 3584 
C 1920 3584 2246 3911 2432 4100 
C 2432 4157 2432 4192 2394 4192 
C 2387 4192 2374 4192 2323 4163 
C 2099 4058 1837 3973 1517 3973 
C 1325 3973 1037 3999 723 4139 
C 653 4171 640 4171 634 4171 
C 602 4171 595 4164 595 4037 
L 595 2203 
C 595 2089 595 2057 659 2057 
C 691 2057 704 2070 736 2114 
C 941 2401 1222 2522 1542 2522 
C 1766 2522 2246 2382 2246 1289 
C 2246 1085 2246 715 2054 421 
C 1894 159 1645 25 1370 25 
C 947 25 518 320 403 814 
C 429 807 480 795 506 795 
C 589 795 749 840 749 1038 
C 749 1210 627 1280 506 1280 
C 358 1280 262 1190 262 1011 
C 262 454 704 -128 1382 -128 
C 2042 -128 2669 440 2669 1264 
C 2669 2030 2170 2624 1549 2624 
C 1222 2624 947 2503 730 2274 
L 730 3692 
z
" transform="scale(0.015625)"/>
       </defs>
       <use xlink:href="#CMR17-35" transform="scale(0.996264)"/>
      </g>
     </g>
    </g>
    <g id="ytick_9">
     <g id="line2d_46">
      <path d="M 57.102256 14.118498 
L 503.502256 14.118498 
" clip-path="url(#p65b4c6cf94)" style="fill: none; stroke: #b0b0b0; stroke-width: 0.8; stroke-linecap: square"/>
     </g>
     <g id="line2d_47">
      <g>
       <use xlink:href="#m46a0f71040" x="57.102256" y="14.118498" style="stroke: #000000; stroke-width: 0.8"/>
      </g>
     </g>
     <g id="line2d_48">
      <g>
       <use xlink:href="#m2f6e66d2ed" x="503.502256" y="14.118498" style="stroke: #000000; stroke-width: 0.8"/>
      </g>
     </g>
     <g id="text_17">
      <!-- $\mathdefault{6}$ -->
      <g transform="translate(44.46416 21.036997) scale(0.2 -0.2)">
       <defs>
        <path id="CMR17-36" d="M 678 2176 
C 678 3690 1395 4032 1811 4032 
C 1946 4032 2272 4009 2400 3776 
C 2298 3776 2106 3776 2106 3553 
C 2106 3381 2246 3323 2336 3323 
C 2394 3323 2566 3348 2566 3560 
C 2566 3954 2246 4179 1805 4179 
C 1043 4179 243 3390 243 1984 
C 243 253 966 -128 1478 -128 
C 2099 -128 2688 427 2688 1283 
C 2688 2081 2170 2662 1517 2662 
C 1126 2662 838 2407 678 1960 
L 678 2176 
z
M 1478 25 
C 691 25 691 1200 691 1436 
C 691 1896 909 2560 1504 2560 
C 1613 2560 1926 2560 2138 2120 
C 2253 1870 2253 1609 2253 1289 
C 2253 944 2253 690 2118 434 
C 1978 171 1773 25 1478 25 
z
" transform="scale(0.015625)"/>
       </defs>
       <use xlink:href="#CMR17-36" transform="scale(0.996264)"/>
      </g>
     </g>
    </g>
    <g id="text_18">
     <!-- $E_\pm$ -->
     <g transform="translate(20.815598 193.083713) rotate(-90) scale(0.2 -0.2)">
      <defs>
       <path id="CMMI12-45" d="M 4448 1489 
C 4454 1508 4474 1554 4474 1579 
C 4474 1611 4448 1643 4410 1643 
C 4384 1643 4371 1637 4352 1617 
C 4339 1611 4339 1598 4282 1469 
C 3904 570 3629 185 2605 185 
L 1670 185 
C 1581 185 1568 185 1530 192 
C 1459 198 1453 211 1453 262 
C 1453 307 1466 345 1478 403 
L 1920 2176 
L 2554 2176 
C 3053 2176 3091 2066 3091 1874 
C 3091 1810 3091 1752 3046 1560 
C 3034 1534 3027 1508 3027 1489 
C 3027 1444 3059 1425 3098 1425 
C 3155 1425 3162 1469 3187 1559 
L 3552 3042 
C 3552 3073 3526 3105 3488 3105 
C 3430 3105 3424 3080 3398 2990 
C 3270 2501 3142 2361 2573 2361 
L 1965 2361 
L 2362 3930 
C 2419 4154 2432 4154 2694 4154 
L 3610 4154 
C 4397 4154 4557 3943 4557 3458 
C 4557 3451 4557 3273 4531 3062 
C 4525 3036 4518 2998 4518 2985 
C 4518 2934 4550 2915 4589 2915 
C 4634 2915 4659 2941 4672 3055 
L 4806 4174 
C 4806 4195 4819 4263 4819 4277 
C 4819 4352 4762 4352 4646 4352 
L 1523 4352 
C 1402 4352 1338 4352 1338 4229 
C 1338 4154 1382 4154 1491 4154 
C 1888 4154 1888 4114 1888 4052 
C 1888 4020 1882 3994 1862 3924 
L 998 473 
C 941 249 928 185 480 185 
C 358 185 294 185 294 70 
C 294 0 333 0 461 0 
L 3674 0 
C 3814 0 3821 6 3866 110 
L 4448 1489 
z
" transform="scale(0.015625)"/>
       <path id="CMSY10-6" d="M 2618 1984 
L 4397 1984 
C 4506 1984 4621 1984 4621 2112 
C 4621 2240 4506 2240 4397 2240 
L 2618 2240 
L 2618 4018 
C 2618 4121 2618 4256 2490 4256 
C 2362 4256 2362 4140 2362 4038 
L 2362 2240 
L 576 2240 
C 467 2240 352 2240 352 2112 
C 352 1984 467 1984 576 1984 
L 2362 1984 
L 2362 256 
L 576 256 
C 467 256 352 256 352 128 
C 352 0 467 0 576 0 
L 4397 0 
C 4506 0 4621 0 4621 128 
C 4621 256 4506 256 4397 256 
L 2618 256 
L 2618 1984 
z
" transform="scale(0.015625)"/>
      </defs>
      <use xlink:href="#CMMI12-45" transform="scale(0.996264)"/>
      <use xlink:href="#CMSY10-6" transform="translate(72.211218 -14.943915) scale(0.697382)"/>
     </g>
    </g>
   </g>
   <g id="line2d_49">
    <path d="M 57.102256 62.832379 
L 60.822256 65.039861 
L 64.542256 67.252333 
L 68.262256 69.469794 
L 71.982256 71.692661 
L 75.702256 73.921349 
L 79.422256 76.156274 
L 83.142256 78.397852 
L 86.862256 80.646498 
L 90.582256 82.902629 
L 94.302256 85.16666 
L 98.022256 87.439423 
L 101.742256 89.721749 
L 105.462256 92.013639 
L 109.182256 94.316755 
L 112.902256 96.631514 
L 116.622256 98.958746 
L 120.342256 101.2997 
L 124.062256 103.656039 
L 127.782256 106.029009 
L 131.502256 108.419859 
L 135.222256 110.830668 
L 138.942256 113.263929 
L 142.662256 115.721723 
L 146.382256 118.207376 
L 150.102256 120.723797 
L 153.822256 123.275562 
L 157.542256 125.867243 
L 161.262256 128.505078 
L 164.982256 131.196552 
L 168.702256 133.950811 
L 172.422256 136.779498 
L 176.142256 139.698414 
L 179.862256 142.728765 
L 183.582256 145.899656 
L 187.302256 149.253498 
L 191.022256 152.857653 
L 194.742256 156.825632 
L 198.462256 161.384048 
L 202.182256 167.126246 
L 205.902256 180.438498 
L 209.622256 180.438498 
L 213.342256 180.438498 
L 217.062256 180.438498 
L 220.782256 180.438498 
L 224.502256 180.438498 
L 228.222256 180.438498 
L 231.942256 180.438498 
L 235.662256 180.438498 
L 239.382256 180.438498 
L 243.102256 180.438498 
L 246.822256 180.438498 
L 250.542256 180.438498 
L 254.262256 180.438498 
L 257.982256 180.438498 
L 261.702256 180.438498 
L 265.422256 180.438498 
L 269.142256 180.438498 
L 272.862256 180.438498 
L 276.582256 180.438498 
L 280.302256 180.438498 
L 284.022256 180.438498 
L 287.742256 180.438498 
L 291.462256 180.438498 
L 295.182256 180.438498 
L 298.902256 180.438498 
L 302.622256 180.438498 
L 306.342256 180.438498 
L 310.062256 180.438498 
L 313.782256 180.438498 
L 317.502256 180.438498 
L 321.222256 180.438498 
L 324.942256 180.438498 
L 328.662256 180.438498 
L 332.382256 180.438498 
L 336.102256 180.438498 
L 339.822256 180.438498 
L 343.542256 180.438498 
L 347.262256 180.438498 
L 350.982256 180.438498 
L 354.702256 180.438498 
L 358.422256 167.126246 
L 362.142256 161.384048 
L 365.862256 156.825632 
L 369.582256 152.857653 
L 373.302256 149.253498 
L 377.022256 145.899656 
L 380.742256 142.728765 
L 384.462256 139.698414 
L 388.182256 136.779498 
L 391.902256 133.950811 
L 395.622256 131.196552 
L 399.342256 128.505078 
L 403.062256 125.867243 
L 406.782256 123.275562 
L 410.502256 120.723797 
L 414.222256 118.207376 
L 417.942256 115.721723 
L 421.662256 113.263929 
L 425.382256 110.830668 
L 429.102256 108.419859 
L 432.822256 106.029009 
L 436.542256 103.656039 
L 440.262256 101.2997 
L 443.982256 98.958746 
L 447.702256 96.631514 
L 451.422256 94.316755 
L 455.142256 92.013639 
L 458.862256 89.721749 
L 462.582256 87.439423 
L 466.302256 85.16666 
L 470.022256 82.902629 
L 473.742256 80.646498 
L 477.462256 78.397852 
L 481.182256 76.156274 
L 484.902256 73.921349 
L 488.622256 71.692661 
L 492.342256 69.469794 
L 496.062256 67.252333 
L 499.782256 65.039861 
L 503.502256 62.832379 
" clip-path="url(#p65b4c6cf94)" style="fill: none; stroke-dasharray: ; stroke-dashoffset: 0; stroke: #000000; stroke-width: 3"/>
   </g>
   <g id="line2d_50">
    <path d="M 57.102256 263.598498 
L 60.822256 263.598498 
L 64.542256 263.598498 
L 68.262256 263.598498 
L 71.982256 263.598498 
L 75.702256 263.598498 
L 79.422256 263.598498 
L 83.142256 263.598498 
L 86.862256 263.598498 
L 90.582256 263.598498 
L 94.302256 263.598498 
L 98.022256 263.598498 
L 101.742256 263.598498 
L 105.462256 263.598498 
L 109.182256 263.598498 
L 112.902256 263.598498 
L 116.622256 263.598498 
L 120.342256 263.598498 
L 124.062256 263.598498 
L 127.782256 263.598498 
L 131.502256 263.598498 
L 135.222256 263.598498 
L 138.942256 263.598498 
L 142.662256 263.598498 
L 146.382256 263.598498 
L 150.102256 263.598498 
L 153.822256 263.598498 
L 157.542256 263.598498 
L 161.262256 263.598498 
L 164.982256 263.598498 
L 168.702256 263.598498 
L 172.422256 263.598498 
L 176.142256 263.598498 
L 179.862256 263.598498 
L 183.582256 263.598498 
L 187.302256 263.598498 
L 191.022256 263.598498 
L 194.742256 263.598498 
L 198.462256 263.598498 
L 202.182256 263.598498 
L 205.902256 263.598498 
L 209.622256 250.615143 
L 213.342256 245.474192 
L 217.062256 241.694861 
L 220.782256 238.650498 
L 224.502256 236.095906 
L 228.222256 233.904432 
L 231.942256 232.000443 
L 235.662256 230.334498 
L 239.382256 228.872338 
L 243.102256 227.589179 
L 246.822256 226.466353 
L 250.542256 225.489805 
L 254.262256 224.648433 
L 257.982256 223.933715 
L 261.702256 223.33883 
L 265.422256 222.858581 
L 269.142256 222.488935 
L 272.862256 222.226939 
L 276.582256 222.070515 
L 280.302256 222.018498 
L 284.022256 222.070515 
L 287.742256 222.226939 
L 291.462256 222.488935 
L 295.182256 222.858581 
L 298.902256 223.33883 
L 302.622256 223.933715 
L 306.342256 224.648433 
L 310.062256 225.489805 
L 313.782256 226.466353 
L 317.502256 227.589179 
L 321.222256 228.872338 
L 324.942256 230.334498 
L 328.662256 232.000443 
L 332.382256 233.904432 
L 336.102256 236.095906 
L 339.822256 238.650498 
L 343.542256 241.694861 
L 347.262256 245.474192 
L 350.982256 250.615143 
L 354.702256 263.598498 
L 358.422256 263.598498 
L 362.142256 263.598498 
L 365.862256 263.598498 
L 369.582256 263.598498 
L 373.302256 263.598498 
L 377.022256 263.598498 
L 380.742256 263.598498 
L 384.462256 263.598498 
L 388.182256 263.598498 
L 391.902256 263.598498 
L 395.622256 263.598498 
L 399.342256 263.598498 
L 403.062256 263.598498 
L 406.782256 263.598498 
L 410.502256 263.598498 
L 414.222256 263.598498 
L 417.942256 263.598498 
L 421.662256 263.598498 
L 425.382256 263.598498 
L 429.102256 263.598498 
L 432.822256 263.598498 
L 436.542256 263.598498 
L 440.262256 263.598498 
L 443.982256 263.598498 
L 447.702256 263.598498 
L 451.422256 263.598498 
L 455.142256 263.598498 
L 458.862256 263.598498 
L 462.582256 263.598498 
L 466.302256 263.598498 
L 470.022256 263.598498 
L 473.742256 263.598498 
L 477.462256 263.598498 
L 481.182256 263.598498 
L 484.902256 263.598498 
L 488.622256 263.598498 
L 492.342256 263.598498 
L 496.062256 263.598498 
L 499.782256 263.598498 
L 503.502256 263.598498 
" clip-path="url(#p65b4c6cf94)" style="fill: none; stroke-dasharray: 18,3; stroke-dashoffset: 0; stroke: #000000; stroke-width: 3"/>
   </g>
   <g id="line2d_51">
    <path d="M 57.102256 298.044493 
L 60.822256 295.837052 
L 64.542256 293.624747 
L 68.262256 291.407244 
L 71.982256 289.184294 
L 75.702256 286.955564 
L 79.422256 284.720598 
L 83.142256 282.479062 
L 86.862256 280.230498 
L 90.582256 277.974409 
L 94.302256 275.710253 
L 98.022256 273.437449 
L 101.742256 271.155331 
L 105.462256 268.863233 
L 109.182256 266.560304 
L 112.902256 264.245666 
L 116.622256 261.918325 
L 120.342256 259.577155 
L 124.062256 257.220916 
L 127.782256 254.848112 
L 131.502256 252.457179 
L 135.222256 250.046204 
L 138.942256 247.613026 
L 142.662256 245.15519 
L 146.382256 242.669746 
L 150.102256 240.153241 
L 153.822256 237.60156 
L 157.542256 235.009754 
L 161.262256 232.371918 
L 164.982256 229.680528 
L 168.702256 226.926352 
L 172.422256 224.097498 
L 176.142256 221.178582 
L 179.862256 218.148232 
L 183.582256 214.977341 
L 187.302256 211.623498 
L 191.022256 208.019344 
L 194.742256 204.051365 
L 198.462256 199.492949 
L 202.182256 193.750751 
L 205.902256 180.438498 
L 209.622256 180.438498 
L 213.342256 180.438498 
L 217.062256 180.438498 
L 220.782256 180.438498 
L 224.502256 180.438498 
L 228.222256 180.438498 
L 231.942256 180.438498 
L 235.662256 180.438498 
L 239.382256 180.438498 
L 243.102256 180.438498 
L 246.822256 180.438498 
L 250.542256 180.438498 
L 254.262256 180.438498 
L 257.982256 180.438498 
L 261.702256 180.438498 
L 265.422256 180.438498 
L 269.142256 180.438498 
L 272.862256 180.438498 
L 276.582256 180.438498 
L 280.302256 180.438498 
L 284.022256 180.438498 
L 287.742256 180.438498 
L 291.462256 180.438498 
L 295.182256 180.438498 
L 298.902256 180.438498 
L 302.622256 180.438498 
L 306.342256 180.438498 
L 310.062256 180.438498 
L 313.782256 180.438498 
L 317.502256 180.438498 
L 321.222256 180.438498 
L 324.942256 180.438498 
L 328.662256 180.438498 
L 332.382256 180.438498 
L 336.102256 180.438498 
L 339.822256 180.438498 
L 343.542256 180.438498 
L 347.262256 180.438498 
L 350.982256 180.438498 
L 354.702256 180.438498 
L 358.422256 193.750751 
L 362.142256 199.492949 
L 365.862256 204.051365 
L 369.582256 208.019344 
L 373.302256 211.623498 
L 377.022256 214.977341 
L 380.742256 218.148232 
L 384.462256 221.178582 
L 388.182256 224.097498 
L 391.902256 226.926352 
L 395.622256 229.680528 
L 399.342256 232.371918 
L 403.062256 235.009754 
L 406.782256 237.60156 
L 410.502256 240.153241 
L 414.222256 242.669746 
L 417.942256 245.15519 
L 421.662256 247.613026 
L 425.382256 250.046204 
L 429.102256 252.457179 
L 432.822256 254.848112 
L 436.542256 257.220916 
L 440.262256 259.577155 
L 443.982256 261.918325 
L 447.702256 264.245666 
L 451.422256 266.560304 
L 455.142256 268.863233 
L 458.862256 271.155331 
L 462.582256 273.437449 
L 466.302256 275.710253 
L 470.022256 277.974409 
L 473.742256 280.230498 
L 477.462256 282.479062 
L 481.182256 284.720598 
L 484.902256 286.955564 
L 488.622256 289.184294 
L 492.342256 291.407244 
L 496.062256 293.624747 
L 499.782256 295.837052 
L 503.502256 298.044493 
" clip-path="url(#p65b4c6cf94)" style="fill: none; stroke-dasharray: ; stroke-dashoffset: 0; stroke: #ff0000; stroke-width: 3"/>
   </g>
   <g id="line2d_52">
    <path d="M 57.102256 263.598498 
L 60.822256 263.598498 
L 64.542256 263.598498 
L 68.262256 263.598498 
L 71.982256 263.598498 
L 75.702256 263.598498 
L 79.422256 263.598498 
L 83.142256 263.598498 
L 86.862256 263.598498 
L 90.582256 263.598498 
L 94.302256 263.598498 
L 98.022256 263.598498 
L 101.742256 263.598498 
L 105.462256 263.598498 
L 109.182256 263.598498 
L 112.902256 263.598498 
L 116.622256 263.598498 
L 120.342256 263.598498 
L 124.062256 263.598498 
L 127.782256 263.598498 
L 131.502256 263.598498 
L 135.222256 263.598498 
L 138.942256 263.598498 
L 142.662256 263.598498 
L 146.382256 263.598498 
L 150.102256 263.598498 
L 153.822256 263.598498 
L 157.542256 263.598498 
L 161.262256 263.598498 
L 164.982256 263.598498 
L 168.702256 263.598498 
L 172.422256 263.598498 
L 176.142256 263.598498 
L 179.862256 263.598498 
L 183.582256 263.598498 
L 187.302256 263.598498 
L 191.022256 263.598498 
L 194.742256 263.598498 
L 198.462256 263.598498 
L 202.182256 263.598498 
L 205.902256 263.598498 
L 209.622256 276.581853 
L 213.342256 281.722805 
L 217.062256 285.502136 
L 220.782256 288.546498 
L 224.502256 291.10109 
L 228.222256 293.292564 
L 231.942256 295.196554 
L 235.662256 296.862498 
L 239.382256 298.324659 
L 243.102256 299.607818 
L 246.822256 300.730644 
L 250.542256 301.707192 
L 254.262256 302.548563 
L 257.982256 303.263282 
L 261.702256 303.858167 
L 265.422256 304.338416 
L 269.142256 304.708062 
L 272.862256 304.970058 
L 276.582256 305.126482 
L 280.302256 305.178498 
L 284.022256 305.126482 
L 287.742256 304.970058 
L 291.462256 304.708062 
L 295.182256 304.338416 
L 298.902256 303.858167 
L 302.622256 303.263282 
L 306.342256 302.548563 
L 310.062256 301.707192 
L 313.782256 300.730644 
L 317.502256 299.607818 
L 321.222256 298.324659 
L 324.942256 296.862498 
L 328.662256 295.196554 
L 332.382256 293.292564 
L 336.102256 291.10109 
L 339.822256 288.546498 
L 343.542256 285.502136 
L 347.262256 281.722805 
L 350.982256 276.581853 
L 354.702256 263.598498 
L 358.422256 263.598498 
L 362.142256 263.598498 
L 365.862256 263.598498 
L 369.582256 263.598498 
L 373.302256 263.598498 
L 377.022256 263.598498 
L 380.742256 263.598498 
L 384.462256 263.598498 
L 388.182256 263.598498 
L 391.902256 263.598498 
L 395.622256 263.598498 
L 399.342256 263.598498 
L 403.062256 263.598498 
L 406.782256 263.598498 
L 410.502256 263.598498 
L 414.222256 263.598498 
L 417.942256 263.598498 
L 421.662256 263.598498 
L 425.382256 263.598498 
L 429.102256 263.598498 
L 432.822256 263.598498 
L 436.542256 263.598498 
L 440.262256 263.598498 
L 443.982256 263.598498 
L 447.702256 263.598498 
L 451.422256 263.598498 
L 455.142256 263.598498 
L 458.862256 263.598498 
L 462.582256 263.598498 
L 466.302256 263.598498 
L 470.022256 263.598498 
L 473.742256 263.598498 
L 477.462256 263.598498 
L 481.182256 263.598498 
L 484.902256 263.598498 
L 488.622256 263.598498 
L 492.342256 263.598498 
L 496.062256 263.598498 
L 499.782256 263.598498 
L 503.502256 263.598498 
" clip-path="url(#p65b4c6cf94)" style="fill: none; stroke-dasharray: 18,3; stroke-dashoffset: 0; stroke: #ff0000; stroke-width: 3"/>
   </g>
   <g id="patch_3">
    <path d="M 57.102256 346.758498 
L 57.102256 14.118498 
" style="fill: none; stroke: #000000; stroke-width: 0.8; stroke-linejoin: miter; stroke-linecap: square"/>
   </g>
   <g id="patch_4">
    <path d="M 503.502256 346.758498 
L 503.502256 14.118498 
" style="fill: none; stroke: #000000; stroke-width: 0.8; stroke-linejoin: miter; stroke-linecap: square"/>
   </g>
   <g id="patch_5">
    <path d="M 57.102256 346.758498 
L 503.502256 346.758498 
" style="fill: none; stroke: #000000; stroke-width: 0.8; stroke-linejoin: miter; stroke-linecap: square"/>
   </g>
   <g id="patch_6">
    <path d="M 57.102256 14.118498 
L 503.502256 14.118498 
" style="fill: none; stroke: #000000; stroke-width: 0.8; stroke-linejoin: miter; stroke-linecap: square"/>
   </g>
   <g id="legend_1">
    <g id="patch_7">
     <path d="M 207.393279 149.681161 
L 353.211232 149.681161 
Q 357.211232 149.681161 357.211232 145.681161 
L 357.211232 28.118498 
Q 357.211232 24.118498 353.211232 24.118498 
L 207.393279 24.118498 
Q 203.393279 24.118498 203.393279 28.118498 
L 203.393279 145.681161 
Q 203.393279 149.681161 207.393279 149.681161 
z
" style="fill: #ffffff; opacity: 0.8; stroke: #cccccc; stroke-linejoin: miter"/>
    </g>
    <g id="line2d_53">
     <path d="M 211.393279 40.04452 
L 231.393279 40.04452 
L 251.393279 40.04452 
" style="fill: none; stroke-dasharray: ; stroke-dashoffset: 0; stroke: #000000; stroke-width: 3"/>
    </g>
    <g id="text_19">
     <!-- $\mathrm{Re}[E_+(g)]$ -->
     <g transform="translate(267.393279 47.04452) scale(0.2 -0.2)">
      <defs>
       <path id="CMR17-52" d="M 2509 2146 
C 3117 2268 3629 2676 3629 3186 
C 3629 3785 2950 4326 2054 4326 
L 333 4326 
L 333 4160 
C 774 4160 845 4160 845 3873 
L 845 415 
C 845 128 774 128 333 128 
L 333 -26 
C 518 -26 851 -26 1050 -26 
C 1248 -26 1581 -26 1766 -26 
L 1766 128 
C 1325 128 1254 128 1254 417 
L 1254 2112 
L 2003 2112 
C 2368 2112 2573 1964 2662 1881 
C 2918 1632 2918 1459 2918 1024 
C 2918 595 2918 377 3110 160 
C 3354 -102 3680 -128 3821 -128 
C 4294 -128 4365 396 4365 503 
C 4365 540 4365 585 4307 585 
C 4256 585 4250 547 4250 522 
C 4218 112 4032 -26 3834 -26 
C 3482 -26 3443 375 3405 764 
C 3386 898 3373 993 3360 1133 
C 3322 1452 3270 1917 2509 2146 
z
M 1984 2214 
L 1254 2214 
L 1254 3913 
C 1254 4129 1267 4160 1523 4160 
L 1990 4160 
C 2522 4160 3142 3977 3142 3190 
C 3142 2372 2464 2214 1984 2214 
z
" transform="scale(0.015625)"/>
       <path id="CMR17-65" d="M 2438 1472 
C 2464 1498 2464 1511 2464 1576 
C 2464 2238 2118 2816 1389 2816 
C 710 2816 173 2169 173 1383 
C 173 551 781 -64 1459 -64 
C 2176 -64 2458 607 2458 740 
C 2458 784 2419 784 2406 784 
C 2362 784 2355 771 2330 696 
C 2189 265 1837 51 1504 51 
C 1229 51 954 203 781 480 
C 582 803 582 1176 582 1472 
L 2438 1472 
z
M 589 1568 
C 634 2505 1126 2714 1382 2714 
C 1818 2714 2112 2297 2118 1568 
L 589 1568 
z
" transform="scale(0.015625)"/>
       <path id="CMR17-5b" d="M 1504 -1600 
L 1504 -1377 
L 902 -1377 
L 902 4544 
L 1504 4544 
L 1504 4767 
L 678 4767 
L 678 -1600 
L 1504 -1600 
z
" transform="scale(0.015625)"/>
       <path id="CMR17-2b" d="M 2413 1472 
L 4109 1472 
C 4198 1472 4307 1472 4307 1580 
C 4307 1695 4205 1695 4109 1695 
L 2413 1695 
L 2413 3386 
C 2413 3475 2413 3584 2304 3584 
C 2189 3584 2189 3482 2189 3386 
L 2189 1695 
L 493 1695 
C 403 1695 294 1695 294 1587 
C 294 1472 397 1472 493 1472 
L 2189 1472 
L 2189 -218 
C 2189 -307 2189 -416 2298 -416 
C 2413 -416 2413 -314 2413 -218 
L 2413 1472 
z
" transform="scale(0.015625)"/>
       <path id="CMR17-28" d="M 1958 -1561 
C 1958 -1555 1958 -1542 1939 -1523 
C 1645 -1224 858 -407 858 1581 
C 858 3569 1632 4379 1946 4697 
C 1946 4704 1958 4717 1958 4736 
C 1958 4755 1939 4768 1914 4768 
C 1843 4768 1299 4296 986 3594 
C 666 2887 576 2199 576 1588 
C 576 1128 621 351 1005 -471 
C 1312 -1135 1837 -1600 1914 -1600 
C 1946 -1600 1958 -1587 1958 -1561 
z
" transform="scale(0.015625)"/>
       <path id="CMR17-29" d="M 1683 1581 
C 1683 2040 1638 2817 1254 3639 
C 947 4303 422 4768 346 4768 
C 326 4768 301 4761 301 4729 
C 301 4717 307 4710 314 4697 
C 621 4378 1402 3568 1402 1584 
C 1402 -407 627 -1217 314 -1537 
C 307 -1549 301 -1556 301 -1568 
C 301 -1600 326 -1600 346 -1600 
C 416 -1600 960 -1128 1274 -426 
C 1594 281 1683 969 1683 1581 
z
" transform="scale(0.015625)"/>
       <path id="CMR17-5d" d="M 915 4767 
L 90 4767 
L 90 4544 
L 691 4544 
L 691 -1377 
L 90 -1377 
L 90 -1600 
L 915 -1600 
L 915 4767 
z
" transform="scale(0.015625)"/>
      </defs>
      <use xlink:href="#CMR17-52" transform="scale(0.996264)"/>
      <use xlink:href="#CMR17-65" transform="translate(67.791102 0) scale(0.996264)"/>
      <use xlink:href="#CMR17-5b" transform="translate(108.276762 0) scale(0.996264)"/>
      <use xlink:href="#CMMI12-45" transform="translate(133.147821 0) scale(0.996264)"/>
      <use xlink:href="#CMR17-2b" transform="translate(205.359039 -14.943915) scale(0.697382)"/>
      <use xlink:href="#CMR17-28" transform="translate(256.057302 0) scale(0.996264)"/>
      <use xlink:href="#CMMI12-67" transform="translate(291.33807 0) scale(0.996264)"/>
      <use xlink:href="#CMR17-29" transform="translate(341.623559 0) scale(0.996264)"/>
      <use xlink:href="#CMR17-5d" transform="translate(376.904327 0) scale(0.996264)"/>
     </g>
    </g>
    <g id="line2d_54">
     <path d="M 211.393279 69.935186 
L 231.393279 69.935186 
L 251.393279 69.935186 
" style="fill: none; stroke-dasharray: 18,3; stroke-dashoffset: 0; stroke: #000000; stroke-width: 3"/>
    </g>
    <g id="text_20">
     <!-- $\mathrm{Im}[E_+(g)]$ -->
     <g transform="translate(267.393279 76.935186) scale(0.2 -0.2)">
      <defs>
       <path id="CMR17-49" d="M 1261 3905 
C 1261 4192 1338 4192 1798 4192 
L 1798 4352 
C 1594 4352 1267 4352 1050 4352 
C 832 4352 506 4352 301 4352 
L 301 4192 
C 762 4192 838 4192 838 3905 
L 838 447 
C 838 160 762 160 301 160 
L 301 0 
C 506 0 832 0 1050 0 
C 1267 0 1594 0 1798 0 
L 1798 160 
C 1338 160 1261 160 1261 447 
L 1261 3905 
z
" transform="scale(0.015625)"/>
       <path id="CMR17-6d" d="M 4326 1933 
C 4326 2252 4269 2790 3507 2790 
C 3072 2790 2771 2496 2656 2151 
L 2650 2151 
C 2573 2676 2195 2790 1837 2790 
C 1331 2790 1069 2400 973 2144 
L 966 2144 
L 966 2790 
L 211 2720 
L 211 2554 
C 589 2554 646 2515 646 2208 
L 646 428 
C 646 184 621 153 211 153 
L 211 -13 
C 365 0 646 0 813 0 
C 979 0 1267 0 1421 -13 
L 1421 153 
C 1011 153 986 178 986 428 
L 986 1658 
C 986 2247 1344 2688 1792 2688 
C 2266 2688 2317 2266 2317 1958 
L 2317 428 
C 2317 184 2291 153 1882 153 
L 1882 -13 
C 2035 0 2317 0 2483 0 
C 2650 0 2938 0 3091 -13 
L 3091 153 
C 2682 153 2656 178 2656 428 
L 2656 1658 
C 2656 2247 3014 2688 3462 2688 
C 3936 2688 3987 2266 3987 1958 
L 3987 428 
C 3987 184 3962 153 3552 153 
L 3552 -13 
C 3706 0 3987 0 4154 0 
C 4320 0 4608 0 4762 -13 
L 4762 153 
C 4352 153 4326 178 4326 428 
L 4326 1933 
z
" transform="scale(0.015625)"/>
      </defs>
      <use xlink:href="#CMR17-49" transform="scale(0.996264)"/>
      <use xlink:href="#CMR17-6d" transform="translate(32.638409 0) scale(0.996264)"/>
      <use xlink:href="#CMR17-5b" transform="translate(109.557999 0) scale(0.996264)"/>
      <use xlink:href="#CMMI12-45" transform="translate(134.429058 0) scale(0.996264)"/>
      <use xlink:href="#CMR17-2b" transform="translate(206.640275 -14.943915) scale(0.697382)"/>
      <use xlink:href="#CMR17-28" transform="translate(257.338539 0) scale(0.996264)"/>
      <use xlink:href="#CMMI12-67" transform="translate(292.619307 0) scale(0.996264)"/>
      <use xlink:href="#CMR17-29" transform="translate(342.904796 0) scale(0.996264)"/>
      <use xlink:href="#CMR17-5d" transform="translate(378.185564 0) scale(0.996264)"/>
     </g>
    </g>
    <g id="line2d_55">
     <path d="M 211.393279 99.825852 
L 231.393279 99.825852 
L 251.393279 99.825852 
" style="fill: none; stroke-dasharray: ; stroke-dashoffset: 0; stroke: #ff0000; stroke-width: 3"/>
    </g>
    <g id="text_21">
     <!-- $\mathrm{Re}[E_-(g)]$ -->
     <g transform="translate(267.393279 106.825852) scale(0.2 -0.2)">
      <use xlink:href="#CMR17-52" transform="scale(0.996264)"/>
      <use xlink:href="#CMR17-65" transform="translate(67.791102 0) scale(0.996264)"/>
      <use xlink:href="#CMR17-5b" transform="translate(108.276762 0) scale(0.996264)"/>
      <use xlink:href="#CMMI12-45" transform="translate(133.147821 0) scale(0.996264)"/>
      <use xlink:href="#CMSY10-0" transform="translate(205.359039 -14.943915) scale(0.697382)"/>
      <use xlink:href="#CMR17-28" transform="translate(260.098164 0) scale(0.996264)"/>
      <use xlink:href="#CMMI12-67" transform="translate(295.378932 0) scale(0.996264)"/>
      <use xlink:href="#CMR17-29" transform="translate(345.664421 0) scale(0.996264)"/>
      <use xlink:href="#CMR17-5d" transform="translate(380.945189 0) scale(0.996264)"/>
     </g>
    </g>
    <g id="line2d_56">
     <path d="M 211.393279 129.716518 
L 231.393279 129.716518 
L 251.393279 129.716518 
" style="fill: none; stroke-dasharray: 18,3; stroke-dashoffset: 0; stroke: #ff0000; stroke-width: 3"/>
    </g>
    <g id="text_22">
     <!-- $\mathrm{Im}[E_-(g)]$ -->
     <g transform="translate(267.393279 136.716518) scale(0.2 -0.2)">
      <use xlink:href="#CMR17-49" transform="scale(0.996264)"/>
      <use xlink:href="#CMR17-6d" transform="translate(32.638409 0) scale(0.996264)"/>
      <use xlink:href="#CMR17-5b" transform="translate(109.557999 0) scale(0.996264)"/>
      <use xlink:href="#CMMI12-45" transform="translate(134.429058 0) scale(0.996264)"/>
      <use xlink:href="#CMSY10-0" transform="translate(206.640275 -14.943915) scale(0.697382)"/>
      <use xlink:href="#CMR17-28" transform="translate(261.379401 0) scale(0.996264)"/>
      <use xlink:href="#CMMI12-67" transform="translate(296.660168 0) scale(0.996264)"/>
      <use xlink:href="#CMR17-29" transform="translate(346.945658 0) scale(0.996264)"/>
      <use xlink:href="#CMR17-5d" transform="translate(382.226426 0) scale(0.996264)"/>
     </g>
    </g>
   </g>
  </g>
 </g>
 <defs>
  <clipPath id="p65b4c6cf94">
   <rect x="57.102256" y="14.118498" width="446.4" height="332.64"/>
  </clipPath>
 </defs>
</svg>
