<?xml version="1.0" encoding="UTF-8" standalone="no"?>
<!-- Created with Inkscape (http://www.inkscape.org/) -->

<svg
   xmlns:dc="http://purl.org/dc/elements/1.1/"
   xmlns:cc="http://creativecommons.org/ns#"
   xmlns:rdf="http://www.w3.org/1999/02/22-rdf-syntax-ns#"
   xmlns:svg="http://www.w3.org/2000/svg"
   xmlns="http://www.w3.org/2000/svg"
   xmlns:sodipodi="http://sodipodi.sourceforge.net/DTD/sodipodi-0.dtd"
   xmlns:inkscape="http://www.inkscape.org/namespaces/inkscape"
   version="1.1"
   id="svg2"
   xml:space="preserve"
   width="320.5473"
   height="225.25987"
   viewBox="0 0 320.5473 225.25987"
   sodipodi:docname="dwia_faddeev.svg"
   inkscape:version="0.92.5 (2060ec1f9f, 2020-04-08)"><metadata
     id="metadata8"><rdf:RDF><cc:Work
         rdf:about=""><dc:format>image/svg+xml</dc:format><dc:type
           rdf:resource="http://purl.org/dc/dcmitype/StillImage" /><dc:title></dc:title></cc:Work></rdf:RDF></metadata><defs
     id="defs6" /><sodipodi:namedview
     pagecolor="#ffffff"
     bordercolor="#666666"
     borderopacity="1"
     objecttolerance="10"
     gridtolerance="10"
     guidetolerance="10"
     inkscape:pageopacity="0"
     inkscape:pageshadow="2"
     inkscape:window-width="1920"
     inkscape:window-height="1018"
     id="namedview4"
     showgrid="false"
     inkscape:zoom="2.9632832"
     inkscape:cx="130.09594"
     inkscape:cy="118.79751"
     inkscape:window-x="0"
     inkscape:window-y="0"
     inkscape:window-maximized="1"
     inkscape:current-layer="g10" /><g
     id="g10"
     inkscape:groupmode="layer"
     inkscape:label="dwia_faddeev"
     transform="matrix(1.3333333,0,0,1.3333333,0,7.6314967e-6)"><path
       d="m 32.539,139.105 h 1.016 l 0.336,-0.019 h 1.312 l 0.34,-0.02 h 1.332 l 0.32,-0.019 h 1.332 l 0.336,-0.02 h 0.657 l 0.339,-0.019 h 0.996 l 0.317,-0.024 h 0.676 l 0.32,-0.015 h 0.676 l 0.316,-0.024 h 0.676 l 0.32,-0.019 h 0.34 l 0.336,-0.02 h 0.656 l 0.34,-0.019 h 0.317 l 0.339,-0.02 h 0.34 l 0.317,-0.019 h 0.339 l 0.336,-0.02 h 0.321 l 0.336,-0.019 h 0.339 l 0.317,-0.02 0.34,-0.019 h 0.336 l 0.32,-0.024 h 0.336 l 0.34,-0.016 0.316,-0.023 h 0.34 l 0.34,-0.019 0.316,-0.02 0.34,-0.02 h 0.336 l 0.32,-0.019 0.336,-0.02 0.34,-0.019 0.317,-0.02 0.339,-0.019 h 0.34 l 0.317,-0.024 0.34,-0.015 0.335,-0.024 0.321,-0.019 0.336,-0.02 0.34,-0.019 0.316,-0.02 0.34,-0.019 0.336,-0.02 0.32,-0.019 0.34,-0.024 0.336,-0.039 0.32,-0.019 0.336,-0.02 0.34,-0.02 0.316,-0.019 0.34,-0.02 0.336,-0.039 0.32,-0.019 0.34,-0.024 0.336,-0.015 0.32,-0.043 0.336,-0.02 0.34,-0.019 0.317,-0.039 0.34,-0.02 0.335,-0.043 0.321,-0.015 0.336,-0.024 0.34,-0.039 0.316,-0.02 0.34,-0.039 0.34,-0.019 0.316,-0.039 0.34,-0.024 0.336,-0.039 0.32,-0.019 0.336,-0.039 0.34,-0.02 0.316,-0.039 0.34,-0.019 0.336,-0.039 0.32,-0.039 0.34,-0.024 0.336,-0.039 0.321,-0.039 0.335,-0.039 0.34,-0.02 0.317,-0.043 0.34,-0.039 0.336,-0.039 0.32,-0.039 0.336,-0.039 0.34,-0.043 0.316,-0.039 0.34,-0.019 0.34,-0.059 0.316,-0.039 0.34,-0.039 0.336,-0.039 0.32,-0.043 0.336,-0.039 0.34,-0.039 0.32,-0.039 0.336,-0.063 0.34,-0.039 0.316,-0.039 0.34,-0.039 0.336,-0.063 0.321,-0.039 0.335,-0.039 0.34,-0.058 0.317,-0.039 0.34,-0.063 0.339,-0.039 0.317,-0.039 0.34,-0.059 0.336,-0.039 0.32,-0.062 0.336,-0.039 0.34,-0.059 0.316,-0.039 0.34,-0.043 0.336,-0.058 0.32,-0.039 0.336,-0.04 0.34,-0.058 0.32,-0.039 0.336,-0.043 0.34,-0.059 0.317,-0.039 0.339,-0.043 0.336,-0.039 0.321,-0.039 0.336,-0.039 0.339,-0.039 0.317,-0.02 0.34,-0.043 0.339,-0.039 0.317,-0.019 0.34,-0.039 0.336,-0.02 0.32,-0.019 0.336,-0.039 0.34,-0.02 0.316,-0.019 0.34,-0.024 0.34,-0.019 h 0.316 l 0.34,-0.02 0.336,-0.019 h 0.32 l 0.336,-0.02 h 0.34 l 0.317,-0.019 h 0.339 l 0.34,-0.02 h 0.656 l 0.336,-0.02 h 0.657 l 0.339,-0.019 h 0.317 l 0.34,-0.02 0.336,-0.019 h 0.32 l 0.336,-0.024 0.34,-0.019 0.32,-0.02 0.336,-0.019 0.34,-0.02 0.316,-0.039 0.34,-0.019 0.336,-0.039 0.32,-0.039 0.336,-0.024 0.34,-0.039 0.317,-0.059 0.339,-0.039 0.34,-0.043 0.317,-0.058 0.34,-0.039 0.335,-0.059 0.321,-0.058 0.336,-0.063 0.34,-0.058 0.316,-0.059 0.34,-0.082 0.336,-0.059 0.32,-0.082 0.336,-0.078 0.34,-0.078 0.32,-0.078 0.336,-0.102 0.34,-0.097 0.316,-0.102 0.34,-0.117 0.336,-0.121 0.32,-0.141 0.34,-0.16 0.336,-0.156 0.32,-0.199 0.336,-0.2 0.34,-0.238 0.317,-0.258 0.34,-0.277 0.335,-0.32 0.321,-0.34 0.336,-0.375 0.34,-0.418 0.316,-0.457 0.34,-0.52 0.34,-0.539 0.316,-0.613 0.34,-0.656 0.336,-0.7 0.32,-0.773 0.336,-0.816 0.34,-0.895 0.316,-0.957 0.34,-1.016 0.336,-1.074 0.32,-1.133 0.34,-1.211 0.336,-1.273 0.321,-1.355 0.335,-1.391 0.34,-1.492 0.317,-1.532 0.34,-1.589 0.336,-1.672 0.32,-1.735 0.336,-1.769 0.34,-1.828 0.316,-1.891 0.34,-1.949 0.34,-1.988 0.316,-2.032 0.34,-2.066 0.336,-2.09 0.32,-2.148 0.336,-2.149 0.34,-2.187 0.316,-2.192 0.68,-4.414 0.316,-2.23 0.34,-2.188 0.336,-2.207 0.321,-2.168 0.335,-2.148 0.34,-2.11 0.317,-2.07 0.34,-2.027 0.336,-1.973 0.32,-1.906 0.34,-1.852 0.336,-1.769 0.32,-1.692 0.336,-1.593 0.34,-1.493 0.316,-1.41 0.34,-1.293 0.336,-1.175 0.32,-1.051 0.336,-0.918 0.34,-0.793 0.32,-0.66 0.336,-0.496 0.34,-0.379 0.317,-0.219 0.339,-1.074 0.336,1.074 0.321,0.219 0.336,0.379 0.339,0.496 0.321,0.66 0.336,0.793 0.339,0.918 0.317,1.051 0.34,1.175 0.34,1.293 0.316,1.41 0.336,1.493 0.34,1.593 0.316,1.692 0.34,1.769 0.34,1.852 0.316,1.906 0.34,1.973 0.336,2.027 0.32,2.07 0.336,2.11 0.34,2.148 0.317,2.168 0.339,2.207 0.336,2.188 0.321,2.23 0.339,2.207 0.336,2.207 0.321,2.192 0.336,2.187 0.339,2.149 0.317,2.148 0.34,2.09 0.34,2.066 0.316,2.032 0.336,1.988 0.34,1.949 0.32,1.891 0.336,1.828 0.34,1.769 0.316,1.735 0.34,1.672 0.336,1.589 0.32,1.532 0.336,1.492 0.34,1.391 0.317,1.355 0.339,1.273 0.34,1.211 0.317,1.133 0.34,1.074 0.335,1.016 0.321,0.957 0.336,0.895 0.34,0.816 0.316,0.773 0.34,0.7 0.336,0.656 0.32,0.613 0.34,0.539 0.336,0.52 0.32,0.457 0.336,0.418 0.34,0.375 0.316,0.34 0.34,0.32 0.336,0.277 0.32,0.258 0.336,0.238 0.34,0.2 0.32,0.199 0.336,0.156 0.34,0.16 0.317,0.141 0.34,0.121 0.335,0.117 0.321,0.102 0.336,0.097 0.34,0.102 0.316,0.078 0.68,0.156 0.316,0.082 0.34,0.059 0.336,0.082 0.32,0.059 0.336,0.058 0.34,0.063 0.316,0.058 0.34,0.059 0.336,0.039 0.32,0.058 0.34,0.043 0.336,0.039 0.321,0.059 0.335,0.039 0.34,0.024 0.317,0.039 0.34,0.039 0.336,0.019 0.32,0.039 0.336,0.02 0.34,0.019 0.32,0.02 0.336,0.019 0.34,0.024 h 0.316 l 0.34,0.019 0.336,0.02 h 0.32 l 0.336,0.019 h 0.656 l 0.34,0.02 h 0.656 l 0.34,0.02 h 0.336 l 0.321,0.019 h 0.335 l 0.34,0.02 h 0.317 l 0.34,0.019 0.336,0.02 h 0.32 l 0.34,0.019 0.336,0.024 0.32,0.019 0.336,0.02 0.34,0.039 0.316,0.019 0.34,0.02 0.336,0.039 0.32,0.019 0.34,0.039 0.336,0.043 0.32,0.02 0.336,0.039 0.34,0.039 0.317,0.039 0.339,0.039 0.336,0.043 0.321,0.039 0.336,0.059 0.339,0.043 0.317,0.039 0.34,0.058 0.339,0.04 0.317,0.039 0.34,0.058 0.336,0.043 0.32,0.039 0.336,0.059 0.34,0.039 0.316,0.062 0.34,0.039 0.34,0.059 0.316,0.039 0.34,0.039 0.336,0.063 0.32,0.039 0.336,0.058 0.34,0.039 0.317,0.039 0.339,0.063 0.336,0.039 0.321,0.039 0.339,0.039 0.336,0.063 0.321,0.039 0.336,0.039 0.339,0.039 0.317,0.043 0.68,0.078 0.316,0.039 0.336,0.059 0.34,0.019 0.316,0.039 0.34,0.043 0.34,0.039 0.316,0.039 0.34,0.039 0.336,0.039 0.32,0.043 0.336,0.02 0.34,0.039 0.317,0.039 0.339,0.039 0.34,0.024 0.317,0.039 0.34,0.039 0.335,0.019 0.321,0.039 0.34,0.02 0.336,0.039 0.316,0.019 0.34,0.039 0.336,0.024 0.32,0.039 0.34,0.019 0.336,0.039 0.32,0.02 0.336,0.039 0.34,0.024 0.316,0.015 0.34,0.043 0.336,0.02 0.32,0.039 0.336,0.019 0.34,0.02 0.317,0.043 0.339,0.015 0.34,0.024 0.317,0.019 0.34,0.039 0.335,0.02 0.321,0.019 0.336,0.02 0.34,0.02 0.316,0.019 0.34,0.039 0.34,0.024 0.316,0.019 0.34,0.02 0.336,0.019 0.32,0.02 0.336,0.019 0.34,0.02 0.316,0.019 0.34,0.024 0.34,0.015 0.316,0.024 h 0.34 l 0.336,0.019 0.321,0.02 0.335,0.019 0.34,0.02 0.317,0.019 h 0.34 l 0.336,0.02 0.32,0.02 0.336,0.019 h 0.34 l 0.32,0.023 0.336,0.016 h 0.34 l 0.316,0.024 h 0.34 l 0.336,0.019 0.32,0.02 h 0.336 l 0.34,0.019 h 0.316 l 0.34,0.02 h 0.34 l 0.316,0.019 h 0.34 l 0.336,0.02 h 0.321 l 0.335,0.019 h 0.657 l 0.34,0.02 h 0.339 l 0.317,0.019 h 0.676 l 0.32,0.024 h 0.676 l 0.316,0.015 h 0.676 l 0.32,0.024 h 0.996 l 0.336,0.019 h 0.657 l 0.339,0.02 h 1.332 l 0.317,0.019 h 1.336 l 0.34,0.02 h 1.308 l 0.34,0.019 h 1.016"
       style="fill:none;stroke:#ff00ff;stroke-width:0.597;stroke-linecap:butt;stroke-linejoin:miter;stroke-miterlimit:10;stroke-dasharray:0.59681, 1.7904, 2.984, 1.7904, 0.59681, 1.7904;stroke-dashoffset:0;stroke-opacity:1"
       id="path16"
       inkscape:connector-curvature="0" /><path
       d="m 32.539,139.105 h 1.016 l 0.336,-0.019 h 1.312 l 0.34,-0.02 h 1.332 l 0.32,-0.019 h 1.332 l 0.336,-0.02 h 0.657 l 0.339,-0.019 h 0.996 l 0.317,-0.024 h 0.676 l 0.32,-0.015 h 0.676 l 0.316,-0.024 h 0.676 l 0.32,-0.019 h 0.34 l 0.336,-0.02 h 0.656 l 0.34,-0.019 h 0.317 l 0.339,-0.02 h 0.34 l 0.317,-0.019 h 0.339 l 0.336,-0.02 h 0.321 l 0.336,-0.019 h 0.339 l 0.317,-0.02 0.34,-0.019 h 0.336 l 0.32,-0.024 h 0.336 l 0.34,-0.016 0.316,-0.023 h 0.34 l 0.34,-0.019 0.316,-0.02 0.34,-0.02 h 0.336 l 0.32,-0.019 0.676,-0.039 h 0.317 l 0.679,-0.039 0.317,-0.024 0.34,-0.015 0.335,-0.024 0.321,-0.019 0.336,-0.02 0.34,-0.019 0.316,-0.02 h 0.34 l 0.336,-0.019 0.32,-0.02 0.34,-0.043 0.336,-0.016 0.32,-0.023 0.676,-0.039 0.316,-0.02 0.34,-0.019 0.336,-0.02 0.32,-0.019 0.34,-0.02 0.336,-0.043 0.32,-0.015 0.676,-0.043 0.317,-0.02 0.34,-0.039 0.335,-0.019 0.321,-0.02 0.336,-0.043 0.34,-0.015 0.316,-0.024 0.34,-0.039 0.34,-0.02 0.316,-0.039 0.34,-0.019 0.336,-0.02 0.32,-0.043 0.336,-0.015 0.34,-0.043 0.316,-0.039 0.34,-0.02 0.336,-0.039 0.32,-0.019 0.34,-0.039 0.336,-0.039 0.321,-0.043 0.335,-0.02 0.34,-0.039 0.317,-0.039 0.34,-0.039 0.336,-0.039 0.32,-0.043 0.676,-0.078 0.316,-0.039 0.68,-0.082 0.316,-0.039 0.34,-0.04 0.336,-0.058 0.32,-0.039 0.676,-0.082 0.32,-0.059 0.336,-0.043 0.34,-0.039 0.316,-0.058 0.34,-0.04 0.336,-0.058 0.321,-0.039 0.335,-0.063 0.34,-0.039 0.317,-0.058 0.34,-0.039 0.339,-0.063 0.317,-0.039 0.34,-0.059 0.336,-0.039 0.32,-0.043 0.336,-0.058 0.34,-0.039 0.316,-0.059 0.676,-0.082 0.32,-0.058 0.336,-0.04 0.34,-0.039 0.32,-0.043 0.336,-0.039 0.34,-0.039 0.317,-0.039 0.675,-0.082 0.321,-0.015 0.336,-0.043 0.339,-0.039 0.317,-0.02 0.34,-0.039 0.656,-0.039 0.34,-0.024 0.336,-0.015 0.32,-0.024 0.336,-0.019 0.34,-0.02 0.316,-0.019 h 0.34 l 0.34,-0.02 0.316,-0.019 h 0.34 l 0.336,-0.02 h 0.32 l 0.336,-0.019 h 0.34 l 0.317,-0.02 h 0.339 l 0.34,-0.019 h 0.317 l 0.339,-0.024 h 0.336 l 0.321,-0.019 0.336,-0.02 0.339,-0.019 0.317,-0.02 0.34,-0.019 0.336,-0.02 0.32,-0.02 0.336,-0.019 0.34,-0.039 0.32,-0.024 0.336,-0.039 0.34,-0.019 0.316,-0.039 0.34,-0.039 0.336,-0.039 0.32,-0.039 0.676,-0.082 0.317,-0.04 0.339,-0.039 0.34,-0.062 0.317,-0.039 0.675,-0.078 0.321,-0.063 0.336,-0.039 0.34,-0.039 0.316,-0.058 0.34,-0.04 0.336,-0.058 0.32,-0.043 0.336,-0.059 0.34,-0.082 0.32,-0.058 0.336,-0.078 0.34,-0.082 0.316,-0.098 0.34,-0.102 0.336,-0.117 0.32,-0.14 0.34,-0.157 0.336,-0.16 0.32,-0.199 0.336,-0.219 0.34,-0.238 0.317,-0.258 0.34,-0.301 0.335,-0.336 0.321,-0.379 0.336,-0.418 0.34,-0.457 0.316,-0.5 0.34,-0.535 0.34,-0.597 0.316,-0.657 0.34,-0.695 0.336,-0.758 0.32,-0.812 0.336,-0.875 0.34,-0.938 0.316,-0.996 0.34,-1.055 0.336,-1.113 0.32,-1.172 0.34,-1.234 0.336,-1.293 0.321,-1.371 0.335,-1.414 0.34,-1.492 0.317,-1.532 0.34,-1.613 0.336,-1.648 0.32,-1.711 0.336,-1.75 0.34,-1.813 0.316,-1.847 0.34,-1.891 0.34,-1.93 0.316,-1.969 0.34,-2.011 0.336,-2.028 0.32,-2.05 0.676,-4.176 0.316,-2.09 0.68,-4.219 0.316,-2.105 0.34,-2.09 0.336,-2.07 0.321,-2.047 0.335,-2.031 0.34,-1.989 0.317,-1.949 0.34,-1.891 0.336,-1.851 0.32,-1.789 0.34,-1.731 0.336,-1.652 0.32,-1.57 0.336,-1.493 0.34,-1.414 0.316,-1.293 0.34,-1.211 0.336,-1.093 0.32,-0.977 0.336,-0.855 0.34,-0.735 0.32,-0.617 0.336,-0.476 0.34,-0.34 0.317,-0.219 0.339,-1.016 0.336,1.016 0.321,0.219 0.336,0.34 0.339,0.476 0.321,0.617 0.336,0.735 0.339,0.855 0.317,0.977 0.34,1.093 0.34,1.211 0.316,1.293 0.336,1.414 0.34,1.493 0.316,1.57 0.34,1.652 0.34,1.731 0.316,1.789 0.34,1.851 0.336,1.891 0.32,1.949 0.336,1.989 0.34,2.031 0.317,2.047 0.339,2.07 0.336,2.09 0.321,2.105 0.339,2.11 0.336,2.109 0.321,2.09 0.336,2.09 0.339,2.086 0.317,2.05 0.34,2.028 0.34,2.011 0.316,1.969 0.336,1.93 0.34,1.891 0.32,1.847 0.336,1.813 0.34,1.75 0.316,1.711 0.34,1.648 0.336,1.613 0.32,1.532 0.336,1.492 0.34,1.414 0.317,1.371 0.339,1.293 0.34,1.234 0.317,1.172 0.34,1.113 0.335,1.055 0.321,0.996 0.336,0.938 0.34,0.875 0.316,0.812 0.34,0.758 0.336,0.695 0.32,0.657 0.34,0.597 0.336,0.535 0.32,0.5 0.336,0.457 0.34,0.418 0.316,0.379 0.34,0.336 0.336,0.301 0.32,0.258 0.336,0.238 0.34,0.219 0.32,0.199 0.676,0.317 0.317,0.14 0.34,0.117 0.335,0.102 0.321,0.098 0.336,0.082 0.34,0.078 0.316,0.058 0.34,0.082 0.34,0.059 0.316,0.043 0.34,0.058 0.336,0.04 0.32,0.058 0.336,0.039 0.34,0.039 0.316,0.063 0.676,0.078 0.32,0.039 0.34,0.062 0.336,0.039 0.321,0.04 0.675,0.082 0.317,0.039 0.676,0.078 0.32,0.039 0.336,0.019 0.34,0.039 0.32,0.024 0.336,0.039 0.34,0.019 0.316,0.02 0.34,0.02 0.336,0.019 0.32,0.02 0.336,0.019 0.34,0.02 0.316,0.019 h 0.34 l 0.34,0.024 h 0.316 l 0.34,0.019 h 0.336 l 0.321,0.02 h 0.335 l 0.34,0.019 h 0.317 l 0.34,0.02 h 0.336 l 0.32,0.019 0.34,0.02 h 0.336 l 0.32,0.019 0.336,0.02 0.34,0.019 0.316,0.024 0.34,0.015 0.336,0.024 0.32,0.019 0.34,0.02 0.336,0.039 0.32,0.02 0.336,0.039 0.34,0.043 0.317,0.015 0.675,0.082 0.321,0.039 0.336,0.039 0.339,0.039 0.317,0.043 0.679,0.079 0.317,0.058 0.676,0.082 0.32,0.059 0.336,0.039 0.34,0.058 0.316,0.043 0.34,0.039 0.34,0.059 0.316,0.039 0.34,0.063 0.336,0.039 0.32,0.058 0.336,0.039 0.34,0.063 0.317,0.039 0.339,0.058 0.336,0.04 0.321,0.058 0.339,0.039 0.336,0.043 0.321,0.059 0.675,0.082 0.317,0.039 0.34,0.058 0.34,0.04 0.316,0.039 0.676,0.082 0.316,0.039 0.68,0.078 0.316,0.043 0.34,0.039 0.336,0.039 0.32,0.039 0.336,0.039 0.34,0.02 0.317,0.043 0.679,0.078 0.317,0.019 0.34,0.039 0.335,0.02 0.321,0.039 0.34,0.043 0.336,0.015 0.316,0.043 0.34,0.02 0.336,0.019 0.32,0.039 0.34,0.02 0.336,0.039 0.32,0.024 0.336,0.015 0.34,0.043 0.316,0.02 0.34,0.019 0.336,0.039 0.32,0.02 0.676,0.043 0.317,0.015 0.339,0.043 0.34,0.02 0.317,0.019 0.34,0.02 0.335,0.019 0.321,0.02 0.676,0.039 0.316,0.023 0.34,0.016 0.34,0.043 0.316,0.02 0.34,0.019 h 0.336 l 0.32,0.02 0.336,0.019 0.34,0.02 0.316,0.019 0.34,0.024 0.34,0.015 0.316,0.024 0.676,0.039 h 0.321 l 0.992,0.058 h 0.34 l 0.336,0.02 0.32,0.02 0.336,0.019 h 0.34 l 0.32,0.023 0.336,0.016 h 0.34 l 0.316,0.024 h 0.34 l 0.336,0.019 0.32,0.02 h 0.336 l 0.34,0.019 h 0.316 l 0.34,0.02 h 0.34 l 0.316,0.019 h 0.34 l 0.336,0.02 h 0.321 l 0.335,0.019 h 0.657 l 0.34,0.02 h 0.339 l 0.317,0.019 h 0.676 l 0.32,0.024 h 0.676 l 0.316,0.015 h 0.676 l 0.32,0.024 h 0.996 l 0.336,0.019 h 0.657 l 0.339,0.02 h 1.332 l 0.317,0.019 h 1.336 l 0.34,0.02 h 1.308 l 0.34,0.019 h 1.016"
       style="fill:none;stroke:#000000;stroke-width:0.597;stroke-linecap:butt;stroke-linejoin:miter;stroke-miterlimit:10;stroke-dasharray:none;stroke-opacity:1"
       id="path20"
       inkscape:connector-curvature="0" /><path
       d="m 32.539,139.125 h 1.016 l 0.336,-0.02 h 1.652 l 0.336,-0.019 h 1.316 l 0.336,-0.02 h 0.996 l 0.336,-0.019 h 0.996 l 0.317,-0.02 h 0.679 l 0.317,-0.019 h 0.676 l 0.32,-0.024 h 0.676 l 0.316,-0.015 h 0.676 l 0.32,-0.024 h 0.676 l 0.32,-0.019 h 0.336 l 0.34,-0.02 h 0.317 l 0.339,-0.019 h 0.34 l 0.317,-0.02 h 0.339 l 0.336,-0.019 h 0.321 l 0.336,-0.02 h 0.339 l 0.317,-0.019 0.34,-0.02 h 0.336 l 0.32,-0.019 h 0.336 l 0.34,-0.024 0.316,-0.016 h 0.34 l 0.34,-0.023 0.316,-0.019 0.34,-0.02 h 0.336 l 0.32,-0.02 0.336,-0.019 0.34,-0.02 h 0.317 l 0.679,-0.039 0.317,-0.019 0.34,-0.024 0.335,-0.015 0.321,-0.024 0.336,-0.019 h 0.34 l 0.316,-0.02 0.34,-0.019 0.336,-0.02 0.32,-0.019 0.34,-0.02 0.336,-0.019 0.32,-0.024 0.336,-0.016 0.34,-0.042 0.316,-0.02 0.34,-0.02 0.336,-0.019 0.32,-0.02 0.34,-0.019 0.336,-0.02 0.32,-0.019 0.336,-0.039 0.34,-0.024 0.317,-0.019 0.34,-0.02 0.335,-0.039 0.321,-0.019 0.336,-0.02 0.34,-0.043 0.316,-0.015 0.34,-0.024 0.34,-0.039 0.316,-0.02 0.34,-0.039 0.336,-0.019 0.32,-0.039 0.336,-0.024 0.34,-0.039 0.316,-0.019 0.34,-0.039 0.336,-0.039 0.32,-0.02 0.34,-0.039 0.336,-0.043 0.321,-0.039 0.335,-0.019 0.34,-0.04 0.317,-0.039 0.34,-0.039 0.336,-0.043 0.32,-0.039 0.336,-0.039 0.34,-0.039 0.316,-0.039 0.34,-0.043 0.34,-0.058 0.316,-0.039 0.34,-0.04 0.336,-0.039 0.32,-0.058 0.336,-0.043 0.34,-0.039 0.32,-0.059 0.336,-0.043 0.34,-0.055 0.316,-0.042 0.34,-0.04 0.336,-0.058 0.321,-0.039 0.335,-0.063 0.34,-0.058 0.317,-0.039 0.34,-0.063 0.339,-0.039 0.317,-0.059 0.34,-0.039 0.336,-0.058 0.32,-0.043 0.336,-0.039 0.34,-0.059 0.316,-0.039 0.34,-0.058 0.336,-0.043 0.32,-0.039 0.336,-0.04 0.34,-0.039 0.32,-0.043 0.336,-0.039 0.34,-0.039 0.317,-0.039 0.339,-0.039 0.336,-0.043 0.321,-0.015 0.336,-0.043 0.339,-0.02 0.317,-0.039 0.679,-0.039 0.317,-0.02 0.34,-0.019 0.336,-0.024 0.32,-0.015 0.336,-0.024 0.34,-0.019 0.316,-0.02 h 0.34 l 0.34,-0.019 h 0.316 l 0.34,-0.02 h 0.336 l 0.32,-0.019 0.336,-0.02 h 0.34 l 0.317,-0.019 h 0.339 l 0.34,-0.02 0.317,-0.019 h 0.339 l 0.336,-0.024 0.321,-0.019 0.336,-0.02 0.339,-0.019 0.317,-0.02 0.34,-0.019 0.336,-0.02 0.32,-0.039 0.336,-0.02 0.34,-0.043 0.32,-0.019 0.336,-0.039 0.34,-0.039 0.316,-0.02 0.34,-0.039 0.336,-0.043 0.32,-0.039 0.336,-0.039 0.34,-0.039 0.317,-0.039 0.339,-0.039 0.34,-0.043 0.317,-0.039 0.34,-0.039 0.335,-0.039 0.321,-0.039 0.336,-0.039 0.34,-0.043 0.316,-0.059 0.34,-0.039 0.336,-0.039 0.32,-0.039 0.336,-0.063 0.34,-0.058 0.32,-0.063 0.336,-0.078 0.34,-0.078 0.316,-0.078 0.34,-0.121 0.336,-0.102 0.32,-0.136 0.34,-0.161 0.336,-0.16 0.32,-0.195 0.336,-0.223 0.34,-0.238 0.317,-0.277 0.34,-0.321 0.335,-0.336 0.321,-0.379 0.336,-0.418 0.34,-0.457 0.316,-0.515 0.34,-0.559 0.34,-0.597 0.316,-0.657 0.34,-0.715 0.336,-0.777 0.32,-0.812 0.336,-0.879 0.34,-0.934 0.316,-0.996 0.34,-1.07 0.336,-1.117 0.32,-1.172 0.34,-1.235 0.336,-1.312 0.321,-1.356 0.335,-1.41 0.34,-1.472 0.317,-1.532 0.34,-1.593 0.336,-1.649 0.32,-1.691 0.336,-1.731 0.34,-1.793 0.316,-1.828 0.34,-1.871 0.34,-1.91 0.316,-1.93 0.34,-1.969 0.336,-2.007 0.32,-2.032 0.336,-2.027 0.34,-2.051 0.316,-2.066 0.34,-2.07 0.34,-2.047 0.316,-2.071 0.34,-2.05 0.336,-2.028 0.321,-2.012 0.335,-1.968 0.34,-1.949 0.317,-1.911 0.34,-1.847 0.336,-1.813 0.32,-1.75 0.34,-1.691 0.336,-1.61 0.32,-1.535 0.336,-1.449 0.34,-1.375 0.316,-1.273 0.34,-1.172 0.336,-1.055 0.32,-0.953 0.336,-0.859 0.34,-0.715 0.32,-0.598 0.336,-0.457 0.34,-0.336 0.317,-0.199 0.339,-0.996 0.336,0.996 0.321,0.199 0.336,0.336 0.339,0.457 0.321,0.598 0.336,0.715 0.339,0.859 0.317,0.953 0.34,1.055 0.34,1.172 0.316,1.273 0.336,1.375 0.34,1.449 0.316,1.535 0.34,1.61 0.34,1.691 0.316,1.75 0.34,1.813 0.336,1.847 0.32,1.911 0.336,1.949 0.34,1.968 0.317,2.012 0.339,2.028 0.336,2.05 0.321,2.071 0.339,2.047 0.336,2.07 0.321,2.066 0.336,2.051 0.339,2.027 0.317,2.032 0.34,2.007 0.34,1.969 0.316,1.93 0.336,1.91 0.34,1.871 0.32,1.828 0.336,1.793 0.34,1.731 0.316,1.691 0.34,1.649 0.336,1.593 0.32,1.532 0.336,1.472 0.34,1.41 0.317,1.356 0.339,1.312 0.34,1.235 0.317,1.172 0.34,1.117 0.335,1.07 0.321,0.996 0.336,0.934 0.34,0.879 0.316,0.812 0.34,0.777 0.336,0.715 0.32,0.657 0.34,0.597 0.336,0.559 0.32,0.515 0.336,0.457 0.34,0.418 0.316,0.379 0.34,0.336 0.336,0.321 0.32,0.277 0.336,0.238 0.34,0.223 0.32,0.195 0.336,0.16 0.34,0.161 0.317,0.136 0.34,0.102 0.335,0.121 0.321,0.078 0.336,0.078 0.34,0.078 0.316,0.063 0.34,0.058 0.34,0.063 0.316,0.039 0.34,0.039 0.336,0.039 0.32,0.059 0.336,0.043 0.34,0.039 0.316,0.039 0.34,0.039 0.336,0.039 0.32,0.039 0.34,0.043 0.336,0.039 0.321,0.039 0.335,0.039 0.34,0.039 0.317,0.039 0.34,0.043 0.336,0.039 0.32,0.02 0.336,0.039 0.34,0.039 0.32,0.019 0.336,0.043 0.34,0.02 0.316,0.039 0.34,0.02 0.336,0.019 0.32,0.02 0.336,0.019 0.34,0.02 0.316,0.019 0.34,0.024 h 0.34 l 0.316,0.019 0.34,0.02 h 0.336 l 0.321,0.019 h 0.335 l 0.34,0.02 0.317,0.019 h 0.34 l 0.336,0.02 h 0.32 l 0.34,0.019 h 0.336 l 0.32,0.02 0.336,0.019 0.34,0.024 0.316,0.015 0.34,0.024 0.336,0.019 0.32,0.02 0.34,0.02 0.336,0.019 0.32,0.039 0.336,0.02 0.34,0.043 0.317,0.015 0.339,0.043 0.336,0.039 0.321,0.039 0.336,0.039 0.339,0.039 0.317,0.043 0.679,0.079 0.317,0.039 0.34,0.043 0.336,0.058 0.32,0.039 0.336,0.059 0.34,0.039 0.316,0.043 0.34,0.058 0.34,0.039 0.316,0.059 0.34,0.039 0.336,0.063 0.32,0.039 0.336,0.058 0.34,0.063 0.317,0.039 0.339,0.058 0.336,0.04 0.321,0.042 0.339,0.055 0.336,0.043 0.321,0.059 0.336,0.039 0.339,0.043 0.317,0.058 0.68,0.079 0.316,0.039 0.336,0.058 0.34,0.043 0.316,0.039 0.68,0.078 0.316,0.039 0.34,0.043 0.336,0.039 0.32,0.039 0.336,0.04 0.34,0.019 0.317,0.039 0.339,0.043 0.34,0.039 0.317,0.02 0.34,0.039 0.335,0.039 0.321,0.019 0.34,0.039 0.336,0.024 0.316,0.039 0.34,0.019 0.336,0.039 0.32,0.02 0.34,0.039 0.336,0.024 0.32,0.015 0.336,0.043 0.34,0.02 0.316,0.019 0.34,0.039 0.336,0.02 0.32,0.019 0.336,0.024 0.34,0.039 0.317,0.019 0.679,0.039 0.317,0.02 0.34,0.019 0.335,0.02 0.321,0.02 0.336,0.042 0.34,0.016 0.316,0.024 0.68,0.039 0.316,0.019 0.34,0.02 0.336,0.019 0.32,0.02 h 0.336 l 0.34,0.019 0.316,0.024 0.34,0.015 0.34,0.024 0.316,0.019 0.34,0.02 0.336,0.019 h 0.321 l 0.335,0.02 0.34,0.019 0.317,0.02 h 0.34 l 0.336,0.02 0.32,0.019 0.336,0.023 h 0.34 l 0.32,0.016 0.336,0.024 h 0.34 l 0.316,0.019 h 0.34 l 0.336,0.02 0.32,0.019 h 0.336 l 0.34,0.02 h 0.316 l 0.34,0.019 h 0.34 l 0.316,0.02 h 0.34 l 0.336,0.019 h 0.321 l 0.335,0.02 h 0.34 l 0.317,0.019 h 0.679 l 0.317,0.024 h 0.676 l 0.32,0.015 h 0.676 l 0.316,0.024 h 0.676 l 0.32,0.019 h 0.676 l 0.32,0.02 h 0.993 l 0.339,0.019 h 0.993 l 0.339,0.02 h 1.313 l 0.34,0.019 h 1.648 l 0.34,0.02 h 1.016"
       style="fill:none;stroke:#ff0000;stroke-width:0.597;stroke-linecap:butt;stroke-linejoin:miter;stroke-miterlimit:10;stroke-dasharray:2.984, 1.7904;stroke-dashoffset:0;stroke-opacity:1"
       id="path24"
       inkscape:connector-curvature="0" /><path
       d="m 32.539,139.145 h 0.359 l 0.317,-0.02 h 1.672 l 0.316,-0.02 h 1.332 l 0.34,-0.019 h 0.996 l 0.317,-0.02 h 0.996 l 0.336,-0.019 h 0.996 l 0.339,-0.02 h 0.657 l 0.336,-0.019 h 0.656 l 0.34,-0.024 H 43.5 l 0.336,-0.015 h 0.32 l 0.34,-0.024 h 0.336 l 0.32,-0.019 h 0.676 l 0.317,-0.02 h 0.339 l 0.34,-0.019 h 0.317 l 0.339,-0.02 h 0.336 l 0.321,-0.019 h 0.336 l 0.339,-0.02 0.317,-0.019 h 0.34 l 0.336,-0.02 h 0.32 l 0.336,-0.019 0.34,-0.024 h 0.316 l 0.34,-0.016 0.34,-0.023 h 0.316 l 0.34,-0.019 0.336,-0.02 0.32,-0.02 h 0.336 l 0.34,-0.019 0.317,-0.02 0.339,-0.019 h 0.34 l 0.317,-0.02 0.34,-0.019 0.335,-0.024 0.321,-0.015 0.336,-0.024 0.34,-0.019 0.316,-0.02 h 0.34 l 0.336,-0.019 0.32,-0.02 0.34,-0.019 0.336,-0.02 0.32,-0.019 0.336,-0.024 0.34,-0.016 0.316,-0.023 0.34,-0.019 0.336,-0.02 0.32,-0.039 0.34,-0.02 0.336,-0.019 0.32,-0.02 0.336,-0.019 0.34,-0.024 0.317,-0.039 0.34,-0.019 0.335,-0.02 0.321,-0.019 0.336,-0.039 0.34,-0.02 0.316,-0.019 0.34,-0.039 0.34,-0.024 0.316,-0.039 0.34,-0.02 0.336,-0.039 0.32,-0.019 0.336,-0.039 0.34,-0.024 0.316,-0.039 0.34,-0.039 0.336,-0.019 0.32,-0.039 0.34,-0.039 0.336,-0.039 0.321,-0.039 0.335,-0.043 0.34,-0.02 0.317,-0.039 0.34,-0.039 0.336,-0.063 0.32,-0.039 0.336,-0.039 0.34,-0.039 0.316,-0.039 0.34,-0.043 0.34,-0.058 0.316,-0.039 0.34,-0.04 0.336,-0.058 0.32,-0.039 0.336,-0.063 0.34,-0.039 0.32,-0.058 0.336,-0.039 0.34,-0.063 0.316,-0.039 0.34,-0.059 0.336,-0.043 0.321,-0.058 0.335,-0.039 0.34,-0.059 0.317,-0.058 0.34,-0.039 0.339,-0.063 0.317,-0.039 0.34,-0.059 0.336,-0.043 0.32,-0.058 0.336,-0.039 0.34,-0.039 0.316,-0.063 0.34,-0.039 0.336,-0.039 0.32,-0.039 0.336,-0.039 0.34,-0.039 0.32,-0.043 0.336,-0.039 0.34,-0.02 0.317,-0.039 0.339,-0.039 0.336,-0.019 0.321,-0.024 0.336,-0.039 0.339,-0.019 0.317,-0.02 0.679,-0.039 0.317,-0.019 h 0.34 l 0.336,-0.02 0.32,-0.02 0.336,-0.019 h 0.34 l 0.316,-0.024 h 0.34 l 0.34,-0.015 h 0.316 l 0.34,-0.024 0.336,-0.019 h 0.32 l 0.336,-0.02 0.34,-0.019 0.317,-0.02 0.679,-0.039 0.317,-0.019 0.339,-0.02 0.336,-0.019 0.321,-0.024 0.336,-0.039 0.339,-0.019 0.317,-0.039 0.34,-0.04 0.336,-0.019 0.32,-0.039 0.336,-0.043 0.34,-0.039 0.32,-0.039 0.336,-0.039 0.34,-0.063 0.316,-0.039 0.34,-0.039 0.336,-0.039 0.32,-0.039 0.336,-0.039 0.34,-0.043 0.317,-0.039 0.339,-0.039 0.34,-0.02 0.317,-0.039 0.34,-0.019 0.335,-0.039 0.321,-0.024 0.336,-0.019 0.34,-0.039 0.316,-0.02 0.34,-0.019 0.336,-0.04 0.32,-0.019 0.336,-0.039 0.34,-0.043 0.32,-0.059 0.336,-0.058 0.34,-0.063 0.316,-0.078 0.34,-0.101 0.336,-0.098 0.32,-0.141 0.34,-0.136 0.336,-0.18 0.32,-0.199 0.336,-0.219 0.34,-0.258 0.317,-0.301 0.34,-0.336 0.335,-0.359 0.321,-0.418 0.336,-0.457 0.34,-0.496 0.316,-0.559 0.34,-0.593 0.34,-0.661 0.316,-0.714 0.34,-0.778 0.336,-0.836 0.32,-0.875 0.336,-0.953 0.34,-1.016 0.316,-1.074 0.34,-1.133 0.336,-1.195 0.32,-1.254 0.34,-1.332 0.336,-1.39 0.321,-1.434 0.335,-1.512 0.34,-1.57 0.317,-1.613 0.34,-1.668 0.336,-1.735 0.32,-1.789 0.336,-1.832 0.34,-1.867 0.316,-1.93 0.34,-1.968 0.34,-1.993 0.316,-2.027 0.34,-2.07 0.336,-2.086 0.32,-2.11 0.336,-2.128 0.34,-2.129 0.316,-2.149 0.68,-4.297 0.316,-2.129 0.34,-2.128 0.336,-2.11 0.321,-2.07 0.335,-2.047 0.34,-2.031 0.317,-1.969 0.34,-1.93 0.336,-1.871 0.32,-1.808 0.34,-1.731 0.336,-1.672 0.32,-1.59 0.336,-1.511 0.34,-1.414 0.316,-1.313 0.34,-1.215 0.336,-1.113 0.32,-0.992 0.336,-0.879 0.34,-0.734 0.32,-0.637 0.336,-0.477 0.34,-0.359 0.317,-0.219 0.339,-1.035 0.336,1.035 0.321,0.219 0.336,0.359 0.339,0.477 0.321,0.637 0.336,0.734 0.339,0.879 0.317,0.992 0.34,1.113 0.34,1.215 0.316,1.313 0.336,1.414 0.34,1.511 0.316,1.59 0.34,1.672 0.34,1.731 0.316,1.808 0.34,1.871 0.336,1.93 0.32,1.969 0.336,2.031 0.34,2.047 0.317,2.07 0.339,2.11 0.336,2.128 0.321,2.129 0.339,2.149 0.336,2.148 0.321,2.149 0.336,2.129 0.339,2.128 0.317,2.11 0.34,2.086 0.34,2.07 0.316,2.027 0.336,1.993 0.34,1.968 0.32,1.93 0.336,1.867 0.34,1.832 0.316,1.789 0.34,1.735 0.336,1.668 0.32,1.613 0.336,1.57 0.34,1.512 0.317,1.434 0.339,1.39 0.34,1.332 0.317,1.254 0.34,1.195 0.335,1.133 0.321,1.074 0.336,1.016 0.34,0.953 0.316,0.875 0.34,0.836 0.336,0.778 0.32,0.714 0.34,0.661 0.336,0.593 0.32,0.559 0.336,0.496 0.34,0.457 0.316,0.418 0.34,0.359 0.336,0.336 0.32,0.301 0.336,0.258 0.34,0.219 0.32,0.199 0.336,0.18 0.34,0.136 0.317,0.141 0.34,0.098 0.335,0.101 0.321,0.078 0.336,0.063 0.34,0.058 0.316,0.059 0.34,0.043 0.34,0.039 0.316,0.019 0.34,0.04 0.336,0.019 0.32,0.02 0.336,0.039 0.34,0.019 0.316,0.024 0.34,0.039 0.336,0.019 0.32,0.039 0.34,0.02 0.336,0.039 0.321,0.039 0.335,0.043 0.34,0.039 0.317,0.039 0.34,0.039 0.336,0.039 0.32,0.039 0.336,0.063 0.34,0.039 0.32,0.039 0.336,0.039 0.34,0.043 0.316,0.039 0.34,0.019 0.336,0.04 0.32,0.039 0.336,0.019 0.34,0.039 0.316,0.024 0.68,0.039 0.316,0.019 0.34,0.02 0.336,0.019 0.321,0.02 0.335,0.019 0.34,0.02 h 0.317 l 0.34,0.019 0.336,0.024 h 0.32 l 0.34,0.015 h 0.336 l 0.32,0.024 h 0.336 l 0.34,0.019 0.316,0.02 0.34,0.02 h 0.336 l 0.32,0.019 0.34,0.02 0.336,0.019 0.32,0.02 0.336,0.019 0.34,0.039 0.317,0.024 0.339,0.019 0.336,0.039 0.321,0.039 0.336,0.02 0.339,0.039 0.317,0.043 0.679,0.078 0.317,0.039 0.34,0.039 0.336,0.039 0.32,0.063 0.336,0.039 0.34,0.039 0.316,0.058 0.34,0.043 0.34,0.059 0.316,0.039 0.34,0.063 0.336,0.039 0.32,0.058 0.336,0.059 0.34,0.039 0.317,0.058 0.339,0.043 0.336,0.059 0.321,0.039 0.339,0.063 0.336,0.039 0.321,0.058 0.336,0.039 0.339,0.063 0.317,0.039 0.34,0.058 0.34,0.04 0.316,0.039 0.336,0.058 0.34,0.043 0.316,0.039 0.68,0.078 0.316,0.039 0.34,0.063 0.336,0.039 0.32,0.039 0.336,0.02 0.34,0.043 0.317,0.039 0.679,0.078 0.317,0.039 0.34,0.019 0.335,0.039 0.321,0.039 0.34,0.024 0.336,0.039 0.316,0.019 0.34,0.039 0.336,0.02 0.32,0.039 0.34,0.024 0.336,0.039 0.32,0.019 0.336,0.02 0.34,0.039 0.316,0.019 0.34,0.02 0.336,0.019 0.32,0.039 0.336,0.024 0.34,0.019 0.317,0.02 0.679,0.039 0.317,0.039 0.34,0.02 0.335,0.019 0.321,0.023 0.336,0.016 0.34,0.024 0.316,0.019 0.68,0.039 0.316,0.02 0.34,0.019 h 0.336 l 0.32,0.02 0.336,0.019 0.34,0.024 0.316,0.015 0.34,0.024 0.34,0.019 0.316,0.02 h 0.34 l 0.336,0.019 0.321,0.02 0.335,0.019 h 0.34 l 0.317,0.02 0.34,0.02 0.336,0.019 h 0.32 l 0.336,0.023 0.34,0.016 h 0.32 l 0.336,0.024 0.34,0.019 h 0.316 l 0.34,0.02 h 0.336 l 0.32,0.019 0.336,0.02 h 0.34 l 0.316,0.019 h 0.34 l 0.34,0.02 h 0.316 l 0.34,0.019 h 0.336 l 0.321,0.02 h 0.675 l 0.317,0.019 h 0.34 l 0.339,0.024 h 0.317 l 0.34,0.015 h 0.656 l 0.336,0.024 h 0.656 l 0.34,0.019 h 0.656 l 0.336,0.02 h 0.996 l 0.34,0.019 h 0.992 l 0.321,0.02 h 0.992 l 0.34,0.019 h 1.336 l 0.316,0.02 h 1.672 l 0.316,0.02 h 0.36"
       style="fill:none;stroke:#0000ff;stroke-width:0.597;stroke-linecap:butt;stroke-linejoin:miter;stroke-miterlimit:10;stroke-dasharray:0.59681, 1.7904, 2.984, 1.7904;stroke-dashoffset:0;stroke-opacity:1"
       id="path28"
       inkscape:connector-curvature="0" /><path
       d="m 32.539,138.906 h 0.02 l 0.339,-0.019 0.317,-0.02 0.34,-0.019 0.336,-0.02 h 0.32 l 0.336,-0.019 0.34,-0.02 0.316,-0.019 0.34,-0.024 0.336,-0.016 0.32,-0.023 0.336,-0.019 0.34,-0.02 0.32,-0.02 0.336,-0.019 0.34,-0.02 0.317,-0.019 0.339,-0.02 0.336,-0.019 0.321,-0.039 0.336,-0.024 0.339,-0.019 0.317,-0.02 0.34,-0.039 0.339,-0.019 0.317,-0.02 0.34,-0.019 0.336,-0.04 0.32,-0.023 0.336,-0.039 0.34,-0.02 0.316,-0.019 0.34,-0.039 0.336,-0.02 0.32,-0.043 0.34,-0.039 0.336,-0.019 0.32,-0.039 0.336,-0.039 0.34,-0.02 0.317,-0.043 0.679,-0.078 0.317,-0.02 0.339,-0.039 0.336,-0.039 0.321,-0.043 0.336,-0.039 0.339,-0.039 0.317,-0.039 0.34,-0.058 0.336,-0.039 0.32,-0.039 0.336,-0.043 0.34,-0.04 0.316,-0.058 0.34,-0.039 0.34,-0.063 0.316,-0.039 0.34,-0.058 0.336,-0.039 0.32,-0.063 0.336,-0.039 0.34,-0.059 0.317,-0.058 0.339,-0.039 0.34,-0.063 0.317,-0.058 0.34,-0.063 0.335,-0.055 0.321,-0.062 0.336,-0.059 0.34,-0.058 0.316,-0.063 0.34,-0.058 0.336,-0.059 0.32,-0.058 0.34,-0.063 0.336,-0.059 0.32,-0.082 0.336,-0.058 0.34,-0.059 0.316,-0.058 0.34,-0.082 0.336,-0.059 0.32,-0.059 0.34,-0.082 0.336,-0.058 0.32,-0.059 0.336,-0.082 0.34,-0.058 0.317,-0.079 0.34,-0.058 0.335,-0.082 0.321,-0.059 0.336,-0.082 0.34,-0.058 0.316,-0.079 0.34,-0.058 0.34,-0.082 0.316,-0.059 0.34,-0.082 0.336,-0.058 0.32,-0.079 0.336,-0.082 0.34,-0.058 0.316,-0.078 0.34,-0.063 0.336,-0.078 0.32,-0.078 0.34,-0.063 0.336,-0.078 0.321,-0.078 0.335,-0.058 0.34,-0.082 0.317,-0.078 0.34,-0.059 0.336,-0.082 0.32,-0.078 0.336,-0.078 0.34,-0.063 L 73,133 l 0.34,-0.082 0.34,-0.078 0.316,-0.059 0.34,-0.082 0.336,-0.078 0.32,-0.082 0.336,-0.078 0.34,-0.059 0.32,-0.082 0.336,-0.078 0.34,-0.078 0.316,-0.078 0.34,-0.063 0.336,-0.078 0.321,-0.082 0.335,-0.058 0.34,-0.078 0.317,-0.082 0.34,-0.059 0.339,-0.078 0.317,-0.063 0.34,-0.078 0.336,-0.058 0.32,-0.079 0.336,-0.062 0.34,-0.059 0.316,-0.082 0.34,-0.058 0.336,-0.059 0.32,-0.058 0.336,-0.063 0.34,-0.039 0.32,-0.059 0.336,-0.058 0.34,-0.039 0.317,-0.063 0.339,-0.039 0.336,-0.039 0.321,-0.039 0.336,-0.043 0.339,-0.039 0.317,-0.039 0.34,-0.02 0.339,-0.039 0.317,-0.019 0.34,-0.02 0.336,-0.019 0.32,-0.024 0.336,-0.019 0.34,-0.02 0.316,-0.019 h 0.34 l 0.34,-0.02 h 0.992 l 0.32,-0.019 h 0.336 l 0.34,0.019 h 1.988 l 0.321,0.02 h 1.332 l 0.336,-0.02 h 0.656 l 0.34,-0.019 0.32,-0.02 0.336,-0.019 0.34,-0.02 0.316,-0.019 0.34,-0.024 0.336,-0.039 0.32,-0.039 0.336,-0.039 0.34,-0.039 0.317,-0.063 0.679,-0.117 0.317,-0.058 0.34,-0.082 0.335,-0.079 0.321,-0.082 0.336,-0.078 0.34,-0.097 0.316,-0.102 0.34,-0.117 0.336,-0.121 0.32,-0.117 0.336,-0.141 0.34,-0.141 0.32,-0.16 0.336,-0.176 0.34,-0.179 0.316,-0.199 0.34,-0.219 0.336,-0.219 0.32,-0.258 0.34,-0.277 0.336,-0.301 0.32,-0.34 0.336,-0.355 0.34,-0.379 0.317,-0.438 0.34,-0.457 0.335,-0.5 0.321,-0.554 0.336,-0.579 0.34,-0.656 0.316,-0.695 0.34,-0.758 0.34,-0.812 0.316,-0.875 0.34,-0.938 0.336,-1.016 0.32,-1.074 0.336,-1.152 0.34,-1.234 0.316,-1.293 0.34,-1.371 0.336,-1.454 0.32,-1.531 0.34,-1.609 0.336,-1.696 0.321,-1.769 0.335,-1.852 0.34,-1.925 0.317,-1.993 0.34,-2.066 0.336,-2.148 0.32,-2.211 0.336,-2.266 0.34,-2.348 0.316,-2.406 0.34,-2.449 0.34,-2.504 0.316,-2.547 0.34,-2.605 0.336,-2.629 0.32,-2.664 0.336,-2.707 0.34,-2.704 0.316,-2.726 0.34,-2.746 0.34,-2.727 0.316,-2.742 0.34,-2.707 0.336,-2.707 0.321,-2.664 0.335,-2.625 0.34,-2.59 0.317,-2.523 0.34,-2.469 0.336,-2.406 0.32,-2.328 0.34,-2.247 0.336,-2.148 0.32,-2.031 0.336,-1.949 0.34,-1.809 0.316,-1.691 0.34,-1.551 0.336,-1.414 0.32,-1.254 0.336,-1.113 0.34,-0.934 0.32,-0.777 0.336,-0.618 0.34,-0.437 0.317,-0.258 0.339,-1.312 0.336,1.312 0.321,0.258 0.336,0.437 0.339,0.618 0.321,0.777 0.336,0.934 0.339,1.113 0.317,1.254 0.34,1.414 0.34,1.551 0.316,1.691 0.336,1.809 0.34,1.949 0.316,2.031 0.34,2.148 0.34,2.247 0.316,2.328 0.34,2.406 0.336,2.469 0.32,2.523 0.336,2.59 0.34,2.625 0.317,2.664 0.339,2.707 0.336,2.707 0.321,2.742 0.339,2.727 0.336,2.746 0.321,2.726 0.336,2.704 0.339,2.707 0.317,2.664 0.34,2.629 0.34,2.605 0.316,2.547 0.336,2.504 0.34,2.449 0.32,2.406 0.336,2.348 0.34,2.266 0.316,2.211 0.34,2.148 0.336,2.066 0.32,1.993 0.336,1.925 0.34,1.852 0.317,1.769 0.339,1.696 0.34,1.609 0.317,1.531 0.34,1.454 0.335,1.371 0.321,1.293 0.336,1.234 0.34,1.152 0.316,1.074 0.34,1.016 0.336,0.938 0.32,0.875 0.34,0.812 0.336,0.758 0.32,0.695 0.336,0.656 0.34,0.579 0.316,0.554 0.34,0.5 0.336,0.457 0.32,0.438 0.336,0.379 0.34,0.355 0.32,0.34 0.336,0.301 0.34,0.277 0.317,0.258 0.34,0.219 0.335,0.219 0.321,0.199 0.336,0.179 0.34,0.176 0.316,0.16 0.68,0.282 0.316,0.117 0.34,0.121 0.336,0.117 0.32,0.102 0.336,0.097 0.34,0.078 0.316,0.082 0.34,0.079 0.336,0.082 0.32,0.058 0.34,0.059 0.336,0.058 0.321,0.063 0.335,0.039 0.34,0.039 0.317,0.039 0.34,0.039 0.336,0.024 0.32,0.019 0.336,0.02 0.34,0.019 0.32,0.02 0.336,0.019 h 0.656 l 0.34,0.02 h 1.332 l 0.316,-0.02 h 1.993 l 0.335,-0.019 h 0.34 l 0.317,0.019 h 0.996 l 0.34,0.02 h 0.336 l 0.32,0.019 0.336,0.02 0.34,0.019 0.316,0.024 0.34,0.019 0.336,0.02 0.32,0.019 0.34,0.039 0.336,0.02 0.32,0.039 0.336,0.039 0.34,0.043 0.317,0.039 0.339,0.039 0.336,0.039 0.321,0.063 0.336,0.039 0.339,0.058 0.317,0.059 0.34,0.039 0.339,0.063 0.317,0.058 0.34,0.059 0.336,0.058 0.32,0.082 0.336,0.059 0.34,0.062 0.316,0.079 0.34,0.058 0.34,0.078 0.316,0.063 0.34,0.078 0.336,0.059 0.32,0.082 0.336,0.078 0.34,0.058 0.317,0.082 0.339,0.078 0.336,0.063 0.321,0.078 0.339,0.078 0.336,0.078 0.321,0.082 0.336,0.059 0.339,0.078 0.317,0.082 0.34,0.078 0.34,0.082 0.316,0.059 0.336,0.078 0.34,0.082 0.316,0.078 0.34,0.063 0.34,0.078 0.316,0.078 0.34,0.082 0.336,0.059 0.32,0.078 0.336,0.082 0.34,0.058 0.317,0.078 0.339,0.078 0.34,0.063 0.317,0.078 0.34,0.078 0.335,0.063 0.321,0.078 0.34,0.058 0.336,0.082 0.316,0.079 0.34,0.058 0.336,0.082 0.32,0.059 0.34,0.082 0.336,0.058 0.32,0.079 0.336,0.058 0.34,0.082 0.316,0.059 0.34,0.082 0.336,0.058 0.32,0.079 0.336,0.058 0.34,0.082 0.317,0.059 0.339,0.058 0.34,0.082 0.317,0.059 0.34,0.059 0.335,0.082 0.321,0.058 0.336,0.059 0.34,0.058 0.316,0.082 0.34,0.059 0.34,0.063 0.316,0.058 0.34,0.059 0.336,0.058 0.32,0.063 0.336,0.058 0.34,0.059 0.316,0.062 0.34,0.055 0.34,0.063 0.316,0.058 0.34,0.063 0.336,0.039 0.321,0.058 0.335,0.059 0.34,0.039 0.317,0.063 0.34,0.039 0.336,0.058 0.32,0.039 0.336,0.063 0.34,0.039 0.32,0.058 0.336,0.04 0.34,0.043 0.316,0.039 0.34,0.039 0.336,0.058 0.32,0.039 0.336,0.039 0.34,0.039 0.316,0.043 0.68,0.078 0.316,0.02 0.34,0.039 0.336,0.039 0.321,0.043 0.335,0.02 0.34,0.039 0.317,0.039 0.34,0.019 0.339,0.039 0.317,0.043 0.34,0.02 0.336,0.039 0.32,0.019 0.336,0.02 0.34,0.039 0.316,0.023 0.34,0.04 0.336,0.019 0.32,0.02 0.336,0.019 0.34,0.039 0.32,0.02 0.336,0.019 0.34,0.024 0.317,0.039 0.339,0.019 0.336,0.02 0.321,0.019 0.336,0.02 0.339,0.019 0.317,0.02 0.679,0.039 0.317,0.023 0.34,0.016 0.34,0.024 0.316,0.019 0.336,0.02 0.34,0.019 h 0.316 l 0.68,0.039 0.316,0.02 0.34,0.019 h 0.02"
       style="fill:none;stroke:#008b00;stroke-width:0.597;stroke-linecap:butt;stroke-linejoin:miter;stroke-miterlimit:10;stroke-dasharray:0.59681, 1.7904;stroke-dashoffset:0;stroke-opacity:1"
       id="path32"
       inkscape:connector-curvature="0" /><path
       d="m 32.539,138.887 h 0.02 l 0.339,-0.02 0.993,-0.058 h 0.32 l 0.676,-0.039 0.316,-0.024 0.34,-0.016 0.336,-0.023 0.32,-0.019 1.672,-0.098 0.317,-0.02 0.675,-0.043 0.321,-0.015 0.336,-0.043 0.339,-0.02 0.657,-0.039 0.339,-0.039 0.317,-0.019 0.34,-0.024 0.336,-0.039 0.32,-0.019 0.336,-0.02 0.34,-0.039 0.316,-0.02 0.676,-0.082 0.32,-0.015 0.34,-0.043 0.336,-0.02 0.32,-0.039 0.676,-0.082 0.317,-0.039 0.339,-0.016 0.34,-0.043 0.317,-0.039 0.675,-0.082 0.321,-0.039 0.336,-0.058 0.339,-0.039 0.317,-0.039 0.34,-0.039 0.336,-0.039 0.32,-0.063 0.336,-0.039 0.34,-0.039 0.316,-0.063 0.34,-0.039 0.34,-0.058 0.316,-0.039 0.34,-0.063 0.336,-0.039 0.32,-0.058 0.336,-0.059 0.34,-0.039 0.317,-0.063 0.679,-0.117 0.317,-0.058 0.34,-0.043 0.335,-0.059 0.321,-0.059 0.336,-0.058 0.34,-0.063 0.316,-0.058 0.34,-0.059 0.336,-0.058 0.32,-0.063 0.34,-0.059 0.336,-0.058 0.32,-0.082 0.676,-0.117 0.316,-0.063 0.34,-0.058 0.336,-0.059 0.32,-0.082 0.34,-0.059 0.336,-0.058 0.32,-0.078 0.336,-0.063 0.34,-0.058 0.317,-0.083 0.34,-0.058 0.335,-0.059 0.321,-0.078 0.336,-0.062 0.34,-0.078 0.316,-0.059 0.34,-0.082 0.34,-0.059 0.316,-0.078 0.34,-0.058 0.336,-0.082 0.32,-0.059 0.336,-0.082 0.34,-0.078 0.316,-0.059 0.34,-0.082 0.336,-0.078 0.32,-0.059 0.34,-0.082 0.336,-0.078 0.321,-0.082 0.335,-0.078 0.34,-0.058 0.317,-0.082 0.34,-0.079 0.336,-0.078 0.32,-0.082 0.336,-0.078 0.34,-0.078 0.316,-0.082 0.68,-0.156 0.316,-0.082 0.34,-0.078 0.336,-0.082 0.32,-0.079 0.676,-0.16 0.32,-0.078 0.336,-0.082 0.34,-0.078 0.316,-0.078 0.34,-0.078 0.336,-0.082 0.321,-0.078 0.335,-0.063 0.34,-0.078 0.317,-0.078 0.34,-0.078 0.339,-0.063 0.317,-0.078 0.34,-0.078 0.336,-0.063 0.32,-0.058 0.336,-0.078 0.34,-0.063 0.316,-0.058 0.34,-0.063 0.336,-0.058 0.32,-0.059 0.336,-0.059 0.34,-0.043 0.32,-0.058 0.336,-0.039 0.34,-0.059 0.317,-0.039 0.675,-0.082 0.321,-0.039 0.336,-0.02 0.339,-0.039 0.317,-0.019 0.34,-0.039 0.339,-0.024 0.317,-0.019 0.34,-0.02 0.336,-0.019 0.32,-0.02 h 0.336 l 0.34,-0.019 h 0.656 l 0.34,-0.02 h 4.297 l 0.336,-0.019 h 0.656 l 0.34,-0.02 0.336,-0.019 h 0.32 l 0.336,-0.024 0.34,-0.015 0.32,-0.024 0.336,-0.039 0.34,-0.02 0.316,-0.039 0.34,-0.039 0.336,-0.019 0.32,-0.063 0.336,-0.039 0.34,-0.039 0.317,-0.058 0.339,-0.063 0.34,-0.058 0.317,-0.059 0.34,-0.063 0.335,-0.058 0.321,-0.078 0.336,-0.078 0.34,-0.082 0.316,-0.098 0.34,-0.082 0.336,-0.117 0.32,-0.102 0.336,-0.117 0.34,-0.141 0.32,-0.136 0.336,-0.161 0.34,-0.16 0.316,-0.199 0.34,-0.199 0.336,-0.238 0.32,-0.239 0.34,-0.277 0.336,-0.32 0.32,-0.321 0.336,-0.375 0.34,-0.398 0.317,-0.457 0.34,-0.477 0.335,-0.539 0.321,-0.578 0.336,-0.637 0.34,-0.675 0.316,-0.735 0.34,-0.797 0.34,-0.875 0.316,-0.914 0.34,-0.996 0.336,-1.055 0.32,-1.132 0.336,-1.196 0.34,-1.269 0.316,-1.356 0.34,-1.414 0.336,-1.488 0.32,-1.574 0.34,-1.629 0.336,-1.731 0.321,-1.773 0.335,-1.867 0.34,-1.91 0.317,-2.008 0.34,-2.051 0.336,-2.129 0.32,-2.187 0.336,-2.25 0.34,-2.286 0.316,-2.347 0.34,-2.41 0.34,-2.446 0.316,-2.464 0.34,-2.528 0.336,-2.547 0.32,-2.566 0.336,-2.586 0.34,-2.606 0.316,-2.628 0.68,-5.211 0.316,-2.606 0.34,-2.586 0.336,-2.547 0.321,-2.527 0.335,-2.484 0.34,-2.45 0.317,-2.386 0.34,-2.328 0.336,-2.266 0.32,-2.188 0.34,-2.109 0.336,-2.012 0.32,-1.91 0.336,-1.808 0.34,-1.692 0.316,-1.57 0.34,-1.453 0.336,-1.332 0.32,-1.176 0.336,-1.035 0.34,-0.875 0.32,-0.735 0.336,-0.558 0.34,-0.418 0.317,-0.238 0.339,-1.254 0.336,1.254 0.321,0.238 0.336,0.418 0.339,0.558 0.321,0.735 0.336,0.875 0.339,1.035 0.317,1.176 0.34,1.332 0.34,1.453 0.316,1.57 0.336,1.692 0.34,1.808 0.316,1.91 0.34,2.012 0.34,2.109 0.316,2.188 0.34,2.266 0.336,2.328 0.32,2.386 0.336,2.45 0.34,2.484 0.317,2.527 0.339,2.547 0.336,2.586 0.321,2.606 0.339,2.605 0.336,2.606 0.321,2.628 0.336,2.606 0.339,2.586 0.317,2.566 0.34,2.547 0.34,2.528 0.316,2.464 0.336,2.446 0.34,2.41 0.32,2.347 0.336,2.286 0.34,2.25 0.316,2.187 0.34,2.129 0.336,2.051 0.32,2.008 0.336,1.91 0.34,1.867 0.317,1.773 0.339,1.731 0.34,1.629 0.317,1.574 0.34,1.488 0.335,1.414 0.321,1.356 0.336,1.269 0.34,1.196 0.316,1.132 0.34,1.055 0.336,0.996 0.32,0.914 0.34,0.875 0.336,0.797 0.32,0.735 0.336,0.675 0.34,0.637 0.316,0.578 0.34,0.539 0.336,0.477 0.32,0.457 0.336,0.398 0.34,0.375 0.32,0.321 0.336,0.32 0.34,0.277 0.317,0.239 0.34,0.238 0.335,0.199 0.321,0.199 0.336,0.16 0.34,0.161 0.316,0.136 0.34,0.141 0.34,0.117 0.316,0.102 0.34,0.117 0.336,0.082 0.32,0.098 0.336,0.082 0.34,0.078 0.316,0.078 0.34,0.058 0.336,0.063 0.32,0.059 0.34,0.058 0.336,0.063 0.321,0.058 0.335,0.039 0.34,0.039 0.317,0.063 0.34,0.019 0.336,0.039 0.32,0.039 0.336,0.02 0.34,0.039 0.32,0.024 0.336,0.015 0.34,0.024 h 0.316 l 0.34,0.019 0.336,0.02 h 0.656 l 0.34,0.019 h 4.297 l 0.34,0.02 h 0.656 l 0.336,0.019 h 0.34 l 0.316,0.02 0.34,0.019 0.336,0.02 0.32,0.019 0.34,0.024 0.336,0.039 0.32,0.019 0.336,0.039 0.34,0.02 0.317,0.039 0.675,0.082 0.321,0.039 0.336,0.059 0.339,0.039 0.317,0.058 0.34,0.043 0.339,0.059 0.317,0.059 0.34,0.058 0.336,0.063 0.32,0.058 0.336,0.063 0.34,0.078 0.316,0.058 0.34,0.063 0.34,0.078 0.316,0.078 0.34,0.063 0.336,0.078 0.32,0.078 0.336,0.078 0.34,0.063 0.317,0.078 0.339,0.082 0.336,0.078 0.321,0.078 0.339,0.078 0.336,0.082 0.321,0.078 0.336,0.082 0.339,0.078 0.317,0.079 0.34,0.082 0.34,0.078 0.316,0.082 0.336,0.078 0.34,0.078 0.316,0.082 0.68,0.156 0.316,0.082 0.34,0.078 0.336,0.079 0.32,0.082 0.336,0.058 0.34,0.078 0.317,0.082 0.339,0.078 0.34,0.082 0.317,0.059 0.34,0.078 0.335,0.082 0.321,0.059 0.34,0.078 0.336,0.082 0.316,0.059 0.34,0.082 0.336,0.058 0.32,0.078 0.34,0.059 0.336,0.082 0.32,0.059 0.336,0.078 0.34,0.062 0.316,0.078 0.34,0.059 0.336,0.058 0.32,0.083 0.336,0.058 0.34,0.063 0.317,0.078 0.679,0.117 0.317,0.082 0.34,0.059 0.335,0.058 0.321,0.063 0.336,0.058 0.34,0.059 0.316,0.082 0.68,0.117 0.316,0.063 0.34,0.058 0.336,0.059 0.32,0.058 0.336,0.063 0.34,0.058 0.316,0.059 0.34,0.059 0.34,0.043 0.316,0.058 0.34,0.059 0.336,0.058 0.321,0.063 0.335,0.039 0.34,0.059 0.317,0.058 0.34,0.039 0.336,0.063 0.32,0.039 0.336,0.058 0.34,0.039 0.32,0.063 0.336,0.039 0.34,0.039 0.316,0.063 0.34,0.039 0.336,0.039 0.32,0.039 0.336,0.039 0.34,0.058 0.316,0.039 0.68,0.082 0.316,0.039 0.34,0.043 0.336,0.016 0.321,0.039 0.675,0.082 0.317,0.039 0.34,0.02 0.339,0.043 0.317,0.015 0.676,0.082 0.32,0.02 0.336,0.039 0.34,0.02 0.316,0.019 0.34,0.039 0.336,0.024 0.32,0.019 0.336,0.039 0.34,0.02 0.32,0.019 0.336,0.02 0.34,0.043 0.317,0.015 0.675,0.043 0.321,0.02 1.671,0.098 0.657,0.042 0.34,0.016 0.316,0.024 0.676,0.039 h 0.316 l 0.68,0.039 0.316,0.019 0.34,0.02 h 0.02"
       style="fill:none;stroke:#000000;stroke-width:0.597;stroke-linecap:butt;stroke-linejoin:miter;stroke-miterlimit:10;stroke-dasharray:none;stroke-opacity:1"
       id="path36"
       inkscape:connector-curvature="0" /><path
       d="m 32.539,138.887 h 0.02 l 0.339,-0.02 0.317,-0.019 h 0.34 l 0.336,-0.02 0.32,-0.019 0.336,-0.02 0.34,-0.019 0.316,-0.024 0.34,-0.016 h 0.336 l 0.32,-0.023 0.336,-0.019 0.34,-0.02 0.32,-0.02 0.336,-0.019 0.34,-0.039 0.317,-0.02 0.339,-0.019 0.336,-0.024 0.321,-0.015 0.336,-0.024 0.339,-0.019 0.317,-0.039 0.679,-0.039 0.317,-0.039 0.34,-0.024 0.336,-0.016 0.32,-0.042 0.336,-0.02 0.34,-0.039 0.316,-0.02 0.34,-0.039 0.336,-0.019 0.32,-0.039 0.34,-0.043 0.336,-0.039 0.32,-0.02 0.336,-0.039 0.34,-0.043 0.317,-0.039 0.679,-0.078 0.317,-0.039 0.339,-0.039 0.336,-0.039 0.321,-0.043 0.336,-0.039 0.339,-0.039 0.317,-0.039 0.34,-0.039 0.336,-0.063 0.32,-0.039 0.336,-0.039 0.34,-0.059 0.316,-0.043 0.34,-0.058 0.34,-0.039 0.316,-0.059 0.34,-0.043 0.336,-0.058 0.32,-0.039 0.336,-0.059 0.34,-0.063 0.317,-0.058 0.339,-0.039 0.34,-0.059 0.317,-0.058 0.34,-0.063 0.335,-0.059 0.321,-0.039 0.336,-0.058 0.34,-0.063 0.316,-0.058 0.34,-0.059 0.336,-0.058 0.32,-0.063 0.34,-0.059 0.336,-0.058 0.32,-0.063 0.336,-0.078 0.34,-0.058 0.316,-0.063 0.34,-0.058 0.336,-0.059 0.32,-0.063 0.34,-0.078 0.336,-0.058 0.32,-0.063 0.336,-0.078 0.34,-0.058 0.317,-0.059 0.34,-0.082 0.335,-0.059 0.321,-0.058 0.336,-0.082 0.34,-0.059 0.316,-0.078 0.34,-0.063 0.34,-0.078 0.316,-0.058 0.34,-0.078 0.336,-0.063 0.32,-0.078 0.336,-0.082 0.34,-0.059 0.316,-0.078 0.34,-0.082 0.336,-0.078 0.32,-0.059 0.34,-0.082 0.336,-0.078 0.321,-0.082 0.335,-0.078 0.34,-0.078 0.317,-0.078 0.34,-0.082 0.336,-0.078 0.32,-0.078 0.336,-0.082 0.34,-0.079 0.316,-0.082 0.34,-0.078 0.34,-0.082 0.316,-0.078 0.34,-0.078 0.336,-0.078 0.32,-0.082 0.336,-0.078 0.34,-0.082 0.32,-0.078 0.336,-0.079 0.34,-0.082 0.316,-0.078 0.34,-0.082 0.336,-0.078 0.321,-0.078 0.335,-0.082 0.34,-0.078 0.317,-0.078 0.34,-0.063 0.339,-0.078 0.317,-0.082 0.34,-0.058 0.336,-0.079 0.32,-0.058 0.336,-0.063 0.34,-0.058 0.316,-0.078 0.34,-0.063 0.336,-0.059 0.32,-0.039 0.336,-0.058 0.34,-0.063 0.32,-0.039 0.336,-0.039 0.34,-0.058 0.317,-0.039 0.339,-0.043 0.336,-0.04 0.321,-0.019 0.336,-0.039 0.339,-0.039 0.317,-0.02 0.34,-0.019 0.339,-0.024 0.317,-0.019 0.34,-0.02 0.336,-0.019 0.32,-0.02 h 0.336 l 0.34,-0.019 h 0.656 l 0.34,-0.02 h 3.301 l 0.339,-0.019 h 0.993 l 0.339,-0.02 h 0.317 l 0.34,-0.019 0.336,-0.024 0.32,-0.015 0.336,-0.024 0.34,-0.019 0.32,-0.02 0.336,-0.039 0.34,-0.02 0.316,-0.039 0.34,-0.043 0.336,-0.039 0.32,-0.039 0.336,-0.039 0.34,-0.039 0.317,-0.058 0.339,-0.063 0.34,-0.039 0.317,-0.059 0.34,-0.058 0.335,-0.082 0.321,-0.059 0.336,-0.082 0.34,-0.078 0.316,-0.078 0.34,-0.082 0.336,-0.098 0.32,-0.121 0.336,-0.098 0.34,-0.14 0.32,-0.141 0.336,-0.137 0.34,-0.179 0.316,-0.18 0.34,-0.219 0.336,-0.218 0.32,-0.258 0.34,-0.278 0.336,-0.3 0.32,-0.336 0.336,-0.379 0.34,-0.418 0.317,-0.457 0.34,-0.496 0.335,-0.539 0.321,-0.578 0.336,-0.657 0.34,-0.695 0.316,-0.758 0.34,-0.793 0.34,-0.875 0.316,-0.957 0.34,-0.992 0.336,-1.074 0.32,-1.133 0.336,-1.215 0.34,-1.293 0.316,-1.355 0.34,-1.411 0.336,-1.511 0.32,-1.555 0.34,-1.648 0.336,-1.711 0.321,-1.789 0.335,-1.852 0.34,-1.93 0.317,-1.968 0.34,-2.051 0.336,-2.129 0.32,-2.168 0.336,-2.227 0.34,-2.269 0.316,-2.328 0.34,-2.387 0.34,-2.406 0.316,-2.449 0.34,-2.485 0.336,-2.527 0.32,-2.527 0.336,-2.543 0.34,-2.571 0.316,-2.586 0.34,-2.562 0.34,-2.571 0.316,-2.542 0.34,-2.547 0.336,-2.508 0.321,-2.469 0.335,-2.445 0.34,-2.387 0.317,-2.348 0.34,-2.289 0.336,-2.207 0.32,-2.148 0.34,-2.051 0.336,-1.969 0.32,-1.867 0.336,-1.773 0.34,-1.668 0.316,-1.535 0.34,-1.411 0.336,-1.293 0.32,-1.156 0.336,-1.011 0.34,-0.856 0.32,-0.719 0.336,-0.554 0.34,-0.399 0.317,-0.238 0.339,-1.234 0.336,1.234 0.321,0.238 0.336,0.399 0.339,0.554 0.321,0.719 0.336,0.856 0.339,1.011 0.317,1.156 0.34,1.293 0.34,1.411 0.316,1.535 0.336,1.668 0.34,1.773 0.316,1.867 0.34,1.969 0.34,2.051 0.316,2.148 0.34,2.207 0.336,2.289 0.32,2.348 0.336,2.387 0.34,2.445 0.317,2.469 0.339,2.508 0.336,2.547 0.321,2.542 0.339,2.571 0.336,2.562 0.321,2.586 0.336,2.571 0.339,2.543 0.317,2.527 0.34,2.527 0.34,2.485 0.316,2.449 0.336,2.406 0.34,2.387 0.32,2.328 0.336,2.269 0.34,2.227 0.316,2.168 0.34,2.129 0.336,2.051 0.32,1.968 0.336,1.93 0.34,1.852 0.317,1.789 0.339,1.711 0.34,1.648 0.317,1.555 0.34,1.511 0.335,1.411 0.321,1.355 0.336,1.293 0.34,1.215 0.316,1.133 0.34,1.074 0.336,0.992 0.32,0.957 0.34,0.875 0.336,0.793 0.32,0.758 0.336,0.695 0.34,0.657 0.316,0.578 0.34,0.539 0.336,0.496 0.32,0.457 0.336,0.418 0.34,0.379 0.32,0.336 0.336,0.3 0.34,0.278 0.317,0.258 0.34,0.218 0.335,0.219 0.321,0.18 0.336,0.179 0.34,0.137 0.316,0.141 0.34,0.14 0.34,0.098 0.316,0.121 0.34,0.098 0.336,0.082 0.32,0.078 0.336,0.078 0.34,0.082 0.316,0.059 0.34,0.082 0.336,0.058 0.32,0.059 0.34,0.039 0.336,0.063 0.321,0.058 0.335,0.039 0.34,0.039 0.317,0.039 0.34,0.039 0.336,0.043 0.32,0.039 0.336,0.02 0.34,0.039 0.32,0.02 0.336,0.019 0.34,0.024 0.316,0.015 0.34,0.024 0.336,0.019 h 0.32 l 0.336,0.02 h 0.996 l 0.34,0.019 h 3.301 l 0.34,0.02 h 0.656 l 0.336,0.019 h 0.34 l 0.316,0.02 0.34,0.019 0.336,0.02 0.32,0.019 0.34,0.024 0.336,0.019 0.32,0.02 0.336,0.039 0.34,0.039 0.317,0.019 0.339,0.04 0.336,0.043 0.321,0.039 0.336,0.058 0.339,0.039 0.317,0.039 0.34,0.063 0.339,0.058 0.317,0.039 0.34,0.059 0.336,0.063 0.32,0.078 0.336,0.058 0.34,0.063 0.316,0.058 0.34,0.079 0.34,0.058 0.316,0.082 0.34,0.078 0.336,0.063 0.32,0.078 0.336,0.078 0.34,0.082 0.317,0.078 0.339,0.078 0.336,0.082 0.321,0.078 0.339,0.082 0.336,0.079 0.321,0.078 0.336,0.082 0.339,0.078 0.317,0.082 0.68,0.156 0.316,0.078 0.336,0.082 0.34,0.078 0.316,0.082 0.34,0.079 0.34,0.082 0.316,0.078 0.34,0.078 0.336,0.082 0.32,0.078 0.336,0.078 0.34,0.078 0.317,0.082 0.339,0.078 0.34,0.082 0.317,0.059 0.34,0.078 0.335,0.082 0.321,0.078 0.34,0.059 0.336,0.082 0.316,0.078 0.34,0.063 0.336,0.078 0.32,0.058 0.34,0.078 0.336,0.063 0.32,0.078 0.336,0.059 0.34,0.082 0.316,0.058 0.34,0.059 0.336,0.082 0.32,0.059 0.336,0.058 0.34,0.078 0.317,0.063 0.339,0.058 0.34,0.078 0.317,0.063 0.34,0.059 0.335,0.058 0.321,0.063 0.336,0.058 0.34,0.078 0.316,0.063 0.68,0.117 0.316,0.063 0.34,0.058 0.336,0.059 0.32,0.058 0.336,0.063 0.34,0.058 0.316,0.039 0.34,0.059 0.34,0.063 0.316,0.058 0.34,0.059 0.336,0.039 0.321,0.058 0.335,0.063 0.34,0.059 0.317,0.039 0.34,0.058 0.336,0.043 0.32,0.059 0.336,0.039 0.34,0.058 0.32,0.043 0.336,0.059 0.34,0.039 0.316,0.039 0.34,0.063 0.336,0.039 0.32,0.039 0.336,0.039 0.34,0.039 0.316,0.043 0.68,0.078 0.316,0.039 0.34,0.039 0.336,0.039 0.321,0.039 0.335,0.043 0.34,0.039 0.317,0.02 0.34,0.039 0.339,0.043 0.317,0.039 0.34,0.019 0.336,0.039 0.32,0.02 0.336,0.039 0.34,0.02 0.316,0.042 0.34,0.016 0.336,0.024 0.32,0.039 0.336,0.019 0.34,0.02 0.32,0.039 0.336,0.019 0.34,0.024 0.317,0.015 0.339,0.024 0.336,0.019 0.321,0.02 0.336,0.039 0.339,0.019 0.317,0.02 0.679,0.039 0.317,0.023 h 0.34 l 0.34,0.016 0.316,0.024 0.336,0.019 0.34,0.02 0.316,0.019 0.34,0.02 h 0.34 l 0.316,0.019 0.34,0.02 h 0.02"
       style="fill:none;stroke:#ff0000;stroke-width:0.597;stroke-linecap:butt;stroke-linejoin:miter;stroke-miterlimit:10;stroke-dasharray:2.984, 1.7904;stroke-dashoffset:0;stroke-opacity:1"
       id="path40"
       inkscape:connector-curvature="0" /><path
       d="m 32.539,138.867 h 0.359 l 0.317,-0.019 0.34,-0.02 0.336,-0.019 0.32,-0.02 h 0.336 l 0.34,-0.019 0.316,-0.024 0.34,-0.016 0.336,-0.023 0.32,-0.019 0.336,-0.02 0.34,-0.02 0.32,-0.019 0.336,-0.02 0.34,-0.019 0.317,-0.02 0.339,-0.019 0.336,-0.039 0.321,-0.024 0.336,-0.019 0.339,-0.02 0.317,-0.019 0.34,-0.039 0.339,-0.02 0.317,-0.043 0.34,-0.016 0.336,-0.023 0.32,-0.039 0.336,-0.02 0.34,-0.039 0.316,-0.039 0.34,-0.019 0.336,-0.039 0.32,-0.043 0.34,-0.02 0.336,-0.039 0.32,-0.039 0.336,-0.043 0.34,-0.039 0.317,-0.016 0.339,-0.043 0.34,-0.039 0.317,-0.039 0.339,-0.043 0.336,-0.058 0.321,-0.039 0.336,-0.039 0.339,-0.039 0.317,-0.039 0.34,-0.039 0.336,-0.063 0.32,-0.039 0.336,-0.039 0.34,-0.063 0.316,-0.039 0.34,-0.058 0.34,-0.039 0.316,-0.063 0.34,-0.039 0.336,-0.058 0.32,-0.04 0.336,-0.058 0.34,-0.063 0.317,-0.039 0.339,-0.058 0.34,-0.063 0.317,-0.055 0.34,-0.042 0.335,-0.059 0.321,-0.063 0.336,-0.058 0.34,-0.059 0.316,-0.058 0.34,-0.039 0.336,-0.063 0.32,-0.059 0.34,-0.058 0.336,-0.063 0.32,-0.058 0.336,-0.059 0.34,-0.058 0.316,-0.082 0.34,-0.059 0.336,-0.059 0.32,-0.062 0.34,-0.059 0.336,-0.058 0.32,-0.078 0.336,-0.063 0.34,-0.058 0.317,-0.083 0.34,-0.058 0.335,-0.059 0.321,-0.078 0.336,-0.062 0.34,-0.078 0.316,-0.059 0.34,-0.082 0.34,-0.059 0.316,-0.078 0.34,-0.082 0.336,-0.058 0.32,-0.079 0.336,-0.082 0.34,-0.078 0.316,-0.058 0.34,-0.082 0.336,-0.078 0.32,-0.083 0.34,-0.078 0.336,-0.078 0.321,-0.082 0.335,-0.078 0.34,-0.078 0.317,-0.082 0.34,-0.078 0.336,-0.078 0.32,-0.082 0.336,-0.098 0.34,-0.082 0.316,-0.078 0.34,-0.078 0.34,-0.082 0.316,-0.098 0.34,-0.078 0.336,-0.082 0.32,-0.078 0.336,-0.082 0.34,-0.098 0.32,-0.078 0.336,-0.082 0.34,-0.078 0.316,-0.078 0.34,-0.082 0.336,-0.078 0.321,-0.083 0.335,-0.078 0.34,-0.082 0.317,-0.078 0.34,-0.058 0.339,-0.079 0.317,-0.082 0.34,-0.058 0.336,-0.078 0.32,-0.063 0.336,-0.058 0.34,-0.063 0.316,-0.058 0.34,-0.059 0.336,-0.059 0.32,-0.058 0.336,-0.043 0.34,-0.059 0.32,-0.039 0.336,-0.039 0.34,-0.043 0.317,-0.039 0.339,-0.039 0.336,-0.02 0.321,-0.039 0.336,-0.019 0.339,-0.02 0.317,-0.019 0.34,-0.024 0.339,-0.019 0.317,-0.02 0.34,-0.019 h 0.336 l 0.32,-0.02 h 0.676 l 0.316,-0.019 h 1.336 l 0.336,-0.02 h 0.996 l 0.317,-0.019 h 0.679 l 0.317,-0.02 h 0.339 l 0.336,-0.019 0.321,-0.024 0.336,-0.015 0.339,-0.024 0.317,-0.019 0.34,-0.02 0.336,-0.02 0.32,-0.039 0.336,-0.019 0.34,-0.039 0.32,-0.024 0.336,-0.039 0.34,-0.039 0.316,-0.039 0.34,-0.039 0.336,-0.043 0.32,-0.039 0.336,-0.058 0.34,-0.04 0.317,-0.039 0.339,-0.043 0.34,-0.058 0.317,-0.039 0.34,-0.059 0.335,-0.039 0.321,-0.062 0.336,-0.059 0.34,-0.059 0.316,-0.082 0.34,-0.058 0.336,-0.078 0.32,-0.102 0.336,-0.098 0.34,-0.097 0.32,-0.121 0.336,-0.141 0.34,-0.156 0.316,-0.184 0.34,-0.195 0.336,-0.223 0.32,-0.258 0.34,-0.277 0.336,-0.297 0.32,-0.359 0.336,-0.375 0.34,-0.442 0.317,-0.457 0.34,-0.535 0.335,-0.558 0.321,-0.637 0.336,-0.676 0.34,-0.734 0.316,-0.817 0.34,-0.855 0.34,-0.938 0.316,-0.992 0.34,-1.074 0.336,-1.137 0.32,-1.211 0.336,-1.293 0.34,-1.351 0.316,-1.434 0.34,-1.511 0.336,-1.594 0.32,-1.653 0.34,-1.726 0.336,-1.813 0.321,-1.871 0.335,-1.949 0.34,-2.008 0.317,-2.09 0.34,-2.148 0.336,-2.207 0.32,-2.27 0.336,-2.328 0.34,-2.367 0.316,-2.426 0.34,-2.468 0.34,-2.504 0.316,-2.547 0.34,-2.586 0.336,-2.586 0.32,-2.625 0.336,-2.649 0.34,-2.644 0.316,-2.664 0.34,-2.649 0.34,-2.664 0.316,-2.629 0.34,-2.605 0.336,-2.586 0.321,-2.566 0.335,-2.504 0.34,-2.469 0.317,-2.406 0.34,-2.348 0.336,-2.269 0.32,-2.208 0.34,-2.109 0.336,-2.027 0.32,-1.93 0.336,-1.812 0.34,-1.711 0.316,-1.59 0.34,-1.453 0.336,-1.332 0.32,-1.196 0.336,-1.031 0.34,-0.898 0.32,-0.735 0.336,-0.578 0.34,-0.418 0.317,-0.238 0.339,-1.293 0.336,1.293 0.321,0.238 0.336,0.418 0.339,0.578 0.321,0.735 0.336,0.898 0.339,1.031 0.317,1.196 0.34,1.332 0.34,1.453 0.316,1.59 0.336,1.711 0.34,1.812 0.316,1.93 0.34,2.027 0.34,2.109 0.316,2.208 0.34,2.269 0.336,2.348 0.32,2.406 0.336,2.469 0.34,2.504 0.317,2.566 0.339,2.586 0.336,2.605 0.321,2.629 0.339,2.664 0.336,2.649 0.321,2.664 0.336,2.644 0.339,2.649 0.317,2.625 0.68,5.172 0.316,2.547 0.336,2.504 0.34,2.468 0.32,2.426 0.336,2.367 0.34,2.328 0.316,2.27 0.34,2.207 0.336,2.148 0.32,2.09 0.336,2.008 0.34,1.949 0.317,1.871 0.339,1.813 0.34,1.726 0.317,1.653 0.34,1.594 0.335,1.511 0.321,1.434 0.336,1.351 0.34,1.293 0.316,1.211 0.34,1.137 0.336,1.074 0.32,0.992 0.34,0.938 0.336,0.855 0.32,0.817 0.336,0.734 0.34,0.676 0.316,0.637 0.34,0.558 0.336,0.535 0.32,0.457 0.336,0.442 0.34,0.375 0.32,0.359 0.336,0.297 0.34,0.277 0.317,0.258 0.34,0.223 0.335,0.195 0.321,0.184 0.336,0.156 0.34,0.141 0.316,0.121 0.68,0.195 0.316,0.102 0.34,0.078 0.336,0.058 0.32,0.082 0.336,0.059 0.34,0.059 0.316,0.062 0.34,0.039 0.336,0.059 0.32,0.039 0.34,0.058 0.336,0.043 0.321,0.039 0.335,0.04 0.34,0.058 0.317,0.039 0.34,0.043 0.336,0.039 0.32,0.039 0.336,0.039 0.34,0.039 0.32,0.024 0.336,0.039 0.34,0.019 0.316,0.039 0.34,0.02 0.336,0.02 0.32,0.019 0.336,0.024 0.34,0.015 0.316,0.024 0.34,0.019 h 0.34 l 0.316,0.02 h 0.676 l 0.321,0.019 h 0.992 l 0.34,0.02 h 1.332 l 0.32,0.019 h 0.676 l 0.316,0.02 h 0.34 l 0.336,0.019 0.32,0.02 0.34,0.019 0.336,0.024 0.32,0.019 0.336,0.02 0.34,0.019 0.317,0.039 0.339,0.02 0.336,0.039 0.321,0.039 0.336,0.043 0.339,0.039 0.317,0.039 0.34,0.059 0.339,0.043 0.317,0.058 0.34,0.059 0.336,0.059 0.32,0.058 0.336,0.063 0.34,0.058 0.316,0.063 0.34,0.078 0.34,0.058 0.316,0.082 0.34,0.079 0.336,0.058 0.32,0.078 0.336,0.082 0.34,0.078 0.317,0.083 0.339,0.078 0.336,0.082 0.321,0.078 0.339,0.078 0.336,0.082 0.321,0.078 0.336,0.098 0.339,0.082 0.317,0.078 0.34,0.082 0.34,0.078 0.316,0.098 0.336,0.082 0.34,0.078 0.316,0.078 0.34,0.082 0.34,0.098 0.316,0.082 0.34,0.078 0.336,0.078 0.32,0.082 0.336,0.078 0.34,0.078 0.317,0.082 0.679,0.156 0.317,0.083 0.34,0.078 0.335,0.082 0.321,0.058 0.34,0.078 0.336,0.082 0.316,0.079 0.34,0.058 0.336,0.082 0.32,0.078 0.34,0.059 0.336,0.082 0.32,0.059 0.336,0.078 0.34,0.062 0.316,0.078 0.34,0.059 0.336,0.058 0.32,0.083 0.336,0.058 0.34,0.063 0.317,0.078 0.679,0.117 0.317,0.062 0.34,0.059 0.335,0.059 0.321,0.082 0.336,0.058 0.34,0.059 0.316,0.058 0.34,0.063 0.34,0.058 0.316,0.059 0.34,0.063 0.336,0.039 0.32,0.058 0.336,0.059 0.34,0.058 0.316,0.063 0.34,0.059 0.34,0.042 0.316,0.055 0.34,0.063 0.336,0.058 0.321,0.039 0.335,0.063 0.34,0.058 0.317,0.04 0.34,0.058 0.336,0.039 0.32,0.063 0.336,0.039 0.34,0.058 0.32,0.039 0.336,0.063 0.34,0.039 0.316,0.039 0.34,0.063 0.336,0.039 0.32,0.039 0.336,0.039 0.34,0.039 0.316,0.039 0.34,0.058 0.34,0.043 0.316,0.039 0.34,0.039 0.336,0.043 0.321,0.016 0.335,0.039 0.34,0.043 0.317,0.039 0.34,0.039 0.339,0.02 0.317,0.043 0.34,0.039 0.336,0.019 0.32,0.039 0.336,0.039 0.34,0.02 0.316,0.039 0.34,0.023 0.336,0.016 0.32,0.043 0.336,0.02 0.34,0.039 0.32,0.019 0.336,0.02 0.34,0.019 0.317,0.024 0.339,0.039 0.336,0.019 0.321,0.02 0.336,0.019 0.339,0.02 0.317,0.019 0.679,0.04 0.317,0.019 0.34,0.023 0.34,0.016 0.316,0.024 0.336,0.019 h 0.34 l 0.316,0.02 0.68,0.039 0.316,0.019 h 0.36"
       style="fill:none;stroke:#0000ff;stroke-width:0.597;stroke-linecap:butt;stroke-linejoin:miter;stroke-miterlimit:10;stroke-dasharray:0.59681, 1.7904, 2.984, 1.7904;stroke-dashoffset:0;stroke-opacity:1"
       id="path44"
       inkscape:connector-curvature="0" /><path
       d="M 231.496,0.148 V 4.129"
       style="fill:none;stroke:#000000;stroke-width:0.29800001;stroke-linecap:butt;stroke-linejoin:miter;stroke-miterlimit:10;stroke-dasharray:none;stroke-opacity:1"
       id="path48"
       inkscape:connector-curvature="0" /><path
       d="m 231.496,139.402 v -3.976"
       style="fill:none;stroke:#000000;stroke-width:0.29800001;stroke-linecap:butt;stroke-linejoin:miter;stroke-miterlimit:10;stroke-dasharray:none;stroke-opacity:1"
       id="path52"
       inkscape:connector-curvature="0" /><path
       d="M 198.332,0.148 V 4.129"
       style="fill:none;stroke:#000000;stroke-width:0.29800001;stroke-linecap:butt;stroke-linejoin:miter;stroke-miterlimit:10;stroke-dasharray:none;stroke-opacity:1"
       id="path56"
       inkscape:connector-curvature="0" /><path
       d="m 198.332,139.402 v -3.976"
       style="fill:none;stroke:#000000;stroke-width:0.29800001;stroke-linecap:butt;stroke-linejoin:miter;stroke-miterlimit:10;stroke-dasharray:none;stroke-opacity:1"
       id="path60"
       inkscape:connector-curvature="0" /><path
       d="M 165.188,0.148 V 4.129"
       style="fill:none;stroke:#000000;stroke-width:0.29800001;stroke-linecap:butt;stroke-linejoin:miter;stroke-miterlimit:10;stroke-dasharray:none;stroke-opacity:1"
       id="path64"
       inkscape:connector-curvature="0" /><path
       d="m 165.188,139.402 v -3.976"
       style="fill:none;stroke:#000000;stroke-width:0.29800001;stroke-linecap:butt;stroke-linejoin:miter;stroke-miterlimit:10;stroke-dasharray:none;stroke-opacity:1"
       id="path68"
       inkscape:connector-curvature="0" /><path
       d="M 132.027,0.148 V 4.129"
       style="fill:none;stroke:#000000;stroke-width:0.29800001;stroke-linecap:butt;stroke-linejoin:miter;stroke-miterlimit:10;stroke-dasharray:none;stroke-opacity:1"
       id="path72"
       inkscape:connector-curvature="0" /><path
       d="m 132.027,139.402 v -3.976"
       style="fill:none;stroke:#000000;stroke-width:0.29800001;stroke-linecap:butt;stroke-linejoin:miter;stroke-miterlimit:10;stroke-dasharray:none;stroke-opacity:1"
       id="path76"
       inkscape:connector-curvature="0" /><path
       d="M 98.863,0.148 V 4.129"
       style="fill:none;stroke:#000000;stroke-width:0.29800001;stroke-linecap:butt;stroke-linejoin:miter;stroke-miterlimit:10;stroke-dasharray:none;stroke-opacity:1"
       id="path80"
       inkscape:connector-curvature="0" /><path
       d="m 98.863,139.402 v -3.976"
       style="fill:none;stroke:#000000;stroke-width:0.29800001;stroke-linecap:butt;stroke-linejoin:miter;stroke-miterlimit:10;stroke-dasharray:none;stroke-opacity:1"
       id="path84"
       inkscape:connector-curvature="0" /><path
       d="M 65.723,0.148 V 4.129"
       style="fill:none;stroke:#000000;stroke-width:0.29800001;stroke-linecap:butt;stroke-linejoin:miter;stroke-miterlimit:10;stroke-dasharray:none;stroke-opacity:1"
       id="path88"
       inkscape:connector-curvature="0" /><path
       d="m 65.723,139.402 v -3.976"
       style="fill:none;stroke:#000000;stroke-width:0.29800001;stroke-linecap:butt;stroke-linejoin:miter;stroke-miterlimit:10;stroke-dasharray:none;stroke-opacity:1"
       id="path92"
       inkscape:connector-curvature="0" /><path
       d="M 32.559,0.148 V 4.129"
       style="fill:none;stroke:#000000;stroke-width:0.29800001;stroke-linecap:butt;stroke-linejoin:miter;stroke-miterlimit:10;stroke-dasharray:none;stroke-opacity:1"
       id="path96"
       inkscape:connector-curvature="0" /><path
       d="m 32.559,139.402 v -3.976"
       style="fill:none;stroke:#000000;stroke-width:0.29800001;stroke-linecap:butt;stroke-linejoin:miter;stroke-miterlimit:10;stroke-dasharray:none;stroke-opacity:1"
       id="path100"
       inkscape:connector-curvature="0" /><path
       d="M 214.922,0.148 V 2.137"
       style="fill:none;stroke:#000000;stroke-width:0.29800001;stroke-linecap:butt;stroke-linejoin:miter;stroke-miterlimit:10;stroke-dasharray:none;stroke-opacity:1"
       id="path104"
       inkscape:connector-curvature="0" /><path
       d="m 214.922,139.402 v -1.988"
       style="fill:none;stroke:#000000;stroke-width:0.29800001;stroke-linecap:butt;stroke-linejoin:miter;stroke-miterlimit:10;stroke-dasharray:none;stroke-opacity:1"
       id="path108"
       inkscape:connector-curvature="0" /><path
       d="M 181.762,0.148 V 2.137"
       style="fill:none;stroke:#000000;stroke-width:0.29800001;stroke-linecap:butt;stroke-linejoin:miter;stroke-miterlimit:10;stroke-dasharray:none;stroke-opacity:1"
       id="path112"
       inkscape:connector-curvature="0" /><path
       d="m 181.762,139.402 v -1.988"
       style="fill:none;stroke:#000000;stroke-width:0.29800001;stroke-linecap:butt;stroke-linejoin:miter;stroke-miterlimit:10;stroke-dasharray:none;stroke-opacity:1"
       id="path116"
       inkscape:connector-curvature="0" /><path
       d="M 148.598,0.148 V 2.137"
       style="fill:none;stroke:#000000;stroke-width:0.29800001;stroke-linecap:butt;stroke-linejoin:miter;stroke-miterlimit:10;stroke-dasharray:none;stroke-opacity:1"
       id="path120"
       inkscape:connector-curvature="0" /><path
       d="m 148.598,139.402 v -1.988"
       style="fill:none;stroke:#000000;stroke-width:0.29800001;stroke-linecap:butt;stroke-linejoin:miter;stroke-miterlimit:10;stroke-dasharray:none;stroke-opacity:1"
       id="path124"
       inkscape:connector-curvature="0" /><path
       d="M 115.453,0.148 V 2.137"
       style="fill:none;stroke:#000000;stroke-width:0.29800001;stroke-linecap:butt;stroke-linejoin:miter;stroke-miterlimit:10;stroke-dasharray:none;stroke-opacity:1"
       id="path128"
       inkscape:connector-curvature="0" /><path
       d="m 115.453,139.402 v -1.988"
       style="fill:none;stroke:#000000;stroke-width:0.29800001;stroke-linecap:butt;stroke-linejoin:miter;stroke-miterlimit:10;stroke-dasharray:none;stroke-opacity:1"
       id="path132"
       inkscape:connector-curvature="0" /><path
       d="M 82.293,0.148 V 2.137"
       style="fill:none;stroke:#000000;stroke-width:0.29800001;stroke-linecap:butt;stroke-linejoin:miter;stroke-miterlimit:10;stroke-dasharray:none;stroke-opacity:1"
       id="path136"
       inkscape:connector-curvature="0" /><path
       d="m 82.293,139.402 v -1.988"
       style="fill:none;stroke:#000000;stroke-width:0.29800001;stroke-linecap:butt;stroke-linejoin:miter;stroke-miterlimit:10;stroke-dasharray:none;stroke-opacity:1"
       id="path140"
       inkscape:connector-curvature="0" /><path
       d="M 49.129,0.148 V 2.137"
       style="fill:none;stroke:#000000;stroke-width:0.29800001;stroke-linecap:butt;stroke-linejoin:miter;stroke-miterlimit:10;stroke-dasharray:none;stroke-opacity:1"
       id="path144"
       inkscape:connector-curvature="0" /><path
       d="m 49.129,139.402 v -1.988"
       style="fill:none;stroke:#000000;stroke-width:0.29800001;stroke-linecap:butt;stroke-linejoin:miter;stroke-miterlimit:10;stroke-dasharray:none;stroke-opacity:1"
       id="path148"
       inkscape:connector-curvature="0" /><path
       d="M 32.559,0.148 H 231.496"
       style="fill:none;stroke:#000000;stroke-width:0.29800001;stroke-linecap:butt;stroke-linejoin:miter;stroke-miterlimit:10;stroke-dasharray:none;stroke-opacity:1"
       id="path152"
       inkscape:connector-curvature="0" /><path
       d="M 32.559,139.402 H 231.496"
       style="fill:none;stroke:#000000;stroke-width:0.29800001;stroke-linecap:butt;stroke-linejoin:miter;stroke-miterlimit:10;stroke-dasharray:none;stroke-opacity:1"
       id="path156"
       inkscape:connector-curvature="0" /><text
       id="text162"
       style="font-variant:normal;font-weight:normal;font-size:12.25440025px;font-family:'Times New Roman';-inkscape-font-specification:TimesNewRomanPSMT;writing-mode:lr-tb;fill:#000000;fill-opacity:1;fill-rule:nonzero;stroke:none"
       x="21.48127"
       y="151.63889"><tspan
         id="tspan158"
         sodipodi:role="line"
         y="151.63889"
         x="21.48127 25.561985 31.689186 37.816387 54.641678 58.722393 64.849594 70.976791 87.802086 91.882797 98.009995 104.1372 129.14844 156.15714 162.28433 168.41153 189.31754 195.44473 201.57195 222.4657 228.5929 234.72009">-300-200-1000100200300</tspan><tspan
         id="tspan160"
         y="164.05014"
         x="101.45226">p</tspan></text>
<text
       id="text166"
       style="font-variant:normal;font-weight:normal;font-size:8.6736002px;font-family:'Times New Roman';-inkscape-font-specification:TimesNewRomanPSMT;writing-mode:lr-tb;fill:#000000;fill-opacity:1;fill-rule:nonzero;stroke:none"
       x="107.55967"
       y="168.94489"><tspan
         id="tspan164"
         y="168.94489"
         x="107.55967">x</tspan></text>
<text
       id="text170"
       style="font-variant:normal;font-weight:normal;font-size:12.25440025px;font-family:'Times New Roman';-inkscape-font-specification:TimesNewRomanPSMT;writing-mode:lr-tb;fill:#000000;fill-opacity:1;fill-rule:nonzero;stroke:none"
       x="121.06547"
       y="164.04999"><tspan
         id="tspan168"
         sodipodi:role="line"
         y="164.04999"
         x="121.06547 125.14619 136.04034 141.46904 150.31673 153.7112 159.13989">(MeV/c)</tspan></text>
<path
       d="m 231.496,20.043 h -3.98"
       style="fill:none;stroke:#000000;stroke-width:0.29800001;stroke-linecap:butt;stroke-linejoin:miter;stroke-miterlimit:10;stroke-dasharray:none;stroke-opacity:1"
       id="path174"
       inkscape:connector-curvature="0" /><path
       d="m 32.559,20.043 h 3.98"
       style="fill:none;stroke:#000000;stroke-width:0.29800001;stroke-linecap:butt;stroke-linejoin:miter;stroke-miterlimit:10;stroke-dasharray:none;stroke-opacity:1"
       id="path178"
       inkscape:connector-curvature="0" /><path
       d="m 231.496,59.828 h -3.98"
       style="fill:none;stroke:#000000;stroke-width:0.29800001;stroke-linecap:butt;stroke-linejoin:miter;stroke-miterlimit:10;stroke-dasharray:none;stroke-opacity:1"
       id="path182"
       inkscape:connector-curvature="0" /><path
       d="m 32.559,59.828 h 3.98"
       style="fill:none;stroke:#000000;stroke-width:0.29800001;stroke-linecap:butt;stroke-linejoin:miter;stroke-miterlimit:10;stroke-dasharray:none;stroke-opacity:1"
       id="path186"
       inkscape:connector-curvature="0" /><path
       d="m 231.496,99.617 h -3.98"
       style="fill:none;stroke:#000000;stroke-width:0.29800001;stroke-linecap:butt;stroke-linejoin:miter;stroke-miterlimit:10;stroke-dasharray:none;stroke-opacity:1"
       id="path190"
       inkscape:connector-curvature="0" /><path
       d="m 32.559,99.617 h 3.98"
       style="fill:none;stroke:#000000;stroke-width:0.29800001;stroke-linecap:butt;stroke-linejoin:miter;stroke-miterlimit:10;stroke-dasharray:none;stroke-opacity:1"
       id="path194"
       inkscape:connector-curvature="0" /><path
       d="m 231.496,139.402 h -3.98"
       style="fill:none;stroke:#000000;stroke-width:0.29800001;stroke-linecap:butt;stroke-linejoin:miter;stroke-miterlimit:10;stroke-dasharray:none;stroke-opacity:1"
       id="path198"
       inkscape:connector-curvature="0" /><path
       d="m 32.559,139.402 h 3.98"
       style="fill:none;stroke:#000000;stroke-width:0.29800001;stroke-linecap:butt;stroke-linejoin:miter;stroke-miterlimit:10;stroke-dasharray:none;stroke-opacity:1"
       id="path202"
       inkscape:connector-curvature="0" /><path
       d="m 231.496,39.938 h -1.992"
       style="fill:none;stroke:#000000;stroke-width:0.29800001;stroke-linecap:butt;stroke-linejoin:miter;stroke-miterlimit:10;stroke-dasharray:none;stroke-opacity:1"
       id="path206"
       inkscape:connector-curvature="0" /><path
       d="m 32.559,39.938 h 1.988"
       style="fill:none;stroke:#000000;stroke-width:0.29800001;stroke-linecap:butt;stroke-linejoin:miter;stroke-miterlimit:10;stroke-dasharray:none;stroke-opacity:1"
       id="path210"
       inkscape:connector-curvature="0" /><path
       d="m 231.496,79.723 h -1.992"
       style="fill:none;stroke:#000000;stroke-width:0.29800001;stroke-linecap:butt;stroke-linejoin:miter;stroke-miterlimit:10;stroke-dasharray:none;stroke-opacity:1"
       id="path214"
       inkscape:connector-curvature="0" /><path
       d="m 32.559,79.723 h 1.988"
       style="fill:none;stroke:#000000;stroke-width:0.29800001;stroke-linecap:butt;stroke-linejoin:miter;stroke-miterlimit:10;stroke-dasharray:none;stroke-opacity:1"
       id="path218"
       inkscape:connector-curvature="0" /><path
       d="m 231.496,119.512 h -1.992"
       style="fill:none;stroke:#000000;stroke-width:0.29800001;stroke-linecap:butt;stroke-linejoin:miter;stroke-miterlimit:10;stroke-dasharray:none;stroke-opacity:1"
       id="path222"
       inkscape:connector-curvature="0" /><path
       d="m 32.559,119.512 h 1.988"
       style="fill:none;stroke:#000000;stroke-width:0.29800001;stroke-linecap:butt;stroke-linejoin:miter;stroke-miterlimit:10;stroke-dasharray:none;stroke-opacity:1"
       id="path226"
       inkscape:connector-curvature="0" /><path
       d="M 231.496,139.402 V 0.148"
       style="fill:none;stroke:#000000;stroke-width:0.29800001;stroke-linecap:butt;stroke-linejoin:miter;stroke-miterlimit:10;stroke-dasharray:none;stroke-opacity:1"
       id="path230"
       inkscape:connector-curvature="0" /><path
       d="M 32.559,139.402 V 0.148"
       style="fill:none;stroke:#000000;stroke-width:0.29800001;stroke-linecap:butt;stroke-linejoin:miter;stroke-miterlimit:10;stroke-dasharray:none;stroke-opacity:1"
       id="path234"
       inkscape:connector-curvature="0" /><text
       id="text244"
       style="font-variant:normal;font-weight:normal;font-size:12.31410027px;font-family:'Times New Roman';-inkscape-font-specification:TimesNewRomanPSMT;writing-mode:lr-tb;fill:#000000;fill-opacity:1;fill-rule:nonzero;stroke:none"
       x="24.72047"
       y="142.3019"><tspan
         id="tspan236"
         y="142.3019"
         x="24.72047">0</tspan><tspan
         id="tspan238"
         sodipodi:role="line"
         y="103.71442"
         x="16.526669 22.683718 25.762243">0.1</tspan><tspan
         id="tspan240"
         sodipodi:role="line"
         y="63.928799"
         x="15.491053 21.648102 24.726627">0.2</tspan><tspan
         id="tspan242"
         sodipodi:role="line"
         y="24.13949"
         x="15.970071 22.127121 25.205645">0.3</tspan></text>
<text
       id="text248"
       style="font-variant:normal;font-weight:normal;font-size:12.25440025px;font-family:'Times New Roman';-inkscape-font-specification:TimesNewRomanPSMT;writing-mode:lr-tb;fill:#000000;fill-opacity:1;fill-rule:nonzero;stroke:none"
       transform="rotate(-90)"
       x="-125.2599"
       y="8.5086689"><tspan
         id="tspan246"
         y="8.5086689"
         x="-125.2599">d</tspan></text>
<text
       id="text252"
       style="font-variant:normal;font-weight:normal;font-size:12.25440025px;font-family:OpenSymbol;-inkscape-font-specification:OpenSymbol;writing-mode:lr-tb;fill:#000000;fill-opacity:1;fill-rule:nonzero;stroke:none"
       transform="rotate(-90)"
       x="-119.16946"
       y="8.5086699"><tspan
         id="tspan250"
         y="8.5086699"
         x="-119.16946"></tspan></text>
<text
       id="text256"
       style="font-variant:normal;font-weight:normal;font-size:12.25440025px;font-family:'Times New Roman';-inkscape-font-specification:TimesNewRomanPSMT;writing-mode:lr-tb;fill:#000000;fill-opacity:1;fill-rule:nonzero;stroke:none"
       transform="rotate(-90)"
       x="-111.78005"
       y="8.5086699"><tspan
         id="tspan254"
         sodipodi:role="line"
         y="8.5086699"
         x="-111.78005 -108.38558 -102.25838">/dp</tspan></text>
<text
       id="text260"
       style="font-variant:normal;font-weight:normal;font-size:8.6736002px;font-family:'Times New Roman';-inkscape-font-specification:TimesNewRomanPSMT;writing-mode:lr-tb;fill:#000000;fill-opacity:1;fill-rule:nonzero;stroke:none"
       transform="rotate(-90)"
       x="-96.138496"
       y="13.42267"><tspan
         id="tspan258"
         y="13.42267"
         x="-96.138496">c</tspan></text>
<text
       id="text264"
       style="font-variant:normal;font-weight:normal;font-size:12.25440025px;font-family:'Times New Roman';-inkscape-font-specification:TimesNewRomanPSMT;writing-mode:lr-tb;fill:#000000;fill-opacity:1;fill-rule:nonzero;stroke:none"
       transform="rotate(-90)"
       x="-83.107895"
       y="8.5086689"><tspan
         id="tspan262"
         sodipodi:role="line"
         y="8.5086689"
         x="-83.107895 -79.027184 -69.505508 -63.378311 -59.983845 -55.90313 -45.008965 -39.580265 -30.73259 -27.33812 -21.90942 -17.828705">(mb/(MeV/c))</tspan></text>
<path
       d="M 32.559,0.148 H 231.497 V 139.402 H 32.559 Z"
       style="fill:none;stroke:#000000;stroke-width:0.29800001;stroke-linecap:butt;stroke-linejoin:miter;stroke-miterlimit:10;stroke-dasharray:none;stroke-opacity:1"
       id="path268"
       inkscape:connector-curvature="0" /><path
       d="m 141.875,56.391 -2.566,3.437 4.234,-0.734"
       style="fill:none;stroke:#000000;stroke-width:0.736;stroke-linecap:butt;stroke-linejoin:miter;stroke-miterlimit:10;stroke-dasharray:none;stroke-opacity:1"
       id="path272"
       inkscape:connector-curvature="0" /><path
       d="M 171.812,39.938 139.309,59.832"
       style="fill:none;stroke:#000000;stroke-width:0.736;stroke-linecap:butt;stroke-linejoin:miter;stroke-miterlimit:10;stroke-dasharray:none;stroke-opacity:1"
       id="path276"
       inkscape:connector-curvature="0" /><path
       d="m 142.152,25.535 -3.5,2.465 4.235,0.617"
       style="fill:none;stroke:#000000;stroke-width:0.736;stroke-linecap:butt;stroke-linejoin:miter;stroke-miterlimit:10;stroke-dasharray:none;stroke-opacity:1"
       id="path280"
       inkscape:connector-curvature="0" /><path
       d="M 171.812,20.043 138.672,28"
       style="fill:none;stroke:#000000;stroke-width:0.736;stroke-linecap:butt;stroke-linejoin:miter;stroke-miterlimit:10;stroke-dasharray:none;stroke-opacity:1"
       id="path284"
       inkscape:connector-curvature="0" /><text
       id="text290"
       style="font-variant:normal;font-weight:normal;font-size:8.29559994px;font-family:'Times New Roman';-inkscape-font-specification:TimesNewRomanPSMT;writing-mode:lr-tb;fill:#000000;fill-opacity:1;fill-rule:nonzero;stroke:none"
       x="178.43567"
       y="20.043997"><tspan
         id="tspan286"
         sodipodi:role="line"
         y="20.043997"
         x="178.43567 183.04802 190.87077 193.63321">PWIA</tspan><tspan
         id="tspan288"
         sodipodi:role="line"
         y="39.931038"
         x="178.43567 181.1981 185.3459 187.64378">full</tspan></text>
<path
       d="M 50.461,33.969 H 99.84 V 84.418 H 50.461 Z"
       style="fill:none;stroke:#000000;stroke-width:0.29800001;stroke-linecap:butt;stroke-linejoin:miter;stroke-miterlimit:10;stroke-dasharray:none;stroke-opacity:1"
       id="path294"
       inkscape:connector-curvature="0" /><text
       id="text298"
       style="font-variant:normal;font-weight:normal;font-size:11.14039993px;font-family:'Times New Roman';-inkscape-font-specification:TimesNewRomanPSMT;writing-mode:lr-tb;fill:#000000;fill-opacity:1;fill-rule:nonzero;stroke:none"
       x="72.641266"
       y="45.485294"><tspan
         id="tspan296"
         sodipodi:role="line"
         y="45.485294"
         x="72.641266 80.684639 86.95668 92.526886 98.097084">A=10 </tspan></text>
<path
       d="M 52.75,41.809 H 68.664"
       style="fill:none;stroke:#ff00ff;stroke-width:0.597;stroke-linecap:butt;stroke-linejoin:miter;stroke-miterlimit:10;stroke-dasharray:0.59681, 1.7904, 2.984, 1.7904, 0.59681, 1.7904;stroke-dashoffset:0;stroke-opacity:1"
       id="path302"
       inkscape:connector-curvature="0" /><text
       id="text306"
       style="font-variant:normal;font-weight:normal;font-size:11.14039993px;font-family:'Times New Roman';-inkscape-font-specification:TimesNewRomanPSMT;writing-mode:lr-tb;fill:#000000;fill-opacity:1;fill-rule:nonzero;stroke:none"
       x="72.641266"
       y="57.163994"><tspan
         id="tspan304"
         sodipodi:role="line"
         y="57.163994"
         x="72.641266 80.684639 86.95668 92.526886 98.097084">A=14 </tspan></text>
<path
       d="M 52.75,53.406 H 68.664"
       style="fill:none;stroke:#000000;stroke-width:0.597;stroke-linecap:butt;stroke-linejoin:miter;stroke-miterlimit:10;stroke-dasharray:none;stroke-opacity:1"
       id="path310"
       inkscape:connector-curvature="0" /><text
       id="text314"
       style="font-variant:normal;font-weight:normal;font-size:11.14039993px;font-family:'Times New Roman';-inkscape-font-specification:TimesNewRomanPSMT;writing-mode:lr-tb;fill:#000000;fill-opacity:1;fill-rule:nonzero;stroke:none"
       x="72.641266"
       y="68.778297"><tspan
         id="tspan312"
         sodipodi:role="line"
         y="68.778297"
         x="72.641266 80.684639 86.95668 92.526886 98.097084">A=16 </tspan></text>
<path
       d="M 52.75,65.043 H 68.664"
       style="fill:none;stroke:#ff0000;stroke-width:0.597;stroke-linecap:butt;stroke-linejoin:miter;stroke-miterlimit:10;stroke-dasharray:2.984, 1.7904;stroke-dashoffset:0;stroke-opacity:1"
       id="path318"
       inkscape:connector-curvature="0" /><text
       id="text322"
       style="font-variant:normal;font-weight:normal;font-size:11.14039993px;font-family:'Times New Roman';-inkscape-font-specification:TimesNewRomanPSMT;writing-mode:lr-tb;fill:#000000;fill-opacity:1;fill-rule:nonzero;stroke:none"
       x="72.641266"
       y="80.457397"><tspan
         id="tspan320"
         sodipodi:role="line"
         y="80.457397"
         x="72.641266 80.684639 86.95668 92.526886 98.097084">A=22 </tspan></text>
<path
       d="M 52.75,76.68 H 68.664"
       style="fill:none;stroke:#0000ff;stroke-width:0.597;stroke-linecap:butt;stroke-linejoin:miter;stroke-miterlimit:10;stroke-dasharray:0.59681, 1.7904, 2.984, 1.7904;stroke-dashoffset:0;stroke-opacity:1"
       id="path326"
       inkscape:connector-curvature="0" /><text
       id="text330"
       style="font-variant:normal;font-weight:normal;font-size:8.29559994px;font-family:'Times New Roman';-inkscape-font-specification:TimesNewRomanPSMT;writing-mode:lr-tb;fill:#000000;fill-opacity:1;fill-rule:nonzero;stroke:none"
       x="56.43037"
       y="27.998096"><tspan
         id="tspan328"
         sodipodi:role="line"
         y="27.998096"
         x="56.43037 61.955238 66.103035 68.865471 74.614326 81.060005 84.734955 87.961945">Coremass</tspan></text>
</g></svg>