<?xml version="1.0" encoding="utf-8" standalone="no"?>
<!DOCTYPE svg PUBLIC "-//W3C//DTD SVG 1.1//EN"
  "http://www.w3.org/Graphics/SVG/1.1/DTD/svg11.dtd">
<!-- Created with matplotlib (https://matplotlib.org/) -->
<svg height="356.61825pt" version="1.1" viewBox="0 0 425.839303 356.61825" width="425.839303pt" xmlns="http://www.w3.org/2000/svg" xmlns:xlink="http://www.w3.org/1999/xlink">
 <metadata>
  <rdf:RDF xmlns:cc="http://creativecommons.org/ns#" xmlns:dc="http://purl.org/dc/elements/1.1/" xmlns:rdf="http://www.w3.org/1999/02/22-rdf-syntax-ns#">
   <cc:Work>
    <dc:type rdf:resource="http://purl.org/dc/dcmitype/StillImage"/>
    <dc:date>2021-01-15T13:05:49.648329</dc:date>
    <dc:format>image/svg+xml</dc:format>
    <dc:creator>
     <cc:Agent>
      <dc:title>Matplotlib v3.3.2, https://matplotlib.org/</dc:title>
     </cc:Agent>
    </dc:creator>
   </cc:Work>
  </rdf:RDF>
 </metadata>
 <defs>
  <style type="text/css">*{stroke-linecap:butt;stroke-linejoin:round;}</style>
 </defs>
 <g id="figure_1">
  <g id="patch_1">
   <path d="M 0 356.61825 
L 425.839303 356.61825 
L 425.839303 0 
L 0 0 
z
" style="fill:#ffffff;"/>
  </g>
  <g id="axes_1">
   <g id="patch_2">
    <path d="M 55.79375 299.627625 
L 412.91375 299.627625 
L 412.91375 33.515625 
L 55.79375 33.515625 
z
" style="fill:#ffffff;"/>
   </g>
   <g id="matplotlib.axis_1">
    <g id="xtick_1">
     <g id="line2d_1">
      <path clip-path="url(#p305b544965)" d="M 55.79375 299.627625 
L 55.79375 33.515625 
" style="fill:none;stroke:#b0b0b0;stroke-linecap:square;stroke-width:0.8;"/>
     </g>
     <g id="line2d_2">
      <defs>
       <path d="M 0 0 
L 0 -3.5 
" id="mf12ba80a30" style="stroke:#000000;stroke-width:0.8;"/>
      </defs>
      <g>
       <use style="stroke:#000000;stroke-width:0.8;" x="55.79375" xlink:href="#mf12ba80a30" y="299.627625"/>
      </g>
     </g>
     <g id="line2d_3">
      <defs>
       <path d="M 0 0 
L 0 3.5 
" id="m3a38723ce3" style="stroke:#000000;stroke-width:0.8;"/>
      </defs>
      <g>
       <use style="stroke:#000000;stroke-width:0.8;" x="55.79375" xlink:href="#m3a38723ce3" y="33.515625"/>
      </g>
     </g>
     <g id="text_1">
      <!-- 0.0 -->
      <g transform="translate(41.89375 322.44325)scale(0.2 -0.2)">
       <defs>
        <path d="M 4.15625 35.296875 
Q 4.15625 48 6.765625 55.734375 
Q 9.375 63.484375 14.515625 67.671875 
Q 19.671875 71.875 27.484375 71.875 
Q 33.25 71.875 37.59375 69.546875 
Q 41.9375 67.234375 44.765625 62.859375 
Q 47.609375 58.5 49.21875 52.21875 
Q 50.828125 45.953125 50.828125 35.296875 
Q 50.828125 22.703125 48.234375 14.96875 
Q 45.65625 7.234375 40.5 3 
Q 35.359375 -1.21875 27.484375 -1.21875 
Q 17.140625 -1.21875 11.234375 6.203125 
Q 4.15625 15.140625 4.15625 35.296875 
z
M 13.1875 35.296875 
Q 13.1875 17.671875 17.3125 11.828125 
Q 21.4375 6 27.484375 6 
Q 33.546875 6 37.671875 11.859375 
Q 41.796875 17.71875 41.796875 35.296875 
Q 41.796875 52.984375 37.671875 58.78125 
Q 33.546875 64.59375 27.390625 64.59375 
Q 21.34375 64.59375 17.71875 59.46875 
Q 13.1875 52.9375 13.1875 35.296875 
z
" id="ArialMT-48"/>
        <path d="M 9.078125 0 
L 9.078125 10.015625 
L 19.09375 10.015625 
L 19.09375 0 
z
" id="ArialMT-46"/>
       </defs>
       <use xlink:href="#ArialMT-48"/>
       <use x="55.615234" xlink:href="#ArialMT-46"/>
       <use x="83.398438" xlink:href="#ArialMT-48"/>
      </g>
     </g>
    </g>
    <g id="xtick_2">
     <g id="line2d_4">
      <path clip-path="url(#p305b544965)" d="M 124.470673 299.627625 
L 124.470673 33.515625 
" style="fill:none;stroke:#b0b0b0;stroke-linecap:square;stroke-width:0.8;"/>
     </g>
     <g id="line2d_5">
      <g>
       <use style="stroke:#000000;stroke-width:0.8;" x="124.470673" xlink:href="#mf12ba80a30" y="299.627625"/>
      </g>
     </g>
     <g id="line2d_6">
      <g>
       <use style="stroke:#000000;stroke-width:0.8;" x="124.470673" xlink:href="#m3a38723ce3" y="33.515625"/>
      </g>
     </g>
     <g id="text_2">
      <!-- 2.5 -->
      <g transform="translate(110.570673 322.44325)scale(0.2 -0.2)">
       <defs>
        <path d="M 50.34375 8.453125 
L 50.34375 0 
L 3.03125 0 
Q 2.9375 3.171875 4.046875 6.109375 
Q 5.859375 10.9375 9.828125 15.625 
Q 13.8125 20.3125 21.34375 26.46875 
Q 33.015625 36.03125 37.109375 41.625 
Q 41.21875 47.21875 41.21875 52.203125 
Q 41.21875 57.421875 37.46875 61 
Q 33.734375 64.59375 27.734375 64.59375 
Q 21.390625 64.59375 17.578125 60.78125 
Q 13.765625 56.984375 13.71875 50.25 
L 4.6875 51.171875 
Q 5.609375 61.28125 11.65625 66.578125 
Q 17.71875 71.875 27.9375 71.875 
Q 38.234375 71.875 44.234375 66.15625 
Q 50.25 60.453125 50.25 52 
Q 50.25 47.703125 48.484375 43.546875 
Q 46.734375 39.40625 42.65625 34.8125 
Q 38.578125 30.21875 29.109375 22.21875 
Q 21.1875 15.578125 18.9375 13.203125 
Q 16.703125 10.84375 15.234375 8.453125 
z
" id="ArialMT-50"/>
        <path d="M 4.15625 18.75 
L 13.375 19.53125 
Q 14.40625 12.796875 18.140625 9.390625 
Q 21.875 6 27.15625 6 
Q 33.5 6 37.890625 10.78125 
Q 42.28125 15.578125 42.28125 23.484375 
Q 42.28125 31 38.0625 35.34375 
Q 33.84375 39.703125 27 39.703125 
Q 22.75 39.703125 19.328125 37.765625 
Q 15.921875 35.84375 13.96875 32.765625 
L 5.71875 33.84375 
L 12.640625 70.609375 
L 48.25 70.609375 
L 48.25 62.203125 
L 19.671875 62.203125 
L 15.828125 42.96875 
Q 22.265625 47.46875 29.34375 47.46875 
Q 38.71875 47.46875 45.15625 40.96875 
Q 51.609375 34.46875 51.609375 24.265625 
Q 51.609375 14.546875 45.953125 7.46875 
Q 39.0625 -1.21875 27.15625 -1.21875 
Q 17.390625 -1.21875 11.203125 4.25 
Q 5.03125 9.71875 4.15625 18.75 
z
" id="ArialMT-53"/>
       </defs>
       <use xlink:href="#ArialMT-50"/>
       <use x="55.615234" xlink:href="#ArialMT-46"/>
       <use x="83.398438" xlink:href="#ArialMT-53"/>
      </g>
     </g>
    </g>
    <g id="xtick_3">
     <g id="line2d_7">
      <path clip-path="url(#p305b544965)" d="M 193.147596 299.627625 
L 193.147596 33.515625 
" style="fill:none;stroke:#b0b0b0;stroke-linecap:square;stroke-width:0.8;"/>
     </g>
     <g id="line2d_8">
      <g>
       <use style="stroke:#000000;stroke-width:0.8;" x="193.147596" xlink:href="#mf12ba80a30" y="299.627625"/>
      </g>
     </g>
     <g id="line2d_9">
      <g>
       <use style="stroke:#000000;stroke-width:0.8;" x="193.147596" xlink:href="#m3a38723ce3" y="33.515625"/>
      </g>
     </g>
     <g id="text_3">
      <!-- 5.0 -->
      <g transform="translate(179.247596 322.44325)scale(0.2 -0.2)">
       <use xlink:href="#ArialMT-53"/>
       <use x="55.615234" xlink:href="#ArialMT-46"/>
       <use x="83.398438" xlink:href="#ArialMT-48"/>
      </g>
     </g>
    </g>
    <g id="xtick_4">
     <g id="line2d_10">
      <path clip-path="url(#p305b544965)" d="M 261.824519 299.627625 
L 261.824519 33.515625 
" style="fill:none;stroke:#b0b0b0;stroke-linecap:square;stroke-width:0.8;"/>
     </g>
     <g id="line2d_11">
      <g>
       <use style="stroke:#000000;stroke-width:0.8;" x="261.824519" xlink:href="#mf12ba80a30" y="299.627625"/>
      </g>
     </g>
     <g id="line2d_12">
      <g>
       <use style="stroke:#000000;stroke-width:0.8;" x="261.824519" xlink:href="#m3a38723ce3" y="33.515625"/>
      </g>
     </g>
     <g id="text_4">
      <!-- 7.5 -->
      <g transform="translate(247.924519 322.44325)scale(0.2 -0.2)">
       <defs>
        <path d="M 4.734375 62.203125 
L 4.734375 70.65625 
L 51.078125 70.65625 
L 51.078125 63.8125 
Q 44.234375 56.546875 37.515625 44.484375 
Q 30.8125 32.421875 27.15625 19.671875 
Q 24.515625 10.6875 23.78125 0 
L 14.75 0 
Q 14.890625 8.453125 18.0625 20.40625 
Q 21.234375 32.375 27.171875 43.484375 
Q 33.109375 54.59375 39.796875 62.203125 
z
" id="ArialMT-55"/>
       </defs>
       <use xlink:href="#ArialMT-55"/>
       <use x="55.615234" xlink:href="#ArialMT-46"/>
       <use x="83.398438" xlink:href="#ArialMT-53"/>
      </g>
     </g>
    </g>
    <g id="xtick_5">
     <g id="line2d_13">
      <path clip-path="url(#p305b544965)" d="M 330.501442 299.627625 
L 330.501442 33.515625 
" style="fill:none;stroke:#b0b0b0;stroke-linecap:square;stroke-width:0.8;"/>
     </g>
     <g id="line2d_14">
      <g>
       <use style="stroke:#000000;stroke-width:0.8;" x="330.501442" xlink:href="#mf12ba80a30" y="299.627625"/>
      </g>
     </g>
     <g id="line2d_15">
      <g>
       <use style="stroke:#000000;stroke-width:0.8;" x="330.501442" xlink:href="#m3a38723ce3" y="33.515625"/>
      </g>
     </g>
     <g id="text_5">
      <!-- 10.0 -->
      <g transform="translate(311.040505 322.44325)scale(0.2 -0.2)">
       <defs>
        <path d="M 37.25 0 
L 28.46875 0 
L 28.46875 56 
Q 25.296875 52.984375 20.140625 49.953125 
Q 14.984375 46.921875 10.890625 45.40625 
L 10.890625 53.90625 
Q 18.265625 57.375 23.78125 62.296875 
Q 29.296875 67.234375 31.59375 71.875 
L 37.25 71.875 
z
" id="ArialMT-49"/>
       </defs>
       <use xlink:href="#ArialMT-49"/>
       <use x="55.615234" xlink:href="#ArialMT-48"/>
       <use x="111.230469" xlink:href="#ArialMT-46"/>
       <use x="139.013672" xlink:href="#ArialMT-48"/>
      </g>
     </g>
    </g>
    <g id="xtick_6">
     <g id="line2d_16">
      <path clip-path="url(#p305b544965)" d="M 399.178365 299.627625 
L 399.178365 33.515625 
" style="fill:none;stroke:#b0b0b0;stroke-linecap:square;stroke-width:0.8;"/>
     </g>
     <g id="line2d_17">
      <g>
       <use style="stroke:#000000;stroke-width:0.8;" x="399.178365" xlink:href="#mf12ba80a30" y="299.627625"/>
      </g>
     </g>
     <g id="line2d_18">
      <g>
       <use style="stroke:#000000;stroke-width:0.8;" x="399.178365" xlink:href="#m3a38723ce3" y="33.515625"/>
      </g>
     </g>
     <g id="text_6">
      <!-- 12.5 -->
      <g transform="translate(379.717428 322.44325)scale(0.2 -0.2)">
       <use xlink:href="#ArialMT-49"/>
       <use x="55.615234" xlink:href="#ArialMT-50"/>
       <use x="111.230469" xlink:href="#ArialMT-46"/>
       <use x="139.013672" xlink:href="#ArialMT-53"/>
      </g>
     </g>
    </g>
    <g id="text_7">
     <!-- $R$ (fm) -->
     <g transform="translate(206.85375 345.01825)scale(0.2 -0.2)">
      <defs>
       <path d="M 25.203125 64.796875 
L 20.21875 38.921875 
L 32.90625 38.921875 
Q 40.375 38.921875 44.984375 43.046875 
Q 49.609375 47.171875 49.609375 53.8125 
Q 49.609375 59.125 46.5 61.953125 
Q 43.40625 64.796875 37.59375 64.796875 
z
M 43.3125 35.015625 
Q 46.4375 34.28125 48.515625 31.390625 
Q 50.59375 28.515625 53.328125 19.921875 
L 59.515625 0 
L 49.125 0 
L 43.40625 18.703125 
Q 41.21875 25.921875 38.328125 28.359375 
Q 35.453125 30.8125 29.5 30.8125 
L 18.609375 30.8125 
L 12.59375 0 
L 2.6875 0 
L 16.890625 72.90625 
L 39.109375 72.90625 
Q 49.21875 72.90625 54.609375 68.328125 
Q 60.015625 63.765625 60.015625 55.171875 
Q 60.015625 47.5625 55.421875 41.984375 
Q 50.828125 36.421875 43.3125 35.015625 
z
" id="DejaVuSans-Oblique-82"/>
       <path id="ArialMT-32"/>
       <path d="M 23.390625 -21.046875 
Q 16.109375 -11.859375 11.078125 0.4375 
Q 6.0625 12.75 6.0625 25.921875 
Q 6.0625 37.546875 9.8125 48.1875 
Q 14.203125 60.546875 23.390625 72.796875 
L 29.6875 72.796875 
Q 23.78125 62.640625 21.875 58.296875 
Q 18.890625 51.5625 17.1875 44.234375 
Q 15.09375 35.109375 15.09375 25.875 
Q 15.09375 2.390625 29.6875 -21.046875 
z
" id="ArialMT-40"/>
       <path d="M 8.6875 0 
L 8.6875 45.015625 
L 0.921875 45.015625 
L 0.921875 51.859375 
L 8.6875 51.859375 
L 8.6875 57.375 
Q 8.6875 62.59375 9.625 65.140625 
Q 10.890625 68.5625 14.078125 70.671875 
Q 17.28125 72.796875 23.046875 72.796875 
Q 26.765625 72.796875 31.25 71.921875 
L 29.9375 64.265625 
Q 27.203125 64.75 24.75 64.75 
Q 20.75 64.75 19.09375 63.03125 
Q 17.4375 61.328125 17.4375 56.640625 
L 17.4375 51.859375 
L 27.546875 51.859375 
L 27.546875 45.015625 
L 17.4375 45.015625 
L 17.4375 0 
z
" id="ArialMT-102"/>
       <path d="M 6.59375 0 
L 6.59375 51.859375 
L 14.453125 51.859375 
L 14.453125 44.578125 
Q 16.890625 48.390625 20.9375 50.703125 
Q 25 53.03125 30.171875 53.03125 
Q 35.9375 53.03125 39.625 50.640625 
Q 43.3125 48.25 44.828125 43.953125 
Q 50.984375 53.03125 60.84375 53.03125 
Q 68.5625 53.03125 72.703125 48.75 
Q 76.859375 44.484375 76.859375 35.59375 
L 76.859375 0 
L 68.109375 0 
L 68.109375 32.671875 
Q 68.109375 37.9375 67.25 40.25 
Q 66.40625 42.578125 64.15625 43.984375 
Q 61.921875 45.40625 58.890625 45.40625 
Q 53.421875 45.40625 49.796875 41.765625 
Q 46.1875 38.140625 46.1875 30.125 
L 46.1875 0 
L 37.40625 0 
L 37.40625 33.6875 
Q 37.40625 39.546875 35.25 42.46875 
Q 33.109375 45.40625 28.21875 45.40625 
Q 24.515625 45.40625 21.359375 43.453125 
Q 18.21875 41.5 16.796875 37.734375 
Q 15.375 33.984375 15.375 26.90625 
L 15.375 0 
z
" id="ArialMT-109"/>
       <path d="M 12.359375 -21.046875 
L 6.0625 -21.046875 
Q 20.65625 2.390625 20.65625 25.875 
Q 20.65625 35.0625 18.5625 44.09375 
Q 16.890625 51.421875 13.921875 58.15625 
Q 12.015625 62.546875 6.0625 72.796875 
L 12.359375 72.796875 
Q 21.53125 60.546875 25.921875 48.1875 
Q 29.6875 37.546875 29.6875 25.921875 
Q 29.6875 12.75 24.625 0.4375 
Q 19.578125 -11.859375 12.359375 -21.046875 
z
" id="ArialMT-41"/>
      </defs>
      <use transform="translate(0 0.09375)" xlink:href="#DejaVuSans-Oblique-82"/>
      <use transform="translate(69.482422 0.09375)" xlink:href="#ArialMT-32"/>
      <use transform="translate(97.265625 0.09375)" xlink:href="#ArialMT-40"/>
      <use transform="translate(130.566406 0.09375)" xlink:href="#ArialMT-102"/>
      <use transform="translate(158.349609 0.09375)" xlink:href="#ArialMT-109"/>
      <use transform="translate(241.650391 0.09375)" xlink:href="#ArialMT-41"/>
     </g>
    </g>
   </g>
   <g id="matplotlib.axis_2">
    <g id="ytick_1">
     <g id="line2d_19">
      <path clip-path="url(#p305b544965)" d="M 55.79375 299.627625 
L 412.91375 299.627625 
" style="fill:none;stroke:#b0b0b0;stroke-linecap:square;stroke-width:0.8;"/>
     </g>
     <g id="line2d_20">
      <defs>
       <path d="M 0 0 
L 3.5 0 
" id="mf55d5c69ea" style="stroke:#000000;stroke-width:0.8;"/>
      </defs>
      <g>
       <use style="stroke:#000000;stroke-width:0.8;" x="55.79375" xlink:href="#mf55d5c69ea" y="299.627625"/>
      </g>
     </g>
     <g id="line2d_21">
      <defs>
       <path d="M 0 0 
L -3.5 0 
" id="md93bfb19d0" style="stroke:#000000;stroke-width:0.8;"/>
      </defs>
      <g>
       <use style="stroke:#000000;stroke-width:0.8;" x="412.91375" xlink:href="#md93bfb19d0" y="299.627625"/>
      </g>
     </g>
     <g id="text_8">
      <!-- −1 -->
      <g transform="translate(29.490625 306.785437)scale(0.2 -0.2)">
       <defs>
        <path d="M 52.828125 31.203125 
L 5.5625 31.203125 
L 5.5625 39.40625 
L 52.828125 39.40625 
z
" id="ArialMT-8722"/>
       </defs>
       <use xlink:href="#ArialMT-8722"/>
       <use x="58.398438" xlink:href="#ArialMT-49"/>
      </g>
     </g>
    </g>
    <g id="ytick_2">
     <g id="line2d_22">
      <path clip-path="url(#p305b544965)" d="M 55.79375 255.275625 
L 412.91375 255.275625 
" style="fill:none;stroke:#b0b0b0;stroke-linecap:square;stroke-width:0.8;"/>
     </g>
     <g id="line2d_23">
      <g>
       <use style="stroke:#000000;stroke-width:0.8;" x="55.79375" xlink:href="#mf55d5c69ea" y="255.275625"/>
      </g>
     </g>
     <g id="line2d_24">
      <g>
       <use style="stroke:#000000;stroke-width:0.8;" x="412.91375" xlink:href="#md93bfb19d0" y="255.275625"/>
      </g>
     </g>
     <g id="text_9">
      <!-- 0 -->
      <g transform="translate(41.171875 262.433437)scale(0.2 -0.2)">
       <use xlink:href="#ArialMT-48"/>
      </g>
     </g>
    </g>
    <g id="ytick_3">
     <g id="line2d_25">
      <path clip-path="url(#p305b544965)" d="M 55.79375 210.923625 
L 412.91375 210.923625 
" style="fill:none;stroke:#b0b0b0;stroke-linecap:square;stroke-width:0.8;"/>
     </g>
     <g id="line2d_26">
      <g>
       <use style="stroke:#000000;stroke-width:0.8;" x="55.79375" xlink:href="#mf55d5c69ea" y="210.923625"/>
      </g>
     </g>
     <g id="line2d_27">
      <g>
       <use style="stroke:#000000;stroke-width:0.8;" x="412.91375" xlink:href="#md93bfb19d0" y="210.923625"/>
      </g>
     </g>
     <g id="text_10">
      <!-- 1 -->
      <g transform="translate(41.171875 218.081437)scale(0.2 -0.2)">
       <use xlink:href="#ArialMT-49"/>
      </g>
     </g>
    </g>
    <g id="ytick_4">
     <g id="line2d_28">
      <path clip-path="url(#p305b544965)" d="M 55.79375 166.571625 
L 412.91375 166.571625 
" style="fill:none;stroke:#b0b0b0;stroke-linecap:square;stroke-width:0.8;"/>
     </g>
     <g id="line2d_29">
      <g>
       <use style="stroke:#000000;stroke-width:0.8;" x="55.79375" xlink:href="#mf55d5c69ea" y="166.571625"/>
      </g>
     </g>
     <g id="line2d_30">
      <g>
       <use style="stroke:#000000;stroke-width:0.8;" x="412.91375" xlink:href="#md93bfb19d0" y="166.571625"/>
      </g>
     </g>
     <g id="text_11">
      <!-- 2 -->
      <g transform="translate(41.171875 173.729437)scale(0.2 -0.2)">
       <use xlink:href="#ArialMT-50"/>
      </g>
     </g>
    </g>
    <g id="ytick_5">
     <g id="line2d_31">
      <path clip-path="url(#p305b544965)" d="M 55.79375 122.219625 
L 412.91375 122.219625 
" style="fill:none;stroke:#b0b0b0;stroke-linecap:square;stroke-width:0.8;"/>
     </g>
     <g id="line2d_32">
      <g>
       <use style="stroke:#000000;stroke-width:0.8;" x="55.79375" xlink:href="#mf55d5c69ea" y="122.219625"/>
      </g>
     </g>
     <g id="line2d_33">
      <g>
       <use style="stroke:#000000;stroke-width:0.8;" x="412.91375" xlink:href="#md93bfb19d0" y="122.219625"/>
      </g>
     </g>
     <g id="text_12">
      <!-- 3 -->
      <g transform="translate(41.171875 129.377437)scale(0.2 -0.2)">
       <defs>
        <path d="M 4.203125 18.890625 
L 12.984375 20.0625 
Q 14.5 12.59375 18.140625 9.296875 
Q 21.78125 6 27 6 
Q 33.203125 6 37.46875 10.296875 
Q 41.75 14.59375 41.75 20.953125 
Q 41.75 27 37.796875 30.921875 
Q 33.84375 34.859375 27.734375 34.859375 
Q 25.25 34.859375 21.53125 33.890625 
L 22.515625 41.609375 
Q 23.390625 41.5 23.921875 41.5 
Q 29.546875 41.5 34.03125 44.421875 
Q 38.53125 47.359375 38.53125 53.46875 
Q 38.53125 58.296875 35.25 61.46875 
Q 31.984375 64.65625 26.8125 64.65625 
Q 21.6875 64.65625 18.265625 61.421875 
Q 14.84375 58.203125 13.875 51.765625 
L 5.078125 53.328125 
Q 6.6875 62.15625 12.390625 67.015625 
Q 18.109375 71.875 26.609375 71.875 
Q 32.46875 71.875 37.390625 69.359375 
Q 42.328125 66.84375 44.9375 62.5 
Q 47.5625 58.15625 47.5625 53.265625 
Q 47.5625 48.640625 45.0625 44.828125 
Q 42.578125 41.015625 37.703125 38.765625 
Q 44.046875 37.3125 47.5625 32.6875 
Q 51.078125 28.078125 51.078125 21.140625 
Q 51.078125 11.765625 44.234375 5.25 
Q 37.40625 -1.265625 26.953125 -1.265625 
Q 17.53125 -1.265625 11.296875 4.34375 
Q 5.078125 9.96875 4.203125 18.890625 
z
" id="ArialMT-51"/>
       </defs>
       <use xlink:href="#ArialMT-51"/>
      </g>
     </g>
    </g>
    <g id="ytick_6">
     <g id="line2d_34">
      <path clip-path="url(#p305b544965)" d="M 55.79375 77.867625 
L 412.91375 77.867625 
" style="fill:none;stroke:#b0b0b0;stroke-linecap:square;stroke-width:0.8;"/>
     </g>
     <g id="line2d_35">
      <g>
       <use style="stroke:#000000;stroke-width:0.8;" x="55.79375" xlink:href="#mf55d5c69ea" y="77.867625"/>
      </g>
     </g>
     <g id="line2d_36">
      <g>
       <use style="stroke:#000000;stroke-width:0.8;" x="412.91375" xlink:href="#md93bfb19d0" y="77.867625"/>
      </g>
     </g>
     <g id="text_13">
      <!-- 4 -->
      <g transform="translate(41.171875 85.025437)scale(0.2 -0.2)">
       <defs>
        <path d="M 32.328125 0 
L 32.328125 17.140625 
L 1.265625 17.140625 
L 1.265625 25.203125 
L 33.9375 71.578125 
L 41.109375 71.578125 
L 41.109375 25.203125 
L 50.78125 25.203125 
L 50.78125 17.140625 
L 41.109375 17.140625 
L 41.109375 0 
z
M 32.328125 25.203125 
L 32.328125 57.46875 
L 9.90625 25.203125 
z
" id="ArialMT-52"/>
       </defs>
       <use xlink:href="#ArialMT-52"/>
      </g>
     </g>
    </g>
    <g id="ytick_7">
     <g id="line2d_37">
      <path clip-path="url(#p305b544965)" d="M 55.79375 33.515625 
L 412.91375 33.515625 
" style="fill:none;stroke:#b0b0b0;stroke-linecap:square;stroke-width:0.8;"/>
     </g>
     <g id="line2d_38">
      <g>
       <use style="stroke:#000000;stroke-width:0.8;" x="55.79375" xlink:href="#mf55d5c69ea" y="33.515625"/>
      </g>
     </g>
     <g id="line2d_39">
      <g>
       <use style="stroke:#000000;stroke-width:0.8;" x="412.91375" xlink:href="#md93bfb19d0" y="33.515625"/>
      </g>
     </g>
     <g id="text_14">
      <!-- 5 -->
      <g transform="translate(41.171875 40.673437)scale(0.2 -0.2)">
       <use xlink:href="#ArialMT-53"/>
      </g>
     </g>
    </g>
    <g id="text_15">
     <!-- TMD -->
     <g transform="translate(21.515625 188.231)rotate(-90)scale(0.2 -0.2)">
      <defs>
       <path d="M 25.921875 0 
L 25.921875 63.140625 
L 2.34375 63.140625 
L 2.34375 71.578125 
L 59.078125 71.578125 
L 59.078125 63.140625 
L 35.40625 63.140625 
L 35.40625 0 
z
" id="ArialMT-84"/>
       <path d="M 7.421875 0 
L 7.421875 71.578125 
L 21.6875 71.578125 
L 38.625 20.90625 
Q 40.96875 13.8125 42.046875 10.296875 
Q 43.265625 14.203125 45.84375 21.78125 
L 62.984375 71.578125 
L 75.734375 71.578125 
L 75.734375 0 
L 66.609375 0 
L 66.609375 59.90625 
L 45.796875 0 
L 37.25 0 
L 16.546875 60.9375 
L 16.546875 0 
z
" id="ArialMT-77"/>
       <path d="M 7.71875 0 
L 7.71875 71.578125 
L 32.375 71.578125 
Q 40.71875 71.578125 45.125 70.5625 
Q 51.265625 69.140625 55.609375 65.4375 
Q 61.28125 60.640625 64.078125 53.1875 
Q 66.890625 45.75 66.890625 36.1875 
Q 66.890625 28.03125 64.984375 21.734375 
Q 63.09375 15.4375 60.109375 11.296875 
Q 57.125 7.171875 53.578125 4.796875 
Q 50.046875 2.4375 45.046875 1.21875 
Q 40.046875 0 33.546875 0 
z
M 17.1875 8.453125 
L 32.46875 8.453125 
Q 39.546875 8.453125 43.578125 9.765625 
Q 47.609375 11.078125 50 13.484375 
Q 53.375 16.84375 55.25 22.53125 
Q 57.125 28.21875 57.125 36.328125 
Q 57.125 47.5625 53.4375 53.59375 
Q 49.75 59.625 44.484375 61.671875 
Q 40.671875 63.140625 32.234375 63.140625 
L 17.1875 63.140625 
z
" id="ArialMT-68"/>
      </defs>
      <use xlink:href="#ArialMT-84"/>
      <use x="61.083984" xlink:href="#ArialMT-77"/>
      <use x="144.384766" xlink:href="#ArialMT-68"/>
     </g>
    </g>
   </g>
   <g id="line2d_40">
    <path clip-path="url(#p305b544965)" d="M 55.79375 255.275261 
L 69.529135 255.523318 
L 77.770365 255.236596 
L 80.517442 255.339851 
L 83.264519 255.62012 
L 91.50575 257.093081 
L 94.252827 257.393788 
L 96.999904 257.385006 
L 99.746981 257.154198 
L 102.494058 256.699191 
L 105.241135 256.02096 
L 107.988212 255.592795 
L 110.735288 255.536064 
L 113.482365 255.735999 
L 116.229442 257.097472 
L 118.976519 259.203083 
L 121.723596 262.103615 
L 124.470673 265.952925 
L 127.21775 270.663995 
L 129.964827 275.636741 
L 135.458981 283.819242 
L 138.206058 286.684824 
L 140.953135 286.092282 
L 143.700212 283.516317 
L 146.447288 278.653121 
L 149.194365 269.703331 
L 151.941442 257.701635 
L 154.688519 242.647724 
L 157.435596 225.880893 
L 160.182673 206.900899 
L 165.676827 164.664489 
L 171.170981 127.834588 
L 173.918058 110.133705 
L 176.665135 97.0543 
L 179.412212 86.276764 
L 182.159288 77.809967 
L 184.906365 72.270403 
L 187.653442 70.208035 
L 190.400519 71.09951 
L 193.147596 74.949263 
L 195.894673 78.422025 
L 198.64175 82.551196 
L 201.388827 87.855695 
L 204.135904 94.304476 
L 206.882981 101.70239 
L 209.630058 110.169187 
L 215.124212 129.515529 
L 223.365442 155.882793 
L 226.112519 164.065737 
L 228.859596 171.3439 
L 231.606673 178.10758 
L 234.35375 184.365647 
L 237.100827 190.206806 
L 239.847904 195.622185 
L 242.594981 200.589609 
L 245.342058 205.100207 
L 248.089135 209.202767 
L 250.836212 212.874669 
L 253.583288 216.116357 
L 256.330365 218.925613 
L 259.077442 221.455451 
L 261.824519 223.626925 
L 264.571596 225.432938 
L 272.812827 229.761693 
L 275.559904 230.919724 
L 281.054058 233.050838 
L 286.548212 235.106109 
L 297.536519 238.878691 
L 319.513135 246.030007 
L 327.754365 248.449409 
L 333.248519 249.853149 
L 338.742673 251.007455 
L 341.48975 251.437669 
L 344.236827 251.707861 
L 346.983904 251.86367 
L 349.730981 251.905095 
L 352.478058 252.364404 
L 355.225135 252.970297 
L 360.719288 254.362063 
L 366.213442 255.073358 
L 368.960519 255.293504 
L 374.454673 255.401061 
L 379.948827 255.27553 
L 426.839303 255.275625 
L 426.839303 255.275625 
" style="fill:none;stroke:#000000;stroke-dasharray:;stroke-dashoffset:0;stroke-width:3;"/>
   </g>
   <g id="line2d_41">
    <path clip-path="url(#p305b544965)" d="M 55.79375 255.262145 
L 61.287904 255.600334 
L 64.034981 255.912331 
L 66.782058 255.907099 
L 69.529135 255.699796 
L 72.276212 255.153292 
L 75.023288 254.102996 
L 77.770365 252.654127 
L 80.517442 251.052957 
L 83.264519 250.530717 
L 86.011596 250.350118 
L 88.758673 250.511226 
L 91.50575 251.109228 
L 94.252827 252.518792 
L 96.999904 254.478958 
L 99.746981 256.989726 
L 102.494058 260.051097 
L 105.241135 260.563624 
L 107.988212 257.800057 
L 110.735288 253.550257 
L 113.482365 247.814031 
L 116.229442 240.592026 
L 118.976519 234.448174 
L 121.723596 233.639398 
L 124.470673 234.05706 
L 127.21775 235.699867 
L 129.964827 238.567819 
L 132.711904 242.662209 
L 135.458981 245.763274 
L 140.953135 248.556111 
L 146.447288 251.06008 
L 149.194365 252.203634 
L 151.941442 250.676607 
L 154.688519 239.141538 
L 157.435596 224.314186 
L 160.182673 206.194744 
L 162.92975 184.784508 
L 165.676827 160.080887 
L 168.423904 132.087768 
L 171.170981 110.829056 
L 173.918058 99.283432 
L 176.665135 89.686901 
L 179.412212 82.045938 
L 182.159288 76.367019 
L 184.906365 72.643669 
L 187.653442 70.875887 
L 190.400519 71.141378 
L 193.147596 73.48547 
L 195.894673 77.836933 
L 198.64175 84.189293 
L 201.388827 92.536073 
L 204.135904 102.890225 
L 206.882981 115.245273 
L 209.630058 128.869498 
L 228.859596 183.100906 
L 231.606673 189.900067 
L 234.35375 195.586757 
L 237.100827 200.84348 
L 239.847904 205.67218 
L 242.594981 210.073504 
L 245.342058 214.046804 
L 248.089135 217.592081 
L 256.330365 226.904342 
L 259.077442 229.606524 
L 261.824519 232.021197 
L 264.571596 234.148364 
L 267.318673 235.986727 
L 270.06575 237.538231 
L 272.812827 238.876695 
L 275.559904 240.470289 
L 278.306981 241.913654 
L 281.054058 243.206142 
L 283.801135 244.348401 
L 286.548212 245.340431 
L 289.295288 246.181584 
L 303.030673 249.60875 
L 308.524827 250.607903 
L 316.766058 251.692078 
L 322.260212 252.367008 
L 327.754365 252.892422 
L 338.742673 253.623429 
L 346.983904 254.059741 
L 360.719288 254.520789 
L 377.20175 254.854194 
L 399.178365 255.084504 
L 426.839303 255.204795 
L 426.839303 255.204795 
" style="fill:none;stroke:#ff0000;stroke-dasharray:18,3;stroke-dashoffset:0;stroke-width:3;"/>
   </g>
   <g id="line2d_42">
    <path clip-path="url(#p305b544965)" d="M 55.79375 255.300223 
L 58.540827 255.035508 
L 61.287904 254.517295 
L 64.034981 253.746146 
L 66.782058 253.230643 
L 69.529135 252.82877 
L 72.276212 252.776656 
L 75.023288 253.357711 
L 77.770365 254.390758 
L 80.517442 255.722782 
L 88.758673 258.297282 
L 91.50575 258.947527 
L 94.252827 258.642252 
L 96.999904 257.90765 
L 99.746981 256.743765 
L 102.494058 255.15061 
L 105.241135 254.805494 
L 107.988212 256.101903 
L 110.735288 258.071353 
L 113.482365 260.713624 
L 116.229442 264.029379 
L 118.976519 266.768115 
L 121.723596 266.857263 
L 124.470673 266.297984 
L 127.21775 265.090723 
L 129.964827 263.235035 
L 132.711904 260.731808 
L 138.206058 255.37838 
L 140.953135 252.327858 
L 143.700212 248.912 
L 146.447288 245.131436 
L 149.194365 240.984967 
L 151.941442 237.232788 
L 154.688519 236.017987 
L 157.435596 235.377987 
L 160.182673 235.313677 
L 162.92975 235.824612 
L 165.676827 236.910792 
L 168.423904 238.572218 
L 171.170981 239.991482 
L 173.918058 240.927753 
L 176.665135 242.011716 
L 179.412212 243.242927 
L 182.159288 244.622275 
L 184.906365 246.149314 
L 187.653442 247.823602 
L 190.400519 249.261937 
L 195.894673 251.100062 
L 201.388827 252.627323 
L 206.882981 253.843765 
L 212.377135 254.744732 
L 217.871288 255.328049 
L 223.365442 255.596556 
L 228.859596 255.550261 
L 237.100827 255.583548 
L 245.342058 255.482984 
L 256.330365 255.255392 
L 300.283596 255.275625 
L 426.839303 255.275625 
L 426.839303 255.275625 
" style="fill:none;stroke:#008000;stroke-dasharray:3,3;stroke-dashoffset:0;stroke-width:3;"/>
   </g>
   <g id="line2d_43">
    <path clip-path="url(#p305b544965)" d="M 55.79375 255.286744 
L 58.540827 255.103862 
L 61.287904 254.677286 
L 64.034981 254.007426 
L 69.529135 252.970787 
L 72.276212 252.744878 
L 75.023288 253.09238 
L 77.770365 253.824004 
L 80.517442 254.841812 
L 86.011596 256.562405 
L 88.758673 257.557861 
L 91.50575 258.402277 
L 94.252827 258.147246 
L 96.999904 257.453437 
L 99.746981 256.320696 
L 102.494058 254.749123 
L 105.241135 254.296338 
L 107.988212 255.32776 
L 110.735288 256.943919 
L 113.482365 259.144876 
L 116.229442 261.930654 
L 118.976519 264.27385 
L 121.723596 264.469551 
L 124.470673 264.163775 
L 127.21775 263.356413 
L 129.964827 262.047683 
L 132.711904 260.237476 
L 135.458981 258.058795 
L 138.206058 255.552138 
L 140.953135 252.621763 
L 143.700212 249.26779 
L 146.447288 245.490141 
L 149.194365 241.288601 
L 151.941442 237.476724 
L 154.688519 236.346635 
L 157.435596 235.800063 
L 160.182673 235.837008 
L 162.92975 236.457471 
L 165.676827 237.659277 
L 168.423904 239.445687 
L 171.170981 240.964787 
L 173.918058 241.965568 
L 176.665135 243.105436 
L 179.412212 244.384393 
L 182.159288 245.801242 
L 184.906365 247.356635 
L 187.653442 249.050465 
L 190.400519 250.469813 
L 195.894673 252.131587 
L 201.388827 253.378054 
L 206.882981 254.209245 
L 217.871288 255.301876 
L 223.365442 255.53661 
L 242.594981 255.630169 
L 316.766058 255.296289 
L 426.839303 255.275384 
L 426.839303 255.275384 
" style="fill:none;stroke:#0000ff;stroke-dasharray:18,3,3,3;stroke-dashoffset:0;stroke-width:3;"/>
   </g>
   <g id="patch_3">
    <path d="M 55.79375 299.627625 
L 55.79375 33.515625 
" style="fill:none;stroke:#000000;stroke-linecap:square;stroke-linejoin:miter;stroke-width:0.8;"/>
   </g>
   <g id="patch_4">
    <path d="M 412.91375 299.627625 
L 412.91375 33.515625 
" style="fill:none;stroke:#000000;stroke-linecap:square;stroke-linejoin:miter;stroke-width:0.8;"/>
   </g>
   <g id="patch_5">
    <path d="M 55.79375 299.627625 
L 412.91375 299.627625 
" style="fill:none;stroke:#000000;stroke-linecap:square;stroke-linejoin:miter;stroke-width:0.8;"/>
   </g>
   <g id="patch_6">
    <path d="M 55.79375 33.515625 
L 412.91375 33.515625 
" style="fill:none;stroke:#000000;stroke-linecap:square;stroke-linejoin:miter;stroke-width:0.8;"/>
   </g>
   <g id="text_16">
    <!-- $\alpha$-$~{12}$C TMD -->
    <g transform="translate(176.75375 21.515625)scale(0.2 -0.2)">
     <defs>
      <path d="M 40.921875 25.4375 
L 40.96875 36.71875 
Q 41.015625 48.25 32.328125 48.296875 
Q 25.828125 48.34375 21.78125 42.921875 
Q 16.703125 36.234375 14.984375 27.296875 
Q 12.890625 16.546875 15.53125 11.421875 
Q 18.265625 6.203125 24.171875 6.203125 
Q 30.71875 6.203125 36.234375 16.609375 
z
M 33.84375 55.90625 
Q 49.078125 56.15625 48.875 40.375 
Q 48.875 40.375 56.5 54.6875 
L 64.5 54.6875 
L 48.734375 25.046875 
L 48.578125 14.359375 
Q 48.578125 11.96875 49.90625 9.96875 
Q 51.421875 7.625 52.984375 7.625 
L 57.328125 7.625 
L 55.859375 0 
L 50.4375 0 
Q 45.84375 0 42.53125 4.109375 
Q 40.96875 6.15625 40.921875 10.453125 
Q 37.75 5.21875 32.28125 0.78125 
Q 29.6875 -1.265625 22.703125 -1.21875 
Q 11.28125 -1.125 7.125 6.203125 
Q 2.875 13.8125 5.515625 27.296875 
Q 8.34375 41.796875 15.765625 48.390625 
Q 24.125 55.765625 33.84375 55.90625 
z
" id="DejaVuSans-Oblique-945"/>
      <path d="M 3.171875 21.484375 
L 3.171875 30.328125 
L 30.171875 30.328125 
L 30.171875 21.484375 
z
" id="ArialMT-45"/>
      <path d="M 12.40625 8.296875 
L 28.515625 8.296875 
L 28.515625 63.921875 
L 10.984375 60.40625 
L 10.984375 69.390625 
L 28.421875 72.90625 
L 38.28125 72.90625 
L 38.28125 8.296875 
L 54.390625 8.296875 
L 54.390625 0 
L 12.40625 0 
z
" id="DejaVuSans-49"/>
      <path d="M 19.1875 8.296875 
L 53.609375 8.296875 
L 53.609375 0 
L 7.328125 0 
L 7.328125 8.296875 
Q 12.9375 14.109375 22.625 23.890625 
Q 32.328125 33.6875 34.8125 36.53125 
Q 39.546875 41.84375 41.421875 45.53125 
Q 43.3125 49.21875 43.3125 52.78125 
Q 43.3125 58.59375 39.234375 62.25 
Q 35.15625 65.921875 28.609375 65.921875 
Q 23.96875 65.921875 18.8125 64.3125 
Q 13.671875 62.703125 7.8125 59.421875 
L 7.8125 69.390625 
Q 13.765625 71.78125 18.9375 73 
Q 24.125 74.21875 28.421875 74.21875 
Q 39.75 74.21875 46.484375 68.546875 
Q 53.21875 62.890625 53.21875 53.421875 
Q 53.21875 48.921875 51.53125 44.890625 
Q 49.859375 40.875 45.40625 35.40625 
Q 44.1875 33.984375 37.640625 27.21875 
Q 31.109375 20.453125 19.1875 8.296875 
z
" id="DejaVuSans-50"/>
      <path d="M 58.796875 25.09375 
L 68.265625 22.703125 
Q 65.28125 11.03125 57.546875 4.90625 
Q 49.8125 -1.21875 38.625 -1.21875 
Q 27.046875 -1.21875 19.796875 3.484375 
Q 12.546875 8.203125 8.765625 17.140625 
Q 4.984375 26.078125 4.984375 36.328125 
Q 4.984375 47.515625 9.25 55.828125 
Q 13.53125 64.15625 21.40625 68.46875 
Q 29.296875 72.796875 38.765625 72.796875 
Q 49.515625 72.796875 56.828125 67.328125 
Q 64.15625 61.859375 67.046875 51.953125 
L 57.71875 49.75 
Q 55.21875 57.5625 50.484375 61.125 
Q 45.75 64.703125 38.578125 64.703125 
Q 30.328125 64.703125 24.78125 60.734375 
Q 19.234375 56.78125 16.984375 50.109375 
Q 14.75 43.453125 14.75 36.375 
Q 14.75 27.25 17.40625 20.4375 
Q 20.0625 13.625 25.671875 10.25 
Q 31.296875 6.890625 37.84375 6.890625 
Q 45.796875 6.890625 51.3125 11.46875 
Q 56.84375 16.0625 58.796875 25.09375 
z
" id="ArialMT-67"/>
     </defs>
     <use transform="translate(0 0.78125)" xlink:href="#DejaVuSans-Oblique-945"/>
     <use transform="translate(65.917969 0.78125)" xlink:href="#ArialMT-45"/>
     <use transform="translate(131.689128 0.78125)" xlink:href="#DejaVuSans-49"/>
     <use transform="translate(195.312175 0.78125)" xlink:href="#DejaVuSans-50"/>
     <use transform="translate(258.935222 0.78125)" xlink:href="#ArialMT-67"/>
     <use transform="translate(331.152019 0.78125)" xlink:href="#ArialMT-32"/>
     <use transform="translate(358.935222 0.78125)" xlink:href="#ArialMT-84"/>
     <use transform="translate(420.019207 0.78125)" xlink:href="#ArialMT-77"/>
     <use transform="translate(503.319988 0.78125)" xlink:href="#ArialMT-68"/>
    </g>
   </g>
   <g id="legend_1">
    <g id="line2d_44">
     <path d="M 285.28375 53.768125 
L 317.28375 53.768125 
" style="fill:none;stroke:#000000;stroke-dasharray:;stroke-dashoffset:0;stroke-width:3;"/>
    </g>
    <g id="line2d_45"/>
    <g id="text_17">
     <!-- 5BM -->
     <g transform="translate(330.08375 59.368125)scale(0.16 -0.16)">
      <defs>
       <path d="M 7.328125 0 
L 7.328125 71.578125 
L 34.1875 71.578125 
Q 42.390625 71.578125 47.34375 69.40625 
Q 52.296875 67.234375 55.09375 62.71875 
Q 57.90625 58.203125 57.90625 53.265625 
Q 57.90625 48.6875 55.421875 44.625 
Q 52.9375 40.578125 47.90625 38.09375 
Q 54.390625 36.1875 57.875 31.59375 
Q 61.375 27 61.375 20.75 
Q 61.375 15.71875 59.25 11.390625 
Q 57.125 7.078125 54 4.734375 
Q 50.875 2.390625 46.15625 1.1875 
Q 41.453125 0 34.625 0 
z
M 16.796875 41.5 
L 32.28125 41.5 
Q 38.578125 41.5 41.3125 42.328125 
Q 44.921875 43.40625 46.75 45.890625 
Q 48.578125 48.390625 48.578125 52.15625 
Q 48.578125 55.71875 46.875 58.421875 
Q 45.171875 61.140625 41.984375 62.140625 
Q 38.8125 63.140625 31.109375 63.140625 
L 16.796875 63.140625 
z
M 16.796875 8.453125 
L 34.625 8.453125 
Q 39.203125 8.453125 41.0625 8.796875 
Q 44.34375 9.375 46.53125 10.734375 
Q 48.734375 12.109375 50.140625 14.71875 
Q 51.5625 17.328125 51.5625 20.75 
Q 51.5625 24.75 49.515625 27.703125 
Q 47.46875 30.671875 43.828125 31.859375 
Q 40.1875 33.0625 33.34375 33.0625 
L 16.796875 33.0625 
z
" id="ArialMT-66"/>
      </defs>
      <use xlink:href="#ArialMT-53"/>
      <use x="55.615234" xlink:href="#ArialMT-66"/>
      <use x="122.314453" xlink:href="#ArialMT-77"/>
     </g>
    </g>
    <g id="line2d_46">
     <path d="M 285.28375 76.400625 
L 317.28375 76.400625 
" style="fill:none;stroke:#ff0000;stroke-dasharray:18,3;stroke-dashoffset:0;stroke-width:3;"/>
    </g>
    <g id="line2d_47"/>
    <g id="text_18">
     <!-- WS-5BM -->
     <g transform="translate(330.08375 82.000625)scale(0.16 -0.16)">
      <defs>
       <path d="M 20.21875 0 
L 1.21875 71.578125 
L 10.9375 71.578125 
L 21.828125 24.65625 
Q 23.578125 17.28125 24.859375 10.015625 
Q 27.59375 21.484375 28.078125 23.25 
L 41.703125 71.578125 
L 53.125 71.578125 
L 63.375 35.359375 
Q 67.234375 21.875 68.953125 10.015625 
Q 70.3125 16.796875 72.515625 25.59375 
L 83.734375 71.578125 
L 93.265625 71.578125 
L 73.640625 0 
L 64.5 0 
L 49.421875 54.546875 
Q 47.515625 61.375 47.171875 62.9375 
Q 46.046875 58.015625 45.0625 54.546875 
L 29.890625 0 
z
" id="ArialMT-87"/>
       <path d="M 4.5 23 
L 13.421875 23.78125 
Q 14.0625 18.40625 16.375 14.96875 
Q 18.703125 11.53125 23.578125 9.40625 
Q 28.46875 7.28125 34.578125 7.28125 
Q 39.984375 7.28125 44.140625 8.890625 
Q 48.296875 10.5 50.3125 13.296875 
Q 52.34375 16.109375 52.34375 19.4375 
Q 52.34375 22.796875 50.390625 25.3125 
Q 48.4375 27.828125 43.953125 29.546875 
Q 41.0625 30.671875 31.203125 33.03125 
Q 21.34375 35.40625 17.390625 37.5 
Q 12.25 40.1875 9.734375 44.15625 
Q 7.234375 48.140625 7.234375 53.078125 
Q 7.234375 58.5 10.296875 63.203125 
Q 13.375 67.921875 19.28125 70.359375 
Q 25.203125 72.796875 32.421875 72.796875 
Q 40.375 72.796875 46.453125 70.234375 
Q 52.546875 67.671875 55.8125 62.6875 
Q 59.078125 57.71875 59.328125 51.421875 
L 50.25 50.734375 
Q 49.515625 57.515625 45.28125 60.984375 
Q 41.0625 64.453125 32.8125 64.453125 
Q 24.21875 64.453125 20.28125 61.296875 
Q 16.359375 58.15625 16.359375 53.71875 
Q 16.359375 49.859375 19.140625 47.359375 
Q 21.875 44.875 33.421875 42.265625 
Q 44.96875 39.65625 49.265625 37.703125 
Q 55.515625 34.8125 58.484375 30.390625 
Q 61.46875 25.984375 61.46875 20.21875 
Q 61.46875 14.5 58.203125 9.4375 
Q 54.9375 4.390625 48.796875 1.578125 
Q 42.671875 -1.21875 35.015625 -1.21875 
Q 25.296875 -1.21875 18.71875 1.609375 
Q 12.15625 4.4375 8.421875 10.125 
Q 4.6875 15.828125 4.5 23 
z
" id="ArialMT-83"/>
      </defs>
      <use xlink:href="#ArialMT-87"/>
      <use x="94.384766" xlink:href="#ArialMT-83"/>
      <use x="161.083984" xlink:href="#ArialMT-45"/>
      <use x="194.384766" xlink:href="#ArialMT-53"/>
      <use x="250" xlink:href="#ArialMT-66"/>
      <use x="316.699219" xlink:href="#ArialMT-77"/>
     </g>
    </g>
    <g id="line2d_48">
     <path d="M 285.28375 99.033125 
L 317.28375 99.033125 
" style="fill:none;stroke:#008000;stroke-dasharray:3,3;stroke-dashoffset:0;stroke-width:3;"/>
    </g>
    <g id="line2d_49"/>
    <g id="text_19">
     <!-- OCM -->
     <g transform="translate(330.08375 104.633125)scale(0.16 -0.16)">
      <defs>
       <path d="M 4.828125 34.859375 
Q 4.828125 52.6875 14.390625 62.765625 
Q 23.96875 72.859375 39.109375 72.859375 
Q 49.03125 72.859375 56.984375 68.109375 
Q 64.9375 63.375 69.109375 54.90625 
Q 73.296875 46.4375 73.296875 35.6875 
Q 73.296875 24.8125 68.890625 16.21875 
Q 64.5 7.625 56.4375 3.203125 
Q 48.390625 -1.21875 39.0625 -1.21875 
Q 28.953125 -1.21875 20.984375 3.65625 
Q 13.03125 8.546875 8.921875 16.984375 
Q 4.828125 25.4375 4.828125 34.859375 
z
M 14.59375 34.71875 
Q 14.59375 21.78125 21.546875 14.328125 
Q 28.515625 6.890625 39.015625 6.890625 
Q 49.703125 6.890625 56.609375 14.40625 
Q 63.53125 21.921875 63.53125 35.75 
Q 63.53125 44.484375 60.578125 51 
Q 57.625 57.515625 51.921875 61.109375 
Q 46.234375 64.703125 39.15625 64.703125 
Q 29.109375 64.703125 21.84375 57.78125 
Q 14.59375 50.875 14.59375 34.71875 
z
" id="ArialMT-79"/>
      </defs>
      <use xlink:href="#ArialMT-79"/>
      <use x="77.783203" xlink:href="#ArialMT-67"/>
      <use x="150" xlink:href="#ArialMT-77"/>
     </g>
    </g>
    <g id="line2d_50">
     <path d="M 285.28375 121.665625 
L 317.28375 121.665625 
" style="fill:none;stroke:#0000ff;stroke-dasharray:18,3,3,3;stroke-dashoffset:0;stroke-width:3;"/>
    </g>
    <g id="line2d_51"/>
    <g id="text_20">
     <!-- WS-OCM -->
     <g transform="translate(330.08375 127.265625)scale(0.16 -0.16)">
      <use xlink:href="#ArialMT-87"/>
      <use x="94.384766" xlink:href="#ArialMT-83"/>
      <use x="161.083984" xlink:href="#ArialMT-45"/>
      <use x="194.384766" xlink:href="#ArialMT-79"/>
      <use x="272.167969" xlink:href="#ArialMT-67"/>
      <use x="344.384766" xlink:href="#ArialMT-77"/>
     </g>
    </g>
   </g>
  </g>
 </g>
 <defs>
  <clipPath id="p305b544965">
   <rect height="266.112" width="357.12" x="55.79375" y="33.515625"/>
  </clipPath>
 </defs>
</svg>
