<?xml version="1.0" encoding="UTF-8" standalone="no"?>
<!-- Created with matplotlib (https://matplotlib.org/) -->

<svg
   height="322.91043pt"
   version="1.1"
   viewBox="0 0 435.80949 322.91044"
   width="435.80948pt"
   id="svg504"
   sodipodi:docname="a-12C_RWA.svg"
   inkscape:version="1.1.2 (1:1.1+202202050950+0a00cf5339)"
   xmlns:inkscape="http://www.inkscape.org/namespaces/inkscape"
   xmlns:sodipodi="http://sodipodi.sourceforge.net/DTD/sodipodi-0.dtd"
   xmlns:xlink="http://www.w3.org/1999/xlink"
   xmlns="http://www.w3.org/2000/svg"
   xmlns:svg="http://www.w3.org/2000/svg"
   xmlns:rdf="http://www.w3.org/1999/02/22-rdf-syntax-ns#"
   xmlns:cc="http://creativecommons.org/ns#"
   xmlns:dc="http://purl.org/dc/elements/1.1/"
   xmlns:ns0="http://www.iki.fi/pav/software/textext/">
  <sodipodi:namedview
     pagecolor="#ffffff"
     bordercolor="#666666"
     borderopacity="1"
     objecttolerance="10"
     gridtolerance="10"
     guidetolerance="10"
     inkscape:pageopacity="0"
     inkscape:pageshadow="2"
     inkscape:window-width="1920"
     inkscape:window-height="1016"
     id="namedview506"
     showgrid="false"
     fit-margin-top="0"
     fit-margin-left="0"
     fit-margin-right="0"
     fit-margin-bottom="0"
     inkscape:zoom="1.4026138"
     inkscape:cx="-89.475806"
     inkscape:cy="166.47491"
     inkscape:window-x="0"
     inkscape:window-y="27"
     inkscape:window-maximized="1"
     inkscape:current-layer="svg504"
     inkscape:pagecheckerboard="0"
     inkscape:document-units="pt" />
  <metadata
     id="metadata2">
    <rdf:RDF>
      <cc:Work>
        <dc:type
           rdf:resource="http://purl.org/dc/dcmitype/StillImage" />
        <dc:date>2021-01-15T13:05:49.459498</dc:date>
        <dc:format>image/svg+xml</dc:format>
        <dc:creator>
          <cc:Agent>
            <dc:title>Matplotlib v3.3.2, https://matplotlib.org/</dc:title>
          </cc:Agent>
        </dc:creator>
      </cc:Work>
    </rdf:RDF>
  </metadata>
  <defs
     id="defs6"
     style="stroke-linecap:butt;stroke-linejoin:round">
    <style
       type="text/css"
       id="style4">*{stroke-linecap:butt;stroke-linejoin:round;}</style>
    <defs
       id="defs399">
      <path
         d="m 40.921875,25.4375 0.04687,11.28125 q 0.04687,11.53125 -8.640625,11.578125 -6.5,0.04687 -10.546875,-5.375 -5.078125,-6.6875 -6.796875,-15.625 -2.09375,-10.75 0.546875,-15.875 2.734375,-5.21875 8.640625,-5.21875 6.546875,0 12.0625,10.40625 z M 33.84375,55.90625 q 15.234375,0.25 15.03125,-15.53125 0,0 7.625,14.3125 h 8 l -15.765625,-29.640625 -0.15625,-10.6875 q 0,-2.390625 1.328125,-4.390625 Q 51.421875,7.625 52.984375,7.625 h 4.34375 L 55.859375,0 H 50.4375 Q 45.84375,0 42.53125,4.109375 40.96875,6.15625 40.921875,10.453125 37.75,5.21875 32.28125,0.78125 q -2.59375,-2.046875 -9.578125,-2 Q 11.28125,-1.125 7.125,6.203125 2.875,13.8125 5.515625,27.296875 q 2.828125,14.5 10.25,21.09375 8.359375,7.375 18.078125,7.515625 z"
         id="DejaVuSans-Oblique-945"
         inkscape:connector-curvature="0"
         style="stroke-linecap:butt;stroke-linejoin:round" />
      <path
         d="m 3.171875,21.484375 v 8.84375 h 27 v -8.84375 z"
         id="ArialMT-45"
         inkscape:connector-curvature="0"
         style="stroke-linecap:butt;stroke-linejoin:round" />
      <path
         d="m 12.40625,8.296875 h 16.109375 v 55.625 L 10.984375,60.40625 v 8.984375 l 17.4375,3.515625 H 38.28125 V 8.296875 H 54.390625 V 0 H 12.40625 Z"
         id="DejaVuSans-49"
         inkscape:connector-curvature="0"
         style="stroke-linecap:butt;stroke-linejoin:round" />
      <path
         d="M 19.1875,8.296875 H 53.609375 V 0 H 7.328125 v 8.296875 q 5.609375,5.8125 15.296875,15.59375 9.703125,9.796875 12.1875,12.640625 4.734375,5.3125 6.609375,9 1.890625,3.6875 1.890625,7.25 0,5.8125 -4.078125,9.46875 -4.078125,3.671875 -10.625,3.671875 -4.640625,0 -9.796875,-1.609375 -5.140625,-1.609375 -11,-4.890625 v 9.96875 Q 13.765625,71.78125 18.9375,73 q 5.1875,1.21875 9.484375,1.21875 11.328125,0 18.0625,-5.671875 6.734375,-5.65625 6.734375,-15.125 0,-4.5 -1.6875,-8.53125 Q 49.859375,40.875 45.40625,35.40625 44.1875,33.984375 37.640625,27.21875 31.109375,20.453125 19.1875,8.296875 Z"
         id="DejaVuSans-50"
         inkscape:connector-curvature="0"
         style="stroke-linecap:butt;stroke-linejoin:round" />
      <path
         d="m 58.796875,25.09375 9.46875,-2.390625 Q 65.28125,11.03125 57.546875,4.90625 49.8125,-1.21875 38.625,-1.21875 q -11.578125,0 -18.828125,4.703125 -7.25,4.71875 -11.03125,13.65625 -3.78125,8.9375 -3.78125,19.1875 0,11.1875 4.265625,19.5 4.28125,8.328125 12.15625,12.640625 7.890625,4.328125 17.359375,4.328125 10.75,0 18.0625,-5.46875 7.328125,-5.46875 10.21875,-15.375 L 57.71875,49.75 q -2.5,7.8125 -7.234375,11.375 -4.734375,3.578125 -11.90625,3.578125 -8.25,0 -13.796875,-3.96875 -5.546875,-3.953125 -7.796875,-10.625 Q 14.75,43.453125 14.75,36.375 q 0,-9.125 2.65625,-15.9375 2.65625,-6.8125 8.265625,-10.1875 5.625,-3.359375 12.171875,-3.359375 7.953125,0 13.46875,4.578125 5.53125,4.59375 7.484375,13.625 z"
         id="ArialMT-67"
         inkscape:connector-curvature="0"
         style="stroke-linecap:butt;stroke-linejoin:round" />
    </defs>
    <defs
       id="defs428">
      <path
         style="stroke-linecap:butt;stroke-linejoin:round"
         inkscape:connector-curvature="0"
         id="ArialMT-66"
         d="M 7.328125,0 V 71.578125 H 34.1875 q 8.203125,0 13.15625,-2.171875 4.953125,-2.171875 7.75,-6.6875 2.8125,-4.515625 2.8125,-9.453125 0,-4.578125 -2.484375,-8.640625 Q 52.9375,40.578125 47.90625,38.09375 54.390625,36.1875 57.875,31.59375 61.375,27 61.375,20.75 61.375,15.71875 59.25,11.390625 57.125,7.078125 54,4.734375 50.875,2.390625 46.15625,1.1875 41.453125,0 34.625,0 Z m 9.46875,41.5 H 32.28125 q 6.296875,0 9.03125,0.828125 3.609375,1.078125 5.4375,3.5625 1.828125,2.5 1.828125,6.265625 0,3.5625 -1.703125,6.265625 -1.703125,2.71875 -4.890625,3.71875 -3.171875,1 -10.875,1 h -14.3125 z m 0,-33.046875 H 34.625 q 4.578125,0 6.4375,0.34375 3.28125,0.578125 5.46875,1.9375 2.203125,1.375 3.609375,3.984375 1.421875,2.609375 1.421875,6.03125 0,4 -2.046875,6.953125 -2.046875,2.96875 -5.6875,4.15625 Q 40.1875,33.0625 33.34375,33.0625 H 16.796875 Z" />
      <path
         style="stroke-linecap:butt;stroke-linejoin:round"
         inkscape:connector-curvature="0"
         id="ArialMT-77"
         d="M 7.421875,0 V 71.578125 H 21.6875 L 38.625,20.90625 q 2.34375,-7.09375 3.421875,-10.609375 1.21875,3.90625 3.796875,11.484375 l 17.140625,49.796875 h 12.75 V 0 h -9.125 V 59.90625 L 45.796875,0 H 37.25 L 16.546875,60.9375 V 0 Z" />
    </defs>
    <defs
       id="defs444">
      <path
         style="stroke-linecap:butt;stroke-linejoin:round"
         inkscape:connector-curvature="0"
         id="ArialMT-83"
         d="m 4.5,23 8.921875,0.78125 q 0.640625,-5.375 2.953125,-8.8125 2.328125,-3.4375 7.203125,-5.5625 4.890625,-2.125 11,-2.125 5.40625,0 9.5625,1.609375 4.15625,1.609375 6.171875,4.40625 2.03125,2.8125 2.03125,6.140625 0,3.359375 -1.953125,5.875 -1.953125,2.515625 -6.4375,4.234375 -2.890625,1.125 -12.75,3.484375 -9.859375,2.375 -13.8125,4.46875 -5.140625,2.6875 -7.65625,6.65625 -2.5,3.984375 -2.5,8.921875 0,5.421875 3.0625,10.125 3.078125,4.71875 8.984375,7.15625 5.921875,2.4375 13.140625,2.4375 7.953125,0 14.03125,-2.5625 6.09375,-2.5625 9.359375,-7.546875 3.265625,-4.96875 3.515625,-11.265625 L 50.25,50.734375 q -0.734375,6.78125 -4.96875,10.25 -4.21875,3.46875 -12.46875,3.46875 -8.59375,0 -12.53125,-3.15625 -3.921875,-3.140625 -3.921875,-7.578125 0,-3.859375 2.78125,-6.359375 2.734375,-2.484375 14.28125,-5.09375 11.546875,-2.609375 15.84375,-4.5625 6.25,-2.890625 9.21875,-7.3125 2.984375,-4.40625 2.984375,-10.171875 0,-5.71875 -3.265625,-10.78125 -3.265625,-5.046875 -9.40625,-7.859375 -6.125,-2.796875 -13.78125,-2.796875 -9.71875,0 -16.296875,2.828125 Q 12.15625,4.4375 8.421875,10.125 4.6875,15.828125 4.5,23 Z" />
    </defs>
    <defs
       id="defs466">
      <path
         style="stroke-linecap:butt;stroke-linejoin:round"
         inkscape:connector-curvature="0"
         id="ArialMT-79"
         d="m 4.828125,34.859375 q 0,17.828125 9.5625,27.90625 9.578125,10.09375 24.71875,10.09375 9.921875,0 17.875,-4.75 7.953125,-4.734375 12.125,-13.203125 4.1875,-8.46875 4.1875,-19.21875 0,-10.875 -4.40625,-19.46875 Q 64.5,7.625 56.4375,3.203125 48.390625,-1.21875 39.0625,-1.21875 q -10.109375,0 -18.078125,4.875 -7.953125,4.890625 -12.0625,13.328125 -4.09375,8.453125 -4.09375,17.875 z M 14.59375,34.71875 q 0,-12.9375 6.953125,-20.390625 6.96875,-7.4375 17.46875,-7.4375 10.6875,0 17.59375,7.515625 6.921875,7.515625 6.921875,21.34375 0,8.734375 -2.953125,15.25 -2.953125,6.515625 -8.65625,10.109375 -5.6875,3.59375 -12.765625,3.59375 -10.046875,0 -17.3125,-6.921875 -7.25,-6.90625 -7.25,-23.0625 z" />
    </defs>
    <defs
       id="defs212">
      <path
         inkscape:connector-curvature="0"
         style="stroke:#000000;stroke-width:0.8;stroke-linecap:butt;stroke-linejoin:round"
         id="mb7ee7bb591"
         d="M 0,0 H -3.5" />
    </defs>
    <defs
       id="defs204">
      <path
         inkscape:connector-curvature="0"
         style="stroke:#000000;stroke-width:0.8;stroke-linecap:butt;stroke-linejoin:round"
         id="m15f3893ff1"
         d="M 0,0 H 3.5" />
    </defs>
    <defs
       id="defs358">
      <path
         style="stroke-linecap:butt;stroke-linejoin:round"
         inkscape:connector-curvature="0"
         id="ArialMT-82"
         d="M 7.859375,0 V 71.578125 H 39.59375 q 9.578125,0 14.546875,-1.9375 4.984375,-1.921875 7.96875,-6.8125 2.984375,-4.875 2.984375,-10.78125 0,-7.609375 -4.9375,-12.84375 Q 55.21875,33.984375 44.921875,32.5625 48.6875,30.765625 50.640625,29 54.78125,25.203125 58.5,19.484375 L 70.953125,0 H 59.03125 L 49.5625,14.890625 Q 45.40625,21.34375 42.71875,24.75 q -2.671875,3.421875 -4.796875,4.78125 -2.125,1.375 -4.328125,1.921875 -1.609375,0.328125 -5.265625,0.328125 h -11 V 0 Z m 9.46875,39.984375 h 20.375 q 6.484375,0 10.140625,1.34375 3.671875,1.34375 5.578125,4.296875 1.90625,2.953125 1.90625,6.421875 0,5.078125 -3.6875,8.34375 -3.6875,3.28125 -11.65625,3.28125 h -22.65625 z" />
      <path
         style="stroke-linecap:butt;stroke-linejoin:round"
         inkscape:connector-curvature="0"
         id="ArialMT-87"
         d="m 20.21875,0 -19,71.578125 H 10.9375 L 21.828125,24.65625 q 1.75,-7.375 3.03125,-14.640625 2.734375,11.46875 3.21875,13.234375 l 13.625,48.328125 H 53.125 l 10.25,-36.21875 q 3.859375,-13.484375 5.578125,-25.34375 1.359375,6.78125 3.5625,15.578125 l 11.21875,45.984375 h 9.53125 L 73.640625,0 H 64.5 L 49.421875,54.546875 q -1.90625,6.828125 -2.25,8.390625 -1.125,-4.921875 -2.109375,-8.390625 L 29.890625,0 Z" />
      <path
         style="stroke-linecap:butt;stroke-linejoin:round"
         inkscape:connector-curvature="0"
         id="ArialMT-65"
         d="M -0.140625,0 27.34375,71.578125 H 37.546875 L 66.84375,0 H 56.0625 L 47.703125,21.6875 H 17.78125 L 9.90625,0 Z m 20.65625,29.390625 H 44.78125 L 37.3125,49.21875 Q 33.890625,58.25 32.234375,64.0625 30.859375,57.171875 28.375,50.390625 Z" />
    </defs>
    <defs
       id="defs26">
      <path
         inkscape:connector-curvature="0"
         style="stroke:#000000;stroke-width:0.8;stroke-linecap:butt;stroke-linejoin:round"
         id="mf9d37e6802"
         d="M 0,0 V 3.5" />
    </defs>
    <defs
       id="defs18">
      <path
         inkscape:connector-curvature="0"
         style="stroke:#000000;stroke-width:0.8;stroke-linecap:butt;stroke-linejoin:round"
         id="m1f4929dedf"
         d="M 0,0 V -3.5" />
    </defs>
    <defs
       id="defs182">
      <path
         style="stroke-linecap:butt;stroke-linejoin:round"
         inkscape:connector-curvature="0"
         id="DejaVuSans-Oblique-82"
         d="m 25.203125,64.796875 -4.984375,-25.875 h 12.6875 q 7.46875,0 12.078125,4.125 4.625,4.125 4.625,10.765625 0,5.3125 -3.109375,8.140625 -3.09375,2.84375 -8.90625,2.84375 z M 43.3125,35.015625 q 3.125,-0.734375 5.203125,-3.625 2.078125,-2.875 4.8125,-11.46875 L 59.515625,0 H 49.125 l -5.71875,18.703125 q -2.1875,7.21875 -5.078125,9.65625 Q 35.453125,30.8125 29.5,30.8125 H 18.609375 L 12.59375,0 H 2.6875 l 14.203125,72.90625 h 22.21875 q 10.109375,0 15.5,-4.578125 5.40625,-4.5625 5.40625,-13.15625 0,-7.609375 -4.59375,-13.1875 -4.59375,-5.5625 -12.109375,-6.96875 z" />
      <path
         style="stroke-linecap:butt;stroke-linejoin:round"
         inkscape:connector-curvature="0"
         d=""
         id="ArialMT-32" />
      <path
         style="stroke-linecap:butt;stroke-linejoin:round"
         inkscape:connector-curvature="0"
         id="ArialMT-40"
         d="m 23.390625,-21.046875 q -7.28125,9.1875 -12.3125,21.484375 Q 6.0625,12.75 6.0625,25.921875 q 0,11.625 3.75,22.265625 4.390625,12.359375 13.578125,24.609375 H 29.6875 q -5.90625,-10.15625 -7.8125,-14.5 -2.984375,-6.734375 -4.6875,-14.0625 -2.09375,-9.125 -2.09375,-18.359375 0,-23.484375 14.59375,-46.921875 z" />
      <path
         style="stroke-linecap:butt;stroke-linejoin:round"
         inkscape:connector-curvature="0"
         id="ArialMT-102"
         d="M 8.6875,0 V 45.015625 H 0.921875 v 6.84375 H 8.6875 V 57.375 q 0,5.21875 0.9375,7.765625 1.265625,3.421875 4.453125,5.53125 3.203125,2.125 8.96875,2.125 3.71875,0 8.203125,-0.875 l -1.3125,-7.65625 Q 27.203125,64.75 24.75,64.75 q -4,0 -5.65625,-1.71875 -1.65625,-1.703125 -1.65625,-6.390625 v -4.78125 h 10.109375 v -6.84375 H 17.4375 V 0 Z" />
      <path
         style="stroke-linecap:butt;stroke-linejoin:round"
         inkscape:connector-curvature="0"
         id="ArialMT-109"
         d="m 6.59375,0 v 51.859375 h 7.859375 v -7.28125 q 2.4375,3.8125 6.484375,6.125 4.0625,2.328125 9.234375,2.328125 5.765625,0 9.453125,-2.390625 3.6875,-2.390625 5.203125,-6.6875 6.15625,9.078125 16.015625,9.078125 7.71875,0 11.859375,-4.28125 4.15625,-4.265625 4.15625,-13.15625 V 0 h -8.75 v 32.671875 q 0,5.265625 -0.859375,7.578125 -0.84375,2.328125 -3.09375,3.734375 -2.234375,1.421875 -5.265625,1.421875 -5.46875,0 -9.09375,-3.640625 Q 46.1875,38.140625 46.1875,30.125 V 0 h -8.78125 v 33.6875 q 0,5.859375 -2.15625,8.78125 -2.140625,2.9375 -7.03125,2.9375 -3.703125,0 -6.859375,-1.953125 Q 18.21875,41.5 16.796875,37.734375 15.375,33.984375 15.375,26.90625 V 0 Z" />
      <path
         style="stroke-linecap:butt;stroke-linejoin:round"
         inkscape:connector-curvature="0"
         id="ArialMT-41"
         d="M 12.359375,-21.046875 H 6.0625 q 14.59375,23.4375 14.59375,46.921875 0,9.1875 -2.09375,18.21875 -1.671875,7.328125 -4.640625,14.0625 -1.90625,4.390625 -7.859375,14.640625 h 6.296875 Q 21.53125,60.546875 25.921875,48.1875 29.6875,37.546875 29.6875,25.921875 29.6875,12.75 24.625,0.4375 19.578125,-11.859375 12.359375,-21.046875 Z" />
    </defs>
    <defs
       id="defs137">
      <path
         d="m 37.25,0 h -8.78125 v 56 q -3.171875,-3.015625 -8.328125,-6.046875 -5.15625,-3.03125 -9.25,-4.546875 v 8.5 q 7.375,3.46875 12.890625,8.390625 5.515625,4.9375 7.8125,9.578125 H 37.25 Z"
         id="ArialMT-49"
         inkscape:connector-curvature="0"
         style="stroke-linecap:butt;stroke-linejoin:round" />
    </defs>
    <defs
       id="defs111">
      <path
         d="m 4.734375,62.203125 v 8.453125 h 46.34375 V 63.8125 Q 44.234375,56.546875 37.515625,44.484375 30.8125,32.421875 27.15625,19.671875 24.515625,10.6875 23.78125,0 H 14.75 q 0.140625,8.453125 3.3125,20.40625 3.171875,11.96875 9.109375,23.078125 5.9375,11.109375 12.625,18.71875 z"
         id="ArialMT-55"
         inkscape:connector-curvature="0"
         style="stroke-linecap:butt;stroke-linejoin:round" />
    </defs>
    <defs
       id="defs62">
      <path
         d="M 50.34375,8.453125 V 0 H 3.03125 Q 2.9375,3.171875 4.046875,6.109375 5.859375,10.9375 9.828125,15.625 13.8125,20.3125 21.34375,26.46875 q 11.671875,9.5625 15.765625,15.15625 4.109375,5.59375 4.109375,10.578125 0,5.21875 -3.75,8.796875 -3.734375,3.59375 -9.734375,3.59375 -6.34375,0 -10.15625,-3.8125 Q 13.765625,56.984375 13.71875,50.25 L 4.6875,51.171875 q 0.921875,10.109375 6.96875,15.40625 6.0625,5.296875 16.28125,5.296875 10.296875,0 16.296875,-5.71875 Q 50.25,60.453125 50.25,52 50.25,47.703125 48.484375,43.546875 46.734375,39.40625 42.65625,34.8125 38.578125,30.21875 29.109375,22.21875 21.1875,15.578125 18.9375,13.203125 q -2.234375,-2.359375 -3.703125,-4.75 z"
         id="ArialMT-50"
         inkscape:connector-curvature="0"
         style="stroke-linecap:butt;stroke-linejoin:round" />
      <path
         d="M 4.15625,18.75 13.375,19.53125 Q 14.40625,12.796875 18.140625,9.390625 21.875,6 27.15625,6 33.5,6 37.890625,10.78125 42.28125,15.578125 42.28125,23.484375 42.28125,31 38.0625,35.34375 33.84375,39.703125 27,39.703125 q -4.25,0 -7.671875,-1.9375 -3.40625,-1.921875 -5.359375,-5 l -8.25,1.078125 6.921875,36.765625 H 48.25 v -8.40625 H 19.671875 L 15.828125,42.96875 q 6.4375,4.5 13.515625,4.5 9.375,0 15.8125,-6.5 6.453125,-6.5 6.453125,-16.703125 0,-9.71875 -5.65625,-16.796875 -6.890625,-8.6875 -18.796875,-8.6875 -9.765625,0 -15.953125,5.46875 Q 5.03125,9.71875 4.15625,18.75 Z"
         id="ArialMT-53"
         inkscape:connector-curvature="0"
         style="stroke-linecap:butt;stroke-linejoin:round" />
    </defs>
    <defs
       id="defs35">
      <path
         d="m 4.15625,35.296875 q 0,12.703125 2.609375,20.4375 2.609375,7.75 7.75,11.9375 5.15625,4.203125 12.96875,4.203125 5.765625,0 10.109375,-2.328125 4.34375,-2.3125 7.171875,-6.6875 Q 47.609375,58.5 49.21875,52.21875 q 1.609375,-6.265625 1.609375,-16.921875 0,-12.59375 -2.59375,-20.328125 Q 45.65625,7.234375 40.5,3 35.359375,-1.21875 27.484375,-1.21875 q -10.34375,0 -16.25,7.421875 -7.078125,8.9375 -7.078125,29.09375 z m 9.03125,0 q 0,-17.625 4.125,-23.46875 Q 21.4375,6 27.484375,6 q 6.0625,0 10.1875,5.859375 4.125,5.859375 4.125,23.4375 0,17.6875 -4.125,23.484375 -4.125,5.8125 -10.28125,5.8125 -6.046875,0 -9.671875,-5.125 Q 13.1875,52.9375 13.1875,35.296875 Z"
         id="ArialMT-48"
         inkscape:connector-curvature="0"
         style="stroke-linecap:butt;stroke-linejoin:round" />
      <path
         d="M 9.078125,0 V 10.015625 H 19.09375 V 0 Z"
         id="ArialMT-46"
         inkscape:connector-curvature="0"
         style="stroke-linecap:butt;stroke-linejoin:round" />
    </defs>
    <defs
       id="defs343">
      <path
         d="M 49.75,54.046875 41.015625,53.375 q -1.171875,5.171875 -3.3125,7.515625 -3.578125,3.765625 -8.796875,3.765625 -4.203125,0 -7.375,-2.34375 Q 17.390625,59.28125 14.984375,53.46875 12.59375,47.65625 12.5,36.921875 15.671875,41.75 20.265625,44.09375 q 4.59375,2.34375 9.625,2.34375 8.78125,0 14.953125,-6.46875 Q 51.03125,33.5 51.03125,23.25 51.03125,16.5 48.125,10.71875 45.21875,4.9375 40.140625,1.859375 35.0625,-1.21875 28.609375,-1.21875 17.625,-1.21875 10.6875,6.859375 3.765625,14.9375 3.765625,33.5 q 0,20.75 7.65625,30.171875 6.6875,8.203125 18.015625,8.203125 8.453125,0 13.84375,-4.734375 Q 48.6875,62.40625 49.75,54.046875 Z M 13.875,23.1875 q 0,-4.53125 1.921875,-8.6875 Q 17.71875,10.359375 21.1875,8.171875 24.65625,6 28.46875,6 q 5.5625,0 9.5625,4.484375 4.015625,4.5 4.015625,12.21875 0,7.421875 -3.96875,11.6875 -3.953125,4.28125 -9.953125,4.28125 -5.953125,0 -10.109375,-4.28125 Q 13.875,30.125 13.875,23.1875 Z"
         id="ArialMT-54"
         inkscape:connector-curvature="0"
         style="stroke-linecap:butt;stroke-linejoin:round" />
    </defs>
    <defs
       id="defs221">
      <path
         d="M 52.828125,31.203125 H 5.5625 v 8.203125 h 47.265625 z"
         id="ArialMT-8722"
         inkscape:connector-curvature="0"
         style="stroke-linecap:butt;stroke-linejoin:round" />
      <path
         d="m 32.328125,0 v 17.140625 h -31.0625 v 8.0625 l 32.671875,46.375 h 7.171875 v -46.375 h 9.671875 v -8.0625 H 41.109375 V 0 Z m 0,25.203125 V 57.46875 L 9.90625,25.203125 Z"
         id="ArialMT-52"
         inkscape:connector-curvature="0"
         style="stroke-linecap:butt;stroke-linejoin:round" />
    </defs>
    <g
       id="g6788"
       style="stroke-linecap:butt;stroke-linejoin:round">
      <symbol
         id="textext-7f088ae2-0"
         overflow="visible"
         style="overflow:visible;stroke-linecap:butt;stroke-linejoin:round">
        <path
           id="path6764"
           d=""
           style="stroke:none;stroke-linecap:butt;stroke-linejoin:round"
           inkscape:connector-curvature="0" />
      </symbol>
      <symbol
         id="textext-7f088ae2-1"
         overflow="visible"
         style="overflow:visible;stroke-linecap:butt;stroke-linejoin:round">
        <path
           id="path6767"
           d="m 3.734375,-6.125 c 0.0625,-0.234375 0.09375,-0.328125 0.28125,-0.359375 C 4.109375,-6.5 4.421875,-6.5 4.625,-6.5 c 0.703125,0 1.8125,0 1.8125,0.984375 0,0.34375 -0.15625,1.03125 -0.546875,1.421875 -0.265625,0.25 -0.78125,0.578125 -1.6875,0.578125 H 3.09375 Z m 1.4375,2.734375 c 1.015625,-0.21875 2.1875,-0.921875 2.1875,-1.921875 0,-0.859375 -0.890625,-1.5 -2.203125,-1.5 H 2.328125 c -0.203125,0 -0.296875,0 -0.296875,0.203125 C 2.03125,-6.5 2.125,-6.5 2.3125,-6.5 c 0.015625,0 0.203125,0 0.375,0.015625 0.1875,0.03125 0.265625,0.03125 0.265625,0.171875 0,0.03125 0,0.0625 -0.03125,0.1875 l -1.34375,5.34375 C 1.484375,-0.390625 1.46875,-0.3125 0.671875,-0.3125 0.5,-0.3125 0.40625,-0.3125 0.40625,-0.109375 0.40625,0 0.53125,0 0.546875,0 c 0.28125,0 0.984375,-0.03125 1.25,-0.03125 0.28125,0 1,0.03125 1.28125,0.03125 0.078125,0 0.1875,0 0.1875,-0.203125 0,-0.109375 -0.078125,-0.109375 -0.28125,-0.109375 -0.359375,0 -0.640625,0 -0.640625,-0.171875 0,-0.0625 0.015625,-0.109375 0.03125,-0.171875 l 0.65625,-2.640625 h 1.1875 c 0.90625,0 1.078125,0.5625 1.078125,0.90625 0,0.140625 -0.078125,0.453125 -0.140625,0.6875 C 5.09375,-1.421875 5,-1.0625 5,-0.859375 5,0.21875 6.203125,0.21875 6.328125,0.21875 c 0.84375,0 1.203125,-1 1.203125,-1.140625 0,-0.125 -0.109375,-0.125 -0.125,-0.125 -0.09375,0 -0.109375,0.0625 -0.125,0.140625 C 7.03125,-0.171875 6.59375,0 6.375,0 6.046875,0 5.96875,-0.21875 5.96875,-0.609375 c 0,-0.3125 0.0625,-0.8125 0.109375,-1.140625 0.015625,-0.140625 0.03125,-0.328125 0.03125,-0.46875 0,-0.765625 -0.671875,-1.078125 -0.9375,-1.171875 z m 0,0"
           style="stroke:none;stroke-linecap:butt;stroke-linejoin:round"
           inkscape:connector-curvature="0" />
      </symbol>
      <symbol
         id="textext-7f088ae2-2"
         overflow="visible"
         style="overflow:visible;stroke-linecap:butt;stroke-linejoin:round">
        <path
           id="path6770"
           d="M 1.6875,1.6875 C 1.65625,1.828125 1.640625,1.84375 1.640625,1.890625 c 0,0.21875 0.1875,0.28125 0.296875,0.28125 0.046875,0 0.265625,-0.03125 0.359375,-0.265625 C 2.328125,1.828125 2.375,1.5 2.65625,0.09375 c 0.078125,0 0.15625,0.015625 0.328125,0.015625 1.65625,0 3.1875,-1.5625 3.1875,-3.140625 0,-0.78125 -0.390625,-1.375 -1.140625,-1.375 -1.4375,0 -2.046875,1.9375 -2.640625,3.875 C 1.3125,-0.734375 0.75,-1.28125 0.75,-2 c 0,-0.28125 0.234375,-1.375 0.828125,-2.0625 0.09375,-0.09375 0.09375,-0.109375 0.09375,-0.140625 0,-0.03125 -0.03125,-0.09375 -0.125,-0.09375 -0.28125,0 -1.046875,1.453125 -1.046875,2.40625 0,0.9375 0.65625,1.65625 1.71875,1.90625 z m 1.390625,-2.15625 c -0.09375,0 -0.109375,0 -0.1875,-0.015625 -0.125,0 -0.125,0 -0.125,-0.03125 0,-0.015625 0.171875,-0.9375 0.1875,-1.078125 0.3125,-1.28125 1.09375,-2.234375 1.984375,-2.234375 0.6875,0 0.953125,0.53125 0.953125,1.015625 0,1.125 -1.28125,2.34375 -2.8125,2.34375 z m 0,0"
           style="stroke:none;stroke-linecap:butt;stroke-linejoin:round"
           inkscape:connector-curvature="0" />
      </symbol>
      <symbol
         id="textext-7f088ae2-3"
         overflow="visible"
         style="overflow:visible;stroke-linecap:butt;stroke-linejoin:round">
        <path
           id="path6773"
           d=""
           style="stroke:none;stroke-linecap:butt;stroke-linejoin:round"
           inkscape:connector-curvature="0" />
      </symbol>
      <symbol
         id="textext-7f088ae2-4"
         overflow="visible"
         style="overflow:visible;stroke-linecap:butt;stroke-linejoin:round">
        <path
           id="path6776"
           d="m 3.8125,-0.984375 c 0.640625,-0.65625 0.890625,-1.59375 0.890625,-1.65625 0,-0.09375 -0.078125,-0.09375 -0.109375,-0.09375 C 4.5,-2.734375 4.5,-2.71875 4.453125,-2.5625 4.328125,-2.109375 4.09375,-1.671875 3.796875,-1.296875 3.796875,-1.40625 3.78125,-1.875 3.765625,-1.9375 3.65625,-2.625 3.140625,-3.078125 2.4375,-3.078125 c -1.015625,0 -2,0.953125 -2,1.9375 0,0.640625 0.46875,1.203125 1.265625,1.203125 0.640625,0 1.21875,-0.28125 1.609375,-0.578125 0.171875,0.5 0.515625,0.578125 0.734375,0.578125 0.40625,0 0.65625,-0.328125 0.65625,-0.484375 C 4.703125,-0.5 4.609375,-0.5 4.578125,-0.5 c -0.09375,0 -0.109375,0.03125 -0.125,0.0625 -0.09375,0.265625 -0.3125,0.3125 -0.390625,0.3125 -0.09375,0 -0.21875,0 -0.25,-0.859375 z M 3.265625,-0.75 C 2.578125,-0.1875 2,-0.125 1.734375,-0.125 c -0.46875,0 -0.71875,-0.3125 -0.71875,-0.78125 0,-0.1875 0.09375,-0.953125 0.453125,-1.4375 C 1.796875,-2.765625 2.1875,-2.875 2.4375,-2.875 c 0.546875,0 0.71875,0.53125 0.765625,0.96875 0.046875,0.296875 0.03125,0.796875 0.0625,1.15625 z m 0,0"
           style="stroke:none;stroke-linecap:butt;stroke-linejoin:round"
           inkscape:connector-curvature="0" />
      </symbol>
      <symbol
         id="textext-7f088ae2-5"
         overflow="visible"
         style="overflow:visible;stroke-linecap:butt;stroke-linejoin:round">
        <path
           id="path6779"
           d=""
           style="stroke:none;stroke-linecap:butt;stroke-linejoin:round"
           inkscape:connector-curvature="0" />
      </symbol>
      <symbol
         id="textext-7f088ae2-6"
         overflow="visible"
         style="overflow:visible;stroke-linecap:butt;stroke-linejoin:round">
        <path
           id="path6782"
           d="m 3.296875,2.390625 c 0,-0.03125 0,-0.046875 -0.171875,-0.21875 C 1.890625,0.921875 1.5625,-0.96875 1.5625,-2.5 c 0,-1.734375 0.375,-3.46875 1.609375,-4.703125 0.125,-0.125 0.125,-0.140625 0.125,-0.171875 0,-0.078125 -0.03125,-0.109375 -0.09375,-0.109375 -0.109375,0 -1,0.6875 -1.59375,1.953125 -0.5,1.09375 -0.625,2.203125 -0.625,3.03125 0,0.78125 0.109375,1.984375 0.65625,3.125 C 2.25,1.84375 3.09375,2.5 3.203125,2.5 c 0.0625,0 0.09375,-0.03125 0.09375,-0.109375 z m 0,0"
           style="stroke:none;stroke-linecap:butt;stroke-linejoin:round"
           inkscape:connector-curvature="0" />
      </symbol>
      <symbol
         id="textext-7f088ae2-7"
         overflow="visible"
         style="overflow:visible;stroke-linecap:butt;stroke-linejoin:round">
        <path
           id="path6785"
           d="m 2.875,-2.5 c 0,-0.765625 -0.109375,-1.96875 -0.65625,-3.109375 -0.59375,-1.21875 -1.453125,-1.875 -1.546875,-1.875 -0.0625,0 -0.109375,0.046875 -0.109375,0.109375 0,0.03125 0,0.046875 0.1875,0.234375 0.984375,0.984375 1.546875,2.5625 1.546875,4.640625 0,1.71875 -0.359375,3.46875 -1.59375,4.71875 C 0.5625,2.34375 0.5625,2.359375 0.5625,2.390625 0.5625,2.453125 0.609375,2.5 0.671875,2.5 0.765625,2.5 1.671875,1.8125 2.25,0.546875 2.765625,-0.546875 2.875,-1.65625 2.875,-2.5 Z m 0,0"
           style="stroke:none;stroke-linecap:butt;stroke-linejoin:round"
           inkscape:connector-curvature="0" />
      </symbol>
    </g>
  </defs>
  <path
     inkscape:connector-curvature="0"
     id="path14"
     style="fill:none;stroke:#b0b0b0;stroke-width:0.8;stroke-linecap:square;stroke-linejoin:round"
     d="M 72.471875,299.937 V 33.825"
     clip-path="url(#p86263ed073)"
     transform="translate(1.2893242,-26.607812)" />
  <use
     style="stroke:#000000;stroke-width:0.8;stroke-linecap:butt;stroke-linejoin:round"
     x="72.471878"
     xlink:href="#m1f4929dedf"
     y="299.93701"
     id="use20"
     width="100%"
     height="100%"
     transform="translate(1.2893242,-26.607812)" />
  <use
     style="stroke:#000000;stroke-width:0.8;stroke-linecap:butt;stroke-linejoin:round"
     x="72.471878"
     xlink:href="#mf9d37e6802"
     y="33.825001"
     id="use28"
     width="100%"
     height="100%"
     transform="translate(1.2893242,-26.607812)" />
  <use
     xlink:href="#ArialMT-48"
     id="use37"
     style="stroke-linecap:butt;stroke-linejoin:round"
     x="0"
     y="0"
     width="100%"
     height="100%"
     transform="matrix(0.2,0,0,-0.2,59.861199,296.14482)" />
  <use
     x="55.615234"
     xlink:href="#ArialMT-46"
     id="use39"
     style="stroke-linecap:butt;stroke-linejoin:round"
     y="0"
     width="100%"
     height="100%"
     transform="matrix(0.2,0,0,-0.2,59.861199,296.14482)" />
  <use
     x="83.398438"
     xlink:href="#ArialMT-48"
     id="use41"
     style="stroke-linecap:butt;stroke-linejoin:round"
     y="0"
     width="100%"
     height="100%"
     transform="matrix(0.2,0,0,-0.2,59.861199,296.14482)" />
  <path
     inkscape:connector-curvature="0"
     id="path47"
     style="fill:none;stroke:#b0b0b0;stroke-width:0.8;stroke-linecap:square;stroke-linejoin:round"
     d="M 141.1488,299.937 V 33.825"
     clip-path="url(#p86263ed073)"
     transform="translate(1.2893242,-26.607812)" />
  <use
     style="stroke:#000000;stroke-width:0.8;stroke-linecap:butt;stroke-linejoin:round"
     x="141.1488"
     xlink:href="#m1f4929dedf"
     y="299.93701"
     id="use50"
     width="100%"
     height="100%"
     transform="translate(1.2893242,-26.607812)" />
  <use
     style="stroke:#000000;stroke-width:0.8;stroke-linecap:butt;stroke-linejoin:round"
     x="141.1488"
     xlink:href="#mf9d37e6802"
     y="33.825001"
     id="use55"
     width="100%"
     height="100%"
     transform="translate(1.2893242,-26.607812)" />
  <use
     xlink:href="#ArialMT-50"
     id="use64"
     style="stroke-linecap:butt;stroke-linejoin:round"
     x="0"
     y="0"
     width="100%"
     height="100%"
     transform="matrix(0.2,0,0,-0.2,128.53813,296.14482)" />
  <use
     x="55.615234"
     xlink:href="#ArialMT-46"
     id="use66"
     style="stroke-linecap:butt;stroke-linejoin:round"
     y="0"
     width="100%"
     height="100%"
     transform="matrix(0.2,0,0,-0.2,128.53813,296.14482)" />
  <use
     x="83.398438"
     xlink:href="#ArialMT-53"
     id="use68"
     style="stroke-linecap:butt;stroke-linejoin:round"
     y="0"
     width="100%"
     height="100%"
     transform="matrix(0.2,0,0,-0.2,128.53813,296.14482)" />
  <path
     inkscape:connector-curvature="0"
     id="path74"
     style="fill:none;stroke:#b0b0b0;stroke-width:0.8;stroke-linecap:square;stroke-linejoin:round"
     d="M 209.82572,299.937 V 33.825"
     clip-path="url(#p86263ed073)"
     transform="translate(1.2893242,-26.607812)" />
  <use
     style="stroke:#000000;stroke-width:0.8;stroke-linecap:butt;stroke-linejoin:round"
     x="209.82571"
     xlink:href="#m1f4929dedf"
     y="299.93701"
     id="use77"
     width="100%"
     height="100%"
     transform="translate(1.2893242,-26.607812)" />
  <use
     style="stroke:#000000;stroke-width:0.8;stroke-linecap:butt;stroke-linejoin:round"
     x="209.82571"
     xlink:href="#mf9d37e6802"
     y="33.825001"
     id="use82"
     width="100%"
     height="100%"
     transform="translate(1.2893242,-26.607812)" />
  <use
     xlink:href="#ArialMT-53"
     id="use87"
     style="stroke-linecap:butt;stroke-linejoin:round"
     x="0"
     y="0"
     width="100%"
     height="100%"
     transform="matrix(0.2,0,0,-0.2,197.21505,296.14482)" />
  <use
     x="55.615234"
     xlink:href="#ArialMT-46"
     id="use89"
     style="stroke-linecap:butt;stroke-linejoin:round"
     y="0"
     width="100%"
     height="100%"
     transform="matrix(0.2,0,0,-0.2,197.21505,296.14482)" />
  <use
     x="83.398438"
     xlink:href="#ArialMT-48"
     id="use91"
     style="stroke-linecap:butt;stroke-linejoin:round"
     y="0"
     width="100%"
     height="100%"
     transform="matrix(0.2,0,0,-0.2,197.21505,296.14482)" />
  <path
     inkscape:connector-curvature="0"
     id="path97"
     style="fill:none;stroke:#b0b0b0;stroke-width:0.8;stroke-linecap:square;stroke-linejoin:round"
     d="M 278.50264,299.937 V 33.825"
     clip-path="url(#p86263ed073)"
     transform="translate(1.2893242,-26.607812)" />
  <use
     style="stroke:#000000;stroke-width:0.8;stroke-linecap:butt;stroke-linejoin:round"
     x="278.50266"
     xlink:href="#m1f4929dedf"
     y="299.93701"
     id="use100"
     width="100%"
     height="100%"
     transform="translate(1.2893242,-26.607812)" />
  <use
     style="stroke:#000000;stroke-width:0.8;stroke-linecap:butt;stroke-linejoin:round"
     x="278.50266"
     xlink:href="#mf9d37e6802"
     y="33.825001"
     id="use105"
     width="100%"
     height="100%"
     transform="translate(1.2893242,-26.607812)" />
  <use
     xlink:href="#ArialMT-55"
     id="use113"
     style="stroke-linecap:butt;stroke-linejoin:round"
     x="0"
     y="0"
     width="100%"
     height="100%"
     transform="matrix(0.2,0,0,-0.2,265.89197,296.14482)" />
  <use
     x="55.615234"
     xlink:href="#ArialMT-46"
     id="use115"
     style="stroke-linecap:butt;stroke-linejoin:round"
     y="0"
     width="100%"
     height="100%"
     transform="matrix(0.2,0,0,-0.2,265.89197,296.14482)" />
  <use
     x="83.398438"
     xlink:href="#ArialMT-53"
     id="use117"
     style="stroke-linecap:butt;stroke-linejoin:round"
     y="0"
     width="100%"
     height="100%"
     transform="matrix(0.2,0,0,-0.2,265.89197,296.14482)" />
  <path
     inkscape:connector-curvature="0"
     id="path123"
     style="fill:none;stroke:#b0b0b0;stroke-width:0.8;stroke-linecap:square;stroke-linejoin:round"
     d="M 347.17957,299.937 V 33.825"
     clip-path="url(#p86263ed073)"
     transform="translate(1.2893242,-26.607812)" />
  <use
     style="stroke:#000000;stroke-width:0.8;stroke-linecap:butt;stroke-linejoin:round"
     x="347.17957"
     xlink:href="#m1f4929dedf"
     y="299.93701"
     id="use126"
     width="100%"
     height="100%"
     transform="translate(1.2893242,-26.607812)" />
  <use
     style="stroke:#000000;stroke-width:0.8;stroke-linecap:butt;stroke-linejoin:round"
     x="347.17957"
     xlink:href="#mf9d37e6802"
     y="33.825001"
     id="use131"
     width="100%"
     height="100%"
     transform="translate(1.2893242,-26.607812)" />
  <use
     xlink:href="#ArialMT-49"
     id="use139"
     style="stroke-linecap:butt;stroke-linejoin:round"
     x="0"
     y="0"
     width="100%"
     height="100%"
     transform="matrix(0.2,0,0,-0.2,329.00796,296.14482)" />
  <use
     x="55.615234"
     xlink:href="#ArialMT-48"
     id="use141"
     style="stroke-linecap:butt;stroke-linejoin:round"
     y="0"
     width="100%"
     height="100%"
     transform="matrix(0.2,0,0,-0.2,329.00796,296.14482)" />
  <use
     x="111.23047"
     xlink:href="#ArialMT-46"
     id="use143"
     style="stroke-linecap:butt;stroke-linejoin:round"
     y="0"
     width="100%"
     height="100%"
     transform="matrix(0.2,0,0,-0.2,329.00796,296.14482)" />
  <use
     x="139.01367"
     xlink:href="#ArialMT-48"
     id="use145"
     style="stroke-linecap:butt;stroke-linejoin:round"
     y="0"
     width="100%"
     height="100%"
     transform="matrix(0.2,0,0,-0.2,329.00796,296.14482)" />
  <path
     inkscape:connector-curvature="0"
     id="path151"
     style="fill:none;stroke:#b0b0b0;stroke-width:0.8;stroke-linecap:square;stroke-linejoin:round"
     d="M 415.85649,299.937 V 33.825"
     clip-path="url(#p86263ed073)"
     transform="translate(1.2893242,-26.607812)" />
  <use
     style="stroke:#000000;stroke-width:0.8;stroke-linecap:butt;stroke-linejoin:round"
     x="415.85648"
     xlink:href="#m1f4929dedf"
     y="299.93701"
     id="use154"
     width="100%"
     height="100%"
     transform="translate(1.2893242,-26.607812)" />
  <use
     style="stroke:#000000;stroke-width:0.8;stroke-linecap:butt;stroke-linejoin:round"
     x="415.85648"
     xlink:href="#mf9d37e6802"
     y="33.825001"
     id="use159"
     width="100%"
     height="100%"
     transform="translate(1.2893242,-26.607812)" />
  <use
     xlink:href="#ArialMT-49"
     id="use164"
     style="stroke-linecap:butt;stroke-linejoin:round"
     x="0"
     y="0"
     width="100%"
     height="100%"
     transform="matrix(0.2,0,0,-0.2,397.68488,296.14482)" />
  <use
     x="55.615234"
     xlink:href="#ArialMT-50"
     id="use166"
     style="stroke-linecap:butt;stroke-linejoin:round"
     y="0"
     width="100%"
     height="100%"
     transform="matrix(0.2,0,0,-0.2,397.68488,296.14482)" />
  <use
     x="111.23047"
     xlink:href="#ArialMT-46"
     id="use168"
     style="stroke-linecap:butt;stroke-linejoin:round"
     y="0"
     width="100%"
     height="100%"
     transform="matrix(0.2,0,0,-0.2,397.68488,296.14482)" />
  <use
     x="139.01367"
     xlink:href="#ArialMT-53"
     id="use170"
     style="stroke-linecap:butt;stroke-linejoin:round"
     y="0"
     width="100%"
     height="100%"
     transform="matrix(0.2,0,0,-0.2,397.68488,296.14482)" />
  <use
     height="100%"
     width="100%"
     y="0"
     x="0"
     style="stroke-linecap:butt;stroke-linejoin:round"
     id="use184"
     xlink:href="#DejaVuSans-Oblique-82"
     transform="matrix(0.2,0,0,-0.2,224.82121,318.70106)" />
  <use
     height="100%"
     width="100%"
     y="0"
     x="0"
     style="stroke-linecap:butt;stroke-linejoin:round"
     id="use186"
     xlink:href="#ArialMT-32"
     transform="matrix(0.2,0,0,-0.2,238.71769,318.70106)" />
  <use
     height="100%"
     width="100%"
     y="0"
     x="0"
     style="stroke-linecap:butt;stroke-linejoin:round"
     id="use188"
     xlink:href="#ArialMT-40"
     transform="matrix(0.2,0,0,-0.2,244.27433,318.70106)" />
  <use
     height="100%"
     width="100%"
     y="0"
     x="0"
     style="stroke-linecap:butt;stroke-linejoin:round"
     id="use190"
     xlink:href="#ArialMT-102"
     transform="matrix(0.2,0,0,-0.2,250.93449,318.70106)" />
  <use
     height="100%"
     width="100%"
     y="0"
     x="0"
     style="stroke-linecap:butt;stroke-linejoin:round"
     id="use192"
     xlink:href="#ArialMT-109"
     transform="matrix(0.2,0,0,-0.2,256.49113,318.70106)" />
  <use
     height="100%"
     width="100%"
     y="0"
     x="0"
     style="stroke-linecap:butt;stroke-linejoin:round"
     id="use194"
     xlink:href="#ArialMT-41"
     transform="matrix(0.2,0,0,-0.2,273.15129,318.70106)" />
  <path
     inkscape:connector-curvature="0"
     id="path200"
     style="fill:none;stroke:#b0b0b0;stroke-width:0.8;stroke-linecap:square;stroke-linejoin:round"
     d="M 72.471875,299.937 H 429.59188"
     clip-path="url(#p86263ed073)"
     transform="translate(1.2893242,-26.607812)" />
  <use
     style="stroke:#000000;stroke-width:0.8;stroke-linecap:butt;stroke-linejoin:round"
     x="72.471878"
     xlink:href="#m15f3893ff1"
     y="299.93701"
     id="use206"
     width="100%"
     height="100%"
     transform="translate(1.2893242,-26.607812)" />
  <use
     style="stroke:#000000;stroke-width:0.8;stroke-linecap:butt;stroke-linejoin:round"
     x="429.59189"
     xlink:href="#mb7ee7bb591"
     y="299.93701"
     id="use214"
     width="100%"
     height="100%"
     transform="translate(1.2893242,-26.607812)" />
  <use
     xlink:href="#ArialMT-8722"
     id="use223"
     style="stroke-linecap:butt;stroke-linejoin:round"
     x="0"
     y="0"
     width="100%"
     height="100%"
     transform="matrix(0.2,0,0,-0.2,30.779949,280.487)" />
  <use
     x="58.398438"
     xlink:href="#ArialMT-48"
     id="use225"
     style="stroke-linecap:butt;stroke-linejoin:round"
     y="0"
     width="100%"
     height="100%"
     transform="matrix(0.2,0,0,-0.2,30.779949,280.487)" />
  <use
     x="114.01367"
     xlink:href="#ArialMT-46"
     id="use227"
     style="stroke-linecap:butt;stroke-linejoin:round"
     y="0"
     width="100%"
     height="100%"
     transform="matrix(0.2,0,0,-0.2,30.779949,280.487)" />
  <use
     x="141.79688"
     xlink:href="#ArialMT-52"
     id="use229"
     style="stroke-linecap:butt;stroke-linejoin:round"
     y="0"
     width="100%"
     height="100%"
     transform="matrix(0.2,0,0,-0.2,30.779949,280.487)" />
  <path
     inkscape:connector-curvature="0"
     id="path235"
     style="fill:none;stroke:#b0b0b0;stroke-width:0.8;stroke-linecap:square;stroke-linejoin:round"
     d="M 72.471875,246.7146 H 429.59188"
     clip-path="url(#p86263ed073)"
     transform="translate(1.2893242,-26.607812)" />
  <use
     style="stroke:#000000;stroke-width:0.8;stroke-linecap:butt;stroke-linejoin:round"
     x="72.471878"
     xlink:href="#m15f3893ff1"
     y="246.7146"
     id="use238"
     width="100%"
     height="100%"
     transform="translate(1.2893242,-26.607812)" />
  <use
     style="stroke:#000000;stroke-width:0.8;stroke-linecap:butt;stroke-linejoin:round"
     x="429.59189"
     xlink:href="#mb7ee7bb591"
     y="246.7146"
     id="use243"
     width="100%"
     height="100%"
     transform="translate(1.2893242,-26.607812)" />
  <use
     xlink:href="#ArialMT-8722"
     id="use248"
     style="stroke-linecap:butt;stroke-linejoin:round"
     x="0"
     y="0"
     width="100%"
     height="100%"
     transform="matrix(0.2,0,0,-0.2,30.779949,227.2646)" />
  <use
     x="58.398438"
     xlink:href="#ArialMT-48"
     id="use250"
     style="stroke-linecap:butt;stroke-linejoin:round"
     y="0"
     width="100%"
     height="100%"
     transform="matrix(0.2,0,0,-0.2,30.779949,227.2646)" />
  <use
     x="114.01367"
     xlink:href="#ArialMT-46"
     id="use252"
     style="stroke-linecap:butt;stroke-linejoin:round"
     y="0"
     width="100%"
     height="100%"
     transform="matrix(0.2,0,0,-0.2,30.779949,227.2646)" />
  <use
     x="141.79688"
     xlink:href="#ArialMT-50"
     id="use254"
     style="stroke-linecap:butt;stroke-linejoin:round"
     y="0"
     width="100%"
     height="100%"
     transform="matrix(0.2,0,0,-0.2,30.779949,227.2646)" />
  <path
     inkscape:connector-curvature="0"
     id="path260"
     style="fill:none;stroke:#b0b0b0;stroke-width:0.8;stroke-linecap:square;stroke-linejoin:round"
     d="M 72.471875,193.4922 H 429.59188"
     clip-path="url(#p86263ed073)"
     transform="translate(1.2893242,-26.607812)" />
  <use
     style="stroke:#000000;stroke-width:0.8;stroke-linecap:butt;stroke-linejoin:round"
     x="72.471878"
     xlink:href="#m15f3893ff1"
     y="193.4922"
     id="use263"
     width="100%"
     height="100%"
     transform="translate(1.2893242,-26.607812)" />
  <use
     style="stroke:#000000;stroke-width:0.8;stroke-linecap:butt;stroke-linejoin:round"
     x="429.59189"
     xlink:href="#mb7ee7bb591"
     y="193.4922"
     id="use268"
     width="100%"
     height="100%"
     transform="translate(1.2893242,-26.607812)" />
  <use
     xlink:href="#ArialMT-48"
     id="use273"
     style="stroke-linecap:butt;stroke-linejoin:round"
     x="0"
     y="0"
     width="100%"
     height="100%"
     transform="matrix(0.2,0,0,-0.2,42.461199,174.0422)" />
  <use
     x="55.615234"
     xlink:href="#ArialMT-46"
     id="use275"
     style="stroke-linecap:butt;stroke-linejoin:round"
     y="0"
     width="100%"
     height="100%"
     transform="matrix(0.2,0,0,-0.2,42.461199,174.0422)" />
  <use
     x="83.398438"
     xlink:href="#ArialMT-48"
     id="use277"
     style="stroke-linecap:butt;stroke-linejoin:round"
     y="0"
     width="100%"
     height="100%"
     transform="matrix(0.2,0,0,-0.2,42.461199,174.0422)" />
  <path
     inkscape:connector-curvature="0"
     id="path283"
     style="fill:none;stroke:#b0b0b0;stroke-width:0.8;stroke-linecap:square;stroke-linejoin:round"
     d="M 72.471875,140.2698 H 429.59188"
     clip-path="url(#p86263ed073)"
     transform="translate(1.2893242,-26.607812)" />
  <use
     style="stroke:#000000;stroke-width:0.8;stroke-linecap:butt;stroke-linejoin:round"
     x="72.471878"
     xlink:href="#m15f3893ff1"
     y="140.26981"
     id="use286"
     width="100%"
     height="100%"
     transform="translate(1.2893242,-26.607812)" />
  <use
     style="stroke:#000000;stroke-width:0.8;stroke-linecap:butt;stroke-linejoin:round"
     x="429.59189"
     xlink:href="#mb7ee7bb591"
     y="140.26981"
     id="use291"
     width="100%"
     height="100%"
     transform="translate(1.2893242,-26.607812)" />
  <use
     xlink:href="#ArialMT-48"
     id="use296"
     style="stroke-linecap:butt;stroke-linejoin:round"
     x="0"
     y="0"
     width="100%"
     height="100%"
     transform="matrix(0.2,0,0,-0.2,42.461199,120.8198)" />
  <use
     x="55.615234"
     xlink:href="#ArialMT-46"
     id="use298"
     style="stroke-linecap:butt;stroke-linejoin:round"
     y="0"
     width="100%"
     height="100%"
     transform="matrix(0.2,0,0,-0.2,42.461199,120.8198)" />
  <use
     x="83.398438"
     xlink:href="#ArialMT-50"
     id="use300"
     style="stroke-linecap:butt;stroke-linejoin:round"
     y="0"
     width="100%"
     height="100%"
     transform="matrix(0.2,0,0,-0.2,42.461199,120.8198)" />
  <path
     inkscape:connector-curvature="0"
     id="path306"
     style="fill:none;stroke:#b0b0b0;stroke-width:0.8;stroke-linecap:square;stroke-linejoin:round"
     d="M 72.471875,87.0474 H 429.59188"
     clip-path="url(#p86263ed073)"
     transform="translate(1.2893242,-26.607812)" />
  <use
     style="stroke:#000000;stroke-width:0.8;stroke-linecap:butt;stroke-linejoin:round"
     x="72.471878"
     xlink:href="#m15f3893ff1"
     y="87.047401"
     id="use309"
     width="100%"
     height="100%"
     transform="translate(1.2893242,-26.607812)" />
  <use
     style="stroke:#000000;stroke-width:0.8;stroke-linecap:butt;stroke-linejoin:round"
     x="429.59189"
     xlink:href="#mb7ee7bb591"
     y="87.047401"
     id="use314"
     width="100%"
     height="100%"
     transform="translate(1.2893242,-26.607812)" />
  <use
     xlink:href="#ArialMT-48"
     id="use319"
     style="stroke-linecap:butt;stroke-linejoin:round"
     x="0"
     y="0"
     width="100%"
     height="100%"
     transform="matrix(0.2,0,0,-0.2,42.461199,67.5974)" />
  <use
     x="55.615234"
     xlink:href="#ArialMT-46"
     id="use321"
     style="stroke-linecap:butt;stroke-linejoin:round"
     y="0"
     width="100%"
     height="100%"
     transform="matrix(0.2,0,0,-0.2,42.461199,67.5974)" />
  <use
     x="83.398438"
     xlink:href="#ArialMT-52"
     id="use323"
     style="stroke-linecap:butt;stroke-linejoin:round"
     y="0"
     width="100%"
     height="100%"
     transform="matrix(0.2,0,0,-0.2,42.461199,67.5974)" />
  <path
     inkscape:connector-curvature="0"
     id="path329"
     style="fill:none;stroke:#b0b0b0;stroke-width:0.8;stroke-linecap:square;stroke-linejoin:round"
     d="M 72.471875,33.825 H 429.59188"
     clip-path="url(#p86263ed073)"
     transform="translate(1.2893242,-26.607812)" />
  <use
     style="stroke:#000000;stroke-width:0.8;stroke-linecap:butt;stroke-linejoin:round"
     x="72.471878"
     xlink:href="#m15f3893ff1"
     y="33.825001"
     id="use332"
     width="100%"
     height="100%"
     transform="translate(1.2893242,-26.607812)" />
  <use
     style="stroke:#000000;stroke-width:0.8;stroke-linecap:butt;stroke-linejoin:round"
     x="429.59189"
     xlink:href="#mb7ee7bb591"
     y="33.825001"
     id="use337"
     width="100%"
     height="100%"
     transform="translate(1.2893242,-26.607812)" />
  <use
     xlink:href="#ArialMT-48"
     id="use345"
     style="stroke-linecap:butt;stroke-linejoin:round"
     x="0"
     y="0"
     width="100%"
     height="100%"
     transform="matrix(0.2,0,0,-0.2,42.461199,14.375)" />
  <use
     x="55.615234"
     xlink:href="#ArialMT-46"
     id="use347"
     style="stroke-linecap:butt;stroke-linejoin:round"
     y="0"
     width="100%"
     height="100%"
     transform="matrix(0.2,0,0,-0.2,42.461199,14.375)" />
  <use
     x="83.398438"
     xlink:href="#ArialMT-54"
     id="use349"
     style="stroke-linecap:butt;stroke-linejoin:round"
     y="0"
     width="100%"
     height="100%"
     transform="matrix(0.2,0,0,-0.2,42.461199,14.375)" />
  <path
     inkscape:connector-curvature="0"
     id="path370"
     style="fill:none;stroke:#000000;stroke-width:3;stroke-linecap:butt;stroke-linejoin:round;stroke-dashoffset:0"
     d="m 72.471875,193.4922 1.373538,-3.1324 2.747077,-1.88355 2.747077,-1.59001 1.373539,-0.60834 1.373538,-0.44334 1.373539,-0.24748 1.373538,0.14237 1.373539,0.41726 1.373538,0.60966 1.373539,0.77332 2.747076,1.89712 2.747077,2.21623 2.747077,2.49115 4.120613,3.85424 1.37354,1.12139 1.37354,0.80686 1.37354,0.58251 1.37354,0.42259 1.37354,0.26984 1.37353,0.12401 2.74708,-0.13412 1.37354,-0.24509 1.37354,-0.36963 1.37354,-0.49151 2.74707,-1.33748 1.37354,-0.84065 2.74708,-2.08858 2.74707,-2.41973 4.12062,-3.99237 5.49415,-5.73525 2.74708,-3.00041 2.74708,-3.36312 2.74707,-3.95177 8.24124,-12.31938 5.49415,-7.57887 4.12061,-5.37813 2.74708,-3.27318 2.74708,-2.9565 2.74708,-2.64781 2.74707,-2.32848 2.74708,-2.12092 2.74708,-1.72706 1.37353,-0.67593 1.37354,-0.52956 1.37354,-0.37522 1.37354,0.016 1.37354,0.18095 1.37354,0.32998 1.37354,0.47102 2.74707,1.29597 4.12062,2.50943 2.74707,1.91601 2.74708,2.23268 1.37354,1.2321 2.74708,2.88731 6.86769,7.57621 4.12061,3.80008 4.12062,3.77081 8.24123,7.75769 4.12062,3.54408 4.12061,3.26413 2.74708,1.92053 4.12061,2.52913 4.12062,2.18638 4.12062,1.87742 4.12061,1.60652 4.12062,1.38032 4.12061,1.15732 4.12062,0.95854 5.49415,1.00803 5.49415,0.7515 6.8677,0.66475 13.73538,0.94712 13.73539,0.66089 17.856,0.67738 17.856,0.5028 13.73538,0.19767 12.36185,0.14262 10.9883,0.10398 h 57.87879 v 0"
     clip-path="url(#p86263ed073)"
     transform="translate(1.2893242,-26.607812)" />
  <path
     inkscape:connector-curvature="0"
     id="path376"
     style="fill:none;stroke:#008000;stroke-width:3;stroke-linecap:butt;stroke-linejoin:round;stroke-dasharray:3, 3;stroke-dashoffset:0"
     d="m 72.471875,193.4922 1.373538,-19.52996 1.373539,-13.39608 1.373538,-14.58294 1.373539,-10.26926 1.373538,-9.02385 1.373539,-6.52241 1.373538,-3.30511 1.373539,-1.21879 1.373538,0.82494 1.373539,2.32848 1.373538,4.07418 1.373539,8.08448 1.373538,11.33637 10.988305,98.35233 2.74708,18.97911 1.37354,7.42985 1.37354,5.07742 1.37354,2.82344 1.37353,0.64932 1.37354,-1.33322 1.37354,-3.15077 1.37354,-4.85388 1.37354,-6.36008 1.37354,-7.87691 1.37353,-9.91534 4.12062,-34.42425 2.74708,-25.88418 4.12061,-35.34819 5.49416,-37.22374 1.37353,-7.96474 1.37354,-5.69213 1.37354,-4.284404 1.37354,-3.539289 1.37354,-2.879332 1.37354,-2.017129 1.37353,-0.99792 1.37354,-0.199584 1.37354,0.486985 1.37354,0.968648 1.37354,1.511516 1.37354,2.054384 1.37354,2.634509 1.37353,3.028355 2.74708,6.812467 2.74708,7.171714 12.36184,29.23507 2.74708,5.68681 1.37354,2.41364 2.74708,4.02627 1.37353,1.9027 5.49416,8.51825 2.74708,3.25721 2.74707,2.78353 4.12062,3.68352 5.49415,4.42119 4.12062,3.0994 2.74707,1.85826 4.12062,2.48256 4.12061,2.21246 4.12062,1.95007 2.74708,1.12911 4.12061,1.45324 5.49416,1.62568 6.86769,1.7574 4.12061,0.83453 12.36185,2.21471 2.74708,0.61938 h 185.61786 v 0"
     clip-path="url(#p86263ed073)"
     transform="translate(1.2893242,-26.607812)" />
  <path
     inkscape:connector-curvature="0"
     id="path382"
     style="fill:none;stroke:#000000;stroke-width:0.8;stroke-linecap:square;stroke-linejoin:miter"
     d="M 73.761199,273.32919 V 7.217188" />
  <path
     inkscape:connector-curvature="0"
     id="path385"
     style="fill:none;stroke:#000000;stroke-width:0.8;stroke-linecap:square;stroke-linejoin:miter"
     d="M 430.88121,273.32919 V 7.217188" />
  <path
     inkscape:connector-curvature="0"
     id="path388"
     style="fill:none;stroke:#000000;stroke-width:0.8;stroke-linecap:square;stroke-linejoin:miter"
     d="M 73.761199,273.32919 H 430.88121" />
  <path
     inkscape:connector-curvature="0"
     id="path391"
     style="fill:none;stroke:#000000;stroke-width:0.8;stroke-linecap:square;stroke-linejoin:miter"
     d="M 73.761199,7.217188 H 430.88121" />
  <use
     transform="matrix(0.2,0,0,-0.2,252.56104,-4.935937)"
     xlink:href="#ArialMT-32"
     id="use411"
     style="stroke-linecap:butt;stroke-linejoin:round"
     x="0"
     y="0"
     width="100%"
     height="100%" />
  <path
     d="m 282.932,28.531277 h 37.8045"
     style="fill:none;stroke:#000000;stroke-width:3.54417;stroke-linecap:butt;stroke-linejoin:round;stroke-dashoffset:0"
     id="path422"
     inkscape:connector-curvature="0" />
  <use
     height="100%"
     width="100%"
     y="0"
     x="0"
     style="stroke-linecap:butt;stroke-linejoin:round"
     id="use430"
     xlink:href="#ArialMT-53"
     transform="matrix(0.1890225,0,0,-0.1890225,335.85829,35.147064)" />
  <use
     height="100%"
     width="100%"
     y="0"
     style="stroke-linecap:butt;stroke-linejoin:round"
     id="use432"
     xlink:href="#ArialMT-66"
     x="55.615234"
     transform="matrix(0.1890225,0,0,-0.1890225,335.85829,35.147064)" />
  <use
     height="100%"
     width="100%"
     y="0"
     style="stroke-linecap:butt;stroke-linejoin:round"
     id="use434"
     xlink:href="#ArialMT-77"
     x="122.31445"
     transform="matrix(0.1890225,0,0,-0.1890225,335.85829,35.147064)" />
  <path
     d="m 282.932,52.006928 h 37.8045"
     style="fill:none;stroke:#008000;stroke-width:3.54417;stroke-linecap:butt;stroke-linejoin:round;stroke-dasharray:3.54417, 3.54417;stroke-dashoffset:0"
     id="path461"
     inkscape:connector-curvature="0" />
  <use
     height="100%"
     width="100%"
     y="0"
     x="0"
     style="stroke-linecap:butt;stroke-linejoin:round"
     id="use468"
     xlink:href="#ArialMT-79"
     transform="matrix(0.1890225,0,0,-0.1890225,335.85829,58.622708)" />
  <use
     height="100%"
     width="100%"
     y="0"
     style="stroke-linecap:butt;stroke-linejoin:round"
     id="use470"
     xlink:href="#ArialMT-67"
     x="77.783203"
     transform="matrix(0.1890225,0,0,-0.1890225,335.85829,58.622708)" />
  <use
     height="100%"
     width="100%"
     y="0"
     style="stroke-linecap:butt;stroke-linejoin:round"
     id="use472"
     xlink:href="#ArialMT-77"
     x="150"
     transform="matrix(0.1890225,0,0,-0.1890225,335.85829,58.622708)" />
  <defs
     id="defs502">
    <clipPath
       id="p86263ed073"
       style="stroke-linecap:butt;stroke-linejoin:round">
      <rect
         height="266.112"
         width="357.12"
         x="72.471878"
         y="33.825001"
         id="rect499"
         style="stroke-linecap:butt;stroke-linejoin:round" />
    </clipPath>
  </defs>
  <g
     id="g6817"
     ns0:preamble="/home/yoshidak/.config/inkscape/extensions/package.tex"
     ns0:text="$R\\varphi_{\\alpha}(R)$\n"
     transform="matrix(0,-3.2573658,3.2573658,0,-414.59955,926.3061)"
     style="stroke-linecap:butt;stroke-linejoin:round">
    <defs
       id="defs6790">
      <g
         id="g2807"
         style="stroke-linecap:butt;stroke-linejoin:round">
        <symbol
           id="symbol2777"
           overflow="visible"
           style="overflow:visible;stroke-linecap:butt;stroke-linejoin:round">
          <path
             id="path2775"
             d=""
             style="stroke:none;stroke-linecap:butt;stroke-linejoin:round"
             inkscape:connector-curvature="0" />
        </symbol>
        <symbol
           id="symbol2781"
           overflow="visible"
           style="overflow:visible;stroke-linecap:butt;stroke-linejoin:round">
          <path
             id="path2779"
             d="m 3.734375,-6.125 c 0.0625,-0.234375 0.09375,-0.328125 0.28125,-0.359375 C 4.109375,-6.5 4.421875,-6.5 4.625,-6.5 c 0.703125,0 1.8125,0 1.8125,0.984375 0,0.34375 -0.15625,1.03125 -0.546875,1.421875 -0.265625,0.25 -0.78125,0.578125 -1.6875,0.578125 H 3.09375 Z m 1.4375,2.734375 c 1.015625,-0.21875 2.1875,-0.921875 2.1875,-1.921875 0,-0.859375 -0.890625,-1.5 -2.203125,-1.5 H 2.328125 c -0.203125,0 -0.296875,0 -0.296875,0.203125 C 2.03125,-6.5 2.125,-6.5 2.3125,-6.5 c 0.015625,0 0.203125,0 0.375,0.015625 0.1875,0.03125 0.265625,0.03125 0.265625,0.171875 0,0.03125 0,0.0625 -0.03125,0.1875 l -1.34375,5.34375 C 1.484375,-0.390625 1.46875,-0.3125 0.671875,-0.3125 0.5,-0.3125 0.40625,-0.3125 0.40625,-0.109375 0.40625,0 0.53125,0 0.546875,0 c 0.28125,0 0.984375,-0.03125 1.25,-0.03125 0.28125,0 1,0.03125 1.28125,0.03125 0.078125,0 0.1875,0 0.1875,-0.203125 0,-0.109375 -0.078125,-0.109375 -0.28125,-0.109375 -0.359375,0 -0.640625,0 -0.640625,-0.171875 0,-0.0625 0.015625,-0.109375 0.03125,-0.171875 l 0.65625,-2.640625 h 1.1875 c 0.90625,0 1.078125,0.5625 1.078125,0.90625 0,0.140625 -0.078125,0.453125 -0.140625,0.6875 C 5.09375,-1.421875 5,-1.0625 5,-0.859375 5,0.21875 6.203125,0.21875 6.328125,0.21875 c 0.84375,0 1.203125,-1 1.203125,-1.140625 0,-0.125 -0.109375,-0.125 -0.125,-0.125 -0.09375,0 -0.109375,0.0625 -0.125,0.140625 C 7.03125,-0.171875 6.59375,0 6.375,0 6.046875,0 5.96875,-0.21875 5.96875,-0.609375 c 0,-0.3125 0.0625,-0.8125 0.109375,-1.140625 0.015625,-0.140625 0.03125,-0.328125 0.03125,-0.46875 0,-0.765625 -0.671875,-1.078125 -0.9375,-1.171875 z m 0,0"
             style="stroke:none;stroke-linecap:butt;stroke-linejoin:round"
             inkscape:connector-curvature="0" />
        </symbol>
        <symbol
           id="symbol2785"
           overflow="visible"
           style="overflow:visible;stroke-linecap:butt;stroke-linejoin:round">
          <path
             id="path2783"
             d="M 1.6875,1.6875 C 1.65625,1.828125 1.640625,1.84375 1.640625,1.890625 c 0,0.21875 0.1875,0.28125 0.296875,0.28125 0.046875,0 0.265625,-0.03125 0.359375,-0.265625 C 2.328125,1.828125 2.375,1.5 2.65625,0.09375 c 0.078125,0 0.15625,0.015625 0.328125,0.015625 1.65625,0 3.1875,-1.5625 3.1875,-3.140625 0,-0.78125 -0.390625,-1.375 -1.140625,-1.375 -1.4375,0 -2.046875,1.9375 -2.640625,3.875 C 1.3125,-0.734375 0.75,-1.28125 0.75,-2 c 0,-0.28125 0.234375,-1.375 0.828125,-2.0625 0.09375,-0.09375 0.09375,-0.109375 0.09375,-0.140625 0,-0.03125 -0.03125,-0.09375 -0.125,-0.09375 -0.28125,0 -1.046875,1.453125 -1.046875,2.40625 0,0.9375 0.65625,1.65625 1.71875,1.90625 z m 1.390625,-2.15625 c -0.09375,0 -0.109375,0 -0.1875,-0.015625 -0.125,0 -0.125,0 -0.125,-0.03125 0,-0.015625 0.171875,-0.9375 0.1875,-1.078125 0.3125,-1.28125 1.09375,-2.234375 1.984375,-2.234375 0.6875,0 0.953125,0.53125 0.953125,1.015625 0,1.125 -1.28125,2.34375 -2.8125,2.34375 z m 0,0"
             style="stroke:none;stroke-linecap:butt;stroke-linejoin:round"
             inkscape:connector-curvature="0" />
        </symbol>
        <symbol
           id="symbol2789"
           overflow="visible"
           style="overflow:visible;stroke-linecap:butt;stroke-linejoin:round">
          <path
             id="path2787"
             d=""
             style="stroke:none;stroke-linecap:butt;stroke-linejoin:round"
             inkscape:connector-curvature="0" />
        </symbol>
        <symbol
           id="symbol2793"
           overflow="visible"
           style="overflow:visible;stroke-linecap:butt;stroke-linejoin:round">
          <path
             id="path2791"
             d="m 3.8125,-0.984375 c 0.640625,-0.65625 0.890625,-1.59375 0.890625,-1.65625 0,-0.09375 -0.078125,-0.09375 -0.109375,-0.09375 C 4.5,-2.734375 4.5,-2.71875 4.453125,-2.5625 4.328125,-2.109375 4.09375,-1.671875 3.796875,-1.296875 3.796875,-1.40625 3.78125,-1.875 3.765625,-1.9375 3.65625,-2.625 3.140625,-3.078125 2.4375,-3.078125 c -1.015625,0 -2,0.953125 -2,1.9375 0,0.640625 0.46875,1.203125 1.265625,1.203125 0.640625,0 1.21875,-0.28125 1.609375,-0.578125 0.171875,0.5 0.515625,0.578125 0.734375,0.578125 0.40625,0 0.65625,-0.328125 0.65625,-0.484375 C 4.703125,-0.5 4.609375,-0.5 4.578125,-0.5 c -0.09375,0 -0.109375,0.03125 -0.125,0.0625 -0.09375,0.265625 -0.3125,0.3125 -0.390625,0.3125 -0.09375,0 -0.21875,0 -0.25,-0.859375 z M 3.265625,-0.75 C 2.578125,-0.1875 2,-0.125 1.734375,-0.125 c -0.46875,0 -0.71875,-0.3125 -0.71875,-0.78125 0,-0.1875 0.09375,-0.953125 0.453125,-1.4375 C 1.796875,-2.765625 2.1875,-2.875 2.4375,-2.875 c 0.546875,0 0.71875,0.53125 0.765625,0.96875 0.046875,0.296875 0.03125,0.796875 0.0625,1.15625 z m 0,0"
             style="stroke:none;stroke-linecap:butt;stroke-linejoin:round"
             inkscape:connector-curvature="0" />
        </symbol>
        <symbol
           id="symbol2797"
           overflow="visible"
           style="overflow:visible;stroke-linecap:butt;stroke-linejoin:round">
          <path
             id="path2795"
             d=""
             style="stroke:none;stroke-linecap:butt;stroke-linejoin:round"
             inkscape:connector-curvature="0" />
        </symbol>
        <symbol
           id="symbol2801"
           overflow="visible"
           style="overflow:visible;stroke-linecap:butt;stroke-linejoin:round">
          <path
             id="path2799"
             d="m 3.296875,2.390625 c 0,-0.03125 0,-0.046875 -0.171875,-0.21875 C 1.890625,0.921875 1.5625,-0.96875 1.5625,-2.5 c 0,-1.734375 0.375,-3.46875 1.609375,-4.703125 0.125,-0.125 0.125,-0.140625 0.125,-0.171875 0,-0.078125 -0.03125,-0.109375 -0.09375,-0.109375 -0.109375,0 -1,0.6875 -1.59375,1.953125 -0.5,1.09375 -0.625,2.203125 -0.625,3.03125 0,0.78125 0.109375,1.984375 0.65625,3.125 C 2.25,1.84375 3.09375,2.5 3.203125,2.5 c 0.0625,0 0.09375,-0.03125 0.09375,-0.109375 z m 0,0"
             style="stroke:none;stroke-linecap:butt;stroke-linejoin:round"
             inkscape:connector-curvature="0" />
        </symbol>
        <symbol
           id="symbol2805"
           overflow="visible"
           style="overflow:visible;stroke-linecap:butt;stroke-linejoin:round">
          <path
             id="path2803"
             d="m 2.875,-2.5 c 0,-0.765625 -0.109375,-1.96875 -0.65625,-3.109375 -0.59375,-1.21875 -1.453125,-1.875 -1.546875,-1.875 -0.0625,0 -0.109375,0.046875 -0.109375,0.109375 0,0.03125 0,0.046875 0.1875,0.234375 0.984375,0.984375 1.546875,2.5625 1.546875,4.640625 0,1.71875 -0.359375,3.46875 -1.59375,4.71875 C 0.5625,2.34375 0.5625,2.359375 0.5625,2.390625 0.5625,2.453125 0.609375,2.5 0.671875,2.5 0.765625,2.5 1.671875,1.8125 2.25,0.546875 2.765625,-0.546875 2.875,-1.65625 2.875,-2.5 Z m 0,0"
             style="stroke:none;stroke-linecap:butt;stroke-linejoin:round"
             inkscape:connector-curvature="0" />
        </symbol>
      </g>
    </defs>
    <g
       id="textext-7f088ae2-8"
       style="stroke-linecap:butt;stroke-linejoin:round">
      <g
         id="g6794"
         style="fill:#000000;fill-opacity:1;stroke-linecap:butt;stroke-linejoin:round">
        <use
           id="use6792"
           y="134.765"
           x="223.43201"
           xlink:href="#textext-7f088ae2-1"
           style="stroke-linecap:butt;stroke-linejoin:round"
           width="100%"
           height="100%" />
      </g>
      <g
         id="g6798"
         style="fill:#000000;fill-opacity:1;stroke-linecap:butt;stroke-linejoin:round">
        <use
           id="use6796"
           y="134.765"
           x="231.07631"
           xlink:href="#textext-7f088ae2-2"
           style="stroke-linecap:butt;stroke-linejoin:round"
           width="100%"
           height="100%" />
      </g>
      <g
         id="g6802"
         style="fill:#000000;fill-opacity:1;stroke-linecap:butt;stroke-linejoin:round">
        <use
           id="use6800"
           y="136.259"
           x="237.591"
           xlink:href="#textext-7f088ae2-4"
           style="stroke-linecap:butt;stroke-linejoin:round"
           width="100%"
           height="100%" />
      </g>
      <g
         id="g6806"
         style="fill:#000000;fill-opacity:1;stroke-linecap:butt;stroke-linejoin:round">
        <use
           id="use6804"
           y="134.765"
           x="243.26801"
           xlink:href="#textext-7f088ae2-6"
           style="stroke-linecap:butt;stroke-linejoin:round"
           width="100%"
           height="100%" />
      </g>
      <g
         id="g6810"
         style="fill:#000000;fill-opacity:1;stroke-linecap:butt;stroke-linejoin:round">
        <use
           id="use6808"
           y="134.765"
           x="247.14301"
           xlink:href="#textext-7f088ae2-1"
           style="stroke-linecap:butt;stroke-linejoin:round"
           width="100%"
           height="100%" />
      </g>
      <g
         id="g6814"
         style="fill:#000000;fill-opacity:1;stroke-linecap:butt;stroke-linejoin:round">
        <use
           id="use6812"
           y="134.765"
           x="254.784"
           xlink:href="#textext-7f088ae2-7"
           style="stroke-linecap:butt;stroke-linejoin:round"
           width="100%"
           height="100%" />
      </g>
    </g>
  </g>
</svg>
