<?xml version="1.0" encoding="UTF-8" standalone="no"?>
<!-- Created with matplotlib (https://matplotlib.org/) -->

<svg
   xmlns:dc="http://purl.org/dc/elements/1.1/"
   xmlns:cc="http://creativecommons.org/ns#"
   xmlns:rdf="http://www.w3.org/1999/02/22-rdf-syntax-ns#"
   xmlns:svg="http://www.w3.org/2000/svg"
   xmlns="http://www.w3.org/2000/svg"
   xmlns:xlink="http://www.w3.org/1999/xlink"
   xmlns:sodipodi="http://sodipodi.sourceforge.net/DTD/sodipodi-0.dtd"
   xmlns:inkscape="http://www.inkscape.org/namespaces/inkscape"
   height="333.99844pt"
   version="1.1"
   viewBox="0 0 454.73869 333.99843"
   width="454.73868pt"
   id="svg470"
   sodipodi:docname="search_msk.svg"
   inkscape:version="0.92.5 (2060ec1f9f, 2020-04-08)">
  <sodipodi:namedview
     pagecolor="#ffffff"
     bordercolor="#666666"
     borderopacity="1"
     objecttolerance="10"
     gridtolerance="10"
     guidetolerance="10"
     inkscape:pageopacity="0"
     inkscape:pageshadow="2"
     inkscape:window-width="1920"
     inkscape:window-height="1018"
     id="namedview472"
     showgrid="false"
     fit-margin-top="0"
     fit-margin-left="0"
     fit-margin-right="0"
     fit-margin-bottom="0"
     inkscape:zoom="0.68029839"
     inkscape:cx="138.39972"
     inkscape:cy="271.58154"
     inkscape:window-x="0"
     inkscape:window-y="0"
     inkscape:window-maximized="1"
     inkscape:current-layer="svg470" />
  <metadata
     id="metadata2">
    <rdf:RDF>
      <cc:Work>
        <dc:type
           rdf:resource="http://purl.org/dc/dcmitype/StillImage" />
        <dc:date>2021-01-15T14:37:39.046023</dc:date>
        <dc:format>image/svg+xml</dc:format>
        <dc:creator>
          <cc:Agent>
            <dc:title>Matplotlib v3.3.2, https://matplotlib.org/</dc:title>
          </cc:Agent>
        </dc:creator>
        <dc:title></dc:title>
      </cc:Work>
    </rdf:RDF>
  </metadata>
  <defs
     id="defs6"
     style="stroke-linecap:butt;stroke-linejoin:round">
    <style
       type="text/css"
       id="style4">*{stroke-linecap:butt;stroke-linejoin:round;}</style>
    <defs
       id="defs451">
      <path
         style="stroke-linecap:butt;stroke-linejoin:round"
         inkscape:connector-curvature="0"
         id="ArialMT-53"
         d="M 4.15625,18.75 13.375,19.53125 Q 14.40625,12.796875 18.140625,9.390625 21.875,6 27.15625,6 33.5,6 37.890625,10.78125 42.28125,15.578125 42.28125,23.484375 42.28125,31 38.0625,35.34375 33.84375,39.703125 27,39.703125 q -4.25,0 -7.671875,-1.9375 -3.40625,-1.921875 -5.359375,-5 l -8.25,1.078125 6.921875,36.765625 H 48.25 v -8.40625 H 19.671875 L 15.828125,42.96875 q 6.4375,4.5 13.515625,4.5 9.375,0 15.8125,-6.5 6.453125,-6.5 6.453125,-16.703125 0,-9.71875 -5.65625,-16.796875 -6.890625,-8.6875 -18.796875,-8.6875 -9.765625,0 -15.953125,5.46875 Q 5.03125,9.71875 4.15625,18.75 Z" />
      <path
         style="stroke-linecap:butt;stroke-linejoin:round"
         inkscape:connector-curvature="0"
         id="ArialMT-66"
         d="M 7.328125,0 V 71.578125 H 34.1875 q 8.203125,0 13.15625,-2.171875 4.953125,-2.171875 7.75,-6.6875 2.8125,-4.515625 2.8125,-9.453125 0,-4.578125 -2.484375,-8.640625 Q 52.9375,40.578125 47.90625,38.09375 54.390625,36.1875 57.875,31.59375 61.375,27 61.375,20.75 61.375,15.71875 59.25,11.390625 57.125,7.078125 54,4.734375 50.875,2.390625 46.15625,1.1875 41.453125,0 34.625,0 Z m 9.46875,41.5 H 32.28125 q 6.296875,0 9.03125,0.828125 3.609375,1.078125 5.4375,3.5625 1.828125,2.5 1.828125,6.265625 0,3.5625 -1.703125,6.265625 -1.703125,2.71875 -4.890625,3.71875 -3.171875,1 -10.875,1 h -14.3125 z m 0,-33.046875 H 34.625 q 4.578125,0 6.4375,0.34375 3.28125,0.578125 5.46875,1.9375 2.203125,1.375 3.609375,3.984375 1.421875,2.609375 1.421875,6.03125 0,4 -2.046875,6.953125 -2.046875,2.96875 -5.6875,4.15625 Q 40.1875,33.0625 33.34375,33.0625 H 16.796875 Z" />
    </defs>
    <defs
       id="defs211">
      <path
         inkscape:connector-curvature="0"
         style="stroke:#000000;stroke-width:0.80000001;stroke-linecap:butt;stroke-linejoin:round"
         id="m41eddbe12c"
         d="M 0,0 H -3.5" />
    </defs>
    <defs
       id="defs203">
      <path
         inkscape:connector-curvature="0"
         style="stroke:#000000;stroke-width:0.80000001;stroke-linecap:butt;stroke-linejoin:round"
         id="m23a3a3986c"
         d="M 0,0 H 3.5" />
    </defs>
    <defs
       id="defs357">
      <path
         style="stroke-linecap:butt;stroke-linejoin:round"
         inkscape:connector-curvature="0"
         id="ArialMT-77"
         d="M 7.421875,0 V 71.578125 H 21.6875 L 38.625,20.90625 q 2.34375,-7.09375 3.421875,-10.609375 1.21875,3.90625 3.796875,11.484375 l 17.140625,49.796875 h 12.75 V 0 h -9.125 V 59.90625 L 45.796875,0 H 37.25 L 16.546875,60.9375 V 0 Z" />
      <path
         style="stroke-linecap:butt;stroke-linejoin:round"
         inkscape:connector-curvature="0"
         id="ArialMT-97"
         d="M 40.4375,6.390625 Q 35.546875,2.25 31.03125,0.53125 q -4.515625,-1.703125 -9.6875,-1.703125 -8.546875,0 -13.140625,4.171875 -4.59375,4.171875 -4.59375,10.671875 0,3.8125 1.734375,6.953125 1.734375,3.15625 4.546875,5.0625 2.8125,1.90625 6.328125,2.875 2.578125,0.6875 7.8125,1.328125 10.640625,1.265625 15.671875,3.015625 0.04687,1.8125 0.04687,2.296875 0,5.375 -2.5,7.578125 -3.359375,2.96875 -10,2.96875 -6.203125,0 -9.15625,-2.171875 -2.953125,-2.171875 -4.375,-7.6875 L 5.125,37.0625 q 1.171875,5.515625 3.859375,8.90625 2.6875,3.390625 7.765625,5.21875 5.078125,1.84375 11.765625,1.84375 6.640625,0 10.78125,-1.5625 4.15625,-1.5625 6.109375,-3.9375 1.953125,-2.359375 2.734375,-5.984375 0.4375,-2.234375 0.4375,-8.09375 v -11.71875 q 0,-12.265625 0.5625,-15.515625 Q 49.703125,2.984375 51.375,0 h -9.1875 q -1.359375,2.734375 -1.75,6.390625 z M 39.703125,26.03125 Q 34.90625,24.078125 25.34375,22.703125 19.921875,21.921875 17.671875,20.9375 15.4375,19.96875 14.203125,18.09375 q -1.21875,-1.875 -1.21875,-4.171875 0,-3.515625 2.65625,-5.859375 2.671875,-2.34375 7.796875,-2.34375 5.078125,0 9.03125,2.21875 3.953125,2.21875 5.8125,6.078125 1.421875,2.984375 1.421875,8.78125 z" />
      <path
         style="stroke-linecap:butt;stroke-linejoin:round"
         inkscape:connector-curvature="0"
         id="ArialMT-115"
         d="m 3.078125,15.484375 8.6875,1.359375 Q 12.5,11.625 15.84375,8.84375 19.1875,6.0625 25.203125,6.0625 q 6.046875,0 8.96875,2.453125 2.9375,2.46875 2.9375,5.796875 0,2.96875 -2.59375,4.6875 Q 32.71875,20.171875 25.53125,21.96875 15.875,24.421875 12.140625,26.203125 8.40625,27.984375 6.46875,31.125 q -1.921875,3.15625 -1.921875,6.96875 0,3.453125 1.578125,6.40625 1.59375,2.96875 4.328125,4.921875 2.046875,1.5 5.578125,2.546875 3.546875,1.0625 7.609375,1.0625 6.09375,0 10.703125,-1.765625 4.625,-1.75 6.8125,-4.765625 2.203125,-3 3.03125,-8.015625 L 35.59375,37.3125 q -0.578125,4 -3.390625,6.234375 -2.8125,2.25 -7.9375,2.25 -6.046875,0 -8.640625,-2 -2.59375,-2 -2.59375,-4.6875 0,-1.703125 1.078125,-3.078125 1.078125,-1.40625 3.375,-2.34375 1.3125,-0.484375 7.765625,-2.234375 9.328125,-2.5 13,-4.09375 3.6875,-1.578125 5.78125,-4.609375 2.109375,-3.015625 2.109375,-7.515625 0,-4.390625 -2.5625,-8.28125 -2.5625,-3.875 -7.40625,-6 -4.828125,-2.125 -10.921875,-2.125 -10.109375,0 -15.40625,4.203125 -5.296875,4.203125 -6.765625,12.453125 z" />
      <path
         style="stroke-linecap:butt;stroke-linejoin:round"
         inkscape:connector-curvature="0"
         id="ArialMT-107"
         d="M 6.640625,0 V 71.578125 H 15.4375 v -40.8125 l 20.796875,21.09375 h 11.375 L 27.78125,32.625 49.609375,0 H 38.765625 L 21.625,26.515625 15.4375,20.5625 V 0 Z" />
      <path
         style="stroke-linecap:butt;stroke-linejoin:round"
         inkscape:connector-curvature="0"
         id="ArialMT-105"
         d="M 6.640625,61.46875 V 71.578125 H 15.4375 V 61.46875 Z M 6.640625,0 V 51.859375 H 15.4375 V 0 Z" />
      <path
         style="stroke-linecap:butt;stroke-linejoin:round"
         inkscape:connector-curvature="0"
         id="ArialMT-110"
         d="M 6.59375,0 V 51.859375 H 14.5 v -7.375 q 5.71875,8.546875 16.5,8.546875 4.6875,0 8.625,-1.6875 3.9375,-1.6875 5.890625,-4.421875 Q 47.46875,44.1875 48.25,40.4375 48.734375,37.984375 48.734375,31.890625 V 0 H 39.9375 v 31.546875 q 0,5.375 -1.03125,8.03125 -1.015625,2.65625 -3.625,4.234375 -2.609375,1.59375 -6.125,1.59375 -5.625,0 -9.703125,-3.5625 Q 15.375,38.28125 15.375,28.328125 V 0 Z" />
      <path
         style="stroke-linecap:butt;stroke-linejoin:round"
         inkscape:connector-curvature="0"
         id="ArialMT-103"
         d="M 4.984375,-4.296875 13.53125,-5.5625 q 0.53125,-3.953125 2.96875,-5.765625 3.28125,-2.4375 8.9375,-2.4375 6.109375,0 9.421875,2.4375 3.328125,2.4375 4.5,6.828125 0.6875,2.6875 0.625,11.28125 Q 34.234375,0 25.640625,0 14.9375,0 9.078125,7.71875 q -5.859375,7.71875 -5.859375,18.5 0,7.421875 2.6875,13.6875 2.6875,6.28125 7.78125,9.703125 5.109375,3.421875 12,3.421875 9.171875,0 15.140625,-7.421875 v 6.25 h 8.09375 V 7.03125 q 0,-12.109375 -2.46875,-17.15625 -2.453125,-5.0625 -7.8125,-7.984375 -5.34375,-2.9375 -13.15625,-2.9375 -9.265625,0 -14.984375,4.171875 -5.71875,4.171875 -5.515625,12.578125 z M 12.25,26.859375 q 0,-10.203125 4.046875,-14.890625 4.0625,-4.6875 10.171875,-4.6875 6.046875,0 10.140625,4.65625 4.109375,4.671875 4.109375,14.625 0,9.515625 -4.21875,14.34375 Q 32.28125,45.75 26.3125,45.75 q -5.859375,0 -9.96875,-4.765625 -4.09375,-4.75 -4.09375,-14.125 z" />
      <path
         style="stroke-linecap:butt;stroke-linejoin:round"
         inkscape:connector-curvature="0"
         id="ArialMT-117"
         d="m 40.578125,0 v 7.625 q -6.0625,-8.796875 -16.453125,-8.796875 -4.59375,0 -8.578125,1.75 Q 11.578125,2.34375 9.640625,5 7.71875,7.671875 6.9375,11.53125 6.390625,14.109375 6.390625,19.734375 v 32.125 H 15.1875 V 23.09375 q 0,-6.875 0.53125,-9.28125 0.828125,-3.453125 3.515625,-5.4375 2.6875,-1.984375 6.640625,-1.984375 3.953125,0 7.421875,2.03125 3.46875,2.03125 4.90625,5.515625 1.453125,3.5 1.453125,10.140625 v 27.78125 H 48.4375 V 0 Z" />
      <path
         style="stroke-linecap:butt;stroke-linejoin:round"
         inkscape:connector-curvature="0"
         id="ArialMT-99"
         d="m 40.4375,19 8.640625,-1.125 Q 47.65625,8.9375 41.8125,3.875 35.984375,-1.171875 27.484375,-1.171875 16.84375,-1.171875 10.375,5.78125 3.90625,12.75 3.90625,25.734375 q 0,8.390625 2.78125,14.6875 2.78125,6.3125 8.46875,9.453125 5.6875,3.15625 12.390625,3.15625 8.4375,0 13.8125,-4.28125 5.375,-4.265625 6.890625,-12.125 l -8.546875,-1.328125 q -1.21875,5.234375 -4.328125,7.859375 -3.09375,2.640625 -7.5,2.640625 -6.640625,0 -10.796875,-4.765625 -4.140625,-4.75 -4.140625,-15.046875 0,-10.453125 4,-15.1875 Q 20.953125,6.0625 27.390625,6.0625 32.5625,6.0625 36.03125,9.234375 39.5,12.40625 40.4375,19 Z" />
      <path
         style="stroke-linecap:butt;stroke-linejoin:round"
         inkscape:connector-curvature="0"
         id="ArialMT-116"
         d="M 25.78125,7.859375 27.046875,0.09375 Q 23.34375,-0.6875 20.40625,-0.6875 15.625,-0.6875 12.984375,0.828125 10.359375,2.34375 9.28125,4.8125 8.203125,7.28125 8.203125,15.1875 v 29.828125 h -6.4375 v 6.84375 h 6.4375 v 12.84375 L 16.9375,69.96875 V 51.859375 h 8.84375 v -6.84375 H 16.9375 v -30.3125 q 0,-3.765625 0.46875,-4.84375 0.46875,-1.0625 1.515625,-1.703125 1.046875,-0.640625 3,-0.640625 1.46875,0 3.859375,0.34375 z" />
      <path
         style="stroke-linecap:butt;stroke-linejoin:round"
         inkscape:connector-curvature="0"
         id="ArialMT-111"
         d="m 3.328125,25.921875 q 0,14.40625 8,21.34375 6.6875,5.765625 16.3125,5.765625 10.6875,0 17.46875,-7.015625 6.796875,-7 6.796875,-19.359375 0,-10 -3,-15.75 -3,-5.734375 -8.75,-8.90625 Q 34.421875,-1.171875 27.640625,-1.171875 16.75,-1.171875 10.03125,5.8125 3.328125,12.796875 3.328125,25.921875 Z m 9.03125,0 q 0,-9.953125 4.34375,-14.90625 4.34375,-4.953125 10.9375,-4.953125 6.546875,0 10.890625,4.96875 4.34375,4.984375 4.34375,15.1875 0,9.625 -4.375,14.578125 Q 34.125,45.75 27.640625,45.75 q -6.59375,0 -10.9375,-4.9375 -4.34375,-4.921875 -4.34375,-14.890625 z" />
    </defs>
    <defs
       id="defs26">
      <path
         inkscape:connector-curvature="0"
         style="stroke:#000000;stroke-width:0.80000001;stroke-linecap:butt;stroke-linejoin:round"
         id="m472c1232ef"
         d="M 0,0 V 3.5" />
    </defs>
    <defs
       id="defs18">
      <path
         inkscape:connector-curvature="0"
         style="stroke:#000000;stroke-width:0.80000001;stroke-linecap:butt;stroke-linejoin:round"
         id="m3020998e9b"
         d="M 0,0 V -3.5" />
    </defs>
    <defs
       id="defs181">
      <path
         style="stroke-linecap:butt;stroke-linejoin:round"
         inkscape:connector-curvature="0"
         id="DejaVuSans-Oblique-82"
         d="m 25.203125,64.796875 -4.984375,-25.875 h 12.6875 q 7.46875,0 12.078125,4.125 4.625,4.125 4.625,10.765625 0,5.3125 -3.109375,8.140625 -3.09375,2.84375 -8.90625,2.84375 z M 43.3125,35.015625 q 3.125,-0.734375 5.203125,-3.625 2.078125,-2.875 4.8125,-11.46875 L 59.515625,0 H 49.125 l -5.71875,18.703125 q -2.1875,7.21875 -5.078125,9.65625 Q 35.453125,30.8125 29.5,30.8125 H 18.609375 L 12.59375,0 H 2.6875 l 14.203125,72.90625 h 22.21875 q 10.109375,0 15.5,-4.578125 5.40625,-4.5625 5.40625,-13.15625 0,-7.609375 -4.59375,-13.1875 -4.59375,-5.5625 -12.109375,-6.96875 z" />
      <path
         style="stroke-linecap:butt;stroke-linejoin:round"
         inkscape:connector-curvature="0"
         d=""
         id="ArialMT-32" />
      <path
         style="stroke-linecap:butt;stroke-linejoin:round"
         inkscape:connector-curvature="0"
         id="ArialMT-40"
         d="m 23.390625,-21.046875 q -7.28125,9.1875 -12.3125,21.484375 Q 6.0625,12.75 6.0625,25.921875 q 0,11.625 3.75,22.265625 4.390625,12.359375 13.578125,24.609375 H 29.6875 q -5.90625,-10.15625 -7.8125,-14.5 -2.984375,-6.734375 -4.6875,-14.0625 -2.09375,-9.125 -2.09375,-18.359375 0,-23.484375 14.59375,-46.921875 z" />
      <path
         style="stroke-linecap:butt;stroke-linejoin:round"
         inkscape:connector-curvature="0"
         id="ArialMT-102"
         d="M 8.6875,0 V 45.015625 H 0.921875 v 6.84375 H 8.6875 V 57.375 q 0,5.21875 0.9375,7.765625 1.265625,3.421875 4.453125,5.53125 3.203125,2.125 8.96875,2.125 3.71875,0 8.203125,-0.875 l -1.3125,-7.65625 Q 27.203125,64.75 24.75,64.75 q -4,0 -5.65625,-1.71875 -1.65625,-1.703125 -1.65625,-6.390625 v -4.78125 h 10.109375 v -6.84375 H 17.4375 V 0 Z" />
      <path
         style="stroke-linecap:butt;stroke-linejoin:round"
         inkscape:connector-curvature="0"
         id="ArialMT-109"
         d="m 6.59375,0 v 51.859375 h 7.859375 v -7.28125 q 2.4375,3.8125 6.484375,6.125 4.0625,2.328125 9.234375,2.328125 5.765625,0 9.453125,-2.390625 3.6875,-2.390625 5.203125,-6.6875 6.15625,9.078125 16.015625,9.078125 7.71875,0 11.859375,-4.28125 4.15625,-4.265625 4.15625,-13.15625 V 0 h -8.75 v 32.671875 q 0,5.265625 -0.859375,7.578125 -0.84375,2.328125 -3.09375,3.734375 -2.234375,1.421875 -5.265625,1.421875 -5.46875,0 -9.09375,-3.640625 Q 46.1875,38.140625 46.1875,30.125 V 0 h -8.78125 v 33.6875 q 0,5.859375 -2.15625,8.78125 -2.140625,2.9375 -7.03125,2.9375 -3.703125,0 -6.859375,-1.953125 Q 18.21875,41.5 16.796875,37.734375 15.375,33.984375 15.375,26.90625 V 0 Z" />
      <path
         style="stroke-linecap:butt;stroke-linejoin:round"
         inkscape:connector-curvature="0"
         id="ArialMT-41"
         d="M 12.359375,-21.046875 H 6.0625 q 14.59375,23.4375 14.59375,46.921875 0,9.1875 -2.09375,18.21875 -1.671875,7.328125 -4.640625,14.0625 -1.90625,4.390625 -7.859375,14.640625 h 6.296875 Q 21.53125,60.546875 25.921875,48.1875 29.6875,37.546875 29.6875,25.921875 29.6875,12.75 24.625,0.4375 19.578125,-11.859375 12.359375,-21.046875 Z" />
    </defs>
    <defs
       id="defs144">
      <path
         d="m 37.25,0 h -8.78125 v 56 q -3.171875,-3.015625 -8.328125,-6.046875 -5.15625,-3.03125 -9.25,-4.546875 v 8.5 q 7.375,3.46875 12.890625,8.390625 5.515625,4.9375 7.8125,9.578125 H 37.25 Z"
         id="ArialMT-49"
         inkscape:connector-curvature="0"
         style="stroke-linecap:butt;stroke-linejoin:round" />
    </defs>
    <defs
       id="defs122">
      <path
         d="m 17.671875,38.8125 q -5.46875,2.015625 -8.109375,5.71875 -2.625,3.71875 -2.625,8.890625 0,7.8125 5.609375,13.125 5.625,5.328125 14.9375,5.328125 9.375,0 15.09375,-5.453125 5.71875,-5.4375 5.71875,-13.25 0,-4.984375 -2.625,-8.671875 Q 43.0625,40.828125 37.75,38.8125 q 6.59375,-2.140625 10.03125,-6.9375 3.4375,-4.78125 3.4375,-11.421875 0,-9.171875 -6.5,-15.421875 -6.484375,-6.25 -17.078125,-6.25 -10.59375,0 -17.09375,6.265625 -6.5,6.28125 -6.5,15.65625 0,6.984375 3.546875,11.6875 3.546875,4.71875 10.078125,6.421875 z m -1.75,14.90625 q 0,-5.078125 3.265625,-8.3125 3.28125,-3.21875 8.5,-3.21875 5.078125,0 8.328125,3.1875 3.25,3.203125 3.25,7.84375 0,4.84375 -3.359375,8.140625 -3.34375,3.296875 -8.3125,3.296875 -5.03125,0 -8.359375,-3.234375 -3.3125,-3.21875 -3.3125,-7.703125 z M 13.09375,20.65625 q 0,-3.765625 1.78125,-7.28125 Q 16.65625,9.859375 20.171875,7.921875 23.6875,6 27.734375,6 34.03125,6 38.125,10.046875 q 4.109375,4.0625 4.109375,10.3125 0,6.34375 -4.21875,10.5 -4.21875,4.15625 -10.578125,4.15625 -6.203125,0 -10.28125,-4.109375 -4.0625,-4.09375 -4.0625,-10.25 z"
         id="ArialMT-56"
         inkscape:connector-curvature="0"
         style="stroke-linecap:butt;stroke-linejoin:round" />
    </defs>
    <defs
       id="defs100">
      <path
         d="M 49.75,54.046875 41.015625,53.375 q -1.171875,5.171875 -3.3125,7.515625 -3.578125,3.765625 -8.796875,3.765625 -4.203125,0 -7.375,-2.34375 Q 17.390625,59.28125 14.984375,53.46875 12.59375,47.65625 12.5,36.921875 15.671875,41.75 20.265625,44.09375 q 4.59375,2.34375 9.625,2.34375 8.78125,0 14.953125,-6.46875 Q 51.03125,33.5 51.03125,23.25 51.03125,16.5 48.125,10.71875 45.21875,4.9375 40.140625,1.859375 35.0625,-1.21875 28.609375,-1.21875 17.625,-1.21875 10.6875,6.859375 3.765625,14.9375 3.765625,33.5 q 0,20.75 7.65625,30.171875 6.6875,8.203125 18.015625,8.203125 8.453125,0 13.84375,-4.734375 Q 48.6875,62.40625 49.75,54.046875 Z M 13.875,23.1875 q 0,-4.53125 1.921875,-8.6875 Q 17.71875,10.359375 21.1875,8.171875 24.65625,6 28.46875,6 q 5.5625,0 9.5625,4.484375 4.015625,4.5 4.015625,12.21875 0,7.421875 -3.96875,11.6875 -3.953125,4.28125 -9.953125,4.28125 -5.953125,0 -10.109375,-4.28125 Q 13.875,30.125 13.875,23.1875 Z"
         id="ArialMT-54"
         inkscape:connector-curvature="0"
         style="stroke-linecap:butt;stroke-linejoin:round" />
    </defs>
    <defs
       id="defs78">
      <path
         d="m 32.328125,0 v 17.140625 h -31.0625 v 8.0625 l 32.671875,46.375 h 7.171875 v -46.375 h 9.671875 v -8.0625 H 41.109375 V 0 Z m 0,25.203125 V 57.46875 L 9.90625,25.203125 Z"
         id="ArialMT-52"
         inkscape:connector-curvature="0"
         style="stroke-linecap:butt;stroke-linejoin:round" />
    </defs>
    <defs
       id="defs56">
      <path
         d="M 50.34375,8.453125 V 0 H 3.03125 Q 2.9375,3.171875 4.046875,6.109375 5.859375,10.9375 9.828125,15.625 13.8125,20.3125 21.34375,26.46875 q 11.671875,9.5625 15.765625,15.15625 4.109375,5.59375 4.109375,10.578125 0,5.21875 -3.75,8.796875 -3.734375,3.59375 -9.734375,3.59375 -6.34375,0 -10.15625,-3.8125 Q 13.765625,56.984375 13.71875,50.25 L 4.6875,51.171875 q 0.921875,10.109375 6.96875,15.40625 6.0625,5.296875 16.28125,5.296875 10.296875,0 16.296875,-5.71875 Q 50.25,60.453125 50.25,52 50.25,47.703125 48.484375,43.546875 46.734375,39.40625 42.65625,34.8125 38.578125,30.21875 29.109375,22.21875 21.1875,15.578125 18.9375,13.203125 q -2.234375,-2.359375 -3.703125,-4.75 z"
         id="ArialMT-50"
         inkscape:connector-curvature="0"
         style="stroke-linecap:butt;stroke-linejoin:round" />
    </defs>
    <defs
       id="defs34">
      <path
         d="m 4.15625,35.296875 q 0,12.703125 2.609375,20.4375 2.609375,7.75 7.75,11.9375 5.15625,4.203125 12.96875,4.203125 5.765625,0 10.109375,-2.328125 4.34375,-2.3125 7.171875,-6.6875 Q 47.609375,58.5 49.21875,52.21875 q 1.609375,-6.265625 1.609375,-16.921875 0,-12.59375 -2.59375,-20.328125 Q 45.65625,7.234375 40.5,3 35.359375,-1.21875 27.484375,-1.21875 q -10.34375,0 -16.25,7.421875 -7.078125,8.9375 -7.078125,29.09375 z m 9.03125,0 q 0,-17.625 4.125,-23.46875 Q 21.4375,6 27.484375,6 q 6.0625,0 10.1875,5.859375 4.125,5.859375 4.125,23.4375 0,17.6875 -4.125,23.484375 -4.125,5.8125 -10.28125,5.8125 -6.046875,0 -9.671875,-5.125 Q 13.1875,52.9375 13.1875,35.296875 Z"
         id="ArialMT-48"
         inkscape:connector-curvature="0"
         style="stroke-linecap:butt;stroke-linejoin:round" />
    </defs>
    <defs
       id="defs219">
      <path
         d="M 9.078125,0 V 10.015625 H 19.09375 V 0 Z"
         id="ArialMT-46"
         inkscape:connector-curvature="0"
         style="stroke-linecap:butt;stroke-linejoin:round" />
    </defs>
  </defs>
  <path
     inkscape:connector-curvature="0"
     id="path14"
     style="fill:none;stroke:#b0b0b0;stroke-width:0.80000001;stroke-linecap:square;stroke-linejoin:round"
     d="M 61.26875,310.95938 V 33.759375"
     clip-path="url(#pca9a1ed6a4)"
     transform="translate(-7.2,-26.542187)" />
  <use
     style="stroke:#000000;stroke-width:0.80000001;stroke-linecap:butt;stroke-linejoin:round"
     x="61.268749"
     xlink:href="#m3020998e9b"
     y="310.95938"
     id="use20"
     width="100%"
     height="100%"
     transform="translate(-7.2,-26.542187)" />
  <use
     style="stroke:#000000;stroke-width:0.80000001;stroke-linecap:butt;stroke-linejoin:round"
     x="61.268749"
     xlink:href="#m472c1232ef"
     y="33.759377"
     id="use28"
     width="100%"
     height="100%"
     transform="translate(-7.2,-26.542187)" />
  <use
     xlink:href="#ArialMT-48"
     id="use36"
     style="stroke-linecap:butt;stroke-linejoin:round"
     x="0"
     y="0"
     width="100%"
     height="100%"
     transform="matrix(0.2,0,0,-0.2,48.507813,307.23281)" />
  <path
     inkscape:connector-curvature="0"
     id="path42"
     style="fill:none;stroke:#b0b0b0;stroke-width:0.80000001;stroke-linecap:square;stroke-linejoin:round"
     d="M 126.36875,310.95938 V 33.759375"
     clip-path="url(#pca9a1ed6a4)"
     transform="translate(-7.2,-26.542187)" />
  <use
     style="stroke:#000000;stroke-width:0.80000001;stroke-linecap:butt;stroke-linejoin:round"
     x="126.36875"
     xlink:href="#m3020998e9b"
     y="310.95938"
     id="use45"
     width="100%"
     height="100%"
     transform="translate(-7.2,-26.542187)" />
  <use
     style="stroke:#000000;stroke-width:0.80000001;stroke-linecap:butt;stroke-linejoin:round"
     x="126.36875"
     xlink:href="#m472c1232ef"
     y="33.759377"
     id="use50"
     width="100%"
     height="100%"
     transform="translate(-7.2,-26.542187)" />
  <use
     xlink:href="#ArialMT-50"
     id="use58"
     style="stroke-linecap:butt;stroke-linejoin:round"
     x="0"
     y="0"
     width="100%"
     height="100%"
     transform="matrix(0.2,0,0,-0.2,113.60781,307.23281)" />
  <path
     inkscape:connector-curvature="0"
     id="path64"
     style="fill:none;stroke:#b0b0b0;stroke-width:0.80000001;stroke-linecap:square;stroke-linejoin:round"
     d="M 191.46875,310.95938 V 33.759375"
     clip-path="url(#pca9a1ed6a4)"
     transform="translate(-7.2,-26.542187)" />
  <use
     style="stroke:#000000;stroke-width:0.80000001;stroke-linecap:butt;stroke-linejoin:round"
     x="191.46875"
     xlink:href="#m3020998e9b"
     y="310.95938"
     id="use67"
     width="100%"
     height="100%"
     transform="translate(-7.2,-26.542187)" />
  <use
     style="stroke:#000000;stroke-width:0.80000001;stroke-linecap:butt;stroke-linejoin:round"
     x="191.46875"
     xlink:href="#m472c1232ef"
     y="33.759377"
     id="use72"
     width="100%"
     height="100%"
     transform="translate(-7.2,-26.542187)" />
  <use
     xlink:href="#ArialMT-52"
     id="use80"
     style="stroke-linecap:butt;stroke-linejoin:round"
     x="0"
     y="0"
     width="100%"
     height="100%"
     transform="matrix(0.2,0,0,-0.2,178.70781,307.23281)" />
  <path
     inkscape:connector-curvature="0"
     id="path86"
     style="fill:none;stroke:#b0b0b0;stroke-width:0.80000001;stroke-linecap:square;stroke-linejoin:round"
     d="M 256.56875,310.95938 V 33.759375"
     clip-path="url(#pca9a1ed6a4)"
     transform="translate(-7.2,-26.542187)" />
  <use
     style="stroke:#000000;stroke-width:0.80000001;stroke-linecap:butt;stroke-linejoin:round"
     x="256.56876"
     xlink:href="#m3020998e9b"
     y="310.95938"
     id="use89"
     width="100%"
     height="100%"
     transform="translate(-7.2,-26.542187)" />
  <use
     style="stroke:#000000;stroke-width:0.80000001;stroke-linecap:butt;stroke-linejoin:round"
     x="256.56876"
     xlink:href="#m472c1232ef"
     y="33.759377"
     id="use94"
     width="100%"
     height="100%"
     transform="translate(-7.2,-26.542187)" />
  <use
     xlink:href="#ArialMT-54"
     id="use102"
     style="stroke-linecap:butt;stroke-linejoin:round"
     x="0"
     y="0"
     width="100%"
     height="100%"
     transform="matrix(0.2,0,0,-0.2,243.80781,307.23281)" />
  <path
     inkscape:connector-curvature="0"
     id="path108"
     style="fill:none;stroke:#b0b0b0;stroke-width:0.80000001;stroke-linecap:square;stroke-linejoin:round"
     d="M 321.66875,310.95938 V 33.759375"
     clip-path="url(#pca9a1ed6a4)"
     transform="translate(-7.2,-26.542187)" />
  <use
     style="stroke:#000000;stroke-width:0.80000001;stroke-linecap:butt;stroke-linejoin:round"
     x="321.66876"
     xlink:href="#m3020998e9b"
     y="310.95938"
     id="use111"
     width="100%"
     height="100%"
     transform="translate(-7.2,-26.542187)" />
  <use
     style="stroke:#000000;stroke-width:0.80000001;stroke-linecap:butt;stroke-linejoin:round"
     x="321.66876"
     xlink:href="#m472c1232ef"
     y="33.759377"
     id="use116"
     width="100%"
     height="100%"
     transform="translate(-7.2,-26.542187)" />
  <use
     xlink:href="#ArialMT-56"
     id="use124"
     style="stroke-linecap:butt;stroke-linejoin:round"
     x="0"
     y="0"
     width="100%"
     height="100%"
     transform="matrix(0.2,0,0,-0.2,308.90781,307.23281)" />
  <path
     inkscape:connector-curvature="0"
     id="path130"
     style="fill:none;stroke:#b0b0b0;stroke-width:0.80000001;stroke-linecap:square;stroke-linejoin:round"
     d="M 386.76875,310.95938 V 33.759375"
     clip-path="url(#pca9a1ed6a4)"
     transform="translate(-7.2,-26.542187)" />
  <use
     style="stroke:#000000;stroke-width:0.80000001;stroke-linecap:butt;stroke-linejoin:round"
     x="386.76874"
     xlink:href="#m3020998e9b"
     y="310.95938"
     id="use133"
     width="100%"
     height="100%"
     transform="translate(-7.2,-26.542187)" />
  <use
     style="stroke:#000000;stroke-width:0.80000001;stroke-linecap:butt;stroke-linejoin:round"
     x="386.76874"
     xlink:href="#m472c1232ef"
     y="33.759377"
     id="use138"
     width="100%"
     height="100%"
     transform="translate(-7.2,-26.542187)" />
  <use
     xlink:href="#ArialMT-49"
     id="use146"
     style="stroke-linecap:butt;stroke-linejoin:round"
     x="0"
     y="0"
     width="100%"
     height="100%"
     transform="matrix(0.2,0,0,-0.2,368.44688,307.23281)" />
  <use
     x="55.615234"
     xlink:href="#ArialMT-48"
     id="use148"
     style="stroke-linecap:butt;stroke-linejoin:round"
     y="0"
     width="100%"
     height="100%"
     transform="matrix(0.2,0,0,-0.2,368.44688,307.23281)" />
  <path
     inkscape:connector-curvature="0"
     id="path154"
     style="fill:none;stroke:#b0b0b0;stroke-width:0.80000001;stroke-linecap:square;stroke-linejoin:round"
     d="M 451.86875,310.95938 V 33.759375"
     clip-path="url(#pca9a1ed6a4)"
     transform="translate(-7.2,-26.542187)" />
  <use
     style="stroke:#000000;stroke-width:0.80000001;stroke-linecap:butt;stroke-linejoin:round"
     x="451.86874"
     xlink:href="#m3020998e9b"
     y="310.95938"
     id="use157"
     width="100%"
     height="100%"
     transform="translate(-7.2,-26.542187)" />
  <use
     style="stroke:#000000;stroke-width:0.80000001;stroke-linecap:butt;stroke-linejoin:round"
     x="451.86874"
     xlink:href="#m472c1232ef"
     y="33.759377"
     id="use162"
     width="100%"
     height="100%"
     transform="translate(-7.2,-26.542187)" />
  <use
     xlink:href="#ArialMT-49"
     id="use167"
     style="stroke-linecap:butt;stroke-linejoin:round"
     x="0"
     y="0"
     width="100%"
     height="100%"
     transform="matrix(0.2,0,0,-0.2,433.54687,307.23281)" />
  <use
     x="55.615234"
     xlink:href="#ArialMT-50"
     id="use169"
     style="stroke-linecap:butt;stroke-linejoin:round"
     y="0"
     width="100%"
     height="100%"
     transform="matrix(0.2,0,0,-0.2,433.54687,307.23281)" />
  <use
     height="100%"
     width="100%"
     y="0"
     x="0"
     style="stroke-linecap:butt;stroke-linejoin:round"
     id="use183"
     xlink:href="#DejaVuSans-Oblique-82"
     transform="matrix(0.2,0,0,-0.2,221.86875,329.78906)" />
  <use
     height="100%"
     width="100%"
     y="0"
     x="0"
     style="stroke-linecap:butt;stroke-linejoin:round"
     id="use185"
     xlink:href="#ArialMT-32"
     transform="matrix(0.2,0,0,-0.2,235.76523,329.78906)" />
  <use
     height="100%"
     width="100%"
     y="0"
     x="0"
     style="stroke-linecap:butt;stroke-linejoin:round"
     id="use187"
     xlink:href="#ArialMT-40"
     transform="matrix(0.2,0,0,-0.2,241.32187,329.78906)" />
  <use
     height="100%"
     width="100%"
     y="0"
     x="0"
     style="stroke-linecap:butt;stroke-linejoin:round"
     id="use189"
     xlink:href="#ArialMT-102"
     transform="matrix(0.2,0,0,-0.2,247.98203,329.78906)" />
  <use
     height="100%"
     width="100%"
     y="0"
     x="0"
     style="stroke-linecap:butt;stroke-linejoin:round"
     id="use191"
     xlink:href="#ArialMT-109"
     transform="matrix(0.2,0,0,-0.2,253.53867,329.78906)" />
  <use
     height="100%"
     width="100%"
     y="0"
     x="0"
     style="stroke-linecap:butt;stroke-linejoin:round"
     id="use193"
     xlink:href="#ArialMT-41"
     transform="matrix(0.2,0,0,-0.2,270.19883,329.78906)" />
  <path
     inkscape:connector-curvature="0"
     id="path199"
     style="fill:none;stroke:#b0b0b0;stroke-width:0.80000001;stroke-linecap:square;stroke-linejoin:round"
     d="m 61.26875,310.95938 h 390.6"
     clip-path="url(#pca9a1ed6a4)"
     transform="translate(-7.2,-26.542187)" />
  <use
     style="stroke:#000000;stroke-width:0.80000001;stroke-linecap:butt;stroke-linejoin:round"
     x="61.268749"
     xlink:href="#m23a3a3986c"
     y="310.95938"
     id="use205"
     width="100%"
     height="100%"
     transform="translate(-7.2,-26.542187)" />
  <use
     style="stroke:#000000;stroke-width:0.80000001;stroke-linecap:butt;stroke-linejoin:round"
     x="451.86874"
     xlink:href="#m41eddbe12c"
     y="310.95938"
     id="use213"
     width="100%"
     height="100%"
     transform="translate(-7.2,-26.542187)" />
  <use
     xlink:href="#ArialMT-48"
     id="use221"
     style="stroke-linecap:butt;stroke-linejoin:round"
     x="0"
     y="0"
     width="100%"
     height="100%"
     transform="matrix(0.2,0,0,-0.2,22.76875,291.575)" />
  <use
     x="55.615234"
     xlink:href="#ArialMT-46"
     id="use223"
     style="stroke-linecap:butt;stroke-linejoin:round"
     y="0"
     width="100%"
     height="100%"
     transform="matrix(0.2,0,0,-0.2,22.76875,291.575)" />
  <use
     x="83.398438"
     xlink:href="#ArialMT-48"
     id="use225"
     style="stroke-linecap:butt;stroke-linejoin:round"
     y="0"
     width="100%"
     height="100%"
     transform="matrix(0.2,0,0,-0.2,22.76875,291.575)" />
  <path
     inkscape:connector-curvature="0"
     id="path231"
     style="fill:none;stroke:#b0b0b0;stroke-width:0.80000001;stroke-linecap:square;stroke-linejoin:round"
     d="m 61.26875,255.51937 h 390.6"
     clip-path="url(#pca9a1ed6a4)"
     transform="translate(-7.2,-26.542187)" />
  <use
     style="stroke:#000000;stroke-width:0.80000001;stroke-linecap:butt;stroke-linejoin:round"
     x="61.268749"
     xlink:href="#m23a3a3986c"
     y="255.51938"
     id="use234"
     width="100%"
     height="100%"
     transform="translate(-7.2,-26.542187)" />
  <use
     style="stroke:#000000;stroke-width:0.80000001;stroke-linecap:butt;stroke-linejoin:round"
     x="451.86874"
     xlink:href="#m41eddbe12c"
     y="255.51938"
     id="use239"
     width="100%"
     height="100%"
     transform="translate(-7.2,-26.542187)" />
  <use
     xlink:href="#ArialMT-48"
     id="use244"
     style="stroke-linecap:butt;stroke-linejoin:round"
     x="0"
     y="0"
     width="100%"
     height="100%"
     transform="matrix(0.2,0,0,-0.2,22.76875,236.135)" />
  <use
     x="55.615234"
     xlink:href="#ArialMT-46"
     id="use246"
     style="stroke-linecap:butt;stroke-linejoin:round"
     y="0"
     width="100%"
     height="100%"
     transform="matrix(0.2,0,0,-0.2,22.76875,236.135)" />
  <use
     x="83.398438"
     xlink:href="#ArialMT-50"
     id="use248"
     style="stroke-linecap:butt;stroke-linejoin:round"
     y="0"
     width="100%"
     height="100%"
     transform="matrix(0.2,0,0,-0.2,22.76875,236.135)" />
  <path
     inkscape:connector-curvature="0"
     id="path254"
     style="fill:none;stroke:#b0b0b0;stroke-width:0.80000001;stroke-linecap:square;stroke-linejoin:round"
     d="m 61.26875,200.07937 h 390.6"
     clip-path="url(#pca9a1ed6a4)"
     transform="translate(-7.2,-26.542187)" />
  <use
     style="stroke:#000000;stroke-width:0.80000001;stroke-linecap:butt;stroke-linejoin:round"
     x="61.268749"
     xlink:href="#m23a3a3986c"
     y="200.07938"
     id="use257"
     width="100%"
     height="100%"
     transform="translate(-7.2,-26.542187)" />
  <use
     style="stroke:#000000;stroke-width:0.80000001;stroke-linecap:butt;stroke-linejoin:round"
     x="451.86874"
     xlink:href="#m41eddbe12c"
     y="200.07938"
     id="use262"
     width="100%"
     height="100%"
     transform="translate(-7.2,-26.542187)" />
  <use
     xlink:href="#ArialMT-48"
     id="use267"
     style="stroke-linecap:butt;stroke-linejoin:round"
     x="0"
     y="0"
     width="100%"
     height="100%"
     transform="matrix(0.2,0,0,-0.2,22.76875,180.695)" />
  <use
     x="55.615234"
     xlink:href="#ArialMT-46"
     id="use269"
     style="stroke-linecap:butt;stroke-linejoin:round"
     y="0"
     width="100%"
     height="100%"
     transform="matrix(0.2,0,0,-0.2,22.76875,180.695)" />
  <use
     x="83.398438"
     xlink:href="#ArialMT-52"
     id="use271"
     style="stroke-linecap:butt;stroke-linejoin:round"
     y="0"
     width="100%"
     height="100%"
     transform="matrix(0.2,0,0,-0.2,22.76875,180.695)" />
  <path
     inkscape:connector-curvature="0"
     id="path277"
     style="fill:none;stroke:#b0b0b0;stroke-width:0.80000001;stroke-linecap:square;stroke-linejoin:round"
     d="m 61.26875,144.63937 h 390.6"
     clip-path="url(#pca9a1ed6a4)"
     transform="translate(-7.2,-26.542187)" />
  <use
     style="stroke:#000000;stroke-width:0.80000001;stroke-linecap:butt;stroke-linejoin:round"
     x="61.268749"
     xlink:href="#m23a3a3986c"
     y="144.63937"
     id="use280"
     width="100%"
     height="100%"
     transform="translate(-7.2,-26.542187)" />
  <use
     style="stroke:#000000;stroke-width:0.80000001;stroke-linecap:butt;stroke-linejoin:round"
     x="451.86874"
     xlink:href="#m41eddbe12c"
     y="144.63937"
     id="use285"
     width="100%"
     height="100%"
     transform="translate(-7.2,-26.542187)" />
  <use
     xlink:href="#ArialMT-48"
     id="use290"
     style="stroke-linecap:butt;stroke-linejoin:round"
     x="0"
     y="0"
     width="100%"
     height="100%"
     transform="matrix(0.2,0,0,-0.2,22.76875,125.255)" />
  <use
     x="55.615234"
     xlink:href="#ArialMT-46"
     id="use292"
     style="stroke-linecap:butt;stroke-linejoin:round"
     y="0"
     width="100%"
     height="100%"
     transform="matrix(0.2,0,0,-0.2,22.76875,125.255)" />
  <use
     x="83.398438"
     xlink:href="#ArialMT-54"
     id="use294"
     style="stroke-linecap:butt;stroke-linejoin:round"
     y="0"
     width="100%"
     height="100%"
     transform="matrix(0.2,0,0,-0.2,22.76875,125.255)" />
  <path
     inkscape:connector-curvature="0"
     id="path300"
     style="fill:none;stroke:#b0b0b0;stroke-width:0.80000001;stroke-linecap:square;stroke-linejoin:round"
     d="m 61.26875,89.199375 h 390.6"
     clip-path="url(#pca9a1ed6a4)"
     transform="translate(-7.2,-26.542187)" />
  <use
     style="stroke:#000000;stroke-width:0.80000001;stroke-linecap:butt;stroke-linejoin:round"
     x="61.268749"
     xlink:href="#m23a3a3986c"
     y="89.199371"
     id="use303"
     width="100%"
     height="100%"
     transform="translate(-7.2,-26.542187)" />
  <use
     style="stroke:#000000;stroke-width:0.80000001;stroke-linecap:butt;stroke-linejoin:round"
     x="451.86874"
     xlink:href="#m41eddbe12c"
     y="89.199371"
     id="use308"
     width="100%"
     height="100%"
     transform="translate(-7.2,-26.542187)" />
  <use
     xlink:href="#ArialMT-48"
     id="use313"
     style="stroke-linecap:butt;stroke-linejoin:round"
     x="0"
     y="0"
     width="100%"
     height="100%"
     transform="matrix(0.2,0,0,-0.2,22.76875,69.815)" />
  <use
     x="55.615234"
     xlink:href="#ArialMT-46"
     id="use315"
     style="stroke-linecap:butt;stroke-linejoin:round"
     y="0"
     width="100%"
     height="100%"
     transform="matrix(0.2,0,0,-0.2,22.76875,69.815)" />
  <use
     x="83.398438"
     xlink:href="#ArialMT-56"
     id="use317"
     style="stroke-linecap:butt;stroke-linejoin:round"
     y="0"
     width="100%"
     height="100%"
     transform="matrix(0.2,0,0,-0.2,22.76875,69.815)" />
  <path
     inkscape:connector-curvature="0"
     id="path323"
     style="fill:none;stroke:#b0b0b0;stroke-width:0.80000001;stroke-linecap:square;stroke-linejoin:round"
     d="m 61.26875,33.759375 h 390.6"
     clip-path="url(#pca9a1ed6a4)"
     transform="translate(-7.2,-26.542187)" />
  <use
     style="stroke:#000000;stroke-width:0.80000001;stroke-linecap:butt;stroke-linejoin:round"
     x="61.268749"
     xlink:href="#m23a3a3986c"
     y="33.759377"
     id="use326"
     width="100%"
     height="100%"
     transform="translate(-7.2,-26.542187)" />
  <use
     style="stroke:#000000;stroke-width:0.80000001;stroke-linecap:butt;stroke-linejoin:round"
     x="451.86874"
     xlink:href="#m41eddbe12c"
     y="33.759377"
     id="use331"
     width="100%"
     height="100%"
     transform="translate(-7.2,-26.542187)" />
  <use
     xlink:href="#ArialMT-49"
     id="use336"
     style="stroke-linecap:butt;stroke-linejoin:round"
     x="0"
     y="0"
     width="100%"
     height="100%"
     transform="matrix(0.2,0,0,-0.2,22.76875,14.375)" />
  <use
     x="55.615234"
     xlink:href="#ArialMT-46"
     id="use338"
     style="stroke-linecap:butt;stroke-linejoin:round"
     y="0"
     width="100%"
     height="100%"
     transform="matrix(0.2,0,0,-0.2,22.76875,14.375)" />
  <use
     x="83.398438"
     xlink:href="#ArialMT-48"
     id="use340"
     style="stroke-linecap:butt;stroke-linejoin:round"
     y="0"
     width="100%"
     height="100%"
     transform="matrix(0.2,0,0,-0.2,22.76875,14.375)" />
  <use
     height="100%"
     width="100%"
     y="0"
     x="0"
     style="stroke-linecap:butt;stroke-linejoin:round"
     id="use359"
     xlink:href="#ArialMT-77"
     transform="matrix(0,-0.2,-0.2,0,14.559375,220.85156)" />
  <use
     height="100%"
     width="100%"
     y="0"
     style="stroke-linecap:butt;stroke-linejoin:round"
     id="use361"
     xlink:href="#ArialMT-97"
     x="83.300781"
     transform="matrix(0,-0.2,-0.2,0,14.559375,220.85156)" />
  <use
     height="100%"
     width="100%"
     y="0"
     style="stroke-linecap:butt;stroke-linejoin:round"
     id="use363"
     xlink:href="#ArialMT-115"
     x="138.91602"
     transform="matrix(0,-0.2,-0.2,0,14.559375,220.85156)" />
  <use
     height="100%"
     width="100%"
     y="0"
     style="stroke-linecap:butt;stroke-linejoin:round"
     id="use365"
     xlink:href="#ArialMT-107"
     x="188.91602"
     transform="matrix(0,-0.2,-0.2,0,14.559375,220.85156)" />
  <use
     height="100%"
     width="100%"
     y="0"
     style="stroke-linecap:butt;stroke-linejoin:round"
     id="use367"
     xlink:href="#ArialMT-105"
     x="238.91602"
     transform="matrix(0,-0.2,-0.2,0,14.559375,220.85156)" />
  <use
     height="100%"
     width="100%"
     y="0"
     style="stroke-linecap:butt;stroke-linejoin:round"
     id="use369"
     xlink:href="#ArialMT-110"
     x="261.13281"
     transform="matrix(0,-0.2,-0.2,0,14.559375,220.85156)" />
  <use
     height="100%"
     width="100%"
     y="0"
     style="stroke-linecap:butt;stroke-linejoin:round"
     id="use371"
     xlink:href="#ArialMT-103"
     x="316.74805"
     transform="matrix(0,-0.2,-0.2,0,14.559375,220.85156)" />
  <use
     height="100%"
     width="100%"
     y="0"
     style="stroke-linecap:butt;stroke-linejoin:round"
     id="use373"
     xlink:href="#ArialMT-32"
     x="372.36328"
     transform="matrix(0,-0.2,-0.2,0,14.559375,220.85156)" />
  <use
     height="100%"
     width="100%"
     y="0"
     style="stroke-linecap:butt;stroke-linejoin:round"
     id="use375"
     xlink:href="#ArialMT-102"
     x="400.14648"
     transform="matrix(0,-0.2,-0.2,0,14.559375,220.85156)" />
  <use
     height="100%"
     width="100%"
     y="0"
     style="stroke-linecap:butt;stroke-linejoin:round"
     id="use377"
     xlink:href="#ArialMT-117"
     x="427.92969"
     transform="matrix(0,-0.2,-0.2,0,14.559375,220.85156)" />
  <use
     height="100%"
     width="100%"
     y="0"
     style="stroke-linecap:butt;stroke-linejoin:round"
     id="use379"
     xlink:href="#ArialMT-110"
     x="483.54492"
     transform="matrix(0,-0.2,-0.2,0,14.559375,220.85156)" />
  <use
     height="100%"
     width="100%"
     y="0"
     style="stroke-linecap:butt;stroke-linejoin:round"
     id="use381"
     xlink:href="#ArialMT-99"
     x="539.16016"
     transform="matrix(0,-0.2,-0.2,0,14.559375,220.85156)" />
  <use
     height="100%"
     width="100%"
     y="0"
     style="stroke-linecap:butt;stroke-linejoin:round"
     id="use383"
     xlink:href="#ArialMT-116"
     x="589.16016"
     transform="matrix(0,-0.2,-0.2,0,14.559375,220.85156)" />
  <use
     height="100%"
     width="100%"
     y="0"
     style="stroke-linecap:butt;stroke-linejoin:round"
     id="use385"
     xlink:href="#ArialMT-105"
     x="616.94336"
     transform="matrix(0,-0.2,-0.2,0,14.559375,220.85156)" />
  <use
     height="100%"
     width="100%"
     y="0"
     style="stroke-linecap:butt;stroke-linejoin:round"
     id="use387"
     xlink:href="#ArialMT-111"
     x="639.16016"
     transform="matrix(0,-0.2,-0.2,0,14.559375,220.85156)" />
  <use
     height="100%"
     width="100%"
     y="0"
     style="stroke-linecap:butt;stroke-linejoin:round"
     id="use389"
     xlink:href="#ArialMT-110"
     x="694.77539"
     transform="matrix(0,-0.2,-0.2,0,14.559375,220.85156)" />
  <path
     inkscape:connector-curvature="0"
     id="path395"
     style="fill:none;stroke:#000000;stroke-width:3;stroke-linecap:butt;stroke-linejoin:round;stroke-dashoffset:0"
     d="m 61.26875,242.66007 3.255,-0.0998 3.255,0.87873 3.255,1.73804 3.255,2.44491 3.255,2.94663 3.255,3.34858 3.255,3.88634 9.765,12.46291 3.255,3.85308 3.255,3.36521 3.255,2.54747 3.255,1.54123 3.255,0.41303 3.255,-0.70131 3.255,-1.35829 6.51,-4.01108 6.51,-4.11642 6.51,-3.07969 3.255,-1.33888 3.255,-1.04781 9.765,-3.57034 3.255,-1.56064 6.51,-3.75051 3.255,-2.40333 6.51,-5.59112 3.255,-3.21275 9.765,-10.88287 9.765,-12.13304 26.04,-33.51903 6.51,-8.01662 6.51,-7.70616 6.51,-7.39847 6.51,-7.03811 6.51,-6.68606 6.51,-6.2869 6.51,-5.89327 6.51,-5.4747 6.51,-5.06999 6.51,-4.67082 6.51,-4.30769 6.51,-3.97227 6.51,-3.68953 6.51,-3.41788 6.51,-3.19611 6.51,-2.94664 6.51,-2.69716 6.51,-2.431041 6.51,-2.139984 6.51,-1.882188 6.51,-1.652112 9.765,-2.200968 13.02,-2.655576 9.765,-1.818432 6.51,-1.083852 6.51,-0.917532 6.51,-0.759528 9.765,-0.837144 42.315,-3.13236 9.55687,-0.275541 v 0"
     clip-path="url(#pca9a1ed6a4)"
     transform="translate(-7.2,-26.542187)" />
  <path
     inkscape:connector-curvature="0"
     id="path398"
     style="fill:none;stroke:#000000;stroke-width:0.80000001;stroke-linecap:square;stroke-linejoin:miter"
     d="M 54.06875,284.41719 V 7.217188" />
  <path
     inkscape:connector-curvature="0"
     id="path401"
     style="fill:none;stroke:#000000;stroke-width:0.80000001;stroke-linecap:square;stroke-linejoin:miter"
     d="M 444.66875,284.41719 V 7.217188" />
  <path
     inkscape:connector-curvature="0"
     id="path404"
     style="fill:none;stroke:#000000;stroke-width:0.80000001;stroke-linecap:square;stroke-linejoin:miter"
     d="m 54.06875,284.41719 h 390.6" />
  <path
     inkscape:connector-curvature="0"
     id="path407"
     style="fill:none;stroke:#000000;stroke-width:0.80000001;stroke-linecap:square;stroke-linejoin:miter"
     d="m 54.06875,7.217188 h 390.6" />
  <use
     x="372.36328"
     xlink:href="#ArialMT-32"
     id="use424"
     style="stroke-linecap:butt;stroke-linejoin:round"
     y="0"
     width="100%"
     height="100%"
     transform="matrix(0.2,0,0,-0.2,174.33437,-4.782812)" />
  <defs
     id="defs468">
    <clipPath
       id="pca9a1ed6a4"
       style="stroke-linecap:butt;stroke-linejoin:round">
      <rect
         height="277.20001"
         width="390.60001"
         x="61.268749"
         y="33.759377"
         id="rect465"
         style="stroke-linecap:butt;stroke-linejoin:round" />
    </clipPath>
  </defs>
</svg>
