<?xml version="1.0" encoding="utf-8" standalone="no"?>
<!DOCTYPE svg PUBLIC "-//W3C//DTD SVG 1.1//EN"
  "http://www.w3.org/Graphics/SVG/1.1/DTD/svg11.dtd">
<!-- Created with matplotlib (https://matplotlib.org/) -->
<svg height="367.70625pt" version="1.1" viewBox="0 0 467.625 367.70625" width="467.625pt" xmlns="http://www.w3.org/2000/svg" xmlns:xlink="http://www.w3.org/1999/xlink">
 <metadata>
  <rdf:RDF xmlns:cc="http://creativecommons.org/ns#" xmlns:dc="http://purl.org/dc/elements/1.1/" xmlns:rdf="http://www.w3.org/1999/02/22-rdf-syntax-ns#">
   <cc:Work>
    <dc:type rdf:resource="http://purl.org/dc/dcmitype/StillImage"/>
    <dc:date>2021-01-15T12:47:18.344497</dc:date>
    <dc:format>image/svg+xml</dc:format>
    <dc:creator>
     <cc:Agent>
      <dc:title>Matplotlib v3.3.2, https://matplotlib.org/</dc:title>
     </cc:Agent>
    </dc:creator>
   </cc:Work>
  </rdf:RDF>
 </metadata>
 <defs>
  <style type="text/css">*{stroke-linecap:butt;stroke-linejoin:round;}</style>
 </defs>
 <g id="figure_1">
  <g id="patch_1">
   <path d="M 0 367.70625 
L 467.625 367.70625 
L 467.625 0 
L 0 0 
z
" style="fill:#ffffff;"/>
  </g>
  <g id="axes_1">
   <g id="patch_2">
    <path d="M 58.703125 310.715625 
L 449.303125 310.715625 
L 449.303125 33.515625 
L 58.703125 33.515625 
z
" style="fill:#ffffff;"/>
   </g>
   <g id="matplotlib.axis_1">
    <g id="xtick_1">
     <g id="line2d_1">
      <path clip-path="url(#pb17fff831d)" d="M 58.703125 310.715625 
L 58.703125 33.515625 
" style="fill:none;stroke:#b0b0b0;stroke-linecap:square;stroke-width:0.8;"/>
     </g>
     <g id="line2d_2">
      <defs>
       <path d="M 0 0 
L 0 -3.5 
" id="m4c0a54b23a" style="stroke:#000000;stroke-width:0.8;"/>
      </defs>
      <g>
       <use style="stroke:#000000;stroke-width:0.8;" x="58.703125" xlink:href="#m4c0a54b23a" y="310.715625"/>
      </g>
     </g>
     <g id="line2d_3">
      <defs>
       <path d="M 0 0 
L 0 3.5 
" id="m235433c90f" style="stroke:#000000;stroke-width:0.8;"/>
      </defs>
      <g>
       <use style="stroke:#000000;stroke-width:0.8;" x="58.703125" xlink:href="#m235433c90f" y="33.515625"/>
      </g>
     </g>
     <g id="text_1">
      <!-- 0 -->
      <g transform="translate(53.142188 333.53125)scale(0.2 -0.2)">
       <defs>
        <path d="M 4.15625 35.296875 
Q 4.15625 48 6.765625 55.734375 
Q 9.375 63.484375 14.515625 67.671875 
Q 19.671875 71.875 27.484375 71.875 
Q 33.25 71.875 37.59375 69.546875 
Q 41.9375 67.234375 44.765625 62.859375 
Q 47.609375 58.5 49.21875 52.21875 
Q 50.828125 45.953125 50.828125 35.296875 
Q 50.828125 22.703125 48.234375 14.96875 
Q 45.65625 7.234375 40.5 3 
Q 35.359375 -1.21875 27.484375 -1.21875 
Q 17.140625 -1.21875 11.234375 6.203125 
Q 4.15625 15.140625 4.15625 35.296875 
z
M 13.1875 35.296875 
Q 13.1875 17.671875 17.3125 11.828125 
Q 21.4375 6 27.484375 6 
Q 33.546875 6 37.671875 11.859375 
Q 41.796875 17.71875 41.796875 35.296875 
Q 41.796875 52.984375 37.671875 58.78125 
Q 33.546875 64.59375 27.390625 64.59375 
Q 21.34375 64.59375 17.71875 59.46875 
Q 13.1875 52.9375 13.1875 35.296875 
z
" id="ArialMT-48"/>
       </defs>
       <use xlink:href="#ArialMT-48"/>
      </g>
     </g>
    </g>
    <g id="xtick_2">
     <g id="line2d_4">
      <path clip-path="url(#pb17fff831d)" d="M 123.803125 310.715625 
L 123.803125 33.515625 
" style="fill:none;stroke:#b0b0b0;stroke-linecap:square;stroke-width:0.8;"/>
     </g>
     <g id="line2d_5">
      <g>
       <use style="stroke:#000000;stroke-width:0.8;" x="123.803125" xlink:href="#m4c0a54b23a" y="310.715625"/>
      </g>
     </g>
     <g id="line2d_6">
      <g>
       <use style="stroke:#000000;stroke-width:0.8;" x="123.803125" xlink:href="#m235433c90f" y="33.515625"/>
      </g>
     </g>
     <g id="text_2">
      <!-- 2 -->
      <g transform="translate(118.242188 333.53125)scale(0.2 -0.2)">
       <defs>
        <path d="M 50.34375 8.453125 
L 50.34375 0 
L 3.03125 0 
Q 2.9375 3.171875 4.046875 6.109375 
Q 5.859375 10.9375 9.828125 15.625 
Q 13.8125 20.3125 21.34375 26.46875 
Q 33.015625 36.03125 37.109375 41.625 
Q 41.21875 47.21875 41.21875 52.203125 
Q 41.21875 57.421875 37.46875 61 
Q 33.734375 64.59375 27.734375 64.59375 
Q 21.390625 64.59375 17.578125 60.78125 
Q 13.765625 56.984375 13.71875 50.25 
L 4.6875 51.171875 
Q 5.609375 61.28125 11.65625 66.578125 
Q 17.71875 71.875 27.9375 71.875 
Q 38.234375 71.875 44.234375 66.15625 
Q 50.25 60.453125 50.25 52 
Q 50.25 47.703125 48.484375 43.546875 
Q 46.734375 39.40625 42.65625 34.8125 
Q 38.578125 30.21875 29.109375 22.21875 
Q 21.1875 15.578125 18.9375 13.203125 
Q 16.703125 10.84375 15.234375 8.453125 
z
" id="ArialMT-50"/>
       </defs>
       <use xlink:href="#ArialMT-50"/>
      </g>
     </g>
    </g>
    <g id="xtick_3">
     <g id="line2d_7">
      <path clip-path="url(#pb17fff831d)" d="M 188.903125 310.715625 
L 188.903125 33.515625 
" style="fill:none;stroke:#b0b0b0;stroke-linecap:square;stroke-width:0.8;"/>
     </g>
     <g id="line2d_8">
      <g>
       <use style="stroke:#000000;stroke-width:0.8;" x="188.903125" xlink:href="#m4c0a54b23a" y="310.715625"/>
      </g>
     </g>
     <g id="line2d_9">
      <g>
       <use style="stroke:#000000;stroke-width:0.8;" x="188.903125" xlink:href="#m235433c90f" y="33.515625"/>
      </g>
     </g>
     <g id="text_3">
      <!-- 4 -->
      <g transform="translate(183.342187 333.53125)scale(0.2 -0.2)">
       <defs>
        <path d="M 32.328125 0 
L 32.328125 17.140625 
L 1.265625 17.140625 
L 1.265625 25.203125 
L 33.9375 71.578125 
L 41.109375 71.578125 
L 41.109375 25.203125 
L 50.78125 25.203125 
L 50.78125 17.140625 
L 41.109375 17.140625 
L 41.109375 0 
z
M 32.328125 25.203125 
L 32.328125 57.46875 
L 9.90625 25.203125 
z
" id="ArialMT-52"/>
       </defs>
       <use xlink:href="#ArialMT-52"/>
      </g>
     </g>
    </g>
    <g id="xtick_4">
     <g id="line2d_10">
      <path clip-path="url(#pb17fff831d)" d="M 254.003125 310.715625 
L 254.003125 33.515625 
" style="fill:none;stroke:#b0b0b0;stroke-linecap:square;stroke-width:0.8;"/>
     </g>
     <g id="line2d_11">
      <g>
       <use style="stroke:#000000;stroke-width:0.8;" x="254.003125" xlink:href="#m4c0a54b23a" y="310.715625"/>
      </g>
     </g>
     <g id="line2d_12">
      <g>
       <use style="stroke:#000000;stroke-width:0.8;" x="254.003125" xlink:href="#m235433c90f" y="33.515625"/>
      </g>
     </g>
     <g id="text_4">
      <!-- 6 -->
      <g transform="translate(248.442187 333.53125)scale(0.2 -0.2)">
       <defs>
        <path d="M 49.75 54.046875 
L 41.015625 53.375 
Q 39.84375 58.546875 37.703125 60.890625 
Q 34.125 64.65625 28.90625 64.65625 
Q 24.703125 64.65625 21.53125 62.3125 
Q 17.390625 59.28125 14.984375 53.46875 
Q 12.59375 47.65625 12.5 36.921875 
Q 15.671875 41.75 20.265625 44.09375 
Q 24.859375 46.4375 29.890625 46.4375 
Q 38.671875 46.4375 44.84375 39.96875 
Q 51.03125 33.5 51.03125 23.25 
Q 51.03125 16.5 48.125 10.71875 
Q 45.21875 4.9375 40.140625 1.859375 
Q 35.0625 -1.21875 28.609375 -1.21875 
Q 17.625 -1.21875 10.6875 6.859375 
Q 3.765625 14.9375 3.765625 33.5 
Q 3.765625 54.25 11.421875 63.671875 
Q 18.109375 71.875 29.4375 71.875 
Q 37.890625 71.875 43.28125 67.140625 
Q 48.6875 62.40625 49.75 54.046875 
z
M 13.875 23.1875 
Q 13.875 18.65625 15.796875 14.5 
Q 17.71875 10.359375 21.1875 8.171875 
Q 24.65625 6 28.46875 6 
Q 34.03125 6 38.03125 10.484375 
Q 42.046875 14.984375 42.046875 22.703125 
Q 42.046875 30.125 38.078125 34.390625 
Q 34.125 38.671875 28.125 38.671875 
Q 22.171875 38.671875 18.015625 34.390625 
Q 13.875 30.125 13.875 23.1875 
z
" id="ArialMT-54"/>
       </defs>
       <use xlink:href="#ArialMT-54"/>
      </g>
     </g>
    </g>
    <g id="xtick_5">
     <g id="line2d_13">
      <path clip-path="url(#pb17fff831d)" d="M 319.103125 310.715625 
L 319.103125 33.515625 
" style="fill:none;stroke:#b0b0b0;stroke-linecap:square;stroke-width:0.8;"/>
     </g>
     <g id="line2d_14">
      <g>
       <use style="stroke:#000000;stroke-width:0.8;" x="319.103125" xlink:href="#m4c0a54b23a" y="310.715625"/>
      </g>
     </g>
     <g id="line2d_15">
      <g>
       <use style="stroke:#000000;stroke-width:0.8;" x="319.103125" xlink:href="#m235433c90f" y="33.515625"/>
      </g>
     </g>
     <g id="text_5">
      <!-- 8 -->
      <g transform="translate(313.542187 333.53125)scale(0.2 -0.2)">
       <defs>
        <path d="M 17.671875 38.8125 
Q 12.203125 40.828125 9.5625 44.53125 
Q 6.9375 48.25 6.9375 53.421875 
Q 6.9375 61.234375 12.546875 66.546875 
Q 18.171875 71.875 27.484375 71.875 
Q 36.859375 71.875 42.578125 66.421875 
Q 48.296875 60.984375 48.296875 53.171875 
Q 48.296875 48.1875 45.671875 44.5 
Q 43.0625 40.828125 37.75 38.8125 
Q 44.34375 36.671875 47.78125 31.875 
Q 51.21875 27.09375 51.21875 20.453125 
Q 51.21875 11.28125 44.71875 5.03125 
Q 38.234375 -1.21875 27.640625 -1.21875 
Q 17.046875 -1.21875 10.546875 5.046875 
Q 4.046875 11.328125 4.046875 20.703125 
Q 4.046875 27.6875 7.59375 32.390625 
Q 11.140625 37.109375 17.671875 38.8125 
z
M 15.921875 53.71875 
Q 15.921875 48.640625 19.1875 45.40625 
Q 22.46875 42.1875 27.6875 42.1875 
Q 32.765625 42.1875 36.015625 45.375 
Q 39.265625 48.578125 39.265625 53.21875 
Q 39.265625 58.0625 35.90625 61.359375 
Q 32.5625 64.65625 27.59375 64.65625 
Q 22.5625 64.65625 19.234375 61.421875 
Q 15.921875 58.203125 15.921875 53.71875 
z
M 13.09375 20.65625 
Q 13.09375 16.890625 14.875 13.375 
Q 16.65625 9.859375 20.171875 7.921875 
Q 23.6875 6 27.734375 6 
Q 34.03125 6 38.125 10.046875 
Q 42.234375 14.109375 42.234375 20.359375 
Q 42.234375 26.703125 38.015625 30.859375 
Q 33.796875 35.015625 27.4375 35.015625 
Q 21.234375 35.015625 17.15625 30.90625 
Q 13.09375 26.8125 13.09375 20.65625 
z
" id="ArialMT-56"/>
       </defs>
       <use xlink:href="#ArialMT-56"/>
      </g>
     </g>
    </g>
    <g id="xtick_6">
     <g id="line2d_16">
      <path clip-path="url(#pb17fff831d)" d="M 384.203125 310.715625 
L 384.203125 33.515625 
" style="fill:none;stroke:#b0b0b0;stroke-linecap:square;stroke-width:0.8;"/>
     </g>
     <g id="line2d_17">
      <g>
       <use style="stroke:#000000;stroke-width:0.8;" x="384.203125" xlink:href="#m4c0a54b23a" y="310.715625"/>
      </g>
     </g>
     <g id="line2d_18">
      <g>
       <use style="stroke:#000000;stroke-width:0.8;" x="384.203125" xlink:href="#m235433c90f" y="33.515625"/>
      </g>
     </g>
     <g id="text_6">
      <!-- 10 -->
      <g transform="translate(373.08125 333.53125)scale(0.2 -0.2)">
       <defs>
        <path d="M 37.25 0 
L 28.46875 0 
L 28.46875 56 
Q 25.296875 52.984375 20.140625 49.953125 
Q 14.984375 46.921875 10.890625 45.40625 
L 10.890625 53.90625 
Q 18.265625 57.375 23.78125 62.296875 
Q 29.296875 67.234375 31.59375 71.875 
L 37.25 71.875 
z
" id="ArialMT-49"/>
       </defs>
       <use xlink:href="#ArialMT-49"/>
       <use x="55.615234" xlink:href="#ArialMT-48"/>
      </g>
     </g>
    </g>
    <g id="xtick_7">
     <g id="line2d_19">
      <path clip-path="url(#pb17fff831d)" d="M 449.303125 310.715625 
L 449.303125 33.515625 
" style="fill:none;stroke:#b0b0b0;stroke-linecap:square;stroke-width:0.8;"/>
     </g>
     <g id="line2d_20">
      <g>
       <use style="stroke:#000000;stroke-width:0.8;" x="449.303125" xlink:href="#m4c0a54b23a" y="310.715625"/>
      </g>
     </g>
     <g id="line2d_21">
      <g>
       <use style="stroke:#000000;stroke-width:0.8;" x="449.303125" xlink:href="#m235433c90f" y="33.515625"/>
      </g>
     </g>
     <g id="text_7">
      <!-- 12 -->
      <g transform="translate(438.18125 333.53125)scale(0.2 -0.2)">
       <use xlink:href="#ArialMT-49"/>
       <use x="55.615234" xlink:href="#ArialMT-50"/>
      </g>
     </g>
    </g>
    <g id="text_8">
     <!-- $R$ (fm) -->
     <g transform="translate(226.503125 356.10625)scale(0.2 -0.2)">
      <defs>
       <path d="M 25.203125 64.796875 
L 20.21875 38.921875 
L 32.90625 38.921875 
Q 40.375 38.921875 44.984375 43.046875 
Q 49.609375 47.171875 49.609375 53.8125 
Q 49.609375 59.125 46.5 61.953125 
Q 43.40625 64.796875 37.59375 64.796875 
z
M 43.3125 35.015625 
Q 46.4375 34.28125 48.515625 31.390625 
Q 50.59375 28.515625 53.328125 19.921875 
L 59.515625 0 
L 49.125 0 
L 43.40625 18.703125 
Q 41.21875 25.921875 38.328125 28.359375 
Q 35.453125 30.8125 29.5 30.8125 
L 18.609375 30.8125 
L 12.59375 0 
L 2.6875 0 
L 16.890625 72.90625 
L 39.109375 72.90625 
Q 49.21875 72.90625 54.609375 68.328125 
Q 60.015625 63.765625 60.015625 55.171875 
Q 60.015625 47.5625 55.421875 41.984375 
Q 50.828125 36.421875 43.3125 35.015625 
z
" id="DejaVuSans-Oblique-82"/>
       <path id="ArialMT-32"/>
       <path d="M 23.390625 -21.046875 
Q 16.109375 -11.859375 11.078125 0.4375 
Q 6.0625 12.75 6.0625 25.921875 
Q 6.0625 37.546875 9.8125 48.1875 
Q 14.203125 60.546875 23.390625 72.796875 
L 29.6875 72.796875 
Q 23.78125 62.640625 21.875 58.296875 
Q 18.890625 51.5625 17.1875 44.234375 
Q 15.09375 35.109375 15.09375 25.875 
Q 15.09375 2.390625 29.6875 -21.046875 
z
" id="ArialMT-40"/>
       <path d="M 8.6875 0 
L 8.6875 45.015625 
L 0.921875 45.015625 
L 0.921875 51.859375 
L 8.6875 51.859375 
L 8.6875 57.375 
Q 8.6875 62.59375 9.625 65.140625 
Q 10.890625 68.5625 14.078125 70.671875 
Q 17.28125 72.796875 23.046875 72.796875 
Q 26.765625 72.796875 31.25 71.921875 
L 29.9375 64.265625 
Q 27.203125 64.75 24.75 64.75 
Q 20.75 64.75 19.09375 63.03125 
Q 17.4375 61.328125 17.4375 56.640625 
L 17.4375 51.859375 
L 27.546875 51.859375 
L 27.546875 45.015625 
L 17.4375 45.015625 
L 17.4375 0 
z
" id="ArialMT-102"/>
       <path d="M 6.59375 0 
L 6.59375 51.859375 
L 14.453125 51.859375 
L 14.453125 44.578125 
Q 16.890625 48.390625 20.9375 50.703125 
Q 25 53.03125 30.171875 53.03125 
Q 35.9375 53.03125 39.625 50.640625 
Q 43.3125 48.25 44.828125 43.953125 
Q 50.984375 53.03125 60.84375 53.03125 
Q 68.5625 53.03125 72.703125 48.75 
Q 76.859375 44.484375 76.859375 35.59375 
L 76.859375 0 
L 68.109375 0 
L 68.109375 32.671875 
Q 68.109375 37.9375 67.25 40.25 
Q 66.40625 42.578125 64.15625 43.984375 
Q 61.921875 45.40625 58.890625 45.40625 
Q 53.421875 45.40625 49.796875 41.765625 
Q 46.1875 38.140625 46.1875 30.125 
L 46.1875 0 
L 37.40625 0 
L 37.40625 33.6875 
Q 37.40625 39.546875 35.25 42.46875 
Q 33.109375 45.40625 28.21875 45.40625 
Q 24.515625 45.40625 21.359375 43.453125 
Q 18.21875 41.5 16.796875 37.734375 
Q 15.375 33.984375 15.375 26.90625 
L 15.375 0 
z
" id="ArialMT-109"/>
       <path d="M 12.359375 -21.046875 
L 6.0625 -21.046875 
Q 20.65625 2.390625 20.65625 25.875 
Q 20.65625 35.0625 18.5625 44.09375 
Q 16.890625 51.421875 13.921875 58.15625 
Q 12.015625 62.546875 6.0625 72.796875 
L 12.359375 72.796875 
Q 21.53125 60.546875 25.921875 48.1875 
Q 29.6875 37.546875 29.6875 25.921875 
Q 29.6875 12.75 24.625 0.4375 
Q 19.578125 -11.859375 12.359375 -21.046875 
z
" id="ArialMT-41"/>
      </defs>
      <use transform="translate(0 0.09375)" xlink:href="#DejaVuSans-Oblique-82"/>
      <use transform="translate(69.482422 0.09375)" xlink:href="#ArialMT-32"/>
      <use transform="translate(97.265625 0.09375)" xlink:href="#ArialMT-40"/>
      <use transform="translate(130.566406 0.09375)" xlink:href="#ArialMT-102"/>
      <use transform="translate(158.349609 0.09375)" xlink:href="#ArialMT-109"/>
      <use transform="translate(241.650391 0.09375)" xlink:href="#ArialMT-41"/>
     </g>
    </g>
   </g>
   <g id="matplotlib.axis_2">
    <g id="ytick_1">
     <g id="line2d_22">
      <path clip-path="url(#pb17fff831d)" d="M 58.703125 310.715625 
L 449.303125 310.715625 
" style="fill:none;stroke:#b0b0b0;stroke-linecap:square;stroke-width:0.8;"/>
     </g>
     <g id="line2d_23">
      <defs>
       <path d="M 0 0 
L 3.5 0 
" id="mfb1e0e97ae" style="stroke:#000000;stroke-width:0.8;"/>
      </defs>
      <g>
       <use style="stroke:#000000;stroke-width:0.8;" x="58.703125" xlink:href="#mfb1e0e97ae" y="310.715625"/>
      </g>
     </g>
     <g id="line2d_24">
      <defs>
       <path d="M 0 0 
L -3.5 0 
" id="m8162699c91" style="stroke:#000000;stroke-width:0.8;"/>
      </defs>
      <g>
       <use style="stroke:#000000;stroke-width:0.8;" x="449.303125" xlink:href="#m8162699c91" y="310.715625"/>
      </g>
     </g>
     <g id="text_9">
      <!-- −2 -->
      <g transform="translate(32.4 317.873438)scale(0.2 -0.2)">
       <defs>
        <path d="M 52.828125 31.203125 
L 5.5625 31.203125 
L 5.5625 39.40625 
L 52.828125 39.40625 
z
" id="ArialMT-8722"/>
       </defs>
       <use xlink:href="#ArialMT-8722"/>
       <use x="58.398438" xlink:href="#ArialMT-50"/>
      </g>
     </g>
    </g>
    <g id="ytick_2">
     <g id="line2d_25">
      <path clip-path="url(#pb17fff831d)" d="M 58.703125 241.415625 
L 449.303125 241.415625 
" style="fill:none;stroke:#b0b0b0;stroke-linecap:square;stroke-width:0.8;"/>
     </g>
     <g id="line2d_26">
      <g>
       <use style="stroke:#000000;stroke-width:0.8;" x="58.703125" xlink:href="#mfb1e0e97ae" y="241.415625"/>
      </g>
     </g>
     <g id="line2d_27">
      <g>
       <use style="stroke:#000000;stroke-width:0.8;" x="449.303125" xlink:href="#m8162699c91" y="241.415625"/>
      </g>
     </g>
     <g id="text_10">
      <!-- 0 -->
      <g transform="translate(44.08125 248.573438)scale(0.2 -0.2)">
       <use xlink:href="#ArialMT-48"/>
      </g>
     </g>
    </g>
    <g id="ytick_3">
     <g id="line2d_28">
      <path clip-path="url(#pb17fff831d)" d="M 58.703125 172.115625 
L 449.303125 172.115625 
" style="fill:none;stroke:#b0b0b0;stroke-linecap:square;stroke-width:0.8;"/>
     </g>
     <g id="line2d_29">
      <g>
       <use style="stroke:#000000;stroke-width:0.8;" x="58.703125" xlink:href="#mfb1e0e97ae" y="172.115625"/>
      </g>
     </g>
     <g id="line2d_30">
      <g>
       <use style="stroke:#000000;stroke-width:0.8;" x="449.303125" xlink:href="#m8162699c91" y="172.115625"/>
      </g>
     </g>
     <g id="text_11">
      <!-- 2 -->
      <g transform="translate(44.08125 179.273438)scale(0.2 -0.2)">
       <use xlink:href="#ArialMT-50"/>
      </g>
     </g>
    </g>
    <g id="ytick_4">
     <g id="line2d_31">
      <path clip-path="url(#pb17fff831d)" d="M 58.703125 102.815625 
L 449.303125 102.815625 
" style="fill:none;stroke:#b0b0b0;stroke-linecap:square;stroke-width:0.8;"/>
     </g>
     <g id="line2d_32">
      <g>
       <use style="stroke:#000000;stroke-width:0.8;" x="58.703125" xlink:href="#mfb1e0e97ae" y="102.815625"/>
      </g>
     </g>
     <g id="line2d_33">
      <g>
       <use style="stroke:#000000;stroke-width:0.8;" x="449.303125" xlink:href="#m8162699c91" y="102.815625"/>
      </g>
     </g>
     <g id="text_12">
      <!-- 4 -->
      <g transform="translate(44.08125 109.973437)scale(0.2 -0.2)">
       <use xlink:href="#ArialMT-52"/>
      </g>
     </g>
    </g>
    <g id="ytick_5">
     <g id="line2d_34">
      <path clip-path="url(#pb17fff831d)" d="M 58.703125 33.515625 
L 449.303125 33.515625 
" style="fill:none;stroke:#b0b0b0;stroke-linecap:square;stroke-width:0.8;"/>
     </g>
     <g id="line2d_35">
      <g>
       <use style="stroke:#000000;stroke-width:0.8;" x="58.703125" xlink:href="#mfb1e0e97ae" y="33.515625"/>
      </g>
     </g>
     <g id="line2d_36">
      <g>
       <use style="stroke:#000000;stroke-width:0.8;" x="449.303125" xlink:href="#m8162699c91" y="33.515625"/>
      </g>
     </g>
     <g id="text_13">
      <!-- 6 -->
      <g transform="translate(44.08125 40.673438)scale(0.2 -0.2)">
       <use xlink:href="#ArialMT-54"/>
      </g>
     </g>
    </g>
    <g id="text_14">
     <!-- (TMD) $ \times S_{exp}$ -->
     <g transform="translate(22.2 231.115625)rotate(-90)scale(0.2 -0.2)">
      <defs>
       <path d="M 25.921875 0 
L 25.921875 63.140625 
L 2.34375 63.140625 
L 2.34375 71.578125 
L 59.078125 71.578125 
L 59.078125 63.140625 
L 35.40625 63.140625 
L 35.40625 0 
z
" id="ArialMT-84"/>
       <path d="M 7.421875 0 
L 7.421875 71.578125 
L 21.6875 71.578125 
L 38.625 20.90625 
Q 40.96875 13.8125 42.046875 10.296875 
Q 43.265625 14.203125 45.84375 21.78125 
L 62.984375 71.578125 
L 75.734375 71.578125 
L 75.734375 0 
L 66.609375 0 
L 66.609375 59.90625 
L 45.796875 0 
L 37.25 0 
L 16.546875 60.9375 
L 16.546875 0 
z
" id="ArialMT-77"/>
       <path d="M 7.71875 0 
L 7.71875 71.578125 
L 32.375 71.578125 
Q 40.71875 71.578125 45.125 70.5625 
Q 51.265625 69.140625 55.609375 65.4375 
Q 61.28125 60.640625 64.078125 53.1875 
Q 66.890625 45.75 66.890625 36.1875 
Q 66.890625 28.03125 64.984375 21.734375 
Q 63.09375 15.4375 60.109375 11.296875 
Q 57.125 7.171875 53.578125 4.796875 
Q 50.046875 2.4375 45.046875 1.21875 
Q 40.046875 0 33.546875 0 
z
M 17.1875 8.453125 
L 32.46875 8.453125 
Q 39.546875 8.453125 43.578125 9.765625 
Q 47.609375 11.078125 50 13.484375 
Q 53.375 16.84375 55.25 22.53125 
Q 57.125 28.21875 57.125 36.328125 
Q 57.125 47.5625 53.4375 53.59375 
Q 49.75 59.625 44.484375 61.671875 
Q 40.671875 63.140625 32.234375 63.140625 
L 17.1875 63.140625 
z
" id="ArialMT-68"/>
       <path d="M 70.125 53.71875 
L 47.796875 31.296875 
L 70.125 8.984375 
L 64.3125 3.078125 
L 41.890625 25.484375 
L 19.484375 3.078125 
L 13.71875 8.984375 
L 35.984375 31.296875 
L 13.71875 53.71875 
L 19.484375 59.625 
L 41.890625 37.203125 
L 64.3125 59.625 
z
" id="DejaVuSans-215"/>
       <path d="M 60.296875 70.515625 
L 58.40625 60.890625 
Q 53.46875 63.53125 48.609375 64.875 
Q 43.75 66.21875 39.203125 66.21875 
Q 30.375 66.21875 25.140625 62.359375 
Q 19.921875 58.5 19.921875 52.09375 
Q 19.921875 48.578125 21.84375 46.703125 
Q 23.78125 44.828125 31.78125 42.671875 
L 37.703125 41.21875 
Q 47.703125 38.625 51.609375 34.640625 
Q 55.515625 30.671875 55.515625 23.484375 
Q 55.515625 12.453125 46.84375 5.515625 
Q 38.1875 -1.421875 24.03125 -1.421875 
Q 18.21875 -1.421875 12.359375 -0.265625 
Q 6.5 0.875 0.59375 3.21875 
L 2.59375 13.375 
Q 8.015625 10.015625 13.453125 8.296875 
Q 18.890625 6.59375 24.3125 6.59375 
Q 33.546875 6.59375 39.109375 10.6875 
Q 44.671875 14.796875 44.671875 21.390625 
Q 44.671875 25.78125 42.453125 28.046875 
Q 40.234375 30.328125 32.90625 32.171875 
L 27 33.6875 
Q 16.890625 36.328125 13.203125 39.765625 
Q 9.515625 43.21875 9.515625 49.421875 
Q 9.515625 60.296875 17.890625 67.25 
Q 26.265625 74.21875 39.703125 74.21875 
Q 44.921875 74.21875 50.046875 73.28125 
Q 55.171875 72.359375 60.296875 70.515625 
z
" id="DejaVuSans-Oblique-83"/>
       <path d="M 48.09375 32.234375 
Q 48.25 33.015625 48.3125 33.84375 
Q 48.390625 34.671875 48.390625 35.5 
Q 48.390625 41.453125 44.890625 44.921875 
Q 41.40625 48.390625 35.40625 48.390625 
Q 28.71875 48.390625 23.578125 44.15625 
Q 18.453125 39.9375 15.828125 32.171875 
z
M 55.90625 25.203125 
L 14.109375 25.203125 
Q 13.8125 23.34375 13.71875 22.265625 
Q 13.625 21.1875 13.625 20.40625 
Q 13.625 13.625 17.796875 9.90625 
Q 21.96875 6.203125 29.59375 6.203125 
Q 35.453125 6.203125 40.671875 7.515625 
Q 45.90625 8.84375 50.390625 11.375 
L 48.6875 2.484375 
Q 43.84375 0.53125 38.6875 -0.4375 
Q 33.546875 -1.421875 28.21875 -1.421875 
Q 16.84375 -1.421875 10.71875 4.015625 
Q 4.59375 9.46875 4.59375 19.484375 
Q 4.59375 28.03125 7.640625 35.375 
Q 10.6875 42.71875 16.609375 48.484375 
Q 20.40625 52.09375 25.65625 54.046875 
Q 30.90625 56 36.8125 56 
Q 46.09375 56 51.578125 50.4375 
Q 57.078125 44.875 57.078125 35.5 
Q 57.078125 33.25 56.78125 30.6875 
Q 56.5 28.125 55.90625 25.203125 
z
" id="DejaVuSans-Oblique-101"/>
       <path d="M 60.015625 54.6875 
L 34.90625 27.875 
L 50.296875 0 
L 39.984375 0 
L 28.421875 21.6875 
L 8.296875 0 
L -2.59375 0 
L 24.3125 28.8125 
L 10.015625 54.6875 
L 20.3125 54.6875 
L 30.8125 34.90625 
L 49.125 54.6875 
z
" id="DejaVuSans-Oblique-120"/>
       <path d="M 49.609375 33.6875 
Q 49.609375 40.875 46.484375 44.671875 
Q 43.359375 48.484375 37.5 48.484375 
Q 33.5 48.484375 29.859375 46.4375 
Q 26.21875 44.390625 23.390625 40.484375 
Q 20.609375 36.625 18.9375 31.15625 
Q 17.28125 25.6875 17.28125 20.3125 
Q 17.28125 13.484375 20.40625 9.796875 
Q 23.53125 6.109375 29.296875 6.109375 
Q 33.546875 6.109375 37.1875 8.109375 
Q 40.828125 10.109375 43.40625 13.921875 
Q 46.1875 17.921875 47.890625 23.34375 
Q 49.609375 28.765625 49.609375 33.6875 
z
M 21.78125 46.390625 
Q 25.390625 51.125 30.296875 53.5625 
Q 35.203125 56 41.21875 56 
Q 49.609375 56 54.25 50.5 
Q 58.890625 45.015625 58.890625 35.109375 
Q 58.890625 27 56 19.65625 
Q 53.125 12.3125 47.703125 6.5 
Q 44.09375 2.640625 39.546875 0.609375 
Q 35.015625 -1.421875 29.984375 -1.421875 
Q 24.171875 -1.421875 20.21875 1 
Q 16.265625 3.421875 14.3125 8.203125 
L 8.6875 -20.796875 
L -0.296875 -20.796875 
L 14.40625 54.6875 
L 23.390625 54.6875 
z
" id="DejaVuSans-Oblique-112"/>
      </defs>
      <use transform="translate(0 0.78125)" xlink:href="#ArialMT-40"/>
      <use transform="translate(33.300781 0.78125)" xlink:href="#ArialMT-84"/>
      <use transform="translate(94.384766 0.78125)" xlink:href="#ArialMT-77"/>
      <use transform="translate(177.685547 0.78125)" xlink:href="#ArialMT-68"/>
      <use transform="translate(249.902344 0.78125)" xlink:href="#ArialMT-41"/>
      <use transform="translate(283.203125 0.78125)" xlink:href="#ArialMT-32"/>
      <use transform="translate(310.986328 0.78125)" xlink:href="#DejaVuSans-215"/>
      <use transform="translate(394.775391 0.78125)" xlink:href="#DejaVuSans-Oblique-83"/>
      <use transform="translate(458.251953 -15.625)scale(0.7)" xlink:href="#DejaVuSans-Oblique-101"/>
      <use transform="translate(501.318359 -15.625)scale(0.7)" xlink:href="#DejaVuSans-Oblique-120"/>
      <use transform="translate(542.744141 -15.625)scale(0.7)" xlink:href="#DejaVuSans-Oblique-112"/>
     </g>
    </g>
   </g>
   <g id="line2d_37">
    <path clip-path="url(#pb17fff831d)" d="M 58.703125 241.415341 
L 74.978125 241.609135 
L 84.743125 241.385133 
L 87.998125 241.465802 
L 91.253125 241.684762 
L 101.018125 242.835513 
L 104.273125 243.07044 
L 107.528125 243.063579 
L 110.783125 242.88326 
L 114.038125 242.527786 
L 117.293125 241.997918 
L 120.548125 241.663414 
L 123.803125 241.619093 
L 127.058125 241.775292 
L 130.313125 242.838943 
L 133.568125 244.483952 
L 136.823125 246.749993 
L 140.078125 249.757266 
L 143.333125 253.437789 
L 146.588125 257.322747 
L 153.098125 263.715326 
L 156.353125 265.954062 
L 159.608125 265.491138 
L 162.863125 263.478666 
L 166.118125 259.679294 
L 169.373125 252.68727 
L 172.628125 243.310945 
L 175.883125 231.550077 
L 179.138125 218.450991 
L 182.393125 203.62287 
L 188.903125 170.625675 
L 195.413125 141.852315 
L 198.668125 128.0235 
L 201.923125 117.805215 
L 205.178125 109.385265 
L 208.433125 102.77058 
L 211.688125 98.442795 
L 214.943125 96.83157 
L 218.198125 97.528035 
L 221.453125 100.535655 
L 224.708125 103.24875 
L 227.963125 106.474665 
L 231.218125 110.618805 
L 234.473125 115.656915 
L 237.728125 121.436535 
L 240.983125 128.05122 
L 247.493125 143.16555 
L 257.258125 163.764975 
L 260.513125 170.1579 
L 263.768125 175.843965 
L 267.023125 181.12809 
L 270.278125 186.017205 
L 273.533125 190.58061 
L 276.788125 194.811375 
L 280.043125 198.692175 
L 283.298125 202.21608 
L 286.553125 205.421205 
L 289.808125 208.289879 
L 293.063125 210.822447 
L 296.318125 213.017178 
L 299.573125 214.993614 
L 302.828125 216.690078 
L 306.083125 218.101026 
L 315.848125 221.482866 
L 322.358125 223.18037 
L 328.868125 224.87822 
L 341.888125 227.894156 
L 371.183125 234.192486 
L 380.948125 236.082644 
L 387.458125 237.179316 
L 393.968125 238.081117 
L 397.223125 238.417222 
L 403.733125 238.750035 
L 406.988125 238.782398 
L 410.243125 239.141234 
L 416.753125 240.189673 
L 420.008125 240.701904 
L 426.518125 241.257604 
L 433.028125 241.511252 
L 452.558125 241.415625 
L 468.625 241.415625 
L 468.625 241.415625 
" style="fill:none;stroke:#000000;stroke-dasharray:;stroke-dashoffset:0;stroke-width:3;"/>
   </g>
   <g id="line2d_38">
    <path clip-path="url(#pb17fff831d)" d="M 58.703125 241.415603 
L 61.958125 241.320801 
L 65.213125 241.00794 
L 68.468125 240.409947 
L 71.723125 239.47948 
L 74.978125 238.243409 
L 78.233125 236.796219 
L 81.488125 235.636984 
L 84.743125 234.937765 
L 87.998125 235.324652 
L 91.253125 236.919669 
L 94.508125 239.997529 
L 97.763125 243.866241 
L 101.018125 248.165047 
L 104.273125 251.887657 
L 107.528125 253.379324 
L 110.783125 253.290799 
L 114.038125 249.968333 
L 123.803125 232.65921 
L 127.058125 227.133314 
L 130.313125 227.799318 
L 133.568125 231.787788 
L 136.823125 238.868786 
L 140.078125 248.347371 
L 146.588125 272.53621 
L 149.843125 278.450704 
L 153.098125 282.02734 
L 156.353125 281.374451 
L 159.608125 272.348041 
L 162.863125 257.613839 
L 166.118125 237.856523 
L 169.373125 217.121868 
L 172.628125 193.08613 
L 175.883125 165.746031 
L 179.138125 144.055279 
L 182.393125 124.656766 
L 185.648125 106.750776 
L 188.903125 92.633825 
L 192.158125 83.895371 
L 195.413125 78.948808 
L 198.668125 77.737114 
L 201.923125 78.549662 
L 205.178125 82.355807 
L 208.433125 89.141295 
L 214.943125 105.095744 
L 218.198125 114.176324 
L 221.453125 124.470023 
L 224.708125 133.664644 
L 234.473125 159.93275 
L 237.728125 167.485169 
L 240.983125 174.532953 
L 244.238125 181.074676 
L 247.493125 187.083254 
L 250.748125 192.514496 
L 254.003125 197.402613 
L 257.258125 201.749032 
L 260.513125 205.70058 
L 263.768125 209.319982 
L 267.023125 212.518855 
L 270.278125 215.295773 
L 273.533125 217.867416 
L 276.788125 220.218103 
L 280.043125 222.280834 
L 286.553125 225.739152 
L 289.808125 227.264462 
L 293.063125 228.602457 
L 299.573125 230.866472 
L 302.828125 231.865621 
L 306.083125 232.743173 
L 312.593125 234.244106 
L 319.103125 235.487446 
L 328.868125 236.938486 
L 338.633125 238.018462 
L 348.398125 238.835999 
L 358.163125 239.464084 
L 371.183125 240.069903 
L 387.458125 240.571872 
L 406.988125 240.932073 
L 433.028125 241.189352 
L 468.625 241.335764 
L 468.625 241.335764 
" style="fill:none;stroke:#ff0000;stroke-dasharray:18,3;stroke-dashoffset:0;stroke-width:3;"/>
   </g>
   <g id="line2d_39">
    <path clip-path="url(#pb17fff831d)" d="M 58.703125 241.415484 
L 65.213125 241.413722 
L 68.468125 241.281031 
L 71.723125 240.903936 
L 74.978125 240.205511 
L 78.233125 239.154524 
L 84.743125 236.834946 
L 87.998125 236.167514 
L 91.253125 236.258153 
L 94.508125 237.463217 
L 97.763125 239.607453 
L 101.018125 242.690418 
L 104.273125 245.95156 
L 107.528125 248.360891 
L 110.783125 250.15781 
L 114.038125 249.045866 
L 117.293125 246.020137 
L 120.548125 241.571731 
L 123.803125 235.826754 
L 127.058125 228.838694 
L 130.313125 225.681836 
L 133.568125 224.014363 
L 136.823125 224.522047 
L 140.078125 229.273726 
L 143.333125 237.102167 
L 146.588125 246.271587 
L 153.098125 261.278227 
L 156.353125 266.797192 
L 159.608125 265.073013 
L 162.863125 259.413173 
L 166.118125 249.746878 
L 169.373125 235.658944 
L 172.628125 217.387884 
L 175.883125 194.934585 
L 185.648125 135.324629 
L 188.903125 117.852485 
L 192.158125 105.333145 
L 195.413125 95.507279 
L 198.668125 88.401469 
L 201.923125 84.857423 
L 205.178125 84.405558 
L 208.433125 87.037011 
L 211.688125 91.493648 
L 214.943125 96.650234 
L 218.198125 103.569983 
L 221.453125 112.252894 
L 227.963125 128.245398 
L 234.473125 145.442878 
L 240.983125 160.379257 
L 244.238125 167.451399 
L 247.493125 174.111546 
L 250.748125 180.116931 
L 254.003125 185.662476 
L 257.258125 190.748181 
L 260.513125 195.422777 
L 263.768125 199.710186 
L 267.023125 203.577625 
L 270.278125 207.025981 
L 273.533125 210.22271 
L 276.788125 213.15718 
L 280.043125 215.776229 
L 286.553125 220.253244 
L 289.808125 222.234366 
L 293.063125 223.99487 
L 299.573125 227.013511 
L 302.828125 228.34873 
L 306.083125 229.532441 
L 312.593125 231.573811 
L 319.103125 233.273358 
L 325.613125 234.661029 
L 332.123125 235.815236 
L 341.888125 237.187756 
L 351.653125 238.221997 
L 361.418125 239.006117 
L 371.183125 239.601074 
L 384.203125 240.172994 
L 400.478125 240.643634 
L 420.008125 240.980487 
L 446.048125 241.215041 
L 468.625 241.313126 
L 468.625 241.313126 
" style="fill:none;stroke:#008000;stroke-dasharray:3,3;stroke-dashoffset:0;stroke-width:3;"/>
   </g>
   <g id="line2d_40">
    <path clip-path="url(#pb17fff831d)" d="M 58.703125 241.415429 
L 65.213125 241.651645 
L 68.468125 241.810891 
L 71.723125 241.815024 
L 74.978125 241.542201 
L 78.233125 240.898876 
L 81.488125 239.932891 
L 87.998125 237.648397 
L 91.253125 236.907927 
L 94.508125 236.862494 
L 97.763125 237.632944 
L 101.018125 239.401355 
L 107.528125 244.088585 
L 110.783125 246.514414 
L 114.038125 246.934191 
L 117.293125 246.237765 
L 120.548125 243.768066 
L 123.803125 239.356559 
L 127.058125 233.339562 
L 133.568125 224.030734 
L 136.823125 220.374686 
L 140.078125 220.767087 
L 143.333125 223.488432 
L 146.588125 228.179888 
L 149.843125 234.197289 
L 156.353125 249.483585 
L 159.608125 252.434699 
L 162.863125 253.603801 
L 166.118125 252.37335 
L 169.373125 245.096212 
L 172.628125 233.869709 
L 175.883125 218.6928 
L 179.138125 202.931339 
L 182.393125 185.321888 
L 185.648125 165.562909 
L 188.903125 146.996183 
L 192.158125 131.948338 
L 195.413125 118.08117 
L 198.668125 105.498856 
L 201.923125 97.575587 
L 205.178125 92.407231 
L 208.433125 89.993788 
L 211.688125 89.808583 
L 214.943125 91.394395 
L 218.198125 95.179507 
L 224.708125 107.084667 
L 227.963125 113.618905 
L 231.218125 121.13704 
L 234.473125 129.413355 
L 247.493125 158.606175 
L 250.748125 165.105686 
L 254.003125 171.286878 
L 257.258125 177.161326 
L 260.513125 182.630639 
L 263.768125 187.654304 
L 267.023125 192.290198 
L 270.278125 196.53832 
L 273.533125 200.483171 
L 276.788125 204.118383 
L 280.043125 207.417912 
L 283.298125 210.381759 
L 286.553125 213.16561 
L 289.808125 215.716799 
L 293.063125 218.012174 
L 299.573125 221.993487 
L 302.828125 223.758136 
L 306.083125 225.336424 
L 312.593125 228.076868 
L 315.848125 229.288219 
L 319.103125 230.367613 
L 325.613125 232.251487 
L 332.123125 233.822251 
L 338.633125 235.122732 
L 345.143125 236.20392 
L 354.908125 237.500349 
L 364.673125 238.475102 
L 374.438125 239.207527 
L 384.203125 239.757295 
L 397.223125 240.286921 
L 413.498125 240.721167 
L 436.283125 241.065305 
L 468.625 241.283247 
L 468.625 241.283247 
" style="fill:none;stroke:#0000ff;stroke-dasharray:18,3,3,3;stroke-dashoffset:0;stroke-width:3;"/>
   </g>
   <g id="line2d_41">
    <path clip-path="url(#pb17fff831d)" d="M 58.703125 241.41541 
L 61.958125 241.516371 
L 71.723125 242.348775 
L 74.978125 242.379331 
L 78.233125 242.077303 
L 81.488125 241.381728 
L 84.743125 240.368259 
L 91.253125 238.068 
L 94.508125 237.29916 
L 97.763125 237.122802 
L 101.018125 237.784282 
L 104.273125 239.077915 
L 107.528125 240.923567 
L 110.783125 243.171593 
L 114.038125 244.356637 
L 117.293125 245.113548 
L 120.548125 244.323941 
L 123.803125 241.700885 
L 127.058125 237.647634 
L 130.313125 233.183883 
L 136.823125 222.517612 
L 140.078125 219.950717 
L 143.333125 218.596527 
L 146.588125 219.017804 
L 149.843125 222.22791 
L 153.098125 227.570161 
L 156.353125 233.87901 
L 162.863125 243.388215 
L 166.118125 247.410597 
L 169.373125 245.834475 
L 172.628125 241.440646 
L 175.883125 234.229347 
L 179.138125 223.900336 
L 182.393125 210.565714 
L 192.158125 162.058636 
L 198.668125 129.993244 
L 201.923125 118.516125 
L 205.178125 108.925438 
L 208.433125 101.213257 
L 211.688125 95.819487 
L 214.943125 93.116657 
L 218.198125 92.752052 
L 221.453125 94.717747 
L 224.708125 97.480023 
L 227.963125 101.518416 
L 231.218125 107.07071 
L 234.473125 113.895157 
L 237.728125 120.057768 
L 240.983125 126.763323 
L 247.493125 141.335619 
L 257.258125 161.159013 
L 260.513125 167.357292 
L 263.768125 173.079999 
L 267.023125 178.501512 
L 270.278125 183.621829 
L 273.533125 188.393394 
L 276.788125 192.812243 
L 280.043125 196.898193 
L 283.298125 200.651243 
L 286.553125 204.162147 
L 289.808125 207.398806 
L 293.063125 210.347744 
L 299.573125 215.527508 
L 302.828125 217.828084 
L 306.083125 219.903952 
L 312.593125 223.534939 
L 315.848125 225.141973 
L 319.103125 226.582954 
L 325.613125 229.106652 
L 328.868125 230.220678 
L 335.378125 232.114244 
L 341.888125 233.739112 
L 348.398125 235.053671 
L 354.908125 236.17483 
L 364.673125 237.488397 
L 374.438125 238.473503 
L 384.203125 239.211788 
L 393.968125 239.770743 
L 406.988125 240.299895 
L 423.263125 240.73532 
L 446.048125 241.07489 
L 468.625 241.24416 
L 468.625 241.24416 
" style="fill:none;stroke:#bf00bf;stroke-dasharray:18,3,3,3,3,3;stroke-dashoffset:0;stroke-width:3;"/>
   </g>
   <g id="line2d_42">
    <path clip-path="url(#pb17fff831d)" d="M 58.703125 241.415413 
L 61.958125 241.528522 
L 68.468125 242.239926 
L 71.723125 242.623084 
L 74.978125 242.850882 
L 78.233125 242.802324 
L 81.488125 242.358852 
L 84.743125 241.566258 
L 91.253125 239.270903 
L 94.508125 238.153121 
L 97.763125 237.402311 
L 101.018125 237.262315 
L 104.273125 237.697637 
L 107.528125 238.858639 
L 110.783125 240.553783 
L 117.293125 243.333116 
L 120.548125 243.652267 
L 123.803125 242.586168 
L 127.058125 240.489067 
L 130.313125 237.054451 
L 133.568125 232.423508 
L 136.823125 227.211567 
L 140.078125 223.281455 
L 143.333125 219.58221 
L 146.588125 217.059442 
L 149.843125 217.419797 
L 153.098125 219.556653 
L 156.353125 223.129249 
L 159.608125 227.391318 
L 162.863125 232.823334 
L 166.118125 238.707568 
L 169.373125 240.806912 
L 172.628125 241.557282 
L 175.883125 240.958693 
L 179.138125 236.157965 
L 182.393125 228.225615 
L 185.648125 217.416105 
L 188.903125 204.886036 
L 192.158125 191.440171 
L 195.413125 176.273463 
L 198.668125 159.539253 
L 201.923125 146.269448 
L 205.178125 133.624372 
L 208.433125 121.606864 
L 211.688125 111.506137 
L 214.943125 104.455222 
L 218.198125 99.377882 
L 221.453125 96.274116 
L 224.708125 94.92811 
L 227.963125 95.405176 
L 231.218125 97.739389 
L 237.728125 105.784191 
L 240.983125 110.889928 
L 244.238125 117.046345 
L 247.493125 123.691186 
L 250.748125 129.910076 
L 254.003125 136.438491 
L 260.513125 149.904233 
L 267.023125 162.174472 
L 270.278125 168.132112 
L 273.533125 173.709235 
L 276.788125 178.92004 
L 280.043125 183.852557 
L 283.298125 188.503946 
L 286.553125 192.834452 
L 289.808125 196.858272 
L 293.063125 200.581087 
L 296.318125 204.002897 
L 299.573125 207.21457 
L 302.828125 210.170672 
L 306.083125 212.868364 
L 312.593125 217.620562 
L 315.848125 219.728737 
L 319.103125 221.631888 
L 325.613125 224.979582 
L 328.868125 226.459337 
L 332.123125 227.787169 
L 338.633125 230.12905 
L 345.143125 232.080191 
L 351.653125 233.711301 
L 358.163125 235.055603 
L 364.673125 236.182954 
L 371.183125 237.097046 
L 377.693125 237.87029 
L 387.458125 238.767031 
L 397.223125 239.438188 
L 410.243125 240.083278 
L 423.263125 240.520985 
L 442.793125 240.922771 
L 468.625 241.192598 
L 468.625 241.192598 
" style="fill:none;stroke:#000000;stroke-dasharray:18,3,3,3,3,3,3,3;stroke-dashoffset:0;stroke-width:3;"/>
   </g>
   <g id="line2d_43">
    <path clip-path="url(#pb17fff831d)" d="M 58.703125 241.415426 
L 61.958125 241.529977 
L 65.213125 241.841282 
L 74.978125 243.076599 
L 78.233125 243.200736 
L 81.488125 242.960605 
L 84.743125 242.380509 
L 87.998125 241.444359 
L 97.763125 238.012578 
L 101.018125 237.352977 
L 104.273125 237.15331 
L 107.528125 237.675547 
L 110.783125 238.732567 
L 114.038125 239.942644 
L 117.293125 241.471223 
L 120.548125 242.367028 
L 123.803125 242.386102 
L 127.058125 241.793056 
L 130.313125 239.582415 
L 133.568125 236.217919 
L 146.588125 219.475708 
L 149.843125 217.749093 
L 153.098125 217.153709 
L 156.353125 217.929835 
L 159.608125 220.601835 
L 162.863125 224.831404 
L 166.118125 230.153715 
L 172.628125 237.410389 
L 175.883125 240.924901 
L 179.138125 240.551297 
L 182.393125 237.719989 
L 185.648125 232.77043 
L 188.903125 225.505251 
L 192.158125 215.786451 
L 195.413125 203.751179 
L 198.668125 189.512985 
L 201.923125 176.665439 
L 205.178125 163.177855 
L 208.433125 149.052359 
L 211.688125 136.002808 
L 214.943125 125.519788 
L 218.198125 116.182884 
L 221.453125 107.994222 
L 224.708125 102.21474 
L 227.963125 98.45106 
L 231.218125 96.509681 
L 234.473125 96.305549 
L 237.728125 97.149719 
L 240.983125 99.469592 
L 244.238125 103.265168 
L 250.748125 112.816836 
L 254.003125 118.398565 
L 273.533125 156.381967 
L 280.043125 167.968574 
L 283.298125 173.541797 
L 286.553125 178.719516 
L 289.808125 183.586784 
L 293.063125 188.179749 
L 296.318125 192.500539 
L 299.573125 196.519384 
L 302.828125 200.255422 
L 306.083125 203.706525 
L 309.338125 206.876948 
L 312.593125 209.858123 
L 315.848125 212.594765 
L 319.103125 215.089 
L 325.613125 219.499098 
L 328.868125 221.452172 
L 332.123125 223.214722 
L 338.633125 226.331135 
L 341.888125 227.703921 
L 348.398125 230.060155 
L 354.908125 232.067876 
L 361.418125 233.699442 
L 367.928125 235.075631 
L 374.438125 236.192828 
L 380.948125 237.125667 
L 390.713125 238.221175 
L 400.478125 239.037702 
L 410.243125 239.648588 
L 423.263125 240.232128 
L 439.538125 240.697081 
L 459.068125 241.022459 
L 468.625 241.123247 
L 468.625 241.123247 
" style="fill:none;stroke:#ff0000;stroke-dasharray:18,3,3,3,3,3,3,3,3,3;stroke-dashoffset:0;stroke-width:3;"/>
   </g>
   <g id="patch_3">
    <path d="M 58.703125 310.715625 
L 58.703125 33.515625 
" style="fill:none;stroke:#000000;stroke-linecap:square;stroke-linejoin:miter;stroke-width:0.8;"/>
   </g>
   <g id="patch_4">
    <path d="M 449.303125 310.715625 
L 449.303125 33.515625 
" style="fill:none;stroke:#000000;stroke-linecap:square;stroke-linejoin:miter;stroke-width:0.8;"/>
   </g>
   <g id="patch_5">
    <path d="M 58.703125 310.715625 
L 449.303125 310.715625 
" style="fill:none;stroke:#000000;stroke-linecap:square;stroke-linejoin:miter;stroke-width:0.8;"/>
   </g>
   <g id="patch_6">
    <path d="M 58.703125 33.515625 
L 449.303125 33.515625 
" style="fill:none;stroke:#000000;stroke-linecap:square;stroke-linejoin:miter;stroke-width:0.8;"/>
   </g>
   <g id="text_15">
    <!-- TMD -->
    <g transform="translate(232.34375 21.515625)scale(0.2 -0.2)">
     <use xlink:href="#ArialMT-84"/>
     <use x="61.083984" xlink:href="#ArialMT-77"/>
     <use x="144.384766" xlink:href="#ArialMT-68"/>
    </g>
   </g>
   <g id="legend_1">
    <g id="line2d_44">
     <path d="M 332.783125 48.705 
L 356.783125 48.705 
" style="fill:none;stroke:#ff0000;stroke-dasharray:18,3;stroke-dashoffset:0;stroke-width:3;"/>
    </g>
    <g id="line2d_45"/>
    <g id="text_16">
     <!-- $R_0=$ 2.75 fm -->
     <g transform="translate(366.383125 52.905)scale(0.12 -0.12)">
      <defs>
       <path d="M 31.78125 66.40625 
Q 24.171875 66.40625 20.328125 58.90625 
Q 16.5 51.421875 16.5 36.375 
Q 16.5 21.390625 20.328125 13.890625 
Q 24.171875 6.390625 31.78125 6.390625 
Q 39.453125 6.390625 43.28125 13.890625 
Q 47.125 21.390625 47.125 36.375 
Q 47.125 51.421875 43.28125 58.90625 
Q 39.453125 66.40625 31.78125 66.40625 
z
M 31.78125 74.21875 
Q 44.046875 74.21875 50.515625 64.515625 
Q 56.984375 54.828125 56.984375 36.375 
Q 56.984375 17.96875 50.515625 8.265625 
Q 44.046875 -1.421875 31.78125 -1.421875 
Q 19.53125 -1.421875 13.0625 8.265625 
Q 6.59375 17.96875 6.59375 36.375 
Q 6.59375 54.828125 13.0625 64.515625 
Q 19.53125 74.21875 31.78125 74.21875 
z
" id="DejaVuSans-48"/>
       <path d="M 10.59375 45.40625 
L 73.1875 45.40625 
L 73.1875 37.203125 
L 10.59375 37.203125 
z
M 10.59375 25.484375 
L 73.1875 25.484375 
L 73.1875 17.1875 
L 10.59375 17.1875 
z
" id="DejaVuSans-61"/>
       <path d="M 9.078125 0 
L 9.078125 10.015625 
L 19.09375 10.015625 
L 19.09375 0 
z
" id="ArialMT-46"/>
       <path d="M 4.734375 62.203125 
L 4.734375 70.65625 
L 51.078125 70.65625 
L 51.078125 63.8125 
Q 44.234375 56.546875 37.515625 44.484375 
Q 30.8125 32.421875 27.15625 19.671875 
Q 24.515625 10.6875 23.78125 0 
L 14.75 0 
Q 14.890625 8.453125 18.0625 20.40625 
Q 21.234375 32.375 27.171875 43.484375 
Q 33.109375 54.59375 39.796875 62.203125 
z
" id="ArialMT-55"/>
       <path d="M 4.15625 18.75 
L 13.375 19.53125 
Q 14.40625 12.796875 18.140625 9.390625 
Q 21.875 6 27.15625 6 
Q 33.5 6 37.890625 10.78125 
Q 42.28125 15.578125 42.28125 23.484375 
Q 42.28125 31 38.0625 35.34375 
Q 33.84375 39.703125 27 39.703125 
Q 22.75 39.703125 19.328125 37.765625 
Q 15.921875 35.84375 13.96875 32.765625 
L 5.71875 33.84375 
L 12.640625 70.609375 
L 48.25 70.609375 
L 48.25 62.203125 
L 19.671875 62.203125 
L 15.828125 42.96875 
Q 22.265625 47.46875 29.34375 47.46875 
Q 38.71875 47.46875 45.15625 40.96875 
Q 51.609375 34.46875 51.609375 24.265625 
Q 51.609375 14.546875 45.953125 7.46875 
Q 39.0625 -1.21875 27.15625 -1.21875 
Q 17.390625 -1.21875 11.203125 4.25 
Q 5.03125 9.71875 4.15625 18.75 
z
" id="ArialMT-53"/>
      </defs>
      <use transform="translate(0 0.09375)" xlink:href="#DejaVuSans-Oblique-82"/>
      <use transform="translate(69.482422 -16.3125)scale(0.7)" xlink:href="#DejaVuSans-48"/>
      <use transform="translate(136.235352 0.09375)" xlink:href="#DejaVuSans-61"/>
      <use transform="translate(239.506836 0.09375)" xlink:href="#ArialMT-32"/>
      <use transform="translate(267.290039 0.09375)" xlink:href="#ArialMT-50"/>
      <use transform="translate(322.905273 0.09375)" xlink:href="#ArialMT-46"/>
      <use transform="translate(350.688477 0.09375)" xlink:href="#ArialMT-55"/>
      <use transform="translate(406.303711 0.09375)" xlink:href="#ArialMT-53"/>
      <use transform="translate(461.918945 0.09375)" xlink:href="#ArialMT-32"/>
      <use transform="translate(489.702148 0.09375)" xlink:href="#ArialMT-102"/>
      <use transform="translate(517.485352 0.09375)" xlink:href="#ArialMT-109"/>
     </g>
    </g>
    <g id="line2d_46">
     <path d="M 332.783125 65.679375 
L 356.783125 65.679375 
" style="fill:none;stroke:#008000;stroke-dasharray:3,3;stroke-dashoffset:0;stroke-width:3;"/>
    </g>
    <g id="line2d_47"/>
    <g id="text_17">
     <!-- $R_0=$ 3.21 fm -->
     <g transform="translate(366.383125 69.879375)scale(0.12 -0.12)">
      <defs>
       <path d="M 4.203125 18.890625 
L 12.984375 20.0625 
Q 14.5 12.59375 18.140625 9.296875 
Q 21.78125 6 27 6 
Q 33.203125 6 37.46875 10.296875 
Q 41.75 14.59375 41.75 20.953125 
Q 41.75 27 37.796875 30.921875 
Q 33.84375 34.859375 27.734375 34.859375 
Q 25.25 34.859375 21.53125 33.890625 
L 22.515625 41.609375 
Q 23.390625 41.5 23.921875 41.5 
Q 29.546875 41.5 34.03125 44.421875 
Q 38.53125 47.359375 38.53125 53.46875 
Q 38.53125 58.296875 35.25 61.46875 
Q 31.984375 64.65625 26.8125 64.65625 
Q 21.6875 64.65625 18.265625 61.421875 
Q 14.84375 58.203125 13.875 51.765625 
L 5.078125 53.328125 
Q 6.6875 62.15625 12.390625 67.015625 
Q 18.109375 71.875 26.609375 71.875 
Q 32.46875 71.875 37.390625 69.359375 
Q 42.328125 66.84375 44.9375 62.5 
Q 47.5625 58.15625 47.5625 53.265625 
Q 47.5625 48.640625 45.0625 44.828125 
Q 42.578125 41.015625 37.703125 38.765625 
Q 44.046875 37.3125 47.5625 32.6875 
Q 51.078125 28.078125 51.078125 21.140625 
Q 51.078125 11.765625 44.234375 5.25 
Q 37.40625 -1.265625 26.953125 -1.265625 
Q 17.53125 -1.265625 11.296875 4.34375 
Q 5.078125 9.96875 4.203125 18.890625 
z
" id="ArialMT-51"/>
      </defs>
      <use transform="translate(0 0.09375)" xlink:href="#DejaVuSans-Oblique-82"/>
      <use transform="translate(69.482422 -16.3125)scale(0.7)" xlink:href="#DejaVuSans-48"/>
      <use transform="translate(136.235352 0.09375)" xlink:href="#DejaVuSans-61"/>
      <use transform="translate(239.506836 0.09375)" xlink:href="#ArialMT-32"/>
      <use transform="translate(267.290039 0.09375)" xlink:href="#ArialMT-51"/>
      <use transform="translate(322.905273 0.09375)" xlink:href="#ArialMT-46"/>
      <use transform="translate(350.688477 0.09375)" xlink:href="#ArialMT-50"/>
      <use transform="translate(406.303711 0.09375)" xlink:href="#ArialMT-49"/>
      <use transform="translate(461.918945 0.09375)" xlink:href="#ArialMT-32"/>
      <use transform="translate(489.702148 0.09375)" xlink:href="#ArialMT-102"/>
      <use transform="translate(517.485352 0.09375)" xlink:href="#ArialMT-109"/>
     </g>
    </g>
    <g id="line2d_48">
     <path d="M 332.783125 82.65375 
L 356.783125 82.65375 
" style="fill:none;stroke:#0000ff;stroke-dasharray:18,3,3,3;stroke-dashoffset:0;stroke-width:3;"/>
    </g>
    <g id="line2d_49"/>
    <g id="text_18">
     <!-- $R_0=$ 3.66 fm -->
     <g transform="translate(366.383125 86.85375)scale(0.12 -0.12)">
      <use transform="translate(0 0.09375)" xlink:href="#DejaVuSans-Oblique-82"/>
      <use transform="translate(69.482422 -16.3125)scale(0.7)" xlink:href="#DejaVuSans-48"/>
      <use transform="translate(136.235352 0.09375)" xlink:href="#DejaVuSans-61"/>
      <use transform="translate(239.506836 0.09375)" xlink:href="#ArialMT-32"/>
      <use transform="translate(267.290039 0.09375)" xlink:href="#ArialMT-51"/>
      <use transform="translate(322.905273 0.09375)" xlink:href="#ArialMT-46"/>
      <use transform="translate(350.688477 0.09375)" xlink:href="#ArialMT-54"/>
      <use transform="translate(406.303711 0.09375)" xlink:href="#ArialMT-54"/>
      <use transform="translate(461.918945 0.09375)" xlink:href="#ArialMT-32"/>
      <use transform="translate(489.702148 0.09375)" xlink:href="#ArialMT-102"/>
      <use transform="translate(517.485352 0.09375)" xlink:href="#ArialMT-109"/>
     </g>
    </g>
    <g id="line2d_50">
     <path d="M 332.783125 99.628125 
L 356.783125 99.628125 
" style="fill:none;stroke:#bf00bf;stroke-dasharray:18,3,3,3,3,3;stroke-dashoffset:0;stroke-width:3;"/>
    </g>
    <g id="line2d_51"/>
    <g id="text_19">
     <!-- $R_0=$ 4.12 fm -->
     <g transform="translate(366.383125 103.828125)scale(0.12 -0.12)">
      <use transform="translate(0 0.09375)" xlink:href="#DejaVuSans-Oblique-82"/>
      <use transform="translate(69.482422 -16.3125)scale(0.7)" xlink:href="#DejaVuSans-48"/>
      <use transform="translate(136.235352 0.09375)" xlink:href="#DejaVuSans-61"/>
      <use transform="translate(239.506836 0.09375)" xlink:href="#ArialMT-32"/>
      <use transform="translate(267.290039 0.09375)" xlink:href="#ArialMT-52"/>
      <use transform="translate(322.905273 0.09375)" xlink:href="#ArialMT-46"/>
      <use transform="translate(350.688477 0.09375)" xlink:href="#ArialMT-49"/>
      <use transform="translate(406.303711 0.09375)" xlink:href="#ArialMT-50"/>
      <use transform="translate(461.918945 0.09375)" xlink:href="#ArialMT-32"/>
      <use transform="translate(489.702148 0.09375)" xlink:href="#ArialMT-102"/>
      <use transform="translate(517.485352 0.09375)" xlink:href="#ArialMT-109"/>
     </g>
    </g>
    <g id="line2d_52">
     <path d="M 332.783125 116.6025 
L 356.783125 116.6025 
" style="fill:none;stroke:#000000;stroke-dasharray:18,3,3,3,3,3,3,3;stroke-dashoffset:0;stroke-width:3;"/>
    </g>
    <g id="line2d_53"/>
    <g id="text_20">
     <!-- $R_0=$ 4.58 fm -->
     <g transform="translate(366.383125 120.8025)scale(0.12 -0.12)">
      <use transform="translate(0 0.09375)" xlink:href="#DejaVuSans-Oblique-82"/>
      <use transform="translate(69.482422 -16.3125)scale(0.7)" xlink:href="#DejaVuSans-48"/>
      <use transform="translate(136.235352 0.09375)" xlink:href="#DejaVuSans-61"/>
      <use transform="translate(239.506836 0.09375)" xlink:href="#ArialMT-32"/>
      <use transform="translate(267.290039 0.09375)" xlink:href="#ArialMT-52"/>
      <use transform="translate(322.905273 0.09375)" xlink:href="#ArialMT-46"/>
      <use transform="translate(350.688477 0.09375)" xlink:href="#ArialMT-53"/>
      <use transform="translate(406.303711 0.09375)" xlink:href="#ArialMT-56"/>
      <use transform="translate(461.918945 0.09375)" xlink:href="#ArialMT-32"/>
      <use transform="translate(489.702148 0.09375)" xlink:href="#ArialMT-102"/>
      <use transform="translate(517.485352 0.09375)" xlink:href="#ArialMT-109"/>
     </g>
    </g>
    <g id="line2d_54">
     <path d="M 332.783125 133.576875 
L 356.783125 133.576875 
" style="fill:none;stroke:#ff0000;stroke-dasharray:18,3,3,3,3,3,3,3,3,3;stroke-dashoffset:0;stroke-width:3;"/>
    </g>
    <g id="line2d_55"/>
    <g id="text_21">
     <!-- $R_0=$ 5.04 fm -->
     <g transform="translate(366.383125 137.776875)scale(0.12 -0.12)">
      <use transform="translate(0 0.09375)" xlink:href="#DejaVuSans-Oblique-82"/>
      <use transform="translate(69.482422 -16.3125)scale(0.7)" xlink:href="#DejaVuSans-48"/>
      <use transform="translate(136.235352 0.09375)" xlink:href="#DejaVuSans-61"/>
      <use transform="translate(239.506836 0.09375)" xlink:href="#ArialMT-32"/>
      <use transform="translate(267.290039 0.09375)" xlink:href="#ArialMT-53"/>
      <use transform="translate(322.905273 0.09375)" xlink:href="#ArialMT-46"/>
      <use transform="translate(350.688477 0.09375)" xlink:href="#ArialMT-48"/>
      <use transform="translate(406.303711 0.09375)" xlink:href="#ArialMT-52"/>
      <use transform="translate(461.918945 0.09375)" xlink:href="#ArialMT-32"/>
      <use transform="translate(489.702148 0.09375)" xlink:href="#ArialMT-102"/>
      <use transform="translate(517.485352 0.09375)" xlink:href="#ArialMT-109"/>
     </g>
    </g>
   </g>
  </g>
 </g>
 <defs>
  <clipPath id="pb17fff831d">
   <rect height="277.2" width="390.6" x="58.703125" y="33.515625"/>
  </clipPath>
 </defs>
</svg>
