<?xml version="1.0" encoding="UTF-8" standalone="no"?>
<!-- Created with Inkscape (http://www.inkscape.org/) -->

<svg
   xmlns:ns0="http://www.iki.fi/pav/software/textext/"
   xmlns:dc="http://purl.org/dc/elements/1.1/"
   xmlns:cc="http://creativecommons.org/ns#"
   xmlns:rdf="http://www.w3.org/1999/02/22-rdf-syntax-ns#"
   xmlns:svg="http://www.w3.org/2000/svg"
   xmlns="http://www.w3.org/2000/svg"
   xmlns:xlink="http://www.w3.org/1999/xlink"
   xmlns:sodipodi="http://sodipodi.sourceforge.net/DTD/sodipodi-0.dtd"
   xmlns:inkscape="http://www.inkscape.org/namespaces/inkscape"
   id="svg2"
   version="1.1"
   inkscape:version="0.92.3 (2405546, 2018-03-11)"
   xml:space="preserve"
   width="308.5134"
   height="248.78337"
   viewBox="0 0 308.5134 248.78337"
   sodipodi:docname="brink.svg"><sodipodi:namedview
     pagecolor="#ffffff"
     bordercolor="#666666"
     borderopacity="1"
     objecttolerance="10"
     gridtolerance="10"
     guidetolerance="10"
     inkscape:pageopacity="0"
     inkscape:pageshadow="2"
     inkscape:window-width="1920"
     inkscape:window-height="1051"
     id="namedview4"
     showgrid="false"
     inkscape:zoom="2.2438855"
     inkscape:cx="-58.87217"
     inkscape:cy="130.28082"
     inkscape:window-x="0"
     inkscape:window-y="0"
     inkscape:window-maximized="1"
     inkscape:current-layer="g10"
     fit-margin-top="0"
     fit-margin-left="0"
     fit-margin-right="0"
     fit-margin-bottom="0" /><metadata
     id="metadata8"><rdf:RDF><cc:Work
         rdf:about=""><dc:format>image/svg+xml</dc:format><dc:type
           rdf:resource="http://purl.org/dc/dcmitype/StillImage" /><dc:title /></cc:Work></rdf:RDF></metadata><defs
     id="defs6"><clipPath
       clipPathUnits="userSpaceOnUse"
       id="clipPath18"><path
         d="m 790,260 2270,0 0,1540 -2270,0 0,-1540 z"
         id="path20"
         inkscape:connector-curvature="0" /></clipPath></defs><g
     id="g10"
     inkscape:groupmode="layer"
     inkscape:label="ink_ext_XXXXXX"
     transform="matrix(1.25,0,0,-1.25,-72.9832,224.11423)"><path
   inkscape:connector-curvature="0"
   id="path22"
   style="fill:none;stroke:#000000;stroke-width:0.25;stroke-linecap:butt;stroke-linejoin:miter;stroke-miterlimit:3.79999995;stroke-dasharray:none;stroke-opacity:1"
   d="m 103.199,39.25 3.153,0" /><path
   inkscape:connector-curvature="0"
   id="path24"
   style="fill:none;stroke:#000000;stroke-width:0.25;stroke-linecap:butt;stroke-linejoin:miter;stroke-miterlimit:3.79999995;stroke-dasharray:none;stroke-opacity:1"
   d="m 298.148,39.25 -3.148,0" /><text
   transform="scale(1,-1)"
   style="font-variant:normal;font-weight:normal;line-height:0%;font-family:'Times New Roman';-inkscape-font-specification:TimesNewRomanPSMT;writing-mode:lr-tb;fill:#000000;fill-opacity:1;fill-rule:nonzero;stroke:none"
   id="text28"
   x="79.128899"
   y="-34.732399"><tspan
     x="79.128899 83.124901 89.124901 92.124901"
     y="-34.732399"
     sodipodi:role="line"
     id="tspan30"
     style="font-size:12px;line-height:1.25">-0.3</tspan></text>

<path
   inkscape:connector-curvature="0"
   id="path32"
   style="fill:none;stroke:#000000;stroke-width:0.25;stroke-linecap:butt;stroke-linejoin:miter;stroke-miterlimit:3.79999995;stroke-dasharray:none;stroke-opacity:1"
   d="m 103.199,56.3012 3.153,0" /><path
   inkscape:connector-curvature="0"
   id="path34"
   style="fill:none;stroke:#000000;stroke-width:0.25;stroke-linecap:butt;stroke-linejoin:miter;stroke-miterlimit:3.79999995;stroke-dasharray:none;stroke-opacity:1"
   d="m 298.148,56.3012 -3.148,0" /><text
   transform="scale(1,-1)"
   style="font-variant:normal;font-weight:normal;line-height:0%;font-family:'Times New Roman';-inkscape-font-specification:TimesNewRomanPSMT;writing-mode:lr-tb;fill:#000000;fill-opacity:1;fill-rule:nonzero;stroke:none"
   id="text38"
   x="79.128899"
   y="-51.783199"><tspan
     x="79.128899 83.124901 89.124901 92.124901"
     y="-51.783199"
     sodipodi:role="line"
     id="tspan40"
     style="font-size:12px;line-height:1.25">-0.2</tspan></text>

<path
   inkscape:connector-curvature="0"
   id="path42"
   style="fill:none;stroke:#000000;stroke-width:0.25;stroke-linecap:butt;stroke-linejoin:miter;stroke-miterlimit:3.79999995;stroke-dasharray:none;stroke-opacity:1"
   d="m 103.199,73.352 3.153,0" /><path
   inkscape:connector-curvature="0"
   id="path44"
   style="fill:none;stroke:#000000;stroke-width:0.25;stroke-linecap:butt;stroke-linejoin:miter;stroke-miterlimit:3.79999995;stroke-dasharray:none;stroke-opacity:1"
   d="m 298.148,73.352 -3.148,0" /><text
   transform="scale(1,-1)"
   style="font-variant:normal;font-weight:normal;line-height:0%;font-family:'Times New Roman';-inkscape-font-specification:TimesNewRomanPSMT;writing-mode:lr-tb;fill:#000000;fill-opacity:1;fill-rule:nonzero;stroke:none"
   id="text48"
   x="79.128899"
   y="-68.830101"><tspan
     x="79.128899 83.124901 89.124901 92.124901"
     y="-68.830101"
     sodipodi:role="line"
     id="tspan50"
     style="font-size:12px;line-height:1.25">-0.1</tspan></text>

<path
   inkscape:connector-curvature="0"
   id="path52"
   style="fill:none;stroke:#000000;stroke-width:0.25;stroke-linecap:butt;stroke-linejoin:miter;stroke-miterlimit:3.79999995;stroke-dasharray:none;stroke-opacity:1"
   d="m 103.199,90.398 3.153,0" /><path
   inkscape:connector-curvature="0"
   id="path54"
   style="fill:none;stroke:#000000;stroke-width:0.25;stroke-linecap:butt;stroke-linejoin:miter;stroke-miterlimit:3.79999995;stroke-dasharray:none;stroke-opacity:1"
   d="m 298.148,90.398 -3.148,0" /><text
   transform="scale(1,-1)"
   style="font-variant:normal;font-weight:normal;font-size:12px;line-height:0%;font-family:'Times New Roman';-inkscape-font-specification:TimesNewRomanPSMT;writing-mode:lr-tb;fill:#000000;fill-opacity:1;fill-rule:nonzero;stroke:none"
   id="text58"
   x="92.125"
   y="-85.880898"><tspan
     x="92.125"
     y="-85.880898"
     id="tspan60">0</tspan></text>

<path
   inkscape:connector-curvature="0"
   id="path62"
   style="fill:none;stroke:#000000;stroke-width:0.25;stroke-linecap:butt;stroke-linejoin:miter;stroke-miterlimit:3.79999995;stroke-dasharray:none;stroke-opacity:1"
   d="m 103.199,107.5 3.153,0" /><path
   inkscape:connector-curvature="0"
   id="path64"
   style="fill:none;stroke:#000000;stroke-width:0.25;stroke-linecap:butt;stroke-linejoin:miter;stroke-miterlimit:3.79999995;stroke-dasharray:none;stroke-opacity:1"
   d="m 298.148,107.5 -3.148,0" /><text
   transform="scale(1,-1)"
   style="font-variant:normal;font-weight:normal;line-height:0%;font-family:'Times New Roman';-inkscape-font-specification:TimesNewRomanPSMT;writing-mode:lr-tb;fill:#000000;fill-opacity:1;fill-rule:nonzero;stroke:none"
   id="text68"
   x="83.125"
   y="-102.982"><tspan
     x="83.125 89.125 92.125"
     y="-102.982"
     sodipodi:role="line"
     id="tspan70"
     style="font-size:12px;line-height:1.25">0.1</tspan></text>

<path
   inkscape:connector-curvature="0"
   id="path72"
   style="fill:none;stroke:#000000;stroke-width:0.25;stroke-linecap:butt;stroke-linejoin:miter;stroke-miterlimit:3.79999995;stroke-dasharray:none;stroke-opacity:1"
   d="m 103.199,124.551 3.153,0" /><path
   inkscape:connector-curvature="0"
   id="path74"
   style="fill:none;stroke:#000000;stroke-width:0.25;stroke-linecap:butt;stroke-linejoin:miter;stroke-miterlimit:3.79999995;stroke-dasharray:none;stroke-opacity:1"
   d="m 298.148,124.551 -3.148,0" /><text
   transform="scale(1,-1)"
   style="font-variant:normal;font-weight:normal;line-height:0%;font-family:'Times New Roman';-inkscape-font-specification:TimesNewRomanPSMT;writing-mode:lr-tb;fill:#000000;fill-opacity:1;fill-rule:nonzero;stroke:none"
   id="text78"
   x="83.125"
   y="-120.033"><tspan
     x="83.125 89.125 92.125"
     y="-120.033"
     sodipodi:role="line"
     id="tspan80"
     style="font-size:12px;line-height:1.25">0.2</tspan></text>

<path
   inkscape:connector-curvature="0"
   id="path82"
   style="fill:none;stroke:#000000;stroke-width:0.25;stroke-linecap:butt;stroke-linejoin:miter;stroke-miterlimit:3.79999995;stroke-dasharray:none;stroke-opacity:1"
   d="m 103.199,141.602 3.153,0" /><path
   inkscape:connector-curvature="0"
   id="path84"
   style="fill:none;stroke:#000000;stroke-width:0.25;stroke-linecap:butt;stroke-linejoin:miter;stroke-miterlimit:3.79999995;stroke-dasharray:none;stroke-opacity:1"
   d="m 298.148,141.602 -3.148,0" /><text
   transform="scale(1,-1)"
   style="font-variant:normal;font-weight:normal;line-height:0%;font-family:'Times New Roman';-inkscape-font-specification:TimesNewRomanPSMT;writing-mode:lr-tb;fill:#000000;fill-opacity:1;fill-rule:nonzero;stroke:none"
   id="text88"
   x="83.125"
   y="-137.08"><tspan
     x="83.125 89.125 92.125"
     y="-137.08"
     sodipodi:role="line"
     id="tspan90"
     style="font-size:12px;line-height:1.25">0.3</tspan></text>

<path
   inkscape:connector-curvature="0"
   id="path92"
   style="fill:none;stroke:#000000;stroke-width:0.25;stroke-linecap:butt;stroke-linejoin:miter;stroke-miterlimit:3.79999995;stroke-dasharray:none;stroke-opacity:1"
   d="m 103.199,158.648 3.153,0" /><path
   inkscape:connector-curvature="0"
   id="path94"
   style="fill:none;stroke:#000000;stroke-width:0.25;stroke-linecap:butt;stroke-linejoin:miter;stroke-miterlimit:3.79999995;stroke-dasharray:none;stroke-opacity:1"
   d="m 298.148,158.648 -3.148,0" /><text
   transform="scale(1,-1)"
   style="font-variant:normal;font-weight:normal;line-height:0%;font-family:'Times New Roman';-inkscape-font-specification:TimesNewRomanPSMT;writing-mode:lr-tb;fill:#000000;fill-opacity:1;fill-rule:nonzero;stroke:none"
   id="text98"
   x="83.125"
   y="-154.131"><tspan
     x="83.125 89.125 92.125"
     y="-154.131"
     sodipodi:role="line"
     id="tspan100"
     style="font-size:12px;line-height:1.25">0.4</tspan></text>

<path
   inkscape:connector-curvature="0"
   id="path102"
   style="fill:none;stroke:#000000;stroke-width:0.25;stroke-linecap:butt;stroke-linejoin:miter;stroke-miterlimit:3.79999995;stroke-dasharray:none;stroke-opacity:1"
   d="m 103.199,175.699 3.153,0" /><path
   inkscape:connector-curvature="0"
   id="path104"
   style="fill:none;stroke:#000000;stroke-width:0.25;stroke-linecap:butt;stroke-linejoin:miter;stroke-miterlimit:3.79999995;stroke-dasharray:none;stroke-opacity:1"
   d="m 298.148,175.699 -3.148,0" /><text
   transform="scale(1,-1)"
   style="font-variant:normal;font-weight:normal;line-height:0%;font-family:'Times New Roman';-inkscape-font-specification:TimesNewRomanPSMT;writing-mode:lr-tb;fill:#000000;fill-opacity:1;fill-rule:nonzero;stroke:none"
   id="text108"
   x="83.125"
   y="-171.18201"><tspan
     x="83.125 89.125 92.125"
     y="-171.18201"
     sodipodi:role="line"
     id="tspan110"
     style="font-size:12px;line-height:1.25">0.5</tspan></text>

<path
   inkscape:connector-curvature="0"
   id="path112"
   style="fill:none;stroke:#000000;stroke-width:0.25;stroke-linecap:butt;stroke-linejoin:miter;stroke-miterlimit:3.79999995;stroke-dasharray:none;stroke-opacity:1"
   d="m 103.199,39.25 0,3.148" /><path
   inkscape:connector-curvature="0"
   id="path114"
   style="fill:none;stroke:#000000;stroke-width:0.25;stroke-linecap:butt;stroke-linejoin:miter;stroke-miterlimit:3.79999995;stroke-dasharray:none;stroke-opacity:1"
   d="m 103.199,175.699 0,-3.148" /><text
   transform="scale(1,-1)"
   style="font-variant:normal;font-weight:normal;font-size:12px;line-height:0%;font-family:'Times New Roman';-inkscape-font-specification:TimesNewRomanPSMT;writing-mode:lr-tb;fill:#000000;fill-opacity:1;fill-rule:nonzero;stroke:none"
   id="text118"
   x="101.6758"
   y="-26.783199"><tspan
     x="101.6758"
     y="-26.783199"
     id="tspan120">0</tspan></text>

<path
   inkscape:connector-curvature="0"
   id="path122"
   style="fill:none;stroke:#000000;stroke-width:0.25;stroke-linecap:butt;stroke-linejoin:miter;stroke-miterlimit:3.79999995;stroke-dasharray:none;stroke-opacity:1"
   d="m 142.199,39.25 0,3.148" /><path
   inkscape:connector-curvature="0"
   id="path124"
   style="fill:none;stroke:#000000;stroke-width:0.25;stroke-linecap:butt;stroke-linejoin:miter;stroke-miterlimit:3.79999995;stroke-dasharray:none;stroke-opacity:1"
   d="m 142.199,175.699 0,-3.148" /><text
   transform="scale(1,-1)"
   style="font-variant:normal;font-weight:normal;font-size:12px;line-height:0%;font-family:'Times New Roman';-inkscape-font-specification:TimesNewRomanPSMT;writing-mode:lr-tb;fill:#000000;fill-opacity:1;fill-rule:nonzero;stroke:none"
   id="text128"
   x="140.67599"
   y="-26.783199"><tspan
     x="140.67599"
     y="-26.783199"
     id="tspan130">2</tspan></text>

<path
   inkscape:connector-curvature="0"
   id="path132"
   style="fill:none;stroke:#000000;stroke-width:0.25;stroke-linecap:butt;stroke-linejoin:miter;stroke-miterlimit:3.79999995;stroke-dasharray:none;stroke-opacity:1"
   d="m 181.199,39.25 0,3.148" /><path
   inkscape:connector-curvature="0"
   id="path134"
   style="fill:none;stroke:#000000;stroke-width:0.25;stroke-linecap:butt;stroke-linejoin:miter;stroke-miterlimit:3.79999995;stroke-dasharray:none;stroke-opacity:1"
   d="m 181.199,175.699 0,-3.148" /><text
   transform="scale(1,-1)"
   style="font-variant:normal;font-weight:normal;font-size:12px;line-height:0%;font-family:'Times New Roman';-inkscape-font-specification:TimesNewRomanPSMT;writing-mode:lr-tb;fill:#000000;fill-opacity:1;fill-rule:nonzero;stroke:none"
   id="text138"
   x="179.67599"
   y="-26.783199"><tspan
     x="179.67599"
     y="-26.783199"
     id="tspan140">4</tspan></text>

<path
   inkscape:connector-curvature="0"
   id="path142"
   style="fill:none;stroke:#000000;stroke-width:0.25;stroke-linecap:butt;stroke-linejoin:miter;stroke-miterlimit:3.79999995;stroke-dasharray:none;stroke-opacity:1"
   d="m 220.148,39.25 0,3.148" /><path
   inkscape:connector-curvature="0"
   id="path144"
   style="fill:none;stroke:#000000;stroke-width:0.25;stroke-linecap:butt;stroke-linejoin:miter;stroke-miterlimit:3.79999995;stroke-dasharray:none;stroke-opacity:1"
   d="m 220.148,175.699 0,-3.148" /><text
   transform="scale(1,-1)"
   style="font-variant:normal;font-weight:normal;font-size:12px;line-height:0%;font-family:'Times New Roman';-inkscape-font-specification:TimesNewRomanPSMT;writing-mode:lr-tb;fill:#000000;fill-opacity:1;fill-rule:nonzero;stroke:none"
   id="text148"
   x="218.625"
   y="-26.783199"><tspan
     x="218.625"
     y="-26.783199"
     id="tspan150">6</tspan></text>

<path
   inkscape:connector-curvature="0"
   id="path152"
   style="fill:none;stroke:#000000;stroke-width:0.25;stroke-linecap:butt;stroke-linejoin:miter;stroke-miterlimit:3.79999995;stroke-dasharray:none;stroke-opacity:1"
   d="m 259.148,39.25 0,3.148" /><path
   inkscape:connector-curvature="0"
   id="path154"
   style="fill:none;stroke:#000000;stroke-width:0.25;stroke-linecap:butt;stroke-linejoin:miter;stroke-miterlimit:3.79999995;stroke-dasharray:none;stroke-opacity:1"
   d="m 259.148,175.699 0,-3.148" /><text
   transform="scale(1,-1)"
   style="font-variant:normal;font-weight:normal;font-size:12px;line-height:0%;font-family:'Times New Roman';-inkscape-font-specification:TimesNewRomanPSMT;writing-mode:lr-tb;fill:#000000;fill-opacity:1;fill-rule:nonzero;stroke:none"
   id="text158"
   x="257.625"
   y="-26.783199"><tspan
     x="257.625"
     y="-26.783199"
     id="tspan160">8</tspan></text>

<path
   inkscape:connector-curvature="0"
   id="path162"
   style="fill:none;stroke:#000000;stroke-width:0.25;stroke-linecap:butt;stroke-linejoin:miter;stroke-miterlimit:3.79999995;stroke-dasharray:none;stroke-opacity:1"
   d="m 298.148,39.25 0,3.148" /><path
   inkscape:connector-curvature="0"
   id="path164"
   style="fill:none;stroke:#000000;stroke-width:0.25;stroke-linecap:butt;stroke-linejoin:miter;stroke-miterlimit:3.79999995;stroke-dasharray:none;stroke-opacity:1"
   d="m 298.148,175.699 0,-3.148" /><text
   transform="scale(1,-1)"
   style="font-variant:normal;font-weight:normal;line-height:0%;font-family:'Times New Roman';-inkscape-font-specification:TimesNewRomanPSMT;writing-mode:lr-tb;fill:#000000;fill-opacity:1;fill-rule:nonzero;stroke:none"
   id="text168"
   x="293.625"
   y="-26.783199"><tspan
     x="293.625 299.625"
     y="-26.783199"
     sodipodi:role="line"
     id="tspan170"
     style="font-size:12px;line-height:1.25">10</tspan></text>

<path
   inkscape:connector-curvature="0"
   id="path172"
   style="fill:none;stroke:#000000;stroke-width:0.25;stroke-linecap:butt;stroke-linejoin:miter;stroke-miterlimit:3.79999995;stroke-dasharray:none;stroke-opacity:1"
   d="m 103.199,39.25 194.949,0 0,136.449 -194.949,0 0,-136.449 z" /><path
   inkscape:connector-curvature="0"
   id="path182"
   style="fill:none;stroke:#000000;stroke-width:1;stroke-linecap:butt;stroke-linejoin:miter;stroke-miterlimit:3.79999995;stroke-dasharray:none;stroke-opacity:1"
   d="m 103.199,90.398 1.949,2.954 2,2.4492 1.954,1.4488 2,0.25 1.949,-1 1.949,-2.0512 2,-2.8468 1.949,-3 1.949,-2.75 2,-1.9032 1.954,-0.8008 2,0.5508 1.949,1.8012 1.949,2.8012 2,3.3468 1.949,3.454 2,2.8468 1.949,1.9032 1.954,0.546 2,-1 1.949,-2.398 1.949,-3.602 2,-4.398 1.949,-4.648 2,-4.3008 1.949,-3.4032 1.954,-2.046 2,-0.3008 1.949,1.5508 2,3.5 1.949,5.1992 1.949,6.75 2,7.8468 1.949,8.5 1.954,8.801 2,8.602 1.949,8.051 2,7.199 1.949,6.097 1.949,4.954 2,3.648 1.949,2.398 2,1.25 1.954,0.153 1.949,-0.801 2,-1.551 1.949,-2.199 1.949,-2.699 2,-3 1.949,-3.25 2,-3.403 1.954,-3.398 1.949,-3.398 2,-3.25 1.949,-3.153 1.949,-3 2,-2.801 1.949,-2.648 2,-2.449 1.954,-2.25 1.949,-2.102 2,-1.898 1.949,-1.801 2,-1.602 1.949,-1.5 1.949,-1.398 2,-1.301 1.954,-1.199 1.949,-1.102 2,-1.046 1.949,-1 2,-0.9032 1.949,-0.8976 1.949,-0.8012 2,-0.75 1.954,-0.75 2,-0.648 3.898,-1.204 2,-0.5 1.949,-0.4492 1.949,-0.3976 2,-0.3012 1.954,-0.3012 2,-0.25 1.949,-0.1476 1.949,-0.1532 2,-0.0968 1.949,-0.1532 2,-0.0968 1.949,-0.1024 1.954,-0.0968 2,-0.0508 1.949,-0.0512 1.949,0 2,-0.0512 1.949,-0.0508 3.949,0" /><path
   inkscape:connector-curvature="0"
   id="path192"
   style="fill:none;stroke:#ff0000;stroke-width:1;stroke-linecap:butt;stroke-linejoin:miter;stroke-miterlimit:3.79999995;stroke-dasharray:5.5, 2.2;stroke-dashoffset:0;stroke-opacity:1"
   d="m 103.199,90.398 1.949,3 2,2.602 1.954,1.6988 2,0.6532 1.949,-0.5508 1.949,-1.6992 2,-2.6532 1.949,-3.1988 1.949,-3.3012 2,-2.9488 1.954,-2.102 2,-0.9492 1.949,0.4492 1.949,1.852 2,3.0512 1.949,3.8468 2,4.204 1.949,4 1.954,3.199 2,1.847 1.949,0.25 1.949,-1.546 2,-3.3008 1.949,-4.75 2,-5.6992 1.949,-6.0508 1.954,-5.75 2,-4.75 1.949,-3.1532 2,-1.0968 1.949,1.25 1.949,3.5508 2,5.796 1.949,7.704 1.954,9.148 2,9.949 1.949,10.301 2,9.949 1.949,9.102 1.949,7.949 2,6.398 1.949,4.75 2,3.051 1.954,1.449 1.949,0 2,-1.25 1.949,-2.148 1.949,-2.898 2,-3.301 1.949,-3.602 2,-3.597 1.954,-3.5 1.949,-3.352 2,-3.102 1.949,-2.898 1.949,-2.648 2,-2.403 1.949,-2.25 2,-2.097 1.954,-2.051 1.949,-1.949 2,-1.852 1.949,-1.852 2,-1.847 3.898,-3.5 2,-1.653 1.954,-1.597 1.949,-1.551 2,-1.398 1.949,-1.3008 2,-1.1992 1.949,-1.0508 1.949,-0.9492 2,-0.8008 1.954,-0.75 2,-0.6024 1.949,-0.5 1.949,-0.4488 2,-0.352 3.898,-0.5 2,-0.1992 1.954,-0.0968 2,-0.102 1.949,-0.102 1.949,-0.046 2,-0.0508 1.949,-0.0512 2,0 1.949,-0.0512 7.852,0 2,-0.0508 5.898,0" /><path
   inkscape:connector-curvature="0"
   id="path202"
   style="fill:none;stroke:#008800;stroke-width:1;stroke-linecap:butt;stroke-linejoin:miter;stroke-miterlimit:3.79999995;stroke-dasharray:1.375, 1.375;stroke-dashoffset:0;stroke-opacity:1"
   d="m 103.199,90.398 1.949,9.102 2,7.551 1.954,4.597 2,1 1.949,-2.949 1.949,-6.25 2,-8.6478 1.949,-9.5 1.949,-8.8012 2,-6.602 1.954,-3.25 2,0.602 1.949,4.4488 1.949,7.6024 2,9.6476 1.949,10.1532 2,9.097 1.949,6.75 1.954,3.25 2,-0.648 1.949,-4.653 1.949,-7.898 2,-10.3012 1.949,-11.25 2,-10.9488 1.949,-9.25 1.954,-6.5 2,-3 1.949,0.852 2,4.648 1.949,7.9488 1.949,10.6024 2,12.3468 1.949,13.204 1.954,13.148 2,12.352 1.949,10.898 2,9.102 1.949,7.097 1.949,5 2,3.102 1.949,1.347 2,-0.097 1.954,-1.25 1.949,-2.153 2,-2.796 1.949,-3.204 1.949,-3.5 2,-3.699 1.949,-3.699 2,-3.801 1.954,-3.75 1.949,-3.699 2,-3.699 1.949,-3.602 1.949,-3.551 2,-3.398 1.949,-3.25 2,-3.102 1.954,-2.949 1.949,-2.699 2,-2.5 1.949,-2.25 2,-2 1.949,-1.8012 1.949,-1.5508 2,-1.296 1.954,-1.1532 1.949,-0.9488 2,-0.75 1.949,-0.648 2,-0.5 1.949,-0.4032 1.949,-0.3008 2,-0.25 1.954,-0.1992 2,-0.1476 1.949,-0.1024 1.949,-0.0968 2,-0.0508 1.949,-0.0512 1.949,0 2,-0.0512 7.852,0 2,-0.0508 21.648,0" /><path
   inkscape:connector-curvature="0"
   id="path212"
   style="fill:none;stroke:#0000ff;stroke-width:1;stroke-linecap:butt;stroke-linejoin:miter;stroke-miterlimit:3.79999995;stroke-dasharray:5.5, 1.375, 1.375, 1.375;stroke-dashoffset:0;stroke-opacity:1"
   d="m 103.199,90.398 3.903,0.3008 3.898,0.1532 3.898,0.046 3.903,-0.1992 3.898,-0.3976 3.903,-0.4492 3.898,-0.3008 3.898,0.0508 3.903,0.546 3.898,0.954 3.903,0.9492 3.898,0.4488 3.898,-0.602 3.903,-1.6992 3.898,-2.4488 3.903,-2.398 3.898,-1.102 3.898,1.1988 3.903,4.1532 3.898,7.046 3.903,9.25 L 189,116 l 3.898,9.398 3.903,7.403 3.898,4.449 3.852,1.148 3.898,-1.847 3.903,-4.102 3.898,-5.551 3.898,-5.949 3.903,-5.648 3.898,-4.949 3.903,-3.954 3.898,-3 3.898,-2.199 3.903,-1.6478 3.898,-1.3012 3.903,-1.148 3.898,-1 3.898,-0.954 3.903,-0.898 3.898,-0.852 3.903,-0.75 3.898,-0.5968 3.898,-0.5 3.903,-0.4032 3.898,-0.25 3.903,-0.1992 3.898,-0.0968 3.898,-0.102" /><path
   inkscape:connector-curvature="0"
   id="path214"
   style="fill:none;stroke:#000000;stroke-width:0.25;stroke-linecap:butt;stroke-linejoin:miter;stroke-miterlimit:3.79999995;stroke-dasharray:none;stroke-opacity:1"
   d="m 103.199,39.25 194.949,0 0,136.449 -194.949,0 0,-136.449 z" /><g
   id="g4914"
   transform="translate(0,-1.6212463e-6)"><path
   d="m 105.57825,1.403679 25.153,0"
   style="fill:none;stroke:#000000;stroke-width:1;stroke-linecap:butt;stroke-linejoin:miter;stroke-miterlimit:3.79999995;stroke-dasharray:none;stroke-opacity:1"
   id="path180"
   inkscape:connector-curvature="0" /><text
   transform="scale(1,-1)"
   y="2.5251622"
   x="136.34155"
   id="text178"
   style="font-variant:normal;font-weight:normal;line-height:0%;font-family:'Times New Roman';-inkscape-font-specification:TimesNewRomanPSMT;writing-mode:lr-tb;fill:#000000;fill-opacity:1;fill-rule:nonzero;stroke:none"><tspan
     id="tspan180"
     sodipodi:role="line"
     y="2.5251622"
     x="136.34155 145.18312 156.05392 164.89549 168.96625 177.13107 187.57443"
     style="font-size:11.86765003px;line-height:1.25">AMD-RWA</tspan></text>

</g><g
   id="g4924"
   transform="translate(107.2414,31.364445)"><path
   d="m 105.57825,-29.970471 25.153,0"
   style="fill:none;stroke:#008800;stroke-width:1;stroke-linecap:butt;stroke-linejoin:miter;stroke-miterlimit:3.79999995;stroke-dasharray:1.375, 1.375;stroke-dashoffset:0;stroke-opacity:1"
   id="path200"
   inkscape:connector-curvature="0" /><text
   transform="scale(1,-1)"
   y="32.699799"
   x="136.31837"
   id="text198"
   style="font-variant:normal;font-weight:normal;line-height:0%;font-family:'Times New Roman';-inkscape-font-specification:TimesNewRomanPSMT;writing-mode:lr-tb;fill:#000000;fill-opacity:1;fill-rule:nonzero;stroke:none"><tspan
     id="tspan200"
     sodipodi:role="line"
     y="32.699799"
     x="136.31837 139.72458 145.83626 151.96014 157.39569 160.45743"
     style="font-size:11.86765003px;line-height:1.25">type 2</tspan></text>

</g><g
   id="g4919"
   transform="translate(0,0.30320435)"><path
   d="m 105.57825,-14.738202 25.153,0"
   style="fill:none;stroke:#ff0000;stroke-width:1;stroke-linecap:butt;stroke-linejoin:miter;stroke-miterlimit:3.79999995;stroke-dasharray:5.5, 2.2;stroke-dashoffset:0;stroke-opacity:1"
   id="path190"
   inkscape:connector-curvature="0" /><text
   transform="scale(1,-1)"
   y="17.467529"
   x="136.31837"
   id="text188"
   style="font-variant:normal;font-weight:normal;line-height:0%;font-family:'Times New Roman';-inkscape-font-specification:TimesNewRomanPSMT;writing-mode:lr-tb;fill:#000000;fill-opacity:1;fill-rule:nonzero;stroke:none"><tspan
     id="tspan190"
     sodipodi:role="line"
     y="17.467529"
     x="136.31837 139.72458 145.83626 151.96013 157.39569 160.45741"
     style="font-size:11.86765003px;line-height:1.25">type 1</tspan></text>

</g><g
   id="g4929"
   transform="translate(107.2414,31.667649)"><path
   d="m 105.57825,-46.112351 25.153,0"
   style="fill:none;stroke:#0000ff;stroke-width:1;stroke-linecap:butt;stroke-linejoin:miter;stroke-miterlimit:3.79999995;stroke-dasharray:5.5, 1.375, 1.375, 1.375;stroke-dashoffset:0;stroke-opacity:1"
   id="path210"
   inkscape:connector-curvature="0" /><text
   transform="scale(1,-1)"
   y="48.841679"
   x="136.31837"
   id="text208"
   style="font-variant:normal;font-weight:normal;line-height:0%;font-family:'Times New Roman';-inkscape-font-specification:TimesNewRomanPSMT;writing-mode:lr-tb;fill:#000000;fill-opacity:1;fill-rule:nonzero;stroke:none"><tspan
     id="tspan210"
     sodipodi:role="line"
     y="48.841679"
     x="136.31837 139.72458 145.83626 151.96014 157.39569 160.45743"
     style="font-size:11.86765003px;line-height:1.25">type 3</tspan></text>

</g><g
   ns0:text="$Ry(R)\\,\\mathrm{[fm^{-1/2}]}$"
   ns0:preamble="/home/yoshidak/.config/inkscape/preamble.txt"
   transform="matrix(0,1.4132843,1.4132843,0,-119.59009,-250.5542)"
   id="g4418"><defs
     id="defs4420"><g
       id="g4422"><symbol
         overflow="visible"
         id="textext-ee39e0a2-0"><path
           style="stroke:none;"
           d=""
           id="path4425" /></symbol><symbol
         overflow="visible"
         id="textext-ee39e0a2-1"><path
           style="stroke:none;"
           d="M 5.65625 -0.15625 C 5.21875 -0.1875 5.015625 -0.359375 4.828125 -0.875 L 3.890625 -3.3125 C 4.671875 -3.484375 5 -3.625 5.359375 -3.953125 C 5.6875 -4.234375 5.859375 -4.625 5.859375 -5.078125 C 5.859375 -6 5.125 -6.515625 3.78125 -6.515625 L 1.3125 -6.515625 L 1.3125 -6.34375 C 1.734375 -6.296875 1.78125 -6.28125 1.890625 -6.203125 C 1.96875 -6.15625 2.03125 -6.046875 2.03125 -5.9375 C 2.03125 -5.8125 1.96875 -5.578125 1.90625 -5.296875 L 0.671875 -0.890625 C 0.5 -0.3125 0.421875 -0.25 -0.125 -0.15625 L -0.125 0 L 2.296875 0 L 2.296875 -0.15625 C 1.6875 -0.234375 1.625 -0.296875 1.625 -0.625 C 1.625 -0.71875 1.65625 -0.84375 1.75 -1.203125 L 2.296875 -3.28125 L 2.953125 -3.234375 L 4.171875 0 L 5.65625 0 Z M 3.078125 -5.9375 C 3.125 -6.140625 3.265625 -6.203125 3.578125 -6.203125 C 4.40625 -6.203125 4.8125 -5.828125 4.8125 -5.09375 C 4.8125 -4.109375 4.171875 -3.59375 2.9375 -3.59375 C 2.765625 -3.59375 2.65625 -3.609375 2.421875 -3.65625 Z M 3.078125 -5.9375 "
           id="path4428" /></symbol><symbol
         overflow="visible"
         id="textext-ee39e0a2-2"><path
           style="stroke:none;"
           d=""
           id="path4431" /></symbol><symbol
         overflow="visible"
         id="textext-ee39e0a2-3"><path
           style="stroke:none;"
           d="M 4.25 -3.84375 C 4.25 -4.140625 4 -4.390625 3.703125 -4.390625 C 3.46875 -4.390625 3.3125 -4.25 3.3125 -4.03125 C 3.3125 -3.875 3.390625 -3.765625 3.59375 -3.640625 C 3.78125 -3.53125 3.84375 -3.4375 3.84375 -3.296875 C 3.84375 -2.90625 3.484375 -2.140625 2.625 -0.71875 L 2.4375 -1.875 C 2.28125 -2.765625 1.71875 -4.390625 1.578125 -4.390625 L 1.453125 -4.390625 L 0.46875 -4.21875 L 0.15625 -4.15625 L 0.15625 -3.984375 C 0.265625 -4.015625 0.34375 -4.03125 0.453125 -4.03125 C 0.859375 -4.03125 1.03125 -3.875 1.21875 -3.390625 C 1.5 -2.71875 2.046875 -0.484375 2.046875 -0.078125 C 2.046875 0.03125 2 0.15625 1.9375 0.265625 C 1.859375 0.40625 1.421875 0.984375 1.234375 1.171875 C 1 1.421875 0.890625 1.5 0.75 1.5 C 0.6875 1.5 0.625 1.46875 0.515625 1.390625 C 0.375 1.28125 0.265625 1.21875 0.15625 1.21875 C -0.0625 1.21875 -0.234375 1.390625 -0.234375 1.609375 C -0.234375 1.875 -0.03125 2.046875 0.265625 2.046875 C 0.84375 2.046875 1.90625 0.90625 2.9375 -0.8125 C 3.78125 -2.1875 4.25 -3.28125 4.25 -3.84375 Z M 4.25 -3.84375 "
           id="path4434" /></symbol><symbol
         overflow="visible"
         id="textext-ee39e0a2-4"><path
           style="stroke:none;"
           d=""
           id="path4437" /></symbol><symbol
         overflow="visible"
         id="textext-ee39e0a2-5"><path
           style="stroke:none;"
           d="M 2.9375 -6.734375 C 2.203125 -6.265625 1.90625 -6 1.53125 -5.546875 C 0.828125 -4.671875 0.484375 -3.671875 0.484375 -2.515625 C 0.484375 -1.25 0.84375 -0.265625 1.71875 0.75 C 2.140625 1.21875 2.390625 1.453125 2.90625 1.765625 L 3.03125 1.609375 C 2.234375 0.984375 1.953125 0.625 1.6875 -0.125 C 1.453125 -0.78125 1.328125 -1.546875 1.328125 -2.546875 C 1.328125 -3.59375 1.46875 -4.40625 1.734375 -5.03125 C 2.015625 -5.640625 2.3125 -6 3.03125 -6.578125 Z M 2.9375 -6.734375 "
           id="path4440" /></symbol><symbol
         overflow="visible"
         id="textext-ee39e0a2-6"><path
           style="stroke:none;"
           d="M 0.375 1.765625 C 1.109375 1.28125 1.421875 1.03125 1.78125 0.5625 C 2.5 -0.296875 2.84375 -1.296875 2.84375 -2.46875 C 2.84375 -3.734375 2.46875 -4.703125 1.59375 -5.71875 C 1.1875 -6.203125 0.921875 -6.421875 0.40625 -6.734375 L 0.296875 -6.578125 C 1.09375 -5.953125 1.359375 -5.609375 1.640625 -4.859375 C 1.875 -4.1875 1.984375 -3.421875 1.984375 -2.4375 C 1.984375 -1.390625 1.859375 -0.5625 1.578125 0.046875 C 1.3125 0.671875 1 1.03125 0.296875 1.609375 Z M 0.375 1.765625 "
           id="path4443" /></symbol><symbol
         overflow="visible"
         id="textext-ee39e0a2-7"><path
           style="stroke:none;"
           d=""
           id="path4446" /></symbol><symbol
         overflow="visible"
         id="textext-ee39e0a2-8"><path
           style="stroke:none;"
           d="M 2.546875 2.5 L 2.546875 2.09375 L 1.578125 2.09375 L 1.578125 -7.078125 L 2.546875 -7.078125 L 2.546875 -7.484375 L 1.171875 -7.484375 L 1.171875 2.5 Z M 2.546875 2.5 "
           id="path4449" /></symbol><symbol
         overflow="visible"
         id="textext-ee39e0a2-9"><path
           style="stroke:none;"
           d="M 1.75 -4.296875 L 1.75 -5.453125 C 1.75 -6.328125 2.21875 -6.8125 2.65625 -6.8125 C 2.6875 -6.8125 2.84375 -6.8125 2.984375 -6.734375 C 2.875 -6.703125 2.6875 -6.5625 2.6875 -6.3125 C 2.6875 -6.09375 2.84375 -5.890625 3.125 -5.890625 C 3.40625 -5.890625 3.5625 -6.09375 3.5625 -6.328125 C 3.5625 -6.703125 3.1875 -7.03125 2.65625 -7.03125 C 1.96875 -7.03125 1.109375 -6.5 1.109375 -5.4375 L 1.109375 -4.296875 L 0.328125 -4.296875 L 0.328125 -3.984375 L 1.109375 -3.984375 L 1.109375 -0.75 C 1.109375 -0.3125 1 -0.3125 0.34375 -0.3125 L 0.34375 0 C 0.734375 -0.015625 1.203125 -0.03125 1.46875 -0.03125 C 1.875 -0.03125 2.34375 -0.03125 2.734375 0 L 2.734375 -0.3125 L 2.53125 -0.3125 C 1.796875 -0.3125 1.78125 -0.421875 1.78125 -0.78125 L 1.78125 -3.984375 L 2.90625 -3.984375 L 2.90625 -4.296875 Z M 1.75 -4.296875 "
           id="path4452" /></symbol><symbol
         overflow="visible"
         id="textext-ee39e0a2-10"><path
           style="stroke:none;"
           d="M 1.09375 -3.421875 L 1.09375 -0.75 C 1.09375 -0.3125 0.984375 -0.3125 0.3125 -0.3125 L 0.3125 0 C 0.671875 -0.015625 1.171875 -0.03125 1.453125 -0.03125 C 1.703125 -0.03125 2.21875 -0.015625 2.5625 0 L 2.5625 -0.3125 C 1.890625 -0.3125 1.78125 -0.3125 1.78125 -0.75 L 1.78125 -2.59375 C 1.78125 -3.625 2.5 -4.1875 3.125 -4.1875 C 3.765625 -4.1875 3.875 -3.65625 3.875 -3.078125 L 3.875 -0.75 C 3.875 -0.3125 3.765625 -0.3125 3.09375 -0.3125 L 3.09375 0 C 3.4375 -0.015625 3.953125 -0.03125 4.21875 -0.03125 C 4.46875 -0.03125 5 -0.015625 5.328125 0 L 5.328125 -0.3125 C 4.671875 -0.3125 4.5625 -0.3125 4.5625 -0.75 L 4.5625 -2.59375 C 4.5625 -3.625 5.265625 -4.1875 5.90625 -4.1875 C 6.53125 -4.1875 6.640625 -3.65625 6.640625 -3.078125 L 6.640625 -0.75 C 6.640625 -0.3125 6.53125 -0.3125 5.859375 -0.3125 L 5.859375 0 C 6.203125 -0.015625 6.71875 -0.03125 6.984375 -0.03125 C 7.25 -0.03125 7.765625 -0.015625 8.109375 0 L 8.109375 -0.3125 C 7.59375 -0.3125 7.34375 -0.3125 7.328125 -0.609375 L 7.328125 -2.515625 C 7.328125 -3.375 7.328125 -3.671875 7.015625 -4.03125 C 6.875 -4.203125 6.546875 -4.40625 5.96875 -4.40625 C 5.140625 -4.40625 4.6875 -3.8125 4.53125 -3.421875 C 4.390625 -4.296875 3.65625 -4.40625 3.203125 -4.40625 C 2.46875 -4.40625 2 -3.984375 1.71875 -3.359375 L 1.71875 -4.40625 L 0.3125 -4.296875 L 0.3125 -3.984375 C 1.015625 -3.984375 1.09375 -3.921875 1.09375 -3.421875 Z M 1.09375 -3.421875 "
           id="path4455" /></symbol><symbol
         overflow="visible"
         id="textext-ee39e0a2-11"><path
           style="stroke:none;"
           d="M 1.578125 -7.484375 L 0.21875 -7.484375 L 0.21875 -7.078125 L 1.1875 -7.078125 L 1.1875 2.09375 L 0.21875 2.09375 L 0.21875 2.5 L 1.578125 2.5 Z M 1.578125 -7.484375 "
           id="path4458" /></symbol><symbol
         overflow="visible"
         id="textext-ee39e0a2-12"><path
           style="stroke:none;"
           d=""
           id="path4461" /></symbol><symbol
         overflow="visible"
         id="textext-ee39e0a2-13"><path
           style="stroke:none;"
           d="M 4.171875 -1.65625 L 4.171875 -2.078125 L 0.453125 -2.078125 L 0.453125 -1.65625 Z M 4.171875 -1.65625 "
           id="path4464" /></symbol><symbol
         overflow="visible"
         id="textext-ee39e0a2-14"><path
           style="stroke:none;"
           d=""
           id="path4467" /></symbol><symbol
         overflow="visible"
         id="textext-ee39e0a2-15"><path
           style="stroke:none;"
           d="M 2.328125 -4.4375 C 2.328125 -4.625 2.328125 -4.625 2.125 -4.625 C 1.671875 -4.1875 1.046875 -4.1875 0.765625 -4.1875 L 0.765625 -3.9375 C 0.921875 -3.9375 1.390625 -3.9375 1.765625 -4.125 L 1.765625 -0.578125 C 1.765625 -0.34375 1.765625 -0.25 1.078125 -0.25 L 0.8125 -0.25 L 0.8125 0 C 0.9375 0 1.796875 -0.03125 2.046875 -0.03125 C 2.265625 -0.03125 3.140625 0 3.296875 0 L 3.296875 -0.25 L 3.03125 -0.25 C 2.328125 -0.25 2.328125 -0.34375 2.328125 -0.578125 Z M 2.328125 -4.4375 "
           id="path4470" /></symbol><symbol
         overflow="visible"
         id="textext-ee39e0a2-16"><path
           style="stroke:none;"
           d="M 3.515625 -1.265625 L 3.28125 -1.265625 C 3.265625 -1.109375 3.1875 -0.703125 3.09375 -0.640625 C 3.046875 -0.59375 2.515625 -0.59375 2.40625 -0.59375 L 1.125 -0.59375 C 1.859375 -1.234375 2.109375 -1.4375 2.515625 -1.765625 C 3.03125 -2.171875 3.515625 -2.609375 3.515625 -3.265625 C 3.515625 -4.109375 2.78125 -4.625 1.890625 -4.625 C 1.03125 -4.625 0.4375 -4.015625 0.4375 -3.375 C 0.4375 -3.03125 0.734375 -2.984375 0.8125 -2.984375 C 0.96875 -2.984375 1.171875 -3.109375 1.171875 -3.359375 C 1.171875 -3.484375 1.125 -3.734375 0.765625 -3.734375 C 0.984375 -4.21875 1.453125 -4.375 1.78125 -4.375 C 2.484375 -4.375 2.84375 -3.828125 2.84375 -3.265625 C 2.84375 -2.65625 2.40625 -2.1875 2.1875 -1.9375 L 0.515625 -0.265625 C 0.4375 -0.203125 0.4375 -0.1875 0.4375 0 L 3.3125 0 Z M 3.515625 -1.265625 "
           id="path4473" /></symbol><symbol
         overflow="visible"
         id="textext-ee39e0a2-17"><path
           style="stroke:none;"
           d=""
           id="path4476" /></symbol><symbol
         overflow="visible"
         id="textext-ee39e0a2-18"><path
           style="stroke:none;"
           d="M 2.90625 -4.875 L 2.484375 -4.890625 L 0.484375 1.109375 L 0.90625 1.140625 Z M 2.90625 -4.875 "
           id="path4479" /></symbol></g></defs><g
     id="textext-ee39e0a2-19"><g
       style="fill:rgb(0%,0%,0%);fill-opacity:1;"
       id="g4482"><use
         xlink:href="#textext-ee39e0a2-1"
         x="223.96"
         y="134.765"
         id="use4484" /></g><g
       style="fill:rgb(0%,0%,0%);fill-opacity:1;"
       id="g4486"><use
         xlink:href="#textext-ee39e0a2-3"
         x="230.665"
         y="134.765"
         id="use4488" /></g><g
       style="fill:rgb(0%,0%,0%);fill-opacity:1;"
       id="g4490"><use
         xlink:href="#textext-ee39e0a2-5"
         x="235.865"
         y="134.765"
         id="use4492" /></g><g
       style="fill:rgb(0%,0%,0%);fill-opacity:1;"
       id="g4494"><use
         xlink:href="#textext-ee39e0a2-1"
         x="239.91"
         y="134.765"
         id="use4496" /></g><g
       style="fill:rgb(0%,0%,0%);fill-opacity:1;"
       id="g4498"><use
         xlink:href="#textext-ee39e0a2-6"
         x="246.296"
         y="134.765"
         id="use4500" /></g><g
       style="fill:rgb(0%,0%,0%);fill-opacity:1;"
       id="g4502"><use
         xlink:href="#textext-ee39e0a2-8"
         x="251.673"
         y="134.765"
         id="use4504" /><use
         xlink:href="#textext-ee39e0a2-9"
         x="254.44061"
         y="134.765"
         id="use4506" /><use
         xlink:href="#textext-ee39e0a2-10"
         x="257.485181"
         y="134.765"
         id="use4508" /></g><g
       style="fill:rgb(0%,0%,0%);fill-opacity:1;"
       id="g4510"><use
         xlink:href="#textext-ee39e0a2-13"
         x="265.787"
         y="131.148"
         id="use4512" /></g><g
       style="fill:rgb(0%,0%,0%);fill-opacity:1;"
       id="g4514"><use
         xlink:href="#textext-ee39e0a2-15"
         x="270.412"
         y="131.148"
         id="use4516" /></g><g
       style="fill:rgb(0%,0%,0%);fill-opacity:1;"
       id="g4518"><use
         xlink:href="#textext-ee39e0a2-18"
         x="274.332"
         y="131.148"
         id="use4520" /></g><g
       style="fill:rgb(0%,0%,0%);fill-opacity:1;"
       id="g4522"><use
         xlink:href="#textext-ee39e0a2-16"
         x="277.685"
         y="131.148"
         id="use4524" /></g><g
       style="fill:rgb(0%,0%,0%);fill-opacity:1;"
       id="g4526"><use
         xlink:href="#textext-ee39e0a2-11"
         x="282.154"
         y="134.765"
         id="use4528" /></g></g></g><g
   id="g4863"
   transform="matrix(1.4290596,0,0,-1.4290596,-139.65694,205.17861)"
   ns0:preamble="/home/yoshidak/.config/inkscape/preamble.txt"
   ns0:text="$R$\\,(fm)"><defs
     id="defs4865"><g
       id="g4867"><symbol
         id="textext-c4e76162-0"
         overflow="visible"><path
           id="path4870"
           d=""
           style="stroke:none;" /></symbol><symbol
         id="textext-c4e76162-1"
         overflow="visible"><path
           id="path4873"
           d="M 5.65625 -0.15625 C 5.21875 -0.1875 5.015625 -0.359375 4.828125 -0.875 L 3.890625 -3.3125 C 4.671875 -3.484375 5 -3.625 5.359375 -3.953125 C 5.6875 -4.234375 5.859375 -4.625 5.859375 -5.078125 C 5.859375 -6 5.125 -6.515625 3.78125 -6.515625 L 1.3125 -6.515625 L 1.3125 -6.34375 C 1.734375 -6.296875 1.78125 -6.28125 1.890625 -6.203125 C 1.96875 -6.15625 2.03125 -6.046875 2.03125 -5.9375 C 2.03125 -5.8125 1.96875 -5.578125 1.90625 -5.296875 L 0.671875 -0.890625 C 0.5 -0.3125 0.421875 -0.25 -0.125 -0.15625 L -0.125 0 L 2.296875 0 L 2.296875 -0.15625 C 1.6875 -0.234375 1.625 -0.296875 1.625 -0.625 C 1.625 -0.71875 1.65625 -0.84375 1.75 -1.203125 L 2.296875 -3.28125 L 2.953125 -3.234375 L 4.171875 0 L 5.65625 0 Z M 3.078125 -5.9375 C 3.125 -6.140625 3.265625 -6.203125 3.578125 -6.203125 C 4.40625 -6.203125 4.8125 -5.828125 4.8125 -5.09375 C 4.8125 -4.109375 4.171875 -3.59375 2.9375 -3.59375 C 2.765625 -3.59375 2.65625 -3.609375 2.421875 -3.65625 Z M 3.078125 -5.9375 "
           style="stroke:none;" /></symbol><symbol
         id="textext-c4e76162-2"
         overflow="visible"><path
           id="path4876"
           d=""
           style="stroke:none;" /></symbol><symbol
         id="textext-c4e76162-3"
         overflow="visible"><path
           id="path4879"
           d="M 3.296875 2.390625 C 3.296875 2.359375 3.296875 2.34375 3.125 2.171875 C 1.890625 0.921875 1.5625 -0.96875 1.5625 -2.5 C 1.5625 -4.234375 1.9375 -5.96875 3.171875 -7.203125 C 3.296875 -7.328125 3.296875 -7.34375 3.296875 -7.375 C 3.296875 -7.453125 3.265625 -7.484375 3.203125 -7.484375 C 3.09375 -7.484375 2.203125 -6.796875 1.609375 -5.53125 C 1.109375 -4.4375 0.984375 -3.328125 0.984375 -2.5 C 0.984375 -1.71875 1.09375 -0.515625 1.640625 0.625 C 2.25 1.84375 3.09375 2.5 3.203125 2.5 C 3.265625 2.5 3.296875 2.46875 3.296875 2.390625 Z M 3.296875 2.390625 "
           style="stroke:none;" /></symbol><symbol
         id="textext-c4e76162-4"
         overflow="visible"><path
           id="path4882"
           d="M 1.75 -4.296875 L 1.75 -5.453125 C 1.75 -6.328125 2.21875 -6.8125 2.65625 -6.8125 C 2.6875 -6.8125 2.84375 -6.8125 2.984375 -6.734375 C 2.875 -6.703125 2.6875 -6.5625 2.6875 -6.3125 C 2.6875 -6.09375 2.84375 -5.890625 3.125 -5.890625 C 3.40625 -5.890625 3.5625 -6.09375 3.5625 -6.328125 C 3.5625 -6.703125 3.1875 -7.03125 2.65625 -7.03125 C 1.96875 -7.03125 1.109375 -6.5 1.109375 -5.4375 L 1.109375 -4.296875 L 0.328125 -4.296875 L 0.328125 -3.984375 L 1.109375 -3.984375 L 1.109375 -0.75 C 1.109375 -0.3125 1 -0.3125 0.34375 -0.3125 L 0.34375 0 C 0.734375 -0.015625 1.203125 -0.03125 1.46875 -0.03125 C 1.875 -0.03125 2.34375 -0.03125 2.734375 0 L 2.734375 -0.3125 L 2.53125 -0.3125 C 1.796875 -0.3125 1.78125 -0.421875 1.78125 -0.78125 L 1.78125 -3.984375 L 2.90625 -3.984375 L 2.90625 -4.296875 Z M 1.75 -4.296875 "
           style="stroke:none;" /></symbol><symbol
         id="textext-c4e76162-5"
         overflow="visible"><path
           id="path4885"
           d="M 1.09375 -3.421875 L 1.09375 -0.75 C 1.09375 -0.3125 0.984375 -0.3125 0.3125 -0.3125 L 0.3125 0 C 0.671875 -0.015625 1.171875 -0.03125 1.453125 -0.03125 C 1.703125 -0.03125 2.21875 -0.015625 2.5625 0 L 2.5625 -0.3125 C 1.890625 -0.3125 1.78125 -0.3125 1.78125 -0.75 L 1.78125 -2.59375 C 1.78125 -3.625 2.5 -4.1875 3.125 -4.1875 C 3.765625 -4.1875 3.875 -3.65625 3.875 -3.078125 L 3.875 -0.75 C 3.875 -0.3125 3.765625 -0.3125 3.09375 -0.3125 L 3.09375 0 C 3.4375 -0.015625 3.953125 -0.03125 4.21875 -0.03125 C 4.46875 -0.03125 5 -0.015625 5.328125 0 L 5.328125 -0.3125 C 4.671875 -0.3125 4.5625 -0.3125 4.5625 -0.75 L 4.5625 -2.59375 C 4.5625 -3.625 5.265625 -4.1875 5.90625 -4.1875 C 6.53125 -4.1875 6.640625 -3.65625 6.640625 -3.078125 L 6.640625 -0.75 C 6.640625 -0.3125 6.53125 -0.3125 5.859375 -0.3125 L 5.859375 0 C 6.203125 -0.015625 6.71875 -0.03125 6.984375 -0.03125 C 7.25 -0.03125 7.765625 -0.015625 8.109375 0 L 8.109375 -0.3125 C 7.59375 -0.3125 7.34375 -0.3125 7.328125 -0.609375 L 7.328125 -2.515625 C 7.328125 -3.375 7.328125 -3.671875 7.015625 -4.03125 C 6.875 -4.203125 6.546875 -4.40625 5.96875 -4.40625 C 5.140625 -4.40625 4.6875 -3.8125 4.53125 -3.421875 C 4.390625 -4.296875 3.65625 -4.40625 3.203125 -4.40625 C 2.46875 -4.40625 2 -3.984375 1.71875 -3.359375 L 1.71875 -4.40625 L 0.3125 -4.296875 L 0.3125 -3.984375 C 1.015625 -3.984375 1.09375 -3.921875 1.09375 -3.421875 Z M 1.09375 -3.421875 "
           style="stroke:none;" /></symbol><symbol
         id="textext-c4e76162-6"
         overflow="visible"><path
           id="path4888"
           d="M 2.875 -2.5 C 2.875 -3.265625 2.765625 -4.46875 2.21875 -5.609375 C 1.625 -6.828125 0.765625 -7.484375 0.671875 -7.484375 C 0.609375 -7.484375 0.5625 -7.4375 0.5625 -7.375 C 0.5625 -7.34375 0.5625 -7.328125 0.75 -7.140625 C 1.734375 -6.15625 2.296875 -4.578125 2.296875 -2.5 C 2.296875 -0.78125 1.9375 0.96875 0.703125 2.21875 C 0.5625 2.34375 0.5625 2.359375 0.5625 2.390625 C 0.5625 2.453125 0.609375 2.5 0.671875 2.5 C 0.765625 2.5 1.671875 1.8125 2.25 0.546875 C 2.765625 -0.546875 2.875 -1.65625 2.875 -2.5 Z M 2.875 -2.5 "
           style="stroke:none;" /></symbol></g></defs><g
     id="textext-c4e76162-7"><g
       id="g4891"
       style="fill:rgb(0%,0%,0%);fill-opacity:1;"><use
         id="use4893"
         y="134.765"
         x="223.96"
         xlink:href="#textext-c4e76162-1" /></g><g
       id="g4895"
       style="fill:rgb(0%,0%,0%);fill-opacity:1;"><use
         id="use4897"
         y="134.765"
         x="231.808"
         xlink:href="#textext-c4e76162-3" /><use
         id="use4899"
         y="134.765"
         x="235.682455"
         xlink:href="#textext-c4e76162-4" /><use
         id="use4901"
         y="134.765"
         x="238.727026"
         xlink:href="#textext-c4e76162-5" /><use
         id="use4903"
         y="134.765"
         x="247.02886"
         xlink:href="#textext-c4e76162-6" /></g></g></g></g></svg>