<?xml version="1.0" encoding="UTF-8" standalone="no"?>
<!-- Created with Inkscape (http://www.inkscape.org/) -->

<svg
   xmlns:ns0="http://www.iki.fi/pav/software/textext/"
   xmlns:dc="http://purl.org/dc/elements/1.1/"
   xmlns:cc="http://creativecommons.org/ns#"
   xmlns:rdf="http://www.w3.org/1999/02/22-rdf-syntax-ns#"
   xmlns:svg="http://www.w3.org/2000/svg"
   xmlns="http://www.w3.org/2000/svg"
   xmlns:xlink="http://www.w3.org/1999/xlink"
   xmlns:sodipodi="http://sodipodi.sourceforge.net/DTD/sodipodi-0.dtd"
   xmlns:inkscape="http://www.inkscape.org/namespaces/inkscape"
   id="svg2"
   version="1.1"
   inkscape:version="0.92.5 (2060ec1f9f, 2020-04-08)"
   xml:space="preserve"
   width="378.22015"
   height="189.58855"
   viewBox="0 0 378.22016 189.58855"
   sodipodi:docname="kinematics.svg"
   inkscape:export-filename="/home/yoshidak/Dropbox/sync/work/data/20Ne_RWA/RWA.eps.png"
   inkscape:export-xdpi="270"
   inkscape:export-ydpi="270"><sodipodi:namedview
     pagecolor="#ffffff"
     bordercolor="#666666"
     borderopacity="1"
     objecttolerance="10"
     gridtolerance="10"
     guidetolerance="10"
     inkscape:pageopacity="0"
     inkscape:pageshadow="2"
     inkscape:window-width="1920"
     inkscape:window-height="1018"
     id="namedview4"
     showgrid="false"
     inkscape:zoom="1.4142136"
     inkscape:cx="-188.09709"
     inkscape:cy="43.634794"
     inkscape:window-x="0"
     inkscape:window-y="0"
     inkscape:window-maximized="1"
     inkscape:current-layer="g10"
     fit-margin-top="0"
     fit-margin-left="0"
     fit-margin-right="0"
     fit-margin-bottom="0" /><metadata
     id="metadata8"><rdf:RDF><cc:Work
         rdf:about=""><dc:format>image/svg+xml</dc:format><dc:type
           rdf:resource="http://purl.org/dc/dcmitype/StillImage" /><dc:title /></cc:Work></rdf:RDF></metadata><defs
     id="defs6"><marker
       inkscape:isstock="true"
       style="overflow:visible"
       id="Arrow1Lend"
       refX="0"
       refY="0"
       orient="auto"
       inkscape:stockid="Arrow1Lend"><path
         transform="matrix(-0.8,0,0,-0.8,-10,0)"
         style="fill:#000000;fill-opacity:1;fill-rule:evenodd;stroke:#000000;stroke-width:1pt;stroke-opacity:1"
         d="M 0,0 5,-5 -12.5,0 5,5 0,0 Z"
         id="path4753"
         inkscape:connector-curvature="0" /></marker><clipPath
       id="clipPath18"
       clipPathUnits="userSpaceOnUse"><path
         inkscape:connector-curvature="0"
         id="path20"
         d="m 790,260 2270,0 0,1540 -2270,0 0,-1540 z" /></clipPath><marker
       inkscape:isstock="true"
       style="overflow:visible"
       id="Arrow1Lend-3"
       refX="0"
       refY="0"
       orient="auto"
       inkscape:stockid="Arrow1Lend"><path
         transform="matrix(-0.8,0,0,-0.8,-10,0)"
         style="fill:#000000;fill-opacity:1;fill-rule:evenodd;stroke:#000000;stroke-width:1pt;stroke-opacity:1"
         d="M 0,0 5,-5 -12.5,0 5,5 0,0 Z"
         id="path4753-5"
         inkscape:connector-curvature="0" /></marker><marker
       inkscape:isstock="true"
       style="overflow:visible"
       id="Arrow1Lend-9"
       refX="0"
       refY="0"
       orient="auto"
       inkscape:stockid="Arrow1Lend"><path
         transform="matrix(-0.8,0,0,-0.8,-10,0)"
         style="fill:#000000;fill-opacity:1;fill-rule:evenodd;stroke:#000000;stroke-width:1pt;stroke-opacity:1"
         d="M 0,0 5,-5 -12.5,0 5,5 0,0 Z"
         id="path4753-1"
         inkscape:connector-curvature="0" /></marker><marker
       inkscape:isstock="true"
       style="overflow:visible"
       id="Arrow1Lend-9-7"
       refX="0"
       refY="0"
       orient="auto"
       inkscape:stockid="Arrow1Lend"><path
         transform="matrix(-0.8,0,0,-0.8,-10,0)"
         style="fill:#000000;fill-opacity:1;fill-rule:evenodd;stroke:#000000;stroke-width:1pt;stroke-opacity:1"
         d="M 0,0 5,-5 -12.5,0 5,5 0,0 Z"
         id="path4753-1-0"
         inkscape:connector-curvature="0" /></marker><marker
       inkscape:isstock="true"
       style="overflow:visible"
       id="Arrow1Lend-6"
       refX="0"
       refY="0"
       orient="auto"
       inkscape:stockid="Arrow1Lend"><path
         transform="matrix(-0.8,0,0,-0.8,-10,0)"
         style="fill:#000000;fill-opacity:1;fill-rule:evenodd;stroke:#000000;stroke-width:1pt;stroke-opacity:1"
         d="M 0,0 5,-5 -12.5,0 5,5 0,0 Z"
         id="path4753-0"
         inkscape:connector-curvature="0" /></marker></defs><g
     transform="matrix(1.25,0,0,-1.25,30.770971,230.5274)"
     inkscape:label="ink_ext_XXXXXX"
     inkscape:groupmode="layer"
     id="g10"><circle
   transform="scale(1,-1)"
   r="41.017582"
   cy="-100.0174"
   cx="87.531448"
   id="path4697"
   style="opacity:1;fill:none;fill-opacity:1;fill-rule:nonzero;stroke:#000000;stroke-width:0.80000001;stroke-miterlimit:3.87037039;stroke-dasharray:none;stroke-opacity:1" /><circle
   transform="scale(1,-1)"
   r="6.171752"
   cy="-123.36976"
   cx="-18.045025"
   id="path4697-3"
   style="opacity:1;fill:none;fill-opacity:1;fill-rule:nonzero;stroke:#000000;stroke-width:0.80000001;stroke-miterlimit:3.87037039;stroke-dasharray:none;stroke-opacity:1" /><circle
   transform="scale(1,-1)"
   r="10.451172"
   cy="-123.19148"
   cx="89.314049"
   id="path4697-3-6"
   style="opacity:1;fill:none;fill-opacity:1;fill-rule:nonzero;stroke:#000000;stroke-width:0.80000001;stroke-miterlimit:3.87037039;stroke-dasharray:1.6, 1.6;stroke-dashoffset:0;stroke-opacity:1" /><path
   inkscape:connector-curvature="0"
   id="path4744"
   d="m -17.39123,123.54801 106.732214,0"
   style="fill:none;fill-rule:evenodd;stroke:#000000;stroke-width:0.80000001;stroke-linecap:butt;stroke-linejoin:miter;stroke-miterlimit:3.87037039;stroke-dasharray:none;stroke-opacity:1;marker-end:url(#Arrow1Lend)" /><path
   inkscape:connector-curvature="0"
   id="path9710-2"
   d="m 89.880258,124.076 79.288302,29.54312"
   style="fill:none;fill-rule:evenodd;stroke:#000000;stroke-width:0.80000001;stroke-linecap:butt;stroke-linejoin:miter;stroke-miterlimit:3.87037039;stroke-dasharray:6.40000001, 6.40000001;stroke-dashoffset:0;stroke-opacity:1" /><path
   inkscape:connector-curvature="0"
   id="path4744-2-9"
   d="m 169.66908,153.66573 53.30446,19.40336"
   style="fill:none;fill-rule:evenodd;stroke:#000000;stroke-width:0.80000001;stroke-linecap:butt;stroke-linejoin:miter;stroke-miterlimit:3.87037039;stroke-dasharray:none;stroke-opacity:1;marker-end:url(#Arrow1Lend-9-7)" /><text
   transform="scale(1,-1)"
   id="text17325"
   y="-131.8474"
   x="-0.64082438"
   style="font-style:normal;font-variant:normal;font-weight:normal;font-stretch:normal;line-height:0%;font-family:'Times New Roman';-inkscape-font-specification:'Times New Roman, Normal';text-align:start;letter-spacing:0px;word-spacing:0px;writing-mode:lr-tb;text-anchor:start;fill:#000000;fill-opacity:1;stroke:none;stroke-width:1px;stroke-linecap:butt;stroke-linejoin:miter;stroke-opacity:1"
   xml:space="preserve"><tspan
     y="-131.8474"
     x="-0.64082438"
     id="tspan17327"
     sodipodi:role="line"
     style="font-size:13.65305328px;line-height:1.25">101.5 MeV</tspan></text>

<circle
   r="6.1448359"
   cy="-71.645554"
   cx="168.02919"
   id="path4697-3-5"
   style="opacity:1;fill:none;fill-opacity:1;fill-rule:nonzero;stroke:#000000;stroke-width:0.79651105;stroke-miterlimit:3.87037039;stroke-dasharray:none;stroke-opacity:1"
   transform="scale(1,-1)" /><path
   inkscape:connector-curvature="0"
   id="path9710"
   d="M 88.838127,123.61247 166.81936,72.771142"
   style="fill:none;fill-rule:evenodd;stroke:#000000;stroke-width:0.79651105;stroke-linecap:butt;stroke-linejoin:miter;stroke-miterlimit:3.87037039;stroke-dasharray:6.37208848, 6.37208848;stroke-dashoffset:0;stroke-opacity:1" /><path
   inkscape:connector-curvature="0"
   id="path4744-2"
   d="M 168.10625,71.894721 216.55197,40.133932"
   style="fill:none;fill-rule:evenodd;stroke:#000000;stroke-width:0.79651105;stroke-linecap:butt;stroke-linejoin:miter;stroke-miterlimit:3.87037039;stroke-dasharray:none;stroke-opacity:1;marker-end:url(#Arrow1Lend-9)" /><path
   inkscape:connector-curvature="0"
   id="path4744-6"
   d="m 89.541459,123.30343 188.417881,0"
   style="fill:none;fill-rule:evenodd;stroke:#000000;stroke-width:0.80000001;stroke-linecap:butt;stroke-linejoin:miter;stroke-miterlimit:3.87037039;stroke-dasharray:6.4, 6.4;stroke-dashoffset:0;stroke-opacity:1" /><path
   d="M 207.13876,-18.149772 A 61.4188,61.232258 0 0 1 166.52709,21.157884"
   sodipodi:end="1.2790786"
   sodipodi:start="0.32130776"
   sodipodi:ry="61.232258"
   sodipodi:rx="61.4188"
   sodipodi:cy="-37.487389"
   sodipodi:cx="148.86317"
   sodipodi:type="arc"
   transform="matrix(0.77280649,0.63464173,0.63464173,-0.77280649,0,0)"
   id="path20966"
   style="opacity:1;fill:none;fill-opacity:1;fill-rule:nonzero;stroke:#000000;stroke-width:0.80000001;stroke-miterlimit:3.87037039;stroke-dasharray:1.6, 3.2;stroke-dashoffset:0;stroke-opacity:1"
   sodipodi:open="true" /><circle
   r="10.451172"
   cy="153.89893"
   cx="169.53558"
   id="path4697-3-6-1"
   style="opacity:1;fill:none;fill-opacity:1;fill-rule:nonzero;stroke:#000000;stroke-width:0.80000001;stroke-miterlimit:3.87037039;stroke-dasharray:none;stroke-dashoffset:0;stroke-opacity:1" /><g
   ns0:text="$\\theta_{\\alpha}=46.3^\\circ$"
   ns0:preamble="/home/yoshidak/.config/inkscape/preamble.txt"
   transform="matrix(1.3758733,0,0,-1.3758733,-117.29423,321.55184)"
   id="g12335"><defs
     id="defs12337"><g
       id="g12339"><symbol
         overflow="visible"
         id="textext-0c09df6b-0"><path
           style="stroke:none;"
           d=""
           id="path12342" /></symbol><symbol
         overflow="visible"
         id="textext-0c09df6b-1"><path
           style="stroke:none;"
           d="M 4.515625 -4.8125 C 4.515625 -5.015625 4.5 -6.515625 3.3125 -6.515625 C 1.546875 -6.515625 0.296875 -3.75 0.296875 -1.828125 C 0.296875 -1.46875 0.34375 0.109375 1.609375 0.109375 C 3.59375 0.109375 4.515625 -3.28125 4.515625 -4.8125 Z M 3.859375 -5.390625 C 3.859375 -4.859375 3.71875 -4.109375 3.515625 -3.3125 L 1.359375 -3.3125 C 1.71875 -4.75 2.34375 -6.3125 3.296875 -6.3125 C 3.703125 -6.3125 3.859375 -5.96875 3.859375 -5.390625 Z M 3.421875 -2.953125 C 3.109375 -1.78125 2.765625 -0.109375 1.75 -0.109375 C 1.203125 -0.109375 1 -0.59375 1 -1.25 C 1 -1.75 1.109375 -2.34375 1.25 -2.953125 Z M 3.421875 -2.953125 "
           id="path12345" /></symbol><symbol
         overflow="visible"
         id="textext-0c09df6b-2"><path
           style="stroke:none;"
           d="M 1.796875 -0.421875 C 1.796875 -0.734375 1.546875 -1 1.25 -1 C 0.953125 -1 0.703125 -0.75 0.703125 -0.421875 C 0.703125 -0.046875 1.03125 0.109375 1.25 0.109375 C 1.453125 0.109375 1.796875 -0.0625 1.796875 -0.421875 Z M 1.796875 -0.421875 "
           id="path12348" /></symbol><symbol
         overflow="visible"
         id="textext-0c09df6b-3"><path
           style="stroke:none;"
           d=""
           id="path12351" /></symbol><symbol
         overflow="visible"
         id="textext-0c09df6b-4"><path
           style="stroke:none;"
           d="M 4.765625 -2.984375 L 4.234375 -2.90625 C 4.015625 -2.359375 3.390625 -1.5 3.390625 -1.484375 C 3.390625 -1.5 3.578125 -1.8125 3.578125 -2.1875 C 3.578125 -2.671875 3.375 -3.203125 2.484375 -3.203125 C 1.0625 -3.203125 0.1875 -1.921875 0.1875 -1.03125 C 0.1875 -0.421875 0.546875 0.078125 1.40625 0.078125 C 2.046875 0.078125 2.546875 -0.359375 2.546875 -0.375 C 2.546875 -0.3125 2.5625 0.0625 3.171875 0.0625 C 3.84375 0.0625 4.234375 -0.59375 4.234375 -0.75 C 4.234375 -0.78125 4.21875 -0.796875 4.203125 -0.796875 C 4.09375 -0.796875 3.921875 -0.203125 3.46875 -0.203125 C 3.296875 -0.203125 3.25 -0.375 3.25 -0.5625 C 3.25 -0.71875 3.265625 -0.890625 3.296875 -0.96875 C 3.40625 -1.109375 4.765625 -2.984375 4.765625 -2.984375 Z M 2.90625 -2.140625 C 2.90625 -1.453125 2.5625 -0.65625 2.5625 -0.65625 C 2.5625 -0.640625 2.171875 -0.109375 1.578125 -0.109375 C 1.421875 -0.109375 1 -0.15625 1 -1.078125 C 1 -1.453125 1.1875 -3.015625 2.3125 -3.015625 C 2.859375 -3.015625 2.90625 -2.40625 2.90625 -2.140625 Z M 2.90625 -2.140625 "
           id="path12354" /></symbol><symbol
         overflow="visible"
         id="textext-0c09df6b-5"><path
           style="stroke:none;"
           d=""
           id="path12357" /></symbol><symbol
         overflow="visible"
         id="textext-0c09df6b-6"><path
           style="stroke:none;"
           d="M 5.71875 -3.296875 L 5.71875 -3.84375 L 0.625 -3.84375 L 0.625 -3.296875 Z M 5.71875 -1.265625 L 5.71875 -1.828125 L 0.625 -1.828125 L 0.625 -1.265625 Z M 5.71875 -1.265625 "
           id="path12360" /></symbol><symbol
         overflow="visible"
         id="textext-0c09df6b-7"><path
           style="stroke:none;"
           d=""
           id="path12363" /></symbol><symbol
         overflow="visible"
         id="textext-0c09df6b-8"><path
           style="stroke:none;"
           d="M 2.9375 -1.640625 L 2.9375 -0.78125 C 2.9375 -0.421875 2.90625 -0.3125 2.171875 -0.3125 L 1.96875 -0.3125 L 1.96875 0 C 2.375 -0.03125 2.890625 -0.03125 3.3125 -0.03125 C 3.734375 -0.03125 4.25 -0.03125 4.671875 0 L 4.671875 -0.3125 L 4.453125 -0.3125 C 3.71875 -0.3125 3.703125 -0.421875 3.703125 -0.78125 L 3.703125 -1.640625 L 4.6875 -1.640625 L 4.6875 -1.953125 L 3.703125 -1.953125 L 3.703125 -6.484375 C 3.703125 -6.6875 3.703125 -6.75 3.53125 -6.75 C 3.453125 -6.75 3.421875 -6.75 3.34375 -6.625 L 0.28125 -1.953125 L 0.28125 -1.640625 Z M 2.984375 -1.953125 L 0.5625 -1.953125 L 2.984375 -5.671875 Z M 2.984375 -1.953125 "
           id="path12366" /></symbol><symbol
         overflow="visible"
         id="textext-0c09df6b-9"><path
           style="stroke:none;"
           d="M 1.3125 -3.265625 L 1.3125 -3.515625 C 1.3125 -6.03125 2.546875 -6.390625 3.0625 -6.390625 C 3.296875 -6.390625 3.71875 -6.328125 3.9375 -5.984375 C 3.78125 -5.984375 3.390625 -5.984375 3.390625 -5.546875 C 3.390625 -5.234375 3.625 -5.078125 3.84375 -5.078125 C 4 -5.078125 4.3125 -5.171875 4.3125 -5.5625 C 4.3125 -6.15625 3.875 -6.640625 3.046875 -6.640625 C 1.765625 -6.640625 0.421875 -5.359375 0.421875 -3.15625 C 0.421875 -0.484375 1.578125 0.21875 2.5 0.21875 C 3.609375 0.21875 4.5625 -0.71875 4.5625 -2.03125 C 4.5625 -3.296875 3.671875 -4.25 2.5625 -4.25 C 1.890625 -4.25 1.515625 -3.75 1.3125 -3.265625 Z M 2.5 -0.0625 C 1.875 -0.0625 1.578125 -0.65625 1.515625 -0.8125 C 1.328125 -1.28125 1.328125 -2.078125 1.328125 -2.25 C 1.328125 -3.03125 1.65625 -4.03125 2.546875 -4.03125 C 2.71875 -4.03125 3.171875 -4.03125 3.484375 -3.40625 C 3.65625 -3.046875 3.65625 -2.53125 3.65625 -2.046875 C 3.65625 -1.5625 3.65625 -1.0625 3.484375 -0.703125 C 3.1875 -0.109375 2.734375 -0.0625 2.5 -0.0625 Z M 2.5 -0.0625 "
           id="path12369" /></symbol><symbol
         overflow="visible"
         id="textext-0c09df6b-10"><path
           style="stroke:none;"
           d="M 2.890625 -3.515625 C 3.703125 -3.78125 4.28125 -4.46875 4.28125 -5.265625 C 4.28125 -6.078125 3.40625 -6.640625 2.453125 -6.640625 C 1.453125 -6.640625 0.6875 -6.046875 0.6875 -5.28125 C 0.6875 -4.953125 0.90625 -4.765625 1.203125 -4.765625 C 1.5 -4.765625 1.703125 -4.984375 1.703125 -5.28125 C 1.703125 -5.765625 1.234375 -5.765625 1.09375 -5.765625 C 1.390625 -6.265625 2.046875 -6.390625 2.40625 -6.390625 C 2.828125 -6.390625 3.375 -6.171875 3.375 -5.28125 C 3.375 -5.15625 3.34375 -4.578125 3.09375 -4.140625 C 2.796875 -3.65625 2.453125 -3.625 2.203125 -3.625 C 2.125 -3.609375 1.890625 -3.59375 1.8125 -3.59375 C 1.734375 -3.578125 1.671875 -3.5625 1.671875 -3.46875 C 1.671875 -3.359375 1.734375 -3.359375 1.90625 -3.359375 L 2.34375 -3.359375 C 3.15625 -3.359375 3.53125 -2.6875 3.53125 -1.703125 C 3.53125 -0.34375 2.84375 -0.0625 2.40625 -0.0625 C 1.96875 -0.0625 1.21875 -0.234375 0.875 -0.8125 C 1.21875 -0.765625 1.53125 -0.984375 1.53125 -1.359375 C 1.53125 -1.71875 1.265625 -1.921875 0.984375 -1.921875 C 0.734375 -1.921875 0.421875 -1.78125 0.421875 -1.34375 C 0.421875 -0.4375 1.34375 0.21875 2.4375 0.21875 C 3.65625 0.21875 4.5625 -0.6875 4.5625 -1.703125 C 4.5625 -2.515625 3.921875 -3.296875 2.890625 -3.515625 Z M 2.890625 -3.515625 "
           id="path12372" /></symbol><symbol
         overflow="visible"
         id="textext-0c09df6b-11"><path
           style="stroke:none;"
           d=""
           id="path12375" /></symbol><symbol
         overflow="visible"
         id="textext-0c09df6b-12"><path
           style="stroke:none;"
           d="M 3.15625 -1.875 C 3.15625 -2.609375 2.5625 -3.21875 1.8125 -3.21875 C 1.046875 -3.21875 0.453125 -2.609375 0.453125 -1.875 C 0.453125 -1.109375 1.046875 -0.515625 1.8125 -0.515625 C 2.5625 -0.515625 3.15625 -1.109375 3.15625 -1.875 Z M 2.8125 -1.875 C 2.8125 -1.3125 2.359375 -0.859375 1.8125 -0.859375 C 1.25 -0.859375 0.796875 -1.3125 0.796875 -1.875 C 0.796875 -2.421875 1.25 -2.875 1.8125 -2.875 C 2.359375 -2.875 2.8125 -2.421875 2.8125 -1.875 Z M 2.8125 -1.875 "
           id="path12378" /></symbol></g></defs><g
     id="textext-0c09df6b-13"><g
       style="fill:rgb(0%,0%,0%);fill-opacity:1;"
       id="g12381"><use
         xlink:href="#textext-0c09df6b-1"
         x="223.562"
         y="134.765"
         id="use12383" /></g><g
       style="fill:rgb(0%,0%,0%);fill-opacity:1;"
       id="g12385"><use
         xlink:href="#textext-0c09df6b-4"
         x="228.35"
         y="136.259"
         id="use12387" /></g><g
       style="fill:rgb(0%,0%,0%);fill-opacity:1;"
       id="g12389"><use
         xlink:href="#textext-0c09df6b-6"
         x="236.561"
         y="134.765"
         id="use12391" /></g><g
       style="fill:rgb(0%,0%,0%);fill-opacity:1;"
       id="g12393"><use
         xlink:href="#textext-0c09df6b-8"
         x="245.665"
         y="134.765"
         id="use12395" /><use
         xlink:href="#textext-0c09df6b-9"
         x="250.6463"
         y="134.765"
         id="use12397" /></g><g
       style="fill:rgb(0%,0%,0%);fill-opacity:1;"
       id="g12399"><use
         xlink:href="#textext-0c09df6b-2"
         x="255.787"
         y="134.765"
         id="use12401" /></g><g
       style="fill:rgb(0%,0%,0%);fill-opacity:1;"
       id="g12403"><use
         xlink:href="#textext-0c09df6b-10"
         x="258.447"
         y="134.765"
         id="use12405" /></g><g
       style="fill:rgb(0%,0%,0%);fill-opacity:1;"
       id="g12407"><use
         xlink:href="#textext-0c09df6b-12"
         x="263.428"
         y="131.148"
         id="use12409" /></g></g></g><g
   id="g12672"
   transform="matrix(1.3758733,0,0,-1.3758733,-117.29423,278.07345)"
   ns0:preamble="/home/yoshidak/.config/inkscape/preamble.txt"
   ns0:text="$\\theta_p = -70.0^\\circ$"><defs
     id="defs12674"><g
       id="g12676"><symbol
         id="textext-fc279a70-0"
         overflow="visible"><path
           id="path12679"
           d=""
           style="stroke:none;" /></symbol><symbol
         id="textext-fc279a70-1"
         overflow="visible"><path
           id="path12682"
           d="M 4.515625 -4.8125 C 4.515625 -5.015625 4.5 -6.515625 3.3125 -6.515625 C 1.546875 -6.515625 0.296875 -3.75 0.296875 -1.828125 C 0.296875 -1.46875 0.34375 0.109375 1.609375 0.109375 C 3.59375 0.109375 4.515625 -3.28125 4.515625 -4.8125 Z M 3.859375 -5.390625 C 3.859375 -4.859375 3.71875 -4.109375 3.515625 -3.3125 L 1.359375 -3.3125 C 1.71875 -4.75 2.34375 -6.3125 3.296875 -6.3125 C 3.703125 -6.3125 3.859375 -5.96875 3.859375 -5.390625 Z M 3.421875 -2.953125 C 3.109375 -1.78125 2.765625 -0.109375 1.75 -0.109375 C 1.203125 -0.109375 1 -0.59375 1 -1.25 C 1 -1.75 1.109375 -2.34375 1.25 -2.953125 Z M 3.421875 -2.953125 "
           style="stroke:none;" /></symbol><symbol
         id="textext-fc279a70-2"
         overflow="visible"><path
           id="path12685"
           d="M 1.796875 -0.421875 C 1.796875 -0.734375 1.546875 -1 1.25 -1 C 0.953125 -1 0.703125 -0.75 0.703125 -0.421875 C 0.703125 -0.046875 1.03125 0.109375 1.25 0.109375 C 1.453125 0.109375 1.796875 -0.0625 1.796875 -0.421875 Z M 1.796875 -0.421875 "
           style="stroke:none;" /></symbol><symbol
         id="textext-fc279a70-3"
         overflow="visible"><path
           id="path12688"
           d=""
           style="stroke:none;" /></symbol><symbol
         id="textext-fc279a70-4"
         overflow="visible"><path
           id="path12691"
           d="M 3.84375 -2.296875 C 3.828125 -2.859375 3.453125 -3.203125 2.859375 -3.203125 C 2.3125 -3.203125 1.90625 -2.96875 1.453125 -2.390625 L 1.671875 -3.171875 C 1.671875 -3.171875 1.65625 -3.203125 1.640625 -3.203125 L 1.625 -3.203125 L 0.34375 -3.046875 L 0.375 -2.9375 C 0.625 -2.9375 0.90625 -2.9375 0.921875 -2.734375 C 0.921875 -2.65625 0.640625 -1.65625 0.359375 -0.6875 L -0.046875 0.9375 C -0.109375 1.28125 -0.21875 1.359375 -0.578125 1.375 L -0.578125 1.484375 L 1.140625 1.484375 L 1.140625 1.375 C 0.75 1.375 0.609375 1.328125 0.59375 1.15625 C 0.59375 1.0625 0.71875 0.515625 0.875 -0.046875 C 1.078125 0.046875 1.234375 0.078125 1.421875 0.078125 C 2.640625 0.078125 3.890625 -1.140625 3.84375 -2.296875 Z M 3.078125 -2.28125 C 3.109375 -1.796875 2.890625 -1.1875 2.5625 -0.75 C 2.21875 -0.296875 1.828125 -0.0625 1.375 -0.0625 C 1.140625 -0.0625 0.96875 -0.171875 0.96875 -0.328125 C 0.953125 -0.578125 1.21875 -1.515625 1.453125 -2.0625 C 1.65625 -2.546875 2.09375 -2.890625 2.5 -2.890625 L 2.546875 -2.890625 C 2.90625 -2.875 3.0625 -2.6875 3.078125 -2.28125 Z M 3.078125 -2.28125 "
           style="stroke:none;" /></symbol><symbol
         id="textext-fc279a70-5"
         overflow="visible"><path
           id="path12694"
           d=""
           style="stroke:none;" /></symbol><symbol
         id="textext-fc279a70-6"
         overflow="visible"><path
           id="path12697"
           d="M 5.71875 -3.296875 L 5.71875 -3.84375 L 0.625 -3.84375 L 0.625 -3.296875 Z M 5.71875 -1.265625 L 5.71875 -1.828125 L 0.625 -1.828125 L 0.625 -1.265625 Z M 5.71875 -1.265625 "
           style="stroke:none;" /></symbol><symbol
         id="textext-fc279a70-7"
         overflow="visible"><path
           id="path12700"
           d=""
           style="stroke:none;" /></symbol><symbol
         id="textext-fc279a70-8"
         overflow="visible"><path
           id="path12703"
           d="M 5.71875 -2.28125 L 5.71875 -2.84375 L 0.625 -2.84375 L 0.625 -2.28125 Z M 5.71875 -2.28125 "
           style="stroke:none;" /></symbol><symbol
         id="textext-fc279a70-9"
         overflow="visible"><path
           id="path12706"
           d=""
           style="stroke:none;" /></symbol><symbol
         id="textext-fc279a70-10"
         overflow="visible"><path
           id="path12709"
           d="M 4.75 -6.078125 C 4.828125 -6.1875 4.828125 -6.203125 4.828125 -6.421875 L 2.40625 -6.421875 C 1.203125 -6.421875 1.171875 -6.546875 1.140625 -6.734375 L 0.890625 -6.734375 L 0.5625 -4.6875 L 0.8125 -4.6875 C 0.84375 -4.84375 0.921875 -5.46875 1.0625 -5.59375 C 1.125 -5.65625 1.90625 -5.65625 2.03125 -5.65625 L 4.09375 -5.65625 C 3.984375 -5.5 3.203125 -4.40625 2.984375 -4.078125 C 2.078125 -2.734375 1.75 -1.34375 1.75 -0.328125 C 1.75 -0.234375 1.75 0.21875 2.21875 0.21875 C 2.671875 0.21875 2.671875 -0.234375 2.671875 -0.328125 L 2.671875 -0.84375 C 2.671875 -1.390625 2.703125 -1.9375 2.78125 -2.46875 C 2.828125 -2.703125 2.953125 -3.5625 3.40625 -4.171875 Z M 4.75 -6.078125 "
           style="stroke:none;" /></symbol><symbol
         id="textext-fc279a70-11"
         overflow="visible"><path
           id="path12712"
           d="M 4.578125 -3.1875 C 4.578125 -3.984375 4.53125 -4.78125 4.1875 -5.515625 C 3.734375 -6.484375 2.90625 -6.640625 2.5 -6.640625 C 1.890625 -6.640625 1.171875 -6.375 0.75 -5.453125 C 0.4375 -4.765625 0.390625 -3.984375 0.390625 -3.1875 C 0.390625 -2.4375 0.421875 -1.546875 0.84375 -0.78125 C 1.265625 0.015625 2 0.21875 2.484375 0.21875 C 3.015625 0.21875 3.78125 0.015625 4.21875 -0.9375 C 4.53125 -1.625 4.578125 -2.40625 4.578125 -3.1875 Z M 2.484375 0 C 2.09375 0 1.5 -0.25 1.328125 -1.203125 C 1.21875 -1.796875 1.21875 -2.71875 1.21875 -3.3125 C 1.21875 -3.953125 1.21875 -4.609375 1.296875 -5.140625 C 1.484375 -6.328125 2.234375 -6.421875 2.484375 -6.421875 C 2.8125 -6.421875 3.46875 -6.234375 3.65625 -5.25 C 3.765625 -4.6875 3.765625 -3.9375 3.765625 -3.3125 C 3.765625 -2.5625 3.765625 -1.890625 3.65625 -1.25 C 3.5 -0.296875 2.9375 0 2.484375 0 Z M 2.484375 0 "
           style="stroke:none;" /></symbol><symbol
         id="textext-fc279a70-12"
         overflow="visible"><path
           id="path12715"
           d=""
           style="stroke:none;" /></symbol><symbol
         id="textext-fc279a70-13"
         overflow="visible"><path
           id="path12718"
           d="M 3.15625 -1.875 C 3.15625 -2.609375 2.5625 -3.21875 1.8125 -3.21875 C 1.046875 -3.21875 0.453125 -2.609375 0.453125 -1.875 C 0.453125 -1.109375 1.046875 -0.515625 1.8125 -0.515625 C 2.5625 -0.515625 3.15625 -1.109375 3.15625 -1.875 Z M 2.8125 -1.875 C 2.8125 -1.3125 2.359375 -0.859375 1.8125 -0.859375 C 1.25 -0.859375 0.796875 -1.3125 0.796875 -1.875 C 0.796875 -2.421875 1.25 -2.875 1.8125 -2.875 C 2.359375 -2.875 2.8125 -2.421875 2.8125 -1.875 Z M 2.8125 -1.875 "
           style="stroke:none;" /></symbol></g></defs><g
     id="textext-fc279a70-14"><g
       id="g12721"
       style="fill:rgb(0%,0%,0%);fill-opacity:1;"><use
         id="use12723"
         y="134.765"
         x="223.562"
         xlink:href="#textext-fc279a70-1" /></g><g
       id="g12725"
       style="fill:rgb(0%,0%,0%);fill-opacity:1;"><use
         id="use12727"
         y="136.259"
         x="228.714"
         xlink:href="#textext-fc279a70-4" /></g><g
       id="g12729"
       style="fill:rgb(0%,0%,0%);fill-opacity:1;"><use
         id="use12731"
         y="134.765"
         x="236.416"
         xlink:href="#textext-fc279a70-6" /></g><g
       id="g12733"
       style="fill:rgb(0%,0%,0%);fill-opacity:1;"><use
         id="use12735"
         y="134.765"
         x="245.519"
         xlink:href="#textext-fc279a70-8" /></g><g
       id="g12737"
       style="fill:rgb(0%,0%,0%);fill-opacity:1;"><use
         id="use12739"
         y="134.765"
         x="251.855"
         xlink:href="#textext-fc279a70-10" /><use
         id="use12741"
         y="134.765"
         x="256.8363"
         xlink:href="#textext-fc279a70-11" /></g><g
       id="g12743"
       style="fill:rgb(0%,0%,0%);fill-opacity:1;"><use
         id="use12745"
         y="134.765"
         x="261.977"
         xlink:href="#textext-fc279a70-2" /></g><g
       id="g12747"
       style="fill:rgb(0%,0%,0%);fill-opacity:1;"><use
         id="use12749"
         y="134.765"
         x="264.637"
         xlink:href="#textext-fc279a70-11" /></g><g
       id="g12751"
       style="fill:rgb(0%,0%,0%);fill-opacity:1;"><use
         id="use12753"
         y="131.148"
         x="269.619"
         xlink:href="#textext-fc279a70-13" /></g></g></g><g
   ns0:text="$T_{p}$"
   ns0:preamble="/home/yoshidak/.config/inkscape/preamble.txt"
   transform="matrix(1.4894351,0,0,-1.4894351,-153.45779,237.72473)"
   id="g13051"><defs
     id="defs13053"><g
       id="g13055"><symbol
         overflow="visible"
         id="textext-650915e4-0"><path
           style="stroke:none;"
           d=""
           id="path13058" /></symbol><symbol
         overflow="visible"
         id="textext-650915e4-1"><path
           style="stroke:none;"
           d="M 6.3125 -6.515625 L 1 -6.515625 L 0.59375 -4.96875 L 0.765625 -4.9375 C 1.296875 -6.015625 1.609375 -6.1875 3.140625 -6.15625 L 1.703125 -0.890625 C 1.546875 -0.375 1.3125 -0.203125 0.640625 -0.15625 L 0.640625 0 L 3.53125 0 L 3.53125 -0.15625 C 3.375 -0.171875 3.21875 -0.1875 3.15625 -0.1875 C 2.765625 -0.21875 2.640625 -0.3125 2.640625 -0.609375 C 2.640625 -0.734375 2.671875 -0.859375 2.765625 -1.203125 L 4.140625 -6.15625 L 4.6875 -6.15625 C 5.40625 -6.15625 5.734375 -5.90625 5.734375 -5.359375 C 5.734375 -5.21875 5.71875 -5.078125 5.703125 -4.90625 L 5.875 -4.890625 Z M 6.3125 -6.515625 "
           id="path13061" /></symbol><symbol
         overflow="visible"
         id="textext-650915e4-2"><path
           style="stroke:none;"
           d=""
           id="path13064" /></symbol><symbol
         overflow="visible"
         id="textext-650915e4-3"><path
           style="stroke:none;"
           d="M 3.84375 -2.296875 C 3.828125 -2.859375 3.453125 -3.203125 2.859375 -3.203125 C 2.3125 -3.203125 1.90625 -2.96875 1.453125 -2.390625 L 1.671875 -3.171875 C 1.671875 -3.171875 1.65625 -3.203125 1.640625 -3.203125 L 1.625 -3.203125 L 0.34375 -3.046875 L 0.375 -2.9375 C 0.625 -2.9375 0.90625 -2.9375 0.921875 -2.734375 C 0.921875 -2.65625 0.640625 -1.65625 0.359375 -0.6875 L -0.046875 0.9375 C -0.109375 1.28125 -0.21875 1.359375 -0.578125 1.375 L -0.578125 1.484375 L 1.140625 1.484375 L 1.140625 1.375 C 0.75 1.375 0.609375 1.328125 0.59375 1.15625 C 0.59375 1.0625 0.71875 0.515625 0.875 -0.046875 C 1.078125 0.046875 1.234375 0.078125 1.421875 0.078125 C 2.640625 0.078125 3.890625 -1.140625 3.84375 -2.296875 Z M 3.078125 -2.28125 C 3.109375 -1.796875 2.890625 -1.1875 2.5625 -0.75 C 2.21875 -0.296875 1.828125 -0.0625 1.375 -0.0625 C 1.140625 -0.0625 0.96875 -0.171875 0.96875 -0.328125 C 0.953125 -0.578125 1.21875 -1.515625 1.453125 -2.0625 C 1.65625 -2.546875 2.09375 -2.890625 2.5 -2.890625 L 2.546875 -2.890625 C 2.90625 -2.875 3.0625 -2.6875 3.078125 -2.28125 Z M 3.078125 -2.28125 "
           id="path13067" /></symbol></g></defs><g
     id="textext-650915e4-4"><g
       style="fill:rgb(0%,0%,0%);fill-opacity:1;"
       id="g13070"><use
         xlink:href="#textext-650915e4-1"
         x="223.083"
         y="134.765"
         id="use13072" /></g><g
       style="fill:rgb(0%,0%,0%);fill-opacity:1;"
       id="g13074"><use
         xlink:href="#textext-650915e4-3"
         x="228.594"
         y="136.259"
         id="use13076" /></g></g></g><g
   id="g13374"
   transform="matrix(1.3758733,0,0,-1.3758733,-125.40262,360.55434)"
   ns0:preamble="/home/yoshidak/.config/inkscape/preamble.txt"
   ns0:text="$T_{\\alpha}$"><defs
     id="defs13376"><g
       id="g13378"><symbol
         id="textext-99ec2fcc-0"
         overflow="visible"><path
           id="path13381"
           d=""
           style="stroke:none;" /></symbol><symbol
         id="textext-99ec2fcc-1"
         overflow="visible"><path
           id="path13384"
           d="M 6.3125 -6.515625 L 1 -6.515625 L 0.59375 -4.96875 L 0.765625 -4.9375 C 1.296875 -6.015625 1.609375 -6.1875 3.140625 -6.15625 L 1.703125 -0.890625 C 1.546875 -0.375 1.3125 -0.203125 0.640625 -0.15625 L 0.640625 0 L 3.53125 0 L 3.53125 -0.15625 C 3.375 -0.171875 3.21875 -0.1875 3.15625 -0.1875 C 2.765625 -0.21875 2.640625 -0.3125 2.640625 -0.609375 C 2.640625 -0.734375 2.671875 -0.859375 2.765625 -1.203125 L 4.140625 -6.15625 L 4.6875 -6.15625 C 5.40625 -6.15625 5.734375 -5.90625 5.734375 -5.359375 C 5.734375 -5.21875 5.71875 -5.078125 5.703125 -4.90625 L 5.875 -4.890625 Z M 6.3125 -6.515625 "
           style="stroke:none;" /></symbol><symbol
         id="textext-99ec2fcc-2"
         overflow="visible"><path
           id="path13387"
           d=""
           style="stroke:none;" /></symbol><symbol
         id="textext-99ec2fcc-3"
         overflow="visible"><path
           id="path13390"
           d="M 4.765625 -2.984375 L 4.234375 -2.90625 C 4.015625 -2.359375 3.390625 -1.5 3.390625 -1.484375 C 3.390625 -1.5 3.578125 -1.8125 3.578125 -2.1875 C 3.578125 -2.671875 3.375 -3.203125 2.484375 -3.203125 C 1.0625 -3.203125 0.1875 -1.921875 0.1875 -1.03125 C 0.1875 -0.421875 0.546875 0.078125 1.40625 0.078125 C 2.046875 0.078125 2.546875 -0.359375 2.546875 -0.375 C 2.546875 -0.3125 2.5625 0.0625 3.171875 0.0625 C 3.84375 0.0625 4.234375 -0.59375 4.234375 -0.75 C 4.234375 -0.78125 4.21875 -0.796875 4.203125 -0.796875 C 4.09375 -0.796875 3.921875 -0.203125 3.46875 -0.203125 C 3.296875 -0.203125 3.25 -0.375 3.25 -0.5625 C 3.25 -0.71875 3.265625 -0.890625 3.296875 -0.96875 C 3.40625 -1.109375 4.765625 -2.984375 4.765625 -2.984375 Z M 2.90625 -2.140625 C 2.90625 -1.453125 2.5625 -0.65625 2.5625 -0.65625 C 2.5625 -0.640625 2.171875 -0.109375 1.578125 -0.109375 C 1.421875 -0.109375 1 -0.15625 1 -1.078125 C 1 -1.453125 1.1875 -3.015625 2.3125 -3.015625 C 2.859375 -3.015625 2.90625 -2.40625 2.90625 -2.140625 Z M 2.90625 -2.140625 "
           style="stroke:none;" /></symbol></g></defs><g
     id="textext-99ec2fcc-4"><g
       id="g13393"
       style="fill:rgb(0%,0%,0%);fill-opacity:1;"><use
         id="use13395"
         y="134.765"
         x="223.083"
         xlink:href="#textext-99ec2fcc-1" /></g><g
       id="g13397"
       style="fill:rgb(0%,0%,0%);fill-opacity:1;"><use
         id="use13399"
         y="136.259"
         x="228.231"
         xlink:href="#textext-99ec2fcc-3" /></g></g></g></g></svg>