<?xml version="1.0" encoding="UTF-8" standalone="no"?>
<!-- Created with Inkscape (http://www.inkscape.org/) -->

<svg
   xmlns:ns0="http://www.iki.fi/pav/software/textext/"
   xmlns:dc="http://purl.org/dc/elements/1.1/"
   xmlns:cc="http://creativecommons.org/ns#"
   xmlns:rdf="http://www.w3.org/1999/02/22-rdf-syntax-ns#"
   xmlns:svg="http://www.w3.org/2000/svg"
   xmlns="http://www.w3.org/2000/svg"
   xmlns:xlink="http://www.w3.org/1999/xlink"
   xmlns:sodipodi="http://sodipodi.sourceforge.net/DTD/sodipodi-0.dtd"
   xmlns:inkscape="http://www.inkscape.org/namespaces/inkscape"
   id="svg2"
   version="1.1"
   inkscape:version="0.92.5 (2060ec1f9f, 2020-04-08)"
   xml:space="preserve"
   width="294.36581"
   height="212.22247"
   viewBox="0 0 294.36581 212.22247"
   sodipodi:docname="msk.svg"><sodipodi:namedview
     pagecolor="#ffffff"
     bordercolor="#666666"
     borderopacity="1"
     objecttolerance="10"
     gridtolerance="10"
     guidetolerance="10"
     inkscape:pageopacity="0"
     inkscape:pageshadow="2"
     inkscape:window-width="1920"
     inkscape:window-height="1018"
     id="namedview4"
     showgrid="false"
     inkscape:zoom="2.2438855"
     inkscape:cx="-119.93033"
     inkscape:cy="110.02966"
     inkscape:window-x="0"
     inkscape:window-y="0"
     inkscape:window-maximized="1"
     inkscape:current-layer="g10"
     fit-margin-top="0"
     fit-margin-left="0"
     fit-margin-right="0"
     fit-margin-bottom="0" /><metadata
     id="metadata8"><rdf:RDF><cc:Work
         rdf:about=""><dc:format>image/svg+xml</dc:format><dc:type
           rdf:resource="http://purl.org/dc/dcmitype/StillImage" /><dc:title /></cc:Work></rdf:RDF></metadata><defs
     id="defs6"><clipPath
       clipPathUnits="userSpaceOnUse"
       id="clipPath18"><path
         d="m 800,260 2190,0 0,1500 -2190,0 0,-1500 z"
         id="path20"
         inkscape:connector-curvature="0" /></clipPath></defs><g
     id="g10"
     inkscape:groupmode="layer"
     inkscape:label="ink_ext_XXXXXX"
     transform="matrix(1.25,0,0,-1.25,-78.475444,219.78)"><path
   inkscape:connector-curvature="0"
   id="path22"
   style="fill:none;stroke:#000000;stroke-width:0.25;stroke-linecap:butt;stroke-linejoin:miter;stroke-miterlimit:3.79999995;stroke-dasharray:none;stroke-opacity:1"
   d="m 103.199,39.25 3.153,0" /><path
   inkscape:connector-curvature="0"
   id="path24"
   style="fill:none;stroke:#000000;stroke-width:0.25;stroke-linecap:butt;stroke-linejoin:miter;stroke-miterlimit:3.79999995;stroke-dasharray:none;stroke-opacity:1"
   d="m 298.148,39.25 -3.148,0" /><text
   transform="scale(1,-1)"
   style="font-variant:normal;font-weight:normal;font-size:12px;line-height:0%;font-family:'Times New Roman';-inkscape-font-specification:TimesNewRomanPSMT;writing-mode:lr-tb;fill:#000000;fill-opacity:1;fill-rule:nonzero;stroke:none"
   id="text28"
   x="92.125"
   y="-34.732399"><tspan
     x="92.125"
     y="-34.732399"
     id="tspan30">0</tspan></text>

<path
   inkscape:connector-curvature="0"
   id="path32"
   style="fill:none;stroke:#000000;stroke-width:0.25;stroke-linecap:butt;stroke-linejoin:miter;stroke-miterlimit:3.79999995;stroke-dasharray:none;stroke-opacity:1"
   d="m 103.199,64.0512 3.153,0" /><path
   inkscape:connector-curvature="0"
   id="path34"
   style="fill:none;stroke:#000000;stroke-width:0.25;stroke-linecap:butt;stroke-linejoin:miter;stroke-miterlimit:3.79999995;stroke-dasharray:none;stroke-opacity:1"
   d="m 298.148,64.0512 -3.148,0" /><text
   transform="scale(1,-1)"
   style="font-variant:normal;font-weight:normal;line-height:0%;font-family:'Times New Roman';-inkscape-font-specification:TimesNewRomanPSMT;writing-mode:lr-tb;fill:#000000;fill-opacity:1;fill-rule:nonzero;stroke:none"
   id="text38"
   x="83.125"
   y="-59.533199"><tspan
     x="83.125 89.125 92.125"
     y="-59.533199"
     sodipodi:role="line"
     id="tspan40"
     style="font-size:12px;line-height:1.25">0.2</tspan></text>

<path
   inkscape:connector-curvature="0"
   id="path42"
   style="fill:none;stroke:#000000;stroke-width:0.25;stroke-linecap:butt;stroke-linejoin:miter;stroke-miterlimit:3.79999995;stroke-dasharray:none;stroke-opacity:1"
   d="m 103.199,88.852 3.153,0" /><path
   inkscape:connector-curvature="0"
   id="path44"
   style="fill:none;stroke:#000000;stroke-width:0.25;stroke-linecap:butt;stroke-linejoin:miter;stroke-miterlimit:3.79999995;stroke-dasharray:none;stroke-opacity:1"
   d="m 298.148,88.852 -3.148,0" /><text
   transform="scale(1,-1)"
   style="font-variant:normal;font-weight:normal;line-height:0%;font-family:'Times New Roman';-inkscape-font-specification:TimesNewRomanPSMT;writing-mode:lr-tb;fill:#000000;fill-opacity:1;fill-rule:nonzero;stroke:none"
   id="text48"
   x="83.125"
   y="-84.330101"><tspan
     x="83.125 89.125 92.125"
     y="-84.330101"
     sodipodi:role="line"
     id="tspan50"
     style="font-size:12px;line-height:1.25">0.4</tspan></text>

<path
   inkscape:connector-curvature="0"
   id="path52"
   style="fill:none;stroke:#000000;stroke-width:0.25;stroke-linecap:butt;stroke-linejoin:miter;stroke-miterlimit:3.79999995;stroke-dasharray:none;stroke-opacity:1"
   d="m 103.199,113.699 3.153,0" /><path
   inkscape:connector-curvature="0"
   id="path54"
   style="fill:none;stroke:#000000;stroke-width:0.25;stroke-linecap:butt;stroke-linejoin:miter;stroke-miterlimit:3.79999995;stroke-dasharray:none;stroke-opacity:1"
   d="m 298.148,113.699 -3.148,0" /><text
   transform="scale(1,-1)"
   style="font-variant:normal;font-weight:normal;line-height:0%;font-family:'Times New Roman';-inkscape-font-specification:TimesNewRomanPSMT;writing-mode:lr-tb;fill:#000000;fill-opacity:1;fill-rule:nonzero;stroke:none"
   id="text58"
   x="83.125"
   y="-109.182"><tspan
     x="83.125 89.125 92.125"
     y="-109.182"
     sodipodi:role="line"
     id="tspan60"
     style="font-size:12px;line-height:1.25">0.6</tspan></text>

<path
   inkscape:connector-curvature="0"
   id="path62"
   style="fill:none;stroke:#000000;stroke-width:0.25;stroke-linecap:butt;stroke-linejoin:miter;stroke-miterlimit:3.79999995;stroke-dasharray:none;stroke-opacity:1"
   d="m 103.199,138.5 3.153,0" /><path
   inkscape:connector-curvature="0"
   id="path64"
   style="fill:none;stroke:#000000;stroke-width:0.25;stroke-linecap:butt;stroke-linejoin:miter;stroke-miterlimit:3.79999995;stroke-dasharray:none;stroke-opacity:1"
   d="m 298.148,138.5 -3.148,0" /><text
   transform="scale(1,-1)"
   style="font-variant:normal;font-weight:normal;line-height:0%;font-family:'Times New Roman';-inkscape-font-specification:TimesNewRomanPSMT;writing-mode:lr-tb;fill:#000000;fill-opacity:1;fill-rule:nonzero;stroke:none"
   id="text68"
   x="83.125"
   y="-133.98199"><tspan
     x="83.125 89.125 92.125"
     y="-133.98199"
     sodipodi:role="line"
     id="tspan70"
     style="font-size:12px;line-height:1.25">0.8</tspan></text>

<path
   inkscape:connector-curvature="0"
   id="path72"
   style="fill:none;stroke:#000000;stroke-width:0.25;stroke-linecap:butt;stroke-linejoin:miter;stroke-miterlimit:3.79999995;stroke-dasharray:none;stroke-opacity:1"
   d="m 103.199,163.301 3.153,0" /><path
   inkscape:connector-curvature="0"
   id="path74"
   style="fill:none;stroke:#000000;stroke-width:0.25;stroke-linecap:butt;stroke-linejoin:miter;stroke-miterlimit:3.79999995;stroke-dasharray:none;stroke-opacity:1"
   d="m 298.148,163.301 -3.148,0" /><text
   transform="scale(1,-1)"
   style="font-variant:normal;font-weight:normal;font-size:12px;line-height:0%;font-family:'Times New Roman';-inkscape-font-specification:TimesNewRomanPSMT;writing-mode:lr-tb;fill:#000000;fill-opacity:1;fill-rule:nonzero;stroke:none"
   id="text78"
   x="92.125"
   y="-158.783"><tspan
     x="92.125"
     y="-158.783"
     id="tspan80">1</tspan></text>

<path
   inkscape:connector-curvature="0"
   id="path82"
   style="fill:none;stroke:#000000;stroke-width:0.25;stroke-linecap:butt;stroke-linejoin:miter;stroke-miterlimit:3.79999995;stroke-dasharray:none;stroke-opacity:1"
   d="m 103.199,39.25 0,3.148" /><path
   inkscape:connector-curvature="0"
   id="path84"
   style="fill:none;stroke:#000000;stroke-width:0.25;stroke-linecap:butt;stroke-linejoin:miter;stroke-miterlimit:3.79999995;stroke-dasharray:none;stroke-opacity:1"
   d="m 103.199,175.699 0,-3.148" /><text
   transform="scale(1,-1)"
   style="font-variant:normal;font-weight:normal;font-size:12px;line-height:0%;font-family:'Times New Roman';-inkscape-font-specification:TimesNewRomanPSMT;writing-mode:lr-tb;fill:#000000;fill-opacity:1;fill-rule:nonzero;stroke:none"
   id="text88"
   x="101.6758"
   y="-26.783199"><tspan
     x="101.6758"
     y="-26.783199"
     id="tspan90">0</tspan></text>

<path
   inkscape:connector-curvature="0"
   id="path92"
   style="fill:none;stroke:#000000;stroke-width:0.25;stroke-linecap:butt;stroke-linejoin:miter;stroke-miterlimit:3.79999995;stroke-dasharray:none;stroke-opacity:1"
   d="m 133.199,39.25 0,3.148" /><path
   inkscape:connector-curvature="0"
   id="path94"
   style="fill:none;stroke:#000000;stroke-width:0.25;stroke-linecap:butt;stroke-linejoin:miter;stroke-miterlimit:3.79999995;stroke-dasharray:none;stroke-opacity:1"
   d="m 133.199,175.699 0,-3.148" /><text
   transform="scale(1,-1)"
   style="font-variant:normal;font-weight:normal;font-size:12px;line-height:0%;font-family:'Times New Roman';-inkscape-font-specification:TimesNewRomanPSMT;writing-mode:lr-tb;fill:#000000;fill-opacity:1;fill-rule:nonzero;stroke:none"
   id="text98"
   x="131.67599"
   y="-26.783199"><tspan
     x="131.67599"
     y="-26.783199"
     id="tspan100">2</tspan></text>

<path
   inkscape:connector-curvature="0"
   id="path102"
   style="fill:none;stroke:#000000;stroke-width:0.25;stroke-linecap:butt;stroke-linejoin:miter;stroke-miterlimit:3.79999995;stroke-dasharray:none;stroke-opacity:1"
   d="m 163.199,39.25 0,3.148" /><path
   inkscape:connector-curvature="0"
   id="path104"
   style="fill:none;stroke:#000000;stroke-width:0.25;stroke-linecap:butt;stroke-linejoin:miter;stroke-miterlimit:3.79999995;stroke-dasharray:none;stroke-opacity:1"
   d="m 163.199,175.699 0,-3.148" /><text
   transform="scale(1,-1)"
   style="font-variant:normal;font-weight:normal;font-size:12px;line-height:0%;font-family:'Times New Roman';-inkscape-font-specification:TimesNewRomanPSMT;writing-mode:lr-tb;fill:#000000;fill-opacity:1;fill-rule:nonzero;stroke:none"
   id="text108"
   x="161.67599"
   y="-26.783199"><tspan
     x="161.67599"
     y="-26.783199"
     id="tspan110">4</tspan></text>

<path
   inkscape:connector-curvature="0"
   id="path112"
   style="fill:none;stroke:#000000;stroke-width:0.25;stroke-linecap:butt;stroke-linejoin:miter;stroke-miterlimit:3.79999995;stroke-dasharray:none;stroke-opacity:1"
   d="m 193.199,39.25 0,3.148" /><path
   inkscape:connector-curvature="0"
   id="path114"
   style="fill:none;stroke:#000000;stroke-width:0.25;stroke-linecap:butt;stroke-linejoin:miter;stroke-miterlimit:3.79999995;stroke-dasharray:none;stroke-opacity:1"
   d="m 193.199,175.699 0,-3.148" /><text
   transform="scale(1,-1)"
   style="font-variant:normal;font-weight:normal;font-size:12px;line-height:0%;font-family:'Times New Roman';-inkscape-font-specification:TimesNewRomanPSMT;writing-mode:lr-tb;fill:#000000;fill-opacity:1;fill-rule:nonzero;stroke:none"
   id="text118"
   x="191.67599"
   y="-26.783199"><tspan
     x="191.67599"
     y="-26.783199"
     id="tspan120">6</tspan></text>

<path
   inkscape:connector-curvature="0"
   id="path122"
   style="fill:none;stroke:#000000;stroke-width:0.25;stroke-linecap:butt;stroke-linejoin:miter;stroke-miterlimit:3.79999995;stroke-dasharray:none;stroke-opacity:1"
   d="m 223.148,39.25 0,3.148" /><path
   inkscape:connector-curvature="0"
   id="path124"
   style="fill:none;stroke:#000000;stroke-width:0.25;stroke-linecap:butt;stroke-linejoin:miter;stroke-miterlimit:3.79999995;stroke-dasharray:none;stroke-opacity:1"
   d="m 223.148,175.699 0,-3.148" /><text
   transform="scale(1,-1)"
   style="font-variant:normal;font-weight:normal;font-size:12px;line-height:0%;font-family:'Times New Roman';-inkscape-font-specification:TimesNewRomanPSMT;writing-mode:lr-tb;fill:#000000;fill-opacity:1;fill-rule:nonzero;stroke:none"
   id="text128"
   x="221.625"
   y="-26.783199"><tspan
     x="221.625"
     y="-26.783199"
     id="tspan130">8</tspan></text>

<path
   inkscape:connector-curvature="0"
   id="path132"
   style="fill:none;stroke:#000000;stroke-width:0.25;stroke-linecap:butt;stroke-linejoin:miter;stroke-miterlimit:3.79999995;stroke-dasharray:none;stroke-opacity:1"
   d="m 253.148,39.25 0,3.148" /><path
   inkscape:connector-curvature="0"
   id="path134"
   style="fill:none;stroke:#000000;stroke-width:0.25;stroke-linecap:butt;stroke-linejoin:miter;stroke-miterlimit:3.79999995;stroke-dasharray:none;stroke-opacity:1"
   d="m 253.148,175.699 0,-3.148" /><text
   transform="scale(1,-1)"
   style="font-variant:normal;font-weight:normal;line-height:0%;font-family:'Times New Roman';-inkscape-font-specification:TimesNewRomanPSMT;writing-mode:lr-tb;fill:#000000;fill-opacity:1;fill-rule:nonzero;stroke:none"
   id="text138"
   x="248.625"
   y="-26.783199"><tspan
     x="248.625 254.625"
     y="-26.783199"
     sodipodi:role="line"
     id="tspan140"
     style="font-size:12px;line-height:1.25">10</tspan></text>

<path
   inkscape:connector-curvature="0"
   id="path142"
   style="fill:none;stroke:#000000;stroke-width:0.25;stroke-linecap:butt;stroke-linejoin:miter;stroke-miterlimit:3.79999995;stroke-dasharray:none;stroke-opacity:1"
   d="m 283.148,39.25 0,3.148" /><path
   inkscape:connector-curvature="0"
   id="path144"
   style="fill:none;stroke:#000000;stroke-width:0.25;stroke-linecap:butt;stroke-linejoin:miter;stroke-miterlimit:3.79999995;stroke-dasharray:none;stroke-opacity:1"
   d="m 283.148,175.699 0,-3.148" /><text
   transform="scale(1,-1)"
   style="font-variant:normal;font-weight:normal;line-height:0%;font-family:'Times New Roman';-inkscape-font-specification:TimesNewRomanPSMT;writing-mode:lr-tb;fill:#000000;fill-opacity:1;fill-rule:nonzero;stroke:none"
   id="text148"
   x="278.625"
   y="-26.783199"><tspan
     x="278.625 284.625"
     y="-26.783199"
     sodipodi:role="line"
     id="tspan150"
     style="font-size:12px;line-height:1.25">12</tspan></text>

<path
   inkscape:connector-curvature="0"
   id="path152"
   style="fill:none;stroke:#000000;stroke-width:0.25;stroke-linecap:butt;stroke-linejoin:miter;stroke-miterlimit:3.79999995;stroke-dasharray:none;stroke-opacity:1"
   d="m 103.199,39.25 194.949,0 0,136.449 -194.949,0 0,-136.449 z" /><path
   inkscape:connector-curvature="0"
   id="path162"
   style="fill:none;stroke:#000000;stroke-width:1;stroke-linecap:butt;stroke-linejoin:miter;stroke-miterlimit:3.79999995;stroke-dasharray:none;stroke-opacity:1"
   d="m 103.199,78.352 1.5,0 1.5,-1.25 1.5,-2.4032 1.5,-3.25 1.5,-3.8008 3,-8.398 1.5,-3.9488 1.5,-3.1992 1.5,-1.954 1.5,-0.3468 1.5,0.8008 1.5,1.4492 1.5,1.3468 1.5,1.0508 1.5,0.8012 1.5,0.1988 1.5,-0.0508 1.5,-0.0968 1.5,-0.4032 1.5,-0.148 1.5,0.352 1.5,0.398 1.5,0.602 1.5,1.046 1.5,1.204 1.5,0.8468 1.5,1.0512 1.5,1.1988 1.5,0.9032 1.5,0.6992 1.5,0.9488 1.5,1.102 1.5,0.796 1.5,0.852 1.5,1.102 1.5,1.398 1.5,1.102 1.5,1.25 1.5,1.4492 1.5,1.6476 3,3 1.5,1.6024 1.5,1.6476 1.5,1.6024 1.5,1.5508 1.5,1.5 1.5,1.546 1.5,1.5 1.5,1.454 1.5,1.4492 1.5,1.3976 1.5,1.4032 1.5,1.4492 1.5,1.3976 1.5,1.4492 1.5,1.454 3,3 1.5,1.597 1.5,1.551 1.5,1.602 1.5,1.648 1.5,1.699 1.449,1.653 1.5,1.648 1.5,1.602 1.5,1.597 1.5,1.5 1.5,1.449 1.5,1.352 1.5,1.301 1.5,1.097 1.5,1.051 1.5,0.949 1.5,0.852 1.5,0.75 1.5,0.699 1.5,0.653 1.5,0.597 1.5,0.653 3,1.398 3,1.5 1.5,0.852 1.5,0.898 1.5,0.949 1.5,0.903 1.5,0.847 1.5,0.75 1.5,0.653 1.5,0.597 1.5,0.551 1.5,0.352 1.5,0.25 3,0.296 1.5,0.153 1.5,0.148 1.5,0.25 1.5,0.301 1.5,0.352 1.5,0.449 1.5,0.597 1.5,0.653 1.5,0.648 1.5,0.602 1.5,0.5 1.5,0.449 1.5,0.352 1.5,0.25 1.5,0.046 1.5,0 1.5,-0.046 1.5,-0.102 1.5,-0.051 1.5,0 1.5,0.102 1.5,0.199 1.5,0.352 3,0.898 1.5,0.551 1.5,0.5 1.5,0.398 1.5,0.301 1.5,0.148 1.5,0.051" /><path
   inkscape:connector-curvature="0"
   id="path172"
   style="fill:none;stroke:#ff0000;stroke-width:1;stroke-linecap:butt;stroke-linejoin:miter;stroke-miterlimit:3.79999995;stroke-dasharray:5.5, 2.2;stroke-dashoffset:0;stroke-opacity:1"
   d="m 103.199,51.9488 1.5,0 1.5,0.1024 1.5,0.0968 1.5,0.204 1.5,0.25 1.5,0.296 1.5,0.352 1.5,0.398 1.5,0.454 1.5,0.546 1.5,0.5508 1.5,0.6532 1.5,0.6992 1.5,0.8008 1.5,0.796 1.5,0.9032 1.5,0.8976 1.5,1 1.5,1.0512 1.5,1.102 1.5,1.148 1.5,1.1988 1.5,1.25 1.5,1.3012 1.5,1.352 1.5,1.398 1.5,1.4488 1.5,1.5512 1.5,1.602 1.5,1.648 1.5,1.75 1.5,1.8012 1.5,1.8468 1.5,1.954 1.5,2 1.5,2.046 1.5,2.102 1.5,2.1988 1.5,2.1532 1.5,2.25 1.5,2.1992 1.5,2.2498 4.5,6.597 1.5,2.102 3,4.102 1.5,1.949 1.5,1.898 1.5,1.801 1.5,1.75 1.5,1.699 1.5,1.653 3,3 1.5,1.398 1.5,1.352 1.5,1.296 1.5,1.204 1.5,1.148 1.5,1.102 1.5,1.046 1.5,1 1.5,0.954 1.449,0.898 3,1.602 1.5,0.796 1.5,0.704 1.5,0.699 1.5,0.648 1.5,0.602 1.5,0.597 3,1.102 3,1 3,0.898 1.5,0.403 1.5,0.398 1.5,0.403 1.5,0.347 1.5,0.352 1.5,0.347 1.5,0.352 3,0.602 1.5,0.296 1.5,0.25 1.5,0.301 4.5,0.75 1.5,0.199 1.5,0.25 1.5,0.204 6,0.796 1.5,0.204 1.5,0.148 1.5,0.199 1.5,0.153 3,0.296 1.5,0.153 1.5,0.148 1.5,0.153 3,0.296 1.5,0.102 1.5,0.148 1.5,0.102 1.5,0.148 3,0.204 1.5,0.097 1.5,0.153 1.5,0.097 1.5,0.102 1.5,0.097 1.5,0.102 1.5,0.051 1.5,0.097 3,0.204 1.5,0.097" /><path
   inkscape:connector-curvature="0"
   id="path182"
   style="fill:none;stroke:#008800;stroke-width:1;stroke-linecap:butt;stroke-linejoin:miter;stroke-miterlimit:3.79999995;stroke-dasharray:1.375, 1.375;stroke-dashoffset:0;stroke-opacity:1"
   d="m 103.199,163.301 194.949,0" /><path
   inkscape:connector-curvature="0"
   id="path184"
   style="fill:none;stroke:#000000;stroke-width:0.25;stroke-linecap:butt;stroke-linejoin:miter;stroke-miterlimit:3.79999995;stroke-dasharray:none;stroke-opacity:1"
   d="m 103.199,39.25 194.949,0 0,136.449 -194.949,0 0,-136.449 z" /><path
   inkscape:connector-curvature="0"
   id="path170-3"
   style="fill:none;stroke:#000000;stroke-width:0.94134086;stroke-linecap:butt;stroke-linejoin:miter;stroke-miterlimit:3.79999995;stroke-dasharray:none;stroke-opacity:1"
   d="m 194.19239,82.016251 23.11086,0" /><text
   xml:space="preserve"
   style="font-style:normal;font-variant:normal;font-weight:normal;font-stretch:normal;line-height:0%;font-family:'Times New Roman';-inkscape-font-specification:'Times New Roman, Normal';text-align:start;letter-spacing:0px;word-spacing:0px;writing-mode:lr-tb;text-anchor:start;fill:#000000;fill-opacity:1;stroke:none;stroke-width:0.24611318px;stroke-linecap:butt;stroke-linejoin:miter;stroke-opacity:1"
   x="221.58353"
   y="-79.799034"
   id="text1029"
   transform="scale(1,-1)"><tspan
     sodipodi:role="line"
     id="tspan1027"
     x="221.58353"
     y="-79.799034"
     style="font-size:9.26705647px;line-height:1.25;stroke-width:0.24611318px">All distortion</tspan></text>

<g
   id="g4789"
   transform="translate(-3.7435065,-10.741776)"><path
   d="m 197.9359,82.812874 23.11086,0"
   style="fill:none;stroke:#ff0000;stroke-width:0.94160002;stroke-linecap:butt;stroke-linejoin:miter;stroke-miterlimit:3.79999995;stroke-dasharray:5.17880009, 2.07152004;stroke-dashoffset:0;stroke-opacity:1"
   id="path180-3"
   inkscape:connector-curvature="0" /><text
   transform="scale(1,-1)"
   id="text1033"
   y="-80.595657"
   x="225.24557"
   style="font-style:normal;font-variant:normal;font-weight:normal;font-stretch:normal;line-height:0%;font-family:'Times New Roman';-inkscape-font-specification:'Times New Roman, Normal';text-align:start;letter-spacing:0px;word-spacing:0px;writing-mode:lr-tb;text-anchor:start;fill:#000000;fill-opacity:1;stroke:none;stroke-width:0.24611318px;stroke-linecap:butt;stroke-linejoin:miter;stroke-opacity:1"
   xml:space="preserve"><tspan
     style="font-size:9.26705647px;line-height:1.25;stroke-width:0.24611318px"
     y="-80.595657"
     x="225.24557"
     id="tspan1031"
     sodipodi:role="line">Imaginary only</tspan></text>

</g><g
   id="g4794"
   transform="translate(-3.5652443,-10.339208)"><path
   d="m 197.86021,71.074109 23.26224,0"
   style="fill:none;stroke:#008800;stroke-width:1.42159998;stroke-linecap:butt;stroke-linejoin:miter;stroke-miterlimit:3.79999995;stroke-dasharray:1.95470001, 1.95470001;stroke-dashoffset:0;stroke-opacity:1"
   id="path180"
   inkscape:connector-curvature="0" /><text
   transform="scale(1,-1)"
   id="text1033-6"
   y="-68.374619"
   x="225.32249"
   style="font-style:normal;font-variant:normal;font-weight:normal;font-stretch:normal;line-height:0%;font-family:'Times New Roman';-inkscape-font-specification:'Times New Roman, Normal';text-align:start;letter-spacing:0px;word-spacing:0px;writing-mode:lr-tb;text-anchor:start;fill:#000000;fill-opacity:1;stroke:none;stroke-width:0.24611318px;stroke-linecap:butt;stroke-linejoin:miter;stroke-opacity:1"
   xml:space="preserve"><tspan
     style="font-size:9.26705647px;line-height:1.25;stroke-width:0.24611318px"
     y="-68.374619"
     x="225.32249"
     id="tspan1031-7"
     sodipodi:role="line">Plane wave limit</tspan></text>

</g><g
   ns0:text="$|D_{00}(R)|$\n"
   ns0:preamble="/home/yoshidak/.config/inkscape/preamble.txt"
   transform="matrix(0,1.5611426,1.5611426,0,-135.92285,-270.03937)"
   id="g13675"><defs
     id="defs13677"><g
       id="g13679"><symbol
         overflow="visible"
         id="textext-ee08f790-0"><path
           style="stroke:none;"
           d=""
           id="path13682" /></symbol><symbol
         overflow="visible"
         id="textext-ee08f790-1"><path
           style="stroke:none;"
           d="M 1.28125 1.625 L 1.28125 -6.75 L 0.71875 -6.75 L 0.71875 1.625 Z M 1.28125 1.625 "
           id="path13685" /></symbol><symbol
         overflow="visible"
         id="textext-ee08f790-2"><path
           style="stroke:none;"
           d=""
           id="path13688" /></symbol><symbol
         overflow="visible"
         id="textext-ee08f790-3"><path
           style="stroke:none;"
           d="M 1.296875 -6.34375 C 1.90625 -6.296875 2.0625 -6.203125 2.0625 -5.9375 C 2.0625 -5.796875 2.03125 -5.546875 1.953125 -5.296875 L 0.734375 -0.890625 C 0.546875 -0.3125 0.484375 -0.265625 -0.078125 -0.15625 L -0.078125 0 L 2.4375 0 C 3.609375 0 4.671875 -0.3125 5.4375 -0.875 C 6.40625 -1.578125 6.984375 -2.671875 6.984375 -3.828125 C 6.984375 -5.46875 5.84375 -6.515625 4.0625 -6.515625 L 1.296875 -6.515625 Z M 3.125 -5.921875 C 3.1875 -6.140625 3.328125 -6.203125 3.734375 -6.203125 C 4.296875 -6.203125 4.796875 -6.078125 5.109375 -5.84375 C 5.609375 -5.484375 5.875 -4.859375 5.875 -4.0625 C 5.875 -2.984375 5.453125 -1.875 4.78125 -1.203125 C 4.1875 -0.59375 3.375 -0.296875 2.34375 -0.296875 C 1.890625 -0.296875 1.6875 -0.40625 1.6875 -0.671875 C 1.6875 -0.796875 1.75 -1.015625 1.90625 -1.609375 Z M 3.125 -5.921875 "
           id="path13691" /></symbol><symbol
         overflow="visible"
         id="textext-ee08f790-4"><path
           style="stroke:none;"
           d="M 5.65625 -0.15625 C 5.21875 -0.1875 5.015625 -0.359375 4.828125 -0.875 L 3.890625 -3.3125 C 4.671875 -3.484375 5 -3.625 5.359375 -3.953125 C 5.6875 -4.234375 5.859375 -4.625 5.859375 -5.078125 C 5.859375 -6 5.125 -6.515625 3.78125 -6.515625 L 1.3125 -6.515625 L 1.3125 -6.34375 C 1.734375 -6.296875 1.78125 -6.28125 1.890625 -6.203125 C 1.96875 -6.15625 2.03125 -6.046875 2.03125 -5.9375 C 2.03125 -5.8125 1.96875 -5.578125 1.90625 -5.296875 L 0.671875 -0.890625 C 0.5 -0.3125 0.421875 -0.25 -0.125 -0.15625 L -0.125 0 L 2.296875 0 L 2.296875 -0.15625 C 1.6875 -0.234375 1.625 -0.296875 1.625 -0.625 C 1.625 -0.71875 1.65625 -0.84375 1.75 -1.203125 L 2.296875 -3.28125 L 2.953125 -3.234375 L 4.171875 0 L 5.65625 0 Z M 3.078125 -5.9375 C 3.125 -6.140625 3.265625 -6.203125 3.578125 -6.203125 C 4.40625 -6.203125 4.8125 -5.828125 4.8125 -5.09375 C 4.8125 -4.109375 4.171875 -3.59375 2.9375 -3.59375 C 2.765625 -3.59375 2.65625 -3.609375 2.421875 -3.65625 Z M 3.078125 -5.9375 "
           id="path13694" /></symbol><symbol
         overflow="visible"
         id="textext-ee08f790-5"><path
           style="stroke:none;"
           d=""
           id="path13697" /></symbol><symbol
         overflow="visible"
         id="textext-ee08f790-6"><path
           style="stroke:none;"
           d="M 3.59375 -2.21875 C 3.59375 -2.984375 3.5 -3.546875 3.1875 -4.03125 C 2.96875 -4.34375 2.53125 -4.625 1.984375 -4.625 C 0.359375 -4.625 0.359375 -2.71875 0.359375 -2.21875 C 0.359375 -1.71875 0.359375 0.140625 1.984375 0.140625 C 3.59375 0.140625 3.59375 -1.71875 3.59375 -2.21875 Z M 1.984375 -0.0625 C 1.65625 -0.0625 1.234375 -0.25 1.09375 -0.8125 C 1 -1.21875 1 -1.796875 1 -2.3125 C 1 -2.828125 1 -3.359375 1.09375 -3.734375 C 1.25 -4.28125 1.6875 -4.4375 1.984375 -4.4375 C 2.359375 -4.4375 2.71875 -4.203125 2.84375 -3.796875 C 2.953125 -3.421875 2.96875 -2.921875 2.96875 -2.3125 C 2.96875 -1.796875 2.96875 -1.28125 2.875 -0.84375 C 2.734375 -0.203125 2.265625 -0.0625 1.984375 -0.0625 Z M 1.984375 -0.0625 "
           id="path13700" /></symbol><symbol
         overflow="visible"
         id="textext-ee08f790-7"><path
           style="stroke:none;"
           d=""
           id="path13703" /></symbol><symbol
         overflow="visible"
         id="textext-ee08f790-8"><path
           style="stroke:none;"
           d="M 2.9375 -6.734375 C 2.203125 -6.265625 1.90625 -6 1.53125 -5.546875 C 0.828125 -4.671875 0.484375 -3.671875 0.484375 -2.515625 C 0.484375 -1.25 0.84375 -0.265625 1.71875 0.75 C 2.140625 1.21875 2.390625 1.453125 2.90625 1.765625 L 3.03125 1.609375 C 2.234375 0.984375 1.953125 0.625 1.6875 -0.125 C 1.453125 -0.78125 1.328125 -1.546875 1.328125 -2.546875 C 1.328125 -3.59375 1.46875 -4.40625 1.734375 -5.03125 C 2.015625 -5.640625 2.3125 -6 3.03125 -6.578125 Z M 2.9375 -6.734375 "
           id="path13706" /></symbol><symbol
         overflow="visible"
         id="textext-ee08f790-9"><path
           style="stroke:none;"
           d="M 0.375 1.765625 C 1.109375 1.28125 1.421875 1.03125 1.78125 0.5625 C 2.5 -0.296875 2.84375 -1.296875 2.84375 -2.46875 C 2.84375 -3.734375 2.46875 -4.703125 1.59375 -5.71875 C 1.1875 -6.203125 0.921875 -6.421875 0.40625 -6.734375 L 0.296875 -6.578125 C 1.09375 -5.953125 1.359375 -5.609375 1.640625 -4.859375 C 1.875 -4.1875 1.984375 -3.421875 1.984375 -2.4375 C 1.984375 -1.390625 1.859375 -0.5625 1.578125 0.046875 C 1.3125 0.671875 1 1.03125 0.296875 1.609375 Z M 0.375 1.765625 "
           id="path13709" /></symbol></g></defs><g
     id="textext-ee08f790-10"><g
       style="fill:rgb(0%,0%,0%);fill-opacity:1;"
       id="g13712"><use
         xlink:href="#textext-ee08f790-1"
         x="223.831"
         y="134.765"
         id="use13714" /></g><g
       style="fill:rgb(0%,0%,0%);fill-opacity:1;"
       id="g13716"><use
         xlink:href="#textext-ee08f790-3"
         x="226.69"
         y="134.765"
         id="use13718" /></g><g
       style="fill:rgb(0%,0%,0%);fill-opacity:1;"
       id="g13720"><use
         xlink:href="#textext-ee08f790-6"
         x="233.903"
         y="136.259"
         id="use13722" /><use
         xlink:href="#textext-ee08f790-6"
         x="237.874579"
         y="136.259"
         id="use13724" /></g><g
       style="fill:rgb(0%,0%,0%);fill-opacity:1;"
       id="g13726"><use
         xlink:href="#textext-ee08f790-8"
         x="242.742"
         y="134.765"
         id="use13728" /></g><g
       style="fill:rgb(0%,0%,0%);fill-opacity:1;"
       id="g13730"><use
         xlink:href="#textext-ee08f790-4"
         x="246.787"
         y="134.765"
         id="use13732" /></g><g
       style="fill:rgb(0%,0%,0%);fill-opacity:1;"
       id="g13734"><use
         xlink:href="#textext-ee08f790-9"
         x="253.173"
         y="134.765"
         id="use13736" /></g><g
       style="fill:rgb(0%,0%,0%);fill-opacity:1;"
       id="g13738"><use
         xlink:href="#textext-ee08f790-1"
         x="257.287"
         y="134.765"
         id="use13740" /></g></g></g><g
   id="g13993"
   transform="matrix(1.5090381,0,0,-1.5090381,-156.97245,213.18414)"
   ns0:preamble="/home/yoshidak/.config/inkscape/preamble.txt"
   ns0:text="$R\\,\\mathrm{(fm)}$\n"><defs
     id="defs13995"><g
       id="g13997"><symbol
         id="textext-688a6216-0"
         overflow="visible"><path
           id="path14000"
           d=""
           style="stroke:none;" /></symbol><symbol
         id="textext-688a6216-1"
         overflow="visible"><path
           id="path14003"
           d="M 5.65625 -0.15625 C 5.21875 -0.1875 5.015625 -0.359375 4.828125 -0.875 L 3.890625 -3.3125 C 4.671875 -3.484375 5 -3.625 5.359375 -3.953125 C 5.6875 -4.234375 5.859375 -4.625 5.859375 -5.078125 C 5.859375 -6 5.125 -6.515625 3.78125 -6.515625 L 1.3125 -6.515625 L 1.3125 -6.34375 C 1.734375 -6.296875 1.78125 -6.28125 1.890625 -6.203125 C 1.96875 -6.15625 2.03125 -6.046875 2.03125 -5.9375 C 2.03125 -5.8125 1.96875 -5.578125 1.90625 -5.296875 L 0.671875 -0.890625 C 0.5 -0.3125 0.421875 -0.25 -0.125 -0.15625 L -0.125 0 L 2.296875 0 L 2.296875 -0.15625 C 1.6875 -0.234375 1.625 -0.296875 1.625 -0.625 C 1.625 -0.71875 1.65625 -0.84375 1.75 -1.203125 L 2.296875 -3.28125 L 2.953125 -3.234375 L 4.171875 0 L 5.65625 0 Z M 3.078125 -5.9375 C 3.125 -6.140625 3.265625 -6.203125 3.578125 -6.203125 C 4.40625 -6.203125 4.8125 -5.828125 4.8125 -5.09375 C 4.8125 -4.109375 4.171875 -3.59375 2.9375 -3.59375 C 2.765625 -3.59375 2.65625 -3.609375 2.421875 -3.65625 Z M 3.078125 -5.9375 "
           style="stroke:none;" /></symbol><symbol
         id="textext-688a6216-2"
         overflow="visible"><path
           id="path14006"
           d=""
           style="stroke:none;" /></symbol><symbol
         id="textext-688a6216-3"
         overflow="visible"><path
           id="path14009"
           d="M 2.9375 -6.734375 C 2.203125 -6.265625 1.90625 -6 1.53125 -5.546875 C 0.828125 -4.671875 0.484375 -3.671875 0.484375 -2.515625 C 0.484375 -1.25 0.84375 -0.265625 1.71875 0.75 C 2.140625 1.21875 2.390625 1.453125 2.90625 1.765625 L 3.03125 1.609375 C 2.234375 0.984375 1.953125 0.625 1.6875 -0.125 C 1.453125 -0.78125 1.328125 -1.546875 1.328125 -2.546875 C 1.328125 -3.59375 1.46875 -4.40625 1.734375 -5.03125 C 2.015625 -5.640625 2.3125 -6 3.03125 -6.578125 Z M 2.9375 -6.734375 "
           style="stroke:none;" /></symbol><symbol
         id="textext-688a6216-4"
         overflow="visible"><path
           id="path14012"
           d="M 0.375 1.765625 C 1.109375 1.28125 1.421875 1.03125 1.78125 0.5625 C 2.5 -0.296875 2.84375 -1.296875 2.84375 -2.46875 C 2.84375 -3.734375 2.46875 -4.703125 1.59375 -5.71875 C 1.1875 -6.203125 0.921875 -6.421875 0.40625 -6.734375 L 0.296875 -6.578125 C 1.09375 -5.953125 1.359375 -5.609375 1.640625 -4.859375 C 1.875 -4.1875 1.984375 -3.421875 1.984375 -2.4375 C 1.984375 -1.390625 1.859375 -0.5625 1.578125 0.046875 C 1.3125 0.671875 1 1.03125 0.296875 1.609375 Z M 0.375 1.765625 "
           style="stroke:none;" /></symbol><symbol
         id="textext-688a6216-5"
         overflow="visible"><path
           id="path14015"
           d=""
           style="stroke:none;" /></symbol><symbol
         id="textext-688a6216-6"
         overflow="visible"><path
           id="path14018"
           d="M 1.75 -4.296875 L 1.75 -5.453125 C 1.75 -6.328125 2.21875 -6.8125 2.65625 -6.8125 C 2.6875 -6.8125 2.84375 -6.8125 2.984375 -6.734375 C 2.875 -6.703125 2.6875 -6.5625 2.6875 -6.3125 C 2.6875 -6.09375 2.84375 -5.890625 3.125 -5.890625 C 3.40625 -5.890625 3.5625 -6.09375 3.5625 -6.328125 C 3.5625 -6.703125 3.1875 -7.03125 2.65625 -7.03125 C 1.96875 -7.03125 1.109375 -6.5 1.109375 -5.4375 L 1.109375 -4.296875 L 0.328125 -4.296875 L 0.328125 -3.984375 L 1.109375 -3.984375 L 1.109375 -0.75 C 1.109375 -0.3125 1 -0.3125 0.34375 -0.3125 L 0.34375 0 C 0.734375 -0.015625 1.203125 -0.03125 1.46875 -0.03125 C 1.875 -0.03125 2.34375 -0.03125 2.734375 0 L 2.734375 -0.3125 L 2.53125 -0.3125 C 1.796875 -0.3125 1.78125 -0.421875 1.78125 -0.78125 L 1.78125 -3.984375 L 2.90625 -3.984375 L 2.90625 -4.296875 Z M 1.75 -4.296875 "
           style="stroke:none;" /></symbol><symbol
         id="textext-688a6216-7"
         overflow="visible"><path
           id="path14021"
           d="M 1.09375 -3.421875 L 1.09375 -0.75 C 1.09375 -0.3125 0.984375 -0.3125 0.3125 -0.3125 L 0.3125 0 C 0.671875 -0.015625 1.171875 -0.03125 1.453125 -0.03125 C 1.703125 -0.03125 2.21875 -0.015625 2.5625 0 L 2.5625 -0.3125 C 1.890625 -0.3125 1.78125 -0.3125 1.78125 -0.75 L 1.78125 -2.59375 C 1.78125 -3.625 2.5 -4.1875 3.125 -4.1875 C 3.765625 -4.1875 3.875 -3.65625 3.875 -3.078125 L 3.875 -0.75 C 3.875 -0.3125 3.765625 -0.3125 3.09375 -0.3125 L 3.09375 0 C 3.4375 -0.015625 3.953125 -0.03125 4.21875 -0.03125 C 4.46875 -0.03125 5 -0.015625 5.328125 0 L 5.328125 -0.3125 C 4.671875 -0.3125 4.5625 -0.3125 4.5625 -0.75 L 4.5625 -2.59375 C 4.5625 -3.625 5.265625 -4.1875 5.90625 -4.1875 C 6.53125 -4.1875 6.640625 -3.65625 6.640625 -3.078125 L 6.640625 -0.75 C 6.640625 -0.3125 6.53125 -0.3125 5.859375 -0.3125 L 5.859375 0 C 6.203125 -0.015625 6.71875 -0.03125 6.984375 -0.03125 C 7.25 -0.03125 7.765625 -0.015625 8.109375 0 L 8.109375 -0.3125 C 7.59375 -0.3125 7.34375 -0.3125 7.328125 -0.609375 L 7.328125 -2.515625 C 7.328125 -3.375 7.328125 -3.671875 7.015625 -4.03125 C 6.875 -4.203125 6.546875 -4.40625 5.96875 -4.40625 C 5.140625 -4.40625 4.6875 -3.8125 4.53125 -3.421875 C 4.390625 -4.296875 3.65625 -4.40625 3.203125 -4.40625 C 2.46875 -4.40625 2 -3.984375 1.71875 -3.359375 L 1.71875 -4.40625 L 0.3125 -4.296875 L 0.3125 -3.984375 C 1.015625 -3.984375 1.09375 -3.921875 1.09375 -3.421875 Z M 1.09375 -3.421875 "
           style="stroke:none;" /></symbol></g></defs><g
     id="textext-688a6216-8"><g
       id="g14024"
       style="fill:rgb(0%,0%,0%);fill-opacity:1;"><use
         id="use14026"
         y="134.765"
         x="223.96"
         xlink:href="#textext-688a6216-1" /></g><g
       id="g14028"
       style="fill:rgb(0%,0%,0%);fill-opacity:1;"><use
         id="use14030"
         y="134.765"
         x="232.206"
         xlink:href="#textext-688a6216-3" /></g><g
       id="g14032"
       style="fill:rgb(0%,0%,0%);fill-opacity:1;"><use
         id="use14034"
         y="134.765"
         x="235.723"
         xlink:href="#textext-688a6216-6" /><use
         id="use14036"
         y="134.765"
         x="238.767571"
         xlink:href="#textext-688a6216-7" /></g><g
       id="g14038"
       style="fill:rgb(0%,0%,0%);fill-opacity:1;"><use
         id="use14040"
         y="134.765"
         x="247.268"
         xlink:href="#textext-688a6216-4" /></g></g></g></g></svg>