<?xml version="1.0" encoding="UTF-8" standalone="no"?>
<!-- Created with Inkscape (http://www.inkscape.org/) -->

<svg
   xmlns:dc="http://purl.org/dc/elements/1.1/"
   xmlns:cc="http://creativecommons.org/ns#"
   xmlns:rdf="http://www.w3.org/1999/02/22-rdf-syntax-ns#"
   xmlns:svg="http://www.w3.org/2000/svg"
   xmlns="http://www.w3.org/2000/svg"
   xmlns:sodipodi="http://sodipodi.sourceforge.net/DTD/sodipodi-0.dtd"
   xmlns:inkscape="http://www.inkscape.org/namespaces/inkscape"
   version="1.1"
   id="svg2"
   xml:space="preserve"
   width="291.49973"
   height="205.78094"
   viewBox="0 0 291.49973 205.78094"
   sodipodi:docname="msk_20Ne_100mev.svg"
   inkscape:version="0.92.3 (2405546, 2018-03-11)"
   inkscape:export-filename="/home/yoshidak/Dropbox/sync/documents/presentations/yoshidak/FY2019/kyoto_seminar/fig/msk_20Ne_100mev.eps.png"
   inkscape:export-xdpi="270"
   inkscape:export-ydpi="270"><metadata
     id="metadata8"><rdf:RDF><cc:Work
         rdf:about=""><dc:format>image/svg+xml</dc:format><dc:type
           rdf:resource="http://purl.org/dc/dcmitype/StillImage" /><dc:title></dc:title></cc:Work></rdf:RDF></metadata><defs
     id="defs6"><clipPath
       clipPathUnits="userSpaceOnUse"
       id="clipPath20"><path
         d="M 870,410 H 2940 V 1820 H 870 Z"
         id="path18"
         inkscape:connector-curvature="0" /></clipPath></defs><sodipodi:namedview
     pagecolor="#ffffff"
     bordercolor="#666666"
     borderopacity="1"
     objecttolerance="10"
     gridtolerance="10"
     guidetolerance="10"
     inkscape:pageopacity="0"
     inkscape:pageshadow="2"
     inkscape:window-width="1920"
     inkscape:window-height="1051"
     id="namedview4"
     showgrid="false"
     inkscape:zoom="1.1588694"
     inkscape:cx="248.98703"
     inkscape:cy="17.355224"
     inkscape:window-x="0"
     inkscape:window-y="0"
     inkscape:window-maximized="1"
     inkscape:current-layer="g10"
     fit-margin-top="0"
     fit-margin-left="0"
     fit-margin-right="0"
     fit-margin-bottom="0" /><g
     id="g10"
     inkscape:groupmode="layer"
     inkscape:label="ink_ext_XXXXXX"
     transform="matrix(1.3333333,0,0,-1.3333333,-97.90284,241.23466)"><path
       inkscape:connector-curvature="0"
       id="path22"
       style="fill:none;stroke:#000000;stroke-width:0.25;stroke-linecap:butt;stroke-linejoin:miter;stroke-miterlimit:3.79999995;stroke-dasharray:none;stroke-opacity:1"
       d="m 110,57.25 h 4.602" /><path
       inkscape:connector-curvature="0"
       id="path24"
       style="fill:none;stroke:#000000;stroke-width:0.25;stroke-linecap:butt;stroke-linejoin:miter;stroke-miterlimit:3.79999995;stroke-dasharray:none;stroke-opacity:1"
       d="m 286.551,57.25 h -4.602" /><text
       transform="scale(1,-1)"
       style="font-variant:normal;font-weight:normal;font-size:12px;font-family:'Times New Roman';-inkscape-font-specification:TimesNewRomanPSMT;writing-mode:lr-tb;fill:#000000;fill-opacity:1;fill-rule:nonzero;stroke:none"
       id="text30"
       x="99.550003"
       y="-52.7066"><tspan
         x="99.550003"
         y="-52.7066"
         id="tspan28">0</tspan></text>
<path
       inkscape:connector-curvature="0"
       id="path32"
       style="fill:none;stroke:#000000;stroke-width:0.25;stroke-linecap:butt;stroke-linejoin:miter;stroke-miterlimit:3.79999995;stroke-dasharray:none;stroke-opacity:1"
       d="m 110,79.6988 h 4.602" /><path
       inkscape:connector-curvature="0"
       id="path34"
       style="fill:none;stroke:#000000;stroke-width:0.25;stroke-linecap:butt;stroke-linejoin:miter;stroke-miterlimit:3.79999995;stroke-dasharray:none;stroke-opacity:1"
       d="m 286.551,79.6988 h -4.602" /><text
       transform="scale(1,-1)"
       style="font-variant:normal;font-weight:normal;font-size:12px;font-family:'Times New Roman';-inkscape-font-specification:TimesNewRomanPSMT;writing-mode:lr-tb;fill:#000000;fill-opacity:1;fill-rule:nonzero;stroke:none"
       id="text40"
       x="90.550003"
       y="-75.156601"><tspan
         x="90.550003 96.550003 99.550003"
         y="-75.156601"
         sodipodi:role="line"
         id="tspan38">0.2</tspan></text>
<path
       inkscape:connector-curvature="0"
       id="path42"
       style="fill:none;stroke:#000000;stroke-width:0.25;stroke-linecap:butt;stroke-linejoin:miter;stroke-miterlimit:3.79999995;stroke-dasharray:none;stroke-opacity:1"
       d="m 110,102.199 h 4.602" /><path
       inkscape:connector-curvature="0"
       id="path44"
       style="fill:none;stroke:#000000;stroke-width:0.25;stroke-linecap:butt;stroke-linejoin:miter;stroke-miterlimit:3.79999995;stroke-dasharray:none;stroke-opacity:1"
       d="m 286.551,102.199 h -4.602" /><text
       transform="scale(1,-1)"
       style="font-variant:normal;font-weight:normal;font-size:12px;font-family:'Times New Roman';-inkscape-font-specification:TimesNewRomanPSMT;writing-mode:lr-tb;fill:#000000;fill-opacity:1;fill-rule:nonzero;stroke:none"
       id="text50"
       x="90.550003"
       y="-97.656601"><tspan
         x="90.550003 96.550003 99.550003"
         y="-97.656601"
         sodipodi:role="line"
         id="tspan48">0.4</tspan></text>
<path
       inkscape:connector-curvature="0"
       id="path52"
       style="fill:none;stroke:#000000;stroke-width:0.25;stroke-linecap:butt;stroke-linejoin:miter;stroke-miterlimit:3.79999995;stroke-dasharray:none;stroke-opacity:1"
       d="m 110,124.648 h 4.602" /><path
       inkscape:connector-curvature="0"
       id="path54"
       style="fill:none;stroke:#000000;stroke-width:0.25;stroke-linecap:butt;stroke-linejoin:miter;stroke-miterlimit:3.79999995;stroke-dasharray:none;stroke-opacity:1"
       d="m 286.551,124.648 h -4.602" /><text
       transform="scale(1,-1)"
       style="font-variant:normal;font-weight:normal;font-size:12px;font-family:'Times New Roman';-inkscape-font-specification:TimesNewRomanPSMT;writing-mode:lr-tb;fill:#000000;fill-opacity:1;fill-rule:nonzero;stroke:none"
       id="text60"
       x="90.550003"
       y="-120.107"><tspan
         x="90.550003 96.550003 99.550003"
         y="-120.107"
         sodipodi:role="line"
         id="tspan58">0.6</tspan></text>
<path
       inkscape:connector-curvature="0"
       id="path62"
       style="fill:none;stroke:#000000;stroke-width:0.25;stroke-linecap:butt;stroke-linejoin:miter;stroke-miterlimit:3.79999995;stroke-dasharray:none;stroke-opacity:1"
       d="m 110,147.102 h 4.602" /><path
       inkscape:connector-curvature="0"
       id="path64"
       style="fill:none;stroke:#000000;stroke-width:0.25;stroke-linecap:butt;stroke-linejoin:miter;stroke-miterlimit:3.79999995;stroke-dasharray:none;stroke-opacity:1"
       d="m 286.551,147.102 h -4.602" /><text
       transform="scale(1,-1)"
       style="font-variant:normal;font-weight:normal;font-size:12px;font-family:'Times New Roman';-inkscape-font-specification:TimesNewRomanPSMT;writing-mode:lr-tb;fill:#000000;fill-opacity:1;fill-rule:nonzero;stroke:none"
       id="text70"
       x="90.550003"
       y="-142.55701"><tspan
         x="90.550003 96.550003 99.550003"
         y="-142.55701"
         sodipodi:role="line"
         id="tspan68">0.8</tspan></text>
<path
       inkscape:connector-curvature="0"
       id="path72"
       style="fill:none;stroke:#000000;stroke-width:0.25;stroke-linecap:butt;stroke-linejoin:miter;stroke-miterlimit:3.79999995;stroke-dasharray:none;stroke-opacity:1"
       d="m 110,169.551 h 4.602" /><path
       inkscape:connector-curvature="0"
       id="path74"
       style="fill:none;stroke:#000000;stroke-width:0.25;stroke-linecap:butt;stroke-linejoin:miter;stroke-miterlimit:3.79999995;stroke-dasharray:none;stroke-opacity:1"
       d="m 286.551,169.551 h -4.602" /><text
       transform="scale(1,-1)"
       style="font-variant:normal;font-weight:normal;font-size:12px;font-family:'Times New Roman';-inkscape-font-specification:TimesNewRomanPSMT;writing-mode:lr-tb;fill:#000000;fill-opacity:1;fill-rule:nonzero;stroke:none"
       id="text80"
       x="99.550003"
       y="-165.007"><tspan
         x="99.550003"
         y="-165.007"
         id="tspan78">1</tspan></text>
<path
       inkscape:connector-curvature="0"
       id="path82"
       style="fill:none;stroke:#000000;stroke-width:0.25;stroke-linecap:butt;stroke-linejoin:miter;stroke-miterlimit:3.79999995;stroke-dasharray:none;stroke-opacity:1"
       d="m 110,57.25 v 4.602" /><path
       inkscape:connector-curvature="0"
       id="path84"
       style="fill:none;stroke:#000000;stroke-width:0.25;stroke-linecap:butt;stroke-linejoin:miter;stroke-miterlimit:3.79999995;stroke-dasharray:none;stroke-opacity:1"
       d="m 110,180.801 v -4.602" /><text
       transform="scale(1,-1)"
       style="font-variant:normal;font-weight:normal;font-size:12px;font-family:'Times New Roman';-inkscape-font-specification:TimesNewRomanPSMT;writing-mode:lr-tb;fill:#000000;fill-opacity:1;fill-rule:nonzero;stroke:none"
       id="text90"
       x="107"
       y="-44.156601"><tspan
         x="107"
         y="-44.156601"
         id="tspan88">0</tspan></text>
<path
       inkscape:connector-curvature="0"
       id="path92"
       style="fill:none;stroke:#000000;stroke-width:0.25;stroke-linecap:butt;stroke-linejoin:miter;stroke-miterlimit:3.79999995;stroke-dasharray:none;stroke-opacity:1"
       d="m 139.449,57.25 v 4.602" /><path
       inkscape:connector-curvature="0"
       id="path94"
       style="fill:none;stroke:#000000;stroke-width:0.25;stroke-linecap:butt;stroke-linejoin:miter;stroke-miterlimit:3.79999995;stroke-dasharray:none;stroke-opacity:1"
       d="m 139.449,180.801 v -4.602" /><text
       transform="scale(1,-1)"
       style="font-variant:normal;font-weight:normal;font-size:12px;font-family:'Times New Roman';-inkscape-font-specification:TimesNewRomanPSMT;writing-mode:lr-tb;fill:#000000;fill-opacity:1;fill-rule:nonzero;stroke:none"
       id="text100"
       x="136.45"
       y="-44.156601"><tspan
         x="136.45"
         y="-44.156601"
         id="tspan98">2</tspan></text>
<path
       inkscape:connector-curvature="0"
       id="path102"
       style="fill:none;stroke:#000000;stroke-width:0.25;stroke-linecap:butt;stroke-linejoin:miter;stroke-miterlimit:3.79999995;stroke-dasharray:none;stroke-opacity:1"
       d="m 168.852,57.25 v 4.602" /><path
       inkscape:connector-curvature="0"
       id="path104"
       style="fill:none;stroke:#000000;stroke-width:0.25;stroke-linecap:butt;stroke-linejoin:miter;stroke-miterlimit:3.79999995;stroke-dasharray:none;stroke-opacity:1"
       d="m 168.852,180.801 v -4.602" /><text
       transform="scale(1,-1)"
       style="font-variant:normal;font-weight:normal;font-size:12px;font-family:'Times New Roman';-inkscape-font-specification:TimesNewRomanPSMT;writing-mode:lr-tb;fill:#000000;fill-opacity:1;fill-rule:nonzero;stroke:none"
       id="text110"
       x="165.85001"
       y="-44.156601"><tspan
         x="165.85001"
         y="-44.156601"
         id="tspan108">4</tspan></text>
<path
       inkscape:connector-curvature="0"
       id="path112"
       style="fill:none;stroke:#000000;stroke-width:0.25;stroke-linecap:butt;stroke-linejoin:miter;stroke-miterlimit:3.79999995;stroke-dasharray:none;stroke-opacity:1"
       d="m 198.301,57.25 v 4.602" /><path
       inkscape:connector-curvature="0"
       id="path114"
       style="fill:none;stroke:#000000;stroke-width:0.25;stroke-linecap:butt;stroke-linejoin:miter;stroke-miterlimit:3.79999995;stroke-dasharray:none;stroke-opacity:1"
       d="m 198.301,180.801 v -4.602" /><text
       transform="scale(1,-1)"
       style="font-variant:normal;font-weight:normal;font-size:12px;font-family:'Times New Roman';-inkscape-font-specification:TimesNewRomanPSMT;writing-mode:lr-tb;fill:#000000;fill-opacity:1;fill-rule:nonzero;stroke:none"
       id="text120"
       x="195.3"
       y="-44.156601"><tspan
         x="195.3"
         y="-44.156601"
         id="tspan118">6</tspan></text>
<path
       inkscape:connector-curvature="0"
       id="path122"
       style="fill:none;stroke:#000000;stroke-width:0.25;stroke-linecap:butt;stroke-linejoin:miter;stroke-miterlimit:3.79999995;stroke-dasharray:none;stroke-opacity:1"
       d="m 227.699,57.25 v 4.602" /><path
       inkscape:connector-curvature="0"
       id="path124"
       style="fill:none;stroke:#000000;stroke-width:0.25;stroke-linecap:butt;stroke-linejoin:miter;stroke-miterlimit:3.79999995;stroke-dasharray:none;stroke-opacity:1"
       d="m 227.699,180.801 v -4.602" /><text
       transform="scale(1,-1)"
       style="font-variant:normal;font-weight:normal;font-size:12px;font-family:'Times New Roman';-inkscape-font-specification:TimesNewRomanPSMT;writing-mode:lr-tb;fill:#000000;fill-opacity:1;fill-rule:nonzero;stroke:none"
       id="text130"
       x="224.7"
       y="-44.156601"><tspan
         x="224.7"
         y="-44.156601"
         id="tspan128">8</tspan></text>
<path
       inkscape:connector-curvature="0"
       id="path132"
       style="fill:none;stroke:#000000;stroke-width:0.25;stroke-linecap:butt;stroke-linejoin:miter;stroke-miterlimit:3.79999995;stroke-dasharray:none;stroke-opacity:1"
       d="m 257.148,57.25 v 4.602" /><path
       inkscape:connector-curvature="0"
       id="path134"
       style="fill:none;stroke:#000000;stroke-width:0.25;stroke-linecap:butt;stroke-linejoin:miter;stroke-miterlimit:3.79999995;stroke-dasharray:none;stroke-opacity:1"
       d="m 257.148,180.801 v -4.602" /><text
       transform="scale(1,-1)"
       style="font-variant:normal;font-weight:normal;font-size:12px;font-family:'Times New Roman';-inkscape-font-specification:TimesNewRomanPSMT;writing-mode:lr-tb;fill:#000000;fill-opacity:1;fill-rule:nonzero;stroke:none"
       id="text140"
       x="251.14999"
       y="-44.156601"><tspan
         x="251.14999 257.14999"
         y="-44.156601"
         sodipodi:role="line"
         id="tspan138">10</tspan></text>
<path
       inkscape:connector-curvature="0"
       id="path142"
       style="fill:none;stroke:#000000;stroke-width:0.25;stroke-linecap:butt;stroke-linejoin:miter;stroke-miterlimit:3.79999995;stroke-dasharray:none;stroke-opacity:1"
       d="m 286.551,57.25 v 4.602" /><path
       inkscape:connector-curvature="0"
       id="path144"
       style="fill:none;stroke:#000000;stroke-width:0.25;stroke-linecap:butt;stroke-linejoin:miter;stroke-miterlimit:3.79999995;stroke-dasharray:none;stroke-opacity:1"
       d="m 286.551,180.801 v -4.602" /><text
       transform="scale(1,-1)"
       style="font-variant:normal;font-weight:normal;font-size:12px;font-family:'Times New Roman';-inkscape-font-specification:TimesNewRomanPSMT;writing-mode:lr-tb;fill:#000000;fill-opacity:1;fill-rule:nonzero;stroke:none"
       id="text150"
       x="280.54999"
       y="-44.156601"><tspan
         x="280.54999 286.54999"
         y="-44.156601"
         sodipodi:role="line"
         id="tspan148">12</tspan></text>
<path
       inkscape:connector-curvature="0"
       id="path152"
       style="fill:none;stroke:#000000;stroke-width:0.25;stroke-linecap:butt;stroke-linejoin:miter;stroke-miterlimit:3.79999995;stroke-dasharray:none;stroke-opacity:1"
       d="M 110,57.25 H 286.551 V 180.801 H 110 Z" /><g
       id="g1304"
       transform="translate(12.620059,81.221403)"><text
         y="-20.297628"
         x="215.04462"
         id="text158"
         style="font-variant:normal;font-weight:normal;font-size:12px;font-family:'Times New Roman';-inkscape-font-specification:TimesNewRomanPSMT;writing-mode:lr-tb;fill:#000000;fill-opacity:1;fill-rule:nonzero;stroke:none"
         transform="scale(1,-1)"><tspan
           y="-20.297628"
           x="215.04462"
           id="tspan156"
           sodipodi:role="line">PW limit</tspan></text>
<path
         d="m 183.10535,24.372824 h 28.602"
         style="fill:none;stroke:#0000ff;stroke-width:0.99993747;stroke-linecap:butt;stroke-linejoin:miter;stroke-miterlimit:3.79999995;stroke-dasharray:1.99987494, 0.99993747;stroke-dashoffset:0;stroke-opacity:1"
         id="path160"
         inkscape:connector-curvature="0" /></g><path
       inkscape:connector-curvature="0"
       id="path162"
       style="fill:none;stroke:#008200;stroke-width:0.99981248;stroke-linecap:butt;stroke-linejoin:miter;stroke-miterlimit:3.79999995;stroke-dasharray:7.99849983, 3.99924992;stroke-dashoffset:0;stroke-opacity:1"
       d="m 110,92.648 h 1.449 l 1.5,-1.148 1.449,-2.148 1.5,-2.954 1.454,-3.4492 1.5,-3.8008 1.449,-3.796 1.449,-3.602 1.5,-2.898 1.449,-1.75 1.5,-0.3008 1.449,0.75 1.5,1.3008 1.454,1.1992 1.449,0.9488 1.5,0.75 1.449,0.148 1.5,-0.046 1.449,-0.0508 1.5,-0.3524 1.449,-0.1476 1.454,0.3008 1.5,0.3468 1.449,0.5512 1.5,0.9488 1.449,1.1024 1.449,0.75 1.5,0.9488 1.449,1.102 1.5,0.796 1.454,0.6532 1.5,0.8468 1.449,1 1.449,0.75 1.5,0.75 1.449,1 1.5,1.25 1.449,1 1.5,1.1532 1.454,1.3008 1.449,1.5 1.5,1.3468 1.449,1.3524 1.5,1.4488 1.449,1.5 1.5,1.4488 1.449,1.4032 1.454,1.398 1.5,1.352 1.449,1.398 1.5,1.301 1.449,1.301 1.5,1.25 1.449,1.296 1.449,1.301 1.5,1.301 1.454,1.301 1.5,1.301 1.449,1.347 1.5,1.403 2.898,2.796 1.5,1.454 1.449,1.5 1.5,1.546 1.454,1.5 1.449,1.5 1.5,1.454 1.449,1.398 1.5,1.398 1.449,1.301 1.5,1.25 1.449,1.153 1.454,1 1.5,0.949 1.449,0.847 1.5,0.801 1.449,0.699 1.5,0.602 1.449,0.602 1.449,0.546 1.5,0.551 1.454,0.653 1.5,0.597 1.449,0.699 1.5,0.704 1.449,0.75 1.449,0.847 1.5,0.801 1.449,0.852 1.5,0.75 1.454,0.699 1.5,0.597 1.449,0.551 1.449,0.449 1.5,0.352 1.449,0.199 1.5,0.153 1.449,0.148 1.5,0.102 1.454,0.199 1.449,0.199 1.5,0.25 1.449,0.301 1.5,0.449 2.898,1.102 1.5,0.597 1.454,0.551 1.5,0.449 1.449,0.403 1.5,0.347 1.449,0.199 1.449,0.051 h 1.5 l 1.449,-0.051 1.5,-0.097 h 2.954 l 1.449,0.051" /><g
       id="g1299"
       transform="translate(12.620059,82.470639)"><text
         y="-3.0363522"
         x="214.94501"
         id="text168"
         style="font-variant:normal;font-weight:normal;font-size:12px;font-family:'Times New Roman';-inkscape-font-specification:TimesNewRomanPSMT;writing-mode:lr-tb;fill:#000000;fill-opacity:1;fill-rule:nonzero;stroke:none"
         transform="scale(1,-1)"><tspan
           y="-3.0363522"
           x="214.94501"
           id="tspan166"
           sodipodi:role="line">Imag. only</tspan></text>
<path
         d="m 183.10535,5.9074459 h 28.602"
         style="fill:none;stroke:#ff0000;stroke-width:0.99999994;stroke-linecap:butt;stroke-linejoin:miter;stroke-miterlimit:3.79999995;stroke-dasharray:none;stroke-dashoffset:0;stroke-opacity:1"
         id="path170"
         inkscape:connector-curvature="0" /></g><path
       inkscape:connector-curvature="0"
       id="path172"
       style="fill:none;stroke:#ff0000;stroke-width:0.99999994;stroke-linecap:butt;stroke-linejoin:miter;stroke-miterlimit:3.79999995;stroke-dasharray:none;stroke-dashoffset:0;stroke-opacity:1"
       d="m 110,68.75 h 1.449 l 1.5,0.102 1.449,0.0968 1.5,0.1532 1.454,0.25 1.5,0.25 1.449,0.296 1.449,0.4032 1.5,0.3976 1.449,0.5 1.5,0.5 1.449,0.6024 1.5,0.6476 1.454,0.6532 1.449,0.75 1.5,0.796 L 135,76 l 1.5,0.898 1.449,0.954 1.5,1 1.449,1.046 1.454,1.0508 1.5,1.1532 1.449,1.148 1.5,1.25 1.449,1.25 1.449,1.352 1.5,1.398 2.949,2.9488 1.454,1.5512 1.5,1.648 1.449,1.6532 1.449,1.75 1.5,1.8468 1.449,1.852 1.5,1.898 1.449,2 1.5,1.954 1.454,2.046 1.449,2 1.5,2 1.449,2 1.5,2 1.449,1.954 1.5,1.949 1.449,1.847 1.454,1.852 1.5,1.75 1.449,1.75 1.5,1.648 1.449,1.551 1.5,1.551 1.449,1.449 1.449,1.403 1.5,1.347 1.454,1.301 1.5,1.199 1.449,1.153 1.5,1.097 1.449,1.051 1.449,1 1.5,0.949 1.449,0.903 1.5,0.847 1.454,0.801 1.449,0.75 1.5,0.75 1.449,0.699 1.5,0.653 1.449,0.597 1.5,0.602 1.449,0.551 1.454,0.546 1.5,0.5 1.449,0.5 1.5,0.454 1.449,0.449 1.5,0.398 1.449,0.403 1.449,0.398 1.5,0.352 1.454,0.347 1.5,0.352 1.449,0.301 1.5,0.296 2.898,0.602 1.5,0.25 1.449,0.25 1.5,0.25 1.454,0.25 1.5,0.25 1.449,0.199 1.449,0.25 1.5,0.199 1.449,0.204 1.5,0.199 1.449,0.199 1.5,0.148 1.454,0.204 1.449,0.148 1.5,0.199 1.449,0.153 1.5,0.148 1.449,0.148 1.449,0.153 1.5,0.148 1.454,0.102 1.5,0.148 1.449,0.153 1.5,0.097 1.449,0.153 1.449,0.097 1.5,0.102 1.449,0.148 1.5,0.102 1.454,0.097 1.5,0.102 1.449,0.102" /><g
       id="g1294"
       transform="translate(12.620059,81.221403)"><text
         y="12.930552"
         x="215.04462"
         id="text178"
         style="font-variant:normal;font-weight:normal;font-size:12px;font-family:'Times New Roman';-inkscape-font-specification:TimesNewRomanPSMT;writing-mode:lr-tb;fill:#000000;fill-opacity:1;fill-rule:nonzero;stroke:none"
         transform="scale(1,-1)"><tspan
           id="tspan176"
           y="12.930552"
           x="215.04462">Masking</tspan></text>
<path
         d="m 183.10535,-10.059458 h 28.602"
         style="fill:none;stroke:#008200;stroke-width:0.99981248;stroke-linecap:butt;stroke-linejoin:miter;stroke-miterlimit:3.79999995;stroke-dasharray:7.99849983, 3.99924992;stroke-dashoffset:0;stroke-opacity:1"
         id="path180"
         inkscape:connector-curvature="0" /></g><path
       inkscape:connector-curvature="0"
       id="path182"
       style="fill:none;stroke:#0000ff;stroke-width:0.99993747;stroke-linecap:butt;stroke-linejoin:miter;stroke-miterlimit:3.79999995;stroke-dasharray:1.99987494, 0.99993747;stroke-dashoffset:0;stroke-opacity:1"
       d="M 110,169.551 H 286.551" /><path
       inkscape:connector-curvature="0"
       id="path184"
       style="fill:none;stroke:#000000;stroke-width:0.25;stroke-linecap:butt;stroke-linejoin:miter;stroke-miterlimit:3.79999995;stroke-dasharray:none;stroke-opacity:1"
       d="M 110,57.25 H 286.551 V 180.801 H 110 Z" /><text
       xml:space="preserve"
       style="font-style:normal;font-variant:normal;font-weight:normal;font-stretch:normal;font-size:13.61027718px;line-height:125%;font-family:'Times New Roman';-inkscape-font-specification:'Times New Roman, Normal';text-align:start;letter-spacing:0px;word-spacing:0px;writing-mode:lr-tb;text-anchor:start;fill:#000000;fill-opacity:1;stroke:none;stroke-width:0.34025693px;stroke-linecap:butt;stroke-linejoin:miter;stroke-opacity:1"
       x="180.07471"
       y="-29.501078"
       id="text1308"
       transform="scale(1,-1)"><tspan
         sodipodi:role="line"
         id="tspan1306"
         x="180.07471"
         y="-29.501078"
         style="stroke-width:0.34025693px"><tspan
   style="font-style:italic"
   id="tspan1310">R</tspan> (fm)</tspan></text>
<text
       xml:space="preserve"
       style="font-style:normal;font-variant:normal;font-weight:normal;font-stretch:normal;font-size:14.42367649px;line-height:125%;font-family:'Times New Roman';-inkscape-font-specification:'Times New Roman, Normal';text-align:start;letter-spacing:0px;word-spacing:0px;writing-mode:lr-tb;text-anchor:start;fill:#000000;fill-opacity:1;stroke:none;stroke-width:0.36059192px;stroke-linecap:butt;stroke-linejoin:miter;stroke-opacity:1"
       x="101.50196"
       y="83.442009"
       id="text1314"
       transform="matrix(0,1,1,0,0,0)"><tspan
         sodipodi:role="line"
         id="tspan1312"
         x="101.50196"
         y="83.442009"
         style="stroke-width:0.36059192px">|<tspan
   style="font-style:italic;stroke-width:0.36059192px"
   id="tspan1318">D</tspan>(<tspan
   style="font-style:italic;stroke-width:0.36059192px"
   id="tspan1316">R</tspan>)|</tspan></text>
</g></svg>