<?xml version="1.0" encoding="UTF-8" standalone="no"?>
<svg
   xmlns:dc="http://purl.org/dc/elements/1.1/"
   xmlns:cc="http://creativecommons.org/ns#"
   xmlns:rdf="http://www.w3.org/1999/02/22-rdf-syntax-ns#"
   xmlns:svg="http://www.w3.org/2000/svg"
   xmlns="http://www.w3.org/2000/svg"
   xmlns:sodipodi="http://sodipodi.sourceforge.net/DTD/sodipodi-0.dtd"
   xmlns:inkscape="http://www.inkscape.org/namespaces/inkscape"
   viewBox="0 0 309.23755 222.57866"
   height="222.57866"
   width="309.23755"
   xml:space="preserve"
   id="svg2"
   version="1.1"
   sodipodi:docname="msk_20Ne_400mev.svg"
   inkscape:version="0.92.5 (2060ec1f9f, 2020-04-08)"><sodipodi:namedview
     pagecolor="#ffffff"
     bordercolor="#666666"
     borderopacity="1"
     objecttolerance="10"
     gridtolerance="10"
     guidetolerance="10"
     inkscape:pageopacity="0"
     inkscape:pageshadow="2"
     inkscape:window-width="1920"
     inkscape:window-height="1018"
     id="namedview254"
     showgrid="false"
     inkscape:zoom="1.430376"
     inkscape:cx="354.43797"
     inkscape:cy="0.88583591"
     inkscape:window-x="0"
     inkscape:window-y="0"
     inkscape:window-maximized="1"
     inkscape:current-layer="svg2"
     fit-margin-top="0"
     fit-margin-left="0"
     fit-margin-right="0"
     fit-margin-bottom="0" /><metadata
     id="metadata8"><rdf:RDF><cc:Work
         rdf:about=""><dc:format>image/svg+xml</dc:format><dc:type
           rdf:resource="http://purl.org/dc/dcmitype/StillImage" /><dc:title></dc:title></cc:Work></rdf:RDF></metadata><defs
     id="defs6">











































</defs><path
     id="path14"
     style="fill:none;stroke:#000000;stroke-width:0.33333331;stroke-linecap:butt;stroke-linejoin:miter;stroke-miterlimit:3.79999995;stroke-dasharray:none;stroke-opacity:1"
     d="m 49.13889,182.1 h 4.207733"
     inkscape:connector-curvature="0" /><path
     id="path16"
     style="fill:none;stroke:#000000;stroke-width:0.33333331;stroke-linecap:butt;stroke-linejoin:miter;stroke-miterlimit:3.79999995;stroke-dasharray:none;stroke-opacity:1"
     d="m 309.07075,182.1 h -4.19333"
     inkscape:connector-curvature="0" /><text
     style="font-variant:normal;font-weight:normal;font-size:16px;font-family:'Times New Roman';-inkscape-font-specification:TimesNewRomanPSMT;writing-mode:lr-tb;fill:#000000;fill-opacity:1;fill-rule:nonzero;stroke:none;stroke-width:1.33333325"
     id="text22"
     x="34.37529"
     y="188.12267"><tspan
       x="34.37529"
       y="188.12267"
       id="tspan20"
       style="stroke-width:1.33333325">0</tspan></text>
<path
     id="path24"
     style="fill:none;stroke:#000000;stroke-width:0.33333331;stroke-linecap:butt;stroke-linejoin:miter;stroke-miterlimit:3.79999995;stroke-dasharray:none;stroke-opacity:1"
     d="m 49.13889,149.032 h 4.207733"
     inkscape:connector-curvature="0" /><path
     id="path26"
     style="fill:none;stroke:#000000;stroke-width:0.33333331;stroke-linecap:butt;stroke-linejoin:miter;stroke-miterlimit:3.79999995;stroke-dasharray:none;stroke-opacity:1"
     d="m 309.07075,149.032 h -4.19333"
     inkscape:connector-curvature="0" /><text
     style="font-variant:normal;font-weight:normal;font-size:16px;font-family:'Times New Roman';-inkscape-font-specification:TimesNewRomanPSMT;writing-mode:lr-tb;fill:#000000;fill-opacity:1;fill-rule:nonzero;stroke:none;stroke-width:1.33333325"
     id="text32"
     x="22.375292"
     y="155.05466"><tspan
       x="22.375292 30.37529 34.37529"
       y="155.05466"
       id="tspan30"
       style="stroke-width:1.33333325">0.2</tspan></text>
<path
     id="path34"
     style="fill:none;stroke:#000000;stroke-width:0.33333331;stroke-linecap:butt;stroke-linejoin:miter;stroke-miterlimit:3.79999995;stroke-dasharray:none;stroke-opacity:1"
     d="m 49.13889,115.964 h 4.207733"
     inkscape:connector-curvature="0" /><path
     id="path36"
     style="fill:none;stroke:#000000;stroke-width:0.33333331;stroke-linecap:butt;stroke-linejoin:miter;stroke-miterlimit:3.79999995;stroke-dasharray:none;stroke-opacity:1"
     d="m 309.07075,115.964 h -4.19333"
     inkscape:connector-curvature="0" /><text
     style="font-variant:normal;font-weight:normal;font-size:16px;font-family:'Times New Roman';-inkscape-font-specification:TimesNewRomanPSMT;writing-mode:lr-tb;fill:#000000;fill-opacity:1;fill-rule:nonzero;stroke:none;stroke-width:1.33333325"
     id="text42"
     x="22.375292"
     y="121.992"><tspan
       x="22.375292 30.37529 34.37529"
       y="121.992"
       id="tspan40"
       style="stroke-width:1.33333325">0.4</tspan></text>
<path
     id="path44"
     style="fill:none;stroke:#000000;stroke-width:0.33333331;stroke-linecap:butt;stroke-linejoin:miter;stroke-miterlimit:3.79999995;stroke-dasharray:none;stroke-opacity:1"
     d="m 49.13889,82.833331 h 4.207733"
     inkscape:connector-curvature="0" /><path
     id="path46"
     style="fill:none;stroke:#000000;stroke-width:0.33333331;stroke-linecap:butt;stroke-linejoin:miter;stroke-miterlimit:3.79999995;stroke-dasharray:none;stroke-opacity:1"
     d="m 309.07075,82.833331 h -4.19333"
     inkscape:connector-curvature="0" /><text
     style="font-variant:normal;font-weight:normal;font-size:16px;font-family:'Times New Roman';-inkscape-font-specification:TimesNewRomanPSMT;writing-mode:lr-tb;fill:#000000;fill-opacity:1;fill-rule:nonzero;stroke:none;stroke-width:1.33333325"
     id="text52"
     x="22.375292"
     y="88.856003"><tspan
       x="22.375292 30.37529 34.37529"
       y="88.856003"
       id="tspan50"
       style="stroke-width:1.33333325">0.6</tspan></text>
<path
     id="path54"
     style="fill:none;stroke:#000000;stroke-width:0.33333331;stroke-linecap:butt;stroke-linejoin:miter;stroke-miterlimit:3.79999995;stroke-dasharray:none;stroke-opacity:1"
     d="m 49.13889,49.766665 h 4.207733"
     inkscape:connector-curvature="0" /><path
     id="path56"
     style="fill:none;stroke:#000000;stroke-width:0.33333331;stroke-linecap:butt;stroke-linejoin:miter;stroke-miterlimit:3.79999995;stroke-dasharray:none;stroke-opacity:1"
     d="m 309.07075,49.766665 h -4.19333"
     inkscape:connector-curvature="0" /><text
     style="font-variant:normal;font-weight:normal;font-size:16px;font-family:'Times New Roman';-inkscape-font-specification:TimesNewRomanPSMT;writing-mode:lr-tb;fill:#000000;fill-opacity:1;fill-rule:nonzero;stroke:none;stroke-width:1.33333325"
     id="text62"
     x="22.375292"
     y="55.789333"><tspan
       x="22.375292 30.37529 34.37529"
       y="55.789333"
       id="tspan60"
       style="stroke-width:1.33333325">0.8</tspan></text>
<path
     id="path64"
     style="fill:none;stroke:#000000;stroke-width:0.33333331;stroke-linecap:butt;stroke-linejoin:miter;stroke-miterlimit:3.79999995;stroke-dasharray:none;stroke-opacity:1"
     d="m 49.13889,16.698666 h 4.207733"
     inkscape:connector-curvature="0" /><path
     id="path66"
     style="fill:none;stroke:#000000;stroke-width:0.33333331;stroke-linecap:butt;stroke-linejoin:miter;stroke-miterlimit:3.79999995;stroke-dasharray:none;stroke-opacity:1"
     d="m 309.07075,16.698666 h -4.19333"
     inkscape:connector-curvature="0" /><text
     style="font-variant:normal;font-weight:normal;font-size:16px;font-family:'Times New Roman';-inkscape-font-specification:TimesNewRomanPSMT;writing-mode:lr-tb;fill:#000000;fill-opacity:1;fill-rule:nonzero;stroke:none;stroke-width:1.33333325"
     id="text72"
     x="34.37529"
     y="22.721333"><tspan
       x="34.37529"
       y="22.721333"
       id="tspan70"
       style="stroke-width:1.33333325">1</tspan></text>
<path
     id="path74"
     style="fill:none;stroke:#000000;stroke-width:0.33333331;stroke-linecap:butt;stroke-linejoin:miter;stroke-miterlimit:3.79999995;stroke-dasharray:none;stroke-opacity:1"
     d="m 49.13889,182.1 v -4.19867"
     inkscape:connector-curvature="0" /><path
     id="path76"
     style="fill:none;stroke:#000000;stroke-width:0.33333331;stroke-linecap:butt;stroke-linejoin:miter;stroke-miterlimit:3.79999995;stroke-dasharray:none;stroke-opacity:1"
     d="M 49.13889,0.16666666 V 4.3653333"
     inkscape:connector-curvature="0" /><text
     style="font-variant:normal;font-weight:normal;font-size:16px;font-family:'Times New Roman';-inkscape-font-specification:TimesNewRomanPSMT;writing-mode:lr-tb;fill:#000000;fill-opacity:1;fill-rule:nonzero;stroke:none;stroke-width:1.33333325"
     id="text82"
     x="47.109692"
     y="198.72131"><tspan
       x="47.109692"
       y="198.72131"
       id="tspan80"
       style="stroke-width:1.33333325">0</tspan></text>
<path
     id="path84"
     style="fill:none;stroke:#000000;stroke-width:0.33333331;stroke-linecap:butt;stroke-linejoin:miter;stroke-miterlimit:3.79999995;stroke-dasharray:none;stroke-opacity:1"
     d="m 83.805556,182.1 v -4.19867"
     inkscape:connector-curvature="0" /><path
     id="path86"
     style="fill:none;stroke:#000000;stroke-width:0.33333331;stroke-linecap:butt;stroke-linejoin:miter;stroke-miterlimit:3.79999995;stroke-dasharray:none;stroke-opacity:1"
     d="M 83.805556,0.16666666 V 4.3653333"
     inkscape:connector-curvature="0" /><text
     style="font-variant:normal;font-weight:normal;font-size:16px;font-family:'Times New Roman';-inkscape-font-specification:TimesNewRomanPSMT;writing-mode:lr-tb;fill:#000000;fill-opacity:1;fill-rule:nonzero;stroke:none;stroke-width:1.33333325"
     id="text92"
     x="81.776886"
     y="198.72131"><tspan
       x="81.776886"
       y="198.72131"
       id="tspan90"
       style="stroke-width:1.33333325">2</tspan></text>
<path
     id="path94"
     style="fill:none;stroke:#000000;stroke-width:0.33333331;stroke-linecap:butt;stroke-linejoin:miter;stroke-miterlimit:3.79999995;stroke-dasharray:none;stroke-opacity:1"
     d="m 118.47222,182.1 v -4.19867"
     inkscape:connector-curvature="0" /><path
     id="path96"
     style="fill:none;stroke:#000000;stroke-width:0.33333331;stroke-linecap:butt;stroke-linejoin:miter;stroke-miterlimit:3.79999995;stroke-dasharray:none;stroke-opacity:1"
     d="M 118.47222,0.16666666 V 4.3653333"
     inkscape:connector-curvature="0" /><text
     style="font-variant:normal;font-weight:normal;font-size:16px;font-family:'Times New Roman';-inkscape-font-specification:TimesNewRomanPSMT;writing-mode:lr-tb;fill:#000000;fill-opacity:1;fill-rule:nonzero;stroke:none;stroke-width:1.33333325"
     id="text102"
     x="116.44356"
     y="198.72131"><tspan
       x="116.44356"
       y="198.72131"
       id="tspan100"
       style="stroke-width:1.33333325">4</tspan></text>
<path
     id="path104"
     style="fill:none;stroke:#000000;stroke-width:0.33333331;stroke-linecap:butt;stroke-linejoin:miter;stroke-miterlimit:3.79999995;stroke-dasharray:none;stroke-opacity:1"
     d="m 153.13876,182.1 v -4.19867"
     inkscape:connector-curvature="0" /><path
     id="path106"
     style="fill:none;stroke:#000000;stroke-width:0.33333331;stroke-linecap:butt;stroke-linejoin:miter;stroke-miterlimit:3.79999995;stroke-dasharray:none;stroke-opacity:1"
     d="M 153.13876,0.16666666 V 4.3653333"
     inkscape:connector-curvature="0" /><text
     style="font-variant:normal;font-weight:normal;font-size:16px;font-family:'Times New Roman';-inkscape-font-specification:TimesNewRomanPSMT;writing-mode:lr-tb;fill:#000000;fill-opacity:1;fill-rule:nonzero;stroke:none;stroke-width:1.33333325"
     id="text112"
     x="151.11076"
     y="198.72131"><tspan
       x="151.11076"
       y="198.72131"
       id="tspan110"
       style="stroke-width:1.33333325">6</tspan></text>
<path
     id="path114"
     style="fill:none;stroke:#000000;stroke-width:0.33333331;stroke-linecap:butt;stroke-linejoin:miter;stroke-miterlimit:3.79999995;stroke-dasharray:none;stroke-opacity:1"
     d="m 187.73742,182.1 v -4.19867"
     inkscape:connector-curvature="0" /><path
     id="path116"
     style="fill:none;stroke:#000000;stroke-width:0.33333331;stroke-linecap:butt;stroke-linejoin:miter;stroke-miterlimit:3.79999995;stroke-dasharray:none;stroke-opacity:1"
     d="M 187.73742,0.16666666 V 4.3653333"
     inkscape:connector-curvature="0" /><text
     style="font-variant:normal;font-weight:normal;font-size:16px;font-family:'Times New Roman';-inkscape-font-specification:TimesNewRomanPSMT;writing-mode:lr-tb;fill:#000000;fill-opacity:1;fill-rule:nonzero;stroke:none;stroke-width:1.33333325"
     id="text122"
     x="185.70808"
     y="198.72131"><tspan
       x="185.70808"
       y="198.72131"
       id="tspan120"
       style="stroke-width:1.33333325">8</tspan></text>
<path
     id="path124"
     style="fill:none;stroke:#000000;stroke-width:0.33333331;stroke-linecap:butt;stroke-linejoin:miter;stroke-miterlimit:3.79999995;stroke-dasharray:none;stroke-opacity:1"
     d="m 222.40409,182.1 v -4.19867"
     inkscape:connector-curvature="0" /><path
     id="path126"
     style="fill:none;stroke:#000000;stroke-width:0.33333331;stroke-linecap:butt;stroke-linejoin:miter;stroke-miterlimit:3.79999995;stroke-dasharray:none;stroke-opacity:1"
     d="M 222.40409,0.16666666 V 4.3653333"
     inkscape:connector-curvature="0" /><text
     style="font-variant:normal;font-weight:normal;font-size:16px;font-family:'Times New Roman';-inkscape-font-specification:TimesNewRomanPSMT;writing-mode:lr-tb;fill:#000000;fill-opacity:1;fill-rule:nonzero;stroke:none;stroke-width:1.33333325"
     id="text132"
     x="216.37474"
     y="198.72131"><tspan
       x="216.37474 224.37474"
       y="198.72131"
       id="tspan130"
       style="stroke-width:1.33333325">10</tspan></text>
<path
     id="path134"
     style="fill:none;stroke:#000000;stroke-width:0.33333331;stroke-linecap:butt;stroke-linejoin:miter;stroke-miterlimit:3.79999995;stroke-dasharray:none;stroke-opacity:1"
     d="m 257.07075,182.1 v -4.19867"
     inkscape:connector-curvature="0" /><path
     id="path136"
     style="fill:none;stroke:#000000;stroke-width:0.33333331;stroke-linecap:butt;stroke-linejoin:miter;stroke-miterlimit:3.79999995;stroke-dasharray:none;stroke-opacity:1"
     d="M 257.07075,0.16666666 V 4.3653333"
     inkscape:connector-curvature="0" /><text
     style="font-variant:normal;font-weight:normal;font-size:16px;font-family:'Times New Roman';-inkscape-font-specification:TimesNewRomanPSMT;writing-mode:lr-tb;fill:#000000;fill-opacity:1;fill-rule:nonzero;stroke:none;stroke-width:1.33333325"
     id="text142"
     x="251.04141"
     y="198.72131"><tspan
       x="251.04141 259.04141"
       y="198.72131"
       id="tspan140"
       style="stroke-width:1.33333325">12</tspan></text>
<path
     id="path144"
     style="fill:none;stroke:#000000;stroke-width:0.33333331;stroke-linecap:butt;stroke-linejoin:miter;stroke-miterlimit:3.79999995;stroke-dasharray:none;stroke-opacity:1"
     d="m 291.73742,182.1 v -4.19867"
     inkscape:connector-curvature="0" /><path
     id="path146"
     style="fill:none;stroke:#000000;stroke-width:0.33333331;stroke-linecap:butt;stroke-linejoin:miter;stroke-miterlimit:3.79999995;stroke-dasharray:none;stroke-opacity:1"
     d="M 291.73742,0.16666666 V 4.3653333"
     inkscape:connector-curvature="0" /><text
     style="font-variant:normal;font-weight:normal;font-size:16px;font-family:'Times New Roman';-inkscape-font-specification:TimesNewRomanPSMT;writing-mode:lr-tb;fill:#000000;fill-opacity:1;fill-rule:nonzero;stroke:none;stroke-width:1.33333325"
     id="text152"
     x="285.70807"
     y="198.72131"><tspan
       x="285.70807 293.70807"
       y="198.72131"
       id="tspan150"
       style="stroke-width:1.33333325">14</tspan></text>
<path
     id="path154"
     style="fill:none;stroke:#000000;stroke-width:0.33333331;stroke-linecap:butt;stroke-linejoin:miter;stroke-miterlimit:3.79999995;stroke-dasharray:none;stroke-opacity:1"
     d="m 49.13889,182.09867 h 259.932 V 0.16666666 h -259.932 z"
     inkscape:connector-curvature="0" /><path
     id="path158"
     style="fill:none;stroke:#008800;stroke-width:1.33333325;stroke-linecap:butt;stroke-linejoin:miter;stroke-miterlimit:3.79999995;stroke-dasharray:7.33333315, 2.93333326;stroke-dashoffset:0;stroke-opacity:1"
     d="m 50.877423,160.5 1.734934,0.532 1.734266,0.86933 1.724,1.13067 1.734933,1.468 1.738534,1.6 1.734933,1.73333 1.734267,1.79734 1.724,1.73466 1.734933,1.536 1.738533,1.26534 1.734933,0.79733 1.734267,0.27067 1.724,-0.20267 1.734933,-0.59867 1.738534,-0.66666 1.734933,-0.73467 1.734267,-0.59867 1.724,-0.532 1.734933,-0.468 1.738533,-0.40133 1.734933,-0.33333 1.734267,-0.40134 1.724,-0.396 1.734933,-0.468 1.738534,-0.6 1.734932,-0.80133 1.73427,-0.932 1.724,-1.068 1.734932,-1.26533 1.73853,-1.40134 1.73494,-1.59866 1.73426,-1.66667 1.724,-1.86533 1.73494,-2 1.73853,-2.068 1.73493,-2.26534 1.73427,-2.40133 1.724,-2.536 1.73493,-2.66667 1.73854,-2.79733 1.73493,-2.86933 1.73427,-3.06267 1.724,-3.068 1.73493,-3.20266 1.73853,-3.19734 1.73467,-3.33333 1.73467,-3.26667 1.724,-3.26533 1.73466,-3.27067 3.47334,-6.396 1.73466,-3.13466 1.724,-3 1.73467,-2.933342 1.73867,-2.869334 1.73466,-2.729333 1.73467,-2.604 1.724,-2.530667 1.73467,-2.469333 3.47333,-4.530666 1.73467,-2.136 1.724,-2.062667 1.73466,-1.937333 1.73867,-1.864 1.73467,-1.802667 1.73466,-1.729333 1.724,-1.666667 1.73467,-1.604 1.73867,-1.530666 1.73466,-1.469334 1.73467,-1.396 1.724,-1.333333 1.73467,-1.333333 1.66666,-1.270667 1.73867,-1.130666 1.73467,-1.134667 1.73466,-1.068 1.724,-1 3.47334,-1.864 1.73466,-0.802667 1.73467,-0.797333 1.724,-0.733333 3.47333,-1.333334 3.46933,-1.198666 1.724,-0.604 1.73467,-0.598667 1.73867,-0.532 1.73466,-0.598666 1.73467,-0.604 1.724,-0.530667 1.73467,-0.6 1.73866,-0.536 3.46934,-1.062667 1.724,-0.536 1.73466,-0.464 3.47334,-0.937333 1.73466,-0.464 1.724,-0.468 1.73467,-0.401333 1.73867,-0.396 3.46933,-0.801334 1.724,-0.401333 1.73467,-0.401333 5.208,-1 1.724,-0.333334 1.73466,-0.265333 1.73867,-0.333333 3.46933,-0.532 1.724,-0.202667 1.73467,-0.265333 1.73867,-0.198667 1.73466,-0.265333 1.73467,-0.202667 1.724,-0.198666 1.73467,-0.202667 1.73866,-0.265333 1.73467,-0.198667 1.73467,-0.202667 1.724,-0.265333 1.73466,-0.198667 1.73867,-0.265333 1.73467,-0.202667 1.73466,-0.265333 1.724,-0.266667 1.73467,-0.202666 1.73867,-0.265334 1.73466,-0.198666 1.73467,-0.265334 1.724,-0.134666 1.73467,-0.198667 3.47333,-0.270667 1.73467,-0.130666 1.724,-0.06667 3.47333,-0.136 1.73467,-0.06267 1.73466,-0.068 1.724,-0.134666"
     inkscape:connector-curvature="0" /><path
     id="path160"
     style="fill:none;stroke:#0000ff;stroke-width:1.33333325;stroke-linecap:butt;stroke-linejoin:miter;stroke-miterlimit:3.79999995;stroke-dasharray:1.83333329, 1.83333329;stroke-dashoffset:0;stroke-opacity:1"
     d="m 50.877423,16.698666 h 5.1932 l 1.734933,0.068 H 309.07075"
     inkscape:connector-curvature="0" /><path
     id="path164"
     style="fill:none;stroke:#000000;stroke-width:0.33333331;stroke-linecap:butt;stroke-linejoin:miter;stroke-miterlimit:3.79999995;stroke-dasharray:none;stroke-opacity:1"
     d="m 49.13889,182.09867 h 259.932 V 0.16666666 h -259.932 z"
     inkscape:connector-curvature="0" /><path
     id="path392"
     style="fill:#000000;fill-opacity:1;fill-rule:evenodd;stroke:none;stroke-width:0.13333333"
     d="m 156.92542,212.64133 0.17067,-0.032 0.152,-0.052 0.16667,-0.036 0.172,-0.0467 0.15066,-0.068 0.16667,-0.052 0.156,-0.068 0.16667,-0.068 0.15066,-0.0667 0.172,-0.084 0.152,-0.0827 0.15067,-0.0893 0.15067,-0.0827 0.136,-0.0987 0.156,-0.10534 0.13466,-0.0987 0.11467,-0.104 0.136,-0.0987 0.24,-0.24 0.0987,-0.11467 0.104,-0.12 0.24933,-0.40533 0.068,-0.136 0.052,-0.13467 0.052,-0.152 0.032,-0.15066 0.036,-0.15067 0.016,-0.156 v -0.152 c 0,-1.45333 -1.50533,-2.536 -3.71867,-2.536 h -4.79733 c -0.33867,0 -0.49467,0 -0.49467,0.33867 0,0.18666 0.156,0.18666 0.47467,0.18666 0.036,0 0.35333,0 0.64533,0.0373 0.30134,0.0307 0.45334,0.0467 0.45334,0.26533 0,0.068 -0.016,0.12 -0.068,0.32267 l -2.24534,9.04133 c -0.172,0.66267 -0.20266,0.79733 -1.54133,0.79733 -0.30133,0 -0.45333,0 -0.45333,0.33334 0,0.188 0.204,0.188 0.23466,0.188 0.47467,0 1.656,-0.052 2.13067,-0.052 0.45733,0 1.656,0.052 2.12933,0.052 0.136,0 0.33867,0 0.33867,-0.33867 0,-0.18267 -0.15067,-0.18267 -0.47333,-0.18267 -0.62534,0 -1.09867,0 -1.09867,-0.30666 0,-0.1 0.036,-0.188 0.052,-0.28667 l 1.11467,-4.464 h 2.00933 l -0.0147,-0.36933 h -1.896 l 1.09867,-4.396 c 0.104,-0.40667 0.15067,-0.57334 0.47333,-0.62534 0.152,-0.016 0.69334,-0.016 1.016,-0.016 1.19867,0 3.07334,0 3.07334,1.672 0,0.57867 -0.27067,1.724 -0.92667,2.38534 -0.43867,0.43866 -1.33333,0.98 -2.83867,0.98 l 0.0147,0.36933 c 1.52133,0 1.824,0.948 1.824,1.54133 0,0.25067 -0.13067,0.776 -0.23467,1.14667 -0.12,0.47333 -0.27066,1.09867 -0.27066,1.43733 0,1.828 2.03066,1.828 2.24933,1.828 1.432,0 2.01067,-1.708 2.01067,-1.948 0,-0.20266 -0.172,-0.20266 -0.188,-0.20266 -0.16667,0 -0.18667,0.12 -0.21867,0.23866 -0.42133,1.25067 -1.15067,1.53734 -1.536,1.53734 -0.55733,0 -0.67733,-0.37067 -0.67733,-1.032 0,-0.52 0.0987,-1.38534 0.16666,-1.92667 0.0373,-0.23467 0.068,-0.55733 0.068,-0.776 0,-1.30267 -1.13066,-1.82267 -1.588,-1.99467 z"
     inkscape:connector-curvature="0" /><path
     id="path394"
     style="fill:#000000;fill-opacity:1;fill-rule:evenodd;stroke:none;stroke-width:0.13333333"
     d="m 166.68009,222.412 v -0.068 h -0.0213 v -0.02 l -0.0307,-0.032 v -0.016 h -0.016 v -0.02 h -0.02 v -0.016 l -0.032,-0.0307 -0.016,-0.0213 -0.02,-0.016 v -0.0147 h -0.016 v -0.016 h -0.016 l -0.0147,-0.016 v -0.02 h -0.0213 l -0.016,-0.016 v -0.016 l -0.0147,-0.016 h -0.016 l -0.0213,-0.02 c -2.09333,-2.13066 -2.63467,-5.308 -2.63467,-7.876 0,-2.93733 0.64,-5.864 2.70267,-7.97333 0.224,-0.20267 0.224,-0.24 0.224,-0.27067 0,-0.136 -0.068,-0.172 -0.172,-0.172 -0.16667,0 -1.672,1.136 -2.672,3.28134 -0.85867,1.83866 -1.06267,3.71866 -1.06267,5.13466 0,1.30267 0.188,3.34934 1.11467,5.24 1.016,2.07867 2.45333,3.17734 2.62,3.17734 0.104,0 0.172,-0.052 0.172,-0.16667 z"
     inkscape:connector-curvature="0" /><path
     id="path396"
     style="fill:#000000;fill-opacity:1;fill-rule:evenodd;stroke:none;stroke-width:0.13333333"
     d="m 170.59609,211.10533 v -1.944 c 0,-1.48933 0.81333,-2.30133 1.54267,-2.30133 0.0467,0 0.30133,0 0.55733,0.12 -0.204,0.068 -0.51067,0.28667 -0.51067,0.708 0,0.39067 0.27067,0.72933 0.72934,0.72933 0.48933,0 0.744,-0.33866 0.744,-0.74533 0,-0.624 -0.624,-1.18133 -1.52,-1.18133 -1.16667,0 -2.604,0.89466 -2.604,2.68666 v 1.928 h -1.33334 v 0.52 h 1.33334 v 5.464 c 0,0.76 -0.188,0.76 -1.31867,0.76 v 0.52134 c 0.656,-0.016 1.45333,-0.052 1.928,-0.052 0.676,0 1.468,0 2.12933,0.052 v -0.52134 h -0.33866 c -1.24934,0 -1.28667,-0.188 -1.28667,-0.79733 v -5.42667 h 1.912 v -0.52 z"
     inkscape:connector-curvature="0" /><path
     id="path398"
     style="fill:#000000;fill-opacity:1;fill-rule:evenodd;stroke:none;stroke-width:0.13333333"
     d="m 174.65342,212.57333 v 4.516 c 0,0.76 -0.18666,0.76 -1.31733,0.76 v 0.52134 c 0.59333,-0.016 1.45333,-0.052 1.89067,-0.052 0.44266,0 1.32266,0.036 1.896,0.052 v -0.52134 c -1.136,0 -1.31734,0 -1.31734,-0.76 v -3.09466 c 0,-1.76 1.19734,-2.70267 2.28134,-2.70267 1.06266,0 1.23333,0.912 1.23333,1.87467 v 3.92266 c 0,0.76 -0.17067,0.76 -1.30133,0.76 v 0.52134 c 0.588,-0.016 1.43733,-0.052 1.89066,-0.052 0.44267,0 1.31734,0.036 1.896,0.052 v -0.52134 c -1.136,0 -1.31866,0 -1.31866,-0.76 v -3.09466 c 0,-1.76 1.19866,-2.70267 2.28133,-2.70267 1.06267,0 1.22933,0.912 1.22933,1.87467 v 3.92266 c 0,0.76 -0.16666,0.76 -1.296,0.76 v 0.52134 c 0.588,-0.016 1.452,-0.052 1.89067,-0.052 0.43733,0 1.31733,0.036 1.89067,0.052 v -0.52134 c -0.876,0 -1.29734,0 -1.31867,-0.51066 v -3.208 c 0,-1.45334 0,-1.97867 -0.52,-2.588 -0.24,-0.28667 -0.78133,-0.62534 -1.76133,-0.62534 -1.416,0 -2.16134,1.016 -2.448,1.656 -0.23867,-1.468 -1.468,-1.656 -2.23334,-1.656 -1.22933,0 -2.02666,0.72934 -2.5,1.776 v -1.776 l -2.36533,0.188 v 0.52 c 1.18267,0 1.31733,0.12 1.31733,0.948 z"
     inkscape:connector-curvature="0" /><path
     id="path400"
     style="fill:#000000;fill-opacity:1;fill-rule:evenodd;stroke:none;stroke-width:0.13333333"
     d="m 191.69076,214.16133 v -0.52 l -0.016,-0.292 -0.0213,-0.30133 -0.0307,-0.30267 -0.036,-0.32266 -0.048,-0.33867 -0.052,-0.33867 -0.0667,-0.33866 -0.084,-0.35467 -0.088,-0.35333 -0.0987,-0.35467 -0.12,-0.35333 -0.136,-0.376 -0.068,-0.16667 -0.0827,-0.18667 -0.084,-0.18266 -0.0827,-0.172 c -1,-2.07867 -2.45333,-3.16134 -2.62,-3.16134 -0.104,0 -0.172,0.068 -0.172,0.172 0,0.0307 0,0.068 0.32267,0.36934 1.656,1.672 2.604,4.344 2.604,7.87466 0,2.876 -0.60934,5.83334 -2.708,7.964 -0.21867,0.19867 -0.21867,0.23467 -0.21867,0.28667 0,0.0987 0.068,0.16667 0.172,0.16667 0.16667,0 1.688,-1.15067 2.66667,-3.29734 0.864,-1.83866 1.068,-3.71333 1.068,-5.12 z"
     inkscape:connector-curvature="0" /><text
     xml:space="preserve"
     style="font-style:normal;font-variant:normal;font-weight:normal;font-stretch:normal;font-size:19.23156738px;line-height:125%;font-family:'Times New Roman';-inkscape-font-specification:'Times New Roman, Normal';text-align:start;letter-spacing:0px;word-spacing:0px;writing-mode:lr-tb;text-anchor:start;fill:#000000;fill-opacity:1;stroke:none;stroke-width:0.48078921px;stroke-linecap:butt;stroke-linejoin:miter;stroke-opacity:1"
     x="-124.13927"
     y="13.353168"
     id="text1314"
     transform="rotate(-90)"><tspan
       sodipodi:role="line"
       id="tspan1312"
       x="-124.13927"
       y="13.353168"
       style="stroke-width:0.48078921px">|<tspan
   style="font-style:italic;stroke-width:0.48078921px"
   id="tspan1318">D</tspan>(<tspan
   style="font-style:italic;stroke-width:0.48078921px"
   id="tspan1316">R</tspan>)|</tspan></text>
</svg>