<?xml version="1.0" encoding="UTF-8" standalone="no"?>
<!-- Created with Inkscape (http://www.inkscape.org/) -->

<svg
   xmlns:ns0="http://www.iki.fi/pav/software/textext/"
   xmlns:dc="http://purl.org/dc/elements/1.1/"
   xmlns:cc="http://creativecommons.org/ns#"
   xmlns:rdf="http://www.w3.org/1999/02/22-rdf-syntax-ns#"
   xmlns:svg="http://www.w3.org/2000/svg"
   xmlns="http://www.w3.org/2000/svg"
   xmlns:xlink="http://www.w3.org/1999/xlink"
   xmlns:sodipodi="http://sodipodi.sourceforge.net/DTD/sodipodi-0.dtd"
   xmlns:inkscape="http://www.inkscape.org/namespaces/inkscape"
   id="svg2"
   version="1.1"
   inkscape:version="0.92.3 (2405546, 2018-03-11)"
   xml:space="preserve"
   width="292.05545"
   height="211.78433"
   viewBox="0 0 292.05545 211.78433"
   sodipodi:docname="RWA_diff.svg"><metadata
     id="metadata8"><rdf:RDF><cc:Work
         rdf:about=""><dc:format>image/svg+xml</dc:format><dc:type
           rdf:resource="http://purl.org/dc/dcmitype/StillImage" /><dc:title /></cc:Work></rdf:RDF></metadata><defs
     id="defs6"><clipPath
       clipPathUnits="userSpaceOnUse"
       id="clipPath18"><path
         d="m 790,260 2200,0 0,1540 -2200,0 0,-1540 z"
         id="path20"
         inkscape:connector-curvature="0" /></clipPath></defs><sodipodi:namedview
     pagecolor="#ffffff"
     bordercolor="#666666"
     borderopacity="1"
     objecttolerance="10"
     gridtolerance="10"
     guidetolerance="10"
     inkscape:pageopacity="0"
     inkscape:pageshadow="2"
     inkscape:window-width="1920"
     inkscape:window-height="1051"
     id="namedview4"
     showgrid="false"
     inkscape:zoom="3.1733334"
     inkscape:cx="100.25369"
     inkscape:cy="112.58836"
     inkscape:window-x="0"
     inkscape:window-y="0"
     inkscape:window-maximized="1"
     inkscape:current-layer="g10"
     fit-margin-top="0"
     fit-margin-left="0"
     fit-margin-right="0"
     fit-margin-bottom="0" /><g
     id="g10"
     inkscape:groupmode="layer"
     inkscape:label="ink_ext_XXXXXX"
     transform="matrix(1.25,0,0,-1.25,-80.785811,224.11423)"><path
   style="fill:none;fill-rule:evenodd;stroke:#000000;stroke-width:0.56;stroke-linecap:butt;stroke-linejoin:miter;stroke-opacity:1;stroke-miterlimit:4;stroke-dasharray:none"
   d="m 103.22362,78.23869 194.95524,0"
   id="path4303"
   inkscape:connector-curvature="0" /><path
   inkscape:connector-curvature="0"
   id="path22"
   style="fill:none;stroke:#000000;stroke-width:0.25;stroke-linecap:butt;stroke-linejoin:miter;stroke-miterlimit:3.79999995;stroke-dasharray:none;stroke-opacity:1"
   d="m 103.199,39.25 3.153,0" /><path
   inkscape:connector-curvature="0"
   id="path24"
   style="fill:none;stroke:#000000;stroke-width:0.25;stroke-linecap:butt;stroke-linejoin:miter;stroke-miterlimit:3.79999995;stroke-dasharray:none;stroke-opacity:1"
   d="m 298.148,39.25 -3.148,0" /><text
   transform="scale(1,-1)"
   style="font-variant:normal;font-weight:normal;line-height:0%;font-family:'Times New Roman';-inkscape-font-specification:TimesNewRomanPSMT;writing-mode:lr-tb;fill:#000000;fill-opacity:1;fill-rule:nonzero;stroke:none"
   id="text28"
   x="79.128899"
   y="-34.732399"><tspan
     x="79.128899 83.124901 89.124901 92.124901"
     y="-34.732399"
     sodipodi:role="line"
     id="tspan30"
     style="font-size:12px;line-height:1.25">-0.2</tspan></text>

<path
   inkscape:connector-curvature="0"
   id="path32"
   style="fill:none;stroke:#000000;stroke-width:0.25;stroke-linecap:butt;stroke-linejoin:miter;stroke-miterlimit:3.79999995;stroke-dasharray:none;stroke-opacity:1"
   d="m 103.199,58.75 3.153,0" /><path
   inkscape:connector-curvature="0"
   id="path34"
   style="fill:none;stroke:#000000;stroke-width:0.25;stroke-linecap:butt;stroke-linejoin:miter;stroke-miterlimit:3.79999995;stroke-dasharray:none;stroke-opacity:1"
   d="m 298.148,58.75 -3.148,0" /><text
   transform="scale(1,-1)"
   style="font-variant:normal;font-weight:normal;line-height:0%;font-family:'Times New Roman';-inkscape-font-specification:TimesNewRomanPSMT;writing-mode:lr-tb;fill:#000000;fill-opacity:1;fill-rule:nonzero;stroke:none"
   id="text38"
   x="79.128899"
   y="-54.232399"><tspan
     x="79.128899 83.124901 89.124901 92.124901"
     y="-54.232399"
     sodipodi:role="line"
     id="tspan40"
     style="font-size:12px;line-height:1.25">-0.1</tspan></text>

<path
   inkscape:connector-curvature="0"
   id="path42"
   style="fill:none;stroke:#000000;stroke-width:0.25;stroke-linecap:butt;stroke-linejoin:miter;stroke-miterlimit:3.79999995;stroke-dasharray:none;stroke-opacity:1"
   d="m 103.199,78.25 3.153,0" /><path
   inkscape:connector-curvature="0"
   id="path44"
   style="fill:none;stroke:#000000;stroke-width:0.25;stroke-linecap:butt;stroke-linejoin:miter;stroke-miterlimit:3.79999995;stroke-dasharray:none;stroke-opacity:1"
   d="m 298.148,78.25 -3.148,0" /><text
   transform="scale(1,-1)"
   style="font-variant:normal;font-weight:normal;font-size:12px;line-height:0%;font-family:'Times New Roman';-inkscape-font-specification:TimesNewRomanPSMT;writing-mode:lr-tb;fill:#000000;fill-opacity:1;fill-rule:nonzero;stroke:none"
   id="text48"
   x="92.125"
   y="-73.732399"><tspan
     x="92.125"
     y="-73.732399"
     id="tspan50">0</tspan></text>

<path
   inkscape:connector-curvature="0"
   id="path52"
   style="fill:none;stroke:#000000;stroke-width:0.25;stroke-linecap:butt;stroke-linejoin:miter;stroke-miterlimit:3.79999995;stroke-dasharray:none;stroke-opacity:1"
   d="m 103.199,97.75 3.153,0" /><path
   inkscape:connector-curvature="0"
   id="path54"
   style="fill:none;stroke:#000000;stroke-width:0.25;stroke-linecap:butt;stroke-linejoin:miter;stroke-miterlimit:3.79999995;stroke-dasharray:none;stroke-opacity:1"
   d="m 298.148,97.75 -3.148,0" /><text
   transform="scale(1,-1)"
   style="font-variant:normal;font-weight:normal;line-height:0%;font-family:'Times New Roman';-inkscape-font-specification:TimesNewRomanPSMT;writing-mode:lr-tb;fill:#000000;fill-opacity:1;fill-rule:nonzero;stroke:none"
   id="text58"
   x="83.125"
   y="-93.232399"><tspan
     x="83.125 89.125 92.125"
     y="-93.232399"
     sodipodi:role="line"
     id="tspan60"
     style="font-size:12px;line-height:1.25">0.1</tspan></text>

<path
   inkscape:connector-curvature="0"
   id="path62"
   style="fill:none;stroke:#000000;stroke-width:0.25;stroke-linecap:butt;stroke-linejoin:miter;stroke-miterlimit:3.79999995;stroke-dasharray:none;stroke-opacity:1"
   d="m 103.199,117.199 3.153,0" /><path
   inkscape:connector-curvature="0"
   id="path64"
   style="fill:none;stroke:#000000;stroke-width:0.25;stroke-linecap:butt;stroke-linejoin:miter;stroke-miterlimit:3.79999995;stroke-dasharray:none;stroke-opacity:1"
   d="m 298.148,117.199 -3.148,0" /><text
   transform="scale(1,-1)"
   style="font-variant:normal;font-weight:normal;line-height:0%;font-family:'Times New Roman';-inkscape-font-specification:TimesNewRomanPSMT;writing-mode:lr-tb;fill:#000000;fill-opacity:1;fill-rule:nonzero;stroke:none"
   id="text68"
   x="83.125"
   y="-112.682"><tspan
     x="83.125 89.125 92.125"
     y="-112.682"
     sodipodi:role="line"
     id="tspan70"
     style="font-size:12px;line-height:1.25">0.2</tspan></text>

<path
   inkscape:connector-curvature="0"
   id="path72"
   style="fill:none;stroke:#000000;stroke-width:0.25;stroke-linecap:butt;stroke-linejoin:miter;stroke-miterlimit:3.79999995;stroke-dasharray:none;stroke-opacity:1"
   d="m 103.199,136.699 3.153,0" /><path
   inkscape:connector-curvature="0"
   id="path74"
   style="fill:none;stroke:#000000;stroke-width:0.25;stroke-linecap:butt;stroke-linejoin:miter;stroke-miterlimit:3.79999995;stroke-dasharray:none;stroke-opacity:1"
   d="m 298.148,136.699 -3.148,0" /><text
   transform="scale(1,-1)"
   style="font-variant:normal;font-weight:normal;line-height:0%;font-family:'Times New Roman';-inkscape-font-specification:TimesNewRomanPSMT;writing-mode:lr-tb;fill:#000000;fill-opacity:1;fill-rule:nonzero;stroke:none"
   id="text78"
   x="83.125"
   y="-132.18201"><tspan
     x="83.125 89.125 92.125"
     y="-132.18201"
     sodipodi:role="line"
     id="tspan80"
     style="font-size:12px;line-height:1.25">0.3</tspan></text>

<path
   inkscape:connector-curvature="0"
   id="path82"
   style="fill:none;stroke:#000000;stroke-width:0.25;stroke-linecap:butt;stroke-linejoin:miter;stroke-miterlimit:3.79999995;stroke-dasharray:none;stroke-opacity:1"
   d="m 103.199,156.199 3.153,0" /><path
   inkscape:connector-curvature="0"
   id="path84"
   style="fill:none;stroke:#000000;stroke-width:0.25;stroke-linecap:butt;stroke-linejoin:miter;stroke-miterlimit:3.79999995;stroke-dasharray:none;stroke-opacity:1"
   d="m 298.148,156.199 -3.148,0" /><text
   transform="scale(1,-1)"
   style="font-variant:normal;font-weight:normal;line-height:0%;font-family:'Times New Roman';-inkscape-font-specification:TimesNewRomanPSMT;writing-mode:lr-tb;fill:#000000;fill-opacity:1;fill-rule:nonzero;stroke:none"
   id="text88"
   x="83.125"
   y="-151.68201"><tspan
     x="83.125 89.125 92.125"
     y="-151.68201"
     sodipodi:role="line"
     id="tspan90"
     style="font-size:12px;line-height:1.25">0.4</tspan></text>

<path
   inkscape:connector-curvature="0"
   id="path92"
   style="fill:none;stroke:#000000;stroke-width:0.25;stroke-linecap:butt;stroke-linejoin:miter;stroke-miterlimit:3.79999995;stroke-dasharray:none;stroke-opacity:1"
   d="m 103.199,175.699 3.153,0" /><path
   inkscape:connector-curvature="0"
   id="path94"
   style="fill:none;stroke:#000000;stroke-width:0.25;stroke-linecap:butt;stroke-linejoin:miter;stroke-miterlimit:3.79999995;stroke-dasharray:none;stroke-opacity:1"
   d="m 298.148,175.699 -3.148,0" /><text
   transform="scale(1,-1)"
   style="font-variant:normal;font-weight:normal;line-height:0%;font-family:'Times New Roman';-inkscape-font-specification:TimesNewRomanPSMT;writing-mode:lr-tb;fill:#000000;fill-opacity:1;fill-rule:nonzero;stroke:none"
   id="text98"
   x="83.125"
   y="-171.18201"><tspan
     x="83.125 89.125 92.125"
     y="-171.18201"
     sodipodi:role="line"
     id="tspan100"
     style="font-size:12px;line-height:1.25">0.5</tspan></text>

<path
   inkscape:connector-curvature="0"
   id="path102"
   style="fill:none;stroke:#000000;stroke-width:0.25;stroke-linecap:butt;stroke-linejoin:miter;stroke-miterlimit:3.79999995;stroke-dasharray:none;stroke-opacity:1"
   d="m 103.199,39.25 0,3.148" /><path
   inkscape:connector-curvature="0"
   id="path104"
   style="fill:none;stroke:#000000;stroke-width:0.25;stroke-linecap:butt;stroke-linejoin:miter;stroke-miterlimit:3.79999995;stroke-dasharray:none;stroke-opacity:1"
   d="m 103.199,175.699 0,-3.148" /><text
   transform="scale(1,-1)"
   style="font-variant:normal;font-weight:normal;font-size:12px;line-height:0%;font-family:'Times New Roman';-inkscape-font-specification:TimesNewRomanPSMT;writing-mode:lr-tb;fill:#000000;fill-opacity:1;fill-rule:nonzero;stroke:none"
   id="text108"
   x="101.6758"
   y="-26.783199"><tspan
     x="101.6758"
     y="-26.783199"
     id="tspan110">0</tspan></text>

<path
   inkscape:connector-curvature="0"
   id="path112"
   style="fill:none;stroke:#000000;stroke-width:0.25;stroke-linecap:butt;stroke-linejoin:miter;stroke-miterlimit:3.79999995;stroke-dasharray:none;stroke-opacity:1"
   d="m 133.199,39.25 0,3.148" /><path
   inkscape:connector-curvature="0"
   id="path114"
   style="fill:none;stroke:#000000;stroke-width:0.25;stroke-linecap:butt;stroke-linejoin:miter;stroke-miterlimit:3.79999995;stroke-dasharray:none;stroke-opacity:1"
   d="m 133.199,175.699 0,-3.148" /><text
   transform="scale(1,-1)"
   style="font-variant:normal;font-weight:normal;font-size:12px;line-height:0%;font-family:'Times New Roman';-inkscape-font-specification:TimesNewRomanPSMT;writing-mode:lr-tb;fill:#000000;fill-opacity:1;fill-rule:nonzero;stroke:none"
   id="text118"
   x="131.67599"
   y="-26.783199"><tspan
     x="131.67599"
     y="-26.783199"
     id="tspan120">2</tspan></text>

<path
   inkscape:connector-curvature="0"
   id="path122"
   style="fill:none;stroke:#000000;stroke-width:0.25;stroke-linecap:butt;stroke-linejoin:miter;stroke-miterlimit:3.79999995;stroke-dasharray:none;stroke-opacity:1"
   d="m 163.199,39.25 0,3.148" /><path
   inkscape:connector-curvature="0"
   id="path124"
   style="fill:none;stroke:#000000;stroke-width:0.25;stroke-linecap:butt;stroke-linejoin:miter;stroke-miterlimit:3.79999995;stroke-dasharray:none;stroke-opacity:1"
   d="m 163.199,175.699 0,-3.148" /><text
   transform="scale(1,-1)"
   style="font-variant:normal;font-weight:normal;font-size:12px;line-height:0%;font-family:'Times New Roman';-inkscape-font-specification:TimesNewRomanPSMT;writing-mode:lr-tb;fill:#000000;fill-opacity:1;fill-rule:nonzero;stroke:none"
   id="text128"
   x="161.67599"
   y="-26.783199"><tspan
     x="161.67599"
     y="-26.783199"
     id="tspan130">4</tspan></text>

<path
   inkscape:connector-curvature="0"
   id="path132"
   style="fill:none;stroke:#000000;stroke-width:0.25;stroke-linecap:butt;stroke-linejoin:miter;stroke-miterlimit:3.79999995;stroke-dasharray:none;stroke-opacity:1"
   d="m 193.199,39.25 0,3.148" /><path
   inkscape:connector-curvature="0"
   id="path134"
   style="fill:none;stroke:#000000;stroke-width:0.25;stroke-linecap:butt;stroke-linejoin:miter;stroke-miterlimit:3.79999995;stroke-dasharray:none;stroke-opacity:1"
   d="m 193.199,175.699 0,-3.148" /><text
   transform="scale(1,-1)"
   style="font-variant:normal;font-weight:normal;font-size:12px;line-height:0%;font-family:'Times New Roman';-inkscape-font-specification:TimesNewRomanPSMT;writing-mode:lr-tb;fill:#000000;fill-opacity:1;fill-rule:nonzero;stroke:none"
   id="text138"
   x="191.67599"
   y="-26.783199"><tspan
     x="191.67599"
     y="-26.783199"
     id="tspan140">6</tspan></text>

<path
   inkscape:connector-curvature="0"
   id="path142"
   style="fill:none;stroke:#000000;stroke-width:0.25;stroke-linecap:butt;stroke-linejoin:miter;stroke-miterlimit:3.79999995;stroke-dasharray:none;stroke-opacity:1"
   d="m 223.148,39.25 0,3.148" /><path
   inkscape:connector-curvature="0"
   id="path144"
   style="fill:none;stroke:#000000;stroke-width:0.25;stroke-linecap:butt;stroke-linejoin:miter;stroke-miterlimit:3.79999995;stroke-dasharray:none;stroke-opacity:1"
   d="m 223.148,175.699 0,-3.148" /><text
   transform="scale(1,-1)"
   style="font-variant:normal;font-weight:normal;font-size:12px;line-height:0%;font-family:'Times New Roman';-inkscape-font-specification:TimesNewRomanPSMT;writing-mode:lr-tb;fill:#000000;fill-opacity:1;fill-rule:nonzero;stroke:none"
   id="text148"
   x="221.625"
   y="-26.783199"><tspan
     x="221.625"
     y="-26.783199"
     id="tspan150">8</tspan></text>

<path
   inkscape:connector-curvature="0"
   id="path152"
   style="fill:none;stroke:#000000;stroke-width:0.25;stroke-linecap:butt;stroke-linejoin:miter;stroke-miterlimit:3.79999995;stroke-dasharray:none;stroke-opacity:1"
   d="m 253.148,39.25 0,3.148" /><path
   inkscape:connector-curvature="0"
   id="path154"
   style="fill:none;stroke:#000000;stroke-width:0.25;stroke-linecap:butt;stroke-linejoin:miter;stroke-miterlimit:3.79999995;stroke-dasharray:none;stroke-opacity:1"
   d="m 253.148,175.699 0,-3.148" /><text
   transform="scale(1,-1)"
   style="font-variant:normal;font-weight:normal;line-height:0%;font-family:'Times New Roman';-inkscape-font-specification:TimesNewRomanPSMT;writing-mode:lr-tb;fill:#000000;fill-opacity:1;fill-rule:nonzero;stroke:none"
   id="text158"
   x="248.625"
   y="-26.783199"><tspan
     x="248.625 254.625"
     y="-26.783199"
     sodipodi:role="line"
     id="tspan160"
     style="font-size:12px;line-height:1.25">10</tspan></text>

<path
   inkscape:connector-curvature="0"
   id="path162"
   style="fill:none;stroke:#000000;stroke-width:0.25;stroke-linecap:butt;stroke-linejoin:miter;stroke-miterlimit:3.79999995;stroke-dasharray:none;stroke-opacity:1"
   d="m 283.148,39.25 0,3.148" /><path
   inkscape:connector-curvature="0"
   id="path164"
   style="fill:none;stroke:#000000;stroke-width:0.25;stroke-linecap:butt;stroke-linejoin:miter;stroke-miterlimit:3.79999995;stroke-dasharray:none;stroke-opacity:1"
   d="m 283.148,175.699 0,-3.148" /><text
   transform="scale(1,-1)"
   style="font-variant:normal;font-weight:normal;line-height:0%;font-family:'Times New Roman';-inkscape-font-specification:TimesNewRomanPSMT;writing-mode:lr-tb;fill:#000000;fill-opacity:1;fill-rule:nonzero;stroke:none"
   id="text168"
   x="278.625"
   y="-26.783199"><tspan
     x="278.625 284.625"
     y="-26.783199"
     sodipodi:role="line"
     id="tspan170"
     style="font-size:12px;line-height:1.25">12</tspan></text>

<path
   inkscape:connector-curvature="0"
   id="path172"
   style="fill:none;stroke:#000000;stroke-width:0.25;stroke-linecap:butt;stroke-linejoin:miter;stroke-miterlimit:3.79999995;stroke-dasharray:none;stroke-opacity:1"
   d="m 103.199,39.25 194.949,0 0,136.449 -194.949,0 0,-136.449 z" /><path
   inkscape:connector-curvature="0"
   id="path182"
   style="fill:none;stroke:#ff0000;stroke-width:1;stroke-linecap:butt;stroke-linejoin:miter;stroke-miterlimit:3.79999995;stroke-dasharray:5.5, 2.2;stroke-dashoffset:0;stroke-opacity:1"
   d="m 103.199,78.25 1.949,4.352 2,3.296 1.954,1.4032 2,-0.9492 1.949,-3.0508 1.949,-4.5 2,-4.9032 1.949,-4.0968 1.949,-2.1992 2,0.3468 1.954,3 2,5.1532 1.949,6.148 1.949,5.852 2,4.148 1.949,1.1988 2,-2.1476 1.949,-5.5 1.954,-7.9032 2,-8.9492 1.949,-8.3468 1.949,-6.0508 2,-2.4492 1.949,2 2,6.5 1.949,10.5 1.954,13.4492 2,15 1.949,15.0968 2,13.75 1.949,11.454 1.949,8.398 2,5.148 1.949,2.051 1.954,-0.648 2,-2.801 1.949,-4.199 2,-5.051 1.949,-5.352 1.949,-5.25 2,-4.898 1.949,-4.5 2,-4 1.954,-3.602 1.949,-3.25 2,-3.046 1.949,-2.903 1.949,-2.801 2,-2.699 1.949,-2.6478 2,-2.5512 1.954,-2.4488 1.949,-2.3012 2,-2.0512 1.949,-1.8976 1.949,-1.6532 2,-1.398 1.949,-1.1988 2,-0.9492 1.954,-0.8008 1.949,-0.6024 2,-0.5 1.949,-0.3468 2,-0.25 1.949,-0.204 1.949,-0.148 2,-0.102 1.954,-0.046 1.949,-0.0508 2,0 1.949,-0.0512 55.148,0" /><path
   inkscape:connector-curvature="0"
   id="path192"
   style="fill:none;stroke:#008800;stroke-width:1;stroke-linecap:butt;stroke-linejoin:miter;stroke-miterlimit:3.79999995;stroke-dasharray:1.375, 1.375;stroke-dashoffset:0;stroke-opacity:1"
   d="m 103.199,78.25 1.949,3.602 2,2.75 1.954,1.148 2,-0.75 1.949,-2.5512 1.949,-3.75 2,-4.0508 1.949,-3.398 1.949,-1.852 2,0.3008 1.954,2.5 2,4.25 1.949,5.1024 1.949,4.8468 2,3.454 1.949,1 2,-1.8008 1.949,-4.5 1.954,-6.5512 2,-7.398 1.949,-6.954 1.949,-5 2,-2.046 1.949,1.5968 2,5.3012 1.949,8.648 1.954,11.102 2,12.4488 1.949,12.5002 2,11.449 1.949,9.602 1.949,7.199 2,4.551 1.949,2.051 1.954,-0.153 2,-1.847 1.949,-3 2,-3.653 1.949,-3.949 1.949,-3.847 2,-3.704 1.949,-3.347 2,-3.102 1.954,-2.847 1.949,-2.704 2,-2.597 1.949,-2.602 1.949,-2.597 2,-2.551 1.949,-2.6022 2,-2.5 1.954,-2.4488 1.949,-2.3012 2,-2.0968 1.949,-1.9032 1.949,-1.6476 2,-1.4492 1.949,-1.204 2,-1 1.954,-0.796 1.949,-0.6532 2,-0.4488 1.949,-0.398 2,-0.25 1.949,-0.204 1.949,-0.148 2,-0.102 1.954,-0.046 1.949,-0.0508 2,0 1.949,-0.0512 55.148,0" /><path
   inkscape:connector-curvature="0"
   id="path202"
   style="fill:none;stroke:#0000ff;stroke-width:1;stroke-linecap:butt;stroke-linejoin:miter;stroke-miterlimit:3.79999995;stroke-dasharray:5.5, 1.375, 1.375, 1.375;stroke-dashoffset:0;stroke-opacity:1"
   d="m 103.199,78.25 1.949,4.5 2,3.398 1.954,1.4032 2,-0.9492 1.949,-3.1532 1.949,-4.6476 2,-5.0512 1.949,-4.1988 1.949,-2.25 2,0.3468 1.954,3.102 2,5.3012 1.949,6.3976 1.949,6 2,4.1992 1.949,1.25 2,-2.296 1.949,-5.6532 1.954,-8.1988 2,-9.1988 1.949,-8.6024 1.949,-6.1476 2,-2.4492 1.949,2.1992 2,6.8008 1.949,11 1.954,13.9492 2,15.4998 1.949,15.5 2,14 1.949,11.398 1.949,8.153 2,4.597 1.949,1.199 1.954,-1.796 2,-4.102 1.949,-5.699 2,-6.602 1.949,-6.847 1.949,-6.704 2,-6.148 1.949,-5.449 2,-4.75 1.954,-4.051 1.949,-3.398 2,-2.9032 1.949,-2.4488 1.949,-2.148 2,-1.954 1.949,-1.6992 2,-1.5508 1.954,-1.398 1.949,-1.3012 2,-1.1476 1.949,-1 1.949,-0.8524 2,-0.75 1.949,-0.5968 2,-0.5 1.954,-0.4032 1.949,-0.3468 2,-0.25 1.949,-0.1532 2,-0.1476 1.949,-0.1024 1.949,-0.0508 2,-0.046 1.954,-0.0508 1.949,-0.0512 59.097,0" /><path
   inkscape:connector-curvature="0"
   id="path204"
   style="fill:none;stroke:#000000;stroke-width:0.25;stroke-linecap:butt;stroke-linejoin:miter;stroke-miterlimit:3.79999995;stroke-dasharray:none;stroke-opacity:1"
   d="m 103.199,39.25 194.949,0 0,136.449 -194.949,0 0,-136.449 z" /><g
   ns0:text="$Ry(R)\\,\\mathrm{[fm^{-1/2}]}$"
   ns0:preamble="/home/yoshidak/.config/inkscape/preamble.txt"
   transform="matrix(0,1.4132843,1.4132843,0,-113.80891,-249.70903)"
   id="g4418"><defs
     id="defs4420"><g
       id="g4422"><symbol
         style="overflow:visible"
         overflow="visible"
         id="textext-ee39e0a2-0"><path
           inkscape:connector-curvature="0"
           style="stroke:none"
           d=""
           id="path4425" /></symbol><symbol
         style="overflow:visible"
         overflow="visible"
         id="textext-ee39e0a2-1"><path
           inkscape:connector-curvature="0"
           style="stroke:none"
           d="M 5.65625,-0.15625 C 5.21875,-0.1875 5.015625,-0.359375 4.828125,-0.875 l -0.9375,-2.4375 C 4.671875,-3.484375 5,-3.625 5.359375,-3.953125 c 0.328125,-0.28125 0.5,-0.671875 0.5,-1.125 0,-0.921875 -0.734375,-1.4375 -2.078125,-1.4375 l -2.46875,0 0,0.171875 c 0.421875,0.046875 0.46875,0.0625 0.578125,0.140625 0.078125,0.046875 0.140625,0.15625 0.140625,0.265625 0,0.125 -0.0625,0.359375 -0.125,0.640625 l -1.234375,4.40625 C 0.5,-0.3125 0.421875,-0.25 -0.125,-0.15625 l 0,0.15625 2.421875,0 0,-0.15625 C 1.6875,-0.234375 1.625,-0.296875 1.625,-0.625 c 0,-0.09375 0.03125,-0.21875 0.125,-0.578125 L 2.296875,-3.28125 2.953125,-3.234375 4.171875,0 5.65625,0 Z M 3.078125,-5.9375 c 0.046875,-0.203125 0.1875,-0.265625 0.5,-0.265625 0.828125,0 1.234375,0.375 1.234375,1.109375 0,0.984375 -0.640625,1.5 -1.875,1.5 -0.171875,0 -0.28125,-0.015625 -0.515625,-0.0625 z m 0,0"
           id="path4428" /></symbol><symbol
         style="overflow:visible"
         overflow="visible"
         id="textext-ee39e0a2-2"><path
           inkscape:connector-curvature="0"
           style="stroke:none"
           d=""
           id="path4431" /></symbol><symbol
         style="overflow:visible"
         overflow="visible"
         id="textext-ee39e0a2-3"><path
           inkscape:connector-curvature="0"
           style="stroke:none"
           d="M 4.25,-3.84375 C 4.25,-4.140625 4,-4.390625 3.703125,-4.390625 3.46875,-4.390625 3.3125,-4.25 3.3125,-4.03125 c 0,0.15625 0.078125,0.265625 0.28125,0.390625 0.1875,0.109375 0.25,0.203125 0.25,0.34375 0,0.390625 -0.359375,1.15625 -1.21875,2.578125 L 2.4375,-1.875 C 2.28125,-2.765625 1.71875,-4.390625 1.578125,-4.390625 l -0.125,0 -0.984375,0.171875 -0.3125,0.0625 0,0.171875 c 0.109375,-0.03125 0.1875,-0.046875 0.296875,-0.046875 0.40625,0 0.578125,0.15625 0.765625,0.640625 0.28125,0.671875 0.828125,2.90625 0.828125,3.3125 C 2.046875,0.03125 2,0.15625 1.9375,0.265625 1.859375,0.40625 1.421875,0.984375 1.234375,1.171875 1,1.421875 0.890625,1.5 0.75,1.5 0.6875,1.5 0.625,1.46875 0.515625,1.390625 0.375,1.28125 0.265625,1.21875 0.15625,1.21875 c -0.21875,0 -0.390625,0.171875 -0.390625,0.390625 0,0.265625 0.203125,0.4375 0.5,0.4375 C 0.84375,2.046875 1.90625,0.90625 2.9375,-0.8125 3.78125,-2.1875 4.25,-3.28125 4.25,-3.84375 Z m 0,0"
           id="path4434" /></symbol><symbol
         style="overflow:visible"
         overflow="visible"
         id="textext-ee39e0a2-4"><path
           inkscape:connector-curvature="0"
           style="stroke:none"
           d=""
           id="path4437" /></symbol><symbol
         style="overflow:visible"
         overflow="visible"
         id="textext-ee39e0a2-5"><path
           inkscape:connector-curvature="0"
           style="stroke:none"
           d="M 2.9375,-6.734375 C 2.203125,-6.265625 1.90625,-6 1.53125,-5.546875 c -0.703125,0.875 -1.046875,1.875 -1.046875,3.03125 0,1.265625 0.359375,2.25 1.234375,3.265625 0.421875,0.46875 0.671875,0.703125 1.1875,1.015625 l 0.125,-0.15625 C 2.234375,0.984375 1.953125,0.625 1.6875,-0.125 1.453125,-0.78125 1.328125,-1.546875 1.328125,-2.546875 1.328125,-3.59375 1.46875,-4.40625 1.734375,-5.03125 2.015625,-5.640625 2.3125,-6 3.03125,-6.578125 Z m 0,0"
           id="path4440" /></symbol><symbol
         style="overflow:visible"
         overflow="visible"
         id="textext-ee39e0a2-6"><path
           inkscape:connector-curvature="0"
           style="stroke:none"
           d="M 0.375,1.765625 C 1.109375,1.28125 1.421875,1.03125 1.78125,0.5625 2.5,-0.296875 2.84375,-1.296875 2.84375,-2.46875 c 0,-1.265625 -0.375,-2.234375 -1.25,-3.25 C 1.1875,-6.203125 0.921875,-6.421875 0.40625,-6.734375 l -0.109375,0.15625 c 0.796875,0.625 1.0625,0.96875 1.34375,1.71875 0.234375,0.671875 0.34375,1.4375 0.34375,2.421875 0,1.046875 -0.125,1.875 -0.40625,2.484375 C 1.3125,0.671875 1,1.03125 0.296875,1.609375 Z m 0,0"
           id="path4443" /></symbol><symbol
         style="overflow:visible"
         overflow="visible"
         id="textext-ee39e0a2-7"><path
           inkscape:connector-curvature="0"
           style="stroke:none"
           d=""
           id="path4446" /></symbol><symbol
         style="overflow:visible"
         overflow="visible"
         id="textext-ee39e0a2-8"><path
           inkscape:connector-curvature="0"
           style="stroke:none"
           d="m 2.546875,2.5 0,-0.40625 -0.96875,0 0,-9.171875 0.96875,0 0,-0.40625 -1.375,0 0,9.984375 z m 0,0"
           id="path4449" /></symbol><symbol
         style="overflow:visible"
         overflow="visible"
         id="textext-ee39e0a2-9"><path
           inkscape:connector-curvature="0"
           style="stroke:none"
           d="m 1.75,-4.296875 0,-1.15625 c 0,-0.875 0.46875,-1.359375 0.90625,-1.359375 0.03125,0 0.1875,0 0.328125,0.078125 C 2.875,-6.703125 2.6875,-6.5625 2.6875,-6.3125 c 0,0.21875 0.15625,0.421875 0.4375,0.421875 0.28125,0 0.4375,-0.203125 0.4375,-0.4375 0,-0.375 -0.375,-0.703125 -0.90625,-0.703125 -0.6875,0 -1.546875,0.53125 -1.546875,1.59375 l 0,1.140625 -0.78125,0 0,0.3125 0.78125,0 0,3.234375 c 0,0.4375 -0.109375,0.4375 -0.765625,0.4375 l 0,0.3125 c 0.390625,-0.015625 0.859375,-0.03125 1.125,-0.03125 0.40625,0 0.875,0 1.265625,0.03125 l 0,-0.3125 -0.203125,0 c -0.734375,0 -0.75,-0.109375 -0.75,-0.46875 l 0,-3.203125 1.125,0 0,-0.3125 z m 0,0"
           id="path4452" /></symbol><symbol
         style="overflow:visible"
         overflow="visible"
         id="textext-ee39e0a2-10"><path
           inkscape:connector-curvature="0"
           style="stroke:none"
           d="m 1.09375,-3.421875 0,2.671875 c 0,0.4375 -0.109375,0.4375 -0.78125,0.4375 l 0,0.3125 c 0.359375,-0.015625 0.859375,-0.03125 1.140625,-0.03125 0.25,0 0.765625,0.015625 1.109375,0.03125 l 0,-0.3125 c -0.671875,0 -0.78125,0 -0.78125,-0.4375 l 0,-1.84375 C 1.78125,-3.625 2.5,-4.1875 3.125,-4.1875 c 0.640625,0 0.75,0.53125 0.75,1.109375 l 0,2.328125 c 0,0.4375 -0.109375,0.4375 -0.78125,0.4375 l 0,0.3125 c 0.34375,-0.015625 0.859375,-0.03125 1.125,-0.03125 0.25,0 0.78125,0.015625 1.109375,0.03125 l 0,-0.3125 c -0.65625,0 -0.765625,0 -0.765625,-0.4375 l 0,-1.84375 c 0,-1.03125 0.703125,-1.59375 1.34375,-1.59375 0.625,0 0.734375,0.53125 0.734375,1.109375 l 0,2.328125 c 0,0.4375 -0.109375,0.4375 -0.78125,0.4375 l 0,0.3125 c 0.34375,-0.015625 0.859375,-0.03125 1.125,-0.03125 0.265625,0 0.78125,0.015625 1.125,0.03125 l 0,-0.3125 c -0.515625,0 -0.765625,0 -0.78125,-0.296875 l 0,-1.90625 c 0,-0.859375 0,-1.15625 -0.3125,-1.515625 -0.140625,-0.171875 -0.46875,-0.375 -1.046875,-0.375 -0.828125,0 -1.28125,0.59375 -1.4375,0.984375 C 4.390625,-4.296875 3.65625,-4.40625 3.203125,-4.40625 2.46875,-4.40625 2,-3.984375 1.71875,-3.359375 l 0,-1.046875 -1.40625,0.109375 0,0.3125 c 0.703125,0 0.78125,0.0625 0.78125,0.5625 z m 0,0"
           id="path4455" /></symbol><symbol
         style="overflow:visible"
         overflow="visible"
         id="textext-ee39e0a2-11"><path
           inkscape:connector-curvature="0"
           style="stroke:none"
           d="m 1.578125,-7.484375 -1.359375,0 0,0.40625 0.96875,0 0,9.171875 -0.96875,0 0,0.40625 1.359375,0 z m 0,0"
           id="path4458" /></symbol><symbol
         style="overflow:visible"
         overflow="visible"
         id="textext-ee39e0a2-12"><path
           inkscape:connector-curvature="0"
           style="stroke:none"
           d=""
           id="path4461" /></symbol><symbol
         style="overflow:visible"
         overflow="visible"
         id="textext-ee39e0a2-13"><path
           inkscape:connector-curvature="0"
           style="stroke:none"
           d="m 4.171875,-1.65625 0,-0.421875 -3.71875,0 0,0.421875 z m 0,0"
           id="path4464" /></symbol><symbol
         style="overflow:visible"
         overflow="visible"
         id="textext-ee39e0a2-14"><path
           inkscape:connector-curvature="0"
           style="stroke:none"
           d=""
           id="path4467" /></symbol><symbol
         style="overflow:visible"
         overflow="visible"
         id="textext-ee39e0a2-15"><path
           inkscape:connector-curvature="0"
           style="stroke:none"
           d="m 2.328125,-4.4375 c 0,-0.1875 0,-0.1875 -0.203125,-0.1875 -0.453125,0.4375 -1.078125,0.4375 -1.359375,0.4375 l 0,0.25 c 0.15625,0 0.625,0 1,-0.1875 l 0,3.546875 c 0,0.234375 0,0.328125 -0.6875,0.328125 l -0.265625,0 0,0.25 c 0.125,0 0.984375,-0.03125 1.234375,-0.03125 0.21875,0 1.09375,0.03125 1.25,0.03125 l 0,-0.25 -0.265625,0 c -0.703125,0 -0.703125,-0.09375 -0.703125,-0.328125 z m 0,0"
           id="path4470" /></symbol><symbol
         style="overflow:visible"
         overflow="visible"
         id="textext-ee39e0a2-16"><path
           inkscape:connector-curvature="0"
           style="stroke:none"
           d="m 3.515625,-1.265625 -0.234375,0 c -0.015625,0.15625 -0.09375,0.5625 -0.1875,0.625 -0.046875,0.046875 -0.578125,0.046875 -0.6875,0.046875 l -1.28125,0 c 0.734375,-0.640625 0.984375,-0.84375 1.390625,-1.171875 0.515625,-0.40625 1,-0.84375 1,-1.5 0,-0.84375 -0.734375,-1.359375 -1.625,-1.359375 -0.859375,0 -1.453125,0.609375 -1.453125,1.25 0,0.34375 0.296875,0.390625 0.375,0.390625 0.15625,0 0.359375,-0.125 0.359375,-0.375 0,-0.125 -0.046875,-0.375 -0.40625,-0.375 C 0.984375,-4.21875 1.453125,-4.375 1.78125,-4.375 c 0.703125,0 1.0625,0.546875 1.0625,1.109375 0,0.609375 -0.4375,1.078125 -0.65625,1.328125 L 0.515625,-0.265625 C 0.4375,-0.203125 0.4375,-0.1875 0.4375,0 l 2.875,0 z m 0,0"
           id="path4473" /></symbol><symbol
         style="overflow:visible"
         overflow="visible"
         id="textext-ee39e0a2-17"><path
           inkscape:connector-curvature="0"
           style="stroke:none"
           d=""
           id="path4476" /></symbol><symbol
         style="overflow:visible"
         overflow="visible"
         id="textext-ee39e0a2-18"><path
           inkscape:connector-curvature="0"
           style="stroke:none"
           d="m 2.90625,-4.875 -0.421875,-0.015625 -2,6 0.421875,0.03125 z m 0,0"
           id="path4479" /></symbol></g></defs><g
     id="textext-ee39e0a2-19"><g
       style="fill:#000000;fill-opacity:1"
       id="g4482"><use
         height="100%"
         width="100%"
         xlink:href="#textext-ee39e0a2-1"
         x="223.96001"
         y="134.765"
         id="use4484" /></g><g
       style="fill:#000000;fill-opacity:1"
       id="g4486"><use
         height="100%"
         width="100%"
         xlink:href="#textext-ee39e0a2-3"
         x="230.66499"
         y="134.765"
         id="use4488" /></g><g
       style="fill:#000000;fill-opacity:1"
       id="g4490"><use
         height="100%"
         width="100%"
         xlink:href="#textext-ee39e0a2-5"
         x="235.86501"
         y="134.765"
         id="use4492" /></g><g
       style="fill:#000000;fill-opacity:1"
       id="g4494"><use
         height="100%"
         width="100%"
         xlink:href="#textext-ee39e0a2-1"
         x="239.91"
         y="134.765"
         id="use4496" /></g><g
       style="fill:#000000;fill-opacity:1"
       id="g4498"><use
         height="100%"
         width="100%"
         xlink:href="#textext-ee39e0a2-6"
         x="246.29601"
         y="134.765"
         id="use4500" /></g><g
       style="fill:#000000;fill-opacity:1"
       id="g4502"><use
         height="100%"
         width="100%"
         xlink:href="#textext-ee39e0a2-8"
         x="251.673"
         y="134.765"
         id="use4504" /><use
         height="100%"
         width="100%"
         xlink:href="#textext-ee39e0a2-9"
         x="254.44061"
         y="134.765"
         id="use4506" /><use
         height="100%"
         width="100%"
         xlink:href="#textext-ee39e0a2-10"
         x="257.48517"
         y="134.765"
         id="use4508" /></g><g
       style="fill:#000000;fill-opacity:1"
       id="g4510"><use
         height="100%"
         width="100%"
         xlink:href="#textext-ee39e0a2-13"
         x="265.78699"
         y="131.14799"
         id="use4512" /></g><g
       style="fill:#000000;fill-opacity:1"
       id="g4514"><use
         height="100%"
         width="100%"
         xlink:href="#textext-ee39e0a2-15"
         x="270.41199"
         y="131.14799"
         id="use4516" /></g><g
       style="fill:#000000;fill-opacity:1"
       id="g4518"><use
         height="100%"
         width="100%"
         xlink:href="#textext-ee39e0a2-18"
         x="274.332"
         y="131.14799"
         id="use4520" /></g><g
       style="fill:#000000;fill-opacity:1"
       id="g4522"><use
         height="100%"
         width="100%"
         xlink:href="#textext-ee39e0a2-16"
         x="277.685"
         y="131.14799"
         id="use4524" /></g><g
       style="fill:#000000;fill-opacity:1"
       id="g4526"><use
         height="100%"
         width="100%"
         xlink:href="#textext-ee39e0a2-11"
         x="282.15399"
         y="134.765"
         id="use4528" /></g></g></g><g
   id="g4863"
   transform="matrix(1.4290596,0,0,-1.4290596,-138.67575,206.02378)"
   ns0:preamble="/home/yoshidak/.config/inkscape/preamble.txt"
   ns0:text="$R$\\,(fm)"><defs
     id="defs4865"><g
       id="g4867"><symbol
         style="overflow:visible"
         id="textext-c4e76162-0"
         overflow="visible"><path
           inkscape:connector-curvature="0"
           id="path4870"
           d=""
           style="stroke:none" /></symbol><symbol
         style="overflow:visible"
         id="textext-c4e76162-1"
         overflow="visible"><path
           inkscape:connector-curvature="0"
           id="path4873"
           d="M 5.65625,-0.15625 C 5.21875,-0.1875 5.015625,-0.359375 4.828125,-0.875 l -0.9375,-2.4375 C 4.671875,-3.484375 5,-3.625 5.359375,-3.953125 c 0.328125,-0.28125 0.5,-0.671875 0.5,-1.125 0,-0.921875 -0.734375,-1.4375 -2.078125,-1.4375 l -2.46875,0 0,0.171875 c 0.421875,0.046875 0.46875,0.0625 0.578125,0.140625 0.078125,0.046875 0.140625,0.15625 0.140625,0.265625 0,0.125 -0.0625,0.359375 -0.125,0.640625 l -1.234375,4.40625 C 0.5,-0.3125 0.421875,-0.25 -0.125,-0.15625 l 0,0.15625 2.421875,0 0,-0.15625 C 1.6875,-0.234375 1.625,-0.296875 1.625,-0.625 c 0,-0.09375 0.03125,-0.21875 0.125,-0.578125 L 2.296875,-3.28125 2.953125,-3.234375 4.171875,0 5.65625,0 Z M 3.078125,-5.9375 c 0.046875,-0.203125 0.1875,-0.265625 0.5,-0.265625 0.828125,0 1.234375,0.375 1.234375,1.109375 0,0.984375 -0.640625,1.5 -1.875,1.5 -0.171875,0 -0.28125,-0.015625 -0.515625,-0.0625 z m 0,0"
           style="stroke:none" /></symbol><symbol
         style="overflow:visible"
         id="textext-c4e76162-2"
         overflow="visible"><path
           inkscape:connector-curvature="0"
           id="path4876"
           d=""
           style="stroke:none" /></symbol><symbol
         style="overflow:visible"
         id="textext-c4e76162-3"
         overflow="visible"><path
           inkscape:connector-curvature="0"
           id="path4879"
           d="m 3.296875,2.390625 c 0,-0.03125 0,-0.046875 -0.171875,-0.21875 C 1.890625,0.921875 1.5625,-0.96875 1.5625,-2.5 c 0,-1.734375 0.375,-3.46875 1.609375,-4.703125 0.125,-0.125 0.125,-0.140625 0.125,-0.171875 0,-0.078125 -0.03125,-0.109375 -0.09375,-0.109375 -0.109375,0 -1,0.6875 -1.59375,1.953125 -0.5,1.09375 -0.625,2.203125 -0.625,3.03125 0,0.78125 0.109375,1.984375 0.65625,3.125 C 2.25,1.84375 3.09375,2.5 3.203125,2.5 c 0.0625,0 0.09375,-0.03125 0.09375,-0.109375 z m 0,0"
           style="stroke:none" /></symbol><symbol
         style="overflow:visible"
         id="textext-c4e76162-4"
         overflow="visible"><path
           inkscape:connector-curvature="0"
           id="path4882"
           d="m 1.75,-4.296875 0,-1.15625 c 0,-0.875 0.46875,-1.359375 0.90625,-1.359375 0.03125,0 0.1875,0 0.328125,0.078125 C 2.875,-6.703125 2.6875,-6.5625 2.6875,-6.3125 c 0,0.21875 0.15625,0.421875 0.4375,0.421875 0.28125,0 0.4375,-0.203125 0.4375,-0.4375 0,-0.375 -0.375,-0.703125 -0.90625,-0.703125 -0.6875,0 -1.546875,0.53125 -1.546875,1.59375 l 0,1.140625 -0.78125,0 0,0.3125 0.78125,0 0,3.234375 c 0,0.4375 -0.109375,0.4375 -0.765625,0.4375 l 0,0.3125 c 0.390625,-0.015625 0.859375,-0.03125 1.125,-0.03125 0.40625,0 0.875,0 1.265625,0.03125 l 0,-0.3125 -0.203125,0 c -0.734375,0 -0.75,-0.109375 -0.75,-0.46875 l 0,-3.203125 1.125,0 0,-0.3125 z m 0,0"
           style="stroke:none" /></symbol><symbol
         style="overflow:visible"
         id="textext-c4e76162-5"
         overflow="visible"><path
           inkscape:connector-curvature="0"
           id="path4885"
           d="m 1.09375,-3.421875 0,2.671875 c 0,0.4375 -0.109375,0.4375 -0.78125,0.4375 l 0,0.3125 c 0.359375,-0.015625 0.859375,-0.03125 1.140625,-0.03125 0.25,0 0.765625,0.015625 1.109375,0.03125 l 0,-0.3125 c -0.671875,0 -0.78125,0 -0.78125,-0.4375 l 0,-1.84375 C 1.78125,-3.625 2.5,-4.1875 3.125,-4.1875 c 0.640625,0 0.75,0.53125 0.75,1.109375 l 0,2.328125 c 0,0.4375 -0.109375,0.4375 -0.78125,0.4375 l 0,0.3125 c 0.34375,-0.015625 0.859375,-0.03125 1.125,-0.03125 0.25,0 0.78125,0.015625 1.109375,0.03125 l 0,-0.3125 c -0.65625,0 -0.765625,0 -0.765625,-0.4375 l 0,-1.84375 c 0,-1.03125 0.703125,-1.59375 1.34375,-1.59375 0.625,0 0.734375,0.53125 0.734375,1.109375 l 0,2.328125 c 0,0.4375 -0.109375,0.4375 -0.78125,0.4375 l 0,0.3125 c 0.34375,-0.015625 0.859375,-0.03125 1.125,-0.03125 0.265625,0 0.78125,0.015625 1.125,0.03125 l 0,-0.3125 c -0.515625,0 -0.765625,0 -0.78125,-0.296875 l 0,-1.90625 c 0,-0.859375 0,-1.15625 -0.3125,-1.515625 -0.140625,-0.171875 -0.46875,-0.375 -1.046875,-0.375 -0.828125,0 -1.28125,0.59375 -1.4375,0.984375 C 4.390625,-4.296875 3.65625,-4.40625 3.203125,-4.40625 2.46875,-4.40625 2,-3.984375 1.71875,-3.359375 l 0,-1.046875 -1.40625,0.109375 0,0.3125 c 0.703125,0 0.78125,0.0625 0.78125,0.5625 z m 0,0"
           style="stroke:none" /></symbol><symbol
         style="overflow:visible"
         id="textext-c4e76162-6"
         overflow="visible"><path
           inkscape:connector-curvature="0"
           id="path4888"
           d="m 2.875,-2.5 c 0,-0.765625 -0.109375,-1.96875 -0.65625,-3.109375 -0.59375,-1.21875 -1.453125,-1.875 -1.546875,-1.875 -0.0625,0 -0.109375,0.046875 -0.109375,0.109375 0,0.03125 0,0.046875 0.1875,0.234375 0.984375,0.984375 1.546875,2.5625 1.546875,4.640625 0,1.71875 -0.359375,3.46875 -1.59375,4.71875 C 0.5625,2.34375 0.5625,2.359375 0.5625,2.390625 0.5625,2.453125 0.609375,2.5 0.671875,2.5 0.765625,2.5 1.671875,1.8125 2.25,0.546875 2.765625,-0.546875 2.875,-1.65625 2.875,-2.5 Z m 0,0"
           style="stroke:none" /></symbol></g></defs><g
     id="textext-c4e76162-7"><g
       id="g4891"
       style="fill:#000000;fill-opacity:1"><use
         height="100%"
         width="100%"
         id="use4893"
         y="134.765"
         x="223.96001"
         xlink:href="#textext-c4e76162-1" /></g><g
       id="g4895"
       style="fill:#000000;fill-opacity:1"><use
         height="100%"
         width="100%"
         id="use4897"
         y="134.765"
         x="231.808"
         xlink:href="#textext-c4e76162-3" /><use
         height="100%"
         width="100%"
         id="use4899"
         y="134.765"
         x="235.68245"
         xlink:href="#textext-c4e76162-4" /><use
         height="100%"
         width="100%"
         id="use4901"
         y="134.765"
         x="238.72702"
         xlink:href="#textext-c4e76162-5" /><use
         height="100%"
         width="100%"
         id="use4903"
         y="134.765"
         x="247.02885"
         xlink:href="#textext-c4e76162-6" /></g></g></g><g
   id="g4300"><text
   transform="scale(1,-1)"
   y="-150.97417"
   x="239.67686"
   id="text298"
   style="font-variant:normal;font-weight:normal;line-height:0%;font-family:'Times New Roman';-inkscape-font-specification:TimesNewRomanPSMT;writing-mode:lr-tb;fill:#000000;fill-opacity:1;fill-rule:nonzero;stroke:none"><tspan
     id="tspan300"
     sodipodi:role="line"
     y="-150.97417"
     x="239.67686 245.18117 248.84007 251.90163 257.39502 260.45657 265.96088 270.83557"
     style="font-size:10.66699982px;line-height:1.25">original</tspan></text>

<path
   d="m 211.65725,153.52633 25.14799,0"
   style="fill:none;stroke:#ff0000;stroke-width:1;stroke-linecap:butt;stroke-linejoin:miter;stroke-miterlimit:3.79999995;stroke-dasharray:5.5, 2.2;stroke-dashoffset:0;stroke-opacity:1"
   id="path302"
   inkscape:connector-curvature="0" /></g><g
   id="g4310"><path
   d="m 211.65725,118.05295 25.14799,0"
   style="fill:none;stroke:#0000ff;stroke-width:1;stroke-linecap:butt;stroke-linejoin:miter;stroke-miterlimit:3.79999995;stroke-dasharray:5.5, 1.375, 1.375, 1.375;stroke-dashoffset:0;stroke-opacity:1"
   id="path312"
   inkscape:connector-curvature="0" /><text
   transform="scale(1,-1)"
   y="-115.57595"
   x="239.71852"
   id="text318"
   style="font-variant:normal;font-weight:normal;line-height:0%;font-family:'Times New Roman';-inkscape-font-specification:TimesNewRomanPSMT;writing-mode:lr-tb;fill:#000000;fill-opacity:1;fill-rule:nonzero;stroke:none"><tspan
     id="tspan320"
     sodipodi:role="line"
     style="font-size:10.66699982px;line-height:1.25"
     x="239.71852"
     y="-115.57595">shorter tail</tspan></text>

</g><g
   id="g4305"
   transform="translate(0,0.52877197)"><text
   transform="scale(1,-1)"
   y="-133.27496"
   x="239.71852"
   id="text308"
   style="font-variant:normal;font-weight:normal;line-height:0%;font-family:'Times New Roman';-inkscape-font-specification:TimesNewRomanPSMT;writing-mode:lr-tb;fill:#000000;fill-opacity:1;fill-rule:nonzero;stroke:none"><tspan
     id="tspan310"
     sodipodi:role="line"
     style="font-size:10.66699982px;line-height:1.25"
     x="239.71852"
     y="-133.27496">smaller peak</tspan></text>

<path
   d="m 211.65725,135.83754 25.14799,0"
   style="fill:none;stroke:#008800;stroke-width:1;stroke-linecap:butt;stroke-linejoin:miter;stroke-miterlimit:3.79999995;stroke-dasharray:1.375, 1.375;stroke-dashoffset:0;stroke-opacity:1"
   id="path322"
   inkscape:connector-curvature="0" /></g></g></svg>