<?xml version="1.0" encoding="UTF-8" standalone="no"?>
<!-- Created with matplotlib (https://matplotlib.org/) -->

<svg
   xmlns:dc="http://purl.org/dc/elements/1.1/"
   xmlns:cc="http://creativecommons.org/ns#"
   xmlns:rdf="http://www.w3.org/1999/02/22-rdf-syntax-ns#"
   xmlns:svg="http://www.w3.org/2000/svg"
   xmlns="http://www.w3.org/2000/svg"
   xmlns:xlink="http://www.w3.org/1999/xlink"
   xmlns:sodipodi="http://sodipodi.sourceforge.net/DTD/sodipodi-0.dtd"
   xmlns:inkscape="http://www.inkscape.org/namespaces/inkscape"
   height="369.535313pt"
   version="1.1"
   viewBox="0 0 458.783437 369.535313"
   width="458.783437pt"
   id="svg405"
   sodipodi:docname="search_tmd2.svg"
   inkscape:version="0.92.5 (2060ec1f9f, 2020-04-08)">
  <sodipodi:namedview
     pagecolor="#ffffff"
     bordercolor="#666666"
     borderopacity="1"
     objecttolerance="10"
     gridtolerance="10"
     guidetolerance="10"
     inkscape:pageopacity="0"
     inkscape:pageshadow="2"
     inkscape:window-width="1920"
     inkscape:window-height="1018"
     id="namedview407"
     showgrid="false"
     inkscape:zoom="0.95795988"
     inkscape:cx="417.78216"
     inkscape:cy="193.94352"
     inkscape:window-x="0"
     inkscape:window-y="0"
     inkscape:window-maximized="1"
     inkscape:current-layer="svg405" />
  <metadata
     id="metadata2">
    <rdf:RDF>
      <cc:Work>
        <dc:type
           rdf:resource="http://purl.org/dc/dcmitype/StillImage" />
        <dc:date>2021-01-14T20:05:07.372384</dc:date>
        <dc:format>image/svg+xml</dc:format>
        <dc:creator>
          <cc:Agent>
            <dc:title>Matplotlib v3.3.2, https://matplotlib.org/</dc:title>
          </cc:Agent>
        </dc:creator>
      </cc:Work>
    </rdf:RDF>
  </metadata>
  <defs
     id="defs6">
    <style
       type="text/css"
       id="style4">*{stroke-linecap:butt;stroke-linejoin:round;}</style>
    <defs
       id="defs353">
      <path
         style="stroke-linecap:butt;stroke-linejoin:round"
         inkscape:connector-curvature="0"
         id="ArialMT-65"
         d="M -0.140625,0 27.34375,71.578125 H 37.546875 L 66.84375,0 H 56.0625 L 47.703125,21.6875 H 17.78125 L 9.90625,0 Z m 20.65625,29.390625 H 44.78125 L 37.3125,49.21875 Q 33.890625,58.25 32.234375,64.0625 30.859375,57.171875 28.375,50.390625 Z" />
    </defs>
    <defs
       id="defs370">
      <path
         style="stroke-linecap:butt;stroke-linejoin:round"
         inkscape:connector-curvature="0"
         id="DejaVuSans-48"
         d="m 31.78125,66.40625 q -7.609375,0 -11.453125,-7.5 Q 16.5,51.421875 16.5,36.375 q 0,-14.984375 3.828125,-22.484375 3.84375,-7.5 11.453125,-7.5 7.671875,0 11.5,7.5 3.84375,7.5 3.84375,22.484375 0,15.046875 -3.84375,22.53125 -3.828125,7.5 -11.5,7.5 z m 0,7.8125 q 12.265625,0 18.734375,-9.703125 6.46875,-9.6875 6.46875,-28.140625 0,-18.40625 -6.46875,-28.109375 -6.46875,-9.6875 -18.734375,-9.6875 -12.25,0 -18.71875,9.6875 Q 6.59375,17.96875 6.59375,36.375 q 0,18.453125 6.46875,28.140625 6.46875,9.703125 18.71875,9.703125 z" />
      <path
         style="stroke-linecap:butt;stroke-linejoin:round"
         inkscape:connector-curvature="0"
         id="DejaVuSans-61"
         d="M 10.59375,45.40625 H 73.1875 V 37.203125 H 10.59375 Z m 0,-19.921875 H 73.1875 V 17.1875 H 10.59375 Z" />
    </defs>
    <defs
       id="defs187">
      <path
         inkscape:connector-curvature="0"
         style="stroke:#000000;stroke-width:0.80000001;stroke-linecap:butt;stroke-linejoin:round"
         id="m83049da73b"
         d="M 0,0 H -3.5" />
    </defs>
    <defs
       id="defs179">
      <path
         inkscape:connector-curvature="0"
         style="stroke:#000000;stroke-width:0.80000001;stroke-linecap:butt;stroke-linejoin:round"
         id="m75afcdf953"
         d="M 0,0 H 3.5" />
    </defs>
    <defs
       id="defs293">
      <path
         style="stroke-linecap:butt;stroke-linejoin:round"
         inkscape:connector-curvature="0"
         id="ArialMT-84"
         d="M 25.921875,0 V 63.140625 H 2.34375 v 8.4375 h 56.734375 v -8.4375 H 35.40625 V 0 Z" />
      <path
         style="stroke-linecap:butt;stroke-linejoin:round"
         inkscape:connector-curvature="0"
         id="ArialMT-77"
         d="M 7.421875,0 V 71.578125 H 21.6875 L 38.625,20.90625 q 2.34375,-7.09375 3.421875,-10.609375 1.21875,3.90625 3.796875,11.484375 l 17.140625,49.796875 h 12.75 V 0 h -9.125 V 59.90625 L 45.796875,0 H 37.25 L 16.546875,60.9375 V 0 Z" />
      <path
         style="stroke-linecap:butt;stroke-linejoin:round"
         inkscape:connector-curvature="0"
         id="ArialMT-68"
         d="M 7.71875,0 V 71.578125 H 32.375 q 8.34375,0 12.75,-1.015625 6.140625,-1.421875 10.484375,-5.125 5.671875,-4.796875 8.46875,-12.25 2.8125,-7.4375 2.8125,-17 0,-8.15625 -1.90625,-14.453125 -1.890625,-6.296875 -4.875,-10.4375 -2.984375,-4.125 -6.53125,-6.5 Q 50.046875,2.4375 45.046875,1.21875 40.046875,0 33.546875,0 Z m 9.46875,8.453125 h 15.28125 q 7.078125,0 11.109375,1.3125 4.03125,1.3125 6.421875,3.71875 3.375,3.359375 5.25,9.046875 1.875,5.6875 1.875,13.796875 0,11.234375 -3.6875,17.265625 -3.6875,6.03125 -8.953125,8.078125 -3.8125,1.46875 -12.25,1.46875 H 17.1875 Z" />
      <path
         style="stroke-linecap:butt;stroke-linejoin:round"
         inkscape:connector-curvature="0"
         id="DejaVuSans-215"
         d="M 70.125,53.71875 47.796875,31.296875 70.125,8.984375 64.3125,3.078125 41.890625,25.484375 19.484375,3.078125 13.71875,8.984375 35.984375,31.296875 13.71875,53.71875 19.484375,59.625 41.890625,37.203125 64.3125,59.625 Z" />
      <path
         style="stroke-linecap:butt;stroke-linejoin:round"
         inkscape:connector-curvature="0"
         id="DejaVuSans-Oblique-83"
         d="m 60.296875,70.515625 -1.890625,-9.625 q -4.9375,2.640625 -9.796875,3.984375 -4.859375,1.34375 -9.40625,1.34375 -8.828125,0 -14.0625,-3.859375 Q 19.921875,58.5 19.921875,52.09375 q 0,-3.515625 1.921875,-5.390625 1.9375,-1.875 9.9375,-4.03125 l 5.921875,-1.453125 q 10,-2.59375 13.90625,-6.578125 3.90625,-3.96875 3.90625,-11.15625 0,-11.03125 -8.671875,-17.96875 -8.65625,-6.9375 -22.8125,-6.9375 -5.8125,0 -11.671875,1.15625 Q 6.5,0.875 0.59375,3.21875 l 2,10.15625 Q 8.015625,10.015625 13.453125,8.296875 18.890625,6.59375 24.3125,6.59375 q 9.234375,0 14.796875,4.09375 5.5625,4.109375 5.5625,10.703125 0,4.390625 -2.21875,6.65625 -2.21875,2.28125 -9.546875,4.125 L 27,33.6875 q -10.109375,2.640625 -13.796875,6.078125 -3.6875,3.453125 -3.6875,9.65625 0,10.875 8.375,17.828125 8.375,6.96875 21.8125,6.96875 5.21875,0 10.34375,-0.9375 5.125,-0.921875 10.25,-2.765625 z" />
      <path
         style="stroke-linecap:butt;stroke-linejoin:round"
         inkscape:connector-curvature="0"
         id="DejaVuSans-Oblique-101"
         d="m 48.09375,32.234375 q 0.15625,0.78125 0.21875,1.609375 0.07813,0.828125 0.07813,1.65625 0,5.953125 -3.5,9.421875 -3.484375,3.46875 -9.484375,3.46875 -6.6875,0 -11.828125,-4.234375 -5.125,-4.21875 -7.75,-11.984375 z m 7.8125,-7.03125 H 14.109375 Q 13.8125,23.34375 13.71875,22.265625 13.625,21.1875 13.625,20.40625 q 0,-6.78125 4.171875,-10.5 4.171875,-3.703125 11.796875,-3.703125 5.859375,0 11.078125,1.3125 5.234375,1.328125 9.71875,3.859375 L 48.6875,2.484375 q -4.84375,-1.953125 -10,-2.921875 -5.140625,-0.984375 -10.46875,-0.984375 -11.375,0 -17.5,5.4375 -6.125,5.453125 -6.125,15.46875 0,8.546875 3.046875,15.890625 3.046875,7.34375 8.96875,13.109375 3.796875,3.609375 9.046875,5.5625 Q 30.90625,56 36.8125,56 q 9.28125,0 14.765625,-5.5625 5.5,-5.5625 5.5,-14.9375 0,-2.25 -0.296875,-4.8125 Q 56.5,28.125 55.90625,25.203125 Z" />
      <path
         style="stroke-linecap:butt;stroke-linejoin:round"
         inkscape:connector-curvature="0"
         id="DejaVuSans-Oblique-120"
         d="M 60.015625,54.6875 34.90625,27.875 50.296875,0 h -10.3125 L 28.421875,21.6875 8.296875,0 H -2.59375 L 24.3125,28.8125 10.015625,54.6875 H 20.3125 l 10.5,-19.78125 18.3125,19.78125 z" />
      <path
         style="stroke-linecap:butt;stroke-linejoin:round"
         inkscape:connector-curvature="0"
         id="DejaVuSans-Oblique-112"
         d="m 49.609375,33.6875 q 0,7.1875 -3.125,10.984375 -3.125,3.8125 -8.984375,3.8125 -4,0 -7.640625,-2.046875 Q 26.21875,44.390625 23.390625,40.484375 20.609375,36.625 18.9375,31.15625 17.28125,25.6875 17.28125,20.3125 q 0,-6.828125 3.125,-10.515625 3.125,-3.6875 8.890625,-3.6875 4.25,0 7.890625,2 3.640625,2 6.21875,5.8125 2.78125,4 4.484375,9.421875 1.71875,5.421875 1.71875,10.34375 z M 21.78125,46.390625 Q 25.390625,51.125 30.296875,53.5625 35.203125,56 41.21875,56 49.609375,56 54.25,50.5 58.890625,45.015625 58.890625,35.109375 58.890625,27 56,19.65625 53.125,12.3125 47.703125,6.5 44.09375,2.640625 39.546875,0.609375 q -4.53125,-2.03125 -9.5625,-2.03125 -5.8125,0 -9.765625,2.421875 -3.953125,2.421875 -5.90625,7.203125 l -5.625,-29 H -0.296875 L 14.40625,54.6875 h 8.984375 z" />
    </defs>
    <defs
       id="defs26">
      <path
         inkscape:connector-curvature="0"
         style="stroke:#000000;stroke-width:0.80000001;stroke-linecap:butt;stroke-linejoin:round"
         id="m67fca89e25"
         d="M 0,0 V 3.5" />
    </defs>
    <defs
       id="defs18">
      <path
         inkscape:connector-curvature="0"
         style="stroke:#000000;stroke-width:0.80000001;stroke-linecap:butt;stroke-linejoin:round"
         id="m0ec34de885"
         d="M 0,0 V -3.5" />
    </defs>
    <defs
       id="defs157">
      <path
         style="stroke-linecap:butt;stroke-linejoin:round"
         inkscape:connector-curvature="0"
         id="DejaVuSans-Oblique-82"
         d="m 25.203125,64.796875 -4.984375,-25.875 h 12.6875 q 7.46875,0 12.078125,4.125 4.625,4.125 4.625,10.765625 0,5.3125 -3.109375,8.140625 -3.09375,2.84375 -8.90625,2.84375 z M 43.3125,35.015625 q 3.125,-0.734375 5.203125,-3.625 2.078125,-2.875 4.8125,-11.46875 L 59.515625,0 H 49.125 l -5.71875,18.703125 q -2.1875,7.21875 -5.078125,9.65625 Q 35.453125,30.8125 29.5,30.8125 H 18.609375 L 12.59375,0 H 2.6875 l 14.203125,72.90625 h 22.21875 q 10.109375,0 15.5,-4.578125 5.40625,-4.5625 5.40625,-13.15625 0,-7.609375 -4.59375,-13.1875 -4.59375,-5.5625 -12.109375,-6.96875 z" />
      <path
         style="stroke-linecap:butt;stroke-linejoin:round"
         inkscape:connector-curvature="0"
         d=""
         id="ArialMT-32" />
      <path
         style="stroke-linecap:butt;stroke-linejoin:round"
         inkscape:connector-curvature="0"
         id="ArialMT-40"
         d="m 23.390625,-21.046875 q -7.28125,9.1875 -12.3125,21.484375 Q 6.0625,12.75 6.0625,25.921875 q 0,11.625 3.75,22.265625 4.390625,12.359375 13.578125,24.609375 H 29.6875 q -5.90625,-10.15625 -7.8125,-14.5 -2.984375,-6.734375 -4.6875,-14.0625 -2.09375,-9.125 -2.09375,-18.359375 0,-23.484375 14.59375,-46.921875 z" />
      <path
         style="stroke-linecap:butt;stroke-linejoin:round"
         inkscape:connector-curvature="0"
         id="ArialMT-102"
         d="M 8.6875,0 V 45.015625 H 0.921875 v 6.84375 H 8.6875 V 57.375 q 0,5.21875 0.9375,7.765625 1.265625,3.421875 4.453125,5.53125 3.203125,2.125 8.96875,2.125 3.71875,0 8.203125,-0.875 l -1.3125,-7.65625 Q 27.203125,64.75 24.75,64.75 q -4,0 -5.65625,-1.71875 -1.65625,-1.703125 -1.65625,-6.390625 v -4.78125 h 10.109375 v -6.84375 H 17.4375 V 0 Z" />
      <path
         style="stroke-linecap:butt;stroke-linejoin:round"
         inkscape:connector-curvature="0"
         id="ArialMT-109"
         d="m 6.59375,0 v 51.859375 h 7.859375 v -7.28125 q 2.4375,3.8125 6.484375,6.125 4.0625,2.328125 9.234375,2.328125 5.765625,0 9.453125,-2.390625 3.6875,-2.390625 5.203125,-6.6875 6.15625,9.078125 16.015625,9.078125 7.71875,0 11.859375,-4.28125 4.15625,-4.265625 4.15625,-13.15625 V 0 h -8.75 v 32.671875 q 0,5.265625 -0.859375,7.578125 -0.84375,2.328125 -3.09375,3.734375 -2.234375,1.421875 -5.265625,1.421875 -5.46875,0 -9.09375,-3.640625 Q 46.1875,38.140625 46.1875,30.125 V 0 h -8.78125 v 33.6875 q 0,5.859375 -2.15625,8.78125 -2.140625,2.9375 -7.03125,2.9375 -3.703125,0 -6.859375,-1.953125 Q 18.21875,41.5 16.796875,37.734375 15.375,33.984375 15.375,26.90625 V 0 Z" />
      <path
         style="stroke-linecap:butt;stroke-linejoin:round"
         inkscape:connector-curvature="0"
         id="ArialMT-41"
         d="M 12.359375,-21.046875 H 6.0625 q 14.59375,23.4375 14.59375,46.921875 0,9.1875 -2.09375,18.21875 -1.671875,7.328125 -4.640625,14.0625 -1.90625,4.390625 -7.859375,14.640625 h 6.296875 Q 21.53125,60.546875 25.921875,48.1875 29.6875,37.546875 29.6875,25.921875 29.6875,12.75 24.625,0.4375 19.578125,-11.859375 12.359375,-21.046875 Z" />
    </defs>
    <defs
       id="defs137">
      <path
         d="m 37.25,0 h -8.78125 v 56 q -3.171875,-3.015625 -8.328125,-6.046875 -5.15625,-3.03125 -9.25,-4.546875 v 8.5 q 7.375,3.46875 12.890625,8.390625 5.515625,4.9375 7.8125,9.578125 H 37.25 Z"
         id="ArialMT-49"
         inkscape:connector-curvature="0"
         style="stroke-linecap:butt;stroke-linejoin:round" />
    </defs>
    <defs
       id="defs111">
      <path
         d="m 4.734375,62.203125 v 8.453125 h 46.34375 V 63.8125 Q 44.234375,56.546875 37.515625,44.484375 30.8125,32.421875 27.15625,19.671875 24.515625,10.6875 23.78125,0 H 14.75 q 0.140625,8.453125 3.3125,20.40625 3.171875,11.96875 9.109375,23.078125 5.9375,11.109375 12.625,18.71875 z"
         id="ArialMT-55"
         inkscape:connector-curvature="0"
         style="stroke-linecap:butt;stroke-linejoin:round" />
    </defs>
    <defs
       id="defs62">
      <path
         d="M 50.34375,8.453125 V 0 H 3.03125 Q 2.9375,3.171875 4.046875,6.109375 5.859375,10.9375 9.828125,15.625 13.8125,20.3125 21.34375,26.46875 q 11.671875,9.5625 15.765625,15.15625 4.109375,5.59375 4.109375,10.578125 0,5.21875 -3.75,8.796875 -3.734375,3.59375 -9.734375,3.59375 -6.34375,0 -10.15625,-3.8125 Q 13.765625,56.984375 13.71875,50.25 L 4.6875,51.171875 q 0.921875,10.109375 6.96875,15.40625 6.0625,5.296875 16.28125,5.296875 10.296875,0 16.296875,-5.71875 Q 50.25,60.453125 50.25,52 50.25,47.703125 48.484375,43.546875 46.734375,39.40625 42.65625,34.8125 38.578125,30.21875 29.109375,22.21875 21.1875,15.578125 18.9375,13.203125 q -2.234375,-2.359375 -3.703125,-4.75 z"
         id="ArialMT-50"
         inkscape:connector-curvature="0"
         style="stroke-linecap:butt;stroke-linejoin:round" />
      <path
         d="M 4.15625,18.75 13.375,19.53125 Q 14.40625,12.796875 18.140625,9.390625 21.875,6 27.15625,6 33.5,6 37.890625,10.78125 42.28125,15.578125 42.28125,23.484375 42.28125,31 38.0625,35.34375 33.84375,39.703125 27,39.703125 q -4.25,0 -7.671875,-1.9375 -3.40625,-1.921875 -5.359375,-5 l -8.25,1.078125 6.921875,36.765625 H 48.25 v -8.40625 H 19.671875 L 15.828125,42.96875 q 6.4375,4.5 13.515625,4.5 9.375,0 15.8125,-6.5 6.453125,-6.5 6.453125,-16.703125 0,-9.71875 -5.65625,-16.796875 -6.890625,-8.6875 -18.796875,-8.6875 -9.765625,0 -15.953125,5.46875 Q 5.03125,9.71875 4.15625,18.75 Z"
         id="ArialMT-53"
         inkscape:connector-curvature="0"
         style="stroke-linecap:butt;stroke-linejoin:round" />
    </defs>
    <defs
       id="defs35">
      <path
         d="m 4.15625,35.296875 q 0,12.703125 2.609375,20.4375 2.609375,7.75 7.75,11.9375 5.15625,4.203125 12.96875,4.203125 5.765625,0 10.109375,-2.328125 4.34375,-2.3125 7.171875,-6.6875 Q 47.609375,58.5 49.21875,52.21875 q 1.609375,-6.265625 1.609375,-16.921875 0,-12.59375 -2.59375,-20.328125 Q 45.65625,7.234375 40.5,3 35.359375,-1.21875 27.484375,-1.21875 q -10.34375,0 -16.25,7.421875 -7.078125,8.9375 -7.078125,29.09375 z m 9.03125,0 q 0,-17.625 4.125,-23.46875 Q 21.4375,6 27.484375,6 q 6.0625,0 10.1875,5.859375 4.125,5.859375 4.125,23.4375 0,17.6875 -4.125,23.484375 -4.125,5.8125 -10.28125,5.8125 -6.046875,0 -9.671875,-5.125 Q 13.1875,52.9375 13.1875,35.296875 Z"
         id="ArialMT-48"
         inkscape:connector-curvature="0"
         style="stroke-linecap:butt;stroke-linejoin:round" />
      <path
         d="M 9.078125,0 V 10.015625 H 19.09375 V 0 Z"
         id="ArialMT-46"
         inkscape:connector-curvature="0"
         style="stroke-linecap:butt;stroke-linejoin:round" />
    </defs>
    <defs
       id="defs195">
      <path
         d="M 52.828125,31.203125 H 5.5625 v 8.203125 h 47.265625 z"
         id="ArialMT-8722"
         inkscape:connector-curvature="0"
         style="stroke-linecap:butt;stroke-linejoin:round" />
    </defs>
  </defs>
  <path
     inkscape:connector-curvature="0"
     id="path14"
     style="fill:none;stroke:#b0b0b0;stroke-width:0.80000001;stroke-linecap:square;stroke-linejoin:round"
     d="M 60.983438,310.71562 V 33.515625"
     clip-path="url(#pd66d1ed597)" />
  <use
     style="stroke:#000000;stroke-width:0.80000001;stroke-linecap:butt;stroke-linejoin:round"
     x="60.983437"
     xlink:href="#m0ec34de885"
     y="310.71564"
     id="use20"
     width="100%"
     height="100%" />
  <use
     style="stroke:#000000;stroke-width:0.80000001;stroke-linecap:butt;stroke-linejoin:round"
     x="60.983437"
     xlink:href="#m67fca89e25"
     y="33.515625"
     id="use28"
     width="100%"
     height="100%" />
  <use
     xlink:href="#ArialMT-48"
     id="use37"
     style="stroke-linecap:butt;stroke-linejoin:round"
     x="0"
     y="0"
     width="100%"
     height="100%"
     transform="matrix(0.22,0,0,-0.22,45.693438,334.96281)" />
  <use
     x="55.615234"
     xlink:href="#ArialMT-46"
     id="use39"
     style="stroke-linecap:butt;stroke-linejoin:round"
     y="0"
     width="100%"
     height="100%"
     transform="matrix(0.22,0,0,-0.22,45.693438,334.96281)" />
  <use
     x="83.398438"
     xlink:href="#ArialMT-48"
     id="use41"
     style="stroke-linecap:butt;stroke-linejoin:round"
     y="0"
     width="100%"
     height="100%"
     transform="matrix(0.22,0,0,-0.22,45.693438,334.96281)" />
  <path
     inkscape:connector-curvature="0"
     id="path47"
     style="fill:none;stroke:#b0b0b0;stroke-width:0.80000001;stroke-linecap:square;stroke-linejoin:round"
     d="M 142.35844,310.71562 V 33.515625"
     clip-path="url(#pd66d1ed597)" />
  <use
     style="stroke:#000000;stroke-width:0.80000001;stroke-linecap:butt;stroke-linejoin:round"
     x="142.35844"
     xlink:href="#m0ec34de885"
     y="310.71564"
     id="use50"
     width="100%"
     height="100%" />
  <use
     style="stroke:#000000;stroke-width:0.80000001;stroke-linecap:butt;stroke-linejoin:round"
     x="142.35844"
     xlink:href="#m67fca89e25"
     y="33.515625"
     id="use55"
     width="100%"
     height="100%" />
  <use
     xlink:href="#ArialMT-50"
     id="use64"
     style="stroke-linecap:butt;stroke-linejoin:round"
     x="0"
     y="0"
     width="100%"
     height="100%"
     transform="matrix(0.22,0,0,-0.22,127.06844,334.96281)" />
  <use
     x="55.615234"
     xlink:href="#ArialMT-46"
     id="use66"
     style="stroke-linecap:butt;stroke-linejoin:round"
     y="0"
     width="100%"
     height="100%"
     transform="matrix(0.22,0,0,-0.22,127.06844,334.96281)" />
  <use
     x="83.398438"
     xlink:href="#ArialMT-53"
     id="use68"
     style="stroke-linecap:butt;stroke-linejoin:round"
     y="0"
     width="100%"
     height="100%"
     transform="matrix(0.22,0,0,-0.22,127.06844,334.96281)" />
  <path
     inkscape:connector-curvature="0"
     id="path74"
     style="fill:none;stroke:#b0b0b0;stroke-width:0.80000001;stroke-linecap:square;stroke-linejoin:round"
     d="M 223.73344,310.71562 V 33.515625"
     clip-path="url(#pd66d1ed597)" />
  <use
     style="stroke:#000000;stroke-width:0.80000001;stroke-linecap:butt;stroke-linejoin:round"
     x="223.73344"
     xlink:href="#m0ec34de885"
     y="310.71564"
     id="use77"
     width="100%"
     height="100%" />
  <use
     style="stroke:#000000;stroke-width:0.80000001;stroke-linecap:butt;stroke-linejoin:round"
     x="223.73344"
     xlink:href="#m67fca89e25"
     y="33.515625"
     id="use82"
     width="100%"
     height="100%" />
  <use
     xlink:href="#ArialMT-53"
     id="use87"
     style="stroke-linecap:butt;stroke-linejoin:round"
     x="0"
     y="0"
     width="100%"
     height="100%"
     transform="matrix(0.22,0,0,-0.22,208.44344,334.96281)" />
  <use
     x="55.615234"
     xlink:href="#ArialMT-46"
     id="use89"
     style="stroke-linecap:butt;stroke-linejoin:round"
     y="0"
     width="100%"
     height="100%"
     transform="matrix(0.22,0,0,-0.22,208.44344,334.96281)" />
  <use
     x="83.398438"
     xlink:href="#ArialMT-48"
     id="use91"
     style="stroke-linecap:butt;stroke-linejoin:round"
     y="0"
     width="100%"
     height="100%"
     transform="matrix(0.22,0,0,-0.22,208.44344,334.96281)" />
  <path
     inkscape:connector-curvature="0"
     id="path97"
     style="fill:none;stroke:#b0b0b0;stroke-width:0.80000001;stroke-linecap:square;stroke-linejoin:round"
     d="M 305.10844,310.71562 V 33.515625"
     clip-path="url(#pd66d1ed597)" />
  <use
     style="stroke:#000000;stroke-width:0.80000001;stroke-linecap:butt;stroke-linejoin:round"
     x="305.10843"
     xlink:href="#m0ec34de885"
     y="310.71564"
     id="use100"
     width="100%"
     height="100%" />
  <use
     style="stroke:#000000;stroke-width:0.80000001;stroke-linecap:butt;stroke-linejoin:round"
     x="305.10843"
     xlink:href="#m67fca89e25"
     y="33.515625"
     id="use105"
     width="100%"
     height="100%" />
  <use
     xlink:href="#ArialMT-55"
     id="use113"
     style="stroke-linecap:butt;stroke-linejoin:round"
     x="0"
     y="0"
     width="100%"
     height="100%"
     transform="matrix(0.22,0,0,-0.22,289.81844,334.96281)" />
  <use
     x="55.615234"
     xlink:href="#ArialMT-46"
     id="use115"
     style="stroke-linecap:butt;stroke-linejoin:round"
     y="0"
     width="100%"
     height="100%"
     transform="matrix(0.22,0,0,-0.22,289.81844,334.96281)" />
  <use
     x="83.398438"
     xlink:href="#ArialMT-53"
     id="use117"
     style="stroke-linecap:butt;stroke-linejoin:round"
     y="0"
     width="100%"
     height="100%"
     transform="matrix(0.22,0,0,-0.22,289.81844,334.96281)" />
  <path
     inkscape:connector-curvature="0"
     id="path123"
     style="fill:none;stroke:#b0b0b0;stroke-width:0.80000001;stroke-linecap:square;stroke-linejoin:round"
     d="M 386.48344,310.71562 V 33.515625"
     clip-path="url(#pd66d1ed597)" />
  <use
     style="stroke:#000000;stroke-width:0.80000001;stroke-linecap:butt;stroke-linejoin:round"
     x="386.48343"
     xlink:href="#m0ec34de885"
     y="310.71564"
     id="use126"
     width="100%"
     height="100%" />
  <use
     style="stroke:#000000;stroke-width:0.80000001;stroke-linecap:butt;stroke-linejoin:round"
     x="386.48343"
     xlink:href="#m67fca89e25"
     y="33.515625"
     id="use131"
     width="100%"
     height="100%" />
  <use
     xlink:href="#ArialMT-49"
     id="use139"
     style="stroke-linecap:butt;stroke-linejoin:round"
     x="0"
     y="0"
     width="100%"
     height="100%"
     transform="matrix(0.22,0,0,-0.22,365.07641,334.96281)" />
  <use
     x="55.615234"
     xlink:href="#ArialMT-48"
     id="use141"
     style="stroke-linecap:butt;stroke-linejoin:round"
     y="0"
     width="100%"
     height="100%"
     transform="matrix(0.22,0,0,-0.22,365.07641,334.96281)" />
  <use
     x="111.23047"
     xlink:href="#ArialMT-46"
     id="use143"
     style="stroke-linecap:butt;stroke-linejoin:round"
     y="0"
     width="100%"
     height="100%"
     transform="matrix(0.22,0,0,-0.22,365.07641,334.96281)" />
  <use
     x="139.01367"
     xlink:href="#ArialMT-48"
     id="use145"
     style="stroke-linecap:butt;stroke-linejoin:round"
     y="0"
     width="100%"
     height="100%"
     transform="matrix(0.22,0,0,-0.22,365.07641,334.96281)" />
  <use
     height="100%"
     width="100%"
     y="0"
     x="0"
     style="stroke-linecap:butt;stroke-linejoin:round"
     id="use159"
     xlink:href="#DejaVuSans-Oblique-82"
     transform="matrix(0.23535403,0,0,-0.23535403,193.17118,360.49409)" />
  <use
     height="100%"
     width="100%"
     y="0"
     x="0"
     style="stroke-linecap:butt;stroke-linejoin:round"
     id="use161"
     xlink:href="#ArialMT-32"
     transform="matrix(0.2,0,0,-0.2,242.67992,357.91656)" />
  <use
     height="100%"
     width="100%"
     y="0"
     x="0"
     style="stroke-linecap:butt;stroke-linejoin:round"
     id="use163"
     xlink:href="#ArialMT-40"
     transform="matrix(0.23535403,0,0,-0.23535403,216.06304,360.49409)" />
  <use
     height="100%"
     width="100%"
     y="0"
     x="0"
     style="stroke-linecap:butt;stroke-linejoin:round"
     id="use165"
     xlink:href="#ArialMT-102"
     transform="matrix(0.23535403,0,0,-0.23535403,223.90051,360.49409)" />
  <use
     height="100%"
     width="100%"
     y="0"
     x="0"
     style="stroke-linecap:butt;stroke-linejoin:round"
     id="use167"
     xlink:href="#ArialMT-109"
     transform="matrix(0.23535403,0,0,-0.23535403,230.4394,360.49409)" />
  <use
     height="100%"
     width="100%"
     y="0"
     x="0"
     style="stroke-linecap:butt;stroke-linejoin:round"
     id="use169"
     xlink:href="#ArialMT-41"
     transform="matrix(0.23535403,0,0,-0.23535403,250.04458,360.49409)" />
  <path
     inkscape:connector-curvature="0"
     id="path175"
     style="fill:none;stroke:#b0b0b0;stroke-width:0.80000001;stroke-linecap:square;stroke-linejoin:round"
     d="M 60.983438,310.71562 H 451.58344"
     clip-path="url(#pd66d1ed597)" />
  <use
     style="stroke:#000000;stroke-width:0.80000001;stroke-linecap:butt;stroke-linejoin:round"
     x="60.983437"
     xlink:href="#m75afcdf953"
     y="310.71564"
     id="use181"
     width="100%"
     height="100%" />
  <use
     style="stroke:#000000;stroke-width:0.80000001;stroke-linecap:butt;stroke-linejoin:round"
     x="451.58344"
     xlink:href="#m83049da73b"
     y="310.71564"
     id="use189"
     width="100%"
     height="100%" />
  <use
     xlink:href="#ArialMT-8722"
     id="use197"
     style="stroke-linecap:butt;stroke-linejoin:round"
     x="0"
     y="0"
     width="100%"
     height="100%"
     transform="matrix(0.22,0,0,-0.22,32.4,318.58922)" />
  <use
     x="58.398438"
     xlink:href="#ArialMT-53"
     id="use199"
     style="stroke-linecap:butt;stroke-linejoin:round"
     y="0"
     width="100%"
     height="100%"
     transform="matrix(0.22,0,0,-0.22,32.4,318.58922)" />
  <path
     inkscape:connector-curvature="0"
     id="path205"
     style="fill:none;stroke:#b0b0b0;stroke-width:0.80000001;stroke-linecap:square;stroke-linejoin:round"
     d="M 60.983438,241.41562 H 451.58344"
     clip-path="url(#pd66d1ed597)" />
  <use
     style="stroke:#000000;stroke-width:0.80000001;stroke-linecap:butt;stroke-linejoin:round"
     x="60.983437"
     xlink:href="#m75afcdf953"
     y="241.41562"
     id="use208"
     width="100%"
     height="100%" />
  <use
     style="stroke:#000000;stroke-width:0.80000001;stroke-linecap:butt;stroke-linejoin:round"
     x="451.58344"
     xlink:href="#m83049da73b"
     y="241.41562"
     id="use213"
     width="100%"
     height="100%" />
  <use
     xlink:href="#ArialMT-48"
     id="use218"
     style="stroke-linecap:butt;stroke-linejoin:round"
     x="0"
     y="0"
     width="100%"
     height="100%"
     transform="matrix(0.22,0,0,-0.22,45.249375,249.28922)" />
  <path
     inkscape:connector-curvature="0"
     id="path224"
     style="fill:none;stroke:#b0b0b0;stroke-width:0.80000001;stroke-linecap:square;stroke-linejoin:round"
     d="M 60.983438,172.11562 H 451.58344"
     clip-path="url(#pd66d1ed597)" />
  <use
     style="stroke:#000000;stroke-width:0.80000001;stroke-linecap:butt;stroke-linejoin:round"
     x="60.983437"
     xlink:href="#m75afcdf953"
     y="172.11563"
     id="use227"
     width="100%"
     height="100%" />
  <use
     style="stroke:#000000;stroke-width:0.80000001;stroke-linecap:butt;stroke-linejoin:round"
     x="451.58344"
     xlink:href="#m83049da73b"
     y="172.11563"
     id="use232"
     width="100%"
     height="100%" />
  <use
     xlink:href="#ArialMT-53"
     id="use237"
     style="stroke-linecap:butt;stroke-linejoin:round"
     x="0"
     y="0"
     width="100%"
     height="100%"
     transform="matrix(0.22,0,0,-0.22,45.249375,179.98922)" />
  <path
     inkscape:connector-curvature="0"
     id="path243"
     style="fill:none;stroke:#b0b0b0;stroke-width:0.80000001;stroke-linecap:square;stroke-linejoin:round"
     d="M 60.983438,102.81562 H 451.58344"
     clip-path="url(#pd66d1ed597)" />
  <use
     style="stroke:#000000;stroke-width:0.80000001;stroke-linecap:butt;stroke-linejoin:round"
     x="60.983437"
     xlink:href="#m75afcdf953"
     y="102.81563"
     id="use246"
     width="100%"
     height="100%" />
  <use
     style="stroke:#000000;stroke-width:0.80000001;stroke-linecap:butt;stroke-linejoin:round"
     x="451.58344"
     xlink:href="#m83049da73b"
     y="102.81563"
     id="use251"
     width="100%"
     height="100%" />
  <use
     xlink:href="#ArialMT-49"
     id="use256"
     style="stroke-linecap:butt;stroke-linejoin:round"
     x="0"
     y="0"
     width="100%"
     height="100%"
     transform="matrix(0.22,0,0,-0.22,33.015313,110.68922)" />
  <use
     x="55.615234"
     xlink:href="#ArialMT-48"
     id="use258"
     style="stroke-linecap:butt;stroke-linejoin:round"
     y="0"
     width="100%"
     height="100%"
     transform="matrix(0.22,0,0,-0.22,33.015313,110.68922)" />
  <path
     inkscape:connector-curvature="0"
     id="path264"
     style="fill:none;stroke:#b0b0b0;stroke-width:0.80000001;stroke-linecap:square;stroke-linejoin:round"
     d="M 60.983438,33.515625 H 451.58344"
     clip-path="url(#pd66d1ed597)" />
  <use
     style="stroke:#000000;stroke-width:0.80000001;stroke-linecap:butt;stroke-linejoin:round"
     x="60.983437"
     xlink:href="#m75afcdf953"
     y="33.515625"
     id="use267"
     width="100%"
     height="100%" />
  <use
     style="stroke:#000000;stroke-width:0.80000001;stroke-linecap:butt;stroke-linejoin:round"
     x="451.58344"
     xlink:href="#m83049da73b"
     y="33.515625"
     id="use272"
     width="100%"
     height="100%" />
  <use
     xlink:href="#ArialMT-49"
     id="use277"
     style="stroke-linecap:butt;stroke-linejoin:round"
     x="0"
     y="0"
     width="100%"
     height="100%"
     transform="matrix(0.22,0,0,-0.22,33.015313,41.389219)" />
  <use
     x="55.615234"
     xlink:href="#ArialMT-53"
     id="use279"
     style="stroke-linecap:butt;stroke-linejoin:round"
     y="0"
     width="100%"
     height="100%"
     transform="matrix(0.22,0,0,-0.22,33.015313,41.389219)" />
  <use
     height="100%"
     width="100%"
     y="0"
     x="0"
     style="stroke-linecap:butt;stroke-linejoin:round"
     id="use305"
     xlink:href="#ArialMT-32"
     transform="matrix(0,-0.2,-0.2,0,22.04375,174.475)" />
  <path
     inkscape:connector-curvature="0"
     id="path321"
     style="fill:none;stroke:#000000;stroke-width:3;stroke-linecap:butt;stroke-linejoin:round;stroke-dashoffset:0"
     d="m 60.983438,241.41544 6.51,0.22551 6.51,0.39079 3.255,0.0683 3.255,-0.12402 3.255,-0.32792 6.51,-0.90905 3.255,-0.29124 3.255,0.0215 3.255002,0.22878 3.255,0.41769 3.255,0.29803 3.255,-0.25439 3.255,-0.593 3.255,-1.02997 3.255,-1.4244 3.255,-0.77449 3.255,0.14289 3.255,0.71449 3.255,1.05932 3.255,1.50873 3.255,1.24966 3.255,-1.15381 3.255,-2.34706 3.255,-2.89106 6.51,-4.66237 3.255,-1.0377 3.255,3.59044 3.255,6.11517 3.255,7.9372 9.765,16.99417 3.255,-3.12405 3.255,-8.62868 3.255,-13.34108 3.255,-17.09465 3.255,-20.17739 3.255,-23.93206 3.255,-27.3638 3.255,-20.38806 3.255,-19.28618 3.255,-18.191255 3.255,-14.7609 3.255,-9.34164 3.255,-5.8212 3.255,-2.31462 3.255,-0.37422 3.255,2.03742 3.255,4.69854 3.255,6.97158 3.255,5.97366 3.255,7.01316 6.51,16.350645 13.02,29.22658 3.255,6.55994 3.255,6.28135 6.51,11.77268 3.255,5.5343 3.255,5.28343 6.51,9.98197 6.51,9.4553 6.51,8.83436 6.51,8.27165 3.255,3.9099 3.255,3.66182 3.255,3.47054 3.255,3.28066 3.255,3.06999 3.255,2.72904 3.255,2.47401 3.255,2.21829 3.255,1.93402 3.255,1.57852 3.255,1.27595 9.765,2.83174 6.51,1.70187 3.255,0.67983 3.255,0.54692 3.255,0.43122 6.51,0.59073 6.51,0.3329 9.765,0.11302 13.02,-0.0811 53.77,0.001 v 0"
     clip-path="url(#pd66d1ed597)" />
  <path
     inkscape:connector-curvature="0"
     id="path324"
     style="fill:none;stroke:#ff0000;stroke-width:3;stroke-linecap:butt;stroke-linejoin:round;stroke-dasharray:18, 3;stroke-dashoffset:0"
     d="m 60.983438,241.41498 3.255,0.39094 3.255,1.01281 3.255,1.27194 3.255,0.97844 3.255,0.18829 3.255,-1.00622 3.255,-2.06997 3.255,-2.71539 3.255,-2.36522 3.255,-1.33729 3.255,0.5275 3.255002,1.54649 3.255,2.28343 3.255,1.55299 3.255,-1.39318 3.255,-3.129 3.255,-4.48291 3.255,-6.00248 3.255,-2.99521 3.255,1.17306 3.255,3.78747 3.255,4.13361 3.255,5.52572 3.255,4.55581 3.255,-3.56436 3.255,-7.64904 3.255,-9.4659 3.255,-7.19414 3.255,-7.57393 3.255,-4.68623 3.255,5.35641 3.255,10.79471 3.255,14.70527 9.765,29.0031 3.255,-2.35266 3.255,-9.88138 3.255,-16.32646 3.255,-20.00441 3.255,-21.74868 3.255,-25.43215 3.255,-28.73131 3.255,-19.71353 3.255,-17.64873 3.255,-15.583932 3.255,-11.836154 3.255,-6.626437 3.255,-2.813347 3.255,0.999743 3.255,2.225558 3.255,4.265236 3.255,6.696771 3.255,8.711328 3.255,7.405132 3.255,8.163732 6.51,17.94514 6.51,15.91048 3.255,7.77187 3.255,7.3348 3.255,6.75706 3.255,6.37524 3.255,5.99344 3.255,5.61162 3.255,5.22479 3.255,4.84297 3.255,4.46117 3.255,4.18586 3.255,3.87588 3.255,3.54784 3.255,3.22027 3.255,3.02385 3.255,2.75909 3.255,2.48881 6.51,4.33155 3.255,1.89951 3.255,1.69303 6.51,2.96507 3.255,1.31775 6.51,2.25118 6.51,2.00752 6.51,1.69052 6.51,1.50263 6.51,1.27957 6.51,1.0962 9.765,1.31404 9.765,0.98427 9.765,0.7477 13.02,0.76457 13.02,0.56569 16.275,0.47616 17.965,0.32287 v 0"
     clip-path="url(#pd66d1ed597)" />
  <path
     inkscape:connector-curvature="0"
     id="path327"
     style="fill:none;stroke:#000000;stroke-width:0.80000001;stroke-linecap:square;stroke-linejoin:miter"
     d="M 60.983438,310.71562 V 33.515625" />
  <path
     inkscape:connector-curvature="0"
     id="path330"
     style="fill:none;stroke:#000000;stroke-width:0.80000001;stroke-linecap:square;stroke-linejoin:miter"
     d="M 451.58344,310.71562 V 33.515625" />
  <path
     inkscape:connector-curvature="0"
     id="path333"
     style="fill:none;stroke:#000000;stroke-width:0.80000001;stroke-linecap:square;stroke-linejoin:miter"
     d="M 60.983438,310.71562 H 451.58344" />
  <path
     inkscape:connector-curvature="0"
     id="path336"
     style="fill:none;stroke:#000000;stroke-width:0.80000001;stroke-linecap:square;stroke-linejoin:miter"
     d="M 60.983438,33.515625 H 451.58344" />
  <path
     d="m 276.80344,56.299688 h 36"
     style="fill:none;stroke:#000000;stroke-width:3;stroke-linecap:butt;stroke-linejoin:round;stroke-dashoffset:0"
     id="path348"
     inkscape:connector-curvature="0" />
  <path
     d="m 276.80344,81.76125 h 36"
     style="fill:none;stroke:#ff0000;stroke-width:3;stroke-linecap:butt;stroke-linejoin:round;stroke-dasharray:18, 3;stroke-dashoffset:0"
     id="path364"
     inkscape:connector-curvature="0" />
  <use
     height="100%"
     width="100%"
     y="0"
     x="0"
     style="stroke-linecap:butt;stroke-linejoin:round"
     id="use378"
     xlink:href="#ArialMT-32"
     transform="matrix(0.18,0,0,-0.18,370.31467,88.044375)" />
  <use
     height="100%"
     width="100%"
     y="0"
     x="0"
     style="stroke-linecap:butt;stroke-linejoin:round"
     id="use388"
     xlink:href="#ArialMT-32"
     transform="matrix(0.18,0,0,-0.18,410.34885,88.044375)" />
  <defs
     id="defs403">
    <clipPath
       id="pd66d1ed597">
      <rect
         height="277.2"
         width="390.6"
         x="60.983438"
         y="33.515625"
         id="rect400" />
    </clipPath>
  </defs>
  <text
     xml:space="preserve"
     style="font-style:normal;font-weight:normal;font-size:20.86973953px;line-height:1.25;font-family:sans-serif;letter-spacing:0px;word-spacing:0px;fill:#000000;fill-opacity:1;stroke:none;stroke-width:0.52174348;stroke-linecap:butt;stroke-linejoin:round"
     x="323.92944"
     y="63.332485"
     id="text2352"><tspan
       sodipodi:role="line"
       style="stroke-width:0.52174348;stroke-linecap:butt;stroke-linejoin:round;-inkscape-font-specification:Arial;font-family:Arial;font-weight:normal;font-style:normal;font-stretch:normal;font-variant:normal"
       x="323.92944"
       y="63.332485"
       id="tspan2382">AMD</tspan></text>
  <text
     xml:space="preserve"
     style="font-style:normal;font-weight:normal;font-size:20.25667953px;line-height:1.25;font-family:sans-serif;letter-spacing:0px;word-spacing:0px;fill:#000000;fill-opacity:1;stroke:none;stroke-width:0.50641704;stroke-linecap:butt;stroke-linejoin:round"
     x="321.75391"
     y="88.263672"
     id="text2352-3"><tspan
       sodipodi:role="line"
       id="tspan2350-6"
       style="font-style:normal;font-variant:normal;font-weight:normal;font-stretch:normal;font-family:arial;-inkscape-font-specification:arial;stroke-width:0.50641704;stroke-linecap:butt;stroke-linejoin:round"
       x="321.75391"
       y="88.263672">Woods-Saxon</tspan></text>
  <flowRoot
     xml:space="preserve"
     id="flowRoot2384"
     style="fill:black;fill-opacity:1;stroke:none;font-family:sans-serif;font-style:normal;font-weight:normal;font-size:40px;line-height:1.25;letter-spacing:0px;word-spacing:0px"><flowRegion
       id="flowRegion2386"><rect
         id="rect2388"
         width="210.36938"
         height="68.646851"
         x="424.42947"
         y="59.42662"
         style="stroke-linecap:butt;stroke-linejoin:round" /></flowRegion><flowPara
       id="flowPara2390"></flowPara></flowRoot></svg>
