<?xml version="1.0" encoding="UTF-8" standalone="no"?>
<!-- Created with matplotlib (https://matplotlib.org/) -->

<svg
   xmlns:ns0="http://www.iki.fi/pav/software/textext/"
   xmlns:dc="http://purl.org/dc/elements/1.1/"
   xmlns:cc="http://creativecommons.org/ns#"
   xmlns:rdf="http://www.w3.org/1999/02/22-rdf-syntax-ns#"
   xmlns:svg="http://www.w3.org/2000/svg"
   xmlns="http://www.w3.org/2000/svg"
   xmlns:xlink="http://www.w3.org/1999/xlink"
   xmlns:sodipodi="http://sodipodi.sourceforge.net/DTD/sodipodi-0.dtd"
   xmlns:inkscape="http://www.inkscape.org/namespaces/inkscape"
   height="336.54919pt"
   version="1.1"
   viewBox="0 0 460.86859 336.5492"
   width="460.86859pt"
   id="svg451"
   sodipodi:docname="search_rwa.svg"
   inkscape:version="0.92.5 (2060ec1f9f, 2020-04-08)">
  <sodipodi:namedview
     pagecolor="#ffffff"
     bordercolor="#666666"
     borderopacity="1"
     objecttolerance="10"
     gridtolerance="10"
     guidetolerance="10"
     inkscape:pageopacity="0"
     inkscape:pageshadow="2"
     inkscape:window-width="1920"
     inkscape:window-height="1018"
     id="namedview453"
     showgrid="false"
     inkscape:zoom="0.95795988"
     inkscape:cx="82.936624"
     inkscape:cy="289.45158"
     inkscape:window-x="0"
     inkscape:window-y="0"
     inkscape:window-maximized="1"
     inkscape:current-layer="svg451"
     fit-margin-top="0"
     fit-margin-left="0"
     fit-margin-right="0"
     fit-margin-bottom="0" />
  <metadata
     id="metadata2">
    <rdf:RDF>
      <cc:Work>
        <dc:type
           rdf:resource="http://purl.org/dc/dcmitype/StillImage" />
        <dc:date>2021-01-14T20:05:06.378481</dc:date>
        <dc:format>image/svg+xml</dc:format>
        <dc:creator>
          <cc:Agent>
            <dc:title>Matplotlib v3.3.2, https://matplotlib.org/</dc:title>
          </cc:Agent>
        </dc:creator>
        <dc:title></dc:title>
      </cc:Work>
    </rdf:RDF>
  </metadata>
  <defs
     id="defs6"
     style="stroke-linecap:butt;stroke-linejoin:round">
    <style
       type="text/css"
       id="style4">*{stroke-linecap:butt;stroke-linejoin:round;}</style>
    <defs
       id="defs382">
      <path
         d="M 7.859375,0 V 71.578125 H 39.59375 q 9.578125,0 14.546875,-1.9375 4.984375,-1.921875 7.96875,-6.8125 2.984375,-4.875 2.984375,-10.78125 0,-7.609375 -4.9375,-12.84375 Q 55.21875,33.984375 44.921875,32.5625 48.6875,30.765625 50.640625,29 54.78125,25.203125 58.5,19.484375 L 70.953125,0 H 59.03125 L 49.5625,14.890625 Q 45.40625,21.34375 42.71875,24.75 q -2.671875,3.421875 -4.796875,4.78125 -2.125,1.375 -4.328125,1.921875 -1.609375,0.328125 -5.265625,0.328125 h -11 V 0 Z m 9.46875,39.984375 h 20.375 q 6.484375,0 10.140625,1.34375 3.671875,1.34375 5.578125,4.296875 1.90625,2.953125 1.90625,6.421875 0,5.078125 -3.6875,8.34375 -3.6875,3.28125 -11.65625,3.28125 h -22.65625 z"
         id="ArialMT-82"
         inkscape:connector-curvature="0"
         style="stroke-linecap:butt;stroke-linejoin:round" />
      <path
         d="m 20.21875,0 -19,71.578125 H 10.9375 L 21.828125,24.65625 q 1.75,-7.375 3.03125,-14.640625 2.734375,11.46875 3.21875,13.234375 l 13.625,48.328125 H 53.125 l 10.25,-36.21875 q 3.859375,-13.484375 5.578125,-25.34375 1.359375,6.78125 3.5625,15.578125 l 11.21875,45.984375 h 9.53125 L 73.640625,0 H 64.5 L 49.421875,54.546875 q -1.90625,6.828125 -2.25,8.390625 -1.125,-4.921875 -2.109375,-8.390625 L 29.890625,0 Z"
         id="ArialMT-87"
         inkscape:connector-curvature="0"
         style="stroke-linecap:butt;stroke-linejoin:round" />
      <path
         d="M -0.140625,0 27.34375,71.578125 H 37.546875 L 66.84375,0 H 56.0625 L 47.703125,21.6875 H 17.78125 L 9.90625,0 Z m 20.65625,29.390625 H 44.78125 L 37.3125,49.21875 Q 33.890625,58.25 32.234375,64.0625 30.859375,57.171875 28.375,50.390625 Z"
         id="ArialMT-65"
         inkscape:connector-curvature="0"
         style="stroke-linecap:butt;stroke-linejoin:round" />
    </defs>
    <defs
       id="defs399">
      <path
         style="stroke-linecap:butt;stroke-linejoin:round"
         inkscape:connector-curvature="0"
         id="ArialMT-77"
         d="M 7.421875,0 V 71.578125 H 21.6875 L 38.625,20.90625 q 2.34375,-7.09375 3.421875,-10.609375 1.21875,3.90625 3.796875,11.484375 l 17.140625,49.796875 h 12.75 V 0 h -9.125 V 59.90625 L 45.796875,0 H 37.25 L 16.546875,60.9375 V 0 Z" />
      <path
         style="stroke-linecap:butt;stroke-linejoin:round"
         inkscape:connector-curvature="0"
         id="ArialMT-68"
         d="M 7.71875,0 V 71.578125 H 32.375 q 8.34375,0 12.75,-1.015625 6.140625,-1.421875 10.484375,-5.125 5.671875,-4.796875 8.46875,-12.25 2.8125,-7.4375 2.8125,-17 0,-8.15625 -1.90625,-14.453125 -1.890625,-6.296875 -4.875,-10.4375 -2.984375,-4.125 -6.53125,-6.5 Q 50.046875,2.4375 45.046875,1.21875 40.046875,0 33.546875,0 Z m 9.46875,8.453125 h 15.28125 q 7.078125,0 11.109375,1.3125 4.03125,1.3125 6.421875,3.71875 3.375,3.359375 5.25,9.046875 1.875,5.6875 1.875,13.796875 0,11.234375 -3.6875,17.265625 -3.6875,6.03125 -8.953125,8.078125 -3.8125,1.46875 -12.25,1.46875 H 17.1875 Z" />
    </defs>
    <defs
       id="defs416">
      <path
         style="stroke-linecap:butt;stroke-linejoin:round"
         inkscape:connector-curvature="0"
         id="DejaVuSans-48"
         d="m 31.78125,66.40625 q -7.609375,0 -11.453125,-7.5 Q 16.5,51.421875 16.5,36.375 q 0,-14.984375 3.828125,-22.484375 3.84375,-7.5 11.453125,-7.5 7.671875,0 11.5,7.5 3.84375,7.5 3.84375,22.484375 0,15.046875 -3.84375,22.53125 -3.828125,7.5 -11.5,7.5 z m 0,7.8125 q 12.265625,0 18.734375,-9.703125 6.46875,-9.6875 6.46875,-28.140625 0,-18.40625 -6.46875,-28.109375 -6.46875,-9.6875 -18.734375,-9.6875 -12.25,0 -18.71875,9.6875 Q 6.59375,17.96875 6.59375,36.375 q 0,18.453125 6.46875,28.140625 6.46875,9.703125 18.71875,9.703125 z" />
      <path
         style="stroke-linecap:butt;stroke-linejoin:round"
         inkscape:connector-curvature="0"
         id="DejaVuSans-61"
         d="M 10.59375,45.40625 H 73.1875 V 37.203125 H 10.59375 Z m 0,-19.921875 H 73.1875 V 17.1875 H 10.59375 Z" />
    </defs>
    <defs
       id="defs187">
      <path
         inkscape:connector-curvature="0"
         style="stroke:#000000;stroke-width:0.80000001;stroke-linecap:butt;stroke-linejoin:round"
         id="m85ba283858"
         d="M 0,0 H -3.5" />
    </defs>
    <defs
       id="defs179">
      <path
         inkscape:connector-curvature="0"
         style="stroke:#000000;stroke-width:0.80000001;stroke-linecap:butt;stroke-linejoin:round"
         id="m95aa9da6fa"
         d="M 0,0 H 3.5" />
    </defs>
    <defs
       id="defs337">
      <path
         style="stroke-linecap:butt;stroke-linejoin:round"
         inkscape:connector-curvature="0"
         id="DejaVuSans-Oblique-83"
         d="m 60.296875,70.515625 -1.890625,-9.625 q -4.9375,2.640625 -9.796875,3.984375 -4.859375,1.34375 -9.40625,1.34375 -8.828125,0 -14.0625,-3.859375 Q 19.921875,58.5 19.921875,52.09375 q 0,-3.515625 1.921875,-5.390625 1.9375,-1.875 9.9375,-4.03125 l 5.921875,-1.453125 q 10,-2.59375 13.90625,-6.578125 3.90625,-3.96875 3.90625,-11.15625 0,-11.03125 -8.671875,-17.96875 -8.65625,-6.9375 -22.8125,-6.9375 -5.8125,0 -11.671875,1.15625 Q 6.5,0.875 0.59375,3.21875 l 2,10.15625 Q 8.015625,10.015625 13.453125,8.296875 18.890625,6.59375 24.3125,6.59375 q 9.234375,0 14.796875,4.09375 5.5625,4.109375 5.5625,10.703125 0,4.390625 -2.21875,6.65625 -2.21875,2.28125 -9.546875,4.125 L 27,33.6875 q -10.109375,2.640625 -13.796875,6.078125 -3.6875,3.453125 -3.6875,9.65625 0,10.875 8.375,17.828125 8.375,6.96875 21.8125,6.96875 5.21875,0 10.34375,-0.9375 5.125,-0.921875 10.25,-2.765625 z" />
      <path
         style="stroke-linecap:butt;stroke-linejoin:round"
         inkscape:connector-curvature="0"
         id="DejaVuSans-Oblique-101"
         d="m 48.09375,32.234375 q 0.15625,0.78125 0.21875,1.609375 0.07813,0.828125 0.07813,1.65625 0,5.953125 -3.5,9.421875 -3.484375,3.46875 -9.484375,3.46875 -6.6875,0 -11.828125,-4.234375 -5.125,-4.21875 -7.75,-11.984375 z m 7.8125,-7.03125 H 14.109375 Q 13.8125,23.34375 13.71875,22.265625 13.625,21.1875 13.625,20.40625 q 0,-6.78125 4.171875,-10.5 4.171875,-3.703125 11.796875,-3.703125 5.859375,0 11.078125,1.3125 5.234375,1.328125 9.71875,3.859375 L 48.6875,2.484375 q -4.84375,-1.953125 -10,-2.921875 -5.140625,-0.984375 -10.46875,-0.984375 -11.375,0 -17.5,5.4375 -6.125,5.453125 -6.125,15.46875 0,8.546875 3.046875,15.890625 3.046875,7.34375 8.96875,13.109375 3.796875,3.609375 9.046875,5.5625 Q 30.90625,56 36.8125,56 q 9.28125,0 14.765625,-5.5625 5.5,-5.5625 5.5,-14.9375 0,-2.25 -0.296875,-4.8125 Q 56.5,28.125 55.90625,25.203125 Z" />
      <path
         style="stroke-linecap:butt;stroke-linejoin:round"
         inkscape:connector-curvature="0"
         id="DejaVuSans-Oblique-120"
         d="M 60.015625,54.6875 34.90625,27.875 50.296875,0 h -10.3125 L 28.421875,21.6875 8.296875,0 H -2.59375 L 24.3125,28.8125 10.015625,54.6875 H 20.3125 l 10.5,-19.78125 18.3125,19.78125 z" />
      <path
         style="stroke-linecap:butt;stroke-linejoin:round"
         inkscape:connector-curvature="0"
         id="DejaVuSans-Oblique-112"
         d="m 49.609375,33.6875 q 0,7.1875 -3.125,10.984375 -3.125,3.8125 -8.984375,3.8125 -4,0 -7.640625,-2.046875 Q 26.21875,44.390625 23.390625,40.484375 20.609375,36.625 18.9375,31.15625 17.28125,25.6875 17.28125,20.3125 q 0,-6.828125 3.125,-10.515625 3.125,-3.6875 8.890625,-3.6875 4.25,0 7.890625,2 3.640625,2 6.21875,5.8125 2.78125,4 4.484375,9.421875 1.71875,5.421875 1.71875,10.34375 z M 21.78125,46.390625 Q 25.390625,51.125 30.296875,53.5625 35.203125,56 41.21875,56 49.609375,56 54.25,50.5 58.890625,45.015625 58.890625,35.109375 58.890625,27 56,19.65625 53.125,12.3125 47.703125,6.5 44.09375,2.640625 39.546875,0.609375 q -4.53125,-2.03125 -9.5625,-2.03125 -5.8125,0 -9.765625,2.421875 -3.953125,2.421875 -5.90625,7.203125 l -5.625,-29 H -0.296875 L 14.40625,54.6875 h 8.984375 z" />
      <path
         style="stroke-linecap:butt;stroke-linejoin:round"
         inkscape:connector-curvature="0"
         id="DejaVuSans-Oblique-121"
         d="m 24.8125,-5.078125 q -6.25,-10.5 -10.1875,-13.109375 -3.9375,-2.609375 -10.03125,-2.609375 h -7.078125 l 1.5,7.515625 h 5.1875 q 3.75,0 6.390625,2.046875 Q 13.234375,-9.1875 16.5,-3.21875 L 19.28125,2 7.171875,54.6875 h 9.53125 L 25.78125,12.796875 50.875,54.6875 h 9.421875 z" />
      <path
         style="stroke-linecap:butt;stroke-linejoin:round"
         inkscape:connector-curvature="0"
         id="DejaVuSans-40"
         d="M 31,75.875 Q 24.46875,64.65625 21.28125,53.65625 18.109375,42.671875 18.109375,31.390625 18.109375,20.125 21.3125,9.0625 24.515625,-2 31,-13.1875 H 23.1875 Q 15.875,-1.703125 12.234375,9.375 8.59375,20.453125 8.59375,31.390625 q 0,10.890625 3.609375,21.921875 3.625,11.046875 10.984375,22.5625 z" />
      <path
         style="stroke-linecap:butt;stroke-linejoin:round"
         inkscape:connector-curvature="0"
         id="DejaVuSans-41"
         d="m 8.015625,75.875 h 7.8125 q 7.3125,-11.515625 10.953125,-22.5625 3.640625,-11.03125 3.640625,-21.921875 0,-10.9375 -3.640625,-22.015625 -3.640625,-11.078125 -10.953125,-22.5625 h -7.8125 Q 14.5,-2 17.703125,9.0625 20.90625,20.125 20.90625,31.390625 q 0,11.28125 -3.203125,22.265625 -3.203125,11 -9.6875,22.21875 z" />
    </defs>
    <defs
       id="defs26">
      <path
         inkscape:connector-curvature="0"
         style="stroke:#000000;stroke-width:0.80000001;stroke-linecap:butt;stroke-linejoin:round"
         id="m8fafa74e5b"
         d="M 0,0 V 3.5" />
    </defs>
    <defs
       id="defs18">
      <path
         inkscape:connector-curvature="0"
         style="stroke:#000000;stroke-width:0.80000001;stroke-linecap:butt;stroke-linejoin:round"
         id="md8ba695a4a"
         d="M 0,0 V -3.5" />
    </defs>
    <defs
       id="defs157">
      <path
         style="stroke-linecap:butt;stroke-linejoin:round"
         inkscape:connector-curvature="0"
         id="DejaVuSans-Oblique-82"
         d="m 25.203125,64.796875 -4.984375,-25.875 h 12.6875 q 7.46875,0 12.078125,4.125 4.625,4.125 4.625,10.765625 0,5.3125 -3.109375,8.140625 -3.09375,2.84375 -8.90625,2.84375 z M 43.3125,35.015625 q 3.125,-0.734375 5.203125,-3.625 2.078125,-2.875 4.8125,-11.46875 L 59.515625,0 H 49.125 l -5.71875,18.703125 q -2.1875,7.21875 -5.078125,9.65625 Q 35.453125,30.8125 29.5,30.8125 H 18.609375 L 12.59375,0 H 2.6875 l 14.203125,72.90625 h 22.21875 q 10.109375,0 15.5,-4.578125 5.40625,-4.5625 5.40625,-13.15625 0,-7.609375 -4.59375,-13.1875 -4.59375,-5.5625 -12.109375,-6.96875 z" />
      <path
         style="stroke-linecap:butt;stroke-linejoin:round"
         inkscape:connector-curvature="0"
         d=""
         id="ArialMT-32" />
      <path
         style="stroke-linecap:butt;stroke-linejoin:round"
         inkscape:connector-curvature="0"
         id="ArialMT-40"
         d="m 23.390625,-21.046875 q -7.28125,9.1875 -12.3125,21.484375 Q 6.0625,12.75 6.0625,25.921875 q 0,11.625 3.75,22.265625 4.390625,12.359375 13.578125,24.609375 H 29.6875 q -5.90625,-10.15625 -7.8125,-14.5 -2.984375,-6.734375 -4.6875,-14.0625 -2.09375,-9.125 -2.09375,-18.359375 0,-23.484375 14.59375,-46.921875 z" />
      <path
         style="stroke-linecap:butt;stroke-linejoin:round"
         inkscape:connector-curvature="0"
         id="ArialMT-102"
         d="M 8.6875,0 V 45.015625 H 0.921875 v 6.84375 H 8.6875 V 57.375 q 0,5.21875 0.9375,7.765625 1.265625,3.421875 4.453125,5.53125 3.203125,2.125 8.96875,2.125 3.71875,0 8.203125,-0.875 l -1.3125,-7.65625 Q 27.203125,64.75 24.75,64.75 q -4,0 -5.65625,-1.71875 -1.65625,-1.703125 -1.65625,-6.390625 v -4.78125 h 10.109375 v -6.84375 H 17.4375 V 0 Z" />
      <path
         style="stroke-linecap:butt;stroke-linejoin:round"
         inkscape:connector-curvature="0"
         id="ArialMT-109"
         d="m 6.59375,0 v 51.859375 h 7.859375 v -7.28125 q 2.4375,3.8125 6.484375,6.125 4.0625,2.328125 9.234375,2.328125 5.765625,0 9.453125,-2.390625 3.6875,-2.390625 5.203125,-6.6875 6.15625,9.078125 16.015625,9.078125 7.71875,0 11.859375,-4.28125 4.15625,-4.265625 4.15625,-13.15625 V 0 h -8.75 v 32.671875 q 0,5.265625 -0.859375,7.578125 -0.84375,2.328125 -3.09375,3.734375 -2.234375,1.421875 -5.265625,1.421875 -5.46875,0 -9.09375,-3.640625 Q 46.1875,38.140625 46.1875,30.125 V 0 h -8.78125 v 33.6875 q 0,5.859375 -2.15625,8.78125 -2.140625,2.9375 -7.03125,2.9375 -3.703125,0 -6.859375,-1.953125 Q 18.21875,41.5 16.796875,37.734375 15.375,33.984375 15.375,26.90625 V 0 Z" />
      <path
         style="stroke-linecap:butt;stroke-linejoin:round"
         inkscape:connector-curvature="0"
         id="ArialMT-41"
         d="M 12.359375,-21.046875 H 6.0625 q 14.59375,23.4375 14.59375,46.921875 0,9.1875 -2.09375,18.21875 -1.671875,7.328125 -4.640625,14.0625 -1.90625,4.390625 -7.859375,14.640625 h 6.296875 Q 21.53125,60.546875 25.921875,48.1875 29.6875,37.546875 29.6875,25.921875 29.6875,12.75 24.625,0.4375 19.578125,-11.859375 12.359375,-21.046875 Z" />
    </defs>
    <defs
       id="defs137">
      <path
         d="m 37.25,0 h -8.78125 v 56 q -3.171875,-3.015625 -8.328125,-6.046875 -5.15625,-3.03125 -9.25,-4.546875 v 8.5 q 7.375,3.46875 12.890625,8.390625 5.515625,4.9375 7.8125,9.578125 H 37.25 Z"
         id="ArialMT-49"
         inkscape:connector-curvature="0"
         style="stroke-linecap:butt;stroke-linejoin:round" />
    </defs>
    <defs
       id="defs111">
      <path
         d="m 4.734375,62.203125 v 8.453125 h 46.34375 V 63.8125 Q 44.234375,56.546875 37.515625,44.484375 30.8125,32.421875 27.15625,19.671875 24.515625,10.6875 23.78125,0 H 14.75 q 0.140625,8.453125 3.3125,20.40625 3.171875,11.96875 9.109375,23.078125 5.9375,11.109375 12.625,18.71875 z"
         id="ArialMT-55"
         inkscape:connector-curvature="0"
         style="stroke-linecap:butt;stroke-linejoin:round" />
    </defs>
    <defs
       id="defs62">
      <path
         d="M 50.34375,8.453125 V 0 H 3.03125 Q 2.9375,3.171875 4.046875,6.109375 5.859375,10.9375 9.828125,15.625 13.8125,20.3125 21.34375,26.46875 q 11.671875,9.5625 15.765625,15.15625 4.109375,5.59375 4.109375,10.578125 0,5.21875 -3.75,8.796875 -3.734375,3.59375 -9.734375,3.59375 -6.34375,0 -10.15625,-3.8125 Q 13.765625,56.984375 13.71875,50.25 L 4.6875,51.171875 q 0.921875,10.109375 6.96875,15.40625 6.0625,5.296875 16.28125,5.296875 10.296875,0 16.296875,-5.71875 Q 50.25,60.453125 50.25,52 50.25,47.703125 48.484375,43.546875 46.734375,39.40625 42.65625,34.8125 38.578125,30.21875 29.109375,22.21875 21.1875,15.578125 18.9375,13.203125 q -2.234375,-2.359375 -3.703125,-4.75 z"
         id="ArialMT-50"
         inkscape:connector-curvature="0"
         style="stroke-linecap:butt;stroke-linejoin:round" />
      <path
         d="M 4.15625,18.75 13.375,19.53125 Q 14.40625,12.796875 18.140625,9.390625 21.875,6 27.15625,6 33.5,6 37.890625,10.78125 42.28125,15.578125 42.28125,23.484375 42.28125,31 38.0625,35.34375 33.84375,39.703125 27,39.703125 q -4.25,0 -7.671875,-1.9375 -3.40625,-1.921875 -5.359375,-5 l -8.25,1.078125 6.921875,36.765625 H 48.25 v -8.40625 H 19.671875 L 15.828125,42.96875 q 6.4375,4.5 13.515625,4.5 9.375,0 15.8125,-6.5 6.453125,-6.5 6.453125,-16.703125 0,-9.71875 -5.65625,-16.796875 -6.890625,-8.6875 -18.796875,-8.6875 -9.765625,0 -15.953125,5.46875 Q 5.03125,9.71875 4.15625,18.75 Z"
         id="ArialMT-53"
         inkscape:connector-curvature="0"
         style="stroke-linecap:butt;stroke-linejoin:round" />
    </defs>
    <defs
       id="defs35">
      <path
         d="m 4.15625,35.296875 q 0,12.703125 2.609375,20.4375 2.609375,7.75 7.75,11.9375 5.15625,4.203125 12.96875,4.203125 5.765625,0 10.109375,-2.328125 4.34375,-2.3125 7.171875,-6.6875 Q 47.609375,58.5 49.21875,52.21875 q 1.609375,-6.265625 1.609375,-16.921875 0,-12.59375 -2.59375,-20.328125 Q 45.65625,7.234375 40.5,3 35.359375,-1.21875 27.484375,-1.21875 q -10.34375,0 -16.25,7.421875 -7.078125,8.9375 -7.078125,29.09375 z m 9.03125,0 q 0,-17.625 4.125,-23.46875 Q 21.4375,6 27.484375,6 q 6.0625,0 10.1875,5.859375 4.125,5.859375 4.125,23.4375 0,17.6875 -4.125,23.484375 -4.125,5.8125 -10.28125,5.8125 -6.046875,0 -9.671875,-5.125 Q 13.1875,52.9375 13.1875,35.296875 Z"
         id="ArialMT-48"
         inkscape:connector-curvature="0"
         style="stroke-linecap:butt;stroke-linejoin:round" />
      <path
         d="M 9.078125,0 V 10.015625 H 19.09375 V 0 Z"
         id="ArialMT-46"
         inkscape:connector-curvature="0"
         style="stroke-linecap:butt;stroke-linejoin:round" />
    </defs>
    <defs
       id="defs318">
      <path
         d="M 49.75,54.046875 41.015625,53.375 q -1.171875,5.171875 -3.3125,7.515625 -3.578125,3.765625 -8.796875,3.765625 -4.203125,0 -7.375,-2.34375 Q 17.390625,59.28125 14.984375,53.46875 12.59375,47.65625 12.5,36.921875 15.671875,41.75 20.265625,44.09375 q 4.59375,2.34375 9.625,2.34375 8.78125,0 14.953125,-6.46875 Q 51.03125,33.5 51.03125,23.25 51.03125,16.5 48.125,10.71875 45.21875,4.9375 40.140625,1.859375 35.0625,-1.21875 28.609375,-1.21875 17.625,-1.21875 10.6875,6.859375 3.765625,14.9375 3.765625,33.5 q 0,20.75 7.65625,30.171875 6.6875,8.203125 18.015625,8.203125 8.453125,0 13.84375,-4.734375 Q 48.6875,62.40625 49.75,54.046875 Z M 13.875,23.1875 q 0,-4.53125 1.921875,-8.6875 Q 17.71875,10.359375 21.1875,8.171875 24.65625,6 28.46875,6 q 5.5625,0 9.5625,4.484375 4.015625,4.5 4.015625,12.21875 0,7.421875 -3.96875,11.6875 -3.953125,4.28125 -9.953125,4.28125 -5.953125,0 -10.109375,-4.28125 Q 13.875,30.125 13.875,23.1875 Z"
         id="ArialMT-54"
         inkscape:connector-curvature="0"
         style="stroke-linecap:butt;stroke-linejoin:round" />
    </defs>
    <defs
       id="defs196">
      <path
         d="M 52.828125,31.203125 H 5.5625 v 8.203125 h 47.265625 z"
         id="ArialMT-8722"
         inkscape:connector-curvature="0"
         style="stroke-linecap:butt;stroke-linejoin:round" />
      <path
         d="m 32.328125,0 v 17.140625 h -31.0625 v 8.0625 l 32.671875,46.375 h 7.171875 v -46.375 h 9.671875 v -8.0625 H 41.109375 V 0 Z m 0,25.203125 V 57.46875 L 9.90625,25.203125 Z"
         id="ArialMT-52"
         inkscape:connector-curvature="0"
         style="stroke-linecap:butt;stroke-linejoin:round" />
    </defs>
  </defs>
  <path
     inkscape:connector-curvature="0"
     id="path14"
     style="fill:none;stroke:#b0b0b0;stroke-width:0.80000001;stroke-linecap:square;stroke-linejoin:round"
     d="M 79.529375,310.71562 V 33.515625"
     clip-path="url(#pc2f6ccca3b)"
     transform="translate(-9.6607824,-25.576719)" />
  <use
     style="stroke:#000000;stroke-width:0.80000001;stroke-linecap:butt;stroke-linejoin:round"
     x="79.529373"
     xlink:href="#md8ba695a4a"
     y="310.71564"
     id="use20"
     width="100%"
     height="100%"
     transform="translate(-9.6607824,-25.576719)" />
  <use
     style="stroke:#000000;stroke-width:0.80000001;stroke-linecap:butt;stroke-linejoin:round"
     x="79.529373"
     xlink:href="#m8fafa74e5b"
     y="33.515625"
     id="use28"
     width="100%"
     height="100%"
     transform="translate(-9.6607824,-25.576719)" />
  <use
     xlink:href="#ArialMT-48"
     id="use37"
     style="stroke-linecap:butt;stroke-linejoin:round"
     x="0"
     y="0"
     width="100%"
     height="100%"
     transform="matrix(0.22,0,0,-0.22,54.578593,309.38609)" />
  <use
     x="55.615234"
     xlink:href="#ArialMT-46"
     id="use39"
     style="stroke-linecap:butt;stroke-linejoin:round"
     y="0"
     width="100%"
     height="100%"
     transform="matrix(0.22,0,0,-0.22,54.578593,309.38609)" />
  <use
     x="83.398438"
     xlink:href="#ArialMT-48"
     id="use41"
     style="stroke-linecap:butt;stroke-linejoin:round"
     y="0"
     width="100%"
     height="100%"
     transform="matrix(0.22,0,0,-0.22,54.578593,309.38609)" />
  <path
     inkscape:connector-curvature="0"
     id="path47"
     style="fill:none;stroke:#b0b0b0;stroke-width:0.80000001;stroke-linecap:square;stroke-linejoin:round"
     d="M 160.90437,310.71562 V 33.515625"
     clip-path="url(#pc2f6ccca3b)"
     transform="translate(-9.6607824,-25.576719)" />
  <use
     style="stroke:#000000;stroke-width:0.80000001;stroke-linecap:butt;stroke-linejoin:round"
     x="160.90437"
     xlink:href="#md8ba695a4a"
     y="310.71564"
     id="use50"
     width="100%"
     height="100%"
     transform="translate(-9.6607824,-25.576719)" />
  <use
     style="stroke:#000000;stroke-width:0.80000001;stroke-linecap:butt;stroke-linejoin:round"
     x="160.90437"
     xlink:href="#m8fafa74e5b"
     y="33.515625"
     id="use55"
     width="100%"
     height="100%"
     transform="translate(-9.6607824,-25.576719)" />
  <use
     xlink:href="#ArialMT-50"
     id="use64"
     style="stroke-linecap:butt;stroke-linejoin:round"
     x="0"
     y="0"
     width="100%"
     height="100%"
     transform="matrix(0.22,0,0,-0.22,135.95359,309.38609)" />
  <use
     x="55.615234"
     xlink:href="#ArialMT-46"
     id="use66"
     style="stroke-linecap:butt;stroke-linejoin:round"
     y="0"
     width="100%"
     height="100%"
     transform="matrix(0.22,0,0,-0.22,135.95359,309.38609)" />
  <use
     x="83.398438"
     xlink:href="#ArialMT-53"
     id="use68"
     style="stroke-linecap:butt;stroke-linejoin:round"
     y="0"
     width="100%"
     height="100%"
     transform="matrix(0.22,0,0,-0.22,135.95359,309.38609)" />
  <path
     inkscape:connector-curvature="0"
     id="path74"
     style="fill:none;stroke:#b0b0b0;stroke-width:0.80000001;stroke-linecap:square;stroke-linejoin:round"
     d="M 242.27937,310.71562 V 33.515625"
     clip-path="url(#pc2f6ccca3b)"
     transform="translate(-9.6607824,-25.576719)" />
  <use
     style="stroke:#000000;stroke-width:0.80000001;stroke-linecap:butt;stroke-linejoin:round"
     x="242.27937"
     xlink:href="#md8ba695a4a"
     y="310.71564"
     id="use77"
     width="100%"
     height="100%"
     transform="translate(-9.6607824,-25.576719)" />
  <use
     style="stroke:#000000;stroke-width:0.80000001;stroke-linecap:butt;stroke-linejoin:round"
     x="242.27937"
     xlink:href="#m8fafa74e5b"
     y="33.515625"
     id="use82"
     width="100%"
     height="100%"
     transform="translate(-9.6607824,-25.576719)" />
  <use
     xlink:href="#ArialMT-53"
     id="use87"
     style="stroke-linecap:butt;stroke-linejoin:round"
     x="0"
     y="0"
     width="100%"
     height="100%"
     transform="matrix(0.22,0,0,-0.22,217.32859,309.38609)" />
  <use
     x="55.615234"
     xlink:href="#ArialMT-46"
     id="use89"
     style="stroke-linecap:butt;stroke-linejoin:round"
     y="0"
     width="100%"
     height="100%"
     transform="matrix(0.22,0,0,-0.22,217.32859,309.38609)" />
  <use
     x="83.398438"
     xlink:href="#ArialMT-48"
     id="use91"
     style="stroke-linecap:butt;stroke-linejoin:round"
     y="0"
     width="100%"
     height="100%"
     transform="matrix(0.22,0,0,-0.22,217.32859,309.38609)" />
  <path
     inkscape:connector-curvature="0"
     id="path97"
     style="fill:none;stroke:#b0b0b0;stroke-width:0.80000001;stroke-linecap:square;stroke-linejoin:round"
     d="M 323.65438,310.71562 V 33.515625"
     clip-path="url(#pc2f6ccca3b)"
     transform="translate(-9.6607824,-25.576719)" />
  <use
     style="stroke:#000000;stroke-width:0.80000001;stroke-linecap:butt;stroke-linejoin:round"
     x="323.65439"
     xlink:href="#md8ba695a4a"
     y="310.71564"
     id="use100"
     width="100%"
     height="100%"
     transform="translate(-9.6607824,-25.576719)" />
  <use
     style="stroke:#000000;stroke-width:0.80000001;stroke-linecap:butt;stroke-linejoin:round"
     x="323.65439"
     xlink:href="#m8fafa74e5b"
     y="33.515625"
     id="use105"
     width="100%"
     height="100%"
     transform="translate(-9.6607824,-25.576719)" />
  <use
     xlink:href="#ArialMT-55"
     id="use113"
     style="stroke-linecap:butt;stroke-linejoin:round"
     x="0"
     y="0"
     width="100%"
     height="100%"
     transform="matrix(0.22,0,0,-0.22,298.70359,309.38609)" />
  <use
     x="55.615234"
     xlink:href="#ArialMT-46"
     id="use115"
     style="stroke-linecap:butt;stroke-linejoin:round"
     y="0"
     width="100%"
     height="100%"
     transform="matrix(0.22,0,0,-0.22,298.70359,309.38609)" />
  <use
     x="83.398438"
     xlink:href="#ArialMT-53"
     id="use117"
     style="stroke-linecap:butt;stroke-linejoin:round"
     y="0"
     width="100%"
     height="100%"
     transform="matrix(0.22,0,0,-0.22,298.70359,309.38609)" />
  <path
     inkscape:connector-curvature="0"
     id="path123"
     style="fill:none;stroke:#b0b0b0;stroke-width:0.80000001;stroke-linecap:square;stroke-linejoin:round"
     d="M 405.02938,310.71562 V 33.515625"
     clip-path="url(#pc2f6ccca3b)"
     transform="translate(-9.6607824,-25.576719)" />
  <use
     style="stroke:#000000;stroke-width:0.80000001;stroke-linecap:butt;stroke-linejoin:round"
     x="405.02939"
     xlink:href="#md8ba695a4a"
     y="310.71564"
     id="use126"
     width="100%"
     height="100%"
     transform="translate(-9.6607824,-25.576719)" />
  <use
     style="stroke:#000000;stroke-width:0.80000001;stroke-linecap:butt;stroke-linejoin:round"
     x="405.02939"
     xlink:href="#m8fafa74e5b"
     y="33.515625"
     id="use131"
     width="100%"
     height="100%"
     transform="translate(-9.6607824,-25.576719)" />
  <use
     xlink:href="#ArialMT-49"
     id="use139"
     style="stroke-linecap:butt;stroke-linejoin:round"
     x="0"
     y="0"
     width="100%"
     height="100%"
     transform="matrix(0.22,0,0,-0.22,373.96156,309.38609)" />
  <use
     x="55.615234"
     xlink:href="#ArialMT-48"
     id="use141"
     style="stroke-linecap:butt;stroke-linejoin:round"
     y="0"
     width="100%"
     height="100%"
     transform="matrix(0.22,0,0,-0.22,373.96156,309.38609)" />
  <use
     x="111.23047"
     xlink:href="#ArialMT-46"
     id="use143"
     style="stroke-linecap:butt;stroke-linejoin:round"
     y="0"
     width="100%"
     height="100%"
     transform="matrix(0.22,0,0,-0.22,373.96156,309.38609)" />
  <use
     x="139.01367"
     xlink:href="#ArialMT-48"
     id="use145"
     style="stroke-linecap:butt;stroke-linejoin:round"
     y="0"
     width="100%"
     height="100%"
     transform="matrix(0.22,0,0,-0.22,373.96156,309.38609)" />
  <use
     height="100%"
     width="100%"
     y="0"
     x="0"
     style="stroke-linecap:butt;stroke-linejoin:round"
     id="use159"
     xlink:href="#DejaVuSans-Oblique-82"
     transform="matrix(0.2,0,0,-0.2,237.66859,332.33984)" />
  <use
     height="100%"
     width="100%"
     y="0"
     x="0"
     style="stroke-linecap:butt;stroke-linejoin:round"
     id="use161"
     xlink:href="#ArialMT-32"
     transform="matrix(0.2,0,0,-0.2,251.56507,332.33984)" />
  <use
     height="100%"
     width="100%"
     y="0"
     x="0"
     style="stroke-linecap:butt;stroke-linejoin:round"
     id="use163"
     xlink:href="#ArialMT-40"
     transform="matrix(0.2,0,0,-0.2,257.12172,332.33984)" />
  <use
     height="100%"
     width="100%"
     y="0"
     x="0"
     style="stroke-linecap:butt;stroke-linejoin:round"
     id="use165"
     xlink:href="#ArialMT-102"
     transform="matrix(0.2,0,0,-0.2,263.78187,332.33984)" />
  <use
     height="100%"
     width="100%"
     y="0"
     x="0"
     style="stroke-linecap:butt;stroke-linejoin:round"
     id="use167"
     xlink:href="#ArialMT-109"
     transform="matrix(0.2,0,0,-0.2,269.33851,332.33984)" />
  <use
     height="100%"
     width="100%"
     y="0"
     x="0"
     style="stroke-linecap:butt;stroke-linejoin:round"
     id="use169"
     xlink:href="#ArialMT-41"
     transform="matrix(0.2,0,0,-0.2,285.99867,332.33984)" />
  <path
     inkscape:connector-curvature="0"
     id="path175"
     style="fill:none;stroke:#b0b0b0;stroke-width:0.80000001;stroke-linecap:square;stroke-linejoin:round"
     d="M 79.529375,310.71562 H 470.12937"
     clip-path="url(#pc2f6ccca3b)"
     transform="translate(-9.6607824,-25.576719)" />
  <use
     style="stroke:#000000;stroke-width:0.80000001;stroke-linecap:butt;stroke-linejoin:round"
     x="79.529373"
     xlink:href="#m95aa9da6fa"
     y="310.71564"
     id="use181"
     width="100%"
     height="100%"
     transform="translate(-9.6607824,-25.576719)" />
  <use
     style="stroke:#000000;stroke-width:0.80000001;stroke-linecap:butt;stroke-linejoin:round"
     x="470.12936"
     xlink:href="#m85ba283858"
     y="310.71564"
     id="use189"
     width="100%"
     height="100%"
     transform="translate(-9.6607824,-25.576719)" />
  <use
     xlink:href="#ArialMT-8722"
     id="use198"
     style="stroke-linecap:butt;stroke-linejoin:round"
     x="0"
     y="0"
     width="100%"
     height="100%"
     transform="matrix(0.22,0,0,-0.22,22.939218,293.0125)" />
  <use
     x="58.398438"
     xlink:href="#ArialMT-48"
     id="use200"
     style="stroke-linecap:butt;stroke-linejoin:round"
     y="0"
     width="100%"
     height="100%"
     transform="matrix(0.22,0,0,-0.22,22.939218,293.0125)" />
  <use
     x="114.01367"
     xlink:href="#ArialMT-46"
     id="use202"
     style="stroke-linecap:butt;stroke-linejoin:round"
     y="0"
     width="100%"
     height="100%"
     transform="matrix(0.22,0,0,-0.22,22.939218,293.0125)" />
  <use
     x="141.79688"
     xlink:href="#ArialMT-52"
     id="use204"
     style="stroke-linecap:butt;stroke-linejoin:round"
     y="0"
     width="100%"
     height="100%"
     transform="matrix(0.22,0,0,-0.22,22.939218,293.0125)" />
  <path
     inkscape:connector-curvature="0"
     id="path210"
     style="fill:none;stroke:#b0b0b0;stroke-width:0.80000001;stroke-linecap:square;stroke-linejoin:round"
     d="M 79.529375,255.27562 H 470.12937"
     clip-path="url(#pc2f6ccca3b)"
     transform="translate(-9.6607824,-25.576719)" />
  <use
     style="stroke:#000000;stroke-width:0.80000001;stroke-linecap:butt;stroke-linejoin:round"
     x="79.529373"
     xlink:href="#m95aa9da6fa"
     y="255.27562"
     id="use213"
     width="100%"
     height="100%"
     transform="translate(-9.6607824,-25.576719)" />
  <use
     style="stroke:#000000;stroke-width:0.80000001;stroke-linecap:butt;stroke-linejoin:round"
     x="470.12936"
     xlink:href="#m85ba283858"
     y="255.27562"
     id="use218"
     width="100%"
     height="100%"
     transform="translate(-9.6607824,-25.576719)" />
  <use
     xlink:href="#ArialMT-8722"
     id="use223"
     style="stroke-linecap:butt;stroke-linejoin:round"
     x="0"
     y="0"
     width="100%"
     height="100%"
     transform="matrix(0.22,0,0,-0.22,22.939218,237.5725)" />
  <use
     x="58.398438"
     xlink:href="#ArialMT-48"
     id="use225"
     style="stroke-linecap:butt;stroke-linejoin:round"
     y="0"
     width="100%"
     height="100%"
     transform="matrix(0.22,0,0,-0.22,22.939218,237.5725)" />
  <use
     x="114.01367"
     xlink:href="#ArialMT-46"
     id="use227"
     style="stroke-linecap:butt;stroke-linejoin:round"
     y="0"
     width="100%"
     height="100%"
     transform="matrix(0.22,0,0,-0.22,22.939218,237.5725)" />
  <use
     x="141.79688"
     xlink:href="#ArialMT-50"
     id="use229"
     style="stroke-linecap:butt;stroke-linejoin:round"
     y="0"
     width="100%"
     height="100%"
     transform="matrix(0.22,0,0,-0.22,22.939218,237.5725)" />
  <path
     inkscape:connector-curvature="0"
     id="path235"
     style="fill:none;stroke:#b0b0b0;stroke-width:0.80000001;stroke-linecap:square;stroke-linejoin:round"
     d="M 79.529375,199.83562 H 470.12937"
     clip-path="url(#pc2f6ccca3b)"
     transform="translate(-9.6607824,-25.576719)" />
  <use
     style="stroke:#000000;stroke-width:0.80000001;stroke-linecap:butt;stroke-linejoin:round"
     x="79.529373"
     xlink:href="#m95aa9da6fa"
     y="199.83563"
     id="use238"
     width="100%"
     height="100%"
     transform="translate(-9.6607824,-25.576719)" />
  <use
     style="stroke:#000000;stroke-width:0.80000001;stroke-linecap:butt;stroke-linejoin:round"
     x="470.12936"
     xlink:href="#m85ba283858"
     y="199.83563"
     id="use243"
     width="100%"
     height="100%"
     transform="translate(-9.6607824,-25.576719)" />
  <use
     xlink:href="#ArialMT-48"
     id="use248"
     style="stroke-linecap:butt;stroke-linejoin:round"
     x="0"
     y="0"
     width="100%"
     height="100%"
     transform="matrix(0.22,0,0,-0.22,35.788593,182.1325)" />
  <use
     x="55.615234"
     xlink:href="#ArialMT-46"
     id="use250"
     style="stroke-linecap:butt;stroke-linejoin:round"
     y="0"
     width="100%"
     height="100%"
     transform="matrix(0.22,0,0,-0.22,35.788593,182.1325)" />
  <use
     x="83.398438"
     xlink:href="#ArialMT-48"
     id="use252"
     style="stroke-linecap:butt;stroke-linejoin:round"
     y="0"
     width="100%"
     height="100%"
     transform="matrix(0.22,0,0,-0.22,35.788593,182.1325)" />
  <path
     inkscape:connector-curvature="0"
     id="path258"
     style="fill:none;stroke:#b0b0b0;stroke-width:0.80000001;stroke-linecap:square;stroke-linejoin:round"
     d="M 79.529375,144.39562 H 470.12937"
     clip-path="url(#pc2f6ccca3b)"
     transform="translate(-9.6607824,-25.576719)" />
  <use
     style="stroke:#000000;stroke-width:0.80000001;stroke-linecap:butt;stroke-linejoin:round"
     x="79.529373"
     xlink:href="#m95aa9da6fa"
     y="144.39563"
     id="use261"
     width="100%"
     height="100%"
     transform="translate(-9.6607824,-25.576719)" />
  <use
     style="stroke:#000000;stroke-width:0.80000001;stroke-linecap:butt;stroke-linejoin:round"
     x="470.12936"
     xlink:href="#m85ba283858"
     y="144.39563"
     id="use266"
     width="100%"
     height="100%"
     transform="translate(-9.6607824,-25.576719)" />
  <use
     xlink:href="#ArialMT-48"
     id="use271"
     style="stroke-linecap:butt;stroke-linejoin:round"
     x="0"
     y="0"
     width="100%"
     height="100%"
     transform="matrix(0.22,0,0,-0.22,35.788593,126.6925)" />
  <use
     x="55.615234"
     xlink:href="#ArialMT-46"
     id="use273"
     style="stroke-linecap:butt;stroke-linejoin:round"
     y="0"
     width="100%"
     height="100%"
     transform="matrix(0.22,0,0,-0.22,35.788593,126.6925)" />
  <use
     x="83.398438"
     xlink:href="#ArialMT-50"
     id="use275"
     style="stroke-linecap:butt;stroke-linejoin:round"
     y="0"
     width="100%"
     height="100%"
     transform="matrix(0.22,0,0,-0.22,35.788593,126.6925)" />
  <path
     inkscape:connector-curvature="0"
     id="path281"
     style="fill:none;stroke:#b0b0b0;stroke-width:0.80000001;stroke-linecap:square;stroke-linejoin:round"
     d="M 79.529375,88.955625 H 470.12937"
     clip-path="url(#pc2f6ccca3b)"
     transform="translate(-9.6607824,-25.576719)" />
  <use
     style="stroke:#000000;stroke-width:0.80000001;stroke-linecap:butt;stroke-linejoin:round"
     x="79.529373"
     xlink:href="#m95aa9da6fa"
     y="88.955627"
     id="use284"
     width="100%"
     height="100%"
     transform="translate(-9.6607824,-25.576719)" />
  <use
     style="stroke:#000000;stroke-width:0.80000001;stroke-linecap:butt;stroke-linejoin:round"
     x="470.12936"
     xlink:href="#m85ba283858"
     y="88.955627"
     id="use289"
     width="100%"
     height="100%"
     transform="translate(-9.6607824,-25.576719)" />
  <use
     xlink:href="#ArialMT-48"
     id="use294"
     style="stroke-linecap:butt;stroke-linejoin:round"
     x="0"
     y="0"
     width="100%"
     height="100%"
     transform="matrix(0.22,0,0,-0.22,35.788593,71.2525)" />
  <use
     x="55.615234"
     xlink:href="#ArialMT-46"
     id="use296"
     style="stroke-linecap:butt;stroke-linejoin:round"
     y="0"
     width="100%"
     height="100%"
     transform="matrix(0.22,0,0,-0.22,35.788593,71.2525)" />
  <use
     x="83.398438"
     xlink:href="#ArialMT-52"
     id="use298"
     style="stroke-linecap:butt;stroke-linejoin:round"
     y="0"
     width="100%"
     height="100%"
     transform="matrix(0.22,0,0,-0.22,35.788593,71.2525)" />
  <path
     inkscape:connector-curvature="0"
     id="path304"
     style="fill:none;stroke:#b0b0b0;stroke-width:0.80000001;stroke-linecap:square;stroke-linejoin:round"
     d="M 79.529375,33.515625 H 470.12937"
     clip-path="url(#pc2f6ccca3b)"
     transform="translate(-9.6607824,-25.576719)" />
  <use
     style="stroke:#000000;stroke-width:0.80000001;stroke-linecap:butt;stroke-linejoin:round"
     x="79.529373"
     xlink:href="#m95aa9da6fa"
     y="33.515625"
     id="use307"
     width="100%"
     height="100%"
     transform="translate(-9.6607824,-25.576719)" />
  <use
     style="stroke:#000000;stroke-width:0.80000001;stroke-linecap:butt;stroke-linejoin:round"
     x="470.12936"
     xlink:href="#m85ba283858"
     y="33.515625"
     id="use312"
     width="100%"
     height="100%"
     transform="translate(-9.6607824,-25.576719)" />
  <use
     xlink:href="#ArialMT-48"
     id="use320"
     style="stroke-linecap:butt;stroke-linejoin:round"
     x="0"
     y="0"
     width="100%"
     height="100%"
     transform="matrix(0.22,0,0,-0.22,35.788593,15.8125)" />
  <use
     x="55.615234"
     xlink:href="#ArialMT-46"
     id="use322"
     style="stroke-linecap:butt;stroke-linejoin:round"
     y="0"
     width="100%"
     height="100%"
     transform="matrix(0.22,0,0,-0.22,35.788593,15.8125)" />
  <use
     x="83.398438"
     xlink:href="#ArialMT-54"
     id="use324"
     style="stroke-linecap:butt;stroke-linejoin:round"
     y="0"
     width="100%"
     height="100%"
     transform="matrix(0.22,0,0,-0.22,35.788593,15.8125)" />
  <path
     inkscape:connector-curvature="0"
     id="path361"
     style="fill:none;stroke:#000000;stroke-width:3;stroke-linecap:butt;stroke-linejoin:round;stroke-dashoffset:0"
     d="m 79.529375,199.83562 6.51,-8.65141 6.51,-2.90383 6.51,4.79375 6.509995,9.35325 6.51001,7.72549 6.51,0.84116 6.50999,-7.00024 6.51,-10.87727 6.51,-8.20753 6.51,-0.216 6.51,8.89582 6.51,14.31015 6.51,13.0562 6.51,5.24335 6.51,-6.33117 6.51,-17.71859 6.51,-25.53528 6.51,-28.07177 6.51001,-25.48687 6.50999,-19.27344 6.51,-11.430619 6.51,-3.747744 6.51,2.59182 6.51,7.076084 6.51,9.716969 6.51,10.83103 6.51,10.8413 6.51,10.15605 6.51,9.10463 6.51001,7.92654 6.51,6.77976 6.50999,5.75467 6.51,4.89277 6.51,4.19759 6.51,3.64839 6.51,3.21023 6.51001,2.84351 6.50999,2.51174 6.51,2.18675 6.51,1.85189 6.51,1.50276 6.51,1.14571 6.51001,0.79548 6.51,0.4713 6.50999,0.41778 6.51,0.3188 6.51,0.25059 6.51,0.10201 6.51001,0.10644 h 6.51 6.50999 6.51 6.51 6.51 6.51001 6.51 6.50999 6.51 6.51 6.51 6.51 1.69001"
     clip-path="url(#pc2f6ccca3b)"
     transform="translate(-9.6607824,-25.576719)" />
  <path
     inkscape:connector-curvature="0"
     id="path364"
     style="fill:none;stroke:#ff0000;stroke-width:3;stroke-linecap:butt;stroke-linejoin:round;stroke-dasharray:18, 3;stroke-dashoffset:0"
     d="m 79.529375,199.83562 3.255,-26.65226 3.255,-21.68731 3.255,-12.65023 3.255,-1.2984 3.255,10.22699 3.255,19.80646 3.254995,25.71552 3.255,26.94649 3.25501,23.35954 3.255,15.68762 3.25499,5.36884 3.25501,-5.74934 3.255,-15.75438 3.25499,-23.0024 6.51,-51.92936 3.255,-20.72435 3.255,-12.89056 3.255,-3.35281 3.255,6.40523 3.255,15.0017 3.255,21.34017 6.51,49.79986 3.255,22.43831 3.255,17.49837 3.255,10.99302 3.255,3.76503 3.255,-3.39788 3.255,-9.83647 3.255,-15.07847 3.255,-18.85853 3.255,-21.09835 6.51,-43.24927 3.255,-19.85819 3.255,-17.60185 3.25501,-14.87987 3.25499,-11.93428 3.255,-8.966977 3.255,-6.131524 3.255,-3.536391 3.255,-1.250003 3.255,0.69593 3.255,2.29807 3.255,3.56643 3.255,4.529384 3.255,5.220307 3.255,5.674244 16.275,29.49941 3.255,5.41056 3.255,5.1185 3.255,4.80475 3.255,4.48433 3.255,4.16055 3.25501,3.84347 3.255,3.53472 3.255,3.241 3.255,2.96229 3.25499,2.70194 3.255,2.45829 3.255,2.23298 3.255,2.0227 3.255,1.83412 3.255,1.65671 3.255,1.49733 3.255,1.35164 3.255,1.21913 6.51001,2.08912 6.50999,1.69443 6.51,1.3725 6.51,1.11066 6.51,0.8987 9.76501,1.03621 9.765,0.75401 9.76499,0.5488 13.02,0.50759 16.27501,0.39732 22.78499,0.30092 32.55,0.18292 17.96501,0.0443 v 0"
     clip-path="url(#pc2f6ccca3b)"
     transform="translate(-9.6607824,-25.576719)" />
  <path
     inkscape:connector-curvature="0"
     id="path367"
     style="fill:none;stroke:#000000;stroke-width:0.80000001;stroke-linecap:square;stroke-linejoin:miter"
     d="M 69.868593,285.1389 V 7.938906" />
  <path
     inkscape:connector-curvature="0"
     id="path370"
     style="fill:none;stroke:#000000;stroke-width:0.80000001;stroke-linecap:square;stroke-linejoin:miter"
     d="M 460.46859,285.1389 V 7.938906" />
  <path
     inkscape:connector-curvature="0"
     id="path373"
     style="fill:none;stroke:#000000;stroke-width:0.80000001;stroke-linecap:square;stroke-linejoin:miter"
     d="M 69.868593,285.1389 H 460.46859" />
  <path
     inkscape:connector-curvature="0"
     id="path376"
     style="fill:none;stroke:#000000;stroke-width:0.80000001;stroke-linecap:square;stroke-linejoin:miter"
     d="M 69.868593,7.938906 H 460.46859" />
  <use
     height="100%"
     width="100%"
     y="0"
     x="0"
     style="stroke-linecap:butt;stroke-linejoin:round"
     id="use424"
     xlink:href="#ArialMT-32"
     transform="matrix(0.18,0,0,-0.18,379.19982,62.467656)" />
  <use
     height="100%"
     width="100%"
     y="0"
     x="0"
     style="stroke-linecap:butt;stroke-linejoin:round"
     id="use434"
     xlink:href="#ArialMT-32"
     transform="matrix(0.18,0,0,-0.18,419.234,62.467656)" />
  <defs
     id="defs449">
    <clipPath
       id="pc2f6ccca3b"
       style="stroke-linecap:butt;stroke-linejoin:round">
      <rect
         height="277.20001"
         width="390.60001"
         x="79.529373"
         y="33.515625"
         id="rect446"
         style="stroke-linecap:butt;stroke-linejoin:round" />
    </clipPath>
  </defs>
  <g
     id="g2751"
     ns0:preamble="/home/yoshidak/.config/inkscape/extensions/package.tex"
     ns0:text="$R\\varphi_{\\alpha}(R)$\n"
     transform="matrix(0,-2.6859826,2.6859826,0,-341.87354,785.72852)"
     style="stroke-linecap:butt;stroke-linejoin:round">
    <defs
       id="defs2724">
      <g
         id="g2722"
         style="stroke-linecap:butt;stroke-linejoin:round">
        <symbol
           id="textext-7f088ae2-0"
           overflow="visible"
           style="overflow:visible;stroke-linecap:butt;stroke-linejoin:round">
          <path
             id="path2698"
             d=""
             style="stroke:none;stroke-linecap:butt;stroke-linejoin:round"
             inkscape:connector-curvature="0" />
        </symbol>
        <symbol
           id="textext-7f088ae2-1"
           overflow="visible"
           style="overflow:visible;stroke-linecap:butt;stroke-linejoin:round">
          <path
             id="path2701"
             d="m 3.734375,-6.125 c 0.0625,-0.234375 0.09375,-0.328125 0.28125,-0.359375 C 4.109375,-6.5 4.421875,-6.5 4.625,-6.5 c 0.703125,0 1.8125,0 1.8125,0.984375 0,0.34375 -0.15625,1.03125 -0.546875,1.421875 -0.265625,0.25 -0.78125,0.578125 -1.6875,0.578125 H 3.09375 Z m 1.4375,2.734375 c 1.015625,-0.21875 2.1875,-0.921875 2.1875,-1.921875 0,-0.859375 -0.890625,-1.5 -2.203125,-1.5 H 2.328125 c -0.203125,0 -0.296875,0 -0.296875,0.203125 C 2.03125,-6.5 2.125,-6.5 2.3125,-6.5 c 0.015625,0 0.203125,0 0.375,0.015625 0.1875,0.03125 0.265625,0.03125 0.265625,0.171875 0,0.03125 0,0.0625 -0.03125,0.1875 l -1.34375,5.34375 C 1.484375,-0.390625 1.46875,-0.3125 0.671875,-0.3125 0.5,-0.3125 0.40625,-0.3125 0.40625,-0.109375 0.40625,0 0.53125,0 0.546875,0 c 0.28125,0 0.984375,-0.03125 1.25,-0.03125 0.28125,0 1,0.03125 1.28125,0.03125 0.078125,0 0.1875,0 0.1875,-0.203125 0,-0.109375 -0.078125,-0.109375 -0.28125,-0.109375 -0.359375,0 -0.640625,0 -0.640625,-0.171875 0,-0.0625 0.015625,-0.109375 0.03125,-0.171875 l 0.65625,-2.640625 h 1.1875 c 0.90625,0 1.078125,0.5625 1.078125,0.90625 0,0.140625 -0.078125,0.453125 -0.140625,0.6875 C 5.09375,-1.421875 5,-1.0625 5,-0.859375 5,0.21875 6.203125,0.21875 6.328125,0.21875 c 0.84375,0 1.203125,-1 1.203125,-1.140625 0,-0.125 -0.109375,-0.125 -0.125,-0.125 -0.09375,0 -0.109375,0.0625 -0.125,0.140625 C 7.03125,-0.171875 6.59375,0 6.375,0 6.046875,0 5.96875,-0.21875 5.96875,-0.609375 c 0,-0.3125 0.0625,-0.8125 0.109375,-1.140625 0.015625,-0.140625 0.03125,-0.328125 0.03125,-0.46875 0,-0.765625 -0.671875,-1.078125 -0.9375,-1.171875 z m 0,0"
             style="stroke:none;stroke-linecap:butt;stroke-linejoin:round"
             inkscape:connector-curvature="0" />
        </symbol>
        <symbol
           id="textext-7f088ae2-2"
           overflow="visible"
           style="overflow:visible;stroke-linecap:butt;stroke-linejoin:round">
          <path
             id="path2704"
             d="M 1.6875,1.6875 C 1.65625,1.828125 1.640625,1.84375 1.640625,1.890625 c 0,0.21875 0.1875,0.28125 0.296875,0.28125 0.046875,0 0.265625,-0.03125 0.359375,-0.265625 C 2.328125,1.828125 2.375,1.5 2.65625,0.09375 c 0.078125,0 0.15625,0.015625 0.328125,0.015625 1.65625,0 3.1875,-1.5625 3.1875,-3.140625 0,-0.78125 -0.390625,-1.375 -1.140625,-1.375 -1.4375,0 -2.046875,1.9375 -2.640625,3.875 C 1.3125,-0.734375 0.75,-1.28125 0.75,-2 c 0,-0.28125 0.234375,-1.375 0.828125,-2.0625 0.09375,-0.09375 0.09375,-0.109375 0.09375,-0.140625 0,-0.03125 -0.03125,-0.09375 -0.125,-0.09375 -0.28125,0 -1.046875,1.453125 -1.046875,2.40625 0,0.9375 0.65625,1.65625 1.71875,1.90625 z m 1.390625,-2.15625 c -0.09375,0 -0.109375,0 -0.1875,-0.015625 -0.125,0 -0.125,0 -0.125,-0.03125 0,-0.015625 0.171875,-0.9375 0.1875,-1.078125 0.3125,-1.28125 1.09375,-2.234375 1.984375,-2.234375 0.6875,0 0.953125,0.53125 0.953125,1.015625 0,1.125 -1.28125,2.34375 -2.8125,2.34375 z m 0,0"
             style="stroke:none;stroke-linecap:butt;stroke-linejoin:round"
             inkscape:connector-curvature="0" />
        </symbol>
        <symbol
           id="textext-7f088ae2-3"
           overflow="visible"
           style="overflow:visible;stroke-linecap:butt;stroke-linejoin:round">
          <path
             id="path2707"
             d=""
             style="stroke:none;stroke-linecap:butt;stroke-linejoin:round"
             inkscape:connector-curvature="0" />
        </symbol>
        <symbol
           id="textext-7f088ae2-4"
           overflow="visible"
           style="overflow:visible;stroke-linecap:butt;stroke-linejoin:round">
          <path
             id="path2710"
             d="m 3.8125,-0.984375 c 0.640625,-0.65625 0.890625,-1.59375 0.890625,-1.65625 0,-0.09375 -0.078125,-0.09375 -0.109375,-0.09375 C 4.5,-2.734375 4.5,-2.71875 4.453125,-2.5625 4.328125,-2.109375 4.09375,-1.671875 3.796875,-1.296875 3.796875,-1.40625 3.78125,-1.875 3.765625,-1.9375 3.65625,-2.625 3.140625,-3.078125 2.4375,-3.078125 c -1.015625,0 -2,0.953125 -2,1.9375 0,0.640625 0.46875,1.203125 1.265625,1.203125 0.640625,0 1.21875,-0.28125 1.609375,-0.578125 0.171875,0.5 0.515625,0.578125 0.734375,0.578125 0.40625,0 0.65625,-0.328125 0.65625,-0.484375 C 4.703125,-0.5 4.609375,-0.5 4.578125,-0.5 c -0.09375,0 -0.109375,0.03125 -0.125,0.0625 -0.09375,0.265625 -0.3125,0.3125 -0.390625,0.3125 -0.09375,0 -0.21875,0 -0.25,-0.859375 z M 3.265625,-0.75 C 2.578125,-0.1875 2,-0.125 1.734375,-0.125 c -0.46875,0 -0.71875,-0.3125 -0.71875,-0.78125 0,-0.1875 0.09375,-0.953125 0.453125,-1.4375 C 1.796875,-2.765625 2.1875,-2.875 2.4375,-2.875 c 0.546875,0 0.71875,0.53125 0.765625,0.96875 0.046875,0.296875 0.03125,0.796875 0.0625,1.15625 z m 0,0"
             style="stroke:none;stroke-linecap:butt;stroke-linejoin:round"
             inkscape:connector-curvature="0" />
        </symbol>
        <symbol
           id="textext-7f088ae2-5"
           overflow="visible"
           style="overflow:visible;stroke-linecap:butt;stroke-linejoin:round">
          <path
             id="path2713"
             d=""
             style="stroke:none;stroke-linecap:butt;stroke-linejoin:round"
             inkscape:connector-curvature="0" />
        </symbol>
        <symbol
           id="textext-7f088ae2-6"
           overflow="visible"
           style="overflow:visible;stroke-linecap:butt;stroke-linejoin:round">
          <path
             id="path2716"
             d="m 3.296875,2.390625 c 0,-0.03125 0,-0.046875 -0.171875,-0.21875 C 1.890625,0.921875 1.5625,-0.96875 1.5625,-2.5 c 0,-1.734375 0.375,-3.46875 1.609375,-4.703125 0.125,-0.125 0.125,-0.140625 0.125,-0.171875 0,-0.078125 -0.03125,-0.109375 -0.09375,-0.109375 -0.109375,0 -1,0.6875 -1.59375,1.953125 -0.5,1.09375 -0.625,2.203125 -0.625,3.03125 0,0.78125 0.109375,1.984375 0.65625,3.125 C 2.25,1.84375 3.09375,2.5 3.203125,2.5 c 0.0625,0 0.09375,-0.03125 0.09375,-0.109375 z m 0,0"
             style="stroke:none;stroke-linecap:butt;stroke-linejoin:round"
             inkscape:connector-curvature="0" />
        </symbol>
        <symbol
           id="textext-7f088ae2-7"
           overflow="visible"
           style="overflow:visible;stroke-linecap:butt;stroke-linejoin:round">
          <path
             id="path2719"
             d="m 2.875,-2.5 c 0,-0.765625 -0.109375,-1.96875 -0.65625,-3.109375 -0.59375,-1.21875 -1.453125,-1.875 -1.546875,-1.875 -0.0625,0 -0.109375,0.046875 -0.109375,0.109375 0,0.03125 0,0.046875 0.1875,0.234375 0.984375,0.984375 1.546875,2.5625 1.546875,4.640625 0,1.71875 -0.359375,3.46875 -1.59375,4.71875 C 0.5625,2.34375 0.5625,2.359375 0.5625,2.390625 0.5625,2.453125 0.609375,2.5 0.671875,2.5 0.765625,2.5 1.671875,1.8125 2.25,0.546875 2.765625,-0.546875 2.875,-1.65625 2.875,-2.5 Z m 0,0"
             style="stroke:none;stroke-linecap:butt;stroke-linejoin:round"
             inkscape:connector-curvature="0" />
        </symbol>
      </g>
    </defs>
    <g
       id="textext-7f088ae2-8"
       style="stroke-linecap:butt;stroke-linejoin:round">
      <g
         id="g2728"
         style="fill:#000000;fill-opacity:1;stroke-linecap:butt;stroke-linejoin:round">
        <use
           id="use2726"
           y="134.765"
           x="223.43201"
           xlink:href="#textext-7f088ae2-1"
           style="stroke-linecap:butt;stroke-linejoin:round"
           width="100%"
           height="100%" />
      </g>
      <g
         id="g2732"
         style="fill:#000000;fill-opacity:1;stroke-linecap:butt;stroke-linejoin:round">
        <use
           id="use2730"
           y="134.765"
           x="231.07631"
           xlink:href="#textext-7f088ae2-2"
           style="stroke-linecap:butt;stroke-linejoin:round"
           width="100%"
           height="100%" />
      </g>
      <g
         id="g2736"
         style="fill:#000000;fill-opacity:1;stroke-linecap:butt;stroke-linejoin:round">
        <use
           id="use2734"
           y="136.259"
           x="237.591"
           xlink:href="#textext-7f088ae2-4"
           style="stroke-linecap:butt;stroke-linejoin:round"
           width="100%"
           height="100%" />
      </g>
      <g
         id="g2740"
         style="fill:#000000;fill-opacity:1;stroke-linecap:butt;stroke-linejoin:round">
        <use
           id="use2738"
           y="134.765"
           x="243.26801"
           xlink:href="#textext-7f088ae2-6"
           style="stroke-linecap:butt;stroke-linejoin:round"
           width="100%"
           height="100%" />
      </g>
      <g
         id="g2744"
         style="fill:#000000;fill-opacity:1;stroke-linecap:butt;stroke-linejoin:round">
        <use
           id="use2742"
           y="134.765"
           x="247.14301"
           xlink:href="#textext-7f088ae2-1"
           style="stroke-linecap:butt;stroke-linejoin:round"
           width="100%"
           height="100%" />
      </g>
      <g
         id="g2748"
         style="fill:#000000;fill-opacity:1;stroke-linecap:butt;stroke-linejoin:round">
        <use
           id="use2746"
           y="134.765"
           x="254.784"
           xlink:href="#textext-7f088ae2-7"
           style="stroke-linecap:butt;stroke-linejoin:round"
           width="100%"
           height="100%" />
      </g>
    </g>
  </g>
  <path
     d="m 255.09307,39.779211 h 36"
     style="fill:none;stroke:#000000;stroke-width:3;stroke-linecap:butt;stroke-linejoin:round;stroke-dashoffset:0"
     id="path348"
     inkscape:connector-curvature="0" />
  <path
     d="m 255.09307,65.240773 h 36"
     style="fill:none;stroke:#ff0000;stroke-width:3;stroke-linecap:butt;stroke-linejoin:round;stroke-dasharray:17.99999992, 2.99999999;stroke-dashoffset:0"
     id="path364-0"
     inkscape:connector-curvature="0" />
  <text
     xml:space="preserve"
     style="font-style:normal;font-weight:normal;font-size:20.86973953px;line-height:1.25;font-family:sans-serif;letter-spacing:0px;word-spacing:0px;fill:#000000;fill-opacity:1;stroke:none;stroke-width:0.52174348;stroke-linecap:butt;stroke-linejoin:round"
     x="302.21906"
     y="46.812008"
     id="text2352"><tspan
       sodipodi:role="line"
       style="font-style:normal;font-variant:normal;font-weight:normal;font-stretch:normal;font-family:Arial;-inkscape-font-specification:Arial;stroke-width:0.52174348;stroke-linecap:butt;stroke-linejoin:round"
       x="302.21906"
       y="46.812008"
       id="tspan2382">AMD</tspan></text>
  <text
     xml:space="preserve"
     style="font-style:normal;font-weight:normal;font-size:20.25667953px;line-height:1.25;font-family:sans-serif;letter-spacing:0px;word-spacing:0px;fill:#000000;fill-opacity:1;stroke:none;stroke-width:0.50641704;stroke-linecap:butt;stroke-linejoin:round"
     x="300.04352"
     y="71.743195"
     id="text2352-3"><tspan
       sodipodi:role="line"
       id="tspan2350-6"
       style="font-style:normal;font-variant:normal;font-weight:normal;font-stretch:normal;font-family:arial;-inkscape-font-specification:arial;stroke-width:0.50641704;stroke-linecap:butt;stroke-linejoin:round"
       x="300.04352"
       y="71.743195">Woods-Saxon</tspan></text>
</svg>
