<?xml version="1.0" encoding="UTF-8" standalone="no"?>
<!-- Created with Inkscape (http://www.inkscape.org/) -->

<svg
   xmlns:ns0="http://www.iki.fi/pav/software/textext/"
   xmlns:dc="http://purl.org/dc/elements/1.1/"
   xmlns:cc="http://creativecommons.org/ns#"
   xmlns:rdf="http://www.w3.org/1999/02/22-rdf-syntax-ns#"
   xmlns:svg="http://www.w3.org/2000/svg"
   xmlns="http://www.w3.org/2000/svg"
   xmlns:xlink="http://www.w3.org/1999/xlink"
   xmlns:sodipodi="http://sodipodi.sourceforge.net/DTD/sodipodi-0.dtd"
   xmlns:inkscape="http://www.inkscape.org/namespaces/inkscape"
   id="svg2"
   version="1.1"
   inkscape:version="0.92.3 (2405546, 2018-03-11)"
   xml:space="preserve"
   width="290.55933"
   height="209.89462"
   viewBox="0 0 290.55933 209.89462"
   sodipodi:docname="tmd.svg"><sodipodi:namedview
     pagecolor="#ffffff"
     bordercolor="#666666"
     borderopacity="1"
     objecttolerance="10"
     gridtolerance="10"
     guidetolerance="10"
     inkscape:pageopacity="0"
     inkscape:pageshadow="2"
     inkscape:window-width="1920"
     inkscape:window-height="1051"
     id="namedview4"
     showgrid="false"
     inkscape:zoom="3.1733333"
     inkscape:cx="-9.2990576"
     inkscape:cy="97.848079"
     inkscape:window-x="0"
     inkscape:window-y="0"
     inkscape:window-maximized="1"
     inkscape:current-layer="g10"
     fit-margin-top="0"
     fit-margin-left="0"
     fit-margin-right="0"
     fit-margin-bottom="0" /><metadata
     id="metadata8"><rdf:RDF><cc:Work
         rdf:about=""><dc:format>image/svg+xml</dc:format><dc:type
           rdf:resource="http://purl.org/dc/dcmitype/StillImage" /><dc:title /></cc:Work></rdf:RDF></metadata><defs
     id="defs6"><clipPath
       clipPathUnits="userSpaceOnUse"
       id="clipPath18"><path
         d="m 830,260 2230,0 0,1540 -2230,0 0,-1540 z"
         id="path20"
         inkscape:connector-curvature="0" /></clipPath></defs><g
     id="g10"
     inkscape:groupmode="layer"
     inkscape:label="ink_ext_XXXXXX"
     transform="matrix(1.25,0,0,-1.25,-90.849356,224.11423)"><path
   inkscape:connector-curvature="0"
   id="path22"
   style="fill:none;stroke:#000000;stroke-width:0.25;stroke-linecap:butt;stroke-linejoin:miter;stroke-miterlimit:3.79999995;stroke-dasharray:none;stroke-opacity:1"
   d="m 103.199,39.25 3.153,0" /><path
   inkscape:connector-curvature="0"
   id="path24"
   style="fill:none;stroke:#000000;stroke-width:0.25;stroke-linecap:butt;stroke-linejoin:miter;stroke-miterlimit:3.79999995;stroke-dasharray:none;stroke-opacity:1"
   d="m 298.148,39.25 -3.148,0" /><text
   transform="scale(1,-1)"
   style="font-variant:normal;font-weight:normal;line-height:0%;font-family:'Times New Roman';-inkscape-font-specification:TimesNewRomanPSMT;writing-mode:lr-tb;fill:#000000;fill-opacity:1;fill-rule:nonzero;stroke:none"
   id="text28"
   x="88.128899"
   y="-34.732399"><tspan
     x="88.128899 92.124901"
     y="-34.732399"
     sodipodi:role="line"
     id="tspan30"
     style="font-size:12px;line-height:1.25">-2</tspan></text>

<path
   inkscape:connector-curvature="0"
   id="path32"
   style="fill:none;stroke:#000000;stroke-width:0.25;stroke-linecap:butt;stroke-linejoin:miter;stroke-miterlimit:3.79999995;stroke-dasharray:none;stroke-opacity:1"
   d="m 103.199,56.3012 3.153,0" /><path
   inkscape:connector-curvature="0"
   id="path34"
   style="fill:none;stroke:#000000;stroke-width:0.25;stroke-linecap:butt;stroke-linejoin:miter;stroke-miterlimit:3.79999995;stroke-dasharray:none;stroke-opacity:1"
   d="m 298.148,56.3012 -3.148,0" /><text
   transform="scale(1,-1)"
   style="font-variant:normal;font-weight:normal;font-size:12px;line-height:0%;font-family:'Times New Roman';-inkscape-font-specification:TimesNewRomanPSMT;writing-mode:lr-tb;fill:#000000;fill-opacity:1;fill-rule:nonzero;stroke:none"
   id="text38"
   x="92.125"
   y="-51.783199"><tspan
     x="92.125"
     y="-51.783199"
     id="tspan40">0</tspan></text>

<path
   inkscape:connector-curvature="0"
   id="path42"
   style="fill:none;stroke:#000000;stroke-width:0.25;stroke-linecap:butt;stroke-linejoin:miter;stroke-miterlimit:3.79999995;stroke-dasharray:none;stroke-opacity:1"
   d="m 103.199,73.352 3.153,0" /><path
   inkscape:connector-curvature="0"
   id="path44"
   style="fill:none;stroke:#000000;stroke-width:0.25;stroke-linecap:butt;stroke-linejoin:miter;stroke-miterlimit:3.79999995;stroke-dasharray:none;stroke-opacity:1"
   d="m 298.148,73.352 -3.148,0" /><text
   transform="scale(1,-1)"
   style="font-variant:normal;font-weight:normal;font-size:12px;line-height:0%;font-family:'Times New Roman';-inkscape-font-specification:TimesNewRomanPSMT;writing-mode:lr-tb;fill:#000000;fill-opacity:1;fill-rule:nonzero;stroke:none"
   id="text48"
   x="92.125"
   y="-68.830101"><tspan
     x="92.125"
     y="-68.830101"
     id="tspan50">2</tspan></text>

<path
   inkscape:connector-curvature="0"
   id="path52"
   style="fill:none;stroke:#000000;stroke-width:0.25;stroke-linecap:butt;stroke-linejoin:miter;stroke-miterlimit:3.79999995;stroke-dasharray:none;stroke-opacity:1"
   d="m 103.199,90.398 3.153,0" /><path
   inkscape:connector-curvature="0"
   id="path54"
   style="fill:none;stroke:#000000;stroke-width:0.25;stroke-linecap:butt;stroke-linejoin:miter;stroke-miterlimit:3.79999995;stroke-dasharray:none;stroke-opacity:1"
   d="m 298.148,90.398 -3.148,0" /><text
   transform="scale(1,-1)"
   style="font-variant:normal;font-weight:normal;font-size:12px;line-height:0%;font-family:'Times New Roman';-inkscape-font-specification:TimesNewRomanPSMT;writing-mode:lr-tb;fill:#000000;fill-opacity:1;fill-rule:nonzero;stroke:none"
   id="text58"
   x="92.125"
   y="-85.880898"><tspan
     x="92.125"
     y="-85.880898"
     id="tspan60">4</tspan></text>

<path
   inkscape:connector-curvature="0"
   id="path62"
   style="fill:none;stroke:#000000;stroke-width:0.25;stroke-linecap:butt;stroke-linejoin:miter;stroke-miterlimit:3.79999995;stroke-dasharray:none;stroke-opacity:1"
   d="m 103.199,107.5 3.153,0" /><path
   inkscape:connector-curvature="0"
   id="path64"
   style="fill:none;stroke:#000000;stroke-width:0.25;stroke-linecap:butt;stroke-linejoin:miter;stroke-miterlimit:3.79999995;stroke-dasharray:none;stroke-opacity:1"
   d="m 298.148,107.5 -3.148,0" /><text
   transform="scale(1,-1)"
   style="font-variant:normal;font-weight:normal;font-size:12px;line-height:0%;font-family:'Times New Roman';-inkscape-font-specification:TimesNewRomanPSMT;writing-mode:lr-tb;fill:#000000;fill-opacity:1;fill-rule:nonzero;stroke:none"
   id="text68"
   x="92.125"
   y="-102.982"><tspan
     x="92.125"
     y="-102.982"
     id="tspan70">6</tspan></text>

<path
   inkscape:connector-curvature="0"
   id="path72"
   style="fill:none;stroke:#000000;stroke-width:0.25;stroke-linecap:butt;stroke-linejoin:miter;stroke-miterlimit:3.79999995;stroke-dasharray:none;stroke-opacity:1"
   d="m 103.199,124.551 3.153,0" /><path
   inkscape:connector-curvature="0"
   id="path74"
   style="fill:none;stroke:#000000;stroke-width:0.25;stroke-linecap:butt;stroke-linejoin:miter;stroke-miterlimit:3.79999995;stroke-dasharray:none;stroke-opacity:1"
   d="m 298.148,124.551 -3.148,0" /><text
   transform="scale(1,-1)"
   style="font-variant:normal;font-weight:normal;font-size:12px;line-height:0%;font-family:'Times New Roman';-inkscape-font-specification:TimesNewRomanPSMT;writing-mode:lr-tb;fill:#000000;fill-opacity:1;fill-rule:nonzero;stroke:none"
   id="text78"
   x="92.125"
   y="-120.033"><tspan
     x="92.125"
     y="-120.033"
     id="tspan80">8</tspan></text>

<path
   inkscape:connector-curvature="0"
   id="path82"
   style="fill:none;stroke:#000000;stroke-width:0.25;stroke-linecap:butt;stroke-linejoin:miter;stroke-miterlimit:3.79999995;stroke-dasharray:none;stroke-opacity:1"
   d="m 103.199,141.602 3.153,0" /><path
   inkscape:connector-curvature="0"
   id="path84"
   style="fill:none;stroke:#000000;stroke-width:0.25;stroke-linecap:butt;stroke-linejoin:miter;stroke-miterlimit:3.79999995;stroke-dasharray:none;stroke-opacity:1"
   d="m 298.148,141.602 -3.148,0" /><text
   transform="scale(1,-1)"
   style="font-variant:normal;font-weight:normal;line-height:0%;font-family:'Times New Roman';-inkscape-font-specification:TimesNewRomanPSMT;writing-mode:lr-tb;fill:#000000;fill-opacity:1;fill-rule:nonzero;stroke:none"
   id="text88"
   x="86.125"
   y="-137.08"><tspan
     x="86.125 92.125"
     y="-137.08"
     sodipodi:role="line"
     id="tspan90"
     style="font-size:12px;line-height:1.25">10</tspan></text>

<path
   inkscape:connector-curvature="0"
   id="path92"
   style="fill:none;stroke:#000000;stroke-width:0.25;stroke-linecap:butt;stroke-linejoin:miter;stroke-miterlimit:3.79999995;stroke-dasharray:none;stroke-opacity:1"
   d="m 103.199,158.648 3.153,0" /><path
   inkscape:connector-curvature="0"
   id="path94"
   style="fill:none;stroke:#000000;stroke-width:0.25;stroke-linecap:butt;stroke-linejoin:miter;stroke-miterlimit:3.79999995;stroke-dasharray:none;stroke-opacity:1"
   d="m 298.148,158.648 -3.148,0" /><text
   transform="scale(1,-1)"
   style="font-variant:normal;font-weight:normal;line-height:0%;font-family:'Times New Roman';-inkscape-font-specification:TimesNewRomanPSMT;writing-mode:lr-tb;fill:#000000;fill-opacity:1;fill-rule:nonzero;stroke:none"
   id="text98"
   x="86.125"
   y="-154.131"><tspan
     x="86.125 92.125"
     y="-154.131"
     sodipodi:role="line"
     id="tspan100"
     style="font-size:12px;line-height:1.25">12</tspan></text>

<path
   inkscape:connector-curvature="0"
   id="path102"
   style="fill:none;stroke:#000000;stroke-width:0.25;stroke-linecap:butt;stroke-linejoin:miter;stroke-miterlimit:3.79999995;stroke-dasharray:none;stroke-opacity:1"
   d="m 103.199,175.699 3.153,0" /><path
   inkscape:connector-curvature="0"
   id="path104"
   style="fill:none;stroke:#000000;stroke-width:0.25;stroke-linecap:butt;stroke-linejoin:miter;stroke-miterlimit:3.79999995;stroke-dasharray:none;stroke-opacity:1"
   d="m 298.148,175.699 -3.148,0" /><text
   transform="scale(1,-1)"
   style="font-variant:normal;font-weight:normal;line-height:0%;font-family:'Times New Roman';-inkscape-font-specification:TimesNewRomanPSMT;writing-mode:lr-tb;fill:#000000;fill-opacity:1;fill-rule:nonzero;stroke:none"
   id="text108"
   x="86.125"
   y="-171.18201"><tspan
     x="86.125 92.125"
     y="-171.18201"
     sodipodi:role="line"
     id="tspan110"
     style="font-size:12px;line-height:1.25">14</tspan></text>

<path
   inkscape:connector-curvature="0"
   id="path112"
   style="fill:none;stroke:#000000;stroke-width:0.25;stroke-linecap:butt;stroke-linejoin:miter;stroke-miterlimit:3.79999995;stroke-dasharray:none;stroke-opacity:1"
   d="m 103.199,39.25 0,3.148" /><path
   inkscape:connector-curvature="0"
   id="path114"
   style="fill:none;stroke:#000000;stroke-width:0.25;stroke-linecap:butt;stroke-linejoin:miter;stroke-miterlimit:3.79999995;stroke-dasharray:none;stroke-opacity:1"
   d="m 103.199,175.699 0,-3.148" /><text
   transform="scale(1,-1)"
   style="font-variant:normal;font-weight:normal;font-size:12px;line-height:0%;font-family:'Times New Roman';-inkscape-font-specification:TimesNewRomanPSMT;writing-mode:lr-tb;fill:#000000;fill-opacity:1;fill-rule:nonzero;stroke:none"
   id="text118"
   x="101.6758"
   y="-26.783199"><tspan
     x="101.6758"
     y="-26.783199"
     id="tspan120">0</tspan></text>

<path
   inkscape:connector-curvature="0"
   id="path122"
   style="fill:none;stroke:#000000;stroke-width:0.25;stroke-linecap:butt;stroke-linejoin:miter;stroke-miterlimit:3.79999995;stroke-dasharray:none;stroke-opacity:1"
   d="m 135.699,39.25 0,3.148" /><path
   inkscape:connector-curvature="0"
   id="path124"
   style="fill:none;stroke:#000000;stroke-width:0.25;stroke-linecap:butt;stroke-linejoin:miter;stroke-miterlimit:3.79999995;stroke-dasharray:none;stroke-opacity:1"
   d="m 135.699,175.699 0,-3.148" /><text
   transform="scale(1,-1)"
   style="font-variant:normal;font-weight:normal;font-size:12px;line-height:0%;font-family:'Times New Roman';-inkscape-font-specification:TimesNewRomanPSMT;writing-mode:lr-tb;fill:#000000;fill-opacity:1;fill-rule:nonzero;stroke:none"
   id="text128"
   x="134.17599"
   y="-26.783199"><tspan
     x="134.17599"
     y="-26.783199"
     id="tspan130">2</tspan></text>

<path
   inkscape:connector-curvature="0"
   id="path132"
   style="fill:none;stroke:#000000;stroke-width:0.25;stroke-linecap:butt;stroke-linejoin:miter;stroke-miterlimit:3.79999995;stroke-dasharray:none;stroke-opacity:1"
   d="m 168.199,39.25 0,3.148" /><path
   inkscape:connector-curvature="0"
   id="path134"
   style="fill:none;stroke:#000000;stroke-width:0.25;stroke-linecap:butt;stroke-linejoin:miter;stroke-miterlimit:3.79999995;stroke-dasharray:none;stroke-opacity:1"
   d="m 168.199,175.699 0,-3.148" /><text
   transform="scale(1,-1)"
   style="font-variant:normal;font-weight:normal;font-size:12px;line-height:0%;font-family:'Times New Roman';-inkscape-font-specification:TimesNewRomanPSMT;writing-mode:lr-tb;fill:#000000;fill-opacity:1;fill-rule:nonzero;stroke:none"
   id="text138"
   x="166.67599"
   y="-26.783199"><tspan
     x="166.67599"
     y="-26.783199"
     id="tspan140">4</tspan></text>

<path
   inkscape:connector-curvature="0"
   id="path142"
   style="fill:none;stroke:#000000;stroke-width:0.25;stroke-linecap:butt;stroke-linejoin:miter;stroke-miterlimit:3.79999995;stroke-dasharray:none;stroke-opacity:1"
   d="m 200.699,39.25 0,3.148" /><path
   inkscape:connector-curvature="0"
   id="path144"
   style="fill:none;stroke:#000000;stroke-width:0.25;stroke-linecap:butt;stroke-linejoin:miter;stroke-miterlimit:3.79999995;stroke-dasharray:none;stroke-opacity:1"
   d="m 200.699,175.699 0,-3.148" /><text
   transform="scale(1,-1)"
   style="font-variant:normal;font-weight:normal;font-size:12px;line-height:0%;font-family:'Times New Roman';-inkscape-font-specification:TimesNewRomanPSMT;writing-mode:lr-tb;fill:#000000;fill-opacity:1;fill-rule:nonzero;stroke:none"
   id="text148"
   x="199.17599"
   y="-26.783199"><tspan
     x="199.17599"
     y="-26.783199"
     id="tspan150">6</tspan></text>

<path
   inkscape:connector-curvature="0"
   id="path152"
   style="fill:none;stroke:#000000;stroke-width:0.25;stroke-linecap:butt;stroke-linejoin:miter;stroke-miterlimit:3.79999995;stroke-dasharray:none;stroke-opacity:1"
   d="m 233.148,39.25 0,3.148" /><path
   inkscape:connector-curvature="0"
   id="path154"
   style="fill:none;stroke:#000000;stroke-width:0.25;stroke-linecap:butt;stroke-linejoin:miter;stroke-miterlimit:3.79999995;stroke-dasharray:none;stroke-opacity:1"
   d="m 233.148,175.699 0,-3.148" /><text
   transform="scale(1,-1)"
   style="font-variant:normal;font-weight:normal;font-size:12px;line-height:0%;font-family:'Times New Roman';-inkscape-font-specification:TimesNewRomanPSMT;writing-mode:lr-tb;fill:#000000;fill-opacity:1;fill-rule:nonzero;stroke:none"
   id="text158"
   x="231.625"
   y="-26.783199"><tspan
     x="231.625"
     y="-26.783199"
     id="tspan160">8</tspan></text>

<path
   inkscape:connector-curvature="0"
   id="path162"
   style="fill:none;stroke:#000000;stroke-width:0.25;stroke-linecap:butt;stroke-linejoin:miter;stroke-miterlimit:3.79999995;stroke-dasharray:none;stroke-opacity:1"
   d="m 265.648,39.25 0,3.148" /><path
   inkscape:connector-curvature="0"
   id="path164"
   style="fill:none;stroke:#000000;stroke-width:0.25;stroke-linecap:butt;stroke-linejoin:miter;stroke-miterlimit:3.79999995;stroke-dasharray:none;stroke-opacity:1"
   d="m 265.648,175.699 0,-3.148" /><text
   transform="scale(1,-1)"
   style="font-variant:normal;font-weight:normal;line-height:0%;font-family:'Times New Roman';-inkscape-font-specification:TimesNewRomanPSMT;writing-mode:lr-tb;fill:#000000;fill-opacity:1;fill-rule:nonzero;stroke:none"
   id="text168"
   x="261.125"
   y="-26.783199"><tspan
     x="261.125 267.125"
     y="-26.783199"
     sodipodi:role="line"
     id="tspan170"
     style="font-size:12px;line-height:1.25">10</tspan></text>

<path
   inkscape:connector-curvature="0"
   id="path172"
   style="fill:none;stroke:#000000;stroke-width:0.25;stroke-linecap:butt;stroke-linejoin:miter;stroke-miterlimit:3.79999995;stroke-dasharray:none;stroke-opacity:1"
   d="m 298.148,39.25 0,3.148" /><path
   inkscape:connector-curvature="0"
   id="path174"
   style="fill:none;stroke:#000000;stroke-width:0.25;stroke-linecap:butt;stroke-linejoin:miter;stroke-miterlimit:3.79999995;stroke-dasharray:none;stroke-opacity:1"
   d="m 298.148,175.699 0,-3.148" /><text
   transform="scale(1,-1)"
   style="font-variant:normal;font-weight:normal;line-height:0%;font-family:'Times New Roman';-inkscape-font-specification:TimesNewRomanPSMT;writing-mode:lr-tb;fill:#000000;fill-opacity:1;fill-rule:nonzero;stroke:none"
   id="text178"
   x="293.625"
   y="-26.783199"><tspan
     x="293.625 299.625"
     y="-26.783199"
     sodipodi:role="line"
     id="tspan180"
     style="font-size:12px;line-height:1.25">12</tspan></text>

<path
   inkscape:connector-curvature="0"
   id="path182"
   style="fill:none;stroke:#000000;stroke-width:0.25;stroke-linecap:butt;stroke-linejoin:miter;stroke-miterlimit:3.79999995;stroke-dasharray:none;stroke-opacity:1"
   d="m 103.199,39.25 194.949,0 0,136.449 -194.949,0 0,-136.449 z" /><text
   transform="scale(1,-1)"
   style="font-variant:normal;font-weight:normal;line-height:0%;font-family:'Times New Roman';-inkscape-font-specification:TimesNewRomanPSMT;writing-mode:lr-tb;fill:#000000;fill-opacity:1;fill-rule:nonzero;stroke:none"
   id="text186"
   x="231.258"
   y="-159.72099"><tspan
     x="231.258 239.20503 248.97598"
     y="-159.72099"
     sodipodi:role="line"
     id="tspan188"
     style="font-size:10.66699982px;line-height:1.25">AMD</tspan></text>

<path
   inkscape:connector-curvature="0"
   id="path190"
   style="fill:none;stroke:#000000;stroke-width:1;stroke-linecap:butt;stroke-linejoin:miter;stroke-miterlimit:3.79999995;stroke-dasharray:none;stroke-opacity:1"
   d="m 262.449,163.699 25.153,0" /><path
   inkscape:connector-curvature="0"
   id="path192"
   style="fill:none;stroke:#000000;stroke-width:1;stroke-linecap:butt;stroke-linejoin:miter;stroke-miterlimit:3.79999995;stroke-dasharray:none;stroke-opacity:1"
   d="m 103.199,56.3012 1.602,-0.0512 1.648,-0.148 1.602,-0.102 1.648,-0.148 1.602,0 1.648,0.0968 1.602,0.1992 1.648,0.3008 1.602,0.25 1.648,0.1532 1.602,-0.0508 1.648,-0.1992 1.602,-0.25 1.648,-0.1532 1.602,0.1992 1.648,0.454 1.602,0.75 1.648,0.6992 1.602,0.4488 1.648,-0.0512 1.602,-0.6476 1.648,-0.75 1.602,-0.9032 1.648,-0.1992 1.602,0.6532 1.648,1.3468 1.602,2 1.648,2.1024 1.602,0.8008 1.648,0.0968 1.602,-2.1476 1.648,-3.6992 1.602,-4.204 1.648,-4.25 1.602,-4 1.648,-0.3468 1.602,1.6988 1.648,5.0512 1.602,8.6988 1.648,11.6988 1.602,12.8012 1.648,14.852 1.602,14.898 1.648,13.449 1.602,13.153 1.648,10.347 1.602,8.25 1.648,6.25 1.602,3.949 1.648,1.801 1.602,0.102 1.648,-1.153 1.602,-2.648 1.648,-3.398 1.602,-3.852 1.648,-4.699 1.602,-4.653 1.648,-4.699 1.602,-5 1.648,-4.648 1.602,-4.602 1.597,-4.5 1.653,-4.25 1.597,-4.097 1.653,-3.903 1.597,-3.75 1.653,-3.551 1.597,-3.398 1.653,-3.301 1.597,-3.1478 1.653,-3.0512 1.597,-2.9488 1.653,-2.9032 1.597,-2.75 1.653,-2.6992 1.597,-2.5968 1.653,-2.5508 1.597,-2.4032 1.653,-2.3468 1.597,-2.1992 1.653,-2.0508 1.597,-1.9032 1.653,-1.75 1.597,-1.5 1.653,-1.3468 1.597,-1.1024 1.653,-0.8468 1.597,-0.6532 1.653,-0.75 1.597,-0.6476 1.653,-0.6532 1.597,-0.546 1.653,-0.5 1.597,-0.454 1.653,-0.296 1.597,-0.1532 1.653,-0.1476 1.597,-0.1532 1.653,-0.0968 1.597,-0.0512 1.653,0 1.597,0.0512 29.25,0" /><text
   transform="scale(1,-1)"
   style="font-variant:normal;font-weight:normal;line-height:0%;font-family:'Times New Roman';-inkscape-font-specification:TimesNewRomanPSMT;writing-mode:lr-tb;fill:#000000;fill-opacity:1;fill-rule:nonzero;stroke:none"
   id="text196"
   x="226.07401"
   y="-142.01801"><tspan
     x="226.07401 232.79408 238.29837 243.79175 248.67735 251.42931"
     y="-142.01801"
     sodipodi:role="line"
     id="tspan198"
     style="font-size:10.66699982px;line-height:1.25">Type 1</tspan></text>

<path
   inkscape:connector-curvature="0"
   id="path200"
   style="fill:none;stroke:#ff0000;stroke-width:1;stroke-linecap:butt;stroke-linejoin:miter;stroke-miterlimit:3.79999995;stroke-dasharray:5.5, 2.2;stroke-dashoffset:0;stroke-opacity:1"
   d="m 262.449,146 25.153,0" /><path
   inkscape:connector-curvature="0"
   id="path202"
   style="fill:none;stroke:#ff0000;stroke-width:1;stroke-linecap:butt;stroke-linejoin:miter;stroke-miterlimit:3.79999995;stroke-dasharray:5.5, 2.2;stroke-dashoffset:0;stroke-opacity:1"
   d="m 103.199,56.3012 1.602,-0.0512 1.648,-0.148 1.602,-0.102 1.648,-0.148 1.602,-0.102 1.648,0.0512 1.602,0.1988 1.648,0.3012 1.602,0.3008 1.648,0.1992 1.602,0.0968 1.648,-0.1992 1.602,-0.3008 1.648,-0.3468 1.602,-0.1024 1.648,0.25 1.602,0.6992 1.648,0.9032 1.602,1.0508 1.648,0.5968 1.602,0 1.648,-0.5508 1.602,-1.1992 1.648,-0.8008 1.602,-0.296 1.648,0.6992 1.602,2.1476 1.648,3.0512 1.602,2.9488 1.648,3.3012 1.602,0.5512 1.648,-0.9492 1.602,-2.6532 1.648,-4.3976 1.602,-5.3524 1.648,-2.8976 1.602,-2.0512 1.648,1.648 1.602,5.75 1.648,9.0508 1.602,11.6532 1.648,14.5968 1.602,15.2502 1.648,14.102 1.602,14.301 1.648,11 1.602,8.648 1.648,6.449 1.602,3.801 1.648,1.398 1.602,-0.347 1.648,-1.25 1.602,-2.75 1.648,-3.153 1.602,-3.199 1.648,-3.75 1.602,-3.597 1.648,-3.551 1.602,-3.602 1.648,-3.699 1.602,-3.801 1.597,-3.847 1.653,-4.153 1.597,-4.347 1.653,-4.454 1.597,-4.597 1.653,-4.75 1.597,-4.852 1.653,-4.699 1.597,-4.648 1.653,-4.5508 1.597,-4.25 1.653,-4 1.597,-3.75 1.653,-3.3524 1.597,-3 1.653,-2.75 1.597,-2.3468 1.653,-2.0508 1.597,-1.75 1.653,-1.5 1.597,-1.25 1.653,-1 1.597,-0.9032 1.653,-0.648 1.597,-0.5512 1.653,-0.3976 1.597,-0.3012 1.653,-0.3012 1.597,-0.1476 1.653,-0.1532 1.597,-0.0968 1.653,-0.1024 1.597,0 1.653,-0.0508 1.597,-0.046 3.25,0 1.653,-0.0508 34.097,0" /><text
   transform="scale(1,-1)"
   style="font-variant:normal;font-weight:normal;line-height:0%;font-family:'Times New Roman';-inkscape-font-specification:TimesNewRomanPSMT;writing-mode:lr-tb;fill:#000000;fill-opacity:1;fill-rule:nonzero;stroke:none"
   id="text206"
   x="226.07401"
   y="-124.319"><tspan
     x="226.07401 232.79408 238.29837 243.79175 248.67735 251.42931"
     y="-124.319"
     sodipodi:role="line"
     id="tspan208"
     style="font-size:10.66699982px;line-height:1.25">Type 2</tspan></text>

<path
   inkscape:connector-curvature="0"
   id="path210"
   style="fill:none;stroke:#008800;stroke-width:1;stroke-linecap:butt;stroke-linejoin:miter;stroke-miterlimit:3.79999995;stroke-dasharray:1.375, 1.375;stroke-dashoffset:0;stroke-opacity:1"
   d="m 262.449,128.301 25.153,0" /><path
   inkscape:connector-curvature="0"
   id="path212"
   style="fill:none;stroke:#008800;stroke-width:1;stroke-linecap:butt;stroke-linejoin:miter;stroke-miterlimit:3.79999995;stroke-dasharray:1.375, 1.375;stroke-dashoffset:0;stroke-opacity:1"
   d="m 103.199,56.3012 1.602,-0.1532 1.648,-0.4492 1.602,-0.3976 1.648,-0.4032 1.602,-0.046 1.648,0.3468 1.602,0.6532 1.648,0.796 1.602,0.704 1.648,0.25 1.602,-0.204 1.648,-0.648 1.602,-0.648 1.648,-0.454 1.602,0.4032 1.648,1.1476 1.602,1.8524 1.648,1.6476 1.602,1.1992 1.648,-0.046 1.602,-1.352 1.648,-1.602 1.602,-1.8468 1.648,-0.4492 1.602,1.3468 1.648,2.6992 1.602,3.954 1.648,4.296 1.602,2.0508 1.648,0.9492 1.602,-2.398 1.648,-4.898 1.602,-5.3008 1.648,-5.0512 1.602,-4.602 1.648,0.3008 1.602,3 1.648,6.4492 1.602,10 1.648,12.9032 1.602,12.3976 1.648,13.5512 1.602,12.602 1.648,10.148 1.602,8.898 1.648,6.403 1.602,4.199 1.648,2.199 1.602,0.75 1.648,-0.898 1.602,-2.199 1.648,-2.852 1.602,-3.949 1.648,-4.5 1.602,-4.903 1.648,-5.5 1.602,-5.546 1.648,-5.704 1.602,-5.898 1.648,-5.648 1.602,-5.551 1.597,-5.449 1.653,-4.954 1.597,-4.6992 1.653,-4.3468 1.597,-3.852 1.653,-3.4488 1.597,-3.0512 1.653,-2.602 1.597,-2.25 1.653,-1.8468 1.597,-1.6024 1.653,-1.3008 1.597,-1 1.653,-0.8468 1.597,-0.6532 1.653,-0.5 1.597,-0.4492 1.653,-0.3008 1.597,-0.1992 1.653,-0.1988 1.597,-0.102 1.653,-0.0968 1.597,-0.1024 1.653,-0.0508 1.597,0 1.653,-0.046 3.25,0 1.597,-0.0508 48.75,0" /><text
   transform="scale(1,-1)"
   style="font-variant:normal;font-weight:normal;line-height:0%;font-family:'Times New Roman';-inkscape-font-specification:TimesNewRomanPSMT;writing-mode:lr-tb;fill:#000000;fill-opacity:1;fill-rule:nonzero;stroke:none"
   id="text216"
   x="226.07401"
   y="-106.62"><tspan
     x="226.07401 232.79408 238.29837 243.79175 248.67735 251.42931"
     y="-106.62"
     sodipodi:role="line"
     id="tspan218"
     style="font-size:10.66699982px;line-height:1.25">Type 3</tspan></text>

<path
   inkscape:connector-curvature="0"
   id="path220"
   style="fill:none;stroke:#0000ff;stroke-width:1;stroke-linecap:butt;stroke-linejoin:miter;stroke-miterlimit:3.79999995;stroke-dasharray:5.5, 1.375, 1.375, 1.375;stroke-dashoffset:0;stroke-opacity:1"
   d="m 262.449,110.602 25.153,0" /><path
   inkscape:connector-curvature="0"
   id="path222"
   style="fill:none;stroke:#0000ff;stroke-width:1;stroke-linecap:butt;stroke-linejoin:miter;stroke-miterlimit:3.79999995;stroke-dasharray:5.5, 1.375, 1.375, 1.375;stroke-dashoffset:0;stroke-opacity:1"
   d="m 103.199,56.3012 8.102,0 1.648,-0.0512 1.602,0 1.648,0.0512 3.25,0 1.602,0.0508 3.25,0 1.648,-0.0508 1.602,-0.0512 1.648,0 1.602,-0.0512 1.648,0.0512 1.602,0.102 1.648,0.0968 1.602,0.1532 1.648,0.0968 1.602,0 1.648,-0.0968 1.602,-0.204 1.648,-0.148 1.602,0 1.648,0.148 1.602,0.5 1.648,0.75 1.602,0.852 1.648,1 1.602,0.648 1.648,0.204 1.602,-0.25 1.648,-0.8008 1.602,-1.3524 1.648,-1 1.602,-0.5968 1.648,-0.0508 1.602,2.3008 1.648,3.75 1.602,5.6992 1.648,8 1.602,10.0508 1.648,10.898 1.602,12.102 1.648,13 1.602,11.449 1.648,11.148 1.602,9.949 1.648,7.5 1.602,5.801 1.648,3.699 1.602,1.403 1.648,-0.75 1.602,-2.153 1.648,-3.75 1.602,-5.449 1.648,-5.5 1.602,-6.301 1.597,-6.949 1.653,-6.25 1.597,-6.301 1.653,-6.097 1.597,-5.25 1.653,-4.801 1.597,-4.25 1.653,-3.699 1.597,-3.153 1.653,-2.6992 1.597,-2.4488 1.653,-2.102 1.597,-1.8468 1.653,-1.8524 1.597,-1.75 1.653,-1.6988 1.597,-1.8012 1.653,-1.8008 1.597,-1.898 1.653,-1.9488 1.597,-2 1.653,-2 1.597,-2.0512 1.653,-2 1.597,-1.9488 1.653,-1.8012 1.597,-1.75 1.653,-1.5512 1.597,-1.4488 1.653,-1.3012 1.597,-1.0968 1.653,-0.954 1.597,-0.8468 1.653,-0.6992 1.597,-0.602 1.653,-0.4488 1.597,-0.4032 1.653,-0.296 1.597,-0.25 1.653,-0.204 1.597,-0.148 1.653,-0.102 1.597,-0.0968 1.653,-0.0512 1.597,-0.102 1.653,0 1.597,-0.046 3.25,0 1.653,-0.0508 14.597,0" /><path
   inkscape:connector-curvature="0"
   id="path224"
   style="fill:none;stroke:#000000;stroke-width:0.25;stroke-linecap:butt;stroke-linejoin:miter;stroke-miterlimit:3.79999995;stroke-dasharray:none;stroke-opacity:1"
   d="m 103.199,39.25 194.949,0 0,136.449 -194.949,0 0,-136.449 z" /><g
   ns0:text="$\\mathrm{Re}[\\delta(R)]$ (arbitrary unit)"
   ns0:preamble="/home/yoshidak/.config/inkscape/preamble.txt"
   transform="matrix(0,1.2157383,1.2157383,0,-82.060445,-235.95544)"
   id="g16482"><defs
     id="defs16484"><g
       id="g16486"><symbol
         overflow="visible"
         id="textext-79c98d6e-0"><path
           style="stroke:none;"
           d=""
           id="path16489" /></symbol><symbol
         overflow="visible"
         id="textext-79c98d6e-1"><path
           style="stroke:none;"
           d="M 2.234375 -3.515625 L 2.234375 -6.09375 C 2.234375 -6.328125 2.234375 -6.453125 2.453125 -6.484375 C 2.546875 -6.5 2.84375 -6.5 3.046875 -6.5 C 3.9375 -6.5 5.046875 -6.453125 5.046875 -5.015625 C 5.046875 -4.328125 4.8125 -3.515625 3.34375 -3.515625 Z M 4.34375 -3.390625 C 5.296875 -3.625 6.078125 -4.234375 6.078125 -5.015625 C 6.078125 -5.96875 4.9375 -6.8125 3.484375 -6.8125 L 0.34375 -6.8125 L 0.34375 -6.5 L 0.59375 -6.5 C 1.359375 -6.5 1.375 -6.390625 1.375 -6.03125 L 1.375 -0.78125 C 1.375 -0.421875 1.359375 -0.3125 0.59375 -0.3125 L 0.34375 -0.3125 L 0.34375 0 C 0.703125 -0.03125 1.421875 -0.03125 1.796875 -0.03125 C 2.1875 -0.03125 2.90625 -0.03125 3.265625 0 L 3.265625 -0.3125 L 3.015625 -0.3125 C 2.25 -0.3125 2.234375 -0.421875 2.234375 -0.78125 L 2.234375 -3.296875 L 3.375 -3.296875 C 3.53125 -3.296875 3.953125 -3.296875 4.3125 -2.953125 C 4.6875 -2.609375 4.6875 -2.296875 4.6875 -1.625 C 4.6875 -0.984375 4.6875 -0.578125 5.09375 -0.203125 C 5.5 0.15625 6.046875 0.21875 6.34375 0.21875 C 7.125 0.21875 7.296875 -0.59375 7.296875 -0.875 C 7.296875 -0.9375 7.296875 -1.046875 7.171875 -1.046875 C 7.0625 -1.046875 7.0625 -0.953125 7.046875 -0.890625 C 6.984375 -0.171875 6.640625 0 6.390625 0 C 5.90625 0 5.828125 -0.515625 5.6875 -1.4375 L 5.546875 -2.234375 C 5.375 -2.875 4.890625 -3.203125 4.34375 -3.390625 Z M 4.34375 -3.390625 "
           id="path16492" /></symbol><symbol
         overflow="visible"
         id="textext-79c98d6e-2"><path
           style="stroke:none;"
           d="M 1.109375 -2.515625 C 1.171875 -4 2.015625 -4.25 2.359375 -4.25 C 3.375 -4.25 3.484375 -2.90625 3.484375 -2.515625 Z M 1.109375 -2.296875 L 3.890625 -2.296875 C 4.109375 -2.296875 4.140625 -2.296875 4.140625 -2.515625 C 4.140625 -3.5 3.59375 -4.46875 2.359375 -4.46875 C 1.203125 -4.46875 0.28125 -3.4375 0.28125 -2.1875 C 0.28125 -0.859375 1.328125 0.109375 2.46875 0.109375 C 3.6875 0.109375 4.140625 -1 4.140625 -1.1875 C 4.140625 -1.28125 4.0625 -1.3125 4 -1.3125 C 3.921875 -1.3125 3.890625 -1.25 3.875 -1.171875 C 3.53125 -0.140625 2.625 -0.140625 2.53125 -0.140625 C 2.03125 -0.140625 1.640625 -0.4375 1.40625 -0.8125 C 1.109375 -1.28125 1.109375 -1.9375 1.109375 -2.296875 Z M 1.109375 -2.296875 "
           id="path16495" /></symbol><symbol
         overflow="visible"
         id="textext-79c98d6e-3"><path
           style="stroke:none;"
           d="M 2.546875 2.5 L 2.546875 2.09375 L 1.578125 2.09375 L 1.578125 -7.078125 L 2.546875 -7.078125 L 2.546875 -7.484375 L 1.171875 -7.484375 L 1.171875 2.5 Z M 2.546875 2.5 "
           id="path16498" /></symbol><symbol
         overflow="visible"
         id="textext-79c98d6e-4"><path
           style="stroke:none;"
           d="M 1.578125 -7.484375 L 0.21875 -7.484375 L 0.21875 -7.078125 L 1.1875 -7.078125 L 1.1875 2.09375 L 0.21875 2.09375 L 0.21875 2.5 L 1.578125 2.5 Z M 1.578125 -7.484375 "
           id="path16501" /></symbol><symbol
         overflow="visible"
         id="textext-79c98d6e-5"><path
           style="stroke:none;"
           d="M 3.296875 2.390625 C 3.296875 2.359375 3.296875 2.34375 3.125 2.171875 C 1.890625 0.921875 1.5625 -0.96875 1.5625 -2.5 C 1.5625 -4.234375 1.9375 -5.96875 3.171875 -7.203125 C 3.296875 -7.328125 3.296875 -7.34375 3.296875 -7.375 C 3.296875 -7.453125 3.265625 -7.484375 3.203125 -7.484375 C 3.09375 -7.484375 2.203125 -6.796875 1.609375 -5.53125 C 1.109375 -4.4375 0.984375 -3.328125 0.984375 -2.5 C 0.984375 -1.71875 1.09375 -0.515625 1.640625 0.625 C 2.25 1.84375 3.09375 2.5 3.203125 2.5 C 3.265625 2.5 3.296875 2.46875 3.296875 2.390625 Z M 3.296875 2.390625 "
           id="path16504" /></symbol><symbol
         overflow="visible"
         id="textext-79c98d6e-6"><path
           style="stroke:none;"
           d="M 3.3125 -0.75 C 3.359375 -0.359375 3.625 0.0625 4.09375 0.0625 C 4.3125 0.0625 4.921875 -0.078125 4.921875 -0.890625 L 4.921875 -1.453125 L 4.671875 -1.453125 L 4.671875 -0.890625 C 4.671875 -0.3125 4.421875 -0.25 4.3125 -0.25 C 3.984375 -0.25 3.9375 -0.703125 3.9375 -0.75 L 3.9375 -2.734375 C 3.9375 -3.15625 3.9375 -3.546875 3.578125 -3.921875 C 3.1875 -4.3125 2.6875 -4.46875 2.21875 -4.46875 C 1.390625 -4.46875 0.703125 -4 0.703125 -3.34375 C 0.703125 -3.046875 0.90625 -2.875 1.171875 -2.875 C 1.453125 -2.875 1.625 -3.078125 1.625 -3.328125 C 1.625 -3.453125 1.578125 -3.78125 1.109375 -3.78125 C 1.390625 -4.140625 1.875 -4.25 2.1875 -4.25 C 2.6875 -4.25 3.25 -3.859375 3.25 -2.96875 L 3.25 -2.609375 C 2.734375 -2.578125 2.046875 -2.546875 1.421875 -2.25 C 0.671875 -1.90625 0.421875 -1.390625 0.421875 -0.953125 C 0.421875 -0.140625 1.390625 0.109375 2.015625 0.109375 C 2.671875 0.109375 3.125 -0.296875 3.3125 -0.75 Z M 3.25 -2.390625 L 3.25 -1.390625 C 3.25 -0.453125 2.53125 -0.109375 2.078125 -0.109375 C 1.59375 -0.109375 1.1875 -0.453125 1.1875 -0.953125 C 1.1875 -1.5 1.609375 -2.328125 3.25 -2.390625 Z M 3.25 -2.390625 "
           id="path16507" /></symbol><symbol
         overflow="visible"
         id="textext-79c98d6e-7"><path
           style="stroke:none;"
           d="M 1.671875 -3.3125 L 1.671875 -4.40625 L 0.28125 -4.296875 L 0.28125 -3.984375 C 0.984375 -3.984375 1.0625 -3.921875 1.0625 -3.421875 L 1.0625 -0.75 C 1.0625 -0.3125 0.953125 -0.3125 0.28125 -0.3125 L 0.28125 0 C 0.671875 -0.015625 1.140625 -0.03125 1.421875 -0.03125 C 1.8125 -0.03125 2.28125 -0.03125 2.6875 0 L 2.6875 -0.3125 L 2.46875 -0.3125 C 1.734375 -0.3125 1.71875 -0.421875 1.71875 -0.78125 L 1.71875 -2.3125 C 1.71875 -3.296875 2.140625 -4.1875 2.890625 -4.1875 C 2.953125 -4.1875 2.984375 -4.1875 3 -4.171875 C 2.96875 -4.171875 2.765625 -4.046875 2.765625 -3.78125 C 2.765625 -3.515625 2.984375 -3.359375 3.203125 -3.359375 C 3.375 -3.359375 3.625 -3.484375 3.625 -3.796875 C 3.625 -4.109375 3.3125 -4.40625 2.890625 -4.40625 C 2.15625 -4.40625 1.796875 -3.734375 1.671875 -3.3125 Z M 1.671875 -3.3125 "
           id="path16510" /></symbol><symbol
         overflow="visible"
         id="textext-79c98d6e-8"><path
           style="stroke:none;"
           d="M 1.71875 -3.765625 L 1.71875 -6.921875 L 0.28125 -6.8125 L 0.28125 -6.5 C 0.984375 -6.5 1.0625 -6.4375 1.0625 -5.9375 L 1.0625 0 L 1.3125 0 C 1.3125 -0.015625 1.390625 -0.15625 1.671875 -0.625 C 1.8125 -0.390625 2.234375 0.109375 2.96875 0.109375 C 4.15625 0.109375 5.1875 -0.875 5.1875 -2.15625 C 5.1875 -3.421875 4.21875 -4.40625 3.078125 -4.40625 C 2.296875 -4.40625 1.875 -3.9375 1.71875 -3.765625 Z M 1.75 -1.140625 L 1.75 -3.1875 C 1.75 -3.375 1.75 -3.390625 1.859375 -3.546875 C 2.25 -4.109375 2.796875 -4.1875 3.03125 -4.1875 C 3.484375 -4.1875 3.84375 -3.921875 4.078125 -3.546875 C 4.34375 -3.140625 4.359375 -2.578125 4.359375 -2.15625 C 4.359375 -1.796875 4.34375 -1.203125 4.0625 -0.75 C 3.84375 -0.4375 3.46875 -0.109375 2.9375 -0.109375 C 2.484375 -0.109375 2.125 -0.34375 1.890625 -0.71875 C 1.75 -0.921875 1.75 -0.953125 1.75 -1.140625 Z M 1.75 -1.140625 "
           id="path16513" /></symbol><symbol
         overflow="visible"
         id="textext-79c98d6e-9"><path
           style="stroke:none;"
           d="M 1.765625 -4.40625 L 0.375 -4.296875 L 0.375 -3.984375 C 1.015625 -3.984375 1.109375 -3.921875 1.109375 -3.4375 L 1.109375 -0.75 C 1.109375 -0.3125 1 -0.3125 0.328125 -0.3125 L 0.328125 0 C 0.640625 -0.015625 1.1875 -0.03125 1.421875 -0.03125 C 1.78125 -0.03125 2.125 -0.015625 2.46875 0 L 2.46875 -0.3125 C 1.796875 -0.3125 1.765625 -0.359375 1.765625 -0.75 Z M 1.796875 -6.140625 C 1.796875 -6.453125 1.5625 -6.671875 1.28125 -6.671875 C 0.96875 -6.671875 0.75 -6.40625 0.75 -6.140625 C 0.75 -5.875 0.96875 -5.609375 1.28125 -5.609375 C 1.5625 -5.609375 1.796875 -5.828125 1.796875 -6.140625 Z M 1.796875 -6.140625 "
           id="path16516" /></symbol><symbol
         overflow="visible"
         id="textext-79c98d6e-10"><path
           style="stroke:none;"
           d="M 1.71875 -3.984375 L 3.15625 -3.984375 L 3.15625 -4.296875 L 1.71875 -4.296875 L 1.71875 -6.125 L 1.46875 -6.125 C 1.46875 -5.3125 1.171875 -4.25 0.1875 -4.203125 L 0.1875 -3.984375 L 1.03125 -3.984375 L 1.03125 -1.234375 C 1.03125 -0.015625 1.96875 0.109375 2.328125 0.109375 C 3.03125 0.109375 3.3125 -0.59375 3.3125 -1.234375 L 3.3125 -1.796875 L 3.0625 -1.796875 L 3.0625 -1.25 C 3.0625 -0.515625 2.765625 -0.140625 2.390625 -0.140625 C 1.71875 -0.140625 1.71875 -1.046875 1.71875 -1.21875 Z M 1.71875 -3.984375 "
           id="path16519" /></symbol><symbol
         overflow="visible"
         id="textext-79c98d6e-11"><path
           style="stroke:none;"
           d="M 4.140625 -3.34375 C 4.390625 -3.984375 4.90625 -3.984375 5.0625 -3.984375 L 5.0625 -4.296875 C 4.828125 -4.28125 4.546875 -4.265625 4.3125 -4.265625 C 4.140625 -4.265625 3.671875 -4.28125 3.453125 -4.296875 L 3.453125 -3.984375 C 3.765625 -3.984375 3.921875 -3.8125 3.921875 -3.5625 C 3.921875 -3.453125 3.90625 -3.4375 3.859375 -3.3125 L 2.84375 -0.875 L 1.75 -3.546875 C 1.703125 -3.65625 1.6875 -3.6875 1.6875 -3.734375 C 1.6875 -3.984375 2.046875 -3.984375 2.25 -3.984375 L 2.25 -4.296875 C 1.984375 -4.28125 1.328125 -4.265625 1.15625 -4.265625 C 0.890625 -4.265625 0.484375 -4.28125 0.1875 -4.296875 L 0.1875 -3.984375 C 0.671875 -3.984375 0.859375 -3.984375 1 -3.640625 L 2.5 0 C 2.4375 0.125 2.296875 0.453125 2.25 0.59375 C 2.03125 1.140625 1.75 1.828125 1.109375 1.828125 C 1.0625 1.828125 0.828125 1.828125 0.640625 1.640625 C 0.953125 1.609375 1.03125 1.390625 1.03125 1.21875 C 1.03125 0.96875 0.84375 0.8125 0.609375 0.8125 C 0.40625 0.8125 0.1875 0.9375 0.1875 1.234375 C 0.1875 1.6875 0.609375 2.046875 1.109375 2.046875 C 1.734375 2.046875 2.140625 1.46875 2.375 0.90625 Z M 4.140625 -3.34375 "
           id="path16522" /></symbol><symbol
         overflow="visible"
         id="textext-79c98d6e-12"><path
           style="stroke:none;"
           d="M 3.890625 -0.78125 L 3.890625 0.109375 L 5.328125 0 L 5.328125 -0.3125 C 4.640625 -0.3125 4.5625 -0.375 4.5625 -0.875 L 4.5625 -4.40625 L 3.09375 -4.296875 L 3.09375 -3.984375 C 3.78125 -3.984375 3.875 -3.921875 3.875 -3.421875 L 3.875 -1.65625 C 3.875 -0.78125 3.390625 -0.109375 2.65625 -0.109375 C 1.828125 -0.109375 1.78125 -0.578125 1.78125 -1.09375 L 1.78125 -4.40625 L 0.3125 -4.296875 L 0.3125 -3.984375 C 1.09375 -3.984375 1.09375 -3.953125 1.09375 -3.078125 L 1.09375 -1.578125 C 1.09375 -0.796875 1.09375 0.109375 2.609375 0.109375 C 3.171875 0.109375 3.609375 -0.171875 3.890625 -0.78125 Z M 3.890625 -0.78125 "
           id="path16525" /></symbol><symbol
         overflow="visible"
         id="textext-79c98d6e-13"><path
           style="stroke:none;"
           d="M 1.09375 -3.421875 L 1.09375 -0.75 C 1.09375 -0.3125 0.984375 -0.3125 0.3125 -0.3125 L 0.3125 0 C 0.671875 -0.015625 1.171875 -0.03125 1.453125 -0.03125 C 1.703125 -0.03125 2.21875 -0.015625 2.5625 0 L 2.5625 -0.3125 C 1.890625 -0.3125 1.78125 -0.3125 1.78125 -0.75 L 1.78125 -2.59375 C 1.78125 -3.625 2.5 -4.1875 3.125 -4.1875 C 3.765625 -4.1875 3.875 -3.65625 3.875 -3.078125 L 3.875 -0.75 C 3.875 -0.3125 3.765625 -0.3125 3.09375 -0.3125 L 3.09375 0 C 3.4375 -0.015625 3.953125 -0.03125 4.21875 -0.03125 C 4.46875 -0.03125 5 -0.015625 5.328125 0 L 5.328125 -0.3125 C 4.8125 -0.3125 4.5625 -0.3125 4.5625 -0.609375 L 4.5625 -2.515625 C 4.5625 -3.375 4.5625 -3.671875 4.25 -4.03125 C 4.109375 -4.203125 3.78125 -4.40625 3.203125 -4.40625 C 2.46875 -4.40625 2 -3.984375 1.71875 -3.359375 L 1.71875 -4.40625 L 0.3125 -4.296875 L 0.3125 -3.984375 C 1.015625 -3.984375 1.09375 -3.921875 1.09375 -3.421875 Z M 1.09375 -3.421875 "
           id="path16528" /></symbol><symbol
         overflow="visible"
         id="textext-79c98d6e-14"><path
           style="stroke:none;"
           d="M 2.875 -2.5 C 2.875 -3.265625 2.765625 -4.46875 2.21875 -5.609375 C 1.625 -6.828125 0.765625 -7.484375 0.671875 -7.484375 C 0.609375 -7.484375 0.5625 -7.4375 0.5625 -7.375 C 0.5625 -7.34375 0.5625 -7.328125 0.75 -7.140625 C 1.734375 -6.15625 2.296875 -4.578125 2.296875 -2.5 C 2.296875 -0.78125 1.9375 0.96875 0.703125 2.21875 C 0.5625 2.34375 0.5625 2.359375 0.5625 2.390625 C 0.5625 2.453125 0.609375 2.5 0.671875 2.5 C 0.765625 2.5 1.671875 1.8125 2.25 0.546875 C 2.765625 -0.546875 2.875 -1.65625 2.875 -2.5 Z M 2.875 -2.5 "
           id="path16531" /></symbol><symbol
         overflow="visible"
         id="textext-79c98d6e-15"><path
           style="stroke:none;"
           d=""
           id="path16534" /></symbol><symbol
         overflow="visible"
         id="textext-79c98d6e-16"><path
           style="stroke:none;"
           d="M 4.609375 -5.984375 C 4.609375 -6.296875 4.140625 -6.546875 3.328125 -6.546875 C 2.53125 -6.546875 1.890625 -6.09375 1.890625 -5.5 C 1.890625 -4.828125 2.578125 -4.109375 2.578125 -4.109375 C 2.5625 -4.109375 0.171875 -3.71875 0.171875 -1.453125 C 0.171875 -0.78125 0.53125 0.15625 1.53125 0.15625 C 2.953125 0.15625 4.078125 -1.140625 4.078125 -2.765625 C 4.078125 -4.421875 2.265625 -4.640625 2.265625 -5.609375 C 2.265625 -6.046875 2.796875 -6.234375 3.109375 -6.234375 C 4.046875 -6.234375 3.84375 -5.671875 4.25 -5.671875 C 4.46875 -5.671875 4.609375 -5.8125 4.609375 -5.984375 Z M 3.28125 -2.4375 C 3.28125 -1.15625 2.453125 -0.109375 1.78125 -0.109375 C 1.21875 -0.109375 1.015625 -0.875 1.015625 -1.421875 C 1.015625 -3.734375 2.75 -3.890625 2.765625 -3.890625 C 2.765625 -3.890625 3.28125 -3.25 3.28125 -2.4375 Z M 3.28125 -2.4375 "
           id="path16537" /></symbol><symbol
         overflow="visible"
         id="textext-79c98d6e-17"><path
           style="stroke:none;"
           d=""
           id="path16540" /></symbol><symbol
         overflow="visible"
         id="textext-79c98d6e-18"><path
           style="stroke:none;"
           d="M 2.9375 -6.734375 C 2.203125 -6.265625 1.90625 -6 1.53125 -5.546875 C 0.828125 -4.671875 0.484375 -3.671875 0.484375 -2.515625 C 0.484375 -1.25 0.84375 -0.265625 1.71875 0.75 C 2.140625 1.21875 2.390625 1.453125 2.90625 1.765625 L 3.03125 1.609375 C 2.234375 0.984375 1.953125 0.625 1.6875 -0.125 C 1.453125 -0.78125 1.328125 -1.546875 1.328125 -2.546875 C 1.328125 -3.59375 1.46875 -4.40625 1.734375 -5.03125 C 2.015625 -5.640625 2.3125 -6 3.03125 -6.578125 Z M 2.9375 -6.734375 "
           id="path16543" /></symbol><symbol
         overflow="visible"
         id="textext-79c98d6e-19"><path
           style="stroke:none;"
           d="M 0.375 1.765625 C 1.109375 1.28125 1.421875 1.03125 1.78125 0.5625 C 2.5 -0.296875 2.84375 -1.296875 2.84375 -2.46875 C 2.84375 -3.734375 2.46875 -4.703125 1.59375 -5.71875 C 1.1875 -6.203125 0.921875 -6.421875 0.40625 -6.734375 L 0.296875 -6.578125 C 1.09375 -5.953125 1.359375 -5.609375 1.640625 -4.859375 C 1.875 -4.1875 1.984375 -3.421875 1.984375 -2.4375 C 1.984375 -1.390625 1.859375 -0.5625 1.578125 0.046875 C 1.3125 0.671875 1 1.03125 0.296875 1.609375 Z M 0.375 1.765625 "
           id="path16546" /></symbol><symbol
         overflow="visible"
         id="textext-79c98d6e-20"><path
           style="stroke:none;"
           d=""
           id="path16549" /></symbol><symbol
         overflow="visible"
         id="textext-79c98d6e-21"><path
           style="stroke:none;"
           d="M 5.65625 -0.15625 C 5.21875 -0.1875 5.015625 -0.359375 4.828125 -0.875 L 3.890625 -3.3125 C 4.671875 -3.484375 5 -3.625 5.359375 -3.953125 C 5.6875 -4.234375 5.859375 -4.625 5.859375 -5.078125 C 5.859375 -6 5.125 -6.515625 3.78125 -6.515625 L 1.3125 -6.515625 L 1.3125 -6.34375 C 1.734375 -6.296875 1.78125 -6.28125 1.890625 -6.203125 C 1.96875 -6.15625 2.03125 -6.046875 2.03125 -5.9375 C 2.03125 -5.8125 1.96875 -5.578125 1.90625 -5.296875 L 0.671875 -0.890625 C 0.5 -0.3125 0.421875 -0.25 -0.125 -0.15625 L -0.125 0 L 2.296875 0 L 2.296875 -0.15625 C 1.6875 -0.234375 1.625 -0.296875 1.625 -0.625 C 1.625 -0.71875 1.65625 -0.84375 1.75 -1.203125 L 2.296875 -3.28125 L 2.953125 -3.234375 L 4.171875 0 L 5.65625 0 Z M 3.078125 -5.9375 C 3.125 -6.140625 3.265625 -6.203125 3.578125 -6.203125 C 4.40625 -6.203125 4.8125 -5.828125 4.8125 -5.09375 C 4.8125 -4.109375 4.171875 -3.59375 2.9375 -3.59375 C 2.765625 -3.59375 2.65625 -3.609375 2.421875 -3.65625 Z M 3.078125 -5.9375 "
           id="path16552" /></symbol></g></defs><g
     id="textext-79c98d6e-22"><g
       style="fill:rgb(0%,0%,0%);fill-opacity:1;"
       id="g16555"><use
         xlink:href="#textext-79c98d6e-1"
         x="223.432"
         y="134.765"
         id="use16557" /><use
         xlink:href="#textext-79c98d6e-2"
         x="230.76547"
         y="134.765"
         id="use16559" /><use
         xlink:href="#textext-79c98d6e-3"
         x="235.192849"
         y="134.765"
         id="use16561" /></g><g
       style="fill:rgb(0%,0%,0%);fill-opacity:1;"
       id="g16563"><use
         xlink:href="#textext-79c98d6e-16"
         x="238.2"
         y="134.765"
         id="use16565" /></g><g
       style="fill:rgb(0%,0%,0%);fill-opacity:1;"
       id="g16567"><use
         xlink:href="#textext-79c98d6e-18"
         x="243.5"
         y="134.765"
         id="use16569" /></g><g
       style="fill:rgb(0%,0%,0%);fill-opacity:1;"
       id="g16571"><use
         xlink:href="#textext-79c98d6e-21"
         x="247.545"
         y="134.765"
         id="use16573" /></g><g
       style="fill:rgb(0%,0%,0%);fill-opacity:1;"
       id="g16575"><use
         xlink:href="#textext-79c98d6e-19"
         x="253.931"
         y="134.765"
         id="use16577" /></g><g
       style="fill:rgb(0%,0%,0%);fill-opacity:1;"
       id="g16579"><use
         xlink:href="#textext-79c98d6e-4"
         x="257.647"
         y="134.765"
         id="use16581" /></g><g
       style="fill:rgb(0%,0%,0%);fill-opacity:1;"
       id="g16583"><use
         xlink:href="#textext-79c98d6e-5"
         x="263.732156"
         y="134.765"
         id="use16585" /><use
         xlink:href="#textext-79c98d6e-6"
         x="267.606611"
         y="134.765"
         id="use16587" /><use
         xlink:href="#textext-79c98d6e-7"
         x="272.587911"
         y="134.765"
         id="use16589" /><use
         xlink:href="#textext-79c98d6e-8"
         x="276.490262"
         y="134.765"
         id="use16591" /><use
         xlink:href="#textext-79c98d6e-9"
         x="282.025482"
         y="134.765"
         id="use16593" /><use
         xlink:href="#textext-79c98d6e-10"
         x="284.793092"
         y="134.765"
         id="use16595" /><use
         xlink:href="#textext-79c98d6e-7"
         x="288.667548"
         y="134.765"
         id="use16597" /><use
         xlink:href="#textext-79c98d6e-6"
         x="292.569898"
         y="134.765"
         id="use16599" /><use
         xlink:href="#textext-79c98d6e-7"
         x="297.551198"
         y="134.765"
         id="use16601" /><use
         xlink:href="#textext-79c98d6e-11"
         x="301.453548"
         y="134.765"
         id="use16603" /></g><g
       style="fill:rgb(0%,0%,0%);fill-opacity:1;"
       id="g16605"><use
         xlink:href="#textext-79c98d6e-12"
         x="310.029355"
         y="134.765"
         id="use16607" /><use
         xlink:href="#textext-79c98d6e-13"
         x="315.564575"
         y="134.765"
         id="use16609" /><use
         xlink:href="#textext-79c98d6e-9"
         x="321.099796"
         y="134.765"
         id="use16611" /><use
         xlink:href="#textext-79c98d6e-10"
         x="323.867406"
         y="134.765"
         id="use16613" /><use
         xlink:href="#textext-79c98d6e-14"
         x="327.741861"
         y="134.765"
         id="use16615" /></g></g></g><g
   id="g16976"
   transform="matrix(1.2578122,0,0,-1.2578122,-97.756185,184.02928)"
   ns0:preamble="/home/yoshidak/.config/inkscape/preamble.txt"
   ns0:text="$R\\mathrm{\\,(fm)}$\n\n"><defs
     id="defs16978"><g
       id="g16980"><symbol
         id="textext-e2990312-0"
         overflow="visible"><path
           id="path16983"
           d=""
           style="stroke:none;" /></symbol><symbol
         id="textext-e2990312-1"
         overflow="visible"><path
           id="path16986"
           d="M 5.65625 -0.15625 C 5.21875 -0.1875 5.015625 -0.359375 4.828125 -0.875 L 3.890625 -3.3125 C 4.671875 -3.484375 5 -3.625 5.359375 -3.953125 C 5.6875 -4.234375 5.859375 -4.625 5.859375 -5.078125 C 5.859375 -6 5.125 -6.515625 3.78125 -6.515625 L 1.3125 -6.515625 L 1.3125 -6.34375 C 1.734375 -6.296875 1.78125 -6.28125 1.890625 -6.203125 C 1.96875 -6.15625 2.03125 -6.046875 2.03125 -5.9375 C 2.03125 -5.8125 1.96875 -5.578125 1.90625 -5.296875 L 0.671875 -0.890625 C 0.5 -0.3125 0.421875 -0.25 -0.125 -0.15625 L -0.125 0 L 2.296875 0 L 2.296875 -0.15625 C 1.6875 -0.234375 1.625 -0.296875 1.625 -0.625 C 1.625 -0.71875 1.65625 -0.84375 1.75 -1.203125 L 2.296875 -3.28125 L 2.953125 -3.234375 L 4.171875 0 L 5.65625 0 Z M 3.078125 -5.9375 C 3.125 -6.140625 3.265625 -6.203125 3.578125 -6.203125 C 4.40625 -6.203125 4.8125 -5.828125 4.8125 -5.09375 C 4.8125 -4.109375 4.171875 -3.59375 2.9375 -3.59375 C 2.765625 -3.59375 2.65625 -3.609375 2.421875 -3.65625 Z M 3.078125 -5.9375 "
           style="stroke:none;" /></symbol><symbol
         id="textext-e2990312-2"
         overflow="visible"><path
           id="path16989"
           d=""
           style="stroke:none;" /></symbol><symbol
         id="textext-e2990312-3"
         overflow="visible"><path
           id="path16992"
           d="M 2.9375 -6.734375 C 2.203125 -6.265625 1.90625 -6 1.53125 -5.546875 C 0.828125 -4.671875 0.484375 -3.671875 0.484375 -2.515625 C 0.484375 -1.25 0.84375 -0.265625 1.71875 0.75 C 2.140625 1.21875 2.390625 1.453125 2.90625 1.765625 L 3.03125 1.609375 C 2.234375 0.984375 1.953125 0.625 1.6875 -0.125 C 1.453125 -0.78125 1.328125 -1.546875 1.328125 -2.546875 C 1.328125 -3.59375 1.46875 -4.40625 1.734375 -5.03125 C 2.015625 -5.640625 2.3125 -6 3.03125 -6.578125 Z M 2.9375 -6.734375 "
           style="stroke:none;" /></symbol><symbol
         id="textext-e2990312-4"
         overflow="visible"><path
           id="path16995"
           d="M 0.375 1.765625 C 1.109375 1.28125 1.421875 1.03125 1.78125 0.5625 C 2.5 -0.296875 2.84375 -1.296875 2.84375 -2.46875 C 2.84375 -3.734375 2.46875 -4.703125 1.59375 -5.71875 C 1.1875 -6.203125 0.921875 -6.421875 0.40625 -6.734375 L 0.296875 -6.578125 C 1.09375 -5.953125 1.359375 -5.609375 1.640625 -4.859375 C 1.875 -4.1875 1.984375 -3.421875 1.984375 -2.4375 C 1.984375 -1.390625 1.859375 -0.5625 1.578125 0.046875 C 1.3125 0.671875 1 1.03125 0.296875 1.609375 Z M 0.375 1.765625 "
           style="stroke:none;" /></symbol><symbol
         id="textext-e2990312-5"
         overflow="visible"><path
           id="path16998"
           d=""
           style="stroke:none;" /></symbol><symbol
         id="textext-e2990312-6"
         overflow="visible"><path
           id="path17001"
           d="M 1.75 -4.296875 L 1.75 -5.453125 C 1.75 -6.328125 2.21875 -6.8125 2.65625 -6.8125 C 2.6875 -6.8125 2.84375 -6.8125 2.984375 -6.734375 C 2.875 -6.703125 2.6875 -6.5625 2.6875 -6.3125 C 2.6875 -6.09375 2.84375 -5.890625 3.125 -5.890625 C 3.40625 -5.890625 3.5625 -6.09375 3.5625 -6.328125 C 3.5625 -6.703125 3.1875 -7.03125 2.65625 -7.03125 C 1.96875 -7.03125 1.109375 -6.5 1.109375 -5.4375 L 1.109375 -4.296875 L 0.328125 -4.296875 L 0.328125 -3.984375 L 1.109375 -3.984375 L 1.109375 -0.75 C 1.109375 -0.3125 1 -0.3125 0.34375 -0.3125 L 0.34375 0 C 0.734375 -0.015625 1.203125 -0.03125 1.46875 -0.03125 C 1.875 -0.03125 2.34375 -0.03125 2.734375 0 L 2.734375 -0.3125 L 2.53125 -0.3125 C 1.796875 -0.3125 1.78125 -0.421875 1.78125 -0.78125 L 1.78125 -3.984375 L 2.90625 -3.984375 L 2.90625 -4.296875 Z M 1.75 -4.296875 "
           style="stroke:none;" /></symbol><symbol
         id="textext-e2990312-7"
         overflow="visible"><path
           id="path17004"
           d="M 1.09375 -3.421875 L 1.09375 -0.75 C 1.09375 -0.3125 0.984375 -0.3125 0.3125 -0.3125 L 0.3125 0 C 0.671875 -0.015625 1.171875 -0.03125 1.453125 -0.03125 C 1.703125 -0.03125 2.21875 -0.015625 2.5625 0 L 2.5625 -0.3125 C 1.890625 -0.3125 1.78125 -0.3125 1.78125 -0.75 L 1.78125 -2.59375 C 1.78125 -3.625 2.5 -4.1875 3.125 -4.1875 C 3.765625 -4.1875 3.875 -3.65625 3.875 -3.078125 L 3.875 -0.75 C 3.875 -0.3125 3.765625 -0.3125 3.09375 -0.3125 L 3.09375 0 C 3.4375 -0.015625 3.953125 -0.03125 4.21875 -0.03125 C 4.46875 -0.03125 5 -0.015625 5.328125 0 L 5.328125 -0.3125 C 4.671875 -0.3125 4.5625 -0.3125 4.5625 -0.75 L 4.5625 -2.59375 C 4.5625 -3.625 5.265625 -4.1875 5.90625 -4.1875 C 6.53125 -4.1875 6.640625 -3.65625 6.640625 -3.078125 L 6.640625 -0.75 C 6.640625 -0.3125 6.53125 -0.3125 5.859375 -0.3125 L 5.859375 0 C 6.203125 -0.015625 6.71875 -0.03125 6.984375 -0.03125 C 7.25 -0.03125 7.765625 -0.015625 8.109375 0 L 8.109375 -0.3125 C 7.59375 -0.3125 7.34375 -0.3125 7.328125 -0.609375 L 7.328125 -2.515625 C 7.328125 -3.375 7.328125 -3.671875 7.015625 -4.03125 C 6.875 -4.203125 6.546875 -4.40625 5.96875 -4.40625 C 5.140625 -4.40625 4.6875 -3.8125 4.53125 -3.421875 C 4.390625 -4.296875 3.65625 -4.40625 3.203125 -4.40625 C 2.46875 -4.40625 2 -3.984375 1.71875 -3.359375 L 1.71875 -4.40625 L 0.3125 -4.296875 L 0.3125 -3.984375 C 1.015625 -3.984375 1.09375 -3.921875 1.09375 -3.421875 Z M 1.09375 -3.421875 "
           style="stroke:none;" /></symbol></g></defs><g
     id="textext-e2990312-8"><g
       id="g17007"
       style="fill:rgb(0%,0%,0%);fill-opacity:1;"><use
         id="use17009"
         y="134.765"
         x="223.96"
         xlink:href="#textext-e2990312-1" /></g><g
       id="g17011"
       style="fill:rgb(0%,0%,0%);fill-opacity:1;"><use
         id="use17013"
         y="134.765"
         x="232.206"
         xlink:href="#textext-e2990312-3" /></g><g
       id="g17015"
       style="fill:rgb(0%,0%,0%);fill-opacity:1;"><use
         id="use17017"
         y="134.765"
         x="235.723"
         xlink:href="#textext-e2990312-6" /><use
         id="use17019"
         y="134.765"
         x="238.767571"
         xlink:href="#textext-e2990312-7" /></g><g
       id="g17021"
       style="fill:rgb(0%,0%,0%);fill-opacity:1;"><use
         id="use17023"
         y="134.765"
         x="247.268"
         xlink:href="#textext-e2990312-4" /></g></g></g></g></svg>