<?xml version="1.0" encoding="UTF-8" standalone="no"?>
<svg
   xmlns:dc="http://purl.org/dc/elements/1.1/"
   xmlns:cc="http://creativecommons.org/ns#"
   xmlns:rdf="http://www.w3.org/1999/02/22-rdf-syntax-ns#"
   xmlns:svg="http://www.w3.org/2000/svg"
   xmlns="http://www.w3.org/2000/svg"
   viewBox="0 0 205.33333 125.33333"
   height="125.33333"
   width="205.33333"
   xml:space="preserve"
   id="svg2"
   version="1.1"><metadata
     id="metadata8"><rdf:RDF><cc:Work
         rdf:about=""><dc:format>image/svg+xml</dc:format><dc:type
           rdf:resource="http://purl.org/dc/dcmitype/StillImage" /></cc:Work></rdf:RDF></metadata><defs
     id="defs6" /><g
     transform="matrix(1.3333333,0,0,-1.3333333,0,125.33333)"
     id="g10"><g
       transform="scale(0.1)"
       id="g12"><g
         transform="scale(0.808432,-1.19157)"
         id="g14"><path
           id="path16"
           style="fill:none;stroke:#000000;stroke-width:4.57279015;stroke-linecap:butt;stroke-linejoin:miter;stroke-miterlimit:3.79999995;stroke-dasharray:18.2912, 18.2912;stroke-dashoffset:0;stroke-opacity:1"
           d="m 1803.6,-395.858 c 0,212.762 -147.91,385.2234 -330.32,385.2234 -182.39,0 -330.3,-172.4614 -330.3,-385.2234 0,-212.728 147.91,-385.19 330.3,-385.19 182.41,0 330.32,172.462 330.32,385.19 z" /></g><path
         id="path18"
         style="fill:none;stroke:#000000;stroke-width:5.5999999;stroke-linecap:butt;stroke-linejoin:miter;stroke-miterlimit:2.4000001;stroke-dasharray:none;stroke-opacity:1"
         d="m 1349.45,235.32 c 0,-88.507 -71.72,-160.2302 -160.23,-160.2302 -88.48,0 -160.24,71.7232 -160.24,160.2302 0,88.52 71.76,160.243 160.24,160.243 88.51,0 160.23,-71.723 160.23,-160.243 z" /><path
         id="path20"
         style="fill:none;stroke:#000000;stroke-width:5.5999999;stroke-linecap:butt;stroke-linejoin:miter;stroke-miterlimit:2.4000001;stroke-dasharray:none;stroke-opacity:1"
         d="m 1270.47,764.621 c 0,-44.769 -36.29,-81.058 -81.06,-81.058 -44.76,0 -81.05,36.289 -81.05,81.058 0,44.762 36.29,81.051 81.05,81.051 44.77,0 81.06,-36.289 81.06,-81.051 z" /><path
         id="path22"
         style="fill:none;stroke:#000000;stroke-width:5.99009991;stroke-linecap:butt;stroke-linejoin:miter;stroke-miterlimit:1;stroke-dasharray:none;stroke-opacity:1"
         d="m 215.309,454.031 c 0,-30.539 -24.719,-55.269 -55.231,-55.269 -30.508,0 -55.277,24.73 -55.277,55.269 0,30.512 24.769,55.239 55.277,55.239 30.512,0 55.231,-24.727 55.231,-55.239 z" /><path
         id="path24"
         style="fill:none;stroke:#000000;stroke-width:5.5999999;stroke-linecap:butt;stroke-linejoin:miter;stroke-miterlimit:4;stroke-dasharray:none;stroke-opacity:1"
         d="m 1190.86,219.66 -0.9,520.16" /><path
         id="path26"
         style="fill:#000000;fill-opacity:1;fill-rule:evenodd;stroke:none"
         d="m 1189.92,765.68 -22.34,-38.789 44.8,0.07 z" /><path
         id="path28"
         style="fill:none;stroke:#000000;stroke-width:5.5999999;stroke-linecap:butt;stroke-linejoin:miter;stroke-miterlimit:4;stroke-dasharray:none;stroke-opacity:1"
         d="m 1189.92,765.676 -22.34,-38.789 44.81,0.078 z" /><path
         id="path30"
         style="fill:none;stroke:#000000;stroke-width:5.5999999;stroke-linecap:butt;stroke-linejoin:miter;stroke-miterlimit:2.4000001;stroke-dasharray:none;stroke-opacity:1"
         d="M 1193.12,222.16 176.52,446.07" /><path
         id="path32"
         style="fill:#000000;fill-opacity:1;fill-rule:evenodd;stroke:none"
         d="m 151.289,451.609 33.012,-30.187 9.648,43.75 z" /><path
         id="path34"
         style="fill:none;stroke:#000000;stroke-width:5.5999999;stroke-linecap:butt;stroke-linejoin:miter;stroke-miterlimit:4;stroke-dasharray:none;stroke-opacity:1"
         d="m 151.289,451.613 33.012,-30.191 9.648,43.746 z" /><path
         id="path36"
         style="fill:none;stroke:#000000;stroke-width:5.5999999;stroke-linecap:butt;stroke-linejoin:miter;stroke-miterlimit:2.4000001;stroke-dasharray:none;stroke-opacity:1"
         d="M 1191.21,768.641 175.898,459.891" /><path
         id="path38"
         style="fill:#000000;fill-opacity:1;fill-rule:evenodd;stroke:none"
         d="M 151.172,452.391 194.77,442.238 181.719,485.09 Z" /><path
         id="path40"
         style="fill:none;stroke:#000000;stroke-width:5.5999999;stroke-linecap:butt;stroke-linejoin:miter;stroke-miterlimit:4;stroke-dasharray:none;stroke-opacity:1"
         d="m 151.172,452.395 43.598,-10.153 -13.051,42.844 z" /><path
         id="path42"
         style="fill:none;stroke:#000000;stroke-width:5.5999999;stroke-linecap:butt;stroke-linejoin:miter;stroke-miterlimit:4;stroke-dasharray:none;stroke-opacity:1"
         d="M 1193.05,221.852 814.41,625.949" /><path
         id="path44"
         style="fill:#000000;fill-opacity:1;fill-rule:evenodd;stroke:none"
         d="m 796.719,644.82 10.16,-43.601 32.691,30.633 z" /><path
         id="path46"
         style="fill:none;stroke:#000000;stroke-width:5.60000992;stroke-linecap:butt;stroke-linejoin:miter;stroke-miterlimit:4;stroke-dasharray:none;stroke-opacity:1"
         d="m 796.711,644.816 10.16,-43.593 32.699,30.625 z" /><path
         id="path48"
         style="fill:none;stroke:#000000;stroke-width:5.5999999;stroke-linecap:butt;stroke-linejoin:miter;stroke-miterlimit:2.4000001;stroke-dasharray:none;stroke-opacity:1"
         d="M 1191.6,320.172 178.441,448.84" /><path
         id="path50"
         style="fill:#000000;fill-opacity:1;fill-rule:evenodd;stroke:none"
         d="m 152.77,452.121 35.628,-27.109 5.661,44.449 z" /><path
         id="path52"
         style="fill:none;stroke:#000000;stroke-width:5.60000992;stroke-linecap:butt;stroke-linejoin:miter;stroke-miterlimit:4;stroke-dasharray:none;stroke-opacity:1"
         d="m 152.77,452.117 35.628,-27.101 5.665,44.445 z" /><path
         id="path54"
         style="fill:#000000;fill-opacity:1;fill-rule:nonzero;stroke:none"
         d="m 1362.81,723.289 v 2.031 l -0.15,0.981 v 1.019 l -0.16,1.828 -0.55,3.442 -0.43,1.719 -0.43,1.441 -0.58,1.57 -0.55,1.282 -0.58,1.41 -0.59,1.129 -0.7,1.179 -0.71,1.129 -0.86,1.012 -0.86,0.98 -0.86,0.86 -0.85,0.699 -0.86,0.859 -1.02,0.743 -0.82,0.546 -1.02,0.59 -1.01,0.543 -0.98,0.43 -1.01,0.43 -0.98,0.32 -1.17,0.269 -0.98,0.27 -1.01,0.16 -0.98,0.16 -1.02,0.11 h -1.01 l -0.98,0.16 c -19.57,0 -38.28,-20.43 -38.28,-40.43 0,-13.129 8.56,-23.832 23.01,-23.832 l 0.27,3.012 c -8.44,0 -12.69,6.41 -12.69,15.551 0,6.871 3.71,22.257 8.12,29.41 6.72,10.429 14.42,13.129 19.42,13.129 13.98,0 13.98,-18.559 13.98,-29.692 0,-5.277 0,-13.437 0.31,-15.859 -12.42,-10.981 -23.44,-12.539 -29.14,-12.539 l -0.27,-3.012 c 8.98,0 19.26,3.133 29.96,11.844 1.87,-7.582 6.56,-11.844 13.01,-11.844 7.58,0 11.83,7.703 11.83,10 0,0.981 -0.82,1.41 -1.68,1.41 -1.01,0 -1.44,-0.429 -1.87,-1.41 -2.42,-6.988 -7.58,-6.988 -7.85,-6.988 -4.42,0 -4.42,11.129 -4.42,14.531 0,3.008 0,3.32 1.41,4.879 13.28,16.84 16.29,33.281 16.29,33.398 0,0.313 -0.16,1.454 -1.72,1.454 -1.41,0 -1.41,-0.43 -2.15,-3.012 -2.58,-8.871 -7.15,-19.731 -13.83,-28.129 z" /><path
         id="path56"
         style="fill:#000000;fill-opacity:1;fill-rule:nonzero;stroke:none"
         d="m 709.262,465.09 -8.133,-28.129 c -1.25,-3.981 -1.867,-6.91 -1.867,-8.75 0,-1.789 0.699,-3.199 2.187,-4.211 1.442,-1.059 4.371,-1.648 8.75,-1.719 l -0.937,-2.5 H 664.73 l 0.782,2.5 c 4.449,0 7.726,0.821 9.84,2.5 2.07,1.75 3.949,5.66 5.628,11.719 l 17.18,59.531 c 1.02,3.321 1.57,5.93 1.57,7.809 0,1.84 -0.671,3.281 -1.878,4.219 -1.172,0.902 -3.942,1.562 -8.282,1.871 l 0.782,2.5 h 38.437 c 10.902,0 18.633,-1.95 23.121,-5.782 4.461,-3.75 6.719,-8.668 6.719,-14.687 0,-6.359 -2.609,-12.109 -7.809,-17.18 -3.359,-3.133 -9.179,-5.902 -17.5,-8.281 l 8.442,-28.129 c 2.148,-7.5 4.097,-12.07 5.777,-13.59 1.641,-1.492 4.41,-2.312 8.281,-2.5 v -2.5 h -28.75 l -13.121,45.309 -2.347,-0.16 c -0.551,0 -1.332,0.039 -2.34,0.16 z m 0.937,4.058 c 1.641,-0.117 3,-0.148 4.063,-0.148 6.636,0 12.109,2.262 16.398,6.871 4.262,4.57 6.41,10.508 6.41,17.809 0,4.34 -1.172,7.699 -3.441,10 -2.18,2.269 -5.188,3.441 -8.899,3.441 -0.941,0 -2.07,0 -3.281,0 z" /><path
         id="path58"
         style="fill:#000000;fill-opacity:1;fill-rule:nonzero;stroke:none"
         d="m 767.73,420.602 c 0,6.828 0.981,12.726 2.969,17.648 2.071,4.891 4.852,8.52 8.281,10.941 2.579,1.84 5.321,2.809 8.129,2.809 4.571,0 8.672,-2.301 12.34,-6.871 4.461,-5.859 6.723,-13.707 6.723,-23.598 0,-6.871 -1.012,-12.769 -2.973,-17.652 -1.988,-4.809 -4.57,-8.32 -7.648,-10.469 -3.051,-2.191 -6.02,-3.281 -8.91,-3.281 -5.621,0 -10.391,3.359 -14.219,10.152 -3.121,5.59 -4.692,12.391 -4.692,20.321 z m 8.598,-1.102 c 0,-8.121 0.973,-14.801 2.973,-20 1.64,-4.371 4.14,-6.559 7.5,-6.559 1.519,0 3.16,0.661 4.84,2.028 1.757,1.453 3.05,3.832 3.91,7.191 1.328,5.078 2.027,12.231 2.027,21.41 0,6.75 -0.699,12.418 -2.027,17.032 -1.063,3.32 -2.43,5.66 -4.071,7.027 -1.25,1.012 -2.73,1.562 -4.371,1.562 -1.988,0 -3.789,-0.902 -5.308,-2.66 -2.11,-2.5 -3.563,-6.359 -4.379,-11.562 -0.742,-5.231 -1.094,-10.391 -1.094,-15.469 z" /><path
         id="path60"
         style="fill:#000000;fill-opacity:1;fill-rule:nonzero;stroke:none"
         d="m 690.16,258.449 -8.129,-28.129 c -1.25,-3.98 -1.871,-6.91 -1.871,-8.75 0,-1.789 0.699,-3.199 2.18,-4.218 1.449,-1.051 4.379,-1.641 8.75,-1.711 l -0.93,-2.5 h -44.539 l 0.789,2.5 c 4.449,0 7.731,0.82 9.84,2.5 2.07,1.75 3.949,5.66 5.629,11.711 l 17.18,59.539 c 1.019,3.32 1.562,5.929 1.562,7.808 0,1.832 -0.66,3.281 -1.871,4.223 -1.172,0.898 -3.949,1.558 -8.281,1.867 l 0.781,2.5 h 38.441 c 10.899,0 18.629,-1.949 23.118,-5.777 4.461,-3.75 6.722,-8.672 6.722,-14.692 0,-6.359 -2.621,-12.109 -7.812,-17.179 -3.36,-3.129 -9.18,-5.903 -17.5,-8.289 l 8.441,-28.122 c 2.141,-7.5 4.102,-12.07 5.781,-13.589 1.637,-1.493 4.411,-2.313 8.278,-2.5 v -2.5 h -28.75 l -13.129,45.308 -2.34,-0.16 c -0.551,0 -1.328,0.039 -2.34,0.16 z m 0.93,4.063 c 1.64,-0.121 3.012,-0.16 4.07,-0.16 6.641,0 12.11,2.269 16.399,6.878 4.261,4.571 6.41,10.508 6.41,17.809 0,4.34 -1.168,7.699 -3.438,10 -2.191,2.27 -5.191,3.441 -8.91,3.441 -0.93,0 -2.07,0 -3.281,0 z" /><path
         id="path62"
         style="fill:#000000;fill-opacity:1;fill-rule:nonzero;stroke:none"
         d="m 753.59,226.5 11.25,5.461 h 1.101 V 192.75 c 0,-2.621 0.079,-4.262 0.309,-4.852 0.199,-0.617 0.629,-1.128 1.25,-1.398 0.699,-0.32 2.109,-0.551 4.219,-0.629 v -1.25 h -17.34 v 1.25 c 2.141,0.078 3.59,0.309 4.211,0.629 0.59,0.27 1.019,0.699 1.25,1.25 0.281,0.578 0.469,2.262 0.469,5 v 25 c 0,3.391 -0.11,5.621 -0.309,6.559 -0.23,0.703 -0.551,1.25 -0.941,1.562 -0.43,0.391 -0.969,0.629 -1.559,0.629 -0.859,0 -1.988,-0.398 -3.441,-1.102 z" /><path
         id="path64"
         style="fill:#000000;fill-opacity:1;fill-rule:nonzero;stroke:none"
         d="m 1254.8,536.262 -8.12,-28.121 c -1.25,-3.993 -1.88,-6.922 -1.88,-8.75 0,-1.801 0.71,-3.211 2.19,-4.219 1.45,-1.063 4.38,-1.641 8.75,-1.723 l -0.94,-2.5 h -44.53 l 0.78,2.5 c 4.46,0 7.74,0.821 9.85,2.5 2.07,1.762 3.94,5.66 5.62,11.723 l 17.19,59.527 c 1.02,3.321 1.56,5.942 1.56,7.813 0,1.84 -0.66,3.277 -1.87,4.218 -1.17,0.899 -3.95,1.559 -8.28,1.872 l 0.78,2.5 h 38.44 c 10.89,0 18.63,-1.954 23.12,-5.782 4.45,-3.75 6.72,-8.672 6.72,-14.679 0,-6.371 -2.62,-12.11 -7.81,-17.192 -3.36,-3.129 -9.18,-5.898 -17.5,-8.277 l 8.43,-28.133 c 2.15,-7.5 4.11,-12.07 5.79,-13.59 1.64,-1.488 4.41,-2.308 8.28,-2.5 v -2.5 h -28.75 l -13.13,45.313 -2.34,-0.16 c -0.55,0 -1.33,0.039 -2.35,0.16 z m 0.94,4.058 c 1.64,-0.109 3.01,-0.148 4.06,-0.148 6.65,0 12.11,2.258 16.41,6.867 4.26,4.57 6.41,10.512 6.41,17.813 0,4.339 -1.17,7.699 -3.44,10 -2.19,2.269 -5.2,3.437 -8.91,3.437 -0.93,0 -2.07,0 -3.28,0 z" /><path
         id="path66"
         style="fill:#000000;fill-opacity:1;fill-rule:nonzero;stroke:none"
         d="m 1341.99,471.34 -3.12,-8.91 h -27.35 v 1.25 c 8.01,7.39 13.64,13.359 16.88,17.968 3.32,4.653 5,8.954 5,12.813 0,2.891 -0.98,5.32 -2.81,7.187 -1.8,1.84 -3.95,2.813 -6.41,2.813 -2.3,0 -4.34,-0.699 -6.09,-2.031 -1.8,-1.25 -3.17,-3.2 -4.07,-5.782 h -1.25 c 0.59,4.141 2.07,7.383 4.38,9.692 2.38,2.262 5.35,3.441 8.9,3.441 3.72,0 6.88,-1.293 9.38,-3.75 2.46,-2.429 3.75,-5.242 3.75,-8.441 0,-2.418 -0.55,-4.77 -1.56,-7.031 -1.68,-3.75 -4.46,-7.7 -8.28,-11.719 -5.63,-6.25 -9.18,-10.039 -10.63,-11.25 h 12.19 c 2.38,0 4.06,0.082 5,0.308 1.01,0.204 1.95,0.551 2.81,1.102 0.82,0.5 1.49,1.281 2.03,2.34 z" /><path
         id="path68"
         style="fill:#000000;fill-opacity:1;fill-rule:nonzero;stroke:none"
         d="m 1002.54,534.391 -8.13,-28.129 c -1.25,-3.981 -1.871,-6.91 -1.871,-8.75 0,-1.801 0.699,-3.203 2.191,-4.223 1.442,-1.051 4.372,-1.641 8.75,-1.719 l -0.94,-2.5 h -44.528 l 0.777,2.5 c 4.449,0 7.731,0.821 9.84,2.5 2.07,1.758 3.949,5.668 5.633,11.719 l 17.187,59.531 c 1.012,3.321 1.563,5.942 1.563,7.821 0,1.828 -0.672,3.281 -1.883,4.211 -1.168,0.898 -3.938,1.57 -8.277,1.878 l 0.777,2.5 h 38.441 c 10.9,0 18.63,-1.949 23.13,-5.781 4.45,-3.75 6.71,-8.668 6.71,-14.687 0,-6.371 -2.61,-12.114 -7.81,-17.192 -3.36,-3.121 -9.18,-5.89 -17.5,-8.281 l 8.44,-28.117 c 2.15,-7.5 4.1,-12.07 5.78,-13.602 1.64,-1.48 4.41,-2.3 8.28,-2.5 v -2.5 h -28.75 l -13.12,45.321 -2.35,-0.161 c -0.54,0 -1.33,0.04 -2.34,0.161 z m 0.94,4.058 c 1.64,-0.121 3,-0.16 4.06,-0.16 6.64,0 12.11,2.27 16.41,6.883 4.25,4.566 6.4,10.508 6.4,17.808 0,4.34 -1.17,7.7 -3.44,10 -2.18,2.27 -5.19,3.442 -8.9,3.442 -0.94,0 -2.07,0 -3.28,0 z" /><path
         id="path70"
         style="fill:#000000;fill-opacity:1;fill-rule:nonzero;stroke:none"
         d="m 644.648,674.461 -3.128,-21.25 h -2.5 c -0.309,5.508 -1.989,9.848 -5,12.969 -3.04,3.09 -6.211,4.691 -9.532,4.691 -2.187,0 -3.976,-0.66 -5.308,-1.871 -1.371,-1.18 -2.032,-2.621 -2.032,-4.379 0,-1.48 0.313,-2.851 0.942,-4.062 0.582,-1.25 1.91,-3.008 3.898,-5.161 7.153,-7.808 11.563,-13.199 13.133,-16.089 1.52,-2.93 2.34,-6.059 2.34,-9.379 0,-3.551 -0.981,-6.95 -2.813,-10.149 -1.796,-3.25 -4.488,-5.859 -8.128,-7.82 -3.551,-1.832 -7.301,-2.813 -11.25,-2.813 -2.61,0 -5.891,0.551 -9.84,1.563 -2.5,0.711 -4.41,1.098 -5.629,1.098 -1.172,0 -2.102,-0.239 -2.813,-0.629 -0.617,-0.27 -1.328,-0.969 -2.027,-2.032 h -2.5 l 3.277,22.661 h 2.192 c 1.64,-5.43 3.16,-9.34 4.531,-11.719 1.328,-2.418 3.16,-4.301 5.469,-5.629 2.379,-1.359 4.609,-2.031 6.718,-2.031 2.582,0 4.692,0.781 6.25,2.351 1.641,1.52 2.5,3.43 2.5,5.617 0,2.153 -0.589,4.262 -1.718,6.25 -1.059,1.954 -3.52,5.082 -7.34,9.383 -5.32,5.699 -8.828,10.149 -10.469,13.278 -1.172,2.261 -1.723,4.882 -1.723,7.812 0,4.957 1.762,9.098 5.313,12.34 3.519,3.32 8.519,5 15,5 2.769,0 6.289,-0.539 10.469,-1.563 2.07,-0.546 3.672,-0.777 4.84,-0.777 1.761,0 3.21,0.777 4.378,2.34 z" /><path
         id="path72"
         style="fill:#000000;fill-opacity:1;fill-rule:nonzero;stroke:none"
         d="m 1502.85,827.82 h -35.94 l -6.25,-14.679 c -1.56,-3.68 -2.34,-6.371 -2.34,-8.129 0,-1.371 0.66,-2.621 2.03,-3.75 1.33,-1.051 4.26,-1.762 8.75,-2.032 v -2.5 h -29.22 v 2.5 c 3.83,0.7 6.33,1.598 7.5,2.661 2.27,2.14 4.89,6.64 7.82,13.429 l 32.5,76.25 h 2.5 l 32.18,-77.179 c 2.58,-6.18 4.92,-10.2 7.03,-12.039 2.15,-1.872 5.16,-2.922 8.91,-3.122 v -2.5 h -36.56 v 2.5 c 3.63,0.2 6.09,0.821 7.34,1.872 1.33,1.019 2.03,2.347 2.03,3.91 0,1.949 -0.9,5.078 -2.65,9.379 z m -1.87,5 -15.78,37.5 -16.1,-37.5 z" /><path
         id="path74"
         style="fill:#000000;fill-opacity:1;fill-rule:nonzero;stroke:none"
         d="m 1268.75,179.621 c 6.45,-1.371 11.25,-3.551 14.37,-6.562 4.46,-4.18 6.72,-9.34 6.72,-15.469 0,-4.61 -1.48,-9.02 -4.37,-13.281 -2.93,-4.18 -6.95,-7.27 -12.03,-9.219 -5.12,-1.879 -12.89,-2.809 -23.28,-2.809 h -43.75 v 2.5 h 3.43 c 3.83,0 6.64,1.25 8.44,3.75 1.02,1.52 1.56,4.918 1.56,10.149 v 59.851 c 0,5.699 -0.7,9.367 -2.03,10.93 -1.79,1.961 -4.45,2.969 -7.97,2.969 h -3.43 v 2.5 h 40 c 7.46,0 13.47,-0.539 17.97,-1.559 6.83,-1.68 12.07,-4.609 15.62,-8.75 3.63,-4.18 5.47,-8.98 5.47,-14.371 0,-4.691 -1.45,-8.871 -4.22,-12.5 -2.81,-3.68 -6.99,-6.371 -12.5,-8.129 z m -35.78,3.59 c 1.64,-0.313 3.51,-0.582 5.62,-0.781 2.15,-0.11 4.57,-0.149 7.19,-0.149 6.64,0 11.64,0.699 15,2.18 3.4,1.449 6.02,3.641 7.81,6.57 1.76,3 2.66,6.25 2.66,9.68 0,5.391 -2.27,10.039 -6.72,13.91 -4.37,3.828 -10.86,5.777 -19.37,5.777 -4.5,0 -8.56,-0.546 -12.19,-1.558 z m 0,-44.211 c 5.19,-1.25 10.39,-1.879 15.62,-1.879 8.21,0 14.46,1.801 18.75,5.469 4.34,3.711 6.57,8.359 6.57,13.91 0,3.512 -1.02,6.949 -2.97,10.309 -1.88,3.32 -5.08,5.941 -9.53,7.812 -4.38,1.949 -9.89,2.969 -16.41,2.969 -2.81,0 -5.27,-0.078 -7.34,-0.16 -2,-0.11 -3.56,-0.27 -4.69,-0.469 z" /><path
         id="path76"
         style="fill:#000000;fill-opacity:1;fill-rule:nonzero;stroke:none"
         d="m 46.6797,567.43 -4.6914,-15.782 c 4.9609,5.821 9.4219,9.883 13.2812,12.192 3.9493,2.379 7.8907,3.59 11.8789,3.59 4.0235,0 7.543,-1.641 10.4727,-4.84 2.8906,-3.238 4.3672,-7.418 4.3672,-12.5 0,-10 -4.1367,-20.238 -12.3399,-30.629 -8.1289,-10.43 -17.6171,-15.621 -28.4375,-15.621 -2.3007,0 -4.332,0.269 -6.0898,0.781 -1.8008,0.551 -3.793,1.41 -5.9414,2.66 l -5,-17.66 c -0.9414,-3.402 -1.4102,-5.66 -1.4102,-6.723 0,-0.898 0.2422,-1.757 0.7813,-2.5 0.5078,-0.699 1.3281,-1.25 2.5,-1.558 1.1406,-0.391 3.4805,-0.629 7.039,-0.629 l -0.6289,-2.652 H 0.269531 l 0.628907,2.652 c 4.300782,0.117 7.222652,0.859 8.750002,2.187 1.48046,1.25 3.01176,4.774 4.53126,10.473 l 17.3398,60 c 1.0196,3.707 1.5703,6.09 1.5703,7.027 0,1.211 -0.3906,2.192 -1.1015,2.813 -0.6172,0.711 -1.6797,1.098 -3.1172,1.098 -1.3711,0 -3.25,-0.2 -5.6328,-0.469 V 564 Z M 30.7383,512.75 c 2.7812,-3.359 6.6015,-5 11.4101,-5 2.3829,0 4.7618,0.621 7.1914,1.871 2.461,1.328 4.879,3.32 7.1797,5.938 2.3907,2.582 4.5313,5.543 6.4102,8.902 1.8398,3.398 3.5195,7.43 5,12.039 1.5195,4.57 2.3398,9.141 2.3398,13.75 0,3.629 -0.8593,6.398 -2.5,8.281 -1.6797,1.949 -3.6679,2.969 -5.9297,2.969 -4.9296,0 -9.7695,-2.898 -14.539,-8.602 C 42.5,547.281 38.9492,540.68 36.6797,533.211 Z" /></g></g></svg>