<?xml version="1.0" encoding="UTF-8" standalone="no"?>
<svg
   xmlns:dc="http://purl.org/dc/elements/1.1/"
   xmlns:cc="http://creativecommons.org/ns#"
   xmlns:rdf="http://www.w3.org/1999/02/22-rdf-syntax-ns#"
   xmlns:svg="http://www.w3.org/2000/svg"
   xmlns="http://www.w3.org/2000/svg"
   viewBox="0 0 501.33334 324"
   height="324"
   width="501.33334"
   xml:space="preserve"
   id="svg2"
   version="1.1"><metadata
     id="metadata8"><rdf:RDF><cc:Work
         rdf:about=""><dc:format>image/svg+xml</dc:format><dc:type
           rdf:resource="http://purl.org/dc/dcmitype/StillImage" /></cc:Work></rdf:RDF></metadata><defs
     id="defs6" /><g
     transform="matrix(1.3333333,0,0,-1.3333333,0,324)"
     id="g10"><g
       transform="scale(0.1)"
       id="g12"><path
         id="path14"
         style="fill:none;stroke:#000000;stroke-width:8;stroke-linecap:square;stroke-linejoin:miter;stroke-miterlimit:3.79999995;stroke-dasharray:none;stroke-opacity:1"
         d="m 595.27,466.699 h 31.492" /><path
         id="path16"
         style="fill:none;stroke:#000000;stroke-width:8;stroke-linecap:square;stroke-linejoin:miter;stroke-miterlimit:3.79999995;stroke-dasharray:none;stroke-opacity:1"
         d="m 3715.27,466.699 h -31.52" /><path
         id="path18"
         style="fill:none;stroke:#000000;stroke-width:8;stroke-linecap:square;stroke-linejoin:miter;stroke-miterlimit:3.79999995;stroke-dasharray:none;stroke-opacity:1"
         d="m 595.27,677.719 h 31.492" /><path
         id="path20"
         style="fill:none;stroke:#000000;stroke-width:8;stroke-linecap:square;stroke-linejoin:miter;stroke-miterlimit:3.79999995;stroke-dasharray:none;stroke-opacity:1"
         d="m 3715.27,677.719 h -31.52" /><path
         id="path22"
         style="fill:none;stroke:#000000;stroke-width:8;stroke-linecap:square;stroke-linejoin:miter;stroke-miterlimit:3.79999995;stroke-dasharray:none;stroke-opacity:1"
         d="m 595.27,888.73 h 31.492" /><path
         id="path24"
         style="fill:none;stroke:#000000;stroke-width:8;stroke-linecap:square;stroke-linejoin:miter;stroke-miterlimit:3.79999995;stroke-dasharray:none;stroke-opacity:1"
         d="m 3715.27,888.73 h -31.52" /><path
         id="path26"
         style="fill:none;stroke:#000000;stroke-width:8;stroke-linecap:square;stroke-linejoin:miter;stroke-miterlimit:3.79999995;stroke-dasharray:none;stroke-opacity:1"
         d="m 595.27,1099.71 h 31.492" /><path
         id="path28"
         style="fill:none;stroke:#000000;stroke-width:8;stroke-linecap:square;stroke-linejoin:miter;stroke-miterlimit:3.79999995;stroke-dasharray:none;stroke-opacity:1"
         d="m 3715.27,1099.71 h -31.52" /><path
         id="path30"
         style="fill:none;stroke:#000000;stroke-width:8;stroke-linecap:square;stroke-linejoin:miter;stroke-miterlimit:3.79999995;stroke-dasharray:none;stroke-opacity:1"
         d="m 595.27,1310.73 h 31.492" /><path
         id="path32"
         style="fill:none;stroke:#000000;stroke-width:8;stroke-linecap:square;stroke-linejoin:miter;stroke-miterlimit:3.79999995;stroke-dasharray:none;stroke-opacity:1"
         d="m 3715.27,1310.73 h -31.52" /><path
         id="path34"
         style="fill:none;stroke:#000000;stroke-width:8;stroke-linecap:square;stroke-linejoin:miter;stroke-miterlimit:3.79999995;stroke-dasharray:none;stroke-opacity:1"
         d="m 595.27,1522.21 h 31.492" /><path
         id="path36"
         style="fill:none;stroke:#000000;stroke-width:8;stroke-linecap:square;stroke-linejoin:miter;stroke-miterlimit:3.79999995;stroke-dasharray:none;stroke-opacity:1"
         d="m 3715.27,1522.21 h -31.52" /><path
         id="path38"
         style="fill:none;stroke:#000000;stroke-width:8;stroke-linecap:square;stroke-linejoin:miter;stroke-miterlimit:3.79999995;stroke-dasharray:none;stroke-opacity:1"
         d="m 595.27,1733.23 h 31.492" /><path
         id="path40"
         style="fill:none;stroke:#000000;stroke-width:8;stroke-linecap:square;stroke-linejoin:miter;stroke-miterlimit:3.79999995;stroke-dasharray:none;stroke-opacity:1"
         d="m 3715.27,1733.23 h -31.52" /><path
         id="path42"
         style="fill:none;stroke:#000000;stroke-width:8;stroke-linecap:square;stroke-linejoin:miter;stroke-miterlimit:3.79999995;stroke-dasharray:none;stroke-opacity:1"
         d="m 595.27,1944.2 h 31.492" /><path
         id="path44"
         style="fill:none;stroke:#000000;stroke-width:8;stroke-linecap:square;stroke-linejoin:miter;stroke-miterlimit:3.79999995;stroke-dasharray:none;stroke-opacity:1"
         d="m 3715.27,1944.2 h -31.52" /><path
         id="path46"
         style="fill:none;stroke:#000000;stroke-width:8;stroke-linecap:square;stroke-linejoin:miter;stroke-miterlimit:3.79999995;stroke-dasharray:none;stroke-opacity:1"
         d="m 595.27,2155.22 h 31.492" /><path
         id="path48"
         style="fill:none;stroke:#000000;stroke-width:8;stroke-linecap:square;stroke-linejoin:miter;stroke-miterlimit:3.79999995;stroke-dasharray:none;stroke-opacity:1"
         d="m 3715.27,2155.22 h -31.52" /><path
         id="path50"
         style="fill:none;stroke:#000000;stroke-width:8;stroke-linecap:square;stroke-linejoin:miter;stroke-miterlimit:3.79999995;stroke-dasharray:none;stroke-opacity:1"
         d="m 595.27,2366.23 h 31.492" /><path
         id="path52"
         style="fill:none;stroke:#000000;stroke-width:8;stroke-linecap:square;stroke-linejoin:miter;stroke-miterlimit:3.79999995;stroke-dasharray:none;stroke-opacity:1"
         d="m 3715.27,2366.23 h -31.52" /><path
         id="path54"
         style="fill:none;stroke:#000000;stroke-width:8;stroke-linecap:square;stroke-linejoin:miter;stroke-miterlimit:3.79999995;stroke-dasharray:none;stroke-opacity:1"
         d="M 595.27,466.699 V 498.23" /><path
         id="path56"
         style="fill:none;stroke:#000000;stroke-width:8;stroke-linecap:square;stroke-linejoin:miter;stroke-miterlimit:3.79999995;stroke-dasharray:none;stroke-opacity:1"
         d="m 595.27,2366.23 v -31.52" /><path
         id="path58"
         style="fill:none;stroke:#000000;stroke-width:8;stroke-linecap:square;stroke-linejoin:miter;stroke-miterlimit:3.79999995;stroke-dasharray:none;stroke-opacity:1"
         d="M 985.27,466.699 V 498.23" /><path
         id="path60"
         style="fill:none;stroke:#000000;stroke-width:8;stroke-linecap:square;stroke-linejoin:miter;stroke-miterlimit:3.79999995;stroke-dasharray:none;stroke-opacity:1"
         d="m 985.27,2366.23 v -31.52" /><path
         id="path62"
         style="fill:none;stroke:#000000;stroke-width:8;stroke-linecap:square;stroke-linejoin:miter;stroke-miterlimit:3.79999995;stroke-dasharray:none;stroke-opacity:1"
         d="M 1375.27,466.699 V 498.23" /><path
         id="path64"
         style="fill:none;stroke:#000000;stroke-width:8;stroke-linecap:square;stroke-linejoin:miter;stroke-miterlimit:3.79999995;stroke-dasharray:none;stroke-opacity:1"
         d="m 1375.27,2366.23 v -31.52" /><path
         id="path66"
         style="fill:none;stroke:#000000;stroke-width:8;stroke-linecap:square;stroke-linejoin:miter;stroke-miterlimit:3.79999995;stroke-dasharray:none;stroke-opacity:1"
         d="M 1765.27,466.699 V 498.23" /><path
         id="path68"
         style="fill:none;stroke:#000000;stroke-width:8;stroke-linecap:square;stroke-linejoin:miter;stroke-miterlimit:3.79999995;stroke-dasharray:none;stroke-opacity:1"
         d="m 1765.27,2366.23 v -31.52" /><path
         id="path70"
         style="fill:none;stroke:#000000;stroke-width:8;stroke-linecap:square;stroke-linejoin:miter;stroke-miterlimit:3.79999995;stroke-dasharray:none;stroke-opacity:1"
         d="M 2155.27,466.699 V 498.23" /><path
         id="path72"
         style="fill:none;stroke:#000000;stroke-width:8;stroke-linecap:square;stroke-linejoin:miter;stroke-miterlimit:3.79999995;stroke-dasharray:none;stroke-opacity:1"
         d="m 2155.27,2366.23 v -31.52" /><path
         id="path74"
         style="fill:none;stroke:#000000;stroke-width:8;stroke-linecap:square;stroke-linejoin:miter;stroke-miterlimit:3.79999995;stroke-dasharray:none;stroke-opacity:1"
         d="M 2545.27,466.699 V 498.23" /><path
         id="path76"
         style="fill:none;stroke:#000000;stroke-width:8;stroke-linecap:square;stroke-linejoin:miter;stroke-miterlimit:3.79999995;stroke-dasharray:none;stroke-opacity:1"
         d="m 2545.27,2366.23 v -31.52" /><path
         id="path78"
         style="fill:none;stroke:#000000;stroke-width:8;stroke-linecap:square;stroke-linejoin:miter;stroke-miterlimit:3.79999995;stroke-dasharray:none;stroke-opacity:1"
         d="M 2935.27,466.699 V 498.23" /><path
         id="path80"
         style="fill:none;stroke:#000000;stroke-width:8;stroke-linecap:square;stroke-linejoin:miter;stroke-miterlimit:3.79999995;stroke-dasharray:none;stroke-opacity:1"
         d="m 2935.27,2366.23 v -31.52" /><path
         id="path82"
         style="fill:none;stroke:#000000;stroke-width:8;stroke-linecap:square;stroke-linejoin:miter;stroke-miterlimit:3.79999995;stroke-dasharray:none;stroke-opacity:1"
         d="M 3325.27,466.699 V 498.23" /><path
         id="path84"
         style="fill:none;stroke:#000000;stroke-width:8;stroke-linecap:square;stroke-linejoin:miter;stroke-miterlimit:3.79999995;stroke-dasharray:none;stroke-opacity:1"
         d="m 3325.27,2366.23 v -31.52" /><path
         id="path86"
         style="fill:none;stroke:#000000;stroke-width:8;stroke-linecap:square;stroke-linejoin:miter;stroke-miterlimit:3.79999995;stroke-dasharray:none;stroke-opacity:1"
         d="M 3715.27,466.699 V 498.23" /><path
         id="path88"
         style="fill:none;stroke:#000000;stroke-width:8;stroke-linecap:square;stroke-linejoin:miter;stroke-miterlimit:3.79999995;stroke-dasharray:none;stroke-opacity:1"
         d="m 3715.27,2366.23 v -31.52" /><path
         id="path90"
         style="fill:none;stroke:#000000;stroke-width:8;stroke-linecap:square;stroke-linejoin:miter;stroke-miterlimit:3.79999995;stroke-dasharray:none;stroke-opacity:1"
         d="m 595.27,466.699 h 3120 v 1899.53 h -3120 z" /><path
         id="path92"
         style="fill:none;stroke:#ff0000;stroke-width:8;stroke-linecap:square;stroke-linejoin:miter;stroke-miterlimit:3.79999995;stroke-dasharray:none;stroke-opacity:1"
         d="m 595.27,1251.23 38.992,57.97 39.019,60.51 38.989,58.01 38.98,51.99 39.02,41.52 38.992,27.5 39.019,12 38.989,-5 38.98,-23.01 39.02,-38.52 38.99,-52.97 39.02,-63.51 38.99,-71.02 38.98,-72.97 39.02,-71.52 38.99,-65 39.02,-54.49 38.99,-40 38.98,-23.521 39.02,-4.488 38.99,15 39.02,34.489 38.99,51.53 38.98,66.99 39.02,78.98 38.99,87.5 39.02,90.51 38.99,90.51 38.98,85 39.02,75.51 38.99,61.99 39.02,45.51 38.99,26.48 38.98,6.52 39.02,-15 38.99,-36.01 39.02,-55.51 38.99,-73.48 38.98,-88.51 39.02,-100 38.99,-108.52 39.02,-112.5 38.99,-112.97 38.98,-108.511 39.02,-100.508 38.99,-88.981 39.02,-74.031 38.99,-56.988 38.98,-36.992 39.02,-16.489 38.99,5 39.02,26.489 38.99,47.5 38.98,66.992 39.02,85.508 38.99,100.511 39.02,113.47 38.99,123.52 38.98,130 39.02,133.01 38.99,132.5 39.02,128.47 38.99,121.53 38.98,110.97 39.02,98.01 38.99,82.5 39.02,64.49 38.99,45.51 38.98,25 39.02,3.52 38.99,-17.5 39.02,-38.52 38.99,-58.98 38.98,-78.01 39.02,-95 38.99,-110.51 39.02,-123.01 38.99,-133.47 38.98,-140.51 39.02,-145" /><path
         id="path94"
         style="fill:none;stroke:#009600;stroke-width:8;stroke-linecap:square;stroke-linejoin:miter;stroke-miterlimit:3.79999995;stroke-dasharray:64, 64;stroke-dashoffset:0;stroke-opacity:1"
         d="m 595.27,1871.7 38.992,2.03 39.019,-18.51 38.989,-39.49 38.98,-58.01 39.02,-75 38.992,-89.49 39.019,-99.5 38.989,-106.52 38.98,-109.49 39.02,-108.52 38.99,-102.97 39.02,-93.511 38.99,-81.02 38.98,-65 39.02,-46.988 38.99,-26.992 39.02,-6.02 38.99,15.512 38.98,36.019 39.02,55.5 38.99,72.5 39.02,87 38.99,98 38.98,105.98 39.02,109.02 38.99,108.99 39.02,103.98 38.99,95.51 38.98,83.01 39.02,68.01 38.99,50 39.02,30.5 38.99,9.5 38.98,-12 39.02,-33 38.99,-52 39.02,-70 38.99,-84.53 38.98,-96.99 39.02,-104.49 38.99,-108.99 39.02,-109.02 38.99,-105.51 38.98,-96.99 39.02,-85.511 38.99,-70.469 39.02,-53 38.99,-34.031 38.98,-12.5 39.02,8.012 38.99,29.488 39.02,49.031 38.99,67.5 38.98,82.5 39.02,95 38.99,103.47 39.02,108.52 38.99,109.49 38.98,106.02 39.02,98.47 38.99,88.01 39.02,73.01 38.99,56.01 38.98,37 39.02,16.48 38.99,-5 39.02,-25.98 38.99,-46.01 38.98,-63.99 39.02,-80.5 38.99,-93.01 39.02,-102.5 38.99,-108.01 38.98,-109.49 39.02,-106.99 38.99,-100 39.02,-90 38.99,-75.511 38.98,-59.489 39.02,-40" /><path
         id="path96"
         style="fill:none;stroke:#0000ff;stroke-width:8;stroke-linecap:square;stroke-linejoin:miter;stroke-miterlimit:3.79999995;stroke-dasharray:24, 24;stroke-dashoffset:0;stroke-opacity:1"
         d="m 595.27,1588.73 38.992,-84.53 39.019,-89.49 38.989,-92.5 38.98,-93.01 39.02,-90.47 38.992,-86.01 39.019,-78.99 38.989,-70 38.98,-58.511 39.02,-46.02 38.99,-32.5 39.02,-16.988 38.99,-2.5 38.98,13.519 39.02,28 38.99,42 39.02,55.5 38.99,66.489 38.98,76.991 39.02,84.02 38.99,89.5 39.02,92.5 38.99,93 38.98,90.47 39.02,86.53 38.99,78.98 39.02,70.51 38.99,58.98 38.98,47.03 39.02,32.5 38.99,17.97 39.02,3.01 38.99,-12.5 38.98,-27.5 39.02,-41.48 38.99,-55 39.02,-66.02 38.99,-76.48 38.98,-84.03 39.02,-88.98 38.99,-92.5 39.02,-93.01 38.99,-90.98 38.98,-86.52 39.02,-79.491 38.99,-70.508 39.02,-60 38.99,-46.992 38.98,-33.52 39.02,-18.98 38.99,-3.52 39.02,12.031 38.99,27 38.98,40.969 39.02,54.031 38.99,65.969 39.02,76.021 38.99,83.51 38.98,88.99 39.02,92.5 38.99,93.01 39.02,90.97 38.99,86.53 38.98,80 39.02,71.48 38.99,60 39.02,48.01 38.99,33.98 38.98,19.03 39.02,4.49 38.99,-11.49 39.02,-26.01 38.99,-40.51 38.98,-53.48 39.02,-65.5 38.99,-75.51 39.02,-83.52 38.99,-88.98 38.98,-91.99 39.02,-93.01" /><path
         id="path98"
         style="fill:none;stroke:#000000;stroke-width:8;stroke-linecap:square;stroke-linejoin:miter;stroke-miterlimit:3.79999995;stroke-dasharray:none;stroke-opacity:1"
         d="m 595.27,466.699 h 3120 v 1899.53 h -3120 z" /><path
         id="path100"
         style="fill:#000000;fill-opacity:1;fill-rule:nonzero;stroke:none"
         d="m 622.852,418.34 -6.403,-14.059 h -33.91 l -7.34,-15.16 c 14.641,-2.109 26.281,-7.543 34.84,-16.25 7.383,-7.609 11.09,-16.48 11.09,-26.562 0,-5.938 -1.289,-11.481 -3.75,-16.559 -2.418,-5 -5.43,-9.301 -9.059,-12.809 -3.672,-3.562 -7.73,-6.453 -12.191,-8.601 -6.359,-3.012 -12.891,-4.531 -19.527,-4.531 -6.801,0 -11.762,1.171 -14.84,3.441 -3.051,2.262 -4.532,4.84 -4.532,7.66 0,1.52 0.622,2.891 1.872,4.059 1.328,1.211 2.968,1.871 4.847,1.871 1.442,0 2.692,-0.27 3.75,-0.781 1.129,-0.43 3,-1.52 5.621,-3.278 4.02,-2.929 8.2,-4.371 12.5,-4.371 6.52,0 12.27,2.418 17.192,7.34 4.879,4.879 7.34,10.82 7.34,17.809 0,6.839 -2.231,13.203 -6.563,19.062 -4.379,5.899 -10.43,10.508 -18.129,13.75 -6.051,2.457 -14.289,3.91 -24.68,4.219 l 21.559,43.75 z" /><path
         id="path102"
         style="fill:#000000;fill-opacity:1;fill-rule:nonzero;stroke:none"
         d="m 940.469,418.539 -6.41,-14.059 H 900.16 l -7.351,-15.16 c 14.652,-2.109 26.293,-7.539 34.851,-16.25 7.379,-7.621 11.09,-16.492 11.09,-26.558 0,-5.942 -1.289,-11.492 -3.75,-16.571 -2.422,-5 -5.43,-9.293 -9.059,-12.812 -3.671,-3.551 -7.742,-6.438 -12.191,-8.59 -6.371,-3.008 -12.891,-4.527 -19.531,-4.527 -6.797,0 -11.758,1.168 -14.84,3.429 -3.051,2.27 -4.539,4.848 -4.539,7.661 0,1.519 0.629,2.886 1.879,4.058 1.332,1.211 2.972,1.879 4.84,1.879 1.453,0 2.703,-0.277 3.75,-0.777 1.14,-0.434 3.011,-1.532 5.632,-3.282 4.02,-2.929 8.2,-4.378 12.5,-4.378 6.52,0 12.258,2.418 17.18,7.339 4.891,4.887 7.348,10.821 7.348,17.821 0,6.828 -2.231,13.199 -6.559,19.058 -4.379,5.899 -10.43,10.508 -18.129,13.75 -6.051,2.461 -14.301,3.91 -24.691,4.219 l 21.57,43.75 z m 32.383,-96.41 c 2.578,0 4.769,-0.899 6.558,-2.649 1.762,-1.8 2.66,-3.992 2.66,-6.57 0,-2.5 -0.98,-4.719 -2.808,-6.558 -1.801,-1.762 -3.953,-2.661 -6.41,-2.661 -2.5,0 -4.731,0.899 -6.563,2.661 -1.801,1.839 -2.66,4.058 -2.66,6.558 0,2.578 0.859,4.77 2.66,6.57 1.832,1.75 4.063,2.649 6.563,2.649 z m 94.918,96.41 -6.4,-14.059 h -33.91 l -7.34,-15.16 c 14.65,-2.109 26.29,-7.539 34.84,-16.25 7.38,-7.621 11.09,-16.492 11.09,-26.558 0,-5.942 -1.28,-11.492 -3.75,-16.571 -2.42,-5 -5.42,-9.293 -9.06,-12.812 -3.67,-3.551 -7.73,-6.438 -12.19,-8.59 -6.36,-3.008 -12.89,-4.527 -19.53,-4.527 -6.79,0 -11.75,1.168 -14.84,3.429 -3.05,2.27 -4.53,4.848 -4.53,7.661 0,1.519 0.62,2.886 1.87,4.058 1.33,1.211 2.97,1.879 4.85,1.879 1.44,0 2.69,-0.277 3.75,-0.777 1.13,-0.434 3,-1.532 5.62,-3.282 4.03,-2.929 8.21,-4.378 12.5,-4.378 6.53,0 12.27,2.418 17.19,7.339 4.88,4.887 7.34,10.821 7.34,17.821 0,6.828 -2.22,13.199 -6.56,19.058 -4.37,5.899 -10.43,10.508 -18.12,13.75 -6.06,2.461 -14.3,3.91 -24.69,4.219 l 21.56,43.75 z" /><path
         id="path104"
         style="fill:#000000;fill-opacity:1;fill-rule:nonzero;stroke:none"
         d="m 1400.51,419.551 v -2.973 c -7.31,-0.738 -13.32,-2.219 -17.97,-4.367 -4.61,-2.191 -9.18,-5.551 -13.75,-10 -4.49,-4.492 -8.24,-9.492 -11.25,-15 -2.93,-5.551 -5.39,-12.109 -7.34,-19.691 8,5.511 16.01,8.281 24.06,8.281 7.69,0 14.37,-3.16 20,-9.371 5.58,-6.168 8.44,-14.141 8.44,-23.91 0,-9.372 -2.9,-17.93 -8.6,-25.622 -6.87,-9.488 -15.98,-14.218 -27.19,-14.218 -7.73,0 -14.25,2.539 -19.53,7.648 -10.54,9.891 -15.78,22.742 -15.78,38.602 0,9.961 1.95,19.531 5.94,28.59 4.02,9.14 9.84,17.23 17.34,24.218 7.46,7.071 14.69,11.801 21.57,14.223 6.83,2.379 13.28,3.59 19.21,3.59 z m -51.72,-58.121 c -0.94,-7.418 -1.41,-13.399 -1.41,-17.969 0,-5.313 0.94,-11.133 2.82,-17.34 1.95,-6.25 4.92,-11.211 8.9,-14.851 2.78,-2.61 6.17,-3.899 10.16,-3.899 4.88,0 9.22,2.219 12.97,6.707 3.71,4.582 5.62,11.102 5.62,19.543 0,9.449 -1.91,17.649 -5.62,24.527 -3.75,6.954 -9.11,10.473 -15.94,10.473 -2.11,0 -4.41,-0.512 -6.88,-1.41 -2.42,-0.859 -5.97,-2.77 -10.62,-5.781 z" /><path
         id="path106"
         style="fill:#000000;fill-opacity:1;fill-rule:nonzero;stroke:none"
         d="m 1727.73,419.711 v -2.973 c -7.3,-0.738 -13.32,-2.226 -17.96,-4.367 -4.61,-2.191 -9.18,-5.551 -13.75,-10 -4.5,-4.5 -8.25,-9.5 -11.25,-15 -2.93,-5.551 -5.39,-12.109 -7.35,-19.691 8.01,5.511 16.02,8.281 24.06,8.281 7.7,0 14.38,-3.16 20,-9.383 5.59,-6.168 8.44,-14.137 8.44,-23.898 0,-9.379 -2.89,-17.93 -8.59,-25.629 -6.88,-9.492 -15.98,-14.223 -27.19,-14.223 -7.73,0 -14.26,2.543 -19.53,7.66 -10.55,9.883 -15.78,22.742 -15.78,38.59 0,9.973 1.95,19.543 5.94,28.602 4.02,9.14 9.84,17.23 17.34,24.218 7.46,7.071 14.69,11.793 21.56,14.223 6.84,2.379 13.28,3.59 19.22,3.59 z m -51.71,-58.133 c -0.94,-7.418 -1.41,-13.387 -1.41,-17.957 0,-5.32 0.94,-11.141 2.81,-17.351 1.96,-6.25 4.92,-11.211 8.91,-14.84 2.77,-2.621 6.17,-3.91 10.15,-3.91 4.89,0 9.22,2.23 12.97,6.718 3.71,4.571 5.63,11.09 5.63,19.532 0,9.46 -1.92,17.66 -5.63,24.531 -3.75,6.961 -9.1,10.469 -15.93,10.469 -2.11,0 -4.42,-0.508 -6.88,-1.399 -2.42,-0.859 -5.98,-2.781 -10.62,-5.793 z m 81.6,-40.617 c 2.58,0 4.76,-0.902 6.56,-2.66 1.76,-1.789 2.66,-3.981 2.66,-6.563 0,-2.5 -0.98,-4.726 -2.82,-6.558 -1.79,-1.758 -3.94,-2.66 -6.4,-2.66 -2.5,0 -4.73,0.902 -6.57,2.66 -1.79,1.832 -2.65,4.058 -2.65,6.558 0,2.582 0.86,4.774 2.65,6.563 1.84,1.758 4.07,2.66 6.57,2.66 z m 94.92,96.41 -6.41,-14.07 h -33.9 l -7.35,-15.153 c 14.65,-2.109 26.29,-7.539 34.85,-16.25 7.38,-7.617 11.09,-16.488 11.09,-26.57 0,-5.93 -1.29,-11.476 -3.75,-16.558 -2.42,-5 -5.43,-9.29 -9.06,-12.809 -3.67,-3.551 -7.74,-6.449 -12.19,-8.59 -6.37,-3.012 -12.89,-4.543 -19.53,-4.543 -6.8,0 -11.76,1.184 -14.84,3.442 -3.05,2.269 -4.54,4.851 -4.54,7.66 0,1.519 0.63,2.89 1.88,4.058 1.33,1.211 2.97,1.883 4.84,1.883 1.45,0 2.7,-0.281 3.75,-0.793 1.14,-0.418 3.01,-1.519 5.63,-3.277 4.02,-2.93 8.2,-4.371 12.5,-4.371 6.52,0 12.26,2.422 17.19,7.34 4.88,4.89 7.34,10.82 7.34,17.808 0,6.844 -2.23,13.211 -6.56,19.07 -4.38,5.903 -10.43,10.512 -18.13,13.75 -6.05,2.461 -14.3,3.903 -24.69,4.223 l 21.57,43.75 z" /><path
         id="path108"
         style="fill:#000000;fill-opacity:1;fill-rule:nonzero;stroke:none"
         d="m 2123.01,418.539 h 60.47 v -3.129 l -37.5,-111.719 h -9.38 l 33.6,101.411 h -30.94 c -6.25,0 -10.71,-0.821 -13.28,-2.34 -4.69,-2.5 -8.48,-6.453 -11.25,-11.723 l -2.5,0.941 z" /><path
         id="path110"
         style="fill:#000000;fill-opacity:1;fill-rule:nonzero;stroke:none"
         d="m 2453.36,418.539 h 60.47 v -3.129 l -37.5,-111.719 h -9.38 l 33.6,101.411 h -30.94 c -6.25,0 -10.7,-0.821 -13.28,-2.34 -4.69,-2.5 -8.48,-6.453 -11.25,-11.723 l -2.5,0.941 z m 89.1,-96.41 c 2.58,0 4.77,-0.899 6.56,-2.649 1.76,-1.8 2.66,-3.992 2.66,-6.57 0,-2.5 -0.98,-4.719 -2.81,-6.558 -1.8,-1.762 -3.95,-2.661 -6.41,-2.661 -2.5,0 -4.73,0.899 -6.56,2.661 -1.8,1.839 -2.66,4.058 -2.66,6.558 0,2.578 0.86,4.77 2.66,6.57 1.83,1.75 4.06,2.649 6.56,2.649 z m 94.92,96.41 -6.4,-14.059 h -33.91 l -7.34,-15.16 c 14.65,-2.109 26.29,-7.539 34.84,-16.25 7.38,-7.621 11.09,-16.492 11.09,-26.558 0,-5.942 -1.28,-11.492 -3.75,-16.571 -2.42,-5 -5.43,-9.293 -9.06,-12.812 -3.67,-3.551 -7.73,-6.438 -12.19,-8.59 -6.36,-3.008 -12.89,-4.527 -19.53,-4.527 -6.79,0 -11.75,1.168 -14.84,3.429 -3.05,2.27 -4.53,4.848 -4.53,7.661 0,1.519 0.62,2.886 1.87,4.058 1.33,1.211 2.97,1.879 4.85,1.879 1.44,0 2.69,-0.277 3.75,-0.777 1.13,-0.434 3,-1.532 5.62,-3.282 4.03,-2.929 8.2,-4.378 12.5,-4.378 6.53,0 12.27,2.418 17.19,7.339 4.88,4.887 7.34,10.821 7.34,17.821 0,6.828 -2.22,13.199 -6.56,19.058 -4.37,5.899 -10.43,10.508 -18.12,13.75 -6.06,2.461 -14.3,3.91 -24.69,4.219 l 21.56,43.75 z" /><path
         id="path112"
         style="fill:#000000;fill-opacity:1;fill-rule:nonzero;stroke:none"
         d="m 2918.48,361.43 c -8.99,7.261 -14.77,13.121 -17.35,17.5 -2.5,4.449 -3.75,9.101 -3.75,13.898 0,7.274 2.82,13.524 8.44,18.75 5.59,5.281 13.13,7.973 22.5,7.973 9.02,0 16.33,-2.461 21.88,-7.34 5.5,-4.922 8.28,-10.551 8.28,-16.883 0,-4.168 -1.53,-8.469 -4.53,-12.808 -2.93,-4.372 -9.15,-9.571 -18.6,-15.469 9.77,-7.5 16.25,-13.473 19.38,-17.813 4.14,-5.617 6.25,-11.597 6.25,-17.808 0,-7.93 -3.05,-14.731 -9.07,-20.309 -5.93,-5.633 -13.86,-8.441 -23.75,-8.441 -10.62,0 -18.94,3.359 -24.84,10.148 -4.8,5.281 -7.19,11.141 -7.19,17.5 0,4.973 1.64,9.934 5,14.852 3.32,4.879 9.1,10.308 17.35,16.25 z m 12.97,8.898 c 6.64,5.902 10.85,10.633 12.65,14.07 1.76,3.403 2.66,7.34 2.66,11.723 0,5.82 -1.68,10.348 -5,13.59 -3.24,3.32 -7.7,5 -13.28,5 -5.63,0 -10.24,-1.641 -13.75,-4.84 -3.56,-3.25 -5.32,-7.07 -5.32,-11.41 0,-2.93 0.71,-5.859 2.19,-8.75 1.45,-2.813 3.52,-5.551 6.25,-8.133 z m -9.07,-12.027 c -4.61,-3.981 -8.04,-8.242 -10.31,-12.813 -2.19,-4.488 -3.28,-9.41 -3.28,-14.687 0,-7.18 1.91,-12.93 5.78,-17.18 3.95,-4.301 8.95,-6.41 15,-6.41 5.9,0 10.66,1.641 14.22,5 3.63,3.398 5.47,7.539 5.47,12.34 0,3.949 -1.06,7.539 -3.13,10.777 -3.86,5.832 -11.79,13.481 -23.75,22.973 z" /><path
         id="path114"
         style="fill:#000000;fill-opacity:1;fill-rule:nonzero;stroke:none"
         d="m 3247.7,361.578 c -8.99,7.274 -14.77,13.133 -17.35,17.5 -2.5,4.461 -3.75,9.113 -3.75,13.91 0,7.274 2.81,13.524 8.44,18.75 5.58,5.274 13.12,7.973 22.5,7.973 9.02,0 16.33,-2.461 21.87,-7.34 5.51,-4.93 8.29,-10.551 8.29,-16.883 0,-4.179 -1.53,-8.476 -4.54,-12.808 -2.93,-4.379 -9.14,-9.571 -18.59,-15.469 9.77,-7.5 16.25,-13.481 19.38,-17.813 4.14,-5.628 6.25,-11.597 6.25,-17.82 0,-7.918 -3.05,-14.719 -9.07,-20.308 -5.93,-5.622 -13.86,-8.442 -23.75,-8.442 -10.62,0 -18.94,3.363 -24.84,10.16 -4.81,5.274 -7.19,11.133 -7.19,17.5 0,4.961 1.64,9.922 5,14.84 3.32,4.891 9.1,10.32 17.35,16.25 z m 12.96,8.91 c 6.64,5.903 10.86,10.633 12.66,14.063 1.76,3.398 2.66,7.347 2.66,11.719 0,5.82 -1.68,10.351 -5,13.601 -3.25,3.32 -7.7,5 -13.28,5 -5.63,0 -10.24,-1.641 -13.75,-4.851 -3.56,-3.239 -5.32,-7.071 -5.32,-11.399 0,-2.93 0.71,-5.859 2.19,-8.75 1.45,-2.82 3.52,-5.551 6.25,-8.133 z m -9.06,-12.027 c -4.61,-3.981 -8.05,-8.242 -10.31,-12.813 -2.19,-4.488 -3.28,-9.418 -3.28,-14.687 0,-7.191 1.91,-12.93 5.78,-17.191 3.94,-4.29 8.94,-6.399 15,-6.399 5.9,0 10.66,1.641 14.22,5 3.63,3.391 5.47,7.539 5.47,12.34 0,3.949 -1.06,7.539 -3.13,10.777 -3.87,5.821 -11.8,13.481 -23.75,22.973 z m 69.57,-37.5 c 2.58,0 4.77,-0.902 6.56,-2.66 1.76,-1.789 2.66,-3.981 2.66,-6.563 0,-2.5 -0.98,-4.726 -2.81,-6.558 -1.8,-1.758 -3.95,-2.66 -6.41,-2.66 -2.5,0 -4.72,0.902 -6.56,2.66 -1.8,1.832 -2.66,4.058 -2.66,6.558 0,2.582 0.86,4.774 2.66,6.563 1.84,1.758 4.06,2.66 6.56,2.66 z m 94.92,96.41 -6.4,-14.07 h -33.91 l -7.34,-15.153 c 14.65,-2.109 26.29,-7.539 34.84,-16.25 7.38,-7.617 11.1,-16.488 11.1,-26.57 0,-5.93 -1.29,-11.476 -3.76,-16.558 -2.42,-5 -5.42,-9.29 -9.06,-12.809 -3.67,-3.551 -7.73,-6.449 -12.18,-8.59 -6.37,-3.012 -12.9,-4.543 -19.54,-4.543 -6.79,0 -11.75,1.184 -14.84,3.442 -3.05,2.269 -4.53,4.851 -4.53,7.66 0,1.519 0.62,2.89 1.87,4.058 1.33,1.211 2.97,1.883 4.85,1.883 1.44,0 2.69,-0.281 3.75,-0.793 1.13,-0.418 3.01,-1.519 5.62,-3.277 4.03,-2.93 8.21,-4.371 12.5,-4.371 6.53,0 12.27,2.422 17.19,7.34 4.88,4.89 7.34,10.82 7.34,17.808 0,6.844 -2.22,13.211 -6.56,19.07 -4.37,5.903 -10.43,10.512 -18.12,13.75 -6.06,2.461 -14.3,3.903 -24.69,4.223 l 21.56,43.75 z" /><path
         id="path116"
         style="fill:#000000;fill-opacity:1;fill-rule:nonzero;stroke:none"
         d="m 3683.24,302.52 v 3.128 c 7.15,0.082 13.83,1.762 20,5 6.21,3.204 12.23,8.832 17.97,16.872 5.82,8.089 9.88,17.031 12.19,26.718 -8.67,-5.617 -16.52,-8.437 -23.6,-8.437 -7.92,0 -14.72,3.051 -20.31,9.219 -5.62,6.14 -8.44,14.261 -8.44,24.378 0,9.883 2.82,18.633 8.44,26.25 6.84,9.332 15.78,14.063 26.72,14.063 9.14,0 17.07,-3.832 23.75,-11.41 8.01,-9.492 12.03,-21.172 12.03,-35 0,-12.5 -3.08,-24.18 -9.22,-35 -6.17,-10.86 -14.72,-19.879 -25.62,-27.031 -8.87,-5.86 -18.56,-8.75 -29.06,-8.75 z m 51.56,57.808 c 0.9,7.152 1.41,12.973 1.41,17.352 0,5.269 -0.98,11.09 -2.81,17.34 -1.8,6.21 -4.34,11.019 -7.66,14.378 -3.36,3.321 -7.15,5 -11.4,5 -4.93,0 -9.26,-2.269 -12.97,-6.718 -3.67,-4.379 -5.47,-10.981 -5.47,-19.692 0,-11.679 2.42,-20.859 7.34,-27.5 3.52,-4.687 7.97,-7.027 13.28,-7.027 2.46,0 5.47,0.551 8.91,1.719 3.52,1.211 6.64,2.968 9.37,5.148 z" /><path
         id="path118"
         style="fill:#000000;fill-opacity:1;fill-rule:nonzero;stroke:none"
         d="m 1860.66,130.762 2.04,0.429 1.83,0.629 2.07,0.59 2.03,0.621 1.84,0.629 2.03,0.578 1.88,0.821 2.03,0.82 1.83,1.019 2.03,0.821 1.84,1.011 1.84,1.059 1.64,1.012 1.83,1.211 1.64,1.25 3.28,2.429 1.64,1.25 1.45,1.399 1.21,1.449 1.45,1.441 1.21,1.411 3.04,4.918 0.82,1.64 0.63,1.602 0.62,1.879 0.39,1.832 0.43,1.84 0.2,1.839 v 1.829 c 0,17.39 -18.2,30.468 -44.96,30.468 h -57.85 c -4.1,0 -5.94,0 -5.94,-4.097 0,-2.27 1.84,-2.27 5.74,-2.27 0.39,0 4.3,0 7.54,-0.391 3.71,-0.429 5.55,-0.621 5.55,-3.281 0,-0.82 -0.24,-1.398 -0.82,-3.871 L 1787.5,77.6406 c -2.07,-7.9687 -2.46,-9.6093 -18.4,-9.6093 -3.67,0 -5.51,0 -5.51,-4.1016 0,-2.2305 2.43,-2.2305 2.86,-2.2305 5.7,0 19.8,0.8203 25.54,0.8203 5.71,0 20.24,-0.8203 25.74,-0.8203 1.65,0 4.11,0 4.11,4.0625 0,2.2696 -1.84,2.2696 -5.75,2.2696 -7.34,0 -13.08,0 -13.08,3.6679 0,1.25 0.43,2.2696 0.62,3.4805 l 13.28,53.7503 h 24.34 l -0.2,4.492 h -22.89 l 13.29,52.969 c 1.21,4.879 1.83,6.91 5.7,7.539 1.83,0.191 8.4,0.191 12.26,0.191 14.54,0 37.23,0 37.23,-20 0,-6.949 -3.28,-21.051 -11.25,-28.82 -5.31,-5.321 -16.17,-11.879 -34.34,-11.879 l 0.2,-4.492 c 18.4,0 22.07,-11.25 22.07,-18.399 0,-3.051 -1.64,-9.371 -2.85,-14.1013 -1.45,-5.5078 -3.28,-13.0899 -3.28,-17.1484 0,-21.8711 24.53,-21.8711 27.19,-21.8711 17.14,0 24.33,20.4179 24.33,23.2812 0,2.457 -2.26,2.457 -2.46,2.457 -1.84,0 -2.27,-1.4101 -2.66,-2.8476 -5.11,-15.1211 -13.9,-18.6016 -18.39,-18.6016 -6.76,0 -8.17,4.4922 -8.17,12.461 0,6.3281 1.21,16.7617 2.03,23.0898 0.39,2.852 0.82,6.762 0.82,9.609 0,15.551 -13.71,21.871 -19.22,23.903 z" /><path
         id="path120"
         style="fill:#000000;fill-opacity:1;fill-rule:nonzero;stroke:none"
         d="m 2012.54,13.0313 v 0.8203 h -0.24 v 0.2265 l -0.39,0.4024 v 0.1914 h -0.19 v 0.2383 l -0.2,0.1914 -0.23,0.1992 -0.39,0.3906 -0.2,0.2305 -0.23,0.1992 v 0.1875 h -0.2 l -0.19,0.2031 v 0.2266 h -0.2 l -0.23,0.2031 v 0.1875 h -0.2 l -0.19,0.1992 v 0.2305 c -25.55,25.5508 -32.11,63.9531 -32.11,95.0434 0,35.347 7.77,70.699 32.73,96.058 2.66,2.461 2.66,2.852 2.66,3.469 0,1.41 -0.82,2.031 -2.07,2.031 -2.03,0 -20.24,-13.898 -32.27,-39.648 -10.43,-22.262 -12.69,-44.961 -12.69,-61.91 0,-15.9418 2.07,-40.4731 13.28,-63.3637 C 1991.05,24.2813 2008.44,11 2010.47,11 c 1.25,0 2.07,0.6211 2.07,2.0313 z" /><path
         id="path122"
         style="fill:#000000;fill-opacity:1;fill-rule:nonzero;stroke:none"
         d="m 2060.16,149.359 v 23.512 c 0,17.777 9.61,27.617 18.59,27.617 0.63,0 3.67,0 6.76,-1.437 -2.46,-0.821 -6.13,-3.481 -6.13,-8.602 0,-4.488 3.24,-8.59 8.78,-8.59 5.9,0 8.99,4.102 8.99,8.789 0,7.582 -7.58,14.332 -18.4,14.332 -14.1,0 -31.48,-10.859 -31.48,-32.3 v -23.321 h -16.14 v -6.328 h 16.14 V 77.2109 c 0,-9.1796 -2.23,-9.1796 -15.94,-9.1796 v -6.3321 c 7.97,0.3906 17.58,0.8203 23.32,0.8203 8.16,0 17.58,0 25.74,-0.8203 v 6.3321 h -4.3 c -14.92,0 -15.31,2.2695 -15.31,9.6093 v 65.3904 h 23.09 v 6.328 z" /><path
         id="path124"
         style="fill:#000000;fill-opacity:1;fill-rule:nonzero;stroke:none"
         d="M 2108.98,131.578 V 77.2109 c 0,-9.1796 -2.03,-9.1796 -15.74,-9.1796 v -6.3321 c 7.19,0.3906 17.38,0.8203 22.89,0.8203 5.35,0 15.98,-0.4297 22.93,-0.8203 v 6.3321 c -13.71,0 -15.97,0 -15.97,9.1796 v 37.4181 c 0,21.062 14.53,32.5 27.42,32.5 12.85,0 15.11,-11.051 15.11,-22.5 V 77.2109 c 0,-9.1796 -2.26,-9.1796 -15.93,-9.1796 v -6.3321 c 7.15,0.3906 17.58,0.8203 23.08,0.8203 5.32,0 15.94,-0.4297 22.7,-0.8203 v 6.3321 c -13.52,0 -15.74,0 -15.74,9.1796 v 37.4181 c 0,21.062 14.29,32.5 27.38,32.5 12.89,0 15.12,-11.051 15.12,-22.5 V 77.2109 c 0,-9.1796 -2.23,-9.1796 -15.94,-9.1796 v -6.3321 c 7.15,0.3906 17.58,0.8203 22.89,0.8203 5.31,0 15.94,-0.4297 22.89,-0.8203 v 6.3321 c -10.62,0 -15.74,0 -15.94,6.1289 v 38.8278 c 0,17.383 0,23.711 -6.33,31.063 -2.89,3.469 -9.41,7.57 -21.25,7.57 -17.18,0 -25.97,-12.262 -29.45,-20.043 -2.85,17.781 -17.97,20.043 -27.19,20.043 -14.72,0 -24.29,-8.793 -30.03,-21.441 v 21.441 l -28.64,-2.262 v -6.328 c 14.34,0 15.74,-1.41 15.74,-11.453 z" /><path
         id="path126"
         style="fill:#000000;fill-opacity:1;fill-rule:nonzero;stroke:none"
         d="m 2315.23,112.602 v 3.046 l -0.19,1.641 v 1.641 l -0.24,3.48 -0.19,3.469 -0.2,3.672 -0.62,3.871 -0.39,4.098 -0.82,4.101 -0.82,4.07 -0.82,4.289 -1.02,4.301 -1.44,4.297 -1.41,4.293 -1.45,4.301 -1.01,2.226 -0.82,2.262 -1.02,2.031 -1.01,2.27 c -12.27,24.918 -29.65,38.199 -31.72,38.199 -1.21,0 -2.03,-0.82 -2.03,-2.031 0,-0.617 0,-1.008 3.9,-4.719 19.81,-20.238 31.45,-52.5 31.45,-94.808 0,-34.7739 -7.54,-70.5512 -32.7,-96.0903 -2.65,-2.4336 -2.65,-2.8515 -2.65,-3.4804 0,-1.211 0.82,-2.0313 2.03,-2.0313 2.07,0 20.23,13.9102 32.3,39.6484 10.43,22.3008 12.89,44.7618 12.89,61.9536 z" /><path
         id="path128"
         style="fill:#000000;fill-opacity:1;fill-rule:nonzero;stroke:none"
         d="m 507.34,2414.83 24.07,11.87 h 2.5 v -83.9 c 0,-5.55 0.192,-9.03 0.621,-10.47 0.508,-1.37 1.489,-2.42 2.969,-3.13 1.449,-0.74 4.41,-1.17 8.91,-1.25 v -2.65 h -37.351 v 2.65 c 4.652,0.08 7.703,0.51 9.062,1.25 1.328,0.71 2.27,1.64 2.82,2.81 0.508,1.22 0.778,4.85 0.778,10.79 v 53.59 c 0,7.27 -0.239,11.91 -0.629,13.91 -0.43,1.52 -1.129,2.69 -2.031,3.43 -0.86,0.71 -1.911,1.1 -3.118,1.1 -1.882,0 -4.421,-0.75 -7.5,-2.19 z" /><path
         id="path130"
         style="fill:#000000;fill-opacity:1;fill-rule:nonzero;stroke:none"
         d="m 377.109,2165.76 c 0,11.33 1.641,21.1 5,29.22 3.403,8.21 8.012,14.3 13.75,18.28 4.34,3.21 8.911,4.85 13.59,4.85 7.582,0 14.422,-3.95 20.473,-11.72 7.578,-9.61 11.406,-22.62 11.406,-39.06 0,-11.57 -1.68,-21.37 -5,-29.38 -3.359,-8.04 -7.617,-13.87 -12.808,-17.5 -5.122,-3.67 -10.079,-5.47 -14.848,-5.47 -9.492,0 -17.383,5.55 -23.594,16.72 -5.308,9.46 -7.969,20.82 -7.969,34.06 z m 14.371,-1.87 c 0,-13.67 1.641,-24.81 5,-33.44 2.782,-7.3 6.961,-10.94 12.5,-10.94 2.579,0 5.321,1.18 8.129,3.6 2.77,2.38 4.922,6.33 6.411,11.87 2.261,8.4 3.429,20.32 3.429,35.63 0,11.21 -1.211,20.66 -3.59,28.28 -1.679,5.59 -3.949,9.57 -6.718,11.87 -1.993,1.65 -4.45,2.5 -7.34,2.5 -3.25,0 -6.18,-1.52 -8.75,-4.53 -3.563,-4.06 -5.981,-10.5 -7.192,-19.22 -1.25,-8.67 -1.879,-17.22 -1.879,-25.62 z m 71.372,-32.97 c 2.269,0 4.218,-0.86 5.777,-2.5 1.531,-1.56 2.351,-3.48 2.351,-5.62 0,-2.31 -0.82,-4.26 -2.351,-5.79 -1.559,-1.52 -3.508,-2.34 -5.777,-2.34 -2.301,0 -4.262,0.82 -5.782,2.34 -1.558,1.53 -2.34,3.48 -2.34,5.79 0,2.26 0.782,4.21 2.34,5.78 1.52,1.52 3.481,2.34 5.782,2.34 z m 46.25,35.78 c -7.813,6.45 -12.891,11.6 -15.153,15.47 -2.308,3.95 -3.437,8.01 -3.437,12.19 0,6.44 2.5,12.03 7.5,16.72 4.957,4.65 11.597,7.03 19.84,7.03 8.007,0 14.449,-2.23 19.378,-6.56 4.879,-4.38 7.34,-9.34 7.34,-14.85 0,-3.75 -1.371,-7.58 -4.058,-11.4 -2.621,-3.87 -8.09,-8.4 -16.41,-13.6 8.519,-6.68 14.218,-11.91 17.027,-15.62 3.711,-5 5.633,-10.28 5.633,-15.78 0,-7 -2.703,-13.01 -7.973,-17.97 -5.309,-4.92 -12.309,-7.35 -20.937,-7.35 -9.493,0 -16.911,2.89 -22.192,8.75 -4.18,4.77 -6.25,10 -6.25,15.63 0,4.33 1.449,8.67 4.379,12.97 3.012,4.33 8.121,9.14 15.313,14.37 z m 11.558,7.81 c 5.82,5.28 9.539,9.46 11.102,12.5 1.519,3.09 2.34,6.61 2.34,10.47 0,5.08 -1.481,9.1 -4.372,12.03 -2.82,2.9 -6.761,4.38 -11.718,4.38 -5,0 -9.102,-1.48 -12.192,-4.38 -3.121,-2.93 -4.691,-6.32 -4.691,-10.15 0,-2.5 0.633,-5.08 1.883,-7.66 1.328,-2.5 3.199,-4.92 5.617,-7.19 z m -8.121,-10.62 c -4.059,-3.36 -7.109,-7.07 -9.059,-11.09 -1.878,-4.07 -2.82,-8.48 -2.82,-13.13 0,-6.25 1.719,-11.33 5.16,-15.16 3.399,-3.75 7.809,-5.62 13.129,-5.62 5.27,0 9.531,1.44 12.653,4.37 3.199,3.01 4.847,6.65 4.847,10.94 0,3.52 -0.98,6.72 -2.82,9.53 -3.43,5.08 -10.508,11.8 -21.09,20.16 z" /><path
         id="path132"
         style="fill:#000000;fill-opacity:1;fill-rule:nonzero;stroke:none"
         d="m 374.379,1953.54 c 0,11.33 1.641,21.09 5,29.22 3.391,8.2 8,14.29 13.742,18.28 4.34,3.2 8.91,4.84 13.598,4.84 7.582,0 14.41,-3.94 20.472,-11.72 7.579,-9.61 11.399,-22.61 11.399,-39.06 0,-11.56 -1.68,-21.37 -5,-29.37 -3.36,-8.05 -7.61,-13.87 -12.809,-17.5 -5.121,-3.68 -10.082,-5.47 -14.84,-5.47 -9.492,0 -17.39,5.54 -23.601,16.72 -5.309,9.45 -7.961,20.82 -7.961,34.06 z m 14.371,-1.88 c 0,-13.67 1.641,-24.8 5,-33.43 2.77,-7.31 6.949,-10.94 12.5,-10.94 2.578,0 5.309,1.17 8.129,3.59 2.769,2.38 4.922,6.33 6.402,11.88 2.27,8.4 3.438,20.31 3.438,35.62 0,11.21 -1.207,20.67 -3.598,28.28 -1.672,5.59 -3.941,9.57 -6.711,11.88 -2,1.64 -4.461,2.5 -7.351,2.5 -3.239,0 -6.168,-1.53 -8.75,-4.53 -3.547,-4.07 -5.969,-10.51 -7.188,-19.22 -1.242,-8.67 -1.871,-17.23 -1.871,-25.63 z m 71.371,-32.97 c 2.258,0 4.219,-0.86 5.777,-2.5 1.524,-1.56 2.34,-3.47 2.34,-5.62 0,-2.31 -0.816,-4.26 -2.34,-5.78 -1.558,-1.53 -3.519,-2.35 -5.777,-2.35 -2.312,0 -4.262,0.82 -5.781,2.35 -1.57,1.52 -2.352,3.47 -2.352,5.78 0,2.26 0.782,4.22 2.352,5.78 1.519,1.52 3.469,2.34 5.781,2.34 z m 84.649,87.19 v -2.81 c -6.489,-0.63 -11.758,-1.95 -15.79,-3.91 -4.058,-1.87 -8.082,-4.8 -12.031,-8.75 -3.98,-3.98 -7.258,-8.4 -9.84,-13.28 -2.621,-4.8 -4.808,-10.55 -6.558,-17.19 6.949,4.77 13.98,7.19 21.09,7.19 6.757,0 12.66,-2.77 17.66,-8.28 4.961,-5.43 7.5,-12.42 7.5,-20.94 0,-8.36 -2.539,-15.97 -7.5,-22.81 -6.063,-8.24 -14.102,-12.34 -24.071,-12.34 -6.789,0 -12.57,2.22 -17.339,6.72 -9.301,8.71 -13.911,20.03 -13.911,33.9 0,8.95 1.758,17.38 5.321,25.31 3.629,8.01 8.75,15.16 15.308,21.41 6.641,6.21 13.012,10.39 19.063,12.5 6.019,2.15 11.637,3.28 16.879,3.28 z m -45.469,-51.25 c -0.942,-6.68 -1.41,-12.07 -1.41,-16.09 0,-4.69 0.859,-9.81 2.66,-15.31 1.75,-5.43 4.289,-9.77 7.648,-12.97 2.461,-2.31 5.551,-3.44 9.223,-3.44 4.137,0 7.887,1.95 11.25,5.94 3.398,4.02 5.156,9.76 5.156,17.18 0,8.32 -1.68,15.51 -5,21.57 -3.359,6.13 -8.09,9.22 -14.219,9.22 -1.879,0 -3.871,-0.43 -5.937,-1.25 -2.113,-0.75 -5.231,-2.39 -9.371,-4.85 z" /><path
         id="path134"
         style="fill:#000000;fill-opacity:1;fill-rule:nonzero;stroke:none"
         d="m 373.789,1741.31 c 0,11.33 1.641,21.1 5,29.22 3.402,8.2 8.012,14.3 13.75,18.28 4.34,3.2 8.91,4.85 13.59,4.85 7.582,0 14.422,-3.95 20.473,-11.72 7.578,-9.61 11.41,-22.62 11.41,-39.07 0,-11.56 -1.684,-21.36 -5,-29.37 -3.364,-8.05 -7.621,-13.87 -12.813,-17.5 -5.121,-3.67 -10.078,-5.47 -14.847,-5.47 -9.493,0 -17.383,5.55 -23.59,16.72 -5.313,9.45 -7.973,20.82 -7.973,34.06 z m 14.371,-1.87 c 0,-13.68 1.641,-24.81 5,-33.44 2.781,-7.31 6.961,-10.94 12.5,-10.94 2.578,0 5.32,1.17 8.129,3.6 2.77,2.38 4.922,6.32 6.41,11.87 2.262,8.4 3.43,20.31 3.43,35.63 0,11.21 -1.207,20.66 -3.59,28.28 -1.68,5.58 -3.949,9.57 -6.719,11.87 -1.992,1.64 -4.449,2.5 -7.34,2.5 -3.25,0 -6.179,-1.52 -8.75,-4.53 -3.558,-4.06 -5.98,-10.51 -7.191,-19.22 -1.25,-8.67 -1.879,-17.23 -1.879,-25.62 z m 71.371,-32.97 c 2.27,0 4.219,-0.86 5.778,-2.5 1.531,-1.56 2.351,-3.48 2.351,-5.63 0,-2.3 -0.82,-4.26 -2.351,-5.78 -1.559,-1.52 -3.508,-2.34 -5.778,-2.34 -2.301,0 -4.261,0.82 -5.781,2.34 -1.559,1.52 -2.34,3.48 -2.34,5.78 0,2.27 0.781,4.22 2.34,5.78 1.52,1.53 3.48,2.35 5.781,2.35 z m 87.348,22.34 v -10.31 h -13.438 v -26.25 H 521.41 v 26.25 h -42.031 v 9.37 l 46.09,65.79 h 7.972 v -64.85 z m -25.469,0 v 49.38 l -34.851,-49.38 z" /><path
         id="path136"
         style="fill:#000000;fill-opacity:1;fill-rule:nonzero;stroke:none"
         d="m 374.77,1536.35 c 0,11.33 1.64,21.09 5,29.22 3.39,8.2 8,14.3 13.75,18.28 4.332,3.2 8.902,4.84 13.589,4.84 7.582,0 14.411,-3.94 20.469,-11.71 7.582,-9.61 11.402,-22.62 11.402,-39.07 0,-11.56 -1.679,-21.36 -5,-29.37 -3.359,-8.05 -7.609,-13.87 -12.808,-17.5 -5.121,-3.67 -10.082,-5.47 -14.844,-5.47 -9.488,0 -17.379,5.55 -23.598,16.72 -5.308,9.45 -7.96,20.82 -7.96,34.06 z m 14.371,-1.87 c 0,-13.68 1.64,-24.81 5,-33.44 2.769,-7.31 6.949,-10.94 12.5,-10.94 2.578,0 5.308,1.17 8.129,3.59 2.769,2.39 4.921,6.33 6.402,11.88 2.269,8.4 3.437,20.31 3.437,35.62 0,11.22 -1.211,20.67 -3.589,28.29 -1.68,5.58 -3.95,9.57 -6.719,11.87 -2,1.64 -4.461,2.5 -7.352,2.5 -3.238,0 -6.168,-1.52 -8.75,-4.53 -3.551,-4.06 -5.969,-10.51 -7.179,-19.22 -1.25,-8.67 -1.879,-17.23 -1.879,-25.62 z m 71.371,-32.97 c 2.258,0 4.218,-0.86 5.777,-2.5 1.52,-1.57 2.34,-3.48 2.34,-5.63 0,-2.3 -0.82,-4.26 -2.34,-5.78 -1.559,-1.52 -3.519,-2.34 -5.777,-2.34 -2.313,0 -4.262,0.82 -5.782,2.34 -1.57,1.52 -2.351,3.48 -2.351,5.78 0,2.27 0.781,4.22 2.351,5.78 1.52,1.53 3.469,2.35 5.782,2.35 z m 86.25,4.84 -6.883,-19.06 h -58.59 v 2.65 c 17.152,15.71 29.262,28.6 36.25,38.6 7.07,9.96 10.621,19.1 10.621,27.34 0,6.21 -1.949,11.41 -5.781,15.47 -3.859,4.02 -8.508,6.09 -13.899,6.09 -4.808,0 -9.179,-1.48 -13.128,-4.37 -3.872,-2.81 -6.762,-6.99 -8.59,-12.5 h -2.66 c 1.207,9.02 4.378,15.98 9.378,20.78 5.071,4.88 11.399,7.34 18.899,7.34 8.09,0 14.851,-2.61 20.16,-7.81 5.391,-5.23 8.121,-11.33 8.121,-18.28 0,-5 -1.172,-10.08 -3.43,-15.16 -3.679,-7.93 -9.57,-16.28 -17.66,-25 -12.109,-13.36 -19.73,-21.36 -22.808,-24.06 h 25.937 c 5.27,0 8.981,0.16 11.09,0.47 2.152,0.39 4.102,1.17 5.781,2.34 1.758,1.22 3.282,2.97 4.532,5.16 z" /><path
         id="path138"
         style="fill:#000000;fill-opacity:1;fill-rule:nonzero;stroke:none"
         d="m 482.621,1316.9 c 0,11.33 1.641,21.09 5,29.22 3.399,8.2 8,14.29 13.75,18.28 4.328,3.2 8.899,4.84 13.59,4.84 7.578,0 14.418,-3.94 20.469,-11.72 7.582,-9.61 11.41,-22.61 11.41,-39.06 0,-11.56 -1.68,-21.37 -5,-29.38 -3.36,-8.04 -7.621,-13.86 -12.82,-17.5 -5.11,-3.67 -10.071,-5.46 -14.84,-5.46 -9.489,0 -17.379,5.54 -23.59,16.71 -5.32,9.46 -7.969,20.83 -7.969,34.07 z m 14.367,-1.88 c 0,-13.67 1.641,-24.8 5,-33.44 2.782,-7.3 6.961,-10.93 12.5,-10.93 2.582,0 5.313,1.17 8.133,3.59 2.77,2.38 4.918,6.33 6.399,11.88 2.269,8.39 3.441,20.31 3.441,35.62 0,11.21 -1.211,20.67 -3.59,28.28 -1.68,5.59 -3.949,9.57 -6.723,11.88 -1.988,1.64 -4.449,2.5 -7.347,2.5 -3.242,0 -6.172,-1.53 -8.75,-4.53 -3.551,-4.07 -5.973,-10.51 -7.18,-19.22 -1.25,-8.67 -1.883,-17.23 -1.883,-25.63 z" /><path
         id="path140"
         style="fill:#000000;fill-opacity:1;fill-rule:nonzero;stroke:none"
         d="m 326.988,1105.57 h 37.8125 v -11.0898 H 326.988 Z m 47.782,9.84 c 0,11.33 1.64,21.1 5,29.22 3.39,8.2 8,14.3 13.75,18.28 4.332,3.21 8.902,4.85 13.589,4.85 7.582,0 14.411,-3.95 20.469,-11.72 7.582,-9.61 11.402,-22.62 11.402,-39.06 0,-11.57 -1.679,-21.37 -5,-29.38 -3.359,-8.05 -7.609,-13.87 -12.808,-17.5 -5.121,-3.67 -10.082,-5.47 -14.844,-5.47 -9.488,0 -17.379,5.55 -23.598,16.72 -5.308,9.45 -7.96,20.82 -7.96,34.06 z m 14.371,-1.87 c 0,-13.67 1.64,-24.81 5,-33.44 2.769,-7.3 6.949,-10.94 12.5,-10.94 2.578,0 5.308,1.17 8.129,3.6 2.769,2.38 4.921,6.32 6.402,11.87 2.269,8.4 3.437,20.31 3.437,35.63 0,11.21 -1.211,20.66 -3.589,28.28 -1.68,5.58 -3.95,9.57 -6.719,11.87 -2,1.64 -4.461,2.5 -7.352,2.5 -3.238,0 -6.168,-1.52 -8.75,-4.53 -3.551,-4.06 -5.969,-10.51 -7.179,-19.22 -1.25,-8.67 -1.879,-17.22 -1.879,-25.62 z m 71.371,-32.97 c 2.258,0 4.218,-0.86 5.777,-2.5 1.52,-1.56 2.34,-3.48 2.34,-5.63 0,-2.3 -0.82,-4.25 -2.34,-5.78 -1.559,-1.52 -3.519,-2.34 -5.777,-2.34 -2.313,0 -4.262,0.82 -5.782,2.34 -1.57,1.53 -2.351,3.48 -2.351,5.78 0,2.27 0.781,4.22 2.351,5.79 1.52,1.52 3.469,2.34 5.782,2.34 z m 86.25,4.84 -6.883,-19.06 h -58.59 v 2.66 c 17.152,15.7 29.262,28.59 36.25,38.59 7.07,9.96 10.621,19.1 10.621,27.34 0,6.22 -1.949,11.41 -5.781,15.47 -3.859,4.03 -8.508,6.1 -13.899,6.1 -4.808,0 -9.179,-1.49 -13.128,-4.38 -3.872,-2.81 -6.762,-6.99 -8.59,-12.5 h -2.66 c 1.207,9.03 4.378,15.98 9.378,20.78 5.071,4.89 11.399,7.35 18.899,7.35 8.09,0 14.851,-2.62 20.16,-7.82 5.391,-5.23 8.121,-11.32 8.121,-18.28 0,-5 -1.172,-10.08 -3.43,-15.15 -3.679,-7.93 -9.57,-16.29 -17.66,-25 -12.109,-13.36 -19.73,-21.37 -22.808,-24.07 h 25.937 c 5.27,0 8.981,0.16 11.09,0.47 2.152,0.39 4.102,1.17 5.781,2.35 1.758,1.21 3.282,2.97 4.532,5.15 z" /><path
         id="path142"
         style="fill:#000000;fill-opacity:1;fill-rule:nonzero;stroke:none"
         d="m 326.02,889.871 h 37.8086 V 878.7694 H 326.02 Z m 47.769,9.84 c 0,11.328 1.641,21.09 5,29.219 3.402,8.199 8.012,14.3 13.75,18.281 4.34,3.199 8.91,4.84 13.59,4.84 7.582,0 14.422,-3.942 20.473,-11.723 7.578,-9.598 11.41,-22.609 11.41,-39.058 0,-11.559 -1.684,-21.36 -5,-29.372 -3.364,-8.046 -7.621,-13.867 -12.813,-17.5 -5.121,-3.668 -10.078,-5.468 -14.847,-5.468 -9.493,0 -17.383,5.55 -23.59,16.718 -5.313,9.454 -7.973,20.821 -7.973,34.063 z m 14.371,-1.883 c 0,-13.668 1.641,-24.797 5,-33.43 2.781,-7.308 6.961,-10.937 12.5,-10.937 2.578,0 5.32,1.168 8.129,3.59 2.77,2.39 4.922,6.328 6.41,11.879 2.262,8.398 3.43,20.308 3.43,35.621 0,11.211 -1.207,20.668 -3.59,28.277 -1.68,5.594 -3.949,9.582 -6.719,11.883 -1.992,1.641 -4.449,2.5 -7.34,2.5 -3.25,0 -6.179,-1.52 -8.75,-4.531 -3.558,-4.059 -5.98,-10.508 -7.191,-19.219 -1.25,-8.672 -1.879,-17.231 -1.879,-25.633 z m 71.371,-32.957 c 2.27,0 4.219,-0.859 5.778,-2.5 1.531,-1.57 2.351,-3.48 2.351,-5.633 0,-2.297 -0.82,-4.258 -2.351,-5.777 -1.559,-1.52 -3.508,-2.34 -5.778,-2.34 -2.301,0 -4.261,0.82 -5.781,2.34 -1.559,1.519 -2.34,3.48 -2.34,5.777 0,2.274 0.781,4.223 2.34,5.782 1.52,1.531 3.48,2.351 5.781,2.351 z m 87.348,22.34 v -10.313 h -13.438 v -26.25 H 521.41 v 26.25 h -42.031 v 9.372 l 46.09,65.781 h 7.972 v -64.84 z m -25.469,0 v 49.367 l -34.851,-49.367 z" /><path
         id="path144"
         style="fill:#000000;fill-opacity:1;fill-rule:nonzero;stroke:none"
         d="m 326.559,688.539 h 37.8203 V 677.4413 H 326.559 Z m 47.82,9.84 c 0,11.332 1.641,21.101 5,29.223 3.391,8.199 8,14.296 13.742,18.277 4.34,3.199 8.91,4.851 13.598,4.851 7.582,0 14.41,-3.949 20.472,-11.718 7.579,-9.614 11.399,-22.621 11.399,-39.071 0,-11.562 -1.68,-21.363 -5,-29.371 -3.36,-8.05 -7.61,-13.871 -12.809,-17.5 -5.121,-3.672 -10.082,-5.468 -14.84,-5.468 -9.492,0 -17.39,5.546 -23.601,16.718 -5.309,9.45 -7.961,20.821 -7.961,34.059 z m 14.371,-1.867 c 0,-13.684 1.641,-24.813 5,-33.442 2.77,-7.308 6.949,-10.941 12.5,-10.941 2.578,0 5.309,1.172 8.129,3.601 2.769,2.379 4.922,6.321 6.402,11.872 2.27,8.398 3.438,20.308 3.438,35.628 0,11.211 -1.207,20.661 -3.598,28.282 -1.672,5.578 -3.941,9.566 -6.711,11.867 -2,1.641 -4.461,2.5 -7.351,2.5 -3.239,0 -6.168,-1.52 -8.75,-4.527 -3.547,-4.063 -5.969,-10.512 -7.188,-19.223 -1.242,-8.668 -1.871,-17.219 -1.871,-25.617 z m 71.371,-32.973 c 2.258,0 4.219,-0.859 5.777,-2.5 1.524,-1.559 2.34,-3.48 2.34,-5.629 0,-2.301 -0.816,-4.25 -2.34,-5.781 -1.558,-1.52 -3.519,-2.34 -5.777,-2.34 -2.312,0 -4.262,0.82 -5.781,2.34 -1.57,1.531 -2.352,3.48 -2.352,5.781 0,2.27 0.782,4.219 2.352,5.781 1.519,1.528 3.469,2.348 5.781,2.348 z m 84.649,87.191 v -2.82 c -6.489,-0.621 -11.758,-1.949 -15.79,-3.898 -4.058,-1.883 -8.082,-4.813 -12.031,-8.75 -3.98,-3.992 -7.258,-8.403 -9.84,-13.282 -2.621,-4.808 -4.808,-10.55 -6.558,-17.191 6.949,4.762 13.98,7.191 21.09,7.191 6.757,0 12.66,-2.781 17.66,-8.289 4.961,-5.429 7.5,-12.421 7.5,-20.929 0,-8.364 -2.539,-15.981 -7.5,-22.821 -6.063,-8.242 -14.102,-12.339 -24.071,-12.339 -6.789,0 -12.57,2.226 -17.339,6.718 -9.301,8.711 -13.911,20.039 -13.911,33.91 0,8.942 1.758,17.379 5.321,25.309 3.629,8.012 8.75,15.152 15.308,21.402 6.641,6.219 13.012,10.387 19.063,12.5 6.019,2.149 11.637,3.289 16.879,3.289 z m -45.469,-51.25 c -0.942,-6.679 -1.41,-12.07 -1.41,-16.101 0,-4.688 0.859,-9.801 2.66,-15.309 1.75,-5.429 4.289,-9.769 7.648,-12.968 2.461,-2.301 5.551,-3.442 9.223,-3.442 4.137,0 7.887,1.961 11.25,5.942 3.398,4.019 5.156,9.769 5.156,17.187 0,8.32 -1.68,15.512 -5,21.563 -3.359,6.128 -8.09,9.218 -14.219,9.218 -1.879,0 -3.871,-0.429 -5.937,-1.25 -2.113,-0.742 -5.231,-2.379 -9.371,-4.84 z" /><path
         id="path146"
         style="fill:#000000;fill-opacity:1;fill-rule:nonzero;stroke:none"
         d="m 329.34,469.078 h 37.8086 V 457.9882 H 329.34 Z m 47.769,9.852 c 0,11.332 1.641,21.09 5,29.218 3.403,8.204 8.012,14.293 13.75,18.282 4.34,3.199 8.911,4.84 13.59,4.84 7.582,0 14.422,-3.942 20.473,-11.719 7.578,-9.61 11.406,-22.61 11.406,-39.063 0,-11.558 -1.68,-21.367 -5,-29.367 -3.359,-8.051 -7.617,-13.871 -12.808,-17.5 -5.122,-3.68 -10.079,-5.473 -14.848,-5.473 -9.492,0 -17.383,5.543 -23.594,16.723 -5.308,9.449 -7.969,20.82 -7.969,34.059 z m 14.371,-1.879 c 0,-13.672 1.641,-24.801 5,-33.43 2.782,-7.312 6.961,-10.941 12.5,-10.941 2.579,0 5.321,1.172 8.129,3.59 2.77,2.39 4.922,6.332 6.411,11.878 2.261,8.403 3.429,20.313 3.429,35.622 0,11.21 -1.211,20.671 -3.59,28.281 -1.679,5.59 -3.949,9.57 -6.718,11.879 -1.993,1.64 -4.45,2.5 -7.34,2.5 -3.25,0 -6.18,-1.52 -8.75,-4.532 -3.563,-4.07 -5.981,-10.507 -7.192,-19.218 -1.25,-8.668 -1.879,-17.231 -1.879,-25.629 z m 71.372,-32.973 c 2.269,0 4.218,-0.848 5.777,-2.5 1.531,-1.558 2.351,-3.469 2.351,-5.617 0,-2.301 -0.82,-4.262 -2.351,-5.781 -1.559,-1.52 -3.508,-2.352 -5.777,-2.352 -2.301,0 -4.262,0.832 -5.782,2.352 -1.558,1.519 -2.34,3.48 -2.34,5.781 0,2.269 0.782,4.219 2.34,5.777 1.52,1.524 3.481,2.34 5.782,2.34 z m 46.25,35.793 c -7.813,6.438 -12.891,11.598 -15.153,15.457 -2.308,3.953 -3.437,8.012 -3.437,12.192 0,6.449 2.5,12.031 7.5,16.718 4.957,4.653 11.597,7.032 19.84,7.032 8.007,0 14.449,-2.219 19.378,-6.559 4.879,-4.383 7.34,-9.34 7.34,-14.84 0,-3.75 -1.371,-7.582 -4.058,-11.41 -2.621,-3.871 -8.09,-8.402 -16.41,-13.59 8.519,-6.68 14.218,-11.922 17.027,-15.633 3.711,-5 5.633,-10.269 5.633,-15.777 0,-6.992 -2.703,-13.012 -7.973,-17.973 -5.309,-4.918 -12.309,-7.34 -20.937,-7.34 -9.493,0 -16.911,2.891 -22.192,8.75 -4.18,4.762 -6.25,10 -6.25,15.622 0,4.339 1.449,8.671 4.379,12.968 3.012,4.34 8.121,9.141 15.313,14.383 z m 11.558,7.809 c 5.82,5.269 9.539,9.449 11.102,12.5 1.519,3.082 2.34,6.601 2.34,10.468 0,5.082 -1.481,9.102 -4.372,12.032 -2.82,2.89 -6.761,4.371 -11.718,4.371 -5,0 -9.102,-1.481 -12.192,-4.371 -3.121,-2.93 -4.691,-6.328 -4.691,-10.16 0,-2.5 0.633,-5.079 1.883,-7.649 1.328,-2.5 3.199,-4.93 5.617,-7.191 z m -8.121,-10.629 c -4.059,-3.36 -7.109,-7.071 -9.059,-11.09 -1.878,-4.063 -2.82,-8.481 -2.82,-13.133 0,-6.25 1.719,-11.316 5.16,-15.148 3.399,-3.75 7.809,-5.629 13.129,-5.629 5.27,0 9.531,1.449 12.653,4.379 3.199,3.011 4.847,6.64 4.847,10.941 0,3.508 -0.98,6.707 -2.82,9.527 -3.43,5.082 -10.508,11.793 -21.09,20.153 z" /><path
         id="path148"
         style="fill:#000000;fill-opacity:1;fill-rule:nonzero;stroke:none"
         d="m 2870.39,2017.83 v -3.9 c -10.86,5.43 -19.88,11.8 -27.03,19.06 -10.31,10.43 -18.32,22.7 -23.91,36.72 -5.54,14.14 -8.28,28.83 -8.28,44.06 0,22.15 5.47,42.39 16.41,60.63 10.9,18.32 25.19,31.44 42.81,39.37 v -4.53 c -8.75,-4.92 -16.01,-11.6 -21.72,-20 -5.62,-8.44 -9.88,-19.18 -12.65,-32.19 -2.82,-12.93 -4.22,-26.48 -4.22,-40.62 0,-15.31 1.17,-29.26 3.59,-41.72 1.84,-9.92 4.1,-17.81 6.72,-23.75 2.69,-6.02 6.29,-11.8 10.78,-17.34 4.45,-5.51 10.31,-10.79 17.5,-15.79 z m 67.5,57.35 c -10.12,-7.81 -16.48,-12.38 -19.06,-13.6 -3.87,-1.75 -8.01,-2.65 -12.35,-2.65 -6.79,0 -12.42,2.26 -16.87,6.87 -4.38,4.65 -6.56,10.82 -6.56,18.44 0,4.77 1.09,8.95 3.28,12.5 2.89,4.88 8.01,9.45 15.31,13.75 7.27,4.26 19.38,9.45 36.25,15.63 v 3.9 c 0,9.77 -1.6,16.49 -4.69,20.16 -3.12,3.63 -7.69,5.47 -13.59,5.47 -4.49,0 -8.09,-1.21 -10.78,-3.6 -2.74,-2.42 -4.06,-5.23 -4.06,-8.43 l 0.15,-6.1 c 0,-3.36 -0.86,-5.9 -2.5,-7.65 -1.68,-1.8 -3.87,-2.66 -6.56,-2.66 -2.62,0 -4.81,0.86 -6.56,2.66 -1.68,1.83 -2.5,4.41 -2.5,7.65 0,6.14 3.12,11.76 9.37,16.88 6.33,5.19 15.24,7.81 26.72,7.81 8.63,0 15.78,-1.48 21.41,-4.38 4.25,-2.18 7.38,-5.7 9.37,-10.46 1.21,-3.05 1.88,-9.34 1.88,-18.91 v -33.28 c 0,-9.38 0.15,-15.2 0.47,-17.35 0.39,-2.1 1.01,-3.51 1.87,-4.21 0.82,-0.75 1.76,-1.1 2.81,-1.1 1.14,0 2.19,0.24 3.13,0.78 1.44,0.9 4.29,3.52 8.59,7.82 v -5.94 c -8.04,-10.74 -15.7,-16.1 -22.97,-16.1 -3.55,0 -6.36,1.22 -8.43,3.6 -2,2.38 -3.05,6.56 -3.13,12.5 z m 0,6.87 v 37.5 c -10.86,-4.29 -17.85,-7.3 -20.94,-9.06 -5.74,-3.12 -9.8,-6.44 -12.18,-9.84 -2.43,-3.44 -3.6,-7.23 -3.6,-11.25 0,-5.24 1.49,-9.57 4.53,-12.97 3.09,-3.36 6.64,-5 10.63,-5 5.51,0 12.69,3.51 21.56,10.62 z m 39.41,127.19 v 4.53 c 10.82,-5.43 19.89,-11.79 27.19,-19.06 10.2,-10.43 18.05,-22.73 23.6,-36.88 5.58,-14.06 8.43,-28.71 8.43,-43.9 0,-22.19 -5.5,-42.46 -16.4,-60.78 -10.94,-18.32 -25.24,-31.41 -42.82,-39.22 v 3.9 c 8.72,5 15.98,11.76 21.72,20.16 5.71,8.36 9.93,19.02 12.66,32.03 2.7,13.01 4.06,26.56 4.06,40.63 0,15.27 -1.17,29.26 -3.44,41.87 -1.79,9.89 -4.02,17.81 -6.71,23.75 -2.74,5.9 -6.33,11.64 -10.79,17.19 -4.37,5.51 -10.23,10.78 -17.5,15.78 z" /><path
         id="path150"
         style="fill:#000000;fill-opacity:1;fill-rule:nonzero;stroke:none"
         d="m 132.891,889.16 -0.313,1.488 -0.508,1.481 -0.308,1.293 -0.512,1.488 -0.66,1.281 -0.469,1.489 -0.672,1.332 -0.469,1.289 -0.66,1.168 -0.66,1.293 -0.82,1.129 -0.668,1.168 -1.641,2.269 -0.82,1.012 -1.641,1.961 -0.82,0.82 -2.93,2.457 -0.98,0.66 -0.969,0.633 -0.98,0.5 -1.172,0.508 -0.981,0.473 -1.129,0.308 -1.168,0.352 -0.98,0.316 -1.133,0.152 -1.328,0.2 h -1.129 c -15.5507,0 -29.3007,-18.668 -29.3007,-42.578 v -51.09 h 5.0781 v 3.898 c 0,12.461 1.8008,12.781 7.6914,12.781 h 85.6292 c 5.902,0 7.691,-0.32 7.691,-12.781 v -3.898 h 5.078 c -0.468,5.859 -0.468,17.34 -0.468,23.707 0,6.402 0,17.851 0.468,23.75 h -5.078 v -3.91 c 0,-12.457 -1.789,-12.77 -7.691,-12.77 H 88.6719 c -3.75,0 -5.7422,0 -6.211,3.59 -0.3125,1.641 -0.3125,6.211 -0.3125,9.492 0,14.731 0.6211,32.93 24.2226,32.93 11.289,0 24.41,-3.789 24.41,-28 v -18.012 h 3.598 v 18.672 c 0,2.617 0,9.488 5.543,15.23 5.898,6.219 10.816,6.219 21.797,6.219 10.66,0 17.031,0 23.242,6.559 5.898,6.679 6.879,15.703 6.879,20.621 0,12.621 -13.399,15.39 -18.012,15.39 -0.976,0 -2.617,0 -2.617,-2.152 0,-1.789 1.328,-1.789 2.461,-1.949 11.637,-0.969 14.566,-6.559 14.566,-10.617 0,-8.051 -8.359,-9.34 -23.398,-11.641 l -13.121,-2.152 C 141.41,906.039 136.02,898.031 132.891,889.16 Z" /><path
         id="path152"
         style="fill:#000000;fill-opacity:1;fill-rule:nonzero;stroke:none"
         d="m 150.59,956.469 -3.289,0.152 c -24.211,1.02 -28.321,14.609 -28.321,20.16 0,16.879 21.961,18.52 28.321,18.52 v -38.68 l 3.289,-0.152 v 45.391 c 0,3.59 0,4.06 -3.289,4.06 -16.211,0 -31.91,-8.83 -31.91,-29.139 0,-18.832 16.679,-33.91 36.988,-33.91 21.961,0 37.66,17.188 37.66,35.859 0,19.848 -18.008,27.19 -21.129,27.19 -1.609,0 -1.961,-1.29 -1.961,-2.11 0,-1.48 0.981,-1.8 2.313,-2.15 16.679,-5.699 16.679,-20.308 16.679,-21.91 0,-8.199 -4.89,-14.77 -10.941,-18.52 -7.699,-4.761 -18.52,-4.761 -24.41,-4.761 z" /><path
         id="path154"
         style="fill:#000000;fill-opacity:1;fill-rule:nonzero;stroke:none"
         d="m 293.238,1074.87 v 37.03 h -7.539 v -29.34 H 8.28125 v 29.34 H 0.589844 v -37.03 z" /><path
         id="path156"
         style="fill:#000000;fill-opacity:1;fill-rule:nonzero;stroke:none"
         d="m 122.73,1210.14 h -0.152 v 0.16 h -0.156 v 0.19 h -0.152 l -0.2,0.16 -0.468,0.47 -0.153,0.19 h -0.199 v 0.16 h -0.16 v 0.15 h -0.309 v 0.16 h -0.312 l -0.199,0.16 h -0.149 c -0.98,0 -1.961,-0.63 -1.961,-1.96 0,-0.97 0.82,-1.64 1.961,-2.61 l 41.438,-37.35 c -20.618,-6.56 -24.719,-7.85 -33.399,-11.64 -3.781,-1.8 -11.789,-5.39 -11.789,-19.65 0,-9.49 8.359,-13.75 10.617,-13.75 0.16,0 1.641,0 1.641,2 0,1.44 -0.969,1.79 -1.789,2.1 -6.219,2.47 -6.879,7.7 -6.879,8.68 0,4.92 12.269,9.84 19.488,12.61 12.781,5.08 31.762,10.32 32.27,10.32 0.16,0 0.472,0 1.801,-1.29 l 41.75,-37.5 c 1.8,-1.84 2.109,-1.84 2.621,-1.84 0.98,0 1.949,1.02 1.949,1.99 0,1.14 -1.129,1.96 -1.789,2.62 l -41.922,37.34 c 17.031,5.24 23.25,7.19 32.422,11.14 4.929,2.11 13.09,5.74 13.09,20.11 0,9.54 -8.52,13.95 -10.621,13.95 -0.821,0 -1.801,-0.35 -1.801,-1.95 0,-1.64 0.66,-1.84 2.301,-2.31 3.91,-1.48 6.531,-5.58 6.531,-8.67 0,-8.36 -39.461,-19.34 -51.922,-22.93 z" /><path
         id="path158"
         style="fill:#000000;fill-opacity:1;fill-rule:nonzero;stroke:none"
         d="m 75.0781,1254.05 -0.3086,0.82 -0.3593,0.82 -0.6211,1.64 -0.3477,0.62 -0.3203,0.82 -0.3125,0.67 -0.3477,0.66 -0.3125,0.66 -0.1601,0.67 -0.3477,0.62 -0.1601,0.51 -0.3086,0.47 -0.1914,0.66 -0.1602,0.51 -0.3086,0.47 -0.1601,0.51 -0.1914,0.51 L 70,1266 l -0.1602,0.47 -0.1484,0.35 -0.1601,0.47 -0.1915,0.35 -0.1601,0.31 -0.1602,0.35 -0.1484,0.32 -0.3203,0.66 -0.1914,0.66 -0.3086,0.47 c -0.8203,2.15 -1.332,3.28 -3.4414,3.28 -1.9492,0 -3.7891,-1.48 -3.7891,-3.59 0,-0.82 0,-0.98 1.168,-2.46 l 10.3125,-15.39 -16.8711,1.64 c -2.1094,0.31 -4.918,0 -4.918,-3.44 0,-1.33 1.0078,-3.44 3.4375,-3.44 1.0117,0 4.4492,0.47 5.5821,0.47 1.9492,0.16 10.1601,0.98 12.7695,1.33 l -10.3125,-15.39 c -0.8164,-1.17 -1.168,-1.48 -1.168,-2.62 0,-1.99 1.8399,-3.47 3.7891,-3.47 2.3008,0 2.7695,1.33 3.2812,2.46 l 7.1875,17.22 c 4.1016,-9.33 5.5821,-13.59 7.0703,-16.56 0.7813,-2.11 1.293,-3.12 3.4414,-3.12 1.9493,0 3.75,1.48 3.75,3.47 0,0.82 0,1.14 -1.1406,2.43 l -10.3476,15.58 18.3593,-1.8 c 2.461,0 3.4375,2.11 3.4375,3.44 0,1.45 -0.9765,3.6 -3.4375,3.6 -0.9804,0 -4.4101,-0.51 -5.5507,-0.67 -1.9883,-0.15 -10.1485,-0.97 -12.8086,-1.13 l 9.1797,13.59 c 2.3085,2.93 2.3085,3.28 2.3085,4.26 0,2.11 -1.8007,3.59 -3.75,3.59 -2.3085,0 -2.8203,-1.48 -3.289,-2.46 z" /><path
         id="path160"
         style="fill:#000000;fill-opacity:1;fill-rule:nonzero;stroke:none"
         d="m 18.0898,1324.48 1.4805,-2 1.4805,-1.79 1.4492,-1.8 1.6406,-1.8 1.6407,-1.64 1.6406,-1.48 1.7969,-1.45 1.6406,-1.48 1.8008,-1.33 1.8281,-1.13 1.8008,-1.14 1.9492,-1.17 3.6015,-1.95 1.9493,-0.82 1.832,-0.82 1.957,-0.67 1.9532,-0.82 1.7968,-0.46 1.9922,-0.67 1.9492,-0.51 1.8008,-0.47 1.9492,-0.35 1.8008,-0.31 1.8399,-0.31 1.789,-0.35 5.3906,-0.47 h 1.6407 l 1.8008,-0.2 h 1.6406 c 16.0586,0 40.9371,4.77 56.8401,27.39 0,0.97 0,2.26 -1.332,2.26 -0.66,0 -0.821,-0.31 -1.641,-1.13 -13.75,-15.08 -33.0898,-20.63 -53.7109,-20.63 -30.7773,0 -45.8593,11.6 -54.1797,20.94 -0.5078,0.51 -0.8203,0.82 -1.4882,0.82 -1.3204,0 -1.3204,-1.29 -1.3204,-2.26 z" /><path
         id="path162"
         style="fill:#000000;fill-opacity:1;fill-rule:nonzero;stroke:none"
         d="m 77.6992,1419.94 v 1.96 l -0.1601,0.15 v 0.67 l -0.1602,0.15 v 0.16 l -0.1484,0.2 v 0.15 l -0.1602,0.16 -0.1914,0.15 -0.1601,0.16 -0.1602,0.2 h -0.1484 v 0.15 h -0.3594 l -0.1524,0.16 h -0.8203 c -2.9297,0 -2.9297,-2.62 -2.9297,-4.42 v -67.96 c 0,-1.96 0,-4.57 2.7735,-4.57 2.7773,0 2.7773,2.61 2.7773,4.57 z" /><path
         id="path164"
         style="fill:#000000;fill-opacity:1;fill-rule:nonzero;stroke:none"
         d="m 18.0898,1447.29 v -1.13 l 0.1485,-0.2 v -0.31 h 0.2031 v -0.16 h 0.1484 v -0.16 H 18.75 v -0.19 h 0.6602 c 0.6679,0 0.9804,0.35 1.8007,1.02 9.0196,9.8 24.4102,20.78 53.711,20.78 23.75,0 41.7581,-7.54 52.8871,-19.81 1.961,-1.99 2.152,-1.99 2.621,-1.99 0.66,0 1.332,0.35 1.332,1.48 0,1.33 -7.383,12.11 -21.641,19.65 -9.5,5.08 -21.7616,8.36 -35.0429,8.36 -16.207,0 -41.0976,-4.76 -56.9883,-27.34 z" /><path
         id="path166"
         style="fill:#000000;fill-opacity:1;fill-rule:nonzero;stroke:none"
         d="m 215.781,1274.83 v -3.91 c 2.418,-0.35 9.141,-1.48 10.309,-2.97 0.82,-0.97 0.82,-9.65 0.82,-11.29 v -20.97 c -10.66,11.95 -13.789,15.89 -19.18,22.77 -6.71,8.52 -13.75,16.37 -24.57,16.37 -13.898,0 -22.262,-12.11 -22.262,-26.68 0,-14.26 9.84,-23.75 20.473,-23.75 5.738,0 6.207,4.92 6.207,6.05 0,2.62 -1.797,6.06 -5.898,6.06 -2.11,0 -6.059,-0.82 -6.059,-6.72 -8.16,3.44 -10.621,11.13 -10.621,16.56 0,11.45 8.828,17.34 18.16,17.34 9.852,0 17.699,-7.03 21.801,-10.62 l 27.187,-27.54 c 0.973,-1.13 1.133,-1.13 4.411,-1.13 v 46.99 z" /><path
         id="path168"
         style="fill:#000000;fill-opacity:1;fill-rule:nonzero;stroke:none"
         d="m 234.77,1306.27 h 2.3 l 1.289,-0.15 1.129,-0.16 h 0.672 l 0.66,-0.16 0.66,-0.19 0.668,-0.16 0.622,-0.15 2,-0.47 0.621,-0.35 0.66,-0.32 0.668,-0.15 0.66,-0.35 0.633,-0.32 0.66,-0.51 0.668,-0.31 0.82,-0.51 0.66,-0.46 0.629,-0.51 0.66,-0.47 0.661,-0.51 1.332,-1.33 0.82,-0.62 0.629,-0.67 c 0.5,-0.5 0.82,-0.82 1.328,-0.82 0.82,0 1.641,0.82 1.641,1.64 0,1.49 -9.18,11.29 -22.622,11.29 -7.187,0 -12.418,-2.77 -12.418,-8 0,-3.79 2.93,-6.57 6.36,-6.57 3.75,0 6.719,2.62 6.719,6.57 0,2.77 -1.789,4.57 -1.789,4.72 z" /><path
         id="path170"
         style="fill:#000000;fill-opacity:1;fill-rule:nonzero;stroke:none"
         d="m 189.219,1395.06 -20.309,32.58 c -0.16,0.16 -0.32,0.16 -1.449,2.77 -1.481,3.13 -2.621,5.39 -2.621,12.31 0,0.82 -0.192,3.44 -3.942,3.44 -1.636,0 -2.457,-1.49 -2.457,-2.31 0,-2.97 0.508,-6.41 0.508,-9.34 0,-1.95 0,-6.05 -0.16,-7.85 -0.199,-2.46 -0.348,-5.58 -0.348,-8.04 0,-0.82 0,-3.44 3.789,-3.44 2.11,0 2.418,1.99 2.418,1.99 0.192,0.31 0.352,3.44 0.512,4.41 l 34.57,-55.35 -34.57,8.52 c 0,0.82 -0.32,4.06 -0.32,6.37 v 2.3 c 0,2.11 0,4.57 -3.942,4.57 -1.289,0 -2.457,-0.98 -2.457,-2.62 0,-2.61 0.348,-5.74 0.348,-8.36 0,-2.61 0.16,-6.36 0.16,-8.98 l -0.16,-8.87 c 0,-2.93 -0.348,-6.21 -0.348,-8.98 0,-0.98 0,-3.6 3.789,-3.6 2.61,0 2.61,2.27 2.61,4.07 v 2.3 c 0,4.92 0.16,4.92 0.469,4.92 l 62.742,-15.74 c 1.64,-0.31 1.789,-0.47 1.949,-2.62 0.16,-1.64 0.16,-3.75 0.16,-5.39 0,-3.28 0,-3.59 0.5,-4.1 0.82,-1.48 2.621,-1.48 3.289,-1.48 0.973,0 2.61,0.66 2.61,2.62 0,2.81 -0.309,5.74 -0.309,8.55 l -0.199,8.83 c 0,2.93 0.199,6.05 0.199,8.83 0,2.96 0.309,6.05 0.309,9.18 0,0.82 0,3.43 -3.938,3.43 -2.461,0 -2.461,-2.11 -2.461,-5.39 0,-1.48 0,-3.43 -0.16,-4.92 -0.16,-0.82 -0.16,-0.98 -0.469,-0.98 -0.191,0 -1.172,0.32 -1.48,0.32 l -19.5,4.92 -10.621,17.19 31.91,20.31 c 0.32,-1.95 0.32,-4.42 0.32,-4.77 0,-1.13 0,-3.9 3.789,-3.9 0.821,0 2.61,0.47 2.61,2.77 0,2.62 -0.309,5.59 -0.309,8.36 -0.199,2.77 -0.199,6.21 -0.199,8.83 0,1.79 0,5.58 0.199,7.38 0,1.95 0.309,4.57 0.309,6.56 0,0.82 0,1.8 -1.129,2.62 -0.66,0.66 -2.621,0.98 -2.809,0.98 -2.461,0 -2.461,-2.46 -2.461,-4.42 0,-4.92 -0.469,-5.23 -1.961,-6.25 z" /><path
         id="path172"
         style="fill:#000000;fill-opacity:1;fill-rule:nonzero;stroke:none"
         d="m 237.07,1492.17 v -3.44 c 1.602,-0.19 6.68,-1.01 7.5,-2.3 0.508,-0.67 0.508,-7.54 0.508,-8.67 v -16.06 c -4.098,5.39 -8.519,11.45 -11.797,16.37 -5.082,7.23 -9.801,14.1 -18.511,14.1 -10.321,0 -16.02,-9.84 -16.02,-21.48 0,-10.94 6.211,-18.99 14.219,-18.99 4.261,0 4.922,3.6 4.922,4.61 0,2.27 -1.481,4.88 -4.77,4.88 -2.922,0 -4.57,-2.11 -4.723,-4.72 -3.789,2.26 -6.207,7.03 -6.207,12.42 0,8.05 4.719,14.57 12.77,14.57 6.879,0 11.949,-4.73 17.34,-10.94 l 16.719,-20 c 0.82,-0.66 0.82,-0.82 1.289,-0.82 h 2.461 v 37.85 z" /><path
         id="path174"
         style="fill:#000000;fill-opacity:1;fill-rule:nonzero;stroke:none"
         d="m 227.23,1569.94 h -0.511 v -0.15 h -0.309 v -0.16 h -0.16 l -0.16,-0.19 -0.192,-0.16 h -0.16 v -0.16 h -0.148 v -0.15 h -0.16 v -0.16 h -0.16 v -0.15 h -0.192 v -0.2 h -0.156 l -0.313,-0.31 v -0.16 h -0.16 l -0.82,-0.82 c -20.469,-20.31 -51.09,-25.55 -76.008,-25.55 -28.32,0 -56.6405,6.21 -76.9608,26.21 -1.9493,2.11 -2.3008,2.11 -2.7696,2.11 -1.1718,0 -1.6406,-0.66 -1.6406,-1.64 0,-1.64 10.9805,-16.21 31.7617,-25.86 17.8473,-8.36 35.8593,-10.31 49.6093,-10.31 12.609,0 32.258,1.8 50.617,10.78 20.16,9.85 30.633,23.75 30.633,25.39 0,0.98 -0.512,1.64 -1.641,1.64 z" /><path
         id="path176"
         style="fill:#000000;fill-opacity:1;fill-rule:nonzero;stroke:none"
         d="m 133.051,1682.6 -0.629,2.66 -0.512,1.29 -0.308,1.32 -0.821,2.43 -1.011,2.14 -0.79,2.11 -1.011,2.15 -1.949,3.6 -1.961,3.28 -1.168,1.48 -0.981,1.29 -1.129,1.33 -1.133,1.13 -1.019,0.98 -1.129,1.01 -1.129,0.82 -1.172,0.79 -0.98,0.82 -1.129,0.66 -1.141,0.51 -1.008,0.47 -0.98,0.5 -1.133,0.32 -0.976,0.35 -0.973,0.31 -1.02,0.16 -0.98,0.15 -0.82,0.2 -0.969,0.15 h -1.641 c -16.2185,0 -24.8904,-17.38 -24.8904,-41.91 v -56.52 c 0,-3.28 0,-6.06 4.7695,-6.06 2.9336,0 2.9336,2.15 2.9336,6.88 0,3.43 0.1485,6.56 0.3086,10 l 92.6997,-23.24 c 2.609,-0.67 2.808,-0.83 3.121,-3.79 0.16,-2.78 0.16,-6.06 0.16,-8.68 0,-4.25 0,-4.57 0.347,-5.23 1.133,-1.99 3.75,-1.99 4.411,-1.99 0.312,0 2.929,0.19 2.929,3.63 0,4.1 -0.308,8.36 -0.308,12.42 0,3.95 -0.16,7.89 -0.16,11.8 0,5.59 0.468,19.49 0.468,24.88 0,1.49 0,2.66 -1.129,3.44 -0.82,0.82 -3.437,1.17 -3.589,1.17 -2.969,0 -2.969,-2.15 -2.969,-6.56 0,-3.44 -0.16,-6.56 -0.321,-10 l -44.878,11.33 v 19.65 l -5.903,0.66 v -18.87 l -42.2576,10.51 c -2.2695,0.63 -2.4219,0.82 -2.6211,0.98 -0.3086,0.97 -0.3086,8.2 -0.3086,12.26 0,14.77 0,30.16 13.5899,30.16 0.1601,0 15.8984,-0.67 24.4184,-9.18 2.109,-2.31 7.179,-9.65 7.179,-25.86 l 5.903,-0.66 c 0,4.72 1.128,16.05 13.437,16.05 2.109,0 8.012,-1.33 12.109,-2.46 6.872,-1.64 9.332,-2.31 11.801,-2.31 17.031,0 18.321,21.8 18.321,30.32 0,17.18 -16.372,23.24 -18.829,23.24 -2.929,0 -2.929,-2.93 -2.929,-3.95 0,-2.77 0.816,-3.24 3.277,-3.9 6.371,-2.15 12.621,-8.05 12.621,-14.1 0,-4.42 -1.84,-7.54 -10,-7.54 -2.461,0 -4.93,0.19 -18.012,2.3 -1.988,0.31 -5.078,0.82 -6.558,0.82 -6.211,0 -13.602,-3.44 -17.539,-14.1 z" /><path
         id="path178"
         style="fill:#000000;fill-opacity:1;fill-rule:nonzero;stroke:none"
         d="m 147.621,1769.59 h -5.043 l -2.808,-0.19 -2.93,-0.16 -2.969,-0.31 -3.09,-0.35 -3.121,-0.47 -3.281,-0.51 -3.438,-0.62 -3.281,-0.82 -3.441,-0.83 -3.438,-1.01 -3.59,-1.13 -3.441,-1.29 -1.801,-0.67 -1.64,-0.82 -1.7895,-0.66 -1.6406,-0.82 C 76.7188,1749.12 66.25,1735.02 66.25,1733.38 c 0,-0.97 0.6602,-1.64 1.6406,-1.64 0.4688,0 0.8203,0 3.75,3.13 16.0586,16.05 41.9104,25.19 75.9804,25.19 27.688,0 56.359,-5.86 76.828,-26.17 1.961,-2.15 2.27,-2.15 2.781,-2.15 0.969,0 1.641,0.67 1.641,1.64 0,1.64 -10.98,16.37 -31.762,26.06 -17.847,8.16 -35.898,10.15 -49.488,10.15 z" /><path
         id="path180"
         style="fill:#000000;fill-opacity:1;fill-rule:nonzero;stroke:none"
         d="m 285.699,1818.23 v -29.34 h 7.539 v 37.03 H 0.589844 v -37.03 H 8.28125 v 29.34 z" /><path
         id="path182"
         style="fill:none;stroke:#ff0000;stroke-width:8.78441048;stroke-linecap:square;stroke-linejoin:miter;stroke-miterlimit:3.79999995;stroke-dasharray:8.78441, 8.78441;stroke-dashoffset:0;stroke-opacity:1"
         d="M 822.578,2200.3 H 1119.53" /><path
         id="path184"
         style="fill:#000000;fill-opacity:1;fill-rule:nonzero;stroke:none"
         d="m 1211.37,2199.44 c 0,-10 2.42,-17.86 7.34,-23.44 4.77,-5.74 10.51,-8.59 17.19,-8.59 4.33,0 8.16,1.17 11.4,3.59 3.21,2.46 5.94,6.64 8.13,12.5 l 2.34,-1.41 c -1.05,-6.79 -4.1,-12.93 -9.06,-18.43 -4.92,-5.43 -11.05,-8.13 -18.44,-8.13 -8.04,0 -14.92,3.13 -20.62,9.38 -5.74,6.21 -8.6,14.68 -8.6,25.31 0,11.44 2.9,20.39 8.75,26.87 5.9,6.45 13.32,9.69 22.19,9.69 7.46,0 13.63,-2.54 18.44,-7.5 4.88,-5 7.34,-11.64 7.34,-19.84 z m 0,4.22 h 31.09 c -0.23,4.25 -0.74,7.26 -1.56,9.06 -1.25,2.69 -3.09,4.84 -5.47,6.4 -2.42,1.53 -4.92,2.35 -7.5,2.35 -4.06,0 -7.73,-1.6 -10.94,-4.69 -3.24,-3.12 -5.11,-7.54 -5.62,-13.12 z m 51.33,20.93 h 31.56 v -2.65 c -2.11,0 -3.56,-0.39 -4.38,-1.1 -0.74,-0.62 -1.09,-1.52 -1.09,-2.65 0,-1.18 0.82,-3.01 2.5,-5.47 0.59,-0.74 1.44,-1.96 2.5,-3.6 l 4.69,-7.65 5.62,7.65 c 3.4,4.77 5.16,7.86 5.16,9.22 0,0.9 -0.43,1.76 -1.25,2.5 -0.86,0.71 -2.15,1.1 -3.91,1.1 v 2.65 h 22.66 v -2.65 c -2.42,-0.12 -4.49,-0.82 -6.25,-2.03 -2.42,-1.68 -5.71,-5.28 -9.85,-10.79 l -9.06,-12.18 16.56,-24.07 c 4.14,-5.93 7.11,-9.57 8.91,-10.78 1.76,-1.17 3.98,-1.79 6.72,-1.87 v -2.66 h -31.56 v 2.66 c 2.15,0 3.9,0.47 5.15,1.4 0.9,0.71 1.41,1.64 1.41,2.82 0,1.01 -1.6,3.82 -4.69,8.43 l -9.84,14.38 -10.78,-14.38 c -3.36,-4.49 -5,-7.14 -5,-7.96 0,-1.18 0.5,-2.23 1.56,-3.13 1.13,-0.94 2.81,-1.48 5,-1.56 v -2.66 h -21.88 v 2.66 c 1.76,0.19 3.29,0.82 4.54,1.87 1.83,1.33 5,4.92 9.37,10.78 l 14.06,18.75 -12.65,18.44 c -3.68,5.2 -6.49,8.48 -8.44,9.85 -1.99,1.32 -4.45,2.03 -7.34,2.03 z m 114.18,-57.34 c -6.88,-5.31 -11.22,-8.4 -12.97,-9.22 -2.62,-1.21 -5.43,-1.87 -8.44,-1.87 -4.61,0 -8.4,1.56 -11.41,4.68 -3.04,3.21 -4.53,7.42 -4.53,12.66 0,3.2 0.7,6.01 2.19,8.44 2.07,3.32 5.55,6.44 10.47,9.37 4.96,2.89 13.2,6.49 24.69,10.78 v 2.5 c 0,6.76 -1.06,11.33 -3.13,13.75 -2.11,2.46 -5.2,3.75 -9.22,3.75 -3.12,0 -5.58,-0.82 -7.34,-2.34 -1.88,-1.68 -2.81,-3.63 -2.81,-5.78 l 0.15,-4.22 c 0,-2.31 -0.58,-4.1 -1.72,-5.31 -1.17,-1.18 -2.69,-1.72 -4.53,-1.72 -1.8,0 -3.24,0.62 -4.37,1.87 -1.18,1.21 -1.72,2.97 -1.72,5.16 0,4.26 2.11,8.12 6.4,11.56 4.26,3.52 10.32,5.31 18.13,5.31 5.9,0 10.78,-1.01 14.53,-2.96 2.89,-1.57 5.04,-3.99 6.41,-7.19 0.89,-2.11 1.4,-6.37 1.4,-12.81 v -22.82 c 0,-6.36 0.08,-10.27 0.32,-11.72 0.19,-1.48 0.54,-2.46 1.09,-2.96 0.58,-0.43 1.29,-0.63 2.03,-0.63 0.82,0 1.48,0.16 2.03,0.47 1.02,0.58 3.01,2.38 5.94,5.31 v -4.06 c -5.43,-7.31 -10.67,-10.94 -15.63,-10.94 -2.42,0 -4.33,0.82 -5.78,2.35 -1.36,1.64 -2.11,4.53 -2.18,8.59 z m 0,4.69 v 25.62 c -7.31,-2.93 -12.08,-5.04 -14.22,-6.25 -3.87,-2.19 -6.64,-4.49 -8.28,-6.87 -1.68,-2.31 -2.5,-4.81 -2.5,-7.5 0,-3.56 1.01,-6.53 3.12,-8.91 2.07,-2.3 4.53,-3.44 7.34,-3.44 3.64,0 8.48,2.42 14.54,7.35 z m 84.29,11.09 c -1.87,-8.87 -5.51,-15.7 -10.78,-20.47 -5.23,-4.69 -11.01,-7.03 -17.34,-7.03 -7.62,0 -14.3,3.16 -20,9.53 -5.63,6.45 -8.44,15.08 -8.44,25.94 0,10.51 3.12,19.06 9.37,25.62 6.22,6.64 13.79,10 22.66,10 6.52,0 11.95,-1.79 16.25,-5.31 4.26,-3.44 6.41,-7.07 6.41,-10.78 0,-1.87 -0.67,-3.4 -1.88,-4.53 -1.17,-1.17 -2.85,-1.72 -5,-1.72 -2.93,0 -5.12,0.94 -6.56,2.81 -0.86,1.02 -1.45,2.97 -1.72,5.78 -0.23,2.89 -1.17,5.16 -2.81,6.72 -1.8,1.45 -4.18,2.19 -7.19,2.19 -4.92,0 -8.83,-1.84 -11.72,-5.47 -3.98,-4.8 -5.94,-11.13 -5.94,-18.9 0,-8.05 1.92,-15.12 5.79,-21.25 3.94,-6.18 9.25,-9.22 15.93,-9.22 4.77,0 9.1,1.6 12.97,4.84 2.7,2.27 5.31,6.41 7.81,12.34 z m 27.74,63.59 v -22.03 h 15.62 v -5 h -15.62 V 2176 c 0,-4.38 0.62,-7.38 1.87,-8.91 1.21,-1.48 2.81,-2.18 4.69,-2.18 1.64,0 3.2,0.5 4.69,1.56 1.52,1.01 2.73,2.5 3.59,4.37 h 2.81 c -1.68,-4.8 -4.1,-8.4 -7.18,-10.78 -3.13,-2.42 -6.37,-3.59 -9.69,-3.59 -2.31,0 -4.57,0.66 -6.72,1.87 -2.11,1.21 -3.67,3.01 -4.69,5.32 -1.05,2.26 -1.56,5.85 -1.56,10.78 v 45.15 h -10.63 v 2.35 c 2.7,1.01 5.47,2.85 8.29,5.47 2.77,2.57 5.31,5.62 7.5,9.06 1.13,1.83 2.69,5.23 4.68,10.15 z" /><path
         id="path186"
         style="fill:none;stroke:#009600;stroke-width:8;stroke-linecap:square;stroke-linejoin:miter;stroke-miterlimit:3.79999995;stroke-dasharray:64, 64;stroke-dashoffset:0;stroke-opacity:1"
         d="M 822.578,2034.08 H 1119.53" /><path
         id="path188"
         style="fill:#000000;fill-opacity:1;fill-rule:nonzero;stroke:none"
         d="m 1283.87,2012.87 2.5,-0.46 -8.6,-27.04 h -76.87 v 2.66 h 3.75 c 4.14,0 7.19,1.41 9.06,4.22 1.02,1.52 1.56,5.16 1.56,10.78 v 64.06 c 0,6.21 -0.7,10.16 -2.03,11.72 -1.99,2.07 -4.88,3.13 -8.59,3.13 h -3.75 v 2.81 h 45 v -2.81 c -5.31,0.07 -9.02,-0.39 -11.1,-1.41 -2.1,-1.05 -3.55,-2.38 -4.37,-3.91 -0.74,-1.56 -1.09,-5.35 -1.09,-11.25 v -62.34 c 0,-4.06 0.35,-6.84 1.09,-8.28 0.59,-1.06 1.48,-1.84 2.66,-2.34 1.21,-0.55 5.07,-0.79 11.56,-0.79 h 7.19 c 7.57,0 12.89,0.55 15.93,1.72 3.09,1.14 5.94,3.13 8.44,5.94 2.58,2.89 5.16,7.42 7.66,13.59 z m 72.77,74.07 v -34.38 h -2.66 c -0.93,6.64 -2.57,11.92 -4.84,15.78 -2.19,3.95 -5.43,7.07 -9.69,9.38 -4.18,2.26 -8.51,3.44 -12.97,3.44 -5.11,0 -9.33,-1.61 -12.65,-4.69 -3.24,-3.13 -4.85,-6.68 -4.85,-10.63 0,-3.04 1.02,-5.82 3.13,-8.28 3.01,-3.67 10.19,-8.55 21.56,-14.69 9.26,-4.92 15.55,-8.71 18.91,-11.4 3.4,-2.62 6.01,-5.74 7.81,-9.38 1.84,-3.67 2.81,-7.46 2.81,-11.4 0,-7.5 -2.93,-14.03 -8.75,-19.53 -5.86,-5.43 -13.36,-8.13 -22.5,-8.13 -2.81,0 -5.54,0.27 -8.12,0.78 -1.49,0.24 -4.61,1.13 -9.38,2.66 -4.8,1.52 -7.85,2.34 -9.06,2.34 -1.25,0 -2.27,-0.39 -2.97,-1.09 -0.62,-0.74 -1.17,-2.31 -1.56,-4.69 h -2.66 v 34.06 h 2.66 c 1.33,-7.11 3.05,-12.42 5.16,-15.93 2.14,-3.56 5.46,-6.53 9.84,-8.91 4.45,-2.31 9.3,-3.44 14.53,-3.44 6.13,0 10.98,1.6 14.53,4.85 3.52,3.2 5.31,7.03 5.31,11.4 0,2.46 -0.7,4.92 -2.03,7.35 -1.36,2.46 -3.47,4.84 -6.25,7.03 -1.87,1.44 -7.11,4.53 -15.62,9.22 -8.44,4.76 -14.49,8.59 -18.13,11.4 -3.55,2.89 -6.29,6.02 -8.12,9.38 -1.88,3.39 -2.81,7.22 -2.81,11.4 0,7.07 2.69,13.17 8.12,18.28 5.51,5.2 12.5,7.82 20.94,7.82 5.27,0 10.86,-1.33 16.72,-3.91 2.77,-1.17 4.72,-1.72 5.78,-1.72 1.33,0 2.38,0.35 3.12,1.1 0.82,0.7 1.49,2.22 2.03,4.53 z m 103.48,0 2.34,-33.75 h -2.34 c -3.05,10.07 -7.39,17.34 -12.97,21.72 -5.63,4.45 -12.38,6.71 -20.16,6.71 -6.68,0 -12.69,-1.68 -17.97,-5 -5.31,-3.36 -9.49,-8.67 -12.5,-15.93 -3.04,-7.31 -4.53,-16.45 -4.53,-27.35 0,-8.98 1.41,-16.79 4.22,-23.43 2.89,-6.57 7.23,-11.65 12.97,-15.16 5.82,-3.44 12.42,-5.16 19.84,-5.16 6.45,0 12.11,1.33 17.03,4.07 4.97,2.77 10.47,8.28 16.41,16.4 l 2.19,-1.4 c -5,-8.87 -10.86,-15.4 -17.5,-19.54 -6.56,-4.02 -14.45,-6.09 -23.6,-6.09 -16.48,0 -29.25,6.13 -38.28,18.44 -6.68,9.02 -10,19.72 -10,32.03 0,9.88 2.19,18.98 6.57,27.34 4.45,8.32 10.62,14.73 18.43,19.22 7.78,4.57 16.29,6.88 25.47,6.88 7.15,0 14.26,-1.8 21.25,-5.32 2.07,-1.05 3.52,-1.56 4.38,-1.56 1.33,0 2.5,0.47 3.43,1.41 1.22,1.33 2.19,3.16 2.82,5.47 z m 76.56,-68.28 h -38.44 l -6.72,-15.63 c -1.68,-3.98 -2.5,-6.91 -2.5,-8.75 0,-1.48 0.71,-2.77 2.19,-3.91 1.45,-1.17 4.57,-1.95 9.38,-2.34 v -2.66 h -31.25 v 2.66 c 4.02,0.7 6.71,1.72 7.96,2.97 2.47,2.26 5.24,7.03 8.29,14.22 l 35,81.72 h 2.5 l 34.53,-82.66 c 2.77,-6.56 5.35,-10.86 7.65,-12.81 2.27,-1.99 5.47,-3.17 9.53,-3.44 v -2.66 h -39.21 v 2.66 c 3.94,0.2 6.6,0.86 7.96,2.03 1.33,1.13 2.04,2.5 2.04,4.06 0,2.15 -0.98,5.55 -2.82,10.16 z m -2.03,5.46 -16.88,40 -17.18,-40 z" /><path
         id="path190"
         style="fill:none;stroke:#0000ff;stroke-width:8;stroke-linecap:butt;stroke-linejoin:miter;stroke-miterlimit:3.79999995;stroke-dasharray:24, 24;stroke-dashoffset:0;stroke-opacity:1"
         d="M 822.578,1867.83 H 1119.53" /><path
         id="path192"
         style="fill:#000000;fill-opacity:1;fill-rule:nonzero;stroke:none"
         d="m 1268.32,1851.31 h -38.44 l -6.72,-15.62 c -1.68,-3.99 -2.5,-6.92 -2.5,-8.75 0,-1.49 0.71,-2.78 2.19,-3.91 1.45,-1.17 4.57,-1.95 9.38,-2.34 v -2.66 h -31.25 v 2.66 c 4.02,0.7 6.72,1.72 7.97,2.97 2.46,2.26 5.23,7.03 8.28,14.21 l 35,81.72 h 2.5 l 34.53,-82.65 c 2.77,-6.57 5.35,-10.86 7.65,-12.82 2.27,-1.99 5.47,-3.16 9.54,-3.43 v -2.66 h -39.22 v 2.66 c 3.94,0.19 6.6,0.86 7.97,2.03 1.32,1.13 2.03,2.5 2.03,4.06 0,2.15 -0.98,5.55 -2.82,10.16 z m -2.03,5.47 -16.88,40 -17.18,-40 z m 101.17,-38.75 -38.44,83.59 v -66.4 c 0,-6.06 0.67,-9.89 2.03,-11.41 1.76,-2.11 4.61,-3.12 8.6,-3.12 h 3.44 v -2.66 h -34.54 v 2.66 h 3.44 c 4.26,0 7.27,1.29 9.06,3.9 1.02,1.53 1.57,5.08 1.57,10.63 v 64.84 c 0,4.45 -0.51,7.66 -1.41,9.53 -0.74,1.45 -2.07,2.66 -3.91,3.6 -1.79,0.89 -4.72,1.4 -8.75,1.4 v 2.82 h 28.13 l 36.09,-77.82 35.32,77.82 h 28.12 v -2.82 h -3.44 c -4.18,0 -7.15,-1.29 -8.9,-3.75 -1.17,-1.56 -1.72,-5.19 -1.72,-10.78 v -64.84 c 0,-6.06 0.7,-9.89 2.19,-11.41 1.75,-2.11 4.57,-3.12 8.43,-3.12 h 3.44 v -2.66 h -42.19 v 2.66 h 3.6 c 4.26,0 7.22,1.29 8.9,3.9 1.02,1.53 1.57,5.08 1.57,10.63 v 66.4 l -38.29,-83.59 z m 137.97,33.28 h -38.44 l -6.72,-15.62 c -1.68,-3.99 -2.5,-6.92 -2.5,-8.75 0,-1.49 0.71,-2.78 2.19,-3.91 1.45,-1.17 4.57,-1.95 9.38,-2.34 v -2.66 h -31.25 v 2.66 c 4.02,0.7 6.71,1.72 7.96,2.97 2.47,2.26 5.24,7.03 8.29,14.21 l 35,81.72 h 2.5 l 34.53,-82.65 c 2.77,-6.57 5.35,-10.86 7.65,-12.82 2.27,-1.99 5.47,-3.16 9.53,-3.43 v -2.66 h -39.21 v 2.66 c 3.94,0.19 6.6,0.86 7.96,2.03 1.33,1.13 2.04,2.5 2.04,4.06 0,2.15 -0.98,5.55 -2.82,10.16 z m -2.03,5.47 -16.88,40 -17.18,-40 z" /></g></g></svg>