<?xml version="1.0" encoding="UTF-8" standalone="no"?>
<svg
   xmlns:dc="http://purl.org/dc/elements/1.1/"
   xmlns:cc="http://creativecommons.org/ns#"
   xmlns:rdf="http://www.w3.org/1999/02/22-rdf-syntax-ns#"
   xmlns:svg="http://www.w3.org/2000/svg"
   xmlns="http://www.w3.org/2000/svg"
   viewBox="0 0 496 320"
   height="320"
   width="496"
   xml:space="preserve"
   id="svg2"
   version="1.1"><metadata
     id="metadata8"><rdf:RDF><cc:Work
         rdf:about=""><dc:format>image/svg+xml</dc:format><dc:type
           rdf:resource="http://purl.org/dc/dcmitype/StillImage" /></cc:Work></rdf:RDF></metadata><defs
     id="defs6" /><g
     transform="matrix(1.3333333,0,0,-1.3333333,0,320)"
     id="g10"><g
       transform="scale(0.1)"
       id="g12"><path
         id="path14"
         style="fill:none;stroke:#000000;stroke-width:8;stroke-linecap:square;stroke-linejoin:miter;stroke-miterlimit:3.79999995;stroke-dasharray:none;stroke-opacity:1"
         d="M 558.672,454.059 H 590.16" /><path
         id="path16"
         style="fill:none;stroke:#000000;stroke-width:8;stroke-linecap:square;stroke-linejoin:miter;stroke-miterlimit:3.79999995;stroke-dasharray:none;stroke-opacity:1"
         d="m 3678.67,454.059 h -31.52" /><path
         id="path18"
         style="fill:none;stroke:#000000;stroke-width:8;stroke-linecap:square;stroke-linejoin:miter;stroke-miterlimit:3.79999995;stroke-dasharray:none;stroke-opacity:1"
         d="M 558.672,691.559 H 590.16" /><path
         id="path20"
         style="fill:none;stroke:#000000;stroke-width:8;stroke-linecap:square;stroke-linejoin:miter;stroke-miterlimit:3.79999995;stroke-dasharray:none;stroke-opacity:1"
         d="m 3678.67,691.559 h -31.52" /><path
         id="path22"
         style="fill:none;stroke:#000000;stroke-width:8;stroke-linecap:square;stroke-linejoin:miter;stroke-miterlimit:3.79999995;stroke-dasharray:none;stroke-opacity:1"
         d="M 558.672,929.059 H 590.16" /><path
         id="path24"
         style="fill:none;stroke:#000000;stroke-width:8;stroke-linecap:square;stroke-linejoin:miter;stroke-miterlimit:3.79999995;stroke-dasharray:none;stroke-opacity:1"
         d="m 3678.67,929.059 h -31.52" /><path
         id="path26"
         style="fill:none;stroke:#000000;stroke-width:8;stroke-linecap:square;stroke-linejoin:miter;stroke-miterlimit:3.79999995;stroke-dasharray:none;stroke-opacity:1"
         d="M 558.672,1166.56 H 590.16" /><path
         id="path28"
         style="fill:none;stroke:#000000;stroke-width:8;stroke-linecap:square;stroke-linejoin:miter;stroke-miterlimit:3.79999995;stroke-dasharray:none;stroke-opacity:1"
         d="m 3678.67,1166.56 h -31.52" /><path
         id="path30"
         style="fill:none;stroke:#000000;stroke-width:8;stroke-linecap:square;stroke-linejoin:miter;stroke-miterlimit:3.79999995;stroke-dasharray:none;stroke-opacity:1"
         d="M 558.672,1404.06 H 590.16" /><path
         id="path32"
         style="fill:none;stroke:#000000;stroke-width:8;stroke-linecap:square;stroke-linejoin:miter;stroke-miterlimit:3.79999995;stroke-dasharray:none;stroke-opacity:1"
         d="m 3678.67,1404.06 h -31.52" /><path
         id="path34"
         style="fill:none;stroke:#000000;stroke-width:8;stroke-linecap:square;stroke-linejoin:miter;stroke-miterlimit:3.79999995;stroke-dasharray:none;stroke-opacity:1"
         d="M 558.672,1641.13 H 590.16" /><path
         id="path36"
         style="fill:none;stroke:#000000;stroke-width:8;stroke-linecap:square;stroke-linejoin:miter;stroke-miterlimit:3.79999995;stroke-dasharray:none;stroke-opacity:1"
         d="m 3678.67,1641.13 h -31.52" /><path
         id="path38"
         style="fill:none;stroke:#000000;stroke-width:8;stroke-linecap:square;stroke-linejoin:miter;stroke-miterlimit:3.79999995;stroke-dasharray:none;stroke-opacity:1"
         d="M 558.672,1878.63 H 590.16" /><path
         id="path40"
         style="fill:none;stroke:#000000;stroke-width:8;stroke-linecap:square;stroke-linejoin:miter;stroke-miterlimit:3.79999995;stroke-dasharray:none;stroke-opacity:1"
         d="m 3678.67,1878.63 h -31.52" /><path
         id="path42"
         style="fill:none;stroke:#000000;stroke-width:8;stroke-linecap:square;stroke-linejoin:miter;stroke-miterlimit:3.79999995;stroke-dasharray:none;stroke-opacity:1"
         d="M 558.672,2116.13 H 590.16" /><path
         id="path44"
         style="fill:none;stroke:#000000;stroke-width:8;stroke-linecap:square;stroke-linejoin:miter;stroke-miterlimit:3.79999995;stroke-dasharray:none;stroke-opacity:1"
         d="m 3678.67,2116.13 h -31.52" /><path
         id="path46"
         style="fill:none;stroke:#000000;stroke-width:8;stroke-linecap:square;stroke-linejoin:miter;stroke-miterlimit:3.79999995;stroke-dasharray:none;stroke-opacity:1"
         d="M 558.672,2353.63 H 590.16" /><path
         id="path48"
         style="fill:none;stroke:#000000;stroke-width:8;stroke-linecap:square;stroke-linejoin:miter;stroke-miterlimit:3.79999995;stroke-dasharray:none;stroke-opacity:1"
         d="m 3678.67,2353.63 h -31.52" /><path
         id="path50"
         style="fill:none;stroke:#000000;stroke-width:8;stroke-linecap:square;stroke-linejoin:miter;stroke-miterlimit:3.79999995;stroke-dasharray:none;stroke-opacity:1"
         d="m 558.672,454.059 v 31.562" /><path
         id="path52"
         style="fill:none;stroke:#000000;stroke-width:8;stroke-linecap:square;stroke-linejoin:miter;stroke-miterlimit:3.79999995;stroke-dasharray:none;stroke-opacity:1"
         d="m 558.672,2353.63 v -31.52" /><path
         id="path54"
         style="fill:none;stroke:#000000;stroke-width:8;stroke-linecap:square;stroke-linejoin:miter;stroke-miterlimit:3.79999995;stroke-dasharray:none;stroke-opacity:1"
         d="m 948.672,454.059 v 31.562" /><path
         id="path56"
         style="fill:none;stroke:#000000;stroke-width:8;stroke-linecap:square;stroke-linejoin:miter;stroke-miterlimit:3.79999995;stroke-dasharray:none;stroke-opacity:1"
         d="m 948.672,2353.63 v -31.52" /><path
         id="path58"
         style="fill:none;stroke:#000000;stroke-width:8;stroke-linecap:square;stroke-linejoin:miter;stroke-miterlimit:3.79999995;stroke-dasharray:none;stroke-opacity:1"
         d="m 1338.67,454.059 v 31.562" /><path
         id="path60"
         style="fill:none;stroke:#000000;stroke-width:8;stroke-linecap:square;stroke-linejoin:miter;stroke-miterlimit:3.79999995;stroke-dasharray:none;stroke-opacity:1"
         d="m 1338.67,2353.63 v -31.52" /><path
         id="path62"
         style="fill:none;stroke:#000000;stroke-width:8;stroke-linecap:square;stroke-linejoin:miter;stroke-miterlimit:3.79999995;stroke-dasharray:none;stroke-opacity:1"
         d="m 1728.67,454.059 v 31.562" /><path
         id="path64"
         style="fill:none;stroke:#000000;stroke-width:8;stroke-linecap:square;stroke-linejoin:miter;stroke-miterlimit:3.79999995;stroke-dasharray:none;stroke-opacity:1"
         d="m 1728.67,2353.63 v -31.52" /><path
         id="path66"
         style="fill:none;stroke:#000000;stroke-width:8;stroke-linecap:square;stroke-linejoin:miter;stroke-miterlimit:3.79999995;stroke-dasharray:none;stroke-opacity:1"
         d="m 2118.67,454.059 v 31.562" /><path
         id="path68"
         style="fill:none;stroke:#000000;stroke-width:8;stroke-linecap:square;stroke-linejoin:miter;stroke-miterlimit:3.79999995;stroke-dasharray:none;stroke-opacity:1"
         d="m 2118.67,2353.63 v -31.52" /><path
         id="path70"
         style="fill:none;stroke:#000000;stroke-width:8;stroke-linecap:square;stroke-linejoin:miter;stroke-miterlimit:3.79999995;stroke-dasharray:none;stroke-opacity:1"
         d="m 2508.67,454.059 v 31.562" /><path
         id="path72"
         style="fill:none;stroke:#000000;stroke-width:8;stroke-linecap:square;stroke-linejoin:miter;stroke-miterlimit:3.79999995;stroke-dasharray:none;stroke-opacity:1"
         d="m 2508.67,2353.63 v -31.52" /><path
         id="path74"
         style="fill:none;stroke:#000000;stroke-width:8;stroke-linecap:square;stroke-linejoin:miter;stroke-miterlimit:3.79999995;stroke-dasharray:none;stroke-opacity:1"
         d="m 2898.67,454.059 v 31.562" /><path
         id="path76"
         style="fill:none;stroke:#000000;stroke-width:8;stroke-linecap:square;stroke-linejoin:miter;stroke-miterlimit:3.79999995;stroke-dasharray:none;stroke-opacity:1"
         d="m 2898.67,2353.63 v -31.52" /><path
         id="path78"
         style="fill:none;stroke:#000000;stroke-width:8;stroke-linecap:square;stroke-linejoin:miter;stroke-miterlimit:3.79999995;stroke-dasharray:none;stroke-opacity:1"
         d="m 3288.67,454.059 v 31.562" /><path
         id="path80"
         style="fill:none;stroke:#000000;stroke-width:8;stroke-linecap:square;stroke-linejoin:miter;stroke-miterlimit:3.79999995;stroke-dasharray:none;stroke-opacity:1"
         d="m 3288.67,2353.63 v -31.52" /><path
         id="path82"
         style="fill:none;stroke:#000000;stroke-width:8;stroke-linecap:square;stroke-linejoin:miter;stroke-miterlimit:3.79999995;stroke-dasharray:none;stroke-opacity:1"
         d="m 3678.67,454.059 v 31.562" /><path
         id="path84"
         style="fill:none;stroke:#000000;stroke-width:8;stroke-linecap:square;stroke-linejoin:miter;stroke-miterlimit:3.79999995;stroke-dasharray:none;stroke-opacity:1"
         d="m 3678.67,2353.63 v -31.52" /><path
         id="path86"
         style="fill:none;stroke:#000000;stroke-width:8;stroke-linecap:square;stroke-linejoin:miter;stroke-miterlimit:3.79999995;stroke-dasharray:none;stroke-opacity:1"
         d="m 558.672,454.102 h 3120 v 1899.53 h -3120 z" /><path
         id="path88"
         style="fill:none;stroke:#ff0000;stroke-width:8;stroke-linecap:square;stroke-linejoin:miter;stroke-miterlimit:3.79999995;stroke-dasharray:none;stroke-opacity:1"
         d="m 558.672,1073.63 38.988,33.44 39.02,36.56 38.98,37.5 38.988,38.44 39.024,38.05 38.988,36.01 39.02,33.48 38.98,29.45 38.988,25 39.024,19.57 38.988,13.48 39.02,6.95 h 38.98 l 38.99,-5.94 39.02,-13.51 38.99,-19.49 39.02,-25.51 38.98,-30.98 38.99,-36.01 39.02,-39.5 38.99,-43 39.02,-45.55 38.98,-46.45 38.99,-46.99 39.02,-46.56 38.99,-45 39.02,-43.441 38.98,-40 38.99,-36.559 39.02,-32.5 38.99,-28.011 39.02,-22.93 38.98,-17.5 38.99,-12.5 39.02,-7.07 38.99,-1.438 39.02,3.938 38.98,9.062 38.99,13.949 39.02,19.059 38.99,22.93 39.02,27.5 38.98,30.511 38.99,34.489 39.02,37.07 38.99,39.492 39.02,41.449 38.98,43.55 38.99,44.5 39.02,46.01 38.99,46.99 39.02,47 77.97,95 39.02,47.5 38.99,46.99 39.02,46.95 38.98,46.06 38.99,45.5 39.02,45 38.99,43.99 39.02,43.01 38.98,42.5 38.99,41.01 39.02,40.43 38.99,40 39.02,38.56 38.98,38 38.99,37 39.02,36.01 38.99,35.43 39.02,34.06 38.98,33.44 38.99,33.05 39.02,31.52 38.99,30.98 39.02,30 38.98,29.02 38.99,28.48 39.02,26.95" /><path
         id="path90"
         style="fill:none;stroke:#009600;stroke-width:8;stroke-linecap:square;stroke-linejoin:miter;stroke-miterlimit:3.79999995;stroke-dasharray:64, 64;stroke-dashoffset:0;stroke-opacity:1"
         d="m 558.672,1657.62 38.988,5 39.02,0.5 38.98,-4.49 38.988,-9.57 39.024,-13.94 38.988,-18.99 39.02,-23.01 38.98,-27.5 38.988,-31.56 39.024,-35 38.988,-38.44 39.02,-41.56 38.98,-43.44 38.99,-46.01 39.02,-47.54 38.99,-48.44 39.02,-49.57 38.98,-49.49 38.99,-48.95 39.02,-48.55 38.99,-46.949 39.02,-45.551 38.98,-43.011 38.99,-40.43 39.02,-37.5 38.99,-34.059 39.02,-30.511 38.98,-26.438 38.99,-22 39.02,-17.5 38.99,-12.5 39.02,-8 38.98,-3.562 38.99,2.07 39.02,6.492 38.99,11.949 39.02,16.051 38.98,20.938 38.99,25 39.02,29.57 38.99,32.93 39.02,36.562 38.98,40 38.99,42.5 39.02,44.5 38.99,46.949 39.02,48.05 38.98,48.94 38.99,49.57 39.02,48.99 38.99,48.94 39.02,48.05 38.98,46.52 38.99,43.99 39.02,41.99 38.99,39.45 39.02,36.06 38.98,32.5 38.99,28.51 39.02,24.49 38.99,20 39.02,15.51 38.98,10.43 38.99,6.06 39.02,0.5 38.99,-4.06 39.02,-8.44 38.98,-14.06 38.99,-17.93 39.02,-23.01 38.99,-26.99 39.02,-31.01 38.98,-35 38.99,-38.01 39.02,-40.98 38.99,-43.51 39.02,-46.06 38.98,-46.99 38.99,-48.44 39.02,-49.57" /><path
         id="path92"
         style="fill:none;stroke:#0000ff;stroke-width:8;stroke-linecap:square;stroke-linejoin:miter;stroke-miterlimit:3.79999995;stroke-dasharray:16, 32;stroke-dashoffset:0;stroke-opacity:1"
         d="m 558.672,816.559 38.988,-0.43 39.02,-1.008 38.98,-1.062 38.988,-0.938 39.024,-1.051 38.988,-0.941 39.02,-1.008 38.98,-1.062 38.988,-0.43 39.024,-1.008 38.988,-1.062 39.02,-0.938 38.98,-1.051 38.99,-0.941 39.02,-0.508 38.99,-1.051 39.02,-0.941 77.97,-2.07 39.02,-0.43 38.99,-1.008 39.02,-1.062 38.98,-0.938 38.99,-1.051 39.02,-0.511 38.99,-0.938 39.02,-1.051 38.98,-0.941 38.99,-0.508 39.02,-1.051 38.99,-0.941 39.02,-1.008 38.98,-0.551 38.99,-0.941 39.02,-1.008 38.99,-0.551 39.02,-0.941 38.98,-1.008 38.99,-0.551 39.02,-0.941 38.99,-1.008 39.02,-1.062 38.98,-0.43 38.99,-1.008 39.02,-1.062 38.99,-0.43 39.02,-1.008 38.98,-0.551 38.99,-0.941 39.02,-1.008 38.99,-0.551 39.02,-0.941 38.98,-1.008 38.99,-0.551 39.02,-0.941 38.99,-0.508 39.02,-1.051 38.98,-0.941 38.99,-0.508 39.02,-1.051 38.99,-0.511 39.02,-0.938 38.98,-0.5 38.99,-1.062 39.02,-0.938 38.99,-0.5 39.02,-1.062 38.98,-0.43 38.99,-1.008 39.02,-0.551 38.99,-0.941 39.02,-0.508 38.98,-1.051 38.99,-0.511 39.02,-0.938 38.99,-0.5 39.02,-1.062 38.98,-0.43 38.99,-0.508 39.02,-1.051" /><path
         id="path94"
         style="fill:none;stroke:#000000;stroke-width:8;stroke-linecap:square;stroke-linejoin:miter;stroke-miterlimit:3.79999995;stroke-dasharray:none;stroke-opacity:1"
         d="m 558.672,454.102 h 3120 v 1899.53 h -3120 z" /><path
         id="path96"
         style="fill:#000000;fill-opacity:1;fill-rule:nonzero;stroke:none"
         d="m 583.199,406.68 -6.398,-14.059 h -33.91 l -7.34,-15.16 c 14.648,-2.109 26.289,-7.539 34.84,-16.25 7.379,-7.621 11.089,-16.481 11.089,-26.563 0,-5.937 -1.281,-11.488 -3.75,-16.57 -2.421,-5 -5.429,-9.289 -9.058,-12.808 -3.672,-3.551 -7.731,-6.442 -12.192,-8.59 -6.359,-3.008 -12.89,-4.532 -19.531,-4.532 -6.789,0 -11.75,1.172 -14.84,3.43 -3.05,2.274 -4.531,4.852 -4.531,7.66 0,1.524 0.621,2.891 1.871,4.063 1.332,1.211 2.973,1.879 4.852,1.879 1.437,0 2.687,-0.27 3.75,-0.782 1.129,-0.429 3,-1.527 5.621,-3.277 4.027,-2.93 8.207,-4.383 12.5,-4.383 6.527,0 12.269,2.422 17.187,7.34 4.879,4.891 7.34,10.832 7.34,17.82 0,6.832 -2.219,13.204 -6.558,19.063 -4.371,5.898 -10.43,10.508 -18.121,13.75 -6.059,2.461 -14.301,3.91 -24.692,4.219 l 21.563,43.75 z" /><path
         id="path98"
         style="fill:#000000;fill-opacity:1;fill-rule:nonzero;stroke:none"
         d="m 900.82,406.828 -6.41,-14.058 h -33.898 l -7.352,-15.149 c 14.649,-2.109 26.289,-7.543 34.852,-16.25 7.379,-7.621 11.09,-16.492 11.09,-26.57 0,-5.93 -1.293,-11.481 -3.75,-16.563 -2.422,-5 -5.43,-9.297 -9.063,-12.808 -3.668,-3.559 -7.738,-6.45 -12.187,-8.602 -6.372,-3 -12.891,-4.527 -19.532,-4.527 -6.8,0 -11.761,1.179 -14.84,3.437 -3.05,2.274 -4.531,4.84 -4.531,7.66 0,1.524 0.621,2.891 1.871,4.063 1.328,1.211 2.969,1.867 4.84,1.867 1.449,0 2.699,-0.269 3.75,-0.777 1.141,-0.43 3.012,-1.52 5.629,-3.281 4.02,-2.93 8.199,-4.372 12.5,-4.372 6.52,0 12.262,2.422 17.191,7.34 4.879,4.883 7.34,10.821 7.34,17.813 0,6.84 -2.23,13.211 -6.558,19.07 -4.383,5.891 -10.434,10.5 -18.133,13.75 -6.051,2.457 -14.289,3.899 -24.68,4.207 l 21.563,43.75 z m 32.379,-96.398 c 2.582,0 4.77,-0.899 6.571,-2.66 1.75,-1.79 2.652,-3.981 2.652,-6.559 0,-2.5 -0.973,-4.731 -2.813,-6.563 -1.8,-1.757 -3.949,-2.66 -6.41,-2.66 -2.5,0 -4.719,0.903 -6.558,2.66 -1.801,1.832 -2.661,4.063 -2.661,6.563 0,2.578 0.86,4.769 2.661,6.559 1.839,1.761 4.058,2.66 6.558,2.66 z m 94.921,96.398 -6.4,-14.058 h -33.911 l -7.34,-15.149 c 14.652,-2.109 26.291,-7.543 34.841,-16.25 7.39,-7.621 11.1,-16.492 11.1,-26.57 0,-5.93 -1.29,-11.481 -3.75,-16.563 -2.43,-5 -5.43,-9.297 -9.07,-12.808 -3.67,-3.559 -7.73,-6.45 -12.18,-8.602 -6.371,-3 -12.89,-4.527 -19.531,-4.527 -6.801,0 -11.758,1.179 -14.848,3.437 -3.051,2.274 -4.531,4.84 -4.531,7.66 0,1.524 0.621,2.891 1.879,4.063 1.32,1.211 2.961,1.867 4.84,1.867 1.441,0 2.691,-0.269 3.75,-0.777 1.133,-0.43 3.011,-1.52 5.621,-3.281 4.031,-2.93 8.211,-4.372 12.5,-4.372 6.531,0 12.27,2.422 17.19,7.34 4.88,4.883 7.34,10.821 7.34,17.813 0,6.84 -2.22,13.211 -6.56,19.07 -4.37,5.891 -10.431,10.5 -18.119,13.75 -6.062,2.457 -14.3,3.899 -24.691,4.207 l 21.559,43.75 z" /><path
         id="path100"
         style="fill:#000000;fill-opacity:1;fill-rule:nonzero;stroke:none"
         d="m 1360.86,407.852 v -2.973 c -7.31,-0.738 -13.32,-2.219 -17.97,-4.367 -4.61,-2.192 -9.18,-5.551 -13.75,-10 -4.49,-4.5 -8.24,-9.5 -11.25,-15 -2.93,-5.551 -5.39,-12.114 -7.34,-19.692 8,5.508 16.01,8.282 24.06,8.282 7.69,0 14.37,-3.161 20,-9.372 5.59,-6.179 8.44,-14.152 8.44,-23.91 0,-9.379 -2.89,-17.929 -8.6,-25.629 -6.87,-9.492 -15.97,-14.211 -27.18,-14.211 -7.74,0 -14.26,2.532 -19.54,7.649 -10.54,9.883 -15.78,22.742 -15.78,38.601 0,9.961 1.96,19.532 5.94,28.59 4.02,9.141 9.84,17.231 17.34,24.219 7.47,7.07 14.69,11.789 21.57,14.223 6.83,2.379 13.28,3.59 19.22,3.59 z m -51.72,-58.122 c -0.94,-7.429 -1.41,-13.402 -1.41,-17.968 0,-5.321 0.94,-11.141 2.82,-17.352 1.95,-6.25 4.92,-11.211 8.9,-14.84 2.78,-2.621 6.17,-3.91 10.16,-3.91 4.88,0 9.22,2.231 12.97,6.719 3.71,4.57 5.62,11.101 5.62,19.531 0,9.461 -1.91,17.66 -5.62,24.531 -3.75,6.957 -9.1,10.469 -15.94,10.469 -2.11,0 -4.41,-0.5 -6.87,-1.398 -2.43,-0.864 -5.98,-2.782 -10.63,-5.782 z" /><path
         id="path102"
         style="fill:#000000;fill-opacity:1;fill-rule:nonzero;stroke:none"
         d="m 1688.09,408.012 v -2.973 c -7.31,-0.738 -13.32,-2.23 -17.97,-4.379 -4.61,-2.18 -9.18,-5.539 -13.75,-10 -4.49,-4.488 -8.25,-9.488 -11.25,-15 -2.93,-5.539 -5.39,-12.109 -7.35,-19.68 8.01,5.5 16.02,8.282 24.07,8.282 7.69,0 14.37,-3.172 20,-9.383 5.58,-6.168 8.43,-14.141 8.43,-23.899 0,-9.378 -2.89,-17.929 -8.59,-25.628 -6.88,-9.493 -15.98,-14.223 -27.19,-14.223 -7.73,0 -14.26,2.543 -19.53,7.66 -10.55,9.883 -15.78,22.731 -15.78,38.59 0,9.961 1.95,19.531 5.94,28.601 4.02,9.141 9.84,17.219 17.34,24.211 7.46,7.071 14.69,11.797 21.56,14.219 6.84,2.391 13.28,3.602 19.22,3.602 z m -51.72,-58.133 c -0.94,-7.418 -1.41,-13.399 -1.41,-17.969 0,-5.308 0.94,-11.129 2.81,-17.34 1.96,-6.25 4.93,-11.211 8.91,-14.84 2.77,-2.621 6.17,-3.91 10.16,-3.91 4.88,0 9.21,2.231 12.96,6.719 3.72,4.57 5.63,11.09 5.63,19.531 0,9.45 -1.91,17.66 -5.63,24.532 -3.75,6.949 -9.1,10.468 -15.93,10.468 -2.11,0 -4.42,-0.511 -6.88,-1.41 -2.42,-0.859 -5.97,-2.769 -10.62,-5.781 z m 81.6,-40.617 c 2.58,0 4.76,-0.903 6.56,-2.66 1.76,-1.801 2.66,-3.981 2.66,-6.563 0,-2.5 -0.98,-4.73 -2.81,-6.559 -1.8,-1.761 -3.95,-2.66 -6.41,-2.66 -2.5,0 -4.73,0.899 -6.56,2.66 -1.8,1.829 -2.66,4.059 -2.66,6.559 0,2.582 0.86,4.762 2.66,6.563 1.83,1.757 4.06,2.66 6.56,2.66 z m 94.92,96.398 -6.41,-14.058 h -33.9 l -7.35,-15.161 c 14.65,-2.113 26.29,-7.531 34.85,-16.25 7.38,-7.613 11.09,-16.48 11.09,-26.562 0,-5.938 -1.29,-11.481 -3.75,-16.559 -2.42,-5 -5.43,-9.3 -9.06,-12.808 -3.67,-3.563 -7.74,-6.453 -12.19,-8.602 -6.37,-3 -12.89,-4.531 -19.53,-4.531 -6.8,0 -11.76,1.172 -14.84,3.441 -3.05,2.258 -4.53,4.84 -4.53,7.66 0,1.52 0.62,2.891 1.87,4.059 1.33,1.211 2.97,1.871 4.84,1.871 1.45,0 2.7,-0.269 3.75,-0.781 1.14,-0.43 3.01,-1.52 5.63,-3.277 4.02,-2.93 8.2,-4.372 12.5,-4.372 6.52,0 12.26,2.418 17.19,7.34 4.88,4.879 7.34,10.821 7.34,17.809 0,6.84 -2.23,13.199 -6.56,19.062 -4.38,5.899 -10.43,10.508 -18.13,13.75 -6.05,2.469 -14.29,3.911 -24.68,4.219 l 21.56,43.75 z" /><path
         id="path104"
         style="fill:#000000;fill-opacity:1;fill-rule:nonzero;stroke:none"
         d="m 2083.36,406.828 h 60.47 v -3.117 l -37.5,-111.723 h -9.38 l 33.6,101.41 h -30.94 c -6.25,0 -10.7,-0.82 -13.28,-2.347 -4.69,-2.5 -8.48,-6.442 -11.25,-11.723 l -2.5,0.942 z" /><path
         id="path106"
         style="fill:#000000;fill-opacity:1;fill-rule:nonzero;stroke:none"
         d="m 2413.71,406.828 h 60.47 v -3.117 l -37.5,-111.723 h -9.38 l 33.6,101.41 h -30.94 c -6.25,0 -10.7,-0.82 -13.28,-2.347 -4.69,-2.5 -8.48,-6.442 -11.25,-11.723 l -2.5,0.942 z m 89.1,-96.398 c 2.58,0 4.77,-0.899 6.57,-2.66 1.75,-1.79 2.65,-3.981 2.65,-6.559 0,-2.5 -0.98,-4.731 -2.81,-6.563 -1.8,-1.757 -3.95,-2.66 -6.41,-2.66 -2.5,0 -4.72,0.903 -6.56,2.66 -1.8,1.832 -2.66,4.063 -2.66,6.563 0,2.578 0.86,4.769 2.66,6.559 1.84,1.761 4.06,2.66 6.56,2.66 z m 94.92,96.398 -6.4,-14.058 h -33.91 l -7.34,-15.149 c 14.65,-2.109 26.29,-7.543 34.84,-16.25 7.38,-7.621 11.1,-16.492 11.1,-26.57 0,-5.93 -1.29,-11.481 -3.75,-16.563 -2.43,-5 -5.43,-9.297 -9.07,-12.808 -3.67,-3.559 -7.73,-6.45 -12.18,-8.602 -6.37,-3 -12.9,-4.527 -19.54,-4.527 -6.79,0 -11.75,1.179 -14.84,3.437 -3.05,2.274 -4.53,4.84 -4.53,7.66 0,1.524 0.62,2.891 1.87,4.063 1.33,1.211 2.97,1.867 4.85,1.867 1.44,0 2.69,-0.269 3.75,-0.777 1.13,-0.43 3.01,-1.52 5.62,-3.281 4.03,-2.93 8.21,-4.372 12.5,-4.372 6.53,0 12.27,2.422 17.19,7.34 4.88,4.883 7.34,10.821 7.34,17.813 0,6.84 -2.22,13.211 -6.56,19.07 -4.37,5.891 -10.43,10.5 -18.12,13.75 -6.06,2.457 -14.3,3.899 -24.69,4.207 l 21.56,43.75 z" /><path
         id="path108"
         style="fill:#000000;fill-opacity:1;fill-rule:nonzero;stroke:none"
         d="m 2878.83,349.73 c -8.99,7.258 -14.77,13.122 -17.35,17.5 -2.5,4.45 -3.75,9.098 -3.75,13.899 0,7.269 2.82,13.519 8.44,18.75 5.59,5.281 13.13,7.973 22.5,7.973 9.03,0 16.33,-2.461 21.88,-7.34 5.5,-4.934 8.28,-10.551 8.28,-16.883 0,-4.18 -1.53,-8.469 -4.53,-12.809 -2.93,-4.379 -9.14,-9.57 -18.6,-15.468 9.77,-7.5 16.25,-13.481 19.38,-17.813 4.14,-5.629 6.25,-11.598 6.25,-17.809 0,-7.929 -3.05,-14.73 -9.06,-20.32 -5.94,-5.621 -13.87,-8.43 -23.75,-8.43 -10.63,0 -18.95,3.348 -24.85,10.149 -4.8,5.281 -7.19,11.133 -7.19,17.5 0,4.961 1.64,9.922 5,14.851 3.32,4.879 9.11,10.309 17.35,16.25 z m 12.97,8.899 c 6.64,5.902 10.86,10.633 12.65,14.062 1.76,3.399 2.66,7.348 2.66,11.719 0,5.82 -1.68,10.352 -5,13.602 -3.24,3.316 -7.7,5 -13.28,5 -5.63,0 -10.24,-1.641 -13.75,-4.852 -3.56,-3.238 -5.31,-7.07 -5.31,-11.398 0,-2.934 0.7,-5.864 2.18,-8.75 1.45,-2.821 3.52,-5.551 6.25,-8.133 z m -9.07,-12.027 c -4.61,-3.981 -8.04,-8.243 -10.31,-12.813 -2.19,-4.488 -3.28,-9.418 -3.28,-14.687 0,-7.192 1.91,-12.93 5.78,-17.192 3.95,-4.289 8.95,-6.398 15,-6.398 5.9,0 10.67,1.636 14.22,5 3.63,3.398 5.47,7.539 5.47,12.34 0,3.949 -1.06,7.539 -3.13,10.777 -3.86,5.82 -11.79,13.48 -23.75,22.973 z" /><path
         id="path110"
         style="fill:#000000;fill-opacity:1;fill-rule:nonzero;stroke:none"
         d="m 3208.05,349.879 c -8.99,7.269 -14.77,13.133 -17.35,17.5 -2.5,4.449 -3.75,9.101 -3.75,13.91 0,7.262 2.82,13.512 8.44,18.75 5.59,5.27 13.13,7.973 22.5,7.973 9.02,0 16.33,-2.461 21.88,-7.352 5.5,-4.922 8.28,-10.539 8.28,-16.871 0,-4.18 -1.53,-8.48 -4.53,-12.809 -2.93,-4.378 -9.14,-9.57 -18.6,-15.468 9.77,-7.5 16.25,-13.481 19.38,-17.821 4.14,-5.621 6.25,-11.601 6.25,-17.812 0,-7.93 -3.05,-14.719 -9.07,-20.309 -5.93,-5.629 -13.86,-8.441 -23.75,-8.441 -10.62,0 -18.94,3.359 -24.84,10.16 -4.8,5.27 -7.19,11.133 -7.19,17.5 0,4.961 1.64,9.922 5,14.84 3.32,4.883 9.1,10.312 17.35,16.25 z m 12.97,8.91 c 6.64,5.902 10.86,10.621 12.65,14.063 1.76,3.398 2.66,7.339 2.66,11.718 0,5.821 -1.68,10.352 -5,13.59 -3.24,3.32 -7.7,5 -13.28,5 -5.63,0 -10.24,-1.64 -13.75,-4.84 -3.56,-3.242 -5.32,-7.07 -5.32,-11.41 0,-2.93 0.71,-5.859 2.19,-8.75 1.45,-2.808 3.52,-5.539 6.25,-8.121 z m -9.07,-12.027 c -4.61,-3.992 -8.04,-8.25 -10.31,-12.821 -2.19,-4.492 -3.28,-9.41 -3.28,-14.679 0,-7.192 1.91,-12.934 5.78,-17.192 3.95,-4.3 8.95,-6.41 15,-6.41 5.9,0 10.66,1.641 14.22,5 3.63,3.399 5.47,7.539 5.47,12.352 0,3.937 -1.06,7.539 -3.13,10.777 -3.86,5.82 -11.79,13.473 -23.75,22.973 z m 69.57,-37.5 c 2.58,0 4.77,-0.903 6.57,-2.66 1.75,-1.801 2.65,-3.981 2.65,-6.563 0,-2.5 -0.97,-4.73 -2.81,-6.559 -1.8,-1.761 -3.95,-2.66 -6.41,-2.66 -2.5,0 -4.72,0.899 -6.56,2.66 -1.8,1.829 -2.66,4.059 -2.66,6.559 0,2.582 0.86,4.762 2.66,6.563 1.84,1.757 4.06,2.66 6.56,2.66 z m 94.93,96.398 -6.41,-14.058 h -33.91 l -7.34,-15.161 c 14.65,-2.113 26.29,-7.531 34.84,-16.25 7.39,-7.613 11.1,-16.48 11.1,-26.562 0,-5.938 -1.29,-11.481 -3.75,-16.559 -2.43,-5 -5.43,-9.3 -9.07,-12.808 -3.67,-3.563 -7.73,-6.453 -12.18,-8.602 -6.37,-3 -12.89,-4.531 -19.53,-4.531 -6.8,0 -11.76,1.172 -14.85,3.441 -3.05,2.258 -4.53,4.84 -4.53,7.66 0,1.52 0.63,2.891 1.88,4.059 1.32,1.211 2.96,1.871 4.84,1.871 1.44,0 2.69,-0.269 3.75,-0.781 1.13,-0.43 3.01,-1.52 5.62,-3.277 4.03,-2.93 8.21,-4.372 12.5,-4.372 6.53,0 12.27,2.418 17.19,7.34 4.88,4.879 7.35,10.821 7.35,17.809 0,6.84 -2.23,13.199 -6.57,19.062 -4.37,5.899 -10.43,10.508 -18.12,13.75 -6.06,2.469 -14.3,3.911 -24.69,4.219 l 21.56,43.75 z" /><path
         id="path112"
         style="fill:#000000;fill-opacity:1;fill-rule:nonzero;stroke:none"
         d="m 3643.59,290.82 v 3.121 c 7.15,0.079 13.83,1.758 20,5 6.21,3.207 12.23,8.829 17.97,16.879 5.82,8.09 9.89,17.032 12.19,26.719 -8.67,-5.629 -16.52,-8.437 -23.59,-8.437 -7.93,0 -14.73,3.046 -20.32,9.218 -5.62,6.129 -8.43,14.258 -8.43,24.371 0,9.887 2.81,18.637 8.43,26.25 6.84,9.34 15.78,14.071 26.72,14.071 9.14,0 17.07,-3.832 23.75,-11.41 8.01,-9.493 12.03,-21.172 12.03,-35 0,-12.5 -3.08,-24.18 -9.22,-35 -6.17,-10.864 -14.72,-19.883 -25.62,-27.032 -8.87,-5.859 -18.55,-8.75 -29.06,-8.75 z m 51.57,57.809 c 0.89,7.152 1.4,12.973 1.4,17.351 0,5.27 -0.97,11.09 -2.81,17.34 -1.8,6.211 -4.34,11.008 -7.66,14.371 -3.36,3.321 -7.14,5 -11.4,5 -4.92,0 -9.26,-2.261 -12.97,-6.711 -3.67,-4.378 -5.47,-10.98 -5.47,-19.691 0,-11.68 2.42,-20.859 7.34,-27.5 3.52,-4.687 7.97,-7.027 13.29,-7.027 2.46,0 5.46,0.539 8.9,1.718 3.52,1.211 6.64,2.961 9.38,5.149 z" /><path
         id="path114"
         style="fill:#000000;fill-opacity:1;fill-rule:nonzero;stroke:none"
         d="m 1814.96,130.781 2.07,0.391 1.84,0.629 4.06,1.25 1.84,0.578 2.07,0.633 1.83,0.816 2.03,0.82 1.84,1.012 2.07,0.82 3.67,2.032 1.64,1.019 1.84,1.25 1.64,1.207 1.6,1.25 3.28,2.422 1.45,1.449 1.21,1.442 1.44,1.41 1.21,1.449 2.03,3.281 1.06,1.598 0.82,1.641 0.59,1.64 0.62,1.84 0.39,1.828 0.43,1.84 0.2,1.832 v 1.879 c 0,17.34 -18.21,30.43 -44.96,30.43 h -57.86 c -4.06,0 -5.93,0 -5.93,-4.059 0,-2.269 1.87,-2.269 5.74,-2.269 0.39,0 4.3,0 7.58,-0.391 3.67,-0.43 5.5,-0.629 5.5,-3.281 0,-0.821 -0.19,-1.449 -0.82,-3.91 L 1741.8,77.6602 c -2.03,-8.0118 -2.46,-9.6094 -18.4,-9.6094 -3.67,0 -5.51,0 -5.51,-4.1094 0,-2.2617 2.46,-2.2617 2.85,-2.2617 5.74,0 19.85,0.8203 25.55,0.8203 5.74,0 20.23,-0.8203 25.74,-0.8203 1.64,0 4.1,0 4.1,4.1016 0,2.2695 -1.83,2.2695 -5.7,2.2695 -7.38,0 -13.09,0 -13.09,3.668 0,1.2109 0.39,2.2226 0.59,3.4726 l 13.28,53.7496 h 24.34 l -0.2,4.5 h -22.89 l 13.28,52.93 c 1.21,4.918 1.84,6.949 5.71,7.57 1.87,0.2 8.39,0.2 12.26,0.2 14.53,0 37.23,0 37.23,-20.039 0,-6.954 -3.28,-21.051 -11.25,-28.832 -5.31,-5.309 -16.14,-11.829 -34.34,-11.829 l 0.2,-4.5 c 18.4,0 22.07,-11.25 22.07,-18.39 0,-3.09 -1.64,-9.422 -2.85,-14.1096 -1.45,-5.5 -3.29,-13.082 -3.29,-17.1797 0,-21.8398 24.54,-21.8398 27.19,-21.8398 17.19,0 24.34,20.4297 24.34,23.2773 0,2.461 -2.27,2.461 -2.46,2.461 -1.84,0 -2.27,-1.4414 -2.66,-2.8516 -5.12,-15.1484 -13.91,-18.6289 -18.4,-18.6289 -6.76,0 -8.16,4.5312 -8.16,12.5 0,6.332 1.21,16.7617 2.03,23.082 0.43,2.8593 0.82,6.7583 0.82,9.6093 0,15.508 -13.71,21.879 -19.22,23.91 z" /><path
         id="path116"
         style="fill:#000000;fill-opacity:1;fill-rule:nonzero;stroke:none"
         d="m 1966.84,13.0508 v 0.8203 h -0.2 v 0.1875 l -0.23,0.2031 -0.2,0.2266 v 0.2031 h -0.19 v 0.1875 l -1.02,1.0195 -0.2,0.2305 v 0.1992 h -0.23 l -0.19,0.1914 v 0.1993 h -0.2 l -0.2,0.2304 v 0.1992 h -0.23 l -0.2,0.1914 v 0.1993 c -25.54,25.539 -32.07,63.9804 -32.07,95.0389 0,35.352 7.74,70.742 32.7,96.051 2.66,2.461 2.66,2.891 2.66,3.48 0,1.442 -0.82,2.071 -2.04,2.071 -2.07,0 -20.23,-13.91 -32.3,-39.649 -10.43,-22.301 -12.7,-44.961 -12.7,-61.953 0,-15.9374 2.08,-40.4686 13.32,-63.3592 12.23,-24.918 29.61,-38.2071 31.68,-38.2071 1.22,0 2.04,0.5899 2.04,2.0391 z" /><path
         id="path118"
         style="fill:#000000;fill-opacity:1;fill-rule:nonzero;stroke:none"
         d="m 2014.45,149.371 v 23.52 c 0,17.769 9.61,27.578 18.6,27.578 0.62,0 3.67,0 6.75,-1.41 -2.46,-0.821 -6.13,-3.481 -6.13,-8.59 0,-4.489 3.28,-8.598 8.79,-8.598 5.94,0 8.99,4.109 8.99,8.789 0,7.578 -7.58,14.301 -18.4,14.301 -14.1,0 -31.49,-10.82 -31.49,-32.27 v -23.32 h -16.13 v -6.32 h 16.13 V 77.2305 c 0,-9.1797 -2.22,-9.1797 -15.94,-9.1797 v -6.3711 c 7.97,0.4297 17.58,0.8203 23.33,0.8203 8.16,0 17.57,0 25.74,-0.8203 v 6.3711 h -4.3 c -14.92,0 -15.31,2.2187 -15.31,9.6094 v 65.3908 h 23.08 v 6.32 z" /><path
         id="path120"
         style="fill:#000000;fill-opacity:1;fill-rule:nonzero;stroke:none"
         d="M 2063.32,131.602 V 77.2305 c 0,-9.1797 -2.07,-9.1797 -15.74,-9.1797 v -6.3711 c 7.15,0.4297 17.34,0.8203 22.89,0.8203 5.31,0 15.94,-0.3906 22.89,-0.8203 v 6.3711 c -13.71,0 -15.94,0 -15.94,9.1797 v 37.4175 c 0,21.051 14.49,32.5 27.38,32.5 12.86,0 15.12,-11.058 15.12,-22.5 V 77.2305 c 0,-9.1797 -2.26,-9.1797 -15.94,-9.1797 v -6.3711 c 7.15,0.4297 17.58,0.8203 23.09,0.8203 5.31,0 15.94,-0.3906 22.7,-0.8203 v 6.3711 c -13.48,0 -15.75,0 -15.75,9.1797 v 37.4175 c 0,21.051 14.3,32.5 27.39,32.5 12.89,0 15.11,-11.058 15.11,-22.5 V 77.2305 c 0,-9.1797 -2.22,-9.1797 -15.93,-9.1797 v -6.3711 c 7.14,0.4297 17.57,0.8203 22.89,0.8203 5.31,0 15.93,-0.3906 22.89,-0.8203 v 6.3711 c -10.63,0 -15.75,0 -15.94,6.1289 v 38.8323 c 0,17.34 0,23.707 -6.33,31.047 -2.85,3.48 -9.41,7.582 -21.25,7.582 -17.19,0 -25.97,-12.27 -29.45,-20.039 -2.85,17.769 -17.97,20.039 -27.19,20.039 -14.69,0 -24.3,-8.789 -30.04,-21.481 v 21.481 l -28.59,-2.27 v -6.32 c 14.3,0 15.74,-1.449 15.74,-11.449 z" /><path
         id="path122"
         style="fill:#000000;fill-opacity:1;fill-rule:nonzero;stroke:none"
         d="m 2269.53,112.578 v 3.082 l -0.19,1.641 v 1.609 l -0.2,3.469 -0.23,3.48 -0.2,3.711 -0.62,3.871 -0.39,4.098 -0.82,4.063 -0.83,4.097 -0.82,4.301 -1.01,4.301 -1.45,4.289 -1.4,4.262 -1.45,4.296 -1.01,2.262 -0.82,2.231 -1.02,2.07 -1.02,2.23 c -12.26,24.957 -29.64,38.239 -31.67,38.239 -1.26,0 -2.08,-0.821 -2.08,-2.071 0,-0.589 0,-1.019 3.91,-4.687 19.81,-20.231 31.49,-52.543 31.49,-94.844 0,-34.7264 -7.58,-70.5077 -32.74,-96.0585 -2.66,-2.4609 -2.66,-2.8476 -2.66,-3.4687 0,-1.2227 0.82,-2.0391 2.08,-2.0391 2.03,0 20.23,13.9102 32.26,39.6485 10.43,22.2695 12.89,44.7695 12.89,61.9178 z" /><path
         id="path124"
         style="fill:#000000;fill-opacity:1;fill-rule:nonzero;stroke:none"
         d="m 337.539,2349.37 c 0,11.33 1.641,21.1 5,29.22 3.402,8.21 8.012,14.3 13.75,18.28 4.332,3.21 8.91,4.85 13.59,4.85 7.582,0 14.422,-3.95 20.473,-11.72 7.578,-9.61 11.41,-22.62 11.41,-39.06 0,-11.57 -1.684,-21.37 -5,-29.38 -3.364,-8.05 -7.621,-13.87 -12.813,-17.5 -5.121,-3.67 -10.078,-5.47 -14.847,-5.47 -9.493,0 -17.383,5.55 -23.59,16.72 -5.313,9.45 -7.973,20.82 -7.973,34.06 z m 14.371,-1.87 c 0,-13.67 1.641,-24.81 5,-33.44 2.781,-7.3 6.961,-10.94 12.5,-10.94 2.578,0 5.32,1.18 8.129,3.6 2.77,2.38 4.922,6.33 6.41,11.87 2.262,8.4 3.43,20.32 3.43,35.63 0,11.21 -1.207,20.66 -3.59,28.28 -1.68,5.58 -3.949,9.57 -6.719,11.87 -1.992,1.64 -4.449,2.5 -7.34,2.5 -3.25,0 -6.179,-1.52 -8.75,-4.53 -3.558,-4.06 -5.98,-10.51 -7.191,-19.22 -1.25,-8.67 -1.879,-17.22 -1.879,-25.62 z m 71.371,-32.97 c 2.27,0 4.219,-0.86 5.778,-2.5 1.531,-1.56 2.351,-3.48 2.351,-5.62 0,-2.31 -0.82,-4.26 -2.351,-5.79 -1.559,-1.52 -3.508,-2.34 -5.778,-2.34 -2.301,0 -4.261,0.82 -5.781,2.34 -1.559,1.53 -2.34,3.48 -2.34,5.79 0,2.26 0.781,4.21 2.34,5.78 1.52,1.52 3.48,2.34 5.781,2.34 z m 82.617,85.16 -5.777,-12.5 H 470.27 l -6.559,-13.28 c 12.891,-2 23.168,-6.84 30.777,-14.54 6.453,-6.56 9.692,-14.41 9.692,-23.43 0,-5.24 -1.059,-10.08 -3.129,-14.53 -2.102,-4.38 -4.762,-8.17 -7.961,-11.25 -3.25,-3.13 -6.84,-5.67 -10.789,-7.5 -5.621,-2.7 -11.442,-4.07 -17.34,-4.07 -5.941,0 -10.27,1.02 -12.973,2.97 -2.726,2.07 -4.058,4.3 -4.058,6.72 0,1.33 0.55,2.54 1.718,3.59 1.133,1.02 2.543,1.57 4.223,1.57 1.207,0 2.34,-0.24 3.277,-0.63 0.903,-0.31 2.543,-1.33 4.84,-2.97 3.711,-2.5 7.5,-3.75 11.25,-3.75 5.711,0 10.711,2.11 15,6.41 4.262,4.33 6.41,9.69 6.41,15.94 0,5.89 -1.949,11.48 -5.777,16.72 -3.871,5.19 -9.18,9.21 -15.941,12.03 -5.309,2.14 -12.578,3.47 -21.719,3.9 l 19.059,38.6 z" /><path
         id="path126"
         style="fill:#000000;fill-opacity:1;fill-rule:nonzero;stroke:none"
         d="m 333.012,2126.29 c 0,11.33 1.636,21.09 5,29.22 3.398,8.2 8.008,14.29 13.75,18.28 4.328,3.2 8.898,4.84 13.59,4.84 7.578,0 14.418,-3.94 20.468,-11.72 7.578,-9.61 11.41,-22.61 11.41,-39.06 0,-11.56 -1.679,-21.37 -5,-29.37 -3.359,-8.05 -7.621,-13.87 -12.82,-17.5 -5.109,-3.68 -10.07,-5.47 -14.84,-5.47 -9.492,0 -17.379,5.54 -23.59,16.72 -5.32,9.45 -7.968,20.82 -7.968,34.06 z m 14.367,-1.88 c 0,-13.67 1.641,-24.8 5,-33.43 2.781,-7.31 6.961,-10.94 12.5,-10.94 2.582,0 5.32,1.17 8.133,3.59 2.769,2.38 4.918,6.33 6.398,11.88 2.27,8.4 3.442,20.31 3.442,35.62 0,11.21 -1.211,20.67 -3.59,28.28 -1.684,5.59 -3.953,9.57 -6.723,11.88 -1.988,1.64 -4.449,2.5 -7.34,2.5 -3.25,0 -6.179,-1.53 -8.75,-4.53 -3.558,-4.07 -5.98,-10.51 -7.187,-19.22 -1.25,-8.67 -1.883,-17.23 -1.883,-25.63 z m 71.371,-32.97 c 2.27,0 4.219,-0.86 5.781,-2.5 1.52,-1.56 2.348,-3.47 2.348,-5.62 0,-2.31 -0.828,-4.26 -2.348,-5.78 -1.562,-1.53 -3.511,-2.35 -5.781,-2.35 -2.301,0 -4.262,0.82 -5.781,2.35 -1.559,1.52 -2.348,3.47 -2.348,5.78 0,2.26 0.789,4.22 2.348,5.78 1.519,1.52 3.48,2.34 5.781,2.34 z m 87.301,22.35 v -10.31 h -13.43 v -26.25 H 480.59 v 26.25 h -42.039 v 9.37 l 46.097,65.78 h 7.973 v -64.84 z m -25.461,0 v 49.37 l -34.852,-49.37 z" /><path
         id="path128"
         style="fill:#000000;fill-opacity:1;fill-rule:nonzero;stroke:none"
         d="m 340,1874.18 c 0,11.33 1.641,21.09 5,29.22 3.398,8.2 8.012,14.29 13.75,18.28 4.34,3.2 8.91,4.84 13.59,4.84 7.582,0 14.422,-3.94 20.469,-11.72 7.582,-9.61 11.41,-22.61 11.41,-39.06 0,-11.56 -1.68,-21.37 -5,-29.37 -3.36,-8.05 -7.617,-13.87 -12.809,-17.5 -5.121,-3.68 -10.082,-5.47 -14.851,-5.47 -9.489,0 -17.379,5.54 -23.59,16.72 -5.309,9.45 -7.969,20.82 -7.969,34.06 z m 14.379,-1.88 c 0,-13.67 1.641,-24.8 5,-33.43 2.769,-7.31 6.949,-10.94 12.5,-10.94 2.57,0 5.312,1.17 8.121,3.59 2.77,2.39 4.922,6.33 6.41,11.88 2.262,8.4 3.43,20.31 3.43,35.62 0,11.21 -1.211,20.67 -3.59,28.28 -1.68,5.59 -3.949,9.57 -6.719,11.88 -1.992,1.64 -4.453,2.5 -7.34,2.5 -3.242,0 -6.171,-1.52 -8.75,-4.53 -3.562,-4.07 -5.98,-10.51 -7.191,-19.22 -1.25,-8.67 -1.871,-17.23 -1.871,-25.63 z m 71.359,-32.97 c 2.274,0 4.223,-0.85 5.782,-2.5 1.531,-1.56 2.351,-3.47 2.351,-5.62 0,-2.3 -0.82,-4.26 -2.351,-5.78 -1.559,-1.52 -3.508,-2.35 -5.782,-2.35 -2.297,0 -4.258,0.83 -5.777,2.35 -1.563,1.52 -2.34,3.48 -2.34,5.78 0,2.27 0.777,4.22 2.34,5.78 1.519,1.52 3.48,2.34 5.777,2.34 z m 25.16,66.25 c 2.774,6.65 6.332,11.8 10.622,15.47 4.339,3.64 9.769,5.47 16.25,5.47 7.89,0 13.992,-2.61 18.281,-7.81 3.211,-3.87 4.847,-8.01 4.847,-12.34 0,-7.31 -4.57,-14.81 -13.597,-22.5 6.019,-2.43 10.629,-5.86 13.75,-10.32 3.09,-4.37 4.687,-9.61 4.687,-15.62 0,-8.56 -2.726,-15.98 -8.117,-22.19 -7.191,-8.24 -17.543,-12.34 -30.941,-12.34 -6.801,0 -11.371,0.86 -13.75,2.5 -2.418,1.64 -3.59,3.43 -3.59,5.31 0,1.45 0.539,2.7 1.711,3.75 1.14,1.02 2.5,1.56 4.07,1.56 1.207,0 2.5,-0.23 3.75,-0.62 0.82,-0.24 2.688,-1.14 5.617,-2.66 3.012,-1.48 5.043,-2.38 6.102,-2.66 1.832,-0.54 3.789,-0.78 5.781,-0.78 4.957,0 9.289,1.92 12.969,5.78 3.711,3.83 5.621,8.36 5.621,13.6 0,3.83 -0.859,7.58 -2.5,11.25 -1.371,2.77 -2.77,4.88 -4.223,6.25 -2.109,1.95 -5.039,3.75 -8.75,5.31 -3.668,1.52 -7.379,2.34 -11.09,2.34 h -2.347 v 2.35 c 3.828,0.39 7.699,1.76 11.57,4.06 3.828,2.27 6.641,5.04 8.43,8.28 1.758,3.21 2.66,6.76 2.66,10.63 0,4.96 -1.602,9.06 -4.691,12.18 -3.122,3.09 -7.071,4.69 -11.719,4.69 -7.61,0 -13.981,-4.1 -19.063,-12.19 z" /><path
         id="path130"
         style="fill:#000000;fill-opacity:1;fill-rule:nonzero;stroke:none"
         d="m 333.98,1640.19 c 0,11.33 1.641,21.1 5,29.22 3.399,8.21 8.008,14.3 13.75,18.28 4.34,3.21 8.911,4.85 13.598,4.85 7.582,0 14.41,-3.95 20.473,-11.72 7.578,-9.61 11.398,-22.62 11.398,-39.06 0,-11.57 -1.679,-21.37 -5,-29.38 -3.359,-8.05 -7.609,-13.87 -12.808,-17.5 -5.121,-3.67 -10.082,-5.47 -14.84,-5.47 -9.5,0 -17.391,5.55 -23.602,16.72 -5.308,9.45 -7.969,20.82 -7.969,34.06 z m 14.379,-1.87 c 0,-13.67 1.641,-24.81 5,-33.44 2.77,-7.3 6.95,-10.94 12.5,-10.94 2.582,0 5.313,1.18 8.121,3.6 2.782,2.38 4.93,6.33 6.411,11.87 2.269,8.4 3.437,20.32 3.437,35.63 0,11.21 -1.207,20.66 -3.598,28.28 -1.679,5.59 -3.941,9.57 -6.71,11.87 -2,1.64 -4.461,2.5 -7.348,2.5 -3.242,0 -6.172,-1.52 -8.75,-4.53 -3.551,-4.06 -5.973,-10.5 -7.192,-19.22 -1.25,-8.67 -1.871,-17.22 -1.871,-25.62 z m 71.371,-32.97 c 2.258,0 4.219,-0.86 5.782,-2.5 1.519,-1.56 2.34,-3.48 2.34,-5.62 0,-2.31 -0.821,-4.26 -2.34,-5.79 -1.563,-1.52 -3.524,-2.34 -5.782,-2.34 -2.308,0 -4.261,0.82 -5.781,2.34 -1.57,1.53 -2.347,3.48 -2.347,5.79 0,2.26 0.777,4.21 2.347,5.78 1.52,1.52 3.473,2.34 5.781,2.34 z m 86.25,4.84 -6.878,-19.06 h -58.59 v 2.66 c 17.148,15.7 29.258,28.59 36.25,38.59 7.066,9.96 10.617,19.1 10.617,27.35 0,6.21 -1.949,11.4 -5.777,15.46 -3.872,4.03 -8.512,6.1 -13.903,6.1 -4.808,0 -9.179,-1.49 -13.129,-4.38 -3.871,-2.81 -6.761,-6.99 -8.59,-12.5 h -2.66 c 1.211,9.03 4.379,15.98 9.379,20.78 5.071,4.89 11.403,7.35 18.903,7.35 8.089,0 14.847,-2.62 20.16,-7.81 5.386,-5.24 8.117,-11.33 8.117,-18.29 0,-5 -1.168,-10.07 -3.43,-15.15 -3.679,-7.93 -9.57,-16.29 -17.66,-25 -12.109,-13.36 -19.73,-21.37 -22.809,-24.06 h 25.93 c 5.281,0 8.988,0.15 11.102,0.46 2.148,0.39 4.097,1.18 5.777,2.35 1.762,1.21 3.281,2.97 4.531,5.15 z" /><path
         id="path132"
         style="fill:#000000;fill-opacity:1;fill-rule:nonzero;stroke:none"
         d="m 345.66,1402.58 c 0,11.33 1.641,21.09 5,29.22 3.399,8.2 8.012,14.29 13.75,18.28 4.34,3.2 8.91,4.84 13.602,4.84 7.578,0 14.41,-3.94 20.468,-11.72 7.571,-9.61 11.399,-22.62 11.399,-39.06 0,-11.56 -1.68,-21.37 -5,-29.38 -3.359,-8.04 -7.609,-13.86 -12.809,-17.5 -5.121,-3.67 -10.082,-5.46 -14.84,-5.46 -9.5,0 -17.39,5.54 -23.601,16.71 -5.309,9.46 -7.969,20.82 -7.969,34.07 z m 14.379,-1.88 c 0,-13.67 1.641,-24.8 5,-33.44 2.77,-7.3 6.949,-10.93 12.5,-10.93 2.582,0 5.313,1.17 8.121,3.59 2.781,2.38 4.93,6.33 6.41,11.88 2.27,8.39 3.442,20.31 3.442,35.62 0,11.21 -1.211,20.66 -3.602,28.28 -1.68,5.59 -3.941,9.57 -6.711,11.88 -2,1.64 -4.461,2.5 -7.347,2.5 -3.243,0 -6.172,-1.53 -8.75,-4.53 -3.551,-4.07 -5.981,-10.51 -7.192,-19.22 -1.25,-8.67 -1.871,-17.23 -1.871,-25.63 z m 71.371,-32.97 c 2.262,0 4.211,-0.86 5.781,-2.5 1.52,-1.56 2.34,-3.47 2.34,-5.62 0,-2.31 -0.82,-4.26 -2.34,-5.78 -1.57,-1.53 -3.519,-2.35 -5.781,-2.35 -2.308,0 -4.262,0.82 -5.789,2.35 -1.562,1.52 -2.34,3.47 -2.34,5.78 0,2.26 0.778,4.22 2.34,5.78 1.527,1.52 3.481,2.34 5.789,2.34 z m 35.149,75.32 24.062,11.87 h 2.5 v -83.91 c 0,-5.54 0.199,-9.02 0.629,-10.46 0.512,-1.37 1.48,-2.43 2.969,-3.13 1.441,-0.74 4.41,-1.17 8.902,-1.25 v -2.66 h -37.34 v 2.66 c 4.649,0.08 7.699,0.51 9.059,1.25 1.332,0.7 2.269,1.64 2.82,2.81 0.5,1.21 0.781,4.85 0.781,10.78 v 53.6 c 0,7.26 -0.242,11.91 -0.632,13.9 -0.43,1.53 -1.129,2.7 -2.028,3.44 -0.859,0.71 -1.91,1.1 -3.121,1.1 -1.879,0 -4.422,-0.75 -7.5,-2.19 z" /><path
         id="path134"
         style="fill:#000000;fill-opacity:1;fill-rule:nonzero;stroke:none"
         d="m 441.84,1172.11 c 0,11.33 1.64,21.09 5,29.22 3.39,8.2 8,14.29 13.75,18.28 4.332,3.2 8.898,4.84 13.59,4.84 7.582,0 14.41,-3.94 20.468,-11.72 7.582,-9.61 11.403,-22.61 11.403,-39.06 0,-11.56 -1.672,-21.37 -5,-29.37 -3.352,-8.05 -7.61,-13.87 -12.813,-17.5 -5.117,-3.68 -10.078,-5.47 -14.84,-5.47 -9.488,0 -17.378,5.54 -23.597,16.72 -5.313,9.45 -7.961,20.82 -7.961,34.06 z m 14.371,-1.88 c 0,-13.67 1.641,-24.8 5,-33.43 2.769,-7.31 6.949,-10.94 12.5,-10.94 2.578,0 5.309,1.17 8.129,3.59 2.769,2.38 4.922,6.33 6.398,11.88 2.274,8.4 3.442,20.31 3.442,35.62 0,11.21 -1.211,20.67 -3.59,28.28 -1.68,5.59 -3.949,9.57 -6.719,11.88 -1.992,1.64 -4.461,2.5 -7.351,2.5 -3.239,0 -6.168,-1.53 -8.75,-4.53 -3.551,-4.07 -5.969,-10.51 -7.18,-19.22 -1.25,-8.67 -1.879,-17.23 -1.879,-25.63 z" /><path
         id="path136"
         style="fill:#000000;fill-opacity:1;fill-rule:nonzero;stroke:none"
         d="m 297.891,928.441 h 37.8086 V 917.3394 H 297.891 Z m 47.769,9.84 c 0,11.328 1.641,21.09 5,29.219 3.399,8.199 8.012,14.301 13.75,18.281 4.34,3.199 8.91,4.84 13.602,4.84 7.578,0 14.41,-3.941 20.468,-11.711 7.571,-9.609 11.399,-22.621 11.399,-39.07 0,-11.559 -1.68,-21.36 -5,-29.371 -3.359,-8.047 -7.609,-13.867 -12.809,-17.5 -5.121,-3.668 -10.082,-5.469 -14.84,-5.469 -9.5,0 -17.39,5.551 -23.601,16.719 -5.309,9.453 -7.969,20.82 -7.969,34.062 z m 14.379,-1.871 c 0,-13.68 1.641,-24.808 5,-33.441 2.77,-7.309 6.949,-10.938 12.5,-10.938 2.582,0 5.313,1.168 8.121,3.59 2.781,2.391 4.93,6.328 6.41,11.879 2.27,8.398 3.442,20.309 3.442,35.621 0,11.207 -1.211,20.668 -3.602,28.289 -1.68,5.578 -3.941,9.57 -6.711,11.871 -2,1.641 -4.461,2.5 -7.347,2.5 -3.243,0 -6.172,-1.519 -8.75,-4.531 -3.551,-4.059 -5.981,-10.512 -7.192,-19.219 -1.25,-8.672 -1.871,-17.23 -1.871,-25.621 z m 71.371,-32.969 c 2.262,0 4.211,-0.863 5.781,-2.5 1.52,-1.57 2.34,-3.48 2.34,-5.632 0,-2.297 -0.82,-4.258 -2.34,-5.778 -1.57,-1.519 -3.519,-2.34 -5.781,-2.34 -2.308,0 -4.262,0.821 -5.789,2.34 -1.562,1.52 -2.34,3.481 -2.34,5.778 0,2.269 0.778,4.222 2.34,5.781 1.527,1.531 3.481,2.351 5.789,2.351 z m 35.149,75.309 24.062,11.871 h 2.5 v -83.902 c 0,-5.547 0.199,-9.028 0.629,-10.469 0.512,-1.371 1.48,-2.422 2.969,-3.129 1.441,-0.742 4.41,-1.172 8.902,-1.25 v -2.652 h -37.34 v 2.652 c 4.649,0.078 7.699,0.508 9.059,1.25 1.332,0.707 2.269,1.641 2.82,2.82 0.5,1.207 0.781,4.84 0.781,10.778 v 53.59 c 0,7.269 -0.242,11.921 -0.632,13.91 -0.43,1.519 -1.129,2.691 -2.028,3.441 -0.859,0.699 -1.91,1.09 -3.121,1.09 -1.879,0 -4.422,-0.738 -7.5,-2.191 z" /><path
         id="path138"
         style="fill:#000000;fill-opacity:1;fill-rule:nonzero;stroke:none"
         d="m 286.211,690.82 h 37.8086 V 679.7302 H 286.211 Z m 47.769,9.84 c 0,11.328 1.641,21.102 5,29.219 3.399,8.199 8.008,14.301 13.75,18.281 4.34,3.211 8.911,4.852 13.598,4.852 7.582,0 14.41,-3.953 20.473,-11.723 7.578,-9.609 11.398,-22.617 11.398,-39.059 0,-11.57 -1.679,-21.371 -5,-29.378 -3.359,-8.051 -7.609,-13.872 -12.808,-17.5 -5.121,-3.672 -10.082,-5.473 -14.84,-5.473 -9.5,0 -17.391,5.551 -23.602,16.723 -5.308,9.449 -7.969,20.82 -7.969,34.058 z m 14.379,-1.871 c 0,-13.668 1.641,-24.809 5,-33.437 2.77,-7.301 6.95,-10.942 12.5,-10.942 2.582,0 5.313,1.168 8.121,3.602 2.782,2.379 4.93,6.316 6.411,11.867 2.269,8.402 3.437,20.312 3.437,35.633 0,11.207 -1.207,20.66 -3.598,28.277 -1.679,5.582 -3.941,9.57 -6.71,11.871 -2,1.641 -4.461,2.5 -7.348,2.5 -3.242,0 -6.172,-1.519 -8.75,-4.531 -3.551,-4.059 -5.973,-10.508 -7.192,-19.219 -1.25,-8.672 -1.871,-17.219 -1.871,-25.621 z M 419.73,665.82 c 2.258,0 4.219,-0.859 5.782,-2.5 1.519,-1.558 2.34,-3.48 2.34,-5.629 0,-2.3 -0.821,-4.25 -2.34,-5.781 -1.563,-1.519 -3.524,-2.34 -5.782,-2.34 -2.308,0 -4.261,0.821 -5.781,2.34 -1.57,1.531 -2.347,3.481 -2.347,5.781 0,2.27 0.777,4.219 2.347,5.789 1.52,1.52 3.473,2.34 5.781,2.34 z m 86.25,4.84 -6.878,-19.058 h -58.59 v 2.66 c 17.148,15.699 29.258,28.59 36.25,38.59 7.066,9.957 10.617,19.097 10.617,27.339 0,6.219 -1.949,11.411 -5.777,15.469 -3.872,4.031 -8.512,6.102 -13.903,6.102 -4.808,0 -9.179,-1.492 -13.129,-4.383 -3.871,-2.809 -6.761,-6.988 -8.59,-12.5 h -2.66 c 1.211,9.031 4.379,15.98 9.379,20.781 5.071,4.891 11.403,7.352 18.903,7.352 8.089,0 14.847,-2.621 20.16,-7.821 5.386,-5.23 8.117,-11.32 8.117,-18.281 0,-5 -1.168,-10.082 -3.43,-15.148 -3.679,-7.934 -9.57,-16.293 -17.66,-25 -12.109,-13.364 -19.73,-21.371 -22.809,-24.071 h 25.93 c 5.281,0 8.988,0.161 11.102,0.469 2.148,0.391 4.097,1.168 5.777,2.352 1.762,1.207 3.281,2.968 4.531,5.148 z" /><path
         id="path140"
         style="fill:#000000;fill-opacity:1;fill-rule:nonzero;stroke:none"
         d="m 292.23,445.98 h 37.8086 V 434.8784 H 292.23 Z m 47.77,9.84 c 0,11.328 1.641,21.09 5,29.219 3.398,8.199 8.012,14.289 13.75,18.281 4.34,3.2 8.91,4.84 13.59,4.84 7.582,0 14.422,-3.941 20.469,-11.719 7.582,-9.613 11.41,-22.613 11.41,-39.062 0,-11.559 -1.68,-21.367 -5,-29.367 -3.36,-8.051 -7.617,-13.871 -12.809,-17.5 -5.121,-3.684 -10.082,-5.473 -14.851,-5.473 -9.489,0 -17.379,5.539 -23.59,16.723 C 342.66,431.211 340,442.578 340,455.82 Z m 14.379,-1.879 c 0,-13.671 1.641,-24.8 5,-33.429 2.769,-7.313 6.949,-10.942 12.5,-10.942 2.57,0 5.312,1.168 8.121,3.59 2.77,2.391 4.922,6.328 6.41,11.879 2.262,8.402 3.43,20.313 3.43,35.621 0,11.211 -1.211,20.668 -3.59,28.281 -1.68,5.59 -3.949,9.571 -6.719,11.879 -1.992,1.641 -4.453,2.5 -7.34,2.5 -3.242,0 -6.171,-1.519 -8.75,-4.531 -3.562,-4.059 -5.98,-10.508 -7.191,-19.219 -1.25,-8.672 -1.871,-17.23 -1.871,-25.629 z m 71.359,-32.961 c 2.274,0 4.223,-0.859 5.782,-2.5 1.531,-1.57 2.351,-3.48 2.351,-5.628 0,-2.301 -0.82,-4.262 -2.351,-5.782 -1.559,-1.519 -3.508,-2.34 -5.782,-2.34 -2.297,0 -4.258,0.821 -5.777,2.34 -1.563,1.52 -2.34,3.481 -2.34,5.782 0,2.269 0.777,4.218 2.34,5.777 1.519,1.531 3.48,2.351 5.777,2.351 z m 25.16,66.25 c 2.774,6.641 6.332,11.79 10.622,15.461 4.339,3.637 9.769,5.469 16.25,5.469 7.89,0 13.992,-2.609 18.281,-7.808 3.211,-3.872 4.847,-8.012 4.847,-12.34 0,-7.313 -4.57,-14.813 -13.597,-22.5 6.019,-2.434 10.629,-5.864 13.75,-10.321 3.09,-4.371 4.687,-9.613 4.687,-15.621 0,-8.558 -2.726,-15.98 -8.117,-22.191 -7.191,-8.238 -17.543,-12.34 -30.941,-12.34 -6.801,0 -11.371,0.859 -13.75,2.5 -2.418,1.641 -3.59,3.441 -3.59,5.313 0,1.449 0.539,2.699 1.711,3.75 1.14,1.019 2.5,1.558 4.07,1.558 1.207,0 2.5,-0.23 3.75,-0.621 0.82,-0.238 2.688,-1.129 5.617,-2.66 3.012,-1.481 5.043,-2.379 6.102,-2.649 1.832,-0.55 3.789,-0.789 5.781,-0.789 4.957,0 9.289,1.918 12.969,5.789 3.711,3.821 5.621,8.348 5.621,13.59 0,3.828 -0.859,7.578 -2.5,11.25 -1.371,2.77 -2.77,4.879 -4.223,6.25 -2.109,1.95 -5.039,3.75 -8.75,5.309 -3.668,1.531 -7.379,2.351 -11.09,2.351 h -2.347 v 2.34 c 3.828,0.391 7.699,1.758 11.57,4.059 3.828,2.269 6.641,5.043 8.43,8.281 1.758,3.211 2.66,6.762 2.66,10.629 0,4.961 -1.602,9.063 -4.691,12.191 -3.122,3.079 -7.071,4.68 -11.719,4.68 -7.61,0 -13.981,-4.101 -19.063,-12.18 z" /><path
         id="path142"
         style="fill:none;stroke:#ff0000;stroke-width:8.78441048;stroke-linecap:square;stroke-linejoin:miter;stroke-miterlimit:3.79999995;stroke-dasharray:8.78441, 8.78441;stroke-dashoffset:0;stroke-opacity:1"
         d="M 908.441,2165.94 H 1205.39" /><path
         id="path144"
         style="fill:#000000;fill-opacity:1;fill-rule:nonzero;stroke:none"
         d="m 1297.19,2165.08 c 0,-10 2.42,-17.85 7.34,-23.44 4.77,-5.74 10.51,-8.59 17.19,-8.59 4.33,0 8.16,1.17 11.4,3.59 3.21,2.46 5.94,6.64 8.13,12.5 l 2.34,-1.41 c -1.05,-6.79 -4.1,-12.93 -9.06,-18.43 -4.92,-5.43 -11.05,-8.13 -18.44,-8.13 -8.04,0 -14.92,3.13 -20.62,9.38 -5.74,6.21 -8.59,14.68 -8.59,25.31 0,11.44 2.89,20.39 8.74,26.87 5.9,6.45 13.33,9.69 22.19,9.69 7.46,0 13.64,-2.54 18.44,-7.5 4.88,-5 7.34,-11.64 7.34,-19.84 z m 0,4.22 h 31.09 c -0.23,4.25 -0.74,7.26 -1.56,9.06 -1.25,2.69 -3.09,4.84 -5.47,6.4 -2.42,1.53 -4.92,2.35 -7.5,2.35 -4.06,0 -7.73,-1.6 -10.94,-4.69 -3.24,-3.12 -5.11,-7.54 -5.62,-13.12 z m 51.36,20.93 h 31.57 v -2.65 c -2.11,0 -3.56,-0.39 -4.38,-1.1 -0.74,-0.62 -1.09,-1.52 -1.09,-2.65 0,-1.17 0.82,-3.01 2.5,-5.47 0.58,-0.74 1.44,-1.95 2.5,-3.6 l 4.69,-7.65 5.62,7.65 c 3.4,4.77 5.16,7.86 5.16,9.22 0,0.9 -0.43,1.76 -1.25,2.5 -0.86,0.71 -2.15,1.1 -3.91,1.1 v 2.65 h 22.66 v -2.65 c -2.42,-0.12 -4.5,-0.82 -6.25,-2.03 -2.42,-1.68 -5.71,-5.28 -9.85,-10.79 l -9.06,-12.18 16.56,-24.07 c 4.14,-5.93 7.11,-9.57 8.91,-10.78 1.76,-1.17 3.98,-1.79 6.72,-1.87 v -2.66 h -31.56 v 2.66 c 2.14,0 3.9,0.47 5.15,1.4 0.9,0.71 1.41,1.65 1.41,2.82 0,1.01 -1.6,3.83 -4.69,8.43 l -9.84,14.38 -10.78,-14.38 c -3.36,-4.49 -5,-7.14 -5,-7.96 0,-1.18 0.5,-2.23 1.56,-3.13 1.13,-0.94 2.81,-1.48 5,-1.56 v -2.66 h -21.88 v 2.66 c 1.76,0.19 3.28,0.82 4.53,1.87 1.84,1.33 5,4.93 9.38,10.78 l 14.06,18.75 -12.65,18.44 c -3.68,5.2 -6.49,8.48 -8.44,9.85 -1.99,1.32 -4.45,2.03 -7.35,2.03 z m 114.18,-57.34 c -6.87,-5.31 -11.21,-8.4 -12.96,-9.22 -2.62,-1.21 -5.43,-1.87 -8.44,-1.87 -4.61,0 -8.4,1.56 -11.41,4.68 -3.04,3.21 -4.53,7.43 -4.53,12.66 0,3.2 0.7,6.02 2.19,8.44 2.07,3.32 5.54,6.44 10.47,9.37 4.96,2.89 13.2,6.49 24.68,10.78 v 2.5 c 0,6.76 -1.05,11.33 -3.12,13.75 -2.11,2.46 -5.2,3.75 -9.22,3.75 -3.12,0 -5.59,-0.82 -7.34,-2.34 -1.88,-1.68 -2.82,-3.63 -2.82,-5.78 l 0.16,-4.22 c 0,-2.31 -0.59,-4.1 -1.72,-5.31 -1.17,-1.17 -2.69,-1.72 -4.53,-1.72 -1.8,0 -3.24,0.62 -4.37,1.87 -1.18,1.21 -1.72,2.97 -1.72,5.16 0,4.26 2.11,8.12 6.4,11.56 4.26,3.52 10.32,5.31 18.13,5.31 5.9,0 10.78,-1.01 14.53,-2.96 2.89,-1.57 5.04,-3.99 6.41,-7.19 0.89,-2.11 1.4,-6.37 1.4,-12.81 v -22.82 c 0,-6.36 0.08,-10.27 0.31,-11.72 0.2,-1.48 0.55,-2.46 1.1,-2.96 0.58,-0.43 1.29,-0.63 2.03,-0.63 0.82,0 1.48,0.16 2.03,0.47 1.02,0.59 3.01,2.38 5.94,5.31 v -4.06 c -5.43,-7.31 -10.67,-10.94 -15.63,-10.94 -2.42,0 -4.33,0.82 -5.78,2.35 -1.37,1.64 -2.11,4.53 -2.19,8.59 z m 0,4.69 v 25.62 c -7.3,-2.93 -12.07,-5.04 -14.21,-6.25 -3.87,-2.19 -6.64,-4.49 -8.29,-6.87 -1.68,-2.31 -2.5,-4.81 -2.5,-7.5 0,-3.56 1.02,-6.53 3.13,-8.91 2.07,-2.3 4.53,-3.44 7.34,-3.44 3.64,0 8.48,2.43 14.53,7.35 z m 84.3,11.09 c -1.87,-8.87 -5.51,-15.7 -10.78,-20.47 -5.23,-4.69 -11.02,-7.03 -17.34,-7.03 -7.62,0 -14.3,3.16 -20,9.53 -5.63,6.45 -8.44,15.08 -8.44,25.94 0,10.51 3.12,19.06 9.37,25.62 6.21,6.65 13.79,10 22.66,10 6.52,0 11.95,-1.79 16.25,-5.31 4.26,-3.44 6.41,-7.07 6.41,-10.78 0,-1.87 -0.67,-3.4 -1.88,-4.53 -1.17,-1.17 -2.85,-1.72 -5,-1.72 -2.93,0 -5.12,0.94 -6.56,2.81 -0.86,1.02 -1.45,2.97 -1.72,5.78 -0.23,2.9 -1.17,5.16 -2.81,6.72 -1.8,1.45 -4.18,2.19 -7.19,2.19 -4.92,0 -8.83,-1.84 -11.72,-5.47 -3.98,-4.8 -5.94,-11.13 -5.94,-18.9 0,-8.05 1.92,-15.12 5.78,-21.25 3.95,-6.18 9.26,-9.22 15.94,-9.22 4.77,0 9.1,1.6 12.97,4.84 2.7,2.27 5.31,6.41 7.81,12.34 z m 27.74,63.59 v -22.03 h 15.62 v -5 h -15.62 v -43.59 c 0,-4.38 0.62,-7.38 1.87,-8.91 1.21,-1.48 2.81,-2.18 4.69,-2.18 1.64,0 3.2,0.5 4.69,1.56 1.52,1.01 2.73,2.5 3.59,4.37 h 2.81 c -1.68,-4.8 -4.1,-8.4 -7.19,-10.78 -3.12,-2.42 -6.36,-3.59 -9.68,-3.59 -2.31,0 -4.57,0.66 -6.72,1.87 -2.11,1.21 -3.67,3.01 -4.69,5.32 -1.05,2.26 -1.56,5.86 -1.56,10.78 v 45.15 h -10.63 v 2.35 c 2.7,1.01 5.47,2.85 8.28,5.47 2.78,2.57 5.32,5.62 7.5,9.06 1.14,1.83 2.7,5.23 4.69,10.15 z" /><path
         id="path146"
         style="fill:none;stroke:#009600;stroke-width:8;stroke-linecap:square;stroke-linejoin:miter;stroke-miterlimit:3.79999995;stroke-dasharray:64, 64;stroke-dashoffset:0;stroke-opacity:1"
         d="M 908.441,1999.73 H 1205.39" /><path
         id="path148"
         style="fill:#000000;fill-opacity:1;fill-rule:nonzero;stroke:none"
         d="m 1369.73,1978.48 2.5,-0.47 -8.6,-27.03 h -76.87 v 2.65 h 3.75 c 4.14,0 7.19,1.41 9.06,4.22 1.02,1.52 1.56,5.16 1.56,10.78 v 64.06 c 0,6.22 -0.7,10.16 -2.03,11.72 -1.99,2.07 -4.88,3.13 -8.59,3.13 h -3.75 v 2.81 h 45 v -2.81 c -5.31,0.08 -9.03,-0.39 -11.1,-1.41 -2.11,-1.05 -3.55,-2.38 -4.37,-3.9 -0.74,-1.57 -1.09,-5.36 -1.09,-11.25 v -62.35 c 0,-4.06 0.35,-6.83 1.09,-8.28 0.59,-1.05 1.48,-1.84 2.66,-2.34 1.21,-0.55 5.07,-0.78 11.56,-0.78 h 7.19 c 7.57,0 12.89,0.54 15.93,1.71 3.09,1.14 5.94,3.13 8.44,5.94 2.58,2.89 5.16,7.42 7.66,13.6 z m 72.77,74.06 v -34.38 h -2.66 c -0.93,6.64 -2.57,11.92 -4.84,15.78 -2.19,3.95 -5.43,7.07 -9.69,9.38 -4.18,2.26 -8.51,3.44 -12.97,3.44 -5.11,0 -9.33,-1.6 -12.65,-4.69 -3.24,-3.13 -4.85,-6.68 -4.85,-10.63 0,-3.04 1.02,-5.82 3.13,-8.28 3.01,-3.67 10.19,-8.55 21.56,-14.68 9.26,-4.93 15.55,-8.72 18.91,-11.41 3.4,-2.62 6.01,-5.74 7.81,-9.38 1.84,-3.67 2.81,-7.46 2.81,-11.4 0,-7.5 -2.93,-14.03 -8.75,-19.53 -5.86,-5.43 -13.36,-8.13 -22.5,-8.13 -2.81,0 -5.54,0.28 -8.12,0.78 -1.49,0.24 -4.61,1.14 -9.38,2.66 -4.8,1.52 -7.85,2.34 -9.06,2.34 -1.25,0 -2.27,-0.39 -2.97,-1.09 -0.62,-0.74 -1.17,-2.31 -1.56,-4.69 h -2.66 v 34.06 h 2.66 c 1.33,-7.11 3.05,-12.42 5.16,-15.93 2.14,-3.56 5.46,-6.53 9.84,-8.91 4.45,-2.3 9.3,-3.44 14.53,-3.44 6.13,0 10.98,1.6 14.53,4.85 3.52,3.2 5.31,7.03 5.31,11.4 0,2.46 -0.7,4.92 -2.03,7.35 -1.36,2.46 -3.47,4.84 -6.25,7.03 -1.87,1.44 -7.11,4.53 -15.62,9.22 -8.44,4.76 -14.49,8.59 -18.13,11.4 -3.55,2.89 -6.29,6.02 -8.12,9.38 -1.88,3.4 -2.82,7.22 -2.82,11.4 0,7.07 2.7,13.17 8.13,18.29 5.51,5.19 12.5,7.81 20.94,7.81 5.27,0 10.86,-1.33 16.72,-3.91 2.77,-1.17 4.72,-1.72 5.78,-1.72 1.33,0 2.38,0.35 3.12,1.1 0.82,0.7 1.49,2.22 2.03,4.53 z m 103.48,0 2.34,-33.75 h -2.34 c -3.05,10.08 -7.39,17.34 -12.97,21.72 -5.63,4.45 -12.39,6.72 -20.16,6.72 -6.68,0 -12.69,-1.68 -17.97,-5 -5.31,-3.36 -9.49,-8.68 -12.5,-15.94 -3.04,-7.31 -4.53,-16.45 -4.53,-27.35 0,-8.98 1.41,-16.79 4.22,-23.43 2.89,-6.57 7.23,-11.64 12.97,-15.16 5.82,-3.44 12.42,-5.16 19.84,-5.16 6.45,0 12.11,1.33 17.03,4.07 4.97,2.77 10.47,8.28 16.41,16.4 l 2.19,-1.4 c -5,-8.87 -10.86,-15.39 -17.5,-19.53 -6.56,-4.03 -14.46,-6.1 -23.6,-6.1 -16.48,0 -29.25,6.13 -38.28,18.44 -6.68,9.02 -10,19.73 -10,32.03 0,9.88 2.19,18.98 6.57,27.34 4.45,8.32 10.62,14.73 18.43,19.22 7.78,4.57 16.29,6.88 25.47,6.88 7.15,0 14.26,-1.8 21.25,-5.31 2.07,-1.06 3.52,-1.57 4.38,-1.57 1.32,0 2.5,0.47 3.43,1.41 1.22,1.33 2.19,3.16 2.82,5.47 z m 76.56,-68.28 h -38.44 l -6.72,-15.63 c -1.68,-3.98 -2.5,-6.91 -2.5,-8.75 0,-1.48 0.71,-2.77 2.19,-3.9 1.45,-1.18 4.57,-1.96 9.38,-2.35 v -2.65 h -31.25 v 2.65 c 4.02,0.7 6.71,1.72 7.96,2.97 2.46,2.27 5.24,7.03 8.29,14.22 l 35,81.72 h 2.5 l 34.53,-82.66 c 2.77,-6.56 5.35,-10.86 7.65,-12.81 2.27,-1.99 5.47,-3.16 9.53,-3.44 v -2.65 h -39.21 v 2.65 c 3.94,0.2 6.6,0.86 7.96,2.03 1.33,1.14 2.04,2.5 2.04,4.07 0,2.14 -0.98,5.54 -2.82,10.15 z m -2.03,5.47 -16.88,40 -17.18,-40 z" /><path
         id="path150"
         style="fill:none;stroke:#0000ff;stroke-width:8;stroke-linecap:butt;stroke-linejoin:miter;stroke-miterlimit:3.79999995;stroke-dasharray:24, 24;stroke-dashoffset:0;stroke-opacity:1"
         d="M 908.441,1833.48 H 1205.39" /><path
         id="path152"
         style="fill:#000000;fill-opacity:1;fill-rule:nonzero;stroke:none"
         d="m 1354.18,1816.95 h -38.44 l -6.72,-15.62 c -1.68,-3.99 -2.5,-6.92 -2.5,-8.75 0,-1.49 0.71,-2.78 2.19,-3.91 1.45,-1.17 4.57,-1.95 9.38,-2.34 v -2.66 h -31.25 v 2.66 c 4.02,0.7 6.71,1.72 7.96,2.97 2.47,2.26 5.24,7.03 8.29,14.21 l 35,81.72 h 2.5 l 34.53,-82.65 c 2.77,-6.57 5.35,-10.86 7.65,-12.82 2.27,-1.99 5.47,-3.16 9.53,-3.43 v -2.66 h -39.21 v 2.66 c 3.94,0.19 6.6,0.86 7.96,2.03 1.33,1.13 2.04,2.5 2.04,4.06 0,2.15 -0.98,5.55 -2.82,10.16 z m -2.03,5.47 -16.88,40 -17.18,-40 z m 101.17,-38.75 -38.44,83.59 v -66.4 c 0,-6.06 0.67,-9.88 2.03,-11.41 1.76,-2.11 4.61,-3.12 8.6,-3.12 h 3.44 v -2.66 h -34.54 v 2.66 h 3.44 c 4.26,0 7.27,1.29 9.06,3.9 1.02,1.53 1.57,5.08 1.57,10.63 v 64.84 c 0,4.46 -0.51,7.66 -1.41,9.53 -0.74,1.45 -2.07,2.66 -3.91,3.6 -1.79,0.9 -4.72,1.4 -8.75,1.4 v 2.82 h 28.13 l 36.09,-77.82 35.32,77.82 h 28.12 v -2.82 h -3.44 c -4.18,0 -7.15,-1.29 -8.9,-3.75 -1.18,-1.56 -1.72,-5.19 -1.72,-10.78 v -64.84 c 0,-6.06 0.7,-9.88 2.19,-11.41 1.75,-2.11 4.57,-3.12 8.43,-3.12 h 3.44 v -2.66 h -42.19 v 2.66 h 3.6 c 4.25,0 7.22,1.29 8.9,3.9 1.02,1.53 1.57,5.08 1.57,10.63 v 66.4 l -38.29,-83.59 z m 137.97,33.28 h -38.44 l -6.72,-15.62 c -1.68,-3.99 -2.5,-6.92 -2.5,-8.75 0,-1.49 0.71,-2.78 2.19,-3.91 1.45,-1.17 4.57,-1.95 9.38,-2.34 v -2.66 h -31.25 v 2.66 c 4.02,0.7 6.71,1.72 7.96,2.97 2.47,2.26 5.24,7.03 8.29,14.21 l 35,81.72 h 2.5 l 34.53,-82.65 c 2.77,-6.57 5.35,-10.86 7.65,-12.82 2.27,-1.99 5.47,-3.16 9.53,-3.43 v -2.66 h -39.21 v 2.66 c 3.94,0.19 6.6,0.86 7.96,2.03 1.33,1.13 2.04,2.5 2.04,4.06 0,2.15 -0.98,5.55 -2.82,10.16 z m -2.03,5.47 -16.88,40 -17.18,-40 z" /><path
         id="path154"
         style="fill:#000000;fill-opacity:1;fill-rule:nonzero;stroke:none"
         d="m 2867.7,2024.73 v -3.91 c -10.86,5.43 -19.89,11.8 -27.04,19.06 -10.31,10.43 -18.32,22.7 -23.9,36.72 -5.55,14.14 -8.28,28.83 -8.28,44.06 0,22.15 5.47,42.39 16.4,60.63 10.9,18.32 25.2,31.44 42.82,39.37 v -4.53 c -8.75,-4.92 -16.02,-11.6 -21.72,-20 -5.63,-8.44 -9.89,-19.18 -12.66,-32.19 -2.81,-12.93 -4.22,-26.48 -4.22,-40.62 0,-15.31 1.17,-29.26 3.6,-41.72 1.83,-9.92 4.1,-17.81 6.71,-23.75 2.7,-6.02 6.29,-11.8 10.79,-17.34 4.45,-5.51 10.31,-10.78 17.5,-15.78 z m 38.75,124.53 c 9.45,13.2 19.72,19.84 30.78,19.84 10.07,0 18.9,-4.34 26.4,-12.97 7.46,-8.55 11.25,-20.35 11.25,-35.31 0,-17.5 -5.82,-31.6 -17.34,-42.19 -10,-9.18 -21.13,-13.75 -33.28,-13.75 -5.74,0 -11.6,1.06 -17.5,3.13 -5.94,2.07 -11.99,5.19 -18.13,9.37 v 101.88 c 0,11.13 -0.27,18 -0.78,20.62 -0.55,2.58 -1.37,4.38 -2.5,5.31 -1.17,0.9 -2.62,1.41 -4.37,1.41 -2,0 -4.5,-0.59 -7.5,-1.72 l -1.41,3.75 29.53,12.03 h 4.85 z m 0,-6.88 v -58.9 c 3.63,-3.56 7.38,-6.29 11.25,-8.13 3.94,-1.8 7.96,-2.66 12.03,-2.66 6.44,0 12.5,3.52 18.12,10.63 5.59,7.15 8.44,17.66 8.44,31.41 0,12.57 -2.85,22.26 -8.44,29.06 -5.62,6.76 -11.99,10.15 -19.06,10.15 -3.87,0 -7.7,-1.01 -11.41,-2.96 -2.93,-1.49 -6.6,-4.34 -10.93,-8.6 z m 80.58,73.75 v 4.53 c 10.82,-5.43 19.88,-11.79 27.19,-19.06 10.19,-10.43 18.05,-22.73 23.59,-36.87 5.59,-14.07 8.44,-28.72 8.44,-43.91 0,-22.19 -5.51,-42.46 -16.41,-60.78 -10.93,-18.32 -25.23,-31.41 -42.81,-39.22 v 3.91 c 8.71,5 15.98,11.75 21.72,20.15 5.7,8.36 9.92,19.03 12.66,32.03 2.69,13.01 4.06,26.57 4.06,40.63 0,15.27 -1.17,29.26 -3.44,41.87 -1.8,9.89 -4.02,17.82 -6.72,23.75 -2.73,5.9 -6.33,11.64 -10.78,17.19 -4.37,5.51 -10.23,10.78 -17.5,15.78 z" /><path
         id="path156"
         style="fill:#000000;fill-opacity:1;fill-rule:nonzero;stroke:none"
         d="m 132.891,851.328 -0.313,1.481 -0.508,1.492 -0.308,1.277 -0.512,1.492 -0.66,1.328 -0.469,1.442 -0.672,1.332 -0.469,1.289 -0.66,1.168 -0.66,1.293 -0.82,1.168 -0.668,1.14 -0.82,1.129 -0.821,1.172 -2.461,2.93 -0.82,0.82 -2.93,2.457 -1.949,1.332 -0.98,0.469 -1.172,0.512 -0.981,0.461 -1.129,0.359 -1.168,0.309 -0.98,0.308 -1.133,0.203 -1.328,0.149 h -1.129 c -15.5507,0 -29.3007,-18.668 -29.3007,-42.578 v -51.09 h 5.0781 v 3.906 c 0,12.461 1.8008,12.774 7.6914,12.774 h 85.6292 c 5.902,0 7.691,-0.313 7.691,-12.774 v -3.906 h 5.078 c -0.468,5.898 -0.468,17.34 -0.468,23.75 0,6.367 0,17.848 0.468,23.75 h -5.078 v -3.942 c 0,-12.468 -1.789,-12.781 -7.691,-12.781 H 88.6719 c -3.75,0 -5.7422,0 -6.211,3.602 -0.3125,1.64 -0.3125,6.211 -0.3125,9.488 0,14.762 0.6211,32.93 24.2226,32.93 11.289,0 24.41,-3.75 24.41,-28.008 v -18.012 h 3.598 v 18.672 c 0,2.617 0,9.5 5.543,15.238 5.898,6.211 10.816,6.211 21.797,6.211 10.66,0 17.031,0 23.242,6.559 5.898,6.723 6.879,15.699 6.879,20.633 0,12.609 -13.399,15.386 -18.012,15.386 -0.976,0 -2.617,0 -2.617,-2.109 0,-1.84 1.328,-1.84 2.461,-1.988 11.637,-0.981 14.566,-6.531 14.566,-10.629 0,-8.051 -8.359,-9.344 -23.398,-11.641 l -13.121,-2.109 C 141.41,868.199 136.02,860.191 132.891,851.328 Z" /><path
         id="path158"
         style="fill:#000000;fill-opacity:1;fill-rule:nonzero;stroke:none"
         d="m 150.59,918.629 -3.289,0.199 c -24.211,0.973 -28.321,14.57 -28.321,20.113 0,16.879 21.961,18.52 28.321,18.52 v -38.633 l 3.289,-0.199 v 45.391 c 0,3.601 0,4.101 -3.289,4.101 -16.211,0 -31.91,-8.859 -31.91,-29.18 0,-18.82 16.679,-33.902 36.988,-33.902 21.961,0 37.66,17.223 37.66,35.902 0,19.797 -18.008,27.18 -21.129,27.18 -1.609,0 -1.961,-1.32 -1.961,-2.141 0,-1.492 0.981,-1.8 2.313,-2.109 16.679,-5.75 16.679,-20.32 16.679,-21.961 0,-8.199 -4.89,-14.762 -10.941,-18.512 -7.699,-4.769 -18.52,-4.769 -24.41,-4.769 z" /><path
         id="path160"
         style="fill:#000000;fill-opacity:1;fill-rule:nonzero;stroke:none"
         d="m 293.238,1037.07 v 36.99 h -7.539 v -29.3 H 8.28125 v 29.3 H 0.589844 v -36.99 z" /><path
         id="path162"
         style="fill:#000000;fill-opacity:1;fill-rule:nonzero;stroke:none"
         d="m 122.73,1172.3 h -0.152 v 0.2 h -0.156 v 0.16 h -0.152 l -0.2,0.15 -0.308,0.31 -0.16,0.2 -0.153,0.16 h -0.199 v 0.15 h -0.16 v 0.16 h -0.309 v 0.15 h -0.312 l -0.199,0.2 h -0.149 c -0.98,0 -1.961,-0.66 -1.961,-1.99 0,-0.98 0.82,-1.64 1.961,-2.62 l 41.438,-37.34 c -20.618,-6.53 -24.719,-7.86 -33.399,-11.61 -3.781,-1.79 -11.789,-5.42 -11.789,-19.64 0,-9.53 8.359,-13.79 10.617,-13.79 0.16,0 1.641,0 1.641,1.99 0,1.44 -0.969,1.8 -1.789,2.11 -6.219,2.46 -6.879,7.69 -6.879,8.67 0,4.92 12.269,9.84 19.488,12.62 12.781,5.08 31.762,10.31 32.27,10.31 0.16,0 0.472,0 1.801,-1.29 l 41.75,-37.5 c 1.8,-1.8 2.109,-1.8 2.621,-1.8 0.98,0 1.949,0.98 1.949,1.96 0,1.13 -1.129,1.95 -1.789,2.61 l -41.922,37.35 c 17.031,5.23 23.25,7.19 32.422,11.13 4.929,2.11 13.09,5.74 13.09,20.16 0,9.49 -8.52,13.9 -10.621,13.9 -0.821,0 -1.801,-0.31 -1.801,-1.95 0,-1.64 0.66,-1.8 2.301,-2.3 3.91,-1.49 6.531,-5.59 6.531,-8.68 0,-8.36 -39.461,-19.33 -51.922,-22.93 z" /><path
         id="path164"
         style="fill:#000000;fill-opacity:1;fill-rule:nonzero;stroke:none"
         d="m 75.0781,1216.21 -0.3086,0.82 -0.3593,0.82 -0.6211,1.64 -0.3477,0.67 -0.3203,0.82 -0.3125,0.62 -0.3477,0.66 -0.3125,0.67 -0.1601,0.66 -0.3477,0.63 -0.1601,0.51 -0.3086,0.5 -0.1914,0.63 -0.1602,0.51 -0.3086,0.5 -0.1601,0.47 -0.1914,0.51 -0.1602,0.31 -0.1602,0.51 -0.1484,0.31 -0.1601,0.51 -0.1915,0.31 -0.1601,0.32 -0.1602,0.35 -0.1484,0.31 -0.3203,0.66 -0.1914,0.67 -0.3086,0.47 c -0.8203,2.15 -1.332,3.28 -3.4414,3.28 -1.9492,0 -3.7891,-1.49 -3.7891,-3.6 0,-0.82 0,-0.97 1.168,-2.46 l 10.3125,-15.39 -16.8711,1.64 c -2.1094,0.32 -4.918,0 -4.918,-3.43 0,-1.33 1.0078,-3.44 3.4375,-3.44 1.0117,0 4.4492,0.47 5.5821,0.47 1.9492,0.19 10.1601,0.97 12.7695,1.33 l -10.3125,-15.4 c -0.8164,-1.17 -1.168,-1.48 -1.168,-2.61 0,-1.99 1.8399,-3.44 3.7891,-3.44 2.3008,0 2.7695,1.29 3.2812,2.46 l 7.1875,17.19 c 4.1016,-9.34 5.5821,-13.6 7.0703,-16.56 0.7813,-2.11 1.293,-3.09 3.4414,-3.09 1.9493,0 3.75,1.45 3.75,3.44 0,0.82 0,1.13 -1.1406,2.46 l -10.3476,15.55 18.3593,-1.8 c 2.461,0 3.4375,2.11 3.4375,3.44 0,1.48 -0.9765,3.59 -3.4375,3.59 -0.9804,0 -4.4101,-0.51 -5.5507,-0.66 -1.9883,-0.16 -10.1485,-0.98 -12.8086,-1.14 l 9.1797,13.6 c 2.3085,2.93 2.3085,3.28 2.3085,4.25 0,2.11 -1.8007,3.6 -3.75,3.6 -2.3085,0 -2.8203,-1.49 -3.289,-2.46 z" /><path
         id="path166"
         style="fill:#000000;fill-opacity:1;fill-rule:nonzero;stroke:none"
         d="m 18.0898,1286.64 1.4805,-1.99 1.4805,-1.8 1.4492,-1.8 1.6406,-1.79 1.6407,-1.64 1.6406,-1.49 1.7969,-1.44 1.6406,-1.49 1.8008,-1.33 1.8281,-1.13 1.8008,-1.13 1.9492,-1.17 3.6015,-1.96 1.9493,-0.82 1.832,-0.82 1.957,-0.66 1.9532,-0.82 1.7968,-0.47 1.9922,-0.66 1.9492,-0.47 1.8008,-0.51 1.9492,-0.31 1.8008,-0.36 1.8399,-0.31 1.789,-0.35 5.3906,-0.47 h 1.6407 l 1.8008,-0.15 h 1.6406 c 16.0586,0 40.9371,4.72 56.8401,27.34 0,0.98 0,2.27 -1.332,2.27 -0.66,0 -0.821,-0.32 -1.641,-1.14 -13.75,-15.08 -33.0898,-20.62 -53.7109,-20.62 -30.7773,0 -45.8593,11.64 -54.1797,20.97 -0.5078,0.47 -0.8203,0.79 -1.4882,0.79 -1.3204,0 -1.3204,-1.29 -1.3204,-2.27 z" /><path
         id="path168"
         style="fill:#000000;fill-opacity:1;fill-rule:nonzero;stroke:none"
         d="m 77.6992,1382.11 v 1.95 l -0.1601,0.16 v 0.66 l -0.1602,0.16 v 0.19 l -0.1484,0.16 v 0.16 l -0.1602,0.15 -0.1914,0.16 -0.1601,0.19 -0.1602,0.16 h -0.1484 v 0.16 h -0.3594 l -0.1524,0.15 h -0.8203 c -2.9297,0 -2.9297,-2.61 -2.9297,-4.41 v -67.97 c 0,-1.95 0,-4.57 2.7735,-4.57 2.7773,0 2.7773,2.62 2.7773,4.57 z" /><path
         id="path170"
         style="fill:#000000;fill-opacity:1;fill-rule:nonzero;stroke:none"
         d="m 18.0898,1409.45 v -1.13 l 0.1485,-0.16 v -0.35 h 0.2031 v -0.15 h 0.1484 v -0.16 H 18.75 v -0.16 h 0.6602 c 0.6679,0 0.9804,0.32 1.8007,0.98 9.0196,9.8 24.4102,20.78 53.711,20.78 23.75,0 41.7581,-7.54 52.8871,-19.8 1.961,-1.96 2.152,-1.96 2.621,-1.96 0.66,0 1.332,0.32 1.332,1.45 0,1.33 -7.383,12.15 -21.641,19.65 -9.5,5.07 -21.7616,8.36 -35.0429,8.36 -16.207,0 -41.0976,-4.73 -56.9883,-27.35 z" /><path
         id="path172"
         style="fill:#000000;fill-opacity:1;fill-rule:nonzero;stroke:none"
         d="m 215.781,1236.99 v -3.91 c 2.418,-0.35 9.141,-1.48 10.309,-2.96 0.82,-0.98 0.82,-9.65 0.82,-11.29 v -20.98 c -10.66,11.99 -13.789,15.9 -19.18,22.77 -6.71,8.52 -13.75,16.37 -24.57,16.37 -13.898,0 -22.262,-12.11 -22.262,-26.68 0,-14.26 9.84,-23.75 20.473,-23.75 5.738,0 6.207,4.92 6.207,6.06 0,2.61 -1.797,6.05 -5.898,6.05 -2.11,0 -6.059,-0.82 -6.059,-6.68 -8.16,3.44 -10.621,11.13 -10.621,16.52 0,11.45 8.828,17.35 18.16,17.35 9.852,0 17.699,-7.03 21.801,-10.63 l 27.187,-27.5 c 0.973,-1.17 1.133,-1.17 4.411,-1.17 v 46.99 z" /><path
         id="path174"
         style="fill:#000000;fill-opacity:1;fill-rule:nonzero;stroke:none"
         d="m 234.77,1268.44 h 2.3 l 1.289,-0.16 1.129,-0.16 h 0.672 l 1.32,-0.31 0.668,-0.19 0.622,-0.16 2,-0.47 0.621,-0.35 0.66,-0.31 0.668,-0.16 0.66,-0.35 0.633,-0.31 0.66,-0.51 0.668,-0.31 0.82,-0.51 0.66,-0.47 0.629,-0.51 0.66,-0.47 0.661,-0.5 0.671,-0.67 0.661,-0.62 0.82,-0.67 0.629,-0.66 c 0.5,-0.51 0.82,-0.82 1.328,-0.82 0.82,0 1.641,0.82 1.641,1.64 0,1.48 -9.18,11.29 -22.622,11.29 -7.187,0 -12.418,-2.78 -12.418,-8.01 0,-3.79 2.93,-6.56 6.36,-6.56 3.75,0 6.719,2.61 6.719,6.56 0,2.77 -1.789,4.57 -1.789,4.73 z" /><path
         id="path176"
         style="fill:#000000;fill-opacity:1;fill-rule:nonzero;stroke:none"
         d="m 189.219,1357.23 -20.309,32.57 c -0.16,0.16 -0.32,0.16 -1.449,2.78 -1.481,3.12 -2.621,5.43 -2.621,12.3 0,0.82 -0.192,3.44 -3.942,3.44 -1.636,0 -2.457,-1.49 -2.457,-2.31 0,-2.93 0.508,-6.36 0.508,-9.33 0,-1.95 0,-6.06 -0.16,-7.85 -0.199,-2.46 -0.348,-5.59 -0.348,-8.05 0,-0.82 0,-3.44 3.789,-3.44 2.11,0 2.418,1.99 2.418,1.99 0.192,0.32 0.352,3.44 0.512,4.42 l 34.57,-55.35 -34.57,8.51 c 0,0.82 -0.32,4.1 -0.32,6.37 v 2.3 c 0,2.15 0,4.58 -3.942,4.58 -1.289,0 -2.457,-0.98 -2.457,-2.62 0,-2.62 0.348,-5.71 0.348,-8.32 0,-2.66 0.16,-6.41 0.16,-9.03 l -0.16,-8.82 c 0,-2.97 -0.348,-6.25 -0.348,-9.03 0,-0.97 0,-3.59 3.789,-3.59 2.61,0 2.61,2.26 2.61,4.1 v 2.27 c 0,4.92 0.16,4.92 0.469,4.92 l 62.742,-15.71 c 1.64,-0.35 1.789,-0.5 1.949,-2.65 0.16,-1.6 0.16,-3.75 0.16,-5.39 0,-3.28 0,-3.6 0.5,-4.1 0.82,-1.45 2.621,-1.45 3.289,-1.45 0.973,0 2.61,0.63 2.61,2.62 0,2.77 -0.309,5.7 -0.309,8.51 l -0.199,8.83 c 0,2.97 0.199,6.06 0.199,8.83 0,2.97 0.309,6.09 0.309,9.18 0,0.82 0,3.44 -3.938,3.44 -2.461,0 -2.461,-2.11 -2.461,-5.39 0,-1.49 0,-3.44 -0.16,-4.93 -0.16,-0.82 -0.16,-0.97 -0.469,-0.97 -0.191,0 -1.172,0.31 -1.48,0.31 l -19.5,4.92 -10.621,17.19 31.91,20.31 c 0.32,-1.95 0.32,-4.41 0.32,-4.72 0,-1.18 0,-3.95 3.789,-3.95 0.821,0 2.61,0.51 2.61,2.77 0,2.62 -0.309,5.59 -0.309,8.36 -0.199,2.78 -0.199,6.21 -0.199,8.83 0,1.84 0,5.59 0.199,7.38 0,1.96 0.309,4.61 0.309,6.57 0,0.82 0,1.79 -1.129,2.61 -0.66,0.67 -2.621,0.98 -2.809,0.98 -2.461,0 -2.461,-2.46 -2.461,-4.41 0,-4.93 -0.469,-5.24 -1.961,-6.21 z" /><path
         id="path178"
         style="fill:#000000;fill-opacity:1;fill-rule:nonzero;stroke:none"
         d="m 237.07,1454.33 v -3.43 c 1.602,-0.16 6.68,-0.98 7.5,-2.31 0.508,-0.66 0.508,-7.54 0.508,-8.67 v -16.05 c -4.098,5.39 -8.519,11.44 -11.797,16.36 -5.082,7.23 -9.801,14.1 -18.511,14.1 -10.321,0 -16.02,-9.84 -16.02,-21.44 0,-10.98 6.211,-19.02 14.219,-19.02 4.261,0 4.922,3.63 4.922,4.61 0,2.26 -1.481,4.88 -4.77,4.88 -2.922,0 -4.57,-2.11 -4.723,-4.73 -3.789,2.31 -6.207,7.03 -6.207,12.42 0,8.05 4.719,14.61 12.77,14.61 6.879,0 11.949,-4.76 17.34,-10.97 l 16.719,-20 c 0.82,-0.67 0.82,-0.82 1.289,-0.82 h 2.461 v 37.85 z" /><path
         id="path180"
         style="fill:#000000;fill-opacity:1;fill-rule:nonzero;stroke:none"
         d="m 227.23,1532.11 h -0.511 v -0.16 h -0.309 v -0.15 h -0.16 l -0.352,-0.36 h -0.16 v -0.15 h -0.148 v -0.16 h -0.16 v -0.15 h -0.16 v -0.16 h -0.192 v -0.2 h -0.156 l -0.313,-0.31 v -0.15 h -0.16 l -0.148,-0.16 -0.199,-0.16 -0.153,-0.19 -0.32,-0.32 c -20.469,-20.31 -51.09,-25.54 -76.008,-25.54 -28.32,0 -56.6405,6.21 -76.9608,26.21 -1.9493,2.11 -2.3008,2.11 -2.7696,2.11 -1.1718,0 -1.6406,-0.67 -1.6406,-1.64 0,-1.64 10.9805,-16.21 31.7617,-25.86 17.8473,-8.36 35.8593,-10.31 49.6093,-10.31 12.609,0 32.258,1.79 50.617,10.78 20.16,9.84 30.633,23.75 30.633,25.39 0,0.97 -0.512,1.64 -1.641,1.64 z" /><path
         id="path182"
         style="fill:#000000;fill-opacity:1;fill-rule:nonzero;stroke:none"
         d="m 133.051,1644.8 -0.321,1.29 -0.308,1.33 -0.512,1.29 -0.308,1.33 -0.821,2.46 -1.011,2.11 -0.79,2.15 -1.011,2.11 -1.949,3.59 -1.961,3.28 -1.168,1.49 -0.981,1.32 -1.129,1.29 -2.152,2.15 -1.129,0.98 -1.129,0.82 -1.172,0.82 -0.98,0.82 -1.129,0.62 -1.141,0.51 -1.008,0.51 -0.98,0.47 -1.133,0.31 -0.976,0.35 -0.973,0.31 -1.02,0.16 -0.98,0.2 -0.82,0.15 -0.969,0.16 h -1.641 c -16.2185,0 -24.8904,-17.35 -24.8904,-41.92 v -56.52 c 0,-3.24 0,-6.05 4.7695,-6.05 2.9336,0 2.9336,2.14 2.9336,6.87 0,3.44 0.1485,6.56 0.3086,10 l 92.6997,-23.24 c 2.609,-0.66 2.808,-0.82 3.121,-3.79 0.16,-2.77 0.16,-6.05 0.16,-8.67 0,-4.26 0,-4.57 0.347,-5.24 1.133,-1.95 3.75,-1.95 4.411,-1.95 0.312,0 2.929,0.16 2.929,3.59 0,4.11 -0.308,8.36 -0.308,12.47 0,3.9 -0.16,7.85 -0.16,11.75 0,5.59 0.468,19.5 0.468,24.93 0,1.44 0,2.61 -1.129,3.43 -0.82,0.82 -3.437,1.14 -3.589,1.14 -2.969,0 -2.969,-2.11 -2.969,-6.57 0,-3.43 -0.16,-6.52 -0.321,-9.96 l -44.878,11.29 v 19.65 l -5.903,0.66 v -18.82 l -42.2576,10.46 c -2.2695,0.67 -2.4219,0.82 -2.6211,0.98 -0.3086,0.98 -0.3086,8.2 -0.3086,12.27 0,14.76 0,30.15 13.5899,30.15 0.1601,0 15.8984,-0.66 24.4184,-9.18 2.109,-2.3 7.179,-9.65 7.179,-25.86 l 5.903,-0.66 c 0,4.77 1.128,16.05 13.437,16.05 2.109,0 8.012,-1.32 12.109,-2.46 6.872,-1.64 9.332,-2.3 11.801,-2.3 17.031,0 18.321,21.8 18.321,30.31 0,17.19 -16.372,23.24 -18.829,23.24 -2.929,0 -2.929,-2.93 -2.929,-3.9 0,-2.82 0.816,-3.28 3.277,-3.95 6.371,-2.15 12.621,-8.05 12.621,-14.1 0,-4.41 -1.84,-7.5 -10,-7.5 -2.461,0 -4.93,0.16 -18.012,2.27 -1.988,0.35 -5.078,0.82 -6.558,0.82 -6.211,0 -13.602,-3.44 -17.539,-14.07 z" /><path
         id="path184"
         style="fill:#000000;fill-opacity:1;fill-rule:nonzero;stroke:none"
         d="m 147.621,1731.76 h -5.043 l -2.808,-0.16 -2.93,-0.19 -2.969,-0.32 -3.09,-0.31 -3.121,-0.51 -3.281,-0.51 -3.438,-0.62 -3.281,-0.82 -3.441,-0.82 -3.438,-0.98 -3.59,-1.17 -3.441,-1.29 -1.801,-0.66 -1.64,-0.82 -1.7895,-0.67 -1.6406,-0.82 c -20.1601,-9.8 -30.6289,-23.9 -30.6289,-25.54 0,-0.98 0.6602,-1.64 1.6406,-1.64 0.4688,0 0.8203,0 3.75,3.12 16.0586,16.05 41.9104,25.23 75.9804,25.23 27.688,0 56.359,-5.89 76.828,-26.21 1.961,-2.14 2.27,-2.14 2.781,-2.14 0.969,0 1.641,0.66 1.641,1.64 0,1.64 -10.98,16.4 -31.762,26.05 -17.847,8.16 -35.898,10.16 -49.488,10.16 z" /><path
         id="path186"
         style="fill:#000000;fill-opacity:1;fill-rule:nonzero;stroke:none"
         d="m 285.699,1780.39 v -29.34 h 7.539 v 37.03 H 0.589844 v -37.03 H 8.28125 v 29.34 z" /></g></g></svg>