<?xml version="1.0" encoding="UTF-8" standalone="no"?>
<!-- Created with Inkscape (http://www.inkscape.org/) -->

<svg
   xmlns:ns0="http://www.iki.fi/pav/software/textext/"
   xmlns:dc="http://purl.org/dc/elements/1.1/"
   xmlns:cc="http://creativecommons.org/ns#"
   xmlns:rdf="http://www.w3.org/1999/02/22-rdf-syntax-ns#"
   xmlns:svg="http://www.w3.org/2000/svg"
   xmlns="http://www.w3.org/2000/svg"
   xmlns:sodipodi="http://sodipodi.sourceforge.net/DTD/sodipodi-0.dtd"
   xmlns:inkscape="http://www.inkscape.org/namespaces/inkscape"
   id="svg2"
   version="1.1"
   inkscape:version="0.91 r13725"
   width="459.02344"
   height="298.03772"
   xml:space="preserve"
   sodipodi:docname="fig6.svg"
   inkscape:export-filename="/home/yoshidak/Desktop/1.png"
   inkscape:export-xdpi="180"
   inkscape:export-ydpi="180"><sodipodi:namedview
     pagecolor="#ffffff"
     bordercolor="#666666"
     borderopacity="1"
     objecttolerance="10"
     gridtolerance="10"
     guidetolerance="10"
     inkscape:pageopacity="0"
     inkscape:pageshadow="2"
     inkscape:window-width="1600"
     inkscape:window-height="876"
     id="namedview4"
     showgrid="false"
     inkscape:zoom="0.78000002"
     inkscape:cx="448.97246"
     inkscape:cy="87.506798"
     inkscape:window-x="0"
     inkscape:window-y="24"
     inkscape:window-maximized="1"
     inkscape:current-layer="g10"
     fit-margin-top="0"
     fit-margin-left="0"
     fit-margin-right="0"
     fit-margin-bottom="0" /><metadata
     id="metadata8"><rdf:RDF><cc:Work
         rdf:about=""><dc:format>image/svg+xml</dc:format><dc:type
           rdf:resource="http://purl.org/dc/dcmitype/StillImage" /><dc:title /></cc:Work></rdf:RDF></metadata><defs
     id="defs6"><clipPath
       id="clipPath18"
       clipPathUnits="userSpaceOnUse"><path
         id="path20"
         d="m 130,50 3380,0 0,2050 -3380,0 0,-2050 z"
         inkscape:connector-curvature="0" /></clipPath></defs><g
     transform="matrix(1.25,0,0,-1.25,18.519247,265.1251)"
     inkscape:label="ink_ext_XXXXXX"
     inkscape:groupmode="layer"
     id="g10"><path
       d="m 33.3012,15.398 3.1476,0"
       style="fill:none;stroke:#000000;stroke-width:0.80000001;stroke-linecap:square;stroke-linejoin:miter;stroke-miterlimit:3.79999995;stroke-opacity:1;stroke-dasharray:none"
       id="path22"
       inkscape:connector-curvature="0" /><path
       d="m 345.301,15.398 -3.153,0"
       style="fill:none;stroke:#000000;stroke-width:0.80000001;stroke-linecap:square;stroke-linejoin:miter;stroke-miterlimit:3.79999995;stroke-opacity:1;stroke-dasharray:none"
       id="path24"
       inkscape:connector-curvature="0" /><path
       d="m 33.3012,53.398 3.1476,0"
       style="fill:none;stroke:#000000;stroke-width:0.80000001;stroke-linecap:square;stroke-linejoin:miter;stroke-miterlimit:3.79999995;stroke-opacity:1;stroke-dasharray:none"
       id="path32"
       inkscape:connector-curvature="0" /><path
       d="m 345.301,53.398 -3.153,0"
       style="fill:none;stroke:#000000;stroke-width:0.80000001;stroke-linecap:square;stroke-linejoin:miter;stroke-miterlimit:3.79999995;stroke-opacity:1;stroke-dasharray:none"
       id="path34"
       inkscape:connector-curvature="0" /><path
       d="m 33.3012,91.398 3.1476,0"
       style="fill:none;stroke:#000000;stroke-width:0.80000001;stroke-linecap:square;stroke-linejoin:miter;stroke-miterlimit:3.79999995;stroke-opacity:1;stroke-dasharray:none"
       id="path42"
       inkscape:connector-curvature="0" /><path
       d="m 345.301,91.398 -3.153,0"
       style="fill:none;stroke:#000000;stroke-width:0.80000001;stroke-linecap:square;stroke-linejoin:miter;stroke-miterlimit:3.79999995;stroke-opacity:1;stroke-dasharray:none"
       id="path44"
       inkscape:connector-curvature="0" /><path
       d="m 33.3012,129.352 3.1476,0"
       style="fill:none;stroke:#000000;stroke-width:0.80000001;stroke-linecap:square;stroke-linejoin:miter;stroke-miterlimit:3.79999995;stroke-opacity:1;stroke-dasharray:none"
       id="path52"
       inkscape:connector-curvature="0" /><path
       d="m 345.301,129.352 -3.153,0"
       style="fill:none;stroke:#000000;stroke-width:0.80000001;stroke-linecap:square;stroke-linejoin:miter;stroke-miterlimit:3.79999995;stroke-opacity:1;stroke-dasharray:none"
       id="path54"
       inkscape:connector-curvature="0" /><path
       d="m 33.3012,167.352 3.1476,0"
       style="fill:none;stroke:#000000;stroke-width:0.80000001;stroke-linecap:square;stroke-linejoin:miter;stroke-miterlimit:3.79999995;stroke-opacity:1;stroke-dasharray:none"
       id="path62"
       inkscape:connector-curvature="0" /><path
       d="m 345.301,167.352 -3.153,0"
       style="fill:none;stroke:#000000;stroke-width:0.80000001;stroke-linecap:square;stroke-linejoin:miter;stroke-miterlimit:3.79999995;stroke-opacity:1;stroke-dasharray:none"
       id="path64"
       inkscape:connector-curvature="0" /><path
       d="m 33.3012,205.352 3.1476,0"
       style="fill:none;stroke:#000000;stroke-width:0.80000001;stroke-linecap:square;stroke-linejoin:miter;stroke-miterlimit:3.79999995;stroke-opacity:1;stroke-dasharray:none"
       id="path72"
       inkscape:connector-curvature="0" /><path
       d="m 345.301,205.352 -3.153,0"
       style="fill:none;stroke:#000000;stroke-width:0.80000001;stroke-linecap:square;stroke-linejoin:miter;stroke-miterlimit:3.79999995;stroke-opacity:1;stroke-dasharray:none"
       id="path74"
       inkscape:connector-curvature="0" /><path
       d="m 33.3012,15.398 0,3.1532"
       style="fill:none;stroke:#000000;stroke-width:0.80000001;stroke-linecap:square;stroke-linejoin:miter;stroke-miterlimit:3.79999995;stroke-opacity:1;stroke-dasharray:none"
       id="path82"
       inkscape:connector-curvature="0" /><path
       d="m 33.3012,205.352 0,-3.153"
       style="fill:none;stroke:#000000;stroke-width:0.80000001;stroke-linecap:square;stroke-linejoin:miter;stroke-miterlimit:3.79999995;stroke-opacity:1;stroke-dasharray:none"
       id="path84"
       inkscape:connector-curvature="0" /><path
       d="m 85.3012,15.398 0,3.1532"
       style="fill:none;stroke:#000000;stroke-width:0.80000001;stroke-linecap:square;stroke-linejoin:miter;stroke-miterlimit:3.79999995;stroke-opacity:1;stroke-dasharray:none"
       id="path92"
       inkscape:connector-curvature="0" /><path
       d="m 85.3012,205.352 0,-3.153"
       style="fill:none;stroke:#000000;stroke-width:0.80000001;stroke-linecap:square;stroke-linejoin:miter;stroke-miterlimit:3.79999995;stroke-opacity:1;stroke-dasharray:none"
       id="path94"
       inkscape:connector-curvature="0" /><path
       d="m 137.301,15.398 0,3.1532"
       style="fill:none;stroke:#000000;stroke-width:0.80000001;stroke-linecap:square;stroke-linejoin:miter;stroke-miterlimit:3.79999995;stroke-opacity:1;stroke-dasharray:none"
       id="path102"
       inkscape:connector-curvature="0" /><path
       d="m 137.301,205.352 0,-3.153"
       style="fill:none;stroke:#000000;stroke-width:0.80000001;stroke-linecap:square;stroke-linejoin:miter;stroke-miterlimit:3.79999995;stroke-opacity:1;stroke-dasharray:none"
       id="path104"
       inkscape:connector-curvature="0" /><path
       d="m 189.301,15.398 0,3.1532"
       style="fill:none;stroke:#000000;stroke-width:0.80000001;stroke-linecap:square;stroke-linejoin:miter;stroke-miterlimit:3.79999995;stroke-opacity:1;stroke-dasharray:none"
       id="path112"
       inkscape:connector-curvature="0" /><path
       d="m 189.301,205.352 0,-3.153"
       style="fill:none;stroke:#000000;stroke-width:0.80000001;stroke-linecap:square;stroke-linejoin:miter;stroke-miterlimit:3.79999995;stroke-opacity:1;stroke-dasharray:none"
       id="path114"
       inkscape:connector-curvature="0" /><path
       d="m 241.301,15.398 0,3.1532"
       style="fill:none;stroke:#000000;stroke-width:0.80000001;stroke-linecap:square;stroke-linejoin:miter;stroke-miterlimit:3.79999995;stroke-opacity:1;stroke-dasharray:none"
       id="path122"
       inkscape:connector-curvature="0" /><path
       d="m 241.301,205.352 0,-3.153"
       style="fill:none;stroke:#000000;stroke-width:0.80000001;stroke-linecap:square;stroke-linejoin:miter;stroke-miterlimit:3.79999995;stroke-opacity:1;stroke-dasharray:none"
       id="path124"
       inkscape:connector-curvature="0" /><path
       d="m 293.301,15.398 0,3.1532"
       style="fill:none;stroke:#000000;stroke-width:0.80000001;stroke-linecap:square;stroke-linejoin:miter;stroke-miterlimit:3.79999995;stroke-opacity:1;stroke-dasharray:none"
       id="path132"
       inkscape:connector-curvature="0" /><path
       d="m 293.301,205.352 0,-3.153"
       style="fill:none;stroke:#000000;stroke-width:0.80000001;stroke-linecap:square;stroke-linejoin:miter;stroke-miterlimit:3.79999995;stroke-opacity:1;stroke-dasharray:none"
       id="path134"
       inkscape:connector-curvature="0" /><path
       d="m 345.301,15.398 0,3.1532"
       style="fill:none;stroke:#000000;stroke-width:0.80000001;stroke-linecap:square;stroke-linejoin:miter;stroke-miterlimit:3.79999995;stroke-opacity:1;stroke-dasharray:none"
       id="path142"
       inkscape:connector-curvature="0" /><path
       d="m 345.301,205.352 0,-3.153"
       style="fill:none;stroke:#000000;stroke-width:0.80000001;stroke-linecap:square;stroke-linejoin:miter;stroke-miterlimit:3.79999995;stroke-opacity:1;stroke-dasharray:none"
       id="path144"
       inkscape:connector-curvature="0" /><path
       d="m 33.3012,15.3988 312,0 0,189.953 -312,0 0,-189.953 z"
       style="fill:none;stroke:#000000;stroke-width:0.80000001;stroke-linecap:square;stroke-linejoin:miter;stroke-miterlimit:3.79999995;stroke-opacity:1;stroke-dasharray:none"
       id="path152"
       inkscape:connector-curvature="0" /><path
       d="m 33.3012,15.398 1.3008,0 1.296,0.0508 1.3008,0 3.9032,0.1532 1.296,0.046 1.3008,0.0508 1.3012,0 1.3012,0.0512 2.5968,0 1.3008,-0.0512 1.3012,0 1.3012,-0.0508 1.3008,-0.046 1.296,-0.0508 1.3008,-0.0512 6.5,0 1.3012,-0.0512 1.3012,0 1.3008,-0.0508 1.296,0.0508 3.9032,0.1532 1.3008,0.046 1.296,0.0508 10.4032,0 1.3008,0.0512 1.296,0.0512 5.204,0 L 94.398,15.75 95.6988,15.6988 97,15.602 l 1.3012,-0.0508 1.3008,-0.1024 1.296,0 1.301,0.0512 1.301,0.102 1.301,0.046 1.301,0.0508 1.296,0.0512 1.301,0.102 1.301,0.046 1.301,0.102 1.301,0.0512 1.296,0.0968 2.602,0.204 1.301,0.046 1.301,0.102 1.296,0 1.301,0.0512 2.602,-0.1024 1.301,-0.0968 1.296,-0.102 1.301,-0.102 1.301,-0.148 1.301,-0.1988 1.301,-0.1532 1.296,-0.1992 1.301,0.1532 1.301,0.1992 2.602,0.5 1.296,0.25 1.301,0.3468 3.903,0.9032 1.296,0.3468 1.301,0.4032 2.602,0.8976 1.301,0.25 1.296,0.1532 1.301,0.046 1.301,0 1.301,0.0508 1.301,-0.0968 1.296,-0.204 1.301,-0.296 1.301,-0.4032 1.301,-0.4488 1.301,-0.602 1.296,-0.75 1.301,-0.898 1.301,-0.5 1.301,1.398 1.301,1.6532 1.296,1.9488 1.301,2 1.301,2.5512 1.301,2.8008 1.301,3.296 1.296,3.704 1.301,4.1992 1.301,4.6988 1.301,5.102 1.301,5.4492 1.296,5.75 1.301,6.1476 1.301,6.3524 1.301,6.6988 1.301,7 1.296,7.148 1.301,7.403 1.301,7.597 1.301,7.551 1.301,7.699 1.296,7.75 1.301,7.602 1.301,7.301 1.301,7.097 1.301,6.801 1.296,6.551 1.301,6.102 1.301,5.699 1.301,5.199 1.301,4.602 1.296,4.25 1.301,3.699 1.301,3.051 1.301,2.449 1.301,1.648 1.296,1.102 1.301,0.551 1.301,-0.102 1.301,-0.949 1.301,-1.403 1.296,-2 1.301,-2.648 1.301,-3.102 1.301,-3.449 1.301,-4.051 1.296,-4.296 1.301,-4.852 1.301,-5 1.301,-5.301 1.301,-5.449 1.296,-5.648 1.301,-5.75 1.301,-5.954 1.301,-5.847 1.301,-6.051 1.296,-5.852 1.301,-5.898 1.301,-5.75 1.301,-5.648 1.301,-5.551 1.296,-5.3522 1.301,-5.1476 1.301,-4.9492 1.301,-4.8008 1.301,-4.6024 1.296,-4.3468 1.301,-4.1532 1.301,-3.9488 1.301,-3.75 1.301,-3.5 1.296,-3.352 1.301,-3.0968 1.301,-2.9492 1.301,-2.75 1.301,-2.602 1.296,-2.352 1.301,-2.1992 1.301,-2.0508 1.301,-1.898 1.301,-1.75 1.296,-1.648 1.301,-1.5 1.301,-1.4032 1.301,-1.25 1.301,-1.1988 1.296,-1.102 1.301,-1 1.301,-0.898 1.301,-0.852 1.301,-0.75 1.296,-0.648 1.301,-0.648 1.301,-0.602 2.602,-0.898 1.296,-0.454 1.301,-0.3468 1.301,-0.3524 1.301,-0.3008 1.301,-0.296 1.296,-0.25 1.301,-0.25 1.301,-0.204 2.602,-0.398 1.296,-0.148 1.301,-0.1532 1.301,-0.1476 1.301,-0.1532 1.301,-0.0968 1.296,-0.1024 1.301,-0.0968 2.602,-0.204 1.301,-0.0968 1.296,-0.1024 1.301,-0.0508 1.301,-0.046 1.301,-0.102 1.301,-0.0512 1.296,-0.0508 1.301,-0.046 3.903,-0.1532 1.296,-0.0508 1.301,-0.046 1.301,-0.0508 1.301,0 1.301,-0.0512 1.296,-0.0512 1.301,0 1.301,-0.0508 1.301,0"
       style="fill:none;stroke:#ff0000;stroke-width:0.80000001;stroke-linecap:square;stroke-linejoin:miter;stroke-miterlimit:3.79999995;stroke-opacity:1;stroke-dasharray:none"
       id="path162"
       inkscape:connector-curvature="0" /><path
       d="m 33.3012,15.398 1.3008,0.0508 1.296,0.1024 1.3008,0.1476 3.9032,0.75 1.296,0.3012 2.602,0.398 1.3012,0.1532 1.3008,0.0508 1.296,0 1.3008,-0.0508 L 51.5,17.148 52.8012,17 54.102,16.8012 55.398,16.602 56.6988,16.4488 58,16.352 59.3012,16.25 60.602,16.1988 61.898,16.102 63.1988,16 64.5,15.852 l 1.3012,-0.204 1.3008,-0.1992 1.296,0.3012 1.3008,0.352 1.3012,0.3468 1.3012,0.3524 1.3008,0.3468 1.296,0.3008 1.3008,0.25 1.3012,0.1992 1.3012,0.1532 1.3008,0.0968 1.296,0.102 1.3008,0.102 1.3012,0.0968 2.602,0.1024 1.296,0.0508 1.3008,0 L 90.5,18.5 91.8012,18.352 93.102,18.148 94.398,17.8012 95.6988,17.398 97,16.9488 l 1.3012,-0.5508 1.3008,-0.5968 1.296,-0.1024 1.301,0.6532 2.602,1.398 1.301,0.75 1.296,0.6988 1.301,0.6992 1.301,0.6532 1.301,0.6476 1.301,0.6532 1.296,0.5968 1.301,0.5 1.301,0.4492 1.301,0.352 1.301,0.25 1.296,0.102 1.301,-0.0508 1.301,-0.1992 1.301,-0.4032 1.301,-0.5968 1.296,-0.75 1.301,-0.954 1.301,-1.0968 1.301,-1.3012 1.301,-1.4488 1.296,-1.6532 1.301,1.25 1.301,1.9032 1.301,1.9488 1.301,2.102 1.296,2.148 2.602,4.398 1.301,2.204 1.301,2.0968 1.296,2.1532 1.301,1.8468 1.301,1.6024 1.301,1.3468 1.301,1.102 1.296,0.6988 1.301,0.4492 1.301,-0.046 1.301,-0.4032 1.301,-0.8976 1.296,-1.4492 1.301,-2.102 1.301,-2.602 1.301,-3.148 1.301,-3.75 1.296,-4.3012 1.301,-4.8468 1.301,-2.454 1.301,6 1.301,6.5508 1.296,7 1.301,7.3524 1.301,7.8468 1.301,8.204 1.301,8.5 1.296,8.6992 1.301,8.9488 2.602,18.102 1.301,8.949 1.296,8.801 1.301,8.648 1.301,8.398 1.301,8 1.301,7.75 1.296,7.352 1.301,6.852 1.301,6.398 1.301,5.801 1.301,5.097 1.296,4.704 1.301,4.097 1.301,3.301 1.301,2.551 1.301,2.148 1.296,1.403 1.301,0.898 1.301,0.102 1.301,-0.352 1.301,-1 1.296,-1.449 1.301,-1.949 1.301,-2.352 1.301,-2.852 1.301,-3.347 1.296,-3.801 1.301,-4.102 1.301,-4.199 1.301,-4.648 1.301,-4.903 1.296,-5 1.301,-5.199 1.301,-5.398 1.301,-5.403 1.301,-5.449 1.296,-5.449 2.602,-11.102 1.301,-5.398 1.301,-5.352 1.296,-5.296 1.301,-5.153 1.301,-5.051 1.301,-4.898 1.301,-4.75 1.296,-4.602 1.301,-4.398 1.301,-4.25 1.301,-4.0512 1.301,-3.8008 1.296,-3.6992 1.301,-3.5508 1.301,-3.296 1.301,-3.204 1.301,-2.898 1.296,-2.75 1.301,-2.648 1.301,-2.454 1.301,-2.25 1.301,-2.148 1.296,-2 1.301,-1.852 1.301,-1.6992 1.301,-1.5968 1.301,-1.5 1.296,-1.4032 1.301,-1.25 1.301,-1.1476 1.301,-1.1024 1.301,-1 1.296,-0.8976 1.301,-0.8524 1.301,-0.75 2.602,-1.3976 1.296,-0.5512 1.301,-0.5512 2.602,-1 1.301,-0.3976 1.296,-0.4032 1.301,-0.3468 1.301,-0.5 1.301,-0.3012 1.301,-0.25 1.296,-0.25 2.602,-0.398 1.301,-0.204 1.301,-0.148 1.296,-0.1988 1.301,-0.1024 1.301,-0.1476 1.301,-0.1532 1.301,-0.0968 1.296,-0.1024 1.301,-0.0968 1.301,-0.102 1.301,-0.0512 1.301,-0.0968 1.296,-0.0508 1.301,-0.1024 1.301,-0.0508 1.301,-0.046 1.301,-0.0508 1.296,-0.0512 2.602,-0.102 1.301,-0.046 1.301,-0.0508 1.296,-0.0512 1.301,0 2.602,-0.102 1.301,0 1.296,-0.046 1.301,0 1.301,-0.0508 1.301,0 1.301,-0.0512 1.296,0 1.301,-0.0512 2.602,0"
       style="fill:none;stroke:#009600;stroke-width:0.80000001;stroke-linecap:square;stroke-linejoin:miter;stroke-miterlimit:3.79999995;stroke-opacity:1;stroke-dasharray:6.4, 6.4;stroke-dashoffset:0"
       id="path172"
       inkscape:connector-curvature="0" /><path
       d="m 33.3012,15.398 1.3008,0.1532 1.296,0.4488 1.3008,0.75 1.3012,1 1.3012,1.3012 1.3008,1.4488 1.296,1.602 1.3008,1.6992 1.3012,1.75 1.3012,1.8008 1.3008,1.648 1.296,1.602 1.3008,1.3468 1.3012,1.1532 1.3012,0.796 1.3008,0.5 1.296,0.102 1.3008,-0.352 1.3012,-0.796 1.3012,-1.25 1.3008,-1.75 1.296,-2.25 1.3008,-2.6532 1.3012,-3.1476 1.3012,-3.5 1.3008,-2.9032 1.296,4.204 1.3008,4.398 1.3012,4.602 1.3012,4.648 1.3008,4.6988 1.296,4.5512 1.3008,4.398 1.3012,4.1532 1.3012,3.75 1.3008,3.25 1.296,2.75 1.3008,2.1476 L 84,64.898 85.3012,65.602 86.602,65.5 87.898,64.5512 89.1988,62.75 90.5,60.102 91.8012,56.602 93.102,52.3012 94.398,47.148 95.6988,41.3012 97,34.75 98.3012,27.602 99.602,20 l 1.296,-1.1988 1.301,8.25 1.301,8.3468 1.301,8.4032 1.301,8.1988 1.296,7.9488 1.301,7.5 1.301,6.9492 1.301,6.3008 1.301,5.4032 1.296,4.5 1.301,3.398 1.301,2.3012 1.301,1.0968 1.301,-0.148 1.296,-1.4488 L 121.699,93 123,88.9488 124.301,83.602 125.602,77 l 1.296,-7.75 1.301,-8.75 1.301,-9.75 1.301,-10.5512 1.301,-11.25 1.296,-11.6988 1.301,8.398 1.301,12.204 1.301,12.1992 1.301,12 1.296,11.5508 1.301,10.9492 1.301,10.1988 1.301,9.25 1.301,8.102 1.296,6.898 1.301,5.5 1.301,4.051 1.301,2.449 1.301,0.852 1.296,-0.801 1.301,-2.5 1.301,-4.102 1.301,-5.75 1.301,-7.301 1.296,-8.75 1.301,-10.0968 1.301,-11.3524 1.301,-12.4488 1.301,-13.352 1.296,-14.1992 1.301,-14.75 1.301,-6.9488 1.301,15.4488 1.301,15.5 1.296,15.4032 1.301,15.0968 1.301,14.75 1.301,14.1022 1.301,13.449 1.296,12.648 1.301,11.704 1.301,10.699 1.301,9.699 1.301,8.551 1.296,7.449 1.301,6.301 1.301,5.199 1.301,4.051 1.301,2.949 1.296,1.949 1.301,0.903 1.301,0 1.301,-0.903 1.301,-1.699 1.296,-2.398 1.301,-3.051 1.301,-3.653 1.301,-4.148 1.301,-4.551 1.296,-4.949 1.301,-5.25 1.301,-5.449 1.301,-5.653 1.301,-5.699 1.296,-5.847 1.301,-5.852 2.602,-11.602 1.301,-5.699 1.296,-5.597 1.301,-5.454 1.301,-5.296 1.301,-5.153 1.301,-5 1.296,-4.801 1.301,-4.648 1.301,-4.398 1.301,-4.25 1.301,-4.0508 1.296,-3.8524 1.301,-3.6988 1.301,-3.4488 1.301,-3.3012 1.301,-3.148 1.296,-2.954 1.301,-2.796 1.301,-2.602 1.301,-2.5 1.301,-2.352 1.296,-2.1992 1.301,-2.0508 1.301,-1.9492 1.301,-1.8008 1.301,-1.6992 1.296,-1.5968 1.301,-1.5508 1.301,-1.4032 1.301,-1.296 1.301,-1.25 1.296,-1.1532 1.301,-1.0508 1.301,-1.046 1.301,-0.9032 1.301,-0.8976 1.296,-0.8524 1.301,-0.75 2.602,-1.3976 1.301,-0.6024 1.296,-0.5968 1.301,-0.5508 2.602,-1 1.301,-0.4032 1.296,-0.4492 1.301,-0.3976 1.301,-0.3524 1.301,-0.3008 1.301,-0.3468 1.296,-0.3012 3.903,-0.75 1.301,-0.1988 1.296,-0.25 1.301,-0.1532 1.301,-0.1992 1.301,-0.1476 1.301,-0.1992 1.296,-0.102 1.301,-0.148 1.301,-0.1532 1.301,-0.0968 1.301,-0.102 1.296,-0.102 1.301,-0.0968 1.301,-0.1024 1.301,-0.0968 1.301,-0.0508 1.296,-0.1024 1.301,-0.0508 1.301,-0.0968 2.602,-0.1024 1.296,-0.0508 1.301,-0.046 3.903,-0.1532 1.296,0 1.301,-0.0508 1.301,-0.046 1.301,0 1.301,-0.0508 1.296,0 1.301,-0.0512 1.301,0 1.301,-0.0512 1.301,0 1.296,-0.0508 3.903,0 1.301,-0.046 2.597,0 1.301,-0.0508 1.301,0"
       style="fill:none;stroke:#0000ff;stroke-width:0.80000001;stroke-linecap:square;stroke-linejoin:miter;stroke-miterlimit:3.79999995;stroke-opacity:1;stroke-dasharray:2.4, 2.4;stroke-dashoffset:0"
       id="path182"
       inkscape:connector-curvature="0" /><path
       d="m 33.3012,15.3988 312,0 0,189.953 -312,0 0,-189.953 z"
       style="fill:none;stroke:#000000;stroke-width:0.80000001;stroke-linecap:square;stroke-linejoin:miter;stroke-miterlimit:3.79999995;stroke-opacity:1;stroke-dasharray:none"
       id="path184"
       inkscape:connector-curvature="0" /><g
       style="font-style:normal;font-variant:normal;font-weight:normal;font-stretch:normal;letter-spacing:normal;word-spacing:normal;text-anchor:start;fill:none;stroke:#000000;stroke-linecap:butt;stroke-linejoin:miter;stroke-miterlimit:10.43299961;stroke-opacity:1;stroke-dasharray:none;stroke-dashoffset:0"
       id="g3209"
       transform="matrix(2.0045568,0,0,2.0045568,-600.37223,-1438.821)"
       xml:space="preserve"
       stroke-miterlimit="10.433"
       font-style="normal"
       font-variant="normal"
       font-weight="normal"
       font-stretch="normal"
       font-size-adjust="none"
       letter-spacing="normal"
       word-spacing="normal"
       ns0:text="$$R\\,{\\rm (fm)}$$"
       ns0:preamble="/home/yoshidak/.config/inkscape/extensions/packages.txt"><path
         style="fill:#000000;stroke-width:0"
         inkscape:connector-curvature="0"
         d="m 386.25,710.5 0.1,0.02 0.09,0.03 0.1,0.03 0.1,0.03 0.09,0.03 0.1,0.03 0.09,0.04 0.1,0.04 0.09,0.05 0.1,0.04 0.09,0.05 0.09,0.05 0.08,0.05 0.09,0.06 0.08,0.06 0.08,0.06 0.08,0.06 0.08,0.06 0.07,0.07 0.06,0.07 0.07,0.07 0.06,0.07 0.05,0.08 0.05,0.08 0.05,0.08 0.04,0.08 0.03,0.08 0.03,0.09 0.02,0.09 0.02,0.09 0.01,0.09 0,0.09 c 0,0.85 -0.89,1.49 -2.2,1.49 h -2.83 c -0.2,0 -0.29,0 -0.29,-0.2 0,-0.11 0.09,-0.11 0.28,-0.11 0.02,0 0.21,0 0.37,-0.02 0.18,-0.02 0.27,-0.03 0.27,-0.16 0,-0.04 -0.01,-0.07 -0.04,-0.19 l -1.33,-5.33 c -0.1,-0.39 -0.12,-0.47 -0.9,-0.47 -0.18,0 -0.27,0 -0.27,-0.2 0,-0.11 0.12,-0.11 0.14,-0.11 0.28,0 0.97,0.04 1.25,0.04 0.28,0 0.99,-0.04 1.26,-0.04 0.08,0 0.2,0 0.2,0.2 0,0.11 -0.09,0.11 -0.28,0.11 -0.36,0 -0.64,0 -0.64,0.18 0,0.06 0.02,0.11 0.03,0.17 l 0.65,2.63 h 1.19 l -0.01,0.22 h -1.12 l 0.65,2.59 c 0.06,0.24 0.09,0.34 0.28,0.37 0.09,0.01 0.41,0.01 0.6,0.01 0.71,0 1.82,0 1.82,-0.98 0,-0.34 -0.16,-1.03 -0.55,-1.41 -0.26,-0.26 -0.79,-0.58 -1.68,-0.58 l 0.01,-0.22 c 0.9,0 1.08,-0.55 1.08,-0.9 0,-0.15 -0.08,-0.46 -0.14,-0.69 -0.07,-0.27 -0.16,-0.64 -0.16,-0.84 0,-1.07 1.2,-1.07 1.33,-1.07 0.84,0 1.19,1 1.19,1.14 0,0.12 -0.11,0.12 -0.12,0.12 -0.09,0 -0.11,-0.07 -0.13,-0.14 -0.25,-0.74 -0.68,-0.91 -0.9,-0.91 -0.33,0 -0.4,0.22 -0.4,0.61 0,0.31 0.06,0.82 0.1,1.13 0.02,0.14 0.04,0.33 0.04,0.47 0,0.76 -0.67,1.07 -0.94,1.17 z"
         id="path3211" /><path
         style="fill:#000000;stroke-width:0"
         inkscape:connector-curvature="0"
         d="m 393.68,704.74 0,0.01 0,0 0,0 0,0.01 0,0 0,0 0,0.01 0,0 0,0 0,0.01 -0.01,0 0,0.01 0,0 -0.01,0.01 0,0 -0.01,0.01 0,0.01 -0.01,0 0,0.01 0,0 -0.01,0.01 0,0 0,0 -0.01,0.01 0,0 -0.01,0.01 0,0 -0.01,0.01 0,0 -0.01,0.01 0,0 -0.01,0.01 0,0.01 -0.01,0 -0.01,0.01 0,0.01 -0.01,0 -0.01,0.01 0,0.01 -0.01,0 -0.01,0.01 0,0.01 c -1.25,1.25 -1.57,3.13 -1.57,4.65 0,1.73 0.38,3.46 1.6,4.7 0.13,0.12 0.13,0.14 0.13,0.17 0,0.07 -0.04,0.1 -0.1,0.1 -0.1,0 -0.99,-0.68 -1.58,-1.94 -0.51,-1.09 -0.62,-2.2 -0.62,-3.03 0,-0.78 0.1,-1.98 0.65,-3.1 0.6,-1.22 1.45,-1.87 1.55,-1.87 0.06,0 0.1,0.03 0.1,0.1 z"
         id="path3213" /><path
         style="fill:#000000;stroke-width:0"
         inkscape:connector-curvature="0"
         d="m 396.01,711.41 v 1.15 c 0,0.87 0.47,1.35 0.91,1.35 0.03,0 0.18,0 0.33,-0.07 -0.12,-0.04 -0.3,-0.17 -0.3,-0.42 0,-0.22 0.16,-0.42 0.43,-0.42 0.29,0 0.44,0.2 0.44,0.43 0,0.37 -0.37,0.7 -0.9,0.7 -0.69,0 -1.54,-0.53 -1.54,-1.58 v -1.14 h -0.79 v -0.31 h 0.79 v -3.22 c 0,-0.45 -0.11,-0.45 -0.78,-0.45 v -0.31 c 0.39,0.02 0.86,0.04 1.14,0.04 0.4,0 0.86,0 1.26,-0.04 v 0.31 h -0.21 c -0.73,0 -0.75,0.11 -0.75,0.47 v 3.2 h 1.13 v 0.31 z"
         id="path3215" /><path
         style="fill:#000000;stroke-width:0"
         inkscape:connector-curvature="0"
         d="m 398.4,710.54 v -2.66 c 0,-0.45 -0.1,-0.45 -0.77,-0.45 v -0.31 c 0.35,0.02 0.85,0.04 1.12,0.04 0.26,0 0.78,-0.02 1.12,-0.04 v 0.31 c -0.67,0 -0.78,0 -0.78,0.45 v 1.83 c 0,1.03 0.71,1.59 1.34,1.59 0.63,0 0.74,-0.54 0.74,-1.1 v -2.32 c 0,-0.45 -0.11,-0.45 -0.78,-0.45 v -0.31 c 0.35,0.02 0.86,0.04 1.13,0.04 0.26,0 0.78,-0.02 1.11,-0.04 v 0.31 c -0.66,0 -0.77,0 -0.77,0.45 v 1.83 c 0,1.03 0.7,1.59 1.34,1.59 0.63,0 0.74,-0.54 0.74,-1.1 v -2.32 c 0,-0.45 -0.11,-0.45 -0.78,-0.45 v -0.31 c 0.35,0.02 0.86,0.04 1.12,0.04 0.26,0 0.78,-0.02 1.12,-0.04 v 0.31 c -0.52,0 -0.77,0 -0.78,0.3 v 1.9 c 0,0.85 0,1.16 -0.31,1.52 -0.14,0.17 -0.46,0.37 -1.04,0.37 -0.84,0 -1.27,-0.6 -1.44,-0.98 -0.14,0.87 -0.88,0.98 -1.33,0.98 -0.72,0 -1.19,-0.43 -1.47,-1.05 v 1.05 l -1.4,-0.11 v -0.31 c 0.7,0 0.77,-0.07 0.77,-0.56 z"
         id="path3217" /><path
         style="fill:#000000;stroke-width:0"
         inkscape:connector-curvature="0"
         d="m 408.49,709.61 0,0.07 0,0.08 -0.01,0.08 0,0.08 -0.01,0.17 -0.01,0.17 -0.01,0.18 -0.03,0.19 -0.02,0.2 -0.04,0.2 -0.04,0.2 -0.04,0.21 -0.05,0.21 -0.07,0.21 -0.07,0.21 -0.07,0.21 -0.05,0.11 -0.04,0.11 -0.05,0.1 -0.05,0.11 c -0.6,1.22 -1.45,1.87 -1.55,1.87 -0.06,0 -0.1,-0.04 -0.1,-0.1 0,-0.03 0,-0.05 0.19,-0.23 0.97,-0.99 1.54,-2.57 1.54,-4.64 0,-1.7 -0.37,-3.45 -1.6,-4.7 -0.13,-0.12 -0.13,-0.14 -0.13,-0.17 0,-0.06 0.04,-0.1 0.1,-0.1 0.1,0 0.99,0.68 1.58,1.94 0.51,1.09 0.63,2.19 0.63,3.03 z"
         id="path3219" /></g><text
       transform="scale(1,-1)"
       sodipodi:linespacing="125%"
       id="text3340"
       y="-0.84539068"
       x="29.106941"
       style="font-size:14.97278023px;font-style:normal;font-variant:normal;font-weight:normal;font-stretch:normal;text-align:start;line-height:125%;letter-spacing:0px;word-spacing:0px;writing-mode:lr-tb;text-anchor:start;fill:#000000;fill-opacity:1;stroke:none;font-family:Times New Roman;-inkscape-font-specification:'Times New Roman,'"
       xml:space="preserve"><tspan
         y="-0.84539068"
         x="29.106941"
         id="tspan3342"
         sodipodi:role="line">0</tspan></text>
<text
       transform="scale(1,-1)"
       sodipodi:linespacing="125%"
       id="text3344"
       y="-0.75765735"
       x="80.496048"
       style="font-size:14.97278023px;font-style:normal;font-variant:normal;font-weight:normal;font-stretch:normal;text-align:start;line-height:125%;letter-spacing:0px;word-spacing:0px;writing-mode:lr-tb;text-anchor:start;fill:#000000;fill-opacity:1;stroke:none;font-family:Times New Roman;-inkscape-font-specification:'Times New Roman,'"
       xml:space="preserve"><tspan
         y="-0.75765735"
         x="80.496048"
         id="tspan3346"
         sodipodi:role="line">2</tspan></text>
<text
       transform="scale(1,-1)"
       sodipodi:linespacing="125%"
       id="text3348"
       y="-0.75765735"
       x="133.13663"
       style="font-size:14.97278023px;font-style:normal;font-variant:normal;font-weight:normal;font-stretch:normal;text-align:start;line-height:125%;letter-spacing:0px;word-spacing:0px;writing-mode:lr-tb;text-anchor:start;fill:#000000;fill-opacity:1;stroke:none;font-family:Times New Roman;-inkscape-font-specification:'Times New Roman,'"
       xml:space="preserve"><tspan
         y="-0.75765735"
         x="133.13663"
         id="tspan3350"
         sodipodi:role="line">4</tspan></text>
<text
       transform="scale(1,-1)"
       sodipodi:linespacing="125%"
       id="text3352"
       y="-0.84539068"
       x="184.90015"
       style="font-size:14.97278023px;font-style:normal;font-variant:normal;font-weight:normal;font-stretch:normal;text-align:start;line-height:125%;letter-spacing:0px;word-spacing:0px;writing-mode:lr-tb;text-anchor:start;fill:#000000;fill-opacity:1;stroke:none;font-family:Times New Roman;-inkscape-font-specification:'Times New Roman,'"
       xml:space="preserve"><tspan
         y="-0.84539068"
         x="184.90015"
         id="tspan3354"
         sodipodi:role="line">6</tspan></text>
<text
       transform="scale(1,-1)"
       sodipodi:linespacing="125%"
       id="text3356"
       y="-0.84539068"
       x="237.20052"
       style="font-size:14.97278023px;font-style:normal;font-variant:normal;font-weight:normal;font-stretch:normal;text-align:start;line-height:125%;letter-spacing:0px;word-spacing:0px;writing-mode:lr-tb;text-anchor:start;fill:#000000;fill-opacity:1;stroke:none;font-family:Times New Roman;-inkscape-font-specification:'Times New Roman,'"
       xml:space="preserve"><tspan
         y="-0.84539068"
         x="237.20052"
         id="tspan3358"
         sodipodi:role="line">8</tspan></text>
<text
       transform="scale(1,-1)"
       sodipodi:linespacing="125%"
       id="text3360"
       y="-0.84539068"
       x="285.85889"
       style="font-size:14.97278023px;font-style:normal;font-variant:normal;font-weight:normal;font-stretch:normal;text-align:start;line-height:125%;letter-spacing:0px;word-spacing:0px;writing-mode:lr-tb;text-anchor:start;fill:#000000;fill-opacity:1;stroke:none;font-family:Times New Roman;-inkscape-font-specification:'Times New Roman,'"
       xml:space="preserve"><tspan
         y="-0.84539068"
         x="285.85889"
         id="tspan3362"
         sodipodi:role="line">10</tspan></text>
<text
       transform="scale(1,-1)"
       sodipodi:linespacing="125%"
       id="text3364"
       y="-0.75765735"
       x="338.052"
       style="font-size:14.97278023px;font-style:normal;font-variant:normal;font-weight:normal;font-stretch:normal;text-align:start;line-height:125%;letter-spacing:0px;word-spacing:0px;writing-mode:lr-tb;text-anchor:start;fill:#000000;fill-opacity:1;stroke:none;font-family:Times New Roman;-inkscape-font-specification:'Times New Roman,'"
       xml:space="preserve"><tspan
         y="-0.75765735"
         x="338.052"
         id="tspan3366"
         sodipodi:role="line">12</tspan></text>
<text
       sodipodi:linespacing="125%"
       id="text3340-2"
       y="-10.258561"
       x="21.387615"
       style="font-size:14.97278023px;font-style:normal;font-variant:normal;font-weight:normal;font-stretch:normal;text-align:start;line-height:125%;letter-spacing:0px;word-spacing:0px;writing-mode:lr-tb;text-anchor:start;fill:#000000;fill-opacity:1;stroke:none;font-family:Times New Roman;-inkscape-font-specification:'Times New Roman,'"
       xml:space="preserve"
       transform="scale(1,-1)"><tspan
         y="-10.258561"
         x="21.387615"
         id="tspan3342-4"
         sodipodi:role="line">0</tspan></text>
<text
       sodipodi:linespacing="125%"
       id="text3340-0"
       y="-48.333542"
       x="10.245761"
       style="font-size:14.97278023px;font-style:normal;font-variant:normal;font-weight:normal;font-stretch:normal;text-align:start;line-height:125%;letter-spacing:0px;word-spacing:0px;writing-mode:lr-tb;text-anchor:start;fill:#000000;fill-opacity:1;stroke:none;font-family:Times New Roman;-inkscape-font-specification:'Times New Roman,'"
       xml:space="preserve"
       transform="scale(1,-1)"><tspan
         y="-48.333542"
         x="10.245761"
         id="tspan3342-43"
         sodipodi:role="line">0.2</tspan></text>
<text
       sodipodi:linespacing="125%"
       id="text3340-09"
       y="-85.683289"
       x="10.143408"
       style="font-size:14.97278023px;font-style:normal;font-variant:normal;font-weight:normal;font-stretch:normal;text-align:start;line-height:125%;letter-spacing:0px;word-spacing:0px;writing-mode:lr-tb;text-anchor:start;fill:#000000;fill-opacity:1;stroke:none;font-family:Times New Roman;-inkscape-font-specification:'Times New Roman,'"
       xml:space="preserve"
       transform="scale(1,-1)"><tspan
         y="-85.683289"
         x="10.143408"
         id="tspan3342-0"
         sodipodi:role="line">0.4</tspan></text>
<text
       sodipodi:linespacing="125%"
       id="text3340-5"
       y="-124.84612"
       x="10.201896"
       style="font-size:14.97278023px;font-style:normal;font-variant:normal;font-weight:normal;font-stretch:normal;text-align:start;line-height:125%;letter-spacing:0px;word-spacing:0px;writing-mode:lr-tb;text-anchor:start;fill:#000000;fill-opacity:1;stroke:none;font-family:Times New Roman;-inkscape-font-specification:'Times New Roman,'"
       xml:space="preserve"
       transform="scale(1,-1)"><tspan
         y="-124.84612"
         x="10.201896"
         id="tspan3342-5"
         sodipodi:role="line">0.6</tspan></text>
<text
       sodipodi:linespacing="125%"
       id="text3340-9"
       y="-163.28372"
       x="10.487021"
       style="font-size:14.97278023px;font-style:normal;font-variant:normal;font-weight:normal;font-stretch:normal;text-align:start;line-height:125%;letter-spacing:0px;word-spacing:0px;writing-mode:lr-tb;text-anchor:start;fill:#000000;fill-opacity:1;stroke:none;font-family:Times New Roman;-inkscape-font-specification:'Times New Roman,'"
       xml:space="preserve"
       transform="scale(1,-1)"><tspan
         y="-163.28372"
         x="10.487021"
         id="tspan3342-44"
         sodipodi:role="line">0.8</tspan></text>
<text
       sodipodi:linespacing="125%"
       id="text3340-7"
       y="-200.27084"
       x="10.158031"
       style="font-size:14.97278023px;font-style:normal;font-variant:normal;font-weight:normal;font-stretch:normal;text-align:start;line-height:125%;letter-spacing:0px;word-spacing:0px;writing-mode:lr-tb;text-anchor:start;fill:#000000;fill-opacity:1;stroke:none;font-family:Times New Roman;-inkscape-font-specification:'Times New Roman,'"
       xml:space="preserve"
       transform="scale(1,-1)"><tspan
         y="-200.27084"
         x="10.158031"
         id="tspan3342-04"
         sodipodi:role="line">1.0</tspan></text>
<text
       xml:space="preserve"
       style="font-size:14.73669434px;font-style:normal;font-variant:normal;font-weight:normal;font-stretch:normal;text-align:start;line-height:125%;letter-spacing:0px;word-spacing:0px;writing-mode:lr-tb;text-anchor:start;fill:#000000;fill-opacity:1;stroke:none;font-family:Times New Roman;-inkscape-font-specification:'Times New Roman,'"
       x="88.0429"
       y="-180.63342"
       id="text4616-2"
       sodipodi:linespacing="125%"
       transform="scale(1,-1)"><tspan
         sodipodi:role="line"
         id="tspan4618-5"
         x="0"
         y="0"><tspan
           style="font-size:9.57898617px;baseline-shift:sub"
           id="tspan4620-3" /></tspan></text>
<g
       id="g4716"
       transform="translate(-13.054279,-0.36261886)"><path
         inkscape:connector-curvature="0"
         id="path4610"
         d="m 63.553116,186.73664 c 30.25156,0 30.25156,0 30.25156,0"
         style="fill:none;stroke:#ff0000;stroke-width:0.80000001;stroke-linecap:butt;stroke-linejoin:miter;stroke-miterlimit:4;stroke-opacity:1;stroke-dasharray:none" /><text
         transform="scale(1,-1)"
         sodipodi:linespacing="125%"
         id="text4616-1"
         y="-181.72127"
         x="103.85705"
         style="font-size:14.73669434px;font-style:normal;font-variant:normal;font-weight:normal;font-stretch:normal;text-align:start;line-height:125%;letter-spacing:0px;word-spacing:0px;writing-mode:lr-tb;text-anchor:start;fill:#000000;fill-opacity:1;stroke:none;font-family:Times New Roman;-inkscape-font-specification:'Times New Roman,'"
         xml:space="preserve"><tspan
           y="-181.72127"
           x="103.85705"
           id="tspan4618-3"
           sodipodi:role="line">full</tspan></text>
</g><text
       xml:space="preserve"
       style="font-size:14.73669434px;font-style:normal;font-variant:normal;font-weight:normal;font-stretch:normal;text-align:start;line-height:125%;letter-spacing:0px;word-spacing:0px;writing-mode:lr-tb;text-anchor:start;fill:#000000;fill-opacity:1;stroke:none;font-family:Times New Roman;-inkscape-font-specification:'Times New Roman,'"
       x="91.277687"
       y="-166.29163"
       id="text4616"
       sodipodi:linespacing="125%"
       transform="scale(1,-1)"><tspan
         sodipodi:role="line"
         id="tspan4618"
         x="91.277687"
         y="-166.29163">w/ only <tspan
   id="tspan3093"
   style="font-style:italic">U</tspan><tspan
   style="font-size:9.57898617px;baseline-shift:sub"
   id="tspan4620">α</tspan></tspan></text>
<path
       style="fill:none;stroke:#009600;stroke-width:0.80000001;stroke-linecap:butt;stroke-linejoin:miter;stroke-miterlimit:4;stroke-opacity:1;stroke-dasharray:6.4, 6.4;stroke-dashoffset:0"
       d="m 50.498837,169.86858 c 30.25156,0 30.25156,0 30.25156,0"
       id="path4610-3"
       inkscape:connector-curvature="0" /><g
       id="g4727"
       transform="translate(-13.054279,-0.36261886)"><text
         transform="scale(1,-1)"
         sodipodi:linespacing="125%"
         id="text4616-1-7"
         y="-150.1855"
         x="104.47588"
         style="font-size:14.73669434px;font-style:normal;font-variant:normal;font-weight:normal;font-stretch:normal;text-align:start;line-height:125%;letter-spacing:0px;word-spacing:0px;writing-mode:lr-tb;text-anchor:start;fill:#000000;fill-opacity:1;stroke:none;font-family:Times New Roman;-inkscape-font-specification:'Times New Roman,'"
         xml:space="preserve"><tspan
           y="-150.1855"
           x="104.47588"
           id="tspan4618-3-9"
           sodipodi:role="line">PWIA</tspan></text>
<path
         inkscape:connector-curvature="0"
         id="path4610-8"
         d="m 63.553116,153.72576 c 30.25156,0 30.25156,0 30.25156,0"
         style="fill:none;stroke:#0000ff;stroke-width:0.80000001;stroke-linecap:butt;stroke-linejoin:miter;stroke-miterlimit:4;stroke-opacity:1;stroke-dasharray:2.4, 2.4;stroke-dashoffset:0" /></g><g
       style="font-style:normal;font-variant:normal;font-weight:normal;font-stretch:normal;letter-spacing:normal;word-spacing:normal;text-anchor:start;fill:none;stroke:#000000;stroke-linecap:butt;stroke-linejoin:miter;stroke-miterlimit:10.43299961;stroke-opacity:1;stroke-dasharray:none;stroke-dashoffset:0"
       ns0:preamble=""
       ns0:text="$$|I(R)|\\,\\rm {(arbitrary\\,unit)}$$"
       text-anchor="start"
       word-spacing="normal"
       letter-spacing="normal"
       font-size-adjust="none"
       font-stretch="normal"
       font-weight="normal"
       font-variant="normal"
       font-style="normal"
       fill-opacity="1"
       fill-rule="evenodd"
       fill="none"
       stroke-opacity="1"
       stroke-dashoffset="0"
       stroke-dasharray="none"
       stroke-miterlimit="10.433"
       stroke-linejoin="miter"
       stroke-linecap="butt"
       stroke="black"
       xml:space="preserve"
       transform="matrix(0,1.5161111,-1.5161111,0,1072.8529,-489.29091)"
       id="content"><path
         id="path3526"
         fill="black"
         stroke-width="0"
         d="M349.82,714.24 L349.82,714.27 L349.82,714.3 L349.82,714.34 L349.81,714.35 L349.81,714.37 L349.81,714.38 L349.81,714.4 L349.81,714.41 L349.81,714.43 L349.8,714.44 L349.8,714.46 L349.8,714.47 L349.79,714.48 L349.79,714.49 L349.78,714.51 L349.78,714.52 L349.77,714.53 L349.76,714.54 L349.75,714.55 L349.74,714.56 L349.73,714.56 L349.72,714.57 L349.72,714.57 L349.71,714.58 L349.7,714.58 L349.7,714.58 L349.69,714.58 L349.68,714.59 L349.68,714.59 L349.67,714.59 L349.66,714.59 L349.65,714.59 L349.64,714.59 L349.64,714.59 L349.63,714.59 L349.62,714.59 C349.42,714.59,349.42,714.41,349.42,714.24 V704.99 C349.42,704.81,349.42,704.63,349.62,704.63 C349.82,704.63,349.82,704.81,349.82,704.99 Z " /><path
         id="path3528"
         fill="black"
         stroke-width="0"
         d="M354.73,713.16 L354.73,713.19 L354.74,713.22 L354.75,713.25 L354.76,713.28 L354.77,713.31 L354.78,713.34 L354.79,713.36 L354.8,713.38 L354.81,713.4 L354.82,713.42 L354.83,713.44 L354.85,713.46 L354.86,713.48 L354.88,713.49 L354.9,713.51 L354.92,713.52 L354.94,713.54 L354.97,713.55 L354.99,713.56 L355.02,713.57 L355.06,713.58 L355.07,713.58 L355.09,713.58 L355.11,713.59 L355.13,713.59 L355.15,713.59 L355.17,713.6 L355.19,713.6 L355.22,713.6 L355.24,713.6 L355.26,713.61 L355.29,713.61 L355.32,713.61 L355.34,713.61 L355.37,713.61 L355.4,713.61 L355.43,713.62 L355.46,713.62 L355.49,713.62 L355.53,713.62 L355.56,713.62 L355.6,713.62 L355.63,713.62 C355.87,713.62,355.95,713.62,355.95,713.81 C355.95,713.93,355.84,713.93,355.8,713.93 C355.51,713.93,354.78,713.9,354.49,713.9 C354.19,713.9,353.46,713.93,353.16,713.93 C353.09,713.93,352.96,713.93,352.96,713.73 C352.96,713.62,353.05,713.62,353.24,713.62 C353.66,713.62,353.93,713.62,353.93,713.43 C353.93,713.38,353.93,713.36,353.91,713.27 L352.56,707.9 C352.47,707.53,352.45,707.43,351.66,707.43 C351.43,707.43,351.34,707.43,351.34,707.23 C351.34,707.12,351.46,707.12,351.49,707.12 C351.78,707.12,352.5,707.15,352.79,707.15 C353.09,707.15,353.83,707.12,354.13,707.12 C354.21,707.12,354.33,707.12,354.33,707.31 C354.33,707.43,354.25,707.43,354.03,707.43 C353.85,707.43,353.8,707.43,353.6,707.45 C353.39,707.47,353.35,707.51,353.35,707.62 C353.35,707.7,353.37,707.78,353.39,707.85 Z " /><path
         id="path3530"
         fill="black"
         stroke-width="0"
         d="M359.46,704.73 L359.46,704.74 L359.46,704.74 L359.46,704.75 L359.46,704.75 L359.46,704.75 L359.46,704.75 L359.45,704.76 L359.45,704.76 L359.45,704.77 L359.45,704.77 L359.45,704.77 L359.44,704.78 L359.44,704.78 L359.44,704.79 L359.43,704.79 L359.43,704.8 L359.42,704.81 L359.42,704.81 L359.41,704.82 L359.41,704.82 L359.41,704.83 L359.4,704.83 L359.4,704.84 L359.39,704.84 L359.39,704.84 L359.39,704.85 L359.38,704.85 L359.38,704.86 L359.37,704.86 L359.37,704.87 L359.36,704.88 L359.36,704.88 L359.35,704.89 L359.34,704.89 L359.34,704.9 L359.33,704.91 L359.32,704.91 L359.32,704.92 L359.31,704.93 L359.3,704.94 L359.3,704.94 L359.29,704.95 C358.04,706.21,357.72,708.09,357.72,709.61 C357.72,711.35,358.1,713.08,359.33,714.33 C359.46,714.45,359.46,714.47,359.46,714.49 C359.46,714.57,359.42,714.59,359.36,714.59 C359.26,714.59,358.36,713.92,357.77,712.65 C357.27,711.56,357.15,710.45,357.15,709.61 C357.15,708.84,357.26,707.63,357.8,706.51 C358.4,705.28,359.26,704.63,359.36,704.63 C359.42,704.63,359.46,704.66,359.46,704.73 Z " /><path
         id="path3532"
         fill="black"
         stroke-width="0"
         d="M365.21,710.51 L365.3,710.53 L365.4,710.56 L365.49,710.58 L365.59,710.61 L365.69,710.65 L365.78,710.68 L365.88,710.72 L365.97,710.76 L366.07,710.8 L366.16,710.85 L366.25,710.9 L366.34,710.95 L366.43,711 L366.52,711.06 L366.6,711.12 L366.68,711.18 L366.76,711.24 L366.83,711.3 L366.9,711.37 L366.97,711.44 L367.04,711.51 L367.09,711.58 L367.15,711.66 L367.2,711.74 L367.24,711.82 L367.28,711.9 L367.32,711.98 L367.35,712.07 L367.37,712.16 L367.39,712.25 L367.4,712.34 L367.4,712.43 C367.4,713.29,366.5,713.93,365.2,713.93 H362.36 C362.16,713.93,362.07,713.93,362.07,713.73 C362.07,713.62,362.16,713.62,362.35,713.62 C362.37,713.62,362.56,713.62,362.73,713.6 C362.91,713.58,363,713.57,363,713.44 C363,713.4,362.99,713.37,362.96,713.25 L361.62,707.9 C361.52,707.51,361.5,707.43,360.71,707.43 C360.54,707.43,360.45,707.43,360.45,707.23 C360.45,707.12,360.57,707.12,360.58,707.12 C360.86,707.12,361.56,707.15,361.84,707.15 C362.12,707.15,362.83,707.12,363.11,707.12 C363.19,707.12,363.3,707.12,363.3,707.32 C363.3,707.43,363.22,707.43,363.03,707.43 C362.66,707.43,362.38,707.43,362.38,707.61 C362.38,707.67,362.4,707.72,362.41,707.78 L363.07,710.42 H364.25 L364.24,710.64 H363.13 L363.77,713.24 C363.83,713.48,363.86,713.58,364.05,713.61 C364.14,713.62,364.46,713.62,364.66,713.62 C365.37,713.62,366.47,713.62,366.47,712.63 C366.47,712.29,366.31,711.61,365.92,711.22 C365.67,710.96,365.14,710.64,364.24,710.64 L364.25,710.42 C365.16,710.42,365.34,709.86,365.34,709.51 C365.34,709.36,365.26,709.05,365.2,708.83 C365.13,708.55,365.04,708.18,365.04,707.98 C365.04,706.9,366.23,706.9,366.36,706.9 C367.21,706.9,367.56,707.91,367.56,708.05 C367.56,708.17,367.45,708.17,367.44,708.17 C367.35,708.17,367.33,708.1,367.31,708.03 C367.06,707.29,366.63,707.12,366.4,707.12 C366.08,707.12,366.01,707.34,366.01,707.73 C366.01,708.04,366.07,708.55,366.11,708.87 C366.12,709.01,366.14,709.2,366.14,709.33 C366.14,710.1,365.48,710.41,365.21,710.51 Z " /><path
         id="path3534"
         fill="black"
         stroke-width="0"
         d="M370.56,709.61 L370.56,709.69 L370.56,709.76 L370.56,709.84 L370.55,709.92 L370.55,710.09 L370.53,710.27 L370.52,710.45 L370.5,710.64 L370.47,710.84 L370.44,711.04 L370.4,711.24 L370.35,711.45 L370.3,711.66 L370.24,711.87 L370.17,712.08 L370.09,712.3 L370.04,712.4 L370,712.51 L369.95,712.62 L369.9,712.72 C369.3,713.95,368.45,714.59,368.35,714.59 C368.29,714.59,368.25,714.55,368.25,714.49 C368.25,714.47,368.25,714.45,368.44,714.27 C369.41,713.28,369.98,711.7,369.98,709.61 C369.98,707.91,369.61,706.16,368.38,704.9 C368.25,704.78,368.25,704.76,368.25,704.73 C368.25,704.67,368.29,704.63,368.35,704.63 C368.45,704.63,369.34,705.31,369.93,706.58 C370.44,707.67,370.56,708.78,370.56,709.61 Z " /><path
         id="path3536"
         fill="black"
         stroke-width="0"
         d="M373.13,714.24 L373.13,714.27 L373.13,714.3 L373.13,714.34 L373.13,714.35 L373.13,714.37 L373.13,714.38 L373.13,714.4 L373.13,714.41 L373.12,714.43 L373.12,714.44 L373.12,714.46 L373.11,714.47 L373.11,714.48 L373.1,714.49 L373.1,714.51 L373.09,714.52 L373.09,714.53 L373.08,714.54 L373.07,714.55 L373.06,714.56 L373.05,714.56 L373.04,714.57 L373.03,714.57 L373.03,714.58 L373.02,714.58 L373.01,714.58 L373.01,714.58 L373,714.59 L372.99,714.59 L372.99,714.59 L372.98,714.59 L372.97,714.59 L372.96,714.59 L372.95,714.59 L372.94,714.59 L372.93,714.59 C372.74,714.59,372.74,714.41,372.74,714.24 V704.99 C372.74,704.81,372.74,704.63,372.93,704.63 C373.13,704.63,373.13,704.81,373.13,704.99 Z " /><path
         id="path3538"
         fill="black"
         stroke-width="0"
         d="M379.28,704.73 L379.28,704.74 L379.28,704.74 L379.28,704.75 L379.28,704.75 L379.28,704.75 L379.28,704.75 L379.28,704.76 L379.27,704.76 L379.27,704.77 L379.27,704.77 L379.27,704.77 L379.27,704.78 L379.26,704.78 L379.26,704.79 L379.25,704.79 L379.25,704.8 L379.24,704.81 L379.24,704.81 L379.24,704.82 L379.23,704.82 L379.23,704.83 L379.23,704.83 L379.22,704.84 L379.22,704.84 L379.21,704.84 L379.21,704.85 L379.2,704.85 L379.2,704.86 L379.19,704.86 L379.19,704.87 L379.18,704.88 L379.18,704.88 L379.17,704.89 L379.17,704.89 L379.16,704.9 L379.15,704.91 L379.15,704.91 L379.14,704.92 L379.13,704.93 L379.13,704.94 L379.12,704.94 L379.11,704.95 C377.86,706.21,377.55,708.09,377.55,709.61 C377.55,711.35,377.92,713.08,379.15,714.33 C379.28,714.45,379.28,714.47,379.28,714.49 C379.28,714.57,379.24,714.59,379.18,714.59 C379.08,714.59,378.18,713.92,377.6,712.65 C377.09,711.56,376.97,710.45,376.97,709.61 C376.97,708.84,377.08,707.63,377.63,706.51 C378.22,705.28,379.08,704.63,379.18,704.63 C379.24,704.63,379.28,704.66,379.28,704.73 Z " /><path
         id="path3540"
         fill="black"
         stroke-width="0"
         d="M383.17,707.88 L383.17,707.84 L383.18,707.81 L383.19,707.77 L383.2,707.73 L383.21,707.69 L383.22,707.66 L383.23,707.62 L383.24,707.58 L383.26,707.55 L383.27,707.51 L383.29,707.48 L383.31,707.45 L383.33,707.41 L383.35,707.38 L383.37,707.35 L383.4,707.32 L383.42,707.29 L383.45,707.27 L383.48,707.24 L383.51,707.22 L383.54,707.19 L383.57,707.17 L383.6,707.15 L383.63,707.13 L383.67,707.12 L383.7,707.1 L383.74,707.09 L383.78,707.08 L383.82,707.07 L383.86,707.07 L383.9,707.06 L383.95,707.06 C384.16,707.06,384.76,707.2,384.76,708.01 V708.57 H384.52 V708.01 C384.52,707.43,384.27,707.37,384.16,707.37 C383.83,707.37,383.79,707.82,383.79,707.87 V709.86 C383.79,710.28,383.79,710.67,383.43,711.04 C383.04,711.43,382.54,711.59,382.06,711.59 C381.25,711.59,380.56,711.12,380.56,710.46 C380.56,710.16,380.76,709.99,381.02,709.99 C381.3,709.99,381.48,710.19,381.48,710.45 C381.48,710.57,381.43,710.9,380.97,710.91 C381.24,711.26,381.73,711.37,382.04,711.37 C382.53,711.37,383.1,710.98,383.1,710.09 V709.72 V709.51 V708.52 C383.1,707.57,382.38,707.23,381.93,707.23 C381.45,707.23,381.04,707.58,381.04,708.08 C381.04,708.63,381.46,709.45,383.1,709.51 H383.1 V709.72 C382.59,709.69,381.89,709.66,381.27,709.36 C380.52,709.03,380.27,708.51,380.27,708.07 C380.27,707.26,381.24,707.01,381.86,707.01 C382.52,707.01,382.98,707.41,383.17,707.88 Z " /><path
         id="path3542"
         fill="black"
         stroke-width="0"
         d="M386.5,710.43 V711.53 L385.11,711.42 V711.11 C385.81,711.11,385.89,711.04,385.89,710.55 V707.88 C385.89,707.43,385.78,707.43,385.11,707.43 V707.12 C385.5,707.13,385.97,707.15,386.25,707.15 C386.65,707.15,387.11,707.15,387.51,707.12 V707.43 H387.3 C386.57,707.43,386.55,707.54,386.55,707.9 V709.43 C386.55,710.42,386.96,711.31,387.72,711.31 C387.79,711.31,387.81,711.31,387.83,711.3 C387.8,711.29,387.6,711.17,387.6,710.91 C387.6,710.63,387.81,710.48,388.03,710.48 C388.21,710.48,388.46,710.6,388.46,710.92 C388.46,711.24,388.15,711.53,387.72,711.53 C386.99,711.53,386.64,710.86,386.5,710.43 Z " /><path
         id="path3544"
         fill="black"
         stroke-width="0"
         d="M390.45,710.88 V714.04 L389.02,713.93 V713.62 C389.72,713.62,389.8,713.55,389.8,713.06 V707.12 H390.05 C390.05,707.13,390.14,707.27,390.4,707.74 C390.55,707.51,390.97,707.01,391.71,707.01 L391.67,707.23 C391.22,707.23,390.86,707.47,390.62,707.84 C390.48,708.05,390.48,708.08,390.48,708.26 H390.48 V710.31 C390.48,710.5,390.48,710.51,390.59,710.67 C390.98,711.23,391.53,711.31,391.77,711.31 C392.22,711.31,392.58,711.05,392.82,710.67 C393.07,710.26,393.1,709.69,393.1,709.28 C393.1,708.92,393.08,708.32,392.8,707.87 C392.59,707.56,392.21,707.23,391.67,707.23 L391.71,707.01 C392.89,707.01,393.93,707.99,393.93,709.27 C393.93,710.54,392.95,711.53,391.82,711.53 C391.04,711.53,390.61,711.06,390.45,710.88 Z " /><path
         id="path3546"
         fill="black"
         stroke-width="0"
         d="M396.04,711.53 L394.64,711.42 V711.11 C395.29,711.11,395.38,711.05,395.38,710.56 V707.88 C395.38,707.43,395.27,707.43,394.6,707.43 V707.12 C394.92,707.13,395.46,707.15,395.7,707.15 C396.05,707.15,396.4,707.13,396.74,707.12 V707.43 C396.08,707.43,396.04,707.48,396.04,707.87 Z " /><path
         id="path3548"
         fill="black"
         stroke-width="0"
         d="M396.08,713.26 L396.08,713.29 L396.08,713.32 L396.07,713.35 L396.07,713.37 L396.06,713.4 L396.05,713.43 L396.04,713.45 L396.03,713.48 L396.02,713.5 L396.01,713.52 L396,713.54 L395.98,713.57 L395.97,713.59 L395.95,713.61 L395.94,713.62 L395.92,713.64 L395.9,713.66 L395.88,713.68 L395.86,713.69 L395.84,713.7 L395.82,713.72 L395.8,713.73 L395.77,713.74 L395.75,713.75 L395.73,713.76 L395.7,713.77 L395.68,713.77 L395.65,713.78 L395.63,713.78 L395.6,713.78 L395.58,713.79 L395.55,713.79 C395.24,713.79,395.02,713.52,395.02,713.26 C395.02,712.99,395.24,712.73,395.55,712.73 C395.83,712.73,396.08,712.94,396.08,713.26 Z " /><path
         id="path3550"
         fill="black"
         stroke-width="0"
         d="M398.77,711.11 H400.19 V711.42 H398.77 V713.25 H398.52 C398.51,712.43,398.21,711.37,397.23,711.33 V711.11 H398.08 V708.36 C398.08,707.13,399.01,707.01,399.36,707.01 C400.07,707.01,400.35,707.72,400.35,708.36 V708.93 H400.1 V708.38 C400.1,707.64,399.8,707.26,399.43,707.26 C398.77,707.26,398.77,708.17,398.77,708.34 Z " /><path
         id="path3552"
         fill="black"
         stroke-width="0"
         d="M402.58,710.43 V711.53 L401.19,711.42 V711.11 C401.89,711.11,401.97,711.04,401.97,710.55 V707.88 C401.97,707.43,401.86,707.43,401.19,707.43 V707.12 C401.58,707.13,402.05,707.15,402.33,707.15 C402.73,707.15,403.19,707.15,403.59,707.12 V707.43 H403.38 C402.65,707.43,402.63,707.54,402.63,707.9 V709.43 C402.63,710.42,403.04,711.31,403.8,711.31 C403.87,711.31,403.89,711.31,403.91,711.3 C403.88,711.29,403.68,711.17,403.68,710.91 C403.68,710.63,403.89,710.48,404.11,710.48 C404.29,710.48,404.54,710.6,404.54,710.92 C404.54,711.24,404.23,711.53,403.8,711.53 C403.07,711.53,402.72,710.86,402.58,710.43 Z " /><path
         id="path3554"
         fill="black"
         stroke-width="0"
         d="M408.14,707.88 L408.14,707.84 L408.15,707.81 L408.16,707.77 L408.16,707.73 L408.17,707.69 L408.18,707.66 L408.2,707.62 L408.21,707.58 L408.22,707.55 L408.24,707.51 L408.26,707.48 L408.28,707.45 L408.3,707.41 L408.32,707.38 L408.34,707.35 L408.37,707.32 L408.39,707.29 L408.42,707.27 L408.44,707.24 L408.47,707.22 L408.5,707.19 L408.53,707.17 L408.57,707.15 L408.6,707.13 L408.64,707.12 L408.67,707.1 L408.71,707.09 L408.75,707.08 L408.79,707.07 L408.83,707.07 L408.87,707.06 L408.92,707.06 C409.12,707.06,409.73,707.2,409.73,708.01 V708.57 H409.48 V708.01 C409.48,707.43,409.23,707.37,409.12,707.37 C408.8,707.37,408.76,707.82,408.76,707.87 V709.86 C408.76,710.28,408.76,710.67,408.4,711.04 C408.01,711.43,407.51,711.59,407.03,711.59 C406.21,711.59,405.53,711.12,405.53,710.46 C405.53,710.16,405.73,709.99,405.99,709.99 C406.27,709.99,406.44,710.19,406.44,710.45 C406.44,710.57,406.39,710.9,405.94,710.91 C406.2,711.26,406.69,711.37,407.01,711.37 C407.5,711.37,408.07,710.98,408.07,710.09 V709.72 V709.51 V708.52 C408.07,707.57,407.35,707.23,406.9,707.23 C406.41,707.23,406.01,707.58,406.01,708.08 C406.01,708.63,406.42,709.45,408.07,709.51 H408.07 V709.72 C407.56,709.69,406.86,709.66,406.23,709.36 C405.49,709.03,405.24,708.51,405.24,708.07 C405.24,707.26,406.2,707.01,406.83,707.01 C407.49,707.01,407.95,707.41,408.14,707.88 Z " /><path
         id="path3556"
         fill="black"
         stroke-width="0"
         d="M411.46,710.43 V711.53 L410.08,711.42 V711.11 C410.78,711.11,410.86,711.04,410.86,710.55 V707.88 C410.86,707.43,410.75,707.43,410.08,707.43 V707.12 C410.47,707.13,410.94,707.15,411.21,707.15 C411.61,707.15,412.08,707.15,412.48,707.12 V707.43 H412.27 C411.53,707.43,411.51,707.54,411.51,707.9 V709.43 C411.51,710.42,411.93,711.31,412.69,711.31 C412.76,711.31,412.78,711.31,412.8,711.3 C412.77,711.29,412.57,711.17,412.57,710.91 C412.57,710.63,412.78,710.48,413,710.48 C413.18,710.48,413.43,710.6,413.43,710.92 C413.43,711.24,413.12,711.53,412.69,711.53 C411.96,711.53,411.6,710.86,411.46,710.43 Z " /><path
         id="path3558"
         fill="black"
         stroke-width="0"
         d="M417.83,710.47 L417.85,710.5 L417.86,710.53 L417.87,710.55 L417.89,710.58 L417.9,710.61 L417.91,710.63 L417.93,710.65 L417.94,710.68 L417.97,710.72 L418,710.76 L418.03,710.8 L418.07,710.83 L418.1,710.87 L418.13,710.9 L418.17,710.92 L418.2,710.95 L418.23,710.97 L418.27,710.99 L418.3,711.01 L418.34,711.02 L418.37,711.04 L418.4,711.05 L418.43,711.06 L418.47,711.07 L418.5,711.08 L418.53,711.09 L418.56,711.09 L418.59,711.1 L418.61,711.1 L418.64,711.1 L418.66,711.1 L418.69,711.11 L418.71,711.11 L418.73,711.11 L418.75,711.11 L418.76,711.11 V711.42 C418.53,711.4,418.24,711.39,418.01,711.39 C417.83,711.39,417.37,711.41,417.15,711.42 V711.11 C417.46,711.1,417.61,710.93,417.61,710.68 C417.61,710.58,417.61,710.56,417.56,710.44 L416.55,707.99 L415.44,710.67 C415.4,710.77,415.38,710.81,415.38,710.85 C415.38,711.11,415.75,711.11,415.94,711.11 V711.42 C415.68,711.41,415.02,711.39,414.86,711.39 C414.59,711.39,414.19,711.4,413.89,711.42 V711.11 C414.37,711.11,414.56,711.11,414.7,710.76 L416.19,707.12 C416.14,706.99,416,706.66,415.94,706.53 C415.72,705.99,415.44,705.3,414.81,705.3 C414.76,705.3,414.53,705.3,414.34,705.48 C414.65,705.52,414.73,705.74,414.73,705.9 C414.73,706.16,414.54,706.32,414.31,706.32 C414.11,706.32,413.89,706.19,413.89,705.89 C413.89,705.44,414.31,705.08,414.81,705.08 C415.43,705.08,415.84,705.65,416.08,706.22 Z " /><path
         id="path3560"
         fill="black"
         stroke-width="0"
         d="M424.64,707.91 V707.01 L426.08,707.12 V707.43 C425.38,707.43,425.3,707.5,425.3,707.99 V711.53 L423.84,711.42 V711.11 C424.54,711.11,424.62,711.04,424.62,710.55 V708.78 C424.62,707.91,424.14,707.23,423.41,707.23 C422.57,707.23,422.53,707.7,422.53,708.22 V711.53 L421.07,711.42 V711.11 C421.85,711.11,421.85,711.08,421.85,710.19 V708.7 C421.85,707.92,421.85,707.01,423.36,707.01 C423.92,707.01,424.36,707.29,424.64,707.91 Z " /><path
         id="path3562"
         fill="black"
         stroke-width="0"
         d="M427.38,710.55 V707.88 C427.38,707.43,427.27,707.43,426.6,707.43 V707.12 C426.95,707.13,427.46,707.15,427.73,707.15 C427.99,707.15,428.51,707.13,428.85,707.12 V707.43 C428.18,707.43,428.07,707.43,428.07,707.88 V709.71 C428.07,710.75,428.78,711.31,429.41,711.31 C430.04,711.31,430.15,710.77,430.15,710.2 V707.88 C430.15,707.43,430.04,707.43,429.37,707.43 V707.12 C429.72,707.13,430.23,707.15,430.5,707.15 C430.76,707.15,431.28,707.13,431.61,707.12 V707.43 C431.1,707.43,430.85,707.43,430.84,707.73 V709.63 C430.84,710.49,430.84,710.8,430.53,711.16 C430.39,711.33,430.06,711.53,429.48,711.53 C428.76,711.53,428.29,711.1,428.01,710.48 V711.53 L426.6,711.42 V711.11 C427.3,711.11,427.38,711.04,427.38,710.55 Z " /><path
         id="path3564"
         fill="black"
         stroke-width="0"
         d="M433.58,711.53 L432.19,711.42 V711.11 C432.84,711.11,432.93,711.05,432.93,710.56 V707.88 C432.93,707.43,432.82,707.43,432.15,707.43 V707.12 C432.47,707.13,433.01,707.15,433.24,707.15 C433.59,707.15,433.94,707.13,434.28,707.12 V707.43 C433.62,707.43,433.58,707.48,433.58,707.87 Z " /><path
         id="path3566"
         fill="black"
         stroke-width="0"
         d="M433.62,713.26 L433.62,713.29 L433.62,713.32 L433.62,713.35 L433.61,713.37 L433.61,713.4 L433.6,713.43 L433.59,713.45 L433.58,713.48 L433.57,713.5 L433.56,713.52 L433.54,713.54 L433.53,713.57 L433.51,713.59 L433.5,713.61 L433.48,713.62 L433.46,713.64 L433.45,713.66 L433.43,713.68 L433.41,713.69 L433.38,713.7 L433.36,713.72 L433.34,713.73 L433.32,713.74 L433.3,713.75 L433.27,713.76 L433.25,713.77 L433.22,713.77 L433.2,713.78 L433.17,713.78 L433.15,713.78 L433.12,713.79 L433.1,713.79 C432.79,713.79,432.57,713.52,432.57,713.26 C432.57,712.99,432.79,712.73,433.1,712.73 C433.37,712.73,433.62,712.94,433.62,713.26 Z " /><path
         id="path3568"
         fill="black"
         stroke-width="0"
         d="M436.31,711.11 H437.74 V711.42 H436.31 V713.25 H436.06 C436.05,712.43,435.75,711.37,434.78,711.33 V711.11 H435.62 V708.36 C435.62,707.13,436.55,707.01,436.91,707.01 C437.62,707.01,437.89,707.72,437.89,708.36 V708.93 H437.65 V708.38 C437.65,707.64,437.35,707.26,436.98,707.26 C436.31,707.26,436.31,708.17,436.31,708.34 Z " /><path
         id="path3570"
         fill="black"
         stroke-width="0"
         d="M441.34,709.61 L441.34,709.69 L441.34,709.76 L441.34,709.84 L441.34,709.92 L441.33,710.09 L441.32,710.27 L441.3,710.45 L441.28,710.64 L441.25,710.84 L441.22,711.04 L441.18,711.24 L441.14,711.45 L441.08,711.66 L441.02,711.87 L440.95,712.08 L440.87,712.3 L440.83,712.4 L440.78,712.51 L440.74,712.62 L440.69,712.72 C440.09,713.95,439.23,714.59,439.13,714.59 C439.07,714.59,439.03,714.55,439.03,714.49 C439.03,714.47,439.03,714.45,439.22,714.27 C440.2,713.28,440.77,711.7,440.77,709.61 C440.77,707.91,440.4,706.16,439.16,704.9 C439.03,704.78,439.03,704.76,439.03,704.73 C439.03,704.67,439.07,704.63,439.13,704.63 C439.23,704.63,440.13,705.31,440.72,706.58 C441.23,707.67,441.34,708.78,441.34,709.61 Z " /></g></g></svg>