<?xml version="1.0" encoding="UTF-8" standalone="no"?>
<!-- Created with Inkscape (http://www.inkscape.org/) -->

<svg
   xmlns:dc="http://purl.org/dc/elements/1.1/"
   xmlns:cc="http://creativecommons.org/ns#"
   xmlns:rdf="http://www.w3.org/1999/02/22-rdf-syntax-ns#"
   xmlns:svg="http://www.w3.org/2000/svg"
   xmlns="http://www.w3.org/2000/svg"
   xmlns:sodipodi="http://sodipodi.sourceforge.net/DTD/sodipodi-0.dtd"
   xmlns:inkscape="http://www.inkscape.org/namespaces/inkscape"
   version="1.1"
   id="svg2"
   xml:space="preserve"
   width="273.83835"
   height="183.0387"
   viewBox="0 0 273.83835 183.0387"
   sodipodi:docname="15Cppn.svg"
   inkscape:version="0.92.5 (2060ec1f9f, 2020-04-08)"><metadata
     id="metadata8"><rdf:RDF><cc:Work
         rdf:about=""><dc:format>image/svg+xml</dc:format><dc:type
           rdf:resource="http://purl.org/dc/dcmitype/StillImage" /><dc:title></dc:title></cc:Work></rdf:RDF></metadata><defs
     id="defs6"><clipPath
       clipPathUnits="userSpaceOnUse"
       id="clipPath1244"><path
         d="m 528.69,723.177 h -204 V 438.006 h 204 z"
         id="path1242"
         inkscape:connector-curvature="0" /></clipPath><clipPath
       clipPathUnits="userSpaceOnUse"
       id="clipPath1262"><path
         d="m 528.69,723.177 h -204 V 438.006 h 204 z"
         id="path1260"
         inkscape:connector-curvature="0" /></clipPath></defs><sodipodi:namedview
     pagecolor="#ffffff"
     bordercolor="#666666"
     borderopacity="1"
     objecttolerance="10"
     gridtolerance="10"
     guidetolerance="10"
     inkscape:pageopacity="0"
     inkscape:pageshadow="2"
     inkscape:window-width="1920"
     inkscape:window-height="1018"
     id="namedview4"
     showgrid="false"
     fit-margin-top="0"
     fit-margin-left="0"
     fit-margin-right="0"
     fit-margin-bottom="0"
     inkscape:zoom="1.7878788"
     inkscape:cx="108.8414"
     inkscape:cy="58.691536"
     inkscape:window-x="0"
     inkscape:window-y="0"
     inkscape:window-maximized="1"
     inkscape:current-layer="g10" /><g
     id="g10"
     inkscape:groupmode="layer"
     inkscape:label="PhysRevC.97.024608"
     transform="matrix(1.3333333,0,0,-1.3333333,-431.08163,964.23998)"><text
   transform="matrix(1,0,0,-1,77.370394,696.94456)"
   style="font-variant:normal;font-weight:normal;font-size:9.96259975px;font-family:MTEX;-inkscape-font-specification:MTEX;writing-mode:lr-tb;fill:#000000;fill-opacity:1;fill-rule:nonzero;stroke:none"
   id="text80"><tspan
     x="0"
     y="0"
     id="tspan78" /></text>

<text
   transform="matrix(1,0,0,-1,85.56,677.568)"
   style="font-variant:normal;font-weight:normal;font-size:4.98129988px;font-family:MTSY;-inkscape-font-specification:MTSY;writing-mode:lr-tb;fill:#000000;fill-opacity:1;fill-rule:nonzero;stroke:none"
   id="text88"><tspan
     x="0"
     y="0"
     id="tspan86" /></text>

<text
   transform="matrix(1,0,0,-1,93.948,695.4871)"
   style="font-variant:normal;font-weight:normal;font-size:9.96259975px;font-family:MTEX;-inkscape-font-specification:MTEX;writing-mode:lr-tb;fill:#000000;fill-opacity:1;fill-rule:nonzero;stroke:none"
   id="text96"><tspan
     x="0"
     y="0"
     id="tspan94" /></text>

<text
   transform="matrix(1,0,0,-1,106.566,695.082)"
   style="font-variant:normal;font-weight:normal;font-size:4.98129988px;font-family:MTSY;-inkscape-font-specification:MTSY;writing-mode:lr-tb;fill:#000000;fill-opacity:1;fill-rule:nonzero;stroke:none"
   id="text108"><tspan
     x="0"
     y="0"
     id="tspan106" /></text>

<text
   transform="matrix(1,0,0,-1,124.413,695.082)"
   style="font-variant:normal;font-weight:normal;font-size:4.98129988px;font-family:MTSY;-inkscape-font-specification:MTSY;writing-mode:lr-tb;fill:#000000;fill-opacity:1;fill-rule:nonzero;stroke:none"
   id="text126"><tspan
     x="0"
     y="0"
     id="tspan124" /></text>

<text
   transform="matrix(1,0,0,-1,131.631,695.946)"
   style="font-variant:normal;font-weight:normal;font-size:9.96259975px;font-family:MTEX;-inkscape-font-specification:MTEX;writing-mode:lr-tb;fill:#000000;fill-opacity:1;fill-rule:nonzero;stroke:none"
   id="text138"><tspan
     x="0"
     y="0"
     id="tspan134" /><tspan
     x="0"
     y="5.9755673"
     id="tspan136" /></text>

<text
   transform="matrix(1,0,0,-1,207.114,695.946)"
   style="font-variant:normal;font-weight:normal;font-size:9.96259975px;font-family:MTEX;-inkscape-font-specification:MTEX;writing-mode:lr-tb;fill:#000000;fill-opacity:1;fill-rule:nonzero;stroke:none"
   id="text184"><tspan
     x="0"
     y="0"
     id="tspan180" /><tspan
     x="0"
     y="5.9755673"
     id="tspan182" /></text>

<text
   transform="matrix(1,0,0,-1,252.852,695.4871)"
   style="font-variant:normal;font-weight:normal;font-size:9.96259975px;font-family:MTEX;-inkscape-font-specification:MTEX;writing-mode:lr-tb;fill:#000000;fill-opacity:1;fill-rule:nonzero;stroke:none"
   id="text226"><tspan
     x="0"
     y="0"
     id="tspan224" /></text>

<text
   transform="matrix(1,0,0,-1,111.03036,626.31346)"
   style="font-variant:normal;font-weight:normal;font-size:9.96259975px;font-family:MTEX;-inkscape-font-specification:MTEX;writing-mode:lr-tb;fill:#000000;fill-opacity:1;fill-rule:nonzero;stroke:none"
   id="text296"><tspan
     x="0"
     y="0"
     id="tspan294" /></text>

<text
   transform="matrix(1,0,0,-1,119.211,606.936)"
   style="font-variant:normal;font-weight:normal;font-size:4.98129988px;font-family:MTSY;-inkscape-font-specification:MTSY;writing-mode:lr-tb;fill:#000000;fill-opacity:1;fill-rule:nonzero;stroke:none"
   id="text304"><tspan
     x="0"
     y="0"
     id="tspan302" /></text>

<text
   transform="matrix(1,0,0,-1,127.599,624.855)"
   style="font-variant:normal;font-weight:normal;font-size:9.96259975px;font-family:MTEX;-inkscape-font-specification:MTEX;writing-mode:lr-tb;fill:#000000;fill-opacity:1;fill-rule:nonzero;stroke:none"
   id="text312"><tspan
     x="0"
     y="0"
     id="tspan310" /></text>

<text
   transform="matrix(1,0,0,-1,140.217,624.4501)"
   style="font-variant:normal;font-weight:normal;font-size:4.98129988px;font-family:MTSY;-inkscape-font-specification:MTSY;writing-mode:lr-tb;fill:#000000;fill-opacity:1;fill-rule:nonzero;stroke:none"
   id="text324"><tspan
     x="0"
     y="0"
     id="tspan322" /></text>

<text
   transform="matrix(1,0,0,-1,158.064,624.4501)"
   style="font-variant:normal;font-weight:normal;font-size:4.98129988px;font-family:MTSY;-inkscape-font-specification:MTSY;writing-mode:lr-tb;fill:#000000;fill-opacity:1;fill-rule:nonzero;stroke:none"
   id="text342"><tspan
     x="0"
     y="0"
     id="tspan340" /></text>

<text
   transform="matrix(1,0,0,-1,166.947,625.314)"
   style="font-variant:normal;font-weight:normal;font-size:9.96259975px;font-family:MTEX;-inkscape-font-specification:MTEX;writing-mode:lr-tb;fill:#000000;fill-opacity:1;fill-rule:nonzero;stroke:none"
   id="text354"><tspan
     x="0"
     y="0"
     id="tspan350" /><tspan
     x="0"
     y="5.9755673"
     id="tspan352" /></text>

<text
   transform="matrix(1,0,0,-1,188.394,625.314)"
   style="font-variant:normal;font-weight:normal;font-size:9.96259975px;font-family:MTEX;-inkscape-font-specification:MTEX;writing-mode:lr-tb;fill:#000000;fill-opacity:1;fill-rule:nonzero;stroke:none"
   id="text368"><tspan
     x="0"
     y="0"
     id="tspan364" /><tspan
     x="0"
     y="5.9755673"
     id="tspan366" /></text>

<text
   transform="matrix(1,0,0,-1,235.797,624.855)"
   style="font-variant:normal;font-weight:normal;font-size:9.96259975px;font-family:MTEX;-inkscape-font-specification:MTEX;writing-mode:lr-tb;fill:#000000;fill-opacity:1;fill-rule:nonzero;stroke:none"
   id="text410"><tspan
     x="0"
     y="0"
     id="tspan408" /></text>

<text
   transform="matrix(1,0,0,-1,123.09,503.139)"
   style="font-variant:normal;font-weight:normal;font-size:4.98129988px;font-family:MTSY;-inkscape-font-specification:MTSY;writing-mode:lr-tb;fill:#000000;fill-opacity:1;fill-rule:nonzero;stroke:none"
   id="text464"><tspan
     x="0"
     y="0"
     id="tspan462" /></text>

<text
   transform="matrix(1,0,0,-1,104.23554,488.541)"
   style="font-style:italic;font-variant:normal;font-weight:normal;font-size:9.96259975px;font-family:MTMI;-inkscape-font-specification:MTMI;writing-mode:lr-tb;fill:#000000;fill-opacity:1;fill-rule:nonzero;stroke:none"
   id="text480"><tspan
     x="0"
     y="0"
     id="tspan478" /></text>

<text
   transform="matrix(1,0,0,-1,122.58654,488.541)"
   style="font-style:italic;font-variant:normal;font-weight:normal;font-size:9.96259975px;font-family:MTMI;-inkscape-font-specification:MTMI;writing-mode:lr-tb;fill:#000000;fill-opacity:1;fill-rule:nonzero;stroke:none"
   id="text492"><tspan
     x="0"
     y="0"
     id="tspan490" /></text>

<text
   transform="matrix(1,0,0,-1,137.265,510.0601)"
   style="font-variant:normal;font-weight:normal;font-size:9.96259975px;font-family:MTEX;-inkscape-font-specification:MTEX;writing-mode:lr-tb;fill:#000000;fill-opacity:1;fill-rule:nonzero;stroke:none"
   id="text506"><tspan
     x="0"
     y="0"
     id="tspan498" /><tspan
     x="0"
     y="5.9755673"
     id="tspan500" /><tspan
     x="0"
     y="11.951135"
     id="tspan502" /><tspan
     x="0"
     y="17.926702"
     id="tspan504" /></text>

<text
   transform="matrix(1,0,0,-1,140.505,485.2921)"
   style="font-style:italic;font-variant:normal;font-weight:normal;font-size:6.97380018px;font-family:MTMI;-inkscape-font-specification:MTMI;writing-mode:lr-tb;fill:#000000;fill-opacity:1;fill-rule:nonzero;stroke:none"
   id="text510"><tspan
     x="0"
     y="0"
     id="tspan508" /></text>

<text
   transform="matrix(1,0,0,-1,154.36503,485.2921)"
   style="font-style:italic;font-variant:normal;font-weight:normal;font-size:6.97380018px;font-family:MTMI;-inkscape-font-specification:MTMI;writing-mode:lr-tb;fill:#000000;fill-opacity:1;fill-rule:nonzero;stroke:none"
   id="text522"><tspan
     x="0"
     y="0"
     id="tspan520" /></text>

<text
   transform="matrix(1,0,0,-1,179.709,488.541)"
   style="font-style:italic;font-variant:normal;font-weight:normal;font-size:9.96259975px;font-family:MTMI;-inkscape-font-specification:MTMI;writing-mode:lr-tb;fill:#000000;fill-opacity:1;fill-rule:nonzero;stroke:none"
   id="text542"><tspan
     x="0"
     y="0"
     id="tspan540" /></text>

<text
   transform="matrix(1,0,0,-1,218.958,503.139)"
   style="font-variant:normal;font-weight:normal;font-size:4.98129988px;font-family:MTSY;-inkscape-font-specification:MTSY;writing-mode:lr-tb;fill:#000000;fill-opacity:1;fill-rule:nonzero;stroke:none"
   id="text562"><tspan
     x="0"
     y="0"
     id="tspan560" /></text>

<text
   transform="matrix(1,0,0,-1,207.22154,488.541)"
   style="font-style:italic;font-variant:normal;font-weight:normal;font-size:9.96259975px;font-family:MTMI;-inkscape-font-specification:MTMI;writing-mode:lr-tb;fill:#000000;fill-opacity:1;fill-rule:nonzero;stroke:none"
   id="text578"><tspan
     x="0"
     y="0"
     id="tspan576" /></text>

<text
   transform="matrix(1,0,0,-1,68.550294,468.86751)"
   style="font-style:italic;font-variant:normal;font-weight:normal;font-size:9.96259975px;font-family:MTMI;-inkscape-font-specification:MTMI;writing-mode:lr-tb;fill:#000000;fill-opacity:1;fill-rule:nonzero;stroke:none"
   id="text596"><tspan
     x="0"
     y="0"
     id="tspan594" /></text>

<text
   transform="matrix(1,0,0,-1,229.992,472.485)"
   style="font-variant:normal;font-weight:normal;font-size:6.97380018px;font-family:MTSY;-inkscape-font-specification:MTSY;writing-mode:lr-tb;fill:#000000;fill-opacity:1;fill-rule:nonzero;stroke:none"
   id="text616"><tspan
     x="0"
     y="0"
     id="tspan614" /></text>

<text
   transform="matrix(1,0,0,-1,103.065,403.743)"
   style="font-variant:normal;font-weight:normal;font-size:6.97380018px;font-family:MTSY;-inkscape-font-specification:MTSY;writing-mode:lr-tb;fill:#000000;fill-opacity:1;fill-rule:nonzero;stroke:none"
   id="text656"><tspan
     x="0"
     y="0"
     id="tspan654" /></text>

<path
   inkscape:connector-curvature="0"
   id="path1068"
   style="fill:none;stroke:#000000;stroke-width:0.21600001;stroke-linecap:butt;stroke-linejoin:miter;stroke-miterlimit:3.79999995;stroke-dasharray:none;stroke-opacity:1"
   d="M 520.253,608.52 H 517.61" /><path
   d="m 356.589,608.52 h 2.647"
   style="fill:none;stroke:#000000;stroke-width:0.21600001;stroke-linecap:butt;stroke-linejoin:miter;stroke-miterlimit:3.79999995;stroke-dasharray:none;stroke-opacity:1"
   id="path1072"
   inkscape:connector-curvature="0" /><path
   inkscape:connector-curvature="0"
   id="path1076"
   style="fill:#000000;fill-opacity:1;fill-rule:nonzero;stroke:none"
   d="m 348.748,609.627 c 0.085,0.583 0.246,1.011 0.482,1.284 0.174,0.2 0.372,0.3 0.595,0.3 0.191,0 0.353,-0.054 0.487,-0.162 0.187,-0.158 0.34,-0.425 0.457,-0.802 0.158,-0.508 0.237,-1.143 0.237,-1.904 0,-1.026 -0.076,-1.822 -0.226,-2.386 -0.099,-0.374 -0.243,-0.64 -0.433,-0.799 -0.191,-0.159 -0.374,-0.239 -0.551,-0.239 -0.371,0 -0.65,0.245 -0.836,0.734 -0.227,0.58 -0.34,1.329 -0.34,2.247 0,0.568 0.043,1.143 0.128,1.727 z m -0.556,-3.891 c 0.424,-0.751 0.953,-1.126 1.589,-1.126 0.321,0 0.655,0.122 1.001,0.366 0.346,0.244 0.631,0.637 0.854,1.178 0.222,0.541 0.334,1.199 0.334,1.972 0,1.106 -0.254,1.981 -0.762,2.627 -0.407,0.522 -0.866,0.782 -1.378,0.782 -0.314,0 -0.62,-0.106 -0.914,-0.319 -0.381,-0.269 -0.686,-0.679 -0.916,-1.227 -0.229,-0.55 -0.344,-1.205 -0.344,-1.966 0,-0.892 0.178,-1.654 0.536,-2.287" /><path
   inkscape:connector-curvature="0"
   id="path1080"
   style="fill:none;stroke:#000000;stroke-width:0.21600001;stroke-linecap:butt;stroke-linejoin:miter;stroke-miterlimit:3.79999995;stroke-dasharray:none;stroke-opacity:1"
   d="M 520.253,641.262 H 517.61" /><path
   d="m 356.589,641.262 h 2.647"
   style="fill:none;stroke:#000000;stroke-width:0.21600001;stroke-linecap:butt;stroke-linejoin:miter;stroke-miterlimit:3.79999995;stroke-dasharray:none;stroke-opacity:1"
   id="path1084"
   inkscape:connector-curvature="0" /><path
   inkscape:connector-curvature="0"
   id="path1088"
   style="fill:none;stroke:#000000;stroke-width:0.21600001;stroke-linecap:butt;stroke-linejoin:miter;stroke-miterlimit:3.79999995;stroke-dasharray:none;stroke-opacity:1"
   d="m 520.253,624.892 h -1.297" /><path
   d="m 356.589,624.892 h 1.303"
   style="fill:none;stroke:#000000;stroke-width:0.21600001;stroke-linecap:butt;stroke-linejoin:miter;stroke-miterlimit:3.79999995;stroke-dasharray:none;stroke-opacity:1"
   id="path1092"
   inkscape:connector-curvature="0" /><path
   inkscape:connector-curvature="0"
   id="path1096"
   style="fill:#000000;fill-opacity:1;fill-rule:nonzero;stroke:none"
   d="m 348.546,643.333 c 0.216,0.101 0.385,0.152 0.507,0.152 0.085,0 0.158,-0.025 0.219,-0.074 0.061,-0.049 0.102,-0.126 0.125,-0.231 0.033,-0.138 0.049,-0.449 0.049,-0.934 v -3.601 c 0,-0.4 -0.018,-0.641 -0.054,-0.721 -0.036,-0.08 -0.1,-0.144 -0.192,-0.192 -0.092,-0.047 -0.295,-0.074 -0.61,-0.081 v -0.182 h 2.509 v 0.182 c -0.302,0.007 -0.501,0.034 -0.6,0.084 -0.099,0.049 -0.163,0.119 -0.194,0.211 -0.031,0.092 -0.047,0.325 -0.047,0.699 v 5.632 h -0.163 l -1.623,-0.792 z m -2.899,-5.067 c -0.107,-0.105 -0.161,-0.235 -0.161,-0.389 0,-0.151 0.054,-0.279 0.161,-0.386 0.106,-0.106 0.234,-0.16 0.385,-0.16 0.151,0 0.28,0.054 0.387,0.16 0.106,0.107 0.159,0.235 0.159,0.386 0,0.151 -0.052,0.28 -0.157,0.387 -0.105,0.106 -0.234,0.159 -0.389,0.159 -0.151,0 -0.279,-0.052 -0.385,-0.157 z m -4.455,4.103 c 0.085,0.583 0.246,1.011 0.482,1.283 0.174,0.2 0.372,0.301 0.596,0.301 0.19,0 0.352,-0.055 0.486,-0.163 0.187,-0.157 0.34,-0.425 0.458,-0.802 0.157,-0.508 0.236,-1.142 0.236,-1.904 0,-1.026 -0.075,-1.821 -0.226,-2.385 -0.099,-0.374 -0.243,-0.64 -0.433,-0.8 -0.19,-0.159 -0.374,-0.238 -0.551,-0.238 -0.371,0 -0.65,0.244 -0.837,0.733 -0.226,0.581 -0.339,1.33 -0.339,2.248 0,0.567 0.043,1.143 0.128,1.727 z m -0.556,-3.892 c 0.423,-0.751 0.953,-1.126 1.589,-1.126 0.321,0 0.655,0.122 1.001,0.367 0.346,0.244 0.631,0.637 0.854,1.178 0.223,0.541 0.334,1.198 0.334,1.972 0,1.105 -0.254,1.981 -0.762,2.627 -0.407,0.522 -0.866,0.782 -1.377,0.782 -0.315,0 -0.62,-0.107 -0.916,-0.32 -0.38,-0.269 -0.686,-0.678 -0.915,-1.227 -0.229,-0.549 -0.344,-1.204 -0.344,-1.965 0,-0.892 0.178,-1.655 0.536,-2.288" /><path
   inkscape:connector-curvature="0"
   id="path1100"
   style="fill:none;stroke:#000000;stroke-width:0.21600001;stroke-linecap:butt;stroke-linejoin:miter;stroke-miterlimit:3.79999995;stroke-dasharray:none;stroke-opacity:1"
   d="M 520.253,673.96 H 517.61" /><path
   d="m 356.589,673.96 h 2.647"
   style="fill:none;stroke:#000000;stroke-width:0.21600001;stroke-linecap:butt;stroke-linejoin:miter;stroke-miterlimit:3.79999995;stroke-dasharray:none;stroke-opacity:1"
   id="path1104"
   inkscape:connector-curvature="0" /><path
   inkscape:connector-curvature="0"
   id="path1108"
   style="fill:none;stroke:#000000;stroke-width:0.21600001;stroke-linecap:butt;stroke-linejoin:miter;stroke-miterlimit:3.79999995;stroke-dasharray:none;stroke-opacity:1"
   d="m 520.253,657.633 h -1.297" /><path
   d="m 356.589,657.633 h 1.303"
   style="fill:none;stroke:#000000;stroke-width:0.21600001;stroke-linecap:butt;stroke-linejoin:miter;stroke-miterlimit:3.79999995;stroke-dasharray:none;stroke-opacity:1"
   id="path1112"
   inkscape:connector-curvature="0" /><path
   inkscape:connector-curvature="0"
   id="path1116"
   style="fill:#000000;fill-opacity:1;fill-rule:nonzero;stroke:none"
   d="m 351.729,671.452 c -0.085,-0.148 -0.185,-0.262 -0.3,-0.342 -0.115,-0.08 -0.243,-0.134 -0.387,-0.16 -0.142,-0.026 -0.39,-0.04 -0.744,-0.04 h -1.742 c 0.204,0.184 0.713,0.722 1.53,1.614 0.544,0.594 0.938,1.157 1.181,1.687 0.157,0.338 0.236,0.676 0.236,1.014 0,0.472 -0.181,0.882 -0.544,1.23 -0.362,0.347 -0.814,0.521 -1.355,0.521 -0.508,0 -0.932,-0.162 -1.271,-0.487 -0.34,-0.325 -0.551,-0.79 -0.632,-1.397 h 0.181 c 0.125,0.371 0.318,0.652 0.578,0.843 0.261,0.193 0.556,0.288 0.883,0.288 0.361,0 0.671,-0.136 0.93,-0.408 0.259,-0.272 0.389,-0.619 0.389,-1.043 0,-0.554 -0.237,-1.166 -0.708,-1.835 -0.473,-0.669 -1.288,-1.531 -2.445,-2.587 v -0.182 h 3.935 l 0.468,1.284 z m -6.082,-0.487 c -0.107,-0.105 -0.16,-0.235 -0.16,-0.388 0,-0.152 0.053,-0.28 0.16,-0.387 0.106,-0.107 0.235,-0.16 0.386,-0.16 0.151,0 0.279,0.053 0.386,0.16 0.107,0.107 0.16,0.235 0.16,0.387 0,0.15 -0.053,0.279 -0.158,0.385 -0.105,0.107 -0.234,0.16 -0.388,0.16 -0.151,0 -0.28,-0.052 -0.386,-0.157 z m -4.455,4.102 c 0.085,0.584 0.246,1.012 0.483,1.284 0.173,0.2 0.371,0.3 0.595,0.3 0.19,0 0.352,-0.054 0.486,-0.162 0.188,-0.157 0.34,-0.424 0.458,-0.802 0.158,-0.508 0.236,-1.143 0.236,-1.903 0,-1.027 -0.075,-1.822 -0.226,-2.386 -0.099,-0.374 -0.243,-0.641 -0.433,-0.8 -0.19,-0.158 -0.374,-0.238 -0.551,-0.238 -0.37,0 -0.649,0.244 -0.836,0.733 -0.226,0.58 -0.34,1.329 -0.34,2.248 0,0.567 0.043,1.143 0.128,1.726 z m -0.555,-3.89 c 0.423,-0.752 0.952,-1.127 1.589,-1.127 0.32,0 0.654,0.122 1,0.366 0.346,0.244 0.631,0.638 0.854,1.178 0.223,0.542 0.335,1.199 0.335,1.973 0,1.105 -0.254,1.981 -0.763,2.627 -0.407,0.521 -0.866,0.782 -1.377,0.782 -0.315,0 -0.62,-0.107 -0.915,-0.32 -0.381,-0.269 -0.686,-0.678 -0.915,-1.227 -0.23,-0.549 -0.345,-1.204 -0.345,-1.965 0,-0.892 0.179,-1.655 0.537,-2.287" /><path
   inkscape:connector-curvature="0"
   id="path1120"
   style="fill:none;stroke:#000000;stroke-width:0.21600001;stroke-linecap:butt;stroke-linejoin:miter;stroke-miterlimit:3.79999995;stroke-dasharray:none;stroke-opacity:1"
   d="M 520.253,706.702 H 517.61" /><path
   d="m 356.589,706.702 h 2.647"
   style="fill:none;stroke:#000000;stroke-width:0.21600001;stroke-linecap:butt;stroke-linejoin:miter;stroke-miterlimit:3.79999995;stroke-dasharray:none;stroke-opacity:1"
   id="path1124"
   inkscape:connector-curvature="0" /><path
   inkscape:connector-curvature="0"
   id="path1128"
   style="fill:none;stroke:#000000;stroke-width:0.21600001;stroke-linecap:butt;stroke-linejoin:miter;stroke-miterlimit:3.79999995;stroke-dasharray:none;stroke-opacity:1"
   d="m 520.253,690.33 h -1.297" /><path
   d="m 356.589,690.33 h 1.303"
   style="fill:none;stroke:#000000;stroke-width:0.21600001;stroke-linecap:butt;stroke-linejoin:miter;stroke-miterlimit:3.79999995;stroke-dasharray:none;stroke-opacity:1"
   id="path1132"
   inkscape:connector-curvature="0" /><path
   inkscape:connector-curvature="0"
   id="path1136"
   style="fill:#000000;fill-opacity:1;fill-rule:nonzero;stroke:none"
   d="m 347.966,708.232 c 0.341,0.544 0.765,0.816 1.274,0.816 0.314,0 0.578,-0.104 0.789,-0.312 0.212,-0.209 0.317,-0.482 0.317,-0.819 0,-0.259 -0.058,-0.497 -0.176,-0.713 -0.119,-0.217 -0.308,-0.403 -0.568,-0.556 -0.261,-0.154 -0.521,-0.248 -0.781,-0.281 v -0.147 h 0.158 c 0.256,0 0.507,-0.053 0.753,-0.16 0.246,-0.107 0.439,-0.225 0.58,-0.357 0.102,-0.095 0.196,-0.235 0.281,-0.418 0.114,-0.246 0.172,-0.498 0.172,-0.758 0,-0.354 -0.124,-0.66 -0.372,-0.919 -0.247,-0.259 -0.538,-0.389 -0.873,-0.389 -0.137,0 -0.267,0.018 -0.389,0.055 -0.075,0.019 -0.211,0.08 -0.408,0.184 -0.197,0.103 -0.322,0.163 -0.379,0.179 -0.085,0.027 -0.169,0.039 -0.251,0.039 -0.107,0 -0.2,-0.036 -0.277,-0.108 -0.077,-0.072 -0.116,-0.155 -0.116,-0.251 0,-0.127 0.081,-0.247 0.244,-0.358 0.162,-0.112 0.468,-0.168 0.917,-0.168 0.909,0 1.602,0.275 2.081,0.827 0.367,0.423 0.551,0.923 0.551,1.5 0,0.404 -0.105,0.754 -0.315,1.053 -0.21,0.298 -0.52,0.528 -0.93,0.688 0.61,0.519 0.915,1.02 0.915,1.505 0,0.295 -0.108,0.573 -0.325,0.832 -0.285,0.347 -0.695,0.521 -1.229,0.521 -0.433,0 -0.795,-0.122 -1.085,-0.366 -0.29,-0.245 -0.531,-0.592 -0.721,-1.041 z m -2.319,-4.526 c -0.107,-0.105 -0.16,-0.235 -0.16,-0.389 0,-0.15 0.053,-0.279 0.16,-0.386 0.106,-0.106 0.234,-0.159 0.385,-0.159 0.151,0 0.28,0.053 0.387,0.159 0.107,0.107 0.159,0.236 0.159,0.386 0,0.151 -0.052,0.28 -0.157,0.387 -0.105,0.106 -0.234,0.159 -0.389,0.159 -0.151,0 -0.279,-0.052 -0.385,-0.157 z m -4.455,4.103 c 0.085,0.583 0.246,1.011 0.482,1.283 0.174,0.201 0.372,0.3 0.596,0.3 0.19,0 0.352,-0.054 0.486,-0.162 0.188,-0.157 0.34,-0.424 0.458,-0.802 0.157,-0.508 0.236,-1.143 0.236,-1.903 0,-1.027 -0.075,-1.822 -0.226,-2.386 -0.099,-0.374 -0.243,-0.64 -0.433,-0.8 -0.19,-0.158 -0.374,-0.238 -0.551,-0.238 -0.371,0 -0.649,0.244 -0.836,0.733 -0.227,0.58 -0.34,1.33 -0.34,2.248 0,0.568 0.043,1.143 0.128,1.727 z m -0.556,-3.891 c 0.423,-0.751 0.953,-1.127 1.589,-1.127 0.321,0 0.655,0.122 1.001,0.366 0.346,0.245 0.631,0.638 0.854,1.179 0.223,0.541 0.334,1.198 0.334,1.972 0,1.106 -0.254,1.981 -0.762,2.627 -0.407,0.522 -0.866,0.782 -1.377,0.782 -0.315,0 -0.62,-0.106 -0.916,-0.319 -0.38,-0.269 -0.686,-0.679 -0.914,-1.228 -0.23,-0.549 -0.345,-1.205 -0.345,-1.965 0,-0.892 0.179,-1.655 0.536,-2.287" /><path
   inkscape:connector-curvature="0"
   id="path1140"
   style="fill:none;stroke:#000000;stroke-width:0.21600001;stroke-linecap:butt;stroke-linejoin:miter;stroke-miterlimit:3.79999995;stroke-dasharray:none;stroke-opacity:1"
   d="m 356.589,723.072 v -2.643" /><path
   d="m 356.589,608.52 v 2.643"
   style="fill:none;stroke:#000000;stroke-width:0.21600001;stroke-linecap:butt;stroke-linejoin:miter;stroke-miterlimit:3.79999995;stroke-dasharray:none;stroke-opacity:1"
   id="path1144"
   inkscape:connector-curvature="0" /><path
   inkscape:connector-curvature="0"
   id="path1148"
   style="fill:none;stroke:#000000;stroke-width:0.21600001;stroke-linecap:butt;stroke-linejoin:miter;stroke-miterlimit:3.79999995;stroke-dasharray:none;stroke-opacity:1"
   d="m 520.253,723.072 h -1.297" /><path
   d="m 356.589,723.072 h 1.303"
   style="fill:none;stroke:#000000;stroke-width:0.21600001;stroke-linecap:butt;stroke-linejoin:miter;stroke-miterlimit:3.79999995;stroke-dasharray:none;stroke-opacity:1"
   id="path1152"
   inkscape:connector-curvature="0" /><path
   inkscape:connector-curvature="0"
   id="path1156"
   style="fill:#000000;fill-opacity:1;fill-rule:nonzero;stroke:none"
   d="m 362.22,602.953 c 0.085,0.584 0.246,1.012 0.482,1.284 0.174,0.2 0.372,0.3 0.595,0.3 0.191,0 0.353,-0.054 0.487,-0.162 0.187,-0.157 0.34,-0.425 0.458,-0.802 0.158,-0.508 0.236,-1.143 0.236,-1.903 0,-1.027 -0.076,-1.823 -0.226,-2.386 -0.099,-0.374 -0.243,-0.641 -0.433,-0.799 -0.191,-0.16 -0.374,-0.239 -0.551,-0.239 -0.371,0 -0.65,0.244 -0.836,0.733 -0.227,0.58 -0.339,1.329 -0.339,2.248 0,0.567 0.042,1.142 0.127,1.726 z m -0.556,-3.89 c 0.423,-0.752 0.953,-1.127 1.589,-1.127 0.322,0 0.655,0.122 1.001,0.366 0.346,0.245 0.631,0.637 0.854,1.179 0.222,0.541 0.334,1.198 0.334,1.972 0,1.105 -0.254,1.981 -0.762,2.627 -0.407,0.521 -0.866,0.782 -1.378,0.782 -0.314,0 -0.62,-0.106 -0.914,-0.32 -0.381,-0.269 -0.686,-0.678 -0.916,-1.227 -0.229,-0.549 -0.344,-1.204 -0.344,-1.965 0,-0.892 0.178,-1.654 0.536,-2.287 z m -4.481,3.89 c 0.085,0.584 0.246,1.012 0.482,1.284 0.174,0.2 0.372,0.3 0.595,0.3 0.19,0 0.353,-0.054 0.487,-0.162 0.187,-0.157 0.34,-0.425 0.457,-0.802 0.158,-0.508 0.237,-1.143 0.237,-1.903 0,-1.027 -0.075,-1.823 -0.227,-2.386 -0.097,-0.374 -0.242,-0.641 -0.432,-0.799 -0.19,-0.16 -0.374,-0.239 -0.551,-0.239 -0.371,0 -0.65,0.244 -0.836,0.733 -0.227,0.58 -0.34,1.329 -0.34,2.248 0,0.567 0.042,1.142 0.128,1.726 z m -0.556,-3.89 c 0.423,-0.752 0.953,-1.127 1.589,-1.127 0.321,0 0.655,0.122 1.001,0.366 0.346,0.245 0.63,0.637 0.854,1.179 0.222,0.541 0.334,1.198 0.334,1.972 0,1.105 -0.254,1.981 -0.763,2.627 -0.406,0.521 -0.865,0.782 -1.377,0.782 -0.314,0 -0.62,-0.106 -0.915,-0.32 -0.38,-0.269 -0.685,-0.678 -0.915,-1.227 -0.229,-0.549 -0.344,-1.204 -0.344,-1.965 0,-0.892 0.179,-1.654 0.536,-2.287 z m -1.5,0.275 c -0.085,-0.148 -0.185,-0.262 -0.3,-0.342 -0.115,-0.08 -0.244,-0.133 -0.386,-0.16 -0.143,-0.026 -0.391,-0.039 -0.745,-0.039 h -1.742 c 0.204,0.183 0.713,0.721 1.53,1.613 0.544,0.594 0.938,1.156 1.18,1.688 0.158,0.337 0.236,0.675 0.236,1.013 0,0.472 -0.18,0.882 -0.543,1.23 -0.363,0.347 -0.814,0.521 -1.355,0.521 -0.509,0 -0.932,-0.163 -1.272,-0.487 -0.339,-0.324 -0.55,-0.791 -0.632,-1.397 h 0.182 c 0.125,0.37 0.317,0.652 0.578,0.844 0.261,0.191 0.555,0.288 0.883,0.288 0.361,0 0.67,-0.137 0.93,-0.409 0.259,-0.272 0.388,-0.62 0.388,-1.043 0,-0.554 -0.235,-1.166 -0.708,-1.835 -0.472,-0.668 -1.287,-1.531 -2.445,-2.587 v -0.182 h 3.936 l 0.466,1.284 z m -7.384,0.605 h 2.5435 v 0.74304 h -2.5435 z" /><path
   inkscape:connector-curvature="0"
   id="path1160"
   style="fill:none;stroke:#000000;stroke-width:0.21600001;stroke-linecap:butt;stroke-linejoin:miter;stroke-miterlimit:3.79999995;stroke-dasharray:none;stroke-opacity:1"
   d="m 397.516,723.072 v -2.643" /><path
   d="m 397.516,608.52 v 2.643"
   style="fill:none;stroke:#000000;stroke-width:0.21600001;stroke-linecap:butt;stroke-linejoin:miter;stroke-miterlimit:3.79999995;stroke-dasharray:none;stroke-opacity:1"
   id="path1164"
   inkscape:connector-curvature="0" /><path
   inkscape:connector-curvature="0"
   id="path1168"
   style="fill:none;stroke:#000000;stroke-width:0.21600001;stroke-linecap:butt;stroke-linejoin:miter;stroke-miterlimit:3.79999995;stroke-dasharray:none;stroke-opacity:1"
   d="M 377.033,723.072 V 721.77" /><path
   d="m 377.033,608.52 v 1.303"
   style="fill:none;stroke:#000000;stroke-width:0.21600001;stroke-linecap:butt;stroke-linejoin:miter;stroke-miterlimit:3.79999995;stroke-dasharray:none;stroke-opacity:1"
   id="path1172"
   inkscape:connector-curvature="0" /><path
   inkscape:connector-curvature="0"
   id="path1176"
   style="fill:#000000;fill-opacity:1;fill-rule:nonzero;stroke:none"
   d="m 403.147,602.953 c 0.085,0.584 0.246,1.012 0.482,1.284 0.174,0.2 0.372,0.3 0.595,0.3 0.19,0 0.353,-0.054 0.487,-0.162 0.187,-0.157 0.34,-0.425 0.457,-0.802 0.158,-0.508 0.237,-1.143 0.237,-1.903 0,-1.027 -0.075,-1.823 -0.227,-2.386 -0.098,-0.374 -0.242,-0.641 -0.432,-0.799 -0.191,-0.16 -0.374,-0.239 -0.552,-0.239 -0.37,0 -0.649,0.244 -0.836,0.733 -0.226,0.58 -0.339,1.329 -0.339,2.248 0,0.567 0.042,1.142 0.128,1.726 z m -0.556,-3.89 c 0.423,-0.752 0.952,-1.127 1.589,-1.127 0.321,0 0.655,0.122 1.001,0.366 0.346,0.245 0.63,0.637 0.853,1.179 0.223,0.541 0.335,1.198 0.335,1.972 0,1.105 -0.254,1.981 -0.762,2.627 -0.407,0.521 -0.866,0.782 -1.378,0.782 -0.315,0 -0.62,-0.106 -0.915,-0.32 -0.38,-0.269 -0.685,-0.678 -0.914,-1.227 -0.231,-0.549 -0.345,-1.204 -0.345,-1.965 0,-0.892 0.179,-1.654 0.536,-2.287 z m -4.481,3.89 c 0.085,0.584 0.245,1.012 0.482,1.284 0.174,0.2 0.372,0.3 0.595,0.3 0.19,0 0.353,-0.054 0.487,-0.162 0.187,-0.157 0.34,-0.425 0.457,-0.802 0.158,-0.508 0.237,-1.143 0.237,-1.903 0,-1.027 -0.076,-1.823 -0.227,-2.386 -0.098,-0.374 -0.243,-0.641 -0.432,-0.799 -0.191,-0.16 -0.374,-0.239 -0.551,-0.239 -0.371,0 -0.65,0.244 -0.837,0.733 -0.226,0.58 -0.339,1.329 -0.339,2.248 0,0.567 0.043,1.142 0.128,1.726 z m -0.556,-3.89 c 0.423,-0.752 0.952,-1.127 1.589,-1.127 0.321,0 0.654,0.122 1.001,0.366 0.346,0.245 0.63,0.637 0.853,1.179 0.223,0.541 0.335,1.198 0.335,1.972 0,1.105 -0.255,1.981 -0.763,2.627 -0.406,0.521 -0.865,0.782 -1.377,0.782 -0.315,0 -0.62,-0.106 -0.915,-0.32 -0.38,-0.269 -0.686,-0.678 -0.915,-1.227 -0.23,-0.549 -0.344,-1.204 -0.344,-1.965 0,-0.892 0.178,-1.654 0.536,-2.287 z m -4.683,4.854 c 0.216,0.102 0.385,0.153 0.506,0.153 0.086,0 0.159,-0.024 0.219,-0.074 0.061,-0.049 0.103,-0.126 0.126,-0.231 0.032,-0.138 0.049,-0.449 0.049,-0.935 v -3.6 c 0,-0.401 -0.018,-0.641 -0.054,-0.721 -0.036,-0.081 -0.1,-0.145 -0.192,-0.192 -0.092,-0.047 -0.295,-0.075 -0.61,-0.081 v -0.182 h 2.509 v 0.182 c -0.302,0.006 -0.502,0.034 -0.6,0.084 -0.098,0.049 -0.163,0.119 -0.195,0.211 -0.031,0.092 -0.046,0.325 -0.046,0.699 v 5.632 h -0.163 l -1.623,-0.792 z m -4.201,-3.974 h 2.5434 v 0.74304 H 388.67 Z" /><path
   inkscape:connector-curvature="0"
   id="path1180"
   style="fill:none;stroke:#000000;stroke-width:0.21600001;stroke-linecap:butt;stroke-linejoin:miter;stroke-miterlimit:3.79999995;stroke-dasharray:none;stroke-opacity:1"
   d="m 438.443,723.072 v -2.643" /><path
   d="m 438.443,608.52 v 2.643"
   style="fill:none;stroke:#000000;stroke-width:0.21600001;stroke-linecap:butt;stroke-linejoin:miter;stroke-miterlimit:3.79999995;stroke-dasharray:none;stroke-opacity:1"
   id="path1184"
   inkscape:connector-curvature="0" /><path
   inkscape:connector-curvature="0"
   id="path1188"
   style="fill:none;stroke:#000000;stroke-width:0.21600001;stroke-linecap:butt;stroke-linejoin:miter;stroke-miterlimit:3.79999995;stroke-dasharray:none;stroke-opacity:1"
   d="M 417.96,723.072 V 721.77" /><path
   d="m 417.96,608.52 v 1.303"
   style="fill:none;stroke:#000000;stroke-width:0.21600001;stroke-linecap:butt;stroke-linejoin:miter;stroke-miterlimit:3.79999995;stroke-dasharray:none;stroke-opacity:1"
   id="path1192"
   inkscape:connector-curvature="0" /><path
   inkscape:connector-curvature="0"
   id="path1196"
   style="fill:#000000;fill-opacity:1;fill-rule:nonzero;stroke:none"
   d="m 438.621,602.953 c 0.084,0.584 0.244,1.012 0.48,1.284 0.174,0.2 0.373,0.3 0.596,0.3 0.19,0 0.353,-0.054 0.486,-0.162 0.188,-0.157 0.34,-0.425 0.458,-0.802 0.157,-0.508 0.237,-1.143 0.237,-1.903 0,-1.027 -0.076,-1.823 -0.226,-2.386 -0.099,-0.374 -0.243,-0.641 -0.434,-0.799 -0.19,-0.16 -0.374,-0.239 -0.55,-0.239 -0.371,0 -0.65,0.244 -0.836,0.733 -0.227,0.58 -0.34,1.329 -0.34,2.248 0,0.567 0.042,1.142 0.129,1.726 z m -0.557,-3.89 c 0.423,-0.752 0.953,-1.127 1.589,-1.127 0.321,0 0.655,0.122 1.001,0.366 0.346,0.245 0.63,0.637 0.853,1.179 0.223,0.541 0.334,1.198 0.334,1.972 0,1.105 -0.254,1.981 -0.761,2.627 -0.408,0.521 -0.868,0.782 -1.378,0.782 -0.314,0 -0.62,-0.106 -0.915,-0.32 -0.38,-0.269 -0.686,-0.678 -0.915,-1.227 -0.23,-0.549 -0.345,-1.204 -0.345,-1.965 0,-0.892 0.18,-1.654 0.537,-2.287" /><path
   inkscape:connector-curvature="0"
   id="path1200"
   style="fill:none;stroke:#000000;stroke-width:0.21600001;stroke-linecap:butt;stroke-linejoin:miter;stroke-miterlimit:3.79999995;stroke-dasharray:none;stroke-opacity:1"
   d="m 479.326,723.072 v -2.643" /><path
   d="m 479.326,608.52 v 2.643"
   style="fill:none;stroke:#000000;stroke-width:0.21600001;stroke-linecap:butt;stroke-linejoin:miter;stroke-miterlimit:3.79999995;stroke-dasharray:none;stroke-opacity:1"
   id="path1204"
   inkscape:connector-curvature="0" /><path
   inkscape:connector-curvature="0"
   id="path1208"
   style="fill:none;stroke:#000000;stroke-width:0.21600001;stroke-linecap:butt;stroke-linejoin:miter;stroke-miterlimit:3.79999995;stroke-dasharray:none;stroke-opacity:1"
   d="M 458.885,723.072 V 721.77" /><path
   d="m 458.885,608.52 v 1.303"
   style="fill:none;stroke:#000000;stroke-width:0.21600001;stroke-linecap:butt;stroke-linejoin:miter;stroke-miterlimit:3.79999995;stroke-dasharray:none;stroke-opacity:1"
   id="path1212"
   inkscape:connector-curvature="0" /><path
   inkscape:connector-curvature="0"
   id="path1216"
   style="fill:#000000;fill-opacity:1;fill-rule:nonzero;stroke:none"
   d="m 484.541,602.953 c 0.085,0.584 0.246,1.012 0.482,1.284 0.174,0.2 0.372,0.3 0.596,0.3 0.189,0 0.351,-0.054 0.486,-0.162 0.188,-0.157 0.339,-0.425 0.457,-0.802 0.158,-0.508 0.236,-1.143 0.236,-1.903 0,-1.027 -0.075,-1.823 -0.226,-2.386 -0.099,-0.374 -0.242,-0.641 -0.432,-0.799 -0.19,-0.16 -0.375,-0.239 -0.551,-0.239 -0.371,0 -0.65,0.244 -0.836,0.733 -0.227,0.58 -0.34,1.329 -0.34,2.248 0,0.567 0.043,1.142 0.128,1.726 z m -0.556,-3.89 c 0.423,-0.752 0.952,-1.127 1.589,-1.127 0.321,0 0.654,0.122 1.002,0.366 0.345,0.245 0.629,0.637 0.852,1.179 0.224,0.541 0.334,1.198 0.334,1.972 0,1.105 -0.254,1.981 -0.762,2.627 -0.407,0.521 -0.866,0.782 -1.377,0.782 -0.315,0 -0.62,-0.106 -0.915,-0.32 -0.38,-0.269 -0.686,-0.678 -0.915,-1.227 -0.23,-0.549 -0.344,-1.204 -0.344,-1.965 0,-0.892 0.179,-1.654 0.536,-2.287 z m -4.481,3.89 c 0.084,0.584 0.246,1.012 0.481,1.284 0.175,0.2 0.373,0.3 0.596,0.3 0.19,0 0.353,-0.054 0.487,-0.162 0.186,-0.157 0.339,-0.425 0.457,-0.802 0.158,-0.508 0.236,-1.143 0.236,-1.903 0,-1.027 -0.075,-1.823 -0.225,-2.386 -0.099,-0.374 -0.243,-0.641 -0.434,-0.799 -0.19,-0.16 -0.373,-0.239 -0.551,-0.239 -0.37,0 -0.649,0.244 -0.837,0.733 -0.225,0.58 -0.338,1.329 -0.338,2.248 0,0.567 0.042,1.142 0.128,1.726 z m -0.556,-3.89 c 0.423,-0.752 0.952,-1.127 1.589,-1.127 0.321,0 0.655,0.122 1.001,0.366 0.345,0.245 0.63,0.637 0.853,1.179 0.223,0.541 0.334,1.198 0.334,1.972 0,1.105 -0.254,1.981 -0.762,2.627 -0.407,0.521 -0.866,0.782 -1.377,0.782 -0.315,0 -0.621,-0.106 -0.915,-0.32 -0.38,-0.269 -0.686,-0.678 -0.916,-1.227 -0.228,-0.549 -0.343,-1.204 -0.343,-1.965 0,-0.892 0.178,-1.654 0.536,-2.287 z m -4.683,4.854 c 0.216,0.102 0.386,0.153 0.506,0.153 0.086,0 0.158,-0.024 0.22,-0.074 0.06,-0.049 0.102,-0.126 0.125,-0.231 0.033,-0.138 0.049,-0.449 0.049,-0.935 v -3.6 c 0,-0.401 -0.019,-0.641 -0.054,-0.721 -0.036,-0.081 -0.1,-0.145 -0.192,-0.192 -0.091,-0.047 -0.295,-0.075 -0.61,-0.081 v -0.182 h 2.509 v 0.182 c -0.302,0.006 -0.502,0.034 -0.6,0.084 -0.099,0.049 -0.164,0.119 -0.195,0.211 -0.03,0.092 -0.046,0.325 -0.046,0.699 v 5.632 h -0.163 l -1.623,-0.792 0.074,-0.153" /><path
   inkscape:connector-curvature="0"
   id="path1220"
   style="fill:none;stroke:#000000;stroke-width:0.21600001;stroke-linecap:butt;stroke-linejoin:miter;stroke-miterlimit:3.79999995;stroke-dasharray:none;stroke-opacity:1"
   d="m 520.253,723.072 v -2.643" /><path
   d="m 520.253,608.52 v 2.643"
   style="fill:none;stroke:#000000;stroke-width:0.21600001;stroke-linecap:butt;stroke-linejoin:miter;stroke-miterlimit:3.79999995;stroke-dasharray:none;stroke-opacity:1"
   id="path1224"
   inkscape:connector-curvature="0" /><path
   inkscape:connector-curvature="0"
   id="path1228"
   style="fill:none;stroke:#000000;stroke-width:0.21600001;stroke-linecap:butt;stroke-linejoin:miter;stroke-miterlimit:3.79999995;stroke-dasharray:none;stroke-opacity:1"
   d="M 499.812,723.072 V 721.77" /><path
   d="m 499.812,608.52 v 1.303"
   style="fill:none;stroke:#000000;stroke-width:0.21600001;stroke-linecap:butt;stroke-linejoin:miter;stroke-miterlimit:3.79999995;stroke-dasharray:none;stroke-opacity:1"
   id="path1232"
   inkscape:connector-curvature="0" /><path
   inkscape:connector-curvature="0"
   id="path1236"
   style="fill:#000000;fill-opacity:1;fill-rule:nonzero;stroke:none"
   d="m 525.467,602.953 c 0.086,0.584 0.247,1.012 0.483,1.284 0.174,0.2 0.372,0.3 0.595,0.3 0.191,0 0.352,-0.054 0.488,-0.162 0.186,-0.157 0.339,-0.425 0.457,-0.802 0.157,-0.508 0.236,-1.143 0.236,-1.903 0,-1.027 -0.076,-1.823 -0.227,-2.386 -0.098,-0.374 -0.243,-0.641 -0.432,-0.799 -0.19,-0.16 -0.375,-0.239 -0.551,-0.239 -0.371,0 -0.649,0.244 -0.837,0.733 -0.226,0.58 -0.34,1.329 -0.34,2.248 0,0.567 0.044,1.142 0.128,1.726 z m -0.555,-3.89 c 0.423,-0.752 0.952,-1.127 1.59,-1.127 0.32,0 0.654,0.122 1.001,0.366 0.345,0.245 0.629,0.637 0.852,1.179 0.224,0.541 0.335,1.198 0.335,1.972 0,1.105 -0.255,1.981 -0.763,2.627 -0.407,0.521 -0.865,0.782 -1.377,0.782 -0.315,0 -0.62,-0.106 -0.916,-0.32 -0.38,-0.269 -0.685,-0.678 -0.914,-1.227 -0.23,-0.549 -0.344,-1.204 -0.344,-1.965 0,-0.892 0.178,-1.654 0.536,-2.287 z m -4.482,3.89 c 0.085,0.584 0.246,1.012 0.483,1.284 0.173,0.2 0.372,0.3 0.595,0.3 0.19,0 0.353,-0.054 0.487,-0.162 0.186,-0.157 0.34,-0.425 0.458,-0.802 0.157,-0.508 0.235,-1.143 0.235,-1.903 0,-1.027 -0.074,-1.823 -0.226,-2.386 -0.098,-0.374 -0.243,-0.641 -0.433,-0.799 -0.191,-0.16 -0.373,-0.239 -0.551,-0.239 -0.371,0 -0.649,0.244 -0.836,0.733 -0.226,0.58 -0.34,1.329 -0.34,2.248 0,0.567 0.043,1.142 0.128,1.726 z m -0.555,-3.89 c 0.422,-0.752 0.953,-1.127 1.588,-1.127 0.322,0 0.656,0.122 1.001,0.366 0.346,0.245 0.63,0.637 0.854,1.179 0.224,0.541 0.335,1.198 0.335,1.972 0,1.105 -0.255,1.981 -0.763,2.627 -0.407,0.521 -0.866,0.782 -1.378,0.782 -0.313,0 -0.62,-0.106 -0.914,-0.32 -0.381,-0.269 -0.686,-0.678 -0.915,-1.227 -0.229,-0.549 -0.345,-1.204 -0.345,-1.965 0,-0.892 0.179,-1.654 0.537,-2.287 z m -1.5,0.275 c -0.086,-0.148 -0.186,-0.262 -0.301,-0.342 -0.113,-0.08 -0.243,-0.133 -0.386,-0.16 -0.142,-0.026 -0.391,-0.039 -0.745,-0.039 h -1.741 c 0.203,0.183 0.713,0.721 1.529,1.613 0.544,0.594 0.938,1.156 1.182,1.688 0.156,0.337 0.235,0.675 0.235,1.013 0,0.472 -0.182,0.882 -0.543,1.23 -0.362,0.347 -0.815,0.521 -1.355,0.521 -0.509,0 -0.933,-0.163 -1.272,-0.487 -0.34,-0.324 -0.551,-0.791 -0.633,-1.397 h 0.183 c 0.125,0.37 0.316,0.652 0.577,0.844 0.262,0.191 0.557,0.288 0.884,0.288 0.36,0 0.67,-0.137 0.93,-0.409 0.258,-0.272 0.388,-0.62 0.388,-1.043 0,-0.554 -0.236,-1.166 -0.709,-1.835 -0.472,-0.668 -1.287,-1.531 -2.445,-2.587 v -0.182 h 3.935 l 0.468,1.284 h -0.181" /><path
   d="M 356.589,723.072 H 520.253 V 608.52 H 356.589 Z"
   style="fill:none;stroke:#000000;stroke-width:0.21600001;stroke-linecap:butt;stroke-linejoin:miter;stroke-miterlimit:3.79999995;stroke-dasharray:none;stroke-opacity:1"
   id="path1246"
   inkscape:connector-curvature="0" /><path
   inkscape:connector-curvature="0"
   id="path1250"
   style="fill:none;stroke:#ff0000;stroke-width:0.83999997;stroke-linecap:butt;stroke-linejoin:miter;stroke-miterlimit:3.79999995;stroke-dasharray:none;stroke-opacity:1"
   d="m 520.253,608.687 -1.087,0.043 -4.032,0.044 -4.03,0.123 -4.073,0.13 -4.028,0.166 -4.031,0.21 -4.029,0.167 -4.031,0.21 -8.099,0.334 -4.03,0.209 -4.031,0.463 -4.032,0.84 -4.025,1.807 -4.031,3.568 -4.073,6.884 -0.797,1.932 -0.795,2.136 -0.798,2.396 -0.84,2.642 -0.801,2.899 -0.797,3.148 -0.796,3.44 -0.839,3.612 -0.797,3.944 -0.796,4.155 -0.802,4.282 -0.796,4.532 -0.84,4.579 -0.798,4.618 -0.796,4.655 -0.796,4.579 -0.84,4.409 -0.801,4.153 -0.797,3.861 -0.795,3.567 -0.84,3.024 -0.798,2.52 -0.795,2.012 -0.802,1.43 -0.796,0.755 -0.84,0.166 -0.798,-0.5 -0.796,-1.093 -0.797,-1.721 -0.839,-2.266 -0.8,-2.647 -0.798,-3.188 -0.796,-3.529 -0.84,-3.816 -0.797,-3.95 -0.796,-4.236 -0.801,-4.283 -0.839,-4.283 -0.797,-4.237 -0.797,-4.197 -0.796,-4.074 -0.797,-3.944 -0.841,-3.778 -0.8,-3.525 -0.797,-3.358 -0.796,-3.148 -0.84,-2.939 -0.797,-2.689 -0.796,-2.52 -0.802,-2.265 -4.068,-8.773 -4.031,-5.289 -4.03,-3.019 -4.031,-1.68 -4.026,-0.969 -4.031,-0.499 -4.073,-0.339 -4.03,-0.21 -4.027,-0.167 -4.03,-0.124 -4.031,-0.129 -4.03,-0.124 -8.101,-0.253 -4.03,-0.167 -1.092,-0.043" /><path
   d="m 520.253,608.73 -1.087,0.044 -4.032,0.123 -4.03,0.167 -4.073,0.21 -4.028,0.254 -4.031,0.252 -4.029,0.296 -4.031,0.333 -4.031,0.377 -4.068,0.464 -4.03,0.543 -4.031,0.629 -4.032,0.926 -4.025,1.679 -4.031,3.234 -4.073,6.125 -0.797,1.721 -0.795,1.889 -0.798,2.143 -0.84,2.351 -0.801,2.6 -0.797,2.857 -0.796,3.063 -0.839,3.275 -0.797,3.569 -0.796,3.777 -0.802,3.903 -0.796,4.073 -0.84,4.198 -1.594,8.395 -0.796,4.154 -0.84,4.031 -0.801,3.778 -0.797,3.483 -0.795,3.19 -0.84,2.729 -0.798,2.224 -0.795,1.807 -0.802,1.216 -0.796,0.587 -0.84,0.042 -0.798,-0.548 -0.796,-1.13 -0.797,-1.68 -0.839,-2.184 -0.8,-2.519 -0.798,-3.062 -0.796,-3.277 -0.84,-3.567 -0.797,-3.65 -0.796,-3.945 -0.801,-3.907 -0.839,-3.943 -0.797,-3.904 -0.797,-3.777 -0.796,-3.697 -0.797,-3.525 -0.841,-3.358 -0.8,-3.149 -0.797,-2.981 -0.796,-2.771 -0.84,-2.556 -0.797,-2.353 -0.796,-2.141 -0.802,-1.974 -4.068,-7.428 -4.031,-4.365 -4.03,-2.518 -4.031,-1.511 -4.026,-0.926 -4.031,-0.711 -4.073,-0.548 -4.03,-0.464 -4.027,-0.376 -4.03,-0.334 -4.031,-0.339 -4.03,-0.247 -4.07,-0.253 -4.031,-0.253 -4.03,-0.167 -1.092,-0.043"
   style="fill:none;stroke:#008800;stroke-width:0.83999997;stroke-linecap:butt;stroke-linejoin:miter;stroke-miterlimit:3.79999995;stroke-dasharray:4.6174, 1.847;stroke-dashoffset:0;stroke-opacity:1"
   id="path1252"
   inkscape:connector-curvature="0" /><path
   d="m 356.589,609.528 0.42,0.042 h 1.217 l 0.419,0.043 h 1.221 l 0.419,0.042 h 0.798 l 0.418,0.04 h 0.798 l 0.419,0.042 h 1.217 l 0.42,0.043 h 0.838 l 0.379,0.043 h 0.838 l 0.421,0.043 h 0.38 l 0.42,0.038 h 4.489 l 0.419,-0.038 h 2.859 l 0.419,-0.043 0.419,0.043 h 3.273 l 0.419,-0.043 h 1.217 l 0.42,-0.043 h 0.376 l 0.42,0.043 h 0.84 l 0.381,0.043 h 0.42 l 0.419,0.038 0.42,0.043 0.378,0.042 0.838,0.087 h 0.421 l 0.377,0.038 0.839,0.086 h 0.419 l 0.377,0.042 h 0.421 l 0.419,0.043 h 0.42 l 0.377,0.038 h 0.419 l 0.84,0.086 0.381,0.043 0.42,0.043 0.42,0.039 0.419,0.043 0.377,0.042 0.421,0.043 0.419,0.082 0.421,0.042 0.377,0.043 0.418,0.087 0.421,0.038 0.419,0.084 0.377,0.044 0.421,0.081 0.419,0.087 0.377,0.084 0.42,0.081 0.419,0.087 0.419,0.082 0.382,0.085 0.42,0.124 0.42,0.129 0.42,0.124 0.376,0.166 0.42,0.172 0.42,0.167 0.42,0.21 0.376,0.167 0.421,0.124 0.419,0.171 0.419,0.168 0.379,0.123 0.418,0.129 0.42,0.082 0.42,0.043 0.377,0.085 0.419,0.124 0.421,0.167 0.419,0.21 0.381,0.254 0.421,0.294 0.419,0.334 0.419,0.377 0.378,0.507 0.839,1.173 0.42,0.548 0.377,0.543 0.419,0.545 0.421,0.549 0.419,0.543 0.376,0.506 0.421,0.544 0.419,0.548 0.42,0.501 0.378,0.549 0.419,0.543 0.419,0.631 0.421,0.586 0.381,0.672 0.419,0.673 0.421,0.754 0.419,0.797 0.377,0.715 0.42,0.586 0.419,0.758 0.419,0.965 0.379,1.134 0.419,1.341 0.419,1.511 0.421,1.679 0.377,1.848 0.418,1.974 0.421,2.098 0.419,2.391 0.377,2.437 0.421,2.476 0.419,2.518 0.42,2.475 0.381,2.476 0.42,2.48 0.419,2.519 0.421,2.433 0.376,2.476 0.42,2.437 0.42,2.347 0.419,2.352 0.377,2.266 0.42,2.183 0.42,2.142 0.421,2.057 0.376,2.013 0.42,1.975 0.419,1.845 0.42,1.721 0.376,1.594 0.421,1.555 0.419,1.513 0.42,1.426 0.381,1.383 0.42,1.346 0.42,1.217 0.42,1.176 0.377,1.05 0.419,1.088 0.421,1.177 0.418,1.008 0.377,0.795 0.421,0.588 0.419,0.462 0.419,0.253 0.379,0.085 0.419,-0.127 0.419,-0.254 0.421,-0.334 0.377,-0.419 0.419,-0.63 0.421,-0.796 0.381,-0.969 0.419,-1.088 0.42,-1.301 0.419,-1.388 0.377,-1.551 0.421,-1.637 0.419,-1.85 0.419,-2.056 0.379,-2.099 0.419,-2.179 0.84,-4.284 0.376,-2.184 0.42,-2.181 0.42,-2.184 0.419,-2.181 0.377,-2.183 0.42,-2.099 0.838,-4.285 0.383,-2.097 0.839,-4.198 0.421,-2.056 0.375,-2.056 0.42,-1.974 0.84,-4.026 0.377,-1.976 0.42,-1.932 0.419,-1.888 0.419,-1.761 0.378,-1.765 0.419,-1.636 0.419,-1.597 0.421,-1.551 0.377,-1.468 0.419,-1.388 0.421,-1.385 0.419,-1.302 0.381,-1.215 0.421,-1.174 0.419,-1.136 0.419,-1.092 0.378,-1.007 0.419,-0.963 0.84,-1.764 0.377,-0.84 0.419,-0.754 0.421,-0.715 0.419,-0.673 0.377,-0.63 0.421,-0.63 0.419,-0.542 0.421,-0.507 0.377,-0.5 0.839,-0.84 0.419,-0.381 0.381,-0.334 0.419,-0.334 0.84,-0.591 0.377,-0.249 0.421,-0.252 0.84,-0.421 0.376,-0.21 0.42,-0.167 0.42,-0.171 0.419,-0.167 0.376,-0.123 0.421,-0.169 0.419,-0.127 0.419,-0.125 0.378,-0.086 0.419,-0.123 0.42,-0.087 0.42,-0.123 0.381,-0.086 0.42,-0.081 0.42,-0.043 0.42,-0.086 0.377,-0.083 0.419,-0.042 0.42,-0.085 0.419,-0.042 0.378,-0.082 1.259,-0.13 0.377,-0.08 1.259,-0.129 0.377,-0.038 0.84,-0.087 0.38,-0.042 0.421,-0.042 0.419,-0.038 0.419,-0.043 0.379,-0.044 0.838,-0.085 h 0.421 l 0.377,-0.04 1.259,-0.127 h 0.377 l 0.421,-0.043 0.418,-0.039 0.419,-0.043 0.378,-0.043 h 0.42 l 0.839,-0.086 0.382,-0.038 h 0.419 l 0.84,-0.085 0.377,-0.044 h 0.42 l 0.42,-0.042 0.419,-0.038 0.376,-0.043 h 0.42 l 0.84,-0.086 h 0.376 l 0.42,-0.043 0.42,-0.038 h 0.42 l 0.376,-0.043 h 0.421 l 0.84,-0.086 h 0.381 l 0.418,-0.042 h 0.42 l 0.42,-0.04 h 0.377 l 0.419,-0.042 h 0.421 l 0.419,-0.043 h 0.377 l 0.421,-0.042 h 0.419 l 0.421,-0.043 h 0.377 l 0.419,-0.039 h 0.84 l 0.376,-0.043 h 0.421 l 0.419,-0.043 h 0.8 l 0.421,-0.042 h 0.84 l 0.377,-0.044 h 0.84 l 0.419,-0.038 h 0.797 l 0.419,-0.043 h 0.797 l 0.42,-0.042 h 1.216 l 0.42,-0.044 h 1.221 l 0.42,-0.043 h 1.215 l 0.42,-0.037 h 1.216 l 0.42,-0.043 h 2.056 l 0.42,-0.044 h 0.797"
   style="fill:none;stroke:#0000ff;stroke-width:0.83999997;stroke-linecap:butt;stroke-linejoin:miter;stroke-miterlimit:3.79999995;stroke-dasharray:1.6791, 1.6791;stroke-dashoffset:0;stroke-opacity:1"
   id="path1254"
   inkscape:connector-curvature="0" /><path
   inkscape:connector-curvature="0"
   id="path1274"
   style="fill:none;stroke:#000000;stroke-width:0.21600001;stroke-linecap:butt;stroke-linejoin:miter;stroke-miterlimit:3.79999995;stroke-dasharray:none;stroke-opacity:1"
   d="M 356.589,723.072 H 520.253 V 608.52 H 356.589 Z" /><path
   inkscape:connector-curvature="0"
   id="path1484"
   style="fill:#000000;fill-opacity:1;fill-rule:nonzero;stroke:none"
   d="m 504.883,709.368 1.111,2.581 1.084,-2.581 z m 2.712,-1.267 c 0.126,-0.298 0.189,-0.516 0.189,-0.654 0,-0.103 -0.045,-0.191 -0.135,-0.264 -0.089,-0.072 -0.261,-0.115 -0.516,-0.127 v -0.174 h 2.52 v 0.174 c -0.261,0.016 -0.464,0.087 -0.609,0.214 -0.146,0.127 -0.309,0.405 -0.488,0.831 l -2.222,5.312 h -0.165 l -2.247,-5.255 c -0.194,-0.461 -0.372,-0.768 -0.532,-0.918 -0.079,-0.076 -0.251,-0.137 -0.517,-0.184 v -0.174 h 2.01 v 0.174 c -0.307,0.021 -0.507,0.07 -0.601,0.144 -0.092,0.073 -0.139,0.159 -0.139,0.256 0,0.123 0.054,0.308 0.161,0.556 l 0.433,1.008 h 2.473 z m -5.264,-1.045 c -0.151,0 -0.294,0.038 -0.429,0.113 -0.101,0.056 -0.166,0.124 -0.197,0.202 -0.042,0.104 -0.062,0.317 -0.062,0.641 v 4.125 c 0,0.383 0.039,0.625 0.117,0.725 0.12,0.154 0.31,0.231 0.571,0.231 h 0.23 v 0.174 h -2.735 v -0.174 h 0.225 c 0.151,0 0.295,-0.037 0.434,-0.113 0.097,-0.056 0.161,-0.124 0.192,-0.202 0.041,-0.104 0.063,-0.317 0.063,-0.641 v -4.125 c 0,-0.383 -0.039,-0.624 -0.114,-0.725 -0.12,-0.154 -0.311,-0.231 -0.575,-0.231 h -0.225 v -0.174 h 2.735 v 0.174 z m -4.729,6.211 v -0.174 c 0.192,0 0.347,-0.022 0.467,-0.066 0.068,-0.025 0.126,-0.069 0.172,-0.132 0.046,-0.063 0.068,-0.13 0.068,-0.202 0,-0.151 -0.069,-0.421 -0.207,-0.81 l -1.215,-3.518 -1.225,3.471 c -0.141,0.398 -0.211,0.678 -0.211,0.838 0,0.129 0.04,0.231 0.122,0.306 0.082,0.076 0.21,0.113 0.387,0.113 h 0.169 v 0.174 h -2.487 v -0.174 c 0.129,0 0.223,-0.009 0.282,-0.028 0.079,-0.026 0.158,-0.066 0.237,-0.123 0.059,-0.04 0.109,-0.091 0.149,-0.15 0.082,-0.119 0.155,-0.258 0.222,-0.415 l 0.151,-0.428 0.188,-0.537 -1.06,-3.047 -1.257,3.584 c -0.137,0.395 -0.207,0.648 -0.207,0.758 0,0.107 0.043,0.198 0.131,0.273 0.088,0.076 0.216,0.113 0.382,0.113 h 0.113 v 0.174 h -2.364 v -0.174 c 0.185,0 0.332,-0.029 0.44,-0.087 0.109,-0.058 0.195,-0.147 0.257,-0.266 0.038,-0.072 0.127,-0.306 0.269,-0.702 l 1.897,-5.302 h 0.17 l 1.445,4.083 1.456,-4.083 h 0.188 l 1.78,5.147 c 0.135,0.414 0.234,0.676 0.297,0.786 0.094,0.163 0.194,0.275 0.296,0.335 0.104,0.059 0.239,0.089 0.405,0.089 v 0.174 z m -12.097,-0.494 c 0.361,0.091 0.682,0.137 0.965,0.137 0.754,0 1.37,-0.255 1.851,-0.763 0.48,-0.509 0.72,-1.204 0.72,-2.086 0,-0.877 -0.24,-1.57 -0.72,-2.082 -0.481,-0.512 -1.085,-0.767 -1.814,-0.767 -0.269,0 -0.603,0.044 -1.002,0.132 z m 1.032,-5.891 c 1.24,0 2.162,0.332 2.767,0.998 0.541,0.596 0.811,1.339 0.811,2.227 0,0.663 -0.152,1.247 -0.454,1.753 -0.303,0.505 -0.703,0.866 -1.201,1.082 -0.498,0.217 -1.224,0.325 -2.177,0.325 h -2.601 v -0.174 h 0.24 c 0.242,0 0.424,-0.069 0.547,-0.207 0.088,-0.101 0.132,-0.35 0.132,-0.749 v -4.125 c 0,-0.361 -0.035,-0.593 -0.104,-0.697 -0.114,-0.173 -0.304,-0.259 -0.575,-0.259 h -0.24 v -0.174 z m -5.84,1.808 h 2.434 v 0.71094 h -2.434 z m -0.858,-1.634 c -0.15,0 -0.294,0.038 -0.428,0.113 -0.101,0.056 -0.166,0.124 -0.199,0.202 -0.039,0.104 -0.059,0.317 -0.059,0.641 v 4.125 c 0,0.383 0.038,0.625 0.118,0.725 0.117,0.154 0.308,0.231 0.568,0.231 h 0.232 v 0.174 h -2.737 v -0.174 h 0.227 c 0.15,0 0.294,-0.037 0.433,-0.113 0.097,-0.056 0.162,-0.124 0.193,-0.202 0.04,-0.104 0.061,-0.317 0.061,-0.641 v -4.125 c 0,-0.383 -0.037,-0.624 -0.113,-0.725 -0.12,-0.154 -0.31,-0.231 -0.574,-0.231 h -0.227 v -0.174 h 2.737 v 0.174 z m -4.869,5.863 c 0.317,0 0.538,-0.024 0.664,-0.071 0.158,-0.065 0.277,-0.162 0.356,-0.287 0.08,-0.126 0.153,-0.357 0.219,-0.692 h 0.183 l -0.07,1.398 h -4.921 v -0.174 h 0.226 c 0.264,0 0.452,-0.063 0.565,-0.188 0.081,-0.095 0.122,-0.344 0.122,-0.749 v -4.148 c 0,-0.311 -0.018,-0.517 -0.055,-0.618 -0.035,-0.1 -0.103,-0.176 -0.204,-0.226 -0.135,-0.072 -0.277,-0.108 -0.428,-0.108 h -0.226 v -0.174 h 4.921 l 0.551,1.601 h -0.188 c -0.205,-0.392 -0.404,-0.686 -0.598,-0.881 -0.152,-0.147 -0.308,-0.246 -0.471,-0.296 -0.163,-0.05 -0.426,-0.076 -0.787,-0.076 h -1.082 c -0.177,0 -0.296,0.018 -0.36,0.055 -0.061,0.036 -0.105,0.084 -0.131,0.146 -0.026,0.061 -0.038,0.232 -0.038,0.515 v 2.105 h 1.405 c 0.265,0 0.463,-0.032 0.592,-0.094 0.129,-0.063 0.222,-0.149 0.278,-0.259 0.044,-0.088 0.088,-0.288 0.132,-0.598 h 0.174 v 2.223 h -0.174 c -0.019,-0.365 -0.11,-0.619 -0.273,-0.764 -0.123,-0.109 -0.366,-0.164 -0.729,-0.164 h -1.405 v 2.524 h 1.752" /><path
   inkscape:connector-curvature="0"
   id="path1488"
   style="fill:none;stroke:#ff0000;stroke-width:0.85000002;stroke-linecap:butt;stroke-linejoin:miter;stroke-miterlimit:10;stroke-dasharray:none;stroke-opacity:1"
   d="m 457.425,710.096 h 9.186" /><path
   inkscape:connector-curvature="0"
   id="path1492"
   style="fill:#000000;fill-opacity:1;fill-rule:nonzero;stroke:none"
   d="m 508.635,700.504 1.113,2.581 1.083,-2.581 z m 2.713,-1.267 c 0.126,-0.298 0.189,-0.516 0.189,-0.654 0,-0.104 -0.045,-0.192 -0.134,-0.264 -0.09,-0.072 -0.262,-0.115 -0.516,-0.127 v -0.174 h 2.52 v 0.174 c -0.261,0.016 -0.464,0.087 -0.611,0.214 -0.146,0.127 -0.308,0.404 -0.487,0.831 l -2.223,5.312 h -0.165 l -2.246,-5.255 c -0.195,-0.461 -0.373,-0.768 -0.532,-0.918 -0.078,-0.076 -0.251,-0.137 -0.518,-0.184 v -0.174 h 2.01 v 0.174 c -0.307,0.021 -0.507,0.069 -0.599,0.144 -0.094,0.073 -0.139,0.159 -0.139,0.256 0,0.122 0.054,0.308 0.16,0.556 l 0.433,1.008 h 2.472 z m -5.264,-1.045 c -0.152,0 -0.294,0.038 -0.429,0.113 -0.101,0.056 -0.166,0.124 -0.198,0.202 -0.04,0.104 -0.061,0.317 -0.061,0.641 v 4.125 c 0,0.383 0.039,0.625 0.118,0.726 0.118,0.153 0.309,0.23 0.57,0.23 h 0.231 v 0.174 h -2.737 v -0.174 h 0.226 c 0.152,0 0.295,-0.037 0.434,-0.113 0.097,-0.056 0.162,-0.124 0.193,-0.203 0.04,-0.103 0.061,-0.317 0.061,-0.64 v -4.125 c 0,-0.383 -0.037,-0.625 -0.114,-0.726 -0.118,-0.153 -0.309,-0.23 -0.574,-0.23 h -0.226 v -0.174 h 2.737 v 0.174 z m -4.729,6.211 v -0.174 c 0.192,0 0.348,-0.022 0.468,-0.066 0.068,-0.025 0.125,-0.069 0.171,-0.132 0.045,-0.063 0.068,-0.13 0.068,-0.202 0,-0.151 -0.069,-0.421 -0.207,-0.81 l -1.215,-3.518 -1.224,3.47 c -0.142,0.399 -0.212,0.679 -0.212,0.839 0,0.129 0.041,0.231 0.122,0.306 0.081,0.076 0.211,0.113 0.386,0.113 h 0.169 v 0.174 h -2.486 v -0.174 c 0.129,0 0.223,-0.009 0.283,-0.028 0.078,-0.025 0.157,-0.066 0.235,-0.123 0.059,-0.04 0.11,-0.091 0.151,-0.15 0.082,-0.12 0.156,-0.258 0.222,-0.415 l 0.149,-0.428 0.19,-0.537 -1.06,-3.047 -1.258,3.584 c -0.138,0.395 -0.207,0.648 -0.207,0.757 0,0.108 0.044,0.199 0.132,0.274 0.089,0.076 0.215,0.113 0.382,0.113 h 0.112 v 0.174 h -2.363 v -0.174 c 0.185,0 0.332,-0.029 0.44,-0.087 0.108,-0.058 0.194,-0.147 0.257,-0.266 0.037,-0.073 0.127,-0.307 0.268,-0.702 l 1.898,-5.302 h 0.169 l 1.445,4.083 1.456,-4.083 h 0.189 l 1.779,5.147 c 0.136,0.414 0.235,0.676 0.297,0.786 0.094,0.163 0.193,0.275 0.297,0.335 0.103,0.059 0.239,0.089 0.405,0.089 v 0.174 z m -12.098,-0.494 c 0.362,0.091 0.684,0.136 0.965,0.136 0.755,0 1.371,-0.254 1.852,-0.763 0.48,-0.508 0.72,-1.203 0.72,-2.086 0,-0.876 -0.24,-1.57 -0.72,-2.081 -0.481,-0.512 -1.085,-0.768 -1.813,-0.768 -0.27,0 -0.605,0.044 -1.004,0.132 z m 1.032,-5.891 c 1.24,0 2.164,0.332 2.769,0.998 0.54,0.596 0.811,1.339 0.811,2.227 0,0.663 -0.153,1.247 -0.455,1.752 -0.303,0.506 -0.703,0.867 -1.202,1.083 -0.497,0.217 -1.223,0.325 -2.177,0.325 h -2.6 v -0.174 h 0.24 c 0.243,0 0.424,-0.069 0.546,-0.207 0.088,-0.101 0.132,-0.351 0.132,-0.749 v -4.125 c 0,-0.361 -0.034,-0.594 -0.103,-0.697 -0.112,-0.173 -0.304,-0.259 -0.575,-0.259 h -0.24 v -0.174 z m -5.839,1.808 h 2.434 v 0.71051 h -2.434 z m -5.369,4.083 c 0.361,0.091 0.682,0.136 0.965,0.136 0.754,0 1.372,-0.254 1.852,-0.763 0.48,-0.508 0.72,-1.203 0.72,-2.086 0,-0.876 -0.24,-1.57 -0.72,-2.081 -0.48,-0.512 -1.085,-0.768 -1.813,-0.768 -0.27,0 -0.605,0.044 -1.004,0.132 z m 1.032,-5.891 c 1.24,0 2.162,0.332 2.768,0.998 0.54,0.596 0.811,1.339 0.811,2.227 0,0.663 -0.151,1.247 -0.455,1.752 -0.303,0.506 -0.703,0.867 -1.2,1.083 -0.498,0.217 -1.224,0.325 -2.178,0.325 h -2.6 v -0.174 h 0.24 c 0.242,0 0.424,-0.069 0.546,-0.207 0.088,-0.101 0.132,-0.351 0.132,-0.749 v -4.125 c 0,-0.361 -0.035,-0.594 -0.103,-0.697 -0.113,-0.173 -0.305,-0.259 -0.575,-0.259 h -0.24 v -0.174 z m -5.143,6.037 c 0.317,0 0.538,-0.024 0.664,-0.071 0.158,-0.066 0.277,-0.162 0.356,-0.287 0.08,-0.126 0.153,-0.357 0.219,-0.692 h 0.183 l -0.07,1.398 h -4.921 v -0.174 h 0.226 c 0.264,0 0.452,-0.063 0.565,-0.188 0.081,-0.095 0.122,-0.344 0.122,-0.749 v -4.149 c 0,-0.31 -0.018,-0.516 -0.055,-0.617 -0.035,-0.101 -0.103,-0.176 -0.204,-0.226 -0.135,-0.072 -0.277,-0.108 -0.428,-0.108 h -0.226 v -0.174 h 4.921 l 0.551,1.601 h -0.188 c -0.205,-0.393 -0.404,-0.686 -0.598,-0.881 -0.152,-0.147 -0.308,-0.247 -0.471,-0.296 -0.163,-0.051 -0.426,-0.076 -0.787,-0.076 h -1.082 c -0.177,0 -0.296,0.018 -0.36,0.054 -0.061,0.037 -0.105,0.085 -0.131,0.147 -0.026,0.061 -0.038,0.232 -0.038,0.515 v 2.105 h 1.405 c 0.265,0 0.463,-0.032 0.592,-0.094 0.129,-0.063 0.222,-0.15 0.278,-0.259 0.044,-0.088 0.088,-0.288 0.132,-0.599 h 0.174 v 2.223 h -0.174 c -0.019,-0.364 -0.11,-0.618 -0.273,-0.763 -0.123,-0.109 -0.366,-0.165 -0.729,-0.165 h -1.405 v 2.525 h 1.752" /><path
   d="m 457.425,701.21 h 9.186"
   style="fill:none;stroke:#008b00;stroke-width:0.85000002;stroke-linecap:butt;stroke-linejoin:miter;stroke-miterlimit:10;stroke-dasharray:4.294, 2.5718;stroke-dashoffset:0;stroke-opacity:1"
   id="path1494"
   inkscape:connector-curvature="0" /><path
   inkscape:connector-curvature="0"
   id="path1498"
   style="fill:#000000;fill-opacity:1;fill-rule:nonzero;stroke:none"
   d="m 482.736,695.594 c -0.034,-0.151 -0.093,-0.269 -0.174,-0.354 -0.063,-0.059 -0.137,-0.088 -0.222,-0.088 -0.057,0 -0.15,0.034 -0.282,0.103 -0.449,0.226 -0.904,0.339 -1.367,0.339 -0.593,0 -1.14,-0.147 -1.641,-0.44 -0.501,-0.294 -0.892,-0.707 -1.179,-1.241 -0.285,-0.534 -0.428,-1.12 -0.428,-1.757 0,-0.791 0.217,-1.479 0.649,-2.062 0.581,-0.785 1.401,-1.178 2.458,-1.178 0.587,0 1.094,0.132 1.522,0.396 0.427,0.263 0.801,0.68 1.12,1.248 l -0.146,0.094 c -0.379,-0.527 -0.728,-0.88 -1.044,-1.057 -0.318,-0.178 -0.684,-0.266 -1.098,-0.266 -0.478,0 -0.901,0.113 -1.274,0.339 -0.373,0.226 -0.651,0.551 -0.836,0.975 -0.185,0.424 -0.278,0.924 -0.278,1.502 0,0.7 0.099,1.285 0.295,1.757 0.196,0.47 0.465,0.813 0.807,1.028 0.343,0.215 0.726,0.323 1.149,0.323 0.506,0 0.94,-0.143 1.301,-0.429 0.36,-0.285 0.638,-0.753 0.833,-1.403 h 0.145 l -0.145,2.171 z m -11.166,-0.146 -0.075,-1.498 h 0.178 c 0.023,0.289 0.092,0.519 0.208,0.688 0.117,0.169 0.255,0.284 0.419,0.344 0.125,0.044 0.337,0.066 0.636,0.066 h 0.768 v -4.879 c 0,-0.358 -0.035,-0.587 -0.104,-0.688 -0.113,-0.163 -0.305,-0.244 -0.575,-0.244 h -0.226 v -0.174 h 2.707 v 0.174 h -0.219 c -0.249,0 -0.433,0.065 -0.553,0.197 -0.083,0.098 -0.127,0.343 -0.127,0.735 v 4.879 h 0.899 c 0.265,0 0.478,-0.043 0.64,-0.13 0.16,-0.086 0.29,-0.22 0.388,-0.403 0.059,-0.112 0.106,-0.301 0.141,-0.565 h 0.179 l -0.07,1.498 h -5.214" /><path
   inkscape:connector-curvature="0"
   id="path1564"
   style="fill:#000000;fill-opacity:1;fill-rule:evenodd;stroke:none;stroke-width:1.17639303"
   d="m 408.91898,587.2961 -0.0118,-0.0329 v -0.0329 l -0.0212,-0.0659 v -0.0224 l -0.0118,-0.0329 -0.0106,-0.02 -0.009,-0.0224 v -0.0235 l -0.0118,-0.02 -0.0106,-0.0223 -0.0106,-0.0106 -0.0129,-0.0223 -0.0329,-0.0329 -0.02,-0.0106 -0.009,-0.0106 -0.0235,-0.0106 -0.0223,-0.0118 -0.009,-0.009 h -0.0235 l -0.0318,-0.0129 h -0.0212 l -0.0223,-0.009 h -0.0529 l -0.0118,-0.0106 h -0.19528 c -0.13176,0 -0.25175,0 -0.25175,-0.20705 0,-0.0882 0.0541,-0.13058 0.14234,-0.13058 0.29293,0 0.60938,0.0318 0.91406,0.0318 0.3588,0 0.72936,-0.0318 1.07758,-0.0318 0.0541,0 0.19528,0 0.19528,0.21646 0,0.12117 -0.10941,0.12117 -0.26116,0.12117 -0.54467,0 -0.54467,0.0753 -0.54467,0.1741 0,0.13058 0.45762,1.89282 0.53291,2.16574 0.14234,-0.31645 0.43644,-0.69642 0.99169,-0.69642 l -0.0106,0.23998 c -0.70819,0 -0.84936,0.9023 -0.84936,0.96817 0,0.0212 0,0.0435 0.0318,0.17411 l 0.52232,2.12104 c 0.0765,0.29527 0.37174,0.59996 0.56585,0.7623 0.38115,0.33762 0.69642,0.41409 0.88347,0.41409 0.43409,0 0.69525,-0.38233 0.69525,-1.02346 0,-0.64231 -0.35998,-1.88223 -0.55408,-2.29632 -0.37057,-0.7623 -0.89289,-1.11993 -1.29521,-1.11993 l 0.0106,-0.23998 c 1.26227,0 2.6116,1.58695 2.6116,3.17744 0,1.02228 -0.60937,1.74106 -1.43638,1.74106 -0.54467,0 -1.06699,-0.39056 -1.42579,-0.81524 -0.10823,0.58584 -0.56702,0.81524 -0.96817,0.81524 -0.49997,0 -0.70701,-0.4235 -0.80583,-0.62114 -0.19646,-0.36821 -0.33762,-1.02228 -0.33762,-1.05522 0,-0.10705 0.10823,-0.10705 0.13058,-0.10705 0.1094,0 0.11881,0.009 0.18469,0.24939 0.18469,0.77289 0.4035,1.29521 0.79524,1.29521 0.1847,0 0.33763,-0.0871 0.33763,-0.50114 0,-0.2494 -0.0329,-0.37057 -0.0776,-0.55526 l -1.21757,-4.81968" /><path
   inkscape:connector-curvature="0"
   id="path1568"
   style="fill:#000000;fill-opacity:1;fill-rule:evenodd;stroke:none;stroke-width:1.17639303"
   d="m 415.15386,587.65372 0.0447,0.0435 0.0318,0.0329 0.0329,0.0329 0.0447,0.0424 0.0318,0.0329 0.0212,0.0224 0.0224,0.0212 0.0212,0.0223 0.0224,0.0224 0.0329,0.0212 0.0224,0.0212 0.02,0.0224 0.0329,0.0212 0.0329,0.0329 0.0329,0.0224 0.0659,0.0659 0.0318,0.0212 0.0435,0.0318 0.0435,0.0423 0.0447,0.0329 0.0423,0.0341 0.0435,0.0447 0.0553,0.0423 0.0541,0.0435 0.0553,0.0435 0.0518,0.0447 c 0.1647,0.1294 0.73054,0.58584 0.94935,0.79289 0.46703,0.45644 0.75995,0.84935 0.75995,0.93641 0,0.0976 -0.0953,0.0976 -0.1294,0.0976 -0.0647,0 -0.0976,-0.0223 -0.13058,-0.0753 -0.23999,-0.34821 -0.39174,-0.46938 -0.57761,-0.46938 -0.0859,0 -0.20705,0.0118 -0.43409,0.22939 -0.26234,0.25999 -0.42468,0.31528 -0.59879,0.31528 -0.61054,0 -1.01169,-0.66349 -1.01169,-0.89288 0,-0.0647 0.0753,-0.0859 0.11881,-0.0859 0.0976,0 0.10823,0.0212 0.14117,0.0976 0.10823,0.27057 0.53291,0.28351 0.66466,0.28351 0.17293,0 0.37057,-0.0435 0.47879,-0.0659 0.41292,-0.0882 0.46703,-0.0882 0.6529,-0.0882 -0.19646,-0.20587 -0.32704,-0.34821 -1.0564,-0.92347 -0.58584,-0.46938 -0.79289,-0.65407 -0.93523,-0.81641 -0.45762,-0.44586 -0.67643,-0.77407 -0.67643,-0.84936 0,-0.087 0.0988,-0.087 0.13176,-0.087 0.0765,0 0.0871,0.0106 0.11881,0.0765 0.20705,0.29293 0.44703,0.45644 0.70937,0.45644 0.0859,0 0.1941,0 0.40115,-0.19645 0.23998,-0.22705 0.39174,-0.33645 0.63172,-0.33645 0.81642,0 1.31639,0.91406 1.31639,1.17522 0,0.087 -0.0753,0.0976 -0.11764,0.0976 -0.0988,0 -0.10941,-0.0318 -0.14235,-0.11882 -0.14116,-0.38115 -0.58819,-0.56467 -0.95758,-0.56467 -0.18469,0 -0.36939,0.0423 -0.55526,0.0859 -0.34939,0.0753 -0.41527,0.0753 -0.55643,0.0753 -0.009,0 -0.11882,0 -0.17411,-0.0106" /><path
   inkscape:connector-curvature="0"
   id="path1572"
   style="fill:#000000;fill-opacity:1;fill-rule:evenodd;stroke:none;stroke-width:1.17639303"
   d="m 422.46867,586.01148 v 0.0329 h -0.0106 v 0.02 h -0.0118 v 0.0118 h -0.0118 v 0.0106 l -0.009,0.009 v 0.0129 h -0.0118 v 0.0106 l -0.0106,0.0106 h -0.0106 v 0.0118 h -0.0118 v 0.0106 h -0.0106 v 0.0106 l -0.0106,0.009 -0.009,0.0118 -0.0129,0.0106 -0.009,0.0106 -0.0106,0.0129 -0.0129,0.009 v 0.0106 h -0.0106 l -0.009,0.0118 c -1.35991,1.3705 -1.69871,3.41742 -1.69871,5.07143 0,1.89282 0.41409,3.77505 1.74224,5.13614 0.14116,0.13058 0.14116,0.15293 0.14116,0.1741 0,0.0882 -0.0435,0.10823 -0.1094,0.10823 -0.10823,0 -1.08699,-0.72701 -1.71871,-2.11045 -0.55526,-1.1858 -0.68584,-2.39514 -0.68584,-3.30802 0,-0.83876 0.11882,-2.15633 0.7176,-3.37389 0.64231,-1.33874 1.57872,-2.04575 1.68695,-2.04575 0.0659,0 0.1094,0.0329 0.1094,0.10941" /><path
   inkscape:connector-curvature="0"
   id="path1576"
   style="fill:#000000;fill-opacity:1;fill-rule:evenodd;stroke:none;stroke-width:1.17639303"
   d="m 425.71199,595.78377 v 0.0106 l -0.0106,0.0118 v 0.0106 l -0.0129,0.009 v 0.0129 l -0.009,0.02 -0.0106,0.0223 -0.0118,0.0106 v 0.0106 l -0.0106,0.0118 -0.0106,0.02 v 0.0129 l -0.0129,0.0106 h -0.009 l -0.0106,0.0106 v 0.0118 h -0.009 l -0.0129,0.0106 h -0.0106 l -0.009,0.0106 h -0.0118 l -0.0118,0.0118 h -0.0647 l -0.0224,0.0106 h -1.94575 v -0.3388 h 0.25881 c 0.83759,0 0.84935,-0.11882 0.84935,-0.51056 v -5.42082 c 0,-0.29292 0,-0.80465 -1.10816,-0.80465 v -0.33763 c 0.37997,0.0118 0.91288,0.0329 1.26109,0.0329 0.3588,0 0.89171,-0.0212 1.27168,-0.0329 v 0.33763 c -1.11992,0 -1.11992,0.51173 -1.11992,0.80465 v 5.8455 h 0.0118 l 2.61042,-6.74897 c 0.0553,-0.14117 0.11058,-0.23881 0.21998,-0.23881 0.11764,0 0.15058,0.0871 0.19411,0.20587 l 2.66688,6.86779 h 0.0106 v -6.2243 c 0,-0.39292 -0.0212,-0.51173 -0.84818,-0.51173 h -0.26234 v -0.33763 c 0.40468,0.0329 1.13405,0.0329 1.55755,0.0329 0.4235,0 1.15286,0 1.55401,-0.0329 v 0.33763 h -0.25998 c -0.83759,0 -0.86112,0.11881 -0.86112,0.51173 v 5.71374 c 0,0.39174 0.0235,0.51056 0.86112,0.51056 h 0.25998 v 0.3388 h -1.83752 c -0.28234,0 -0.28234,-0.0106 -0.35998,-0.20705 l -2.37161,-6.10548 -2.35043,6.07254" /><path
   inkscape:connector-curvature="0"
   id="path1580"
   style="fill:#000000;fill-opacity:1;fill-rule:evenodd;stroke:none;stroke-width:1.17639303"
   d="m 434.24437,591.11467 0.0106,0.22939 c 0.0647,1.62107 0.97875,1.89282 1.3505,1.89282 1.10816,0 1.21874,-1.46931 1.21874,-1.89282 h -2.56924 l -0.0106,-0.22939 h 3.0245 c 0.23881,0 0.27175,0 0.27175,0.22939 0,1.07758 -0.58819,2.13163 -1.93516,2.13163 -1.26345,0 -2.26456,-1.11993 -2.26456,-2.47984 0,-1.44814 1.14228,-2.50336 2.39278,-2.50336 1.31756,0 1.80694,1.20815 1.80694,1.41285 0,0.11058 -0.0847,0.13175 -0.14117,0.13175 -0.0988,0 -0.11763,-0.0659 -0.14116,-0.15175 -0.38115,-1.12111 -1.34933,-1.12111 -1.45755,-1.12111 -0.54467,0 -0.97994,0.32587 -1.23051,0.72937 -0.32586,0.52232 -0.32586,1.23992 -0.32586,1.62107" /><path
   inkscape:connector-curvature="0"
   id="path1584"
   style="fill:#000000;fill-opacity:1;fill-rule:evenodd;stroke:none;stroke-width:1.17639303"
   d="m 444.5931,594.95559 0.0118,0.0447 0.0106,0.0318 0.0224,0.0329 0.0212,0.0318 0.0118,0.0447 0.02,0.0329 0.0235,0.0318 0.02,0.0318 0.0447,0.067 0.0329,0.0212 0.0212,0.0341 0.0329,0.0318 0.0318,0.0212 0.0341,0.0329 0.0647,0.0447 0.0329,0.02 0.0435,0.0223 0.0423,0.0212 0.0447,0.0223 0.0435,0.0106 0.0423,0.0224 0.0565,0.009 0.0423,0.0129 0.0541,0.009 0.0541,0.0118 0.0671,0.0118 0.0518,0.0106 h 0.0659 l 0.067,0.009 h 0.0635 v 0.3388 c -0.33762,-0.0224 -0.76112,-0.0329 -1.04346,-0.0329 -0.32703,0 -0.95758,0.0223 -1.23991,0.0329 v -0.3388 c 0.56466,-0.009 0.79288,-0.29293 0.79288,-0.5435 0,-0.087 -0.0329,-0.15293 -0.0541,-0.21881 l -1.99046,-5.22201 -2.06927,5.47376 c -0.0659,0.15176 -0.0659,0.17293 -0.0659,0.19528 0,0.31528 0.61996,0.31528 0.89288,0.31528 v 0.3388 c -0.39056,-0.0329 -1.14345,-0.0329 -1.5446,-0.0329 -0.52232,0 -0.99052,0.0223 -1.38226,0.0329 v -0.3388 c 0.70583,0 0.91288,0 1.06699,-0.41292 l 2.51395,-6.66074 c 0.0753,-0.20704 0.13058,-0.23998 0.27174,-0.23998 0.1847,0 0.19529,0.0553 0.25058,0.20704 l 2.42572,6.37723" /><path
   inkscape:connector-curvature="0"
   id="path1588"
   style="fill:#000000;fill-opacity:1;fill-rule:evenodd;stroke:none;stroke-width:1.17639303"
   d="m 450.90562,596.33903 v 0.0223 h 0.0118 v 0.02 l 0.0106,0.0106 v 0.0329 l 0.009,0.0129 v 0.02 h 0.0129 v 0.0553 h 0.0106 v 0.0223 c 0,0.11881 -0.0988,0.20469 -0.21763,0.20469 -0.0765,0 -0.15293,-0.02 -0.18587,-0.0859 l -3.76563,-10.33814 c -0.0529,-0.14352 -0.0529,-0.18587 -0.0529,-0.19646 0,-0.12117 0.0976,-0.21763 0.21646,-0.21763 0.14116,0 0.1741,0.0753 0.2388,0.26116 l 3.71152,10.1758" /><path
   inkscape:connector-curvature="0"
   id="path1592"
   style="fill:#000000;fill-opacity:1;fill-rule:evenodd;stroke:none;stroke-width:1.17639303"
   d="m 452.83256,590.9735 v 0.23999 l 0.0106,0.0753 v 0.0765 l 0.0106,0.0753 0.0106,0.0659 v 0.0776 l 0.0118,0.0635 0.02,0.13058 0.0235,0.0659 0.0224,0.11882 0.0318,0.11058 0.0435,0.10823 0.0329,0.0976 0.0871,0.17293 0.0541,0.0882 0.0423,0.0753 0.0565,0.0659 0.0541,0.0659 0.0541,0.0647 0.0647,0.0541 0.0541,0.0553 0.0659,0.0435 0.0553,0.0424 0.0659,0.0329 0.0529,0.0329 0.0647,0.0329 0.0671,0.0223 0.0529,0.02 0.0647,0.0118 0.0553,0.0212 0.0659,0.0118 h 0.0541 l 0.0553,0.0106 h 0.0529 c 0.0988,0 0.78465,-0.0106 1.1658,-0.4035 -0.44585,-0.0306 -0.51291,-0.35762 -0.51291,-0.49997 0,-0.28233 0.19646,-0.49996 0.49997,-0.49996 0.28351,0 0.50232,0.18469 0.50232,0.51055 0,0.74113 -0.827,1.16463 -1.66577,1.16463 -1.34932,0 -2.34926,-1.17522 -2.34926,-2.52572 0,-1.37991 1.07758,-2.45748 2.32573,-2.45748 1.45873,0 1.80812,1.30462 1.80812,1.41285 0,0.11058 -0.10823,0.11058 -0.14235,0.11058 -0.0976,0 -0.11764,-0.0447 -0.14116,-0.11058 -0.3141,-1.0117 -1.02229,-1.14111 -1.42579,-1.14111 -0.56467,0 -1.52225,0.46821 -1.52225,2.20927" /><path
   inkscape:connector-curvature="0"
   id="path1596"
   style="fill:#000000;fill-opacity:1;fill-rule:evenodd;stroke:none;stroke-width:1.17639303"
   d="m 459.51447,591.32171 v 0.16352 l -0.0106,0.0859 v 0.0882 l -0.0106,0.18469 -0.0118,0.19646 -0.0212,0.1941 -0.0224,0.20823 -0.0223,0.21645 -0.0423,0.21999 -0.0435,0.21645 -0.0423,0.22705 -0.13175,0.45879 -0.0753,0.22822 -0.0882,0.23999 -0.0423,0.10822 -0.0447,0.12 -0.0541,0.11881 -0.0541,0.10823 c -0.6529,1.33874 -1.57872,2.03516 -1.69871,2.03516 -0.0553,0 -0.10823,-0.0424 -0.10823,-0.10823 0,-0.0212 0,-0.0435 0.20704,-0.23998 1.06582,-1.07523 1.68577,-2.79629 1.68577,-5.07026 0,-1.85046 -0.40115,-3.75504 -1.75047,-5.12672 -0.14234,-0.13058 -0.14234,-0.15058 -0.14234,-0.18351 0,-0.0659 0.0529,-0.10941 0.10823,-0.10941 0.11999,0 1.08816,0.73995 1.73047,2.12221 0.55526,1.18698 0.68584,2.39396 0.68584,3.29743" /><path
   inkscape:connector-curvature="0"
   id="path1672"
   style="fill:#000000;fill-opacity:1;fill-rule:evenodd;stroke:none;stroke-width:1.22667623"
   d="m 324.10675,607.40625 h -0.0491 v -0.0135 h -0.0233 v -0.0123 h -0.0123 v -0.0123 h -0.011 v -0.011 h -0.0123 v -0.0258 h -0.0123 v -0.0356 l -0.0123,-0.011 v -0.0368 c 0,-0.18033 0.10917,-1.31377 0.13248,-1.51863 0.0123,-0.0957 0.0724,-0.16805 0.22938,-0.16805 0.14475,0 0.14475,0.10917 0.14475,0.28827 0,0.58021 0.0846,0.60352 0.20486,0.60352 l 0.24043,-0.0368 2.84343,-0.72251 c -0.44651,-0.2159 -0.77158,-0.56673 -0.77158,-1.10769 l 0.26619,0.0123 c 0,0.78262 0.98625,0.9519 1.05862,0.9519 0.0724,0 0.14598,-0.0258 0.20486,-0.0368 l 2.34908,-0.6023 c 0.2159,-0.0601 0.2392,-0.0601 0.44406,-0.24043 0.66363,-0.53115 0.85745,-1.01201 0.85745,-1.35057 0,-0.6023 -0.66241,-0.76913 -1.13345,-0.76913 -0.6023,0 -2.07063,0.38518 -2.62386,0.66241 -0.7127,0.37291 -1.15676,0.90283 -1.15676,1.38492 l -0.26619,-0.0123 c 0,-1.39596 1.7701,-2.89128 3.51688,-2.89128 1.13222,0 1.92711,0.66241 1.92711,1.60204 0,0.22816 -0.0466,0.83046 -0.90283,1.5542 0.50539,0.0969 0.90283,0.51766 0.90283,1.09665 0,0.42075 -0.27723,0.69675 -0.6624,0.89179 -0.43302,0.19259 -1.16903,0.34838 -1.19111,0.34838 -0.12021,0 -0.12021,-0.10795 -0.12021,-0.14352 0,-0.1104 0.0466,-0.13371 0.21589,-0.16928 0.78262,-0.20608 1.4941,-0.40971 1.4941,-0.90406 0,-0.3263 -0.31281,-0.36187 -0.55446,-0.36187 -0.2895,0 -0.37414,0.0245 -0.57899,0.0724 l -6.93808,1.72471" /><path
   inkscape:connector-curvature="0"
   id="path1676"
   style="fill:#000000;fill-opacity:1;fill-rule:evenodd;stroke:none;stroke-width:1.22667623"
   d="m 327.82848,613.6807 v 0.15578 l -0.011,0.0258 v 0.0466 l -0.0123,0.0245 v 0.0233 l -0.0123,0.0258 v 0.0233 l -0.011,0.0233 -0.0123,0.0258 -0.0135,0.0233 -0.01,0.0245 -0.0135,0.011 -0.0123,0.0258 -0.0233,0.0233 h -0.0123 v 0.0123 l -0.0233,0.0233 h -0.0123 l -0.0123,0.0123 h -0.0123 l -0.0123,0.0123 -0.0123,0.011 h -0.0233 l -0.0258,0.0123 h -0.01 l -0.0123,0.0123 h -0.10917 c -0.28827,0 -0.28827,-0.25269 -0.28827,-0.45755 v -2.7453 c 0,-1.80689 1.98599,-3.1452 3.40771,-3.1452 1.05984,0 1.90257,0.71025 1.90257,1.80812 l -0.26373,0.0123 c 0,-0.59249 -0.43425,-1.07334 -1.30151,-1.07334 -0.36187,0 -1.33585,0.14475 -2.04732,0.56672 -0.83169,0.50662 -1.00097,1.22913 -1.00097,1.62657 0,1.01079 0.79611,1.10769 1.16902,1.10769 0.56673,0 1.54194,-0.24165 2.15773,-0.65136 0.71024,-0.46859 1.02305,-1.10769 1.02305,-1.57628 l 0.26373,-0.0123 c 0,1.40823 -1.45606,3.01027 -3.29853,3.01027 -0.20486,0 -0.78385,0 -1.315,-0.37414 v 1.32604" /><path
   inkscape:connector-curvature="0"
   id="path1680"
   style="fill:#000000;fill-opacity:1;fill-rule:evenodd;stroke:none;stroke-width:1.22667623"
   d="m 323.75837,620.01525 -0.0135,0.0135 h -0.0221 l -0.0147,0.0123 h -0.0221 l -0.0123,0.01 h -0.0233 l -0.0135,0.0135 h -0.0356 l -0.0123,0.0123 h -0.0491 c -0.13125,0 -0.22816,-0.1104 -0.22816,-0.24043 0,-0.0859 0.0233,-0.16928 0.0969,-0.20486 l 11.44121,-4.16824 c 0.15946,-0.0613 0.20608,-0.0613 0.21834,-0.0613 0.13249,0 0.24043,0.1104 0.24043,0.24166 0,0.15579 -0.0834,0.19136 -0.28827,0.26496 l -11.26211,4.10691" /><path
   inkscape:connector-curvature="0"
   id="path1684"
   style="fill:#000000;fill-opacity:1;fill-rule:evenodd;stroke:none;stroke-width:1.22667623"
   d="m 324.10675,626.94229 h -0.0233 l -0.0135,-0.0123 h -0.0221 v -0.0135 h -0.0258 v -0.01 l -0.011,-0.0123 -0.0123,-0.0135 v -0.0123 l -0.0123,-0.011 v -0.0356 h -0.0123 v -0.0356 c 0,-0.18155 0.10917,-1.32604 0.13248,-1.5309 0.0123,-0.0969 0.0724,-0.16805 0.22938,-0.16805 0.14475,0 0.14475,0.10795 0.14475,0.28949 0,0.57654 0.0846,0.6023 0.20486,0.6023 l 0.24043,-0.0356 2.84343,-0.72374 c -0.44651,-0.21712 -0.77158,-0.55446 -0.77158,-1.09665 l 0.26619,0.0123 c 0,0.76912 0.98625,0.93963 1.05862,0.93963 0.0724,0 0.14598,-0.0245 0.20486,-0.0368 l 2.34908,-0.59003 c 0.2159,-0.0613 0.2392,-0.0613 0.44406,-0.24043 0.66363,-0.53115 0.85745,-1.02427 0.85745,-1.36038 0,-0.6023 -0.66241,-0.77158 -1.13345,-0.77158 -0.6023,0 -2.07063,0.38517 -2.62386,0.66118 -0.7127,0.37413 -1.15676,0.91632 -1.15676,1.39841 l -0.26619,-0.0123 c 0,-1.40945 1.7701,-2.89005 3.51688,-2.89005 1.13222,0 1.92711,0.65014 1.92711,1.58855 0,0.24043 -0.0466,0.84272 -0.90283,1.56524 0.50539,0.0981 0.90283,0.51765 0.90283,1.08438 0,0.4232 -0.27723,0.70043 -0.6624,0.89179 -0.43302,0.20608 -1.16903,0.36187 -1.19111,0.36187 -0.12021,0 -0.12021,-0.10795 -0.12021,-0.14352 0,-0.12144 0.0466,-0.13371 0.21589,-0.16928 0.78262,-0.20486 1.4941,-0.42198 1.4941,-0.9151 0,-0.3263 -0.31281,-0.36187 -0.55446,-0.36187 -0.2895,0 -0.37414,0.0233 -0.57899,0.0724 l -6.93808,1.73452" /><path
   inkscape:connector-curvature="0"
   id="path1688"
   style="fill:#000000;fill-opacity:1;fill-rule:evenodd;stroke:none;stroke-width:1.22667623"
   d="m 333.76682,627.54582 0.038,-0.0135 0.0356,-0.0123 0.0356,-0.01 h 0.0368 l 0.0233,-0.0135 0.0356,-0.0123 h 0.0258 l 0.0233,-0.0123 0.0245,-0.011 0.0245,-0.0135 h 0.0221 l 0.0123,-0.0123 0.0233,-0.011 0.0135,-0.0123 0.0123,-0.0233 0.0123,-0.0135 0.011,-0.011 0.0123,-0.0245 0.0123,-0.0123 0.0123,-0.0233 0.0123,-0.0245 v -0.0233 l 0.0123,-0.0258 v -0.0233 l 0.011,-0.0356 v -0.0491 l 0.0123,-0.0233 v -0.20486 c 0,-0.14597 0,-0.276 0.22816,-0.276 0.0969,0 0.14598,0.0589 0.14598,0.15579 0,0.32507 -0.0356,0.67344 -0.0356,1.01201 0,0.38517 0.0356,0.79488 0.0356,1.18006 0,0.0601 0,0.21712 -0.24043,0.21712 -0.13371,0 -0.13371,-0.12144 -0.13371,-0.2895 0,-0.60229 -0.0846,-0.60229 -0.19136,-0.60229 -0.14475,0 -2.09762,0.50539 -2.39815,0.59003 0.3496,0.15579 0.77035,0.49435 0.77035,1.10891 l -0.26373,-0.0123 c 0,-0.79489 -0.99975,-0.9519 -1.07212,-0.9519 -0.0258,0 -0.0491,0 -0.19259,0.0356 l -2.35031,0.59003 c -0.32507,0.0846 -0.66118,0.40971 -0.84273,0.62561 -0.37413,0.4232 -0.45632,0.7728 -0.45632,0.96416 0,0.48209 0.42075,0.77158 1.131,0.77158 0.71147,0 2.08289,-0.39744 2.54167,-0.61334 0.84273,-0.40971 1.2414,-0.97643 1.2414,-1.42171 l 0.26373,0.0123 c 0,1.38492 -1.75783,2.89128 -3.51688,2.89128 -1.13345,0 -1.92711,-0.68694 -1.92711,-1.60204 0,-0.59126 0.43302,-1.16902 0.90406,-1.56524 -0.65136,-0.12144 -0.90406,-0.6391 -0.90406,-1.08561 0,-0.55568 0.46859,-0.78262 0.68694,-0.8783 0.40971,-0.21835 1.13222,-0.37536 1.1678,-0.37536 0.12144,0 0.12144,0.12144 0.12144,0.14475 0,0.12021 -0.0135,0.13371 -0.27723,0.19259 -0.85622,0.20485 -1.43276,0.44651 -1.43276,0.88075 0,0.20363 0.0944,0.37291 0.55323,0.37291 0.27723,0 0.40971,-0.0368 0.61334,-0.0846 l 5.33604,-1.33585" /><path
   inkscape:connector-curvature="0"
   id="path1692"
   style="fill:#000000;fill-opacity:1;fill-rule:evenodd;stroke:none;stroke-width:1.22667623"
   d="m 333.36938,634.44832 -0.0466,0.0356 -0.038,0.0478 -0.0368,0.0368 -0.0466,0.0356 -0.0368,0.0491 -0.14352,0.14352 -0.0245,0.0356 -0.0245,0.0368 -0.0368,0.0245 -0.0233,0.0368 -0.0711,0.0711 -0.0258,0.0491 -0.0846,0.0846 -0.0356,0.0454 -0.0356,0.0491 -0.0491,0.0613 -0.0478,0.0466 -0.0466,0.0613 -0.0478,0.0601 -0.0491,0.0724 c -0.14474,0.18032 -0.65136,0.80593 -0.87952,1.04758 -0.50539,0.51889 -0.94086,0.83169 -1.03532,0.83169 -0.10917,0 -0.10917,-0.10918 -0.10917,-0.14598 0,-0.0711 0.0245,-0.0944 0.0834,-0.14352 0.38641,-0.25269 0.51766,-0.43301 0.51766,-0.63787 0,-0.0969 -0.011,-0.22816 -0.25147,-0.46982 -0.28949,-0.28949 -0.3496,-0.46981 -0.3496,-0.67589 0,-0.66118 0.73355,-1.11873 0.98747,-1.11873 0.0724,0 0.0957,0.0834 0.0957,0.14474 0,0.0957 -0.0233,0.12022 -0.10794,0.14353 -0.30054,0.1337 -0.31281,0.60229 -0.31281,0.73477 0,0.19382 0.0491,0.41094 0.0711,0.53116 0.0969,0.46859 0.0969,0.51765 0.0969,0.73355 0.22939,-0.2159 0.38517,-0.37291 1.02305,-1.16902 0.51888,-0.66118 0.72374,-0.87831 0.90528,-1.04636 0.49313,-0.49435 0.85377,-0.74705 0.93841,-0.74705 0.0969,0 0.0969,0.10795 0.0969,0.14475 0,0.0834 -0.0123,0.10795 -0.0846,0.14352 -0.32507,0.22939 -0.50417,0.48331 -0.50417,0.77158 0,0.10795 0,0.22816 0.21467,0.45633 0.25392,0.25392 0.37414,0.4232 0.37414,0.70043 0,0.89179 -1.01201,1.45729 -1.30151,1.45729 -0.0944,0 -0.10794,-0.0969 -0.10794,-0.14475 0,-0.0957 0.0356,-0.12144 0.13248,-0.14475 0.42075,-0.16928 0.62683,-0.66363 0.62683,-1.07088 0,-0.19505 -0.0491,-0.39867 -0.0944,-0.6158 -0.0859,-0.3864 -0.0859,-0.45755 -0.0859,-0.60107 0,-0.0135 0,-0.14597 0.011,-0.19259" /><path
   inkscape:connector-curvature="0"
   id="path1696"
   style="fill:#000000;fill-opacity:1;fill-rule:evenodd;stroke:none;stroke-width:1.22667623"
   d="m 335.18977,642.52844 h -0.0491 v -0.0123 h -0.011 l -0.0123,-0.011 -0.0123,-0.0123 h -0.0135 v -0.0135 h -0.01 l -0.0135,-0.01 h -0.011 v -0.0123 l -0.011,-0.0135 -0.0135,-0.011 -0.0123,-0.0123 h -0.01 v -0.0123 h -0.0135 v -0.0123 h -0.0123 l -0.0135,-0.011 v -0.0135 h -0.01 l -0.0135,-0.0123 -0.0123,-0.011 v -0.0123 h -0.011 c -1.51862,-1.50513 -3.78184,-1.89153 -5.61327,-1.89153 -2.09639,0 -4.17928,0.45878 -5.68564,1.9406 -0.14475,0.14352 -0.16928,0.14352 -0.19259,0.14352 -0.0969,0 -0.12144,-0.0356 -0.12144,-0.10795 0,-0.12021 0.80838,-1.20459 2.33804,-1.91484 1.31255,-0.61456 2.64963,-0.75931 3.66163,-0.75931 0.92614,0 2.38466,0.13125 3.73278,0.79489 1.48305,0.72373 2.26567,1.75905 2.26567,1.87926 0,0.0724 -0.0368,0.10795 -0.12021,0.10795" /><path
   inkscape:connector-curvature="0"
   id="path1700"
   style="fill:#000000;fill-opacity:1;fill-rule:evenodd;stroke:none;stroke-width:1.22667623"
   d="m 328.17931,644.55368 h 3.21635 c 0.54096,0 0.54096,-0.13248 0.54096,-0.93963 h 0.37414 c -0.0135,0.42198 -0.0356,1.03531 -0.0356,1.36038 0,0.31281 0.0221,0.93964 0.0356,1.34935 h -0.37414 c 0,-0.80716 0,-0.93964 -0.54096,-0.93964 h -2.20434 c -1.25244,0 -1.92711,0.85622 -1.92711,1.61431 0,0.75931 0.64891,0.89179 1.33585,0.89179 h 2.7956 c 0.54096,0 0.54096,-0.13248 0.54096,-0.93963 h 0.37414 c -0.0135,0.42198 -0.0356,1.03531 -0.0356,1.36038 0,0.31281 0.0221,0.94086 0.0356,1.33708 h -0.37414 c 0,-0.79366 0,-0.92737 -0.54096,-0.92737 h -2.20434 c -1.25244,0 -1.92711,0.85622 -1.92711,1.61431 0,0.75931 0.64891,0.89057 1.33585,0.89057 h 2.7956 c 0.54096,0 0.54096,-0.13126 0.54096,-0.93841 h 0.37414 c -0.0135,0.42075 -0.0356,1.03531 -0.0356,1.36161 0,0.31157 0.0221,0.93963 0.0356,1.34689 h -0.37414 c 0,-0.62561 0,-0.92737 -0.36064,-0.93718 H 329.287 c -1.03531,0 -1.41068,0 -1.84247,-0.37414 -0.20608,-0.16928 -0.44651,-0.56672 -0.44651,-1.26347 0,-1.0022 0.72251,-1.5309 1.18129,-1.73575 -1.04758,-0.16928 -1.18129,-1.06108 -1.18129,-1.60204 0,-0.86849 0.51766,-1.43398 1.26593,-1.77132 h -1.26593 l 0.13371,-1.69772 h 0.37291 c 0,0.84273 0.0834,0.93963 0.67467,0.93963" /><path
   inkscape:connector-curvature="0"
   id="path1704"
   style="fill:#000000;fill-opacity:1;fill-rule:evenodd;stroke:none;stroke-width:1.22667623"
   d="m 327.78187,654.95958 h -3.8076 l 0.13248,-1.7333 h 0.37413 c 0,0.84396 0.0846,0.93841 0.67467,0.93841 h 7.15521 v 0.30299 c -0.0123,0.01 -0.18155,0.10672 -0.74705,0.43302 0.276,0.18032 0.8783,0.67467 0.8783,1.56524 l -0.26373,-0.0478 c 0,-0.54097 -0.2895,-0.97644 -0.73601,-1.26348 -0.25147,-0.15947 -0.28704,-0.15947 -0.50539,-0.15947 h -2.46807 c -0.22939,0 -0.24043,0 -0.43425,0.13371 -0.67467,0.45878 -0.77035,1.11995 -0.77035,1.40945 0,0.54342 0.3128,0.97643 0.77035,1.26593 0.49313,0.3128 1.18007,0.34838 1.67442,0.34838 0.43424,0 1.15675,-0.0245 1.69772,-0.37414 0.37413,-0.25392 0.77158,-0.70902 0.77158,-1.36038 l 0.26373,0.0478 c 0,1.43275 -1.18006,2.67415 -2.72199,2.67415 -1.52967,0 -2.722,-1.16902 -2.722,-2.54045 0,-0.94086 0.56673,-1.45851 0.78385,-1.64006" /><path
   inkscape:connector-curvature="0"
   id="path1708"
   style="fill:#000000;fill-opacity:1;fill-rule:evenodd;stroke:none;stroke-width:1.22667623"
   d="m 323.75837,664.83677 h -0.0135 v 0.0123 h -0.0221 l -0.0147,0.0135 h -0.0344 l -0.0135,0.01 h -0.0233 l -0.0123,0.0135 h -0.0356 l -0.0135,0.0123 h -0.0356 c -0.13125,0 -0.22816,-0.10918 -0.22816,-0.24043 0,-0.0846 0.0233,-0.17051 0.0969,-0.20608 l 11.44121,-4.16702 c 0.15946,-0.0613 0.20608,-0.0613 0.21834,-0.0613 0.13249,0 0.24043,0.10917 0.24043,0.24165 0,0.15579 -0.0834,0.19136 -0.28827,0.26496 l -11.26211,4.10691" /><path
   inkscape:connector-curvature="0"
   id="path1712"
   style="fill:#000000;fill-opacity:1;fill-rule:evenodd;stroke:none;stroke-width:1.22667623"
   d="m 335.18977,669.53494 h -0.0491 v -0.0123 h -0.011 l -0.0123,-0.011 -0.0123,-0.0123 h -0.0135 v -0.0135 h -0.01 v -0.01 h -0.0135 l -0.011,-0.0135 -0.011,-0.0123 -0.0135,-0.011 -0.0123,-0.0123 h -0.01 v -0.0123 h -0.0135 v -0.0135 l -0.0123,-0.01 h -0.0135 v -0.0135 l -0.01,-0.0123 h -0.0135 l -0.0123,-0.011 v -0.0123 l -0.011,-0.0123 c -1.51862,-1.49409 -3.78184,-1.87804 -5.61327,-1.87804 -2.09639,0 -4.17928,0.45755 -5.68564,1.92588 -0.14475,0.15701 -0.16928,0.15701 -0.19259,0.15701 -0.0969,0 -0.12144,-0.0491 -0.12144,-0.12021 0,-0.12021 0.80838,-1.19233 2.33804,-1.90257 1.31255,-0.61457 2.64963,-0.76054 3.66163,-0.76054 0.92614,0 2.38466,0.1337 3.73278,0.79611 1.48305,0.72374 2.26567,1.74679 2.26567,1.867 0,0.0711 -0.0368,0.12021 -0.12021,0.12021" /><path
   inkscape:connector-curvature="0"
   id="path1716"
   style="fill:#000000;fill-opacity:1;fill-rule:evenodd;stroke:none;stroke-width:1.22667623"
   d="m 324.37293,673.12543 -0.0123,-0.0135 h -0.0123 l -0.0123,-0.0123 h -0.0123 l -0.011,-0.01 -0.0245,-0.0135 h -0.0245 l -0.011,-0.0123 -0.0123,-0.0123 h -0.0135 l -0.0221,-0.011 -0.0491,-0.0478 v -0.0135 l -0.0123,-0.011 v -0.0123 l -0.011,-0.0123 v -0.0123 l -0.0135,-0.011 v -0.0724 l -0.0123,-0.0123 v -2.16876 h 0.37413 v 0.28949 c 0,0.92737 0.13371,0.9519 0.56673,0.9519 h 5.99722 c 0.32629,0 0.89179,0 0.89179,-1.24139 h 0.37414 c -0.0135,0.42075 -0.0356,1.012 -0.0356,1.41067 0,0.39622 0.0221,0.98625 0.0356,1.39596 h -0.37414 c 0,-1.2279 -0.5655,-1.2279 -0.89179,-1.2279 h -6.46827 v 0.011 l 7.46801,2.89005 c 0.15579,0.0613 0.26619,0.12144 0.26619,0.24165 0,0.13371 -0.0969,0.16928 -0.22939,0.21713 l -7.60049,2.95138 v 0.0123 h 6.89024 c 0.43302,0 0.5655,-0.0245 0.5655,-0.95067 v -0.28949 h 0.37414 c -0.0356,0.44528 -0.0356,1.26347 -0.0356,1.73329 0,0.46982 0,1.2647 0.0356,1.70999 h -0.37414 v -0.28827 c 0,-0.91633 -0.13248,-0.93964 -0.5655,-0.93964 h -6.32351 c -0.43302,0 -0.56673,0.0233 -0.56673,0.93964 v 0.28827 h -0.37413 v -2.02402 c 0,-0.31158 0.0123,-0.31158 0.22938,-0.39744 l 6.75776,-2.62509 -6.72096,-2.60055" /><path
   inkscape:connector-curvature="0"
   id="path1720"
   style="fill:#000000;fill-opacity:1;fill-rule:evenodd;stroke:none;stroke-width:1.22667623"
   d="m 329.5397,682.56715 -0.25393,0.0135 c -1.7934,0.0711 -2.09639,1.07088 -2.09639,1.48182 0,1.24017 1.6278,1.36038 2.09639,1.36038 v -2.8422 l 0.25393,-0.0135 v 3.33779 c 0,0.26619 0,0.30176 -0.25393,0.30176 -1.1911,0 -2.36012,-0.63787 -2.36012,-2.14423 0,-1.38492 1.24017,-2.49383 2.7453,-2.49383 1.60449,0 2.77106,1.25243 2.77106,2.63858 0,1.46956 -1.33585,1.99948 -1.56646,1.99948 -0.12022,0 -0.14353,-0.0846 -0.14353,-0.15701 0,-0.10918 0.0711,-0.12022 0.16806,-0.15824 1.2414,-0.40726 1.2414,-1.49164 1.2414,-1.61186 0,-0.6023 -0.36187,-1.08438 -0.80716,-1.35057 -0.57899,-0.36187 -1.37387,-0.36187 -1.79462,-0.36187" /><path
   inkscape:connector-curvature="0"
   id="path1724"
   style="fill:#000000;fill-opacity:1;fill-rule:evenodd;stroke:none;stroke-width:1.22667623"
   d="m 325.28804,694.01204 -0.0478,0.0258 -0.0368,0.01 -0.0356,0.0135 -0.0356,0.0233 -0.0491,0.0245 -0.0356,0.0233 -0.0368,0.0123 -0.0356,0.0245 -0.038,0.0356 -0.0356,0.0245 -0.0589,0.0601 -0.0368,0.0245 -0.0258,0.0356 -0.0356,0.0368 -0.0233,0.0356 -0.0245,0.0491 -0.0233,0.0356 -0.0245,0.0478 -0.0245,0.0368 -0.0233,0.0478 -0.0123,0.0478 -0.0233,0.0601 -0.0135,0.0491 -0.0123,0.0589 -0.01,0.0613 -0.0135,0.0601 -0.0123,0.0613 -0.011,0.0711 v 0.0724 l -0.0123,0.0712 v 0.0724 h -0.37413 c 0.0258,-0.37169 0.0356,-0.85377 0.0356,-1.1678 0,-0.36064 -0.0233,-1.05985 -0.0356,-1.36284 h 0.37413 c 0.0123,0.61579 0.32507,0.86849 0.6023,0.86849 0.0957,0 0.16928,-0.0356 0.24166,-0.0601 l 5.78132,-2.19207 -6.05855,-2.28775 c -0.16928,-0.0724 -0.19259,-0.0724 -0.21835,-0.0724 -0.34838,0 -0.34838,0.68694 -0.34838,0.9752 h -0.37413 c 0.0356,-0.42197 0.0356,-1.25243 0.0356,-1.71121 0,-0.57654 -0.0233,-1.09665 -0.0356,-1.52966 h 0.37413 c 0,0.78384 0,1.012 0.45633,1.18128 l 7.37355,2.78333 c 0.22816,0.0822 0.26373,0.14352 0.26373,0.29931 0,0.20608 -0.0589,0.22939 -0.22816,0.2895 l -7.05829,2.67415" /><path
   inkscape:connector-curvature="0"
   id="path1728"
   style="fill:#000000;fill-opacity:1;fill-rule:evenodd;stroke:none;stroke-width:1.22667623"
   d="m 323.75837,700.99674 -0.0135,0.0135 h -0.0221 l -0.0147,0.011 h -0.0221 l -0.0123,0.0123 h -0.0233 l -0.0135,0.0135 h -0.0356 l -0.0123,0.011 h -0.0491 c -0.13125,0 -0.22816,-0.10917 -0.22816,-0.24043 0,-0.0846 0.0233,-0.16928 0.0969,-0.20485 l 11.44121,-4.16702 c 0.15946,-0.0491 0.20608,-0.0491 0.21834,-0.0491 0.13249,0 0.24043,0.10795 0.24043,0.22816 0,0.15579 -0.0834,0.19259 -0.28827,0.26496 l -11.26211,4.10692" /><path
   inkscape:connector-curvature="0"
   id="path1732"
   style="fill:#000000;fill-opacity:1;fill-rule:evenodd;stroke:none;stroke-width:1.22667623"
   d="m 329.69671,703.12993 h -0.0981 l -0.0834,0.0135 h -0.16805 l -0.0846,0.01 h -0.0834 l -0.0724,0.0123 -0.0846,0.0135 -0.0711,0.01 -0.0748,0.0135 -0.0724,0.0123 -0.0712,0.011 -0.13371,0.038 -0.24042,0.0711 -0.10795,0.0491 -0.0957,0.0466 -0.0957,0.0491 -0.0981,0.0478 -0.0846,0.0589 -0.0711,0.0613 -0.0724,0.0589 -0.0724,0.0626 -0.0601,0.0589 -0.0601,0.0736 -0.0478,0.0601 -0.0478,0.0711 -0.0368,0.0613 -0.0724,0.14352 -0.0245,0.0613 -0.0233,0.0724 -0.0135,0.0589 -0.0233,0.0736 -0.0123,0.0601 v 0.0711 l -0.0123,0.0613 v 0.0589 c 0,0.1104 0.0123,0.86849 0.44651,1.2782 0.0356,-0.48209 0.39622,-0.55446 0.55446,-0.55446 0.3128,0 0.55323,0.2159 0.55323,0.54219 0,0.3128 -0.20363,0.55446 -0.5655,0.55446 -0.81941,0 -1.28923,-0.91633 -1.28923,-1.83143 0,-1.50636 1.3015,-2.60055 2.79437,-2.60055 1.52966,0 2.72199,1.17883 2.72199,2.57479 0,1.60327 -1.44625,1.98967 -1.56646,1.98967 -0.12022,0 -0.12022,-0.12021 -0.12022,-0.15579 0,-0.1104 0.0478,-0.13371 0.12022,-0.15701 1.12118,-0.35083 1.26593,-1.12241 1.26593,-1.56647 0,-0.64032 -0.51766,-1.69894 -2.44477,-1.69894" /><path
   inkscape:connector-curvature="0"
   id="path1736"
   style="fill:#000000;fill-opacity:1;fill-rule:evenodd;stroke:none;stroke-width:1.22667623"
   d="m 329.31153,710.53782 h -0.27845 l -0.0957,-0.011 h -0.20486 l -0.21712,-0.0245 -0.21589,-0.0135 -0.23062,-0.0221 -0.48208,-0.0724 -0.24043,-0.0491 -0.25147,-0.0589 -0.25392,-0.0613 -0.2527,-0.0724 -0.25269,-0.0846 -0.26619,-0.0957 -0.12022,-0.0601 -0.13125,-0.0491 -0.13371,-0.0589 -0.11899,-0.0613 c -1.48182,-0.72251 -2.2534,-1.74556 -2.2534,-1.86578 0,-0.0736 0.0478,-0.12144 0.12144,-0.12144 0.0221,0 0.0478,0 0.26374,0.22816 1.19355,1.17025 3.0949,1.85719 5.61449,1.85719 2.04487,0 4.15476,-0.44651 5.67215,-1.92833 0.14598,-0.15702 0.16929,-0.15702 0.20609,-0.15702 0.0711,0 0.11898,0.0478 0.11898,0.12144 0,0.12022 -0.81942,1.19233 -2.34785,1.90258 -1.31378,0.61456 -2.64963,0.75808 -3.64937,0.75808" /><path
   inkscape:connector-curvature="0"
   id="path1740"
   style="fill:#000000;fill-opacity:1;fill-rule:evenodd;stroke:none;stroke-width:1.22667623"
   d="m 329.31153,715.20042 h -0.27845 l -0.0957,-0.0135 h -0.20486 l -0.21712,-0.0221 -0.21589,-0.0135 -0.23062,-0.0233 -0.48208,-0.0724 -0.24043,-0.0478 -0.25147,-0.0613 -0.25392,-0.0589 -0.2527,-0.0724 -0.25269,-0.0846 -0.26619,-0.0969 -0.12022,-0.0589 -0.13125,-0.0491 -0.13371,-0.0613 -0.11899,-0.0589 c -1.48182,-0.72251 -2.2534,-1.74801 -2.2534,-1.86822 0,-0.0711 0.0478,-0.12022 0.12144,-0.12022 0.0221,0 0.0478,0 0.26374,0.22939 1.19355,1.16902 3.0949,1.85596 5.61449,1.85596 2.04487,0 4.15476,-0.44528 5.67215,-1.92711 0.14598,-0.15824 0.16929,-0.15824 0.20609,-0.15824 0.0711,0 0.11898,0.0491 0.11898,0.12022 0,0.12021 -0.81942,1.19355 -2.34785,1.9038 -1.31378,0.61456 -2.64963,0.75931 -3.64937,0.75931" /><path
   d="m 457.375,691.841 h 9.185"
   style="fill:none;stroke:#0000ff;stroke-width:0.68000001;stroke-linecap:butt;stroke-linejoin:miter;stroke-miterlimit:6.9000001;stroke-dasharray:1.3594, 1.3594;stroke-dashoffset:0;stroke-opacity:1"
   id="path1742"
   inkscape:connector-curvature="0" /><flowRoot
   xml:space="preserve"
   id="flowRoot2314"
   style="font-style:normal;font-variant:normal;font-weight:normal;font-stretch:normal;font-size:40px;line-height:1.25;font-family:'Times New Roman';-inkscape-font-specification:'Times New Roman, Normal';font-variant-ligatures:normal;font-variant-caps:normal;font-variant-numeric:normal;text-align:start;letter-spacing:0px;word-spacing:0px;writing-mode:lr-tb;text-anchor:start;fill:#000000;fill-opacity:1;stroke:none"
   transform="matrix(0.75000002,0,0,-0.75000002,0,792.00002)"><flowRegion
     id="flowRegion2316"><rect
       id="rect2318"
       width="830.55084"
       height="40.341042"
       x="11.865012"
       y="41.936966" /></flowRegion><flowPara
     id="flowPara2320" /></flowRoot>
</g></svg>