<?xml version="1.0" encoding="UTF-8" standalone="no"?>
<!-- Created with Inkscape (http://www.inkscape.org/) -->

<svg
   xmlns:dc="http://purl.org/dc/elements/1.1/"
   xmlns:cc="http://creativecommons.org/ns#"
   xmlns:rdf="http://www.w3.org/1999/02/22-rdf-syntax-ns#"
   xmlns:svg="http://www.w3.org/2000/svg"
   xmlns="http://www.w3.org/2000/svg"
   xmlns:sodipodi="http://sodipodi.sourceforge.net/DTD/sodipodi-0.dtd"
   xmlns:inkscape="http://www.inkscape.org/namespaces/inkscape"
   version="1.1"
   id="svg2"
   xml:space="preserve"
   width="165.31232"
   height="134.82224"
   viewBox="0 0 165.31232 134.82224"
   sodipodi:docname="31Ne-1n.svg"
   inkscape:version="0.92.5 (2060ec1f9f, 2020-04-08)"><metadata
     id="metadata8"><rdf:RDF><cc:Work
         rdf:about=""><dc:format>image/svg+xml</dc:format><dc:type
           rdf:resource="http://purl.org/dc/dcmitype/StillImage" /><dc:title></dc:title></cc:Work></rdf:RDF></metadata><defs
     id="defs6"><clipPath
       clipPathUnits="userSpaceOnUse"
       id="clipPath2264"><path
         d="M 326.778,252.85 H 548.277 V 150.293 H 326.778 Z"
         id="path2262"
         inkscape:connector-curvature="0" /></clipPath><clipPath
       clipPathUnits="userSpaceOnUse"
       id="clipPath2306"><path
         d="m 449.917,174.685 h -95.84 v 76.794 h 95.84 z"
         id="path2304"
         inkscape:connector-curvature="0" /></clipPath><clipPath
       clipPathUnits="userSpaceOnUse"
       id="clipPath2322"><path
         d="M 326.778,252.85 H 548.277 V 150.293 H 326.778 Z"
         id="path2320"
         inkscape:connector-curvature="0" /></clipPath><clipPath
       clipPathUnits="userSpaceOnUse"
       id="clipPath2354"><path
         d="m 449.917,174.685 h -95.84 v 76.794 h 95.84 z"
         id="path2352"
         inkscape:connector-curvature="0" /></clipPath><clipPath
       clipPathUnits="userSpaceOnUse"
       id="clipPath2472"><path
         d="m 449.917,174.685 h -95.84 v 76.794 h 95.84 z"
         id="path2470"
         inkscape:connector-curvature="0" /></clipPath><clipPath
       clipPathUnits="userSpaceOnUse"
       id="clipPath2482"><path
         d="M 326.778,252.85 H 548.277 V 150.293 H 326.778 Z"
         id="path2480"
         inkscape:connector-curvature="0" /></clipPath><clipPath
       clipPathUnits="userSpaceOnUse"
       id="clipPath2524"><path
         d="m 545.911,174.685 h -95.993 v 76.794 h 95.993 z"
         id="path2522"
         inkscape:connector-curvature="0" /></clipPath><clipPath
       clipPathUnits="userSpaceOnUse"
       id="clipPath2540"><path
         d="M 326.778,252.85 H 548.277 V 150.293 H 326.778 Z"
         id="path2538"
         inkscape:connector-curvature="0" /></clipPath><clipPath
       clipPathUnits="userSpaceOnUse"
       id="clipPath2556"><path
         d="m 545.911,174.685 h -95.993 v 76.794 h 95.993 z"
         id="path2554"
         inkscape:connector-curvature="0" /></clipPath><clipPath
       clipPathUnits="userSpaceOnUse"
       id="clipPath2568"><path
         d="M 326.778,252.85 H 548.277 V 150.293 H 326.778 Z"
         id="path2566"
         inkscape:connector-curvature="0" /></clipPath><clipPath
       clipPathUnits="userSpaceOnUse"
       id="clipPath2624"><path
         d="M 326.778,252.85 H 548.277 V 150.293 H 326.778 Z"
         id="path2622"
         inkscape:connector-curvature="0" /></clipPath><clipPath
       clipPathUnits="userSpaceOnUse"
       id="clipPath2638"><path
         d="M 326.778,252.85 H 548.277 V 150.293 H 326.778 Z"
         id="path2636"
         inkscape:connector-curvature="0" /></clipPath><clipPath
       clipPathUnits="userSpaceOnUse"
       id="clipPath2652"><path
         d="M 326.778,252.85 H 548.277 V 150.293 H 326.778 Z"
         id="path2650"
         inkscape:connector-curvature="0" /></clipPath><clipPath
       clipPathUnits="userSpaceOnUse"
       id="clipPath2666"><path
         d="m 545.911,174.685 h -95.993 v 76.794 h 95.993 z"
         id="path2664"
         inkscape:connector-curvature="0" /></clipPath></defs><sodipodi:namedview
     pagecolor="#ffffff"
     bordercolor="#666666"
     borderopacity="1"
     objecttolerance="10"
     gridtolerance="10"
     guidetolerance="10"
     inkscape:pageopacity="0"
     inkscape:pageshadow="2"
     inkscape:window-width="1920"
     inkscape:window-height="1018"
     id="namedview4"
     showgrid="false"
     inkscape:zoom="0.63211061"
     inkscape:cx="-690.36245"
     inkscape:cy="-4.5497955"
     inkscape:window-x="0"
     inkscape:window-y="0"
     inkscape:window-maximized="1"
     inkscape:current-layer="g10"
     fit-margin-top="0"
     fit-margin-left="0"
     fit-margin-right="0"
     fit-margin-bottom="0" /><g
     id="g10"
     inkscape:groupmode="layer"
     inkscape:label="PhysRevLett.112.142501"
     transform="matrix(1.3333333,0,0,-1.3333333,-437.00838,336.39786)"><text
       transform="matrix(1,0,0,-1,228.5291,703.3322)"
       style="font-variant:normal;font-weight:normal;font-size:6.64979982px;font-family:AdvP4C4E74;-inkscape-font-specification:AdvP4C4E74;writing-mode:lr-tb;fill:#231f20;fill-opacity:1;fill-rule:nonzero;stroke:none"
       id="text1776"><tspan
         x="0"
         y="0"
         id="tspan1774"></tspan></text>
<text
       transform="matrix(1,0,0,-1,107.7165,632.3526)"
       style="font-variant:normal;font-weight:normal;font-size:6.64979982px;font-family:AdvP4C4E74;-inkscape-font-specification:AdvP4C4E74;writing-mode:lr-tb;fill:#231f20;fill-opacity:1;fill-rule:nonzero;stroke:none"
       id="text2034"><tspan
         x="0"
         y="0"
         id="tspan2032"></tspan></text>
<text
       transform="matrix(1,0,0,-1,107.7165,621.3542)"
       style="font-variant:normal;font-weight:normal;font-size:6.64979982px;font-family:AdvP4C4E74;-inkscape-font-specification:AdvP4C4E74;writing-mode:lr-tb;fill:#231f20;fill-opacity:1;fill-rule:nonzero;stroke:none"
       id="text2074"><tspan
         x="0"
         y="0"
         id="tspan2072"></tspan></text>
<text
       transform="matrix(1,0,0,-1,107.7165,573.392)"
       style="font-variant:normal;font-weight:normal;font-size:6.64979982px;font-family:AdvP4C4E74;-inkscape-font-specification:AdvP4C4E74;writing-mode:lr-tb;fill:#231f20;fill-opacity:1;fill-rule:nonzero;stroke:none"
       id="text2226"><tspan
         x="0"
         y="0"
         id="tspan2224"></tspan></text>
<g
       id="g3063"><g
         id="g2260"
         clip-path="url(#clipPath2264)"><path
           d="m 354.077,174.685 h 95.84 v 76.795 h -95.84 z"
           style="fill:none;stroke:#231f20;stroke-width:0.461;stroke-linecap:butt;stroke-linejoin:miter;stroke-miterlimit:10;stroke-dasharray:none;stroke-opacity:1"
           id="path2266"
           inkscape:connector-curvature="0" /></g><path
         inkscape:connector-curvature="0"
         id="path2268"
         style="fill:#231f20;fill-opacity:1;fill-rule:evenodd;stroke:none"
         d="m 359.914,176.374 c 0,0.849 -0.688,1.536 -1.536,1.536 -0.848,0 -1.536,-0.687 -1.536,-1.536 0,-0.848 0.688,-1.535 1.536,-1.535 0.848,0 1.536,0.687 1.536,1.535" /><path
         inkscape:connector-curvature="0"
         id="path2270"
         style="fill:none;stroke:#231f20;stroke-width:0.461;stroke-linecap:butt;stroke-linejoin:miter;stroke-miterlimit:10;stroke-dasharray:none;stroke-opacity:1"
         d="m 367.133,178.678 v 0.768 m 0,3.072 v 0.768" /><path
         inkscape:connector-curvature="0"
         id="path2272"
         style="fill:#231f20;fill-opacity:1;fill-rule:evenodd;stroke:none"
         d="m 368.669,180.982 c 0,0.848 -0.688,1.536 -1.536,1.536 -0.848,0 -1.537,-0.688 -1.537,-1.536 0,-0.848 0.689,-1.536 1.537,-1.536 0.848,0 1.536,0.688 1.536,1.536" /><path
         inkscape:connector-curvature="0"
         id="path2274"
         style="fill:none;stroke:#231f20;stroke-width:0.461;stroke-linecap:butt;stroke-linejoin:miter;stroke-miterlimit:10;stroke-dasharray:none;stroke-opacity:1"
         d="m 375.888,179.6 v 2.15 m 0,3.072 v 1.997" /><path
         inkscape:connector-curvature="0"
         id="path2276"
         style="fill:#231f20;fill-opacity:1;fill-rule:evenodd;stroke:none"
         d="m 377.423,183.286 c 0,0.848 -0.687,1.536 -1.535,1.536 -0.848,0 -1.536,-0.688 -1.536,-1.536 0,-0.848 0.688,-1.536 1.536,-1.536 0.848,0 1.535,0.688 1.535,1.536" /><path
         inkscape:connector-curvature="0"
         id="path2278"
         style="fill:none;stroke:#231f20;stroke-width:0.461;stroke-linecap:butt;stroke-linejoin:miter;stroke-miterlimit:10;stroke-dasharray:none;stroke-opacity:1"
         d="m 384.488,188.662 v 3.379 m 0,3.225 v 3.533" /><path
         inkscape:connector-curvature="0"
         id="path2280"
         style="fill:#231f20;fill-opacity:1;fill-rule:evenodd;stroke:none"
         d="m 386.024,193.73 c 0,0.848 -0.688,1.536 -1.536,1.536 -0.848,0 -1.536,-0.688 -1.536,-1.536 0,-0.848 0.688,-1.536 1.536,-1.536 0.848,0 1.536,0.688 1.536,1.536" /><path
         inkscape:connector-curvature="0"
         id="path2282"
         style="fill:none;stroke:#231f20;stroke-width:0.461;stroke-linecap:butt;stroke-linejoin:miter;stroke-miterlimit:10;stroke-dasharray:none;stroke-opacity:1"
         d="m 393.242,210.011 v 5.222 m 0,3.072 v 5.222" /><path
         inkscape:connector-curvature="0"
         id="path2284"
         style="fill:#231f20;fill-opacity:1;fill-rule:evenodd;stroke:none"
         d="m 394.779,216.769 c 0,0.848 -0.688,1.536 -1.537,1.536 -0.847,0 -1.535,-0.688 -1.535,-1.536 0,-0.848 0.688,-1.536 1.535,-1.536 0.849,0 1.537,0.688 1.537,1.536" /><path
         inkscape:connector-curvature="0"
         id="path2286"
         style="fill:none;stroke:#231f20;stroke-width:0.461;stroke-linecap:butt;stroke-linejoin:miter;stroke-miterlimit:10;stroke-dasharray:none;stroke-opacity:1"
         d="m 401.998,224.141 v 8.294 m 0,3.072 v 8.294" /><path
         inkscape:connector-curvature="0"
         id="path2288"
         style="fill:#231f20;fill-opacity:1;fill-rule:evenodd;stroke:none"
         d="m 403.533,233.971 c 0,0.848 -0.688,1.536 -1.535,1.536 -0.848,0 -1.536,-0.688 -1.536,-1.536 0,-0.848 0.688,-1.536 1.536,-1.536 0.847,0 1.535,0.688 1.535,1.536" /><path
         inkscape:connector-curvature="0"
         id="path2290"
         style="fill:none;stroke:#231f20;stroke-width:0.461;stroke-linecap:butt;stroke-linejoin:miter;stroke-miterlimit:10;stroke-dasharray:none;stroke-opacity:1"
         d="m 410.752,220.608 v 6.144 m 0,3.072 v 6.144" /><path
         inkscape:connector-curvature="0"
         id="path2292"
         style="fill:#231f20;fill-opacity:1;fill-rule:evenodd;stroke:none"
         d="m 412.288,228.288 c 0,0.848 -0.688,1.536 -1.536,1.536 -0.849,0 -1.537,-0.688 -1.537,-1.536 0,-0.848 0.688,-1.536 1.537,-1.536 0.848,0 1.536,0.688 1.536,1.536" /><path
         inkscape:connector-curvature="0"
         id="path2294"
         style="fill:none;stroke:#231f20;stroke-width:0.461;stroke-linecap:butt;stroke-linejoin:miter;stroke-miterlimit:10;stroke-dasharray:none;stroke-opacity:1"
         d="m 419.354,187.74 v 2.765 m 0,3.072 v 2.611" /><path
         inkscape:connector-curvature="0"
         id="path2296"
         style="fill:#231f20;fill-opacity:1;fill-rule:evenodd;stroke:none"
         d="m 420.89,192.041 c 0,0.848 -0.688,1.536 -1.536,1.536 -0.849,0 -1.537,-0.688 -1.537,-1.536 0,-0.848 0.688,-1.536 1.537,-1.536 0.848,0 1.536,0.688 1.536,1.536" /><path
         inkscape:connector-curvature="0"
         id="path2298"
         style="fill:none;stroke:#231f20;stroke-width:0.461;stroke-linecap:butt;stroke-linejoin:miter;stroke-miterlimit:10;stroke-dasharray:none;stroke-opacity:1"
         d="m 428.107,178.678 v 1.383 m 0,3.225 v 1.229" /><g
         id="g2302"
         clip-path="url(#clipPath2306)"><path
           d="m 429.643,181.597 c 0,0.848 -0.688,1.535 -1.536,1.535 -0.848,0 -1.536,-0.687 -1.536,-1.535 0,-0.848 0.688,-1.536 1.536,-1.536 0.848,0 1.536,0.688 1.536,1.536"
           style="fill:#231f20;fill-opacity:1;fill-rule:evenodd;stroke:none"
           id="path2308"
           inkscape:connector-curvature="0" /><path
           d="m 436.862,175.453 v 0.461 m 0,3.071 v 0.461"
           style="fill:none;stroke:#231f20;stroke-width:0.461;stroke-linecap:butt;stroke-linejoin:miter;stroke-miterlimit:10;stroke-dasharray:none;stroke-opacity:1"
           id="path2310"
           inkscape:connector-curvature="0" /><path
           d="m 438.398,177.449 c 0,0.849 -0.688,1.536 -1.536,1.536 -0.848,0 -1.536,-0.687 -1.536,-1.536 0,-0.848 0.688,-1.535 1.536,-1.535 0.848,0 1.536,0.687 1.536,1.535"
           style="fill:#231f20;fill-opacity:1;fill-rule:evenodd;stroke:none"
           id="path2312"
           inkscape:connector-curvature="0" /><path
           d="m 445.617,174.224 v 1.382"
           style="fill:none;stroke:#231f20;stroke-width:0.461;stroke-linecap:butt;stroke-linejoin:miter;stroke-miterlimit:10;stroke-dasharray:none;stroke-opacity:1"
           id="path2314"
           inkscape:connector-curvature="0" /></g><g
         id="g2318"
         clip-path="url(#clipPath2322)"><path
           d="M 354.077,174.685 V 251.48"
           style="fill:none;stroke:#231f20;stroke-width:0.40000001;stroke-linecap:butt;stroke-linejoin:miter;stroke-miterlimit:10;stroke-dasharray:none;stroke-opacity:1"
           id="path2324"
           inkscape:connector-curvature="0" /></g><path
         inkscape:connector-curvature="0"
         id="path2326"
         style="fill:none;stroke:#231f20;stroke-width:0.461;stroke-linecap:butt;stroke-linejoin:miter;stroke-miterlimit:10;stroke-dasharray:none;stroke-opacity:1"
         d="m 351.466,174.685 h 2.611 m -1.382,4.608 h 1.382 m -1.382,4.607 h 1.382 m -1.382,4.608 h 1.382 m -2.611,4.608 h 2.611 m -1.382,4.454 h 1.382 m -1.382,4.608 h 1.382 m -1.382,4.607 h 1.382 m -2.611,4.608 h 2.611 m -1.382,4.608 h 1.382 m -1.382,4.607 h 1.382 m -1.382,4.608 h 1.382 m -2.611,4.608 h 2.611 m -1.382,4.608 h 1.382 m -1.382,4.608 h 1.382 m -1.382,4.454 h 1.382 m -2.611,4.607 h 2.611 m -2.611,0 h 2.611" /><text
         id="text2338"
         style="font-variant:normal;font-weight:normal;font-size:8.60099983px;font-family:'Times New Roman';-inkscape-font-specification:Times-Roman;writing-mode:lr-tb;fill:#231f20;fill-opacity:1;fill-rule:nonzero;stroke:none"
         transform="matrix(1,0,0,-1,345.3232,171.7674)"><tspan
           id="tspan2328"
           y="0"
           x="0">0</tspan><tspan
           id="tspan2330"
           sodipodi:role="line"
           y="-18.430223"
           x="-6.4507499 -2.15025 0">0.2</tspan><tspan
           id="tspan2332"
           sodipodi:role="line"
           y="-36.707348"
           x="-6.4507499 -2.15025 0">0.4</tspan><tspan
           id="tspan2334"
           sodipodi:role="line"
           y="-55.138432"
           x="-6.4507499 -2.15025 0">0.6</tspan><tspan
           id="tspan2336"
           sodipodi:role="line"
           y="-73.569511"
           x="-6.4507499 -2.15025 0">0.8</tspan></text>
<path
         inkscape:connector-curvature="0"
         id="path2340"
         style="fill:none;stroke:#231f20;stroke-width:0.40000001;stroke-linecap:butt;stroke-linejoin:miter;stroke-miterlimit:10;stroke-dasharray:none;stroke-opacity:1"
         d="m 354.077,174.685 h 95.84" /><path
         inkscape:connector-curvature="0"
         id="path2342"
         style="fill:none;stroke:#231f20;stroke-width:0.461;stroke-linecap:butt;stroke-linejoin:miter;stroke-miterlimit:10;stroke-dasharray:none;stroke-opacity:1"
         d="m 358.378,172.074 v 2.611 m 4.301,-1.382 v 1.382 m 4.454,-1.382 v 1.382 m 4.3,-1.382 v 1.382 m 4.455,-1.382 v 1.382 m 4.3,-2.611 v 2.611 m 4.3,-1.382 v 1.382 m 4.455,-1.382 v 1.382 m 4.299,-1.382 v 1.382 m 4.302,-1.382 v 1.382 m 4.454,-2.611 v 2.611 m 4.3,-1.382 v 1.382 m 4.454,-1.382 v 1.382 m 4.3,-1.382 v 1.382 m 4.302,-1.382 v 1.382 m 4.454,-2.611 v 2.611 m 4.299,-1.382 v 1.382 m 4.455,-1.382 v 1.382 m 4.3,-1.382 v 1.382 m 4.3,-1.382 v 1.382 m 4.455,-2.611 v 2.611 m -87.239,-2.611 v 2.611 m 87.239,-2.611 v 2.611" /><text
         id="text2346"
         style="font-variant:normal;font-weight:normal;font-size:8.60099983px;font-family:'Times New Roman';-inkscape-font-specification:Times-Roman;writing-mode:lr-tb;fill:#231f20;fill-opacity:1;fill-rule:nonzero;stroke:none"
         transform="matrix(1,0,0,-1,350.4951,164.5482)"><tspan
           id="tspan2344"
           sodipodi:role="line"
           y="0"
           x="0 2.8641329 7.1646328 11.465133 21.803535 24.667667 28.968168 33.268669 49.343937 66.84697 71.147469 75.447975 88.650505 92.951004 97.251511">-200-1000100200</tspan></text>
<g
         id="g2350"
         clip-path="url(#clipPath2354)"><path
           d="m 314.758,174.685 h 18.278 l 0.921,0.154 h 6.144 l 0.921,0.153 h 2.611 l 0.768,0.154 h 1.843 l 0.768,0.153 h 1.843 l 0.768,0.154 h 0.922 l 0.921,0.153 0.768,0.154 h 0.922 l 0.921,0.154 0.768,0.153 0.922,0.154 0.921,0.153 0.768,0.154 0.922,0.154 0.922,0.153 0.767,0.154 0.922,0.307 0.921,0.153 0.769,0.308 0.921,0.153 0.922,0.307 0.768,0.308 0.921,0.307 0.922,0.461 0.768,0.307 0.921,0.461 0.922,0.307 0.921,0.461 0.768,0.46 0.922,0.615 0.921,0.46 0.768,0.615 0.922,0.614 0.922,0.615 0.767,0.768 0.922,0.768 0.922,0.768 0.767,0.921 1.843,1.843 0.768,1.075 0.922,1.229 0.92,1.382 0.769,1.382 0.922,1.536 0.922,1.536 0.768,1.844 0.921,1.996 0.922,2.15 0.768,2.15 0.921,2.458 0.921,2.458 0.768,2.611 0.921,2.611 0.923,2.611 0.768,2.611 0.921,2.611 0.922,2.304 0.768,2.15 0.92,1.843 0.922,1.536 0.922,1.075 0.767,0.768 0.923,0.153 0.921,-0.153 0.768,-0.768 0.922,-1.075 0.921,-1.536 0.768,-1.843 0.921,-2.15 0.923,-2.304 0.766,-2.611 0.923,-2.611 0.921,-2.611 0.768,-2.611 0.922,-2.611 0.92,-2.458 0.768,-2.458 0.922,-2.15 0.923,-2.15 0.767,-1.996 0.922,-1.844 0.921,-1.536 0.769,-1.536 0.92,-1.382 0.922,-1.382 0.768,-1.229 0.921,-1.075 0.923,-0.921 0.767,-0.922 0.922,-0.921 0.921,-0.768 0.768,-0.768 0.921,-0.768 0.922,-0.615 0.921,-0.614 0.768,-0.615 0.922,-0.46 0.922,-0.615 0.767,-0.461 0.922,-0.46 0.922,-0.307 0.768,-0.461 0.921,-0.307 0.921,-0.461 0.768,-0.307 0.922,-0.308 0.921,-0.307 0.768,-0.153 0.922,-0.308 0.922,-0.153 0.768,-0.307 0.921,-0.154 0.922,-0.153 0.768,-0.154 0.921,-0.154 0.922,-0.153 0.768,-0.154 0.921,-0.153 0.922,-0.154 h 0.768 l 0.921,-0.154 0.922,-0.153 h 0.768 l 0.921,-0.154 h 1.69 l 0.921,-0.153 h 1.843 l 0.768,-0.154 h 2.612 l 0.921,-0.153 h 6.143 l 0.768,-0.154 h 14.899"
           style="fill:none;stroke:#231f20;stroke-width:1.10000002;stroke-linecap:butt;stroke-linejoin:miter;stroke-miterlimit:10;stroke-dasharray:none;stroke-opacity:1"
           id="path2356"
           inkscape:connector-curvature="0" /><path
           d="m 314.758,174.685 h 42.698 m 0,0 h 2.611 l 0.922,0.154 h 6.144 l 0.768,0.153 h 1.843 l 0.921,0.154 h 0.768 l 0.922,0.153 h 0.921 l 0.768,0.154 0.922,0.153 0.922,0.154 0.767,0.307 0.922,0.307 0.922,0.308 0.767,0.307 0.922,0.46 0.921,0.461 0.768,0.615 0.922,0.768 0.92,0.768 0.769,0.921 0.922,1.075 0.922,1.229 0.768,1.382 0.921,1.69 0.922,1.69 0.768,1.842 0.921,2.151 0.921,2.15 0.768,2.304 0.921,2.457 0.923,2.304 0.768,2.458 0.921,2.303 0.922,2.304 0.768,1.997 0.92,1.69 0.922,1.536 0.922,1.075 m 0,0 0.767,0.614 0.923,0.154 0.921,-0.154 0.768,-0.614 0.922,-1.075 0.921,-1.536 0.768,-1.69 0.921,-1.997 0.923,-2.304 0.766,-2.303 0.923,-2.458 0.921,-2.304 0.768,-2.457 0.922,-2.304 0.92,-2.15 0.768,-2.151 0.922,-1.842 0.923,-1.69 0.767,-1.69 0.922,-1.382 0.921,-1.229 0.769,-1.075 0.92,-0.921 0.922,-0.768 0.768,-0.768 0.921,-0.615 0.923,-0.461 0.767,-0.46 0.922,-0.307 0.921,-0.308 0.768,-0.307 0.921,-0.307 0.922,-0.154 0.921,-0.153 0.768,-0.154 h 0.922 l 0.922,-0.153 h 0.767 l 0.922,-0.154 h 1.69 l 0.921,-0.153 h 6.144 m 0,0 0.768,-0.154 h 41.93"
           style="fill:none;stroke:#231f20;stroke-width:1.10000002;stroke-linecap:butt;stroke-linejoin:miter;stroke-miterlimit:10;stroke-dasharray:1.8431, 1.8431;stroke-dashoffset:0;stroke-opacity:1"
           id="path2358"
           inkscape:connector-curvature="0" /><path
           d="m 314.758,174.685 h 27.954 l 0.921,0.154 h 5.99 l 0.922,0.153 h 2.611 l 0.921,0.154 h 1.69 l 0.921,0.153 h 0.768 m 0,0 0.922,0.154 h 0.922 l 0.767,0.153 h 0.922 l 0.921,0.154 0.769,0.154 h 0.921 l 0.922,0.153 0.768,0.154 0.921,0.153 0.922,0.154 0.768,0.307 0.921,0.154 0.922,0.153 0.921,0.307 0.768,0.154 0.922,0.307 0.921,0.154 0.768,0.307 0.922,0.307 0.922,0.307 0.767,0.308 0.922,0.307 0.922,0.307 0.767,0.307 0.922,0.307 0.921,0.308 0.768,0.46 0.922,0.308 0.92,0.307 0.769,0.307 0.922,0.307 0.922,0.307 0.768,0.307 0.921,0.154 0.922,0.307 0.768,0.154 0.921,0.307 0.921,0.154 0.768,0.153 0.921,0.154 h 0.923 l 0.768,0.153 h 0.921 l 0.922,0.154 h 3.532 m 0,0 h 6.911 l 0.923,-0.154 h 0.766 l 0.923,-0.153 h 0.921 l 0.768,-0.154 0.922,-0.153 0.92,-0.154 0.768,-0.307 0.922,-0.154 0.923,-0.307 0.767,-0.154 0.922,-0.307 0.921,-0.307 0.769,-0.307 0.92,-0.307 0.922,-0.308 0.768,-0.307 0.921,-0.461 0.923,-0.307 0.767,-0.307 0.922,-0.307 0.921,-0.307 0.768,-0.307 0.921,-0.308 0.922,-0.307 0.921,-0.307 0.768,-0.307 0.922,-0.154 0.922,-0.307 0.767,-0.154 0.922,-0.307 0.922,-0.153 0.768,-0.154 0.921,-0.307 0.921,-0.154 0.768,-0.153 0.922,-0.154 0.921,-0.153 h 0.768 l 0.922,-0.154 0.922,-0.154 m 0,0 h 0.768 l 0.921,-0.153 h 0.922 l 0.768,-0.154 h 0.921 l 0.922,-0.153 h 1.689 l 0.922,-0.154 h 2.611 l 0.768,-0.153 h 6.143 l 0.922,-0.154 h 24.421"
           style="fill:none;stroke:#231f20;stroke-width:1.10000002;stroke-linecap:butt;stroke-linejoin:miter;stroke-miterlimit:10;stroke-dasharray:0.61436, 1.2287;stroke-dashoffset:0;stroke-opacity:1"
           id="path2360"
           inkscape:connector-curvature="0" /></g><text
         id="text2364"
         style="font-variant:normal;font-weight:normal;font-size:8.75459957px;font-family:'Times New Roman';-inkscape-font-specification:Times-Roman;writing-mode:lr-tb;fill:#231f20;fill-opacity:1;fill-rule:nonzero;stroke:none"
         transform="matrix(1,0,0,-1,356.8422,242.4188)"><tspan
           id="tspan2362"
           sodipodi:role="line"
           y="0"
           x="0 2.9152818 6.8023243">(a)</tspan></text>
<text
         id="text2368"
         style="font-style:italic;font-variant:normal;font-size:8.75459957px;font-family:'Times New Roman';-inkscape-font-specification:Times-Italic;writing-mode:lr-tb;fill:#231f20;fill-opacity:1;fill-rule:nonzero;stroke:none"
         transform="matrix(1,0,0,-1,416.55645,242.4188)"><tspan
           id="tspan2366"
           y="0"
           x="0">J</tspan></text>
<text
         id="text2372"
         style="font-variant:normal;font-weight:normal;font-size:6.14359999px;font-family:Symbol;-inkscape-font-specification:Symbol;writing-mode:lr-tb;fill:#231f20;fill-opacity:1;fill-rule:nonzero;stroke:none"
         transform="matrix(1,0,0,-1,421.2437,246.8729)"><tspan
           id="tspan2370"
           y="0"
           x="0">π</tspan></text>
<text
         id="text2376"
         style="font-variant:normal;font-weight:normal;font-size:8.75459957px;font-family:'Times New Roman';-inkscape-font-specification:Times-Roman;writing-mode:lr-tb;fill:#231f20;fill-opacity:1;fill-rule:nonzero;stroke:none"
         transform="matrix(1,0,0,-1,426.80545,242.4188)"><tspan
           id="tspan2374"
           sodipodi:role="line"
           y="0"
           x="0 4.9375944 7.1262445 11.503545 13.937324">= 3/2</tspan></text>
<text
         id="text2380"
         style="font-variant:normal;font-weight:normal;font-size:6.14359999px;font-family:'Times New Roman';-inkscape-font-specification:Times-Roman;writing-mode:lr-tb;fill:#231f20;fill-opacity:1;fill-rule:nonzero;stroke:none"
         transform="matrix(1,0,0,-1,445.1202,246.8729)"><tspan
           id="tspan2378"
           y="0"
           x="0">-</tspan></text>
<text
         id="text2384"
         style="font-style:italic;font-variant:normal;font-size:9.04650021px;font-family:'Times New Roman';-inkscape-font-specification:Times-Italic;writing-mode:lr-tb;fill:#231f20;fill-opacity:1;fill-rule:nonzero;stroke:none"
         transform="matrix(1,0,0,-1,380.969,154.3315)"><tspan
           id="tspan2382"
           y="0"
           x="0">P</tspan></text>
<text
         id="text2388"
         style="font-variant:normal;font-weight:normal;font-size:6.27409983px;font-family:'Times New Roman';-inkscape-font-specification:Times-Roman;writing-mode:lr-tb;fill:#231f20;fill-opacity:1;fill-rule:nonzero;stroke:none"
         transform="matrix(1,0,0,-1,386.4963,151.2675)"><tspan
           id="tspan2386"
           sodipodi:role="line"
           y="0"
           x="0 1.7441998">//</tspan></text>
<text
         id="text2392"
         style="font-variant:normal;font-weight:normal;font-size:9.04650021px;font-family:'Times New Roman';-inkscape-font-specification:Times-Roman;writing-mode:lr-tb;fill:#231f20;fill-opacity:1;fill-rule:nonzero;stroke:none"
         transform="matrix(1,0,0,-1,392.24612,154.3315)"><tspan
           id="tspan2390"
           sodipodi:role="line"
           y="0"
           x="0 3.0124846 11.054823 15.071469 21.603043">(MeV/</tspan></text>
<text
         id="text2396"
         style="font-style:italic;font-variant:normal;font-size:9.04650021px;font-family:'Times New Roman';-inkscape-font-specification:Times-Italic;writing-mode:lr-tb;fill:#231f20;fill-opacity:1;fill-rule:nonzero;stroke:none"
         transform="matrix(1,0,0,-1,416.36409,154.3315)"><tspan
           id="tspan2394"
           y="0"
           x="0">c</tspan></text>
<text
         id="text2400"
         style="font-variant:normal;font-weight:normal;font-size:9.04650021px;font-family:'Times New Roman';-inkscape-font-specification:Times-Roman;writing-mode:lr-tb;fill:#231f20;fill-opacity:1;fill-rule:nonzero;stroke:none"
         transform="matrix(1,0,0,-1,420.38074,154.3315)"><tspan
           id="tspan2398"
           y="0"
           x="0">)</tspan></text>
<text
         id="text2404"
         style="font-variant:normal;font-weight:normal;font-size:9.04650021px;font-family:'Times New Roman';-inkscape-font-specification:Times-Roman;writing-mode:lr-tb;fill:#231f20;fill-opacity:1;fill-rule:nonzero;stroke:none"
         transform="matrix(0,1,1,0,334.0376,173.4974)"><tspan
           id="tspan2402"
           y="0"
           x="0">d</tspan></text>
<text
         id="text2408"
         style="font-variant:normal;font-weight:normal;font-size:9.04650021px;font-family:Symbol;-inkscape-font-specification:Symbol;writing-mode:lr-tb;fill:#231f20;fill-opacity:1;fill-rule:nonzero;stroke:none"
         transform="matrix(0,1,1,0,334.0376,178.02065)"><tspan
           id="tspan2406"
           y="0"
           x="0">σ</tspan></text>
<text
         id="text2412"
         style="font-variant:normal;font-weight:normal;font-size:9.04650021px;font-family:'Times New Roman';-inkscape-font-specification:Times-Roman;writing-mode:lr-tb;fill:#231f20;fill-opacity:1;fill-rule:nonzero;stroke:none"
         transform="matrix(0,1,1,0,334.0376,183.47569)"><tspan
           id="tspan2410"
           sodipodi:role="line"
           y="0"
           x="0 2.5149269">/d</tspan></text>
<text
         id="text2416"
         style="font-style:italic;font-variant:normal;font-size:9.04650021px;font-family:'Times New Roman';-inkscape-font-specification:Times-Italic;writing-mode:lr-tb;fill:#231f20;fill-opacity:1;fill-rule:nonzero;stroke:none"
         transform="matrix(0,1,1,0,334.0376,190.51477)"><tspan
           id="tspan2414"
           y="0"
           x="0">P</tspan></text>
<text
         id="text2420"
         style="font-variant:normal;font-weight:normal;font-size:6.27409983px;font-family:'Times New Roman';-inkscape-font-specification:Times-Roman;writing-mode:lr-tb;fill:#231f20;fill-opacity:1;fill-rule:nonzero;stroke:none"
         transform="matrix(0,1,1,0,337.1015,196.0411)"><tspan
           id="tspan2418"
           sodipodi:role="line"
           y="0"
           x="0 1.7441998">//</tspan></text>
<text
         id="text2424"
         style="font-variant:normal;font-weight:normal;font-size:9.04650021px;font-family:Symbol;-inkscape-font-specification:Symbol;writing-mode:lr-tb;fill:#231f20;fill-opacity:1;fill-rule:nonzero;stroke:none"
         transform="matrix(0,1,1,0,334.0376,201.7911)"><tspan
           id="tspan2422"
           y="0"
           x="0">[</tspan></text>
<text
         id="text2428"
         style="font-variant:normal;font-weight:normal;font-size:9.04650021px;font-family:'Times New Roman';-inkscape-font-specification:Times-Roman;writing-mode:lr-tb;fill:#231f20;fill-opacity:1;fill-rule:nonzero;stroke:none"
         transform="matrix(0,1,1,0,334.0376,204.80358)"><tspan
           id="tspan2426"
           sodipodi:role="line"
           y="0"
           x="0 7.038177 11.561427 14.076354 17.088839 25.131178 29.147823 35.679398">mb/(MeV/</tspan></text>
<text
         id="text2432"
         style="font-style:italic;font-variant:normal;font-size:9.04650021px;font-family:'Times New Roman';-inkscape-font-specification:Times-Italic;writing-mode:lr-tb;fill:#231f20;fill-opacity:1;fill-rule:nonzero;stroke:none"
         transform="matrix(0,1,1,0,334.0376,242.99791)"><tspan
           id="tspan2430"
           y="0"
           x="0">c</tspan></text>
<text
         id="text2436"
         style="font-variant:normal;font-weight:normal;font-size:9.04650021px;font-family:'Times New Roman';-inkscape-font-specification:Times-Roman;writing-mode:lr-tb;fill:#231f20;fill-opacity:1;fill-rule:nonzero;stroke:none"
         transform="matrix(0,1,1,0,334.0376,247.01455)"><tspan
           id="tspan2434"
           y="0"
           x="0">)</tspan></text>
<text
         id="text2440"
         style="font-variant:normal;font-weight:normal;font-size:9.04650021px;font-family:Symbol;-inkscape-font-specification:Symbol;writing-mode:lr-tb;fill:#231f20;fill-opacity:1;fill-rule:nonzero;stroke:none"
         transform="matrix(0,1,1,0,334.0376,250.02794)"><tspan
           id="tspan2438"
           y="0"
           x="0">]</tspan></text>
<path
         inkscape:connector-curvature="0"
         id="path2442"
         style="fill:none;stroke:#231f20;stroke-width:0.461;stroke-linecap:butt;stroke-linejoin:miter;stroke-miterlimit:10;stroke-dasharray:none;stroke-opacity:1"
         d="m 428.875,236.889 h 18.124" /><text
         id="text2446"
         style="font-variant:normal;font-weight:normal;font-size:8.75459957px;font-family:'Times New Roman';-inkscape-font-specification:Times-Roman;writing-mode:lr-tb;fill:#231f20;fill-opacity:1;fill-rule:nonzero;stroke:none"
         transform="matrix(1,0,0,-1,417.0645,234.7387)"><tspan
           id="tspan2444"
           sodipodi:role="line"
           y="0"
           x="0 2.9152818 5.3490605">(i)</tspan></text>
<path
         inkscape:connector-curvature="0"
         id="path2448"
         style="fill:none;stroke:#231f20;stroke-width:1.10000002;stroke-linecap:butt;stroke-linejoin:miter;stroke-miterlimit:10;stroke-dasharray:none;stroke-opacity:1"
         d="m 428.875,226.906 h 18.124" /><text
         id="text2452"
         style="font-variant:normal;font-weight:normal;font-size:8.75459957px;font-family:'Times New Roman';-inkscape-font-specification:Times-Roman;writing-mode:lr-tb;fill:#231f20;fill-opacity:1;fill-rule:nonzero;stroke:none"
         transform="matrix(1,0,0,-1,415.8472,224.7559)"><tspan
           id="tspan2450"
           sodipodi:role="line"
           y="0"
           x="0 2.9152818 5.3490605 7.7828393">(ii)</tspan></text>
<path
         inkscape:connector-curvature="0"
         id="path2454"
         style="fill:none;stroke:#231f20;stroke-width:1.10000002;stroke-linecap:butt;stroke-linejoin:miter;stroke-miterlimit:10;stroke-dasharray:1.8431, 1.8431;stroke-dashoffset:0;stroke-opacity:1"
         d="m 430.718,220.762 h 16.281" /><text
         id="text2458"
         style="font-style:italic;font-variant:normal;font-size:8.75459957px;font-family:'Times New Roman';-inkscape-font-specification:Times-Italic;writing-mode:lr-tb;fill:#231f20;fill-opacity:1;fill-rule:nonzero;stroke:none"
         transform="matrix(1,0,0,-1,421.7725,218.6118)"><tspan
           id="tspan2456"
           y="0"
           x="0">p</tspan></text>
<path
         inkscape:connector-curvature="0"
         id="path2460"
         style="fill:none;stroke:#231f20;stroke-width:1.10000002;stroke-linecap:butt;stroke-linejoin:miter;stroke-miterlimit:10;stroke-dasharray:0.61436, 1.2287;stroke-dashoffset:0;stroke-opacity:1"
         d="m 430.718,213.083 h 16.281" /><text
         id="text2464"
         style="font-style:italic;font-variant:normal;font-size:8.75459957px;font-family:'Times New Roman';-inkscape-font-specification:Times-Italic;writing-mode:lr-tb;fill:#231f20;fill-opacity:1;fill-rule:nonzero;stroke:none"
         transform="matrix(1,0,0,-1,422.5034,210.9322)"><tspan
           id="tspan2462"
           y="0"
           x="0">f</tspan></text>
<g
         id="g2468"
         clip-path="url(#clipPath2472)"><path
           d="m 314.758,174.685 h 16.588 l 0.922,0.154 h 5.989 l 0.922,0.153 h 3.533 l 0.921,0.154 h 1.69 l 0.921,0.153 h 0.768 l 0.922,0.154 h 0.921 l 0.768,0.153 h 0.922 l 0.921,0.154 0.768,0.154 h 0.922 l 0.921,0.153 0.768,0.154 1.843,0.307 0.768,0.154 0.922,0.153 0.922,0.154 0.767,0.153 0.922,0.307 0.921,0.154 0.769,0.307 0.921,0.154 0.922,0.307 0.768,0.154 1.843,0.614 0.768,0.307 0.921,0.307 1.843,0.615 0.768,0.307 0.922,0.461 0.921,0.307 0.768,0.307 1.844,0.922 0.767,0.307 0.922,0.461 0.922,0.46 0.767,0.461 0.922,0.461 0.921,0.614 0.768,0.461 1.842,1.229 0.769,0.614 1.844,1.536 2.611,2.611 0.768,1.075 0.921,0.922 0.921,1.228 0.768,1.076 0.921,1.228 0.923,1.076 0.768,1.228 0.921,1.076 0.922,1.075 0.768,0.921 0.92,0.768 0.922,0.768 0.922,0.461 0.767,0.307 h 1.844 l 0.768,-0.307 0.922,-0.461 0.921,-0.768 1.689,-1.689 0.923,-1.076 0.766,-1.075 0.923,-1.228 0.921,-1.076 0.768,-1.228 0.922,-1.076 0.92,-1.228 0.768,-0.922 0.922,-1.075 0.923,-0.922 0.767,-0.921 1.843,-1.536 0.769,-0.768 1.842,-1.228 0.768,-0.615 0.921,-0.461 0.923,-0.614 0.767,-0.461 0.922,-0.461 0.921,-0.46 0.768,-0.461 0.921,-0.307 1.843,-0.922 0.768,-0.307 0.922,-0.307 0.922,-0.461 0.767,-0.307 0.922,-0.307 0.922,-0.308 0.768,-0.307 0.921,-0.307 0.921,-0.307 0.768,-0.307 0.922,-0.154 0.921,-0.307 0.768,-0.154 0.922,-0.307 0.922,-0.154 0.768,-0.307 1.843,-0.307 0.768,-0.153 0.921,-0.154 0.922,-0.154 0.768,-0.153 0.921,-0.154 0.922,-0.153 h 0.768 l 0.921,-0.154 0.922,-0.154 h 0.768 l 0.921,-0.153 h 0.922 l 0.768,-0.154 h 0.921 l 0.922,-0.153 h 1.689 l 0.922,-0.154 h 3.532 l 0.768,-0.153 h 6.144 l 0.922,-0.154 h 13.055"
           style="fill:none;stroke:#231f20;stroke-width:0.461;stroke-linecap:butt;stroke-linejoin:miter;stroke-miterlimit:10;stroke-dasharray:none;stroke-opacity:1"
           id="path2474"
           inkscape:connector-curvature="0" /></g></g></g></svg>