<?xml version="1.0" encoding="UTF-8" standalone="no"?>
<svg
   xmlns:dc="http://purl.org/dc/elements/1.1/"
   xmlns:cc="http://creativecommons.org/ns#"
   xmlns:rdf="http://www.w3.org/1999/02/22-rdf-syntax-ns#"
   xmlns:svg="http://www.w3.org/2000/svg"
   xmlns="http://www.w3.org/2000/svg"
   viewBox="0 0 501.85333 309.85333"
   height="309.85333"
   width="501.85333"
   xml:space="preserve"
   id="svg2"
   version="1.1"><metadata
     id="metadata8"><rdf:RDF><cc:Work
         rdf:about=""><dc:format>image/svg+xml</dc:format><dc:type
           rdf:resource="http://purl.org/dc/dcmitype/StillImage" /></cc:Work></rdf:RDF></metadata><defs
     id="defs6" /><g
     transform="matrix(1.3333333,0,0,-1.3333333,0,309.85333)"
     id="g10"><g
       transform="scale(0.1)"
       id="g12"><path
         id="path14"
         style="fill:none;stroke:#231f20;stroke-width:2.5;stroke-linecap:square;stroke-linejoin:miter;stroke-miterlimit:3.79999995;stroke-dasharray:none;stroke-opacity:1"
         d="m 444.262,377.5 h 31.531" /><path
         id="path16"
         style="fill:none;stroke:#231f20;stroke-width:4;stroke-linecap:square;stroke-linejoin:miter;stroke-miterlimit:3.79999995;stroke-dasharray:none;stroke-opacity:1"
         d="m 444.262,2277.03 h 31.531 m -31.531,-79.02 h 15.508 m -15.508,-79.49 h 15.508 m -15.508,-78.99 h 15.508 m -15.508,-79.02 h 31.531 m -31.531,-78.98 h 15.508 m -15.508,-79.5 h 15.508 m -15.508,-79.02 h 15.508 m -15.508,-78.98 h 31.531 m -31.531,-79.5 h 15.508 m -15.508,-79.02 h 15.508 m -15.508,-78.98 h 15.508 m -15.508,-79.03 h 31.531 m -31.531,-79.49 h 15.508 m -15.508,-78.98 H 459.77 M 444.262,1090 h 15.508 m -15.508,-79.49 h 31.531 M 444.262,931.531 H 459.77 M 444.262,852.5 h 15.508 m -15.508,-79.488 h 15.508 m -15.508,-78.981 h 31.531 M 444.262,615 H 459.77 M 444.262,536.02 H 459.77 M 444.262,456.531 H 459.77 M 3665.27,377.5 h -31.52" /><path
         id="path18"
         style="fill:none;stroke:#231f20;stroke-width:2.5;stroke-linecap:square;stroke-linejoin:miter;stroke-miterlimit:3.79999995;stroke-dasharray:none;stroke-opacity:1"
         d="m 444.262,377.5 v 31.531 M 3665.27,2277.03 h -31.52" /><path
         id="path20"
         style="fill:none;stroke:#231f20;stroke-width:4;stroke-linecap:square;stroke-linejoin:miter;stroke-miterlimit:3.79999995;stroke-dasharray:none;stroke-opacity:1"
         d="m 3665.27,377.5 v 31.531 M 3504.26,377.5 v 15.512 M 3343.28,377.5 v 15.512 M 3182.27,377.5 v 15.512 M 3021.25,377.5 v 31.531 M 2860.27,377.5 v 15.512 M 2698.75,377.5 v 15.512 M 2537.77,377.5 v 15.512 M 2376.76,377.5 v 31.531 M 2215.78,377.5 v 15.512 M 2054.77,377.5 v 15.512 M 1893.75,377.5 v 15.512 M 1732.78,377.5 v 31.531 M 1571.76,377.5 v 15.512 M 1410.79,377.5 v 15.512 M 1249.77,377.5 v 15.512 M 1088.29,377.5 v 31.531 M 927.27,377.5 v 15.512 M 766.25,377.5 v 15.512 M 605.277,377.5 v 15.512 M 444.262,2277.03 v -31.52" /><path
         id="path22"
         style="fill:none;stroke:#231f20;stroke-width:2.5;stroke-linecap:square;stroke-linejoin:miter;stroke-miterlimit:3.79999995;stroke-dasharray:none;stroke-opacity:1"
         d="M 444.262,2277.03 H 3665.27 V 377.5 H 444.262 Z m 3221.008,0 v -31.52" /><path
         id="path24"
         style="fill:none;stroke:#ee2329;stroke-width:8;stroke-linecap:square;stroke-linejoin:miter;stroke-miterlimit:3.79999995;stroke-dasharray:none;stroke-opacity:1"
         d="m 470.277,382.5 63.473,1.531 63.52,1.989 63.523,2.5 63.469,3.511 63.515,4.5 63.473,5.969 63.52,7.5 63.98,8.52 63.52,10.511 63.52,11.989 63.47,13.011 63.52,13.469 63.47,13.52 63.52,12.5 63.52,11.48 63.47,12.031 64.03,12.5 63.47,14.5 63.52,16.481 63.47,18.008 63.52,18.511 63.52,20 63.98,18.989 63,15.511 63.48,7.5 64.02,-2 63.48,-14.531 63.52,-26.48 63.51,-36.489 63.48,-43 63.51,-43.519 63.99,-40 63.51,-32.5 63.01,-27.5 63.99,-15.512 h 970.5" /><path
         id="path26"
         style="fill:none;stroke:#3b963e;stroke-width:8;stroke-linecap:square;stroke-linejoin:miter;stroke-miterlimit:3.79999995;stroke-dasharray:80, 40;stroke-dashoffset:0;stroke-opacity:1"
         d="m 470.277,381.02 63.473,0.511 63.52,1.481 63.523,1.519 63.469,2.5 63.515,2.969 63.473,4.531 63.52,5.981 63.98,8.519 63.52,11.481 63.52,15 63.47,19.019 63.52,23.989 63.47,28.98 63.52,33.52 63.52,38.011 63.47,40.969 64.03,44.531 63.47,48.989 63.52,56.992 63.47,69.488 63.52,86.02 63.52,104.49 63.98,128.01 63,158.51 63.48,186.49 64.02,196.99 63.48,175 63.52,103.52 63.51,-15.51 63.48,-148.01 63.51,-259.49 63.99,-317.5 63.51,-303.989 63.01,-239.019 63.99,-157.5 63.51,-90 63.48,-46.992 63.51,-23.52 h 780" /><path
         id="path28"
         style="fill:none;stroke:#231f20;stroke-width:4;stroke-linecap:square;stroke-linejoin:miter;stroke-miterlimit:3.79999995;stroke-dasharray:none;stroke-opacity:1"
         d="M 444.262,2277.03 H 3665.27 V 377.5 H 444.262 Z" /><path
         id="path30"
         style="fill:#231f20;fill-opacity:1;fill-rule:nonzero;stroke:none"
         d="m 2968.44,2120.16 v 29.53 l -20.78,-29.53 z m 15.31,0 v -6.25 h -7.97 v -15.78 h -7.34 v 15.78 h -25.16 v 5.62 l 27.66,39.38 h 4.84 v -38.75 z m -74.96,31.72 14.37,7.03 h 1.57 v -50.31 c 0,-3.36 0.07,-5.43 0.31,-6.25 0.31,-0.86 0.86,-1.49 1.72,-1.88 0.94,-0.43 2.73,-0.7 5.47,-0.78 v -1.56 h -22.5 v 1.56 c 2.81,0.08 4.61,0.35 5.47,0.78 0.82,0.39 1.4,0.98 1.71,1.72 0.32,0.7 0.47,2.85 0.47,6.41 v 32.18 c 0,4.38 -0.15,7.19 -0.47,8.44 -0.23,0.94 -0.58,1.6 -1.09,2.03 -0.55,0.39 -1.17,0.63 -1.87,0.63 -1.18,0 -2.66,-0.47 -4.54,-1.41 l -0.62,1.41" /><path
         id="path32"
         style="fill:#231f20;fill-opacity:1;fill-rule:nonzero;stroke:none"
         d="m 3123.01,2018.91 v -2.35 c -6.37,3.25 -11.68,7 -15.94,11.25 -6.05,6.18 -10.74,13.4 -14.06,21.72 -3.36,8.32 -5,16.96 -5,25.94 0,13.13 3.2,25.08 9.69,35.94 6.44,10.82 14.88,18.59 25.31,23.28 v -2.66 c -5.24,-2.93 -9.49,-6.87 -12.81,-11.87 -3.36,-5 -5.86,-11.37 -7.5,-19.06 -1.57,-7.62 -2.35,-15.59 -2.35,-23.91 0,-9.06 0.67,-17.31 2.03,-24.69 1.14,-5.86 2.5,-10.51 4.07,-14.06 1.56,-3.52 3.63,-6.91 6.25,-10.16 2.57,-3.2 6.01,-6.33 10.31,-9.37 z m -91.06,108.9 c -7.73,0 -13.9,-2.89 -18.59,-8.59 -5.86,-7.11 -8.75,-17.5 -8.75,-31.25 0,-14.06 3.01,-24.84 9.06,-32.34 4.57,-5.86 10.67,-8.75 18.28,-8.75 8.13,0 14.77,3.12 20,9.37 5.32,6.33 7.97,16.33 7.97,30 0,14.69 -2.93,25.67 -8.75,32.97 -4.69,5.7 -11.09,8.59 -19.22,8.59 z m 1.1,4.54 c 11.25,0 20.93,-4.22 29.06,-12.66 8.2,-8.44 12.34,-19.02 12.34,-31.72 0,-13.12 -4.18,-24.02 -12.5,-32.66 -8.24,-8.67 -18.2,-12.96 -29.84,-12.96 -11.88,0 -21.88,4.21 -30,12.65 -8.05,8.44 -12.03,19.3 -12.03,32.66 0,13.75 4.69,24.92 14.06,33.59 8.01,7.38 17.66,11.1 28.91,11.1 v 0" /><path
         id="path34"
         style="fill:#231f20;fill-opacity:1;fill-rule:nonzero;stroke:none"
         d="m 3141.52,2051.1 c 2.7,-3.13 6.25,-4.69 10.63,-4.69 2.19,0 4.41,0.54 6.72,1.72 2.26,1.25 4.53,3.04 6.72,5.47 2.18,2.38 4.1,5.15 5.78,8.28 1.76,3.2 3.32,6.95 4.68,11.25 1.45,4.25 2.19,8.47 2.19,12.65 0,3.44 -0.78,6.02 -2.34,7.82 -1.56,1.75 -3.4,2.65 -5.47,2.65 -4.61,0 -9.14,-2.62 -13.59,-7.81 -4.38,-5.24 -7.62,-11.37 -9.69,-18.44 z m 14.85,50.78 -4.38,-14.69 c 4.57,5.39 8.67,9.22 12.35,11.41 3.63,2.18 7.34,3.28 11.09,3.28 3.75,0 6.91,-1.53 9.53,-4.53 2.7,-3.05 4.06,-6.96 4.06,-11.72 0,-9.3 -3.82,-18.75 -11.4,-28.44 -7.5,-9.61 -16.33,-14.38 -26.41,-14.38 -2.11,0 -3.98,0.28 -5.62,0.79 -1.57,0.43 -3.4,1.25 -5.47,2.5 l -4.69,-16.41 c -0.94,-3.2 -1.41,-5.31 -1.41,-6.25 0,-0.94 0.24,-1.72 0.78,-2.34 0.51,-0.71 1.29,-1.25 2.35,-1.57 1.13,-0.39 3.32,-0.62 6.56,-0.62 l -0.47,-2.35 h -30 l 0.63,2.35 c 3.98,0.23 6.64,0.9 7.97,2.03 1.36,1.17 2.81,4.45 4.37,9.84 l 16.09,55.63 c 0.94,3.51 1.41,5.7 1.41,6.56 0,1.13 -0.31,2.03 -0.94,2.66 -0.62,0.62 -1.64,0.93 -2.97,0.93 -1.25,0 -2.96,-0.15 -5.15,-0.46 v 2.5 l 21.72,3.28" /><path
         id="path36"
         style="fill:#231f20;fill-opacity:1;fill-rule:nonzero;stroke:none"
         d="m 3201.84,2022.66 v 2.81 c 4.37,1.48 7.69,3.71 10,6.72 2.38,3.05 3.59,6.25 3.59,9.69 0,0.74 -0.16,1.4 -0.47,2.03 -0.31,0.31 -0.62,0.47 -0.94,0.47 -0.43,0 -1.4,-0.39 -2.97,-1.25 -0.85,-0.32 -1.67,-0.47 -2.5,-0.47 -2.1,0 -3.75,0.58 -5,1.72 -1.17,1.25 -1.71,2.97 -1.71,5.15 0,2.07 0.78,3.83 2.34,5.32 1.56,1.44 3.48,2.18 5.78,2.18 2.81,0 5.31,-1.21 7.5,-3.59 2.19,-2.42 3.28,-5.63 3.28,-9.69 0,-4.37 -1.52,-8.44 -4.53,-12.19 -3.05,-3.75 -7.81,-6.71 -14.37,-8.9 v 0" /><path
         id="path38"
         style="fill:#231f20;fill-opacity:1;fill-rule:nonzero;stroke:none"
         d="m 3324.41,2101.88 -8.43,-28.91 c 7.89,11.76 13.94,19.53 18.12,23.28 4.14,3.75 8.2,5.63 12.19,5.63 2.07,0 3.79,-0.75 5.16,-2.19 1.44,-1.37 2.18,-3.2 2.18,-5.47 0,-2.5 -0.62,-5.9 -1.87,-10.16 l -7.81,-26.71 c -0.86,-3.05 -1.25,-4.93 -1.25,-5.63 0,-0.62 0.15,-1.17 0.46,-1.56 0.32,-0.31 0.67,-0.47 1.1,-0.47 0.51,0 1.13,0.23 1.87,0.78 2.19,1.76 4.61,4.45 7.35,8.13 l 1.87,-1.25 c -3.87,-5.63 -7.58,-9.65 -11.09,-12.04 -2.5,-1.64 -4.69,-2.5 -6.56,-2.5 -1.57,0 -2.82,0.55 -3.75,1.57 -0.94,0.93 -1.41,2.18 -1.41,3.75 0,1.95 0.66,5.47 2.03,10.47 l 7.5,25.46 c 0.94,3.21 1.41,5.71 1.41,7.5 0,0.82 -0.32,1.49 -0.94,2.04 -0.55,0.5 -1.21,0.78 -2.03,0.78 -1.17,0 -2.58,-0.55 -4.22,-1.57 -3.13,-1.87 -6.41,-5 -9.84,-9.37 -3.36,-4.38 -6.88,-9.96 -10.63,-16.72 -1.99,-3.67 -3.67,-7.62 -5,-11.87 l -3.12,-10.47 h -9.54 l 11.57,39.68 c 1.32,4.77 2.03,7.7 2.03,8.75 0,0.94 -0.39,1.72 -1.1,2.35 -0.74,0.7 -1.68,1.09 -2.81,1.09 -0.55,0 -1.4,-0.12 -2.65,-0.31 l -2.35,-0.31 -0.47,2.18 z m -82.07,-50.78 c 2.7,-3.13 6.25,-4.69 10.63,-4.69 2.19,0 4.41,0.54 6.72,1.72 2.26,1.25 4.53,3.04 6.72,5.47 2.18,2.38 4.1,5.15 5.78,8.28 1.76,3.2 3.32,6.95 4.69,11.25 1.44,4.25 2.18,8.47 2.18,12.65 0,3.44 -0.78,6.02 -2.34,7.82 -1.56,1.75 -3.4,2.65 -5.47,2.65 -4.61,0 -9.14,-2.62 -13.59,-7.81 -4.38,-5.24 -7.62,-11.37 -9.69,-18.44 z m 14.85,50.78 -4.38,-14.69 c 4.57,5.39 8.67,9.22 12.35,11.41 3.63,2.18 7.34,3.28 11.09,3.28 3.75,0 6.91,-1.53 9.53,-4.53 2.7,-3.05 4.06,-6.96 4.06,-11.72 0,-9.3 -3.82,-18.75 -11.4,-28.44 -7.5,-9.61 -16.33,-14.38 -26.41,-14.38 -2.11,0 -3.98,0.28 -5.62,0.79 -1.57,0.43 -3.4,1.25 -5.47,2.5 l -4.69,-16.41 c -0.94,-3.2 -1.41,-5.31 -1.41,-6.25 0,-0.94 0.24,-1.72 0.79,-2.34 0.5,-0.71 1.28,-1.25 2.34,-1.57 1.13,-0.39 3.32,-0.62 6.56,-0.62 l -0.47,-2.35 h -30 l 0.63,2.35 c 3.98,0.23 6.64,0.9 7.97,2.03 1.36,1.17 2.81,4.45 4.37,9.84 l 16.1,55.63 c 0.93,3.51 1.4,5.7 1.4,6.56 0,1.13 -0.31,2.03 -0.94,2.66 -0.62,0.62 -1.64,0.93 -2.96,0.93 -1.25,0 -2.97,-0.15 -5.16,-0.46 v 2.5 l 21.72,3.28" /><path
         id="path40"
         style="fill:#231f20;fill-opacity:1;fill-rule:nonzero;stroke:none"
         d="m 3365.82,2132.03 v 2.66 c 6.33,-3.24 11.64,-6.99 15.94,-11.25 6.13,-6.25 10.82,-13.56 14.06,-21.88 3.32,-8.24 5,-16.87 5,-25.93 0,-13.13 -3.24,-25.08 -9.69,-35.78 -6.48,-10.82 -14.92,-18.6 -25.31,-23.29 v 2.35 c 5.2,2.93 9.45,6.87 12.81,11.87 3.32,5 5.82,11.33 7.5,18.91 1.64,7.69 2.5,15.7 2.5,24.06 0,9.06 -0.74,17.27 -2.18,24.69 -1.06,5.82 -2.35,10.51 -3.91,14.06 -1.56,3.52 -3.71,6.92 -6.41,10.16 -2.61,3.2 -6.05,6.33 -10.31,9.37 v 0" /><path
         id="path42"
         style="fill:#231f20;fill-opacity:1;fill-rule:nonzero;stroke:none"
         d="m 3455.98,2146.41 c 1.75,3.94 3.9,7.03 6.4,9.22 2.58,2.18 5.82,3.28 9.69,3.28 4.77,0 8.48,-1.56 11.09,-4.69 1.88,-2.3 2.82,-4.77 2.82,-7.34 0,-4.38 -2.74,-8.87 -8.13,-13.44 3.63,-1.49 6.41,-3.56 8.28,-6.25 1.88,-2.62 2.82,-5.74 2.82,-9.38 0,-5.11 -1.65,-9.53 -4.85,-13.28 -4.3,-5 -10.47,-7.5 -18.59,-7.5 -4.06,0 -6.84,0.47 -8.28,1.41 -1.49,1.01 -2.19,2.11 -2.19,3.28 0,0.94 0.35,1.72 1.09,2.34 0.71,0.63 1.57,0.94 2.5,0.94 0.71,0 1.45,-0.12 2.19,-0.31 0.51,-0.24 1.64,-0.78 3.44,-1.72 1.76,-0.86 2.97,-1.37 3.59,-1.56 1.13,-0.31 2.27,-0.47 3.44,-0.47 3.01,0 5.62,1.13 7.81,3.44 2.27,2.26 3.44,5.04 3.44,8.28 0,2.26 -0.55,4.53 -1.56,6.72 -0.86,1.64 -1.68,2.89 -2.5,3.75 -1.25,1.13 -3.05,2.18 -5.32,3.12 -2.18,0.94 -4.45,1.41 -6.71,1.41 h -1.41 v 1.4 c 2.38,0.32 4.73,1.14 7.03,2.5 2.27,1.33 3.95,2.97 5,4.85 1.13,1.95 1.72,4.1 1.72,6.4 0,3.01 -1.02,5.47 -2.97,7.35 -1.87,1.87 -4.22,2.81 -7.03,2.81 -4.49,0 -8.24,-2.46 -11.25,-7.34 z m -37.58,5.47 14.37,7.03 h 1.57 v -50.31 c 0,-3.36 0.07,-5.43 0.31,-6.25 0.31,-0.86 0.86,-1.49 1.72,-1.88 0.93,-0.43 2.73,-0.7 5.47,-0.78 v -1.56 h -22.5 v 1.56 c 2.81,0.08 4.61,0.35 5.46,0.78 0.83,0.39 1.41,0.98 1.72,1.72 0.32,0.7 0.47,2.85 0.47,6.41 v 32.18 c 0,4.38 -0.15,7.19 -0.47,8.44 -0.23,0.94 -0.58,1.6 -1.09,2.03 -0.55,0.39 -1.17,0.63 -1.88,0.63 -1.17,0 -2.65,-0.47 -4.53,-1.41 l -0.62,1.41" /><path
         id="path44"
         style="fill:#231f20;fill-opacity:1;fill-rule:nonzero;stroke:none"
         d="m 3541.56,2127.81 c -7.73,0 -13.9,-2.89 -18.59,-8.59 -5.86,-7.11 -8.75,-17.5 -8.75,-31.25 0,-14.06 3.01,-24.84 9.06,-32.34 4.57,-5.86 10.67,-8.75 18.28,-8.75 8.13,0 14.77,3.12 20,9.37 5.32,6.33 7.97,16.33 7.97,30 0,14.69 -2.93,25.67 -8.75,32.97 -4.69,5.7 -11.09,8.59 -19.22,8.59 z m 1.1,4.54 c 11.25,0 20.93,-4.22 29.06,-12.66 8.2,-8.44 12.34,-19.02 12.34,-31.72 0,-13.12 -4.18,-24.02 -12.5,-32.66 -8.24,-8.67 -18.2,-12.96 -29.84,-12.96 -11.88,0 -21.88,4.21 -30,12.65 -8.05,8.44 -12.03,19.3 -12.03,32.66 0,13.75 4.69,24.92 14.06,33.59 8.01,7.38 17.66,11.1 28.91,11.1 v 0" /><path
         id="path46"
         style="fill:none;stroke:#ee2329;stroke-width:8;stroke-linecap:square;stroke-linejoin:miter;stroke-miterlimit:3.79999995;stroke-dasharray:none;stroke-opacity:1"
         d="m 2576.48,2086.41 h 256.57" /><path
         id="path48"
         style="fill:none;stroke:#3b963e;stroke-width:8;stroke-linecap:square;stroke-linejoin:miter;stroke-miterlimit:3.79999995;stroke-dasharray:60, 30;stroke-dashoffset:0;stroke-opacity:1"
         d="m 2576.48,1892.5 h 256.57" /><path
         id="path50"
         style="fill:#231f20;fill-opacity:1;fill-rule:nonzero;stroke:none"
         d="m 2966.8,1926.29 v 29.53 l -20.78,-29.53 z m 15.31,0 v -6.25 h -7.97 v -15.78 h -7.34 v 15.78 h -25.16 v 5.63 l 27.66,39.37 h 4.84 v -38.75 z m -74.96,31.72 14.37,7.03 h 1.57 v -50.31 c 0,-3.36 0.07,-5.43 0.31,-6.25 0.31,-0.86 0.86,-1.49 1.72,-1.88 0.93,-0.43 2.73,-0.7 5.47,-0.78 v -1.56 h -22.5 v 1.56 c 2.81,0.08 4.61,0.35 5.46,0.78 0.83,0.39 1.41,0.98 1.72,1.72 0.32,0.71 0.47,2.85 0.47,6.41 v 32.19 c 0,4.37 -0.15,7.18 -0.47,8.43 -0.23,0.94 -0.58,1.6 -1.09,2.03 -0.55,0.4 -1.17,0.63 -1.88,0.63 -1.17,0 -2.65,-0.47 -4.53,-1.41 l -0.62,1.41" /><path
         id="path52"
         style="fill:#231f20;fill-opacity:1;fill-rule:nonzero;stroke:none"
         d="m 3121.37,1825 v -2.34 c -6.37,3.24 -11.68,6.99 -15.94,11.25 -6.05,6.17 -10.74,13.4 -14.06,21.72 -3.36,8.32 -5,16.95 -5,25.93 0,13.13 3.2,25.08 9.68,35.94 6.45,10.82 14.89,18.6 25.32,23.28 v -2.65 c -5.24,-2.93 -9.49,-6.88 -12.82,-11.88 -3.35,-5 -5.85,-11.37 -7.5,-19.06 -1.56,-7.62 -2.34,-15.59 -2.34,-23.91 0,-9.06 0.67,-17.3 2.03,-24.68 1.14,-5.86 2.5,-10.51 4.06,-14.07 1.57,-3.51 3.64,-6.91 6.25,-10.15 2.58,-3.21 6.02,-6.33 10.32,-9.38 z m -91.06,108.91 c -7.73,0 -13.9,-2.89 -18.59,-8.6 -5.86,-7.11 -8.75,-17.5 -8.75,-31.25 0,-14.06 3.01,-24.84 9.06,-32.34 4.57,-5.86 10.67,-8.75 18.28,-8.75 8.13,0 14.77,3.13 20,9.38 5.32,6.32 7.97,16.32 7.97,30 0,14.68 -2.93,25.66 -8.75,32.96 -4.69,5.71 -11.09,8.6 -19.22,8.6 z m 1.1,4.53 c 11.25,0 20.93,-4.22 29.06,-12.66 8.2,-8.43 12.34,-19.02 12.34,-31.72 0,-13.12 -4.18,-24.02 -12.5,-32.65 -8.24,-8.67 -18.2,-12.97 -29.84,-12.97 -11.88,0 -21.88,4.22 -30,12.66 -8.05,8.43 -12.03,19.29 -12.03,32.65 0,13.75 4.69,24.92 14.06,33.6 8.01,7.38 17.66,11.09 28.91,11.09 v 0" /><path
         id="path54"
         style="fill:#231f20;fill-opacity:1;fill-rule:nonzero;stroke:none"
         d="m 3139.88,1857.19 c 2.7,-3.13 6.25,-4.69 10.63,-4.69 2.19,0 4.41,0.55 6.72,1.72 2.26,1.25 4.53,3.05 6.72,5.47 2.18,2.38 4.1,5.16 5.78,8.28 1.75,3.2 3.32,6.95 4.68,11.25 1.45,4.26 2.19,8.48 2.19,12.66 0,3.43 -0.78,6.01 -2.34,7.81 -1.56,1.76 -3.4,2.66 -5.47,2.66 -4.61,0 -9.14,-2.62 -13.59,-7.82 -4.38,-5.23 -7.62,-11.36 -9.69,-18.43 z m 14.85,50.78 -4.38,-14.69 c 4.57,5.39 8.67,9.22 12.35,11.41 3.63,2.19 7.34,3.28 11.09,3.28 3.75,0 6.91,-1.52 9.53,-4.53 2.7,-3.05 4.06,-6.95 4.06,-11.72 0,-9.3 -3.83,-18.75 -11.4,-28.44 -7.5,-9.61 -16.33,-14.37 -26.41,-14.37 -2.11,0 -3.98,0.27 -5.62,0.78 -1.57,0.43 -3.4,1.25 -5.47,2.5 l -4.69,-16.41 c -0.94,-3.2 -1.41,-5.31 -1.41,-6.25 0,-0.93 0.24,-1.72 0.78,-2.34 0.51,-0.7 1.29,-1.25 2.35,-1.56 1.13,-0.39 3.32,-0.63 6.56,-0.63 l -0.47,-2.34 h -30 l 0.63,2.34 c 3.98,0.24 6.64,0.9 7.97,2.03 1.36,1.17 2.81,4.46 4.37,9.85 l 16.09,55.62 c 0.94,3.52 1.41,5.7 1.41,6.56 0,1.14 -0.31,2.04 -0.94,2.66 -0.62,0.63 -1.64,0.94 -2.97,0.94 -1.25,0 -2.96,-0.16 -5.15,-0.47 v 2.5 l 21.72,3.28" /><path
         id="path56"
         style="fill:#231f20;fill-opacity:1;fill-rule:nonzero;stroke:none"
         d="m 3286.33,1867.03 -5.94,-16.56 h -50.78 v 2.34 c 14.88,13.64 25.35,24.77 31.41,33.44 6.13,8.63 9.21,16.49 9.21,23.6 0,5.5 -1.68,10 -5,13.43 -3.35,3.52 -7.34,5.32 -12.03,5.32 -4.18,0 -7.97,-1.25 -11.4,-3.75 -3.36,-2.43 -5.78,-6.02 -7.35,-10.79 h -2.34 c 1.02,7.82 3.75,13.79 8.12,17.97 4.38,4.14 9.85,6.25 16.41,6.25 6.95,0 12.81,-2.26 17.5,-6.72 4.69,-4.49 7.03,-9.76 7.03,-15.78 0,-4.37 -1.05,-8.75 -3.12,-13.12 -3.13,-6.88 -8.21,-14.14 -15.16,-21.72 -10.55,-11.56 -17.15,-18.56 -19.84,-20.94 h 22.5 c 4.57,0 7.73,0.16 9.53,0.47 1.87,0.39 3.51,1.13 5,2.19 1.56,1.01 2.85,2.5 3.9,4.37 z m -86.13,-38.28 v 2.81 c 4.37,1.49 7.69,3.72 10,6.72 2.38,3.05 3.59,6.25 3.59,9.69 0,0.74 -0.16,1.41 -0.47,2.03 -0.31,0.31 -0.62,0.47 -0.94,0.47 -0.43,0 -1.4,-0.39 -2.97,-1.25 -0.86,-0.31 -1.68,-0.47 -2.5,-0.47 -2.11,0 -3.75,0.59 -5,1.72 -1.17,1.25 -1.71,2.97 -1.71,5.16 0,2.07 0.78,3.82 2.34,5.31 1.56,1.44 3.48,2.19 5.78,2.19 2.81,0 5.31,-1.21 7.5,-3.6 2.19,-2.42 3.28,-5.62 3.28,-9.68 0,-4.38 -1.52,-8.44 -4.53,-12.19 -3.05,-3.75 -7.81,-6.72 -14.37,-8.91 v 0" /><path
         id="path58"
         style="fill:#231f20;fill-opacity:1;fill-rule:nonzero;stroke:none"
         d="m 3307.93,1857.19 c 2.7,-3.13 6.25,-4.69 10.62,-4.69 2.19,0 4.42,0.55 6.72,1.72 2.27,1.25 4.53,3.05 6.72,5.47 2.19,2.38 4.1,5.16 5.78,8.28 1.76,3.2 3.32,6.95 4.69,11.25 1.45,4.26 2.19,8.48 2.19,12.66 0,3.43 -0.78,6.01 -2.35,7.81 -1.56,1.76 -3.39,2.66 -5.46,2.66 -4.61,0 -9.14,-2.62 -13.6,-7.82 -4.37,-5.23 -7.61,-11.36 -9.69,-18.43 z m 14.84,50.78 -4.37,-14.69 c 4.57,5.39 8.67,9.22 12.34,11.41 3.64,2.19 7.35,3.28 11.1,3.28 3.75,0 6.91,-1.52 9.53,-4.53 2.69,-3.05 4.06,-6.95 4.06,-11.72 0,-9.3 -3.83,-18.75 -11.41,-28.44 -7.5,-9.61 -16.32,-14.37 -26.4,-14.37 -2.11,0 -3.99,0.27 -5.63,0.78 -1.56,0.43 -3.4,1.25 -5.47,2.5 l -4.68,-16.41 c -0.94,-3.2 -1.41,-5.31 -1.41,-6.25 0,-0.93 0.23,-1.72 0.78,-2.34 0.51,-0.7 1.29,-1.25 2.34,-1.56 1.14,-0.39 3.33,-0.63 6.57,-0.63 l -0.47,-2.34 h -30 l 0.62,2.34 c 3.99,0.24 6.64,0.9 7.97,2.03 1.37,1.17 2.81,4.46 4.38,9.85 l 16.09,55.62 c 0.94,3.52 1.41,5.7 1.41,6.56 0,1.14 -0.32,2.04 -0.94,2.66 -0.63,0.63 -1.64,0.94 -2.97,0.94 -1.25,0 -2.97,-0.16 -5.16,-0.47 v 2.5 l 21.72,3.28" /><path
         id="path60"
         style="fill:#231f20;fill-opacity:1;fill-rule:nonzero;stroke:none"
         d="m 3364.18,1938.13 v 2.65 c 6.33,-3.24 11.64,-6.99 15.94,-11.25 6.13,-6.25 10.82,-13.55 14.06,-21.87 3.32,-8.24 5,-16.88 5,-25.94 0,-13.12 -3.24,-25.08 -9.69,-35.78 -6.48,-10.82 -14.92,-18.59 -25.31,-23.28 v 2.34 c 5.2,2.93 9.45,6.88 12.81,11.88 3.32,5 5.82,11.32 7.5,18.9 1.64,7.7 2.5,15.71 2.5,24.07 0,9.06 -0.74,17.26 -2.19,24.68 -1.05,5.82 -2.34,10.51 -3.9,14.07 -1.56,3.51 -3.71,6.91 -6.41,10.15 -2.61,3.2 -6.05,6.33 -10.31,9.38 v 0" /><path
         id="path62"
         style="fill:#231f20;fill-opacity:1;fill-rule:nonzero;stroke:none"
         d="m 3454.34,1952.54 c 1.75,3.95 3.9,7.03 6.4,9.22 2.58,2.19 5.82,3.28 9.69,3.28 4.77,0 8.48,-1.56 11.09,-4.69 1.88,-2.3 2.82,-4.76 2.82,-7.34 0,-4.38 -2.74,-8.87 -8.13,-13.44 3.63,-1.48 6.41,-3.55 8.28,-6.25 1.88,-2.62 2.81,-5.74 2.81,-9.37 0,-5.12 -1.64,-9.53 -4.84,-13.28 -4.3,-5 -10.47,-7.5 -18.59,-7.5 -4.07,0 -6.84,0.46 -8.28,1.4 -1.49,1.02 -2.19,2.11 -2.19,3.28 0,0.94 0.35,1.72 1.09,2.35 0.71,0.62 1.56,0.93 2.5,0.93 0.71,0 1.45,-0.11 2.19,-0.31 0.51,-0.23 1.64,-0.78 3.44,-1.72 1.76,-0.86 2.97,-1.36 3.59,-1.56 1.13,-0.31 2.27,-0.47 3.44,-0.47 3.01,0 5.62,1.13 7.81,3.44 2.27,2.27 3.44,5.04 3.44,8.28 0,2.27 -0.55,4.53 -1.56,6.72 -0.86,1.64 -1.68,2.89 -2.5,3.75 -1.25,1.13 -3.05,2.19 -5.32,3.12 -2.18,0.94 -4.45,1.41 -6.72,1.41 h -1.4 v 1.41 c 2.38,0.31 4.73,1.13 7.03,2.5 2.27,1.33 3.95,2.97 5,4.84 1.13,1.95 1.72,4.1 1.72,6.41 0,3 -1.02,5.47 -2.97,7.34 -1.88,1.88 -4.22,2.81 -7.03,2.81 -4.49,0 -8.24,-2.46 -11.25,-7.34 z m -37.58,5.47 14.37,7.03 h 1.57 v -50.31 c 0,-3.36 0.07,-5.43 0.31,-6.25 0.31,-0.86 0.86,-1.49 1.72,-1.88 0.93,-0.43 2.73,-0.7 5.47,-0.78 v -1.56 h -22.5 v 1.56 c 2.81,0.08 4.6,0.35 5.46,0.78 0.82,0.39 1.41,0.98 1.72,1.72 0.32,0.71 0.47,2.85 0.47,6.41 v 32.19 c 0,4.37 -0.15,7.18 -0.47,8.43 -0.23,0.94 -0.58,1.6 -1.09,2.03 -0.55,0.4 -1.17,0.63 -1.88,0.63 -1.17,0 -2.65,-0.47 -4.53,-1.41 l -0.62,1.41" /><path
         id="path64"
         style="fill:#231f20;fill-opacity:1;fill-rule:nonzero;stroke:none"
         d="m 3491.8,1936.56 h 23.43 l 52.5,-64.53 v 49.53 c 0,5.32 -0.58,8.64 -1.71,10 -1.57,1.76 -4.07,2.66 -7.5,2.66 h -2.97 v 2.34 h 30 v -2.34 h -2.97 c -3.67,0 -6.25,-1.09 -7.81,-3.28 -0.94,-1.37 -1.41,-4.49 -1.41,-9.38 v -72.5 h -2.34 l -56.72,69.38 v -53.13 c 0,-5.23 0.54,-8.51 1.72,-9.84 1.64,-1.8 4.14,-2.66 7.5,-2.66 h 2.96 v -2.34 h -29.84 v 2.34 h 2.97 c 3.63,0 6.25,1.1 7.81,3.29 0.94,1.32 1.41,4.41 1.41,9.21 v 60 c -2.5,2.89 -4.45,4.77 -5.78,5.63 -1.25,0.94 -3.13,1.8 -5.63,2.66 -1.25,0.39 -3.12,0.62 -5.62,0.62 v 2.34" /><path
         id="path66"
         style="fill:#231f20;fill-opacity:1;fill-rule:nonzero;stroke:none"
         d="m 496.801,297.461 c 0,-12.731 1.558,-23.121 4.687,-31.25 2.582,-6.789 6.481,-10.152 11.727,-10.152 2.375,0 4.875,1.089 7.5,3.281 2.683,2.269 4.715,5.98 6.086,11.09 2.07,7.89 3.133,18.992 3.133,33.281 0,10.508 -1.102,19.301 -3.293,26.41 -1.559,5.199 -3.672,8.91 -6.25,11.09 -1.871,1.57 -4.168,2.348 -6.871,2.348 -3.051,0 -5.782,-1.411 -8.282,-4.219 -3.234,-3.75 -5.468,-9.692 -6.718,-17.809 -1.172,-8.133 -1.719,-16.172 -1.719,-24.07 z m -13.442,1.719 c 0,10.629 1.602,19.73 4.856,27.351 3.195,7.578 7.414,13.278 12.644,17.028 4.141,3.011 8.442,4.531 12.825,4.531 7.07,0 13.425,-3.668 19.054,-10.942 7.071,-8.976 10.621,-21.168 10.621,-36.558 0,-10.738 -1.558,-19.84 -4.675,-27.34 -3.055,-7.5 -7.004,-12.969 -11.883,-16.41 -4.797,-3.442 -9.453,-5.16 -13.91,-5.16 -8.75,0 -16.09,5.242 -22.032,15.781 -5,8.75 -7.5,19.301 -7.5,31.719 z m -54.14,-1.719 c 0,-12.731 1.574,-23.121 4.691,-31.25 2.578,-6.789 6.481,-10.152 11.719,-10.152 2.383,0 4.883,1.089 7.5,3.281 2.691,2.269 4.73,5.98 6.09,11.09 2.07,7.89 3.129,18.992 3.129,33.281 0,10.508 -1.098,19.301 -3.278,26.41 -1.57,5.199 -3.679,8.91 -6.25,11.09 -1.879,1.57 -4.175,2.348 -6.879,2.348 -3.05,0 -5.781,-1.411 -8.281,-4.219 -3.242,-3.75 -5.469,-9.692 -6.719,-17.809 -1.171,-8.133 -1.722,-16.172 -1.722,-24.07 z m -13.426,1.719 c 0,10.629 1.602,19.73 4.836,27.351 3.203,7.578 7.422,13.278 12.664,17.028 4.141,3.011 8.426,4.531 12.805,4.531 7.07,0 13.445,-3.668 19.062,-10.942 7.07,-8.976 10.633,-21.168 10.633,-36.558 0,-10.738 -1.574,-19.84 -4.695,-27.34 -3.047,-7.5 -6.989,-12.969 -11.879,-16.41 -4.801,-3.442 -9.449,-5.16 -13.899,-5.16 -8.75,0 -16.101,5.242 -22.027,15.781 -5,8.75 -7.5,19.301 -7.5,31.719 z m -52.273,0.941 c -0.86,-6.172 -1.25,-11.09 -1.25,-14.84 0,-4.383 0.781,-9.179 2.339,-14.383 1.641,-5.117 4.075,-9.136 7.192,-12.027 2.379,-2.191 5.242,-3.281 8.59,-3.281 3.949,0 7.5,1.871 10.629,5.621 3.121,3.75 4.695,9.07 4.695,15.937 0,7.813 -1.574,14.532 -4.695,20.161 -3.129,5.703 -7.579,8.589 -13.282,8.589 -1.679,0 -3.519,-0.386 -5.468,-1.089 -1.993,-0.739 -4.922,-2.309 -8.75,-4.688 z m 42.5,47.969 v -2.66 c -6.059,-0.539 -11.02,-1.719 -14.836,-3.59 -3.75,-1.801 -7.5,-4.531 -11.25,-8.281 -3.684,-3.668 -6.719,-7.778 -9.219,-12.348 -2.422,-4.492 -4.465,-9.84 -6.106,-16.09 6.575,4.57 13.129,6.879 19.692,6.879 6.328,0 11.797,-2.578 16.414,-7.66 4.676,-5.121 7.023,-11.68 7.023,-19.692 0,-7.808 -2.347,-14.918 -7.023,-21.25 -5.633,-7.808 -13.094,-11.718 -22.356,-11.718 -6.355,0 -11.718,2.109 -16.089,6.41 -8.672,8.121 -12.969,18.672 -12.969,31.719 0,8.203 1.601,16.089 4.84,23.589 3.32,7.5 8.05,14.102 14.218,19.852 6.25,5.82 12.192,9.719 17.825,11.711 5.617,2.07 10.859,3.129 15.781,3.129 z M 303.684,289.961 h 35.457 v -10.313 h -35.457 v 10.313" /><path
         id="path68"
         style="fill:#231f20;fill-opacity:1;fill-rule:nonzero;stroke:none"
         d="m 1141.61,297.461 c 0,-12.731 1.56,-23.121 4.68,-31.25 2.58,-6.789 6.49,-10.152 11.72,-10.152 2.38,0 4.88,1.089 7.5,3.281 2.7,2.269 4.73,5.98 6.1,11.09 2.07,7.89 3.12,18.992 3.12,33.281 0,10.508 -1.09,19.301 -3.28,26.41 -1.56,5.199 -3.67,8.91 -6.25,11.09 -1.88,1.57 -4.18,2.348 -6.88,2.348 -3.04,0 -5.78,-1.411 -8.28,-4.219 -3.24,-3.75 -5.47,-9.692 -6.72,-17.809 -1.17,-8.133 -1.71,-16.172 -1.71,-24.07 z m -13.44,1.719 c 0,10.629 1.6,19.73 4.84,27.351 3.21,7.578 7.42,13.278 12.66,17.028 4.14,3.011 8.44,4.531 12.81,4.531 7.07,0 13.44,-3.668 19.06,-10.942 7.07,-8.976 10.63,-21.168 10.63,-36.558 0,-10.738 -1.56,-19.84 -4.69,-27.34 -3.05,-7.5 -6.99,-12.969 -11.87,-16.41 -4.81,-3.442 -9.46,-5.16 -13.91,-5.16 -8.75,0 -16.09,5.242 -22.03,15.781 -5,8.75 -7.5,19.301 -7.5,31.719 z m -54.14,-1.719 c 0,-12.731 1.56,-23.121 4.69,-31.25 2.57,-6.789 6.48,-10.152 11.71,-10.152 2.39,0 4.89,1.089 7.5,3.281 2.7,2.269 4.73,5.98 6.1,11.09 2.07,7.89 3.12,18.992 3.12,33.281 0,10.508 -1.09,19.301 -3.28,26.41 -1.56,5.199 -3.67,8.91 -6.25,11.09 -1.87,1.57 -4.18,2.348 -6.87,2.348 -3.05,0 -5.79,-1.411 -8.29,-4.219 -3.24,-3.75 -5.46,-9.692 -6.71,-17.809 -1.18,-8.133 -1.72,-16.172 -1.72,-24.07 z m -13.44,1.719 c 0,10.629 1.6,19.73 4.84,27.351 3.21,7.578 7.43,13.278 12.66,17.028 4.14,3.011 8.44,4.531 12.81,4.531 7.07,0 13.44,-3.668 19.06,-10.942 7.08,-8.976 10.63,-21.168 10.63,-36.558 0,-10.738 -1.56,-19.84 -4.69,-27.34 -3.04,-7.5 -6.99,-12.969 -11.87,-16.41 -4.81,-3.442 -9.46,-5.16 -13.91,-5.16 -8.75,0 -16.09,5.242 -22.03,15.781 -5,8.75 -7.5,19.301 -7.5,31.719 z m -31.21,-11.559 v 45.938 l -32.501,-45.938 z m 23.75,0 v -9.691 h -12.5 v -24.532 h -11.25 v 24.532 h -39.22 v 8.75 l 42.97,61.41 h 7.5 v -60.469 z m -104.65,2.34 h 35.469 V 279.648 H 948.48 v 10.313" /><path
         id="path70"
         style="fill:#231f20;fill-opacity:1;fill-rule:nonzero;stroke:none"
         d="m 1786.57,297.461 c 0,-12.731 1.56,-23.121 4.68,-31.25 2.58,-6.789 6.49,-10.152 11.72,-10.152 2.39,0 4.89,1.089 7.5,3.281 2.7,2.269 4.73,5.98 6.1,11.09 2.07,7.89 3.12,18.992 3.12,33.281 0,10.508 -1.09,19.301 -3.28,26.41 -1.56,5.199 -3.67,8.91 -6.25,11.09 -1.87,1.57 -4.18,2.348 -6.87,2.348 -3.05,0 -5.79,-1.411 -8.29,-4.219 -3.24,-3.75 -5.46,-9.692 -6.71,-17.809 -1.18,-8.133 -1.72,-16.172 -1.72,-24.07 z m -13.44,1.719 c 0,10.629 1.6,19.73 4.84,27.351 3.21,7.578 7.42,13.278 12.66,17.028 4.14,3.011 8.44,4.531 12.81,4.531 7.07,0 13.44,-3.668 19.06,-10.942 7.07,-8.976 10.63,-21.168 10.63,-36.558 0,-10.738 -1.56,-19.84 -4.69,-27.34 -3.05,-7.5 -6.99,-12.969 -11.87,-16.41 -4.81,-3.442 -9.46,-5.16 -13.91,-5.16 -8.75,0 -16.09,5.242 -22.03,15.781 -5,8.75 -7.5,19.301 -7.5,31.719 z m -54.14,-1.719 c 0,-12.731 1.56,-23.121 4.69,-31.25 2.57,-6.789 6.48,-10.152 11.71,-10.152 2.39,0 4.89,1.089 7.5,3.281 2.7,2.269 4.73,5.98 6.1,11.09 2.07,7.89 3.12,18.992 3.12,33.281 0,10.508 -1.09,19.301 -3.28,26.41 -1.56,5.199 -3.67,8.91 -6.25,11.09 -1.87,1.57 -4.18,2.348 -6.87,2.348 -3.05,0 -5.78,-1.411 -8.28,-4.219 -3.25,-3.75 -5.47,-9.692 -6.72,-17.809 -1.17,-8.133 -1.72,-16.172 -1.72,-24.07 z m -13.44,1.719 c 0,10.629 1.6,19.73 4.84,27.351 3.21,7.578 7.43,13.278 12.66,17.028 4.14,3.011 8.44,4.531 12.81,4.531 7.07,0 13.44,-3.668 19.07,-10.942 7.07,-8.976 10.62,-21.168 10.62,-36.558 0,-10.738 -1.56,-19.84 -4.69,-27.34 -3.04,-7.5 -6.99,-12.969 -11.87,-16.41 -4.81,-3.442 -9.45,-5.16 -13.91,-5.16 -8.75,0 -16.09,5.242 -22.03,15.781 -5,8.75 -7.5,19.301 -7.5,31.719 z m -8.36,-27.969 -6.56,-17.813 h -54.69 v 2.5 c 16.13,14.692 27.5,26.641 34.06,35.942 6.57,9.371 9.85,17.89 9.85,25.621 0,5.82 -1.84,10.629 -5.47,14.379 -3.56,3.832 -7.89,5.781 -12.97,5.781 -4.49,0 -8.55,-1.371 -12.19,-4.062 -3.67,-2.739 -6.33,-6.637 -7.97,-11.719 h -2.65 c 1.13,8.441 4.06,14.879 8.75,19.371 4.76,4.57 10.7,6.879 17.81,6.879 7.5,0 13.75,-2.461 18.75,-7.34 5.08,-4.809 7.66,-10.469 7.66,-17.039 0,-4.68 -1.1,-9.371 -3.28,-14.063 -3.44,-7.418 -8.91,-15.226 -16.41,-23.437 -11.37,-12.422 -18.52,-19.922 -21.41,-22.5 h 24.22 c 5,0 8.48,0.16 10.47,0.469 1.95,0.39 3.75,1.179 5.31,2.351 1.57,1.129 2.97,2.688 4.22,4.68 z m -103.75,18.75 h 35.47 v -10.313 h -35.47 v 10.313" /><path
         id="path72"
         style="fill:#231f20;fill-opacity:1;fill-rule:nonzero;stroke:none"
         d="m 2361.48,297.461 c 0,-12.731 1.57,-23.121 4.69,-31.25 2.58,-6.789 6.49,-10.152 11.72,-10.152 2.38,0 4.88,1.089 7.5,3.281 2.7,2.269 4.73,5.98 6.09,11.09 2.07,7.89 3.13,18.992 3.13,33.281 0,10.508 -1.09,19.301 -3.28,26.41 -1.56,5.199 -3.67,8.91 -6.25,11.09 -1.88,1.57 -4.18,2.348 -6.88,2.348 -3.04,0 -5.78,-1.411 -8.28,-4.219 -3.24,-3.75 -5.47,-9.692 -6.72,-17.809 -1.17,-8.133 -1.72,-16.172 -1.72,-24.07 z m -13.43,1.719 c 0,10.629 1.6,19.73 4.84,27.351 3.2,7.578 7.42,13.278 12.66,17.028 4.14,3.011 8.43,4.531 12.81,4.531 7.07,0 13.44,-3.668 19.06,-10.942 7.07,-8.976 10.63,-21.168 10.63,-36.558 0,-10.738 -1.57,-19.84 -4.69,-27.34 -3.05,-7.5 -6.99,-12.969 -11.88,-16.41 -4.8,-3.442 -9.45,-5.16 -13.9,-5.16 -8.75,0 -16.1,5.242 -22.03,15.781 -5,8.75 -7.5,19.301 -7.5,31.719 v 0" /><path
         id="path74"
         style="fill:#231f20;fill-opacity:1;fill-rule:nonzero;stroke:none"
         d="m 3073.63,297.461 c 0,-12.731 1.57,-23.121 4.69,-31.25 2.58,-6.789 6.48,-10.152 11.72,-10.152 2.38,0 4.88,1.089 7.5,3.281 2.69,2.269 4.73,5.98 6.09,11.09 2.07,7.89 3.13,18.992 3.13,33.281 0,10.508 -1.1,19.301 -3.28,26.41 -1.57,5.199 -3.68,8.91 -6.25,11.09 -1.88,1.57 -4.18,2.348 -6.88,2.348 -3.05,0 -5.78,-1.411 -8.28,-4.219 -3.24,-3.75 -5.47,-9.692 -6.72,-17.809 -1.17,-8.133 -1.72,-16.172 -1.72,-24.07 z m -13.43,1.719 c 0,10.629 1.6,19.73 4.84,27.351 3.2,7.578 7.42,13.278 12.66,17.028 4.14,3.011 8.43,4.531 12.81,4.531 7.07,0 13.44,-3.668 19.06,-10.942 7.07,-8.976 10.63,-21.168 10.63,-36.558 0,-10.738 -1.57,-19.84 -4.69,-27.34 -3.05,-7.5 -6.99,-12.969 -11.88,-16.41 -4.8,-3.442 -9.45,-5.16 -13.9,-5.16 -8.75,0 -16.1,5.242 -22.03,15.781 -5,8.75 -7.5,19.301 -7.5,31.719 z m -54.18,-1.719 c 0,-12.731 1.56,-23.121 4.68,-31.25 2.58,-6.789 6.49,-10.152 11.72,-10.152 2.38,0 4.88,1.089 7.5,3.281 2.7,2.269 4.73,5.98 6.1,11.09 2.07,7.89 3.12,18.992 3.12,33.281 0,10.508 -1.09,19.301 -3.28,26.41 -1.56,5.199 -3.67,8.91 -6.25,11.09 -1.88,1.57 -4.18,2.348 -6.88,2.348 -3.04,0 -5.78,-1.411 -8.28,-4.219 -3.24,-3.75 -5.47,-9.692 -6.72,-17.809 -1.17,-8.133 -1.71,-16.172 -1.71,-24.07 z m -13.44,1.719 c 0,10.629 1.6,19.73 4.84,27.351 3.21,7.578 7.42,13.278 12.66,17.028 4.14,3.011 8.44,4.531 12.81,4.531 7.07,0 13.44,-3.668 19.06,-10.942 7.07,-8.976 10.63,-21.168 10.63,-36.558 0,-10.738 -1.56,-19.84 -4.69,-27.34 -3.05,-7.5 -6.99,-12.969 -11.87,-16.41 -4.81,-3.442 -9.46,-5.16 -13.91,-5.16 -8.75,0 -16.09,5.242 -22.03,15.781 -5,8.75 -7.5,19.301 -7.5,31.719 z m -8.36,-27.969 -6.56,-17.813 h -54.69 v 2.5 c 16.13,14.692 27.5,26.641 34.06,35.942 6.56,9.371 9.85,17.89 9.85,25.621 0,5.82 -1.84,10.629 -5.47,14.379 -3.56,3.832 -7.89,5.781 -12.97,5.781 -4.49,0 -8.56,-1.371 -12.19,-4.062 -3.67,-2.739 -6.33,-6.637 -7.97,-11.719 h -2.65 c 1.13,8.441 4.06,14.879 8.75,19.371 4.76,4.57 10.7,6.879 17.81,6.879 7.5,0 13.75,-2.461 18.75,-7.34 5.08,-4.809 7.65,-10.469 7.65,-17.039 0,-4.68 -1.09,-9.371 -3.28,-14.063 -3.43,-7.418 -8.9,-15.226 -16.4,-23.437 -11.37,-12.422 -18.52,-19.922 -21.41,-22.5 h 24.22 c 5,0 8.48,0.16 10.47,0.469 1.95,0.39 3.75,1.179 5.31,2.351 1.56,1.129 2.97,2.688 4.22,4.68 h 2.5" /><path
         id="path76"
         style="fill:#231f20;fill-opacity:1;fill-rule:nonzero;stroke:none"
         d="m 3717.38,297.461 c 0,-12.731 1.57,-23.121 4.69,-31.25 2.58,-6.789 6.48,-10.152 11.72,-10.152 2.38,0 4.88,1.089 7.5,3.281 2.69,2.269 4.73,5.98 6.09,11.09 2.07,7.89 3.13,18.992 3.13,33.281 0,10.508 -1.1,19.301 -3.28,26.41 -1.57,5.199 -3.68,8.91 -6.25,11.09 -1.88,1.57 -4.18,2.348 -6.88,2.348 -3.05,0 -5.78,-1.411 -8.28,-4.219 -3.24,-3.75 -5.47,-9.692 -6.72,-17.809 -1.17,-8.133 -1.72,-16.172 -1.72,-24.07 z m -13.43,1.719 c 0,10.629 1.6,19.73 4.84,27.351 3.2,7.578 7.42,13.278 12.66,17.028 4.14,3.011 8.43,4.531 12.81,4.531 7.07,0 13.44,-3.668 19.06,-10.942 7.07,-8.976 10.63,-21.168 10.63,-36.558 0,-10.738 -1.57,-19.84 -4.69,-27.34 -3.05,-7.5 -6.99,-12.969 -11.88,-16.41 -4.8,-3.442 -9.45,-5.16 -13.9,-5.16 -8.75,0 -16.1,5.242 -22.03,15.781 -5,8.75 -7.5,19.301 -7.5,31.719 z m -54.15,-1.719 c 0,-12.731 1.57,-23.121 4.69,-31.25 2.58,-6.789 6.49,-10.152 11.72,-10.152 2.38,0 4.88,1.089 7.5,3.281 2.7,2.269 4.73,5.98 6.09,11.09 2.08,7.89 3.13,18.992 3.13,33.281 0,10.508 -1.09,19.301 -3.28,26.41 -1.56,5.199 -3.67,8.91 -6.25,11.09 -1.88,1.57 -4.18,2.348 -6.88,2.348 -3.04,0 -5.78,-1.411 -8.28,-4.219 -3.24,-3.75 -5.47,-9.692 -6.72,-17.809 -1.17,-8.133 -1.72,-16.172 -1.72,-24.07 z m -13.43,1.719 c 0,10.629 1.6,19.73 4.84,27.351 3.2,7.578 7.42,13.278 12.66,17.028 4.14,3.011 8.43,4.531 12.81,4.531 7.07,0 13.44,-3.668 19.06,-10.942 7.07,-8.976 10.63,-21.168 10.63,-36.558 0,-10.738 -1.57,-19.84 -4.69,-27.34 -3.05,-7.5 -6.99,-12.969 -11.88,-16.41 -4.8,-3.442 -9.45,-5.16 -13.9,-5.16 -8.75,0 -16.1,5.242 -22.03,15.781 -5,8.75 -7.5,19.301 -7.5,31.719 z m -31.17,-11.559 v 45.938 l -32.5,-45.938 z m 23.75,0 v -9.691 h -12.5 v -24.532 h -11.25 v 24.532 h -39.22 v 8.75 l 42.97,61.41 h 7.5 v -60.469 h 12.5" /><path
         id="path78"
         style="fill:#231f20;fill-opacity:1;fill-rule:nonzero;stroke:none"
         d="m 1743.17,96.5703 c 6.25,-1.6797 11.29,-2.5 15.15,-2.5 6.02,0 11.49,1.25 16.41,3.75 5,2.4997 8.91,6.2497 11.72,11.2497 2.81,5 4.22,10.149 4.22,15.461 0,5.629 -1.72,10.039 -5.16,13.289 -3.44,3.321 -8.67,5 -15.62,5 -3.75,0 -8.36,-0.468 -13.75,-1.41 z M 1727.7,148.91 h 44.37 c 11.57,0 20.2,-2.5 25.94,-7.5 5.82,-5 8.75,-11.09 8.75,-18.281 0,-5.738 -1.83,-11.328 -5.47,-16.719 -3.67,-5.308 -9.06,-9.6483 -16.25,-12.9686 -7.18,-3.3594 -15,-5 -23.43,-5 -5.24,0 -11.84,0.9375 -19.85,2.8086 l -8.9,-30.6211 c -2.11,-7.418 -3.13,-12.2695 -3.13,-14.5273 0,-1.8008 0.7,-3.2422 2.19,-4.3828 1.44,-1.168 5.04,-1.8672 10.78,-2.1875 l -0.94,-3.1211 h -44.69 l 0.94,3.1211 c 5.82,0 9.88,0.9804 12.19,2.9687 2.26,1.9609 4.76,7.5391 7.5,16.7188 l 18.59,64.0622 c 2.19,7.699 3.28,12.86 3.28,15.469 0,1.961 -0.78,3.602 -2.34,4.852 -1.56,1.25 -5.08,2.027 -10.47,2.339 l 0.94,2.969" /><path
         id="path80"
         style="fill:#231f20;fill-opacity:1;fill-rule:nonzero;stroke:none"
         d="m 1843.09,126.41 -10.16,24.059 -10.31,-24.059 z m 1.25,-3.281 h -23.12 l -4.07,-9.379 c -1.05,-2.418 -1.56,-4.18 -1.56,-5.309 0,-0.859 0.39,-1.64 1.25,-2.339 0.94,-0.743 2.85,-1.211 5.78,-1.411 v -1.562 h -18.75 v 1.562 c 2.38,0.508 3.95,1.09 4.69,1.719 1.56,1.449 3.2,4.301 5,8.59 l 20.94,49.07 h 1.56 l 20.78,-49.539 c 1.64,-3.98 3.16,-6.562 4.53,-7.812 1.33,-1.168 3.28,-1.828 5.78,-2.028 v -1.562 h -23.59 v 1.562 c 2.38,0.2 3.98,0.629 4.84,1.25 0.82,0.629 1.25,1.45 1.25,2.5 0,1.25 -0.58,3.278 -1.72,6.09 l -3.59,8.598" /><path
         id="path82"
         style="fill:#231f20;fill-opacity:1;fill-rule:nonzero;stroke:none"
         d="m 1822.89,7.42969 c 3.33,-0.85938 6.65,-1.25 10,-1.25 5.32,0 9.3,1.17187 12.04,3.58984 2.81,2.37887 4.21,5.35157 4.21,8.91017 0,2.2617 -0.62,4.4492 -1.87,6.5625 -1.25,2.1875 -3.28,3.8281 -6.09,5 -2.82,1.25 -6.37,1.8672 -10.63,1.8672 -1.8,0 -3.36,-0.0781 -4.69,-0.1485 -1.25,0 -2.26,-0.082 -2.97,-0.1601 z m 0,28.42971 c 1.02,-0.2305 2.23,-0.3906 3.6,-0.4688 1.44,-0.1093 3.01,-0.1484 4.69,-0.1484 4.25,0 7.42,0.4687 9.53,1.3984 2.18,0.9414 3.83,2.3516 5,4.2188 1.13,1.8828 1.72,3.9492 1.72,6.25 0,3.4414 -1.41,6.4101 -4.22,8.9101 -2.82,2.5 -6.99,3.75 -12.5,3.75 -2.93,0 -5.55,-0.3906 -7.82,-1.0898 z m 22.97,-2.3399 c 4.14,-0.9375 7.23,-2.3398 9.22,-4.2187 2.89,-2.7305 4.38,-6.0508 4.38,-10 0,-2.9297 -0.94,-5.7422 -2.82,-8.4414 -1.87,-2.73049 -4.49,-4.67971 -7.81,-5.92971 -3.24,-1.25 -8.2,-1.87891 -14.84,-1.87891 h -28.13 v 1.5586 h 2.19 c 2.5,0 4.26,0.82031 5.31,2.5 0.71,0.9414 1.1,3.13282 1.1,6.57032 v 38.4297 c 0,3.6406 -0.43,5.9804 -1.25,7.0312 -1.17,1.25 -2.89,1.8789 -5.16,1.8789 h -2.19 v 1.5625 h 25.63 c 4.88,0 8.75,-0.3125 11.56,-0.9414 4.45,-1.0508 7.85,-2.9297 10.16,-5.6211 2.26,-2.7382 3.43,-5.7773 3.43,-9.2187 0,-3.0508 -0.93,-5.7422 -2.81,-8.1211 -1.79,-2.3086 -4.45,-4.0313 -7.97,-5.1602 v 0" /><path
         id="path84"
         style="fill:#231f20;fill-opacity:1;fill-rule:nonzero;stroke:none"
         d="M 2368.44,154.379 2327.66,34.0703 h -6.57 l 40.63,120.3087 z m -47.58,-5.469 v -2.969 c -3.98,-0.742 -6.95,-2.031 -8.91,-3.91 -3.04,-2.73 -5.62,-6.832 -7.81,-12.34 l -39.37,-95.7808 h -2.97 l -42.19,97.0308 c -2.19,4.879 -3.71,7.891 -4.53,9.059 -1.49,1.641 -3.2,2.969 -5.16,3.91 -1.99,1.02 -4.69,1.719 -8.12,2.031 v 2.969 h 45.93 v -2.969 c -5.23,-0.55 -8.59,-1.41 -10.15,-2.66 -1.56,-1.25 -2.35,-2.922 -2.35,-5 0,-2.73 1.29,-6.992 3.91,-12.812 l 28.59,-66.0901 26.57,65.1521 c 2.58,6.449 3.9,10.938 3.9,13.438 0,1.562 -0.86,3.051 -2.5,4.531 -1.56,1.449 -4.29,2.5 -8.12,3.129 -0.24,0.082 -0.7,0.191 -1.41,0.312 v 2.969 z M 2144.41,88.6016 h 35.16 c -0.31,4.8789 -0.9,8.3203 -1.72,10.3086 -1.37,3.1208 -3.44,5.5508 -6.25,7.3398 -2.73,1.762 -5.58,2.66 -8.59,2.66 -4.61,0 -8.71,-1.84 -12.35,-5.469 -3.55,-3.5504 -5.62,-8.5113 -6.25,-14.8394 z m 0,-4.8516 c -0.11,-11.25 2.58,-20.1094 8.13,-26.5586 5.62,-6.3711 12.11,-9.5312 19.53,-9.5312 5,0 9.3,1.332 12.97,4.0586 3.75,2.7031 6.87,7.3906 9.37,14.0625 l 2.5,-1.711 c -1.17,-7.5 -4.53,-14.3789 -10.15,-20.6289 -5.55,-6.25 -12.5,-9.3711 -20.94,-9.3711 -9.18,0 -17.03,3.5117 -23.59,10.6211 -6.49,7.1875 -9.69,16.7578 -9.69,28.75 0,13.0078 3.32,23.168 10,30.4686 6.64,7.27 15.04,10.942 25.16,10.942 8.51,0 15.5,-2.821 20.93,-8.442 5.51,-5.629 8.28,-13.1991 8.28,-22.66 z m -96.79,-47.3398 -43.44,94.6918 V 55.9414 c 0,-6.9922 0.7,-11.332 2.19,-12.9726 2.07,-2.2969 5.31,-3.4375 9.68,-3.4375 h 4.07 v -3.1211 h -39.22 v 3.1211 h 4.06 c 4.69,0 8.01,1.4101 10,4.2187 1.25,1.7617 1.88,5.8203 1.88,12.1914 v 73.5896 c 0,4.891 -0.59,8.481 -1.72,10.789 -0.74,1.559 -2.15,2.852 -4.22,3.899 -2.11,1.14 -5.43,1.722 -10,1.722 v 2.969 h 31.87 l 40.78,-87.9686 40.32,87.9686 h 31.87 v -2.969 h -3.9 c -4.93,0 -8.36,-1.48 -10.32,-4.371 -1.17,-1.8 -1.72,-5.789 -1.72,-12.039 V 55.9414 c 0,-6.9922 0.71,-11.332 2.19,-12.9726 2.07,-2.2969 5.35,-3.4375 9.85,-3.4375 h 3.9 v -3.1211 h -47.81 v 3.1211 h 3.91 c 4.76,0 8.16,1.4101 10.15,4.2187 1.25,1.7617 1.88,5.8203 1.88,12.1914 V 131.102 L 2050.43,36.4102 Z M 1975.2,3.12891 V 0 c -8.36,4.30078 -15.32,9.21875 -20.94,14.8516 -7.93,8.039 -14.06,17.457 -18.44,28.2773 -4.3,10.9414 -6.41,22.2617 -6.41,34.0625 0,17.1875 4.22,32.8086 12.66,46.8786 8.44,14.141 19.45,24.25 33.13,30.309 v -3.438 c -6.8,-3.75 -12.35,-8.91 -16.72,-15.472 -4.38,-6.477 -7.66,-14.758 -9.85,-24.84 -2.18,-10 -3.28,-20.4298 -3.28,-31.2501 0,-11.8789 0.94,-22.6601 2.81,-32.3476 1.45,-7.6094 3.17,-13.6719 5.16,-18.2813 2.07,-4.6797 4.84,-9.1406 8.28,-13.4297 3.44,-4.2617 7.97,-8.3203 13.6,-12.19139 v 0" /><path
         id="path86"
         style="fill:#231f20;fill-opacity:1;fill-rule:nonzero;stroke:none"
         d="m 2432.66,54.5313 c -5.75,-6.9922 -11.57,-12.1016 -17.5,-15.3125 -5.86,-3.1993 -12,-4.8399 -18.44,-4.8399 -7.93,0 -14.06,2.1914 -18.44,6.5625 -4.37,4.4492 -6.56,10.4688 -6.56,17.9688 0,8.4414 2.34,16.7617 7.03,25 4.77,8.1992 11.13,14.8789 19.06,19.9998 8.01,5.082 15.86,7.66 23.6,7.66 6.01,0 10.5,-1.328 13.43,-3.91 3.01,-2.5 4.54,-5.59 4.54,-9.2186 0,-3.4414 -1.06,-6.3711 -3.13,-8.75 -1.56,-1.8711 -3.44,-2.8125 -5.62,-2.8125 -1.8,0 -3.25,0.5117 -4.38,1.5625 -1.17,1.1289 -1.72,2.5391 -1.72,4.2188 0,1.0195 0.2,1.9492 0.63,2.8086 0.39,0.9414 1.25,2.0312 2.5,3.2812 1.32,1.25 2.18,2.109 2.5,2.66 0.31,0.621 0.47,1.25 0.47,1.871 0,1.141 -0.59,2.078 -1.72,2.821 -1.57,1.128 -3.83,1.718 -6.72,1.718 -5.43,0 -10.78,-1.961 -16.1,-5.789 -5.31,-3.7497 -9.84,-9.1716 -13.59,-16.2497 -4.61,-8.5508 -6.87,-17.1016 -6.87,-25.6211 0,-5.6289 1.6,-10.1211 4.84,-13.4414 3.2,-3.2383 7.58,-4.8399 13.12,-4.8399 4.26,0 8.48,1.0117 12.66,3.1211 4.14,2.1914 8.83,6.1016 14.06,11.7188 l 2.35,-2.1875" /><path
         id="path88"
         style="fill:#231f20;fill-opacity:1;fill-rule:nonzero;stroke:none"
         d="m 2444.73,150.941 v 3.438 c 8.43,-4.059 15.47,-8.988 21.09,-14.688 7.89,-8.05 13.98,-17.5 18.28,-28.441 4.38,-10.859 6.56,-22.1406 6.56,-33.8984 0,-17.1914 -4.21,-32.8203 -12.65,-46.8828 C 2469.57,16.332 2458.48,6.17969 2444.73,0 v 3.12891 c 6.87,3.87109 12.5,9.01949 16.87,15.47269 4.38,6.4804 7.58,14.6797 9.69,24.6797 2.19,10.0781 3.28,20.6289 3.28,31.5703 0,11.7578 -0.9,22.539 -2.66,32.3394 -1.48,7.579 -3.24,13.668 -5.31,18.278 -1.99,4.57 -4.69,8.992 -8.12,13.281 -3.44,4.262 -8.05,8.32 -13.75,12.191 v 0" /><path
         id="path90"
         style="fill:#231f20;fill-opacity:1;fill-rule:nonzero;stroke:none"
         d="m 1872.39,10.4688 0.31,0.3906 1.29,1.289 0.31,0.3907 0.35,0.3515 0.43,0.3594 0.31,0.3906 0.94,0.9297 0.31,0.3594 0.36,0.3125 0.23,0.2695 0.63,0.5899 0.58,0.5078 0.59,0.4609 0.51,0.5117 0.58,0.5078 1.1,0.9415 0.46,0.4296 0.63,0.5 c 0,0.0782 5.19,4.5391 8.12,7.5391 8.01,7.7422 9.84,11.7617 9.84,12.1094 0,0.8203 -0.74,0.8203 -0.93,0.8203 -0.59,0 -0.82,-0.1484 -1.25,-0.8984 -2.54,-4.0196 -4.3,-5.3907 -6.29,-5.3907 -2.03,0 -2.97,1.25 -4.22,2.6992 -1.6,1.9102 -3,3.5899 -5.78,3.5899 -6.33,0 -10.12,-7.8086 -10.12,-9.5703 0,-0.4297 0.2,-0.8985 0.94,-0.8985 0.78,0 0.94,0.3985 1.1,0.8985 1.6,3.8711 6.48,3.9492 7.14,3.9492 1.76,0 3.36,-0.5898 5.28,-1.25 3.28,-1.25 4.21,-1.25 6.4,-1.25 -3,-3.6289 -10,-9.5664 -11.6,-10.9375 l -7.54,-6.9492 c -5.66,-5.63284 -8.59,-10.42971 -8.59,-11.02346 0,-0.77735 0.86,-0.77735 1.01,-0.77735 0.67,0 0.82,0.19922 1.33,1.08985 1.96,2.89844 4.46,5.16015 7.07,5.16015 1.96,0 2.78,-0.78125 4.89,-3.19921 1.4,-1.76172 2.93,-3.05079 5.35,-3.05079 8.24,0 13.12,10.62891 13.12,12.89061 0,0.3086 -0.35,0.8203 -1.02,0.8203 -0.74,0 -0.9,-0.5117 -1.17,-1.0898 -1.91,-5.47267 -7.22,-7.07032 -9.99,-7.07032 -1.68,0 -3.21,0.50781 -4.97,1.08984 -2.85,1.09768 -4.1,1.44918 -5.86,1.44918 -0.19,0 -1.44,0 -2.18,-0.2421 v 0" /><path
         id="path92"
         style="fill:#231f20;fill-opacity:1;fill-rule:nonzero;stroke:none"
         d="m 327.148,392.461 c 0,-11.871 1.45,-21.563 4.379,-29.063 2.383,-6.25 5.973,-9.367 10.782,-9.367 2.261,0 4.609,0.969 7.031,2.969 2.5,2.07 4.383,5.539 5.621,10.461 1.957,7.187 2.969,17.43 2.969,30.789 0,9.762 -1.051,17.961 -3.121,24.531 -1.489,4.879 -3.438,8.321 -5.938,10.309 -1.68,1.332 -3.75,2.031 -6.25,2.031 -2.812,0 -5.391,-1.25 -7.66,-3.75 -3.043,-3.551 -5.113,-9.141 -6.238,-16.723 -1.063,-7.5 -1.575,-14.918 -1.575,-22.187 z m -12.5,1.57 c 0,9.758 1.45,18.199 4.379,25.309 3.016,7.191 6.953,12.5 11.871,15.941 3.832,2.688 7.825,4.059 11.879,4.059 6.563,0 12.422,-3.36 17.653,-10 6.574,-8.36 9.847,-19.649 9.847,-33.91 0,-10 -1.488,-18.508 -4.375,-25.469 -2.812,-6.992 -6.484,-12.102 -10.941,-15.313 -4.492,-3.117 -8.738,-4.687 -12.813,-4.687 -8.238,0 -15.105,4.848 -20.621,14.539 -4.609,8.199 -6.879,18.039 -6.879,29.531 v 0" /><path
         id="path94"
         style="fill:#231f20;fill-opacity:1;fill-rule:nonzero;stroke:none"
         d="m 325.629,735.672 20.941,10.148 h 2.028 v -72.648 c 0,-4.813 0.191,-7.813 0.621,-9.063 0.39,-1.179 1.25,-2.039 2.5,-2.66 1.25,-0.629 3.793,-1.019 7.66,-1.09 v -2.347 h -32.336 v 2.347 c 4.055,0.071 6.641,0.461 7.805,1.09 1.25,0.621 2.07,1.442 2.5,2.5 0.511,1.012 0.781,4.102 0.781,9.223 v 46.398 c 0,6.328 -0.238,10.391 -0.629,12.192 -0.309,1.328 -0.891,2.347 -1.707,2.968 -0.754,0.629 -1.684,0.942 -2.824,0.942 -1.559,0 -3.707,-0.711 -6.399,-2.031 l -0.941,2.031" /><path
         id="path96"
         style="fill:#231f20;fill-opacity:1;fill-rule:nonzero;stroke:none"
         d="m 370.793,990.281 -5.945,-16.57 H 314.07 v 2.348 c 14.879,13.632 25.348,24.761 31.399,33.441 6.14,8.63 9.222,16.48 9.222,23.59 0,5.51 -1.679,10 -5,13.44 -3.359,3.51 -7.343,5.31 -12.031,5.31 -4.18,0 -7.969,-1.25 -11.41,-3.75 -3.359,-2.42 -5.781,-6.02 -7.34,-10.78 h -2.34 c 1.012,7.81 3.75,13.79 8.121,17.97 4.379,4.14 9.852,6.25 16.407,6.25 6.953,0 12.812,-2.27 17.5,-6.72 4.695,-4.49 7.031,-9.77 7.031,-15.78 0,-4.38 -1.059,-8.75 -3.129,-13.13 -3.121,-6.87 -8.199,-14.14 -15.152,-21.72 C 336.801,992.621 330.199,985.629 327.5,983.25 H 350 c 4.57,0 7.738,0.148 9.543,0.461 1.867,0.398 3.508,1.141 5,2.187 1.555,1.024 2.852,2.5 3.898,4.383 h 2.352" /><path
         id="path98"
         style="fill:#231f20;fill-opacity:1;fill-rule:nonzero;stroke:none"
         d="m 319.262,1353.36 c 2.5,5.82 5.633,10.31 9.383,13.44 3.75,3.12 8.359,4.69 13.894,4.69 6.965,0 12.27,-2.27 15.941,-6.72 2.809,-3.36 4.219,-6.88 4.219,-10.63 0,-6.36 -3.976,-12.89 -11.879,-19.53 5.325,-2.11 9.301,-5.08 12.039,-8.91 2.692,-3.86 4.059,-8.39 4.059,-13.59 0,-7.42 -2.414,-13.83 -7.188,-19.22 -6.171,-7.19 -15.082,-10.78 -26.718,-10.78 -5.864,0 -9.797,0.74 -11.867,2.19 -2.118,1.44 -3.133,3.01 -3.133,4.69 0,1.25 0.468,2.26 1.406,3.12 1.012,0.94 2.223,1.41 3.594,1.41 1.015,0 2.109,-0.16 3.277,-0.47 0.715,-0.24 2.356,-1.02 4.856,-2.35 2.578,-1.25 4.367,-2.03 5.304,-2.34 1.563,-0.43 3.203,-0.62 5,-0.62 4.266,0 8.016,1.64 11.25,5 3.199,3.32 4.84,7.26 4.84,11.87 0,3.32 -0.738,6.56 -2.18,9.69 -1.179,2.38 -2.429,4.22 -3.75,5.47 -1.8,1.64 -4.3,3.16 -7.5,4.53 -3.129,1.33 -6.371,2.03 -9.691,2.03 h -2.023 v 2.03 c 3.32,0.39 6.632,1.6 10,3.59 3.425,1.96 5.859,4.3 7.335,7.04 1.559,2.81 2.34,5.93 2.34,9.37 0,4.26 -1.355,7.74 -4.058,10.47 -2.735,2.7 -6.094,4.06 -10.153,4.06 -6.57,0 -12.039,-3.51 -16.41,-10.47 l -2.187,0.94" /><path
         id="path100"
         style="fill:#231f20;fill-opacity:1;fill-rule:nonzero;stroke:none"
         d="m 349.648,1628.95 v 42.81 l -30.144,-42.81 z m 22.032,0 v -9.07 h -11.559 v -22.65 h -10.473 v 22.65 h -36.394 v 8.13 l 40,57.03 h 6.867 v -56.09 h 11.559" /><path
         id="path102"
         style="fill:#231f20;fill-opacity:1;fill-rule:nonzero;stroke:none"
         d="m 63.7188,649.57 c -3.3282,0 -5.9805,-1.011 -7.9649,-2.961 -2.0742,-1.879 -3.1328,-4.339 -3.1328,-7.347 0,-6.563 5.4297,-13.403 16.25,-20.473 10.8594,-7.109 21.2109,-10.617 31.0898,-10.617 3.8711,0 6.8401,0.816 8.9101,2.5 2.109,1.758 3.133,3.828 3.133,6.25 0,5.387 -5.82,12.187 -17.5001,20.308 -11.7656,8.2 -22.043,12.34 -30.7851,12.34 z M 8.25,678.48 100.43,651.609 c 5,-1.488 8.293,-2.187 9.847,-2.187 0.543,0 1.055,0.187 1.563,0.617 0.43,0.512 0.621,0.981 0.621,1.41 0,0.699 -0.352,1.563 -1.09,2.5 -1.25,1.762 -4.367,4.731 -9.367,8.91 l 1.719,2.653 c 5.226,-3.75 9.445,-7.582 12.648,-11.403 3.199,-3.871 4.852,-7.468 4.852,-10.789 0,-1.789 -0.633,-3.238 -1.883,-4.371 -1.25,-1.168 -3.008,-1.719 -5.313,-1.719 -3.007,0 -7.023,0.782 -12.023,2.34 l -9.6954,3.129 c 11.6794,-7.617 19.7614,-14.488 24.2184,-20.629 3.121,-4.289 4.696,-8.39 4.696,-12.34 0,-3.98 -1.805,-7.421 -5.325,-10.308 -3.503,-2.934 -8.316,-4.383 -14.371,-4.383 -7.695,0 -15.9372,2.422 -24.6872,7.352 -8.8281,5 -16.0195,11.558 -21.5625,19.679 -4.457,6.328 -6.7187,12.231 -6.7187,17.66 0,2.809 0.582,5.2 1.7187,7.192 1.1719,2.066 3.0821,4.098 5.7813,6.09 l -27.1875,7.66 c -1.9531,0.508 -3.5117,0.969 -4.6914,1.398 -2.0703,0.629 -3.7891,0.942 -5.1524,0.942 -1.0156,0 -1.9179,-0.43 -2.6562,-1.25 -0.9414,-1.051 -1.4102,-2.461 -1.4102,-4.223 0,-1.168 0.2383,-3.117 0.6289,-5.93 H 12.6211 L 8.25,678.48" /><path
         id="path104"
         style="fill:#231f20;fill-opacity:1;fill-rule:nonzero;stroke:none"
         d="m 61.5273,725.391 c 0.1133,-13.121 4.8438,-22.422 14.2266,-27.809 9.2852,-5.312 18.6641,-7.973 28.1171,-7.973 9.18,0 13.75,3.95 13.75,11.879 0,7.582 -5.039,13.981 -15.16,19.223 -10.0665,5.187 -19.5704,7.809 -28.4337,7.809 -5.3085,0 -9.457,-1.059 -12.5,-3.129 z m -11.0976,32.347 11.0976,-3.129 v -25.308 c 6.0547,7.269 12.8907,10.937 20.4766,10.937 9.9141,0 18.8941,-3.867 27.0231,-11.558 8.121,-7.621 12.196,-16.801 12.196,-27.5 0,-7.5 -2.082,-13.36 -6.262,-17.5 -4.141,-4.071 -9.723,-6.098 -16.7071,-6.098 -6.6445,0 -13.6016,1.559 -20.793,4.688 -7.2617,3.121 -12.9961,7.378 -17.1836,12.812 -4.1328,5.387 -6.7968,11.02 -7.9687,16.879 -1.25,5.93 -1.8789,15.07 -1.8789,27.5 v 18.277" /><path
         id="path106"
         style="fill:#231f20;fill-opacity:1;fill-rule:nonzero;stroke:none"
         d="m 8.25,798.68 113.277,-38.289 v -6.25 L 8.25,792.43 v 6.25" /><path
         id="path108"
         style="fill:#231f20;fill-opacity:1;fill-rule:nonzero;stroke:none"
         d="m 62.7773,920.16 c 1.4844,5.82 2.1836,10.551 2.1836,14.219 0,5.621 -1.1289,10.781 -3.4336,15.473 -2.3867,4.679 -5.9375,8.32 -10.625,10.929 -4.6835,2.578 -9.5312,3.91 -14.5312,3.91 -5.3125,0 -9.4531,-1.64 -12.5,-4.839 -3.1172,-3.243 -4.6914,-8.133 -4.6914,-14.692 0,-3.551 0.4687,-7.808 1.4101,-12.808 z m -49.375,-14.691 v 41.722 c 0,10.938 2.3516,19.098 7.0274,24.528 4.6914,5.39 10.4297,8.133 17.1914,8.133 5.4297,0 10.6992,-1.723 15.7773,-5.161 5.0039,-3.441 9.0625,-8.55 12.1914,-15.312 3.129,-6.797 4.6875,-14.059 4.6875,-21.879 0,-4.918 -0.8593,-11.168 -2.6562,-18.75 l 28.9062,-8.43 c 6.8747,-2 11.4027,-2.968 13.5937,-2.968 1.68,0 3.094,0.66 4.219,2.027 1.051,1.441 1.719,4.84 2.031,10.152 l 2.969,-0.781 v -42.18 l -2.969,0.93 c 0,5.512 -0.941,9.379 -2.812,11.57 -1.879,2.18 -7.11,4.532 -15.7817,7.032 l -60.3164,17.5 c -7.1836,2.07 -12.0312,3.117 -14.5312,3.117 -1.75,0 -3.1992,-0.778 -4.3711,-2.34 -1.25,-1.488 -2.0313,-4.688 -2.3398,-9.688 z M 63.7188,856.68 c -3.3282,0 -5.9805,-1.008 -7.9649,-2.969 -2.0742,-1.871 -3.1328,-4.332 -3.1328,-7.34 0,-6.562 5.4297,-13.402 16.25,-20.473 10.8594,-7.109 21.2109,-10.617 31.0898,-10.617 3.8711,0 6.8401,0.821 8.9101,2.5 2.109,1.75 3.133,3.828 3.133,6.25 0,5.391 -5.82,12.18 -17.5001,20.309 -11.7656,8.199 -22.043,12.34 -30.7851,12.34 z M 8.25,885.59 100.43,858.711 c 5,-1.481 8.293,-2.18 9.847,-2.18 0.543,0 1.055,0.188 1.563,0.617 0.43,0.512 0.621,0.981 0.621,1.411 0,0.703 -0.352,1.562 -1.09,2.5 -1.25,1.761 -4.367,4.722 -9.367,8.902 l 1.719,2.66 c 5.226,-3.75 9.445,-7.582 12.648,-11.41 3.199,-3.859 4.852,-7.461 4.852,-10.781 0,-1.789 -0.633,-3.239 -1.883,-4.371 -1.25,-1.168 -3.008,-1.719 -5.313,-1.719 -3.007,0 -7.023,0.781 -12.023,2.34 l -9.6954,3.129 c 11.6794,-7.618 19.7614,-14.489 24.2184,-20.629 3.121,-4.289 4.696,-8.399 4.696,-12.34 0,-3.981 -1.805,-7.418 -5.325,-10.309 -3.503,-2.929 -8.316,-4.383 -14.371,-4.383 -7.695,0 -15.9372,2.422 -24.6872,7.352 -8.8281,5 -16.0195,11.559 -21.5625,19.68 -4.457,6.332 -6.7187,12.23 -6.7187,17.66 0,2.808 0.582,5.191 1.7187,7.191 1.1719,2.071 3.0821,4.098 5.7813,6.09 l -27.1875,7.66 c -1.9531,0.5 -3.5117,0.969 -4.6914,1.399 -2.0703,0.629 -3.7891,0.941 -5.1524,0.941 -1.0156,0 -1.9179,-0.43 -2.6562,-1.25 -0.9414,-1.051 -1.4102,-2.461 -1.4102,-4.223 0,-1.168 0.2383,-3.117 0.6289,-5.937 H 12.6211 L 8.25,885.59" /><path
         id="path110"
         style="fill:#231f20;fill-opacity:1;fill-rule:nonzero;stroke:none"
         d="m 33.5977,1015.51 -21.4063,-8.9 21.4063,-9.219 z m 2.8125,1.1 v -20.469 l 8.4375,-3.602 c 2.1171,-0.859 3.5937,-1.25 4.5312,-1.25 0.8594,0 1.5625,0.352 2.1953,1.102 0.6172,0.699 1.0469,2.379 1.25,5 h 1.3946 v -16.719 h -1.3946 c -0.3945,2.187 -0.9453,3.629 -1.5742,4.367 -1.25,1.25 -3.7891,2.699 -7.6523,4.383 L 0,1008.01 v 1.41 l 44.0742,18.44 c 3.5469,1.44 5.8555,2.73 6.8672,3.9 1.0625,1.25 1.6797,2.97 1.8828,5.16 h 1.3946 v -20.94 h -1.3946 c -0.0859,2.19 -0.4765,3.63 -1.1054,4.38 -0.6211,0.7 -1.3282,1.09 -2.1797,1.09 -1.1407,0 -2.9649,-0.55 -5.4649,-1.56 l -7.664,-3.28" /><path
         id="path112"
         style="fill:#231f20;fill-opacity:1;fill-rule:nonzero;stroke:none"
         d="m 148.012,999.422 c 0.738,3.008 1.097,5.968 1.097,8.898 0,4.69 -1.019,8.29 -3.129,10.79 -2.191,2.5 -4.835,3.75 -7.968,3.75 -1.953,0 -3.903,-0.59 -5.782,-1.72 -1.953,-1.18 -3.48,-2.97 -4.531,-5.47 -1.129,-2.5 -1.719,-5.63 -1.719,-9.38 0,-1.68 0.079,-3.08 0.165,-4.22 0,-1.17 0.078,-2.03 0.144,-2.648 z m -25.313,0 c 0.231,0.938 0.391,2.028 0.469,3.278 0.121,1.25 0.152,2.58 0.152,4.06 0,3.75 -0.39,6.56 -1.25,8.44 -0.82,1.95 -2.07,3.48 -3.75,4.53 -1.64,1.02 -3.511,1.56 -5.621,1.56 -3.008,0 -5.629,-1.33 -7.804,-3.9 -2.196,-2.5 -3.286,-6.18 -3.286,-10.94 0,-2.62 0.27,-4.96 0.786,-7.028 z m 2.196,20.468 c 0.734,3.63 1.984,6.32 3.75,8.12 2.414,2.58 5.304,3.91 8.75,3.91 2.605,0 5.144,-0.86 7.644,-2.5 2.422,-1.68 4.18,-3.99 5.32,-6.88 1.051,-2.93 1.559,-7.34 1.559,-13.28 v -24.998 h -1.406 v 1.879 c 0,2.257 -0.703,3.898 -2.192,4.839 -0.925,0.629 -2.851,0.942 -5.781,0.942 H 108.32 c -3.32,0 -5.39,-0.434 -6.25,-1.25 -1.129,-0.942 -1.711,-2.461 -1.711,-4.531 v -1.879 h -1.4098 v 22.808 c 0,4.26 0.3125,7.7 0.9453,10.32 0.9255,3.82 2.6055,6.79 5.0005,8.9 2.414,2.07 5.105,3.13 8.117,3.13 2.742,0 5.117,-0.86 7.187,-2.5 2.11,-1.56 3.672,-3.91 4.696,-7.03 v 0" /><path
         id="path114"
         style="fill:#231f20;fill-opacity:1;fill-rule:nonzero;stroke:none"
         d="m 151.059,1148.83 v -34.37 H 10.8984 v 34.37 h 6.2539 v -22.65 H 144.961 v 22.65 h 6.098" /><path
         id="path116"
         style="fill:#231f20;fill-opacity:1;fill-rule:nonzero;stroke:none"
         d="m 106.371,1212.58 c 10.117,-9.38 15.156,-17.58 15.156,-24.53 0,-4.49 -1.718,-8.67 -5.156,-12.5 h 4.219 c 4.769,0 9.57,0.7 14.371,2.19 5.398,1.64 8.949,2.5 10.629,2.5 2.379,0 4.371,-0.79 5.937,-2.35 1.563,-1.48 2.344,-3.36 2.344,-5.62 0,-2.31 -0.941,-4.14 -2.812,-5.47 -1.797,-1.37 -3.911,-2.03 -6.407,-2.03 -1.875,0 -5.273,0.66 -10.148,2.03 -5.434,1.56 -10.754,2.34 -15.945,2.34 H 47.7773 v 12.97 h 46.25 c 4.6954,0 8.1207,0.35 10.3127,1.09 2.187,0.83 4.019,2.27 5.469,4.38 1.375,2.07 2.031,4.41 2.031,7.03 0,4.57 -3.156,10.55 -9.531,17.97 H 47.7773 v 12.97 h 54.2267 c 4.605,0 7.766,0.47 9.523,1.4 1.793,0.94 2.653,2.54 2.653,4.85 0,3.51 -3.465,5.82 -10.457,6.87 v 2.82 c 11.867,-1.06 17.804,-6.06 17.804,-15 0,-3.99 -1.328,-7.27 -3.906,-9.85 -2.687,-2.5 -6.437,-3.86 -11.25,-4.06 v 0" /><path
         id="path118"
         style="fill:#231f20;fill-opacity:1;fill-rule:nonzero;stroke:none"
         d="m 8.25,1803.75 113.277,-38.28 v -6.25 L 8.25,1797.5 Z m 5.1523,-48.94 h 2.8165 c 0.746,-3.75 1.9492,-6.57 3.5898,-8.44 2.6211,-2.81 6.5234,-5.27 11.7187,-7.34 l 90.3127,-37.04 v -2.81 l -91.4103,-39.69 c -4.6758,-2.11 -7.5391,-3.55 -8.5899,-4.37 -1.6406,-1.25 -2.8906,-2.89 -3.75,-4.84 -0.9375,-1.88 -1.5625,-4.46 -1.871,-7.66 h -2.8165 v 43.28 h 2.8165 c 0.5429,-4.92 1.4023,-8.09 2.6523,-9.53 1.168,-1.49 2.6562,-2.19 4.5273,-2.19 2.6211,0 6.6836,1.17 12.1914,3.6 l 62.0313,27.03 -61.25,25 c -6.0117,2.38 -10.2266,3.59 -12.6523,3.59 -1.4493,0 -2.8594,-0.78 -4.2149,-2.34 -1.4531,-1.49 -2.4336,-3.99 -2.9766,-7.5 -0.0781,-0.32 -0.1953,-0.78 -0.3085,-1.41 h -2.8165 z m 56.7188,-168.79 v 33.12 c -4.5703,-0.23 -7.8125,-0.74 -9.6914,-1.56 -2.8906,-1.37 -5.1914,-3.36 -6.8711,-5.94 -1.6406,-2.5 -2.5,-5.15 -2.5,-7.97 0,-4.37 1.7187,-8.28 5.1602,-11.72 3.3515,-3.35 7.9609,-5.31 13.9023,-5.93 z m 4.5273,0 c 10.6289,0 18.9961,2.58 25.0039,7.81 6.0627,5.2 9.0707,11.29 9.0707,18.28 0,4.69 -1.262,8.75 -3.762,12.19 -2.566,3.51 -7.0313,6.44 -13.2813,8.75 l 1.5742,2.5 c 7.1051,-1.17 13.5861,-4.38 19.5231,-9.69 5.868,-5.23 8.75,-11.8 8.75,-19.69 0,-8.55 -3.312,-15.89 -10,-22.03 -6.757,-6.17 -15.7731,-9.22 -27.0231,-9.22 -12.2734,0 -21.8047,3.13 -28.6055,9.38 -6.8711,6.33 -10.3086,14.26 -10.3086,23.75 0,8.01 2.6641,14.57 7.9688,19.69 5.2305,5.19 12.2617,7.81 21.0898,7.81 z m 44.6916,-96.33 -89.2189,-40.94 h 70.7769 c 6.563,0 10.629,0.7 12.192,2.19 2.187,1.87 3.281,4.88 3.281,9.06 v 3.75 h 2.969 v -36.87 h -2.969 v 3.75 c 0,4.45 -1.332,7.65 -4.062,9.53 -1.641,1.13 -5.469,1.72 -11.411,1.72 H 31.6797 c -4.6758,0 -8.0352,-0.55 -10.1524,-1.57 -1.4453,-0.74 -2.6953,-2.11 -3.75,-4.06 -1.0156,-1.87 -1.5585,-5 -1.5585,-9.37 h -2.8165 v 30 l 82.8204,38.43 -82.8204,37.82 v 30 h 2.8165 v -3.6 c 0,-4.61 1.3632,-7.81 4.0585,-9.68 1.6875,-1.18 5.4766,-1.72 11.4024,-1.72 h 69.2183 c 6.563,0 10.629,0.7 12.192,2.18 2.187,1.96 3.281,5.04 3.281,9.22 v 3.6 h 2.969 v -45 h -2.969 v 3.75 c 0,4.57 -1.332,7.73 -4.062,9.53 -1.641,1.13 -5.469,1.72 -11.411,1.72 H 30.1211 l 89.2189,-40.78 z m 31.414,-70.2 h 2.805 c -3.989,-7.81 -8.598,-14.37 -13.911,-19.68 -7.5,-7.5 -16.394,-13.28 -26.718,-17.35 -10.309,-4.06 -20.9652,-6.09 -32.0277,-6.09 -16.1328,0 -30.8203,3.94 -44.0625,11.87 -13.3203,8.01 -22.8515,18.44 -28.5898,31.25 h 3.2773 c 3.5547,-6.36 8.4024,-11.64 14.5313,-15.78 6.1719,-4.06 13.9805,-7.15 23.4453,-9.22 9.3672,-1.99 19.1758,-2.96 29.3672,-2.96 11.168,0 21.3279,0.82 30.4689,2.5 7.187,1.32 12.969,2.96 17.34,4.84 4.379,1.95 8.519,4.57 12.5,7.81 4.074,3.32 7.89,7.58 11.574,12.81 z m -142.504,-50 113.277,-38.28 v -6.25 L 8.25,1363.24 Z m 56.8711,-101.6 H 107.93 c 2.621,2.58 4.609,5.31 5.941,8.13 1.25,2.89 1.883,5.82 1.883,8.75 0,4.76 -2.586,9.22 -7.824,13.28 -5.192,4.06 -12.7308,6.09 -22.6527,6.09 -9.1328,0 -16.1679,-2.03 -21.0976,-6.09 -5,-4.06 -7.5,-8.71 -7.5,-13.91 0,-2.81 0.75,-5.58 2.1914,-8.28 1.0586,-2.11 3.1328,-4.76 6.25,-7.97 z m -5,0 c -9.6914,6.88 -14.5313,14.3 -14.5313,22.35 0,7.38 3.1993,13.79 9.5313,19.21 6.25,5.51 14.8086,8.29 25.6328,8.29 12.7266,0 22.9691,-4.22 30.7731,-12.66 6.688,-7.3 10,-15.39 10,-24.22 0,-4.18 -0.738,-8.44 -2.187,-12.81 -1.563,-4.3 -3.828,-8.67 -6.879,-13.13 H 38.2539 c -8.1328,0 -13.1328,-0.23 -15,-0.62 -1.8828,-0.31 -3.1328,-0.9 -3.75,-1.72 -0.7148,-0.86 -1.1055,-1.88 -1.1055,-3.13 0,-1.48 0.4336,-3.28 1.25,-5.46 l -2.6445,-1.25 -8.7539,21.56 v 3.59 h 51.8711" /><path
         id="path120"
         style="fill:#231f20;fill-opacity:1;fill-rule:nonzero;stroke:none"
         d="m 102.309,1865.98 c 6.48,-5.43 11.25,-10.9 14.371,-16.41 3.011,-5.54 4.543,-11.37 4.543,-17.5 0,-7.42 -2.082,-13.2 -6.262,-17.34 -4.141,-4.18 -9.762,-6.25 -16.8712,-6.25 -7.8906,0 -15.6953,2.22 -23.4414,6.72 -7.6836,4.45 -13.9336,10.47 -18.75,17.97 -4.8789,7.5 -7.3398,14.88 -7.3398,22.18 0,5.63 1.2109,9.85 3.5898,12.66 2.4219,2.81 5.3125,4.22 8.75,4.22 3.2422,0 6.0196,-1.02 8.2813,-2.97 1.8008,-1.48 2.6601,-3.24 2.6601,-5.31 0,-1.68 -0.5078,-3.05 -1.5625,-4.07 -1.0156,-1.05 -2.3476,-1.56 -3.9062,-1.56 -1.0117,0 -1.9531,0.16 -2.8125,0.47 -0.8203,0.39 -1.7969,1.25 -2.9688,2.5 -1.125,1.25 -1.9453,1.95 -2.5,2.19 -0.5078,0.31 -1.0859,0.47 -1.7187,0.47 -1.0117,0 -1.9063,-0.55 -2.6523,-1.57 -1.0196,-1.48 -1.5704,-3.59 -1.5704,-6.4 0,-5.12 1.8399,-10.16 5.4727,-15.16 3.5586,-5 8.5977,-9.29 15.1562,-12.81 8.043,-4.3 16.0547,-6.41 24.0625,-6.41 5.3082,0 9.5312,1.49 12.6642,4.53 3.117,3.01 4.676,7.11 4.676,12.35 0,4.06 -0.965,8.01 -2.957,11.87 -2.082,3.95 -5.711,8.36 -10.946,13.28 l 2.032,2.35" /><path
         id="path122"
         style="fill:#231f20;fill-opacity:1;fill-rule:nonzero;stroke:none"
         d="m 10.8984,1936.64 v 34.38 H 151.223 v -34.38 h -6.262 v 22.66 H 17.1523 v -22.66 z m 0.6289,-56.76 H 8.25 c 3.8594,7.9 8.4297,14.54 13.7539,19.85 7.6055,7.38 16.5547,13.12 26.8672,17.19 10.2383,4.06 20.8594,6.09 31.8828,6.09 16.1641,0 30.8871,-3.98 44.2071,-11.88 13.328,-7.93 22.859,-18.35 28.598,-31.25 h -2.805 c -3.684,6.45 -8.563,11.72 -14.695,15.79 -6.059,4.14 -13.829,7.22 -23.282,9.21 -9.457,2.07 -19.3786,3.13 -29.6872,3.13 -11.0195,0 -21.125,-0.9 -30.3125,-2.66 -7.1875,-1.25 -12.8828,-2.89 -17.1875,-4.84 -4.371,-1.99 -8.5195,-4.61 -12.5,-7.81 -4.0625,-3.25 -7.8906,-7.5 -11.5625,-12.82 v 0" /><path
         id="path124"
         style="fill:#231f20;fill-opacity:1;fill-rule:nonzero;stroke:none"
         d="m 142.777,1046.64 -0.468,0.36 -0.43,0.46 -0.469,0.47 -0.469,0.43 -0.429,0.39 -0.391,0.36 -0.351,0.46 -0.469,0.36 -0.352,0.39 -0.629,0.62 -0.39,0.35 -0.348,0.39 -0.902,0.9 -0.535,0.63 -0.555,0.66 -0.551,0.55 -0.535,0.62 -1.024,1.17 -0.468,0.55 -0.551,0.67 c -0.066,0 -4.922,5.62 -8.199,8.82 -8.403,8.68 -12.774,10.67 -13.117,10.67 -0.946,0 -0.946,-0.82 -0.946,-0.98 0,-0.66 0.192,-0.94 1.024,-1.37 4.367,-2.73 5.847,-4.64 5.847,-6.83 0,-2.19 -1.355,-3.21 -2.929,-4.57 -2.102,-1.76 -3.942,-3.28 -3.942,-6.29 0,-6.84 8.524,-10.98 10.43,-10.98 0.43,0 0.98,0.2 0.98,1.02 0,0.82 -0.425,1.01 -0.98,1.17 -4.219,1.76 -4.297,7.03 -4.297,7.77 0,1.92 0.633,3.64 1.367,5.75 1.371,3.55 1.371,4.57 1.371,6.95 3.899,-3.28 10.395,-10.86 11.871,-12.62 l 7.539,-8.2 c 6.129,-6.1 11.329,-9.3 11.95,-9.3 0.82,0 0.82,0.9 0.82,1.09 0,0.75 -0.152,0.9 -1.168,1.45 -3.078,2.11 -5.543,4.84 -5.543,7.66 0,2.11 0.82,3.04 3.43,5.31 1.926,1.56 3.281,3.2 3.281,5.82 0,8.94 -11.48,14.26 -13.941,14.26 -0.344,0 -0.899,-0.39 -0.899,-1.1 0,-0.82 0.555,-1.01 1.172,-1.29 5.938,-2.11 7.656,-7.85 7.656,-10.86 0,-1.83 -0.547,-3.47 -1.168,-5.39 -1.211,-3.08 -1.57,-4.45 -1.57,-6.36 0,-0.2 0,-1.57 0.277,-2.39 v 0" /><path
         id="path126"
         style="fill:#231f20;fill-opacity:1;fill-rule:nonzero;stroke:none"
         d="m 331.332,2279.53 c -0.742,-5.74 -1.094,-10.39 -1.094,-13.9 0,-4.07 0.703,-8.52 2.196,-13.28 1.554,-4.69 3.789,-8.44 6.707,-11.25 2.191,-2 4.847,-2.97 7.968,-2.97 3.645,0 6.918,1.72 9.856,5.15 2.883,3.52 4.367,8.48 4.367,14.85 0,7.26 -1.484,13.51 -4.367,18.75 -2.938,5.31 -7.004,7.97 -12.195,7.97 -1.68,0 -3.438,-0.4 -5.305,-1.1 -1.805,-0.62 -4.504,-2.03 -8.133,-4.22 z m 39.527,44.38 v -2.35 c -5.621,-0.54 -10.23,-1.64 -13.75,-3.28 -3.55,-1.68 -7.027,-4.22 -10.468,-7.65 -3.426,-3.44 -6.321,-7.31 -8.59,-11.57 -2.192,-4.18 -4.063,-9.14 -5.617,-14.84 6.125,4.14 12.257,6.25 18.425,6.25 5.821,0 10.86,-2.42 15.161,-7.19 4.371,-4.68 6.562,-10.78 6.562,-18.28 0,-7.19 -2.191,-13.75 -6.562,-19.69 -5.227,-7.18 -12.149,-10.78 -20.782,-10.78 -5.937,0 -10.937,1.96 -15,5.94 -8.047,7.5 -12.023,17.27 -12.023,29.38 0,7.69 1.476,15 4.523,21.87 3.121,6.95 7.539,13.16 13.282,18.59 5.699,5.39 11.171,8.99 16.414,10.79 5.304,1.87 10.187,2.81 14.675,2.81 h 3.75" /><path
         id="path128"
         style="fill:#231f20;fill-opacity:1;fill-rule:nonzero;stroke:none"
         d="m 368.988,2002.19 -5,-10.78 h -25.773 l -5.633,-11.56 c 11.141,-1.68 20,-5.86 26.559,-12.5 5.629,-5.75 8.441,-12.5 8.441,-20.32 0,-4.61 -0.941,-8.83 -2.812,-12.65 -1.801,-3.87 -4.055,-7.15 -6.879,-9.85 -2.809,-2.73 -5.926,-4.84 -9.371,-6.4 -4.797,-2.39 -9.797,-3.6 -15,-3.6 -5.118,0 -8.868,0.9 -11.25,2.66 -2.309,1.76 -3.438,3.67 -3.438,5.78 0,1.25 0.469,2.27 1.406,3.13 1.012,0.93 2.262,1.4 3.75,1.4 1.012,0 1.953,-0.15 2.813,-0.47 0.82,-0.31 2.226,-1.21 4.219,-2.65 3.199,-2.19 6.441,-3.28 9.695,-3.28 5,0 9.285,1.87 12.969,5.62 3.75,3.75 5.617,8.32 5.617,13.75 0,5.2 -1.68,10.04 -5,14.53 -3.36,4.45 -7.93,7.97 -13.75,10.47 -4.692,1.88 -11.008,2.97 -18.91,3.28 l 16.574,33.44 h 30.773" /></g></g></svg>