<?xml version="1.0" encoding="UTF-8" standalone="no"?>
<svg
   xmlns:dc="http://purl.org/dc/elements/1.1/"
   xmlns:cc="http://creativecommons.org/ns#"
   xmlns:rdf="http://www.w3.org/1999/02/22-rdf-syntax-ns#"
   xmlns:svg="http://www.w3.org/2000/svg"
   xmlns="http://www.w3.org/2000/svg"
   viewBox="0 0 496 310.66666"
   height="310.66666"
   width="496"
   xml:space="preserve"
   id="svg2"
   version="1.1"><metadata
     id="metadata8"><rdf:RDF><cc:Work
         rdf:about=""><dc:format>image/svg+xml</dc:format><dc:type
           rdf:resource="http://purl.org/dc/dcmitype/StillImage" /></cc:Work></rdf:RDF></metadata><defs
     id="defs6" /><g
     transform="matrix(1.3333333,0,0,-1.3333333,0,310.66667)"
     id="g10"><g
       transform="scale(0.1)"
       id="g12"><path
         id="path14"
         style="fill:none;stroke:#000000;stroke-width:2.5;stroke-linecap:square;stroke-linejoin:miter;stroke-miterlimit:3.79999995;stroke-dasharray:none;stroke-opacity:1"
         d="m 443.75,371.512 h 31.48" /><path
         id="path16"
         style="fill:none;stroke:#000000;stroke-width:4;stroke-linecap:square;stroke-linejoin:miter;stroke-miterlimit:3.79999995;stroke-dasharray:none;stroke-opacity:1"
         d="m 3614.26,371.512 h -31.53" /><path
         id="path18"
         style="fill:none;stroke:#000000;stroke-width:4;stroke-linecap:square;stroke-linejoin:miter;stroke-miterlimit:3.79999995;stroke-dasharray:none;stroke-opacity:1"
         d="m 443.75,466.512 h 15.512" /><path
         id="path20"
         style="fill:none;stroke:#000000;stroke-width:4;stroke-linecap:square;stroke-linejoin:miter;stroke-miterlimit:3.79999995;stroke-dasharray:none;stroke-opacity:1"
         d="m 443.75,561.512 h 15.512" /><path
         id="path22"
         style="fill:none;stroke:#000000;stroke-width:4;stroke-linecap:square;stroke-linejoin:miter;stroke-miterlimit:3.79999995;stroke-dasharray:none;stroke-opacity:1"
         d="m 443.75,656.512 h 15.512" /><path
         id="path24"
         style="fill:none;stroke:#000000;stroke-width:4;stroke-linecap:square;stroke-linejoin:miter;stroke-miterlimit:3.79999995;stroke-dasharray:none;stroke-opacity:1"
         d="m 443.75,751.512 h 31.48" /><path
         id="path26"
         style="fill:none;stroke:#000000;stroke-width:4;stroke-linecap:square;stroke-linejoin:miter;stroke-miterlimit:3.79999995;stroke-dasharray:none;stroke-opacity:1"
         d="m 443.75,846.512 h 15.512" /><path
         id="path28"
         style="fill:none;stroke:#000000;stroke-width:4;stroke-linecap:square;stroke-linejoin:miter;stroke-miterlimit:3.79999995;stroke-dasharray:none;stroke-opacity:1"
         d="m 443.75,941.512 h 15.512" /><path
         id="path30"
         style="fill:none;stroke:#000000;stroke-width:4;stroke-linecap:square;stroke-linejoin:miter;stroke-miterlimit:3.79999995;stroke-dasharray:none;stroke-opacity:1"
         d="m 443.75,1036.51 h 15.512" /><path
         id="path32"
         style="fill:none;stroke:#000000;stroke-width:4;stroke-linecap:square;stroke-linejoin:miter;stroke-miterlimit:3.79999995;stroke-dasharray:none;stroke-opacity:1"
         d="m 443.75,1131.51 h 31.48" /><path
         id="path34"
         style="fill:none;stroke:#000000;stroke-width:4;stroke-linecap:square;stroke-linejoin:miter;stroke-miterlimit:3.79999995;stroke-dasharray:none;stroke-opacity:1"
         d="m 443.75,1226.51 h 15.512" /><path
         id="path36"
         style="fill:none;stroke:#000000;stroke-width:4;stroke-linecap:square;stroke-linejoin:miter;stroke-miterlimit:3.79999995;stroke-dasharray:none;stroke-opacity:1"
         d="m 443.75,1321.51 h 15.512" /><path
         id="path38"
         style="fill:none;stroke:#000000;stroke-width:4;stroke-linecap:square;stroke-linejoin:miter;stroke-miterlimit:3.79999995;stroke-dasharray:none;stroke-opacity:1"
         d="m 443.75,1416.04 h 15.512" /><path
         id="path40"
         style="fill:none;stroke:#000000;stroke-width:4;stroke-linecap:square;stroke-linejoin:miter;stroke-miterlimit:3.79999995;stroke-dasharray:none;stroke-opacity:1"
         d="m 443.75,1511.04 h 31.48" /><path
         id="path42"
         style="fill:none;stroke:#000000;stroke-width:4;stroke-linecap:square;stroke-linejoin:miter;stroke-miterlimit:3.79999995;stroke-dasharray:none;stroke-opacity:1"
         d="m 443.75,1606.04 h 15.512" /><path
         id="path44"
         style="fill:none;stroke:#000000;stroke-width:4;stroke-linecap:square;stroke-linejoin:miter;stroke-miterlimit:3.79999995;stroke-dasharray:none;stroke-opacity:1"
         d="m 443.75,1701.04 h 15.512" /><path
         id="path46"
         style="fill:none;stroke:#000000;stroke-width:4;stroke-linecap:square;stroke-linejoin:miter;stroke-miterlimit:3.79999995;stroke-dasharray:none;stroke-opacity:1"
         d="m 443.75,1796.04 h 15.512" /><path
         id="path48"
         style="fill:none;stroke:#000000;stroke-width:4;stroke-linecap:square;stroke-linejoin:miter;stroke-miterlimit:3.79999995;stroke-dasharray:none;stroke-opacity:1"
         d="m 443.75,1891.04 h 31.48" /><path
         id="path50"
         style="fill:none;stroke:#000000;stroke-width:4;stroke-linecap:square;stroke-linejoin:miter;stroke-miterlimit:3.79999995;stroke-dasharray:none;stroke-opacity:1"
         d="m 443.75,1986.04 h 15.512" /><path
         id="path52"
         style="fill:none;stroke:#000000;stroke-width:4;stroke-linecap:square;stroke-linejoin:miter;stroke-miterlimit:3.79999995;stroke-dasharray:none;stroke-opacity:1"
         d="m 443.75,2081.04 h 15.512" /><path
         id="path54"
         style="fill:none;stroke:#000000;stroke-width:4;stroke-linecap:square;stroke-linejoin:miter;stroke-miterlimit:3.79999995;stroke-dasharray:none;stroke-opacity:1"
         d="m 443.75,2176.04 h 15.512" /><path
         id="path56"
         style="fill:none;stroke:#000000;stroke-width:4;stroke-linecap:square;stroke-linejoin:miter;stroke-miterlimit:3.79999995;stroke-dasharray:none;stroke-opacity:1"
         d="m 443.75,2271.04 h 31.48" /><path
         id="path58"
         style="fill:none;stroke:#000000;stroke-width:2.5;stroke-linecap:square;stroke-linejoin:miter;stroke-miterlimit:3.79999995;stroke-dasharray:none;stroke-opacity:1"
         d="m 3614.26,2271.04 h -31.53" /><path
         id="path60"
         style="fill:none;stroke:#000000;stroke-width:2.5;stroke-linecap:square;stroke-linejoin:miter;stroke-miterlimit:3.79999995;stroke-dasharray:none;stroke-opacity:1"
         d="m 443.75,371.512 v 31.519" /><path
         id="path62"
         style="fill:none;stroke:#000000;stroke-width:4;stroke-linecap:square;stroke-linejoin:miter;stroke-miterlimit:3.79999995;stroke-dasharray:none;stroke-opacity:1"
         d="m 443.75,2271.04 v -31.53" /><path
         id="path64"
         style="fill:none;stroke:#000000;stroke-width:4;stroke-linecap:square;stroke-linejoin:miter;stroke-miterlimit:3.79999995;stroke-dasharray:none;stroke-opacity:1"
         d="m 542.73,371.512 v 15.5" /><path
         id="path66"
         style="fill:none;stroke:#000000;stroke-width:4;stroke-linecap:square;stroke-linejoin:miter;stroke-miterlimit:3.79999995;stroke-dasharray:none;stroke-opacity:1"
         d="m 641.762,371.512 v 15.5" /><path
         id="path68"
         style="fill:none;stroke:#000000;stroke-width:4;stroke-linecap:square;stroke-linejoin:miter;stroke-miterlimit:3.79999995;stroke-dasharray:none;stroke-opacity:1"
         d="m 740.738,371.512 v 15.5" /><path
         id="path70"
         style="fill:none;stroke:#000000;stroke-width:4;stroke-linecap:square;stroke-linejoin:miter;stroke-miterlimit:3.79999995;stroke-dasharray:none;stroke-opacity:1"
         d="m 840.23,371.512 v 31.519" /><path
         id="path72"
         style="fill:none;stroke:#000000;stroke-width:4;stroke-linecap:square;stroke-linejoin:miter;stroke-miterlimit:3.79999995;stroke-dasharray:none;stroke-opacity:1"
         d="m 939.262,371.512 v 15.5" /><path
         id="path74"
         style="fill:none;stroke:#000000;stroke-width:4;stroke-linecap:square;stroke-linejoin:miter;stroke-miterlimit:3.79999995;stroke-dasharray:none;stroke-opacity:1"
         d="m 1038.24,371.512 v 15.5" /><path
         id="path76"
         style="fill:none;stroke:#000000;stroke-width:4;stroke-linecap:square;stroke-linejoin:miter;stroke-miterlimit:3.79999995;stroke-dasharray:none;stroke-opacity:1"
         d="m 1137.27,371.512 v 15.5" /><path
         id="path78"
         style="fill:none;stroke:#000000;stroke-width:4;stroke-linecap:square;stroke-linejoin:miter;stroke-miterlimit:3.79999995;stroke-dasharray:none;stroke-opacity:1"
         d="m 1236.25,371.512 v 31.519" /><path
         id="path80"
         style="fill:none;stroke:#000000;stroke-width:4;stroke-linecap:square;stroke-linejoin:miter;stroke-miterlimit:3.79999995;stroke-dasharray:none;stroke-opacity:1"
         d="m 1335.23,371.512 v 15.5" /><path
         id="path82"
         style="fill:none;stroke:#000000;stroke-width:4;stroke-linecap:square;stroke-linejoin:miter;stroke-miterlimit:3.79999995;stroke-dasharray:none;stroke-opacity:1"
         d="m 1434.77,371.512 v 15.5" /><path
         id="path84"
         style="fill:none;stroke:#000000;stroke-width:4;stroke-linecap:square;stroke-linejoin:miter;stroke-miterlimit:3.79999995;stroke-dasharray:none;stroke-opacity:1"
         d="m 1533.75,371.512 v 15.5" /><path
         id="path86"
         style="fill:none;stroke:#000000;stroke-width:4;stroke-linecap:square;stroke-linejoin:miter;stroke-miterlimit:3.79999995;stroke-dasharray:none;stroke-opacity:1"
         d="m 1632.73,371.512 v 31.519" /><path
         id="path88"
         style="fill:none;stroke:#000000;stroke-width:4;stroke-linecap:square;stroke-linejoin:miter;stroke-miterlimit:3.79999995;stroke-dasharray:none;stroke-opacity:1"
         d="m 1731.76,371.512 v 15.5" /><path
         id="path90"
         style="fill:none;stroke:#000000;stroke-width:4;stroke-linecap:square;stroke-linejoin:miter;stroke-miterlimit:3.79999995;stroke-dasharray:none;stroke-opacity:1"
         d="m 1830.74,371.512 v 15.5" /><path
         id="path92"
         style="fill:none;stroke:#000000;stroke-width:4;stroke-linecap:square;stroke-linejoin:miter;stroke-miterlimit:3.79999995;stroke-dasharray:none;stroke-opacity:1"
         d="m 1929.77,371.512 v 15.5" /><path
         id="path94"
         style="fill:none;stroke:#000000;stroke-width:4;stroke-linecap:square;stroke-linejoin:miter;stroke-miterlimit:3.79999995;stroke-dasharray:none;stroke-opacity:1"
         d="m 2029.26,371.512 v 31.519" /><path
         id="path96"
         style="fill:none;stroke:#000000;stroke-width:4;stroke-linecap:square;stroke-linejoin:miter;stroke-miterlimit:3.79999995;stroke-dasharray:none;stroke-opacity:1"
         d="m 2128.24,371.512 v 15.5" /><path
         id="path98"
         style="fill:none;stroke:#000000;stroke-width:4;stroke-linecap:square;stroke-linejoin:miter;stroke-miterlimit:3.79999995;stroke-dasharray:none;stroke-opacity:1"
         d="m 2227.27,371.512 v 15.5" /><path
         id="path100"
         style="fill:none;stroke:#000000;stroke-width:4;stroke-linecap:square;stroke-linejoin:miter;stroke-miterlimit:3.79999995;stroke-dasharray:none;stroke-opacity:1"
         d="m 2326.25,371.512 v 15.5" /><path
         id="path102"
         style="fill:none;stroke:#000000;stroke-width:4;stroke-linecap:square;stroke-linejoin:miter;stroke-miterlimit:3.79999995;stroke-dasharray:none;stroke-opacity:1"
         d="m 2425.23,371.512 v 31.519" /><path
         id="path104"
         style="fill:none;stroke:#000000;stroke-width:4;stroke-linecap:square;stroke-linejoin:miter;stroke-miterlimit:3.79999995;stroke-dasharray:none;stroke-opacity:1"
         d="m 2524.26,371.512 v 15.5" /><path
         id="path106"
         style="fill:none;stroke:#000000;stroke-width:4;stroke-linecap:square;stroke-linejoin:miter;stroke-miterlimit:3.79999995;stroke-dasharray:none;stroke-opacity:1"
         d="m 2623.24,371.512 v 15.5" /><path
         id="path108"
         style="fill:none;stroke:#000000;stroke-width:4;stroke-linecap:square;stroke-linejoin:miter;stroke-miterlimit:3.79999995;stroke-dasharray:none;stroke-opacity:1"
         d="m 2722.73,371.512 v 15.5" /><path
         id="path110"
         style="fill:none;stroke:#000000;stroke-width:4;stroke-linecap:square;stroke-linejoin:miter;stroke-miterlimit:3.79999995;stroke-dasharray:none;stroke-opacity:1"
         d="m 2821.76,371.512 v 31.519" /><path
         id="path112"
         style="fill:none;stroke:#000000;stroke-width:4;stroke-linecap:square;stroke-linejoin:miter;stroke-miterlimit:3.79999995;stroke-dasharray:none;stroke-opacity:1"
         d="m 2920.74,371.512 v 15.5" /><path
         id="path114"
         style="fill:none;stroke:#000000;stroke-width:4;stroke-linecap:square;stroke-linejoin:miter;stroke-miterlimit:3.79999995;stroke-dasharray:none;stroke-opacity:1"
         d="m 3019.77,371.512 v 15.5" /><path
         id="path116"
         style="fill:none;stroke:#000000;stroke-width:4;stroke-linecap:square;stroke-linejoin:miter;stroke-miterlimit:3.79999995;stroke-dasharray:none;stroke-opacity:1"
         d="m 3118.75,371.512 v 15.5" /><path
         id="path118"
         style="fill:none;stroke:#000000;stroke-width:4;stroke-linecap:square;stroke-linejoin:miter;stroke-miterlimit:3.79999995;stroke-dasharray:none;stroke-opacity:1"
         d="m 3217.73,371.512 v 31.519" /><path
         id="path120"
         style="fill:none;stroke:#000000;stroke-width:4;stroke-linecap:square;stroke-linejoin:miter;stroke-miterlimit:3.79999995;stroke-dasharray:none;stroke-opacity:1"
         d="m 3317.27,371.512 v 15.5" /><path
         id="path122"
         style="fill:none;stroke:#000000;stroke-width:4;stroke-linecap:square;stroke-linejoin:miter;stroke-miterlimit:3.79999995;stroke-dasharray:none;stroke-opacity:1"
         d="m 3416.25,371.512 v 15.5" /><path
         id="path124"
         style="fill:none;stroke:#000000;stroke-width:4;stroke-linecap:square;stroke-linejoin:miter;stroke-miterlimit:3.79999995;stroke-dasharray:none;stroke-opacity:1"
         d="m 3515.23,371.512 v 15.5" /><path
         id="path126"
         style="fill:none;stroke:#000000;stroke-width:4;stroke-linecap:square;stroke-linejoin:miter;stroke-miterlimit:3.79999995;stroke-dasharray:none;stroke-opacity:1"
         d="m 3614.26,371.512 v 31.519" /><path
         id="path128"
         style="fill:none;stroke:#000000;stroke-width:2.5;stroke-linecap:square;stroke-linejoin:miter;stroke-miterlimit:3.79999995;stroke-dasharray:none;stroke-opacity:1"
         d="m 3614.26,2271.04 v -31.53" /><path
         id="path130"
         style="fill:none;stroke:#000000;stroke-width:2.5;stroke-linecap:square;stroke-linejoin:miter;stroke-miterlimit:3.79999995;stroke-dasharray:none;stroke-opacity:1"
         d="m 443.75,371.512 h 3170.51 v 1899.53 H 443.75 Z" /><path
         id="path132"
         style="fill:none;stroke:#ff0000;stroke-width:8;stroke-linecap:square;stroke-linejoin:miter;stroke-miterlimit:3.79999995;stroke-dasharray:none;stroke-opacity:1"
         d="m 443.75,377.012 h 98.98 l 39.54,0.508 h 38.98 l 38.98,0.511 39.54,0.981 38.98,0.5 38.52,1.527 40,1.481 38.468,1.992 39.032,2 39.492,2.027 38.976,2.973 39.032,3.508 39.49,5 38.98,6.019 38.52,7.5 40,8.473 38.47,9.5 39.03,11.008 39.49,12.5 38.98,15.511 38.52,20 40,25.981 38.52,32.5 38.98,39.527 39.49,45 39.03,51.481 38.98,58.992 39.49,71.008 39.03,90.511 38.47,118.009 40,152.5 38.52,185.47 38.98,203.51 39.49,195.51 39.03,160.51 38.98,110 39.49,58.98 39.03,14.49 38.47,-28.98 39.54,-80 38.98,-140.51 38.98,-193.98 39.54,-225.51 38.98,-223.52 38.52,-195 40,-153.471 38.47,-114.027 39.03,-83.473 39.49,-62.5 38.98,-49.027 39.03,-40.5 39.49,-32.973 38.98,-26.527 38.52,-20 40,-14.492 38.47,-10 39.03,-7.5 39.49,-5.508 38.98,-4.492 38.52,-3.508 40,-3.481 38.52,-2.5 38.98,-1.992 39.49,-1.527 39.03,-0.973 38.98,-1.019 39.49,-1.008 39.03,-0.473 38.47,-0.508 40,-0.511 38.52,-0.508 38.98,-0.5 39.49,-0.473 39.03,-0.508 h 38.98 l 39.49,-0.511 h 77.5 l 21.53,-0.508" /><path
         id="path134"
         style="fill:none;stroke:#000000;stroke-width:4;stroke-linecap:square;stroke-linejoin:miter;stroke-miterlimit:3.79999995;stroke-dasharray:none;stroke-opacity:1"
         d="m 443.75,371.512 h 3170.51 v 1899.53 H 443.75 Z" /><path
         id="path136"
         style="fill:#000000;fill-opacity:1;fill-rule:nonzero;stroke:none"
         d="m 302.699,277.441 h 35.4609 V 267.1285 H 302.699 Z m 103.981,-18.75 -6.559,-17.812 H 345.43 v 2.5 c 16.129,14.691 27.5,26.641 34.058,35.941 6.563,9.371 9.852,17.891 9.852,25.621 0,5.821 -1.84,10.629 -5.469,14.379 -3.562,3.828 -7.891,5.782 -12.973,5.782 -4.488,0 -8.558,-1.372 -12.187,-4.063 -3.672,-2.738 -6.332,-6.641 -7.973,-11.719 h -2.648 c 1.129,8.442 4.058,14.879 8.75,19.371 4.762,4.571 10.699,6.879 17.808,6.879 7.5,0 13.75,-2.461 18.75,-7.351 5.082,-4.797 7.653,-10.457 7.653,-17.028 0,-4.679 -1.09,-9.371 -3.281,-14.062 -3.43,-7.418 -8.899,-15.231 -16.399,-23.438 C 370,261.27 362.852,253.77 359.961,251.191 h 24.219 c 5,0 8.48,0.161 10.468,0.469 1.954,0.391 3.75,1.168 5.313,2.352 1.559,1.129 2.969,2.687 4.219,4.679 z m 8.789,27.969 c 0,10.629 1.601,19.731 4.84,27.352 3.211,7.566 7.421,13.277 12.66,17.027 4.14,3 8.441,4.531 12.812,4.531 7.071,0 13.438,-3.672 19.059,-10.941 7.07,-8.981 10.629,-21.168 10.629,-36.559 0,-10.742 -1.559,-19.851 -4.688,-27.351 -3.051,-7.5 -6.992,-12.957 -11.871,-16.399 -4.808,-3.441 -9.461,-5.16 -13.91,-5.16 -8.75,0 -16.09,5.238 -22.031,15.781 -5,8.75 -7.5,19.297 -7.5,31.719 z m 13.441,-1.719 c 0,-12.73 1.559,-23.121 4.68,-31.25 2.582,-6.793 6.488,-10.152 11.719,-10.152 2.39,0 4.89,1.09 7.5,3.281 2.703,2.258 4.73,5.969 6.101,11.09 2.07,7.891 3.121,18.988 3.121,33.281 0,10.508 -1.09,19.297 -3.281,26.411 -1.559,5.187 -3.672,8.91 -6.25,11.089 -1.879,1.571 -4.18,2.348 -6.879,2.348 -3.043,0 -5.781,-1.41 -8.281,-4.219 -3.238,-3.75 -5.461,-9.691 -6.719,-17.808 -1.172,-8.133 -1.711,-16.184 -1.711,-24.071 z m 54.531,1.719 c 0,10.629 1.598,19.731 4.84,27.352 3.199,7.566 7.418,13.277 12.66,17.027 4.137,3 8.438,4.531 12.809,4.531 7.07,0 13.441,-3.672 19.059,-10.941 7.07,-8.981 10.632,-21.168 10.632,-36.559 0,-10.742 -1.562,-19.851 -4.691,-27.351 -3.051,-7.5 -6.988,-12.957 -11.871,-16.399 -4.809,-3.441 -9.457,-5.16 -13.91,-5.16 -8.75,0 -16.09,5.238 -22.028,15.781 -5,8.75 -7.5,19.297 -7.5,31.719 z m 13.438,-1.719 c 0,-12.73 1.562,-23.121 4.68,-31.25 2.582,-6.793 6.492,-10.152 11.722,-10.152 2.379,0 4.879,1.09 7.5,3.281 2.699,2.258 4.731,5.969 6.098,11.09 2.07,7.891 3.121,18.988 3.121,33.281 0,10.508 -1.09,19.297 -3.281,26.411 -1.559,5.187 -3.668,8.91 -6.25,11.089 -1.879,1.571 -4.18,2.348 -6.879,2.348 -3.039,0 -5.781,-1.41 -8.281,-4.219 -3.239,-3.75 -5.469,-9.691 -6.719,-17.808 -1.168,-8.133 -1.711,-16.184 -1.711,-24.071 z" /><path
         id="path138"
         style="fill:#000000;fill-opacity:1;fill-rule:nonzero;stroke:none"
         d="m 1098.44,277.441 h 35.4688 V 267.1285 H 1098.44 Z m 56.21,47.028 22.5,11.101 h 2.34 v -78.281 c 0,-5.238 0.2,-8.519 0.63,-9.848 0.39,-1.25 1.29,-2.261 2.65,-2.972 1.33,-0.617 4.14,-1.008 8.44,-1.09 v -2.5 h -34.84 v 2.5 c 4.37,0.082 7.18,0.473 8.43,1.09 1.25,0.711 2.11,1.609 2.66,2.66 0.51,1.133 0.78,4.531 0.78,10.16 v 50 c 0,6.75 -0.27,11.09 -0.78,12.973 -0.31,1.437 -0.9,2.5 -1.72,3.117 -0.86,0.699 -1.83,1.09 -2.97,1.09 -1.79,0 -4.14,-0.699 -7.03,-2.028 z m 56.56,-37.809 c 0,10.629 1.6,19.731 4.84,27.352 3.21,7.566 7.43,13.277 12.66,17.027 4.14,3 8.44,4.531 12.81,4.531 7.07,0 13.44,-3.672 19.07,-10.941 7.07,-8.981 10.62,-21.168 10.62,-36.559 0,-10.742 -1.56,-19.851 -4.69,-27.351 -3.04,-7.5 -6.99,-12.957 -11.87,-16.399 -4.81,-3.441 -9.45,-5.16 -13.91,-5.16 -8.75,0 -16.09,5.238 -22.03,15.781 -5,8.75 -7.5,19.297 -7.5,31.719 z m 13.44,-1.719 c 0,-12.73 1.56,-23.121 4.69,-31.25 2.57,-6.793 6.48,-10.152 11.71,-10.152 2.39,0 4.89,1.09 7.5,3.281 2.7,2.258 4.73,5.969 6.1,11.09 2.07,7.891 3.12,18.988 3.12,33.281 0,10.508 -1.09,19.297 -3.28,26.411 -1.56,5.187 -3.67,8.91 -6.25,11.089 -1.87,1.571 -4.18,2.348 -6.87,2.348 -3.05,0 -5.78,-1.41 -8.28,-4.219 -3.25,-3.75 -5.47,-9.691 -6.72,-17.808 -1.17,-8.133 -1.72,-16.184 -1.72,-24.071 z m 54.53,1.719 c 0,10.629 1.6,19.731 4.84,27.352 3.21,7.566 7.43,13.277 12.66,17.027 4.14,3 8.44,4.531 12.81,4.531 7.07,0 13.44,-3.672 19.06,-10.941 7.07,-8.981 10.63,-21.168 10.63,-36.559 0,-10.742 -1.56,-19.851 -4.69,-27.351 -3.04,-7.5 -6.99,-12.957 -11.87,-16.399 -4.81,-3.441 -9.46,-5.16 -13.91,-5.16 -8.75,0 -16.09,5.238 -22.03,15.781 -5,8.75 -7.5,19.297 -7.5,31.719 z m 13.44,-1.719 c 0,-12.73 1.56,-23.121 4.68,-31.25 2.58,-6.793 6.49,-10.152 11.72,-10.152 2.39,0 4.89,1.09 7.5,3.281 2.7,2.258 4.73,5.969 6.1,11.09 2.07,7.891 3.12,18.988 3.12,33.281 0,10.508 -1.09,19.297 -3.28,26.411 -1.56,5.187 -3.67,8.91 -6.25,11.089 -1.87,1.571 -4.18,2.348 -6.87,2.348 -3.05,0 -5.79,-1.41 -8.29,-4.219 -3.24,-3.75 -5.46,-9.691 -6.71,-17.808 -1.18,-8.133 -1.72,-16.184 -1.72,-24.071 z" /><path
         id="path140"
         style="fill:#000000;fill-opacity:1;fill-rule:nonzero;stroke:none"
         d="m 1999.69,286.66 c 0,10.629 1.6,19.731 4.84,27.352 3.2,7.566 7.42,13.277 12.66,17.027 4.14,3 8.43,4.531 12.81,4.531 7.07,0 13.44,-3.672 19.06,-10.941 7.07,-8.981 10.63,-21.168 10.63,-36.559 0,-10.742 -1.57,-19.851 -4.69,-27.351 -3.05,-7.5 -6.99,-12.957 -11.88,-16.399 -4.8,-3.441 -9.45,-5.16 -13.9,-5.16 -8.75,0 -16.1,5.238 -22.03,15.781 -5,8.75 -7.5,19.297 -7.5,31.719 z m 13.43,-1.719 c 0,-12.73 1.57,-23.121 4.69,-31.25 2.58,-6.793 6.49,-10.152 11.72,-10.152 2.38,0 4.88,1.09 7.5,3.281 2.7,2.258 4.73,5.969 6.09,11.09 2.08,7.891 3.13,18.988 3.13,33.281 0,10.508 -1.09,19.297 -3.28,26.411 -1.56,5.187 -3.67,8.91 -6.25,11.089 -1.88,1.571 -4.18,2.348 -6.88,2.348 -3.04,0 -5.78,-1.41 -8.28,-4.219 -3.24,-3.75 -5.47,-9.691 -6.72,-17.808 -1.17,-8.133 -1.72,-16.184 -1.72,-24.071 z" /><path
         id="path142"
         style="fill:#000000;fill-opacity:1;fill-rule:nonzero;stroke:none"
         d="m 2731.68,324.469 22.5,11.101 h 2.34 v -78.281 c 0,-5.238 0.2,-8.519 0.63,-9.848 0.39,-1.25 1.29,-2.261 2.65,-2.972 1.33,-0.617 4.15,-1.008 8.44,-1.09 v -2.5 h -34.84 v 2.5 c 4.37,0.082 7.19,0.473 8.44,1.09 1.25,0.711 2.11,1.609 2.65,2.66 0.51,1.133 0.78,4.531 0.78,10.16 v 50 c 0,6.75 -0.27,11.09 -0.78,12.973 -0.31,1.437 -0.9,2.5 -1.72,3.117 -0.86,0.699 -1.83,1.09 -2.97,1.09 -1.79,0 -4.14,-0.699 -7.03,-2.028 z m 56.56,-37.809 c 0,10.629 1.6,19.731 4.85,27.352 3.2,7.566 7.42,13.277 12.65,17.027 4.14,3 8.44,4.531 12.81,4.531 7.07,0 13.44,-3.672 19.07,-10.941 7.07,-8.981 10.62,-21.168 10.62,-36.559 0,-10.742 -1.56,-19.851 -4.69,-27.351 -3.04,-7.5 -6.99,-12.957 -11.87,-16.399 -4.8,-3.441 -9.45,-5.16 -13.91,-5.16 -8.75,0 -16.09,5.238 -22.03,15.781 -5,8.75 -7.5,19.297 -7.5,31.719 z m 13.44,-1.719 c 0,-12.73 1.56,-23.121 4.69,-31.25 2.58,-6.793 6.48,-10.152 11.72,-10.152 2.38,0 4.88,1.09 7.5,3.281 2.69,2.258 4.72,5.969 6.09,11.09 2.07,7.891 3.12,18.988 3.12,33.281 0,10.508 -1.09,19.297 -3.28,26.411 -1.56,5.187 -3.67,8.91 -6.25,11.089 -1.87,1.571 -4.18,2.348 -6.87,2.348 -3.05,0 -5.78,-1.41 -8.28,-4.219 -3.24,-3.75 -5.47,-9.691 -6.72,-17.808 -1.17,-8.133 -1.72,-16.184 -1.72,-24.071 z m 54.57,1.719 c 0,10.629 1.6,19.731 4.84,27.352 3.21,7.566 7.43,13.277 12.66,17.027 4.14,3 8.44,4.531 12.81,4.531 7.07,0 13.44,-3.672 19.06,-10.941 7.08,-8.981 10.63,-21.168 10.63,-36.559 0,-10.742 -1.56,-19.851 -4.69,-27.351 -3.04,-7.5 -6.99,-12.957 -11.87,-16.399 -4.81,-3.441 -9.46,-5.16 -13.91,-5.16 -8.75,0 -16.09,5.238 -22.03,15.781 -5,8.75 -7.5,19.297 -7.5,31.719 z m 13.44,-1.719 c 0,-12.73 1.56,-23.121 4.69,-31.25 2.57,-6.793 6.48,-10.152 11.71,-10.152 2.39,0 4.89,1.09 7.5,3.281 2.7,2.258 4.73,5.969 6.1,11.09 2.07,7.891 3.12,18.988 3.12,33.281 0,10.508 -1.09,19.297 -3.28,26.411 -1.56,5.187 -3.67,8.91 -6.25,11.089 -1.87,1.571 -4.18,2.348 -6.87,2.348 -3.05,0 -5.79,-1.41 -8.29,-4.219 -3.24,-3.75 -5.46,-9.691 -6.71,-17.808 -1.18,-8.133 -1.72,-16.184 -1.72,-24.071 z" /><path
         id="path144"
         style="fill:#000000;fill-opacity:1;fill-rule:nonzero;stroke:none"
         d="m 3577.34,258.691 -6.56,-17.812 h -54.69 v 2.5 c 16.14,14.691 27.5,26.641 34.07,35.941 6.56,9.371 9.84,17.891 9.84,25.621 0,5.821 -1.84,10.629 -5.47,14.379 -3.55,3.828 -7.89,5.782 -12.97,5.782 -4.49,0 -8.55,-1.372 -12.18,-4.063 -3.68,-2.738 -6.33,-6.641 -7.97,-11.719 h -2.66 c 1.13,8.442 4.06,14.879 8.75,19.371 4.77,4.571 10.7,6.879 17.81,6.879 7.5,0 13.75,-2.461 18.75,-7.351 5.08,-4.797 7.66,-10.457 7.66,-17.028 0,-4.679 -1.1,-9.371 -3.28,-14.062 -3.44,-7.418 -8.91,-15.231 -16.41,-23.438 -11.37,-12.421 -18.51,-19.921 -21.41,-22.5 h 24.22 c 5,0 8.48,0.161 10.47,0.469 1.96,0.391 3.75,1.168 5.31,2.352 1.57,1.129 2.97,2.687 4.22,4.679 z m 8.75,27.969 c 0,10.629 1.61,19.731 4.85,27.352 3.2,7.566 7.42,13.277 12.65,17.027 4.14,3 8.44,4.531 12.82,4.531 7.07,0 13.43,-3.672 19.06,-10.941 7.07,-8.981 10.62,-21.168 10.62,-36.559 0,-10.742 -1.56,-19.851 -4.68,-27.351 -3.05,-7.5 -7,-12.957 -11.88,-16.399 -4.8,-3.441 -9.45,-5.16 -13.91,-5.16 -8.74,0 -16.09,5.238 -22.03,15.781 -5,8.75 -7.5,19.297 -7.5,31.719 z m 13.44,-1.719 c 0,-12.73 1.56,-23.121 4.69,-31.25 2.58,-6.793 6.48,-10.152 11.72,-10.152 2.38,0 4.88,1.09 7.5,3.281 2.69,2.258 4.72,5.969 6.09,11.09 2.07,7.891 3.13,18.988 3.13,33.281 0,10.508 -1.1,19.297 -3.28,26.411 -1.57,5.187 -3.68,8.91 -6.26,11.089 -1.87,1.571 -4.17,2.348 -6.87,2.348 -3.05,0 -5.78,-1.41 -8.28,-4.219 -3.24,-3.75 -5.47,-9.691 -6.72,-17.808 -1.17,-8.133 -1.72,-16.184 -1.72,-24.071 z m 54.53,1.719 c 0,10.629 1.6,19.731 4.85,27.352 3.2,7.566 7.42,13.277 12.65,17.027 4.14,3 8.44,4.531 12.82,4.531 7.07,0 13.43,-3.672 19.06,-10.941 7.07,-8.981 10.62,-21.168 10.62,-36.559 0,-10.742 -1.56,-19.851 -4.68,-27.351 -3.05,-7.5 -7,-12.957 -11.88,-16.399 -4.8,-3.441 -9.45,-5.16 -13.91,-5.16 -8.75,0 -16.09,5.238 -22.03,15.781 -5,8.75 -7.5,19.297 -7.5,31.719 z m 13.44,-1.719 c 0,-12.73 1.56,-23.121 4.69,-31.25 2.58,-6.793 6.48,-10.152 11.72,-10.152 2.38,0 4.88,1.09 7.5,3.281 2.69,2.258 4.72,5.969 6.09,11.09 2.07,7.891 3.12,18.988 3.12,33.281 0,10.508 -1.09,19.297 -3.28,26.411 -1.56,5.187 -3.67,8.91 -6.25,11.089 -1.87,1.571 -4.18,2.348 -6.87,2.348 -3.05,0 -5.78,-1.41 -8.28,-4.219 -3.24,-3.75 -5.47,-9.691 -6.72,-17.808 -1.17,-8.133 -1.72,-16.184 -1.72,-24.071 z" /><path
         id="path146"
         style="fill:#000000;fill-opacity:1;fill-rule:nonzero;stroke:none"
         d="m 1564.26,158.191 h 44.37 c 11.57,0 20.2,-2.5 25.94,-7.5 5.82,-5 8.75,-11.101 8.75,-18.293 0,-5.738 -1.84,-11.32 -5.47,-16.707 -3.67,-5.32 -9.06,-9.652 -16.25,-12.972 -7.19,-3.3596 -15,-5.0002 -23.44,-5.0002 -5.23,0 -11.83,0.9296 -19.84,2.8122 l -8.91,-30.6326 c -2.11,-7.4179 -3.12,-12.2578 -3.12,-14.5273 0,-1.793 0.7,-3.2422 2.19,-4.3711 1.44,-1.1719 5.04,-1.8789 10.78,-2.1914 l -0.94,-3.1172 h -44.69 l 0.94,3.1172 c 5.82,0 9.88,0.9805 12.19,2.9727 2.26,1.9492 4.76,7.539 7.5,16.7187 l 18.59,64.059 c 2.19,7.703 3.28,12.851 3.28,15.472 0,1.949 -0.78,3.59 -2.34,4.84 -1.56,1.25 -5.08,2.027 -10.47,2.348 z m 15.47,-52.351 c 6.25,-1.68 11.29,-2.5 15.15,-2.5 6.02,0 11.49,1.25 16.41,3.75 5,2.5 8.91,6.25 11.72,11.25 2.81,5 4.22,10.16 4.22,15.469 0,5.632 -1.72,10.043 -5.16,13.281 -3.44,3.32 -8.67,5 -15.62,5 -3.75,0 -8.36,-0.469 -13.75,-1.399 z" /><path
         id="path148"
         style="fill:#000000;fill-opacity:1;fill-rule:nonzero;stroke:none"
         d="m 1680.94,132.398 h -23.13 l -4.06,-9.367 c -1.05,-2.422 -1.56,-4.179 -1.56,-5.312 0,-0.86 0.39,-1.641 1.25,-2.348 0.94,-0.742 2.85,-1.211 5.78,-1.402 v -1.571 h -18.75 v 1.571 c 2.38,0.5 3.94,1.09 4.69,1.722 1.56,1.438 3.2,4.289 5,8.59 l 20.93,49.059 h 1.57 l 20.78,-49.531 c 1.64,-3.981 3.16,-6.559 4.53,-7.809 1.33,-1.172 3.28,-1.84 5.78,-2.031 v -1.571 h -23.59 v 1.571 c 2.38,0.191 3.98,0.621 4.84,1.25 0.82,0.621 1.25,1.441 1.25,2.5 0,1.25 -0.59,3.281 -1.72,6.09 z m -1.25,3.293 -10.16,24.059 -10.31,-24.059 z" /><path
         id="path150"
         style="fill:#000000;fill-opacity:1;fill-rule:nonzero;stroke:none"
         d="m 1682.42,42.7891 c 4.14,-0.9297 7.23,-2.3399 9.22,-4.211 2.89,-2.7383 4.38,-6.0586 4.38,-10 0,-2.9297 -0.94,-5.75 -2.82,-8.4375 -1.87,-2.7422 -4.49,-4.6914 -7.81,-5.9414 -3.24,-1.25 -8.2,-1.8711 -14.84,-1.8711 h -28.13 v 1.5625 h 2.19 c 2.5,0 4.26,0.8203 5.31,2.5 0.7,0.9375 1.1,3.1211 1.1,6.5586 v 38.4414 c 0,3.6289 -0.43,5.9805 -1.25,7.0313 -1.18,1.25 -2.89,1.8672 -5.16,1.8672 h -2.19 v 1.5703 h 25.63 c 4.88,0 8.75,-0.3203 11.56,-0.9375 4.45,-1.0508 7.85,-2.9336 10.16,-5.6328 2.26,-2.7305 3.43,-5.7774 3.43,-9.211 0,-3.0468 -0.93,-5.75 -2.81,-8.1289 -1.8,-2.3008 -4.45,-4.0195 -7.97,-5.1601 z m -22.97,2.3515 c 1.02,-0.2422 2.23,-0.3906 3.6,-0.4687 1.44,-0.1211 3,-0.1602 4.68,-0.1602 4.26,0 7.43,0.4688 9.54,1.4102 2.18,0.9375 3.82,2.3398 5,4.2187 1.13,1.8711 1.71,3.9375 1.71,6.25 0,3.4375 -1.4,6.3985 -4.21,8.8985 -2.82,2.5 -7,3.75 -12.5,3.75 -2.93,0 -5.55,-0.3907 -7.82,-1.0899 z m 0,-28.4414 c 3.32,-0.8594 6.64,-1.25 10,-1.25 5.32,0 9.3,1.1719 12.03,3.5899 2.82,2.3906 4.22,5.3593 4.22,8.9101 0,2.2696 -0.62,4.4492 -1.87,6.5625 -1.25,2.1875 -3.28,3.8281 -6.1,5 -2.81,1.25 -6.36,1.8789 -10.62,1.8789 -1.8,0 -3.36,-0.082 -4.69,-0.1601 -1.25,0 -2.26,-0.0821 -2.97,-0.1524 z" /><path
         id="path152"
         style="fill:#000000;fill-opacity:1;fill-rule:nonzero;stroke:none"
         d="M 1811.76,12.3984 V 9.28125 c -8.36,4.29685 -15.31,9.21875 -20.94,14.83985 -7.93,8.0508 -14.06,17.457 -18.44,28.2773 -4.29,10.9414 -6.4,22.2735 -6.4,34.0704 0,17.1792 4.22,32.8122 12.65,46.8712 8.44,14.14 19.46,24.262 33.13,30.308 v -3.429 c -6.8,-3.75 -12.35,-8.91 -16.72,-15.469 -4.38,-6.488 -7.66,-14.77 -9.84,-24.852 -2.19,-10 -3.29,-20.4292 -3.29,-31.2496 0,-11.8671 0.94,-22.6484 2.82,-32.3398 1.44,-7.6172 3.16,-13.668 5.15,-18.2773 2.07,-4.6915 4.85,-9.1407 8.28,-13.4415 3.44,-4.2617 7.97,-8.3203 13.6,-12.1914 z m 72.42,33.293 -43.44,94.6796 V 65.2188 c 0,-7 0.71,-11.3282 2.19,-12.9688 2.07,-2.3086 5.31,-3.4414 9.69,-3.4414 h 4.06 v -3.1172 h -39.22 v 3.1172 h 4.06 c 4.69,0 8.01,1.4102 10,4.2227 1.25,1.7578 1.88,5.8203 1.88,12.1875 v 73.5902 c 0,4.882 -0.59,8.48 -1.72,10.781 -0.74,1.558 -2.15,2.851 -4.22,3.91 -2.11,1.129 -5.43,1.719 -10,1.719 v 2.972 h 31.88 l 40.78,-87.9722 40.31,87.9722 h 31.87 v -2.972 h -3.9 c -4.92,0 -8.36,-1.489 -10.31,-4.379 -1.18,-1.801 -1.72,-5.781 -1.72,-12.031 V 65.2188 c 0,-7 0.7,-11.3282 2.18,-12.9688 2.07,-2.3086 5.36,-3.4414 9.85,-3.4414 h 3.9 v -3.1172 h -47.81 v 3.1172 h 3.91 c 4.76,0 8.16,1.4102 10.15,4.2227 1.25,1.7578 1.88,5.8203 1.88,12.1875 v 75.1522 l -43.44,-94.6796 z m 96.84,47.3399 c -0.12,-11.25 2.57,-20.1211 8.12,-26.5625 5.63,-6.3672 12.11,-9.5274 19.53,-9.5274 5,0 9.3,1.3203 12.97,4.0586 3.75,2.6914 6.88,7.3789 9.38,14.0586 l 2.5,-1.7188 c -1.18,-7.5 -4.54,-14.371 -10.16,-20.621 -5.55,-6.25 -12.5,-9.379 -20.94,-9.379 -9.18,0 -17.03,3.5196 -23.59,10.629 -6.49,7.1796 -9.69,16.75 -9.69,28.75 0,13 3.32,23.1602 10,30.4722 6.64,7.258 15.04,10.93 25.16,10.93 8.51,0 15.5,-2.812 20.93,-8.43 5.51,-5.632 8.29,-13.211 8.29,-22.6597 z m 0,4.8398 h 35.15 c -0.31,4.8909 -0.9,8.3199 -1.72,10.3199 -1.36,3.118 -3.43,5.539 -6.25,7.34 -2.73,1.758 -5.58,2.66 -8.59,2.66 -4.61,0 -8.71,-1.839 -12.34,-5.472 -3.56,-3.559 -5.63,-8.52 -6.25,-14.8479 z m 176.44,60.3199 v -2.972 c -3.98,-0.75 -6.95,-2.028 -8.91,-3.91 -3.04,-2.731 -5.62,-6.84 -7.81,-12.34 l -39.37,-95.7776 h -2.97 l -42.19,97.0276 c -2.19,4.883 -3.71,7.89 -4.53,9.062 -1.48,1.641 -3.2,2.969 -5.16,3.91 -1.99,1.008 -4.68,1.707 -8.12,2.028 v 2.972 h 45.94 v -2.972 c -5.24,-0.547 -8.6,-1.41 -10.16,-2.66 -1.56,-1.25 -2.34,-2.93 -2.34,-5 0,-2.731 1.28,-6.989 3.9,-12.809 l 28.6,-66.1016 26.56,65.1606 c 2.58,6.453 3.9,10.941 3.9,13.441 0,1.559 -0.85,3.039 -2.5,4.531 -1.56,1.438 -4.29,2.5 -8.12,3.117 -0.23,0.082 -0.7,0.204 -1.41,0.321 v 2.972 z m 47.54,5.457 -40.78,-120.3082 h -6.56 l 40.62,120.3082 z" /><path
         id="path154"
         style="fill:#000000;fill-opacity:1;fill-rule:nonzero;stroke:none"
         d="m 2269.26,63.8086 c -5.74,-6.9883 -11.56,-12.1094 -17.5,-15.3086 -5.86,-3.2109 -11.99,-4.8516 -18.44,-4.8516 -7.93,0 -14.06,2.1914 -18.44,6.5704 -4.37,4.4531 -6.56,10.4726 -6.56,17.9726 0,8.4297 2.34,16.75 7.03,25 4.77,8.1996 11.13,14.8786 19.06,19.9996 8.01,5.071 15.86,7.649 23.6,7.649 6.01,0 10.51,-1.328 13.44,-3.899 3,-2.5 4.53,-5.589 4.53,-9.222 0,-3.438 -1.06,-6.367 -3.13,-8.7502 -1.56,-1.879 -3.44,-2.8204 -5.62,-2.8204 -1.8,0 -3.25,0.5118 -4.38,1.5704 -1.17,1.1328 -1.72,2.5432 -1.72,4.2222 0,1.008 0.2,1.95 0.63,2.809 0.39,0.941 1.25,2.031 2.5,3.281 1.33,1.25 2.19,2.11 2.5,2.66 0.31,0.618 0.47,1.25 0.47,1.868 0,1.132 -0.59,2.07 -1.72,2.812 -1.56,1.141 -3.83,1.719 -6.72,1.719 -5.43,0 -10.78,-1.949 -16.09,-5.781 -5.32,-3.75 -9.85,-9.18 -13.6,-16.2504 -4.61,-8.5469 -6.87,-17.1094 -6.87,-25.6172 0,-5.6328 1.6,-10.1211 4.84,-13.4414 3.2,-3.2383 7.58,-4.8516 13.13,-4.8516 4.25,0 8.47,1.0235 12.65,3.1329 4.14,2.1875 8.83,6.0898 14.06,11.7187 z" /><path
         id="path156"
         style="fill:#000000;fill-opacity:1;fill-rule:nonzero;stroke:none"
         d="m 2281.33,160.219 v 3.429 c 8.44,-4.058 15.47,-8.976 21.09,-14.679 7.89,-8.047 13.99,-17.5 18.28,-28.438 4.38,-10.859 6.57,-22.1521 6.57,-33.9099 0,-17.1797 -4.22,-32.8125 -12.66,-46.8711 -8.44,-14.1406 -19.53,-24.3008 -33.28,-30.46875 v 3.11715 c 6.87,3.8711 12.5,9.0313 16.87,15.4727 4.38,6.4883 7.58,14.6875 9.69,24.6875 2.19,10.082 3.28,20.6328 3.28,31.5625 0,11.7578 -0.9,22.5389 -2.65,32.3479 -1.49,7.57 -3.25,13.672 -5.32,18.281 -1.99,4.57 -4.68,8.98 -8.12,13.281 -3.44,4.258 -8.05,8.321 -13.75,12.188 z" /><path
         id="path158"
         style="fill:#000000;fill-opacity:1;fill-rule:nonzero;stroke:none"
         d="m 1708.95,19.7109 0.35,0.4297 1.25,1.25 0.35,0.4297 0.31,0.3086 0.43,0.3516 0.31,0.4297 0.35,0.3086 2.11,2.1093 1.18,1.0235 0.5,0.5078 0.59,0.5117 1.09,0.8906 0.51,0.4297 0.59,0.5078 c 0,0.0821 5.19,4.5313 8.16,7.5391 7.97,7.7305 9.81,11.8008 9.81,12.1133 0,0.8593 -0.75,0.8593 -0.9,0.8593 -0.63,0 -0.86,-0.1992 -1.29,-0.9414 -2.5,-4.0195 -4.26,-5.3906 -6.29,-5.3906 -2.03,0 -2.93,1.293 -4.22,2.6992 -1.56,1.9532 -3.01,3.6328 -5.78,3.6328 -6.29,0 -10.08,-7.8125 -10.08,-9.5703 0,-0.4297 0.16,-0.9414 0.9,-0.9414 0.78,0 0.94,0.4297 1.09,0.9414 1.61,3.8282 6.49,3.9375 7.15,3.9375 1.76,0 3.36,-0.5781 5.31,-1.289 3.29,-1.25 4.18,-1.25 6.37,-1.25 -3.01,-3.5899 -10,-9.5703 -11.6,-10.9297 l -7.54,-6.961 c -5.62,-5.6171 -8.59,-10.4296 -8.59,-11.0078 0,-0.7422 0.86,-0.7422 1.01,-0.7422 0.67,0 0.86,0.1524 1.37,1.0899 1.91,2.8515 4.45,5.1211 7.03,5.1211 1.95,0 2.77,-0.7383 4.88,-3.211 1.45,-1.75 2.93,-3 5.39,-3 8.25,0 13.09,10.5821 13.09,12.8516 0,0.3086 -0.31,0.8203 -0.98,0.8203 -0.78,0 -0.93,-0.5117 -1.21,-1.1015 -1.91,-5.4297 -7.22,-7.0274 -10,-7.0274 -1.68,0 -3.16,0.5078 -4.92,1.0977 -2.89,1.0898 -4.14,1.4023 -5.9,1.4023 -0.15,0 -1.44,0 -2.18,-0.2305 z" /><path
         id="path160"
         style="fill:#000000;fill-opacity:1;fill-rule:nonzero;stroke:none"
         d="m 325.82,394.75 c 0,10.621 1.602,19.719 4.84,27.34 3.211,7.582 7.43,13.281 12.66,17.031 4.141,3.008 8.442,4.527 12.809,4.527 7.07,0 13.441,-3.668 19.07,-10.929 7.071,-8.989 10.621,-21.18 10.621,-36.571 0,-10.738 -1.558,-19.839 -4.691,-27.339 -3.039,-7.5 -6.988,-12.969 -11.867,-16.411 -4.813,-3.429 -9.461,-5.148 -13.91,-5.148 -8.75,0 -16.09,5.23 -22.032,15.781 -5,8.75 -7.5,19.297 -7.5,31.719 z m 13.442,-1.719 c 0,-12.742 1.558,-23.133 4.687,-31.25 2.571,-6.801 6.481,-10.16 11.711,-10.16 2.391,0 4.891,1.098 7.5,3.277 2.699,2.274 4.731,5.981 6.102,11.102 2.066,7.891 3.117,18.98 3.117,33.281 0,10.508 -1.09,19.297 -3.277,26.41 -1.563,5.188 -3.672,8.899 -6.25,11.09 -1.872,1.559 -4.18,2.34 -6.872,2.34 -3.05,0 -5.781,-1.402 -8.281,-4.223 -3.25,-3.75 -5.469,-9.679 -6.719,-17.808 -1.179,-8.121 -1.718,-16.168 -1.718,-24.059 z" /><path
         id="path162"
         style="fill:#000000;fill-opacity:1;fill-rule:nonzero;stroke:none"
         d="m 269.18,792.328 22.5,11.094 h 2.34 v -78.281 c 0,-5.243 0.199,-8.52 0.628,-9.852 0.391,-1.25 1.293,-2.258 2.653,-2.961 1.328,-0.629 4.148,-1.019 8.437,-1.098 v -2.5 h -34.84 v 2.5 c 4.372,0.079 7.192,0.469 8.442,1.098 1.25,0.703 2.109,1.602 2.648,2.652 0.512,1.141 0.782,4.532 0.782,10.161 v 50 c 0,6.757 -0.27,11.089 -0.782,12.968 -0.308,1.442 -0.898,2.5 -1.718,3.121 -0.86,0.711 -1.829,1.098 -2.969,1.098 -1.789,0 -4.141,-0.707 -7.031,-2.039 z m 56.64,-37.816 c 0,10.629 1.602,19.726 4.84,27.347 3.211,7.582 7.43,13.282 12.66,17.032 4.141,3.007 8.442,4.531 12.809,4.531 7.07,0 13.441,-3.672 19.07,-10.942 7.071,-8.98 10.621,-21.171 10.621,-36.558 0,-10.742 -1.558,-19.844 -4.691,-27.344 -3.039,-7.5 -6.988,-12.969 -11.867,-16.406 -4.813,-3.442 -9.461,-5.16 -13.91,-5.16 -8.75,0 -16.09,5.238 -22.032,15.777 -5,8.75 -7.5,19.301 -7.5,31.723 z m 13.442,-1.723 c 0,-12.73 1.558,-23.117 4.687,-31.25 2.571,-6.789 6.481,-10.148 11.711,-10.148 2.391,0 4.891,1.089 7.5,3.281 2.699,2.269 4.731,5.976 6.102,11.09 2.066,7.886 3.117,18.988 3.117,33.277 0,10.512 -1.09,19.301 -3.277,26.41 -1.563,5.199 -3.672,8.91 -6.25,11.09 -1.872,1.57 -4.18,2.352 -6.872,2.352 -3.05,0 -5.781,-1.411 -8.281,-4.219 -3.25,-3.75 -5.469,-9.692 -6.719,-17.813 -1.179,-8.129 -1.718,-16.168 -1.718,-24.07 z" /><path
         id="path164"
         style="fill:#000000;fill-opacity:1;fill-rule:nonzero;stroke:none"
         d="m 316.988,1109.55 -6.558,-17.81 h -54.692 v 2.5 c 16.141,14.69 27.5,26.64 34.063,35.94 6.57,9.37 9.847,17.89 9.847,25.62 0,5.82 -1.839,10.63 -5.468,14.38 -3.559,3.83 -7.891,5.78 -12.969,5.78 -4.492,0 -8.551,-1.37 -12.191,-4.06 -3.668,-2.74 -6.321,-6.64 -7.969,-11.72 h -2.653 c 1.133,8.44 4.063,14.88 8.75,19.37 4.762,4.57 10.704,6.88 17.813,6.88 7.5,0 13.75,-2.46 18.75,-7.35 5.078,-4.8 7.66,-10.46 7.66,-17.03 0,-4.68 -1.101,-9.37 -3.281,-14.06 -3.442,-7.42 -8.91,-15.23 -16.41,-23.44 -11.371,-12.42 -18.52,-19.92 -21.41,-22.5 h 24.218 c 5,0 8.481,0.16 10.473,0.47 1.949,0.39 3.75,1.17 5.309,2.35 1.57,1.13 2.968,2.69 4.218,4.68 z m 8.832,27.97 c 0,10.63 1.602,19.73 4.84,27.35 3.211,7.57 7.43,13.28 12.66,17.03 4.141,3 8.442,4.53 12.809,4.53 7.07,0 13.441,-3.67 19.07,-10.94 7.071,-8.98 10.621,-21.17 10.621,-36.56 0,-10.74 -1.558,-19.85 -4.691,-27.35 -3.039,-7.5 -6.988,-12.96 -11.867,-16.4 -4.813,-3.44 -9.461,-5.16 -13.91,-5.16 -8.75,0 -16.09,5.24 -22.032,15.78 -5,8.75 -7.5,19.3 -7.5,31.72 z m 13.442,-1.72 c 0,-12.73 1.558,-23.12 4.687,-31.25 2.571,-6.79 6.481,-10.15 11.711,-10.15 2.391,0 4.891,1.09 7.5,3.28 2.699,2.26 4.731,5.97 6.102,11.09 2.066,7.89 3.117,18.99 3.117,33.28 0,10.51 -1.09,19.3 -3.277,26.41 -1.563,5.19 -3.672,8.91 -6.25,11.09 -1.872,1.57 -4.18,2.35 -6.872,2.35 -3.05,0 -5.781,-1.41 -8.281,-4.22 -3.25,-3.75 -5.469,-9.69 -6.719,-17.81 -1.179,-8.13 -1.718,-16.18 -1.718,-24.07 z" /><path
         id="path166"
         style="fill:#000000;fill-opacity:1;fill-rule:nonzero;stroke:none"
         d="m 259.961,1539.28 c 2.578,6.25 5.859,11.09 9.84,14.53 4.07,3.44 9.109,5.16 15.16,5.16 7.379,0 13.051,-2.46 17.027,-7.35 3.012,-3.55 4.532,-7.42 4.532,-11.56 0,-6.8 -4.219,-13.75 -12.649,-20.94 5.699,-2.18 10.039,-5.39 12.969,-9.53 2.89,-4.18 4.371,-9.06 4.371,-14.69 0,-8.04 -2.582,-14.96 -7.66,-20.78 -6.672,-7.73 -16.321,-11.56 -28.903,-11.56 -6.25,0 -10.546,0.78 -12.808,2.34 -2.309,1.57 -3.442,3.21 -3.442,5 0,1.33 0.512,2.5 1.563,3.44 1.129,1.02 2.418,1.56 3.91,1.56 1.129,0 2.34,-0.15 3.59,-0.46 0.699,-0.24 2.418,-1.06 5.16,-2.5 2.809,-1.49 4.719,-2.35 5.777,-2.66 1.641,-0.43 3.442,-0.63 5.313,-0.63 4.687,0 8.75,1.76 12.187,5.32 3.442,3.63 5.153,7.89 5.153,12.81 0,3.63 -0.781,7.11 -2.34,10.47 -1.25,2.58 -2.582,4.57 -3.91,5.94 -1.992,1.75 -4.68,3.35 -8.121,4.84 -3.442,1.44 -6.95,2.19 -10.469,2.19 h -2.191 v 2.18 c 3.64,0.39 7.23,1.64 10.781,3.75 3.64,2.19 6.289,4.77 7.969,7.82 1.64,3 2.5,6.29 2.5,9.84 0,4.69 -1.52,8.48 -4.532,11.41 -2.929,2.89 -6.558,4.37 -10.937,4.37 -7.102,0 -12.961,-3.83 -17.653,-11.4 z m 65.859,-29.22 c 0,10.63 1.602,19.73 4.84,27.34 3.211,7.58 7.43,13.29 12.66,17.04 4.141,3 8.442,4.53 12.809,4.53 7.07,0 13.441,-3.68 19.07,-10.94 7.071,-8.99 10.621,-21.17 10.621,-36.56 0,-10.75 -1.558,-19.85 -4.691,-27.35 -3.039,-7.5 -6.988,-12.97 -11.867,-16.4 -4.813,-3.44 -9.461,-5.16 -13.91,-5.16 -8.75,0 -16.09,5.23 -22.032,15.78 -5,8.75 -7.5,19.3 -7.5,31.72 z m 13.442,-1.72 c 0,-12.73 1.558,-23.12 4.687,-31.25 2.571,-6.8 6.481,-10.15 11.711,-10.15 2.391,0 4.891,1.09 7.5,3.28 2.699,2.26 4.731,5.97 6.102,11.09 2.066,7.89 3.117,18.98 3.117,33.28 0,10.51 -1.09,19.3 -3.277,26.41 -1.563,5.19 -3.672,8.9 -6.25,11.09 -1.872,1.56 -4.18,2.35 -6.872,2.35 -3.05,0 -5.781,-1.41 -8.281,-4.22 -3.25,-3.75 -5.469,-9.69 -6.719,-17.82 -1.179,-8.12 -1.718,-16.17 -1.718,-24.06 z" /><path
         id="path168"
         style="fill:#000000;fill-opacity:1;fill-rule:nonzero;stroke:none"
         d="M 9.44922,662.828 107.27,634.238 c 5.308,-1.558 8.82,-2.34 10.46,-2.34 0.629,0 1.219,0.192 1.719,0.622 0.43,0.511 0.629,1.019 0.629,1.558 0,0.711 -0.348,1.57 -1.098,2.5 -1.25,1.883 -4.531,5.043 -9.839,9.543 l 1.718,2.809 c 5.551,-3.989 10,-7.969 13.442,-12.032 3.429,-4.07 5.148,-7.886 5.148,-11.41 0,-1.867 -0.699,-3.437 -2.027,-4.687 -1.332,-1.25 -3.203,-1.871 -5.621,-1.871 -3.129,0 -7.352,0.82 -12.66,2.5 l -10.3129,3.281 c 12.4219,-8.051 20.9419,-15.313 25.6209,-21.883 3.321,-4.609 5,-8.976 5,-13.117 0,-4.18 -1.871,-7.813 -5.621,-10.941 -3.75,-3.122 -8.828,-4.692 -15.308,-4.692 -8.211,0 -16.9614,2.582 -26.2505,7.82 -9.3789,5.313 -17.039,12.262 -22.9687,20.93 -4.6914,6.762 -7.0313,13.012 -7.0313,18.75 0,2.891 0.6211,5.473 1.8711,7.66 1.25,2.192 3.2813,4.301 6.0899,6.41 l -28.9024,8.122 c -2.0664,0.628 -3.75,1.128 -5,1.558 -2.1875,0.633 -3.9883,0.942 -5.4687,0.942 -1.1289,0 -2.0703,-0.43 -2.8086,-1.25 -0.9414,-1.168 -1.4102,-2.649 -1.4102,-4.532 0,-1.25 0.1602,-3.359 0.4688,-6.25 H 14.1406 Z M 68.3594,632.051 c -3.5196,0 -6.4102,-1.051 -8.5899,-3.121 -2.1914,-2.11 -3.289,-4.692 -3.289,-7.809 0,-7 5.789,-14.301 17.3476,-21.883 11.4805,-7.5 22.461,-11.25 32.9729,-11.25 4.179,0 7.34,0.864 9.527,2.66 2.192,1.872 3.281,4.063 3.281,6.563 0,5.82 -6.168,13.051 -18.589,21.719 -12.5005,8.75 -23.3598,13.121 -32.6606,13.121 z" /><path
         id="path170"
         style="fill:#000000;fill-opacity:1;fill-rule:nonzero;stroke:none"
         d="m 54.3008,745.18 11.7187,-3.282 v -27.027 c 6.4805,7.809 13.711,11.707 21.711,11.707 10.5508,0 20.1215,-4.137 28.7495,-12.34 8.68,-8.117 12.969,-17.886 12.969,-29.218 0,-8.051 -2.179,-14.219 -6.558,-18.59 -4.45,-4.301 -10.391,-6.41 -17.813,-6.41 -7.0663,0 -14.4569,1.601 -22.1874,4.851 -7.6914,3.32 -13.75,7.848 -18.1211,13.59 -4.4609,5.82 -7.3476,11.867 -8.5976,18.117 -1.25,6.25 -1.8711,15.942 -1.8711,29.07 z m 11.7187,-34.379 c 0.1094,-13.981 5.1094,-23.832 15,-29.531 9.9219,-5.739 19.9215,-8.59 30.0005,-8.59 9.679,0 14.531,4.218 14.531,12.648 0,8.012 -5.352,14.774 -16.102,20.32 -10.699,5.622 -20.7771,8.43 -30.1482,8.43 -5.6289,0 -10.0391,-1.09 -13.2813,-3.277 z" /><path
         id="path172"
         style="fill:#000000;fill-opacity:1;fill-rule:nonzero;stroke:none"
         d="M 9.44922,786.859 129.77,746.078 v -6.566 L 9.44922,780.141 Z" /><path
         id="path174"
         style="fill:#000000;fill-opacity:1;fill-rule:nonzero;stroke:none"
         d="M 9.44922,878.219 107.27,849.629 c 5.308,-1.559 8.82,-2.34 10.46,-2.34 0.629,0 1.219,0.191 1.719,0.621 0.43,0.512 0.629,1.02 0.629,1.559 0,0.711 -0.348,1.57 -1.098,2.5 -1.25,1.883 -4.531,5.043 -9.839,9.543 l 1.718,2.808 c 5.551,-3.992 10,-7.968 13.442,-12.031 3.429,-4.07 5.148,-7.891 5.148,-11.41 0,-1.867 -0.699,-3.438 -2.027,-4.688 -1.332,-1.25 -3.203,-1.871 -5.621,-1.871 -3.129,0 -7.352,0.821 -12.66,2.5 l -10.3129,3.282 c 12.4219,-8.051 20.9419,-15.313 25.6209,-21.883 3.321,-4.598 5,-8.981 5,-13.117 0,-4.18 -1.871,-7.813 -5.621,-10.942 -3.75,-3.121 -8.828,-4.691 -15.308,-4.691 -8.211,0 -16.9614,2.582 -26.2505,7.82 -9.3789,5.313 -17.039,12.262 -22.9687,20.93 -4.6914,6.761 -7.0313,13.011 -7.0313,18.75 0,2.902 0.6211,5.472 1.8711,7.66 1.25,2.191 3.2813,4.301 6.0899,6.41 l -28.9024,8.121 c -2.0664,0.629 -3.75,1.129 -5,1.559 -2.1875,0.633 -3.9883,0.941 -5.4687,0.941 -1.1289,0 -2.0703,-0.43 -2.8086,-1.25 -0.9414,-1.172 -1.4102,-2.648 -1.4102,-4.531 0,-1.25 0.1602,-3.359 0.4688,-6.25 H 14.1406 Z M 68.3594,847.441 c -3.5196,0 -6.4102,-1.05 -8.5899,-3.121 -2.1914,-2.109 -3.289,-4.691 -3.289,-7.808 0,-7 5.789,-14.301 17.3476,-21.883 11.4805,-7.5 22.461,-11.25 32.9729,-11.25 4.179,0 7.34,0.859 9.527,2.66 2.192,1.871 3.281,4.063 3.281,6.563 0,5.82 -6.168,13.046 -18.589,21.718 -12.5005,8.75 -23.3598,13.121 -32.6606,13.121 z m -53.4375,50 v 44.379 c 0,11.559 2.5,20.192 7.5,25.942 5,5.816 11.0976,8.75 18.2773,8.75 5.75,0 11.3321,-1.84 16.7227,-5.473 5.3086,-3.668 9.6484,-9.07 12.9687,-16.25 3.3594,-7.187 5,-15 5,-23.437 0,-5.231 -0.9414,-11.84 -2.8125,-19.84 l 30.6209,-8.91 c 7.422,-2.114 12.27,-3.133 14.531,-3.133 1.801,0 3.25,0.711 4.379,2.191 1.172,1.449 1.871,5.039 2.192,10.781 l 3.121,-0.929 V 866.82 l -3.121,0.942 c 0,5.816 -0.981,9.879 -2.973,12.179 -1.949,2.27 -7.539,4.77 -16.719,7.5 l -64.0582,18.598 c -7.6992,2.18 -12.8516,3.281 -15.4727,3.281 -1.957,0 -3.5976,-0.781 -4.8476,-2.351 -1.25,-1.559 -2.0313,-5.071 -2.3399,-10.457 z m 52.3476,15.469 c 1.6797,6.25 2.5,11.289 2.5,15.16 0,6.008 -1.25,11.481 -3.75,16.399 -2.5,5 -6.25,8.91 -11.25,11.722 -5,2.821 -10.1601,4.219 -15.4687,4.219 -5.6289,0 -10.0391,-1.719 -13.2813,-5.148 -3.3203,-3.442 -5,-8.684 -5,-15.633 0,-3.75 0.461,-8.359 1.4024,-13.75 z" /><path
         id="path176"
         style="fill:#000000;fill-opacity:1;fill-rule:nonzero;stroke:none"
         d="m 39.6484,1015.69 v -23.131 l 9.3711,-4.059 c 2.4297,-1.059 4.1797,-1.559 5.3203,-1.559 0.8594,0 1.6407,0.387 2.3399,1.25 0.7422,0.93 1.2109,2.848 1.4101,5.778 h 1.5586 v -18.75 h -1.5586 c -0.5117,2.383 -1.1015,3.941 -1.7187,4.679 -1.4492,1.571 -4.3008,3.211 -8.6016,5 l -49.05856,20.942 v 1.56 l 49.52736,20.79 c 3.9922,1.64 6.5625,3.16 7.8125,4.53 1.1797,1.32 1.8398,3.28 2.039,5.78 h 1.5586 v -23.6 h -1.5586 c -0.1992,2.39 -0.6289,3.99 -1.25,4.85 -0.6289,0.82 -1.4492,1.25 -2.5,1.25 -1.25,0 -3.289,-0.59 -6.1015,-1.72 z m -3.2773,-1.25 -24.0703,-10.16 24.0703,-10.311 z" /><path
         id="path178"
         style="fill:#000000;fill-opacity:1;fill-rule:nonzero;stroke:none"
         d="m 130.82,1018.89 c 0.942,4.14 2.34,7.23 4.219,9.22 2.731,2.89 6.051,4.37 10,4.37 2.93,0 5.742,-0.94 8.441,-2.81 2.731,-1.88 4.68,-4.49 5.93,-7.81 1.25,-3.24 1.879,-8.21 1.879,-14.85 v -28.119 h -1.559 v 2.187 c 0,2.5 -0.82,4.25 -2.5,5.313 -0.941,0.699 -3.128,1.089 -6.57,1.089 h -38.43 c -3.64,0 -5.98,-0.429 -7.031,-1.25 -1.25,-1.171 -1.879,-2.89 -1.879,-5.152 v -2.187 h -1.558 v 25.619 c 0,4.89 0.308,8.75 0.937,11.57 1.051,4.45 2.922,7.85 5.621,10.15 2.731,2.27 5.782,3.44 9.219,3.44 3.051,0 5.742,-0.94 8.121,-2.81 2.309,-1.8 4.031,-4.46 5.16,-7.97 z m -2.34,-22.968 c 0.231,1.019 0.391,2.226 0.469,3.59 0.11,1.448 0.153,3.008 0.153,4.688 0,4.26 -0.473,7.42 -1.403,9.53 -0.937,2.19 -2.347,3.83 -4.219,5 -1.878,1.14 -3.949,1.72 -6.25,1.72 -3.441,0 -6.41,-1.41 -8.91,-4.22 -2.5,-2.81 -3.75,-6.99 -3.75,-12.5 0,-2.93 0.391,-5.539 1.09,-7.808 z m 28.43,0 c 0.86,3.316 1.25,6.638 1.25,9.998 0,5.31 -1.172,9.3 -3.59,12.03 -2.379,2.81 -5.351,4.22 -8.91,4.22 -2.262,0 -4.449,-0.63 -6.558,-1.88 -2.192,-1.25 -3.832,-3.28 -5,-6.09 -1.25,-2.81 -1.872,-6.37 -1.872,-10.62 0,-1.8 0.071,-3.36 0.149,-4.689 0,-1.25 0.082,-2.27 0.16,-2.969 z" /><path
         id="path180"
         style="fill:#000000;fill-opacity:1;fill-rule:nonzero;stroke:none"
         d="m 161.172,1151 v -36.56 H 12.2695 V 1151 h 6.5586 v -24.06 H 154.609 V 1151 Z" /><path
         id="path182"
         style="fill:#000000;fill-opacity:1;fill-rule:nonzero;stroke:none"
         d="m 113.672,1217.6 c 10.738,-10 16.098,-18.75 16.098,-26.25 0,-4.69 -1.84,-9.14 -5.469,-13.28 h 4.371 c 5.078,0 10.199,0.78 15.308,2.34 5.711,1.76 9.54,2.66 11.411,2.66 2.5,0 4.57,-0.86 6.25,-2.5 1.64,-1.56 2.5,-3.52 2.5,-5.78 0,-2.5 -1.02,-4.5 -2.969,-5.94 -1.871,-1.37 -4.184,-2.03 -6.871,-2.03 -2.11,0 -5.711,0.66 -10.781,2.03 -5.86,1.64 -11.489,2.5 -16.879,2.5 H 51.3281 v 13.75 h 49.2229 c 5,0 8.711,0.39 11.09,1.25 2.308,0.94 4.179,2.42 5.629,4.53 1.48,2.19 2.179,4.69 2.179,7.5 0,4.88 -3.359,11.29 -10.148,19.22 H 51.3281 v 13.75 h 57.8129 c 4.808,0 8.129,0.47 10,1.41 1.879,1.01 2.808,2.73 2.808,5.15 0,3.75 -3.668,6.17 -11.09,7.35 v 2.96 c 12.621,-1.05 18.911,-6.36 18.911,-15.93 0,-4.18 -1.411,-7.66 -4.219,-10.47 -2.821,-2.74 -6.762,-4.14 -11.879,-4.22 z" /><path
         id="path184"
         style="fill:#000000;fill-opacity:1;fill-rule:nonzero;stroke:none"
         d="m 64.4492,1274.2 c -10.1875,7.38 -15.3086,15.35 -15.3086,23.91 0,7.81 3.3594,14.57 10,20.31 6.6797,5.82 15.7813,8.75 27.3399,8.75 13.5585,0 24.4605,-4.49 32.6605,-13.44 7.109,-7.73 10.629,-16.25 10.629,-25.62 0,-4.49 -0.79,-9.03 -2.348,-13.6 -1.641,-4.61 -4.102,-9.22 -7.344,-13.9 H 41.3281 c -8.6289,0 -13.9492,-0.24 -15.9375,-0.63 -1.9492,-0.43 -3.3203,-1.09 -4.0625,-2.03 -0.707,-0.86 -1.0976,-1.95 -1.0976,-3.28 0,-1.56 0.4687,-3.52 1.4101,-5.78 l -2.9687,-1.25 -9.22268,22.81 v 3.75 z m 5.3203,0 H 115.23 c 2.821,2.81 4.969,5.7 6.411,8.75 1.371,3.01 2.031,6.13 2.031,9.38 0,5 -2.731,9.61 -8.281,13.9 -5.512,4.38 -13.59,6.56 -24.2191,6.56 -9.6914,0 -17.1133,-2.18 -22.3438,-6.56 -5.3086,-4.29 -7.9687,-9.18 -7.9687,-14.69 0,-2.92 0.7812,-5.85 2.3398,-8.75 1.0625,-2.3 3.25,-5.15 6.5703,-8.59 z M 9.44922,1380.45 129.77,1339.67 v -6.56 L 9.44922,1373.73 Z m 151.24978,52.11 h 3.129 c -4.297,-8.36 -9.219,-15.31 -14.848,-20.94 -8.039,-7.93 -17.46,-14.06 -28.281,-18.43 -10.929,-4.3 -22.2576,-6.41 -34.0584,-6.41 -17.1914,0 -32.8125,4.22 -46.8711,12.66 -14.1484,8.43 -24.2578,19.45 -30.32028,33.12 h 3.44138 c 3.75,-6.8 8.9102,-12.34 15.4688,-16.72 6.4804,-4.37 14.7617,-7.65 24.8398,-9.84 10,-2.19 20.4297,-3.28 31.25,-3.28 11.8789,0 22.6598,0.93 32.3518,2.81 7.609,1.44 13.668,3.16 18.277,5.16 4.692,2.07 9.141,4.84 13.442,8.28 4.25,3.43 8.32,7.97 12.179,13.59 z m -33.277,73.32 -94.6915,-43.44 h 75.1605 c 6.988,0 11.328,0.71 12.968,2.19 2.301,2.07 3.442,5.31 3.442,9.69 v 4.06 h 3.121 v -39.22 h -3.121 v 4.06 c 0,4.69 -1.41,8.01 -4.223,10 -1.758,1.25 -5.816,1.88 -12.187,1.88 H 34.3008 c -4.8906,0 -8.4805,-0.59 -10.7813,-1.72 -1.5703,-0.74 -2.8593,-2.15 -3.9101,-4.22 -1.1289,-2.11 -1.7188,-5.43 -1.7188,-10 h -2.9687 v 31.88 l 87.9691,40.78 -87.9691,40.31 v 31.88 h 2.9687 v -3.91 c 0,-4.92 1.4883,-8.36 4.3789,-10.31 1.7891,-1.17 5.7813,-1.72 12.0313,-1.72 h 73.5902 c 6.988,0 11.328,0.7 12.968,2.19 2.301,2.07 3.442,5.35 3.442,9.84 v 3.91 h 3.121 v -47.82 h -3.121 v 3.91 c 0,4.77 -1.41,8.16 -4.223,10.16 -1.758,1.25 -5.816,1.87 -12.187,1.87 H 32.7305 l 94.6915,-43.44 z m -47.3439,99.1 c 11.25,-0.11 20.1209,2.58 26.5629,8.13 6.371,5.62 9.531,12.11 9.531,19.53 0,5 -1.332,9.3 -4.063,12.97 -2.699,3.75 -7.379,6.87 -14.0582,9.37 l 1.7187,2.5 c 7.5005,-1.17 14.3715,-4.53 20.6215,-10.15 6.25,-5.55 9.379,-12.5 9.379,-20.94 0,-9.18 -3.52,-17.03 -10.629,-23.6 -7.192,-6.48 -16.762,-9.68 -28.7504,-9.68 -13.0117,0 -23.1601,3.32 -30.4687,10 -7.2617,6.64 -10.9414,15.04 -10.9414,25.15 0,8.52 2.8203,15.51 8.4414,20.94 5.6289,5.51 13.1992,8.28 22.6562,8.28 z m -4.8476,0 v 35.16 c -4.8789,-0.31 -8.3203,-0.9 -10.3086,-1.72 -3.1211,-1.37 -5.543,-3.44 -7.3438,-6.25 -1.7578,-2.73 -2.6562,-5.59 -2.6562,-8.59 0,-4.61 1.8398,-8.71 5.4687,-12.35 3.5586,-3.55 8.5196,-5.62 14.8399,-6.25 z M 14.9219,1782.6 h 2.9687 c 0.7383,-3.98 2.0313,-6.95 3.9102,-8.91 2.7305,-3.04 6.8281,-5.62 12.3398,-7.81 l 95.7814,-39.37 v -2.97 l -97.0314,-42.19 c -4.8789,-2.19 -7.8906,-3.71 -9.0625,-4.53 -1.6367,-1.49 -2.9687,-3.2 -3.9062,-5.16 -1.0117,-1.99 -1.7227,-4.69 -2.0313,-8.12 h -2.9687 v 45.93 h 2.9687 c 0.5508,-5.23 1.4102,-8.59 2.6602,-10.15 1.25,-1.56 2.9297,-2.35 5,-2.35 2.7305,0 6.9883,1.29 12.8086,3.91 l 66.0896,28.59 -65.1482,26.57 c -6.4492,2.58 -10.9414,3.9 -13.4414,3.9 -1.5586,0 -3.0508,-0.86 -4.5313,-2.5 -1.4492,-1.56 -2.5,-4.29 -3.1289,-8.12 -0.0781,-0.24 -0.1875,-0.7 -0.3086,-1.41 H 14.9219 Z M 9.44922,1832.01 129.77,1791.23 v -6.56 L 9.44922,1825.29 Z" /><path
         id="path186"
         style="fill:#000000;fill-opacity:1;fill-rule:nonzero;stroke:none"
         d="m 109.301,1896.97 c 6.988,-5.74 12.109,-11.56 15.308,-17.5 3.2,-5.85 4.84,-11.99 4.84,-18.43 0,-7.93 -2.179,-14.07 -6.558,-18.44 -4.45,-4.38 -10.469,-6.56 -17.969,-6.56 -8.4415,0 -16.7618,2.34 -25.0001,7.03 -8.2031,4.76 -14.8828,11.13 -20,19.06 -5.0821,8.01 -7.6524,15.86 -7.6524,23.59 0,6.02 1.3203,10.51 3.9024,13.44 2.5,3.01 5.5898,4.53 9.2187,4.53 3.4375,0 6.3711,-1.05 8.75,-3.12 1.8789,-1.56 2.8086,-3.44 2.8086,-5.63 0,-1.79 -0.5,-3.24 -1.5586,-4.37 -1.1289,-1.17 -2.539,-1.72 -4.2187,-1.72 -1.0117,0 -1.9531,0.19 -2.8125,0.62 -0.9375,0.4 -2.0313,1.25 -3.2813,2.5 -1.25,1.33 -2.1093,2.19 -2.6562,2.5 -0.6211,0.32 -1.25,0.47 -1.8711,0.47 -1.1406,0 -2.0703,-0.58 -2.8203,-1.72 -1.1289,-1.56 -1.711,-3.82 -1.711,-6.71 0,-5.43 1.9493,-10.79 5.7813,-16.1 3.75,-5.31 9.1797,-9.84 16.25,-13.59 8.5508,-4.61 17.1094,-6.88 25.6212,-6.88 5.629,0 10.117,1.6 13.437,4.85 3.243,3.2 4.84,7.58 4.84,13.12 0,4.26 -1.008,8.48 -3.121,12.66 -2.187,4.14 -6.098,8.83 -11.719,14.06 z" /><path
         id="path188"
         style="fill:#000000;fill-opacity:1;fill-rule:nonzero;stroke:none"
         d="M 12.8906,1910.18 H 9.44922 c 4.07028,8.44 8.99218,15.47 14.69138,21.09 8.0508,7.89 17.5,13.99 28.4375,18.28 10.8633,4.38 22.1524,6.57 33.9024,6.57 17.1915,0 32.8205,-4.22 46.8785,-12.66 14.141,-8.44 24.301,-19.53 30.469,-33.28 h -3.129 c -3.859,6.87 -9.019,12.5 -15.469,16.87 -6.48,4.38 -14.679,7.58 -24.679,9.69 -10.082,2.19 -20.6291,3.28 -31.5705,3.28 -11.75,0 -22.5313,-0.9 -32.3399,-2.65 -7.582,-1.49 -13.6718,-3.25 -18.2812,-5.32 -4.5703,-1.99 -8.9805,-4.68 -13.2813,-8.12 -4.2578,-3.44 -8.3164,-8.05 -12.1875,-13.75 z m -0.6211,59.1 v 36.56 H 161.172 v -36.56 h -6.563 v 24.06 H 18.8281 v -24.06 z" /><path
         id="path190"
         style="fill:#000000;fill-opacity:1;fill-rule:nonzero;stroke:none"
         d="m 151.762,1043.69 -0.473,0.39 -1.41,1.41 -0.5,0.39 -0.359,0.39 -0.391,0.47 -0.469,0.35 -1.441,1.45 -0.348,0.39 -0.32,0.27 -0.66,0.67 -0.551,0.66 -0.578,0.66 -0.551,0.55 -0.59,0.66 -1.051,1.25 -0.468,0.59 -0.551,0.66 c -0.11,0 -5.11,5.86 -8.551,9.18 -8.711,9.03 -13.281,11.1 -13.672,11.1 -0.937,0 -0.937,-0.86 -0.937,-1.02 0,-0.66 0.199,-0.97 1.058,-1.44 4.531,-2.85 6.051,-4.85 6.051,-7.11 0,-2.27 -1.41,-3.32 -3.012,-4.73 -2.187,-1.84 -4.097,-3.44 -4.097,-6.56 0,-7.11 8.828,-11.37 10.82,-11.37 0.469,0 1.059,0.16 1.059,1.02 0,0.86 -0.469,1.05 -1.059,1.25 -4.371,1.79 -4.449,7.3 -4.449,8.04 0,2 0.66,3.79 1.398,5.98 1.449,3.71 1.449,4.77 1.449,7.23 4.063,-3.44 10.821,-11.29 12.301,-13.09 l 7.891,-8.55 c 6.371,-6.37 11.758,-9.69 12.429,-9.69 0.86,0 0.86,0.98 0.86,1.17 0,0.74 -0.199,0.94 -1.25,1.48 -3.211,2.19 -5.789,5.04 -5.789,7.97 0,2.19 0.859,3.17 3.64,5.51 1.989,1.64 3.399,3.32 3.399,6.1 0,9.29 -11.961,14.8 -14.539,14.8 -0.352,0 -0.93,-0.39 -0.93,-1.17 0,-0.82 0.578,-1.02 1.25,-1.33 6.168,-2.15 7.969,-8.13 7.969,-11.29 0,-1.87 -0.59,-3.59 -1.25,-5.59 -1.211,-3.2 -1.61,-4.64 -1.61,-6.64 0,-0.19 0,-1.6 0.282,-2.46 z" /><path
         id="path192"
         style="fill:#000000;fill-opacity:1;fill-rule:nonzero;stroke:none"
         d="m 317.93,1888.81 v -9.69 h -12.5 v -24.53 h -11.25 v 24.53 h -39.219 v 8.75 l 42.969,61.41 h 7.5 v -60.47 z m -23.75,0 v 45.94 l -32.5,-45.94 z m 31.64,11.56 c 0,10.63 1.602,19.73 4.84,27.35 3.211,7.57 7.43,13.28 12.66,17.03 4.141,3.01 8.442,4.53 12.809,4.53 7.07,0 13.441,-3.67 19.07,-10.94 7.071,-8.98 10.621,-21.17 10.621,-36.56 0,-10.74 -1.558,-19.84 -4.691,-27.34 -3.039,-7.5 -6.988,-12.97 -11.867,-16.41 -4.813,-3.44 -9.461,-5.16 -13.91,-5.16 -8.75,0 -16.09,5.24 -22.032,15.78 -5,8.75 -7.5,19.3 -7.5,31.72 z m 13.442,-1.72 c 0,-12.73 1.558,-23.12 4.687,-31.25 2.571,-6.79 6.481,-10.15 11.711,-10.15 2.391,0 4.891,1.09 7.5,3.28 2.699,2.26 4.731,5.98 6.102,11.09 2.066,7.89 3.117,18.99 3.117,33.28 0,10.51 -1.09,19.3 -3.277,26.41 -1.563,5.2 -3.672,8.91 -6.25,11.09 -1.872,1.57 -4.18,2.35 -6.872,2.35 -3.05,0 -5.781,-1.41 -8.281,-4.22 -3.25,-3.75 -5.469,-9.69 -6.719,-17.81 -1.179,-8.13 -1.718,-16.18 -1.718,-24.07 z" /><path
         id="path194"
         style="fill:#000000;fill-opacity:1;fill-rule:nonzero;stroke:none"
         d="m 313.551,2321.39 -5.313,-11.56 H 280.27 l -6.09,-12.5 c 12.07,-1.8 21.64,-6.25 28.75,-13.44 6.019,-6.17 9.058,-13.44 9.058,-21.88 0,-4.92 -1.008,-9.45 -2.968,-13.59 -1.989,-4.06 -4.489,-7.58 -7.5,-10.47 -2.93,-2.93 -6.25,-5.27 -10,-7.03 -5.231,-2.58 -10.579,-3.91 -16.09,-3.91 -5.629,0 -9.692,0.94 -12.192,2.82 -2.5,1.95 -3.75,4.1 -3.75,6.4 0,1.25 0.512,2.35 1.563,3.28 1.019,1.02 2.347,1.57 3.91,1.57 1.25,0 2.269,-0.24 3.129,-0.63 0.93,-0.31 2.422,-1.25 4.531,-2.81 3.43,-2.31 6.91,-3.44 10.469,-3.44 5.308,0 9.922,1.95 13.898,5.94 4.063,4.06 6.102,8.98 6.102,14.84 0,5.51 -1.84,10.71 -5.469,15.63 -3.562,4.88 -8.441,8.63 -14.691,11.25 -5,2.07 -11.801,3.28 -20.309,3.59 l 17.649,35.94 z m 12.269,-46.88 c 0,10.63 1.602,19.73 4.84,27.35 3.211,7.58 7.43,13.28 12.66,17.03 4.141,3.01 8.442,4.53 12.809,4.53 7.07,0 13.441,-3.67 19.07,-10.94 7.071,-8.98 10.621,-21.17 10.621,-36.56 0,-10.74 -1.558,-19.84 -4.691,-27.34 -3.039,-7.5 -6.988,-12.97 -11.867,-16.41 -4.813,-3.44 -9.461,-5.16 -13.91,-5.16 -8.75,0 -16.09,5.24 -22.032,15.78 -5,8.75 -7.5,19.3 -7.5,31.72 z m 13.442,-1.72 c 0,-12.73 1.558,-23.12 4.687,-31.25 2.571,-6.79 6.481,-10.15 11.711,-10.15 2.391,0 4.891,1.09 7.5,3.28 2.699,2.27 4.731,5.98 6.102,11.09 2.066,7.89 3.117,18.99 3.117,33.28 0,10.51 -1.09,19.3 -3.277,26.41 -1.563,5.2 -3.672,8.91 -6.25,11.09 -1.872,1.57 -4.18,2.35 -6.872,2.35 -3.05,0 -5.781,-1.41 -8.281,-4.22 -3.25,-3.75 -5.469,-9.69 -6.719,-17.81 -1.179,-8.13 -1.718,-16.17 -1.718,-24.07 z" /></g></g></svg>