<?xml version="1.0" encoding="UTF-8" standalone="no"?>
<svg
   viewBox="0 0 307.76214 376.00161"
   height="376.00162"
   width="307.76215"
   xml:space="preserve"
   id="svg2"
   version="1.1"
   sodipodi:docname="amp_tmd.svg"
   inkscape:version="1.1.2 (1:1.1+202205011111+08b2f3d93c)"
   xmlns:inkscape="http://www.inkscape.org/namespaces/inkscape"
   xmlns:sodipodi="http://sodipodi.sourceforge.net/DTD/sodipodi-0.dtd"
   xmlns="http://www.w3.org/2000/svg"
   xmlns:svg="http://www.w3.org/2000/svg"
   xmlns:rdf="http://www.w3.org/1999/02/22-rdf-syntax-ns#"
   xmlns:cc="http://creativecommons.org/ns#"
   xmlns:dc="http://purl.org/dc/elements/1.1/"><sodipodi:namedview
   pagecolor="#ffffff"
   bordercolor="#666666"
   borderopacity="1"
   objecttolerance="10"
   gridtolerance="10"
   guidetolerance="10"
   inkscape:pageopacity="0"
   inkscape:pageshadow="2"
   inkscape:window-width="2560"
   inkscape:window-height="1368"
   id="namedview103"
   showgrid="false"
   fit-margin-top="0"
   fit-margin-left="0"
   fit-margin-right="0"
   fit-margin-bottom="0"
   inkscape:zoom="2.3177388"
   inkscape:cx="48.538688"
   inkscape:cy="259.52018"
   inkscape:window-x="0"
   inkscape:window-y="0"
   inkscape:window-maximized="1"
   inkscape:current-layer="svg2"
   inkscape:pagecheckerboard="0" /><metadata
   id="metadata8"><rdf:RDF><cc:Work
       rdf:about=""><dc:format>image/svg+xml</dc:format><dc:type
         rdf:resource="http://purl.org/dc/dcmitype/StillImage" /></cc:Work></rdf:RDF></metadata><defs
   id="defs6"><clipPath
   id="clipPath20"
   clipPathUnits="userSpaceOnUse"><path
     id="path18"
     d="M 750,420 H 2930 V 1850 H 750 Z"
     inkscape:connector-curvature="0" /></clipPath><clipPath
   id="clipPath20-3"
   clipPathUnits="userSpaceOnUse"><path
     inkscape:connector-curvature="0"
     id="path18-6"
     d="M 690,420 H 2930 V 1850 H 690 Z" /></clipPath>

















<clipPath
   id="clipPath20-36"
   clipPathUnits="userSpaceOnUse"><path
     inkscape:connector-curvature="0"
     id="path18-7"
     d="M 610,220 H 2930 V 1850 H 610 Z" /></clipPath>






































</defs><path
   id="path22"
   style="fill:none;stroke:#000000;stroke-width:0.33333331;stroke-linecap:butt;stroke-linejoin:miter;stroke-miterlimit:3.79999995;stroke-dasharray:none;stroke-opacity:1"
   d="m 65.026247,168.46026 h 6.136"
   inkscape:connector-curvature="0" /><path
   id="path24"
   style="fill:none;stroke:#000000;stroke-width:0.33333331;stroke-linecap:butt;stroke-linejoin:miter;stroke-miterlimit:3.79999995;stroke-dasharray:none;stroke-opacity:1"
   d="m 298.42757,168.46026 h -6.136"
   inkscape:connector-curvature="0" /><path
   id="path32"
   style="fill:none;stroke:#000000;stroke-width:0.33333331;stroke-linecap:butt;stroke-linejoin:miter;stroke-miterlimit:3.79999995;stroke-dasharray:none;stroke-opacity:1"
   d="m 65.026247,148.05866 h 6.136"
   inkscape:connector-curvature="0" /><path
   id="path34"
   style="fill:none;stroke:#000000;stroke-width:0.33333331;stroke-linecap:butt;stroke-linejoin:miter;stroke-miterlimit:3.79999995;stroke-dasharray:none;stroke-opacity:1"
   d="m 298.42757,148.05866 h -6.136"
   inkscape:connector-curvature="0" /><text
   style="font-variant:normal;font-weight:normal;font-size:16px;font-family:'Times New Roman';-inkscape-font-specification:TimesNewRomanPSMT;writing-mode:lr-tb;fill:#000000;fill-opacity:1;fill-rule:nonzero;stroke:none;stroke-width:1.33333"
   id="text40"
   x="54.821728"
   y="153.81302"><tspan
     x="54.821728"
     y="153.81302"
     id="tspan38"
     style="stroke-width:1.33333">0</tspan></text>


<path
   id="path42"
   style="fill:none;stroke:#000000;stroke-width:0.33333331;stroke-linecap:butt;stroke-linejoin:miter;stroke-miterlimit:3.79999995;stroke-dasharray:none;stroke-opacity:1"
   d="m 65.026247,127.59626 h 6.136"
   inkscape:connector-curvature="0" /><path
   id="path44"
   style="fill:none;stroke:#000000;stroke-width:0.33333331;stroke-linecap:butt;stroke-linejoin:miter;stroke-miterlimit:3.79999995;stroke-dasharray:none;stroke-opacity:1"
   d="m 298.42757,127.59626 h -6.136"
   inkscape:connector-curvature="0" /><text
   style="font-variant:normal;font-weight:normal;font-size:16px;font-family:'Times New Roman';-inkscape-font-specification:TimesNewRomanPSMT;writing-mode:lr-tb;fill:#000000;fill-opacity:1;fill-rule:nonzero;stroke:none;stroke-width:1.33333"
   id="text50"
   x="27.306095"
   y="133.34636"><tspan
     x="27.306095 35.306091 39.306095 47.306095 55.306103"
     y="133.34636"
     id="tspan48"
     style="stroke-width:1.33333">0.005</tspan></text>


<path
   id="path52"
   style="fill:none;stroke:#000000;stroke-width:0.33333331;stroke-linecap:butt;stroke-linejoin:miter;stroke-miterlimit:3.79999995;stroke-dasharray:none;stroke-opacity:1"
   d="m 65.026247,107.19492 h 6.136"
   inkscape:connector-curvature="0" /><path
   id="path54"
   style="fill:none;stroke:#000000;stroke-width:0.33333331;stroke-linecap:butt;stroke-linejoin:miter;stroke-miterlimit:3.79999995;stroke-dasharray:none;stroke-opacity:1"
   d="m 298.42757,107.19492 h -6.136"
   inkscape:connector-curvature="0" /><text
   style="font-variant:normal;font-weight:normal;font-size:16px;font-family:'Times New Roman';-inkscape-font-specification:TimesNewRomanPSMT;writing-mode:lr-tb;fill:#000000;fill-opacity:1;fill-rule:nonzero;stroke:none;stroke-width:1.33333"
   id="text60"
   x="26.821716"
   y="112.94637"><tspan
     x="26.821716 34.82172 38.82172 46.821728"
     y="112.94637"
     id="tspan58"
     style="stroke-width:1.33333">0.010</tspan></text>


<path
   id="path62"
   style="fill:none;stroke:#000000;stroke-width:0.33333331;stroke-linecap:butt;stroke-linejoin:miter;stroke-miterlimit:3.79999995;stroke-dasharray:none;stroke-opacity:1"
   d="m 65.026247,86.725582 h 6.136"
   inkscape:connector-curvature="0" /><path
   id="path64"
   style="fill:none;stroke:#000000;stroke-width:0.33333331;stroke-linecap:butt;stroke-linejoin:miter;stroke-miterlimit:3.79999995;stroke-dasharray:none;stroke-opacity:1"
   d="m 298.42757,86.725582 h -6.136"
   inkscape:connector-curvature="0" /><text
   style="font-variant:normal;font-weight:normal;font-size:16px;font-family:'Times New Roman';-inkscape-font-specification:TimesNewRomanPSMT;writing-mode:lr-tb;fill:#000000;fill-opacity:1;fill-rule:nonzero;stroke:none;stroke-width:1.33333"
   id="text70"
   x="27.306095"
   y="92.479164"><tspan
     x="27.306095 35.306091 39.306095 47.306095 55.306103"
     y="92.479164"
     id="tspan68"
     style="stroke-width:1.33333">0.015</tspan></text>


<path
   id="path72"
   style="fill:none;stroke:#000000;stroke-width:0.33333331;stroke-linecap:butt;stroke-linejoin:miter;stroke-miterlimit:3.79999995;stroke-dasharray:none;stroke-opacity:1"
   d="m 65.026247,66.324252 h 6.136"
   inkscape:connector-curvature="0" /><path
   id="path74"
   style="fill:none;stroke:#000000;stroke-width:0.33333331;stroke-linecap:butt;stroke-linejoin:miter;stroke-miterlimit:3.79999995;stroke-dasharray:none;stroke-opacity:1"
   d="m 298.42757,66.324252 h -6.136"
   inkscape:connector-curvature="0" /><text
   style="font-variant:normal;font-weight:normal;font-size:16px;font-family:'Times New Roman';-inkscape-font-specification:TimesNewRomanPSMT;writing-mode:lr-tb;fill:#000000;fill-opacity:1;fill-rule:nonzero;stroke:none;stroke-width:1.33333"
   id="text80"
   x="26.821716"
   y="72.07917"><tspan
     x="26.821716 34.82172 38.82172 46.821728"
     y="72.07917"
     id="tspan78"
     style="stroke-width:1.33333">0.020</tspan></text>


<path
   id="path82"
   style="fill:none;stroke:#000000;stroke-width:0.33333331;stroke-linecap:butt;stroke-linejoin:miter;stroke-miterlimit:3.79999995;stroke-dasharray:none;stroke-opacity:1"
   d="m 65.026247,45.929584 h 6.136"
   inkscape:connector-curvature="0" /><path
   id="path84"
   style="fill:none;stroke:#000000;stroke-width:0.33333331;stroke-linecap:butt;stroke-linejoin:miter;stroke-miterlimit:3.79999995;stroke-dasharray:none;stroke-opacity:1"
   d="m 298.42757,45.929584 h -6.136"
   inkscape:connector-curvature="0" /><text
   style="font-variant:normal;font-weight:normal;font-size:16px;font-family:'Times New Roman';-inkscape-font-specification:TimesNewRomanPSMT;writing-mode:lr-tb;fill:#000000;fill-opacity:1;fill-rule:nonzero;stroke:none;stroke-width:1.33333"
   id="text90"
   x="27.306095"
   y="51.679165"><tspan
     x="27.306095 35.306091 39.306095 47.306095 55.306103"
     y="51.679165"
     id="tspan88"
     style="stroke-width:1.33333">0.025</tspan></text>


<path
   id="path92"
   style="fill:none;stroke:#000000;stroke-width:0.33333331;stroke-linecap:butt;stroke-linejoin:miter;stroke-miterlimit:3.79999995;stroke-dasharray:none;stroke-opacity:1"
   d="m 65.026247,25.460251 h 6.136"
   inkscape:connector-curvature="0" /><path
   id="path94"
   style="fill:none;stroke:#000000;stroke-width:0.33333331;stroke-linecap:butt;stroke-linejoin:miter;stroke-miterlimit:3.79999995;stroke-dasharray:none;stroke-opacity:1"
   d="m 298.42757,25.460251 h -6.136"
   inkscape:connector-curvature="0" /><text
   style="font-variant:normal;font-weight:normal;font-size:16px;font-family:'Times New Roman';-inkscape-font-specification:TimesNewRomanPSMT;writing-mode:lr-tb;fill:#000000;fill-opacity:1;fill-rule:nonzero;stroke:none;stroke-width:1.33333"
   id="text100"
   x="26.821716"
   y="31.212498"><tspan
     x="26.821716 34.82172 38.82172 46.821728"
     y="31.212498"
     id="tspan98"
     style="stroke-width:1.33333">0.030</tspan></text>


<path
   id="path102"
   style="fill:none;stroke:#000000;stroke-width:0.33333331;stroke-linecap:butt;stroke-linejoin:miter;stroke-miterlimit:3.79999995;stroke-dasharray:none;stroke-opacity:1"
   d="m 65.026247,5.0589182 h 6.136"
   inkscape:connector-curvature="0" /><path
   id="path104"
   style="fill:none;stroke:#000000;stroke-width:0.33333331;stroke-linecap:butt;stroke-linejoin:miter;stroke-miterlimit:3.79999995;stroke-dasharray:none;stroke-opacity:1"
   d="m 298.42757,5.0589182 h -6.136"
   inkscape:connector-curvature="0" /><text
   style="font-variant:normal;font-weight:normal;font-size:16px;font-family:'Times New Roman';-inkscape-font-specification:TimesNewRomanPSMT;writing-mode:lr-tb;fill:#000000;fill-opacity:1;fill-rule:nonzero;stroke:none;stroke-width:1.33333"
   id="text110"
   x="27.306095"
   y="10.8125"><tspan
     x="27.306095 35.306091 39.306095 47.306095 55.306103"
     y="10.8125"
     id="tspan108"
     style="stroke-width:1.33333">0.035</tspan></text>


<path
   id="path112"
   style="fill:none;stroke:#000000;stroke-width:0.33333331;stroke-linecap:butt;stroke-linejoin:miter;stroke-miterlimit:3.79999995;stroke-dasharray:none;stroke-opacity:1"
   d="m 65.026247,168.46026 v -6.136"
   inkscape:connector-curvature="0" /><path
   id="path114"
   style="fill:none;stroke:#000000;stroke-width:0.33333331;stroke-linecap:butt;stroke-linejoin:miter;stroke-miterlimit:3.79999995;stroke-dasharray:none;stroke-opacity:1"
   d="M 65.026247,5.0589182 V 11.194918"
   inkscape:connector-curvature="0" /><path
   id="path122"
   style="fill:none;stroke:#000000;stroke-width:0.33333331;stroke-linecap:butt;stroke-linejoin:miter;stroke-miterlimit:3.79999995;stroke-dasharray:none;stroke-opacity:1"
   d="m 103.95825,168.46026 v -6.136"
   inkscape:connector-curvature="0" /><path
   id="path124"
   style="fill:none;stroke:#000000;stroke-width:0.33333331;stroke-linecap:butt;stroke-linejoin:miter;stroke-miterlimit:3.79999995;stroke-dasharray:none;stroke-opacity:1"
   d="M 103.95825,5.0589182 V 11.194918"
   inkscape:connector-curvature="0" /><path
   id="path132"
   style="fill:none;stroke:#000000;stroke-width:0.33333331;stroke-linecap:butt;stroke-linejoin:miter;stroke-miterlimit:3.79999995;stroke-dasharray:none;stroke-opacity:1"
   d="m 142.82891,168.46026 v -6.136"
   inkscape:connector-curvature="0" /><path
   id="path134"
   style="fill:none;stroke:#000000;stroke-width:0.33333331;stroke-linecap:butt;stroke-linejoin:miter;stroke-miterlimit:3.79999995;stroke-dasharray:none;stroke-opacity:1"
   d="M 142.82891,5.0589182 V 11.194918"
   inkscape:connector-curvature="0" /><path
   id="path142"
   style="fill:none;stroke:#000000;stroke-width:0.33333331;stroke-linecap:butt;stroke-linejoin:miter;stroke-miterlimit:3.79999995;stroke-dasharray:none;stroke-opacity:1"
   d="m 181.76091,168.46026 v -6.136"
   inkscape:connector-curvature="0" /><path
   id="path144"
   style="fill:none;stroke:#000000;stroke-width:0.33333331;stroke-linecap:butt;stroke-linejoin:miter;stroke-miterlimit:3.79999995;stroke-dasharray:none;stroke-opacity:1"
   d="M 181.76091,5.0589182 V 11.194918"
   inkscape:connector-curvature="0" /><path
   id="path152"
   style="fill:none;stroke:#000000;stroke-width:0.33333331;stroke-linecap:butt;stroke-linejoin:miter;stroke-miterlimit:3.79999995;stroke-dasharray:none;stroke-opacity:1"
   d="m 220.62491,168.46026 v -6.136"
   inkscape:connector-curvature="0" /><path
   id="path154"
   style="fill:none;stroke:#000000;stroke-width:0.33333331;stroke-linecap:butt;stroke-linejoin:miter;stroke-miterlimit:3.79999995;stroke-dasharray:none;stroke-opacity:1"
   d="M 220.62491,5.0589182 V 11.194918"
   inkscape:connector-curvature="0" /><path
   id="path162"
   style="fill:none;stroke:#000000;stroke-width:0.33333331;stroke-linecap:butt;stroke-linejoin:miter;stroke-miterlimit:3.79999995;stroke-dasharray:none;stroke-opacity:1"
   d="m 259.55691,168.46026 v -6.136"
   inkscape:connector-curvature="0" /><path
   id="path164"
   style="fill:none;stroke:#000000;stroke-width:0.33333331;stroke-linecap:butt;stroke-linejoin:miter;stroke-miterlimit:3.79999995;stroke-dasharray:none;stroke-opacity:1"
   d="M 259.55691,5.0589182 V 11.194918"
   inkscape:connector-curvature="0" /><path
   id="path172"
   style="fill:none;stroke:#000000;stroke-width:0.33333331;stroke-linecap:butt;stroke-linejoin:miter;stroke-miterlimit:3.79999995;stroke-dasharray:none;stroke-opacity:1"
   d="m 298.42757,168.46026 v -6.136"
   inkscape:connector-curvature="0" /><path
   id="path174"
   style="fill:none;stroke:#000000;stroke-width:0.33333331;stroke-linecap:butt;stroke-linejoin:miter;stroke-miterlimit:3.79999995;stroke-dasharray:none;stroke-opacity:1"
   d="M 298.42757,5.0589182 V 11.194918"
   inkscape:connector-curvature="0" /><path
   id="path182"
   style="fill:none;stroke:#000000;stroke-width:0.33333331;stroke-linecap:butt;stroke-linejoin:miter;stroke-miterlimit:3.79999995;stroke-dasharray:none;stroke-opacity:1"
   d="M 65.026247,168.46026 H 298.42757 V 5.0589182 H 65.026247 Z"
   inkscape:connector-curvature="0" /><text
   style="font-variant:normal;font-weight:normal;font-size:16px;font-family:'Times New Roman';-inkscape-font-specification:TimesNewRomanPSMT;writing-mode:lr-tb;fill:#000000;fill-opacity:1;fill-rule:nonzero;stroke:none;stroke-width:1.33333"
   id="text188"
   x="89.976196"
   y="61.802979"><tspan
     id="tspan186"
     style="stroke-width:1.33333"><tspan
   style="font-size:65%;baseline-shift:super"
   id="tspan290">210</tspan>Po</tspan></text>


<path
   id="path190"
   style="fill:none;stroke:#000000;stroke-width:1.33333325;stroke-linecap:butt;stroke-linejoin:miter;stroke-miterlimit:3.79999995;stroke-dasharray:none;stroke-opacity:1"
   d="m 126.46848,56.806317 h 38.13599"
   inkscape:connector-curvature="0" /><path
   id="path192"
   style="fill:none;stroke:#000000;stroke-width:1.33333325;stroke-linecap:butt;stroke-linejoin:miter;stroke-miterlimit:3.79999995;stroke-dasharray:none;stroke-opacity:1"
   d="m 65.026247,148.05866 1.932,-2.86347 1.932,-2.06827 2,-0.66666 1.93866,0.864 1.932,2.20426 1.932,3 1.932,2.86347 1.932,2 2,0.59893 1.93867,-1 1.932,-2.2656 3.864,-6 1.932,-2.12906 2,-0.87094 1.93867,0.59894 1.932,2 3.864003,5.33333 2,1.93867 1.932,0.79573 1.93866,-0.53013 1.932,-1.66667 3.864,-4.8032 2,-1.79573 1.932,-0.60534 1.93867,0.60534 1.932,1.864 1.932,2.5984 1.932,2.66666 2,2.13654 1.932,0.93173 1.93866,-0.46933 1.932,-1.79574 1.932,-2.87093 1.932,-3.33333 2,-3.06134 1.932,-2.20426 1.93867,-0.93174 1.932,0.5984 1.932,1.87094 2,2.728 1.932,3.06773 1.932,2.73493 1.93867,1.80267 1.932,0.53067 1.932,-0.66667 2,-1.80267 1.932,-2.39466 1.932,-2.5376 1.93866,-2.06774 1.932,-1.12906 1.932,0.12906 2,1.40107 1.932,2.46987 1.932,3.12906 1.93867,3.33334 1.932,2.80266 2,1.864 1.932,0.33334 1.932,-1.4624 1.932,-3.4016 1.93867,-5.4016 1.932,-7.06774 2,-8.53066 1.932,-9.5984 1.932,-10.20427 1.932,-10.46267 1.93866,-10.204008 1.932,-9.59866 2,-8.66667 1.932,-7.46267 1.932,-6 1.932,-4.537329 1.93867,-2.863999 1.932,-1.136 2,0.469333 1.932,1.932 1.932,3.333333 1.932,4.530662 1.93867,5.53734 2,6.19733 1.932,6.73467 1.932,7 1.932,7.068 1.932,6.864008 1.93866,6.53733 2,6.06133 1.932,5.60534 1.932,5 1.932,4.39466 1.932,3.80267 1.93867,3.26507 2,2.73493 1.932,2.26507 1.932,1.8032 1.932,1.4624 1.932,1.20426 2,0.86347 1.93866,0.73493 1.932,0.46934 1.932,0.39466 1.932,0.33334 1.932,0.20426 2,0.12907 1.93867,0.136 3.864,0.136 h 1.932 l 1.932,0.0613 h 7.80267 l 1.932,0.0677 h 7.80266"
   inkscape:connector-curvature="0" /><path
   id="path200"
   style="fill:none;stroke:#ff0000;stroke-width:1.33333325;stroke-linecap:butt;stroke-linejoin:miter;stroke-miterlimit:3.79999995;stroke-dasharray:7.33333315, 2.93333326;stroke-dashoffset:0;stroke-opacity:1"
   d="m 126.46848,83.275647 h 38.13599"
   inkscape:connector-curvature="0" /><path
   id="path202"
   style="fill:none;stroke:#ff0000;stroke-width:1.33333325;stroke-linecap:butt;stroke-linejoin:miter;stroke-miterlimit:3.79999995;stroke-dasharray:7.33333315, 2.93333326;stroke-dashoffset:0;stroke-opacity:1"
   d="m 65.026247,148.05866 1.932,0.8032 1.932,0.5984 2,0.136 1.93866,-0.33334 1.932,-0.66666 1.932,-0.87094 1.932,-0.79573 1.932,-0.40107 h 2 l 1.93867,0.4624 1.932,0.7344 1.932,0.87094 1.932,0.59893 1.932,0.26507 2,-0.136 1.93867,-0.59894 1.932,-0.7344 1.932003,-0.79573 1.932,-0.46987 2,-0.12906 1.932,0.2656 1.93866,0.5984 1.932,0.73493 1.932,0.66667 1.932,0.33333 2,-0.0683 1.932,-0.46933 1.93867,-0.728 1.932,-0.80267 1.932,-0.5984 1.932,-0.2656 2,0.12907 1.932,0.59893 1.93866,0.80267 1.932,0.80267 1.932,0.53066 1.932,0.0683 2,-0.46987 1.932,-1 1.93867,-1.26506 1.932,-1.26507 1.932,-1.06827 2,-0.53066 1.932,0.12906 1.932,0.73494 1.93867,1.19733 1.932,1.40107 1.932,1.33333 2,0.8032 1.932,0.26507 1.932,-0.46934 1.93866,-1.12906 1.932,-1.46987 1.932,-1.66667 2,-1.33333 1.932,-0.79573 1.932,-0.136 1.93867,0.80266 1.932,1.53067 2,2.06827 1.932,2.33333 1.932,2.12907 1.932,1.60533 1.93867,0.59893 1.932,-0.59893 2,-2.136 1.932,-3.73493 1.932,-5.33334 1.932,-7 1.93866,-8.40106 1.932,-9.59894 2,-10.5304 1.932,-11.136008 1.932,-11.46266 1.932,-11.40134 1.93867,-11.068 1.932,-10.333328 2,-9.265334 1.932,-8.067999 1.932,-6.469334 1.932,-4.795999 1.93867,-2.932 2,-1.136 1.932,0.802666 1.932,2.530667 1.932,4.136 1.932,5.598666 1.93866,6.796 2,7.802667 1.932,8.401333 1.932,8.795995 1.932,9 1.932,8.87067 1.93867,8.53067 2,8.136 1.932,7.462668 1.932,6.87067 1.932,6.068 1.932,5.39467 2,4.66666 1.93866,3.93867 1.932,3.33333 1.932,2.79574 1.932,2.20426 1.932,1.864 2,1.4016 1.93867,1.12907 1.932,0.87093 1.932,0.66667 1.932,0.53013 1.932,0.33334 2,0.33333 1.93867,0.20427 1.932,0.12906 5.796,0.20427 2,0.0613 h 3.87066"
   inkscape:connector-curvature="0" /><path
   id="path204"
   style="fill:none;stroke:#000000;stroke-width:0.33333331;stroke-linecap:butt;stroke-linejoin:miter;stroke-miterlimit:3.79999995;stroke-dasharray:none;stroke-opacity:1"
   d="M 65.026247,168.46026 H 298.42757 V 5.0589182 H 65.026247 Z"
   inkscape:connector-curvature="0" /><text
   xml:space="preserve"
   style="font-style:normal;font-variant:normal;font-weight:normal;font-stretch:normal;font-size:24.1154px;line-height:1.25;font-family:'Times New Roman';-inkscape-font-specification:'Times New Roman, Normal';font-variant-ligatures:normal;font-variant-caps:normal;font-variant-numeric:normal;text-align:start;letter-spacing:0px;word-spacing:0px;writing-mode:lr-tb;text-anchor:start;fill:#000000;fill-opacity:1;stroke:none;stroke-width:0.602886"
   x="80.43541"
   y="31.88237"
   id="text2092"><tspan
     sodipodi:role="line"
     id="tspan2090"
     x="80.43541"
     y="31.88237"
     style="stroke-width:0.602886">(a)</tspan></text>




<text
   xml:space="preserve"
   style="font-style:normal;font-variant:normal;font-weight:normal;font-stretch:normal;font-size:24.1154px;line-height:1.25;font-family:'Times New Roman';-inkscape-font-specification:'Times New Roman, Normal';font-variant-ligatures:normal;font-variant-caps:normal;font-variant-numeric:normal;text-align:start;letter-spacing:0px;word-spacing:0px;writing-mode:lr-tb;text-anchor:start;fill:#000000;fill-opacity:1;stroke:none;stroke-width:0.602886"
   x="84.940102"
   y="202.0341"
   id="text2096"><tspan
     sodipodi:role="line"
     id="tspan2094"
     x="84.940102"
     y="202.0341"
     style="stroke-width:0.602886">(b)</tspan></text>




<path
   inkscape:connector-curvature="0"
   id="path22-5"
   style="fill:none;stroke:#000000;stroke-width:0.33333331;stroke-linecap:butt;stroke-linejoin:miter;stroke-miterlimit:3.79999995;stroke-dasharray:none;stroke-opacity:1"
   d="m 65.026243,331.86159 h 6.136" /><path
   inkscape:connector-curvature="0"
   id="path24-3"
   style="fill:none;stroke:#000000;stroke-width:0.33333331;stroke-linecap:butt;stroke-linejoin:miter;stroke-miterlimit:3.79999995;stroke-dasharray:none;stroke-opacity:1"
   d="m 298.42757,331.86159 h -6.136" /><text
   style="font-variant:normal;font-weight:normal;font-size:16px;font-family:'Times New Roman';-inkscape-font-specification:TimesNewRomanPSMT;writing-mode:lr-tb;fill:#000000;fill-opacity:1;fill-rule:nonzero;stroke:none;stroke-width:1.33333"
   id="text30-5"
   x="12.452676"
   y="336.39404"><tspan
     x="12.452676 17.780676 25.780676 29.780676 37.780674 45.780674 53.780674"
     y="336.39404"
     id="tspan28-6"
     style="stroke-width:1.33333">-0.0005</tspan></text>


<path
   inkscape:connector-curvature="0"
   id="path32-2"
   style="fill:none;stroke:#000000;stroke-width:0.33333331;stroke-linecap:butt;stroke-linejoin:miter;stroke-miterlimit:3.79999995;stroke-dasharray:none;stroke-opacity:1"
   d="m 65.026243,313.72559 h 6.136" /><path
   inkscape:connector-curvature="0"
   id="path34-9"
   style="fill:none;stroke:#000000;stroke-width:0.33333331;stroke-linecap:butt;stroke-linejoin:miter;stroke-miterlimit:3.79999995;stroke-dasharray:none;stroke-opacity:1"
   d="m 298.42757,313.72559 h -6.136" /><text
   style="font-variant:normal;font-weight:normal;font-size:16px;font-family:'Times New Roman';-inkscape-font-specification:TimesNewRomanPSMT;writing-mode:lr-tb;fill:#000000;fill-opacity:1;fill-rule:nonzero;stroke:none;stroke-width:1.33333"
   id="text40-1"
   x="53.296299"
   y="318.26068"><tspan
     x="53.296299"
     y="318.26068"
     id="tspan38-2"
     style="stroke-width:1.33333">0</tspan></text>


<path
   inkscape:connector-curvature="0"
   id="path42-7"
   style="fill:none;stroke:#000000;stroke-width:0.33333331;stroke-linecap:butt;stroke-linejoin:miter;stroke-miterlimit:3.79999995;stroke-dasharray:none;stroke-opacity:1"
   d="m 65.026243,295.52825 h 6.136" /><path
   inkscape:connector-curvature="0"
   id="path44-0"
   style="fill:none;stroke:#000000;stroke-width:0.33333331;stroke-linecap:butt;stroke-linejoin:miter;stroke-miterlimit:3.79999995;stroke-dasharray:none;stroke-opacity:1"
   d="m 298.42757,295.52825 h -6.136" /><text
   style="font-variant:normal;font-weight:normal;font-size:16px;font-family:'Times New Roman';-inkscape-font-specification:TimesNewRomanPSMT;writing-mode:lr-tb;fill:#000000;fill-opacity:1;fill-rule:nonzero;stroke:none;stroke-width:1.33333"
   id="text50-9"
   x="17.780676"
   y="300.06067"><tspan
     x="17.780676 25.780676 29.780676 37.780674 45.780674 53.780674"
     y="300.06067"
     id="tspan48-3"
     style="stroke-width:1.33333">0.0005</tspan></text>


<path
   inkscape:connector-curvature="0"
   id="path52-6"
   style="fill:none;stroke:#000000;stroke-width:0.33333331;stroke-linecap:butt;stroke-linejoin:miter;stroke-miterlimit:3.79999995;stroke-dasharray:none;stroke-opacity:1"
   d="m 65.026243,277.39225 h 6.136" /><path
   inkscape:connector-curvature="0"
   id="path54-0"
   style="fill:none;stroke:#000000;stroke-width:0.33333331;stroke-linecap:butt;stroke-linejoin:miter;stroke-miterlimit:3.79999995;stroke-dasharray:none;stroke-opacity:1"
   d="m 298.42757,277.39225 h -6.136" /><text
   style="font-variant:normal;font-weight:normal;font-size:16px;font-family:'Times New Roman';-inkscape-font-specification:TimesNewRomanPSMT;writing-mode:lr-tb;fill:#000000;fill-opacity:1;fill-rule:nonzero;stroke:none;stroke-width:1.33333"
   id="text60-6"
   x="17.296301"
   y="281.92737"><tspan
     x="17.296301 25.296301 29.296301 37.296299 45.296299"
     y="281.92737"
     id="tspan58-2"
     style="stroke-width:1.33333">0.0010</tspan></text>


<path
   inkscape:connector-curvature="0"
   id="path62-6"
   style="fill:none;stroke:#000000;stroke-width:0.33333331;stroke-linecap:butt;stroke-linejoin:miter;stroke-miterlimit:3.79999995;stroke-dasharray:none;stroke-opacity:1"
   d="m 65.026243,259.26292 h 6.136" /><path
   inkscape:connector-curvature="0"
   id="path64-1"
   style="fill:none;stroke:#000000;stroke-width:0.33333331;stroke-linecap:butt;stroke-linejoin:miter;stroke-miterlimit:3.79999995;stroke-dasharray:none;stroke-opacity:1"
   d="m 298.42757,259.26292 h -6.136" /><text
   style="font-variant:normal;font-weight:normal;font-size:16px;font-family:'Times New Roman';-inkscape-font-specification:TimesNewRomanPSMT;writing-mode:lr-tb;fill:#000000;fill-opacity:1;fill-rule:nonzero;stroke:none;stroke-width:1.33333"
   id="text70-8"
   x="17.780676"
   y="263.79346"><tspan
     x="17.780676 25.780676 29.780676 37.780674 45.780674 53.780674"
     y="263.79346"
     id="tspan68-7"
     style="stroke-width:1.33333">0.0015</tspan></text>


<path
   inkscape:connector-curvature="0"
   id="path72-9"
   style="fill:none;stroke:#000000;stroke-width:0.33333331;stroke-linecap:butt;stroke-linejoin:miter;stroke-miterlimit:3.79999995;stroke-dasharray:none;stroke-opacity:1"
   d="m 65.026243,241.05892 h 6.136" /><path
   inkscape:connector-curvature="0"
   id="path74-20"
   style="fill:none;stroke:#000000;stroke-width:0.33333331;stroke-linecap:butt;stroke-linejoin:miter;stroke-miterlimit:3.79999995;stroke-dasharray:none;stroke-opacity:1"
   d="m 298.42757,241.05892 h -6.136" /><text
   style="font-variant:normal;font-weight:normal;font-size:16px;font-family:'Times New Roman';-inkscape-font-specification:TimesNewRomanPSMT;writing-mode:lr-tb;fill:#000000;fill-opacity:1;fill-rule:nonzero;stroke:none;stroke-width:1.33333"
   id="text80-2"
   x="17.296301"
   y="245.59348"><tspan
     x="17.296301 25.296301 29.296301 37.296299 45.296299"
     y="245.59348"
     id="tspan78-3"
     style="stroke-width:1.33333">0.0020</tspan></text>


<path
   inkscape:connector-curvature="0"
   id="path82-7"
   style="fill:none;stroke:#000000;stroke-width:0.33333331;stroke-linecap:butt;stroke-linejoin:miter;stroke-miterlimit:3.79999995;stroke-dasharray:none;stroke-opacity:1"
   d="m 65.026243,222.92959 h 6.136" /><path
   inkscape:connector-curvature="0"
   id="path84-5"
   style="fill:none;stroke:#000000;stroke-width:0.33333331;stroke-linecap:butt;stroke-linejoin:miter;stroke-miterlimit:3.79999995;stroke-dasharray:none;stroke-opacity:1"
   d="m 298.42757,222.92959 h -6.136" /><text
   style="font-variant:normal;font-weight:normal;font-size:16px;font-family:'Times New Roman';-inkscape-font-specification:TimesNewRomanPSMT;writing-mode:lr-tb;fill:#000000;fill-opacity:1;fill-rule:nonzero;stroke:none;stroke-width:1.33333"
   id="text90-9"
   x="17.780676"
   y="227.46014"><tspan
     x="17.780676 25.780676 29.780676 37.780674 45.780674 53.780674"
     y="227.46014"
     id="tspan88-2"
     style="stroke-width:1.33333">0.0025</tspan></text>


<path
   inkscape:connector-curvature="0"
   id="path92-2"
   style="fill:none;stroke:#000000;stroke-width:0.33333331;stroke-linecap:butt;stroke-linejoin:miter;stroke-miterlimit:3.79999995;stroke-dasharray:none;stroke-opacity:1"
   d="m 65.026243,204.79359 h 6.136" /><path
   inkscape:connector-curvature="0"
   id="path94-8"
   style="fill:none;stroke:#000000;stroke-width:0.33333331;stroke-linecap:butt;stroke-linejoin:miter;stroke-miterlimit:3.79999995;stroke-dasharray:none;stroke-opacity:1"
   d="m 298.42757,204.79359 h -6.136" /><text
   style="font-variant:normal;font-weight:normal;font-size:16px;font-family:'Times New Roman';-inkscape-font-specification:TimesNewRomanPSMT;writing-mode:lr-tb;fill:#000000;fill-opacity:1;fill-rule:nonzero;stroke:none;stroke-width:1.33333"
   id="text100-9"
   x="17.296301"
   y="209.32681"><tspan
     x="17.296301 25.296301 29.296301 37.296299 45.296299"
     y="209.32681"
     id="tspan98-7"
     style="stroke-width:1.33333">0.0030</tspan></text>


<path
   inkscape:connector-curvature="0"
   id="path102-3"
   style="fill:none;stroke:#000000;stroke-width:0.33333331;stroke-linecap:butt;stroke-linejoin:miter;stroke-miterlimit:3.79999995;stroke-dasharray:none;stroke-opacity:1"
   d="m 65.026243,186.59626 h 6.136" /><path
   inkscape:connector-curvature="0"
   id="path104-6"
   style="fill:none;stroke:#000000;stroke-width:0.33333331;stroke-linecap:butt;stroke-linejoin:miter;stroke-miterlimit:3.79999995;stroke-dasharray:none;stroke-opacity:1"
   d="m 298.42757,186.59626 h -6.136" /><text
   style="font-variant:normal;font-weight:normal;font-size:16px;font-family:'Times New Roman';-inkscape-font-specification:TimesNewRomanPSMT;writing-mode:lr-tb;fill:#000000;fill-opacity:1;fill-rule:nonzero;stroke:none;stroke-width:1.33333"
   id="text110-1"
   x="17.780676"
   y="191.12683"><tspan
     x="17.780676 25.780676 29.780676 37.780674 45.780674 53.780674"
     y="191.12683"
     id="tspan108-2"
     style="stroke-width:1.33333">0.0035</tspan></text>


<path
   inkscape:connector-curvature="0"
   id="path112-9"
   style="fill:none;stroke:#000000;stroke-width:0.33333331;stroke-linecap:butt;stroke-linejoin:miter;stroke-miterlimit:3.79999995;stroke-dasharray:none;stroke-opacity:1"
   d="m 65.026243,168.46026 h 6.136" /><path
   inkscape:connector-curvature="0"
   id="path114-3"
   style="fill:none;stroke:#000000;stroke-width:0.33333331;stroke-linecap:butt;stroke-linejoin:miter;stroke-miterlimit:3.79999995;stroke-dasharray:none;stroke-opacity:1"
   d="m 298.42757,168.46026 h -6.136" /><path
   inkscape:connector-curvature="0"
   id="path122-1"
   style="fill:none;stroke:#000000;stroke-width:0.33333331;stroke-linecap:butt;stroke-linejoin:miter;stroke-miterlimit:3.79999995;stroke-dasharray:none;stroke-opacity:1"
   d="m 65.026243,331.86159 v -6.136" /><path
   inkscape:connector-curvature="0"
   id="path124-9"
   style="fill:none;stroke:#000000;stroke-width:0.33333331;stroke-linecap:butt;stroke-linejoin:miter;stroke-miterlimit:3.79999995;stroke-dasharray:none;stroke-opacity:1"
   d="m 65.026243,168.46026 v 6.136" /><text
   style="font-variant:normal;font-weight:normal;font-size:16px;font-family:'Times New Roman';-inkscape-font-specification:TimesNewRomanPSMT;writing-mode:lr-tb;fill:#000000;fill-opacity:1;fill-rule:nonzero;stroke:none;stroke-width:1.33333"
   id="text130"
   x="63.026241"
   y="353.31943"><tspan
     x="63.026241"
     y="353.31943"
     id="tspan128"
     style="stroke-width:1.33333">0</tspan></text>


<path
   inkscape:connector-curvature="0"
   id="path132-4"
   style="fill:none;stroke:#000000;stroke-width:0.33333331;stroke-linecap:butt;stroke-linejoin:miter;stroke-miterlimit:3.79999995;stroke-dasharray:none;stroke-opacity:1"
   d="m 103.95825,331.86159 v -6.136" /><path
   inkscape:connector-curvature="0"
   id="path134-7"
   style="fill:none;stroke:#000000;stroke-width:0.33333331;stroke-linecap:butt;stroke-linejoin:miter;stroke-miterlimit:3.79999995;stroke-dasharray:none;stroke-opacity:1"
   d="m 103.95825,168.46026 v 6.136" /><text
   style="font-variant:normal;font-weight:normal;font-size:16px;font-family:'Times New Roman';-inkscape-font-specification:TimesNewRomanPSMT;writing-mode:lr-tb;fill:#000000;fill-opacity:1;fill-rule:nonzero;stroke:none;stroke-width:1.33333"
   id="text140"
   x="101.95957"
   y="353.31943"><tspan
     x="101.95957"
     y="353.31943"
     id="tspan138"
     style="stroke-width:1.33333">2</tspan></text>


<path
   inkscape:connector-curvature="0"
   id="path142-8"
   style="fill:none;stroke:#000000;stroke-width:0.33333331;stroke-linecap:butt;stroke-linejoin:miter;stroke-miterlimit:3.79999995;stroke-dasharray:none;stroke-opacity:1"
   d="m 142.82891,331.86159 v -6.136" /><path
   inkscape:connector-curvature="0"
   id="path144-4"
   style="fill:none;stroke:#000000;stroke-width:0.33333331;stroke-linecap:butt;stroke-linejoin:miter;stroke-miterlimit:3.79999995;stroke-dasharray:none;stroke-opacity:1"
   d="m 142.82891,168.46026 v 6.136" /><text
   style="font-variant:normal;font-weight:normal;font-size:16px;font-family:'Times New Roman';-inkscape-font-specification:TimesNewRomanPSMT;writing-mode:lr-tb;fill:#000000;fill-opacity:1;fill-rule:nonzero;stroke:none;stroke-width:1.33333"
   id="text150"
   x="140.82625"
   y="353.31943"><tspan
     x="140.82625"
     y="353.31943"
     id="tspan148"
     style="stroke-width:1.33333">4</tspan></text>


<path
   inkscape:connector-curvature="0"
   id="path152-50"
   style="fill:none;stroke:#000000;stroke-width:0.33333331;stroke-linecap:butt;stroke-linejoin:miter;stroke-miterlimit:3.79999995;stroke-dasharray:none;stroke-opacity:1"
   d="m 181.76091,331.86159 v -6.136" /><path
   inkscape:connector-curvature="0"
   id="path154-3"
   style="fill:none;stroke:#000000;stroke-width:0.33333331;stroke-linecap:butt;stroke-linejoin:miter;stroke-miterlimit:3.79999995;stroke-dasharray:none;stroke-opacity:1"
   d="m 181.76091,168.46026 v 6.136" /><text
   style="font-variant:normal;font-weight:normal;font-size:16px;font-family:'Times New Roman';-inkscape-font-specification:TimesNewRomanPSMT;writing-mode:lr-tb;fill:#000000;fill-opacity:1;fill-rule:nonzero;stroke:none;stroke-width:1.33333"
   id="text160"
   x="179.75958"
   y="353.31943"><tspan
     x="179.75958"
     y="353.31943"
     id="tspan158"
     style="stroke-width:1.33333">6</tspan></text>


<path
   inkscape:connector-curvature="0"
   id="path162-6"
   style="fill:none;stroke:#000000;stroke-width:0.33333331;stroke-linecap:butt;stroke-linejoin:miter;stroke-miterlimit:3.79999995;stroke-dasharray:none;stroke-opacity:1"
   d="m 220.62491,331.86159 v -6.136" /><path
   inkscape:connector-curvature="0"
   id="path164-1"
   style="fill:none;stroke:#000000;stroke-width:0.33333331;stroke-linecap:butt;stroke-linejoin:miter;stroke-miterlimit:3.79999995;stroke-dasharray:none;stroke-opacity:1"
   d="m 220.62491,168.46026 v 6.136" /><text
   style="font-variant:normal;font-weight:normal;font-size:16px;font-family:'Times New Roman';-inkscape-font-specification:TimesNewRomanPSMT;writing-mode:lr-tb;fill:#000000;fill-opacity:1;fill-rule:nonzero;stroke:none;stroke-width:1.33333"
   id="text170"
   x="218.62625"
   y="353.31943"><tspan
     x="218.62625"
     y="353.31943"
     id="tspan168"
     style="stroke-width:1.33333">8</tspan></text>


<path
   inkscape:connector-curvature="0"
   id="path172-0"
   style="fill:none;stroke:#000000;stroke-width:0.33333331;stroke-linecap:butt;stroke-linejoin:miter;stroke-miterlimit:3.79999995;stroke-dasharray:none;stroke-opacity:1"
   d="m 259.55691,331.86159 v -6.136" /><path
   inkscape:connector-curvature="0"
   id="path174-63"
   style="fill:none;stroke:#000000;stroke-width:0.33333331;stroke-linecap:butt;stroke-linejoin:miter;stroke-miterlimit:3.79999995;stroke-dasharray:none;stroke-opacity:1"
   d="m 259.55691,168.46026 v 6.136" /><text
   style="font-variant:normal;font-weight:normal;font-size:16px;font-family:'Times New Roman';-inkscape-font-specification:TimesNewRomanPSMT;writing-mode:lr-tb;fill:#000000;fill-opacity:1;fill-rule:nonzero;stroke:none;stroke-width:1.33333"
   id="text180"
   x="253.55957"
   y="353.31943"><tspan
     x="253.55957 261.55954"
     y="353.31943"
     id="tspan178"
     style="stroke-width:1.33333">10</tspan></text>


<path
   inkscape:connector-curvature="0"
   id="path182-2"
   style="fill:none;stroke:#000000;stroke-width:0.33333331;stroke-linecap:butt;stroke-linejoin:miter;stroke-miterlimit:3.79999995;stroke-dasharray:none;stroke-opacity:1"
   d="m 298.42757,331.86159 v -6.136" /><path
   inkscape:connector-curvature="0"
   id="path184-0"
   style="fill:none;stroke:#000000;stroke-width:0.33333331;stroke-linecap:butt;stroke-linejoin:miter;stroke-miterlimit:3.79999995;stroke-dasharray:none;stroke-opacity:1"
   d="m 298.42757,168.46026 v 6.136" /><text
   style="font-variant:normal;font-weight:normal;font-size:16px;font-family:'Times New Roman';-inkscape-font-specification:TimesNewRomanPSMT;writing-mode:lr-tb;fill:#000000;fill-opacity:1;fill-rule:nonzero;stroke:none;stroke-width:1.33333"
   id="text190-6"
   x="292.42621"
   y="353.31943"><tspan
     x="292.42621 300.42621"
     y="353.31943"
     id="tspan188-1"
     style="stroke-width:1.33333">12</tspan></text>


<path
   inkscape:connector-curvature="0"
   id="path192-5"
   style="fill:none;stroke:#000000;stroke-width:0.33333331;stroke-linecap:butt;stroke-linejoin:miter;stroke-miterlimit:3.79999995;stroke-dasharray:none;stroke-opacity:1"
   d="M 65.026243,331.86159 H 298.42757 V 168.46026 H 65.026243 Z" />


<path
   inkscape:connector-curvature="0"
   id="path208"
   style="fill:none;stroke:#000000;stroke-width:1.33333325;stroke-linecap:butt;stroke-linejoin:miter;stroke-miterlimit:3.79999995;stroke-dasharray:none;stroke-opacity:1"
   d="m 65.026243,313.72559 h 73.067997 l 2.40134,-0.0613 h 2.33333 l 2.33333,0.0613 h 7.06134 l 2.40133,-0.0613 h 4.73467 l 2.33333,0.0613 h 2.33333 l 2.40134,-0.0613 h 2.33333 l 2.33333,-0.0677 2.40134,0.0677 2.33333,0.0613 2.33333,0.0677 2.39467,0.0683 h 4.73467 l 2.33333,0.136 2.33333,0.12906 2.40134,0.33334 2.33333,1.06826 2.33333,1.53067 2.40134,1.80267 2.33333,0.0683 2.33333,-0.93226 2.40134,-1.7344 2.33333,-3.73494 2.39467,-5.5984 2.33333,-7.20426 2.33333,-6.59894 2.40134,-4.40106 2.33333,-3.79574 2.33333,-2.4016 2.40134,0.73494 2.33333,2.66666 2.33333,4.26507 2.40134,3.46933 2.33333,4 2.40133,4.4624 2.33334,2.93227 2.33333,2.33333 2.39467,1.7344 2.33333,1.33334 2.33333,0.87093 2.40134,0.4624 2.33333,0.4016 2.33333,0.33333 2.40133,0.19734 2.33334,0.20426 2.40133,0.1968 2.33333,0.13654 2.33334,0.12906 2.40133,0.0677 4.66667,0.13653 2.39466,0.0677 h 7.068 l 2.33334,0.0613 h 11.80266" /><path
   inkscape:connector-curvature="0"
   id="path218"
   style="fill:none;stroke:#ff0000;stroke-width:1.33333325;stroke-linecap:butt;stroke-linejoin:miter;stroke-miterlimit:3.79999995;stroke-dasharray:7.33333315, 2.93333326;stroke-dashoffset:0;stroke-opacity:1"
   d="m 65.026243,313.72559 h 94.333337 l 2.33333,-0.0613 h 7.068 l 2.33333,-0.0677 2.40134,-0.0683 2.33333,-0.136 2.33333,-0.0613 2.39467,0.12907 2.33333,0.20426 2.40134,0.19734 2.33333,-0.0683 2.33333,-0.1968 2.40134,-0.13653 2.33333,0.87093 2.33333,1.39467 2.40134,1.80266 2.33333,2.06827 2.33333,2.40107 2.40134,3 2.33333,-3.06774 2.39467,-8.33333 2.33333,-12.13653 2.33333,-16.06774 2.40134,-19.932 2.33333,-23.796 2.33333,-24.068 2.40134,-14.26533 2.33333,-11.33333 2.33333,-7.53733 2.40134,0.932 2.33333,6.93866 2.40133,12.796 2.33334,11.26533 2.33333,13.068 2.39467,15.136 2.33333,12.26534 2.33333,10.26533 2.40134,9.13627 2.33333,7.66666 2.33333,6.12907 2.40133,4.80267 2.33334,4.06826 2.40133,3.4624 2.33333,2.66667 2.33334,2.20427 2.40133,1.86346 2.33333,1.33334 2.33334,1.06826 2.39466,0.864 2.33334,0.46934 2.33333,0.4016 2.40133,0.1968 2.33334,0.13653 2.40133,0.0677 2.33333,0.0613 h 7.068" /><path
   inkscape:connector-curvature="0"
   id="path220"
   style="fill:none;stroke:#000000;stroke-width:0.33333331;stroke-linecap:butt;stroke-linejoin:miter;stroke-miterlimit:3.79999995;stroke-dasharray:none;stroke-opacity:1"
   d="M 65.026243,331.86159 H 298.42757 V 168.46026 H 65.026243 Z" /><text
   xml:space="preserve"
   style="font-style:normal;font-variant:normal;font-weight:normal;font-stretch:normal;font-size:20.8947px;line-height:1.25;font-family:'Times New Roman';-inkscape-font-specification:'Times New Roman, Normal';font-variant-ligatures:normal;font-variant-caps:normal;font-variant-numeric:normal;text-align:start;letter-spacing:0px;word-spacing:0px;writing-mode:lr-tb;text-anchor:start;fill:#000000;fill-opacity:1;stroke:none;stroke-width:0.522368"
   x="152.05725"
   y="371.53293"
   id="text1606"><tspan
     sodipodi:role="line"
     id="tspan1604"
     x="152.05725"
     y="371.53293"
     style="stroke-width:0.522368"><tspan
   style="font-style:italic;stroke-width:0.522368"
   id="tspan1608">R</tspan> (fm)</tspan></text>


<text
   xml:space="preserve"
   style="font-style:normal;font-weight:normal;font-size:40px;line-height:1.25;font-family:sans-serif;letter-spacing:0px;word-spacing:0px;fill:#000000;fill-opacity:1;stroke:none"
   x="-64.679085"
   y="149.72745"
   id="text288" />


<text
   style="font-variant:normal;font-weight:normal;font-size:16px;font-family:'Times New Roman';-inkscape-font-specification:TimesNewRomanPSMT;writing-mode:lr-tb;fill:#000000;fill-opacity:1;fill-rule:nonzero;stroke:none;stroke-width:1.33333"
   id="text188-3"
   x="90.124924"
   y="88.803436"><tspan
     id="tspan186-6"
     style="stroke-width:1.33333"><tspan
   style="font-size:65%;baseline-shift:super"
   id="tspan290-7">212</tspan>Po</tspan></text>


<text
   xml:space="preserve"
   style="font-style:normal;font-weight:normal;font-size:17.0869px;line-height:1.25;font-family:sans-serif;letter-spacing:0px;word-spacing:0px;fill:#000000;fill-opacity:1;stroke:none;stroke-width:0.427173"
   x="-122.52542"
   y="14.546419"
   id="text315"
   transform="rotate(-90)"><tspan
     sodipodi:role="line"
     id="tspan313"
     x="-122.52542"
     y="14.546419"
     style="font-style:normal;font-variant:normal;font-weight:normal;font-stretch:normal;font-family:'Times New Roman';-inkscape-font-specification:'Times New Roman, ';stroke-width:0.427173"><tspan
   style="font-style:italic;stroke-width:0.427173"
   id="tspan317">RF</tspan>(<tspan
   style="font-style:italic;stroke-width:0.427173"
   id="tspan319">R</tspan>) (fm<tspan
   style="font-size:11.1065px;baseline-shift:super;stroke-width:0.427173"
   id="tspan157">-1/2</tspan>)</tspan></text>


<text
   xml:space="preserve"
   style="font-style:normal;font-variant:normal;font-weight:normal;font-stretch:normal;font-size:16.0789px;line-height:1.25;font-family:'Times New Roman';-inkscape-font-specification:'Times New Roman, Normal';font-variant-ligatures:normal;font-variant-caps:normal;font-variant-numeric:normal;text-align:start;letter-spacing:0px;word-spacing:0px;writing-mode:lr-tb;text-anchor:start;fill:#000000;fill-opacity:1;stroke:none;stroke-width:0.401972"
   x="-315.49518"
   y="12.963086"
   id="text4309"
   transform="rotate(-90)"><tspan
     sodipodi:role="line"
     id="tspan4307"
     x="-315.49518"
     y="12.963086"
     style="stroke-width:0.401972">TMD (arb. units)</tspan></text></svg>
