<?xml version="1.0" encoding="UTF-8" standalone="no"?>
<svg
   xmlns:ns0="http://www.iki.fi/pav/software/textext/"
   xmlns:dc="http://purl.org/dc/elements/1.1/"
   xmlns:cc="http://creativecommons.org/ns#"
   xmlns:rdf="http://www.w3.org/1999/02/22-rdf-syntax-ns#"
   xmlns:svg="http://www.w3.org/2000/svg"
   xmlns="http://www.w3.org/2000/svg"
   xmlns:xlink="http://www.w3.org/1999/xlink"
   xmlns:sodipodi="http://sodipodi.sourceforge.net/DTD/sodipodi-0.dtd"
   xmlns:inkscape="http://www.inkscape.org/namespaces/inkscape"
   viewBox="0 0 321.66293 230.12694"
   height="230.12694"
   width="321.66293"
   xml:space="preserve"
   id="svg2"
   version="1.1"
   sodipodi:docname="lg_nocou.svg"
   inkscape:version="0.92.5 (2060ec1f9f, 2020-04-08)"><sodipodi:namedview
   pagecolor="#ffffff"
   bordercolor="#666666"
   borderopacity="1"
   objecttolerance="10"
   gridtolerance="10"
   guidetolerance="10"
   inkscape:pageopacity="0"
   inkscape:pageshadow="2"
   inkscape:window-width="1920"
   inkscape:window-height="1018"
   id="namedview121"
   showgrid="false"
   fit-margin-top="0"
   fit-margin-left="0"
   fit-margin-right="0"
   fit-margin-bottom="0"
   inkscape:zoom="2.3177389"
   inkscape:cx="155.84973"
   inkscape:cy="82.804503"
   inkscape:window-x="0"
   inkscape:window-y="0"
   inkscape:window-maximized="1"
   inkscape:current-layer="svg2" /><metadata
   id="metadata8"><rdf:RDF><cc:Work
       rdf:about=""><dc:format>image/svg+xml</dc:format><dc:type
         rdf:resource="http://purl.org/dc/dcmitype/StillImage" /><dc:title></dc:title></cc:Work></rdf:RDF></metadata><defs
   id="defs6"><clipPath
   id="clipPath20"
   clipPathUnits="userSpaceOnUse"><path
     id="path18"
     d="M 610,220 H 2960 V 1850 H 610 Z"
     inkscape:connector-curvature="0" /></clipPath>





















<g
   id="g2109"><symbol
     id="textext-7574a9dc-0"
     overflow="visible"
     style="overflow:visible"><path
       id="path2064"
       d=""
       style="stroke:none"
       inkscape:connector-curvature="0" /></symbol><symbol
     id="textext-7574a9dc-1"
     overflow="visible"
     style="overflow:visible"><path
       id="path2067"
       d="M 5.078125,-4.03125 C 5.0625,-4.0625 5.03125,-4.140625 5.03125,-4.171875 c 0,0 0.171875,-0.140625 0.28125,-0.21875 l 1.75,-1.34375 C 8,-6.4375 8.390625,-6.46875 8.6875,-6.5 8.765625,-6.515625 8.859375,-6.515625 8.859375,-6.703125 8.859375,-6.734375 8.828125,-6.8125 8.75,-6.8125 c -0.21875,0 -0.46875,0.03125 -0.703125,0.03125 -0.359375,0 -0.75,-0.03125 -1.109375,-0.03125 -0.0625,0 -0.1875,0 -0.1875,0.203125 0,0.0625 0.046875,0.09375 0.125,0.109375 0.21875,0.015625 0.296875,0.0625 0.296875,0.203125 0,0.1875 -0.296875,0.421875 -0.359375,0.46875 L 2.9375,-2.84375 3.734375,-6.046875 C 3.8125,-6.40625 3.84375,-6.5 4.5625,-6.5 c 0.25,0 0.34375,0 0.34375,-0.203125 0,-0.078125 -0.078125,-0.109375 -0.140625,-0.109375 -0.28125,0 -1,0.03125 -1.28125,0.03125 C 3.203125,-6.78125 2.5,-6.8125 2.203125,-6.8125 2.140625,-6.8125 2,-6.8125 2,-6.625 2,-6.5 2.09375,-6.5 2.296875,-6.5 c 0.125,0 0.3125,0.015625 0.421875,0.015625 0.15625,0.03125 0.21875,0.046875 0.21875,0.171875 0,0.03125 0,0.0625 -0.03125,0.1875 L 1.5625,-0.78125 c -0.09375,0.390625 -0.109375,0.46875 -0.90625,0.46875 -0.171875,0 -0.28125,0 -0.28125,0.1875 C 0.375,0 0.5,0 0.53125,0 0.8125,0 1.515625,-0.03125 1.796875,-0.03125 2,-0.03125 2.21875,-0.015625 2.4375,-0.015625 2.65625,-0.015625 2.875,0 3.078125,0 3.15625,0 3.28125,0 3.28125,-0.203125 3.28125,-0.3125 3.1875,-0.3125 3,-0.3125 c -0.375,0 -0.640625,0 -0.640625,-0.171875 0,-0.078125 0.046875,-0.296875 0.078125,-0.4375 C 2.578125,-1.453125 2.71875,-1.96875 2.84375,-2.5 l 1.484375,-1.15625 1.15625,2.6875 c 0.125,0.265625 0.125,0.296875 0.125,0.34375 0,0.3125 -0.4375,0.3125 -0.53125,0.3125 -0.109375,0 -0.21875,0 -0.21875,0.203125 C 4.859375,0 4.984375,0 5,0 5.40625,0 5.828125,-0.03125 6.21875,-0.03125 6.4375,-0.03125 6.984375,0 7.203125,0 7.25,0 7.375,0 7.375,-0.203125 7.375,-0.3125 7.265625,-0.3125 7.171875,-0.3125 c -0.40625,0 -0.53125,-0.09375 -0.6875,-0.4375 z m 0,0"
       style="stroke:none"
       inkscape:connector-curvature="0" /></symbol><symbol
     id="textext-7574a9dc-2"
     overflow="visible"
     style="overflow:visible"><path
       id="path2070"
       d=""
       style="stroke:none"
       inkscape:connector-curvature="0" /></symbol><symbol
     id="textext-7574a9dc-3"
     overflow="visible"
     style="overflow:visible"><path
       id="path2073"
       d="M 3.125,-4.8125 C 3.09375,-4.921875 3.0625,-4.96875 2.9375,-4.96875 c -0.140625,0 -0.15625,0.046875 -0.203125,0.15625 L 1.125,-0.734375 C 1.0625,-0.5625 0.9375,-0.25 0.3125,-0.25 V 0 C 0.546875,-0.015625 0.796875,-0.03125 1.03125,-0.03125 1.3125,-0.03125 1.828125,0 1.875,0 v -0.25 c -0.3125,0 -0.515625,-0.140625 -0.515625,-0.328125 0,-0.0625 0.015625,-0.078125 0.046875,-0.140625 L 1.734375,-1.578125 H 3.71875 L 4.125,-0.5625 c 0,0.03125 0.03125,0.078125 0.03125,0.109375 C 4.15625,-0.25 3.78125,-0.25 3.59375,-0.25 V 0 C 3.9375,-0.015625 4.390625,-0.03125 4.625,-0.03125 4.953125,-0.03125 5.484375,0 5.546875,0 v -0.25 h -0.125 c -0.46875,0 -0.515625,-0.078125 -0.59375,-0.265625 z m -0.40625,0.71875 0.890625,2.265625 h -1.78125 z m 0,0"
       style="stroke:none"
       inkscape:connector-curvature="0" /></symbol><symbol
     id="textext-7574a9dc-4"
     overflow="visible"
     style="overflow:visible"><path
       id="path2076"
       d="m 0.421875,-4.765625 v 0.25 h 0.15625 c 0.546875,0 0.5625,0.078125 0.5625,0.328125 v 3.625 c 0,0.234375 -0.015625,0.3125 -0.5625,0.3125 H 0.421875 V 0 H 3.375 c 0.984375,0 1.703125,-0.609375 1.703125,-1.28125 0,-0.59375 -0.625,-1.109375 -1.46875,-1.203125 0.6875,-0.125 1.25,-0.546875 1.25,-1.09375 0,-0.625 -0.734375,-1.1875 -1.703125,-1.1875 z M 1.75,-2.578125 v -1.65625 c 0,-0.21875 0,-0.28125 0.328125,-0.28125 h 1.03125 c 0.703125,0 1.0625,0.5 1.0625,0.9375 0,0.5 -0.46875,1 -1.265625,1 z M 2.078125,-0.25 C 1.75,-0.25 1.75,-0.3125 1.75,-0.515625 V -2.375 h 1.484375 c 0.734375,0 1.125,0.59375 1.125,1.078125 C 4.359375,-0.78125 3.890625,-0.25 3.125,-0.25 Z m 0,0"
       style="stroke:none"
       inkscape:connector-curvature="0" /></symbol><symbol
     id="textext-7574a9dc-5"
     overflow="visible"
     style="overflow:visible"><path
       id="path2079"
       d=""
       style="stroke:none"
       inkscape:connector-curvature="0" /></symbol><symbol
     id="textext-7574a9dc-6"
     overflow="visible"
     style="overflow:visible"><path
       id="path2082"
       d="m 1.171875,-0.609375 c 0.1875,-0.1875 0.3125,-0.3125 0.890625,-0.796875 0.15625,-0.109375 0.671875,-0.53125 0.875,-0.71875 0.421875,-0.421875 0.6875,-0.78125 0.6875,-0.859375 0,-0.09375 -0.078125,-0.09375 -0.109375,-0.09375 -0.0625,0 -0.09375,0.015625 -0.125,0.078125 -0.21875,0.3125 -0.359375,0.421875 -0.53125,0.421875 -0.078125,0 -0.1875,0 -0.390625,-0.203125 -0.234375,-0.25 -0.390625,-0.296875 -0.546875,-0.296875 -0.5625,0 -0.9375,0.609375 -0.9375,0.8125 0,0.078125 0.0625,0.09375 0.109375,0.09375 0.09375,0 0.109375,-0.015625 0.125,-0.09375 0.109375,-0.25 0.5,-0.265625 0.609375,-0.265625 0.171875,0 0.34375,0.046875 0.4375,0.0625 0.390625,0.078125 0.4375,0.078125 0.609375,0.078125 -0.171875,0.203125 -0.296875,0.328125 -0.96875,0.84375 -0.546875,0.4375 -0.734375,0.609375 -0.859375,0.75 -0.421875,0.40625 -0.625,0.71875 -0.625,0.78125 0,0.078125 0.09375,0.078125 0.125,0.078125 0.0625,0 0.078125,0 0.109375,-0.0625 0.1875,-0.265625 0.40625,-0.421875 0.640625,-0.421875 0.09375,0 0.1875,0 0.375,0.171875 0.21875,0.21875 0.359375,0.3125 0.59375,0.3125 C 3,0.0625 3.46875,-0.78125 3.46875,-1.015625 3.46875,-1.09375 3.390625,-1.09375 3.359375,-1.09375 3.265625,-1.09375 3.25,-1.0625 3.21875,-0.984375 3.09375,-0.640625 2.6875,-0.46875 2.34375,-0.46875 2.1875,-0.46875 2,-0.515625 1.828125,-0.546875 1.515625,-0.625 1.453125,-0.625 1.328125,-0.625 c -0.015625,0 -0.109375,0 -0.15625,0.015625 z m 0,0"
       style="stroke:none"
       inkscape:connector-curvature="0" /></symbol><symbol
     id="textext-7574a9dc-7"
     overflow="visible"
     style="overflow:visible"><path
       id="path2085"
       d=""
       style="stroke:none"
       inkscape:connector-curvature="0" /></symbol><symbol
     id="textext-7574a9dc-8"
     overflow="visible"
     style="overflow:visible"><path
       id="path2088"
       d="m 3.296875,2.390625 c 0,-0.03125 0,-0.046875 -0.171875,-0.21875 C 1.890625,0.921875 1.5625,-0.96875 1.5625,-2.5 c 0,-1.734375 0.375,-3.46875 1.609375,-4.703125 0.125,-0.125 0.125,-0.140625 0.125,-0.171875 0,-0.078125 -0.03125,-0.109375 -0.09375,-0.109375 -0.109375,0 -1,0.6875 -1.59375,1.953125 -0.5,1.09375 -0.625,2.203125 -0.625,3.03125 0,0.78125 0.109375,1.984375 0.65625,3.125 C 2.25,1.84375 3.09375,2.5 3.203125,2.5 c 0.0625,0 0.09375,-0.03125 0.09375,-0.109375 z m 0,0"
       style="stroke:none"
       inkscape:connector-curvature="0" /></symbol><symbol
     id="textext-7574a9dc-9"
     overflow="visible"
     style="overflow:visible"><path
       id="path2091"
       d="M 2.40625,-6.59375 C 2.3125,-6.8125 2.28125,-6.8125 2.046875,-6.8125 H 0.375 V -6.5 h 0.234375 c 0.765625,0 0.78125,0.109375 0.78125,0.46875 v 4.984375 c 0,0.265625 0,0.734375 -1.015625,0.734375 V 0 c 0.34375,-0.015625 0.828125,-0.03125 1.15625,-0.03125 0.328125,0 0.828125,0.015625 1.171875,0.03125 v -0.3125 c -1.03125,0 -1.03125,-0.46875 -1.03125,-0.734375 v -5.375 H 1.6875 L 4.09375,-0.21875 C 4.140625,-0.09375 4.1875,0 4.28125,0 4.390625,0 4.421875,-0.078125 4.46875,-0.1875 L 6.921875,-6.5 v 5.71875 c 0,0.359375 -0.015625,0.46875 -0.78125,0.46875 H 5.90625 V 0 c 0.359375,-0.03125 1.046875,-0.03125 1.4375,-0.03125 0.375,0 1.046875,0 1.421875,0.03125 v -0.3125 h -0.25 c -0.765625,0 -0.78125,-0.109375 -0.78125,-0.46875 v -5.25 C 7.734375,-6.390625 7.75,-6.5 8.515625,-6.5 h 0.25 v -0.3125 h -1.6875 C 6.8125,-6.8125 6.8125,-6.796875 6.75,-6.625 L 4.5625,-1 Z m 0,0"
       style="stroke:none"
       inkscape:connector-curvature="0" /></symbol><symbol
     id="textext-7574a9dc-10"
     overflow="visible"
     style="overflow:visible"><path
       id="path2094"
       d="M 1.109375,-2.515625 C 1.171875,-4 2.015625,-4.25 2.359375,-4.25 c 1.015625,0 1.125,1.34375 1.125,1.734375 z m 0,0.21875 h 2.78125 c 0.21875,0 0.25,0 0.25,-0.21875 0,-0.984375 -0.546875,-1.953125 -1.78125,-1.953125 -1.15625,0 -2.078125,1.03125 -2.078125,2.28125 0,1.328125 1.046875,2.296875 2.1875,2.296875 C 3.6875,0.109375 4.140625,-1 4.140625,-1.1875 4.140625,-1.28125 4.0625,-1.3125 4,-1.3125 c -0.078125,0 -0.109375,0.0625 -0.125,0.140625 -0.34375,1.03125 -1.25,1.03125 -1.34375,1.03125 -0.5,0 -0.890625,-0.296875 -1.125,-0.671875 -0.296875,-0.46875 -0.296875,-1.125 -0.296875,-1.484375 z m 0,0"
       style="stroke:none"
       inkscape:connector-curvature="0" /></symbol><symbol
     id="textext-7574a9dc-11"
     overflow="visible"
     style="overflow:visible"><path
       id="path2097"
       d="M 6.1875,-5.828125 C 6.328125,-6.203125 6.59375,-6.484375 7.28125,-6.5 v -0.3125 c -0.3125,0.03125 -0.71875,0.03125 -0.96875,0.03125 -0.296875,0 -0.875,-0.015625 -1.140625,-0.03125 V -6.5 C 5.6875,-6.484375 5.90625,-6.234375 5.90625,-6 c 0,0.078125 -0.03125,0.140625 -0.046875,0.203125 L 4.03125,-1 2.125,-6.03125 C 2.0625,-6.171875 2.0625,-6.1875 2.0625,-6.203125 2.0625,-6.5 2.625,-6.5 2.875,-6.5 v -0.3125 c -0.359375,0.03125 -1.046875,0.03125 -1.421875,0.03125 -0.46875,0 -0.90625,-0.015625 -1.265625,-0.03125 V -6.5 c 0.65625,0 0.84375,0 0.984375,0.375 L 3.484375,0 c 0.0625,0.1875 0.109375,0.21875 0.25,0.21875 0.15625,0 0.1875,-0.046875 0.234375,-0.1875 z m 0,0"
       style="stroke:none"
       inkscape:connector-curvature="0" /></symbol><symbol
     id="textext-7574a9dc-12"
     overflow="visible"
     style="overflow:visible"><path
       id="path2100"
       d="m 4.359375,-7.09375 c 0.0625,-0.140625 0.0625,-0.15625 0.0625,-0.1875 0,-0.109375 -0.09375,-0.203125 -0.203125,-0.203125 C 4.078125,-7.484375 4.03125,-7.375 4,-7.28125 L 0.609375,2.109375 C 0.5625,2.25 0.5625,2.265625 0.5625,2.296875 0.5625,2.40625 0.640625,2.5 0.75,2.5 0.890625,2.5 0.9375,2.390625 0.96875,2.296875 Z m 0,0"
       style="stroke:none"
       inkscape:connector-curvature="0" /></symbol><symbol
     id="textext-7574a9dc-13"
     overflow="visible"
     style="overflow:visible"><path
       id="path2103"
       d="m 1.171875,-2.171875 c 0,-1.625 0.8125,-2.046875 1.34375,-2.046875 0.09375,0 0.71875,0.015625 1.0625,0.375 -0.40625,0.03125 -0.46875,0.328125 -0.46875,0.453125 0,0.265625 0.1875,0.453125 0.453125,0.453125 0.265625,0 0.46875,-0.15625 0.46875,-0.46875 0,-0.671875 -0.765625,-1.0625 -1.53125,-1.0625 -1.25,0 -2.15625,1.078125 -2.15625,2.3125 0,1.28125 0.984375,2.265625 2.140625,2.265625 1.328125,0 1.65625,-1.203125 1.65625,-1.296875 0,-0.09375 -0.109375,-0.09375 -0.140625,-0.09375 -0.078125,0 -0.109375,0.03125 -0.125,0.09375 -0.28125,0.921875 -0.9375,1.046875 -1.296875,1.046875 -0.53125,0 -1.40625,-0.421875 -1.40625,-2.03125 z m 0,0"
       style="stroke:none"
       inkscape:connector-curvature="0" /></symbol><symbol
     id="textext-7574a9dc-14"
     overflow="visible"
     style="overflow:visible"><path
       id="path2106"
       d="m 2.875,-2.5 c 0,-0.765625 -0.109375,-1.96875 -0.65625,-3.109375 -0.59375,-1.21875 -1.453125,-1.875 -1.546875,-1.875 -0.0625,0 -0.109375,0.046875 -0.109375,0.109375 0,0.03125 0,0.046875 0.1875,0.234375 0.984375,0.984375 1.546875,2.5625 1.546875,4.640625 0,1.71875 -0.359375,3.46875 -1.59375,4.71875 C 0.5625,2.34375 0.5625,2.359375 0.5625,2.390625 0.5625,2.453125 0.609375,2.5 0.671875,2.5 0.765625,2.5 1.671875,1.8125 2.25,0.546875 2.765625,-0.546875 2.875,-1.65625 2.875,-2.5 Z m 0,0"
       style="stroke:none"
       inkscape:connector-curvature="0" /></symbol></g><g
   id="g1017"><symbol
     id="textext-7ad43379-0"
     overflow="visible"
     style="overflow:visible"><path
       id="path951"
       d=""
       style="stroke:none"
       inkscape:connector-curvature="0" /></symbol><symbol
     id="textext-7ad43379-1"
     overflow="visible"
     style="overflow:visible"><path
       id="path954"
       d="m 5.140625,-6.8125 c 0,0 0,-0.109375 -0.125,-0.109375 -0.15625,0 -1.09375,0.09375 -1.265625,0.109375 -0.078125,0.015625 -0.140625,0.0625 -0.140625,0.1875 0,0.125 0.09375,0.125 0.234375,0.125 0.484375,0 0.5,0.0625 0.5,0.171875 L 4.3125,-6.125 3.71875,-3.765625 C 3.53125,-4.140625 3.25,-4.40625 2.796875,-4.40625 c -1.15625,0 -2.390625,1.46875 -2.390625,2.921875 0,0.9375 0.546875,1.59375 1.3125,1.59375 0.203125,0 0.703125,-0.046875 1.296875,-0.75 0.078125,0.421875 0.4375,0.75 0.90625,0.75 0.359375,0 0.578125,-0.234375 0.75,-0.546875 0.15625,-0.359375 0.296875,-0.96875 0.296875,-0.984375 0,-0.109375 -0.09375,-0.109375 -0.125,-0.109375 -0.09375,0 -0.109375,0.046875 -0.140625,0.1875 -0.171875,0.640625 -0.34375,1.234375 -0.75,1.234375 -0.28125,0 -0.296875,-0.265625 -0.296875,-0.453125 0,-0.25 0.015625,-0.3125 0.046875,-0.484375 z m -2.0625,5.625 C 3.015625,-1 3.015625,-0.984375 2.875,-0.8125 2.4375,-0.265625 2.03125,-0.109375 1.75,-0.109375 c -0.5,0 -0.640625,-0.546875 -0.640625,-0.9375 0,-0.5 0.3125,-1.71875 0.546875,-2.1875 0.3125,-0.578125 0.75,-0.953125 1.15625,-0.953125 0.640625,0 0.78125,0.8125 0.78125,0.875 0,0.0625 -0.015625,0.125 -0.03125,0.171875 z m 0,0"
       style="stroke:none"
       inkscape:connector-curvature="0" /></symbol><symbol
     id="textext-7ad43379-2"
     overflow="visible"
     style="overflow:visible"><path
       id="path957"
       d="m 5.15625,-3.71875 c 0.140625,0 0.5,0 0.5,-0.34375 0,-0.234375 -0.21875,-0.234375 -0.390625,-0.234375 h -2.28125 c -1.5,0 -2.609375,1.640625 -2.609375,2.828125 0,0.875 0.59375,1.578125 1.5,1.578125 1.171875,0 2.5,-1.203125 2.5,-2.734375 0,-0.171875 0,-0.65625 -0.3125,-1.09375 z M 1.890625,-0.109375 C 1.390625,-0.109375 1,-0.46875 1,-1.1875 c 0,-0.296875 0.109375,-1.109375 0.46875,-1.703125 0.421875,-0.6875 1.015625,-0.828125 1.359375,-0.828125 0.828125,0 0.90625,0.65625 0.90625,0.96875 0,0.46875 -0.203125,1.28125 -0.53125,1.796875 -0.390625,0.578125 -0.9375,0.84375 -1.3125,0.84375 z m 0,0"
       style="stroke:none"
       inkscape:connector-curvature="0" /></symbol><symbol
     id="textext-7ad43379-3"
     overflow="visible"
     style="overflow:visible"><path
       id="path960"
       d="m 4.375,-7.09375 c 0.046875,-0.140625 0.046875,-0.171875 0.046875,-0.1875 0,-0.109375 -0.078125,-0.203125 -0.1875,-0.203125 -0.078125,0 -0.140625,0.03125 -0.171875,0.09375 l -3.46875,9.5 C 0.546875,2.25 0.546875,2.28125 0.546875,2.296875 0.546875,2.40625 0.640625,2.5 0.75,2.5 0.875,2.5 0.90625,2.421875 0.96875,2.25 Z m 0,0"
       style="stroke:none"
       inkscape:connector-curvature="0" /></symbol><symbol
     id="textext-7ad43379-4"
     overflow="visible"
     style="overflow:visible"><path
       id="path963"
       d="M 5.078125,-4.03125 C 5.0625,-4.0625 5.03125,-4.140625 5.03125,-4.171875 c 0,0 0.171875,-0.140625 0.28125,-0.21875 l 1.75,-1.34375 C 8,-6.4375 8.390625,-6.46875 8.6875,-6.5 8.765625,-6.515625 8.859375,-6.515625 8.859375,-6.703125 8.859375,-6.734375 8.828125,-6.8125 8.75,-6.8125 c -0.21875,0 -0.46875,0.03125 -0.703125,0.03125 -0.359375,0 -0.75,-0.03125 -1.109375,-0.03125 -0.0625,0 -0.1875,0 -0.1875,0.203125 0,0.0625 0.046875,0.09375 0.125,0.109375 0.21875,0.015625 0.296875,0.0625 0.296875,0.203125 0,0.1875 -0.296875,0.421875 -0.359375,0.46875 L 2.9375,-2.84375 3.734375,-6.046875 C 3.8125,-6.40625 3.84375,-6.5 4.5625,-6.5 c 0.25,0 0.34375,0 0.34375,-0.203125 0,-0.078125 -0.078125,-0.109375 -0.140625,-0.109375 -0.28125,0 -1,0.03125 -1.28125,0.03125 C 3.203125,-6.78125 2.5,-6.8125 2.203125,-6.8125 2.140625,-6.8125 2,-6.8125 2,-6.625 2,-6.5 2.09375,-6.5 2.296875,-6.5 c 0.125,0 0.3125,0.015625 0.421875,0.015625 0.15625,0.03125 0.21875,0.046875 0.21875,0.171875 0,0.03125 0,0.0625 -0.03125,0.1875 L 1.5625,-0.78125 c -0.09375,0.390625 -0.109375,0.46875 -0.90625,0.46875 -0.171875,0 -0.28125,0 -0.28125,0.1875 C 0.375,0 0.5,0 0.53125,0 0.8125,0 1.515625,-0.03125 1.796875,-0.03125 2,-0.03125 2.21875,-0.015625 2.4375,-0.015625 2.65625,-0.015625 2.875,0 3.078125,0 3.15625,0 3.28125,0 3.28125,-0.203125 3.28125,-0.3125 3.1875,-0.3125 3,-0.3125 c -0.375,0 -0.640625,0 -0.640625,-0.171875 0,-0.078125 0.046875,-0.296875 0.078125,-0.4375 C 2.578125,-1.453125 2.71875,-1.96875 2.84375,-2.5 l 1.484375,-1.15625 1.15625,2.6875 c 0.125,0.265625 0.125,0.296875 0.125,0.34375 0,0.3125 -0.4375,0.3125 -0.53125,0.3125 -0.109375,0 -0.21875,0 -0.21875,0.203125 C 4.859375,0 4.984375,0 5,0 5.40625,0 5.828125,-0.03125 6.21875,-0.03125 6.4375,-0.03125 6.984375,0 7.203125,0 7.25,0 7.375,0 7.375,-0.203125 7.375,-0.3125 7.265625,-0.3125 7.171875,-0.3125 c -0.40625,0 -0.53125,-0.09375 -0.6875,-0.4375 z m 0,0"
       style="stroke:none"
       inkscape:connector-curvature="0" /></symbol><symbol
     id="textext-7ad43379-5"
     overflow="visible"
     style="overflow:visible"><path
       id="path966"
       d="m 2.296875,-3.5 c 0.0625,-0.203125 0.15625,-0.59375 0.15625,-0.640625 0,-0.171875 -0.125,-0.265625 -0.296875,-0.265625 -0.015625,0 -0.296875,0.015625 -0.390625,0.359375 l -1.4375,5.765625 c -0.03125,0.125 -0.03125,0.140625 -0.03125,0.171875 0,0.140625 0.109375,0.265625 0.28125,0.265625 0.203125,0 0.328125,-0.1875 0.34375,-0.21875 C 0.96875,1.859375 1.09375,1.328125 1.46875,-0.203125 1.796875,0.0625 2.25,0.109375 2.4375,0.109375 c 0.703125,0 1.09375,-0.453125 1.328125,-0.734375 0.09375,0.453125 0.46875,0.734375 0.90625,0.734375 0.34375,0 0.578125,-0.234375 0.734375,-0.546875 0.171875,-0.359375 0.296875,-0.96875 0.296875,-0.984375 0,-0.109375 -0.09375,-0.109375 -0.125,-0.109375 -0.09375,0 -0.109375,0.046875 -0.140625,0.1875 -0.15625,0.640625 -0.34375,1.234375 -0.75,1.234375 -0.265625,0 -0.296875,-0.265625 -0.296875,-0.453125 0,-0.21875 0.109375,-0.6875 0.1875,-1.046875 L 4.859375,-2.6875 C 4.890625,-2.828125 5,-3.203125 5.03125,-3.359375 5.078125,-3.59375 5.1875,-3.96875 5.1875,-4.03125 c 0,-0.171875 -0.140625,-0.265625 -0.296875,-0.265625 -0.046875,0 -0.3125,0.015625 -0.390625,0.34375 l -0.46875,1.875 c -0.109375,0.5 -0.21875,0.90625 -0.25,1.015625 -0.015625,0.046875 -0.484375,0.953125 -1.296875,0.953125 -0.5,0 -0.734375,-0.328125 -0.734375,-0.875 0,-0.28125 0.0625,-0.5625 0.140625,-0.84375 z m 0,0"
       style="stroke:none"
       inkscape:connector-curvature="0" /></symbol><symbol
     id="textext-7ad43379-6"
     overflow="visible"
     style="overflow:visible"><path
       id="path969"
       d=""
       style="stroke:none"
       inkscape:connector-curvature="0" /></symbol><symbol
     id="textext-7ad43379-7"
     overflow="visible"
     style="overflow:visible"><path
       id="path972"
       d="M 3.125,-4.8125 C 3.09375,-4.921875 3.0625,-4.96875 2.9375,-4.96875 c -0.140625,0 -0.15625,0.046875 -0.203125,0.15625 L 1.125,-0.734375 C 1.0625,-0.5625 0.9375,-0.25 0.3125,-0.25 V 0 C 0.546875,-0.015625 0.796875,-0.03125 1.03125,-0.03125 1.3125,-0.03125 1.828125,0 1.875,0 v -0.25 c -0.3125,0 -0.515625,-0.140625 -0.515625,-0.328125 0,-0.0625 0.015625,-0.078125 0.046875,-0.140625 L 1.734375,-1.578125 H 3.71875 L 4.125,-0.5625 c 0,0.03125 0.03125,0.078125 0.03125,0.109375 C 4.15625,-0.25 3.78125,-0.25 3.59375,-0.25 V 0 C 3.9375,-0.015625 4.390625,-0.03125 4.625,-0.03125 4.953125,-0.03125 5.484375,0 5.546875,0 v -0.25 h -0.125 c -0.46875,0 -0.515625,-0.078125 -0.59375,-0.265625 z m -0.40625,0.71875 0.890625,2.265625 h -1.78125 z m 0,0"
       style="stroke:none"
       inkscape:connector-curvature="0" /></symbol><symbol
     id="textext-7ad43379-8"
     overflow="visible"
     style="overflow:visible"><path
       id="path975"
       d="m 0.421875,-4.765625 v 0.25 h 0.15625 c 0.546875,0 0.5625,0.078125 0.5625,0.328125 v 3.625 c 0,0.234375 -0.015625,0.3125 -0.5625,0.3125 H 0.421875 V 0 H 3.375 c 0.984375,0 1.703125,-0.609375 1.703125,-1.28125 0,-0.59375 -0.625,-1.109375 -1.46875,-1.203125 0.6875,-0.125 1.25,-0.546875 1.25,-1.09375 0,-0.625 -0.734375,-1.1875 -1.703125,-1.1875 z M 1.75,-2.578125 v -1.65625 c 0,-0.21875 0,-0.28125 0.328125,-0.28125 h 1.03125 c 0.703125,0 1.0625,0.5 1.0625,0.9375 0,0.5 -0.46875,1 -1.265625,1 z M 2.078125,-0.25 C 1.75,-0.25 1.75,-0.3125 1.75,-0.515625 V -2.375 h 1.484375 c 0.734375,0 1.125,0.59375 1.125,1.078125 C 4.359375,-0.78125 3.890625,-0.25 3.125,-0.25 Z m 0,0"
       style="stroke:none"
       inkscape:connector-curvature="0" /></symbol><symbol
     id="textext-7ad43379-9"
     overflow="visible"
     style="overflow:visible"><path
       id="path978"
       d=""
       style="stroke:none"
       inkscape:connector-curvature="0" /></symbol><symbol
     id="textext-7ad43379-10"
     overflow="visible"
     style="overflow:visible"><path
       id="path981"
       d="m 1.171875,-0.609375 c 0.1875,-0.1875 0.3125,-0.3125 0.890625,-0.796875 0.15625,-0.109375 0.671875,-0.53125 0.875,-0.71875 0.421875,-0.421875 0.6875,-0.78125 0.6875,-0.859375 0,-0.09375 -0.078125,-0.09375 -0.109375,-0.09375 -0.0625,0 -0.09375,0.015625 -0.125,0.078125 -0.21875,0.3125 -0.359375,0.421875 -0.53125,0.421875 -0.078125,0 -0.1875,0 -0.390625,-0.203125 -0.234375,-0.25 -0.390625,-0.296875 -0.546875,-0.296875 -0.5625,0 -0.9375,0.609375 -0.9375,0.8125 0,0.078125 0.0625,0.09375 0.109375,0.09375 0.09375,0 0.109375,-0.015625 0.125,-0.09375 0.109375,-0.25 0.5,-0.265625 0.609375,-0.265625 0.171875,0 0.34375,0.046875 0.4375,0.0625 0.390625,0.078125 0.4375,0.078125 0.609375,0.078125 -0.171875,0.203125 -0.296875,0.328125 -0.96875,0.84375 -0.546875,0.4375 -0.734375,0.609375 -0.859375,0.75 -0.421875,0.40625 -0.625,0.71875 -0.625,0.78125 0,0.078125 0.09375,0.078125 0.125,0.078125 0.0625,0 0.078125,0 0.109375,-0.0625 0.1875,-0.265625 0.40625,-0.421875 0.640625,-0.421875 0.09375,0 0.1875,0 0.375,0.171875 0.21875,0.21875 0.359375,0.3125 0.59375,0.3125 C 3,0.0625 3.46875,-0.78125 3.46875,-1.015625 3.46875,-1.09375 3.390625,-1.09375 3.359375,-1.09375 3.265625,-1.09375 3.25,-1.0625 3.21875,-0.984375 3.09375,-0.640625 2.6875,-0.46875 2.34375,-0.46875 2.1875,-0.46875 2,-0.515625 1.828125,-0.546875 1.515625,-0.625 1.453125,-0.625 1.328125,-0.625 c -0.015625,0 -0.109375,0 -0.15625,0.015625 z m 0,0"
       style="stroke:none"
       inkscape:connector-curvature="0" /></symbol><symbol
     id="textext-7ad43379-11"
     overflow="visible"
     style="overflow:visible"><path
       id="path984"
       d=""
       style="stroke:none"
       inkscape:connector-curvature="0" /></symbol><symbol
     id="textext-7ad43379-12"
     overflow="visible"
     style="overflow:visible"><path
       id="path987"
       d="M 2.546875,2.5 V 2.09375 h -0.96875 v -9.171875 h 0.96875 v -0.40625 h -1.375 V 2.5 Z m 0,0"
       style="stroke:none"
       inkscape:connector-curvature="0" /></symbol><symbol
     id="textext-7ad43379-13"
     overflow="visible"
     style="overflow:visible"><path
       id="path990"
       d="m 1.71875,-3.765625 v -3.15625 L 0.28125,-6.8125 V -6.5 c 0.703125,0 0.78125,0.0625 0.78125,0.5625 V 0 h 0.25 c 0,-0.015625 0.078125,-0.15625 0.359375,-0.625 0.140625,0.234375 0.5625,0.734375 1.296875,0.734375 1.1875,0 2.21875,-0.984375 2.21875,-2.265625 0,-1.265625 -0.96875,-2.25 -2.109375,-2.25 -0.78125,0 -1.203125,0.46875 -1.359375,0.640625 z m 0.03125,2.625 V -3.1875 c 0,-0.1875 0,-0.203125 0.109375,-0.359375 C 2.25,-4.109375 2.796875,-4.1875 3.03125,-4.1875 c 0.453125,0 0.8125,0.265625 1.046875,0.640625 0.265625,0.40625 0.28125,0.96875 0.28125,1.390625 0,0.359375 -0.015625,0.953125 -0.296875,1.40625 -0.21875,0.3125 -0.59375,0.640625 -1.125,0.640625 -0.453125,0 -0.8125,-0.234375 -1.046875,-0.609375 C 1.75,-0.921875 1.75,-0.953125 1.75,-1.140625 Z m 0,0"
       style="stroke:none"
       inkscape:connector-curvature="0" /></symbol><symbol
     id="textext-7ad43379-14"
     overflow="visible"
     style="overflow:visible"><path
       id="path993"
       d="m 4.359375,-7.09375 c 0.0625,-0.140625 0.0625,-0.15625 0.0625,-0.1875 0,-0.109375 -0.09375,-0.203125 -0.203125,-0.203125 C 4.078125,-7.484375 4.03125,-7.375 4,-7.28125 L 0.609375,2.109375 C 0.5625,2.25 0.5625,2.265625 0.5625,2.296875 0.5625,2.40625 0.640625,2.5 0.75,2.5 0.890625,2.5 0.9375,2.390625 0.96875,2.296875 Z m 0,0"
       style="stroke:none"
       inkscape:connector-curvature="0" /></symbol><symbol
     id="textext-7ad43379-15"
     overflow="visible"
     style="overflow:visible"><path
       id="path996"
       d="m 3.296875,2.390625 c 0,-0.03125 0,-0.046875 -0.171875,-0.21875 C 1.890625,0.921875 1.5625,-0.96875 1.5625,-2.5 c 0,-1.734375 0.375,-3.46875 1.609375,-4.703125 0.125,-0.125 0.125,-0.140625 0.125,-0.171875 0,-0.078125 -0.03125,-0.109375 -0.09375,-0.109375 -0.109375,0 -1,0.6875 -1.59375,1.953125 -0.5,1.09375 -0.625,2.203125 -0.625,3.03125 0,0.78125 0.109375,1.984375 0.65625,3.125 C 2.25,1.84375 3.09375,2.5 3.203125,2.5 c 0.0625,0 0.09375,-0.03125 0.09375,-0.109375 z m 0,0"
       style="stroke:none"
       inkscape:connector-curvature="0" /></symbol><symbol
     id="textext-7ad43379-16"
     overflow="visible"
     style="overflow:visible"><path
       id="path999"
       d="M 2.40625,-6.59375 C 2.3125,-6.8125 2.28125,-6.8125 2.046875,-6.8125 H 0.375 V -6.5 h 0.234375 c 0.765625,0 0.78125,0.109375 0.78125,0.46875 v 4.984375 c 0,0.265625 0,0.734375 -1.015625,0.734375 V 0 c 0.34375,-0.015625 0.828125,-0.03125 1.15625,-0.03125 0.328125,0 0.828125,0.015625 1.171875,0.03125 v -0.3125 c -1.03125,0 -1.03125,-0.46875 -1.03125,-0.734375 v -5.375 H 1.6875 L 4.09375,-0.21875 C 4.140625,-0.09375 4.1875,0 4.28125,0 4.390625,0 4.421875,-0.078125 4.46875,-0.1875 L 6.921875,-6.5 v 5.71875 c 0,0.359375 -0.015625,0.46875 -0.78125,0.46875 H 5.90625 V 0 c 0.359375,-0.03125 1.046875,-0.03125 1.4375,-0.03125 0.375,0 1.046875,0 1.421875,0.03125 v -0.3125 h -0.25 c -0.765625,0 -0.78125,-0.109375 -0.78125,-0.46875 v -5.25 C 7.734375,-6.390625 7.75,-6.5 8.515625,-6.5 h 0.25 v -0.3125 h -1.6875 C 6.8125,-6.8125 6.8125,-6.796875 6.75,-6.625 L 4.5625,-1 Z m 0,0"
       style="stroke:none"
       inkscape:connector-curvature="0" /></symbol><symbol
     id="textext-7ad43379-17"
     overflow="visible"
     style="overflow:visible"><path
       id="path1002"
       d="M 1.109375,-2.515625 C 1.171875,-4 2.015625,-4.25 2.359375,-4.25 c 1.015625,0 1.125,1.34375 1.125,1.734375 z m 0,0.21875 h 2.78125 c 0.21875,0 0.25,0 0.25,-0.21875 0,-0.984375 -0.546875,-1.953125 -1.78125,-1.953125 -1.15625,0 -2.078125,1.03125 -2.078125,2.28125 0,1.328125 1.046875,2.296875 2.1875,2.296875 C 3.6875,0.109375 4.140625,-1 4.140625,-1.1875 4.140625,-1.28125 4.0625,-1.3125 4,-1.3125 c -0.078125,0 -0.109375,0.0625 -0.125,0.140625 -0.34375,1.03125 -1.25,1.03125 -1.34375,1.03125 -0.5,0 -0.890625,-0.296875 -1.125,-0.671875 -0.296875,-0.46875 -0.296875,-1.125 -0.296875,-1.484375 z m 0,0"
       style="stroke:none"
       inkscape:connector-curvature="0" /></symbol><symbol
     id="textext-7ad43379-18"
     overflow="visible"
     style="overflow:visible"><path
       id="path1005"
       d="M 6.1875,-5.828125 C 6.328125,-6.203125 6.59375,-6.484375 7.28125,-6.5 v -0.3125 c -0.3125,0.03125 -0.71875,0.03125 -0.96875,0.03125 -0.296875,0 -0.875,-0.015625 -1.140625,-0.03125 V -6.5 C 5.6875,-6.484375 5.90625,-6.234375 5.90625,-6 c 0,0.078125 -0.03125,0.140625 -0.046875,0.203125 L 4.03125,-1 2.125,-6.03125 C 2.0625,-6.171875 2.0625,-6.1875 2.0625,-6.203125 2.0625,-6.5 2.625,-6.5 2.875,-6.5 v -0.3125 c -0.359375,0.03125 -1.046875,0.03125 -1.421875,0.03125 -0.46875,0 -0.90625,-0.015625 -1.265625,-0.03125 V -6.5 c 0.65625,0 0.84375,0 0.984375,0.375 L 3.484375,0 c 0.0625,0.1875 0.109375,0.21875 0.25,0.21875 0.15625,0 0.1875,-0.046875 0.234375,-0.1875 z m 0,0"
       style="stroke:none"
       inkscape:connector-curvature="0" /></symbol><symbol
     id="textext-7ad43379-19"
     overflow="visible"
     style="overflow:visible"><path
       id="path1008"
       d="m 1.171875,-2.171875 c 0,-1.625 0.8125,-2.046875 1.34375,-2.046875 0.09375,0 0.71875,0.015625 1.0625,0.375 -0.40625,0.03125 -0.46875,0.328125 -0.46875,0.453125 0,0.265625 0.1875,0.453125 0.453125,0.453125 0.265625,0 0.46875,-0.15625 0.46875,-0.46875 0,-0.671875 -0.765625,-1.0625 -1.53125,-1.0625 -1.25,0 -2.15625,1.078125 -2.15625,2.3125 0,1.28125 0.984375,2.265625 2.140625,2.265625 1.328125,0 1.65625,-1.203125 1.65625,-1.296875 0,-0.09375 -0.109375,-0.09375 -0.140625,-0.09375 -0.078125,0 -0.109375,0.03125 -0.125,0.09375 -0.28125,0.921875 -0.9375,1.046875 -1.296875,1.046875 -0.53125,0 -1.40625,-0.421875 -1.40625,-2.03125 z m 0,0"
       style="stroke:none"
       inkscape:connector-curvature="0" /></symbol><symbol
     id="textext-7ad43379-20"
     overflow="visible"
     style="overflow:visible"><path
       id="path1011"
       d="m 2.875,-2.5 c 0,-0.765625 -0.109375,-1.96875 -0.65625,-3.109375 -0.59375,-1.21875 -1.453125,-1.875 -1.546875,-1.875 -0.0625,0 -0.109375,0.046875 -0.109375,0.109375 0,0.03125 0,0.046875 0.1875,0.234375 0.984375,0.984375 1.546875,2.5625 1.546875,4.640625 0,1.71875 -0.359375,3.46875 -1.59375,4.71875 C 0.5625,2.34375 0.5625,2.359375 0.5625,2.390625 0.5625,2.453125 0.609375,2.5 0.671875,2.5 0.765625,2.5 1.671875,1.8125 2.25,0.546875 2.765625,-0.546875 2.875,-1.65625 2.875,-2.5 Z m 0,0"
       style="stroke:none"
       inkscape:connector-curvature="0" /></symbol><symbol
     id="textext-7ad43379-21"
     overflow="visible"
     style="overflow:visible"><path
       id="path1014"
       d="M 1.578125,-7.484375 H 0.21875 v 0.40625 H 1.1875 V 2.09375 H 0.21875 V 2.5 h 1.359375 z m 0,0"
       style="stroke:none"
       inkscape:connector-curvature="0" /></symbol></g></defs><path
   id="path22"
   style="fill:none;stroke:#000000;stroke-width:0.33333331;stroke-linecap:butt;stroke-linejoin:miter;stroke-miterlimit:3.79999995;stroke-dasharray:none;stroke-opacity:1"
   d="m 74.833238,167.79621 h 6.136"
   inkscape:connector-curvature="0" /><path
   id="path24"
   style="fill:none;stroke:#000000;stroke-width:0.33333331;stroke-linecap:butt;stroke-linejoin:miter;stroke-miterlimit:3.79999995;stroke-dasharray:none;stroke-opacity:1"
   d="m 308.23455,167.79621 h -6.136"
   inkscape:connector-curvature="0" />
<path
   id="path32"
   style="fill:none;stroke:#000000;stroke-width:0.33333331;stroke-linecap:butt;stroke-linejoin:miter;stroke-miterlimit:3.79999995;stroke-dasharray:none;stroke-opacity:1"
   d="m 74.833238,149.66021 h 6.136"
   inkscape:connector-curvature="0" /><path
   id="path34"
   style="fill:none;stroke:#000000;stroke-width:0.33333331;stroke-linecap:butt;stroke-linejoin:miter;stroke-miterlimit:3.79999995;stroke-dasharray:none;stroke-opacity:1"
   d="m 308.23455,149.66021 h -6.136"
   inkscape:connector-curvature="0" />
<path
   id="path42"
   style="fill:none;stroke:#000000;stroke-width:0.33333331;stroke-linecap:butt;stroke-linejoin:miter;stroke-miterlimit:3.79999995;stroke-dasharray:none;stroke-opacity:1"
   d="m 74.833238,131.46287 h 6.136"
   inkscape:connector-curvature="0" /><path
   id="path44"
   style="fill:none;stroke:#000000;stroke-width:0.33333331;stroke-linecap:butt;stroke-linejoin:miter;stroke-miterlimit:3.79999995;stroke-dasharray:none;stroke-opacity:1"
   d="m 308.23455,131.46287 h -6.136"
   inkscape:connector-curvature="0" />
<path
   id="path52"
   style="fill:none;stroke:#000000;stroke-width:0.33333331;stroke-linecap:butt;stroke-linejoin:miter;stroke-miterlimit:3.79999995;stroke-dasharray:none;stroke-opacity:1"
   d="m 74.833238,113.32687 h 6.136"
   inkscape:connector-curvature="0" /><path
   id="path54"
   style="fill:none;stroke:#000000;stroke-width:0.33333331;stroke-linecap:butt;stroke-linejoin:miter;stroke-miterlimit:3.79999995;stroke-dasharray:none;stroke-opacity:1"
   d="m 308.23455,113.32687 h -6.136"
   inkscape:connector-curvature="0" />
<path
   id="path62"
   style="fill:none;stroke:#000000;stroke-width:0.33333331;stroke-linecap:butt;stroke-linejoin:miter;stroke-miterlimit:3.79999995;stroke-dasharray:none;stroke-opacity:1"
   d="m 74.833238,95.197535 h 6.136"
   inkscape:connector-curvature="0" /><path
   id="path64"
   style="fill:none;stroke:#000000;stroke-width:0.33333331;stroke-linecap:butt;stroke-linejoin:miter;stroke-miterlimit:3.79999995;stroke-dasharray:none;stroke-opacity:1"
   d="m 308.23455,95.197535 h -6.136"
   inkscape:connector-curvature="0" />
<path
   id="path72"
   style="fill:none;stroke:#000000;stroke-width:0.33333331;stroke-linecap:butt;stroke-linejoin:miter;stroke-miterlimit:3.79999995;stroke-dasharray:none;stroke-opacity:1"
   d="m 74.833238,76.993535 h 6.136"
   inkscape:connector-curvature="0" /><path
   id="path74"
   style="fill:none;stroke:#000000;stroke-width:0.33333331;stroke-linecap:butt;stroke-linejoin:miter;stroke-miterlimit:3.79999995;stroke-dasharray:none;stroke-opacity:1"
   d="m 308.23455,76.993535 h -6.136"
   inkscape:connector-curvature="0" />
<path
   id="path82"
   style="fill:none;stroke:#000000;stroke-width:0.33333331;stroke-linecap:butt;stroke-linejoin:miter;stroke-miterlimit:3.79999995;stroke-dasharray:none;stroke-opacity:1"
   d="m 74.833238,58.864205 h 6.136"
   inkscape:connector-curvature="0" /><path
   id="path84"
   style="fill:none;stroke:#000000;stroke-width:0.33333331;stroke-linecap:butt;stroke-linejoin:miter;stroke-miterlimit:3.79999995;stroke-dasharray:none;stroke-opacity:1"
   d="m 308.23455,58.864205 h -6.136"
   inkscape:connector-curvature="0" />
<path
   id="path92"
   style="fill:none;stroke:#000000;stroke-width:0.33333331;stroke-linecap:butt;stroke-linejoin:miter;stroke-miterlimit:3.79999995;stroke-dasharray:none;stroke-opacity:1"
   d="m 74.833238,40.728203 h 6.136"
   inkscape:connector-curvature="0" /><path
   id="path94"
   style="fill:none;stroke:#000000;stroke-width:0.33333331;stroke-linecap:butt;stroke-linejoin:miter;stroke-miterlimit:3.79999995;stroke-dasharray:none;stroke-opacity:1"
   d="m 308.23455,40.728203 h -6.136"
   inkscape:connector-curvature="0" />
<path
   id="path102"
   style="fill:none;stroke:#000000;stroke-width:0.33333331;stroke-linecap:butt;stroke-linejoin:miter;stroke-miterlimit:3.79999995;stroke-dasharray:none;stroke-opacity:1"
   d="m 74.833238,22.530871 h 6.136"
   inkscape:connector-curvature="0" /><path
   id="path104"
   style="fill:none;stroke:#000000;stroke-width:0.33333331;stroke-linecap:butt;stroke-linejoin:miter;stroke-miterlimit:3.79999995;stroke-dasharray:none;stroke-opacity:1"
   d="m 308.23455,22.530871 h -6.136"
   inkscape:connector-curvature="0" />
<path
   id="path112"
   style="fill:none;stroke:#000000;stroke-width:0.33333331;stroke-linecap:butt;stroke-linejoin:miter;stroke-miterlimit:3.79999995;stroke-dasharray:none;stroke-opacity:1"
   d="m 74.833238,4.3948708 h 6.136"
   inkscape:connector-curvature="0" /><path
   id="path114"
   style="fill:none;stroke:#000000;stroke-width:0.33333331;stroke-linecap:butt;stroke-linejoin:miter;stroke-miterlimit:3.79999995;stroke-dasharray:none;stroke-opacity:1"
   d="m 308.23455,4.3948708 h -6.136"
   inkscape:connector-curvature="0" />
<path
   id="path122"
   style="fill:none;stroke:#000000;stroke-width:0.33333331;stroke-linecap:butt;stroke-linejoin:miter;stroke-miterlimit:3.79999995;stroke-dasharray:none;stroke-opacity:1"
   d="m 74.833238,167.79621 v -6.136"
   inkscape:connector-curvature="0" /><path
   id="path124"
   style="fill:none;stroke:#000000;stroke-width:0.33333331;stroke-linecap:butt;stroke-linejoin:miter;stroke-miterlimit:3.79999995;stroke-dasharray:none;stroke-opacity:1"
   d="M 74.833238,4.3948708 V 10.530871"
   inkscape:connector-curvature="0" /><text
   style="font-variant:normal;font-weight:normal;font-size:16px;font-family:'Times New Roman';-inkscape-font-specification:TimesNewRomanPSMT;writing-mode:lr-tb;fill:#000000;fill-opacity:1;fill-rule:nonzero;stroke:none;stroke-width:1.33333325"
   id="text130"
   x="60.166569"
   y="189.25406"><tspan
     x="60.166569 65.494568 73.494568 81.494568"
     y="189.25406"
     id="tspan128"
     style="stroke-width:1.33333325">-600</tspan></text>


<path
   id="path132"
   style="fill:none;stroke:#000000;stroke-width:0.33333331;stroke-linecap:butt;stroke-linejoin:miter;stroke-miterlimit:3.79999995;stroke-dasharray:none;stroke-opacity:1"
   d="m 113.76523,167.79621 v -6.136"
   inkscape:connector-curvature="0" /><path
   id="path134"
   style="fill:none;stroke:#000000;stroke-width:0.33333331;stroke-linecap:butt;stroke-linejoin:miter;stroke-miterlimit:3.79999995;stroke-dasharray:none;stroke-opacity:1"
   d="M 113.76523,4.3948708 V 10.530871"
   inkscape:connector-curvature="0" /><text
   style="font-variant:normal;font-weight:normal;font-size:16px;font-family:'Times New Roman';-inkscape-font-specification:TimesNewRomanPSMT;writing-mode:lr-tb;fill:#000000;fill-opacity:1;fill-rule:nonzero;stroke:none;stroke-width:1.33333325"
   id="text140"
   x="99.099899"
   y="189.25406"><tspan
     x="99.099899 104.4279 112.4279 120.4279"
     y="189.25406"
     id="tspan138"
     style="stroke-width:1.33333325">-400</tspan></text>


<path
   id="path142"
   style="fill:none;stroke:#000000;stroke-width:0.33333331;stroke-linecap:butt;stroke-linejoin:miter;stroke-miterlimit:3.79999995;stroke-dasharray:none;stroke-opacity:1"
   d="m 152.63589,167.79621 v -6.136"
   inkscape:connector-curvature="0" /><path
   id="path144"
   style="fill:none;stroke:#000000;stroke-width:0.33333331;stroke-linecap:butt;stroke-linejoin:miter;stroke-miterlimit:3.79999995;stroke-dasharray:none;stroke-opacity:1"
   d="M 152.63589,4.3948708 V 10.530871"
   inkscape:connector-curvature="0" /><text
   style="font-variant:normal;font-weight:normal;font-size:16px;font-family:'Times New Roman';-inkscape-font-specification:TimesNewRomanPSMT;writing-mode:lr-tb;fill:#000000;fill-opacity:1;fill-rule:nonzero;stroke:none;stroke-width:1.33333325"
   id="text150"
   x="137.96657"
   y="189.25406"><tspan
     x="137.96657 143.29457 151.29457 159.29457"
     y="189.25406"
     id="tspan148"
     style="stroke-width:1.33333325">-200</tspan></text>


<path
   id="path152"
   style="fill:none;stroke:#000000;stroke-width:0.33333331;stroke-linecap:butt;stroke-linejoin:miter;stroke-miterlimit:3.79999995;stroke-dasharray:none;stroke-opacity:1"
   d="m 191.56789,167.79621 v -6.136"
   inkscape:connector-curvature="0" /><path
   id="path154"
   style="fill:none;stroke:#000000;stroke-width:0.33333331;stroke-linecap:butt;stroke-linejoin:miter;stroke-miterlimit:3.79999995;stroke-dasharray:none;stroke-opacity:1"
   d="M 191.56789,4.3948708 V 10.530871"
   inkscape:connector-curvature="0" /><text
   style="font-variant:normal;font-weight:normal;font-size:16px;font-family:'Times New Roman';-inkscape-font-specification:TimesNewRomanPSMT;writing-mode:lr-tb;fill:#000000;fill-opacity:1;fill-rule:nonzero;stroke:none;stroke-width:1.33333325"
   id="text160"
   x="189.56657"
   y="189.25406"><tspan
     x="189.56657"
     y="189.25406"
     id="tspan158"
     style="stroke-width:1.33333325">0</tspan></text>


<path
   id="path162"
   style="fill:none;stroke:#000000;stroke-width:0.33333331;stroke-linecap:butt;stroke-linejoin:miter;stroke-miterlimit:3.79999995;stroke-dasharray:none;stroke-opacity:1"
   d="m 230.43189,167.79621 v -6.136"
   inkscape:connector-curvature="0" /><path
   id="path164"
   style="fill:none;stroke:#000000;stroke-width:0.33333331;stroke-linecap:butt;stroke-linejoin:miter;stroke-miterlimit:3.79999995;stroke-dasharray:none;stroke-opacity:1"
   d="M 230.43189,4.3948708 V 10.530871"
   inkscape:connector-curvature="0" /><text
   style="font-variant:normal;font-weight:normal;font-size:16px;font-family:'Times New Roman';-inkscape-font-specification:TimesNewRomanPSMT;writing-mode:lr-tb;fill:#000000;fill-opacity:1;fill-rule:nonzero;stroke:none;stroke-width:1.33333325"
   id="text170"
   x="220.43321"
   y="189.25406"><tspan
     x="220.43321 228.43321 236.43321"
     y="189.25406"
     id="tspan168"
     style="stroke-width:1.33333325">200</tspan></text>


<path
   id="path172"
   style="fill:none;stroke:#000000;stroke-width:0.33333331;stroke-linecap:butt;stroke-linejoin:miter;stroke-miterlimit:3.79999995;stroke-dasharray:none;stroke-opacity:1"
   d="m 269.36389,167.79621 v -6.136"
   inkscape:connector-curvature="0" /><path
   id="path174"
   style="fill:none;stroke:#000000;stroke-width:0.33333331;stroke-linecap:butt;stroke-linejoin:miter;stroke-miterlimit:3.79999995;stroke-dasharray:none;stroke-opacity:1"
   d="M 269.36389,4.3948708 V 10.530871"
   inkscape:connector-curvature="0" /><text
   style="font-variant:normal;font-weight:normal;font-size:16px;font-family:'Times New Roman';-inkscape-font-specification:TimesNewRomanPSMT;writing-mode:lr-tb;fill:#000000;fill-opacity:1;fill-rule:nonzero;stroke:none;stroke-width:1.33333325"
   id="text180"
   x="259.36658"
   y="189.25406"><tspan
     x="259.36658 267.36658 275.36658"
     y="189.25406"
     id="tspan178"
     style="stroke-width:1.33333325">400</tspan></text>


<path
   id="path182"
   style="fill:none;stroke:#000000;stroke-width:0.33333331;stroke-linecap:butt;stroke-linejoin:miter;stroke-miterlimit:3.79999995;stroke-dasharray:none;stroke-opacity:1"
   d="m 308.23455,167.79621 v -6.136"
   inkscape:connector-curvature="0" /><path
   id="path184"
   style="fill:none;stroke:#000000;stroke-width:0.33333331;stroke-linecap:butt;stroke-linejoin:miter;stroke-miterlimit:3.79999995;stroke-dasharray:none;stroke-opacity:1"
   d="M 308.23455,4.3948708 V 10.530871"
   inkscape:connector-curvature="0" /><text
   style="font-variant:normal;font-weight:normal;font-size:16px;font-family:'Times New Roman';-inkscape-font-specification:TimesNewRomanPSMT;writing-mode:lr-tb;fill:#000000;fill-opacity:1;fill-rule:nonzero;stroke:none;stroke-width:1.33333325"
   id="text190"
   x="298.23325"
   y="189.25406"><tspan
     x="298.23325 306.23325 314.23325"
     y="189.25406"
     id="tspan188"
     style="stroke-width:1.33333325">600</tspan></text>


<path
   id="path192"
   style="fill:none;stroke:#000000;stroke-width:0.33333331;stroke-linecap:butt;stroke-linejoin:miter;stroke-miterlimit:3.79999995;stroke-dasharray:none;stroke-opacity:1"
   d="M 74.833238,167.79621 H 308.23455 V 4.3948708 H 74.833238 Z"
   inkscape:connector-curvature="0" />



<path
   id="path228"
   style="fill:none;stroke:#008800;stroke-width:1.33333325;stroke-linecap:butt;stroke-linejoin:miter;stroke-miterlimit:3.79999995;stroke-dasharray:1.83333329, 1.83333329;stroke-dashoffset:0;stroke-opacity:1"
   d="m 306.69722,167.79621 h -19.19733 l -3.864,-0.0683 h -7.66667 l -3.87067,-0.0677 -3.796,-0.0613 -3.87066,-0.0677 -3.796,-0.0683 -3.87067,-0.136 -3.796,-0.19733 -3.87066,-0.19733 -3.864,-0.33334 -3.80267,-0.40106 -3.864,-0.5376 -3.80267,-0.728 -3.864,-1 -3.80266,-1.20427 -3.864,-1.5984 -3.87067,-2.06827 -3.796,-2.5984 -3.87067,-3.46933 -3.796,-4.66667 -3.87066,-5.93226 -3.796,-5.93174 -3.87067,-5.80266 -3.796,-2.864 -3.87067,1.864 -3.864,6.80266 -3.80266,7.26507 -3.864,6.46987 -3.80267,4.79573 -3.864,3.60533 -3.80267,2.4624 -3.864,1.8032 -3.864,1.26507 -3.80266,1 -3.864,0.73493 -3.80267,0.53014 -3.864,0.33333 -3.80267,0.33333 -3.864,0.20427 -3.87066,0.12907 -3.796,0.13653 -3.87067,0.0677 -3.796,0.0613 -3.87066,0.0677 h -7.66667 l -3.864,0.0683 H 76.363898"
   inkscape:connector-curvature="0" />

<path
   id="path238"
   style="fill:none;stroke:#0000ff;stroke-width:1.33333325;stroke-linecap:butt;stroke-linejoin:miter;stroke-miterlimit:3.79999995;stroke-dasharray:7.33333315, 1.83333329, 1.83333329, 1.83333329;stroke-dashoffset:0;stroke-opacity:1"
   d="m 306.69722,167.79621 h -15.39467 l -3.80266,-0.0683 h -3.864 l -3.80267,-0.0677 -3.864,-0.0613 -3.87067,-0.0677 -3.796,-0.13653 -3.87066,-0.12907 -3.796,-0.272 -3.87067,-0.33333 -3.796,-0.39467 -3.87066,-0.66667 -3.864,-0.87093 -3.80267,-1.1968 -3.864,-1.59893 -3.80267,-2.20427 -3.864,-2.93173 -3.80266,-3.93174 -3.864,-5.13653 -3.87067,-6.66667 -3.796,-9 -3.87067,-12.66666 -3.796,-18.19707 -3.87066,-24.734745 -3.796,-27.530662 -3.87067,-27.938666 -3.796,-13.5306662 -3.87067,8.1360002 -3.864,30.999999 -3.80266,32.795995 -3.864,27.204005 -3.80267,18.79574 -3.864,13.06826 -3.80267,8.33334 -3.864,5.93173 -3.864,4.20427 -3.80266,3.06133 -3.864,2.272 -3.80267,1.59893 -3.864,1.12907 -3.80267,0.87093 -3.864,0.5984 -3.87066,0.4016 -3.796,0.26507 -3.87067,0.19733 -3.796,0.20427 -3.87066,0.0677 -3.796,0.0613 -3.87067,0.0677 h -3.864 l -3.802662,0.0683 h -23.068"
   inkscape:connector-curvature="0" /><path
   id="path240"
   style="fill:none;stroke:#000000;stroke-width:0.33333331;stroke-linecap:butt;stroke-linejoin:miter;stroke-miterlimit:3.79999995;stroke-dasharray:none;stroke-opacity:1"
   d="M 74.833238,167.79621 H 308.23455 V 4.3948708 H 74.833238 Z"
   inkscape:connector-curvature="0" /><g
   id="g2146"
   transform="matrix(1.6489754,0,0,1.6489754,-223.08382,-14.630694)"
   ns0:preamble="/home/yoshidak/.config/inkscape/extensions/package.tex"
   ns0:text="$K_{\\mathrm{B}z}^\\mathrm{A}$~(MeV/c)\n\n"><defs
     id="defs2111"><g
       id="g237"><symbol
         id="symbol178"
         overflow="visible"
         style="overflow:visible"><path
           id="path176"
           d=""
           style="stroke:none"
           inkscape:connector-curvature="0" /></symbol><symbol
         id="symbol182"
         overflow="visible"
         style="overflow:visible"><path
           id="path180"
           d="M 5.078125,-4.03125 C 5.0625,-4.0625 5.03125,-4.140625 5.03125,-4.171875 c 0,0 0.171875,-0.140625 0.28125,-0.21875 l 1.75,-1.34375 C 8,-6.4375 8.390625,-6.46875 8.6875,-6.5 8.765625,-6.515625 8.859375,-6.515625 8.859375,-6.703125 8.859375,-6.734375 8.828125,-6.8125 8.75,-6.8125 c -0.21875,0 -0.46875,0.03125 -0.703125,0.03125 -0.359375,0 -0.75,-0.03125 -1.109375,-0.03125 -0.0625,0 -0.1875,0 -0.1875,0.203125 0,0.0625 0.046875,0.09375 0.125,0.109375 0.21875,0.015625 0.296875,0.0625 0.296875,0.203125 0,0.1875 -0.296875,0.421875 -0.359375,0.46875 L 2.9375,-2.84375 3.734375,-6.046875 C 3.8125,-6.40625 3.84375,-6.5 4.5625,-6.5 c 0.25,0 0.34375,0 0.34375,-0.203125 0,-0.078125 -0.078125,-0.109375 -0.140625,-0.109375 -0.28125,0 -1,0.03125 -1.28125,0.03125 C 3.203125,-6.78125 2.5,-6.8125 2.203125,-6.8125 2.140625,-6.8125 2,-6.8125 2,-6.625 2,-6.5 2.09375,-6.5 2.296875,-6.5 c 0.125,0 0.3125,0.015625 0.421875,0.015625 0.15625,0.03125 0.21875,0.046875 0.21875,0.171875 0,0.03125 0,0.0625 -0.03125,0.1875 L 1.5625,-0.78125 c -0.09375,0.390625 -0.109375,0.46875 -0.90625,0.46875 -0.171875,0 -0.28125,0 -0.28125,0.1875 C 0.375,0 0.5,0 0.53125,0 0.8125,0 1.515625,-0.03125 1.796875,-0.03125 2,-0.03125 2.21875,-0.015625 2.4375,-0.015625 2.65625,-0.015625 2.875,0 3.078125,0 3.15625,0 3.28125,0 3.28125,-0.203125 3.28125,-0.3125 3.1875,-0.3125 3,-0.3125 c -0.375,0 -0.640625,0 -0.640625,-0.171875 0,-0.078125 0.046875,-0.296875 0.078125,-0.4375 C 2.578125,-1.453125 2.71875,-1.96875 2.84375,-2.5 l 1.484375,-1.15625 1.15625,2.6875 c 0.125,0.265625 0.125,0.296875 0.125,0.34375 0,0.3125 -0.4375,0.3125 -0.53125,0.3125 -0.109375,0 -0.21875,0 -0.21875,0.203125 C 4.859375,0 4.984375,0 5,0 5.40625,0 5.828125,-0.03125 6.21875,-0.03125 6.4375,-0.03125 6.984375,0 7.203125,0 7.25,0 7.375,0 7.375,-0.203125 7.375,-0.3125 7.265625,-0.3125 7.171875,-0.3125 c -0.40625,0 -0.53125,-0.09375 -0.6875,-0.4375 z m 0,0"
           style="stroke:none"
           inkscape:connector-curvature="0" /></symbol><symbol
         id="symbol187"
         overflow="visible"
         style="overflow:visible"><path
           id="path185"
           d=""
           style="stroke:none"
           inkscape:connector-curvature="0" /></symbol><symbol
         id="symbol191"
         overflow="visible"
         style="overflow:visible"><path
           id="path189"
           d="M 3.125,-4.8125 C 3.09375,-4.921875 3.0625,-4.96875 2.9375,-4.96875 c -0.140625,0 -0.15625,0.046875 -0.203125,0.15625 L 1.125,-0.734375 C 1.0625,-0.5625 0.9375,-0.25 0.3125,-0.25 V 0 C 0.546875,-0.015625 0.796875,-0.03125 1.03125,-0.03125 1.3125,-0.03125 1.828125,0 1.875,0 v -0.25 c -0.3125,0 -0.515625,-0.140625 -0.515625,-0.328125 0,-0.0625 0.015625,-0.078125 0.046875,-0.140625 L 1.734375,-1.578125 H 3.71875 L 4.125,-0.5625 c 0,0.03125 0.03125,0.078125 0.03125,0.109375 C 4.15625,-0.25 3.78125,-0.25 3.59375,-0.25 V 0 C 3.9375,-0.015625 4.390625,-0.03125 4.625,-0.03125 4.953125,-0.03125 5.484375,0 5.546875,0 v -0.25 h -0.125 c -0.46875,0 -0.515625,-0.078125 -0.59375,-0.265625 z m -0.40625,0.71875 0.890625,2.265625 h -1.78125 z m 0,0"
           style="stroke:none"
           inkscape:connector-curvature="0" /></symbol><symbol
         id="symbol195"
         overflow="visible"
         style="overflow:visible"><path
           id="path193"
           d="m 0.421875,-4.765625 v 0.25 h 0.15625 c 0.546875,0 0.5625,0.078125 0.5625,0.328125 v 3.625 c 0,0.234375 -0.015625,0.3125 -0.5625,0.3125 H 0.421875 V 0 H 3.375 c 0.984375,0 1.703125,-0.609375 1.703125,-1.28125 0,-0.59375 -0.625,-1.109375 -1.46875,-1.203125 0.6875,-0.125 1.25,-0.546875 1.25,-1.09375 0,-0.625 -0.734375,-1.1875 -1.703125,-1.1875 z M 1.75,-2.578125 v -1.65625 c 0,-0.21875 0,-0.28125 0.328125,-0.28125 h 1.03125 c 0.703125,0 1.0625,0.5 1.0625,0.9375 0,0.5 -0.46875,1 -1.265625,1 z M 2.078125,-0.25 C 1.75,-0.25 1.75,-0.3125 1.75,-0.515625 V -2.375 h 1.484375 c 0.734375,0 1.125,0.59375 1.125,1.078125 C 4.359375,-0.78125 3.890625,-0.25 3.125,-0.25 Z m 0,0"
           style="stroke:none"
           inkscape:connector-curvature="0" /></symbol><symbol
         id="symbol199"
         overflow="visible"
         style="overflow:visible"><path
           id="path197"
           d=""
           style="stroke:none"
           inkscape:connector-curvature="0" /></symbol><symbol
         id="symbol203"
         overflow="visible"
         style="overflow:visible"><path
           id="path201"
           d="m 1.171875,-0.609375 c 0.1875,-0.1875 0.3125,-0.3125 0.890625,-0.796875 0.15625,-0.109375 0.671875,-0.53125 0.875,-0.71875 0.421875,-0.421875 0.6875,-0.78125 0.6875,-0.859375 0,-0.09375 -0.078125,-0.09375 -0.109375,-0.09375 -0.0625,0 -0.09375,0.015625 -0.125,0.078125 -0.21875,0.3125 -0.359375,0.421875 -0.53125,0.421875 -0.078125,0 -0.1875,0 -0.390625,-0.203125 -0.234375,-0.25 -0.390625,-0.296875 -0.546875,-0.296875 -0.5625,0 -0.9375,0.609375 -0.9375,0.8125 0,0.078125 0.0625,0.09375 0.109375,0.09375 0.09375,0 0.109375,-0.015625 0.125,-0.09375 0.109375,-0.25 0.5,-0.265625 0.609375,-0.265625 0.171875,0 0.34375,0.046875 0.4375,0.0625 0.390625,0.078125 0.4375,0.078125 0.609375,0.078125 -0.171875,0.203125 -0.296875,0.328125 -0.96875,0.84375 -0.546875,0.4375 -0.734375,0.609375 -0.859375,0.75 -0.421875,0.40625 -0.625,0.71875 -0.625,0.78125 0,0.078125 0.09375,0.078125 0.125,0.078125 0.0625,0 0.078125,0 0.109375,-0.0625 0.1875,-0.265625 0.40625,-0.421875 0.640625,-0.421875 0.09375,0 0.1875,0 0.375,0.171875 0.21875,0.21875 0.359375,0.3125 0.59375,0.3125 C 3,0.0625 3.46875,-0.78125 3.46875,-1.015625 3.46875,-1.09375 3.390625,-1.09375 3.359375,-1.09375 3.265625,-1.09375 3.25,-1.0625 3.21875,-0.984375 3.09375,-0.640625 2.6875,-0.46875 2.34375,-0.46875 2.1875,-0.46875 2,-0.515625 1.828125,-0.546875 1.515625,-0.625 1.453125,-0.625 1.328125,-0.625 c -0.015625,0 -0.109375,0 -0.15625,0.015625 z m 0,0"
           style="stroke:none"
           inkscape:connector-curvature="0" /></symbol><symbol
         id="symbol207"
         overflow="visible"
         style="overflow:visible"><path
           id="path205"
           d=""
           style="stroke:none"
           inkscape:connector-curvature="0" /></symbol><symbol
         id="symbol211"
         overflow="visible"
         style="overflow:visible"><path
           id="path209"
           d="m 3.296875,2.390625 c 0,-0.03125 0,-0.046875 -0.171875,-0.21875 C 1.890625,0.921875 1.5625,-0.96875 1.5625,-2.5 c 0,-1.734375 0.375,-3.46875 1.609375,-4.703125 0.125,-0.125 0.125,-0.140625 0.125,-0.171875 0,-0.078125 -0.03125,-0.109375 -0.09375,-0.109375 -0.109375,0 -1,0.6875 -1.59375,1.953125 -0.5,1.09375 -0.625,2.203125 -0.625,3.03125 0,0.78125 0.109375,1.984375 0.65625,3.125 C 2.25,1.84375 3.09375,2.5 3.203125,2.5 c 0.0625,0 0.09375,-0.03125 0.09375,-0.109375 z m 0,0"
           style="stroke:none"
           inkscape:connector-curvature="0" /></symbol><symbol
         id="symbol215"
         overflow="visible"
         style="overflow:visible"><path
           id="path213"
           d="M 2.40625,-6.59375 C 2.3125,-6.8125 2.28125,-6.8125 2.046875,-6.8125 H 0.375 V -6.5 h 0.234375 c 0.765625,0 0.78125,0.109375 0.78125,0.46875 v 4.984375 c 0,0.265625 0,0.734375 -1.015625,0.734375 V 0 c 0.34375,-0.015625 0.828125,-0.03125 1.15625,-0.03125 0.328125,0 0.828125,0.015625 1.171875,0.03125 v -0.3125 c -1.03125,0 -1.03125,-0.46875 -1.03125,-0.734375 v -5.375 H 1.6875 L 4.09375,-0.21875 C 4.140625,-0.09375 4.1875,0 4.28125,0 4.390625,0 4.421875,-0.078125 4.46875,-0.1875 L 6.921875,-6.5 v 5.71875 c 0,0.359375 -0.015625,0.46875 -0.78125,0.46875 H 5.90625 V 0 c 0.359375,-0.03125 1.046875,-0.03125 1.4375,-0.03125 0.375,0 1.046875,0 1.421875,0.03125 v -0.3125 h -0.25 c -0.765625,0 -0.78125,-0.109375 -0.78125,-0.46875 v -5.25 C 7.734375,-6.390625 7.75,-6.5 8.515625,-6.5 h 0.25 v -0.3125 h -1.6875 C 6.8125,-6.8125 6.8125,-6.796875 6.75,-6.625 L 4.5625,-1 Z m 0,0"
           style="stroke:none"
           inkscape:connector-curvature="0" /></symbol><symbol
         id="symbol219"
         overflow="visible"
         style="overflow:visible"><path
           id="path217"
           d="M 1.109375,-2.515625 C 1.171875,-4 2.015625,-4.25 2.359375,-4.25 c 1.015625,0 1.125,1.34375 1.125,1.734375 z m 0,0.21875 h 2.78125 c 0.21875,0 0.25,0 0.25,-0.21875 0,-0.984375 -0.546875,-1.953125 -1.78125,-1.953125 -1.15625,0 -2.078125,1.03125 -2.078125,2.28125 0,1.328125 1.046875,2.296875 2.1875,2.296875 C 3.6875,0.109375 4.140625,-1 4.140625,-1.1875 4.140625,-1.28125 4.0625,-1.3125 4,-1.3125 c -0.078125,0 -0.109375,0.0625 -0.125,0.140625 -0.34375,1.03125 -1.25,1.03125 -1.34375,1.03125 -0.5,0 -0.890625,-0.296875 -1.125,-0.671875 -0.296875,-0.46875 -0.296875,-1.125 -0.296875,-1.484375 z m 0,0"
           style="stroke:none"
           inkscape:connector-curvature="0" /></symbol><symbol
         id="symbol223"
         overflow="visible"
         style="overflow:visible"><path
           id="path221"
           d="M 6.1875,-5.828125 C 6.328125,-6.203125 6.59375,-6.484375 7.28125,-6.5 v -0.3125 c -0.3125,0.03125 -0.71875,0.03125 -0.96875,0.03125 -0.296875,0 -0.875,-0.015625 -1.140625,-0.03125 V -6.5 C 5.6875,-6.484375 5.90625,-6.234375 5.90625,-6 c 0,0.078125 -0.03125,0.140625 -0.046875,0.203125 L 4.03125,-1 2.125,-6.03125 C 2.0625,-6.171875 2.0625,-6.1875 2.0625,-6.203125 2.0625,-6.5 2.625,-6.5 2.875,-6.5 v -0.3125 c -0.359375,0.03125 -1.046875,0.03125 -1.421875,0.03125 -0.46875,0 -0.90625,-0.015625 -1.265625,-0.03125 V -6.5 c 0.65625,0 0.84375,0 0.984375,0.375 L 3.484375,0 c 0.0625,0.1875 0.109375,0.21875 0.25,0.21875 0.15625,0 0.1875,-0.046875 0.234375,-0.1875 z m 0,0"
           style="stroke:none"
           inkscape:connector-curvature="0" /></symbol><symbol
         id="symbol227"
         overflow="visible"
         style="overflow:visible"><path
           id="path225"
           d="m 4.359375,-7.09375 c 0.0625,-0.140625 0.0625,-0.15625 0.0625,-0.1875 0,-0.109375 -0.09375,-0.203125 -0.203125,-0.203125 C 4.078125,-7.484375 4.03125,-7.375 4,-7.28125 L 0.609375,2.109375 C 0.5625,2.25 0.5625,2.265625 0.5625,2.296875 0.5625,2.40625 0.640625,2.5 0.75,2.5 0.890625,2.5 0.9375,2.390625 0.96875,2.296875 Z m 0,0"
           style="stroke:none"
           inkscape:connector-curvature="0" /></symbol><symbol
         id="symbol231"
         overflow="visible"
         style="overflow:visible"><path
           id="path229"
           d="m 1.171875,-2.171875 c 0,-1.625 0.8125,-2.046875 1.34375,-2.046875 0.09375,0 0.71875,0.015625 1.0625,0.375 -0.40625,0.03125 -0.46875,0.328125 -0.46875,0.453125 0,0.265625 0.1875,0.453125 0.453125,0.453125 0.265625,0 0.46875,-0.15625 0.46875,-0.46875 0,-0.671875 -0.765625,-1.0625 -1.53125,-1.0625 -1.25,0 -2.15625,1.078125 -2.15625,2.3125 0,1.28125 0.984375,2.265625 2.140625,2.265625 1.328125,0 1.65625,-1.203125 1.65625,-1.296875 0,-0.09375 -0.109375,-0.09375 -0.140625,-0.09375 -0.078125,0 -0.109375,0.03125 -0.125,0.09375 -0.28125,0.921875 -0.9375,1.046875 -1.296875,1.046875 -0.53125,0 -1.40625,-0.421875 -1.40625,-2.03125 z m 0,0"
           style="stroke:none"
           inkscape:connector-curvature="0" /></symbol><symbol
         id="symbol235"
         overflow="visible"
         style="overflow:visible"><path
           id="path233"
           d="m 2.875,-2.5 c 0,-0.765625 -0.109375,-1.96875 -0.65625,-3.109375 -0.59375,-1.21875 -1.453125,-1.875 -1.546875,-1.875 -0.0625,0 -0.109375,0.046875 -0.109375,0.109375 0,0.03125 0,0.046875 0.1875,0.234375 0.984375,0.984375 1.546875,2.5625 1.546875,4.640625 0,1.71875 -0.359375,3.46875 -1.59375,4.71875 C 0.5625,2.34375 0.5625,2.359375 0.5625,2.390625 0.5625,2.453125 0.609375,2.5 0.671875,2.5 0.765625,2.5 1.671875,1.8125 2.25,0.546875 2.765625,-0.546875 2.875,-1.65625 2.875,-2.5 Z m 0,0"
           style="stroke:none"
           inkscape:connector-curvature="0" /></symbol></g></defs><g
     id="textext-7574a9dc-15"><g
       id="g2115"
       style="fill:#000000;fill-opacity:1"><use
         id="use2113"
         y="134.765"
         x="223.43201"
         xlink:href="#textext-7574a9dc-1"
         width="100%"
         height="100%" /></g><g
       id="g2119"
       style="fill:#000000;fill-opacity:1"><use
         id="use2117"
         y="131.14999"
         x="232.606"
         xlink:href="#textext-7574a9dc-3"
         width="100%"
         height="100%" /></g><g
       id="g2123"
       style="fill:#000000;fill-opacity:1"><use
         id="use2121"
         y="137.509"
         x="231.89301"
         xlink:href="#textext-7574a9dc-4"
         width="100%"
         height="100%" /></g><g
       id="g2127"
       style="fill:#000000;fill-opacity:1"><use
         id="use2125"
         y="137.509"
         x="237.463"
         xlink:href="#textext-7574a9dc-6"
         width="100%"
         height="100%" /></g><g
       id="g2143"
       style="fill:#000000;fill-opacity:1"><use
         id="use2129"
         y="134.765"
         x="245.37399"
         xlink:href="#textext-7574a9dc-8"
         width="100%"
         height="100%" /><use
         id="use2131"
         y="134.765"
         x="249.24846"
         xlink:href="#textext-7574a9dc-9"
         width="100%"
         height="100%" /><use
         id="use2133"
         y="134.765"
         x="258.38116"
         xlink:href="#textext-7574a9dc-10"
         width="100%"
         height="100%" /><use
         id="use2135"
         y="134.765"
         x="262.80856"
         xlink:href="#textext-7574a9dc-11"
         width="100%"
         height="100%" /><use
         id="use2137"
         y="134.765"
         x="270.28049"
         xlink:href="#textext-7574a9dc-12"
         width="100%"
         height="100%" /><use
         id="use2139"
         y="134.765"
         x="275.26181"
         xlink:href="#textext-7574a9dc-13"
         width="100%"
         height="100%" /><use
         id="use2141"
         y="134.765"
         x="279.68918"
         xlink:href="#textext-7574a9dc-14"
         width="100%"
         height="100%" /></g></g></g><text
   style="font-variant:normal;font-weight:normal;font-size:16px;font-family:'Times New Roman';-inkscape-font-specification:TimesNewRomanPSMT;writing-mode:lr-tb;fill:#000000;fill-opacity:1;fill-rule:nonzero;stroke:none;stroke-width:1.33333325"
   id="text30"
   x="62.104008"
   y="174.21303"><tspan
     style="stroke-width:1.33333325"
     x="62.104008"
     y="174.21303"
     id="tspan28">0</tspan></text>

<text
   style="font-variant:normal;font-weight:normal;font-size:16px;font-family:'Times New Roman';-inkscape-font-specification:TimesNewRomanPSMT;writing-mode:lr-tb;fill:#000000;fill-opacity:1;fill-rule:nonzero;stroke:none;stroke-width:1.33333325"
   id="text40"
   x="26.104008"
   y="156.0797"><tspan
     style="stroke-width:1.33333325"
     x="26.104008 34.104008 38.104008 46.104008 54.104008 62.104008"
     y="156.0797"
     sodipodi:role="line"
     id="tspan38">0.0002</tspan></text>

<text
   style="font-variant:normal;font-weight:normal;font-size:16px;font-family:'Times New Roman';-inkscape-font-specification:TimesNewRomanPSMT;writing-mode:lr-tb;fill:#000000;fill-opacity:1;fill-rule:nonzero;stroke:none;stroke-width:1.33333325"
   id="text50"
   x="26.104008"
   y="137.8797"><tspan
     style="stroke-width:1.33333325"
     x="26.104008 34.104008 38.104008 46.104008 54.104008 62.104008"
     y="137.8797"
     sodipodi:role="line"
     id="tspan48">0.0004</tspan></text>

<text
   style="font-variant:normal;font-weight:normal;font-size:16px;font-family:'Times New Roman';-inkscape-font-specification:TimesNewRomanPSMT;writing-mode:lr-tb;fill:#000000;fill-opacity:1;fill-rule:nonzero;stroke:none;stroke-width:1.33333325"
   id="text60"
   x="26.104008"
   y="119.74637"><tspan
     style="stroke-width:1.33333325"
     x="26.104008 34.104008 38.104008 46.104008 54.104008 62.104008"
     y="119.74637"
     sodipodi:role="line"
     id="tspan58">0.0006</tspan></text>

<text
   style="font-variant:normal;font-weight:normal;font-size:16px;font-family:'Times New Roman';-inkscape-font-specification:TimesNewRomanPSMT;writing-mode:lr-tb;fill:#000000;fill-opacity:1;fill-rule:nonzero;stroke:none;stroke-width:1.33333325"
   id="text70"
   x="26.104008"
   y="101.61251"><tspan
     style="stroke-width:1.33333325"
     x="26.104008 34.104008 38.104008 46.104008 54.104008 62.104008"
     y="101.61251"
     sodipodi:role="line"
     id="tspan68">0.0008</tspan></text>

<text
   style="font-variant:normal;font-weight:normal;font-size:16px;font-family:'Times New Roman';-inkscape-font-specification:TimesNewRomanPSMT;writing-mode:lr-tb;fill:#000000;fill-opacity:1;fill-rule:nonzero;stroke:none;stroke-width:1.33333325"
   id="text80"
   x="26.104008"
   y="83.412506"><tspan
     style="stroke-width:1.33333325"
     x="26.104008 34.104008 38.104008 46.104008 54.104008"
     y="83.412506"
     sodipodi:role="line"
     id="tspan78">0.0010</tspan></text>

<text
   style="font-variant:normal;font-weight:normal;font-size:16px;font-family:'Times New Roman';-inkscape-font-specification:TimesNewRomanPSMT;writing-mode:lr-tb;fill:#000000;fill-opacity:1;fill-rule:nonzero;stroke:none;stroke-width:1.33333325"
   id="text90"
   x="26.104008"
   y="65.279175"><tspan
     style="stroke-width:1.33333325"
     x="26.104008 34.104008 38.104008 46.104008 54.104008 62.104008"
     y="65.279175"
     sodipodi:role="line"
     id="tspan88">0.0012</tspan></text>

<text
   style="font-variant:normal;font-weight:normal;font-size:16px;font-family:'Times New Roman';-inkscape-font-specification:TimesNewRomanPSMT;writing-mode:lr-tb;fill:#000000;fill-opacity:1;fill-rule:nonzero;stroke:none;stroke-width:1.33333325"
   id="text100"
   x="26.104008"
   y="47.145832"><tspan
     style="stroke-width:1.33333325"
     x="26.104008 34.104008 38.104008 46.104008 54.104008 62.104008"
     y="47.145832"
     sodipodi:role="line"
     id="tspan98">0.0014</tspan></text>

<text
   style="font-variant:normal;font-weight:normal;font-size:16px;font-family:'Times New Roman';-inkscape-font-specification:TimesNewRomanPSMT;writing-mode:lr-tb;fill:#000000;fill-opacity:1;fill-rule:nonzero;stroke:none;stroke-width:1.33333325"
   id="text110"
   x="26.104008"
   y="28.945839"><tspan
     style="stroke-width:1.33333325"
     x="26.104008 34.104008 38.104008 46.104008 54.104008 62.104008"
     y="28.945839"
     sodipodi:role="line"
     id="tspan108">0.0016</tspan></text>

<text
   style="font-variant:normal;font-weight:normal;font-size:16px;font-family:'Times New Roman';-inkscape-font-specification:TimesNewRomanPSMT;writing-mode:lr-tb;fill:#000000;fill-opacity:1;fill-rule:nonzero;stroke:none;stroke-width:1.33333325"
   id="text120"
   x="26.104008"
   y="10.8125"><tspan
     style="stroke-width:1.33333325"
     x="26.104008 34.104008 38.104008 46.104008 54.104008 62.104008"
     y="10.8125"
     sodipodi:role="line"
     id="tspan118">0.0018</tspan></text>

<g
   id="g1078"
   transform="matrix(0,-1.6489754,1.6489754,0,-208.06977,543.4687)"
   ns0:preamble="/home/yoshidak/.config/inkscape/extensions/package.tex"
   ns0:text="$d\\sigma/dK_{\\mathrm{B}z}^\\mathrm{A}$~[$\\mu$b/(MeV/c)]\n\n"><defs
     id="defs1019"><g
       id="g511"><symbol
         id="symbol425"
         overflow="visible"
         style="overflow:visible"><path
           id="path423"
           d=""
           style="stroke:none"
           inkscape:connector-curvature="0" /></symbol><symbol
         id="symbol429"
         overflow="visible"
         style="overflow:visible"><path
           id="path427"
           d="m 5.140625,-6.8125 c 0,0 0,-0.109375 -0.125,-0.109375 -0.15625,0 -1.09375,0.09375 -1.265625,0.109375 -0.078125,0.015625 -0.140625,0.0625 -0.140625,0.1875 0,0.125 0.09375,0.125 0.234375,0.125 0.484375,0 0.5,0.0625 0.5,0.171875 L 4.3125,-6.125 3.71875,-3.765625 C 3.53125,-4.140625 3.25,-4.40625 2.796875,-4.40625 c -1.15625,0 -2.390625,1.46875 -2.390625,2.921875 0,0.9375 0.546875,1.59375 1.3125,1.59375 0.203125,0 0.703125,-0.046875 1.296875,-0.75 0.078125,0.421875 0.4375,0.75 0.90625,0.75 0.359375,0 0.578125,-0.234375 0.75,-0.546875 0.15625,-0.359375 0.296875,-0.96875 0.296875,-0.984375 0,-0.109375 -0.09375,-0.109375 -0.125,-0.109375 -0.09375,0 -0.109375,0.046875 -0.140625,0.1875 -0.171875,0.640625 -0.34375,1.234375 -0.75,1.234375 -0.28125,0 -0.296875,-0.265625 -0.296875,-0.453125 0,-0.25 0.015625,-0.3125 0.046875,-0.484375 z m -2.0625,5.625 C 3.015625,-1 3.015625,-0.984375 2.875,-0.8125 2.4375,-0.265625 2.03125,-0.109375 1.75,-0.109375 c -0.5,0 -0.640625,-0.546875 -0.640625,-0.9375 0,-0.5 0.3125,-1.71875 0.546875,-2.1875 0.3125,-0.578125 0.75,-0.953125 1.15625,-0.953125 0.640625,0 0.78125,0.8125 0.78125,0.875 0,0.0625 -0.015625,0.125 -0.03125,0.171875 z m 0,0"
           style="stroke:none"
           inkscape:connector-curvature="0" /></symbol><symbol
         id="symbol433"
         overflow="visible"
         style="overflow:visible"><path
           id="path431"
           d="m 5.15625,-3.71875 c 0.140625,0 0.5,0 0.5,-0.34375 0,-0.234375 -0.21875,-0.234375 -0.390625,-0.234375 h -2.28125 c -1.5,0 -2.609375,1.640625 -2.609375,2.828125 0,0.875 0.59375,1.578125 1.5,1.578125 1.171875,0 2.5,-1.203125 2.5,-2.734375 0,-0.171875 0,-0.65625 -0.3125,-1.09375 z M 1.890625,-0.109375 C 1.390625,-0.109375 1,-0.46875 1,-1.1875 c 0,-0.296875 0.109375,-1.109375 0.46875,-1.703125 0.421875,-0.6875 1.015625,-0.828125 1.359375,-0.828125 0.828125,0 0.90625,0.65625 0.90625,0.96875 0,0.46875 -0.203125,1.28125 -0.53125,1.796875 -0.390625,0.578125 -0.9375,0.84375 -1.3125,0.84375 z m 0,0"
           style="stroke:none"
           inkscape:connector-curvature="0" /></symbol><symbol
         id="symbol437"
         overflow="visible"
         style="overflow:visible"><path
           id="path435"
           d="m 4.375,-7.09375 c 0.046875,-0.140625 0.046875,-0.171875 0.046875,-0.1875 0,-0.109375 -0.078125,-0.203125 -0.1875,-0.203125 -0.078125,0 -0.140625,0.03125 -0.171875,0.09375 l -3.46875,9.5 C 0.546875,2.25 0.546875,2.28125 0.546875,2.296875 0.546875,2.40625 0.640625,2.5 0.75,2.5 0.875,2.5 0.90625,2.421875 0.96875,2.25 Z m 0,0"
           style="stroke:none"
           inkscape:connector-curvature="0" /></symbol><symbol
         id="symbol441"
         overflow="visible"
         style="overflow:visible"><path
           id="path439"
           d="M 5.078125,-4.03125 C 5.0625,-4.0625 5.03125,-4.140625 5.03125,-4.171875 c 0,0 0.171875,-0.140625 0.28125,-0.21875 l 1.75,-1.34375 C 8,-6.4375 8.390625,-6.46875 8.6875,-6.5 8.765625,-6.515625 8.859375,-6.515625 8.859375,-6.703125 8.859375,-6.734375 8.828125,-6.8125 8.75,-6.8125 c -0.21875,0 -0.46875,0.03125 -0.703125,0.03125 -0.359375,0 -0.75,-0.03125 -1.109375,-0.03125 -0.0625,0 -0.1875,0 -0.1875,0.203125 0,0.0625 0.046875,0.09375 0.125,0.109375 0.21875,0.015625 0.296875,0.0625 0.296875,0.203125 0,0.1875 -0.296875,0.421875 -0.359375,0.46875 L 2.9375,-2.84375 3.734375,-6.046875 C 3.8125,-6.40625 3.84375,-6.5 4.5625,-6.5 c 0.25,0 0.34375,0 0.34375,-0.203125 0,-0.078125 -0.078125,-0.109375 -0.140625,-0.109375 -0.28125,0 -1,0.03125 -1.28125,0.03125 C 3.203125,-6.78125 2.5,-6.8125 2.203125,-6.8125 2.140625,-6.8125 2,-6.8125 2,-6.625 2,-6.5 2.09375,-6.5 2.296875,-6.5 c 0.125,0 0.3125,0.015625 0.421875,0.015625 0.15625,0.03125 0.21875,0.046875 0.21875,0.171875 0,0.03125 0,0.0625 -0.03125,0.1875 L 1.5625,-0.78125 c -0.09375,0.390625 -0.109375,0.46875 -0.90625,0.46875 -0.171875,0 -0.28125,0 -0.28125,0.1875 C 0.375,0 0.5,0 0.53125,0 0.8125,0 1.515625,-0.03125 1.796875,-0.03125 2,-0.03125 2.21875,-0.015625 2.4375,-0.015625 2.65625,-0.015625 2.875,0 3.078125,0 3.15625,0 3.28125,0 3.28125,-0.203125 3.28125,-0.3125 3.1875,-0.3125 3,-0.3125 c -0.375,0 -0.640625,0 -0.640625,-0.171875 0,-0.078125 0.046875,-0.296875 0.078125,-0.4375 C 2.578125,-1.453125 2.71875,-1.96875 2.84375,-2.5 l 1.484375,-1.15625 1.15625,2.6875 c 0.125,0.265625 0.125,0.296875 0.125,0.34375 0,0.3125 -0.4375,0.3125 -0.53125,0.3125 -0.109375,0 -0.21875,0 -0.21875,0.203125 C 4.859375,0 4.984375,0 5,0 5.40625,0 5.828125,-0.03125 6.21875,-0.03125 6.4375,-0.03125 6.984375,0 7.203125,0 7.25,0 7.375,0 7.375,-0.203125 7.375,-0.3125 7.265625,-0.3125 7.171875,-0.3125 c -0.40625,0 -0.53125,-0.09375 -0.6875,-0.4375 z m 0,0"
           style="stroke:none"
           inkscape:connector-curvature="0" /></symbol><symbol
         id="symbol445"
         overflow="visible"
         style="overflow:visible"><path
           id="path443"
           d="m 2.296875,-3.5 c 0.0625,-0.203125 0.15625,-0.59375 0.15625,-0.640625 0,-0.171875 -0.125,-0.265625 -0.296875,-0.265625 -0.015625,0 -0.296875,0.015625 -0.390625,0.359375 l -1.4375,5.765625 c -0.03125,0.125 -0.03125,0.140625 -0.03125,0.171875 0,0.140625 0.109375,0.265625 0.28125,0.265625 0.203125,0 0.328125,-0.1875 0.34375,-0.21875 C 0.96875,1.859375 1.09375,1.328125 1.46875,-0.203125 1.796875,0.0625 2.25,0.109375 2.4375,0.109375 c 0.703125,0 1.09375,-0.453125 1.328125,-0.734375 0.09375,0.453125 0.46875,0.734375 0.90625,0.734375 0.34375,0 0.578125,-0.234375 0.734375,-0.546875 0.171875,-0.359375 0.296875,-0.96875 0.296875,-0.984375 0,-0.109375 -0.09375,-0.109375 -0.125,-0.109375 -0.09375,0 -0.109375,0.046875 -0.140625,0.1875 -0.15625,0.640625 -0.34375,1.234375 -0.75,1.234375 -0.265625,0 -0.296875,-0.265625 -0.296875,-0.453125 0,-0.21875 0.109375,-0.6875 0.1875,-1.046875 L 4.859375,-2.6875 C 4.890625,-2.828125 5,-3.203125 5.03125,-3.359375 5.078125,-3.59375 5.1875,-3.96875 5.1875,-4.03125 c 0,-0.171875 -0.140625,-0.265625 -0.296875,-0.265625 -0.046875,0 -0.3125,0.015625 -0.390625,0.34375 l -0.46875,1.875 c -0.109375,0.5 -0.21875,0.90625 -0.25,1.015625 -0.015625,0.046875 -0.484375,0.953125 -1.296875,0.953125 -0.5,0 -0.734375,-0.328125 -0.734375,-0.875 0,-0.28125 0.0625,-0.5625 0.140625,-0.84375 z m 0,0"
           style="stroke:none"
           inkscape:connector-curvature="0" /></symbol><symbol
         id="symbol449"
         overflow="visible"
         style="overflow:visible"><path
           id="path447"
           d=""
           style="stroke:none"
           inkscape:connector-curvature="0" /></symbol><symbol
         id="symbol453"
         overflow="visible"
         style="overflow:visible"><path
           id="path451"
           d="M 3.125,-4.8125 C 3.09375,-4.921875 3.0625,-4.96875 2.9375,-4.96875 c -0.140625,0 -0.15625,0.046875 -0.203125,0.15625 L 1.125,-0.734375 C 1.0625,-0.5625 0.9375,-0.25 0.3125,-0.25 V 0 C 0.546875,-0.015625 0.796875,-0.03125 1.03125,-0.03125 1.3125,-0.03125 1.828125,0 1.875,0 v -0.25 c -0.3125,0 -0.515625,-0.140625 -0.515625,-0.328125 0,-0.0625 0.015625,-0.078125 0.046875,-0.140625 L 1.734375,-1.578125 H 3.71875 L 4.125,-0.5625 c 0,0.03125 0.03125,0.078125 0.03125,0.109375 C 4.15625,-0.25 3.78125,-0.25 3.59375,-0.25 V 0 C 3.9375,-0.015625 4.390625,-0.03125 4.625,-0.03125 4.953125,-0.03125 5.484375,0 5.546875,0 v -0.25 h -0.125 c -0.46875,0 -0.515625,-0.078125 -0.59375,-0.265625 z m -0.40625,0.71875 0.890625,2.265625 h -1.78125 z m 0,0"
           style="stroke:none"
           inkscape:connector-curvature="0" /></symbol><symbol
         id="symbol457"
         overflow="visible"
         style="overflow:visible"><path
           id="path455"
           d="m 0.421875,-4.765625 v 0.25 h 0.15625 c 0.546875,0 0.5625,0.078125 0.5625,0.328125 v 3.625 c 0,0.234375 -0.015625,0.3125 -0.5625,0.3125 H 0.421875 V 0 H 3.375 c 0.984375,0 1.703125,-0.609375 1.703125,-1.28125 0,-0.59375 -0.625,-1.109375 -1.46875,-1.203125 0.6875,-0.125 1.25,-0.546875 1.25,-1.09375 0,-0.625 -0.734375,-1.1875 -1.703125,-1.1875 z M 1.75,-2.578125 v -1.65625 c 0,-0.21875 0,-0.28125 0.328125,-0.28125 h 1.03125 c 0.703125,0 1.0625,0.5 1.0625,0.9375 0,0.5 -0.46875,1 -1.265625,1 z M 2.078125,-0.25 C 1.75,-0.25 1.75,-0.3125 1.75,-0.515625 V -2.375 h 1.484375 c 0.734375,0 1.125,0.59375 1.125,1.078125 C 4.359375,-0.78125 3.890625,-0.25 3.125,-0.25 Z m 0,0"
           style="stroke:none"
           inkscape:connector-curvature="0" /></symbol><symbol
         id="symbol461"
         overflow="visible"
         style="overflow:visible"><path
           id="path459"
           d=""
           style="stroke:none"
           inkscape:connector-curvature="0" /></symbol><symbol
         id="symbol465"
         overflow="visible"
         style="overflow:visible"><path
           id="path463"
           d="m 1.171875,-0.609375 c 0.1875,-0.1875 0.3125,-0.3125 0.890625,-0.796875 0.15625,-0.109375 0.671875,-0.53125 0.875,-0.71875 0.421875,-0.421875 0.6875,-0.78125 0.6875,-0.859375 0,-0.09375 -0.078125,-0.09375 -0.109375,-0.09375 -0.0625,0 -0.09375,0.015625 -0.125,0.078125 -0.21875,0.3125 -0.359375,0.421875 -0.53125,0.421875 -0.078125,0 -0.1875,0 -0.390625,-0.203125 -0.234375,-0.25 -0.390625,-0.296875 -0.546875,-0.296875 -0.5625,0 -0.9375,0.609375 -0.9375,0.8125 0,0.078125 0.0625,0.09375 0.109375,0.09375 0.09375,0 0.109375,-0.015625 0.125,-0.09375 0.109375,-0.25 0.5,-0.265625 0.609375,-0.265625 0.171875,0 0.34375,0.046875 0.4375,0.0625 0.390625,0.078125 0.4375,0.078125 0.609375,0.078125 -0.171875,0.203125 -0.296875,0.328125 -0.96875,0.84375 -0.546875,0.4375 -0.734375,0.609375 -0.859375,0.75 -0.421875,0.40625 -0.625,0.71875 -0.625,0.78125 0,0.078125 0.09375,0.078125 0.125,0.078125 0.0625,0 0.078125,0 0.109375,-0.0625 0.1875,-0.265625 0.40625,-0.421875 0.640625,-0.421875 0.09375,0 0.1875,0 0.375,0.171875 0.21875,0.21875 0.359375,0.3125 0.59375,0.3125 C 3,0.0625 3.46875,-0.78125 3.46875,-1.015625 3.46875,-1.09375 3.390625,-1.09375 3.359375,-1.09375 3.265625,-1.09375 3.25,-1.0625 3.21875,-0.984375 3.09375,-0.640625 2.6875,-0.46875 2.34375,-0.46875 2.1875,-0.46875 2,-0.515625 1.828125,-0.546875 1.515625,-0.625 1.453125,-0.625 1.328125,-0.625 c -0.015625,0 -0.109375,0 -0.15625,0.015625 z m 0,0"
           style="stroke:none"
           inkscape:connector-curvature="0" /></symbol><symbol
         id="symbol469"
         overflow="visible"
         style="overflow:visible"><path
           id="path467"
           d=""
           style="stroke:none"
           inkscape:connector-curvature="0" /></symbol><symbol
         id="symbol473"
         overflow="visible"
         style="overflow:visible"><path
           id="path471"
           d="M 2.546875,2.5 V 2.09375 h -0.96875 v -9.171875 h 0.96875 v -0.40625 h -1.375 V 2.5 Z m 0,0"
           style="stroke:none"
           inkscape:connector-curvature="0" /></symbol><symbol
         id="symbol477"
         overflow="visible"
         style="overflow:visible"><path
           id="path475"
           d="m 1.71875,-3.765625 v -3.15625 L 0.28125,-6.8125 V -6.5 c 0.703125,0 0.78125,0.0625 0.78125,0.5625 V 0 h 0.25 c 0,-0.015625 0.078125,-0.15625 0.359375,-0.625 0.140625,0.234375 0.5625,0.734375 1.296875,0.734375 1.1875,0 2.21875,-0.984375 2.21875,-2.265625 0,-1.265625 -0.96875,-2.25 -2.109375,-2.25 -0.78125,0 -1.203125,0.46875 -1.359375,0.640625 z m 0.03125,2.625 V -3.1875 c 0,-0.1875 0,-0.203125 0.109375,-0.359375 C 2.25,-4.109375 2.796875,-4.1875 3.03125,-4.1875 c 0.453125,0 0.8125,0.265625 1.046875,0.640625 0.265625,0.40625 0.28125,0.96875 0.28125,1.390625 0,0.359375 -0.015625,0.953125 -0.296875,1.40625 -0.21875,0.3125 -0.59375,0.640625 -1.125,0.640625 -0.453125,0 -0.8125,-0.234375 -1.046875,-0.609375 C 1.75,-0.921875 1.75,-0.953125 1.75,-1.140625 Z m 0,0"
           style="stroke:none"
           inkscape:connector-curvature="0" /></symbol><symbol
         id="symbol481"
         overflow="visible"
         style="overflow:visible"><path
           id="path479"
           d="m 4.359375,-7.09375 c 0.0625,-0.140625 0.0625,-0.15625 0.0625,-0.1875 0,-0.109375 -0.09375,-0.203125 -0.203125,-0.203125 C 4.078125,-7.484375 4.03125,-7.375 4,-7.28125 L 0.609375,2.109375 C 0.5625,2.25 0.5625,2.265625 0.5625,2.296875 0.5625,2.40625 0.640625,2.5 0.75,2.5 0.890625,2.5 0.9375,2.390625 0.96875,2.296875 Z m 0,0"
           style="stroke:none"
           inkscape:connector-curvature="0" /></symbol><symbol
         id="symbol485"
         overflow="visible"
         style="overflow:visible"><path
           id="path483"
           d="m 3.296875,2.390625 c 0,-0.03125 0,-0.046875 -0.171875,-0.21875 C 1.890625,0.921875 1.5625,-0.96875 1.5625,-2.5 c 0,-1.734375 0.375,-3.46875 1.609375,-4.703125 0.125,-0.125 0.125,-0.140625 0.125,-0.171875 0,-0.078125 -0.03125,-0.109375 -0.09375,-0.109375 -0.109375,0 -1,0.6875 -1.59375,1.953125 -0.5,1.09375 -0.625,2.203125 -0.625,3.03125 0,0.78125 0.109375,1.984375 0.65625,3.125 C 2.25,1.84375 3.09375,2.5 3.203125,2.5 c 0.0625,0 0.09375,-0.03125 0.09375,-0.109375 z m 0,0"
           style="stroke:none"
           inkscape:connector-curvature="0" /></symbol><symbol
         id="symbol489"
         overflow="visible"
         style="overflow:visible"><path
           id="path487"
           d="M 2.40625,-6.59375 C 2.3125,-6.8125 2.28125,-6.8125 2.046875,-6.8125 H 0.375 V -6.5 h 0.234375 c 0.765625,0 0.78125,0.109375 0.78125,0.46875 v 4.984375 c 0,0.265625 0,0.734375 -1.015625,0.734375 V 0 c 0.34375,-0.015625 0.828125,-0.03125 1.15625,-0.03125 0.328125,0 0.828125,0.015625 1.171875,0.03125 v -0.3125 c -1.03125,0 -1.03125,-0.46875 -1.03125,-0.734375 v -5.375 H 1.6875 L 4.09375,-0.21875 C 4.140625,-0.09375 4.1875,0 4.28125,0 4.390625,0 4.421875,-0.078125 4.46875,-0.1875 L 6.921875,-6.5 v 5.71875 c 0,0.359375 -0.015625,0.46875 -0.78125,0.46875 H 5.90625 V 0 c 0.359375,-0.03125 1.046875,-0.03125 1.4375,-0.03125 0.375,0 1.046875,0 1.421875,0.03125 v -0.3125 h -0.25 c -0.765625,0 -0.78125,-0.109375 -0.78125,-0.46875 v -5.25 C 7.734375,-6.390625 7.75,-6.5 8.515625,-6.5 h 0.25 v -0.3125 h -1.6875 C 6.8125,-6.8125 6.8125,-6.796875 6.75,-6.625 L 4.5625,-1 Z m 0,0"
           style="stroke:none"
           inkscape:connector-curvature="0" /></symbol><symbol
         id="symbol493"
         overflow="visible"
         style="overflow:visible"><path
           id="path491"
           d="M 1.109375,-2.515625 C 1.171875,-4 2.015625,-4.25 2.359375,-4.25 c 1.015625,0 1.125,1.34375 1.125,1.734375 z m 0,0.21875 h 2.78125 c 0.21875,0 0.25,0 0.25,-0.21875 0,-0.984375 -0.546875,-1.953125 -1.78125,-1.953125 -1.15625,0 -2.078125,1.03125 -2.078125,2.28125 0,1.328125 1.046875,2.296875 2.1875,2.296875 C 3.6875,0.109375 4.140625,-1 4.140625,-1.1875 4.140625,-1.28125 4.0625,-1.3125 4,-1.3125 c -0.078125,0 -0.109375,0.0625 -0.125,0.140625 -0.34375,1.03125 -1.25,1.03125 -1.34375,1.03125 -0.5,0 -0.890625,-0.296875 -1.125,-0.671875 -0.296875,-0.46875 -0.296875,-1.125 -0.296875,-1.484375 z m 0,0"
           style="stroke:none"
           inkscape:connector-curvature="0" /></symbol><symbol
         id="symbol497"
         overflow="visible"
         style="overflow:visible"><path
           id="path495"
           d="M 6.1875,-5.828125 C 6.328125,-6.203125 6.59375,-6.484375 7.28125,-6.5 v -0.3125 c -0.3125,0.03125 -0.71875,0.03125 -0.96875,0.03125 -0.296875,0 -0.875,-0.015625 -1.140625,-0.03125 V -6.5 C 5.6875,-6.484375 5.90625,-6.234375 5.90625,-6 c 0,0.078125 -0.03125,0.140625 -0.046875,0.203125 L 4.03125,-1 2.125,-6.03125 C 2.0625,-6.171875 2.0625,-6.1875 2.0625,-6.203125 2.0625,-6.5 2.625,-6.5 2.875,-6.5 v -0.3125 c -0.359375,0.03125 -1.046875,0.03125 -1.421875,0.03125 -0.46875,0 -0.90625,-0.015625 -1.265625,-0.03125 V -6.5 c 0.65625,0 0.84375,0 0.984375,0.375 L 3.484375,0 c 0.0625,0.1875 0.109375,0.21875 0.25,0.21875 0.15625,0 0.1875,-0.046875 0.234375,-0.1875 z m 0,0"
           style="stroke:none"
           inkscape:connector-curvature="0" /></symbol><symbol
         id="symbol501"
         overflow="visible"
         style="overflow:visible"><path
           id="path499"
           d="m 1.171875,-2.171875 c 0,-1.625 0.8125,-2.046875 1.34375,-2.046875 0.09375,0 0.71875,0.015625 1.0625,0.375 -0.40625,0.03125 -0.46875,0.328125 -0.46875,0.453125 0,0.265625 0.1875,0.453125 0.453125,0.453125 0.265625,0 0.46875,-0.15625 0.46875,-0.46875 0,-0.671875 -0.765625,-1.0625 -1.53125,-1.0625 -1.25,0 -2.15625,1.078125 -2.15625,2.3125 0,1.28125 0.984375,2.265625 2.140625,2.265625 1.328125,0 1.65625,-1.203125 1.65625,-1.296875 0,-0.09375 -0.109375,-0.09375 -0.140625,-0.09375 -0.078125,0 -0.109375,0.03125 -0.125,0.09375 -0.28125,0.921875 -0.9375,1.046875 -1.296875,1.046875 -0.53125,0 -1.40625,-0.421875 -1.40625,-2.03125 z m 0,0"
           style="stroke:none"
           inkscape:connector-curvature="0" /></symbol><symbol
         id="symbol505"
         overflow="visible"
         style="overflow:visible"><path
           id="path503"
           d="m 2.875,-2.5 c 0,-0.765625 -0.109375,-1.96875 -0.65625,-3.109375 -0.59375,-1.21875 -1.453125,-1.875 -1.546875,-1.875 -0.0625,0 -0.109375,0.046875 -0.109375,0.109375 0,0.03125 0,0.046875 0.1875,0.234375 0.984375,0.984375 1.546875,2.5625 1.546875,4.640625 0,1.71875 -0.359375,3.46875 -1.59375,4.71875 C 0.5625,2.34375 0.5625,2.359375 0.5625,2.390625 0.5625,2.453125 0.609375,2.5 0.671875,2.5 0.765625,2.5 1.671875,1.8125 2.25,0.546875 2.765625,-0.546875 2.875,-1.65625 2.875,-2.5 Z m 0,0"
           style="stroke:none"
           inkscape:connector-curvature="0" /></symbol><symbol
         id="symbol509"
         overflow="visible"
         style="overflow:visible"><path
           id="path507"
           d="M 1.578125,-7.484375 H 0.21875 v 0.40625 H 1.1875 V 2.09375 H 0.21875 V 2.5 h 1.359375 z m 0,0"
           style="stroke:none"
           inkscape:connector-curvature="0" /></symbol></g></defs><g
     id="textext-7ad43379-22"><g
       id="g1025"
       style="fill:#000000;fill-opacity:1"><use
         id="use1021"
         y="134.765"
         x="223.43201"
         xlink:href="#textext-7ad43379-1"
         width="100%"
         height="100%" /><use
         id="use1023"
         y="134.765"
         x="228.61754"
         xlink:href="#textext-7ad43379-2"
         width="100%"
         height="100%" /></g><g
       id="g1033"
       style="fill:#000000;fill-opacity:1"><use
         id="use1027"
         y="134.765"
         x="234.66882"
         xlink:href="#textext-7ad43379-3"
         width="100%"
         height="100%" /><use
         id="use1029"
         y="134.765"
         x="239.65012"
         xlink:href="#textext-7ad43379-1"
         width="100%"
         height="100%" /><use
         id="use1031"
         y="134.765"
         x="244.83565"
         xlink:href="#textext-7ad43379-4"
         width="100%"
         height="100%" /></g><g
       id="g1037"
       style="fill:#000000;fill-opacity:1"><use
         id="use1035"
         y="131.14999"
         x="254.008"
         xlink:href="#textext-7ad43379-7"
         width="100%"
         height="100%" /></g><g
       id="g1041"
       style="fill:#000000;fill-opacity:1"><use
         id="use1039"
         y="137.509"
         x="253.29601"
         xlink:href="#textext-7ad43379-8"
         width="100%"
         height="100%" /></g><g
       id="g1045"
       style="fill:#000000;fill-opacity:1"><use
         id="use1043"
         y="137.509"
         x="258.86499"
         xlink:href="#textext-7ad43379-10"
         width="100%"
         height="100%" /></g><g
       id="g1049"
       style="fill:#000000;fill-opacity:1"><use
         id="use1047"
         y="134.765"
         x="266.77701"
         xlink:href="#textext-7ad43379-12"
         width="100%"
         height="100%" /></g><g
       id="g1053"
       style="fill:#000000;fill-opacity:1"><use
         id="use1051"
         y="134.765"
         x="269.54401"
         xlink:href="#textext-7ad43379-5"
         width="100%"
         height="100%" /></g><g
       id="g1075"
       style="fill:#000000;fill-opacity:1"><use
         id="use1055"
         y="134.765"
         x="275.547"
         xlink:href="#textext-7ad43379-13"
         width="100%"
         height="100%" /><use
         id="use1057"
         y="134.765"
         x="281.08221"
         xlink:href="#textext-7ad43379-14"
         width="100%"
         height="100%" /><use
         id="use1059"
         y="134.765"
         x="286.06351"
         xlink:href="#textext-7ad43379-15"
         width="100%"
         height="100%" /><use
         id="use1061"
         y="134.765"
         x="289.93799"
         xlink:href="#textext-7ad43379-16"
         width="100%"
         height="100%" /><use
         id="use1063"
         y="134.765"
         x="299.07068"
         xlink:href="#textext-7ad43379-17"
         width="100%"
         height="100%" /><use
         id="use1065"
         y="134.765"
         x="303.49808"
         xlink:href="#textext-7ad43379-18"
         width="100%"
         height="100%" /><use
         id="use1067"
         y="134.765"
         x="310.97003"
         xlink:href="#textext-7ad43379-14"
         width="100%"
         height="100%" /><use
         id="use1069"
         y="134.765"
         x="315.95132"
         xlink:href="#textext-7ad43379-19"
         width="100%"
         height="100%" /><use
         id="use1071"
         y="134.765"
         x="320.37869"
         xlink:href="#textext-7ad43379-20"
         width="100%"
         height="100%" /><use
         id="use1073"
         y="134.765"
         x="324.25314"
         xlink:href="#textext-7ad43379-21"
         width="100%"
         height="100%" /></g></g></g><path
   inkscape:connector-curvature="0"
   id="path226-3"
   style="fill:none;stroke:#008800;stroke-width:1.25325346;stroke-linecap:butt;stroke-linejoin:miter;stroke-miterlimit:3.79999995;stroke-dasharray:1.72322351, 1.72322351;stroke-dashoffset:0;stroke-opacity:1"
   d="m 119.84306,223.93371 h 35.84555" /><path
   inkscape:connector-curvature="0"
   id="path236-6"
   style="fill:none;stroke:#0000ff;stroke-width:1.25325346;stroke-linecap:butt;stroke-linejoin:miter;stroke-miterlimit:3.79999995;stroke-dasharray:6.89289402, 1.72322351, 1.72322351, 1.72322351;stroke-dashoffset:0;stroke-opacity:1"
   d="m 283.31437,223.93371 h 35.84556" /><text
   xml:space="preserve"
   style="font-style:normal;font-variant:normal;font-weight:normal;font-stretch:normal;font-size:14.49737072px;line-height:1.25;font-family:'Times New Roman';-inkscape-font-specification:'Times New Roman, Normal';font-variant-ligatures:normal;font-variant-caps:normal;font-variant-numeric:normal;text-align:start;letter-spacing:0px;word-spacing:0px;writing-mode:lr-tb;text-anchor:start;fill:#000000;fill-opacity:1;stroke:none;stroke-width:0.36243427"
   x="1.5997611"
   y="229.9075"
   id="text522-5"><tspan
     sodipodi:role="line"
     id="tspan520-6"
     x="1.5997611"
     y="229.9075"
     style="stroke-width:0.36243427"><tspan
   style="font-size:9.42329025px;baseline-shift:super;stroke-width:0.36243427"
   id="tspan524-2">210</tspan>Po w/o Coul. /10</tspan></text>
<text
   xml:space="preserve"
   style="font-style:normal;font-variant:normal;font-weight:normal;font-stretch:normal;font-size:14.49737072px;line-height:1.25;font-family:'Times New Roman';-inkscape-font-specification:'Times New Roman, Normal';font-variant-ligatures:normal;font-variant-caps:normal;font-variant-numeric:normal;text-align:start;letter-spacing:0px;word-spacing:0px;writing-mode:lr-tb;text-anchor:start;fill:#000000;fill-opacity:1;stroke:none;stroke-width:0.36243427"
   x="165.38036"
   y="229.9075"
   id="text522-7-9"><tspan
     sodipodi:role="line"
     id="tspan520-5-1"
     x="165.38036"
     y="229.9075"
     style="stroke-width:0.36243427"><tspan
   style="font-size:9.42329025px;baseline-shift:super;stroke-width:0.36243427"
   id="tspan524-3-2">212</tspan>Po w/o Coul. /10</tspan></text>
</svg>