<?xml version="1.0" encoding="UTF-8" standalone="no"?>
<!-- Created with Inkscape (http://www.inkscape.org/) -->

<svg
   xmlns:dc="http://purl.org/dc/elements/1.1/"
   xmlns:cc="http://creativecommons.org/ns#"
   xmlns:rdf="http://www.w3.org/1999/02/22-rdf-syntax-ns#"
   xmlns:svg="http://www.w3.org/2000/svg"
   xmlns="http://www.w3.org/2000/svg"
   xmlns:sodipodi="http://sodipodi.sourceforge.net/DTD/sodipodi-0.dtd"
   xmlns:inkscape="http://www.inkscape.org/namespaces/inkscape"
   version="1.1"
   id="svg2"
   xml:space="preserve"
   width="480"
   height="288"
   viewBox="0 0 480 288"
   sodipodi:docname="lg.svg"
   inkscape:version="0.92.5 (2060ec1f9f, 2020-04-08)"><metadata
     id="metadata8"><rdf:RDF><cc:Work
         rdf:about=""><dc:format>image/svg+xml</dc:format><dc:type
           rdf:resource="http://purl.org/dc/dcmitype/StillImage" /><dc:title></dc:title></cc:Work></rdf:RDF></metadata><defs
     id="defs6"><clipPath
       clipPathUnits="userSpaceOnUse"
       id="clipPath20"><path
         d="M 610,220 H 2960 V 1850 H 610 Z"
         id="path18"
         inkscape:connector-curvature="0" /></clipPath></defs><sodipodi:namedview
     pagecolor="#ffffff"
     bordercolor="#666666"
     borderopacity="1"
     objecttolerance="10"
     gridtolerance="10"
     guidetolerance="10"
     inkscape:pageopacity="0"
     inkscape:pageshadow="2"
     inkscape:window-width="832"
     inkscape:window-height="480"
     id="namedview4"
     showgrid="false"
     inkscape:zoom="0.81944444"
     inkscape:cx="-12.610169"
     inkscape:cy="144"
     inkscape:window-x="0"
     inkscape:window-y="0"
     inkscape:window-maximized="0"
     inkscape:current-layer="g10" /><g
     id="g10"
     inkscape:groupmode="layer"
     inkscape:label="ink_ext_XXXXXX"
     transform="matrix(1.3333333,0,0,-1.3333333,0,288)"><g
       id="g12"
       transform="scale(0.1)"><g
         id="g14"><g
           id="g16"
           clip-path="url(#clipPath20)"><path
             d="m 1102.5,582.5 h 46.02"
             style="fill:none;stroke:#000000;stroke-width:2.5;stroke-linecap:butt;stroke-linejoin:miter;stroke-miterlimit:3.79999995;stroke-dasharray:none;stroke-opacity:1"
             id="path22"
             inkscape:connector-curvature="0" /><path
             d="m 2853.01,582.5 h -46.02"
             style="fill:none;stroke:#000000;stroke-width:2.5;stroke-linecap:butt;stroke-linejoin:miter;stroke-miterlimit:3.79999995;stroke-dasharray:none;stroke-opacity:1"
             id="path24"
             inkscape:connector-curvature="0" /><g
             id="g26"
             transform="scale(10)"><text
               transform="matrix(1,0,0,-1,99.8,53.7066)"
               style="font-variant:normal;font-weight:normal;font-size:12px;font-family:'Times New Roman';-inkscape-font-specification:TimesNewRomanPSMT;writing-mode:lr-tb;fill:#000000;fill-opacity:1;fill-rule:nonzero;stroke:none"
               id="text30"><tspan
                 x="0"
                 y="0"
                 id="tspan28">0</tspan></text>
</g><path
             d="m 1102.5,718.52 h 46.02"
             style="fill:none;stroke:#000000;stroke-width:2.5;stroke-linecap:butt;stroke-linejoin:miter;stroke-miterlimit:3.79999995;stroke-dasharray:none;stroke-opacity:1"
             id="path32"
             inkscape:connector-curvature="0" /><path
             d="m 2853.01,718.52 h -46.02"
             style="fill:none;stroke:#000000;stroke-width:2.5;stroke-linecap:butt;stroke-linejoin:miter;stroke-miterlimit:3.79999995;stroke-dasharray:none;stroke-opacity:1"
             id="path34"
             inkscape:connector-curvature="0" /><g
             id="g36"
             transform="scale(10)"><text
               transform="matrix(1,0,0,-1,72.8,67.3066)"
               style="font-variant:normal;font-weight:normal;font-size:12px;font-family:'Times New Roman';-inkscape-font-specification:TimesNewRomanPSMT;writing-mode:lr-tb;fill:#000000;fill-opacity:1;fill-rule:nonzero;stroke:none"
               id="text40"><tspan
                 x="0 6 9 15 21 27"
                 y="0"
                 sodipodi:role="line"
                 id="tspan38">0.0002</tspan></text>
</g><path
             d="m 1102.5,855 h 46.02"
             style="fill:none;stroke:#000000;stroke-width:2.5;stroke-linecap:butt;stroke-linejoin:miter;stroke-miterlimit:3.79999995;stroke-dasharray:none;stroke-opacity:1"
             id="path42"
             inkscape:connector-curvature="0" /><path
             d="m 2853.01,855 h -46.02"
             style="fill:none;stroke:#000000;stroke-width:2.5;stroke-linecap:butt;stroke-linejoin:miter;stroke-miterlimit:3.79999995;stroke-dasharray:none;stroke-opacity:1"
             id="path44"
             inkscape:connector-curvature="0" /><g
             id="g46"
             transform="scale(10)"><text
               transform="matrix(1,0,0,-1,72.8,80.9566)"
               style="font-variant:normal;font-weight:normal;font-size:12px;font-family:'Times New Roman';-inkscape-font-specification:TimesNewRomanPSMT;writing-mode:lr-tb;fill:#000000;fill-opacity:1;fill-rule:nonzero;stroke:none"
               id="text50"><tspan
                 x="0 6 9 15 21 27"
                 y="0"
                 sodipodi:role="line"
                 id="tspan48">0.0004</tspan></text>
</g><path
             d="m 1102.5,991.02 h 46.02"
             style="fill:none;stroke:#000000;stroke-width:2.5;stroke-linecap:butt;stroke-linejoin:miter;stroke-miterlimit:3.79999995;stroke-dasharray:none;stroke-opacity:1"
             id="path52"
             inkscape:connector-curvature="0" /><path
             d="m 2853.01,991.02 h -46.02"
             style="fill:none;stroke:#000000;stroke-width:2.5;stroke-linecap:butt;stroke-linejoin:miter;stroke-miterlimit:3.79999995;stroke-dasharray:none;stroke-opacity:1"
             id="path54"
             inkscape:connector-curvature="0" /><g
             id="g56"
             transform="scale(10)"><text
               transform="matrix(1,0,0,-1,72.8,94.5566)"
               style="font-variant:normal;font-weight:normal;font-size:12px;font-family:'Times New Roman';-inkscape-font-specification:TimesNewRomanPSMT;writing-mode:lr-tb;fill:#000000;fill-opacity:1;fill-rule:nonzero;stroke:none"
               id="text60"><tspan
                 x="0 6 9 15 21 27"
                 y="0"
                 sodipodi:role="line"
                 id="tspan58">0.0006</tspan></text>
</g><path
             d="m 1102.5,1126.99 h 46.02"
             style="fill:none;stroke:#000000;stroke-width:2.5;stroke-linecap:butt;stroke-linejoin:miter;stroke-miterlimit:3.79999995;stroke-dasharray:none;stroke-opacity:1"
             id="path62"
             inkscape:connector-curvature="0" /><path
             d="m 2853.01,1126.99 h -46.02"
             style="fill:none;stroke:#000000;stroke-width:2.5;stroke-linecap:butt;stroke-linejoin:miter;stroke-miterlimit:3.79999995;stroke-dasharray:none;stroke-opacity:1"
             id="path64"
             inkscape:connector-curvature="0" /><g
             id="g66"
             transform="scale(10)"><text
               transform="matrix(1,0,0,-1,72.8,108.157)"
               style="font-variant:normal;font-weight:normal;font-size:12px;font-family:'Times New Roman';-inkscape-font-specification:TimesNewRomanPSMT;writing-mode:lr-tb;fill:#000000;fill-opacity:1;fill-rule:nonzero;stroke:none"
               id="text70"><tspan
                 x="0 6 9 15 21 27"
                 y="0"
                 sodipodi:role="line"
                 id="tspan68">0.0008</tspan></text>
</g><path
             d="m 1102.5,1263.52 h 46.02"
             style="fill:none;stroke:#000000;stroke-width:2.5;stroke-linecap:butt;stroke-linejoin:miter;stroke-miterlimit:3.79999995;stroke-dasharray:none;stroke-opacity:1"
             id="path72"
             inkscape:connector-curvature="0" /><path
             d="m 2853.01,1263.52 h -46.02"
             style="fill:none;stroke:#000000;stroke-width:2.5;stroke-linecap:butt;stroke-linejoin:miter;stroke-miterlimit:3.79999995;stroke-dasharray:none;stroke-opacity:1"
             id="path74"
             inkscape:connector-curvature="0" /><g
             id="g76"
             transform="scale(10)"><text
               transform="matrix(1,0,0,-1,78.8,121.807)"
               style="font-variant:normal;font-weight:normal;font-size:12px;font-family:'Times New Roman';-inkscape-font-specification:TimesNewRomanPSMT;writing-mode:lr-tb;fill:#000000;fill-opacity:1;fill-rule:nonzero;stroke:none"
               id="text80"><tspan
                 x="0 6 9 15 21"
                 y="0"
                 sodipodi:role="line"
                 id="tspan78">0.001</tspan></text>
</g><path
             d="m 1102.5,1399.49 h 46.02"
             style="fill:none;stroke:#000000;stroke-width:2.5;stroke-linecap:butt;stroke-linejoin:miter;stroke-miterlimit:3.79999995;stroke-dasharray:none;stroke-opacity:1"
             id="path82"
             inkscape:connector-curvature="0" /><path
             d="m 2853.01,1399.49 h -46.02"
             style="fill:none;stroke:#000000;stroke-width:2.5;stroke-linecap:butt;stroke-linejoin:miter;stroke-miterlimit:3.79999995;stroke-dasharray:none;stroke-opacity:1"
             id="path84"
             inkscape:connector-curvature="0" /><g
             id="g86"
             transform="scale(10)"><text
               transform="matrix(1,0,0,-1,72.8,135.407)"
               style="font-variant:normal;font-weight:normal;font-size:12px;font-family:'Times New Roman';-inkscape-font-specification:TimesNewRomanPSMT;writing-mode:lr-tb;fill:#000000;fill-opacity:1;fill-rule:nonzero;stroke:none"
               id="text90"><tspan
                 x="0 6 9 15 21 27"
                 y="0"
                 sodipodi:role="line"
                 id="tspan88">0.0012</tspan></text>
</g><path
             d="m 1102.5,1535.51 h 46.02"
             style="fill:none;stroke:#000000;stroke-width:2.5;stroke-linecap:butt;stroke-linejoin:miter;stroke-miterlimit:3.79999995;stroke-dasharray:none;stroke-opacity:1"
             id="path92"
             inkscape:connector-curvature="0" /><path
             d="m 2853.01,1535.51 h -46.02"
             style="fill:none;stroke:#000000;stroke-width:2.5;stroke-linecap:butt;stroke-linejoin:miter;stroke-miterlimit:3.79999995;stroke-dasharray:none;stroke-opacity:1"
             id="path94"
             inkscape:connector-curvature="0" /><g
             id="g96"
             transform="scale(10)"><text
               transform="matrix(1,0,0,-1,72.8,149.007)"
               style="font-variant:normal;font-weight:normal;font-size:12px;font-family:'Times New Roman';-inkscape-font-specification:TimesNewRomanPSMT;writing-mode:lr-tb;fill:#000000;fill-opacity:1;fill-rule:nonzero;stroke:none"
               id="text100"><tspan
                 x="0 6 9 15 21 27"
                 y="0"
                 sodipodi:role="line"
                 id="tspan98">0.0014</tspan></text>
</g><path
             d="m 1102.5,1671.99 h 46.02"
             style="fill:none;stroke:#000000;stroke-width:2.5;stroke-linecap:butt;stroke-linejoin:miter;stroke-miterlimit:3.79999995;stroke-dasharray:none;stroke-opacity:1"
             id="path102"
             inkscape:connector-curvature="0" /><path
             d="m 2853.01,1671.99 h -46.02"
             style="fill:none;stroke:#000000;stroke-width:2.5;stroke-linecap:butt;stroke-linejoin:miter;stroke-miterlimit:3.79999995;stroke-dasharray:none;stroke-opacity:1"
             id="path104"
             inkscape:connector-curvature="0" /><g
             id="g106"
             transform="scale(10)"><text
               transform="matrix(1,0,0,-1,72.8,162.657)"
               style="font-variant:normal;font-weight:normal;font-size:12px;font-family:'Times New Roman';-inkscape-font-specification:TimesNewRomanPSMT;writing-mode:lr-tb;fill:#000000;fill-opacity:1;fill-rule:nonzero;stroke:none"
               id="text110"><tspan
                 x="0 6 9 15 21 27"
                 y="0"
                 sodipodi:role="line"
                 id="tspan108">0.0016</tspan></text>
</g><path
             d="m 1102.5,1808.01 h 46.02"
             style="fill:none;stroke:#000000;stroke-width:2.5;stroke-linecap:butt;stroke-linejoin:miter;stroke-miterlimit:3.79999995;stroke-dasharray:none;stroke-opacity:1"
             id="path112"
             inkscape:connector-curvature="0" /><path
             d="m 2853.01,1808.01 h -46.02"
             style="fill:none;stroke:#000000;stroke-width:2.5;stroke-linecap:butt;stroke-linejoin:miter;stroke-miterlimit:3.79999995;stroke-dasharray:none;stroke-opacity:1"
             id="path114"
             inkscape:connector-curvature="0" /><g
             id="g116"
             transform="scale(10)"><text
               transform="matrix(1,0,0,-1,72.8,176.257)"
               style="font-variant:normal;font-weight:normal;font-size:12px;font-family:'Times New Roman';-inkscape-font-specification:TimesNewRomanPSMT;writing-mode:lr-tb;fill:#000000;fill-opacity:1;fill-rule:nonzero;stroke:none"
               id="text120"><tspan
                 x="0 6 9 15 21 27"
                 y="0"
                 sodipodi:role="line"
                 id="tspan118">0.0018</tspan></text>
</g><path
             d="m 1102.5,582.5 v 46.02"
             style="fill:none;stroke:#000000;stroke-width:2.5;stroke-linecap:butt;stroke-linejoin:miter;stroke-miterlimit:3.79999995;stroke-dasharray:none;stroke-opacity:1"
             id="path122"
             inkscape:connector-curvature="0" /><path
             d="m 1102.5,1808.01 v -46.02"
             style="fill:none;stroke:#000000;stroke-width:2.5;stroke-linecap:butt;stroke-linejoin:miter;stroke-miterlimit:3.79999995;stroke-dasharray:none;stroke-opacity:1"
             id="path124"
             inkscape:connector-curvature="0" /><g
             id="g126"
             transform="scale(10)"><text
               transform="matrix(1,0,0,-1,99.25,42.1566)"
               style="font-variant:normal;font-weight:normal;font-size:12px;font-family:'Times New Roman';-inkscape-font-specification:TimesNewRomanPSMT;writing-mode:lr-tb;fill:#000000;fill-opacity:1;fill-rule:nonzero;stroke:none"
               id="text130"><tspan
                 x="0 3.9960001 9.9960003 15.996"
                 y="0"
                 sodipodi:role="line"
                 id="tspan128">-600</tspan></text>
</g><path
             d="m 1394.49,582.5 v 46.02"
             style="fill:none;stroke:#000000;stroke-width:2.5;stroke-linecap:butt;stroke-linejoin:miter;stroke-miterlimit:3.79999995;stroke-dasharray:none;stroke-opacity:1"
             id="path132"
             inkscape:connector-curvature="0" /><path
             d="m 1394.49,1808.01 v -46.02"
             style="fill:none;stroke:#000000;stroke-width:2.5;stroke-linecap:butt;stroke-linejoin:miter;stroke-miterlimit:3.79999995;stroke-dasharray:none;stroke-opacity:1"
             id="path134"
             inkscape:connector-curvature="0" /><g
             id="g136"
             transform="scale(10)"><text
               transform="matrix(1,0,0,-1,128.45,42.1566)"
               style="font-variant:normal;font-weight:normal;font-size:12px;font-family:'Times New Roman';-inkscape-font-specification:TimesNewRomanPSMT;writing-mode:lr-tb;fill:#000000;fill-opacity:1;fill-rule:nonzero;stroke:none"
               id="text140"><tspan
                 x="0 3.9960001 9.9960003 15.996"
                 y="0"
                 sodipodi:role="line"
                 id="tspan138">-400</tspan></text>
</g><path
             d="m 1686.02,582.5 v 46.02"
             style="fill:none;stroke:#000000;stroke-width:2.5;stroke-linecap:butt;stroke-linejoin:miter;stroke-miterlimit:3.79999995;stroke-dasharray:none;stroke-opacity:1"
             id="path142"
             inkscape:connector-curvature="0" /><path
             d="m 1686.02,1808.01 v -46.02"
             style="fill:none;stroke:#000000;stroke-width:2.5;stroke-linecap:butt;stroke-linejoin:miter;stroke-miterlimit:3.79999995;stroke-dasharray:none;stroke-opacity:1"
             id="path144"
             inkscape:connector-curvature="0" /><g
             id="g146"
             transform="scale(10)"><text
               transform="matrix(1,0,0,-1,157.6,42.1566)"
               style="font-variant:normal;font-weight:normal;font-size:12px;font-family:'Times New Roman';-inkscape-font-specification:TimesNewRomanPSMT;writing-mode:lr-tb;fill:#000000;fill-opacity:1;fill-rule:nonzero;stroke:none"
               id="text150"><tspan
                 x="0 3.9960001 9.9960003 15.996"
                 y="0"
                 sodipodi:role="line"
                 id="tspan148">-200</tspan></text>
</g><path
             d="m 1978.01,582.5 v 46.02"
             style="fill:none;stroke:#000000;stroke-width:2.5;stroke-linecap:butt;stroke-linejoin:miter;stroke-miterlimit:3.79999995;stroke-dasharray:none;stroke-opacity:1"
             id="path152"
             inkscape:connector-curvature="0" /><path
             d="m 1978.01,1808.01 v -46.02"
             style="fill:none;stroke:#000000;stroke-width:2.5;stroke-linecap:butt;stroke-linejoin:miter;stroke-miterlimit:3.79999995;stroke-dasharray:none;stroke-opacity:1"
             id="path154"
             inkscape:connector-curvature="0" /><g
             id="g156"
             transform="scale(10)"><text
               transform="matrix(1,0,0,-1,196.3,42.1566)"
               style="font-variant:normal;font-weight:normal;font-size:12px;font-family:'Times New Roman';-inkscape-font-specification:TimesNewRomanPSMT;writing-mode:lr-tb;fill:#000000;fill-opacity:1;fill-rule:nonzero;stroke:none"
               id="text160"><tspan
                 x="0"
                 y="0"
                 id="tspan158">0</tspan></text>
</g><path
             d="m 2269.49,582.5 v 46.02"
             style="fill:none;stroke:#000000;stroke-width:2.5;stroke-linecap:butt;stroke-linejoin:miter;stroke-miterlimit:3.79999995;stroke-dasharray:none;stroke-opacity:1"
             id="path162"
             inkscape:connector-curvature="0" /><path
             d="m 2269.49,1808.01 v -46.02"
             style="fill:none;stroke:#000000;stroke-width:2.5;stroke-linecap:butt;stroke-linejoin:miter;stroke-miterlimit:3.79999995;stroke-dasharray:none;stroke-opacity:1"
             id="path164"
             inkscape:connector-curvature="0" /><g
             id="g166"
             transform="scale(10)"><text
               transform="matrix(1,0,0,-1,219.45,42.1566)"
               style="font-variant:normal;font-weight:normal;font-size:12px;font-family:'Times New Roman';-inkscape-font-specification:TimesNewRomanPSMT;writing-mode:lr-tb;fill:#000000;fill-opacity:1;fill-rule:nonzero;stroke:none"
               id="text170"><tspan
                 x="0 6 12"
                 y="0"
                 sodipodi:role="line"
                 id="tspan168">200</tspan></text>
</g><path
             d="m 2561.48,582.5 v 46.02"
             style="fill:none;stroke:#000000;stroke-width:2.5;stroke-linecap:butt;stroke-linejoin:miter;stroke-miterlimit:3.79999995;stroke-dasharray:none;stroke-opacity:1"
             id="path172"
             inkscape:connector-curvature="0" /><path
             d="m 2561.48,1808.01 v -46.02"
             style="fill:none;stroke:#000000;stroke-width:2.5;stroke-linecap:butt;stroke-linejoin:miter;stroke-miterlimit:3.79999995;stroke-dasharray:none;stroke-opacity:1"
             id="path174"
             inkscape:connector-curvature="0" /><g
             id="g176"
             transform="scale(10)"><text
               transform="matrix(1,0,0,-1,248.65,42.1566)"
               style="font-variant:normal;font-weight:normal;font-size:12px;font-family:'Times New Roman';-inkscape-font-specification:TimesNewRomanPSMT;writing-mode:lr-tb;fill:#000000;fill-opacity:1;fill-rule:nonzero;stroke:none"
               id="text180"><tspan
                 x="0 6 12"
                 y="0"
                 sodipodi:role="line"
                 id="tspan178">400</tspan></text>
</g><path
             d="m 2853.01,582.5 v 46.02"
             style="fill:none;stroke:#000000;stroke-width:2.5;stroke-linecap:butt;stroke-linejoin:miter;stroke-miterlimit:3.79999995;stroke-dasharray:none;stroke-opacity:1"
             id="path182"
             inkscape:connector-curvature="0" /><path
             d="m 2853.01,1808.01 v -46.02"
             style="fill:none;stroke:#000000;stroke-width:2.5;stroke-linecap:butt;stroke-linejoin:miter;stroke-miterlimit:3.79999995;stroke-dasharray:none;stroke-opacity:1"
             id="path184"
             inkscape:connector-curvature="0" /><g
             id="g186"
             transform="scale(10)"><text
               transform="matrix(1,0,0,-1,277.8,42.1566)"
               style="font-variant:normal;font-weight:normal;font-size:12px;font-family:'Times New Roman';-inkscape-font-specification:TimesNewRomanPSMT;writing-mode:lr-tb;fill:#000000;fill-opacity:1;fill-rule:nonzero;stroke:none"
               id="text190"><tspan
                 x="0 6 12"
                 y="0"
                 sodipodi:role="line"
                 id="tspan188">600</tspan></text>
</g><path
             d="M 1102.5,582.5 H 2853.01 V 1808.01 H 1102.5 Z"
             style="fill:none;stroke:#000000;stroke-width:2.5;stroke-linecap:butt;stroke-linejoin:miter;stroke-miterlimit:3.79999995;stroke-dasharray:none;stroke-opacity:1"
             id="path192"
             inkscape:connector-curvature="0" /><g
             id="g194"
             transform="scale(10)"><text
               transform="matrix(0,1,1,0,70.0934,91.15)"
               style="font-variant:normal;font-weight:normal;font-size:12px;font-family:'Times New Roman';-inkscape-font-specification:TimesNewRomanPSMT;writing-mode:lr-tb;fill:#000000;fill-opacity:1;fill-rule:nonzero;stroke:none"
               id="text198"><tspan
                 x="0 6 12 15.336 19.332001 30 35.327999 43.992001 47.327999 52.704048"
                 y="0"
                 sodipodi:role="line"
                 id="tspan196">ub/(MeV/c)</tspan></text>
<text
               transform="matrix(1,0,0,-1,170.9,24.8566)"
               style="font-variant:normal;font-weight:normal;font-size:12px;font-family:'Times New Roman';-inkscape-font-specification:TimesNewRomanPSMT;writing-mode:lr-tb;fill:#000000;fill-opacity:1;fill-rule:nonzero;stroke:none"
               id="text204"><tspan
                 x="0 3.336 9.3360004 12.336 16.332001 27 32.327999 40.992001 44.327999 49.704048"
                 y="0"
                 sodipodi:role="line"
                 id="tspan200">lg (MeV/c)</tspan><tspan
                 x="38.700001 44.700001 50.700001 56.700001 63.372002"
                 y="-136.85001"
                 sodipodi:role="line"
                 id="tspan202">210Po</tspan></text>
</g><path
             d="m 2462.5,1662.5 h 286.02"
             style="fill:none;stroke:#000000;stroke-width:10;stroke-linecap:butt;stroke-linejoin:miter;stroke-miterlimit:3.79999995;stroke-dasharray:none;stroke-opacity:1"
             id="path206"
             inkscape:connector-curvature="0" /><path
             d="M 2841.48,582.5 H 2755 l -28.98,0.512 h -28.52 l -28.98,0.508 -28.52,0.46 -28.98,0.508 -29.03,1.024 -28.47,1.476 -29.03,1.532 -28.47,1.48 -29.03,1.48 -28.47,2.04 -29.03,1.992 -28.98,3.008 -28.52,3.468 -28.98,4.032 -28.52,4.492 -28.98,5.968 -28.52,5 -28.98,6.02 -29.03,6.988 -28.47,6.024 -29.03,5.508 -28.47,5 -29.03,2.5 -28.47,-1.02 -29.03,-3.98 -28.47,-6.532 -29.03,-7.5 -28.98,-8.008 -28.52,-7.5 -28.98,-6.48 -28.52,-5.512 -28.98,-4.488 -28.52,-3.52 -28.98,-3.98 -28.98,-2.5 -28.52,-1.48 -28.98,-2.04 -28.52,-1.48 -28.98,-1.02 -28.52,-0.46 -28.98,-1.02 -29.03,-0.512 -28.47,-0.508 h -29.03 l -28.47,-0.46 h -29.03 l -28.47,-0.508 h -86.53 l -28.98,-0.512 h -144.03"
             style="fill:none;stroke:#000000;stroke-width:10;stroke-linecap:butt;stroke-linejoin:miter;stroke-miterlimit:3.79999995;stroke-dasharray:none;stroke-opacity:1"
             id="path208"
             inkscape:connector-curvature="0" /><g
             id="g210"
             transform="scale(10)"><text
               transform="matrix(1,0,0,-1,209.6,141.857)"
               style="font-variant:normal;font-weight:normal;font-size:12px;font-family:'Times New Roman';-inkscape-font-specification:TimesNewRomanPSMT;writing-mode:lr-tb;fill:#000000;fill-opacity:1;fill-rule:nonzero;stroke:none"
               id="text214"><tspan
                 x="0 6 12 18 24.672001"
                 y="0"
                 sodipodi:role="line"
                 id="tspan212">212Po</tspan></text>
</g><path
             d="m 2462.5,1463.98 h 286.02"
             style="fill:none;stroke:#ff0000;stroke-width:10;stroke-linecap:butt;stroke-linejoin:miter;stroke-miterlimit:3.79999995;stroke-dasharray:55, 22;stroke-dashoffset:0;stroke-opacity:1"
             id="path216"
             inkscape:connector-curvature="0" /><path
             d="m 2841.48,582.5 h -28.98 l -28.98,0.512 -28.52,1.476 -28.98,1.532 -28.52,2.5 -28.98,4.492 -28.52,5.508 -28.98,6.992 -29.03,10 -28.47,13.468 -29.03,18.008 -28.47,17.5 -29.03,15.512 -28.47,20 -29.03,18.52 -28.98,30.46 -28.52,34.032 -28.98,42.5 -28.52,45.968 -28.98,72.04 -28.52,65.97 -28.98,77.5 -29.03,95 -28.47,79.03 -29.03,76.48 -28.47,71.99 -29.03,33.52 -28.47,-10.51 -29.03,-42.5 -28.47,-73.52 -29.03,-87.5 -28.98,-100 -28.52,-88.98 -28.98,-81.988 -28.52,-63.524 -28.98,-60.968 -28.52,-45 L 1747.5,742.5 1718.52,711.988 1690,689.488 1661.02,665 1632.5,650.512 1603.52,640 1575,629.488 l -28.98,-8.976 -29.03,-6.024 -28.47,-5.508 -29.03,-5 -28.47,-2.96 -29.03,-4.54 -28.47,-2.96 -29.03,-3.008 -28.98,-2.5 -28.52,-1.992 -28.98,-1.02 -28.52,-1.02 -28.98,-0.46 -28.52,-0.508 -28.98,-0.512 h -29.03"
             style="fill:none;stroke:#ff0000;stroke-width:10;stroke-linecap:butt;stroke-linejoin:miter;stroke-miterlimit:3.79999995;stroke-dasharray:55, 22;stroke-dashoffset:0;stroke-opacity:1"
             id="path218"
             inkscape:connector-curvature="0" /><g
             id="g220"
             transform="scale(10)"><text
               transform="matrix(1,0,0,-1,150.6,122.007)"
               style="font-variant:normal;font-weight:normal;font-size:12px;font-family:'Times New Roman';-inkscape-font-specification:TimesNewRomanPSMT;writing-mode:lr-tb;fill:#000000;fill-opacity:1;fill-rule:nonzero;stroke:none"
               id="text224"><tspan
                 x="0 6 12 18 24.672001 30.672001 33.672001 42.300064 48.300064 56.304062 62.304062 68.304062 71.304062 74.64006 77.64006 83.64006"
                 y="0"
                 sodipodi:role="line"
                 id="tspan222">210Po NoCou / 10</tspan></text>
</g><path
             d="m 2462.5,1265.51 h 286.02"
             style="fill:none;stroke:#008800;stroke-width:10;stroke-linecap:butt;stroke-linejoin:miter;stroke-miterlimit:3.79999995;stroke-dasharray:13.75, 13.75;stroke-dashoffset:0;stroke-opacity:1"
             id="path226"
             inkscape:connector-curvature="0" /><path
             d="M 2841.48,582.5 H 2697.5 l -28.98,0.512 h -57.5 l -29.03,0.508 -28.47,0.46 -29.03,0.508 -28.47,0.512 -29.03,1.02 -28.47,1.48 -29.03,1.48 -28.98,2.5 -28.52,3.008 -28.98,4.032 -28.52,5.46 -28.98,7.5 -28.52,9.032 -28.98,11.988 -29.03,15.512 -28.47,19.488 -29.03,26.02 -28.47,35 -29.03,44.492 -28.47,44.488 -29.03,43.52 -28.47,21.48 -29.03,-13.98 L 1920,817.5 1891.48,763.012 1862.5,714.488 1833.98,678.52 1805,651.48 1776.48,633.012 1747.5,619.488 1718.52,610 1690,602.5 l -28.98,-5.512 -28.52,-3.976 -28.98,-2.5 -28.52,-2.5 -28.98,-1.532 -29.03,-0.968 -28.47,-1.024 -29.03,-0.508 -28.47,-0.46 -29.03,-0.508 h -57.5 l -28.98,-0.512 h -201.53"
             style="fill:none;stroke:#008800;stroke-width:10;stroke-linecap:butt;stroke-linejoin:miter;stroke-miterlimit:3.79999995;stroke-dasharray:13.75, 13.75;stroke-dashoffset:0;stroke-opacity:1"
             id="path228"
             inkscape:connector-curvature="0" /><g
             id="g230"
             transform="scale(10)"><text
               transform="matrix(1,0,0,-1,150.6,102.157)"
               style="font-variant:normal;font-weight:normal;font-size:12px;font-family:'Times New Roman';-inkscape-font-specification:TimesNewRomanPSMT;writing-mode:lr-tb;fill:#000000;fill-opacity:1;fill-rule:nonzero;stroke:none"
               id="text234"><tspan
                 x="0 6 12 18 24.672001 30.672001 33.672001 42.300064 48.300064 56.304062 62.304062 68.304062 71.304062 74.64006 77.64006 83.64006"
                 y="0"
                 sodipodi:role="line"
                 id="tspan232">210Po NoCou / 10</tspan></text>
</g><path
             d="m 2462.5,1066.99 h 286.02"
             style="fill:none;stroke:#0000ff;stroke-width:10;stroke-linecap:butt;stroke-linejoin:miter;stroke-miterlimit:3.79999995;stroke-dasharray:55, 13.75, 13.75, 13.75;stroke-dashoffset:0;stroke-opacity:1"
             id="path236"
             inkscape:connector-curvature="0" /><path
             d="m 2841.48,582.5 h -115.46 l -28.52,0.512 h -28.98 l -28.52,0.508 -28.98,0.46 -29.03,0.508 -28.47,1.024 -29.03,0.968 -28.47,2.04 -29.03,2.5 -28.47,2.96 -29.03,5 -28.98,6.532 -28.52,8.976 -28.98,11.992 -28.52,16.532 -28.98,21.988 -28.52,29.488 -28.98,38.524 -29.03,50 -28.47,67.5 -29.03,95 -28.47,136.478 -29.03,185.51 -28.47,206.48 -29.03,209.54 -28.47,101.48 -29.03,-61.02 L 1920,1491.48 1891.48,1245.51 1862.5,1041.48 1833.98,900.512 1805,802.5 1776.48,740 1747.5,695.512 1718.52,663.98 1690,641.02 l -28.98,-17.04 -28.52,-11.992 -28.98,-8.468 -28.52,-6.532 -28.98,-4.488 -29.03,-3.012 -28.47,-1.988 -29.03,-1.48 -28.47,-1.532 -29.03,-0.508 -28.47,-0.46 -29.03,-0.508 h -28.98 l -28.52,-0.512 h -173.01"
             style="fill:none;stroke:#0000ff;stroke-width:10;stroke-linecap:butt;stroke-linejoin:miter;stroke-miterlimit:3.79999995;stroke-dasharray:55, 13.75, 13.75, 13.75;stroke-dashoffset:0;stroke-opacity:1"
             id="path238"
             inkscape:connector-curvature="0" /><path
             d="M 1102.5,582.5 H 2853.01 V 1808.01 H 1102.5 Z"
             style="fill:none;stroke:#000000;stroke-width:2.5;stroke-linecap:butt;stroke-linejoin:miter;stroke-miterlimit:3.79999995;stroke-dasharray:none;stroke-opacity:1"
             id="path240"
             inkscape:connector-curvature="0" /></g></g></g></g></svg>