<?xml version="1.0" encoding="UTF-8" standalone="no"?>
<svg
   xmlns:dc="http://purl.org/dc/elements/1.1/"
   xmlns:cc="http://creativecommons.org/ns#"
   xmlns:rdf="http://www.w3.org/1999/02/22-rdf-syntax-ns#"
   xmlns:svg="http://www.w3.org/2000/svg"
   xmlns="http://www.w3.org/2000/svg"
   viewBox="0 0 480 288"
   height="288"
   width="480"
   xml:space="preserve"
   id="svg2"
   version="1.1"><metadata
     id="metadata8"><rdf:RDF><cc:Work
         rdf:about=""><dc:format>image/svg+xml</dc:format><dc:type
           rdf:resource="http://purl.org/dc/dcmitype/StillImage" /></cc:Work></rdf:RDF></metadata><defs
     id="defs6"><clipPath
       id="clipPath20"
       clipPathUnits="userSpaceOnUse"><path
         id="path18"
         d="M 610,220 H 2960 V 1850 H 610 Z" /></clipPath></defs><g
     transform="matrix(1.3333333,0,0,-1.3333333,0,288)"
     id="g10"><g
       transform="scale(0.1)"
       id="g12"><g
         id="g14"><g
           clip-path="url(#clipPath20)"
           id="g16"><path
             id="path22"
             style="fill:none;stroke:#000000;stroke-width:2.5;stroke-linecap:butt;stroke-linejoin:miter;stroke-miterlimit:3.79999995;stroke-dasharray:none;stroke-opacity:1"
             d="m 1102.5,582.5 h 46.02" /><path
             id="path24"
             style="fill:none;stroke:#000000;stroke-width:2.5;stroke-linecap:butt;stroke-linejoin:miter;stroke-miterlimit:3.79999995;stroke-dasharray:none;stroke-opacity:1"
             d="m 2853.01,582.5 h -46.02" /><g
             transform="scale(10)"
             id="g26"><text
               id="text30"
               style="font-variant:normal;font-weight:normal;font-size:12px;font-family:'Times New Roman';-inkscape-font-specification:TimesNewRomanPSMT;writing-mode:lr-tb;fill:#000000;fill-opacity:1;fill-rule:nonzero;stroke:none"
               transform="matrix(1,0,0,-1,99.8,53.7066)"><tspan
                 id="tspan28"
                 y="0"
                 x="0">0</tspan></text>
</g><path
             id="path32"
             style="fill:none;stroke:#000000;stroke-width:2.5;stroke-linecap:butt;stroke-linejoin:miter;stroke-miterlimit:3.79999995;stroke-dasharray:none;stroke-opacity:1"
             d="m 1102.5,757.5 h 46.02" /><path
             id="path34"
             style="fill:none;stroke:#000000;stroke-width:2.5;stroke-linecap:butt;stroke-linejoin:miter;stroke-miterlimit:3.79999995;stroke-dasharray:none;stroke-opacity:1"
             d="m 2853.01,757.5 h -46.02" /><g
             transform="scale(10)"
             id="g36"><text
               id="text40"
               style="font-variant:normal;font-weight:normal;font-size:12px;font-family:'Times New Roman';-inkscape-font-specification:TimesNewRomanPSMT;writing-mode:lr-tb;fill:#000000;fill-opacity:1;fill-rule:nonzero;stroke:none"
               transform="matrix(1,0,0,-1,72.8,71.2066)"><tspan
                 id="tspan38"
                 y="0"
                 x="0 6 9 15 21 27">0.0002</tspan></text>
</g><path
             id="path42"
             style="fill:none;stroke:#000000;stroke-width:2.5;stroke-linecap:butt;stroke-linejoin:miter;stroke-miterlimit:3.79999995;stroke-dasharray:none;stroke-opacity:1"
             d="m 1102.5,932.5 h 46.02" /><path
             id="path44"
             style="fill:none;stroke:#000000;stroke-width:2.5;stroke-linecap:butt;stroke-linejoin:miter;stroke-miterlimit:3.79999995;stroke-dasharray:none;stroke-opacity:1"
             d="m 2853.01,932.5 h -46.02" /><g
             transform="scale(10)"
             id="g46"><text
               id="text50"
               style="font-variant:normal;font-weight:normal;font-size:12px;font-family:'Times New Roman';-inkscape-font-specification:TimesNewRomanPSMT;writing-mode:lr-tb;fill:#000000;fill-opacity:1;fill-rule:nonzero;stroke:none"
               transform="matrix(1,0,0,-1,72.8,88.7066)"><tspan
                 id="tspan48"
                 y="0"
                 x="0 6 9 15 21 27">0.0004</tspan></text>
</g><path
             id="path52"
             style="fill:none;stroke:#000000;stroke-width:2.5;stroke-linecap:butt;stroke-linejoin:miter;stroke-miterlimit:3.79999995;stroke-dasharray:none;stroke-opacity:1"
             d="m 1102.5,1107.5 h 46.02" /><path
             id="path54"
             style="fill:none;stroke:#000000;stroke-width:2.5;stroke-linecap:butt;stroke-linejoin:miter;stroke-miterlimit:3.79999995;stroke-dasharray:none;stroke-opacity:1"
             d="m 2853.01,1107.5 h -46.02" /><g
             transform="scale(10)"
             id="g56"><text
               id="text60"
               style="font-variant:normal;font-weight:normal;font-size:12px;font-family:'Times New Roman';-inkscape-font-specification:TimesNewRomanPSMT;writing-mode:lr-tb;fill:#000000;fill-opacity:1;fill-rule:nonzero;stroke:none"
               transform="matrix(1,0,0,-1,72.8,106.207)"><tspan
                 id="tspan58"
                 y="0"
                 x="0 6 9 15 21 27">0.0006</tspan></text>
</g><path
             id="path62"
             style="fill:none;stroke:#000000;stroke-width:2.5;stroke-linecap:butt;stroke-linejoin:miter;stroke-miterlimit:3.79999995;stroke-dasharray:none;stroke-opacity:1"
             d="m 1102.5,1283.01 h 46.02" /><path
             id="path64"
             style="fill:none;stroke:#000000;stroke-width:2.5;stroke-linecap:butt;stroke-linejoin:miter;stroke-miterlimit:3.79999995;stroke-dasharray:none;stroke-opacity:1"
             d="m 2853.01,1283.01 h -46.02" /><g
             transform="scale(10)"
             id="g66"><text
               id="text70"
               style="font-variant:normal;font-weight:normal;font-size:12px;font-family:'Times New Roman';-inkscape-font-specification:TimesNewRomanPSMT;writing-mode:lr-tb;fill:#000000;fill-opacity:1;fill-rule:nonzero;stroke:none"
               transform="matrix(1,0,0,-1,72.8,123.757)"><tspan
                 id="tspan68"
                 y="0"
                 x="0 6 9 15 21 27">0.0008</tspan></text>
</g><path
             id="path72"
             style="fill:none;stroke:#000000;stroke-width:2.5;stroke-linecap:butt;stroke-linejoin:miter;stroke-miterlimit:3.79999995;stroke-dasharray:none;stroke-opacity:1"
             d="m 1102.5,1458.01 h 46.02" /><path
             id="path74"
             style="fill:none;stroke:#000000;stroke-width:2.5;stroke-linecap:butt;stroke-linejoin:miter;stroke-miterlimit:3.79999995;stroke-dasharray:none;stroke-opacity:1"
             d="m 2853.01,1458.01 h -46.02" /><g
             transform="scale(10)"
             id="g76"><text
               id="text80"
               style="font-variant:normal;font-weight:normal;font-size:12px;font-family:'Times New Roman';-inkscape-font-specification:TimesNewRomanPSMT;writing-mode:lr-tb;fill:#000000;fill-opacity:1;fill-rule:nonzero;stroke:none"
               transform="matrix(1,0,0,-1,78.8,141.257)"><tspan
                 id="tspan78"
                 y="0"
                 x="0 6 9 15 21">0.001</tspan></text>
</g><path
             id="path82"
             style="fill:none;stroke:#000000;stroke-width:2.5;stroke-linecap:butt;stroke-linejoin:miter;stroke-miterlimit:3.79999995;stroke-dasharray:none;stroke-opacity:1"
             d="m 1102.5,1633.01 h 46.02" /><path
             id="path84"
             style="fill:none;stroke:#000000;stroke-width:2.5;stroke-linecap:butt;stroke-linejoin:miter;stroke-miterlimit:3.79999995;stroke-dasharray:none;stroke-opacity:1"
             d="m 2853.01,1633.01 h -46.02" /><g
             transform="scale(10)"
             id="g86"><text
               id="text90"
               style="font-variant:normal;font-weight:normal;font-size:12px;font-family:'Times New Roman';-inkscape-font-specification:TimesNewRomanPSMT;writing-mode:lr-tb;fill:#000000;fill-opacity:1;fill-rule:nonzero;stroke:none"
               transform="matrix(1,0,0,-1,72.8,158.757)"><tspan
                 id="tspan88"
                 y="0"
                 x="0 6 9 15 21 27">0.0012</tspan></text>
</g><path
             id="path92"
             style="fill:none;stroke:#000000;stroke-width:2.5;stroke-linecap:butt;stroke-linejoin:miter;stroke-miterlimit:3.79999995;stroke-dasharray:none;stroke-opacity:1"
             d="m 1102.5,1808.01 h 46.02" /><path
             id="path94"
             style="fill:none;stroke:#000000;stroke-width:2.5;stroke-linecap:butt;stroke-linejoin:miter;stroke-miterlimit:3.79999995;stroke-dasharray:none;stroke-opacity:1"
             d="m 2853.01,1808.01 h -46.02" /><g
             transform="scale(10)"
             id="g96"><text
               id="text100"
               style="font-variant:normal;font-weight:normal;font-size:12px;font-family:'Times New Roman';-inkscape-font-specification:TimesNewRomanPSMT;writing-mode:lr-tb;fill:#000000;fill-opacity:1;fill-rule:nonzero;stroke:none"
               transform="matrix(1,0,0,-1,72.8,176.257)"><tspan
                 id="tspan98"
                 y="0"
                 x="0 6 9 15 21 27">0.0014</tspan></text>
</g><path
             id="path102"
             style="fill:none;stroke:#000000;stroke-width:2.5;stroke-linecap:butt;stroke-linejoin:miter;stroke-miterlimit:3.79999995;stroke-dasharray:none;stroke-opacity:1"
             d="m 1102.5,582.5 v 46.02" /><path
             id="path104"
             style="fill:none;stroke:#000000;stroke-width:2.5;stroke-linecap:butt;stroke-linejoin:miter;stroke-miterlimit:3.79999995;stroke-dasharray:none;stroke-opacity:1"
             d="m 1102.5,1808.01 v -46.02" /><g
             transform="scale(10)"
             id="g106"><text
               id="text110"
               style="font-variant:normal;font-weight:normal;font-size:12px;font-family:'Times New Roman';-inkscape-font-specification:TimesNewRomanPSMT;writing-mode:lr-tb;fill:#000000;fill-opacity:1;fill-rule:nonzero;stroke:none"
               transform="matrix(1,0,0,-1,99.25,42.1566)"><tspan
                 id="tspan108"
                 y="0"
                 x="0 3.9960001 9.9960003 15.996">-600</tspan></text>
</g><path
             id="path112"
             style="fill:none;stroke:#000000;stroke-width:2.5;stroke-linecap:butt;stroke-linejoin:miter;stroke-miterlimit:3.79999995;stroke-dasharray:none;stroke-opacity:1"
             d="m 1394.49,582.5 v 46.02" /><path
             id="path114"
             style="fill:none;stroke:#000000;stroke-width:2.5;stroke-linecap:butt;stroke-linejoin:miter;stroke-miterlimit:3.79999995;stroke-dasharray:none;stroke-opacity:1"
             d="m 1394.49,1808.01 v -46.02" /><g
             transform="scale(10)"
             id="g116"><text
               id="text120"
               style="font-variant:normal;font-weight:normal;font-size:12px;font-family:'Times New Roman';-inkscape-font-specification:TimesNewRomanPSMT;writing-mode:lr-tb;fill:#000000;fill-opacity:1;fill-rule:nonzero;stroke:none"
               transform="matrix(1,0,0,-1,128.45,42.1566)"><tspan
                 id="tspan118"
                 y="0"
                 x="0 3.9960001 9.9960003 15.996">-400</tspan></text>
</g><path
             id="path122"
             style="fill:none;stroke:#000000;stroke-width:2.5;stroke-linecap:butt;stroke-linejoin:miter;stroke-miterlimit:3.79999995;stroke-dasharray:none;stroke-opacity:1"
             d="m 1686.02,582.5 v 46.02" /><path
             id="path124"
             style="fill:none;stroke:#000000;stroke-width:2.5;stroke-linecap:butt;stroke-linejoin:miter;stroke-miterlimit:3.79999995;stroke-dasharray:none;stroke-opacity:1"
             d="m 1686.02,1808.01 v -46.02" /><g
             transform="scale(10)"
             id="g126"><text
               id="text130"
               style="font-variant:normal;font-weight:normal;font-size:12px;font-family:'Times New Roman';-inkscape-font-specification:TimesNewRomanPSMT;writing-mode:lr-tb;fill:#000000;fill-opacity:1;fill-rule:nonzero;stroke:none"
               transform="matrix(1,0,0,-1,157.6,42.1566)"><tspan
                 id="tspan128"
                 y="0"
                 x="0 3.9960001 9.9960003 15.996">-200</tspan></text>
</g><path
             id="path132"
             style="fill:none;stroke:#000000;stroke-width:2.5;stroke-linecap:butt;stroke-linejoin:miter;stroke-miterlimit:3.79999995;stroke-dasharray:none;stroke-opacity:1"
             d="m 1978.01,582.5 v 46.02" /><path
             id="path134"
             style="fill:none;stroke:#000000;stroke-width:2.5;stroke-linecap:butt;stroke-linejoin:miter;stroke-miterlimit:3.79999995;stroke-dasharray:none;stroke-opacity:1"
             d="m 1978.01,1808.01 v -46.02" /><g
             transform="scale(10)"
             id="g136"><text
               id="text140"
               style="font-variant:normal;font-weight:normal;font-size:12px;font-family:'Times New Roman';-inkscape-font-specification:TimesNewRomanPSMT;writing-mode:lr-tb;fill:#000000;fill-opacity:1;fill-rule:nonzero;stroke:none"
               transform="matrix(1,0,0,-1,196.3,42.1566)"><tspan
                 id="tspan138"
                 y="0"
                 x="0">0</tspan></text>
</g><path
             id="path142"
             style="fill:none;stroke:#000000;stroke-width:2.5;stroke-linecap:butt;stroke-linejoin:miter;stroke-miterlimit:3.79999995;stroke-dasharray:none;stroke-opacity:1"
             d="m 2269.49,582.5 v 46.02" /><path
             id="path144"
             style="fill:none;stroke:#000000;stroke-width:2.5;stroke-linecap:butt;stroke-linejoin:miter;stroke-miterlimit:3.79999995;stroke-dasharray:none;stroke-opacity:1"
             d="m 2269.49,1808.01 v -46.02" /><g
             transform="scale(10)"
             id="g146"><text
               id="text150"
               style="font-variant:normal;font-weight:normal;font-size:12px;font-family:'Times New Roman';-inkscape-font-specification:TimesNewRomanPSMT;writing-mode:lr-tb;fill:#000000;fill-opacity:1;fill-rule:nonzero;stroke:none"
               transform="matrix(1,0,0,-1,219.45,42.1566)"><tspan
                 id="tspan148"
                 y="0"
                 x="0 6 12">200</tspan></text>
</g><path
             id="path152"
             style="fill:none;stroke:#000000;stroke-width:2.5;stroke-linecap:butt;stroke-linejoin:miter;stroke-miterlimit:3.79999995;stroke-dasharray:none;stroke-opacity:1"
             d="m 2561.48,582.5 v 46.02" /><path
             id="path154"
             style="fill:none;stroke:#000000;stroke-width:2.5;stroke-linecap:butt;stroke-linejoin:miter;stroke-miterlimit:3.79999995;stroke-dasharray:none;stroke-opacity:1"
             d="m 2561.48,1808.01 v -46.02" /><g
             transform="scale(10)"
             id="g156"><text
               id="text160"
               style="font-variant:normal;font-weight:normal;font-size:12px;font-family:'Times New Roman';-inkscape-font-specification:TimesNewRomanPSMT;writing-mode:lr-tb;fill:#000000;fill-opacity:1;fill-rule:nonzero;stroke:none"
               transform="matrix(1,0,0,-1,248.65,42.1566)"><tspan
                 id="tspan158"
                 y="0"
                 x="0 6 12">400</tspan></text>
</g><path
             id="path162"
             style="fill:none;stroke:#000000;stroke-width:2.5;stroke-linecap:butt;stroke-linejoin:miter;stroke-miterlimit:3.79999995;stroke-dasharray:none;stroke-opacity:1"
             d="m 2853.01,582.5 v 46.02" /><path
             id="path164"
             style="fill:none;stroke:#000000;stroke-width:2.5;stroke-linecap:butt;stroke-linejoin:miter;stroke-miterlimit:3.79999995;stroke-dasharray:none;stroke-opacity:1"
             d="m 2853.01,1808.01 v -46.02" /><g
             transform="scale(10)"
             id="g166"><text
               id="text170"
               style="font-variant:normal;font-weight:normal;font-size:12px;font-family:'Times New Roman';-inkscape-font-specification:TimesNewRomanPSMT;writing-mode:lr-tb;fill:#000000;fill-opacity:1;fill-rule:nonzero;stroke:none"
               transform="matrix(1,0,0,-1,277.8,42.1566)"><tspan
                 id="tspan168"
                 y="0"
                 x="0 6 12">600</tspan></text>
</g><path
             id="path172"
             style="fill:none;stroke:#000000;stroke-width:2.5;stroke-linecap:butt;stroke-linejoin:miter;stroke-miterlimit:3.79999995;stroke-dasharray:none;stroke-opacity:1"
             d="M 1102.5,582.5 H 2853.01 V 1808.01 H 1102.5 Z" /><g
             transform="scale(10)"
             id="g174"><text
               id="text178"
               style="font-variant:normal;font-weight:normal;font-size:12px;font-family:'Times New Roman';-inkscape-font-specification:TimesNewRomanPSMT;writing-mode:lr-tb;fill:#000000;fill-opacity:1;fill-rule:nonzero;stroke:none"
               transform="matrix(0,1,1,0,70.0934,91.15)"><tspan
                 id="tspan176"
                 y="0"
                 x="0 6 12 15.336 19.332001 30 35.327999 43.992001 47.327999 52.704048">ub/(MeV/c)</tspan></text>
<text
               id="text184"
               style="font-variant:normal;font-weight:normal;font-size:12px;font-family:'Times New Roman';-inkscape-font-specification:TimesNewRomanPSMT;writing-mode:lr-tb;fill:#000000;fill-opacity:1;fill-rule:nonzero;stroke:none"
               transform="matrix(1,0,0,-1,170.9,24.8566)"><tspan
                 id="tspan180"
                 y="0"
                 x="0 3.336 9.3360004 12.336 16.332001 27 32.327999 40.992001 44.327999 49.704048">lg (MeV/c)</tspan><tspan
                 id="tspan182"
                 y="-136.85001"
                 x="38.700001 44.700001 50.700001 56.700001 63.372002">210Po</tspan></text>
</g><path
             id="path186"
             style="fill:none;stroke:#000000;stroke-width:10;stroke-linecap:butt;stroke-linejoin:miter;stroke-miterlimit:3.79999995;stroke-dasharray:none;stroke-opacity:1"
             d="m 2462.5,1662.5 h 286.02" /><path
             id="path188"
             style="fill:none;stroke:#000000;stroke-width:10;stroke-linecap:butt;stroke-linejoin:miter;stroke-miterlimit:3.79999995;stroke-dasharray:none;stroke-opacity:1"
             d="m 1113.98,582.5 29.03,1.02 28.98,0.968 28.52,1.532 28.98,1.48 28.52,1.48 28.98,2.5 28.52,2.04 28.98,2.96 29.03,3.008 28.47,3.012 29.03,1.988 28.47,1.532 29.03,1.48 28.47,1.02 29.03,0.968 28.98,1.532 28.52,0.46 28.98,1.02 28.52,0.512 28.98,0.968 28.52,0.508 57.96,1.024 28.52,0.508 28.98,0.46 h 28.52 l 28.98,0.508 h 57.5 l 29.03,-0.508 28.47,0.508 h 57.5 l 29.03,-0.508 h 28.47 l 29.03,-0.46 28.47,-0.508 29.03,-0.512 28.98,-0.512 28.52,-0.508 28.98,-0.968 28.52,-0.512 28.98,-1.02 28.52,-0.46 28.98,-1.532 29.03,-0.968 28.47,-1.02 29.03,-1.48 28.47,-1.532 29.03,-1.988 28.47,-3.012 29.03,-3.008 28.98,-2.96 28.52,-2.04 28.98,-2.5 28.52,-1.48 28.98,-1.48 28.52,-1.532 28.98,-0.968 28.98,-1.02" /><g
             transform="scale(10)"
             id="g190"><text
               id="text194"
               style="font-variant:normal;font-weight:normal;font-size:12px;font-family:'Times New Roman';-inkscape-font-specification:TimesNewRomanPSMT;writing-mode:lr-tb;fill:#000000;fill-opacity:1;fill-rule:nonzero;stroke:none"
               transform="matrix(1,0,0,-1,209.6,141.857)"><tspan
                 id="tspan192"
                 y="0"
                 x="0 6 12 18 24.672001">212Po</tspan></text>
</g><path
             id="path196"
             style="fill:none;stroke:#ff0000;stroke-width:10;stroke-linecap:butt;stroke-linejoin:miter;stroke-miterlimit:3.79999995;stroke-dasharray:55, 22;stroke-dashoffset:0;stroke-opacity:1"
             d="m 2462.5,1463.98 h 286.02" /><path
             id="path198"
             style="fill:none;stroke:#ff0000;stroke-width:10;stroke-linecap:butt;stroke-linejoin:miter;stroke-miterlimit:3.79999995;stroke-dasharray:55, 22;stroke-dashoffset:0;stroke-opacity:1"
             d="m 1113.98,582.5 29.03,11.48 28.98,15 28.52,17.04 28.98,20 28.52,23.98 28.98,26.988 28.52,31.532 28.98,35 29.03,37.96 28.47,37.5 29.03,28.52 28.47,16.988 29.03,12.5 28.47,13.012 29.03,11.988 28.98,10.512 28.52,9.488 28.98,6.992 28.52,4.54 28.98,2.96 28.52,2.04 28.98,0.968 28.98,1.024 28.52,0.508 h 28.98 l 28.52,-2.04 28.98,-3.468 28.52,-4.032 28.98,-2.96 29.03,-1.02 28.47,1.02 29.03,2.96 28.47,4.032 29.03,3.468 28.47,2.04 h 29.03 l 28.47,-0.508 29.03,-1.024 28.98,-0.968 28.52,-2.04 28.98,-2.96 28.52,-4.54 28.98,-6.992 28.52,-9.488 28.98,-10.512 29.03,-11.988 28.47,-13.012 29.03,-12.5 28.47,-16.988 29.03,-28.52 28.47,-37.5 29.03,-37.96 28.98,-35 28.52,-31.532 28.98,-26.988 28.52,-23.98 28.98,-20 28.52,-17.04 28.98,-15 28.98,-11.48" /><g
             transform="scale(10)"
             id="g200"><text
               id="text204"
               style="font-variant:normal;font-weight:normal;font-size:12px;font-family:'Times New Roman';-inkscape-font-specification:TimesNewRomanPSMT;writing-mode:lr-tb;fill:#000000;fill-opacity:1;fill-rule:nonzero;stroke:none"
               transform="matrix(1,0,0,-1,150.6,122.007)"><tspan
                 id="tspan202"
                 y="0"
                 x="0 6 12 18 24.672001 30.672001 33.672001 42.300064 48.300064 56.304062 62.304062 68.304062 71.304062 74.64006 77.64006 83.64006">210Po NoCou / 10</tspan></text>
</g><path
             id="path206"
             style="fill:none;stroke:#008800;stroke-width:10;stroke-linecap:butt;stroke-linejoin:miter;stroke-miterlimit:3.79999995;stroke-dasharray:13.75, 13.75;stroke-dashoffset:0;stroke-opacity:1"
             d="m 2462.5,1265.51 h 286.02" /><path
             id="path208"
             style="fill:none;stroke:#008800;stroke-width:10;stroke-linecap:butt;stroke-linejoin:miter;stroke-miterlimit:3.79999995;stroke-dasharray:13.75, 13.75;stroke-dashoffset:0;stroke-opacity:1"
             d="m 1113.98,582.5 h 29.03 l 28.98,0.512 h 28.52 l 28.98,0.508 28.52,0.46 28.98,0.508 28.52,1.024 28.98,0.968 29.03,1.532 28.47,1.988 29.03,1.988 28.47,3.012 29.03,3.98 28.47,4.54 29.03,5.46 28.98,6.02 28.52,8.012 28.98,8.468 28.52,9.54 28.98,10 28.52,12.96 28.98,13.008 28.98,11.532 28.52,15.46 28.98,19.032 28.52,15 28.98,9.488 28.52,31.48 28.98,53.52 29.03,26.02 28.47,-26.02 29.03,-53.52 28.47,-31.48 29.03,-9.488 28.47,-15 29.03,-19.032 28.47,-15.46 29.03,-11.532 28.98,-13.008 28.52,-12.96 28.98,-10 28.52,-9.54 28.98,-8.468 28.52,-8.012 28.98,-6.02 29.03,-5.46 28.47,-4.54 29.03,-3.98 28.47,-3.012 29.03,-1.988 28.47,-1.988 29.03,-1.532 28.98,-0.968 28.52,-1.024 28.98,-0.508 28.52,-0.46 28.98,-0.508 h 28.52 l 28.98,-0.512 h 28.98" /><g
             transform="scale(10)"
             id="g210"><text
               id="text214"
               style="font-variant:normal;font-weight:normal;font-size:12px;font-family:'Times New Roman';-inkscape-font-specification:TimesNewRomanPSMT;writing-mode:lr-tb;fill:#000000;fill-opacity:1;fill-rule:nonzero;stroke:none"
               transform="matrix(1,0,0,-1,150.6,102.157)"><tspan
                 id="tspan212"
                 y="0"
                 x="0 6 12 18 24.672001 30.672001 33.672001 42.300064 48.300064 56.304062 62.304062 68.304062 71.304062 74.64006 77.64006 83.64006">212Po NoCou / 10</tspan></text>
</g><path
             id="path216"
             style="fill:none;stroke:#0000ff;stroke-width:10;stroke-linecap:butt;stroke-linejoin:miter;stroke-miterlimit:3.79999995;stroke-dasharray:55, 13.75, 13.75, 13.75;stroke-dashoffset:0;stroke-opacity:1"
             d="m 2462.5,1066.99 h 286.02" /><path
             id="path218"
             style="fill:none;stroke:#0000ff;stroke-width:10;stroke-linecap:butt;stroke-linejoin:miter;stroke-miterlimit:3.79999995;stroke-dasharray:55, 13.75, 13.75, 13.75;stroke-dashoffset:0;stroke-opacity:1"
             d="m 1113.98,582.5 29.03,0.512 28.98,0.508 28.52,0.968 28.98,0.512 28.52,1.48 28.98,2.04 28.52,2.5 28.98,2.96 29.03,4.54 28.47,5.968 29.03,7.5 28.47,9.032 29.03,11.48 28.47,15 29.03,18.012 28.98,20.508 28.52,24.492 28.98,31.476 28.52,34.032 28.98,35.46 28.52,45 28.98,53.008 28.98,46.992 28.52,55 28.98,77.04 28.52,70.97 28.98,35.51 28.52,118.52 28.98,237.96 29.03,123.01 28.47,-123.01 29.03,-237.96 28.47,-118.52 29.03,-35.51 28.47,-70.97 29.03,-77.04 28.47,-55 29.03,-46.992 28.98,-53.008 28.52,-45 28.98,-35.46 28.52,-34.032 28.98,-31.476 28.52,-24.492 28.98,-20.508 29.03,-18.012 28.47,-15 29.03,-11.48 28.47,-9.032 29.03,-7.5 28.47,-5.968 29.03,-4.54 28.98,-2.96 28.52,-2.5 28.98,-2.04 28.52,-1.48 28.98,-0.512 28.52,-0.968 57.96,-1.02" /><path
             id="path220"
             style="fill:none;stroke:#000000;stroke-width:2.5;stroke-linecap:butt;stroke-linejoin:miter;stroke-miterlimit:3.79999995;stroke-dasharray:none;stroke-opacity:1"
             d="M 1102.5,582.5 H 2853.01 V 1808.01 H 1102.5 Z" /></g></g></g></g></svg>