<?xml version="1.0" encoding="UTF-8" standalone="no"?>
<svg
   xmlns:ns0="http://www.iki.fi/pav/software/textext/"
   xmlns:dc="http://purl.org/dc/elements/1.1/"
   xmlns:cc="http://creativecommons.org/ns#"
   xmlns:rdf="http://www.w3.org/1999/02/22-rdf-syntax-ns#"
   xmlns:svg="http://www.w3.org/2000/svg"
   xmlns="http://www.w3.org/2000/svg"
   xmlns:xlink="http://www.w3.org/1999/xlink"
   xmlns:sodipodi="http://sodipodi.sourceforge.net/DTD/sodipodi-0.dtd"
   xmlns:inkscape="http://www.inkscape.org/namespaces/inkscape"
   viewBox="0 0 294.07032 212.27775"
   height="212.27776"
   width="294.07031"
   xml:space="preserve"
   id="svg2"
   version="1.1"
   sodipodi:docname="tdx.svg"
   inkscape:version="0.92.5 (2060ec1f9f, 2020-04-08)"><sodipodi:namedview
   pagecolor="#ffffff"
   bordercolor="#666666"
   borderopacity="1"
   objecttolerance="10"
   gridtolerance="10"
   guidetolerance="10"
   inkscape:pageopacity="0"
   inkscape:pageshadow="2"
   inkscape:window-width="1680"
   inkscape:window-height="986"
   id="namedview106"
   showgrid="false"
   fit-margin-top="0"
   fit-margin-left="0"
   fit-margin-right="0"
   fit-margin-bottom="0"
   inkscape:zoom="1.6388889"
   inkscape:cx="144.1285"
   inkscape:cy="116.16877"
   inkscape:window-x="0"
   inkscape:window-y="0"
   inkscape:window-maximized="1"
   inkscape:current-layer="svg2" /><metadata
   id="metadata8"><rdf:RDF><cc:Work
       rdf:about=""><dc:format>image/svg+xml</dc:format><dc:type
         rdf:resource="http://purl.org/dc/dcmitype/StillImage" /><dc:title></dc:title></cc:Work></rdf:RDF></metadata><defs
   id="defs6"><clipPath
   id="clipPath20"
   clipPathUnits="userSpaceOnUse"><path
     id="path18"
     d="M 620,220 H 2960 V 1850 H 620 Z"
     inkscape:connector-curvature="0" /></clipPath>





































</defs><path
   id="path22"
   style="fill:none;stroke:#000000;stroke-width:0.33333331;stroke-linecap:butt;stroke-linejoin:miter;stroke-miterlimit:3.79999995;stroke-dasharray:none;stroke-opacity:1"
   d="m 47.240605,168.97472 h 6.136"
   inkscape:connector-curvature="0" /><path
   id="path24"
   style="fill:none;stroke:#000000;stroke-width:0.33333331;stroke-linecap:butt;stroke-linejoin:miter;stroke-miterlimit:3.79999995;stroke-dasharray:none;stroke-opacity:1"
   d="m 280.64193,168.97472 h -6.136"
   inkscape:connector-curvature="0" /><text
   style="font-variant:normal;font-weight:normal;font-size:16px;font-family:'Times New Roman';-inkscape-font-specification:TimesNewRomanPSMT;writing-mode:lr-tb;fill:#000000;fill-opacity:1;fill-rule:nonzero;stroke:none;stroke-width:1.33333325"
   id="text30"
   x="33.30727"
   y="175.03258"><tspan
     x="33.30727"
     y="175.03258"
     id="tspan28"
     style="stroke-width:1.33333325">0</tspan></text>






<path
   id="path32"
   style="fill:none;stroke:#000000;stroke-width:0.33333331;stroke-linecap:butt;stroke-linejoin:miter;stroke-miterlimit:3.79999995;stroke-dasharray:none;stroke-opacity:1"
   d="m 47.240605,145.64138 h 6.136"
   inkscape:connector-curvature="0" /><path
   id="path34"
   style="fill:none;stroke:#000000;stroke-width:0.33333331;stroke-linecap:butt;stroke-linejoin:miter;stroke-miterlimit:3.79999995;stroke-dasharray:none;stroke-opacity:1"
   d="m 280.64193,145.64138 h -6.136"
   inkscape:connector-curvature="0" />





<path
   id="path42"
   style="fill:none;stroke:#000000;stroke-width:0.33333331;stroke-linecap:butt;stroke-linejoin:miter;stroke-miterlimit:3.79999995;stroke-dasharray:none;stroke-opacity:1"
   d="m 47.240605,122.30805 h 6.136"
   inkscape:connector-curvature="0" /><path
   id="path44"
   style="fill:none;stroke:#000000;stroke-width:0.33333331;stroke-linecap:butt;stroke-linejoin:miter;stroke-miterlimit:3.79999995;stroke-dasharray:none;stroke-opacity:1"
   d="m 280.64193,122.30805 h -6.136"
   inkscape:connector-curvature="0" />





<path
   id="path52"
   style="fill:none;stroke:#000000;stroke-width:0.33333331;stroke-linecap:butt;stroke-linejoin:miter;stroke-miterlimit:3.79999995;stroke-dasharray:none;stroke-opacity:1"
   d="m 47.240605,98.974711 h 6.136"
   inkscape:connector-curvature="0" /><path
   id="path54"
   style="fill:none;stroke:#000000;stroke-width:0.33333331;stroke-linecap:butt;stroke-linejoin:miter;stroke-miterlimit:3.79999995;stroke-dasharray:none;stroke-opacity:1"
   d="m 280.64193,98.974711 h -6.136"
   inkscape:connector-curvature="0" />





<path
   id="path62"
   style="fill:none;stroke:#000000;stroke-width:0.33333331;stroke-linecap:butt;stroke-linejoin:miter;stroke-miterlimit:3.79999995;stroke-dasharray:none;stroke-opacity:1"
   d="m 47.240605,75.573378 h 6.136"
   inkscape:connector-curvature="0" /><path
   id="path64"
   style="fill:none;stroke:#000000;stroke-width:0.33333331;stroke-linecap:butt;stroke-linejoin:miter;stroke-miterlimit:3.79999995;stroke-dasharray:none;stroke-opacity:1"
   d="m 280.64193,75.573378 h -6.136"
   inkscape:connector-curvature="0" />





<path
   id="path72"
   style="fill:none;stroke:#000000;stroke-width:0.33333331;stroke-linecap:butt;stroke-linejoin:miter;stroke-miterlimit:3.79999995;stroke-dasharray:none;stroke-opacity:1"
   d="m 47.240605,52.240046 h 6.136"
   inkscape:connector-curvature="0" /><path
   id="path74"
   style="fill:none;stroke:#000000;stroke-width:0.33333331;stroke-linecap:butt;stroke-linejoin:miter;stroke-miterlimit:3.79999995;stroke-dasharray:none;stroke-opacity:1"
   d="m 280.64193,52.240046 h -6.136"
   inkscape:connector-curvature="0" />





<path
   id="path82"
   style="fill:none;stroke:#000000;stroke-width:0.33333331;stroke-linecap:butt;stroke-linejoin:miter;stroke-miterlimit:3.79999995;stroke-dasharray:none;stroke-opacity:1"
   d="m 47.240605,28.906713 h 6.136"
   inkscape:connector-curvature="0" /><path
   id="path84"
   style="fill:none;stroke:#000000;stroke-width:0.33333331;stroke-linecap:butt;stroke-linejoin:miter;stroke-miterlimit:3.79999995;stroke-dasharray:none;stroke-opacity:1"
   d="m 280.64193,28.906713 h -6.136"
   inkscape:connector-curvature="0" />





<path
   id="path92"
   style="fill:none;stroke:#000000;stroke-width:0.33333331;stroke-linecap:butt;stroke-linejoin:miter;stroke-miterlimit:3.79999995;stroke-dasharray:none;stroke-opacity:1"
   d="m 47.240605,5.5733798 h 6.136"
   inkscape:connector-curvature="0" /><path
   id="path94"
   style="fill:none;stroke:#000000;stroke-width:0.33333331;stroke-linecap:butt;stroke-linejoin:miter;stroke-miterlimit:3.79999995;stroke-dasharray:none;stroke-opacity:1"
   d="m 280.64193,5.5733798 h -6.136"
   inkscape:connector-curvature="0" /><text
   style="font-variant:normal;font-weight:normal;font-size:16px;font-family:'Times New Roman';-inkscape-font-specification:TimesNewRomanPSMT;writing-mode:lr-tb;fill:#000000;fill-opacity:1;fill-rule:nonzero;stroke:none;stroke-width:1.33333325"
   id="text100"
   x="-12.530758"
   y="10.8125"><tspan
     x="23.46924"
     id="tspan98"
     style="stroke-width:1.33333325">0.7</tspan></text>






<path
   id="path102"
   style="fill:none;stroke:#000000;stroke-width:0.33333331;stroke-linecap:butt;stroke-linejoin:miter;stroke-miterlimit:3.79999995;stroke-dasharray:none;stroke-opacity:1"
   d="m 47.240605,168.97472 v -6.136"
   inkscape:connector-curvature="0" /><path
   id="path104"
   style="fill:none;stroke:#000000;stroke-width:0.33333331;stroke-linecap:butt;stroke-linejoin:miter;stroke-miterlimit:3.79999995;stroke-dasharray:none;stroke-opacity:1"
   d="M 47.240605,5.5733798 V 11.70938"
   inkscape:connector-curvature="0" /><text
   style="font-variant:normal;font-weight:normal;font-size:16px;font-family:'Times New Roman';-inkscape-font-specification:TimesNewRomanPSMT;writing-mode:lr-tb;fill:#000000;fill-opacity:1;fill-rule:nonzero;stroke:none;stroke-width:1.33333325"
   id="text110"
   x="37.540604"
   y="190.43259"><tspan
     x="37.540604 44.932793 52.932793"
     y="190.43259"
     id="tspan108"
     style="stroke-width:1.33333325">110</tspan></text>






<path
   id="path112"
   style="fill:none;stroke:#000000;stroke-width:0.33333331;stroke-linecap:butt;stroke-linejoin:miter;stroke-miterlimit:3.79999995;stroke-dasharray:none;stroke-opacity:1"
   d="m 80.573942,168.97472 v -6.136"
   inkscape:connector-curvature="0" /><path
   id="path114"
   style="fill:none;stroke:#000000;stroke-width:0.33333331;stroke-linecap:butt;stroke-linejoin:miter;stroke-miterlimit:3.79999995;stroke-dasharray:none;stroke-opacity:1"
   d="M 80.573942,5.5733798 V 11.70938"
   inkscape:connector-curvature="0" /><text
   style="font-variant:normal;font-weight:normal;font-size:16px;font-family:'Times New Roman';-inkscape-font-specification:TimesNewRomanPSMT;writing-mode:lr-tb;fill:#000000;fill-opacity:1;fill-rule:nonzero;stroke:none;stroke-width:1.33333325"
   id="text120"
   x="70.573936"
   y="190.43259"><tspan
     x="70.573936 78.573944 86.573944"
     y="190.43259"
     id="tspan118"
     style="stroke-width:1.33333325">120</tspan></text>






<path
   id="path122"
   style="fill:none;stroke:#000000;stroke-width:0.33333331;stroke-linecap:butt;stroke-linejoin:miter;stroke-miterlimit:3.79999995;stroke-dasharray:none;stroke-opacity:1"
   d="m 113.90727,168.97472 v -6.136"
   inkscape:connector-curvature="0" /><path
   id="path124"
   style="fill:none;stroke:#000000;stroke-width:0.33333331;stroke-linecap:butt;stroke-linejoin:miter;stroke-miterlimit:3.79999995;stroke-dasharray:none;stroke-opacity:1"
   d="M 113.90727,5.5733798 V 11.70938"
   inkscape:connector-curvature="0" /><text
   style="font-variant:normal;font-weight:normal;font-size:16px;font-family:'Times New Roman';-inkscape-font-specification:TimesNewRomanPSMT;writing-mode:lr-tb;fill:#000000;fill-opacity:1;fill-rule:nonzero;stroke:none;stroke-width:1.33333325"
   id="text130"
   x="103.90727"
   y="190.43259"><tspan
     x="103.90727 111.90728 119.90728"
     y="190.43259"
     id="tspan128"
     style="stroke-width:1.33333325">130</tspan></text>






<path
   id="path132"
   style="fill:none;stroke:#000000;stroke-width:0.33333331;stroke-linecap:butt;stroke-linejoin:miter;stroke-miterlimit:3.79999995;stroke-dasharray:none;stroke-opacity:1"
   d="m 147.2406,168.97472 v -6.136"
   inkscape:connector-curvature="0" /><path
   id="path134"
   style="fill:none;stroke:#000000;stroke-width:0.33333331;stroke-linecap:butt;stroke-linejoin:miter;stroke-miterlimit:3.79999995;stroke-dasharray:none;stroke-opacity:1"
   d="M 147.2406,5.5733798 V 11.70938"
   inkscape:connector-curvature="0" /><text
   style="font-variant:normal;font-weight:normal;font-size:16px;font-family:'Times New Roman';-inkscape-font-specification:TimesNewRomanPSMT;writing-mode:lr-tb;fill:#000000;fill-opacity:1;fill-rule:nonzero;stroke:none;stroke-width:1.33333325"
   id="text140"
   x="137.24062"
   y="190.43259"><tspan
     x="137.24062 145.24062 153.24062"
     y="190.43259"
     id="tspan138"
     style="stroke-width:1.33333325">140</tspan></text>






<path
   id="path142"
   style="fill:none;stroke:#000000;stroke-width:0.33333331;stroke-linecap:butt;stroke-linejoin:miter;stroke-miterlimit:3.79999995;stroke-dasharray:none;stroke-opacity:1"
   d="m 180.64193,168.97472 v -6.136"
   inkscape:connector-curvature="0" /><path
   id="path144"
   style="fill:none;stroke:#000000;stroke-width:0.33333331;stroke-linecap:butt;stroke-linejoin:miter;stroke-miterlimit:3.79999995;stroke-dasharray:none;stroke-opacity:1"
   d="M 180.64193,5.5733798 V 11.70938"
   inkscape:connector-curvature="0" /><text
   style="font-variant:normal;font-weight:normal;font-size:16px;font-family:'Times New Roman';-inkscape-font-specification:TimesNewRomanPSMT;writing-mode:lr-tb;fill:#000000;fill-opacity:1;fill-rule:nonzero;stroke:none;stroke-width:1.33333325"
   id="text150"
   x="170.64061"
   y="190.43259"><tspan
     x="170.64061 178.64061 186.64061"
     y="190.43259"
     id="tspan148"
     style="stroke-width:1.33333325">150</tspan></text>






<path
   id="path152"
   style="fill:none;stroke:#000000;stroke-width:0.33333331;stroke-linecap:butt;stroke-linejoin:miter;stroke-miterlimit:3.79999995;stroke-dasharray:none;stroke-opacity:1"
   d="m 213.97526,168.97472 v -6.136"
   inkscape:connector-curvature="0" /><path
   id="path154"
   style="fill:none;stroke:#000000;stroke-width:0.33333331;stroke-linecap:butt;stroke-linejoin:miter;stroke-miterlimit:3.79999995;stroke-dasharray:none;stroke-opacity:1"
   d="M 213.97526,5.5733798 V 11.70938"
   inkscape:connector-curvature="0" /><text
   style="font-variant:normal;font-weight:normal;font-size:16px;font-family:'Times New Roman';-inkscape-font-specification:TimesNewRomanPSMT;writing-mode:lr-tb;fill:#000000;fill-opacity:1;fill-rule:nonzero;stroke:none;stroke-width:1.33333325"
   id="text160"
   x="203.97395"
   y="190.43259"><tspan
     x="203.97395 211.97395 219.97395"
     y="190.43259"
     id="tspan158"
     style="stroke-width:1.33333325">160</tspan></text>






<path
   id="path162"
   style="fill:none;stroke:#000000;stroke-width:0.33333331;stroke-linecap:butt;stroke-linejoin:miter;stroke-miterlimit:3.79999995;stroke-dasharray:none;stroke-opacity:1"
   d="m 247.3086,168.97472 v -6.136"
   inkscape:connector-curvature="0" /><path
   id="path164"
   style="fill:none;stroke:#000000;stroke-width:0.33333331;stroke-linecap:butt;stroke-linejoin:miter;stroke-miterlimit:3.79999995;stroke-dasharray:none;stroke-opacity:1"
   d="M 247.3086,5.5733798 V 11.70938"
   inkscape:connector-curvature="0" /><text
   style="font-variant:normal;font-weight:normal;font-size:16px;font-family:'Times New Roman';-inkscape-font-specification:TimesNewRomanPSMT;writing-mode:lr-tb;fill:#000000;fill-opacity:1;fill-rule:nonzero;stroke:none;stroke-width:1.33333325"
   id="text170"
   x="237.30728"
   y="190.43259"><tspan
     x="237.30728 245.30728 253.30728"
     y="190.43259"
     id="tspan168"
     style="stroke-width:1.33333325">170</tspan></text>






<path
   id="path172"
   style="fill:none;stroke:#000000;stroke-width:0.33333331;stroke-linecap:butt;stroke-linejoin:miter;stroke-miterlimit:3.79999995;stroke-dasharray:none;stroke-opacity:1"
   d="m 280.64193,168.97472 v -6.136"
   inkscape:connector-curvature="0" /><path
   id="path174"
   style="fill:none;stroke:#000000;stroke-width:0.33333331;stroke-linecap:butt;stroke-linejoin:miter;stroke-miterlimit:3.79999995;stroke-dasharray:none;stroke-opacity:1"
   d="M 280.64193,5.5733798 V 11.70938"
   inkscape:connector-curvature="0" /><text
   style="font-variant:normal;font-weight:normal;font-size:16px;font-family:'Times New Roman';-inkscape-font-specification:TimesNewRomanPSMT;writing-mode:lr-tb;fill:#000000;fill-opacity:1;fill-rule:nonzero;stroke:none;stroke-width:1.33333325"
   id="text180"
   x="270.64062"
   y="190.43259"><tspan
     x="270.64062 278.64062 286.64062"
     y="190.43259"
     id="tspan178"
     style="stroke-width:1.33333325">180</tspan></text>






<path
   id="path182"
   style="fill:none;stroke:#000000;stroke-width:0.33333331;stroke-linecap:butt;stroke-linejoin:miter;stroke-miterlimit:3.79999995;stroke-dasharray:none;stroke-opacity:1"
   d="M 47.240605,168.97472 H 280.64193 V 5.5733798 H 47.240605 Z"
   inkscape:connector-curvature="0" />

<path
   id="path198"
   style="fill:none;stroke:#000000;stroke-width:1.33333325;stroke-linecap:butt;stroke-linejoin:miter;stroke-miterlimit:3.79999995;stroke-dasharray:none;stroke-opacity:1"
   d="m 47.240605,168.83872 h 6.666667 l 3.333333,-0.0613 h 3.333333 l 3.333334,-0.0677 h 3.333333 l 6.666666,-0.13653 3.333331,-0.12907 6.66667,-0.136 3.33333,-0.136 3.33333,-0.12907 3.33334,-0.20426 3.33333,-0.19734 3.333328,-0.26506 3.33334,-0.33334 3.33333,-0.4016 3.33333,-0.53066 3.33334,-0.7344 3.33333,-0.8032 3.33333,-0.93174 3.33334,-1.19733 3.33333,-1.272 3.33333,-1.4624 3.33334,-1.46987 3.33333,-1.4624 3.33333,-1.33333 3.33334,-1.136 3.33333,-0.864 3.33333,-0.46933 3.33334,-0.0683 3.33333,0.4016 3.33333,0.864 3.40134,1.272 3.33333,1.53067 3.33333,1.73493 3.33333,1.79573 3.33334,1.7344 3.33333,1.5376 3.33333,1.33334 3.33334,1 3.33333,0.79573 3.33333,0.46987 3.33334,0.33333 3.33333,0.1968 3.33333,0.13653 3.33334,0.12907 3.33333,0.0677 3.33333,0.13654 3.33334,0.0677 3.33333,0.12907 3.33333,0.0683 h 3.33334 l 3.33333,0.0683 h 6.66667 l 3.33333,0.0677 h 13.33333 l 3.33334,0.0613 h 6.66666 l 3.33334,0.0677 h 10 l 3.33333,0.0683"
   inkscape:connector-curvature="0" /><path
   id="path208"
   style="fill:none;stroke:#ff0000;stroke-width:1.33333325;stroke-linecap:butt;stroke-linejoin:miter;stroke-miterlimit:3.79999995;stroke-dasharray:7.33333315, 2.93333326;stroke-dashoffset:0;stroke-opacity:1"
   d="m 47.240605,168.17205 h 16.666667 l 3.333333,-0.0613 6.666666,-0.272 3.333331,-0.2656 3.33334,-0.33334 3.33333,-0.4624 3.33333,-0.5376 3.33333,-0.5984 6.66667,-1.46933 3.333328,-0.93227 3.33334,-1.06773 3.33333,-1.33333 3.33333,-1.864 3.33334,-2.5984 3.33333,-3.46987 3.33333,-4.79573 3.33334,-6.272 3.33333,-8 3.33333,-9.66667 3.33334,-11.39467 3.33333,-13.401336 3.33333,-14.469333 3.33334,-14.795999 3.33333,-14.068 3.33333,-12.333333 3.33334,-9.469333 3.33333,-5.530667 3.33333,-1 3.40134,4 3.33333,8.666667 3.33333,12.734666 3.33333,15.796 3.33334,17.469333 3.33333,17.530675 3.33333,16.40133 3.33334,14.06827 3.33333,11.1968 3.33333,8 3.33334,5.20426 3.33333,2.93227 3.33333,1.40107 3.33334,0.66666 3.33333,0.33334 3.33333,0.39466 3.33334,0.60534 3.33333,0.66666 3.33333,0.59894 3.33334,0.53013 3.33333,0.33333 3.33333,0.13654 3.33334,0.12906 3.33333,0.0677 3.33333,0.13653 3.33334,0.12907 3.33333,0.136 3.33333,0.0683 3.33334,0.12907 6.66666,0.136 3.33334,0.136 3.33333,0.0613 3.33333,0.136 6.66667,0.136"
   inkscape:connector-curvature="0" /><path
   id="path210"
   style="fill:none;stroke:#000000;stroke-width:0.33333331;stroke-linecap:butt;stroke-linejoin:miter;stroke-miterlimit:3.79999995;stroke-dasharray:none;stroke-opacity:1"
   d="M 47.240605,168.97472 H 280.64193 V 5.5733798 H 47.240605 Z"
   inkscape:connector-curvature="0" /><text
   style="font-variant:normal;font-weight:normal;font-size:16px;font-family:'Times New Roman';-inkscape-font-specification:TimesNewRomanPSMT;writing-mode:lr-tb;fill:#000000;fill-opacity:1;fill-rule:nonzero;stroke:none;stroke-width:1.33333325"
   id="text188-9"
   x="183.41058"
   y="33.129021"><tspan
     id="tspan186-1"
     style="stroke-width:1.33333325"><tspan
   style="font-size:64.99999762%;baseline-shift:super"
   id="tspan290">210</tspan>Po</tspan></text>






<path
   id="path190"
   style="fill:none;stroke:#000000;stroke-width:1.33333325;stroke-linecap:butt;stroke-linejoin:miter;stroke-miterlimit:3.79999995;stroke-dasharray:none;stroke-opacity:1"
   d="m 219.47139,28.132361 h 38.13599"
   inkscape:connector-curvature="0" /><path
   id="path200"
   style="fill:none;stroke:#ff0000;stroke-width:1.33333325;stroke-linecap:butt;stroke-linejoin:miter;stroke-miterlimit:3.79999995;stroke-dasharray:7.33333315, 2.93333326;stroke-dashoffset:0;stroke-opacity:1"
   d="m 219.47139,54.601691 h 38.13599"
   inkscape:connector-curvature="0" /><text
   style="font-variant:normal;font-weight:normal;font-size:16px;font-family:'Times New Roman';-inkscape-font-specification:TimesNewRomanPSMT;writing-mode:lr-tb;fill:#000000;fill-opacity:1;fill-rule:nonzero;stroke:none;stroke-width:1.33333325"
   id="text188-3"
   x="183.55931"
   y="60.129478"><tspan
     id="tspan186-6"
     style="stroke-width:1.33333325"><tspan
   style="font-size:64.99999762%;baseline-shift:super"
   id="tspan290-7">212</tspan>Po</tspan></text>








<g
   id="g952"
   transform="matrix(1.5823637,0,0,1.5823637,-233.26079,-4.9253948)"
   ns0:preamble="/home/yoshidak/.config/inkscape/extensions/package.tex"
   ns0:text="$T_1^\\mathrm{A}$~(MeV)\n\n"><defs
   id="defs925">
<g
   id="g923">
<symbol
   id="textext-3292c756-0"
   overflow="visible"
   style="overflow:visible">
<path
   id="path890"
   d=""
   style="stroke:none"
   inkscape:connector-curvature="0" />
</symbol>
<symbol
   id="textext-3292c756-1"
   overflow="visible"
   style="overflow:visible">
<path
   id="path893"
   d="m 4.25,-6.046875 c 0.078125,-0.28125 0.109375,-0.34375 0.234375,-0.375 0.09375,-0.015625 0.421875,-0.015625 0.625,-0.015625 1.015625,0 1.453125,0.03125 1.453125,0.8125 0,0.15625 -0.03125,0.546875 -0.078125,0.796875 0,0.046875 -0.03125,0.15625 -0.03125,0.1875 0,0.0625 0.03125,0.140625 0.125,0.140625 0.109375,0 0.125,-0.078125 0.15625,-0.234375 L 7,-6.46875 C 7.015625,-6.515625 7.015625,-6.609375 7.015625,-6.640625 7.015625,-6.75 6.921875,-6.75 6.75,-6.75 H 1.21875 c -0.234375,0 -0.25,0.015625 -0.328125,0.203125 l -0.59375,1.75 c 0,0.015625 -0.0625,0.15625 -0.0625,0.1875 0,0.046875 0.0625,0.109375 0.125,0.109375 0.09375,0 0.109375,-0.0625 0.171875,-0.21875 C 1.0625,-6.265625 1.328125,-6.4375 2.796875,-6.4375 H 3.1875 c 0.28125,0 0.28125,0.03125 0.28125,0.125 0,0.046875 -0.03125,0.171875 -0.046875,0.203125 L 2.09375,-0.78125 C 2,-0.421875 1.96875,-0.3125 0.90625,-0.3125 c -0.359375,0 -0.421875,0 -0.421875,0.1875 C 0.484375,0 0.59375,0 0.65625,0 c 0.265625,0 0.546875,-0.015625 0.8125,-0.015625 0.28125,0 0.578125,-0.015625 0.859375,-0.015625 0.28125,0 0.546875,0.015625 0.828125,0.015625 C 3.4375,-0.015625 3.734375,0 4.015625,0 c 0.09375,0 0.21875,0 0.21875,-0.203125 0,-0.109375 -0.078125,-0.109375 -0.34375,-0.109375 -0.234375,0 -0.375,0 -0.625,-0.015625 -0.296875,-0.03125 -0.375,-0.0625 -0.375,-0.21875 0,-0.015625 0,-0.0625 0.046875,-0.203125 z m 0,0"
   style="stroke:none"
   inkscape:connector-curvature="0" />
</symbol>
<symbol
   id="textext-3292c756-2"
   overflow="visible"
   style="overflow:visible">
<path
   id="path896"
   d=""
   style="stroke:none"
   inkscape:connector-curvature="0" />
</symbol>
<symbol
   id="textext-3292c756-3"
   overflow="visible"
   style="overflow:visible">
<path
   id="path899"
   d="M 3.125,-4.8125 C 3.09375,-4.921875 3.0625,-4.96875 2.9375,-4.96875 c -0.140625,0 -0.15625,0.046875 -0.203125,0.15625 L 1.125,-0.734375 C 1.0625,-0.5625 0.9375,-0.25 0.3125,-0.25 V 0 C 0.546875,-0.015625 0.796875,-0.03125 1.03125,-0.03125 1.3125,-0.03125 1.828125,0 1.875,0 v -0.25 c -0.3125,0 -0.515625,-0.140625 -0.515625,-0.328125 0,-0.0625 0.015625,-0.078125 0.046875,-0.140625 L 1.734375,-1.578125 H 3.71875 L 4.125,-0.5625 c 0,0.03125 0.03125,0.078125 0.03125,0.109375 C 4.15625,-0.25 3.78125,-0.25 3.59375,-0.25 V 0 C 3.9375,-0.015625 4.390625,-0.03125 4.625,-0.03125 4.953125,-0.03125 5.484375,0 5.546875,0 v -0.25 h -0.125 c -0.46875,0 -0.515625,-0.078125 -0.59375,-0.265625 z m -0.40625,0.71875 0.890625,2.265625 h -1.78125 z m 0,0"
   style="stroke:none"
   inkscape:connector-curvature="0" />
</symbol>
<symbol
   id="textext-3292c756-4"
   overflow="visible"
   style="overflow:visible">
<path
   id="path902"
   d="m 2.328125,-4.4375 c 0,-0.1875 0,-0.1875 -0.203125,-0.1875 -0.453125,0.4375 -1.078125,0.4375 -1.359375,0.4375 v 0.25 c 0.15625,0 0.625,0 1,-0.1875 v 3.546875 c 0,0.234375 0,0.328125 -0.6875,0.328125 H 0.8125 V 0 c 0.125,0 0.984375,-0.03125 1.234375,-0.03125 0.21875,0 1.09375,0.03125 1.25,0.03125 V -0.25 H 3.03125 c -0.703125,0 -0.703125,-0.09375 -0.703125,-0.328125 z m 0,0"
   style="stroke:none"
   inkscape:connector-curvature="0" />
</symbol>
<symbol
   id="textext-3292c756-5"
   overflow="visible"
   style="overflow:visible">
<path
   id="path905"
   d=""
   style="stroke:none"
   inkscape:connector-curvature="0" />
</symbol>
<symbol
   id="textext-3292c756-6"
   overflow="visible"
   style="overflow:visible">
<path
   id="path908"
   d="m 3.296875,2.390625 c 0,-0.03125 0,-0.046875 -0.171875,-0.21875 C 1.890625,0.921875 1.5625,-0.96875 1.5625,-2.5 c 0,-1.734375 0.375,-3.46875 1.609375,-4.703125 0.125,-0.125 0.125,-0.140625 0.125,-0.171875 0,-0.078125 -0.03125,-0.109375 -0.09375,-0.109375 -0.109375,0 -1,0.6875 -1.59375,1.953125 -0.5,1.09375 -0.625,2.203125 -0.625,3.03125 0,0.78125 0.109375,1.984375 0.65625,3.125 C 2.25,1.84375 3.09375,2.5 3.203125,2.5 c 0.0625,0 0.09375,-0.03125 0.09375,-0.109375 z m 0,0"
   style="stroke:none"
   inkscape:connector-curvature="0" />
</symbol>
<symbol
   id="textext-3292c756-7"
   overflow="visible"
   style="overflow:visible">
<path
   id="path911"
   d="M 2.40625,-6.59375 C 2.3125,-6.8125 2.28125,-6.8125 2.046875,-6.8125 H 0.375 V -6.5 h 0.234375 c 0.765625,0 0.78125,0.109375 0.78125,0.46875 v 4.984375 c 0,0.265625 0,0.734375 -1.015625,0.734375 V 0 c 0.34375,-0.015625 0.828125,-0.03125 1.15625,-0.03125 0.328125,0 0.828125,0.015625 1.171875,0.03125 v -0.3125 c -1.03125,0 -1.03125,-0.46875 -1.03125,-0.734375 v -5.375 H 1.6875 L 4.09375,-0.21875 C 4.140625,-0.09375 4.1875,0 4.28125,0 4.390625,0 4.421875,-0.078125 4.46875,-0.1875 L 6.921875,-6.5 v 5.71875 c 0,0.359375 -0.015625,0.46875 -0.78125,0.46875 H 5.90625 V 0 c 0.359375,-0.03125 1.046875,-0.03125 1.4375,-0.03125 0.375,0 1.046875,0 1.421875,0.03125 v -0.3125 h -0.25 c -0.765625,0 -0.78125,-0.109375 -0.78125,-0.46875 v -5.25 C 7.734375,-6.390625 7.75,-6.5 8.515625,-6.5 h 0.25 v -0.3125 h -1.6875 C 6.8125,-6.8125 6.8125,-6.796875 6.75,-6.625 L 4.5625,-1 Z m 0,0"
   style="stroke:none"
   inkscape:connector-curvature="0" />
</symbol>
<symbol
   id="textext-3292c756-8"
   overflow="visible"
   style="overflow:visible">
<path
   id="path914"
   d="M 1.109375,-2.515625 C 1.171875,-4 2.015625,-4.25 2.359375,-4.25 c 1.015625,0 1.125,1.34375 1.125,1.734375 z m 0,0.21875 h 2.78125 c 0.21875,0 0.25,0 0.25,-0.21875 0,-0.984375 -0.546875,-1.953125 -1.78125,-1.953125 -1.15625,0 -2.078125,1.03125 -2.078125,2.28125 0,1.328125 1.046875,2.296875 2.1875,2.296875 C 3.6875,0.109375 4.140625,-1 4.140625,-1.1875 4.140625,-1.28125 4.0625,-1.3125 4,-1.3125 c -0.078125,0 -0.109375,0.0625 -0.125,0.140625 -0.34375,1.03125 -1.25,1.03125 -1.34375,1.03125 -0.5,0 -0.890625,-0.296875 -1.125,-0.671875 -0.296875,-0.46875 -0.296875,-1.125 -0.296875,-1.484375 z m 0,0"
   style="stroke:none"
   inkscape:connector-curvature="0" />
</symbol>
<symbol
   id="textext-3292c756-9"
   overflow="visible"
   style="overflow:visible">
<path
   id="path917"
   d="M 6.1875,-5.828125 C 6.328125,-6.203125 6.59375,-6.484375 7.28125,-6.5 v -0.3125 c -0.3125,0.03125 -0.71875,0.03125 -0.96875,0.03125 -0.296875,0 -0.875,-0.015625 -1.140625,-0.03125 V -6.5 C 5.6875,-6.484375 5.90625,-6.234375 5.90625,-6 c 0,0.078125 -0.03125,0.140625 -0.046875,0.203125 L 4.03125,-1 2.125,-6.03125 C 2.0625,-6.171875 2.0625,-6.1875 2.0625,-6.203125 2.0625,-6.5 2.625,-6.5 2.875,-6.5 v -0.3125 c -0.359375,0.03125 -1.046875,0.03125 -1.421875,0.03125 -0.46875,0 -0.90625,-0.015625 -1.265625,-0.03125 V -6.5 c 0.65625,0 0.84375,0 0.984375,0.375 L 3.484375,0 c 0.0625,0.1875 0.109375,0.21875 0.25,0.21875 0.15625,0 0.1875,-0.046875 0.234375,-0.1875 z m 0,0"
   style="stroke:none"
   inkscape:connector-curvature="0" />
</symbol>
<symbol
   id="textext-3292c756-10"
   overflow="visible"
   style="overflow:visible">
<path
   id="path920"
   d="m 2.875,-2.5 c 0,-0.765625 -0.109375,-1.96875 -0.65625,-3.109375 -0.59375,-1.21875 -1.453125,-1.875 -1.546875,-1.875 -0.0625,0 -0.109375,0.046875 -0.109375,0.109375 0,0.03125 0,0.046875 0.1875,0.234375 0.984375,0.984375 1.546875,2.5625 1.546875,4.640625 0,1.71875 -0.359375,3.46875 -1.59375,4.71875 C 0.5625,2.34375 0.5625,2.359375 0.5625,2.390625 0.5625,2.453125 0.609375,2.5 0.671875,2.5 0.765625,2.5 1.671875,1.8125 2.25,0.546875 2.765625,-0.546875 2.875,-1.65625 2.875,-2.5 Z m 0,0"
   style="stroke:none"
   inkscape:connector-curvature="0" />
</symbol>
</g>
</defs>
<g
   id="textext-3292c756-11">
<g
   id="g929"
   style="fill:#000000;fill-opacity:1">
  <use
   id="use927"
   y="134.765"
   x="223.43201"
   xlink:href="#textext-3292c756-1"
   width="100%"
   height="100%" />
</g>
<g
   id="g933"
   style="fill:#000000;fill-opacity:1">
  <use
   id="use931"
   y="131.14999"
   x="230.638"
   xlink:href="#textext-3292c756-3"
   width="100%"
   height="100%" />
</g>
<g
   id="g937"
   style="fill:#000000;fill-opacity:1">
  <use
   id="use935"
   y="137.23801"
   x="229.254"
   xlink:href="#textext-3292c756-4"
   width="100%"
   height="100%" />
</g>
<g
   id="g949"
   style="fill:#000000;fill-opacity:1">
  <use
   id="use939"
   y="134.765"
   x="240.33701"
   xlink:href="#textext-3292c756-6"
   width="100%"
   height="100%" />
  <use
   id="use941"
   y="134.765"
   x="244.21146"
   xlink:href="#textext-3292c756-7"
   width="100%"
   height="100%" />
  <use
   id="use943"
   y="134.765"
   x="253.34418"
   xlink:href="#textext-3292c756-8"
   width="100%"
   height="100%" />
  <use
   id="use945"
   y="134.765"
   x="257.77155"
   xlink:href="#textext-3292c756-9"
   width="100%"
   height="100%" />
  <use
   id="use947"
   y="134.765"
   x="265.2435"
   xlink:href="#textext-3292c756-10"
   width="100%"
   height="100%" />
</g>
</g>
</g><g
   id="g1325"
   transform="matrix(0,-1.3837069,1.3837069,0,-174.59786,514.78236)"
   ns0:preamble="/home/yoshidak/.config/inkscape/extensions/package.tex"
   ns0:text="$d\\sigma^3/dE_1^\\mathrm{A} d\\Omega_1^\\mathrm{A} d\\Omega_\\alpha^\\mathrm{A}$~[pb/(MeV sr$^2$)]\n\n"><defs
   id="defs1230">
<g
   id="g1228">
<symbol
   id="textext-efd0f292-0"
   overflow="visible"
   style="overflow:visible">
<path
   id="path1150"
   d=""
   style="stroke:none"
   inkscape:connector-curvature="0" />
</symbol>
<symbol
   id="textext-efd0f292-1"
   overflow="visible"
   style="overflow:visible">
<path
   id="path1153"
   d="m 5.140625,-6.8125 c 0,0 0,-0.109375 -0.125,-0.109375 -0.15625,0 -1.09375,0.09375 -1.265625,0.109375 -0.078125,0.015625 -0.140625,0.0625 -0.140625,0.1875 0,0.125 0.09375,0.125 0.234375,0.125 0.484375,0 0.5,0.0625 0.5,0.171875 L 4.3125,-6.125 3.71875,-3.765625 C 3.53125,-4.140625 3.25,-4.40625 2.796875,-4.40625 c -1.15625,0 -2.390625,1.46875 -2.390625,2.921875 0,0.9375 0.546875,1.59375 1.3125,1.59375 0.203125,0 0.703125,-0.046875 1.296875,-0.75 0.078125,0.421875 0.4375,0.75 0.90625,0.75 0.359375,0 0.578125,-0.234375 0.75,-0.546875 0.15625,-0.359375 0.296875,-0.96875 0.296875,-0.984375 0,-0.109375 -0.09375,-0.109375 -0.125,-0.109375 -0.09375,0 -0.109375,0.046875 -0.140625,0.1875 -0.171875,0.640625 -0.34375,1.234375 -0.75,1.234375 -0.28125,0 -0.296875,-0.265625 -0.296875,-0.453125 0,-0.25 0.015625,-0.3125 0.046875,-0.484375 z m -2.0625,5.625 C 3.015625,-1 3.015625,-0.984375 2.875,-0.8125 2.4375,-0.265625 2.03125,-0.109375 1.75,-0.109375 c -0.5,0 -0.640625,-0.546875 -0.640625,-0.9375 0,-0.5 0.3125,-1.71875 0.546875,-2.1875 0.3125,-0.578125 0.75,-0.953125 1.15625,-0.953125 0.640625,0 0.78125,0.8125 0.78125,0.875 0,0.0625 -0.015625,0.125 -0.03125,0.171875 z m 0,0"
   style="stroke:none"
   inkscape:connector-curvature="0" />
</symbol>
<symbol
   id="textext-efd0f292-2"
   overflow="visible"
   style="overflow:visible">
<path
   id="path1156"
   d="m 5.15625,-3.71875 c 0.140625,0 0.5,0 0.5,-0.34375 0,-0.234375 -0.21875,-0.234375 -0.390625,-0.234375 h -2.28125 c -1.5,0 -2.609375,1.640625 -2.609375,2.828125 0,0.875 0.59375,1.578125 1.5,1.578125 1.171875,0 2.5,-1.203125 2.5,-2.734375 0,-0.171875 0,-0.65625 -0.3125,-1.09375 z M 1.890625,-0.109375 C 1.390625,-0.109375 1,-0.46875 1,-1.1875 c 0,-0.296875 0.109375,-1.109375 0.46875,-1.703125 0.421875,-0.6875 1.015625,-0.828125 1.359375,-0.828125 0.828125,0 0.90625,0.65625 0.90625,0.96875 0,0.46875 -0.203125,1.28125 -0.53125,1.796875 -0.390625,0.578125 -0.9375,0.84375 -1.3125,0.84375 z m 0,0"
   style="stroke:none"
   inkscape:connector-curvature="0" />
</symbol>
<symbol
   id="textext-efd0f292-3"
   overflow="visible"
   style="overflow:visible">
<path
   id="path1159"
   d="m 4.375,-7.09375 c 0.046875,-0.140625 0.046875,-0.171875 0.046875,-0.1875 0,-0.109375 -0.078125,-0.203125 -0.1875,-0.203125 -0.078125,0 -0.140625,0.03125 -0.171875,0.09375 l -3.46875,9.5 C 0.546875,2.25 0.546875,2.28125 0.546875,2.296875 0.546875,2.40625 0.640625,2.5 0.75,2.5 0.875,2.5 0.90625,2.421875 0.96875,2.25 Z m 0,0"
   style="stroke:none"
   inkscape:connector-curvature="0" />
</symbol>
<symbol
   id="textext-efd0f292-4"
   overflow="visible"
   style="overflow:visible">
<path
   id="path1162"
   d="M 7.0625,-2.328125 C 7.078125,-2.375 7.109375,-2.4375 7.109375,-2.46875 c 0,0 0,-0.109375 -0.125,-0.109375 -0.09375,0 -0.109375,0.0625 -0.125,0.125 C 6.203125,-0.984375 5.84375,-0.3125 4.140625,-0.3125 H 2.6875 c -0.140625,0 -0.171875,0 -0.21875,0 -0.109375,-0.015625 -0.140625,-0.03125 -0.140625,-0.109375 0,-0.03125 0,-0.046875 0.046875,-0.21875 L 3.0625,-3.375 h 0.984375 c 0.84375,0 0.84375,0.21875 0.84375,0.46875 0,0.0625 0,0.1875 -0.0625,0.484375 C 4.8125,-2.375 4.796875,-2.34375 4.796875,-2.3125 c 0,0.046875 0.03125,0.109375 0.125,0.109375 C 5,-2.203125 5.03125,-2.25 5.078125,-2.40625 l 0.5625,-2.328125 c 0,-0.0625 -0.046875,-0.109375 -0.125,-0.109375 -0.078125,0 -0.109375,0.0625 -0.125,0.171875 -0.21875,0.765625 -0.390625,1 -1.3125,1 h -0.9375 l 0.59375,-2.40625 C 3.828125,-6.4375 3.84375,-6.46875 4.28125,-6.46875 H 5.6875 c 1.203125,0 1.515625,0.28125 1.515625,1.109375 0,0.234375 0,0.25 -0.046875,0.53125 0,0.046875 -0.015625,0.125 -0.015625,0.171875 0,0.046875 0.03125,0.125 0.125,0.125 0.109375,0 0.125,-0.0625 0.140625,-0.25 L 7.609375,-6.515625 C 7.640625,-6.78125 7.59375,-6.78125 7.34375,-6.78125 H 2.296875 c -0.1875,0 -0.296875,0 -0.296875,0.203125 0,0.109375 0.09375,0.109375 0.28125,0.109375 0.375,0 0.65625,0 0.65625,0.171875 0,0.046875 0,0.0625 -0.0625,0.25 L 1.5625,-0.78125 c -0.09375,0.390625 -0.109375,0.46875 -0.90625,0.46875 -0.171875,0 -0.28125,0 -0.28125,0.1875 C 0.375,0 0.46875,0 0.65625,0 h 5.171875 c 0.234375,0 0.25,-0.015625 0.3125,-0.171875 z m 0,0"
   style="stroke:none"
   inkscape:connector-curvature="0" />
</symbol>
<symbol
   id="textext-efd0f292-5"
   overflow="visible"
   style="overflow:visible">
<path
   id="path1165"
   d=""
   style="stroke:none"
   inkscape:connector-curvature="0" />
</symbol>
<symbol
   id="textext-efd0f292-6"
   overflow="visible"
   style="overflow:visible">
<path
   id="path1168"
   d="m 1.90625,-2.328125 c 0.546875,0 0.9375,0.375 0.9375,1.125 0,0.859375 -0.515625,1.125 -0.90625,1.125 -0.28125,0 -0.90625,-0.078125 -1.1875,-0.5 0.328125,0 0.40625,-0.234375 0.40625,-0.390625 0,-0.21875 -0.171875,-0.375 -0.390625,-0.375 -0.1875,0 -0.390625,0.125 -0.390625,0.40625 0,0.65625 0.71875,1.078125 1.5625,1.078125 0.96875,0 1.640625,-0.65625 1.640625,-1.34375 0,-0.546875 -0.4375,-1.09375 -1.203125,-1.25 0.71875,-0.265625 0.984375,-0.78125 0.984375,-1.21875 0,-0.546875 -0.625,-0.953125 -1.40625,-0.953125 -0.765625,0 -1.359375,0.375 -1.359375,0.9375 0,0.234375 0.15625,0.359375 0.359375,0.359375 0.21875,0 0.359375,-0.15625 0.359375,-0.34375 0,-0.203125 -0.140625,-0.359375 -0.359375,-0.375 0.25,-0.296875 0.71875,-0.375 0.984375,-0.375 0.3125,0 0.75,0.15625 0.75,0.75 0,0.296875 -0.09375,0.625 -0.28125,0.828125 -0.21875,0.265625 -0.421875,0.28125 -0.765625,0.3125 -0.171875,0.015625 -0.1875,0.015625 -0.21875,0.015625 -0.015625,0 -0.078125,0.015625 -0.078125,0.09375 0,0.09375 0.0625,0.09375 0.1875,0.09375 z m 0,0"
   style="stroke:none"
   inkscape:connector-curvature="0" />
</symbol>
<symbol
   id="textext-efd0f292-7"
   overflow="visible"
   style="overflow:visible">
<path
   id="path1171"
   d="M 3.125,-4.8125 C 3.09375,-4.921875 3.0625,-4.96875 2.9375,-4.96875 c -0.140625,0 -0.15625,0.046875 -0.203125,0.15625 L 1.125,-0.734375 C 1.0625,-0.5625 0.9375,-0.25 0.3125,-0.25 V 0 C 0.546875,-0.015625 0.796875,-0.03125 1.03125,-0.03125 1.3125,-0.03125 1.828125,0 1.875,0 v -0.25 c -0.3125,0 -0.515625,-0.140625 -0.515625,-0.328125 0,-0.0625 0.015625,-0.078125 0.046875,-0.140625 L 1.734375,-1.578125 H 3.71875 L 4.125,-0.5625 c 0,0.03125 0.03125,0.078125 0.03125,0.109375 C 4.15625,-0.25 3.78125,-0.25 3.59375,-0.25 V 0 C 3.9375,-0.015625 4.390625,-0.03125 4.625,-0.03125 4.953125,-0.03125 5.484375,0 5.546875,0 v -0.25 h -0.125 c -0.46875,0 -0.515625,-0.078125 -0.59375,-0.265625 z m -0.40625,0.71875 0.890625,2.265625 h -1.78125 z m 0,0"
   style="stroke:none"
   inkscape:connector-curvature="0" />
</symbol>
<symbol
   id="textext-efd0f292-8"
   overflow="visible"
   style="overflow:visible">
<path
   id="path1174"
   d="m 2.328125,-4.4375 c 0,-0.1875 0,-0.1875 -0.203125,-0.1875 -0.453125,0.4375 -1.078125,0.4375 -1.359375,0.4375 v 0.25 c 0.15625,0 0.625,0 1,-0.1875 v 3.546875 c 0,0.234375 0,0.328125 -0.6875,0.328125 H 0.8125 V 0 c 0.125,0 0.984375,-0.03125 1.234375,-0.03125 0.21875,0 1.09375,0.03125 1.25,0.03125 V -0.25 H 3.03125 c -0.703125,0 -0.703125,-0.09375 -0.703125,-0.328125 z m 0,0"
   style="stroke:none"
   inkscape:connector-curvature="0" />
</symbol>
<symbol
   id="textext-efd0f292-9"
   overflow="visible"
   style="overflow:visible">
<path
   id="path1177"
   d="M 3.515625,-1.265625 H 3.28125 c -0.015625,0.15625 -0.09375,0.5625 -0.1875,0.625 C 3.046875,-0.59375 2.515625,-0.59375 2.40625,-0.59375 H 1.125 c 0.734375,-0.640625 0.984375,-0.84375 1.390625,-1.171875 0.515625,-0.40625 1,-0.84375 1,-1.5 0,-0.84375 -0.734375,-1.359375 -1.625,-1.359375 -0.859375,0 -1.453125,0.609375 -1.453125,1.25 0,0.34375 0.296875,0.390625 0.375,0.390625 0.15625,0 0.359375,-0.125 0.359375,-0.375 0,-0.125 -0.046875,-0.375 -0.40625,-0.375 C 0.984375,-4.21875 1.453125,-4.375 1.78125,-4.375 c 0.703125,0 1.0625,0.546875 1.0625,1.109375 0,0.609375 -0.4375,1.078125 -0.65625,1.328125 L 0.515625,-0.265625 C 0.4375,-0.203125 0.4375,-0.1875 0.4375,0 h 2.875 z m 0,0"
   style="stroke:none"
   inkscape:connector-curvature="0" />
</symbol>
<symbol
   id="textext-efd0f292-10"
   overflow="visible"
   style="overflow:visible">
<path
   id="path1180"
   d=""
   style="stroke:none"
   inkscape:connector-curvature="0" />
</symbol>
<symbol
   id="textext-efd0f292-11"
   overflow="visible"
   style="overflow:visible">
<path
   id="path1183"
   d="M 6.75,-1.609375 H 6.5 c -0.046875,0.25 -0.09375,0.484375 -0.1875,0.71875 -0.046875,0.15625 -0.078125,0.25 -0.65625,0.25 H 4.859375 C 5,-1.203125 5.296875,-1.6875 5.75,-2.34375 c 0.46875,-0.703125 0.875,-1.390625 0.875,-2.1875 0,-1.375 -1.34375,-2.5 -3.03125,-2.5 -1.703125,0 -3.03125,1.140625 -3.03125,2.5 0,0.796875 0.40625,1.484375 0.875,2.1875 0.4375,0.65625 0.75,1.140625 0.890625,1.703125 H 1.53125 C 0.953125,-0.640625 0.921875,-0.734375 0.875,-0.875 0.78125,-1.109375 0.734375,-1.359375 0.6875,-1.609375 h -0.25 L 0.765625,0 h 1.59375 c 0.21875,0 0.25,0 0.25,-0.203125 0,-0.703125 -0.3125,-1.578125 -0.53125,-2.21875 -0.21875,-0.578125 -0.5,-1.359375 -0.5,-2.109375 0,-1.59375 1.109375,-2.28125 2.015625,-2.28125 0.953125,0 2.015625,0.71875 2.015625,2.28125 0,0.75 -0.28125,1.5 -0.5625,2.3125 -0.15625,0.421875 -0.46875,1.328125 -0.46875,2.015625 C 4.578125,0 4.609375,0 4.828125,0 h 1.59375 z m 0,0"
   style="stroke:none"
   inkscape:connector-curvature="0" />
</symbol>
<symbol
   id="textext-efd0f292-12"
   overflow="visible"
   style="overflow:visible">
<path
   id="path1186"
   d="M 2.546875,2.5 V 2.09375 h -0.96875 v -9.171875 h 0.96875 v -0.40625 h -1.375 V 2.5 Z m 0,0"
   style="stroke:none"
   inkscape:connector-curvature="0" />
</symbol>
<symbol
   id="textext-efd0f292-13"
   overflow="visible"
   style="overflow:visible">
<path
   id="path1189"
   d="m 1.71875,-3.75 v -0.65625 l -1.4375,0.109375 v 0.3125 c 0.703125,0 0.78125,0.0625 0.78125,0.5 v 4.65625 C 1.0625,1.625 0.953125,1.625 0.28125,1.625 V 1.9375 C 0.625,1.921875 1.140625,1.90625 1.390625,1.90625 c 0.28125,0 0.78125,0.015625 1.125,0.03125 V 1.625 C 1.859375,1.625 1.75,1.625 1.75,1.171875 V -0.59375 c 0.046875,0.171875 0.46875,0.703125 1.21875,0.703125 1.1875,0 2.21875,-0.984375 2.21875,-2.265625 0,-1.265625 -0.953125,-2.25 -2.078125,-2.25 -0.78125,0 -1.203125,0.4375 -1.390625,0.65625 z M 1.75,-1.140625 v -2.21875 C 2.03125,-3.875 2.515625,-4.15625 3.03125,-4.15625 c 0.734375,0 1.328125,0.875 1.328125,2 0,1.203125 -0.6875,2.046875 -1.421875,2.046875 -0.40625,0 -0.78125,-0.203125 -1.046875,-0.609375 C 1.75,-0.921875 1.75,-0.9375 1.75,-1.140625 Z m 0,0"
   style="stroke:none"
   inkscape:connector-curvature="0" />
</symbol>
<symbol
   id="textext-efd0f292-14"
   overflow="visible"
   style="overflow:visible">
<path
   id="path1192"
   d="m 1.71875,-3.765625 v -3.15625 L 0.28125,-6.8125 V -6.5 c 0.703125,0 0.78125,0.0625 0.78125,0.5625 V 0 h 0.25 c 0,-0.015625 0.078125,-0.15625 0.359375,-0.625 0.140625,0.234375 0.5625,0.734375 1.296875,0.734375 1.1875,0 2.21875,-0.984375 2.21875,-2.265625 0,-1.265625 -0.96875,-2.25 -2.109375,-2.25 -0.78125,0 -1.203125,0.46875 -1.359375,0.640625 z m 0.03125,2.625 V -3.1875 c 0,-0.1875 0,-0.203125 0.109375,-0.359375 C 2.25,-4.109375 2.796875,-4.1875 3.03125,-4.1875 c 0.453125,0 0.8125,0.265625 1.046875,0.640625 0.265625,0.40625 0.28125,0.96875 0.28125,1.390625 0,0.359375 -0.015625,0.953125 -0.296875,1.40625 -0.21875,0.3125 -0.59375,0.640625 -1.125,0.640625 -0.453125,0 -0.8125,-0.234375 -1.046875,-0.609375 C 1.75,-0.921875 1.75,-0.953125 1.75,-1.140625 Z m 0,0"
   style="stroke:none"
   inkscape:connector-curvature="0" />
</symbol>
<symbol
   id="textext-efd0f292-15"
   overflow="visible"
   style="overflow:visible">
<path
   id="path1195"
   d="m 4.359375,-7.09375 c 0.0625,-0.140625 0.0625,-0.15625 0.0625,-0.1875 0,-0.109375 -0.09375,-0.203125 -0.203125,-0.203125 C 4.078125,-7.484375 4.03125,-7.375 4,-7.28125 L 0.609375,2.109375 C 0.5625,2.25 0.5625,2.265625 0.5625,2.296875 0.5625,2.40625 0.640625,2.5 0.75,2.5 0.890625,2.5 0.9375,2.390625 0.96875,2.296875 Z m 0,0"
   style="stroke:none"
   inkscape:connector-curvature="0" />
</symbol>
<symbol
   id="textext-efd0f292-16"
   overflow="visible"
   style="overflow:visible">
<path
   id="path1198"
   d="m 3.296875,2.390625 c 0,-0.03125 0,-0.046875 -0.171875,-0.21875 C 1.890625,0.921875 1.5625,-0.96875 1.5625,-2.5 c 0,-1.734375 0.375,-3.46875 1.609375,-4.703125 0.125,-0.125 0.125,-0.140625 0.125,-0.171875 0,-0.078125 -0.03125,-0.109375 -0.09375,-0.109375 -0.109375,0 -1,0.6875 -1.59375,1.953125 -0.5,1.09375 -0.625,2.203125 -0.625,3.03125 0,0.78125 0.109375,1.984375 0.65625,3.125 C 2.25,1.84375 3.09375,2.5 3.203125,2.5 c 0.0625,0 0.09375,-0.03125 0.09375,-0.109375 z m 0,0"
   style="stroke:none"
   inkscape:connector-curvature="0" />
</symbol>
<symbol
   id="textext-efd0f292-17"
   overflow="visible"
   style="overflow:visible">
<path
   id="path1201"
   d="M 2.40625,-6.59375 C 2.3125,-6.8125 2.28125,-6.8125 2.046875,-6.8125 H 0.375 V -6.5 h 0.234375 c 0.765625,0 0.78125,0.109375 0.78125,0.46875 v 4.984375 c 0,0.265625 0,0.734375 -1.015625,0.734375 V 0 c 0.34375,-0.015625 0.828125,-0.03125 1.15625,-0.03125 0.328125,0 0.828125,0.015625 1.171875,0.03125 v -0.3125 c -1.03125,0 -1.03125,-0.46875 -1.03125,-0.734375 v -5.375 H 1.6875 L 4.09375,-0.21875 C 4.140625,-0.09375 4.1875,0 4.28125,0 4.390625,0 4.421875,-0.078125 4.46875,-0.1875 L 6.921875,-6.5 v 5.71875 c 0,0.359375 -0.015625,0.46875 -0.78125,0.46875 H 5.90625 V 0 c 0.359375,-0.03125 1.046875,-0.03125 1.4375,-0.03125 0.375,0 1.046875,0 1.421875,0.03125 v -0.3125 h -0.25 c -0.765625,0 -0.78125,-0.109375 -0.78125,-0.46875 v -5.25 C 7.734375,-6.390625 7.75,-6.5 8.515625,-6.5 h 0.25 v -0.3125 h -1.6875 C 6.8125,-6.8125 6.8125,-6.796875 6.75,-6.625 L 4.5625,-1 Z m 0,0"
   style="stroke:none"
   inkscape:connector-curvature="0" />
</symbol>
<symbol
   id="textext-efd0f292-18"
   overflow="visible"
   style="overflow:visible">
<path
   id="path1204"
   d="M 1.109375,-2.515625 C 1.171875,-4 2.015625,-4.25 2.359375,-4.25 c 1.015625,0 1.125,1.34375 1.125,1.734375 z m 0,0.21875 h 2.78125 c 0.21875,0 0.25,0 0.25,-0.21875 0,-0.984375 -0.546875,-1.953125 -1.78125,-1.953125 -1.15625,0 -2.078125,1.03125 -2.078125,2.28125 0,1.328125 1.046875,2.296875 2.1875,2.296875 C 3.6875,0.109375 4.140625,-1 4.140625,-1.1875 4.140625,-1.28125 4.0625,-1.3125 4,-1.3125 c -0.078125,0 -0.109375,0.0625 -0.125,0.140625 -0.34375,1.03125 -1.25,1.03125 -1.34375,1.03125 -0.5,0 -0.890625,-0.296875 -1.125,-0.671875 -0.296875,-0.46875 -0.296875,-1.125 -0.296875,-1.484375 z m 0,0"
   style="stroke:none"
   inkscape:connector-curvature="0" />
</symbol>
<symbol
   id="textext-efd0f292-19"
   overflow="visible"
   style="overflow:visible">
<path
   id="path1207"
   d="M 6.1875,-5.828125 C 6.328125,-6.203125 6.59375,-6.484375 7.28125,-6.5 v -0.3125 c -0.3125,0.03125 -0.71875,0.03125 -0.96875,0.03125 -0.296875,0 -0.875,-0.015625 -1.140625,-0.03125 V -6.5 C 5.6875,-6.484375 5.90625,-6.234375 5.90625,-6 c 0,0.078125 -0.03125,0.140625 -0.046875,0.203125 L 4.03125,-1 2.125,-6.03125 C 2.0625,-6.171875 2.0625,-6.1875 2.0625,-6.203125 2.0625,-6.5 2.625,-6.5 2.875,-6.5 v -0.3125 c -0.359375,0.03125 -1.046875,0.03125 -1.421875,0.03125 -0.46875,0 -0.90625,-0.015625 -1.265625,-0.03125 V -6.5 c 0.65625,0 0.84375,0 0.984375,0.375 L 3.484375,0 c 0.0625,0.1875 0.109375,0.21875 0.25,0.21875 0.15625,0 0.1875,-0.046875 0.234375,-0.1875 z m 0,0"
   style="stroke:none"
   inkscape:connector-curvature="0" />
</symbol>
<symbol
   id="textext-efd0f292-20"
   overflow="visible"
   style="overflow:visible">
<path
   id="path1210"
   d="m 2.078125,-1.9375 c 0.21875,0.046875 1.03125,0.203125 1.03125,0.921875 0,0.5 -0.34375,0.90625 -1.125,0.90625 -0.84375,0 -1.203125,-0.5625 -1.390625,-1.421875 C 0.5625,-1.65625 0.5625,-1.6875 0.453125,-1.6875 c -0.125,0 -0.125,0.0625 -0.125,0.234375 V -0.125 c 0,0.171875 0,0.234375 0.109375,0.234375 0.046875,0 0.0625,-0.015625 0.25,-0.203125 0.015625,-0.015625 0.015625,-0.03125 0.203125,-0.21875 0.4375,0.40625 0.890625,0.421875 1.09375,0.421875 1.140625,0 1.609375,-0.671875 1.609375,-1.390625 0,-0.515625 -0.296875,-0.828125 -0.421875,-0.9375 C 2.84375,-2.546875 2.453125,-2.625 2.03125,-2.703125 1.46875,-2.8125 0.8125,-2.9375 0.8125,-3.515625 c 0,-0.359375 0.25,-0.765625 1.109375,-0.765625 1.09375,0 1.15625,0.90625 1.171875,1.203125 0,0.09375 0.09375,0.09375 0.109375,0.09375 0.140625,0 0.140625,-0.046875 0.140625,-0.234375 v -1.015625 c 0,-0.15625 0,-0.234375 -0.109375,-0.234375 -0.046875,0 -0.078125,0 -0.203125,0.125 -0.03125,0.03125 -0.125,0.125 -0.171875,0.15625 -0.375,-0.28125 -0.78125,-0.28125 -0.9375,-0.28125 -1.21875,0 -1.59375,0.671875 -1.59375,1.234375 0,0.34375 0.15625,0.625 0.421875,0.84375 0.328125,0.25 0.609375,0.3125 1.328125,0.453125 z m 0,0"
   style="stroke:none"
   inkscape:connector-curvature="0" />
</symbol>
<symbol
   id="textext-efd0f292-21"
   overflow="visible"
   style="overflow:visible">
<path
   id="path1213"
   d="M 1.671875,-3.3125 V -4.40625 L 0.28125,-4.296875 v 0.3125 c 0.703125,0 0.78125,0.0625 0.78125,0.5625 V -0.75 c 0,0.4375 -0.109375,0.4375 -0.78125,0.4375 V 0 c 0.390625,-0.015625 0.859375,-0.03125 1.140625,-0.03125 0.390625,0 0.859375,0 1.265625,0.03125 V -0.3125 H 2.46875 c -0.734375,0 -0.75,-0.109375 -0.75,-0.46875 V -2.3125 c 0,-0.984375 0.421875,-1.875 1.171875,-1.875 0.0625,0 0.09375,0 0.109375,0.015625 -0.03125,0 -0.234375,0.125 -0.234375,0.390625 0,0.265625 0.21875,0.421875 0.4375,0.421875 0.171875,0 0.421875,-0.125 0.421875,-0.4375 0,-0.3125 -0.3125,-0.609375 -0.734375,-0.609375 -0.734375,0 -1.09375,0.671875 -1.21875,1.09375 z m 0,0"
   style="stroke:none"
   inkscape:connector-curvature="0" />
</symbol>
<symbol
   id="textext-efd0f292-22"
   overflow="visible"
   style="overflow:visible">
<path
   id="path1216"
   d="m 2.875,-2.5 c 0,-0.765625 -0.109375,-1.96875 -0.65625,-3.109375 -0.59375,-1.21875 -1.453125,-1.875 -1.546875,-1.875 -0.0625,0 -0.109375,0.046875 -0.109375,0.109375 0,0.03125 0,0.046875 0.1875,0.234375 0.984375,0.984375 1.546875,2.5625 1.546875,4.640625 0,1.71875 -0.359375,3.46875 -1.59375,4.71875 C 0.5625,2.34375 0.5625,2.359375 0.5625,2.390625 0.5625,2.453125 0.609375,2.5 0.671875,2.5 0.765625,2.5 1.671875,1.8125 2.25,0.546875 2.765625,-0.546875 2.875,-1.65625 2.875,-2.5 Z m 0,0"
   style="stroke:none"
   inkscape:connector-curvature="0" />
</symbol>
<symbol
   id="textext-efd0f292-23"
   overflow="visible"
   style="overflow:visible">
<path
   id="path1219"
   d="M 1.578125,-7.484375 H 0.21875 v 0.40625 H 1.1875 V 2.09375 H 0.21875 V 2.5 h 1.359375 z m 0,0"
   style="stroke:none"
   inkscape:connector-curvature="0" />
</symbol>
<symbol
   id="textext-efd0f292-24"
   overflow="visible"
   style="overflow:visible">
<path
   id="path1222"
   d=""
   style="stroke:none"
   inkscape:connector-curvature="0" />
</symbol>
<symbol
   id="textext-efd0f292-25"
   overflow="visible"
   style="overflow:visible">
<path
   id="path1225"
   d="m 3.8125,-0.984375 c 0.640625,-0.65625 0.890625,-1.59375 0.890625,-1.65625 0,-0.09375 -0.078125,-0.09375 -0.109375,-0.09375 C 4.5,-2.734375 4.5,-2.71875 4.453125,-2.5625 4.328125,-2.109375 4.09375,-1.671875 3.796875,-1.296875 3.796875,-1.40625 3.78125,-1.875 3.765625,-1.9375 3.65625,-2.625 3.140625,-3.078125 2.4375,-3.078125 c -1.015625,0 -2,0.953125 -2,1.9375 0,0.640625 0.46875,1.203125 1.265625,1.203125 0.640625,0 1.21875,-0.28125 1.609375,-0.578125 0.171875,0.5 0.515625,0.578125 0.734375,0.578125 0.40625,0 0.65625,-0.328125 0.65625,-0.484375 C 4.703125,-0.5 4.609375,-0.5 4.578125,-0.5 c -0.09375,0 -0.109375,0.03125 -0.125,0.0625 -0.09375,0.265625 -0.3125,0.3125 -0.390625,0.3125 -0.09375,0 -0.21875,0 -0.25,-0.859375 z M 3.265625,-0.75 C 2.578125,-0.1875 2,-0.125 1.734375,-0.125 c -0.46875,0 -0.71875,-0.3125 -0.71875,-0.78125 0,-0.1875 0.09375,-0.953125 0.453125,-1.4375 C 1.796875,-2.765625 2.1875,-2.875 2.4375,-2.875 c 0.546875,0 0.71875,0.53125 0.765625,0.96875 0.046875,0.296875 0.03125,0.796875 0.0625,1.15625 z m 0,0"
   style="stroke:none"
   inkscape:connector-curvature="0" />
</symbol>
</g>
</defs>
<g
   id="textext-efd0f292-26">
<g
   id="g1236"
   style="fill:#000000;fill-opacity:1">
  <use
   id="use1232"
   y="134.765"
   x="223.43201"
   xlink:href="#textext-efd0f292-1"
   width="100%"
   height="100%" />
  <use
   id="use1234"
   y="134.765"
   x="228.61754"
   xlink:href="#textext-efd0f292-2"
   width="100%"
   height="100%" />
</g>
<g
   id="g1240"
   style="fill:#000000;fill-opacity:1">
  <use
   id="use1238"
   y="131.14999"
   x="234.668"
   xlink:href="#textext-efd0f292-6"
   width="100%"
   height="100%" />
</g>
<g
   id="g1248"
   style="fill:#000000;fill-opacity:1">
  <use
   id="use1242"
   y="134.765"
   x="239.13699"
   xlink:href="#textext-efd0f292-3"
   width="100%"
   height="100%" />
  <use
   id="use1244"
   y="134.765"
   x="244.1183"
   xlink:href="#textext-efd0f292-1"
   width="100%"
   height="100%" />
  <use
   id="use1246"
   y="134.765"
   x="249.30383"
   xlink:href="#textext-efd0f292-4"
   width="100%"
   height="100%" />
</g>
<g
   id="g1252"
   style="fill:#000000;fill-opacity:1">
  <use
   id="use1250"
   y="131.14999"
   x="257.23199"
   xlink:href="#textext-efd0f292-7"
   width="100%"
   height="100%" />
</g>
<g
   id="g1256"
   style="fill:#000000;fill-opacity:1">
  <use
   id="use1254"
   y="137.23801"
   x="256.65799"
   xlink:href="#textext-efd0f292-8"
   width="100%"
   height="100%" />
</g>
<g
   id="g1260"
   style="fill:#000000;fill-opacity:1">
  <use
   id="use1258"
   y="134.765"
   x="263.61099"
   xlink:href="#textext-efd0f292-1"
   width="100%"
   height="100%" />
</g>
<g
   id="g1264"
   style="fill:#000000;fill-opacity:1">
  <use
   id="use1262"
   y="134.765"
   x="268.797"
   xlink:href="#textext-efd0f292-11"
   width="100%"
   height="100%" />
</g>
<g
   id="g1268"
   style="fill:#000000;fill-opacity:1">
  <use
   id="use1266"
   y="131.14999"
   x="275.992"
   xlink:href="#textext-efd0f292-7"
   width="100%"
   height="100%" />
</g>
<g
   id="g1272"
   style="fill:#000000;fill-opacity:1">
  <use
   id="use1270"
   y="137.23801"
   x="275.992"
   xlink:href="#textext-efd0f292-8"
   width="100%"
   height="100%" />
</g>
<g
   id="g1276"
   style="fill:#000000;fill-opacity:1">
  <use
   id="use1274"
   y="134.765"
   x="282.371"
   xlink:href="#textext-efd0f292-1"
   width="100%"
   height="100%" />
</g>
<g
   id="g1280"
   style="fill:#000000;fill-opacity:1">
  <use
   id="use1278"
   y="134.765"
   x="287.556"
   xlink:href="#textext-efd0f292-11"
   width="100%"
   height="100%" />
</g>
<g
   id="g1284"
   style="fill:#000000;fill-opacity:1">
  <use
   id="use1282"
   y="131.14999"
   x="294.75201"
   xlink:href="#textext-efd0f292-7"
   width="100%"
   height="100%" />
</g>
<g
   id="g1288"
   style="fill:#000000;fill-opacity:1">
  <use
   id="use1286"
   y="137.228"
   x="294.75201"
   xlink:href="#textext-efd0f292-25"
   width="100%"
   height="100%" />
</g>
<g
   id="g1306"
   style="fill:#000000;fill-opacity:1">
  <use
   id="use1290"
   y="134.765"
   x="304.45099"
   xlink:href="#textext-efd0f292-12"
   width="100%"
   height="100%" />
  <use
   id="use1292"
   y="134.765"
   x="307.2186"
   xlink:href="#textext-efd0f292-13"
   width="100%"
   height="100%" />
  <use
   id="use1294"
   y="134.765"
   x="312.75385"
   xlink:href="#textext-efd0f292-14"
   width="100%"
   height="100%" />
  <use
   id="use1296"
   y="134.765"
   x="318.28906"
   xlink:href="#textext-efd0f292-15"
   width="100%"
   height="100%" />
  <use
   id="use1298"
   y="134.765"
   x="323.27036"
   xlink:href="#textext-efd0f292-16"
   width="100%"
   height="100%" />
  <use
   id="use1300"
   y="134.765"
   x="327.14481"
   xlink:href="#textext-efd0f292-17"
   width="100%"
   height="100%" />
  <use
   id="use1302"
   y="134.765"
   x="336.27753"
   xlink:href="#textext-efd0f292-18"
   width="100%"
   height="100%" />
  <use
   id="use1304"
   y="134.765"
   x="340.7049"
   xlink:href="#textext-efd0f292-19"
   width="100%"
   height="100%" />
</g>
<g
   id="g1312"
   style="fill:#000000;fill-opacity:1">
  <use
   id="use1308"
   y="134.765"
   x="351.49438"
   xlink:href="#textext-efd0f292-20"
   width="100%"
   height="100%" />
  <use
   id="use1310"
   y="134.765"
   x="355.42365"
   xlink:href="#textext-efd0f292-21"
   width="100%"
   height="100%" />
</g>
<g
   id="g1316"
   style="fill:#000000;fill-opacity:1">
  <use
   id="use1314"
   y="131.14999"
   x="359.32901"
   xlink:href="#textext-efd0f292-9"
   width="100%"
   height="100%" />
</g>
<g
   id="g1322"
   style="fill:#000000;fill-opacity:1">
  <use
   id="use1318"
   y="134.765"
   x="363.798"
   xlink:href="#textext-efd0f292-22"
   width="100%"
   height="100%" />
  <use
   id="use1320"
   y="134.765"
   x="367.67245"
   xlink:href="#textext-efd0f292-23"
   width="100%"
   height="100%" />
</g>
</g>
</g><text
   style="font-variant:normal;font-weight:normal;font-size:16px;font-family:'Times New Roman';-inkscape-font-specification:TimesNewRomanPSMT;writing-mode:lr-tb;fill:#000000;fill-opacity:1;fill-rule:nonzero;stroke:none;stroke-width:1.33333325"
   id="text100-3"
   x="-12.530756"
   y="34.195995"><tspan
     x="23.46924"
     id="tspan98-6"
     style="stroke-width:1.33333325">0.6</tspan></text>
<text
   style="font-variant:normal;font-weight:normal;font-size:16px;font-family:'Times New Roman';-inkscape-font-specification:TimesNewRomanPSMT;writing-mode:lr-tb;fill:#000000;fill-opacity:1;fill-rule:nonzero;stroke:none;stroke-width:1.33333325"
   id="text100-7"
   x="-12.530753"
   y="57.579475"><tspan
     x="23.46924"
     id="tspan98-5"
     style="stroke-width:1.33333325">0.5</tspan></text>
<text
   style="font-variant:normal;font-weight:normal;font-size:16px;font-family:'Times New Roman';-inkscape-font-specification:TimesNewRomanPSMT;writing-mode:lr-tb;fill:#000000;fill-opacity:1;fill-rule:nonzero;stroke:none;stroke-width:1.33333325"
   id="text100-35"
   x="-12.530756"
   y="80.962967"><tspan
     x="23.46924"
     id="tspan98-62"
     style="stroke-width:1.33333325">0.4</tspan></text>
<text
   style="font-variant:normal;font-weight:normal;font-size:16px;font-family:'Times New Roman';-inkscape-font-specification:TimesNewRomanPSMT;writing-mode:lr-tb;fill:#000000;fill-opacity:1;fill-rule:nonzero;stroke:none;stroke-width:1.33333325"
   id="text100-9"
   x="-12.530756"
   y="104.34645"><tspan
     x="23.46924"
     id="tspan98-1"
     style="stroke-width:1.33333325">0.3</tspan></text>
<text
   style="font-variant:normal;font-weight:normal;font-size:16px;font-family:'Times New Roman';-inkscape-font-specification:TimesNewRomanPSMT;writing-mode:lr-tb;fill:#000000;fill-opacity:1;fill-rule:nonzero;stroke:none;stroke-width:1.33333325"
   id="text100-2"
   x="-12.530756"
   y="127.72994"><tspan
     x="23.46924"
     id="tspan98-7"
     style="stroke-width:1.33333325">0.2</tspan></text>
<text
   style="font-variant:normal;font-weight:normal;font-size:16px;font-family:'Times New Roman';-inkscape-font-specification:TimesNewRomanPSMT;writing-mode:lr-tb;fill:#000000;fill-opacity:1;fill-rule:nonzero;stroke:none;stroke-width:1.33333325"
   id="text100-0"
   x="-12.530753"
   y="151.11342"><tspan
     x="23.46924"
     id="tspan98-9"
     style="stroke-width:1.33333325">0.1</tspan></text>
</svg>