<?xml version="1.0" encoding="UTF-8" standalone="no"?>
<!-- Created with Inkscape (http://www.inkscape.org/) -->

<svg
   version="1.1"
   id="svg2"
   xml:space="preserve"
   width="481.54666"
   height="343.94666"
   viewBox="0 0 481.54666 343.94666"
   sodipodi:docname="fig3.eps"
   xmlns:inkscape="http://www.inkscape.org/namespaces/inkscape"
   xmlns:sodipodi="http://sodipodi.sourceforge.net/DTD/sodipodi-0.dtd"
   xmlns="http://www.w3.org/2000/svg"
   xmlns:svg="http://www.w3.org/2000/svg"><defs
     id="defs6" /><sodipodi:namedview
     id="namedview4"
     pagecolor="#ffffff"
     bordercolor="#666666"
     borderopacity="1.0"
     inkscape:pageshadow="2"
     inkscape:pageopacity="0.0"
     inkscape:pagecheckerboard="0" /><g
     id="g8"
     inkscape:groupmode="layer"
     inkscape:label="ink_ext_XXXXXX"
     transform="matrix(1.3333333,0,0,-1.3333333,0,343.94667)"><g
       id="g10"
       transform="scale(0.1)"><path
         d="m 3563.11,375.891 h -31.51 m -3098.995,0 h 31.504"
         style="fill:none;stroke:#0e0f0e;stroke-width:5;stroke-linecap:butt;stroke-linejoin:miter;stroke-miterlimit:3.8;stroke-dasharray:none;stroke-opacity:1"
         id="path12" /><g
         id="g14"
         transform="scale(10)"><text
           transform="matrix(1,0,0,-1,33.1344,33.427)"
           style="font-variant:normal;font-weight:normal;font-size:12.5px;font-family:'Times New Roman';-inkscape-font-specification:TimesNewRomanPSMT;writing-mode:lr-tb;fill:#0e0f0e;fill-opacity:1;fill-rule:nonzero;stroke:none"
           id="text18"><tspan
             x="0"
             y="0"
             id="tspan16">1</tspan></text></g><path
         d="m 3563.11,643.391 h -31.51 m -3098.995,0 h 31.504"
         style="fill:none;stroke:#0e0f0e;stroke-width:5;stroke-linecap:butt;stroke-linejoin:miter;stroke-miterlimit:3.8;stroke-dasharray:none;stroke-opacity:1"
         id="path20" /><g
         id="g22"
         transform="scale(10)"><text
           transform="matrix(1,0,0,-1,24.1344,60.1699)"
           style="font-variant:normal;font-weight:normal;font-size:12.5px;font-family:'Times New Roman';-inkscape-font-specification:TimesNewRomanPSMT;writing-mode:lr-tb;fill:#0e0f0e;fill-opacity:1;fill-rule:nonzero;stroke:none"
           id="text26"><tspan
             x="0 6.25 9.375"
             y="0"
             sodipodi:role="line"
             id="tspan24">1.5</tspan></text></g><path
         d="m 3563.11,911.398 h -31.51 m -3098.995,0 h 31.504"
         style="fill:none;stroke:#0e0f0e;stroke-width:5;stroke-linecap:butt;stroke-linejoin:miter;stroke-miterlimit:3.8;stroke-dasharray:none;stroke-opacity:1"
         id="path28" /><g
         id="g30"
         transform="scale(10)"><text
           transform="matrix(1,0,0,-1,33.1344,86.982)"
           style="font-variant:normal;font-weight:normal;font-size:12.5px;font-family:'Times New Roman';-inkscape-font-specification:TimesNewRomanPSMT;writing-mode:lr-tb;fill:#0e0f0e;fill-opacity:1;fill-rule:nonzero;stroke:none"
           id="text34"><tspan
             x="0"
             y="0"
             id="tspan32">2</tspan></text></g><path
         d="m 3563.11,1178.9 h -31.51 m -3098.995,0 h 31.504"
         style="fill:none;stroke:#0e0f0e;stroke-width:5;stroke-linecap:butt;stroke-linejoin:miter;stroke-miterlimit:3.8;stroke-dasharray:none;stroke-opacity:1"
         id="path36" /><g
         id="g38"
         transform="scale(10)"><text
           transform="matrix(1,0,0,-1,24.1344,113.724)"
           style="font-variant:normal;font-weight:normal;font-size:12.5px;font-family:'Times New Roman';-inkscape-font-specification:TimesNewRomanPSMT;writing-mode:lr-tb;fill:#0e0f0e;fill-opacity:1;fill-rule:nonzero;stroke:none"
           id="text42"><tspan
             x="0 6.25 9.375"
             y="0"
             sodipodi:role="line"
             id="tspan40">2.5</tspan></text></g><path
         d="m 3563.11,1446.91 h -31.51 m -3098.995,0 h 31.504"
         style="fill:none;stroke:#0e0f0e;stroke-width:5;stroke-linecap:butt;stroke-linejoin:miter;stroke-miterlimit:3.8;stroke-dasharray:none;stroke-opacity:1"
         id="path44" /><g
         id="g46"
         transform="scale(10)"><text
           transform="matrix(1,0,0,-1,33.1344,140.521)"
           style="font-variant:normal;font-weight:normal;font-size:12.5px;font-family:'Times New Roman';-inkscape-font-specification:TimesNewRomanPSMT;writing-mode:lr-tb;fill:#0e0f0e;fill-opacity:1;fill-rule:nonzero;stroke:none"
           id="text50"><tspan
             x="0"
             y="0"
             id="tspan48">3</tspan></text></g><path
         d="m 3563.11,1714.41 h -31.51 m -3098.995,0 h 31.504"
         style="fill:none;stroke:#0e0f0e;stroke-width:5;stroke-linecap:butt;stroke-linejoin:miter;stroke-miterlimit:3.8;stroke-dasharray:none;stroke-opacity:1"
         id="path52" /><g
         id="g54"
         transform="scale(10)"><text
           transform="matrix(1,0,0,-1,24.1344,167.271)"
           style="font-variant:normal;font-weight:normal;font-size:12.5px;font-family:'Times New Roman';-inkscape-font-specification:TimesNewRomanPSMT;writing-mode:lr-tb;fill:#0e0f0e;fill-opacity:1;fill-rule:nonzero;stroke:none"
           id="text58"><tspan
             x="0 6.25 9.375"
             y="0"
             sodipodi:role="line"
             id="tspan56">3.5</tspan></text></g><path
         d="m 3563.11,1981.91 h -31.51 m -3098.995,0 h 31.504"
         style="fill:none;stroke:#0e0f0e;stroke-width:5;stroke-linecap:butt;stroke-linejoin:miter;stroke-miterlimit:3.8;stroke-dasharray:none;stroke-opacity:1"
         id="path60" /><g
         id="g62"
         transform="scale(10)"><text
           transform="matrix(1,0,0,-1,33.1344,194.021)"
           style="font-variant:normal;font-weight:normal;font-size:12.5px;font-family:'Times New Roman';-inkscape-font-specification:TimesNewRomanPSMT;writing-mode:lr-tb;fill:#0e0f0e;fill-opacity:1;fill-rule:nonzero;stroke:none"
           id="text66"><tspan
             x="0"
             y="0"
             id="tspan64">4</tspan></text></g><path
         d="m 3563.11,2249.9 h -31.51 m -3098.995,0 h 31.504"
         style="fill:none;stroke:#0e0f0e;stroke-width:5;stroke-linecap:butt;stroke-linejoin:miter;stroke-miterlimit:3.8;stroke-dasharray:none;stroke-opacity:1"
         id="path68" /><g
         id="g70"
         transform="scale(10)"><text
           transform="matrix(1,0,0,-1,24.1344,220.826)"
           style="font-variant:normal;font-weight:normal;font-size:12.5px;font-family:'Times New Roman';-inkscape-font-specification:TimesNewRomanPSMT;writing-mode:lr-tb;fill:#0e0f0e;fill-opacity:1;fill-rule:nonzero;stroke:none"
           id="text74"><tspan
             x="0 6.25 9.375"
             y="0"
             sodipodi:role="line"
             id="tspan72">4.5</tspan></text></g><path
         d="m 3563.11,2517.4 h -31.51 m -3098.995,0 h 31.504"
         style="fill:none;stroke:#0e0f0e;stroke-width:5;stroke-linecap:butt;stroke-linejoin:miter;stroke-miterlimit:3.8;stroke-dasharray:none;stroke-opacity:1"
         id="path76" /><g
         id="g78"
         transform="scale(10)"><text
           transform="matrix(1,0,0,-1,33.1344,247.574)"
           style="font-variant:normal;font-weight:normal;font-size:12.5px;font-family:'Times New Roman';-inkscape-font-specification:TimesNewRomanPSMT;writing-mode:lr-tb;fill:#0e0f0e;fill-opacity:1;fill-rule:nonzero;stroke:none"
           id="text82"><tspan
             x="0"
             y="0"
             id="tspan80">5</tspan></text></g><path
         d="m 432.605,2517.4 v -31.49 m 0,-2110.019 v 31.507"
         style="fill:none;stroke:#0e0f0e;stroke-width:5;stroke-linecap:butt;stroke-linejoin:miter;stroke-miterlimit:3.8;stroke-dasharray:none;stroke-opacity:1"
         id="path84" /><g
         id="g86"
         transform="scale(10)"><text
           transform="matrix(1,0,0,-1,41.8609,26.4199)"
           style="font-variant:normal;font-weight:normal;font-size:12.5px;font-family:'Times New Roman';-inkscape-font-specification:TimesNewRomanPSMT;writing-mode:lr-tb;fill:#0e0f0e;fill-opacity:1;fill-rule:nonzero;stroke:none"
           id="text90"><tspan
             x="0"
             y="0"
             id="tspan88">0</tspan></text></g><path
         d="m 824.109,2517.4 v -31.49 m 0,-2110.019 v 31.507"
         style="fill:none;stroke:#0e0f0e;stroke-width:5;stroke-linecap:butt;stroke-linejoin:miter;stroke-miterlimit:3.8;stroke-dasharray:none;stroke-opacity:1"
         id="path92" /><g
         id="g94"
         transform="scale(10)"><text
           transform="matrix(1,0,0,-1,76.5094,26.4199)"
           style="font-variant:normal;font-weight:normal;font-size:12.5px;font-family:'Times New Roman';-inkscape-font-specification:TimesNewRomanPSMT;writing-mode:lr-tb;fill:#0e0f0e;fill-opacity:1;fill-rule:nonzero;stroke:none"
           id="text98"><tspan
             x="0 6.25 9.375"
             y="0"
             sodipodi:role="line"
             id="tspan96">0.5</tspan></text></g><path
         d="m 1215.11,2517.4 v -31.49 m 0,-2110.019 v 31.507"
         style="fill:none;stroke:#0e0f0e;stroke-width:5;stroke-linecap:butt;stroke-linejoin:miter;stroke-miterlimit:3.8;stroke-dasharray:none;stroke-opacity:1"
         id="path100" /><g
         id="g102"
         transform="scale(10)"><text
           transform="matrix(1,0,0,-1,120.111,26.4199)"
           style="font-variant:normal;font-weight:normal;font-size:12.5px;font-family:'Times New Roman';-inkscape-font-specification:TimesNewRomanPSMT;writing-mode:lr-tb;fill:#0e0f0e;fill-opacity:1;fill-rule:nonzero;stroke:none"
           id="text106"><tspan
             x="0"
             y="0"
             id="tspan104">1</tspan></text></g><path
         d="m 1606.61,2517.4 v -31.49 m 0,-2110.019 v 31.507"
         style="fill:none;stroke:#0e0f0e;stroke-width:5;stroke-linecap:butt;stroke-linejoin:miter;stroke-miterlimit:3.8;stroke-dasharray:none;stroke-opacity:1"
         id="path108" /><g
         id="g110"
         transform="scale(10)"><text
           transform="matrix(1,0,0,-1,154.767,26.4199)"
           style="font-variant:normal;font-weight:normal;font-size:12.5px;font-family:'Times New Roman';-inkscape-font-specification:TimesNewRomanPSMT;writing-mode:lr-tb;fill:#0e0f0e;fill-opacity:1;fill-rule:nonzero;stroke:none"
           id="text114"><tspan
             x="0 6.25 9.375"
             y="0"
             sodipodi:role="line"
             id="tspan112">1.5</tspan></text></g><path
         d="m 1998.11,2517.4 v -31.49 m 0,-2110.019 v 31.507"
         style="fill:none;stroke:#0e0f0e;stroke-width:5;stroke-linecap:butt;stroke-linejoin:miter;stroke-miterlimit:3.8;stroke-dasharray:none;stroke-opacity:1"
         id="path116" /><g
         id="g118"
         transform="scale(10)"><text
           transform="matrix(1,0,0,-1,198.416,26.4199)"
           style="font-variant:normal;font-weight:normal;font-size:12.5px;font-family:'Times New Roman';-inkscape-font-specification:TimesNewRomanPSMT;writing-mode:lr-tb;fill:#0e0f0e;fill-opacity:1;fill-rule:nonzero;stroke:none"
           id="text122"><tspan
             x="0"
             y="0"
             id="tspan120">2</tspan></text></g><path
         d="m 2389.1,2517.4 v -31.49 m 0,-2110.019 v 31.507"
         style="fill:none;stroke:#0e0f0e;stroke-width:5;stroke-linecap:butt;stroke-linejoin:miter;stroke-miterlimit:3.8;stroke-dasharray:none;stroke-opacity:1"
         id="path124" /><g
         id="g126"
         transform="scale(10)"><text
           transform="matrix(1,0,0,-1,233.017,26.4199)"
           style="font-variant:normal;font-weight:normal;font-size:12.5px;font-family:'Times New Roman';-inkscape-font-specification:TimesNewRomanPSMT;writing-mode:lr-tb;fill:#0e0f0e;fill-opacity:1;fill-rule:nonzero;stroke:none"
           id="text130"><tspan
             x="0 6.25 9.375"
             y="0"
             sodipodi:role="line"
             id="tspan128">2.5</tspan></text></g><path
         d="m 2780.61,2517.4 v -31.49 m 0,-2110.019 v 31.507"
         style="fill:none;stroke:#0e0f0e;stroke-width:5;stroke-linecap:butt;stroke-linejoin:miter;stroke-miterlimit:3.8;stroke-dasharray:none;stroke-opacity:1"
         id="path132" /><g
         id="g134"
         transform="scale(10)"><text
           transform="matrix(1,0,0,-1,276.666,26.4199)"
           style="font-variant:normal;font-weight:normal;font-size:12.5px;font-family:'Times New Roman';-inkscape-font-specification:TimesNewRomanPSMT;writing-mode:lr-tb;fill:#0e0f0e;fill-opacity:1;fill-rule:nonzero;stroke:none"
           id="text138"><tspan
             x="0"
             y="0"
             id="tspan136">3</tspan></text></g><path
         d="m 3171.6,2517.4 v -31.49 m 0,-2110.019 v 31.507"
         style="fill:none;stroke:#0e0f0e;stroke-width:5;stroke-linecap:butt;stroke-linejoin:miter;stroke-miterlimit:3.8;stroke-dasharray:none;stroke-opacity:1"
         id="path140" /><g
         id="g142"
         transform="scale(10)"><text
           transform="matrix(1,0,0,-1,311.256,26.4199)"
           style="font-variant:normal;font-weight:normal;font-size:12.5px;font-family:'Times New Roman';-inkscape-font-specification:TimesNewRomanPSMT;writing-mode:lr-tb;fill:#0e0f0e;fill-opacity:1;fill-rule:nonzero;stroke:none"
           id="text146"><tspan
             x="0 6.25 9.375"
             y="0"
             sodipodi:role="line"
             id="tspan144">3.5</tspan></text></g><path
         d="m 3563.11,2517.4 v -31.49 m 0,-2110.019 v 31.507"
         style="fill:none;stroke:#0e0f0e;stroke-width:5;stroke-linecap:butt;stroke-linejoin:miter;stroke-miterlimit:3.8;stroke-dasharray:none;stroke-opacity:1"
         id="path148" /><g
         id="g150"
         transform="scale(10)"><text
           transform="matrix(1,0,0,-1,354.908,26.4199)"
           style="font-variant:normal;font-weight:normal;font-size:12.5px;font-family:'Times New Roman';-inkscape-font-specification:TimesNewRomanPSMT;writing-mode:lr-tb;fill:#0e0f0e;fill-opacity:1;fill-rule:nonzero;stroke:none"
           id="text154"><tspan
             x="0"
             y="0"
             id="tspan152">4</tspan></text></g><path
         d="M 432.605,2517.4 V 375.891 H 3563.11 V 2517.4 H 432.605 Z"
         style="fill:none;stroke:#0e0f0e;stroke-width:5;stroke-linecap:butt;stroke-linejoin:miter;stroke-miterlimit:3.8;stroke-dasharray:none;stroke-opacity:1"
         id="path156" /><g
         id="g158"
         transform="scale(10)"><text
           transform="matrix(0,1,1,0,15.4,138.99)"
           style="font-variant:normal;font-weight:normal;font-size:17.5px;font-family:Symbol;-inkscape-font-specification:SymbolMT;writing-mode:lr-tb;fill:#0e0f0e;fill-opacity:1;fill-rule:nonzero;stroke:none"
           id="text162"><tspan
             x="0"
             y="0"
             id="tspan160">Γ</tspan></text></g><path
         d="m 652.109,1225.89 h 31 m -31,-510.992 h 31 m -15.504,0 v 510.992 m 1377.515,0 h 30.99 m -30.99,-507.499 h 30.99 m -15.5,0 v 507.499 m -1261.001,0 h 31 m -31,-503.98 h 31 m -15.504,0 v 503.98 m -15.496,0 h 31 m -31,-503.98 h 31 m -15.504,0 v 503.98 m 393.005,0 h 31 m -31,-499.999 h 31 m -15.5,0 v 499.999 m 1259.5,0 h 30.99 m -30.99,-495.992 h 30.99 m -15.49,0 v 495.992 m -1095.5,0 h 31 m -31,-486.992 h 31 m -15.5,0 v 486.992 m -743.001,0 h 31 m -31,-491.48 h 31 m -15.5,0 v 491.48 m 180,0 h 31 m -31,-457.499 h 31 m -15.5,0 v 457.499 m 483.501,0 h 31 m -31,-440.48 h 31 m -15.5,0 v 440.48 m -575.001,0 h 31 m -31,-418.98 h 31 m -15.5,0 v 418.98"
         style="fill:none;stroke:#ee2329;stroke-width:7.5;stroke-linecap:butt;stroke-linejoin:miter;stroke-miterlimit:3.8;stroke-dasharray:none;stroke-opacity:1"
         id="path164" /><path
         d="m 826.109,2048.4 v 0 0 0 0 0"
         style="fill:#ee2329;fill-opacity:1;fill-rule:nonzero;stroke:none"
         id="path166" /><path
         d="m 1385.61,1585.9 v 0 0 0 0 0"
         style="fill:#ee2329;fill-opacity:1;fill-rule:nonzero;stroke:none"
         id="path168" /><path
         d="m 886.609,2118.4 v 0 0 0 0 0"
         style="fill:#ee2329;fill-opacity:1;fill-rule:nonzero;stroke:none"
         id="path170" /><path
         d="m 691.109,1907.4 v 0 0 0 0 0"
         style="fill:#ee2329;fill-opacity:1;fill-rule:nonzero;stroke:none"
         id="path172" /><path
         d="m 1418.61,1484.9 v 0 0 0 0 0"
         style="fill:#ee2329;fill-opacity:1;fill-rule:nonzero;stroke:none"
         id="path174" /><path
         d="m 2498.61,1273.9 v 0 0 0 0 0"
         style="fill:#ee2329;fill-opacity:1;fill-rule:nonzero;stroke:none"
         id="path176" /><path
         d="m 1223.61,1399.9 v 0 0 0 0 0"
         style="fill:#ee2329;fill-opacity:1;fill-rule:nonzero;stroke:none"
         id="path178" /><path
         d="m 815.105,2006.91 v 0 0 0 0 0"
         style="fill:#ee2329;fill-opacity:1;fill-rule:nonzero;stroke:none"
         id="path180" /><path
         d="m 815.105,1686.91 v 0 0 0 0 0"
         style="fill:#ee2329;fill-opacity:1;fill-rule:nonzero;stroke:none"
         id="path182" /><path
         d="m 2060.61,1210.41 v 0 0 0 0 0"
         style="fill:#ee2329;fill-opacity:1;fill-rule:nonzero;stroke:none"
         id="path184" /><path
         d="m 667.605,1971.91 v 0 0 0 0 0"
         style="fill:#ee2329;fill-opacity:1;fill-rule:nonzero;stroke:none"
         id="path186" /><path
         d="m 794.609,2016.91 62.996,62.99 m -62.996,0 62.996,-62.99 m -62.996,31.49 h 62.996 m -31.496,-31.49 v 62.99"
         style="fill:none;stroke:#ee2329;stroke-width:5;stroke-linecap:butt;stroke-linejoin:miter;stroke-miterlimit:3.8;stroke-dasharray:none;stroke-opacity:1"
         id="path188" /><path
         d="m 1354.11,1617.4 v -62.99 h 63 v 62.99 h -63 v 0"
         style="fill:#ee2329;fill-opacity:1;fill-rule:nonzero;stroke:none"
         id="path190" /><path
         d="m 847.234,2157.78 v -78.75 h 78.75 v 78.75 h -78.75 z"
         style="fill:none;stroke:#32713a;stroke-width:5;stroke-linecap:butt;stroke-linejoin:miter;stroke-miterlimit:3.8;stroke-dasharray:none;stroke-opacity:1"
         id="path192" /><path
         d="m 1457.78,1485.1 c 0,21.74 -17.63,39.38 -39.37,39.38 -21.74,0 -39.38,-17.64 -39.38,-39.38 0,-21.73 17.64,-39.37 39.38,-39.37 21.74,0 39.37,17.64 39.37,39.37"
         style="fill:#32713a;fill-opacity:1;fill-rule:nonzero;stroke:none"
         id="path194" /><path
         d="m 730.586,1907.5 c 0,21.74 -17.641,39.38 -39.375,39.38 -21.738,0 -39.375,-17.64 -39.375,-39.38 0,-21.73 17.637,-39.37 39.375,-39.37 21.734,0 39.375,17.64 39.375,39.37"
         style="fill:none;stroke:#324faa;stroke-width:5;stroke-linecap:butt;stroke-linejoin:miter;stroke-miterlimit:3.8;stroke-dasharray:none;stroke-opacity:1"
         id="path196" /><path
         d="m 2498.61,1318 -39.37,-63.79 h 78.75 l -39.38,63.79 v 0"
         style="fill:#324faa;fill-opacity:1;fill-rule:nonzero;stroke:none"
         id="path198" /><path
         d="m 1223.61,1355.8 -39.38,63.79 h 78.75 l -39.37,-63.79 v 0"
         style="fill:#a443a7;fill-opacity:1;fill-rule:nonzero;stroke:none"
         id="path200" /><path
         d="m 815.105,2051 -39.375,-63.78 h 78.75 L 815.105,2051 Z"
         style="fill:none;stroke:#a443a7;stroke-width:5;stroke-linecap:butt;stroke-linejoin:miter;stroke-miterlimit:3.8;stroke-dasharray:none;stroke-opacity:1"
         id="path202" /><path
         d="m 815.105,1642.8 -39.375,63.79 h 78.75 l -39.375,-63.79 z"
         style="fill:none;stroke:#0e0f0e;stroke-width:5;stroke-linecap:butt;stroke-linejoin:miter;stroke-miterlimit:3.8;stroke-dasharray:none;stroke-opacity:1"
         id="path204" /><path
         d="m 2060.61,1249.78 -39.38,-39.37 39.38,-39.38 39.37,39.38 -39.37,39.37 v 0"
         style="fill:#0e0f0e;fill-opacity:1;fill-rule:nonzero;stroke:none"
         id="path206" /><path
         d="m 667.605,2011.28 -39.375,-39.37 39.375,-39.38 39.375,39.38 -39.375,39.37 z"
         style="fill:none;stroke:#f04126;stroke-width:5;stroke-linecap:butt;stroke-linejoin:miter;stroke-miterlimit:3.8;stroke-dasharray:none;stroke-opacity:1"
         id="path208" /><path
         d="m 432.605,2372.4 31.504,-48.5 31.5,-46.99 31.996,-45 31.504,-43.01 31.5,-41.5 31.5,-40 32,-38.5 31.5,-36.5 31.5,-35.49 31.5,-34.01 32,-32.5 31.5,-30.99 31.5,-30 31.496,-29.01 32.004,-28 31.5,-26.5 31.496,-25.5 31.505,-24.5 32,-23.5 31.5,-22.5 31.5,-22 31.5,-20.99 32,-20 31.5,-19.01 31.5,-18.49 31.5,-18.01 32,-16.99 31.5,-16.51 31.5,-15.5 31.5,-15 32,-14.5 31.5,-14 31.5,-13.5 31.5,-13 31.5,-12.5 32,-11.5 31.5,-11.49 31.5,-11.01 31.5,-10.5 32,-10 31.5,-10 31.5,-9 31.5,-9 32,-8.5 31.5,-8.5 31.5,-7.5 31.5,-8 32,-6.99 31.5,-7.02 31.5,-6.99 31.51,-6.5 31.99,-6 31.5,-5.99 31.51,-6 31.48,-5.51 32.01,-5 31.51,-5 31.48,-5 31.51,-4.49 32.01,-4.51 31.48,-4.49 31.51,-4.01 31.5,-4 31.99,-4.01 31.51,-3.49 31.5,-3.5 31.5,-3.49 31.51,-3.5 31.99,-3.01 31.5,-3.01 31.51,-2.98 31.48,-2.5 32.01,-3.01 31.51,-2.5 31.48,-2.5 31.51,-1.99 32.01,-2.5 31.48,-2.02 31.51,-1.99 31.5,-1.99 31.99,-2.01 31.51,-1.99 31.5,-1.51 31.5,-1.99 32,-1.5 31.5,-1.51 31.5,-1.5 31.51,-1.51 31.99,-1.48 31.5,-1.5 31.51,-1 31.48,-1.5 32.01,-1 31.51,-1.02 31.48,-1.48 31.51,-1.02 32.01,-0.99 31.48,-1 31.51,-0.51"
         style="fill:none;stroke:#2a2b4f;stroke-width:7.5;stroke-linecap:butt;stroke-linejoin:miter;stroke-miterlimit:3.8;stroke-dasharray:none;stroke-opacity:1"
         id="path210" /><path
         d="m 432.605,2043.9 31.504,-40.5 31.5,-38.5 31.996,-37 31.504,-35.5 31.5,-34 31.5,-33 32,-31.5 31.5,-30 31.5,-29 31.5,-27.99 32,-27.01 31.5,-25.49 31.5,-25 31.496,-23.51 32.004,-23 31.5,-22 31.496,-21 31.505,-20 32,-19.5 31.5,-18.49 31.5,-18.01 31.5,-16.99 32,-16.51 31.5,-15.99 31.5,-15 31.5,-15 32,-14.01 31.5,-13.49 31.5,-12.5 31.5,-12.5 32,-12.01 31.5,-11.51 31.5,-10.99 31.5,-10.49 31.5,-10.51 32,-9.49 31.5,-9.51 31.5,-9.01 31.5,-8.49 32,-8.5 31.5,-8.01 31.5,-7.5 31.5,-7.5 32,-6.99 31.5,-6.99 31.5,-6.5 31.5,-6 32,-6.02 31.5,-5.99 31.5,-5.49 31.51,-5 31.99,-5.51 31.5,-4.49 31.51,-5 31.48,-4.51 32.01,-4.49 31.51,-4.01 31.48,-4 31.51,-4.01 32.01,-3.49 31.48,-3.5 31.51,-3.49 31.5,-3.5 31.99,-3.01 31.51,-3.01 31.5,-2.98 31.5,-2.5 31.51,-3.01 31.99,-2.5 31.5,-2.5 31.51,-2.5 31.48,-1.99 32.01,-2.02 31.51,-2.5 31.48,-1.99 31.51,-1.99 32.01,-1.5 31.48,-2.02 31.51,-1.48 31.5,-2.01 31.99,-1.51 31.51,-1.48 31.5,-1.5 31.5,-1.51 32,-0.99 31.5,-1.51 31.5,-0.99 31.51,-1.51 31.99,-0.99 31.5,-1 31.51,-1.02 31.48,-0.99 32.01,-1 31.51,-0.99 31.48,-1 31.51,-1.02 32.01,-0.48 31.48,-1 31.51,-0.51 m -3024.001,1468.5 20,-32.5 31.5,-49 31.5,-46.49 32,-45.51 31.5,-43 31.5,-41.49 31.5,-40 32,-38.51 31.5,-36.49 31.5,-35.51 31.496,-34 32.004,-32.5 31.5,-31.5 31.496,-30 31.505,-28.99 32,-27.5 31.5,-27.01 31.5,-25.49 31.5,-24.51 32,-23.5 31.5,-23 31.5,-21.49 31.5,-21.01 32,-20 31.5,-19.5 31.5,-18.5 31.5,-17.5 32,-17.5 31.5,-15.99 31.5,-16.01 31.5,-15 31.5,-14.5 32,-14 31.5,-13.5 31.5,-13 31.5,-12.5 32,-11.49 31.5,-11.51 31.5,-10.99 31.5,-10.51 32,-10 31.5,-10 31.5,-9 31.5,-9 32,-8.99 31.5,-8.01 31.5,-8 31.51,-7.5 31.99,-7.5 31.5,-7 31.51,-6.5 31.48,-6.5 32.01,-6.49 31.51,-6.01 31.48,-5.5 31.51,-5.5 32.01,-5.49 31.48,-5 31.51,-5 31.5,-4.51 31.99,-4.5 31.51,-4.5 31.5,-3.99 31.5,-4.01 31.51,-4 31.99,-3.5 31.5,-3.49 31.51,-3.51 31.48,-3 32.01,-3.49 31.51,-3 31.48,-3.02 31.51,-2.5 32.01,-2.5 31.48,-2.5 31.51,-2.5 31.5,-2.5 31.99,-2.5 31.51,-1.99 31.5,-1.99 31.5,-2.01 32,-1.99 31.5,-2.02 31.5,-1.48 31.51,-2.01 31.99,-1.51 31.5,-1.48 31.51,-1.5 31.48,-1.51 32.01,-1.5 31.51,-1.51 31.48,-0.99 31.51,-1.51 32.01,-0.99 31.48,-1 31.51,-0.99"
         style="fill:none;stroke:#2a2b4f;stroke-width:5;stroke-linecap:butt;stroke-linejoin:miter;stroke-miterlimit:3.8;stroke-dasharray:80, 40;stroke-dashoffset:0;stroke-opacity:1"
         id="path212" /><path
         d="M 432.605,2517.4 V 375.891 H 3563.11 V 2517.4 H 432.605 Z"
         style="fill:none;stroke:#0e0f0e;stroke-width:5;stroke-linecap:butt;stroke-linejoin:miter;stroke-miterlimit:3.8;stroke-dasharray:none;stroke-opacity:1"
         id="path214" /><g
         id="g216"
         transform="scale(10)"><text
           transform="matrix(1,0,0,-1,171.699,7.59883)"
           style="font-style:italic;font-variant:normal;font-size:15px;font-family:'Times New Roman';-inkscape-font-specification:TimesNewRomanPS-ItalicMT;writing-mode:lr-tb;fill:#0e0f0e;fill-opacity:1;fill-rule:nonzero;stroke:none"
           id="text220"><tspan
             x="0"
             y="0"
             id="tspan218">S</tspan></text><text
           transform="matrix(1,0,0,-1,179.199,4.59883)"
           style="font-style:italic;font-variant:normal;font-size:10px;font-family:'Times New Roman';-inkscape-font-specification:TimesNewRomanPS-ItalicMT;writing-mode:lr-tb;fill:#0e0f0e;fill-opacity:1;fill-rule:nonzero;stroke:none"
           id="text224"><tspan
             x="0"
             y="0"
             id="tspan222">n</tspan></text><text
           transform="matrix(1,0,0,-1,187.949,7.59883)"
           style="font-variant:normal;font-weight:normal;font-size:15px;font-family:'Times New Roman';-inkscape-font-specification:TimesNewRomanPSMT;writing-mode:lr-tb;fill:#0e0f0e;fill-opacity:1;fill-rule:nonzero;stroke:none"
           id="text228"><tspan
             x="0 4.9949999 18.331903 24.990074 35.822075"
             y="0"
             sodipodi:role="line"
             id="tspan226">(MeV)</tspan></text></g><path
         d="m 3340.87,2234.11 v -78.75 h 78.75 v 78.75 h -78.75 z"
         style="fill:none;stroke:#32713a;stroke-width:5;stroke-linecap:butt;stroke-linejoin:miter;stroke-miterlimit:3.8;stroke-dasharray:none;stroke-opacity:1"
         id="path230" /><g
         id="g232"
         transform="scale(10)"><text
           transform="matrix(1,0,0,-1,303.047,236.308)"
           style="font-variant:normal;font-weight:normal;font-size:9px;font-family:'Times New Roman';-inkscape-font-specification:TimesNewRomanPSMT;writing-mode:lr-tb;fill:#0e0f0e;fill-opacity:1;fill-rule:nonzero;stroke:none"
           id="text236"><tspan
             x="0 4.5"
             y="0"
             sodipodi:role="line"
             id="tspan234">11</tspan></text><text
           transform="matrix(1,0,0,-1,312.047,231.308)"
           style="font-variant:normal;font-weight:normal;font-size:12.5px;font-family:'Times New Roman';-inkscape-font-specification:TimesNewRomanPSMT;writing-mode:lr-tb;fill:#0e0f0e;fill-opacity:1;fill-rule:nonzero;stroke:none"
           id="text240"><tspan
             x="0 8.3374996"
             y="0"
             sodipodi:role="line"
             id="tspan238">Be</tspan></text><text
           transform="matrix(1,0,0,-1,308.45403,219.3092)"
           style="font-variant:normal;font-weight:normal;font-size:9px;font-family:'Times New Roman';-inkscape-font-specification:TimesNewRomanPSMT;writing-mode:lr-tb;fill:#0e0f0e;fill-opacity:1;fill-rule:nonzero;stroke:none"
           id="text244"><tspan
             x="0 4.5"
             y="0"
             sodipodi:role="line"
             id="tspan242">19</tspan></text><text
           transform="matrix(1,0,0,-1,317.45403,214.3092)"
           style="font-variant:normal;font-weight:normal;font-size:12.5px;font-family:'Times New Roman';-inkscape-font-specification:TimesNewRomanPSMT;writing-mode:lr-tb;fill:#0e0f0e;fill-opacity:1;fill-rule:nonzero;stroke:none"
           id="text248"><tspan
             x="0"
             y="0"
             id="tspan246">C</tspan></text><text
           transform="matrix(1,0,0,-1,303.04703,202.308)"
           style="font-variant:normal;font-weight:normal;font-size:9px;font-family:'Times New Roman';-inkscape-font-specification:TimesNewRomanPSMT;writing-mode:lr-tb;fill:#0e0f0e;fill-opacity:1;fill-rule:nonzero;stroke:none"
           id="text252"><tspan
             x="0 4.5"
             y="0"
             sodipodi:role="line"
             id="tspan250">31</tspan></text><text
           transform="matrix(1,0,0,-1,312.04703,197.308)"
           style="font-variant:normal;font-weight:normal;font-size:12.5px;font-family:'Times New Roman';-inkscape-font-specification:TimesNewRomanPSMT;writing-mode:lr-tb;fill:#0e0f0e;fill-opacity:1;fill-rule:nonzero;stroke:none"
           id="text256"><tspan
             x="0 9.0273438"
             y="0"
             sodipodi:role="line"
             id="tspan254">Ne</tspan></text><text
           transform="matrix(1,0,0,-1,287.38103,185.308)"
           style="font-variant:normal;font-weight:normal;font-size:9px;font-family:'Times New Roman';-inkscape-font-specification:TimesNewRomanPSMT;writing-mode:lr-tb;fill:#0e0f0e;fill-opacity:1;fill-rule:nonzero;stroke:none"
           id="text260"><tspan
             x="0 4.5"
             y="0"
             sodipodi:role="line"
             id="tspan258">37</tspan></text><text
           transform="matrix(1,0,0,-1,296.38103,180.308)"
           style="font-variant:normal;font-weight:normal;font-size:12.5px;font-family:'Times New Roman';-inkscape-font-specification:TimesNewRomanPSMT;writing-mode:lr-tb;fill:#0e0f0e;fill-opacity:1;fill-rule:nonzero;stroke:none"
           id="text264"><tspan
             x="0 11.114306 17.364307"
             y="0"
             sodipodi:role="line"
             id="tspan262">Mg(</tspan></text><text
           transform="matrix(1,0,0,-1,317.90803,180.308)"
           style="font-style:italic;font-variant:normal;font-size:12.5px;font-family:'Times New Roman';-inkscape-font-specification:TimesNewRomanPS-ItalicMT;writing-mode:lr-tb;fill:#0e0f0e;fill-opacity:1;fill-rule:nonzero;stroke:none"
           id="text268"><tspan
             x="0"
             y="0"
             id="tspan266">s</tspan></text><text
           transform="matrix(1,0,0,-1,322.77209,180.308)"
           style="font-variant:normal;font-weight:normal;font-size:12.5px;font-family:'Times New Roman';-inkscape-font-specification:TimesNewRomanPSMT;writing-mode:lr-tb;fill:#0e0f0e;fill-opacity:1;fill-rule:nonzero;stroke:none"
           id="text272"><tspan
             x="0"
             y="0"
             id="tspan270">)</tspan></text><text
           transform="matrix(1,0,0,-1,286.38109,168.6412)"
           style="font-variant:normal;font-weight:normal;font-size:9px;font-family:'Times New Roman';-inkscape-font-specification:TimesNewRomanPSMT;writing-mode:lr-tb;fill:#0e0f0e;fill-opacity:1;fill-rule:nonzero;stroke:none"
           id="text276"><tspan
             x="0 4.5"
             y="0"
             sodipodi:role="line"
             id="tspan274">37</tspan></text><text
           transform="matrix(1,0,0,-1,295.38109,163.6412)"
           style="font-variant:normal;font-weight:normal;font-size:12.5px;font-family:'Times New Roman';-inkscape-font-specification:TimesNewRomanPSMT;writing-mode:lr-tb;fill:#0e0f0e;fill-opacity:1;fill-rule:nonzero;stroke:none"
           id="text280"><tspan
             x="0 11.114306 17.364307"
             y="0"
             sodipodi:role="line"
             id="tspan278">Mg(</tspan></text><text
           transform="matrix(1,0,0,-1,316.90809,163.6412)"
           style="font-style:italic;font-variant:normal;font-size:12.5px;font-family:'Times New Roman';-inkscape-font-specification:TimesNewRomanPS-ItalicMT;writing-mode:lr-tb;fill:#0e0f0e;fill-opacity:1;fill-rule:nonzero;stroke:none"
           id="text284"><tspan
             x="0"
             y="0"
             id="tspan282">p</tspan></text><text
           transform="matrix(1,0,0,-1,323.15809,163.6412)"
           style="font-variant:normal;font-weight:normal;font-size:12.5px;font-family:'Times New Roman';-inkscape-font-specification:TimesNewRomanPSMT;writing-mode:lr-tb;fill:#0e0f0e;fill-opacity:1;fill-rule:nonzero;stroke:none"
           id="text288"><tspan
             x="0"
             y="0"
             id="tspan286">)</tspan></text><text
           transform="matrix(1,0,0,-1,308.45419,149.6396)"
           style="font-variant:normal;font-weight:normal;font-size:9px;font-family:'Times New Roman';-inkscape-font-specification:TimesNewRomanPSMT;writing-mode:lr-tb;fill:#0e0f0e;fill-opacity:1;fill-rule:nonzero;stroke:none"
           id="text292"><tspan
             x="0 4.5"
             y="0"
             sodipodi:role="line"
             id="tspan290">41</tspan></text><text
           transform="matrix(1,0,0,-1,317.45419,144.6396)"
           style="font-variant:normal;font-weight:normal;font-size:12.5px;font-family:'Times New Roman';-inkscape-font-specification:TimesNewRomanPSMT;writing-mode:lr-tb;fill:#0e0f0e;fill-opacity:1;fill-rule:nonzero;stroke:none"
           id="text296"><tspan
             x="0 6.9521484"
             y="0"
             sodipodi:role="line"
             id="tspan294">Si</tspan></text></g><path
         d="m 3420.21,2018.14 c 0,21.74 -17.63,39.38 -39.37,39.38 -21.74,0 -39.38,-17.64 -39.38,-39.38 0,-21.73 17.64,-39.37 39.38,-39.37 21.74,0 39.37,17.64 39.37,39.37"
         style="fill:none;stroke:#324faa;stroke-width:5;stroke-linecap:butt;stroke-linejoin:miter;stroke-miterlimit:3.8;stroke-dasharray:none;stroke-opacity:1"
         id="path298" /><path
         d="m 3380.24,1883.84 v 0 l -39.37,-63.79 h 78.75 l -39.38,63.79"
         style="fill:none;stroke:#a443a7;stroke-width:5;stroke-linecap:butt;stroke-linejoin:miter;stroke-miterlimit:3.8;stroke-dasharray:none;stroke-opacity:1"
         id="path300" /><path
         d="m 3380.24,1648.14 v 0 l -39.37,63.79 h 78.75 l -39.38,-63.79"
         style="fill:none;stroke:#0e0f0e;stroke-width:5;stroke-linecap:butt;stroke-linejoin:miter;stroke-miterlimit:3.8;stroke-dasharray:none;stroke-opacity:1"
         id="path302" /><path
         d="m 3378.55,1530.6 v 0 l -39.37,-39.38 39.37,-39.37 39.38,39.37 -39.38,39.38"
         style="fill:none;stroke:#f04126;stroke-width:5;stroke-linecap:butt;stroke-linejoin:miter;stroke-miterlimit:3.8;stroke-dasharray:none;stroke-opacity:1"
         id="path304" /><path
         d="m 3380.24,2329.45 v 63"
         style="fill:none;stroke:#ee2329;stroke-width:5;stroke-linecap:butt;stroke-linejoin:miter;stroke-miterlimit:3.8;stroke-dasharray:none;stroke-opacity:1"
         id="path306" /><path
         d="m 3348.74,2360.95 h 63"
         style="fill:none;stroke:#ee2329;stroke-width:5;stroke-linecap:butt;stroke-linejoin:miter;stroke-miterlimit:3.8;stroke-dasharray:none;stroke-opacity:1"
         id="path308" /><path
         d="m 3348.74,2392.45 63,-63"
         style="fill:none;stroke:#ee2329;stroke-width:5;stroke-linecap:butt;stroke-linejoin:miter;stroke-miterlimit:3.8;stroke-dasharray:none;stroke-opacity:1"
         id="path310" /><path
         d="m 3348.74,2329.45 63,63"
         style="fill:none;stroke:#ee2329;stroke-width:5;stroke-linecap:butt;stroke-linejoin:miter;stroke-miterlimit:3.8;stroke-dasharray:none;stroke-opacity:1"
         id="path312" /><path
         d="m 2717.64,2392.45 v -63 h 62.99 v 63 h -62.99 v 0"
         style="fill:#ee2329;fill-opacity:1;fill-rule:nonzero;stroke:none"
         id="path314" /><path
         d="m 2788.51,2194.78 c 0,21.73 -17.64,39.37 -39.38,39.37 -21.74,0 -39.37,-17.64 -39.37,-39.37 0,-21.74 17.63,-39.38 39.37,-39.38 21.74,0 39.38,17.64 39.38,39.38"
         style="fill:#32713a;fill-opacity:1;fill-rule:nonzero;stroke:none"
         id="path316" /><path
         d="m 2749.13,2048.02 -39.37,-63.79 h 78.75 l -39.38,63.79 v 0"
         style="fill:#324faa;fill-opacity:1;fill-rule:nonzero;stroke:none"
         id="path318" /><path
         d="m 2749.14,1811.42 -39.37,63.79 h 78.75 l -39.38,-63.79 v 0"
         style="fill:#a443a7;fill-opacity:1;fill-rule:nonzero;stroke:none"
         id="path320" /><path
         d="m 2741.26,1703 -39.38,-39.37 39.38,-39.38 39.37,39.38 -39.37,39.37 v 0"
         style="fill:#0e0f0e;fill-opacity:1;fill-rule:nonzero;stroke:none"
         id="path322" /><g
         id="g324"
         transform="scale(10)"><text
           transform="matrix(1,0,0,-1,245.495,236.778)"
           style="font-variant:normal;font-weight:normal;font-size:9px;font-family:'Times New Roman';-inkscape-font-specification:TimesNewRomanPSMT;writing-mode:lr-tb;fill:#0e0f0e;fill-opacity:1;fill-rule:nonzero;stroke:none"
           id="text328"><tspan
             x="0 4.5"
             y="0"
             sodipodi:role="line"
             id="tspan326">15</tspan></text><text
           transform="matrix(1,0,0,-1,254.495,231.778)"
           style="font-variant:normal;font-weight:normal;font-size:12.5px;font-family:'Times New Roman';-inkscape-font-specification:TimesNewRomanPSMT;writing-mode:lr-tb;fill:#0e0f0e;fill-opacity:1;fill-rule:nonzero;stroke:none"
           id="text332"><tspan
             x="0"
             y="0"
             id="tspan330">C</tspan></text><text
           transform="matrix(1,0,0,-1,239.088,219.7772)"
           style="font-variant:normal;font-weight:normal;font-size:9px;font-family:'Times New Roman';-inkscape-font-specification:TimesNewRomanPSMT;writing-mode:lr-tb;fill:#0e0f0e;fill-opacity:1;fill-rule:nonzero;stroke:none"
           id="text336"><tspan
             x="0 4.5"
             y="0"
             sodipodi:role="line"
             id="tspan334">29</tspan></text><text
           transform="matrix(1,0,0,-1,248.088,214.7772)"
           style="font-variant:normal;font-weight:normal;font-size:12.5px;font-family:'Times New Roman';-inkscape-font-specification:TimesNewRomanPSMT;writing-mode:lr-tb;fill:#0e0f0e;fill-opacity:1;fill-rule:nonzero;stroke:none"
           id="text340"><tspan
             x="0 9.0273438"
             y="0"
             sodipodi:role="line"
             id="tspan338">Ne</tspan></text><text
           transform="matrix(1,0,0,-1,236.422,202.7772)"
           style="font-variant:normal;font-weight:normal;font-size:9px;font-family:'Times New Roman';-inkscape-font-specification:TimesNewRomanPSMT;writing-mode:lr-tb;fill:#0e0f0e;fill-opacity:1;fill-rule:nonzero;stroke:none"
           id="text344"><tspan
             x="0 4.5"
             y="0"
             sodipodi:role="line"
             id="tspan342">33</tspan></text><text
           transform="matrix(1,0,0,-1,245.422,197.7772)"
           style="font-variant:normal;font-weight:normal;font-size:12.5px;font-family:'Times New Roman';-inkscape-font-specification:TimesNewRomanPSMT;writing-mode:lr-tb;fill:#0e0f0e;fill-opacity:1;fill-rule:nonzero;stroke:none"
           id="text348"><tspan
             x="0 11.114306"
             y="0"
             sodipodi:role="line"
             id="tspan346">Mg</tspan></text><text
           transform="matrix(1,0,0,-1,236.422,186.11)"
           style="font-variant:normal;font-weight:normal;font-size:9px;font-family:'Times New Roman';-inkscape-font-specification:TimesNewRomanPSMT;writing-mode:lr-tb;fill:#0e0f0e;fill-opacity:1;fill-rule:nonzero;stroke:none"
           id="text352"><tspan
             x="0 4.5"
             y="0"
             sodipodi:role="line"
             id="tspan350">35</tspan></text><text
           transform="matrix(1,0,0,-1,245.422,181.11)"
           style="font-variant:normal;font-weight:normal;font-size:12.5px;font-family:'Times New Roman';-inkscape-font-specification:TimesNewRomanPSMT;writing-mode:lr-tb;fill:#0e0f0e;fill-opacity:1;fill-rule:nonzero;stroke:none"
           id="text356"><tspan
             x="0 11.114306"
             y="0"
             sodipodi:role="line"
             id="tspan354">Mg</tspan></text><text
           transform="matrix(1,0,0,-1,243.49505,167.1092)"
           style="font-variant:normal;font-weight:normal;font-size:9px;font-family:'Times New Roman';-inkscape-font-specification:TimesNewRomanPSMT;writing-mode:lr-tb;fill:#0e0f0e;fill-opacity:1;fill-rule:nonzero;stroke:none"
           id="text360"><tspan
             x="0 4.5"
             y="0"
             sodipodi:role="line"
             id="tspan358">39</tspan></text><text
           transform="matrix(1,0,0,-1,252.49505,162.1092)"
           style="font-variant:normal;font-weight:normal;font-size:12.5px;font-family:'Times New Roman';-inkscape-font-specification:TimesNewRomanPSMT;writing-mode:lr-tb;fill:#0e0f0e;fill-opacity:1;fill-rule:nonzero;stroke:none"
           id="text364"><tspan
             x="0 6.9521484"
             y="0"
             sodipodi:role="line"
             id="tspan362">Si</tspan></text></g></g></g></svg>
