<?xml version="1.0" encoding="UTF-8" standalone="no"?>
<svg
   xmlns:dc="http://purl.org/dc/elements/1.1/"
   xmlns:cc="http://creativecommons.org/ns#"
   xmlns:rdf="http://www.w3.org/1999/02/22-rdf-syntax-ns#"
   xmlns:svg="http://www.w3.org/2000/svg"
   xmlns="http://www.w3.org/2000/svg"
   viewBox="0 0 610.79999 558.28003"
   height="558.28003"
   width="610.79999"
   xml:space="preserve"
   id="svg2"
   version="1.1"><metadata
     id="metadata8"><rdf:RDF><cc:Work
         rdf:about=""><dc:format>image/svg+xml</dc:format><dc:type
           rdf:resource="http://purl.org/dc/dcmitype/StillImage" /></cc:Work></rdf:RDF></metadata><defs
     id="defs6" /><g
     transform="matrix(1.3333333,0,0,-1.3333333,0,558.28)"
     id="g10"><g
       transform="scale(0.1)"
       id="g12"><path
         id="path14"
         style="fill:none;stroke:#231f20;stroke-width:7.5;stroke-linecap:butt;stroke-linejoin:miter;stroke-miterlimit:3.79999995;stroke-dasharray:none;stroke-opacity:1"
         d="m 678.59,518.488 h 70.586" /><path
         id="path16"
         style="fill:none;stroke:#231f20;stroke-width:7.5;stroke-linecap:butt;stroke-linejoin:miter;stroke-miterlimit:3.79999995;stroke-dasharray:none;stroke-opacity:1"
         d="m 4567.36,518.488 h -70.59" /><path
         id="path18"
         style="fill:none;stroke:#231f20;stroke-width:7.5;stroke-linecap:butt;stroke-linejoin:miter;stroke-miterlimit:3.79999995;stroke-dasharray:none;stroke-opacity:1"
         d="m 678.59,784.43 h 34.723" /><path
         id="path20"
         style="fill:none;stroke:#231f20;stroke-width:7.5;stroke-linecap:butt;stroke-linejoin:miter;stroke-miterlimit:3.79999995;stroke-dasharray:none;stroke-opacity:1"
         d="m 4567.36,784.43 h -34.72" /><path
         id="path22"
         style="fill:none;stroke:#231f20;stroke-width:7.5;stroke-linecap:butt;stroke-linejoin:miter;stroke-miterlimit:3.79999995;stroke-dasharray:none;stroke-opacity:1"
         d="m 678.59,940.449 h 34.723" /><path
         id="path24"
         style="fill:none;stroke:#231f20;stroke-width:7.5;stroke-linecap:butt;stroke-linejoin:miter;stroke-miterlimit:3.79999995;stroke-dasharray:none;stroke-opacity:1"
         d="m 4567.36,940.449 h -34.72" /><path
         id="path26"
         style="fill:none;stroke:#231f20;stroke-width:7.5;stroke-linecap:butt;stroke-linejoin:miter;stroke-miterlimit:3.79999995;stroke-dasharray:none;stroke-opacity:1"
         d="m 678.59,1051.52 h 34.723" /><path
         id="path28"
         style="fill:none;stroke:#231f20;stroke-width:7.5;stroke-linecap:butt;stroke-linejoin:miter;stroke-miterlimit:3.79999995;stroke-dasharray:none;stroke-opacity:1"
         d="m 4567.36,1051.52 h -34.72" /><path
         id="path30"
         style="fill:none;stroke:#231f20;stroke-width:7.5;stroke-linecap:butt;stroke-linejoin:miter;stroke-miterlimit:3.79999995;stroke-dasharray:none;stroke-opacity:1"
         d="m 678.59,1137.12 h 34.723" /><path
         id="path32"
         style="fill:none;stroke:#231f20;stroke-width:7.5;stroke-linecap:butt;stroke-linejoin:miter;stroke-miterlimit:3.79999995;stroke-dasharray:none;stroke-opacity:1"
         d="m 4567.36,1137.12 h -34.72" /><path
         id="path34"
         style="fill:none;stroke:#231f20;stroke-width:7.5;stroke-linecap:butt;stroke-linejoin:miter;stroke-miterlimit:3.79999995;stroke-dasharray:none;stroke-opacity:1"
         d="m 678.59,1207.43 h 34.723" /><path
         id="path36"
         style="fill:none;stroke:#231f20;stroke-width:7.5;stroke-linecap:butt;stroke-linejoin:miter;stroke-miterlimit:3.79999995;stroke-dasharray:none;stroke-opacity:1"
         d="m 4567.36,1207.43 h -34.72" /><path
         id="path38"
         style="fill:none;stroke:#231f20;stroke-width:7.5;stroke-linecap:butt;stroke-linejoin:miter;stroke-miterlimit:3.79999995;stroke-dasharray:none;stroke-opacity:1"
         d="m 678.59,1266.62 h 34.723" /><path
         id="path40"
         style="fill:none;stroke:#231f20;stroke-width:7.5;stroke-linecap:butt;stroke-linejoin:miter;stroke-miterlimit:3.79999995;stroke-dasharray:none;stroke-opacity:1"
         d="m 4567.36,1266.62 h -34.72" /><path
         id="path42"
         style="fill:none;stroke:#231f20;stroke-width:7.5;stroke-linecap:butt;stroke-linejoin:miter;stroke-miterlimit:3.79999995;stroke-dasharray:none;stroke-opacity:1"
         d="m 678.59,1317.58 h 34.723" /><path
         id="path44"
         style="fill:none;stroke:#231f20;stroke-width:7.5;stroke-linecap:butt;stroke-linejoin:miter;stroke-miterlimit:3.79999995;stroke-dasharray:none;stroke-opacity:1"
         d="m 4567.36,1317.58 h -34.72" /><path
         id="path46"
         style="fill:none;stroke:#231f20;stroke-width:7.5;stroke-linecap:butt;stroke-linejoin:miter;stroke-miterlimit:3.79999995;stroke-dasharray:none;stroke-opacity:1"
         d="m 678.59,1363.45 h 34.723" /><path
         id="path48"
         style="fill:none;stroke:#231f20;stroke-width:7.5;stroke-linecap:butt;stroke-linejoin:miter;stroke-miterlimit:3.79999995;stroke-dasharray:none;stroke-opacity:1"
         d="m 4567.36,1363.45 h -34.72" /><path
         id="path50"
         style="fill:none;stroke:#231f20;stroke-width:7.5;stroke-linecap:butt;stroke-linejoin:miter;stroke-miterlimit:3.79999995;stroke-dasharray:none;stroke-opacity:1"
         d="m 678.59,1403.17 h 70.586" /><path
         id="path52"
         style="fill:none;stroke:#231f20;stroke-width:7.5;stroke-linecap:butt;stroke-linejoin:miter;stroke-miterlimit:3.79999995;stroke-dasharray:none;stroke-opacity:1"
         d="m 4567.36,1403.17 h -70.59" /><path
         id="path54"
         style="fill:none;stroke:#231f20;stroke-width:7.5;stroke-linecap:butt;stroke-linejoin:miter;stroke-miterlimit:3.79999995;stroke-dasharray:none;stroke-opacity:1"
         d="m 678.59,1670.26 h 34.723" /><path
         id="path56"
         style="fill:none;stroke:#231f20;stroke-width:7.5;stroke-linecap:butt;stroke-linejoin:miter;stroke-miterlimit:3.79999995;stroke-dasharray:none;stroke-opacity:1"
         d="m 4567.36,1670.26 h -34.72" /><path
         id="path58"
         style="fill:none;stroke:#231f20;stroke-width:7.5;stroke-linecap:butt;stroke-linejoin:miter;stroke-miterlimit:3.79999995;stroke-dasharray:none;stroke-opacity:1"
         d="m 678.59,1826.17 h 34.723" /><path
         id="path60"
         style="fill:none;stroke:#231f20;stroke-width:7.5;stroke-linecap:butt;stroke-linejoin:miter;stroke-miterlimit:3.79999995;stroke-dasharray:none;stroke-opacity:1"
         d="m 4567.36,1826.17 h -34.72" /><path
         id="path62"
         style="fill:none;stroke:#231f20;stroke-width:7.5;stroke-linecap:butt;stroke-linejoin:miter;stroke-miterlimit:3.79999995;stroke-dasharray:none;stroke-opacity:1"
         d="m 678.59,1936.21 h 34.723" /><path
         id="path64"
         style="fill:none;stroke:#231f20;stroke-width:7.5;stroke-linecap:butt;stroke-linejoin:miter;stroke-miterlimit:3.79999995;stroke-dasharray:none;stroke-opacity:1"
         d="m 4567.36,1936.21 h -34.72" /><path
         id="path66"
         style="fill:none;stroke:#231f20;stroke-width:7.5;stroke-linecap:butt;stroke-linejoin:miter;stroke-miterlimit:3.79999995;stroke-dasharray:none;stroke-opacity:1"
         d="m 678.59,2021.91 h 34.723" /><path
         id="path68"
         style="fill:none;stroke:#231f20;stroke-width:7.5;stroke-linecap:butt;stroke-linejoin:miter;stroke-miterlimit:3.79999995;stroke-dasharray:none;stroke-opacity:1"
         d="m 4567.36,2021.91 h -34.72" /><path
         id="path70"
         style="fill:none;stroke:#231f20;stroke-width:7.5;stroke-linecap:butt;stroke-linejoin:miter;stroke-miterlimit:3.79999995;stroke-dasharray:none;stroke-opacity:1"
         d="m 678.59,2092.23 h 34.723" /><path
         id="path72"
         style="fill:none;stroke:#231f20;stroke-width:7.5;stroke-linecap:butt;stroke-linejoin:miter;stroke-miterlimit:3.79999995;stroke-dasharray:none;stroke-opacity:1"
         d="m 4567.36,2092.23 h -34.72" /><path
         id="path74"
         style="fill:none;stroke:#231f20;stroke-width:7.5;stroke-linecap:butt;stroke-linejoin:miter;stroke-miterlimit:3.79999995;stroke-dasharray:none;stroke-opacity:1"
         d="m 678.59,2151.3 h 34.723" /><path
         id="path76"
         style="fill:none;stroke:#231f20;stroke-width:7.5;stroke-linecap:butt;stroke-linejoin:miter;stroke-miterlimit:3.79999995;stroke-dasharray:none;stroke-opacity:1"
         d="m 4567.36,2151.3 h -34.72" /><path
         id="path78"
         style="fill:none;stroke:#231f20;stroke-width:7.5;stroke-linecap:butt;stroke-linejoin:miter;stroke-miterlimit:3.79999995;stroke-dasharray:none;stroke-opacity:1"
         d="m 678.59,2202.27 h 34.723" /><path
         id="path80"
         style="fill:none;stroke:#231f20;stroke-width:7.5;stroke-linecap:butt;stroke-linejoin:miter;stroke-miterlimit:3.79999995;stroke-dasharray:none;stroke-opacity:1"
         d="m 4567.36,2202.27 h -34.72" /><path
         id="path82"
         style="fill:none;stroke:#231f20;stroke-width:7.5;stroke-linecap:butt;stroke-linejoin:miter;stroke-miterlimit:3.79999995;stroke-dasharray:none;stroke-opacity:1"
         d="m 678.59,2248.14 h 34.723" /><path
         id="path84"
         style="fill:none;stroke:#231f20;stroke-width:7.5;stroke-linecap:butt;stroke-linejoin:miter;stroke-miterlimit:3.79999995;stroke-dasharray:none;stroke-opacity:1"
         d="m 4567.36,2248.14 h -34.72" /><path
         id="path86"
         style="fill:none;stroke:#231f20;stroke-width:7.5;stroke-linecap:butt;stroke-linejoin:miter;stroke-miterlimit:3.79999995;stroke-dasharray:none;stroke-opacity:1"
         d="m 678.59,2288.91 h 70.586" /><path
         id="path88"
         style="fill:none;stroke:#231f20;stroke-width:7.5;stroke-linecap:butt;stroke-linejoin:miter;stroke-miterlimit:3.79999995;stroke-dasharray:none;stroke-opacity:1"
         d="m 4567.36,2288.91 h -70.59" /><path
         id="path90"
         style="fill:none;stroke:#231f20;stroke-width:7.5;stroke-linecap:butt;stroke-linejoin:miter;stroke-miterlimit:3.79999995;stroke-dasharray:none;stroke-opacity:1"
         d="m 678.59,2554.95 h 34.723" /><path
         id="path92"
         style="fill:none;stroke:#231f20;stroke-width:7.5;stroke-linecap:butt;stroke-linejoin:miter;stroke-miterlimit:3.79999995;stroke-dasharray:none;stroke-opacity:1"
         d="m 4567.36,2554.95 h -34.72" /><path
         id="path94"
         style="fill:none;stroke:#231f20;stroke-width:7.5;stroke-linecap:butt;stroke-linejoin:miter;stroke-miterlimit:3.79999995;stroke-dasharray:none;stroke-opacity:1"
         d="m 678.59,2710.86 h 34.723" /><path
         id="path96"
         style="fill:none;stroke:#231f20;stroke-width:7.5;stroke-linecap:butt;stroke-linejoin:miter;stroke-miterlimit:3.79999995;stroke-dasharray:none;stroke-opacity:1"
         d="m 4567.36,2710.86 h -34.72" /><path
         id="path98"
         style="fill:none;stroke:#231f20;stroke-width:7.5;stroke-linecap:butt;stroke-linejoin:miter;stroke-miterlimit:3.79999995;stroke-dasharray:none;stroke-opacity:1"
         d="m 678.59,2821 h 34.723" /><path
         id="path100"
         style="fill:none;stroke:#231f20;stroke-width:7.5;stroke-linecap:butt;stroke-linejoin:miter;stroke-miterlimit:3.79999995;stroke-dasharray:none;stroke-opacity:1"
         d="m 4567.36,2821 h -34.72" /><path
         id="path102"
         style="fill:none;stroke:#231f20;stroke-width:7.5;stroke-linecap:butt;stroke-linejoin:miter;stroke-miterlimit:3.79999995;stroke-dasharray:none;stroke-opacity:1"
         d="m 678.59,2906.6 h 34.723" /><path
         id="path104"
         style="fill:none;stroke:#231f20;stroke-width:7.5;stroke-linecap:butt;stroke-linejoin:miter;stroke-miterlimit:3.79999995;stroke-dasharray:none;stroke-opacity:1"
         d="m 4567.36,2906.6 h -34.72" /><path
         id="path106"
         style="fill:none;stroke:#231f20;stroke-width:7.5;stroke-linecap:butt;stroke-linejoin:miter;stroke-miterlimit:3.79999995;stroke-dasharray:none;stroke-opacity:1"
         d="m 678.59,2976.91 h 34.723" /><path
         id="path108"
         style="fill:none;stroke:#231f20;stroke-width:7.5;stroke-linecap:butt;stroke-linejoin:miter;stroke-miterlimit:3.79999995;stroke-dasharray:none;stroke-opacity:1"
         d="m 4567.36,2976.91 h -34.72" /><path
         id="path110"
         style="fill:none;stroke:#231f20;stroke-width:7.5;stroke-linecap:butt;stroke-linejoin:miter;stroke-miterlimit:3.79999995;stroke-dasharray:none;stroke-opacity:1"
         d="m 678.59,3036.09 h 34.723" /><path
         id="path112"
         style="fill:none;stroke:#231f20;stroke-width:7.5;stroke-linecap:butt;stroke-linejoin:miter;stroke-miterlimit:3.79999995;stroke-dasharray:none;stroke-opacity:1"
         d="m 4567.36,3036.09 h -34.72" /><path
         id="path114"
         style="fill:none;stroke:#231f20;stroke-width:7.5;stroke-linecap:butt;stroke-linejoin:miter;stroke-miterlimit:3.79999995;stroke-dasharray:none;stroke-opacity:1"
         d="m 678.59,3087.99 h 34.723" /><path
         id="path116"
         style="fill:none;stroke:#231f20;stroke-width:7.5;stroke-linecap:butt;stroke-linejoin:miter;stroke-miterlimit:3.79999995;stroke-dasharray:none;stroke-opacity:1"
         d="m 4567.36,3087.99 h -34.72" /><path
         id="path118"
         style="fill:none;stroke:#231f20;stroke-width:7.5;stroke-linecap:butt;stroke-linejoin:miter;stroke-miterlimit:3.79999995;stroke-dasharray:none;stroke-opacity:1"
         d="m 678.59,3132.92 h 34.723" /><path
         id="path120"
         style="fill:none;stroke:#231f20;stroke-width:7.5;stroke-linecap:butt;stroke-linejoin:miter;stroke-miterlimit:3.79999995;stroke-dasharray:none;stroke-opacity:1"
         d="m 4567.36,3132.92 h -34.72" /><path
         id="path122"
         style="fill:none;stroke:#231f20;stroke-width:7.5;stroke-linecap:butt;stroke-linejoin:miter;stroke-miterlimit:3.79999995;stroke-dasharray:none;stroke-opacity:1"
         d="m 678.59,3173.69 h 70.586" /><path
         id="path124"
         style="fill:none;stroke:#231f20;stroke-width:7.5;stroke-linecap:butt;stroke-linejoin:miter;stroke-miterlimit:3.79999995;stroke-dasharray:none;stroke-opacity:1"
         d="m 4567.36,3173.69 h -70.59" /><path
         id="path126"
         style="fill:none;stroke:#231f20;stroke-width:7.5;stroke-linecap:butt;stroke-linejoin:miter;stroke-miterlimit:3.79999995;stroke-dasharray:none;stroke-opacity:1"
         d="m 678.59,3439.64 h 34.723" /><path
         id="path128"
         style="fill:none;stroke:#231f20;stroke-width:7.5;stroke-linecap:butt;stroke-linejoin:miter;stroke-miterlimit:3.79999995;stroke-dasharray:none;stroke-opacity:1"
         d="m 4567.36,3439.64 h -34.72" /><path
         id="path130"
         style="fill:none;stroke:#231f20;stroke-width:7.5;stroke-linecap:butt;stroke-linejoin:miter;stroke-miterlimit:3.79999995;stroke-dasharray:none;stroke-opacity:1"
         d="m 678.59,3595.65 h 34.723" /><path
         id="path132"
         style="fill:none;stroke:#231f20;stroke-width:7.5;stroke-linecap:butt;stroke-linejoin:miter;stroke-miterlimit:3.79999995;stroke-dasharray:none;stroke-opacity:1"
         d="m 4567.36,3595.65 h -34.72" /><path
         id="path134"
         style="fill:none;stroke:#231f20;stroke-width:7.5;stroke-linecap:butt;stroke-linejoin:miter;stroke-miterlimit:3.79999995;stroke-dasharray:none;stroke-opacity:1"
         d="m 678.59,3705.69 h 34.723" /><path
         id="path136"
         style="fill:none;stroke:#231f20;stroke-width:7.5;stroke-linecap:butt;stroke-linejoin:miter;stroke-miterlimit:3.79999995;stroke-dasharray:none;stroke-opacity:1"
         d="m 4567.36,3705.69 h -34.72" /><path
         id="path138"
         style="fill:none;stroke:#231f20;stroke-width:7.5;stroke-linecap:butt;stroke-linejoin:miter;stroke-miterlimit:3.79999995;stroke-dasharray:none;stroke-opacity:1"
         d="m 678.59,3792.33 h 34.723" /><path
         id="path140"
         style="fill:none;stroke:#231f20;stroke-width:7.5;stroke-linecap:butt;stroke-linejoin:miter;stroke-miterlimit:3.79999995;stroke-dasharray:none;stroke-opacity:1"
         d="m 4567.36,3792.33 h -34.72" /><path
         id="path142"
         style="fill:none;stroke:#231f20;stroke-width:7.5;stroke-linecap:butt;stroke-linejoin:miter;stroke-miterlimit:3.79999995;stroke-dasharray:none;stroke-opacity:1"
         d="m 678.59,3861.7 h 34.723" /><path
         id="path144"
         style="fill:none;stroke:#231f20;stroke-width:7.5;stroke-linecap:butt;stroke-linejoin:miter;stroke-miterlimit:3.79999995;stroke-dasharray:none;stroke-opacity:1"
         d="m 4567.36,3861.7 h -34.72" /><path
         id="path146"
         style="fill:none;stroke:#231f20;stroke-width:7.5;stroke-linecap:butt;stroke-linejoin:miter;stroke-miterlimit:3.79999995;stroke-dasharray:none;stroke-opacity:1"
         d="m 678.59,3921.82 h 34.723" /><path
         id="path148"
         style="fill:none;stroke:#231f20;stroke-width:7.5;stroke-linecap:butt;stroke-linejoin:miter;stroke-miterlimit:3.79999995;stroke-dasharray:none;stroke-opacity:1"
         d="m 4567.36,3921.82 h -34.72" /><path
         id="path150"
         style="fill:none;stroke:#231f20;stroke-width:7.5;stroke-linecap:butt;stroke-linejoin:miter;stroke-miterlimit:3.79999995;stroke-dasharray:none;stroke-opacity:1"
         d="m 678.59,3972.78 h 34.723" /><path
         id="path152"
         style="fill:none;stroke:#231f20;stroke-width:7.5;stroke-linecap:butt;stroke-linejoin:miter;stroke-miterlimit:3.79999995;stroke-dasharray:none;stroke-opacity:1"
         d="m 4567.36,3972.78 h -34.72" /><path
         id="path154"
         style="fill:none;stroke:#231f20;stroke-width:7.5;stroke-linecap:butt;stroke-linejoin:miter;stroke-miterlimit:3.79999995;stroke-dasharray:none;stroke-opacity:1"
         d="m 678.59,4017.61 h 34.723" /><path
         id="path156"
         style="fill:none;stroke:#231f20;stroke-width:7.5;stroke-linecap:butt;stroke-linejoin:miter;stroke-miterlimit:3.79999995;stroke-dasharray:none;stroke-opacity:1"
         d="m 4567.36,4017.61 h -34.72" /><path
         id="path158"
         style="fill:none;stroke:#231f20;stroke-width:7.5;stroke-linecap:butt;stroke-linejoin:miter;stroke-miterlimit:3.79999995;stroke-dasharray:none;stroke-opacity:1"
         d="m 678.59,4058.38 h 70.586" /><path
         id="path160"
         style="fill:none;stroke:#231f20;stroke-width:7.5;stroke-linecap:butt;stroke-linejoin:miter;stroke-miterlimit:3.79999995;stroke-dasharray:none;stroke-opacity:1"
         d="m 4567.36,4058.38 h -70.59" /><path
         id="path162"
         style="fill:none;stroke:#231f20;stroke-width:7.5;stroke-linecap:butt;stroke-linejoin:miter;stroke-miterlimit:3.79999995;stroke-dasharray:none;stroke-opacity:1"
         d="M 994.293,518.488 V 582.66" /><path
         id="path164"
         style="fill:none;stroke:#231f20;stroke-width:7.5;stroke-linecap:butt;stroke-linejoin:miter;stroke-miterlimit:3.79999995;stroke-dasharray:none;stroke-opacity:1"
         d="M 994.293,4058.38 V 3994.2" /><path
         id="path166"
         style="fill:none;stroke:#231f20;stroke-width:7.5;stroke-linecap:butt;stroke-linejoin:miter;stroke-miterlimit:3.79999995;stroke-dasharray:none;stroke-opacity:1"
         d="M 1519.25,518.488 V 582.66" /><path
         id="path168"
         style="fill:none;stroke:#231f20;stroke-width:7.5;stroke-linecap:butt;stroke-linejoin:miter;stroke-miterlimit:3.79999995;stroke-dasharray:none;stroke-opacity:1"
         d="M 1519.25,4058.38 V 3994.2" /><path
         id="path170"
         style="fill:none;stroke:#231f20;stroke-width:7.5;stroke-linecap:butt;stroke-linejoin:miter;stroke-miterlimit:3.79999995;stroke-dasharray:none;stroke-opacity:1"
         d="M 2045.36,518.488 V 582.66" /><path
         id="path172"
         style="fill:none;stroke:#231f20;stroke-width:7.5;stroke-linecap:butt;stroke-linejoin:miter;stroke-miterlimit:3.79999995;stroke-dasharray:none;stroke-opacity:1"
         d="M 2045.36,4058.38 V 3994.2" /><path
         id="path174"
         style="fill:none;stroke:#231f20;stroke-width:7.5;stroke-linecap:butt;stroke-linejoin:miter;stroke-miterlimit:3.79999995;stroke-dasharray:none;stroke-opacity:1"
         d="M 2570.31,518.488 V 582.66" /><path
         id="path176"
         style="fill:none;stroke:#231f20;stroke-width:7.5;stroke-linecap:butt;stroke-linejoin:miter;stroke-miterlimit:3.79999995;stroke-dasharray:none;stroke-opacity:1"
         d="M 2570.31,4058.38 V 3994.2" /><path
         id="path178"
         style="fill:none;stroke:#231f20;stroke-width:7.5;stroke-linecap:butt;stroke-linejoin:miter;stroke-miterlimit:3.79999995;stroke-dasharray:none;stroke-opacity:1"
         d="M 3096.42,518.488 V 582.66" /><path
         id="path180"
         style="fill:none;stroke:#231f20;stroke-width:7.5;stroke-linecap:butt;stroke-linejoin:miter;stroke-miterlimit:3.79999995;stroke-dasharray:none;stroke-opacity:1"
         d="M 3096.42,4058.38 V 3994.2" /><path
         id="path182"
         style="fill:none;stroke:#231f20;stroke-width:7.5;stroke-linecap:butt;stroke-linejoin:miter;stroke-miterlimit:3.79999995;stroke-dasharray:none;stroke-opacity:1"
         d="M 3621.49,518.488 V 582.66" /><path
         id="path184"
         style="fill:none;stroke:#231f20;stroke-width:7.5;stroke-linecap:butt;stroke-linejoin:miter;stroke-miterlimit:3.79999995;stroke-dasharray:none;stroke-opacity:1"
         d="M 3621.49,4058.38 V 3994.2" /><path
         id="path186"
         style="fill:none;stroke:#231f20;stroke-width:7.5;stroke-linecap:butt;stroke-linejoin:miter;stroke-miterlimit:3.79999995;stroke-dasharray:none;stroke-opacity:1"
         d="M 4146.46,518.488 V 582.66" /><path
         id="path188"
         style="fill:none;stroke:#231f20;stroke-width:7.5;stroke-linecap:butt;stroke-linejoin:miter;stroke-miterlimit:3.79999995;stroke-dasharray:none;stroke-opacity:1"
         d="M 4146.46,4058.38 V 3994.2" /><path
         id="path190"
         style="fill:none;stroke:#231f20;stroke-width:7.5;stroke-linecap:butt;stroke-linejoin:miter;stroke-miterlimit:3.79999995;stroke-dasharray:none;stroke-opacity:1"
         d="M 678.59,518.488 H 4567.33 V 4058.38 H 678.59 Z" /><path
         id="path192"
         style="fill:none;stroke:#231f20;stroke-width:7.5;stroke-linecap:butt;stroke-linejoin:miter;stroke-miterlimit:3.79999995;stroke-dasharray:none;stroke-opacity:1"
         d="M 678.59,518.488 H 4567.33 V 4058.38 H 678.59 Z" /><path
         id="path194"
         style="fill:#231f20;fill-opacity:1;fill-rule:nonzero;stroke:none"
         d="m 2199.03,222.66 c 1.45,6 1.96,8.199 5.71,9.219 1.99,0.5 10.19,0.5 15.47,0.5 24.88,0 36.6,-1.008 36.6,-20.469 0,-3.75 -1.02,-13.199 -2.5,-22.461 l -0.28,-2.969 c 0,-1.011 1.02,-2.5 2.5,-2.5 2.5,0 2.5,1.25 3.25,5.2 l 7.22,44.14 c 0.51,2.309 0.51,2.809 0.51,3.559 0,2.73 -1.52,2.73 -6.48,2.73 h -136.22 c -5.78,0 -6.01,-0.23 -7.5,-4.73 l -15.19,-44.918 c -0.23,-0.551 -0.98,-3.242 -0.98,-3.481 0,-1.25 0.98,-2.5 2.5,-2.5 1.99,0 2.5,0.981 3.44,4.18 10.47,30.281 15.7,44.219 48.87,44.219 h 16.64 c 6.01,0 8.47,0 8.47,-2.77 0,-0.738 0,-1.211 -1.25,-5.738 L 2146.46,89.9102 c -2.5,-9.711 -2.97,-12.211 -29.42,-12.211 -6.21,0 -7.97,0 -7.97,-4.6875 0,-2.5 2.78,-2.5 4.03,-2.5 6.21,0 12.69,0 18.9,0 h 38.87 c 6.25,0 12.93,0 19.14,0 2.77,0 5.27,0 5.27,4.6875 0,2.5 -1.75,2.5 -8.2,2.5 -22.42,0 -22.42,2.2617 -22.42,5.961 0,0.289 0,2.039 0.97,6.0703 l 33.4,132.9295" /><path
         id="path196"
         style="fill:#231f20;fill-opacity:1;fill-rule:nonzero;stroke:none"
         d="m 2275.75,87.4102 c 1.2,4.8593 6.1,9.9296 8.91,12.3593 1.86,1.7505 7.65,6.6405 14.3,6.6405 7.65,0 11.13,-7.66 11.13,-16.7186 0,-8.3633 -4.88,-28.0508 -9.22,-37.0703 -4.38,-9.4219 -12.38,-17.7422 -20.43,-17.7422 -11.84,0 -13.75,14.9609 -13.75,15.6719 0,0.5078 0.31,1.9101 0.51,2.7695 z M 2245.6,11.6406 c -1.25,-5.19138 -1.92,-6.60154 -9.11,-6.60154 -2.07,0 -3.78,0 -3.78,-3.27734 0,-0.35156 0.15,-1.76172 2.07,-1.76172 2.26,0 4.68,0 6.95,0 h 7.54 c 3.63,0 12.54,0 16.21,0 1.01,0 3.12,0 3.12,3.16016 0,1.8789 -1.25,1.8789 -4.21,1.8789 -8.01,0 -8.52,1.21094 -8.52,2.58203 0,2.07032 7.85,31.46871 8.91,35.42971 1.91,-4.8906 6.6,-11.6406 15.66,-11.6406 19.69,0 40.98,25.5781 40.98,51.1289 0,16.0195 -9.08,27.3009 -22.15,27.3009 -11.14,0 -20.55,-10.7814 -22.46,-13.1994 -1.41,8.6684 -8.21,13.1994 -15.2,13.1994 -5.04,0 -9.06,-2.43 -12.34,-9.02 -3.17,-6.2887 -5.59,-16.8708 -5.59,-17.5895 0,-0.6914 0.67,-1.5508 1.92,-1.5508 1.36,0 1.56,0.1601 2.61,4.1797 2.58,10.2695 5.94,20.5506 12.89,20.5506 4.03,0 5.39,-2.82 5.39,-7.9686 0,-4.1406 -0.5,-5.9023 -1.21,-8.9922 L 2245.6,11.6406" /><path
         id="path198"
         style="fill:#231f20;fill-opacity:1;fill-rule:nonzero;stroke:none"
         d="m 2476.42,9.76953 c 0,0.23047 0,0.74217 -0.76,1.44137 -11.43,11.6289 -42.07,43.4375 -42.07,120.8201 0,77.348 30.13,108.867 42.36,121.25 0,0.278 0.47,0.778 0.47,1.528 0,0.742 -0.76,1.25 -1.72,1.25 -2.79,0 -23.95,-18.36 -36.14,-45.719 -12.47,-27.488 -15.93,-54.25 -15.93,-78.031 0,-17.899 1.76,-48.1684 16.68,-80.1176 11.95,-25.8633 32.38,-43.96093 35.39,-43.96093 1.25,0 1.72,0.51953 1.72,1.53906 v 0" /><path
         id="path200"
         style="fill:#231f20;fill-opacity:1;fill-rule:nonzero;stroke:none"
         d="m 2540.48,234.879 c -1.52,3.75 -1.76,3.75 -6.99,3.75 h -31.88 v -6.25 c 17.19,0 19.91,0 19.91,-11.09 V 94.2188 c 0,-6.168 0,-17.7696 -19.91,-17.7696 V 70 c 5.7,0.5117 16.16,0.5117 22.38,0.5117 6.25,0 16.71,0 22.43,-0.5117 v 6.4492 c -19.93,0 -19.93,11.6016 -19.93,17.7696 V 231.41 h 0.28 l 58.54,-157.4608 c 0.95,-2.4687 1.46,-3.9492 3.45,-3.9492 1.99,0 2.5,1.4805 3.52,3.9492 l 59.02,158.6718 h 0.22 V 87.5391 c 0,-11.0899 -2.72,-11.0899 -19.91,-11.0899 V 70 c 6.72,0.5117 20.16,0.5117 27.37,0.5117 7.28,0 20.95,0 27.67,-0.5117 v 6.4492 c -17.2,0 -19.92,0 -19.92,11.0899 V 221.289 c 0,11.09 2.72,11.09 19.92,11.09 v 6.25 h -31.6 c -5.27,0 -5.51,-0.231 -6.99,-3.981 L 2594.27,90.0391 2540.48,234.879" /><path
         id="path202"
         style="fill:#231f20;fill-opacity:1;fill-rule:nonzero;stroke:none"
         d="m 2723.06,131.52 c 1.72,36.449 20.9,44.609 30.86,44.609 16.95,0 28.39,-16.25 28.63,-44.609 z m 71.95,-3.75 c 1.02,1.019 1.02,1.531 1.02,4.07 0,25.738 -13.48,48.238 -41.84,48.238 -26.46,0 -47.34,-25.168 -47.34,-55.738 0,-32.3908 23.67,-56.3283 50.04,-56.3283 27.92,0 38.9,26.0781 38.9,31.2891 0,1.7192 -1.52,1.7192 -2.03,1.7192 -1.72,0 -1.99,-0.508 -2.97,-3.4419 C 2785.31,80.8203 2771.61,72.5 2758.63,72.5 c -10.69,0 -21.39,5.8984 -28.11,16.6797 -7.75,12.5823 -7.75,27.0703 -7.75,38.5903 h 72.24" /><path
         id="path204"
         style="fill:#231f20;fill-opacity:1;fill-rule:nonzero;stroke:none"
         d="m 2948.29,216.25 c 2.27,5.469 6.21,16.129 22.93,16.129 v 6.723 c -5.74,-0.512 -12.24,-0.512 -18.49,-0.512 -5.92,0 -16.17,0 -21.9,0.512 v -6.723 c 12.46,0 12.97,-8.719 12.97,-10.188 0,-2.781 -0.74,-4.461 -1.52,-6.461 L 2893.25,87.8398 2841.91,221.719 c -0.73,1.761 -1.25,3.011 -1.25,4.222 0,6.438 9.97,6.438 15.25,6.438 v 6.211 c -8.01,0 -19.69,0 -27.93,0 -6.5,0 -18.17,0 -24.14,0.512 v -6.723 c 14.41,0 17.19,-0.969 20.14,-8.899 l 59.31,-153.9917 c 1.25,-3.4688 1.49,-3.9766 4.22,-3.9766 2.72,0 2.97,0.5078 4.22,3.9766 l 56.56,146.7617" /><path
         id="path206"
         style="fill:#231f20;fill-opacity:1;fill-rule:nonzero;stroke:none"
         d="m 3039.5,132.031 c 0,17.848 -1.77,48.09 -16.69,80.078 -11.94,25.86 -32.37,43.95 -35.34,43.95 -0.78,0 -1.77,-0.278 -1.77,-1.528 0,-0.472 0.25,-0.742 0.52,-1.25 11.94,-12.422 42.34,-43.941 42.34,-121.133 0,-77.4996 -30.15,-109.0191 -42.34,-121.4878 -0.27,-0.4297 -0.52,-0.69926 -0.52,-1.17192 0,-1.25781 0.99,-1.25781 1.77,-1.25781 2.74,0 23.91,18.35933 36.12,45.67973 12.47,27.539 15.91,54.2888 15.91,78.1208 v 0" /><path
         id="path208"
         style="fill:#231f20;fill-opacity:1;fill-rule:nonzero;stroke:none"
         d="m 175.891,816.129 c 4.218,-1.207 4.691,-1.207 9.461,-4.668 6.949,-5.512 17.609,-16.492 17.609,-28.129 0,-10.23 -9.18,-15.992 -23.859,-15.992 -13.641,0 -41.493,7.711 -51.961,12.469 -17.379,8.48 -26.321,20.16 -26.321,29.89 0,16.391 20.391,19.692 22.379,19.692 0.231,0 3.481,-0.801 3.942,-1.02 z M 39.8008,866.48 c -0.9805,0.29 -2.461,0.758 -3.711,0.758 -2.5,0 -2.5,-2.5 -2.5,-2.968 0,-0.29 1.0899,-12.461 1.4102,-13.711 0.2695,-4.219 0.8516,-7.969 0.8516,-12.457 0.5078,-6.211 0.75,-7.973 5.2382,-7.973 2.461,0 2.461,1.992 2.461,5.5 0,12.141 2.2305,12.43 4.6875,12.43 1.4805,0 3.4023,-0.508 4.1406,-0.778 l 59.8831,-15.16 c -6.481,-2.73 -16.4104,-9.449 -16.4104,-22.422 0,-28.14 36.2894,-58.527 73.0504,-58.527 24.61,0 39.028,14.43 39.028,31.379 0,13.668 -10.668,25.39 -18.91,32.371 14.691,2.457 18.91,14.187 18.91,21.637 0,7.5 -4.461,13.492 -13.399,17.98 -8.441,3.949 -23.64,7.449 -24.613,7.449 -1.25,0 -2.266,-1 -2.266,-2.5 0,-2.25 1.25,-2.449 5,-3.457 14.649,-3.75 30.309,-8.48 30.309,-18.722 0,-7.18 -6.402,-7.688 -11.402,-7.688 -0.977,0 -6.129,0 -13.129,1.758 L 39.8008,866.48" /><path
         id="path210"
         style="fill:#231f20;fill-opacity:1;fill-rule:nonzero;stroke:none"
         d="m 202.961,913.762 c 0,-12.703 -9.68,-21.953 -26.832,-21.953 -14.918,0 -64.379,9.023 -64.379,45.613 0,10.707 5.199,22.668 24.379,22.668 8.711,0 29.609,-4 43.941,-12.711 14.692,-8.969 22.891,-22.41 22.891,-33.617 z m -91.211,80.687 c 0,3.223 0,11.461 -7.969,11.461 -5.4294,0 -5.4294,-4.74 -5.4294,-9.219 v -55.043 c 0,-37.378 41.4884,-64.269 70.8284,-64.269 21.09,0 38.75,13.68 38.75,36.109 0,29.41 -31.528,61.524 -68.828,61.524 -9.692,0 -19.102,-2.242 -27.352,-8.203 v 27.64" /><path
         id="path212"
         style="fill:#231f20;fill-opacity:1;fill-rule:nonzero;stroke:none"
         d="m 27.9297,1122.34 c -0.2774,0 -4.0703,1.5 -4.5391,1.5 -3,0 -4.7226,-2.5 -4.7226,-4.49 0,-1.25 0,-3.52 5.4726,-5.47 l 234.3714,-83.44 c 0.269,0 3.949,-1.48 4.449,-1.48 3.008,0 4.769,2.46 4.769,4.45 0,1.47 -0.269,3.75 -5.511,5.51 l -234.2893,83.42" /><path
         id="path214"
         style="fill:#231f20;fill-opacity:1;fill-rule:nonzero;stroke:none"
         d="m 175.891,1212.34 c 4.218,-1.21 4.691,-1.21 9.461,-4.67 6.949,-5.51 17.609,-16.5 17.609,-28.13 0,-10.23 -9.18,-15.98 -23.859,-15.98 -13.641,0 -41.493,7.7 -51.961,12.47 -17.379,8.46 -26.321,20.14 -26.321,29.88 0,16.4 20.391,19.69 22.379,19.69 0.231,0 3.481,-0.79 3.942,-1.02 z m -136.0902,50.37 c -0.9805,0.27 -2.461,0.74 -3.711,0.74 -2.5,0 -2.5,-2.5 -2.5,-2.97 0,-0.27 1.0899,-12.46 1.4102,-13.71 0.2695,-4.22 0.8516,-7.97 0.8516,-12.46 0.5078,-6.21 0.75,-7.97 5.2382,-7.97 2.461,0 2.461,1.99 2.461,5.51 0,12.13 2.2305,12.42 4.6875,12.42 1.4805,0 3.4023,-0.51 4.1406,-0.78 l 59.8831,-15.16 c -6.481,-2.73 -16.4104,-9.45 -16.4104,-22.42 0,-28.14 36.2894,-58.53 73.0504,-58.53 24.61,0 39.028,14.43 39.028,31.38 0,13.66 -10.668,25.39 -18.91,32.37 14.691,2.46 18.91,14.18 18.91,21.64 0,7.5 -4.461,13.49 -13.399,17.97 -8.441,3.96 -23.64,7.46 -24.613,7.46 -1.25,0 -2.266,-1 -2.266,-2.5 0,-2.25 1.25,-2.5 5,-3.46 14.649,-3.75 30.309,-8.48 30.309,-18.71 0,-7.19 -6.402,-7.7 -11.402,-7.7 -0.977,0 -6.129,0 -13.129,1.76 l -138.6292,35.12" /><path
         id="path216"
         style="fill:#231f20;fill-opacity:1;fill-rule:nonzero;stroke:none"
         d="m 53.2813,1368.02 c -5.9805,1.47 -8.211,1.99 -9.2227,5.7 -0.5078,1.98 -0.5078,10.2 -0.5078,15.47 0,24.87 1.0195,36.6 20.4687,36.6 3.7891,0 13.2032,-1.01 22.461,-2.5 l 3.0078,-0.27 c 1.0117,0 2.5,1 2.5,2.5 0,2.5 -1.25,2.5 -5.2383,3.24 l -44.1406,7.23 c -2.2578,0.49 -2.7696,0.49 -3.5078,0.49 -2.7422,0 -2.7422,-1.51 -2.7422,-6.47 V 1293.8 c 0,-5.78 0.2422,-6.03 4.7304,-7.46 l 44.8829,-15.25 c 0.5468,-0.22 3.2773,-0.96 3.5156,-0.96 1.25,0 2.5,0.96 2.5,2.5 0,1.99 -0.9766,2.5 -4.2188,3.46 -30.2382,10.47 -44.2187,15.68 -44.2187,48.83 v 16.64 c 0,6.03 0,8.49 2.7695,8.49 0.7891,0 1.25,0 5.75,-1.21 l 133.9807,-33.4 c 9.73,-2.5 12.187,-2.97 12.187,-29.38 0,-6.25 0,-8 4.723,-8 2.5,0 2.5,2.77 2.5,4.02 0,6.21 0,12.7 0,18.91 v 38.85 c 0,6.25 0,12.93 0,19.18 0,2.75 0,5.25 -4.723,5.25 -2.5,0 -2.5,-1.76 -2.5,-8.21 0,-22.43 -2.226,-22.43 -5.976,-22.43 -0.274,0 -2.032,0 -6.012,0.99 l -132.9687,33.4" /><path
         id="path218"
         style="fill:#231f20;fill-opacity:1;fill-rule:nonzero;stroke:none"
         d="m 188.512,1444.74 c -4.844,1.21 -9.922,6.09 -12.344,8.89 -1.719,1.93 -6.598,7.67 -6.598,14.31 0,7.66 7.649,11.12 16.68,11.12 8.359,0 28.039,-4.87 37.102,-9.22 9.378,-4.36 17.738,-12.37 17.738,-20.43 0,-11.82 -14.961,-13.75 -15.66,-13.75 -0.551,0 -1.918,0.37 -2.821,0.51 z m 75.777,-30.16 c 5.242,-1.25 6.602,-1.91 6.602,-9.1 0,-2.07 0,-3.79 3.32,-3.79 0.359,0 1.719,0.16 1.719,2.07 0,2.27 0,4.69 0,6.94 v 7.54 c 0,3.65 0,12.55 0,16.21 0,1.03 0,3.14 -3.121,3.14 -1.918,0 -1.918,-1.21 -1.918,-4.18 0,-8.01 -1.211,-8.57 -2.539,-8.57 -2.071,0 -31.52,7.87 -35.461,8.92 4.879,1.9 11.679,6.6 11.679,15.65 0,19.74 -25.59,40.99 -51.179,40.99 -15.973,0 -27.301,-9.06 -27.301,-22.16 0,-11.12 10.781,-20.53 13.242,-22.45 -8.711,-1.4 -13.242,-8.2 -13.242,-15.19 0,-5.04 2.422,-9.08 9.062,-12.36 6.25,-3.15 16.879,-5.57 17.578,-5.57 0.661,0 1.52,0.66 1.52,1.91 0,1.37 -0.148,1.55 -4.141,2.62 -10.269,2.61 -20.539,5.93 -20.539,12.89 0,4.01 2.77,5.39 7.961,5.39 4.149,0 5.86,-0.51 8.989,-1.21 l 77.769,-19.69" /><path
         id="path220"
         style="fill:#231f20;fill-opacity:1;fill-rule:nonzero;stroke:none"
         d="m 175.891,1568.96 c 4.218,-1.25 4.691,-1.25 9.461,-4.73 6.949,-5.47 17.609,-16.46 17.609,-28.14 0,-10.22 -9.18,-15.92 -23.859,-15.92 -13.641,0 -41.493,7.68 -51.961,12.42 -17.379,8.5 -26.321,20.18 -26.321,29.92 0,16.41 20.391,19.69 22.379,19.69 0.231,0 3.481,-0.78 3.942,-1.03 z m -136.0902,50.31 c -0.9805,0.27 -2.461,0.74 -3.711,0.74 -2.5,0 -2.5,-2.5 -2.5,-2.97 0,-0.27 1.0899,-12.42 1.4102,-13.67 0.2695,-4.27 0.8516,-8.02 0.8516,-12.46 0.5078,-6.25 0.75,-7.97 5.2382,-7.97 2.461,0 2.461,1.94 2.461,5.47 0,12.19 2.2305,12.46 4.6875,12.46 1.4805,0 3.4023,-0.52 4.1406,-0.78 l 59.8831,-15.21 c -6.481,-2.68 -16.4104,-9.44 -16.4104,-22.37 0,-28.16 36.2894,-58.55 73.0504,-58.55 24.61,0 39.028,14.45 39.028,31.35 0,13.71 -10.668,25.43 -18.91,32.4 14.691,2.5 18.91,14.2 18.91,21.68 0,7.46 -4.461,13.46 -13.399,17.92 -8.441,3.99 -23.64,7.5 -24.613,7.5 -1.25,0 -2.266,-1.01 -2.266,-2.5 0,-2.26 1.25,-2.5 5,-3.51 14.649,-3.75 30.309,-8.45 30.309,-18.67 0,-7.19 -6.402,-7.71 -11.402,-7.71 -0.977,0 -6.129,0 -13.129,1.77 l -138.6292,35.08" /><path
         id="path222"
         style="fill:#231f20;fill-opacity:1;fill-rule:nonzero;stroke:none"
         d="m 169.059,1777.86 v -4.45 c 11.441,-2.24 14.492,-3.01 18.441,-4.26 3.75,-1.25 5.738,-1.99 5.738,-16.42 v -20.14 c -14.488,2.68 -25.199,8.71 -41.918,19.14 -21.168,12.93 -38.359,23.62 -59.0973,23.62 -33.6719,0 -61.1329,-31.86 -61.1329,-71.43 0,-40.63 27.7305,-71.76 61.1329,-71.76 20.7383,0 38.4373,10.97 58.1293,23.19 17.687,10.95 28.398,16.93 42.886,19.66 v -20.17 c 0,-14.21 -1.988,-14.96 -5.468,-16.17 -3.989,-1.51 -7.27,-1.98 -18.711,-4.48 v -4.53 l 36.402,7.25 v 37.58 c 0,5.29 -0.231,5.52 -3.981,5.52 -17.73,0 -40.941,-9.27 -51.64,-13.45 -19.449,-7.97 -38.399,-15.47 -57.8517,-15.47 -37.1875,0 -56.8789,26.68 -56.8789,52.54 0,27.2 20.4726,52.83 56.8789,52.83 19.2227,0 36.3637,-6.72 59.1017,-15.94 10.191,-4 32.93,-12.93 50.39,-12.93 3.981,0 3.981,0.22 3.981,5.43 v 37.64 l -36.402,7.2" /><path
         id="path224"
         style="fill:#231f20;fill-opacity:1;fill-rule:nonzero;stroke:none"
         d="m 188.512,1824.66 c -4.844,1.21 -9.922,6.08 -12.344,8.9 -1.719,1.92 -6.598,7.66 -6.598,14.29 0,7.67 7.649,11.13 16.68,11.13 8.359,0 28.039,-4.88 37.102,-9.2 9.378,-4.38 17.738,-12.4 17.738,-20.43 0,-11.84 -14.961,-13.75 -15.66,-13.75 -0.551,0 -1.918,0.35 -2.821,0.49 z m 75.777,-30.17 c 5.242,-1.25 6.602,-1.9 6.602,-9.09 0,-2.07 0,-3.79 3.32,-3.79 0.359,0 1.719,0.16 1.719,2.06 0,2.28 0,4.7 0,6.96 v 7.53 c 0,3.65 0,12.54 0,16.23 0,1.01 0,3.12 -3.121,3.12 -1.918,0 -1.918,-1.21 -1.918,-4.18 0,-8.02 -1.211,-8.55 -2.539,-8.55 -2.071,0 -31.52,7.85 -35.461,8.89 4.879,1.93 11.679,6.6 11.679,15.68 0,19.71 -25.59,40.96 -51.179,40.96 -15.973,0 -27.301,-9.05 -27.301,-22.15 0,-11.12 10.781,-20.53 13.242,-22.46 -8.711,-1.39 -13.242,-8.19 -13.242,-15.18 0,-5.04 2.422,-9.06 9.062,-12.36 6.25,-3.15 16.879,-5.57 17.578,-5.57 0.661,0 1.52,0.65 1.52,1.9 0,1.38 -0.148,1.57 -4.141,2.63 -10.269,2.62 -20.539,5.94 -20.539,12.89 0,4.01 2.77,5.39 7.961,5.39 4.149,0 5.86,-0.52 8.989,-1.21 l 77.769,-19.7" /><path
         id="path226"
         style="fill:#231f20;fill-opacity:1;fill-rule:nonzero;stroke:none"
         d="m 175.891,1948.88 c 4.218,-1.25 4.691,-1.25 9.461,-4.73 6.949,-5.48 17.609,-16.44 17.609,-28.12 0,-10.24 -9.18,-15.94 -23.859,-15.94 -13.641,0 -41.493,7.68 -51.961,12.42 -17.379,8.52 -26.321,20.2 -26.321,29.91 0,16.42 20.391,19.7 22.379,19.7 0.231,0 3.481,-0.78 3.942,-1.03 z m -136.0902,50.31 c -0.9805,0.26 -2.461,0.73 -3.711,0.73 -2.5,0 -2.5,-2.5 -2.5,-2.97 0,-0.26 1.0899,-12.41 1.4102,-13.66 0.2695,-4.27 0.8516,-8.02 0.8516,-12.46 0.5078,-6.25 0.75,-7.98 5.2382,-7.98 2.461,0 2.461,1.96 2.461,5.48 0,12.19 2.2305,12.46 4.6875,12.46 1.4805,0 3.4023,-0.52 4.1406,-0.78 l 59.8831,-15.2 c -6.481,-2.69 -16.4104,-9.46 -16.4104,-22.39 0,-28.15 36.2894,-58.54 73.0504,-58.54 24.61,0 39.028,14.45 39.028,31.35 0,13.73 -10.668,25.43 -18.91,32.4 14.691,2.5 18.91,14.22 18.91,21.68 0,7.46 -4.461,13.46 -13.399,17.93 -8.441,3.98 -23.64,7.5 -24.613,7.5 -1.25,0 -2.266,-1.02 -2.266,-2.5 0,-2.27 1.25,-2.5 5,-3.52 14.649,-3.75 30.309,-8.45 30.309,-18.67 0,-7.2 -6.402,-7.71 -11.402,-7.71 -0.977,0 -6.129,0 -13.129,1.72 l -138.6292,35.13" /><path
         id="path228"
         style="fill:#231f20;fill-opacity:1;fill-rule:nonzero;stroke:none"
         d="m 169.059,2157.77 v -4.44 c 11.441,-2.24 14.492,-3.02 18.441,-4.27 3.75,-1.25 5.738,-1.98 5.738,-16.39 v -20.16 c -14.488,2.7 -25.199,8.71 -41.918,19.14 -21.168,12.93 -38.359,23.62 -59.0973,23.62 -33.6719,0 -61.1329,-31.86 -61.1329,-71.43 0,-40.64 27.7305,-71.76 61.1329,-71.76 20.7383,0 38.4373,10.98 58.1293,23.19 17.687,10.95 28.398,16.93 42.886,19.65 v -20.14 c 0,-14.22 -1.988,-14.97 -5.468,-16.19 -3.989,-1.51 -7.27,-1.98 -18.711,-4.49 v -4.52 l 36.402,7.27 v 37.56 c 0,5.29 -0.231,5.51 -3.981,5.51 -17.73,0 -40.941,-9.26 -51.64,-13.44 -19.449,-7.95 -38.399,-15.45 -57.8517,-15.45 -37.1875,0 -56.8789,26.68 -56.8789,52.53 0,27.18 20.4726,52.82 56.8789,52.82 19.2227,0 36.3637,-6.72 59.1017,-15.94 10.191,-3.98 32.93,-12.93 50.39,-12.93 3.981,0 3.981,0.22 3.981,5.43 v 37.66 l -36.402,7.17" /><path
         id="path230"
         style="fill:#231f20;fill-opacity:1;fill-rule:nonzero;stroke:none"
         d="m 225.781,2236.65 c 13.75,-15.31 15.309,-29.1 15.309,-35.23 0,-12.36 -10.981,-15.82 -19.141,-15.82 -7.461,0 -25.238,3.81 -34.808,9.21 -12.18,7.14 -17.532,16.92 -17.532,24.77 0,16.9 22.071,16.9 36.672,16.9 4.34,0 8.871,-0.18 13.207,-0.18 3.473,0 4.371,0.18 6.293,0.35 z m -27,10.98 c -16.871,0 -32.652,-9.57 -32.652,-28.05 0,-22.85 24.883,-45.7 49.57,-45.7 15.121,0 28.871,9.45 28.871,27.18 0,10.83 -4.179,23.75 -14.609,36.1 9.719,2.46 14.609,7.85 14.609,15.35 0,9.4 -9.769,14.14 -12.039,14.14 -1.558,0 -1.558,-1.21 -1.558,-1.77 0,-1.35 0.547,-1.55 1.918,-2.07 4.371,-1.59 8.199,-5.57 8.199,-9.75 0,-5.43 -11.129,-5.43 -21.758,-5.43 -21.211,17.81 -43.164,21.99 -43.32,21.99 -1.563,0 -1.563,-1.42 -1.563,-1.91 0,-1.58 0.512,-1.76 3.633,-2.48 7.656,-2.25 21.207,-6.78 35.508,-17.6 h -14.809" /><path
         id="path232"
         style="fill:#231f20;fill-opacity:1;fill-rule:nonzero;stroke:none"
         d="m 267.73,2411.56 h -8.671 v -23.43 H 28.6289 v 23.43 h -8.668 v -32.15 H 267.73 v 32.15" /><path
         id="path234"
         style="fill:#231f20;fill-opacity:1;fill-rule:nonzero;stroke:none"
         d="m 200,2451.1 c 5.699,6.21 7.93,15.43 7.93,23.91 0,15.94 -10.551,26.88 -18.25,32.62 13.09,2.46 18.25,12.93 18.25,21.68 0,7.46 -4.418,13.42 -13.25,17.93 -8.399,3.94 -23.43,7.46 -24.371,7.46 -1.25,0 -2.227,-1.02 -2.227,-2.5 0,-2.23 1.25,-2.46 4.918,-3.48 14.5,-3.75 29.961,-8.49 29.961,-18.71 0,-7.19 -6.402,-7.7 -11.441,-7.7 -5.668,0 -14.688,2.27 -22.11,3.99 l -26.801,6.99 c -4.757,0.98 -15.898,3.75 -20.386,5 -5.973,1.49 -16.684,4.18 -17.653,4.18 -3.718,0 -6.2184,-2.93 -6.2184,-6.68 0,-2.26 1.0195,-7.46 8.4374,-9.49 l 69.102,-17.46 c 4.961,-1.21 5.468,-1.21 9.461,-4.45 4.179,-3.01 17.609,-12.7 17.609,-28.36 0,-13.99 -10.191,-18.49 -21.832,-18.49 -7.227,0 -15.899,2.27 -20.16,3.25 L 116.211,2472 c -4.691,1.25 -12.621,3.23 -14.141,3.23 -3.988,0 -6.2184,-3.23 -6.2184,-6.47 0,-2.23 0.75,-7.7 8.7184,-9.73 l 143.981,-36.09 c 1.211,-0.23 2.699,-0.74 4.219,-0.74 3.75,0 6.25,3.01 6.25,6.72 0,7.21 -5.782,8.71 -12.7,10.47 L 200,2451.1" /><path
         id="path236"
         style="fill:#231f20;fill-opacity:1;fill-rule:nonzero;stroke:none"
         d="m 127.461,2599.81 c -4.422,0 -5.199,0 -10.43,3.48 -14.961,9.73 -16.179,23.62 -16.179,28.4 0,7.46 3.988,33.12 51.058,33.12 49.34,0 52.07,-29.37 52.07,-35.4 0,-7.68 -2.968,-18.89 -17.421,-26.86 -4.77,-2.74 -5.278,-2.74 -9.727,-2.74 z m -93.0899,-0.5 2.7383,-29.65 h 6.4414 c 0,14.73 1.4805,16.95 13.3594,16.95 H 205.969 v 4.49 l -17.688,7.19 c 11.68,7.27 19.649,17.97 19.649,32.37 0,24.94 -21.918,50.09 -55.789,50.09 -31.832,0 -55.2699,-22.42 -55.2699,-47.59 0,-15.43 8.1989,-26.39 17.8909,-33.85 H 34.3711" /><path
         id="path238"
         style="fill:#231f20;fill-opacity:1;fill-rule:nonzero;stroke:none"
         d="m 28.5898,2790.56 c -3.1992,1.25 -3.7109,1.25 -4.2187,1.25 -2.9688,0 -4.4531,-2.27 -4.4531,-4.22 0,-3.01 1.9531,-3.99 4.9609,-5 l 234.1801,-80.7 c 3.203,-1.26 3.711,-1.26 4.222,-1.26 2.969,0 4.449,2.27 4.449,4.26 0,2.97 -1.992,3.99 -4.96,4.96 l -234.1802,80.71" /><path
         id="path240"
         style="fill:#231f20;fill-opacity:1;fill-rule:nonzero;stroke:none"
         d="m 266.211,2879.61 c -0.242,0 -0.75,0 -1.488,-0.73 -11.641,-11.45 -43.442,-42.07 -120.782,-42.07 -77.3824,0 -108.9097,30.1 -121.2887,42.34 -0.2734,0 -0.7812,0.46 -1.5234,0.46 -0.7383,0 -1.2109,-0.73 -1.2109,-1.71 0,-2.77 18.3633,-23.94 45.664,-36.09 27.5391,-12.46 54.297,-15.98 78.086,-15.98 17.891,0 48.121,1.76 80.113,16.68 25.828,11.95 43.949,32.38 43.949,35.39 0,1.25 -0.511,1.71 -1.519,1.71 v 0" /><path
         id="path242"
         style="fill:#231f20;fill-opacity:1;fill-rule:nonzero;stroke:none"
         d="m 41.0898,2943.68 c -3.75,-1.52 -3.75,-1.77 -3.75,-6.99 v -31.88 h 6.211 c 0,17.19 0,19.93 11.0898,19.93 H 181.711 c 6.18,0 17.777,0 17.777,-19.93 h 6.481 c -0.508,5.71 -0.508,16.18 -0.508,22.43 0,6.21 0,16.68 0.508,22.42 h -6.481 c 0,-19.92 -11.597,-19.92 -17.777,-19.92 H 44.5313 v 0.27 l 157.4567,58.52 c 2.5,0.97 3.981,1.48 3.981,3.47 0,1.96 -1.481,2.46 -3.981,3.48 l -158.6677,59.06 v 0.24 H 188.391 c 11.097,0 11.097,-2.74 11.097,-19.97 h 6.481 c -0.508,6.76 -0.508,20.2 -0.508,27.43 0,7.22 0,20.92 0.508,27.61 h -6.481 c 0,-17.14 0,-19.92 -11.097,-19.92 H 54.6406 c -11.0898,0 -11.0898,2.78 -11.0898,19.92 h -6.211 v -31.6 c 0,-5.23 0.2305,-5.47 3.9415,-6.99 L 185.93,2997.47 41.0898,2943.68" /><path
         id="path244"
         style="fill:#231f20;fill-opacity:1;fill-rule:nonzero;stroke:none"
         d="m 144.449,3126.26 c -36.488,1.76 -44.6092,20.9 -44.6092,30.85 0,16.96 16.2112,28.41 44.6092,28.64 z m 3.711,71.95 c -1.019,1.02 -1.519,1.02 -4.019,1.02 -25.789,0 -48.2894,-13.48 -48.2894,-41.84 0,-26.44 25.1994,-47.3 55.7894,-47.3 32.379,0 56.289,23.63 56.289,50.04 0,27.89 -26.098,38.85 -31.289,38.85 -1.68,0 -1.68,-1.52 -1.68,-2.02 0,-1.73 0.5,-2 3.391,-2.98 16.8,-5.45 25.117,-19.17 25.117,-32.09 0,-10.71 -5.938,-21.41 -16.68,-28.17 -12.578,-7.73 -27.109,-7.73 -38.629,-7.73 v 72.22" /><path
         id="path246"
         style="fill:#231f20;fill-opacity:1;fill-rule:nonzero;stroke:none"
         d="m 59.7227,3351.48 c -5.5118,2.28 -16.1719,6.25 -16.1719,22.93 h -6.6797 c 0.5078,-5.73 0.5078,-12.21 0.5078,-18.42 0,-5.98 0,-16.21 -0.5078,-21.92 h 6.6797 c 0,12.46 8.7109,12.97 10.1992,12.97 2.7695,0 4.4883,-0.74 6.4805,-1.52 L 188.082,3296.46 54.2109,3245.13 c -1.75,-0.74 -2.9609,-1.25 -4.1796,-1.25 -6.4805,0 -6.4805,10 -6.4805,15.23 h -6.1719 c 0,-7.97 0,-19.7 0,-27.9 0,-6.51 0,-18.19 -0.5078,-24.17 h 6.6797 c 0,14.44 0.9805,17.19 8.9101,20.16 l 154.0191,59.28 c 3.438,1.25 3.95,1.5 3.95,4.23 0,2.78 -0.512,3 -3.95,4.25 l -146.7573,56.52" /><path
         id="path248"
         style="fill:#231f20;fill-opacity:1;fill-rule:nonzero;stroke:none"
         d="m 100.5,3529.39 c -4.5273,0 -4.7617,-0.28 -4.7617,-1.72 0,-1.03 0.2344,-1.25 3.9844,-4.26 1.0153,-0.74 3.5583,-3.02 4.4883,-3.75 -8.4727,-7.98 -8.4727,-19.18 -8.4727,-23.4 0,-27.66 14.4917,-37.62 28.9027,-37.62 22.5,0 27.699,25.43 29.261,32.62 3.168,15.7 4.18,21.17 8.707,26.41 2.973,3.24 8.442,8.75 17.391,8.75 10.5,0 23.98,-6.03 23.98,-28.96 0,-21.64 -16.449,-29.36 -38.242,-33.82 -3.476,-0.75 -3.75,-0.75 -3.75,-2.73 0,-2.03 0.274,-2.27 5.192,-2.27 H 203 c 4.461,0 4.73,0.24 4.73,1.75 0,1.25 -0.269,1.5 -2.269,2.74 -2.223,1.53 -8.199,5.23 -10.742,6.72 6.722,5 13.211,13.7 13.211,27.61 0,24.7 -13.481,37.9 -32.969,37.9 -12.781,0 -19.5,-6.76 -22.5,-9.97 -7.738,-7.5 -9.5,-16.21 -11.488,-26.68 -3.043,-13.66 -6.524,-31.12 -21.793,-31.12 -6.45,0 -20.2386,3.51 -20.2386,28.67 0,26.63 25.0386,28.15 33.0466,28.63 1.25,0.28 1.524,1.53 1.524,2.27 0,2.23 -0.782,2.23 -5.043,2.23 H 100.5" /><path
         id="path250"
         style="fill:#231f20;fill-opacity:1;fill-rule:nonzero;stroke:none"
         d="m 147.18,3579.27 c -23.899,0 -46.328,10.19 -46.328,28.89 0,1.73 0.238,3.48 1.019,5.25 0,0 1.758,-5.48 8.16,-5.48 5.981,0 8.481,4.74 8.481,8.49 0,2.97 -1.762,8.43 -8.711,8.43 -7.969,0 -12.9299,-7.96 -12.9299,-16.4 0,-18.99 18.3989,-27.19 27.1489,-29.69 v -0.21 H 96.8711 l 2.7383,-28.94 h 6.4416 c 0,14.74 1.519,17 13.48,17 h 69.25 c 9.5,0 10.707,-1.01 10.707,-17 h 6.481 c -0.508,6.02 -0.508,17.46 -0.508,23.94 0,7.2 0,19.94 0.508,26.66 h -6.481 c 0,-17.93 0,-20.94 -11.168,-20.94 h -41.14" /><path
         id="path252"
         style="fill:#231f20;fill-opacity:1;fill-rule:nonzero;stroke:none"
         d="m 88.1211,3702.82 v -3.12 c 12.3399,-1.77 14.4489,-3.17 15.5079,-3.84 1.402,-0.9 1.402,-13.43 1.402,-15.9 v -33.43 c -6.8318,6.25 -19.1794,18.48 -33.4724,33.27 -10.0781,10.63 -21.918,23.02 -39.1797,23.02 C 11.832,3702.82 0,3686.42 0,3668.13 c 0,-19.17 16.9102,-30.85 32.5313,-30.85 6.8007,0 7.6601,5.02 7.6601,7.13 0,1.77 -1.0508,7.01 -7.1094,7.01 -5.3906,0 -6.914,-4.57 -6.914,-7.01 0,-1.05 0.1523,-2.11 0.5117,-2.8 -14.8477,3.32 -22.14845,13.44 -22.14845,24.1 0,15.15 11.98825,25.08 27.84765,25.08 15.1524,0 28.2031,-8.88 39.5313,-18.83 l 39.1798,-34.68 h 3.98 v 61.36 l -26.9489,4.18" /><path
         id="path254"
         style="fill:#231f20;fill-opacity:1;fill-rule:nonzero;stroke:none"
         d="m 143.941,3776.85 c -17.89,0 -48.1207,-1.76 -80.1207,-16.72 C 38,3748.16 19.918,3727.73 19.918,3724.78 c 0,-0.75 0.2734,-1.72 1.4843,-1.72 0.4688,0 0.7383,0.23 1.25,0.49 12.418,11.93 43.9493,42.36 121.1677,42.36 77.461,0 108.989,-30.2 121.45,-42.36 0.468,-0.26 0.742,-0.49 1.21,-0.49 1.25,0 1.25,0.97 1.25,1.72 0,2.73 -18.359,23.9 -45.699,36.13 -27.5,12.45 -54.301,15.94 -78.09,15.94 v 0" /><path
         id="path256"
         style="fill:#231f20;fill-opacity:1;fill-rule:nonzero;stroke:none"
         d="m 19.9609,3835.13 v -32.11 h 8.668 v 23.4 H 259.059 v -23.4 h 8.671 v 32.11 H 19.9609" /><path
         id="path258"
         style="fill:none;stroke:#231f20;stroke-width:10;stroke-linecap:butt;stroke-linejoin:round;stroke-miterlimit:4;stroke-dasharray:none;stroke-opacity:1"
         d="M 767.242,3425.09 H 1209.3" /><path
         id="path260"
         style="fill:none;stroke:#231f20;stroke-width:20;stroke-linecap:butt;stroke-linejoin:round;stroke-miterlimit:4;stroke-dasharray:60, 60;stroke-dashoffset:0;stroke-opacity:1"
         d="M 767.242,3743.38 H 1209.3" /><g
         transform="scale(10)"
         id="g262"><text
           id="text266"
           style="font-variant:normal;font-weight:normal;font-size:22px;font-family:'Times New Roman';-inkscape-font-specification:TimesNewRomanPSMT;writing-mode:lr-tb;fill:#231f20;fill-opacity:1;fill-rule:nonzero;stroke:none"
           transform="matrix(1,0,0,-1,33.0859,395.428)"><tspan
             id="tspan264"
             y="0"
             x="0 11">10</tspan></text>
<text
           id="text270"
           style="font-variant:normal;font-weight:normal;font-size:18px;font-family:'Times New Roman';-inkscape-font-specification:TimesNewRomanPSMT;writing-mode:lr-tb;fill:#231f20;fill-opacity:1;fill-rule:nonzero;stroke:none"
           transform="matrix(1,0,0,-1,55.0859,401.75222)"><tspan
             id="tspan268"
             y="0"
             x="0">1</tspan></text>
<text
           id="text274"
           style="font-variant:normal;font-weight:normal;font-size:22px;font-family:'Times New Roman';-inkscape-font-specification:TimesNewRomanPSMT;writing-mode:lr-tb;fill:#231f20;fill-opacity:1;fill-rule:nonzero;stroke:none"
           transform="matrix(1,0,0,-1,33.0859,308.14912)"><tspan
             id="tspan272"
             y="0"
             x="0 11">10</tspan></text>
<text
           id="text278"
           style="font-variant:normal;font-weight:normal;font-size:18px;font-family:'Times New Roman';-inkscape-font-specification:TimesNewRomanPSMT;writing-mode:lr-tb;fill:#231f20;fill-opacity:1;fill-rule:nonzero;stroke:none"
           transform="matrix(1,0,0,-1,55.0859,314.47412)"><tspan
             id="tspan276"
             y="0"
             x="0">0</tspan></text>
<text
           id="text282"
           style="font-variant:normal;font-weight:normal;font-size:22px;font-family:'Times New Roman';-inkscape-font-specification:TimesNewRomanPSMT;writing-mode:lr-tb;fill:#231f20;fill-opacity:1;fill-rule:nonzero;stroke:none"
           transform="matrix(1,0,0,-1,27.0918,218.23622)"><tspan
             id="tspan280"
             y="0"
             x="0 11">10</tspan></text>
<text
           id="text286"
           style="font-variant:normal;font-weight:normal;font-size:18px;font-family:'Times New Roman';-inkscape-font-specification:TimesNewRomanPSMT;writing-mode:lr-tb;fill:#231f20;fill-opacity:1;fill-rule:nonzero;stroke:none"
           transform="matrix(1,0,0,-1,49.0918,224.56044)"><tspan
             id="tspan284"
             y="0"
             x="0 5.994">-1</tspan></text>
<text
           id="text290"
           style="font-variant:normal;font-weight:normal;font-size:22px;font-family:'Times New Roman';-inkscape-font-specification:TimesNewRomanPSMT;writing-mode:lr-tb;fill:#231f20;fill-opacity:1;fill-rule:nonzero;stroke:none"
           transform="matrix(1,0,0,-1,27.0918,131.45144)"><tspan
             id="tspan288"
             y="0"
             x="0 11">10</tspan></text>
<text
           id="text294"
           style="font-variant:normal;font-weight:normal;font-size:18px;font-family:'Times New Roman';-inkscape-font-specification:TimesNewRomanPSMT;writing-mode:lr-tb;fill:#231f20;fill-opacity:1;fill-rule:nonzero;stroke:none"
           transform="matrix(1,0,0,-1,49.0918,137.77527)"><tspan
             id="tspan292"
             y="0"
             x="0 5.994">-2</tspan></text>
<text
           id="text298"
           style="font-variant:normal;font-weight:normal;font-size:22px;font-family:'Times New Roman';-inkscape-font-specification:TimesNewRomanPSMT;writing-mode:lr-tb;fill:#231f20;fill-opacity:1;fill-rule:nonzero;stroke:none"
           transform="matrix(1,0,0,-1,27.0918,40.11747)"><tspan
             id="tspan296"
             y="0"
             x="0 11">10</tspan></text>
<text
           id="text302"
           style="font-variant:normal;font-weight:normal;font-size:18px;font-family:'Times New Roman';-inkscape-font-specification:TimesNewRomanPSMT;writing-mode:lr-tb;fill:#231f20;fill-opacity:1;fill-rule:nonzero;stroke:none"
           transform="matrix(1,0,0,-1,49.0918,46.4413)"><tspan
             id="tspan300"
             y="0"
             x="0 5.994">-3</tspan></text>
<text
           id="text310"
           style="font-variant:normal;font-weight:normal;font-size:22px;font-family:'Times New Roman';-inkscape-font-specification:TimesNewRomanPSMT;writing-mode:lr-tb;fill:#231f20;fill-opacity:1;fill-rule:nonzero;stroke:none"
           transform="matrix(1,0,0,-1,87.2606,31.4651)"><tspan
             id="tspan304"
             y="0"
             x="0 11 104.55742 115.55742 209.1144 220.1144 313.6727 324.6727">40506070</tspan><tspan
             id="tspan306"
             y="-335.72299"
             x="44.7355 61.851501 71.619499 81.387497 92.387497 99.713501 107.0395 113.1555 122.9235 129.03951">mean-field</tspan><tspan
             id="tspan308"
             y="-45.27"
             x="188.0195 205.1355 214.9035 224.67149 235.67149 242.9975 250.3235 256.43951 266.20749 272.32349">mean-field</tspan></text>
<text
           id="text322"
           style="font-variant:normal;font-weight:normal;font-size:18px;font-family:'Times New Roman';-inkscape-font-specification:TimesNewRomanPSMT;writing-mode:lr-tb;fill:#231f20;fill-opacity:1;fill-rule:nonzero;stroke:none"
           transform="matrix(1,0,0,-1,305.259,343.9641)"><tspan
             id="tspan312"
             y="0"
             x="0 9 13.5">5.0</tspan><tspan
             id="tspan314"
             y="83.9832"
             x="-0.00078125001 8.9992189 13.499219">4.0</tspan><tspan
             id="tspan316"
             y="111.7039"
             x="-0.00078125001 8.9992189 13.499219">3.5</tspan><tspan
             id="tspan318"
             y="171.2531"
             x="-0.00078125001 8.9992189 13.499219">3.0</tspan><tspan
             id="tspan320"
             y="42.5061"
             x="-0.00078125001 8.9992189 13.499219">4.5</tspan></text>
<text
           id="text326"
           style="font-variant:normal;font-weight:normal;font-size:22px;font-family:'Times New Roman';-inkscape-font-specification:TimesNewRomanPSMT;writing-mode:lr-tb;fill:#231f20;fill-opacity:1;fill-rule:nonzero;stroke:none"
           transform="matrix(1,0,0,-1,131.99622,303.80722)"><tspan
             id="tspan324"
             y="0"
             x="0 9.7679996 20.768 31.768 37.883999">expt.</tspan></text>
</g><path
         id="path328"
         style="fill:#0e0f0f;fill-opacity:1;fill-rule:nonzero;stroke:none"
         d="m 1417.06,3425.16 c 0,33.57 -18.2,45.71 -36.41,45.71 -30.35,0 -60.69,-30.35 -60.69,-63.91 0,-21.25 15.17,-36.42 36.41,-36.42 24.28,0 42.49,15.17 48.55,18.21 3.04,-9.11 9.11,-18.21 21.24,-18.21 9.11,0 18.21,12.14 18.21,15.17 0,3.04 -3.03,3.04 -3.03,3.04 -3.04,0 -3.04,0 -3.04,-3.04 -3.03,-6.07 -9.1,-9.1 -12.14,-9.1 -9.1,0 -9.1,18.21 -9.1,24.28 0,3.03 0,3.03 3.04,6.07 3.03,3.03 9.1,12.13 15.17,21.24 6.07,15.36 12.14,27.5 12.14,30.53 0,0 0,0 -3.04,0 -3.03,0 -3.03,0 -6.07,-3.03 0,-9.11 -6.07,-24.47 -21.24,-42.68 z m -15.17,-30.34 c -6.07,-3.04 -21.24,-18.21 -45.52,-18.21 -12.14,0 -21.24,9.1 -21.24,24.28 0,9.1 6.07,30.34 15.17,45.7 6.07,9.11 15.18,18.21 30.35,18.21 15.17,0 18.21,-12.14 21.24,-27.31 0,-9.29 0,-30.53 0,-42.67" /><path
         id="path330"
         style="fill:#0e0f0f;fill-opacity:1;fill-rule:nonzero;stroke:none"
         d="m 1637.95,3422.13 c 3.03,0 9.1,0 9.1,6.07 0,6.07 -6.07,6.07 -9.1,6.07 h -63.92 v 60.87 c 0,6.07 0,9.11 -3.03,9.11 -6.07,0 -6.07,-6.07 -6.07,-9.11 v -60.87 h -60.69 c -6.07,0 -9.1,0 -9.1,-6.07 0,-6.07 3.03,-6.07 9.1,-6.07 h 60.69 v -60.69 c 0,-3.04 0,-9.1 6.07,-9.1 3.03,0 3.03,6.06 3.03,9.1 v 60.69 h 63.92" /><path
         id="path332"
         style="fill:#0e0f0f;fill-opacity:1;fill-rule:nonzero;stroke:none"
         d="m 1742.32,3492.11 v 6.07 h -15.18 v 63.72 c 0,3.04 0,3.04 -3.03,3.04 -3.04,0 -3.04,0 -6.07,0 l -51.77,-66.76 v -6.07 h 45.51 v -12.14 c 0,-6.07 0,-6.07 -12.14,-6.07 h -3.03 v -6.06 c 3.03,0 15.17,0 24.46,0 6.07,0 18.21,0 21.25,0 v 6.06 h -3.04 c -12.14,0 -12.14,0 -12.14,6.07 v 12.14 z m -27.31,57.66 v -51.59 h -42.68 z" /><path
         id="path334"
         style="fill:#0e0f0f;fill-opacity:1;fill-rule:nonzero;stroke:none"
         d="m 1833.35,3492.11 v 6.07 h -18.21 v 63.72 c 0,3.04 0,3.04 -3.03,3.04 -3.04,0 -3.04,0 -3.04,0 l -51.58,-66.76 v -6.07 H 1803 v -12.14 c 0,-6.07 0,-6.07 -12.13,-6.07 h -3.04 v -6.06 c 0,0 15.17,0 21.24,0 6.07,0 21.24,0 24.28,0 v 6.06 h -6.07 c -12.14,0 -12.14,0 -12.14,6.07 v 12.14 z m -30.35,57.66 v -51.59 h -39.44 z" /><path
         id="path336"
         style="fill:#0e0f0f;fill-opacity:1;fill-rule:nonzero;stroke:none"
         d="m 1985.26,3510.32 c -6.07,6.07 -18.21,18.2 -42.49,18.2 -42.48,0 -79.08,-36.41 -79.08,-78.89 0,-45.71 39.64,-82.12 79.08,-82.12 39.45,0 60.69,30.34 60.69,57.65 0,0 0,3.04 -3.03,3.04 -3.04,0 -3.04,0 -3.04,-3.04 -3.03,-33.38 -27.31,-48.55 -51.58,-48.55 -18.21,0 -57.65,9.1 -57.65,73.02 0,60.69 39.44,72.83 57.65,72.83 21.24,0 45.52,-18.21 51.58,-51.59 0,-3.04 0,-6.07 3.04,-6.07 3.03,0 3.03,3.03 3.03,6.07 v 51.59 c 0,3.03 0,6.06 -3.03,6.06 0,0 -3.04,0 -3.04,-3.03 l -12.13,-15.17" /><path
         id="path338"
         style="fill:#0e0f0f;fill-opacity:1;fill-rule:nonzero;stroke:none"
         d="m 2091.65,3388.75 c 0,-9.11 9.11,-18.21 18.21,-18.21 3.03,0 18.21,6.07 18.21,21.24 v 12.14 H 2122 v -12.14 c 0,0 0,-12.14 -9.11,-12.14 -6.07,0 -6.07,9.11 -6.07,15.18 v 36.41 c 0,12.33 0,21.43 -9.1,30.53 -9.1,6.07 -21.24,9.11 -30.34,9.11 -18.21,0 -33.57,-9.11 -33.57,-21.24 0,-9.11 3.03,-12.14 9.29,-12.14 6.07,0 9.1,6.07 9.1,12.14 0,9.1 -9.1,9.1 -9.1,9.1 6.07,6.07 15.17,9.1 24.28,9.1 9.1,0 21.24,-9.1 21.24,-30.34 v -6.26 c -9.11,0 -27.31,0 -42.49,-9.1 -15.35,-6.07 -21.43,-18.21 -21.43,-27.31 0,-18.21 21.43,-24.28 36.61,-24.28 18.2,0 27.31,12.14 30.34,18.21 z m -3.03,15.17 c 0,-21.24 -15.17,-27.31 -24.28,-27.31 -12.14,0 -21.24,6.07 -21.24,18.21 0,15.17 12.14,30.34 45.52,30.34 v -21.24" /><path
         id="path340"
         style="fill:#f14624;fill-opacity:1;fill-rule:nonzero;stroke:none"
         d="m 988.273,3003.83 v 160 m -80,-80 h 159.997" /><path
         id="path342"
         style="fill:none;stroke:#f14624;stroke-width:30;stroke-linecap:butt;stroke-linejoin:round;stroke-miterlimit:4;stroke-dasharray:none;stroke-opacity:1"
         d="m 988.273,3003.83 v 160 m -80,-80 h 159.997" /><path
         id="path344"
         style="fill:#f14624;fill-opacity:1;fill-rule:nonzero;stroke:none"
         d="m 1038.27,3163.83 h -99.997 m 99.997,-160 h -99.997 m 129.997,30 v 100 m -159.997,-100 v 100" /><path
         id="path346"
         style="fill:none;stroke:#f14624;stroke-width:10;stroke-linecap:butt;stroke-linejoin:round;stroke-miterlimit:4;stroke-dasharray:none;stroke-opacity:1"
         d="m 1038.27,3163.83 h -99.997 m 99.997,-160 h -99.997 m 129.997,30 v 100 m -159.997,-100 v 100" /><path
         id="path348"
         style="fill:#f14624;fill-opacity:1;fill-rule:nonzero;stroke:none"
         d="m 988.273,3033.83 c 13.277,0 26.017,5.23 35.387,14.61 9.38,9.37 14.61,22.12 14.61,35.39 0,13.25 -5.23,25.98 -14.61,35.36 -9.37,9.37 -22.11,14.64 -35.387,14.64 -13.242,0 -25.972,-5.27 -35.351,-14.64 -9.371,-9.38 -14.649,-22.11 -14.649,-35.36 0,-13.27 5.278,-26.02 14.649,-35.39 9.379,-9.38 22.109,-14.61 35.351,-14.61 v 0" /><path
         id="path350"
         style="fill:none;stroke:#f14624;stroke-width:10;stroke-linecap:butt;stroke-linejoin:miter;stroke-miterlimit:10;stroke-dasharray:none;stroke-opacity:1"
         d="m 988.273,3033.83 c 13.277,0 26.017,5.23 35.387,14.61 9.38,9.37 14.61,22.12 14.61,35.39 0,13.25 -5.23,25.98 -14.61,35.36 -9.37,9.37 -22.11,14.64 -35.387,14.64 -13.242,0 -25.972,-5.27 -35.351,-14.64 -9.371,-9.38 -14.649,-22.11 -14.649,-35.36 0,-13.27 5.278,-26.02 14.649,-35.39 9.379,-9.38 22.109,-14.61 35.351,-14.61 z" /><path
         id="path352"
         style="fill:#f14624;fill-opacity:1;fill-rule:nonzero;stroke:none"
         d="m 988.273,3033.83 c 13.277,0 26.017,5.23 35.387,14.61 9.38,9.37 14.61,22.12 14.61,35.39 0,13.25 -5.23,25.98 -14.61,35.36 -9.37,9.37 -22.11,14.64 -35.387,14.64 -13.242,0 -25.972,-5.27 -35.351,-14.64 -9.371,-9.38 -14.649,-22.11 -14.649,-35.36 0,-13.27 5.278,-26.02 14.649,-35.39 9.379,-9.38 22.109,-14.61 35.351,-14.61 v 0" /><path
         id="path354"
         style="fill:none;stroke:#f14624;stroke-width:10;stroke-linecap:butt;stroke-linejoin:round;stroke-miterlimit:4;stroke-dasharray:none;stroke-opacity:1"
         d="m 988.273,3033.83 c 13.277,0 26.017,5.23 35.387,14.61 9.38,9.37 14.61,22.12 14.61,35.39 0,13.25 -5.23,25.98 -14.61,35.36 -9.37,9.37 -22.11,14.64 -35.387,14.64 -13.242,0 -25.972,-5.27 -35.351,-14.64 -9.371,-9.38 -14.649,-22.11 -14.649,-35.36 0,-13.27 5.278,-26.02 14.649,-35.39 9.379,-9.38 22.109,-14.61 35.351,-14.61 z" /><path
         id="path356"
         style="fill:#f14624;fill-opacity:1;fill-rule:nonzero;stroke:none"
         d="M 1564.21,2151.35 V 2567.7" /><path
         id="path358"
         style="fill:none;stroke:#f14624;stroke-width:10;stroke-linecap:butt;stroke-linejoin:miter;stroke-miterlimit:3.79999995;stroke-dasharray:none;stroke-opacity:1"
         d="M 1564.21,2151.35 V 2567.7" /><path
         id="path360"
         style="fill:#f14624;fill-opacity:1;fill-rule:nonzero;stroke:none"
         d="m 1529.49,2151.35 h 69.44" /><path
         id="path362"
         style="fill:none;stroke:#f14624;stroke-width:10;stroke-linecap:butt;stroke-linejoin:miter;stroke-miterlimit:3.79999995;stroke-dasharray:none;stroke-opacity:1"
         d="m 1529.49,2151.35 h 69.44" /><path
         id="path364"
         style="fill:#f14624;fill-opacity:1;fill-rule:nonzero;stroke:none"
         d="m 1529.49,2567.7 h 69.44" /><path
         id="path366"
         style="fill:none;stroke:#f14624;stroke-width:10;stroke-linecap:butt;stroke-linejoin:miter;stroke-miterlimit:3.79999995;stroke-dasharray:none;stroke-opacity:1"
         d="m 1529.49,2567.7 h 69.44" /><path
         id="path368"
         style="fill:#f14624;fill-opacity:1;fill-rule:nonzero;stroke:none"
         d="m 2358.91,2491.34 v 520.23" /><path
         id="path370"
         style="fill:none;stroke:#f14624;stroke-width:10;stroke-linecap:butt;stroke-linejoin:miter;stroke-miterlimit:3.79999995;stroke-dasharray:none;stroke-opacity:1"
         d="m 2358.91,2491.34 v 520.23" /><path
         id="path372"
         style="fill:#f14624;fill-opacity:1;fill-rule:nonzero;stroke:none"
         d="m 2324.19,2491.34 h 69.43" /><path
         id="path374"
         style="fill:none;stroke:#f14624;stroke-width:10;stroke-linecap:butt;stroke-linejoin:miter;stroke-miterlimit:3.79999995;stroke-dasharray:none;stroke-opacity:1"
         d="m 2324.19,2491.34 h 69.43" /><path
         id="path376"
         style="fill:#f14624;fill-opacity:1;fill-rule:nonzero;stroke:none"
         d="m 2324.19,3011.57 h 69.43" /><path
         id="path378"
         style="fill:none;stroke:#f14624;stroke-width:10;stroke-linecap:butt;stroke-linejoin:miter;stroke-miterlimit:3.79999995;stroke-dasharray:none;stroke-opacity:1"
         d="m 2324.19,3011.57 h 69.43" /><path
         id="path380"
         style="fill:#f14624;fill-opacity:1;fill-rule:nonzero;stroke:none"
         d="m 2677.9,2825.21 v 378.74" /><path
         id="path382"
         style="fill:none;stroke:#f14624;stroke-width:10;stroke-linecap:butt;stroke-linejoin:miter;stroke-miterlimit:3.79999995;stroke-dasharray:none;stroke-opacity:1"
         d="m 2677.9,2825.21 v 378.74" /><path
         id="path384"
         style="fill:#f14624;fill-opacity:1;fill-rule:nonzero;stroke:none"
         d="m 2643.18,2825.21 h 69.45" /><path
         id="path386"
         style="fill:none;stroke:#f14624;stroke-width:10;stroke-linecap:butt;stroke-linejoin:miter;stroke-miterlimit:3.79999995;stroke-dasharray:none;stroke-opacity:1"
         d="m 2643.18,2825.21 h 69.45" /><path
         id="path388"
         style="fill:#f14624;fill-opacity:1;fill-rule:nonzero;stroke:none"
         d="m 2643.18,3203.95 h 69.45" /><path
         id="path390"
         style="fill:none;stroke:#f14624;stroke-width:10;stroke-linecap:butt;stroke-linejoin:miter;stroke-miterlimit:3.79999995;stroke-dasharray:none;stroke-opacity:1"
         d="m 2643.18,3203.95 h 69.45" /><path
         id="path392"
         style="fill:#f14624;fill-opacity:1;fill-rule:nonzero;stroke:none"
         d="m 2993.59,2683.73 v 437.74" /><path
         id="path394"
         style="fill:none;stroke:#f14624;stroke-width:10;stroke-linecap:butt;stroke-linejoin:miter;stroke-miterlimit:3.79999995;stroke-dasharray:none;stroke-opacity:1"
         d="m 2993.59,2683.73 v 437.74" /><path
         id="path396"
         style="fill:#f14624;fill-opacity:1;fill-rule:nonzero;stroke:none"
         d="m 2958.87,2683.73 h 69.44" /><path
         id="path398"
         style="fill:none;stroke:#f14624;stroke-width:10;stroke-linecap:butt;stroke-linejoin:miter;stroke-miterlimit:3.79999995;stroke-dasharray:none;stroke-opacity:1"
         d="m 2958.87,2683.73 h 69.44" /><path
         id="path400"
         style="fill:#f14624;fill-opacity:1;fill-rule:nonzero;stroke:none"
         d="m 2958.87,3121.47 h 69.44" /><path
         id="path402"
         style="fill:none;stroke:#f14624;stroke-width:10;stroke-linecap:butt;stroke-linejoin:miter;stroke-miterlimit:3.79999995;stroke-dasharray:none;stroke-opacity:1"
         d="m 2958.87,3121.47 h 69.44" /><path
         id="path404"
         style="fill:#f14624;fill-opacity:1;fill-rule:nonzero;stroke:none"
         d="m 3299.11,3158.14 v 252.43" /><path
         id="path406"
         style="fill:none;stroke:#f14624;stroke-width:10;stroke-linecap:butt;stroke-linejoin:miter;stroke-miterlimit:3.79999995;stroke-dasharray:none;stroke-opacity:1"
         d="m 3299.11,3158.14 v 252.43" /><path
         id="path408"
         style="fill:#f14624;fill-opacity:1;fill-rule:nonzero;stroke:none"
         d="m 3264.4,3158.14 h 69.43" /><path
         id="path410"
         style="fill:none;stroke:#f14624;stroke-width:10;stroke-linecap:butt;stroke-linejoin:miter;stroke-miterlimit:3.79999995;stroke-dasharray:none;stroke-opacity:1"
         d="m 3264.4,3158.14 h 69.43" /><path
         id="path412"
         style="fill:#f14624;fill-opacity:1;fill-rule:nonzero;stroke:none"
         d="m 3264.4,3410.57 h 69.43" /><path
         id="path414"
         style="fill:none;stroke:#f14624;stroke-width:10;stroke-linecap:butt;stroke-linejoin:miter;stroke-miterlimit:3.79999995;stroke-dasharray:none;stroke-opacity:1"
         d="m 3264.4,3410.57 h 69.43" /><path
         id="path416"
         style="fill:#f14624;fill-opacity:1;fill-rule:nonzero;stroke:none"
         d="m 3614.8,3157.1 v 252.53" /><path
         id="path418"
         style="fill:none;stroke:#f14624;stroke-width:10;stroke-linecap:butt;stroke-linejoin:miter;stroke-miterlimit:3.79999995;stroke-dasharray:none;stroke-opacity:1"
         d="m 3614.8,3157.1 v 252.53" /><path
         id="path420"
         style="fill:#f14624;fill-opacity:1;fill-rule:nonzero;stroke:none"
         d="m 3580.08,3157.1 h 69.43" /><path
         id="path422"
         style="fill:none;stroke:#f14624;stroke-width:10;stroke-linecap:butt;stroke-linejoin:miter;stroke-miterlimit:3.79999995;stroke-dasharray:none;stroke-opacity:1"
         d="m 3580.08,3157.1 h 69.43" /><path
         id="path424"
         style="fill:#f14624;fill-opacity:1;fill-rule:nonzero;stroke:none"
         d="m 3580.08,3409.63 h 69.43" /><path
         id="path426"
         style="fill:none;stroke:#f14624;stroke-width:10;stroke-linecap:butt;stroke-linejoin:miter;stroke-miterlimit:3.79999995;stroke-dasharray:none;stroke-opacity:1"
         d="m 3580.08,3409.63 h 69.43" /><path
         id="path428"
         style="fill:#f14624;fill-opacity:1;fill-rule:nonzero;stroke:none"
         d="m 3939.4,2495.4 v 513.05" /><path
         id="path430"
         style="fill:none;stroke:#f14624;stroke-width:10;stroke-linecap:butt;stroke-linejoin:miter;stroke-miterlimit:3.79999995;stroke-dasharray:none;stroke-opacity:1"
         d="m 3939.4,2495.4 v 513.05" /><path
         id="path432"
         style="fill:#f14624;fill-opacity:1;fill-rule:nonzero;stroke:none"
         d="m 3904.67,2495.4 h 69.44" /><path
         id="path434"
         style="fill:none;stroke:#f14624;stroke-width:10;stroke-linecap:butt;stroke-linejoin:miter;stroke-miterlimit:3.79999995;stroke-dasharray:none;stroke-opacity:1"
         d="m 3904.67,2495.4 h 69.44" /><path
         id="path436"
         style="fill:#f14624;fill-opacity:1;fill-rule:nonzero;stroke:none"
         d="m 3904.67,3008.45 h 69.44" /><path
         id="path438"
         style="fill:none;stroke:#f14624;stroke-width:10;stroke-linecap:butt;stroke-linejoin:miter;stroke-miterlimit:3.79999995;stroke-dasharray:none;stroke-opacity:1"
         d="m 3904.67,3008.45 h 69.44" /><path
         id="path440"
         style="fill:#f14624;fill-opacity:1;fill-rule:nonzero;stroke:none"
         d="m 4242.74,2695.99 v 415.3" /><path
         id="path442"
         style="fill:none;stroke:#f14624;stroke-width:10;stroke-linecap:butt;stroke-linejoin:miter;stroke-miterlimit:3.79999995;stroke-dasharray:none;stroke-opacity:1"
         d="m 4242.74,2695.99 v 415.3" /><path
         id="path444"
         style="fill:#f14624;fill-opacity:1;fill-rule:nonzero;stroke:none"
         d="m 4208.02,2695.99 h 69.33" /><path
         id="path446"
         style="fill:none;stroke:#f14624;stroke-width:10;stroke-linecap:butt;stroke-linejoin:miter;stroke-miterlimit:3.79999995;stroke-dasharray:none;stroke-opacity:1"
         d="m 4208.02,2695.99 h 69.33" /><path
         id="path448"
         style="fill:#f14624;fill-opacity:1;fill-rule:nonzero;stroke:none"
         d="m 4208.02,3111.29 h 69.33" /><path
         id="path450"
         style="fill:none;stroke:#f14624;stroke-width:10;stroke-linecap:butt;stroke-linejoin:miter;stroke-miterlimit:3.79999995;stroke-dasharray:none;stroke-opacity:1"
         d="m 4208.02,3111.29 h 69.33" /><path
         id="path452"
         style="fill:#f14624;fill-opacity:1;fill-rule:nonzero;stroke:none"
         d="M 918.441,2351.84 H 2196.61" /><path
         id="path454"
         style="fill:none;stroke:#f14624;stroke-width:10;stroke-linecap:butt;stroke-linejoin:miter;stroke-miterlimit:3.79999995;stroke-dasharray:none;stroke-opacity:1"
         d="M 918.441,2351.84 H 2196.61" /><path
         id="path456"
         style="fill:#f1511b;fill-opacity:1;fill-rule:nonzero;stroke:none"
         d="m 918.441,2320.36 v 63.06" /><path
         id="path458"
         style="fill:none;stroke:#f1511b;stroke-width:10;stroke-linecap:butt;stroke-linejoin:miter;stroke-miterlimit:3.79999995;stroke-dasharray:none;stroke-opacity:1"
         d="m 918.441,2320.36 v 63.06" /><path
         id="path460"
         style="fill:#f14624;fill-opacity:1;fill-rule:nonzero;stroke:none"
         d="m 2196.61,2320.36 v 63.06" /><path
         id="path462"
         style="fill:none;stroke:#f14624;stroke-width:10;stroke-linecap:butt;stroke-linejoin:miter;stroke-miterlimit:3.79999995;stroke-dasharray:none;stroke-opacity:1"
         d="m 2196.61,2320.36 v 63.06" /><path
         id="path464"
         style="fill:#f14624;fill-opacity:1;fill-rule:nonzero;stroke:none"
         d="m 2358.91,2719.36 v 63.16" /><path
         id="path466"
         style="fill:none;stroke:#f14624;stroke-width:10;stroke-linecap:butt;stroke-linejoin:miter;stroke-miterlimit:3.79999995;stroke-dasharray:none;stroke-opacity:1"
         d="m 2358.91,2719.36 v 63.16" /><path
         id="path468"
         style="fill:#f14624;fill-opacity:1;fill-rule:nonzero;stroke:none"
         d="m 2358.91,2719.36 v 63.16" /><path
         id="path470"
         style="fill:none;stroke:#f14624;stroke-width:10;stroke-linecap:butt;stroke-linejoin:miter;stroke-miterlimit:3.79999995;stroke-dasharray:none;stroke-opacity:1"
         d="m 2358.91,2719.36 v 63.16" /><path
         id="path472"
         style="fill:#f14624;fill-opacity:1;fill-rule:nonzero;stroke:none"
         d="m 2677.9,2971.89 v 63.05" /><path
         id="path474"
         style="fill:none;stroke:#f14624;stroke-width:10;stroke-linecap:butt;stroke-linejoin:miter;stroke-miterlimit:3.79999995;stroke-dasharray:none;stroke-opacity:1"
         d="m 2677.9,2971.89 v 63.05" /><path
         id="path476"
         style="fill:#f14624;fill-opacity:1;fill-rule:nonzero;stroke:none"
         d="m 2677.9,2971.89 v 63.05" /><path
         id="path478"
         style="fill:none;stroke:#f14624;stroke-width:10;stroke-linecap:butt;stroke-linejoin:miter;stroke-miterlimit:3.79999995;stroke-dasharray:none;stroke-opacity:1"
         d="m 2677.9,2971.89 v 63.05" /><path
         id="path480"
         style="fill:#f14624;fill-opacity:1;fill-rule:nonzero;stroke:none"
         d="m 2993.59,2874.14 v 63.05" /><path
         id="path482"
         style="fill:none;stroke:#f14624;stroke-width:10;stroke-linecap:butt;stroke-linejoin:miter;stroke-miterlimit:3.79999995;stroke-dasharray:none;stroke-opacity:1"
         d="m 2993.59,2874.14 v 63.05" /><path
         id="path484"
         style="fill:#f14624;fill-opacity:1;fill-rule:nonzero;stroke:none"
         d="m 2993.59,2874.14 v 63.05" /><path
         id="path486"
         style="fill:none;stroke:#f14624;stroke-width:10;stroke-linecap:butt;stroke-linejoin:miter;stroke-miterlimit:3.79999995;stroke-dasharray:none;stroke-opacity:1"
         d="m 2993.59,2874.14 v 63.05" /><path
         id="path488"
         style="fill:#f14624;fill-opacity:1;fill-rule:nonzero;stroke:none"
         d="m 3299.11,3252.77 v 63.16" /><path
         id="path490"
         style="fill:none;stroke:#f14624;stroke-width:10;stroke-linecap:butt;stroke-linejoin:miter;stroke-miterlimit:3.79999995;stroke-dasharray:none;stroke-opacity:1"
         d="m 3299.11,3252.77 v 63.16" /><path
         id="path492"
         style="fill:#f14624;fill-opacity:1;fill-rule:nonzero;stroke:none"
         d="m 3299.11,3252.77 v 63.16" /><path
         id="path494"
         style="fill:none;stroke:#f14624;stroke-width:10;stroke-linecap:butt;stroke-linejoin:miter;stroke-miterlimit:3.79999995;stroke-dasharray:none;stroke-opacity:1"
         d="m 3299.11,3252.77 v 63.16" /><path
         id="path496"
         style="fill:#f14624;fill-opacity:1;fill-rule:nonzero;stroke:none"
         d="m 3614.8,3259.94 v 63.16" /><path
         id="path498"
         style="fill:none;stroke:#f14624;stroke-width:10;stroke-linecap:butt;stroke-linejoin:miter;stroke-miterlimit:3.79999995;stroke-dasharray:none;stroke-opacity:1"
         d="m 3614.8,3259.94 v 63.16" /><path
         id="path500"
         style="fill:#f14624;fill-opacity:1;fill-rule:nonzero;stroke:none"
         d="m 3614.8,3259.94 v 63.16" /><path
         id="path502"
         style="fill:none;stroke:#f14624;stroke-width:10;stroke-linecap:butt;stroke-linejoin:miter;stroke-miterlimit:3.79999995;stroke-dasharray:none;stroke-opacity:1"
         d="m 3614.8,3259.94 v 63.16" /><path
         id="path504"
         style="fill:#f14624;fill-opacity:1;fill-rule:nonzero;stroke:none"
         d="m 3939.4,2709.18 v 63.15" /><path
         id="path506"
         style="fill:none;stroke:#f14624;stroke-width:10;stroke-linecap:butt;stroke-linejoin:miter;stroke-miterlimit:3.79999995;stroke-dasharray:none;stroke-opacity:1"
         d="m 3939.4,2709.18 v 63.15" /><path
         id="path508"
         style="fill:#f14624;fill-opacity:1;fill-rule:nonzero;stroke:none"
         d="m 3939.4,2709.18 v 63.15" /><path
         id="path510"
         style="fill:none;stroke:#f14624;stroke-width:10;stroke-linecap:butt;stroke-linejoin:miter;stroke-miterlimit:3.79999995;stroke-dasharray:none;stroke-opacity:1"
         d="m 3939.4,2709.18 v 63.15" /><path
         id="path512"
         style="fill:#f14624;fill-opacity:1;fill-rule:nonzero;stroke:none"
         d="m 4242.74,2879.23 v 63.05" /><path
         id="path514"
         style="fill:none;stroke:#f14624;stroke-width:10;stroke-linecap:butt;stroke-linejoin:miter;stroke-miterlimit:3.79999995;stroke-dasharray:none;stroke-opacity:1"
         d="m 4242.74,2879.23 v 63.05" /><path
         id="path516"
         style="fill:#f14624;fill-opacity:1;fill-rule:nonzero;stroke:none"
         d="m 4242.74,2879.23 v 63.05" /><path
         id="path518"
         style="fill:none;stroke:#f14624;stroke-width:10;stroke-linecap:butt;stroke-linejoin:miter;stroke-miterlimit:3.79999995;stroke-dasharray:none;stroke-opacity:1"
         d="m 4242.74,2879.23 v 63.05" /><path
         id="path520"
         style="fill:#f14624;fill-opacity:1;fill-rule:nonzero;stroke:none"
         d="m 1631.37,2351.84 c 0,-81.44 -134.32,-81.44 -134.32,0 0,81.44 134.32,81.44 134.32,0" /><path
         id="path522"
         style="fill:none;stroke:#f14624;stroke-width:10;stroke-linecap:butt;stroke-linejoin:miter;stroke-miterlimit:10;stroke-dasharray:none;stroke-opacity:1"
         d="m 1631.37,2351.84 c 0,-81.44 -134.32,-81.44 -134.32,0 0,81.44 134.32,81.44 134.32,0" /><path
         id="path524"
         style="fill:#f14624;fill-opacity:1;fill-rule:nonzero;stroke:none"
         d="m 1631.37,2351.84 c 0,-81.44 -134.32,-81.44 -134.32,0 0,81.44 134.32,81.44 134.32,0" /><path
         id="path526"
         style="fill:none;stroke:#f14624;stroke-width:10;stroke-linecap:butt;stroke-linejoin:miter;stroke-miterlimit:3.79999995;stroke-dasharray:none;stroke-opacity:1"
         d="m 1631.37,2351.84 c 0,-81.44 -134.32,-81.44 -134.32,0 0,81.44 134.32,81.44 134.32,0" /><path
         id="path528"
         style="fill:#f14624;fill-opacity:1;fill-rule:nonzero;stroke:none"
         d="m 2426.07,2750.94 c 0,-81.44 -134.32,-81.44 -134.32,0 0,81.44 134.32,81.44 134.32,0" /><path
         id="path530"
         style="fill:none;stroke:#f14624;stroke-width:10;stroke-linecap:butt;stroke-linejoin:miter;stroke-miterlimit:10;stroke-dasharray:none;stroke-opacity:1"
         d="m 2426.07,2750.94 c 0,-81.44 -134.32,-81.44 -134.32,0 0,81.44 134.32,81.44 134.32,0" /><path
         id="path532"
         style="fill:#f14624;fill-opacity:1;fill-rule:nonzero;stroke:none"
         d="m 2426.07,2750.94 c 0,-81.44 -134.32,-81.44 -134.32,0 0,81.44 134.32,81.44 134.32,0" /><path
         id="path534"
         style="fill:none;stroke:#f14624;stroke-width:10;stroke-linecap:butt;stroke-linejoin:miter;stroke-miterlimit:10;stroke-dasharray:none;stroke-opacity:1"
         d="m 2426.07,2750.94 c 0,-81.44 -134.32,-81.44 -134.32,0 0,81.44 134.32,81.44 134.32,0" /><path
         id="path536"
         style="fill:#f14624;fill-opacity:1;fill-rule:nonzero;stroke:none"
         d="m 2745.06,3003.36 c 0,-81.44 -134.32,-81.44 -134.32,0 0,81.45 134.32,81.45 134.32,0" /><path
         id="path538"
         style="fill:none;stroke:#f14624;stroke-width:10;stroke-linecap:butt;stroke-linejoin:miter;stroke-miterlimit:10;stroke-dasharray:none;stroke-opacity:1"
         d="m 2745.06,3003.36 c 0,-81.44 -134.32,-81.44 -134.32,0 0,81.45 134.32,81.45 134.32,0" /><path
         id="path540"
         style="fill:#f14624;fill-opacity:1;fill-rule:nonzero;stroke:none"
         d="m 2745.06,3003.36 c 0,-81.44 -134.32,-81.44 -134.32,0 0,81.45 134.32,81.45 134.32,0" /><path
         id="path542"
         style="fill:none;stroke:#f14624;stroke-width:10;stroke-linecap:butt;stroke-linejoin:miter;stroke-miterlimit:3.79999995;stroke-dasharray:none;stroke-opacity:1"
         d="m 2745.06,3003.36 c 0,-81.44 -134.32,-81.44 -134.32,0 0,81.45 134.32,81.45 134.32,0" /><path
         id="path544"
         style="fill:#f14624;fill-opacity:1;fill-rule:nonzero;stroke:none"
         d="m 3060.74,2905.71 c 0,-81.44 -134.3,-81.44 -134.3,0 0,81.44 134.3,81.44 134.3,0" /><path
         id="path546"
         style="fill:none;stroke:#f14624;stroke-width:10;stroke-linecap:butt;stroke-linejoin:miter;stroke-miterlimit:10;stroke-dasharray:none;stroke-opacity:1"
         d="m 3060.74,2905.71 c 0,-81.44 -134.3,-81.44 -134.3,0 0,81.44 134.3,81.44 134.3,0" /><path
         id="path548"
         style="fill:#f14624;fill-opacity:1;fill-rule:nonzero;stroke:none"
         d="m 3060.74,2905.71 c 0,-81.44 -134.3,-81.44 -134.3,0 0,81.44 134.3,81.44 134.3,0" /><path
         id="path550"
         style="fill:none;stroke:#f14624;stroke-width:10;stroke-linecap:butt;stroke-linejoin:miter;stroke-miterlimit:3.79999995;stroke-dasharray:none;stroke-opacity:1"
         d="m 3060.74,2905.71 c 0,-81.44 -134.3,-81.44 -134.3,0 0,81.44 134.3,81.44 134.3,0" /><path
         id="path552"
         style="fill:#f14624;fill-opacity:1;fill-rule:nonzero;stroke:none"
         d="m 3366.27,3284.35 c 0,-81.44 -134.32,-81.44 -134.32,0 0,81.44 134.32,81.44 134.32,0" /><path
         id="path554"
         style="fill:none;stroke:#f14624;stroke-width:10;stroke-linecap:butt;stroke-linejoin:miter;stroke-miterlimit:10;stroke-dasharray:none;stroke-opacity:1"
         d="m 3366.27,3284.35 c 0,-81.44 -134.32,-81.44 -134.32,0 0,81.44 134.32,81.44 134.32,0" /><path
         id="path556"
         style="fill:#f14624;fill-opacity:1;fill-rule:nonzero;stroke:none"
         d="m 3366.27,3284.35 c 0,-81.44 -134.32,-81.44 -134.32,0 0,81.44 134.32,81.44 134.32,0" /><path
         id="path558"
         style="fill:none;stroke:#f14624;stroke-width:10;stroke-linecap:butt;stroke-linejoin:miter;stroke-miterlimit:3.79999995;stroke-dasharray:none;stroke-opacity:1"
         d="m 3366.27,3284.35 c 0,-81.44 -134.32,-81.44 -134.32,0 0,81.44 134.32,81.44 134.32,0" /><path
         id="path560"
         style="fill:#f14624;fill-opacity:1;fill-rule:nonzero;stroke:none"
         d="m 3681.95,3291.52 c 0,-81.44 -134.31,-81.44 -134.31,0 0,81.44 134.31,81.44 134.31,0" /><path
         id="path562"
         style="fill:none;stroke:#f14624;stroke-width:10;stroke-linecap:butt;stroke-linejoin:miter;stroke-miterlimit:10;stroke-dasharray:none;stroke-opacity:1"
         d="m 3681.95,3291.52 c 0,-81.44 -134.31,-81.44 -134.31,0 0,81.44 134.31,81.44 134.31,0" /><path
         id="path564"
         style="fill:#f14624;fill-opacity:1;fill-rule:nonzero;stroke:none"
         d="m 3681.95,3291.52 c 0,-81.44 -134.31,-81.44 -134.31,0 0,81.44 134.31,81.44 134.31,0" /><path
         id="path566"
         style="fill:none;stroke:#f14624;stroke-width:10;stroke-linecap:butt;stroke-linejoin:miter;stroke-miterlimit:3.79999995;stroke-dasharray:none;stroke-opacity:1"
         d="m 3681.95,3291.52 c 0,-81.44 -134.31,-81.44 -134.31,0 0,81.44 134.31,81.44 134.31,0" /><path
         id="path568"
         style="fill:#f14624;fill-opacity:1;fill-rule:nonzero;stroke:none"
         d="m 4006.55,2740.76 c 0,-81.44 -134.31,-81.44 -134.31,0 0,81.44 134.31,81.44 134.31,0" /><path
         id="path570"
         style="fill:none;stroke:#f14624;stroke-width:10;stroke-linecap:butt;stroke-linejoin:miter;stroke-miterlimit:10;stroke-dasharray:none;stroke-opacity:1"
         d="m 4006.55,2740.76 c 0,-81.44 -134.31,-81.44 -134.31,0 0,81.44 134.31,81.44 134.31,0" /><path
         id="path572"
         style="fill:#f14624;fill-opacity:1;fill-rule:nonzero;stroke:none"
         d="m 4006.55,2740.76 c 0,-81.44 -134.31,-81.44 -134.31,0 0,81.44 134.31,81.44 134.31,0" /><path
         id="path574"
         style="fill:none;stroke:#f14624;stroke-width:10;stroke-linecap:butt;stroke-linejoin:miter;stroke-miterlimit:3.79999995;stroke-dasharray:none;stroke-opacity:1"
         d="m 4006.55,2740.76 c 0,-81.44 -134.31,-81.44 -134.31,0 0,81.44 134.31,81.44 134.31,0" /><path
         id="path576"
         style="fill:#f14624;fill-opacity:1;fill-rule:nonzero;stroke:none"
         d="m 4309.9,2910.81 c 0,-81.44 -134.31,-81.44 -134.31,0 0,81.44 134.31,81.44 134.31,0" /><path
         id="path578"
         style="fill:none;stroke:#f14624;stroke-width:10;stroke-linecap:butt;stroke-linejoin:miter;stroke-miterlimit:10;stroke-dasharray:none;stroke-opacity:1"
         d="m 4309.9,2910.81 c 0,-81.44 -134.31,-81.44 -134.31,0 0,81.44 134.31,81.44 134.31,0" /><path
         id="path580"
         style="fill:#f14624;fill-opacity:1;fill-rule:nonzero;stroke:none"
         d="m 4309.9,2910.81 c 0,-81.44 -134.31,-81.44 -134.31,0 0,81.44 134.31,81.44 134.31,0" /><path
         id="path582"
         style="fill:none;stroke:#f14624;stroke-width:10;stroke-linecap:butt;stroke-linejoin:miter;stroke-miterlimit:3.79999995;stroke-dasharray:none;stroke-opacity:1"
         d="m 4309.9,2910.81 c 0,-81.44 -134.31,-81.44 -134.31,0 0,81.44 134.31,81.44 134.31,0" /><path
         id="path584"
         style="fill:none;stroke:#231f20;stroke-width:10;stroke-linecap:butt;stroke-linejoin:miter;stroke-miterlimit:3.79999995;stroke-dasharray:none;stroke-opacity:1"
         d="m 1954.82,518.488 24.88,16.762" /><path
         id="path586"
         style="fill:none;stroke:#231f20;stroke-width:10;stroke-linecap:butt;stroke-linejoin:miter;stroke-miterlimit:3.79999995;stroke-dasharray:59.8348, 59.8348;stroke-dashoffset:0;stroke-opacity:1"
         d="m 2029.33,568.672 16.17,10.898 104.16,68.141 105.2,65.129 105.19,60.148 105.19,56.922 105.19,50.91 105.3,46.84 105.2,41.758 105.18,35.642 105.2,29.49 105.18,22.44 104.16,16.31 105.2,7.06 105.19,-1.97 105.19,-11.21 105.3,-23.48 105.2,-36.57 105.18,-52.982 105.2,-72.289 105.19,-96.718 104.16,-126.2 59.81,-90.472" /><path
         id="path588"
         style="fill:none;stroke:#231f20;stroke-width:10;stroke-linecap:butt;stroke-linejoin:miter;stroke-miterlimit:3.79999995;stroke-dasharray:none;stroke-opacity:1"
         d="m 4222.77,543.52 16.55,-25.032" /><path
         id="path590"
         style="fill:none;stroke:#231f20;stroke-width:10;stroke-linecap:butt;stroke-linejoin:miter;stroke-miterlimit:3.79999995;stroke-dasharray:none;stroke-opacity:1"
         d="m 1411.96,518.488 2.28,1.973 210.39,203.598 105.3,98.793 105.19,96.718 105.19,91.62 105.19,88.5 104.16,82.47 105.2,78.44 105.19,71.26 105.19,66.17 105.19,60.04 105.3,52.98 105.2,45.81 105.18,37.59 105.2,30.55 105.18,21.4 104.16,12.25 105.2,3.02 105.19,-10.19 105.19,-22.43 105.3,-37.59 105.2,-54.03 105.18,-76.35 105.2,-102.74 105.19,-137.43 104.16,-182.31 105.19,-236.112 105.2,-280.988 1.13,-3.012" /><path
         id="path592"
         style="fill:none;stroke:#231f20;stroke-width:10;stroke-linecap:butt;stroke-linejoin:miter;stroke-miterlimit:3.79999995;stroke-dasharray:none;stroke-opacity:1"
         d="m 678.828,595.77 105.305,63.171 105.187,77.387 105.192,86.524 105.188,96.718 104.16,103.77 105.19,108.97 105.19,111.98 105.2,113.02 105.19,111.98 105.3,109.9 105.19,105.85 105.19,100.87 105.19,96.71 104.16,90.58 105.2,84.46 105.19,77.38 105.19,70.22 105.19,64.2 105.3,54.95 105.2,47.79 105.18,39.78 105.2,30.54 105.18,20.36 104.16,10.18 105.2,-2.07 105.19,-14.24 105.19,-28.57 105.3,-45.81 105.2,-65.12 105.18,-90.59 105.2,-121.12 105.19,-162.88 104.16,-220.95 105.19,-293.14 105.2,-328.88 105.18,-38.64 105.3,257.52" /><path
         id="path594"
         style="fill:none;stroke:#231f20;stroke-width:10;stroke-linecap:butt;stroke-linejoin:miter;stroke-miterlimit:3.79999995;stroke-dasharray:none;stroke-opacity:1"
         d="m 678.828,791.27 105.305,58.07 105.187,77.289 105.192,88.611 105.188,99.72 104.16,111.05 105.19,119.04 105.19,122.16 210.39,246.4 105.3,121.12 105.19,116.03 105.19,110.95 105.19,104.91 104.16,97.75 105.2,90.58 105.19,83.42 105.19,75.41 105.19,67.11 105.3,58.07 105.2,49.86 105.18,39.68 105.2,29.61 105.18,19.32 104.16,7.06 105.2,-5.09 105.19,-20.36 105.19,-35.63 105.3,-55.99 105.2,-77.29 105.18,-105.95 105.2,-143.46 105.19,-193.42 104.16,-267.8 105.19,-358.28 105.2,-296.25 105.18,187.29 105.3,277.88" /><path
         id="path596"
         style="fill:none;stroke:#231f20;stroke-width:30;stroke-linecap:butt;stroke-linejoin:miter;stroke-miterlimit:3.79999995;stroke-dasharray:none;stroke-opacity:1"
         d="m 678.828,1098.75 105.305,43.73 105.187,71.27 105.192,83.52 105.188,102.73 104.16,117.07 105.19,128.28 105.19,133.39 210.39,274.86 105.3,134.42 105.19,129.23 105.19,123.2 105.19,116.03 104.16,107.93 105.2,99.72 105.19,90.69 105.19,81.44 105.19,71.26 105.3,62.01 105.2,50.91 105.18,40.71 105.2,29.61 105.18,16.2 104.16,4.16 105.2,-11.22 105.19,-26.49 105.19,-45.81 105.3,-68.25 105.2,-94.63 105.18,-128.29 105.2,-173.06 105.19,-240.27 104.16,-343.01 105.19,-446.89 105.2,-41.74 105.18,346.11 105.3,232.07" /><path
         id="path598"
         style="fill:none;stroke:#231f20;stroke-width:10;stroke-linecap:butt;stroke-linejoin:miter;stroke-miterlimit:3.79999995;stroke-dasharray:none;stroke-opacity:1"
         d="m 678.828,1319.59 105.305,13.3 105.187,52.87 105.192,68.26 105.188,96.71 104.16,123.2 105.19,142.52 105.19,152.7 210.39,321.6 105.3,157.8 105.19,151.76 105.19,143.46 105.19,134.42 104.16,124.24 105.2,112.91 105.19,102.84 105.19,90.59 105.19,79.46 105.3,67.21 105.2,55.99 105.18,41.66 105.2,29.6 105.18,14.24 104.16,-1.05 105.2,-18.28 105.19,-36.67 105.19,-60.04 105.3,-87.57 105.2,-120.18 105.18,-165.9 105.2,-231.13 105.19,-338.96 104.16,-561.97 105.19,-451.99 105.2,590.45 105.18,319.64 105.3,148.65" /></g></g></svg>