<?xml version="1.0" encoding="UTF-8" standalone="no"?>
<svg
   xmlns:dc="http://purl.org/dc/elements/1.1/"
   xmlns:cc="http://creativecommons.org/ns#"
   xmlns:rdf="http://www.w3.org/1999/02/22-rdf-syntax-ns#"
   xmlns:svg="http://www.w3.org/2000/svg"
   xmlns="http://www.w3.org/2000/svg"
   viewBox="0 0 557.33331 413.34668"
   height="413.34668"
   width="557.33331"
   xml:space="preserve"
   id="svg2"
   version="1.1"><metadata
     id="metadata8"><rdf:RDF><cc:Work
         rdf:about=""><dc:format>image/svg+xml</dc:format><dc:type
           rdf:resource="http://purl.org/dc/dcmitype/StillImage" /></cc:Work></rdf:RDF></metadata><defs
     id="defs6" /><g
     transform="matrix(1.3333333,0,0,-1.3333333,0,413.34667)"
     id="g10"><g
       transform="scale(0.1)"
       id="g12"><path
         id="path14"
         style="fill:none;stroke:#231f20;stroke-width:3.75;stroke-linecap:butt;stroke-linejoin:miter;stroke-miterlimit:3.79999995;stroke-dasharray:none;stroke-opacity:1"
         d="M 461.832,1945.21 H 4090.61" /><path
         id="path16"
         style="fill:none;stroke:#231f20;stroke-width:10;stroke-linecap:butt;stroke-linejoin:miter;stroke-miterlimit:3.79999995;stroke-dasharray:none;stroke-opacity:1"
         d="M 461.832,3095.14 V 1715.22 H 4090.61 V 3095.14 H 461.832 Z" /><path
         id="path18"
         style="fill:none;stroke:#231f20;stroke-width:10;stroke-linecap:butt;stroke-linejoin:miter;stroke-miterlimit:3.79999995;stroke-dasharray:none;stroke-opacity:1"
         d="M 461.832,2175.19 H 501.77" /><path
         id="path20"
         style="fill:none;stroke:#231f20;stroke-width:10;stroke-linecap:butt;stroke-linejoin:miter;stroke-miterlimit:3.79999995;stroke-dasharray:none;stroke-opacity:1"
         d="M 461.832,2405.18 H 501.77" /><path
         id="path22"
         style="fill:none;stroke:#231f20;stroke-width:10;stroke-linecap:butt;stroke-linejoin:miter;stroke-miterlimit:3.79999995;stroke-dasharray:none;stroke-opacity:1"
         d="M 461.832,2635.17 H 501.77" /><path
         id="path24"
         style="fill:none;stroke:#231f20;stroke-width:10;stroke-linecap:butt;stroke-linejoin:miter;stroke-miterlimit:3.79999995;stroke-dasharray:none;stroke-opacity:1"
         d="M 461.832,2865.15 H 501.77" /><path
         id="path26"
         style="fill:none;stroke:#231f20;stroke-width:10;stroke-linecap:butt;stroke-linejoin:miter;stroke-miterlimit:3.79999995;stroke-dasharray:none;stroke-opacity:1"
         d="m 4050.68,2175.19 h 39.93" /><path
         id="path28"
         style="fill:none;stroke:#231f20;stroke-width:10;stroke-linecap:butt;stroke-linejoin:miter;stroke-miterlimit:3.79999995;stroke-dasharray:none;stroke-opacity:1"
         d="m 4050.68,2405.18 h 39.93" /><path
         id="path30"
         style="fill:none;stroke:#231f20;stroke-width:10;stroke-linecap:butt;stroke-linejoin:miter;stroke-miterlimit:3.79999995;stroke-dasharray:none;stroke-opacity:1"
         d="m 4050.68,2635.17 h 39.93" /><path
         id="path32"
         style="fill:none;stroke:#231f20;stroke-width:10;stroke-linecap:butt;stroke-linejoin:miter;stroke-miterlimit:3.79999995;stroke-dasharray:none;stroke-opacity:1"
         d="m 4050.68,2865.15 h 39.93" /><path
         id="path34"
         style="fill:none;stroke:#231f20;stroke-width:10;stroke-linecap:butt;stroke-linejoin:miter;stroke-miterlimit:3.79999995;stroke-dasharray:none;stroke-opacity:1"
         d="m 4090.61,3095.14 h -39.93" /><path
         id="path36"
         style="fill:none;stroke:#231f20;stroke-width:10;stroke-linecap:butt;stroke-linejoin:miter;stroke-miterlimit:3.79999995;stroke-dasharray:none;stroke-opacity:1"
         d="m 461.832,1715.22 v 25.62" /><path
         id="path38"
         style="fill:none;stroke:#231f20;stroke-width:10;stroke-linecap:butt;stroke-linejoin:miter;stroke-miterlimit:3.79999995;stroke-dasharray:none;stroke-opacity:1"
         d="m 4090.62,1715.22 v 25.62" /><path
         id="path40"
         style="fill:none;stroke:#231f20;stroke-width:10;stroke-linecap:butt;stroke-linejoin:miter;stroke-miterlimit:3.79999995;stroke-dasharray:none;stroke-opacity:1"
         d="m 1066.63,1675.51 v 85.04" /><path
         id="path42"
         style="fill:none;stroke:#231f20;stroke-width:10;stroke-linecap:butt;stroke-linejoin:miter;stroke-miterlimit:3.79999995;stroke-dasharray:none;stroke-opacity:1"
         d="m 1671.43,1675.51 v 85.04" /><path
         id="path44"
         style="fill:none;stroke:#231f20;stroke-width:10;stroke-linecap:butt;stroke-linejoin:miter;stroke-miterlimit:3.79999995;stroke-dasharray:none;stroke-opacity:1"
         d="m 2276.23,1675.51 v 85.04" /><path
         id="path46"
         style="fill:none;stroke:#231f20;stroke-width:10;stroke-linecap:butt;stroke-linejoin:miter;stroke-miterlimit:3.79999995;stroke-dasharray:none;stroke-opacity:1"
         d="m 2881.03,1675.51 v 85.04" /><path
         id="path48"
         style="fill:none;stroke:#231f20;stroke-width:10;stroke-linecap:butt;stroke-linejoin:miter;stroke-miterlimit:3.79999995;stroke-dasharray:none;stroke-opacity:1"
         d="m 3485.83,1675.51 v 85.04" /><path
         id="path50"
         style="fill:none;stroke:#231f20;stroke-width:10;stroke-linecap:butt;stroke-linejoin:miter;stroke-miterlimit:3.79999995;stroke-dasharray:none;stroke-opacity:1"
         d="m 2938.14,2712.8 h 260.29" /><path
         id="path52"
         style="fill:none;stroke:#231f20;stroke-width:20;stroke-linecap:butt;stroke-linejoin:miter;stroke-miterlimit:3.79999995;stroke-dasharray:30, 30;stroke-dashoffset:0;stroke-opacity:1"
         d="m 2938.14,2912.8 h 260.29" /><g
         transform="scale(10)"
         id="g54"><text
           id="text72"
           style="font-variant:normal;font-weight:normal;font-size:16px;font-family:'Times New Roman';-inkscape-font-specification:TimesNewRomanPSMT;writing-mode:lr-tb;fill:#231f20;fill-opacity:1;fill-rule:nonzero;stroke:none"
           transform="matrix(1,0,0,-1,24.4809,189.507)"><tspan
             id="tspan56"
             y="0"
             x="0 8 12">0.0</tspan><tspan
             id="tspan58"
             y="-45.909401"
             x="0 8 12">0.1</tspan><tspan
             id="tspan60"
             y="-91.818398"
             x="0 8 12">0.2</tspan><tspan
             id="tspan62"
             y="145.94859"
             x="10.6672">0</tspan><tspan
             id="tspan64"
             y="121.1439"
             x="10.6672">1</tspan><tspan
             id="tspan66"
             y="96.3377"
             x="10.6672">2</tspan><tspan
             id="tspan68"
             y="71.5326"
             x="10.6672">3</tspan><tspan
             id="tspan70"
             y="46.726002"
             x="10.6672">4</tspan></text>
<text
           id="text76"
           style="font-variant:normal;font-weight:normal;font-size:16px;font-family:'Times New Roman';-inkscape-font-specification:TimesNewRomanPSMT;writing-mode:lr-tb;fill:#231f20;fill-opacity:1;fill-rule:nonzero;stroke:none"
           transform="matrix(0,1,1,0,18.2969,247.077)"><tspan
             id="tspan74"
             y="0"
             x="0 5.3280001 10.656">[fm</tspan></text>
<text
           id="text80"
           style="font-variant:normal;font-weight:normal;font-size:11px;font-family:'Times New Roman';-inkscape-font-specification:TimesNewRomanPSMT;writing-mode:lr-tb;fill:#231f20;fill-opacity:1;fill-rule:nonzero;stroke:none"
           transform="matrix(0,1,1,0,11.64143,270.1786)"><tspan
             id="tspan78"
             y="0"
             x="0 3.6630001 9.1630001 12.218657">-1/2</tspan></text>
<text
           id="text86"
           style="font-variant:normal;font-weight:normal;font-size:16px;font-family:'Times New Roman';-inkscape-font-specification:TimesNewRomanPSMT;writing-mode:lr-tb;fill:#231f20;fill-opacity:1;fill-rule:nonzero;stroke:none"
           transform="matrix(0,1,1,0,18.2969,287.8974)"><tspan
             id="tspan82"
             y="0"
             x="0">]</tspan><tspan
             id="tspan84"
             y="6.68398"
             x="-235.821 -226.04756 -211.82095 -200.26627 -196.26627 -190.93826 -183.8367 -178.51651 -170.51651 -166.51651 -162.51651 -154.51651 -146.51651 -142.06339 -137.61809">TMD (arb. unit)</tspan></text>
<text
           id="text90"
           style="font-variant:normal;font-weight:normal;font-size:16px;font-family:'Times New Roman';-inkscape-font-specification:TimesNewRomanPSMT;writing-mode:lr-tb;fill:#231f20;fill-opacity:1;fill-rule:nonzero;stroke:none"
           transform="matrix(1,0,0,-1,328.915,286.579)"><tspan
             id="tspan88"
             y="0"
             x="0 12.448 19.552 26.656 34.655998 39.984001 45.312 49.759998 56.863998 61.312">mean-field</tspan></text>
<text
           id="text114"
           style="font-variant:normal;font-weight:normal;font-size:14px;font-family:'Times New Roman';-inkscape-font-specification:TimesNewRomanPSMT;writing-mode:lr-tb;fill:#231f20;fill-opacity:1;fill-rule:nonzero;stroke:none"
           transform="matrix(1,0,0,-1,109.915,258.0477)"><tspan
             id="tspan92"
             y="0"
             x="0 10.892 17.108 23.323999 30.323999 34.986 39.647999 43.540001 49.756001 53.647999">mean-field</tspan><tspan
             id="tspan94"
             y="-33.2332"
             x="143.133 150.133 153.633">5.0</tspan><tspan
             id="tspan96"
             y="112.7998"
             x="134.133 141.133 144.633">5.0</tspan><tspan
             id="tspan98"
             y="6.4818001"
             x="114.6369 121.6369 125.1369">4.0</tspan><tspan
             id="tspan100"
             y="181.5508"
             x="103.633 110.633 114.133">4.0</tspan><tspan
             id="tspan102"
             y="14.0468"
             x="94.633003 101.633 105.133">3.5</tspan><tspan
             id="tspan104"
             y="178.9498"
             x="128.4588 135.4588 138.9588">3.5</tspan><tspan
             id="tspan106"
             y="158.75681"
             x="51.383801 58.383801 61.883801 68.883797 79.383797">3.0 5</tspan><tspan
             id="tspan108"
             y="38.0518"
             x="83.0158 90.0158 93.5158">3.0</tspan><tspan
             id="tspan110"
             y="-12.4201"
             x="128.4588 135.4588 138.9588">4.5</tspan><tspan
             id="tspan112"
             y="153.7529"
             x="116.133 123.133 126.633">4.5</tspan></text>
<text
           id="text118"
           style="font-variant:normal;font-weight:normal;font-size:16px;font-family:'Times New Roman';-inkscape-font-specification:TimesNewRomanPSMT;writing-mode:lr-tb;fill:#231f20;fill-opacity:1;fill-rule:nonzero;stroke:none"
           transform="matrix(1,0,0,-1,185.716,180.2468)"><tspan
             id="tspan116"
             y="0"
             x="0">r</tspan></text>
<text
           id="text122"
           style="font-variant:normal;font-weight:normal;font-size:12px;font-family:Symbol;-inkscape-font-specification:SymbolMT;writing-mode:lr-tb;fill:#231f20;fill-opacity:1;fill-rule:nonzero;stroke:none"
           transform="matrix(1,0,0,-1,191.04413,178.98391)"><tspan
             id="tspan120"
             y="0"
             x="0">a</tspan></text>
<text
           id="text126"
           style="font-variant:normal;font-weight:normal;font-size:16px;font-family:'Times New Roman';-inkscape-font-specification:TimesNewRomanPSMT;writing-mode:lr-tb;fill:#231f20;fill-opacity:1;fill-rule:nonzero;stroke:none"
           transform="matrix(1,0,0,-1,198.61405,180.2468)"><tspan
             id="tspan124"
             y="0"
             x="0 9.0240002 13.024">+ r</tspan></text>
<text
           id="text130"
           style="font-variant:normal;font-weight:normal;font-size:11px;font-family:'Times New Roman';-inkscape-font-specification:TimesNewRomanPSMT;writing-mode:lr-tb;fill:#231f20;fill-opacity:1;fill-rule:nonzero;stroke:none"
           transform="matrix(1,0,0,-1,216.96605,177.90305)"><tspan
             id="tspan128"
             y="0"
             x="0 7.3369999">Ca</tspan></text>
<text
           id="text136"
           style="font-variant:normal;font-weight:normal;font-size:16px;font-family:'Times New Roman';-inkscape-font-specification:TimesNewRomanPSMT;writing-mode:lr-tb;fill:#231f20;fill-opacity:1;fill-rule:nonzero;stroke:none"
           transform="matrix(1,0,0,-1,233.18515,180.2468)"><tspan
             id="tspan132"
             y="0"
             x="0 5.3280001 13.328 17.327999 25.327999 33.327999 37.327999 42.655998 55.104">(5.19 fm)</tspan><tspan
             id="tspan134"
             y="140.045"
             x="-166.70399">r</tspan></text>
<text
           id="text140"
           style="font-variant:normal;font-weight:normal;font-size:12px;font-family:Symbol;-inkscape-font-specification:SymbolMT;writing-mode:lr-tb;fill:#231f20;fill-opacity:1;fill-rule:nonzero;stroke:none"
           transform="matrix(1,0,0,-1,71.80928,38.93891)"><tspan
             id="tspan138"
             y="0"
             x="0">a</tspan></text>
<text
           id="text144"
           style="font-variant:normal;font-weight:normal;font-size:16px;font-family:'Times New Roman';-inkscape-font-specification:TimesNewRomanPSMT;writing-mode:lr-tb;fill:#231f20;fill-opacity:1;fill-rule:nonzero;stroke:none"
           transform="matrix(1,0,0,-1,79.37959,40.2018)"><tspan
             id="tspan142"
             y="0"
             x="0 9.0240002 13.024">+ r</tspan></text>
<text
           id="text148"
           style="font-variant:normal;font-weight:normal;font-size:11px;font-family:'Times New Roman';-inkscape-font-specification:TimesNewRomanPSMT;writing-mode:lr-tb;fill:#231f20;fill-opacity:1;fill-rule:nonzero;stroke:none"
           transform="matrix(1,0,0,-1,97.73119,37.85805)"><tspan
             id="tspan146"
             y="0"
             x="0 7.3369999">Ca</tspan></text>
<text
           id="text152"
           style="font-variant:normal;font-weight:normal;font-size:16px;font-family:'Times New Roman';-inkscape-font-specification:TimesNewRomanPSMT;writing-mode:lr-tb;fill:#231f20;fill-opacity:1;fill-rule:nonzero;stroke:none"
           transform="matrix(1,0,0,-1,113.95029,40.2018)"><tspan
             id="tspan150"
             y="0"
             x="0 5.3280001 13.328 17.327999 25.327999 33.327999 37.327999 42.655998 55.104">(5.19 fm)</tspan></text>
</g><path
         id="path154"
         style="fill:none;stroke:#231f20;stroke-width:10;stroke-linecap:butt;stroke-linejoin:miter;stroke-miterlimit:3.79999995;stroke-dasharray:none;stroke-opacity:1"
         d="m 1066.63,3052.62 v 42.52" /><path
         id="path156"
         style="fill:none;stroke:#231f20;stroke-width:10;stroke-linecap:butt;stroke-linejoin:miter;stroke-miterlimit:3.79999995;stroke-dasharray:none;stroke-opacity:1"
         d="m 1671.43,3052.62 v 42.52" /><path
         id="path158"
         style="fill:none;stroke:#231f20;stroke-width:10;stroke-linecap:butt;stroke-linejoin:miter;stroke-miterlimit:3.79999995;stroke-dasharray:none;stroke-opacity:1"
         d="m 2276.23,3052.62 v 42.52" /><path
         id="path160"
         style="fill:none;stroke:#231f20;stroke-width:10;stroke-linecap:butt;stroke-linejoin:miter;stroke-miterlimit:3.79999995;stroke-dasharray:none;stroke-opacity:1"
         d="m 2881.03,3052.62 v 42.52" /><path
         id="path162"
         style="fill:none;stroke:#231f20;stroke-width:10;stroke-linecap:butt;stroke-linejoin:miter;stroke-miterlimit:3.79999995;stroke-dasharray:none;stroke-opacity:1"
         d="m 3485.83,3052.62 v 42.52" /><g
         transform="scale(10)"
         id="g164"><text
           id="text170"
           style="font-variant:normal;font-weight:normal;font-size:16px;font-family:'Times New Roman';-inkscape-font-specification:TimesNewRomanPSMT;writing-mode:lr-tb;fill:#231f20;fill-opacity:1;fill-rule:nonzero;stroke:none"
           transform="matrix(1,0,0,-1,61.9809,284.747)"><tspan
             id="tspan166"
             y="0"
             x="0 5.3280001 12.432 17.76 21.76 32.431999 47.535999">(a) RWA</tspan><tspan
             id="tspan168"
             y="139.5"
             x="0 5.3280001 13.328 18.656 22.656 32.431999 46.655998">(b) TMD</tspan></text>
</g><path
         id="path172"
         style="fill:none;stroke:#231f20;stroke-width:7.5;stroke-linecap:butt;stroke-linejoin:miter;stroke-miterlimit:3.79999995;stroke-dasharray:none;stroke-opacity:1"
         d="M 2113.81,609.492 1811.47,972.469" /><path
         id="path174"
         style="fill:#0e0f0f;fill-opacity:1;fill-rule:nonzero;stroke:none"
         d="m 130.582,2205.64 c -1.769,0 -3.535,0 -3.535,0 -3.539,0 -3.539,-1.76 -3.539,-3.53 0,-1.77 0,-3.54 1.765,-5.31 1.774,0 5.309,-1.77 8.848,-1.77 3.539,-1.88 7.074,-1.88 10.613,-3.65 l 26.536,-5.3 c 1.773,-1.78 12.382,-7.08 12.382,-17.69 0,-7.08 -7.074,-8.85 -12.382,-8.85 -7.075,0 -15.918,3.54 -28.301,8.85 -5.309,1.76 -7.078,1.76 -10.614,1.76 -5.308,0 -10.617,-3.54 -10.617,-10.61 0,-14.15 21.231,-19.46 21.231,-19.46 1.765,0 1.765,1.77 1.765,1.77 0,1.77 0,1.77 -1.765,1.77 -14.156,3.54 -17.696,10.61 -17.696,14.15 0,1.77 0,3.54 3.54,3.54 3.542,0 7.078,0 10.617,-1.77 14.148,-5.31 22.996,-8.84 30.074,-8.84 12.383,0 15.922,8.84 15.922,17.69 0,5.3 -1.774,10.61 -5.309,14.15 7.074,-1.77 14.153,-3.54 21.231,-8.85 5.3,-3.54 8.843,-8.85 8.843,-15.92 0,-1.77 0,-8.85 -5.308,-10.61 0,1.76 0,3.54 -1.77,7.07 -1.765,0 -3.539,1.77 -5.304,1.77 -5.309,0 -5.309,-3.54 -5.309,-5.3 0,-3.54 1.77,-7.08 8.848,-7.08 7.074,0 12.382,5.3 12.382,14.15 0,14.15 -12.382,30.07 -28.304,33.61 l -54.844,14.26" /><path
         id="path176"
         style="fill:#0e0f0f;fill-opacity:1;fill-rule:nonzero;stroke:none"
         d="m 219.039,2258.72 c 0,0 -1.773,0 -3.543,-3.54 -17.687,-17.69 -44.226,-21.23 -67.226,-21.23 -24.762,0 -49.6411,5.31 -67.3325,23 -1.7695,1.77 -1.7695,1.77 -1.7695,1.77 -1.7657,0 -1.7657,-1.77 -1.7657,-1.77 0,-1.77 8.8438,-14.16 28.3007,-23 16.035,-7.08 31.957,-8.84 42.567,-8.84 12.382,0 28.308,1.76 46,8.84 15.921,8.84 26.535,21.23 26.535,23 l -1.766,1.77" /><path
         id="path178"
         style="fill:#0e0f0f;fill-opacity:1;fill-rule:nonzero;stroke:none"
         d="m 96.8594,2320.75 c -3.5391,0 -5.3086,0 -5.3086,3.54 0,1.76 0,5.3 0,8.84 0,10.61 0,26.53 14.1522,26.53 5.418,0 14.27,-3.53 19.574,-8.84 3.536,-3.54 8.844,-10.61 8.844,-24.77 v -15.92 z m 39.0316,19.46 c -3.536,14.15 -12.383,31.84 -28.309,31.84 -10.7226,0 -21.3359,-12.39 -21.3359,-31.84 v -40.69 c 0,-1.77 0,-3.54 3.5391,-3.54 1.7656,0 1.7656,1.77 1.7656,3.54 0,0 0,3.53 0,5.31 0,3.53 0,3.53 1.7695,3.53 1.7735,0 1.7735,0 3.5391,0 l 76.1836,-19.57 c 5.309,-1.77 7.074,-1.77 7.074,-12.38 0,-3.54 0,-3.54 3.539,-3.54 1.77,0 1.77,1.77 1.77,1.77 0,3.54 -1.77,14.15 -1.77,17.8 0,3.54 1.77,14.15 1.77,17.69 0,1.77 0,3.54 -3.539,3.54 -1.77,0 -1.77,-1.77 -1.77,-3.54 0,-5.3 0,-10.61 -1.765,-10.61 -1.774,0 -1.774,1.77 -3.543,1.77 l -37.149,8.84 v 17.69 c 0,12.39 7.074,14.15 12.383,14.15 1.77,0 7.074,0 10.617,-1.76 3.535,0 8.844,-1.78 12.383,-1.78 14.148,0 14.148,17.7 14.148,19.47 0,12.38 -14.148,15.92 -15.921,15.92 -1.766,0 -1.766,-1.77 -1.766,-1.77 0,0 1.766,0 1.766,-1.77 10.617,-3.54 14.156,-8.85 14.156,-12.38 0,-5.31 -3.539,-5.31 -8.848,-5.31 -5.308,0 -12.383,0 -17.691,1.77 -1.77,0 -3.535,0 -5.309,0 -12.383,0 -15.918,-10.62 -17.687,-14.15" /><path
         id="path180"
         style="fill:#0e0f0f;fill-opacity:1;fill-rule:nonzero;stroke:none"
         d="m 96.8594,2067.55 c -3.5391,0 -5.3086,0 -5.3086,3.54 0,1.76 0,5.3 0,8.84 0,10.61 0,26.53 14.1522,26.53 5.418,0 14.27,-3.53 19.574,-8.84 3.536,-3.54 8.844,-10.61 8.844,-24.77 v -15.91 z m 39.0316,19.46 c -3.536,14.15 -12.383,31.84 -28.309,31.84 -10.7226,0 -21.3359,-12.39 -21.3359,-31.84 v -40.69 c 0,-1.77 0,-3.54 3.5391,-3.54 1.7656,0 1.7656,1.77 1.7656,3.54 0,0 0,3.54 0,5.31 0,3.53 0,3.53 1.7695,3.53 1.7735,0 1.7735,0 3.5391,0 l 76.1836,-19.57 c 5.309,-1.77 7.074,-1.77 7.074,-12.38 0,-3.54 0,-3.54 3.539,-3.54 1.77,0 1.77,1.77 1.77,1.77 0,3.54 -1.77,14.15 -1.77,17.8 0,3.54 1.77,14.16 1.77,17.7 0,1.76 0,3.53 -3.539,3.53 -1.77,0 -1.77,-1.77 -1.77,-3.53 0,-5.31 0,-10.62 -1.765,-10.62 -1.774,0 -1.774,1.77 -3.543,1.77 l -37.149,8.85 v 17.69 c 0,12.38 7.074,14.15 12.383,14.15 1.77,0 7.074,0 10.617,-1.77 3.535,0 8.844,-1.77 12.383,-1.77 14.148,0 14.148,17.69 14.148,19.46 0,12.38 -14.148,15.92 -15.921,15.92 -1.766,0 -1.766,-1.77 -1.766,-1.77 0,0 1.766,0 1.766,-1.77 10.617,-3.54 14.156,-8.85 14.156,-12.38 0,-5.31 -3.539,-5.31 -8.848,-5.31 -5.308,0 -12.383,0 -17.691,1.77 -1.77,0 -3.535,0 -5.309,0 -12.383,0 -15.918,-10.62 -17.687,-14.15" /><path
         id="path182"
         style="fill:#0e0f0f;fill-opacity:1;fill-rule:nonzero;stroke:none"
         d="m 148.27,2418.16 c -10.61,0 -28.297,-1.78 -44.223,-10.73 -17.6915,-7.08 -26.5353,-19.46 -26.5353,-21.23 0,-1.77 0,-1.77 0,-1.77 1.7696,0 1.7696,0 3.5391,3.54 14.1484,14.15 37.1482,21.23 67.2192,21.23 24.878,0 49.652,-5.31 67.339,-23 1.77,-1.77 1.77,-1.77 1.77,-1.77 1.766,0 1.766,0 1.766,1.77 0,1.77 -8.84,14.15 -28.305,23 -14.152,7.18 -30.074,8.96 -42.57,8.96" /><path
         id="path184"
         style="fill:#0e0f0f;fill-opacity:1;fill-rule:nonzero;stroke:none"
         d="m 3363.23,2707.49 c 0,21.16 -11.49,28.82 -22.96,28.82 -19.14,0 -38.27,-19.13 -38.27,-40.3 0,-13.4 9.57,-22.97 22.96,-22.97 15.31,0 26.78,9.57 30.61,11.49 1.92,-5.74 5.74,-11.49 13.4,-11.49 5.74,0 11.47,7.66 11.47,9.57 0,1.92 -1.9,1.92 -1.9,1.92 -1.91,0 -1.91,0 -1.91,-1.92 -1.92,-3.82 -5.75,-5.74 -7.66,-5.74 -5.74,0 -5.74,11.48 -5.74,15.31 0,1.91 0,1.91 1.91,3.83 1.92,1.91 5.74,7.65 9.57,13.39 3.83,9.69 7.65,17.34 7.65,19.25 0,0 0,0 -1.92,0 -1.9,0 -1.9,0 -3.81,-1.91 0,-5.74 -3.83,-15.42 -13.4,-26.91 z m -9.57,-19.14 c -3.83,-1.91 -13.39,-11.48 -28.7,-11.48 -7.65,0 -13.39,5.74 -13.39,15.31 0,5.74 3.83,19.14 9.56,28.82 3.83,5.74 9.57,11.48 19.14,11.48 9.56,0 11.47,-7.65 13.39,-17.22 0,-5.86 0,-19.25 0,-26.91" /><path
         id="path186"
         style="fill:#0e0f0f;fill-opacity:1;fill-rule:nonzero;stroke:none"
         d="m 3502.51,2705.57 c 1.92,0 5.74,0 5.74,3.83 0,3.83 -3.82,3.83 -5.74,3.83 h -40.3 v 38.39 c 0,3.82 0,5.74 -1.91,5.74 -3.83,0 -3.83,-3.83 -3.83,-5.74 v -38.39 h -38.27 c -3.83,0 -5.74,0 -5.74,-3.83 0,-3.83 1.91,-3.83 5.74,-3.83 h 38.27 v -38.27 c 0,-1.91 0,-5.74 3.83,-5.74 1.91,0 1.91,3.83 1.91,5.74 v 38.27 h 40.3" /><path
         id="path188"
         style="fill:#0e0f0f;fill-opacity:1;fill-rule:nonzero;stroke:none"
         d="m 3568.33,2749.7 v 3.83 h -9.58 v 40.18 c 0,1.92 0,1.92 -1.91,1.92 -1.91,0 -1.91,0 -3.83,0 l -32.64,-42.1 v -3.83 h 28.7 v -7.65 c 0,-3.83 0,-3.83 -7.65,-3.83 h -1.91 v -3.83 c 1.91,0 9.56,0 15.42,0 3.82,0 11.48,0 13.4,0 v 3.83 h -1.92 c -7.66,0 -7.66,0 -7.66,3.83 v 7.65 z m -17.22,36.35 v -32.52 h -26.92 z" /><path
         id="path190"
         style="fill:#0e0f0f;fill-opacity:1;fill-rule:nonzero;stroke:none"
         d="m 3625.73,2749.7 v 3.83 h -11.49 v 40.18 c 0,1.92 0,1.92 -1.91,1.92 -1.91,0 -1.91,0 -1.91,0 l -32.52,-42.1 v -3.83 h 28.7 v -7.65 c 0,-3.83 0,-3.83 -7.66,-3.83 h -1.91 v -3.83 c 0,0 9.57,0 13.39,0 3.82,0 13.39,0 15.31,0 v 3.83 h -3.83 c -7.66,0 -7.66,0 -7.66,3.83 v 7.65 z m -19.13,36.35 v -32.52 h -24.88 z" /><path
         id="path192"
         style="fill:#0e0f0f;fill-opacity:1;fill-rule:nonzero;stroke:none"
         d="m 3721.52,2761.18 c -3.83,3.83 -11.48,11.48 -26.79,11.48 -26.79,0 -49.87,-22.96 -49.87,-49.75 0,-28.82 25,-51.78 49.87,-51.78 24.87,0 38.27,19.14 38.27,36.36 0,0 0,1.91 -1.91,1.91 -1.92,0 -1.92,0 -1.92,-1.91 -1.91,-21.05 -17.22,-30.62 -32.52,-30.62 -11.49,0 -36.36,5.74 -36.36,46.04 0,38.27 24.87,45.93 36.36,45.93 13.39,0 28.7,-11.48 32.52,-32.54 0,-1.91 0,-3.82 1.92,-3.82 1.91,0 1.91,1.91 1.91,3.82 v 32.54 c 0,1.91 0,3.82 -1.91,3.82 0,0 -1.92,0 -1.92,-1.91 l -7.65,-9.57" /><path
         id="path194"
         style="fill:#0e0f0f;fill-opacity:1;fill-rule:nonzero;stroke:none"
         d="m 3788.61,2684.53 c 0,-5.74 5.74,-11.49 11.48,-11.49 1.92,0 11.48,3.83 11.48,13.4 v 7.65 h -3.82 v -7.65 c 0,0 0,-7.65 -5.74,-7.65 -3.83,0 -3.83,5.74 -3.83,9.56 v 22.97 c 0,7.77 0,13.51 -5.74,19.25 -5.75,3.82 -13.4,5.74 -19.13,5.74 -11.49,0 -21.18,-5.74 -21.18,-13.4 0,-5.73 1.92,-7.65 5.86,-7.65 3.83,0 5.75,3.83 5.75,7.65 0,5.74 -5.75,5.74 -5.75,5.74 3.83,3.83 9.57,5.74 15.32,5.74 5.73,0 13.38,-5.74 13.38,-19.13 v -3.94 c -5.74,0 -17.21,0 -26.78,-5.75 -9.69,-3.82 -13.52,-11.48 -13.52,-17.22 0,-11.48 13.52,-15.31 23.09,-15.31 11.47,0 17.21,7.66 19.13,11.49 z m -1.92,9.56 c 0,-13.39 -9.56,-17.22 -15.3,-17.22 -7.65,0 -13.4,3.83 -13.4,11.48 0,9.57 7.66,19.14 28.7,19.14 v -13.4" /><path
         id="path196"
         style="fill:none;stroke:#231f20;stroke-width:10;stroke-linecap:butt;stroke-linejoin:miter;stroke-miterlimit:3.79999995;stroke-dasharray:none;stroke-opacity:1"
         d="m 1782.09,1762.36 v 152.91" /><path
         id="path198"
         style="fill:#231f20;fill-opacity:1;fill-rule:nonzero;stroke:none"
         d="m 1813.9,1856.15 -9.4,-3.41 -22.41,61.55 -22.4,-61.55 -9.39,3.41 31.79,87.37 31.81,-87.37" /><path
         id="path200"
         style="fill:none;stroke:#231f20;stroke-width:10;stroke-linecap:butt;stroke-linejoin:miter;stroke-miterlimit:3.79999995;stroke-dasharray:none;stroke-opacity:1"
         d="M 468.063,566.602 H 4089.13" /><path
         id="path202"
         style="fill:none;stroke:#231f20;stroke-width:7.5;stroke-linecap:butt;stroke-linejoin:miter;stroke-miterlimit:3.79999995;stroke-dasharray:none;stroke-opacity:1"
         d="m 1856.35,2089.02 -464.88,426.64" /><path
         id="path204"
         style="fill:none;stroke:#231f20;stroke-width:10;stroke-linecap:butt;stroke-linejoin:miter;stroke-miterlimit:3.79999995;stroke-dasharray:none;stroke-opacity:1"
         d="M 1782.09,373.289 V 543.762" /><path
         id="path206"
         style="fill:#231f20;fill-opacity:1;fill-rule:nonzero;stroke:none"
         d="m 1813.9,484.648 -9.4,-3.418 -22.41,61.551 -22.4,-61.551 -9.39,3.418 31.79,87.364 31.81,-87.364" /><path
         id="path208"
         style="fill:none;stroke:#231f20;stroke-width:10;stroke-linecap:butt;stroke-linejoin:miter;stroke-miterlimit:3.79999995;stroke-dasharray:none;stroke-opacity:1"
         d="m 2938.14,1317.8 h 260.29" /><path
         id="path210"
         style="fill:none;stroke:#231f20;stroke-width:10;stroke-linecap:butt;stroke-linejoin:miter;stroke-miterlimit:3.79999995;stroke-dasharray:30, 30;stroke-dashoffset:0;stroke-opacity:1"
         d="m 2938.14,1517.8 h 260.29" /><g
         transform="scale(10)"
         id="g212"><text
           id="text216"
           style="font-variant:normal;font-weight:normal;font-size:16px;font-family:'Times New Roman';-inkscape-font-specification:TimesNewRomanPSMT;writing-mode:lr-tb;fill:#231f20;fill-opacity:1;fill-rule:nonzero;stroke:none"
           transform="matrix(1,0,0,-1,328.915,147.079)"><tspan
             id="tspan214"
             y="0"
             x="0 12.448 19.552 26.656 34.655998 39.984001 45.312 49.759998 56.863998 61.312">mean-field</tspan></text>
</g><path
         id="path218"
         style="fill:none;stroke:#231f20;stroke-width:10;stroke-linecap:butt;stroke-linejoin:miter;stroke-miterlimit:3.79999995;stroke-dasharray:none;stroke-opacity:1"
         d="m 1066.63,337.691 v 42.52" /><path
         id="path220"
         style="fill:none;stroke:#231f20;stroke-width:10;stroke-linecap:butt;stroke-linejoin:miter;stroke-miterlimit:3.79999995;stroke-dasharray:none;stroke-opacity:1"
         d="m 1671.43,337.691 v 42.52" /><path
         id="path222"
         style="fill:none;stroke:#231f20;stroke-width:10;stroke-linecap:butt;stroke-linejoin:miter;stroke-miterlimit:3.79999995;stroke-dasharray:none;stroke-opacity:1"
         d="m 2276.23,337.691 v 42.52" /><path
         id="path224"
         style="fill:none;stroke:#231f20;stroke-width:10;stroke-linecap:butt;stroke-linejoin:miter;stroke-miterlimit:3.79999995;stroke-dasharray:none;stroke-opacity:1"
         d="m 2881.03,337.691 v 42.52" /><path
         id="path226"
         style="fill:none;stroke:#231f20;stroke-width:10;stroke-linecap:butt;stroke-linejoin:miter;stroke-miterlimit:3.79999995;stroke-dasharray:none;stroke-opacity:1"
         d="m 3485.83,337.691 v 42.52" /><path
         id="path228"
         style="fill:none;stroke:#231f20;stroke-width:10;stroke-linecap:butt;stroke-linejoin:miter;stroke-miterlimit:3.79999995;stroke-dasharray:none;stroke-opacity:1"
         d="m 464.242,729.52 h 39.934" /><path
         id="path230"
         style="fill:none;stroke:#231f20;stroke-width:10;stroke-linecap:butt;stroke-linejoin:miter;stroke-miterlimit:3.79999995;stroke-dasharray:none;stroke-opacity:1"
         d="m 464.242,976.539 h 39.934" /><path
         id="path232"
         style="fill:none;stroke:#231f20;stroke-width:10;stroke-linecap:butt;stroke-linejoin:miter;stroke-miterlimit:3.79999995;stroke-dasharray:none;stroke-opacity:1"
         d="m 464.242,1223.58 h 39.934" /><path
         id="path234"
         style="fill:none;stroke:#231f20;stroke-width:10;stroke-linecap:butt;stroke-linejoin:miter;stroke-miterlimit:3.79999995;stroke-dasharray:none;stroke-opacity:1"
         d="m 464.242,1470.6 h 39.934" /><g
         transform="scale(10)"
         id="g236"><text
           id="text244"
           style="font-variant:normal;font-weight:normal;font-size:16px;font-family:'Times New Roman';-inkscape-font-specification:TimesNewRomanPSMT;writing-mode:lr-tb;fill:#231f20;fill-opacity:1;fill-rule:nonzero;stroke:none"
           transform="matrix(1,0,0,-1,37.148,19.9141)"><tspan
             id="tspan238"
             y="0"
             x="0 8 12 60.142559 68.142563 72.142563">3.04.0</tspan><tspan
             id="tspan240"
             y="15.007"
             x="171.476 175.476 180.804 186.132 198.58"> [fm]</tspan><tspan
             id="tspan242"
             y="0"
             x="120.2862 128.28619 132.28619 180.42844 188.42844 192.42844 240.57149 248.57149 252.57149 300.71323 308.71323 312.71323 360.85629 368.85629 372.85629">5.06.07.08.09.0</tspan></text>
</g><path
         id="path246"
         style="fill:#0e0f0f;fill-opacity:1;fill-rule:nonzero;stroke:none"
         d="m 2034.7,139.41 c 0,3.531 0,5.301 3.54,5.301 1.77,0 5.3,0 8.84,0 10.62,0 26.54,0 26.54,-14.152 0,-5.418 -3.54,-14.27 -8.84,-19.571 -3.54,-3.547 -10.62,-8.847 -24.77,-8.847 h -15.92 z m 19.46,-39.039 c 14.16,3.539 31.85,12.391 31.85,28.301 0,10.738 -12.39,21.34 -31.85,21.34 h -40.69 c -1.77,0 -3.54,0 -3.54,-3.532 0,-1.769 1.77,-1.769 3.54,-1.769 0,0 3.54,0 5.31,0 3.54,0 3.54,0 3.54,-1.77 0,-1.769 0,-1.769 0,-3.531 l -19.57,-76.1912 c -1.77,-5.3086 -1.77,-7.0782 -12.39,-7.0782 -3.53,0 -3.53,0 -3.53,-3.5312 0,-1.7696 1.76,-1.7696 1.76,-1.7696 3.54,0 14.16,1.7696 17.81,1.7696 3.53,0 14.15,-1.7696 17.69,-1.7696 1.76,0 3.53,0 3.53,3.5391 0,1.7617 -1.77,1.7617 -3.53,1.7617 -5.31,0 -10.62,0 -10.62,1.7696 0,1.7695 1.77,1.7695 1.77,3.539 l 8.85,37.1524 h 17.69 c 12.38,0 14.15,-7.0821 14.15,-12.3828 0,-1.7774 0,-7.0782 -1.77,-10.6094 0,-3.5508 -1.77,-8.8477 -1.77,-12.3906 0,-14.1602 17.69,-14.1602 19.46,-14.1602 12.38,0 15.92,14.1602 15.92,15.9297 0,1.7734 -1.76,1.7734 -1.76,1.7734 0,0 0,-1.7734 -1.78,-1.7734 -3.53,-10.6094 -8.84,-14.1485 -12.38,-14.1485 -5.31,0 -5.31,3.5391 -5.31,8.8399 0,5.3086 0,12.3789 1.78,17.6914 0,1.7695 0,3.5391 0,5.3086 0,12.3789 -10.62,15.9219 -14.16,17.6913" /><path
         id="path248"
         style="fill:#0e0f0f;fill-opacity:1;fill-rule:nonzero;stroke:none"
         d="m 3363.23,1316.7 c 0,21.16 -11.49,28.82 -22.96,28.82 -19.14,0 -38.27,-19.13 -38.27,-40.3 0,-13.39 9.57,-22.96 22.96,-22.96 15.31,0 26.78,9.57 30.61,11.48 1.92,-5.74 5.74,-11.48 13.4,-11.48 5.74,0 11.47,7.65 11.47,9.57 0,1.91 -1.9,1.91 -1.9,1.91 -1.91,0 -1.91,0 -1.91,-1.91 -1.92,-3.83 -5.75,-5.74 -7.66,-5.74 -5.74,0 -5.74,11.47 -5.74,15.3 0,1.91 0,1.91 1.91,3.83 1.92,1.91 5.74,7.65 9.57,13.39 3.83,9.69 7.65,17.34 7.65,19.25 0,0 0,0 -1.92,0 -1.9,0 -1.9,0 -3.81,-1.91 0,-5.73 -3.83,-15.42 -13.4,-26.91 z m -9.57,-19.14 c -3.83,-1.9 -13.39,-11.47 -28.7,-11.47 -7.65,0 -13.39,5.74 -13.39,15.3 0,5.74 3.83,19.14 9.56,28.83 3.83,5.73 9.57,11.47 19.14,11.47 9.56,0 11.47,-7.66 13.39,-17.22 0,-5.86 0,-19.25 0,-26.91" /><path
         id="path250"
         style="fill:#0e0f0f;fill-opacity:1;fill-rule:nonzero;stroke:none"
         d="m 3502.51,1314.79 c 1.92,0 5.74,0 5.74,3.82 0,3.83 -3.82,3.83 -5.74,3.83 h -40.3 v 38.39 c 0,3.82 0,5.73 -1.91,5.73 -3.83,0 -3.83,-3.82 -3.83,-5.73 v -38.39 h -38.27 c -3.83,0 -5.74,0 -5.74,-3.83 0,-3.82 1.91,-3.82 5.74,-3.82 h 38.27 v -38.27 c 0,-1.92 0,-5.75 3.83,-5.75 1.91,0 1.91,3.83 1.91,5.75 v 38.27 h 40.3" /><path
         id="path252"
         style="fill:#0e0f0f;fill-opacity:1;fill-rule:nonzero;stroke:none"
         d="m 3568.33,1358.92 v 3.83 h -9.58 v 40.17 c 0,1.92 0,1.92 -1.91,1.92 -1.91,0 -1.91,0 -3.83,0 l -32.64,-42.09 v -3.83 h 28.7 v -7.66 c 0,-3.83 0,-3.83 -7.65,-3.83 h -1.91 v -3.82 c 1.91,0 9.56,0 15.42,0 3.82,0 11.48,0 13.4,0 v 3.82 h -1.92 c -7.66,0 -7.66,0 -7.66,3.83 v 7.66 z m -17.22,36.35 v -32.52 h -26.92 z" /><path
         id="path254"
         style="fill:#0e0f0f;fill-opacity:1;fill-rule:nonzero;stroke:none"
         d="m 3625.73,1358.92 v 3.83 h -11.49 v 40.17 c 0,1.92 0,1.92 -1.91,1.92 -1.91,0 -1.91,0 -1.91,0 l -32.52,-42.09 v -3.83 h 28.7 v -7.66 c 0,-3.83 0,-3.83 -7.66,-3.83 h -1.91 v -3.82 c 0,0 9.57,0 13.39,0 3.82,0 13.39,0 15.31,0 v 3.82 h -3.83 c -7.66,0 -7.66,0 -7.66,3.83 v 7.66 z m -19.13,36.35 v -32.52 h -24.88 z" /><path
         id="path256"
         style="fill:#0e0f0f;fill-opacity:1;fill-rule:nonzero;stroke:none"
         d="m 3721.52,1370.39 c -3.83,3.83 -11.48,11.49 -26.79,11.49 -26.79,0 -49.87,-22.96 -49.87,-49.75 0,-28.83 25,-51.79 49.87,-51.79 24.87,0 38.27,19.13 38.27,36.36 0,0 0,1.91 -1.91,1.91 -1.92,0 -1.92,0 -1.92,-1.91 -1.91,-21.04 -17.22,-30.61 -32.52,-30.61 -11.49,0 -36.36,5.74 -36.36,46.04 0,38.26 24.87,45.92 36.36,45.92 13.39,0 28.7,-11.49 32.52,-32.53 0,-1.91 0,-3.83 1.92,-3.83 1.91,0 1.91,1.92 1.91,3.83 v 32.53 c 0,1.91 0,3.83 -1.91,3.83 0,0 -1.92,0 -1.92,-1.92 l -7.65,-9.57" /><path
         id="path258"
         style="fill:#0e0f0f;fill-opacity:1;fill-rule:nonzero;stroke:none"
         d="m 3788.61,1293.74 c 0,-5.74 5.74,-11.48 11.48,-11.48 1.92,0 11.48,3.83 11.48,13.4 v 7.64 h -3.82 v -7.64 c 0,0 0,-7.66 -5.74,-7.66 -3.83,0 -3.83,5.74 -3.83,9.56 v 22.97 c 0,7.77 0,13.5 -5.74,19.25 -5.75,3.83 -13.4,5.74 -19.13,5.74 -11.49,0 -21.18,-5.74 -21.18,-13.39 0,-5.74 1.92,-7.66 5.86,-7.66 3.83,0 5.75,3.83 5.75,7.66 0,5.73 -5.75,5.73 -5.75,5.73 3.83,3.83 9.57,5.75 15.32,5.75 5.73,0 13.38,-5.75 13.38,-19.14 v -3.94 c -5.74,0 -17.21,0 -26.78,-5.74 -9.69,-3.83 -13.52,-11.49 -13.52,-17.23 0,-11.47 13.52,-15.3 23.09,-15.3 11.47,0 17.21,7.65 19.13,11.48 z m -1.92,9.56 c 0,-13.39 -9.56,-17.21 -15.3,-17.21 -7.65,0 -13.4,3.82 -13.4,11.47 0,9.57 7.66,19.14 28.7,19.14 v -13.4" /><path
         id="path260"
         style="fill:none;stroke:#231f20;stroke-width:10;stroke-linecap:square;stroke-linejoin:miter;stroke-miterlimit:4;stroke-dasharray:none;stroke-opacity:1"
         d="M 461.832,1717.62 H 4089.13 M 461.832,337.691 H 4089.13 m 0,0 V 1717.62 M 461.832,337.691 V 1717.62" /><path
         id="path262"
         style="fill:none;stroke:#0e0f0f;stroke-width:10;stroke-linecap:butt;stroke-linejoin:miter;stroke-miterlimit:3.79999995;stroke-dasharray:none;stroke-opacity:1"
         d="m 468.063,337.691 h 36.656" /><path
         id="path264"
         style="fill:none;stroke:#0e0f0f;stroke-width:10;stroke-linecap:butt;stroke-linejoin:miter;stroke-miterlimit:3.79999995;stroke-dasharray:none;stroke-opacity:1"
         d="m 4089.13,337.691 h -36.71" /><path
         id="path266"
         style="fill:none;stroke:#0e0f0f;stroke-width:10;stroke-linecap:butt;stroke-linejoin:miter;stroke-miterlimit:3.79999995;stroke-dasharray:none;stroke-opacity:1"
         d="m 468.063,566.602 h 36.656" /><path
         id="path268"
         style="fill:none;stroke:#0e0f0f;stroke-width:10;stroke-linecap:butt;stroke-linejoin:miter;stroke-miterlimit:3.79999995;stroke-dasharray:none;stroke-opacity:1"
         d="m 4089.13,566.602 h -36.71" /><path
         id="path270"
         style="fill:none;stroke:#0e0f0f;stroke-width:10;stroke-linecap:butt;stroke-linejoin:miter;stroke-miterlimit:3.79999995;stroke-dasharray:none;stroke-opacity:1"
         d="m 468.063,795.531 h 36.656" /><path
         id="path272"
         style="fill:none;stroke:#0e0f0f;stroke-width:10;stroke-linecap:butt;stroke-linejoin:miter;stroke-miterlimit:3.79999995;stroke-dasharray:none;stroke-opacity:1"
         d="m 4089.13,795.531 h -36.71" /><path
         id="path274"
         style="fill:none;stroke:#0e0f0f;stroke-width:10;stroke-linecap:butt;stroke-linejoin:miter;stroke-miterlimit:3.79999995;stroke-dasharray:none;stroke-opacity:1"
         d="m 468.063,1024.42 h 36.656" /><path
         id="path276"
         style="fill:none;stroke:#0e0f0f;stroke-width:10;stroke-linecap:butt;stroke-linejoin:miter;stroke-miterlimit:3.79999995;stroke-dasharray:none;stroke-opacity:1"
         d="m 4089.13,1024.42 h -36.71" /><path
         id="path278"
         style="fill:none;stroke:#0e0f0f;stroke-width:10;stroke-linecap:butt;stroke-linejoin:miter;stroke-miterlimit:3.79999995;stroke-dasharray:none;stroke-opacity:1"
         d="m 468.063,1253.34 h 36.656" /><path
         id="path280"
         style="fill:none;stroke:#0e0f0f;stroke-width:10;stroke-linecap:butt;stroke-linejoin:miter;stroke-miterlimit:3.79999995;stroke-dasharray:none;stroke-opacity:1"
         d="m 4089.13,1253.34 h -36.71" /><path
         id="path282"
         style="fill:none;stroke:#0e0f0f;stroke-width:10;stroke-linecap:butt;stroke-linejoin:miter;stroke-miterlimit:3.79999995;stroke-dasharray:none;stroke-opacity:1"
         d="m 468.063,1482.23 h 36.656" /><path
         id="path284"
         style="fill:none;stroke:#0e0f0f;stroke-width:10;stroke-linecap:butt;stroke-linejoin:miter;stroke-miterlimit:3.79999995;stroke-dasharray:none;stroke-opacity:1"
         d="m 4089.13,1482.23 h -36.71" /><path
         id="path286"
         style="fill:none;stroke:#0e0f0f;stroke-width:10;stroke-linecap:butt;stroke-linejoin:miter;stroke-miterlimit:3.79999995;stroke-dasharray:none;stroke-opacity:1"
         d="m 468.063,1711.14 h 36.656" /><path
         id="path288"
         style="fill:none;stroke:#0e0f0f;stroke-width:10;stroke-linecap:butt;stroke-linejoin:miter;stroke-miterlimit:3.79999995;stroke-dasharray:none;stroke-opacity:1"
         d="m 4089.13,1711.14 h -36.71" /><path
         id="path290"
         style="fill:none;stroke:#0e0f0f;stroke-width:10;stroke-linecap:butt;stroke-linejoin:miter;stroke-miterlimit:3.79999995;stroke-dasharray:none;stroke-opacity:1"
         d="M 468.063,337.691 V 360.34" /><path
         id="path292"
         style="fill:none;stroke:#0e0f0f;stroke-width:10;stroke-linecap:butt;stroke-linejoin:miter;stroke-miterlimit:3.79999995;stroke-dasharray:none;stroke-opacity:1"
         d="m 468.063,1711.14 v -22.62" /><path
         id="path294"
         style="fill:none;stroke:#0e0f0f;stroke-width:10;stroke-linecap:butt;stroke-linejoin:miter;stroke-miterlimit:3.79999995;stroke-dasharray:none;stroke-opacity:1"
         d="M 1071.73,337.691 V 360.34" /><path
         id="path296"
         style="fill:none;stroke:#0e0f0f;stroke-width:10;stroke-linecap:butt;stroke-linejoin:miter;stroke-miterlimit:3.79999995;stroke-dasharray:none;stroke-opacity:1"
         d="m 1071.73,1711.14 v -22.62" /><path
         id="path298"
         style="fill:none;stroke:#0e0f0f;stroke-width:10;stroke-linecap:butt;stroke-linejoin:miter;stroke-miterlimit:3.79999995;stroke-dasharray:none;stroke-opacity:1"
         d="M 1674.87,337.691 V 360.34" /><path
         id="path300"
         style="fill:none;stroke:#0e0f0f;stroke-width:10;stroke-linecap:butt;stroke-linejoin:miter;stroke-miterlimit:3.79999995;stroke-dasharray:none;stroke-opacity:1"
         d="m 1674.87,1711.14 v -22.62" /><path
         id="path302"
         style="fill:none;stroke:#0e0f0f;stroke-width:10;stroke-linecap:butt;stroke-linejoin:miter;stroke-miterlimit:3.79999995;stroke-dasharray:none;stroke-opacity:1"
         d="M 2278.6,337.691 V 360.34" /><path
         id="path304"
         style="fill:none;stroke:#0e0f0f;stroke-width:10;stroke-linecap:butt;stroke-linejoin:miter;stroke-miterlimit:3.79999995;stroke-dasharray:none;stroke-opacity:1"
         d="m 2278.6,1711.14 v -22.62" /><path
         id="path306"
         style="fill:none;stroke:#0e0f0f;stroke-width:10;stroke-linecap:butt;stroke-linejoin:miter;stroke-miterlimit:3.79999995;stroke-dasharray:none;stroke-opacity:1"
         d="M 2882.27,337.691 V 360.34" /><path
         id="path308"
         style="fill:none;stroke:#0e0f0f;stroke-width:10;stroke-linecap:butt;stroke-linejoin:miter;stroke-miterlimit:3.79999995;stroke-dasharray:none;stroke-opacity:1"
         d="m 2882.27,1711.14 v -22.62" /><path
         id="path310"
         style="fill:none;stroke:#0e0f0f;stroke-width:10;stroke-linecap:butt;stroke-linejoin:miter;stroke-miterlimit:3.79999995;stroke-dasharray:none;stroke-opacity:1"
         d="M 3485.41,337.691 V 360.34" /><path
         id="path312"
         style="fill:none;stroke:#0e0f0f;stroke-width:10;stroke-linecap:butt;stroke-linejoin:miter;stroke-miterlimit:3.79999995;stroke-dasharray:none;stroke-opacity:1"
         d="m 3485.41,1711.14 v -22.62" /><path
         id="path314"
         style="fill:none;stroke:#0e0f0f;stroke-width:10;stroke-linecap:butt;stroke-linejoin:miter;stroke-miterlimit:3.79999995;stroke-dasharray:none;stroke-opacity:1"
         d="M 4089.13,337.691 V 360.34" /><path
         id="path316"
         style="fill:none;stroke:#0e0f0f;stroke-width:10;stroke-linecap:butt;stroke-linejoin:miter;stroke-miterlimit:3.79999995;stroke-dasharray:none;stroke-opacity:1"
         d="m 4089.13,1711.14 v -22.62" /><path
         id="path318"
         style="fill:none;stroke:#0e0f0f;stroke-width:10;stroke-linecap:butt;stroke-linejoin:miter;stroke-miterlimit:3.79999995;stroke-dasharray:none;stroke-opacity:1"
         d="M 468.063,1711.14 H 4089.13 V 337.691 H 468.063 Z" /><path
         id="path320"
         style="fill:none;stroke:#231f20;stroke-width:10;stroke-linecap:butt;stroke-linejoin:miter;stroke-miterlimit:3.79999995;stroke-dasharray:none;stroke-opacity:1"
         d="m 468.063,555.691 h 475.593 l 36.715,1.829 h 182.789 l 36.65,-1.829 h 36.12 l 36.65,-1.832 36.71,-1.828 h 36.66 l 36.71,-1.652 h 109.42 l 36.66,3.48 36.7,1.832 36.66,5.309 36.71,3.66 36.06,5.301 36.71,7.328 36.65,5.301 36.66,7.14 36.71,3.661 36.06,5.3 36.71,5.489 36.65,3.492 36.71,1.82 36.65,1.828 h 36.66 l 36.11,-1.828 h 36.66 l 36.71,-3.66 36.65,-3.473 36.71,-3.668 36.66,-3.472 36.12,-3.668 36.65,-3.653 36.66,-3.476 36.7,-3.66 36.66,-3.473 36.7,-3.668 36.07,-1.82 36.71,-3.492 73.31,-3.649 36.71,-1.84 36.65,-1.82 36.11,-1.648 h 36.66 l 36.71,-1.832 h 73.31 l 36.11,-1.829 h 1170.75" /><path
         id="path322"
         style="fill:none;stroke:#231f20;stroke-width:10;stroke-linecap:butt;stroke-linejoin:miter;stroke-miterlimit:3.79999995;stroke-dasharray:none;stroke-opacity:1"
         d="m 468.063,566.602 36.656,0.367 h 182.785 l 36.711,-0.367 h 36.652 l 36.121,-0.36 36.649,-0.371 36.715,0.371 h 36.652 l 36.652,0.36 36.715,0.75 36.059,0.32 36.71,0.726 36.65,0.731 36.71,0.711 h 36.66 l 36.65,-0.711 36.12,-0.731 36.65,-1.046 36.71,-1.11 36.66,-1.433 36.71,-1.797 36.65,-2.16 36.11,-1.063 h 36.66 l 36.66,0.691 36.7,1.469 36.66,2.492 36.71,3.957 36.06,5.762 36.71,6.82 36.65,7.559 36.66,7.883 36.71,8.289 36.06,8.25 36.71,9.348 36.65,7.55 36.71,5.762 36.65,5.02 36.66,3.961 36.11,2.859 36.66,1.43 36.71,-0.36 36.65,-1.441 36.71,-2.86 36.66,-2.89 36.12,-3.93 36.65,-4.691 36.66,-5.379 36.7,-5.399 36.66,-5.019 36.7,-5.391 36.07,-5.402 36.71,-4.649 73.31,-8.66 36.71,-3.922 36.65,-3.257 36.11,-2.86 36.66,-2.871 36.71,-2.148 73.31,-3.602 36.11,-1.43 36.65,-1.101 36.72,-1.059 36.65,-0.73 36.71,-0.711 36.65,-0.359 36.13,-0.731 36.65,-0.367 h 36.65 l 36.72,-0.32 h 36.65 l 36.7,-0.383 h 109.43 l 36.65,-0.367 h 621.79" /><path
         id="path324"
         style="fill:none;stroke:#231f20;stroke-width:10;stroke-linecap:butt;stroke-linejoin:miter;stroke-miterlimit:3.79999995;stroke-dasharray:none;stroke-opacity:1"
         d="m 468.063,566.602 36.656,0.367 h 109.48 l 36.653,0.383 36.652,-0.383 h 36.711 l 36.652,-0.367 36.121,-0.36 36.649,-0.371 h 36.715 l 36.652,0.371 h 36.652 l 36.715,0.36 36.059,0.75 36.71,0.687 36.65,1.09 36.71,1.07 36.66,0.371 36.65,-0.371 36.12,-0.359 36.65,-1.07 36.71,-1.418 36.66,-1.801 36.71,-3.27 36.65,-3.601 36.11,-2.489 36.66,-1.101 36.66,-0.692 36.7,-0.367 36.66,1.43 36.71,4.328 36.06,7.563 36.71,8.968 36.65,11.11 36.66,12.582 36.71,14.039 36.06,16.179 36.71,17.961 36.65,16.18 36.71,14 36.65,13.641 36.66,13.308 36.11,11.16 36.66,7.879 36.71,5.391 36.65,2.891 36.71,1.058 36.66,-1.418 36.12,-3.242 36.65,-5.75 36.66,-7.18 36.7,-7.918 36.66,-8.261 36.7,-9.711 36.07,-10.778 36.71,-9.679 36.65,-9.364 36.66,-9.707 36.71,-9.351 36.65,-8.621 36.11,-7.879 36.66,-7.192 36.71,-6.859 36.65,-6.078 36.66,-5.391 36.11,-4.699 36.65,-4.289 36.72,-3.59 36.65,-3.23 36.71,-2.532 36.65,-2.531 36.13,-1.801 36.65,-1.789 36.65,-1.429 36.72,-1.071 36.65,-1.097 36.7,-0.692 36.07,-0.73 36.71,-0.711 73.3,-0.731 36.72,-0.359 36.65,-0.367 h 36.11 l 36.66,-0.32 h 36.71 l 36.65,-0.383 h 182.79 l 36.71,-0.367 h 182.79" /><path
         id="path326"
         style="fill:none;stroke:#231f20;stroke-width:20;stroke-linecap:butt;stroke-linejoin:miter;stroke-miterlimit:3.79999995;stroke-dasharray:none;stroke-opacity:1"
         d="m 464.242,566.602 h 36.653 l 36.71,0.367 h 36.063 l 36.707,0.383 h 36.656 l 36.653,0.32 h 36.711 l 36.652,-0.32 36.117,-0.75 36.656,-0.36 36.707,-0.371 h 36.657 l 36.652,-0.32 36.711,0.32 36.063,0.371 36.71,1.43 36.65,1.789 36.71,1.801 36.66,1.097 36.65,0.7 36.11,0.73 h 36.66 l 36.71,-1.059 36.65,-2.89 36.71,-4.66 36.66,-5.758 36.12,-5.391 73.3,-10.043 36.71,-5.058 36.66,-2.86 36.71,2.532 36.05,8.25 36.72,10.769 36.65,15.109 36.65,21.2 36.71,26.582 36.06,31.968 36.72,37.379 36.65,37.723 36.71,36.668 36.65,39.16 36.66,40.629 36.11,38.063 36.66,32.718 36.71,27.309 36.65,25.891 36.71,21.191 36.65,12.949 36.13,7.19 36.65,2.49 36.65,-2.49 36.71,-6.86 36.66,-10.779 36.71,-15.813 36.05,-19.386 36.72,-19.77 36.65,-20.832 36.65,-23.359 36.71,-24.449 36.66,-24.43 36.11,-22.981 36.65,-22.671 36.72,-23.348 36.65,-21.203 36.65,-19.028 36.13,-18.332 36.65,-17.269 36.7,-15.442 36.66,-14.367 36.71,-12.582 36.65,-11.519 36.12,-10.418 36.66,-9.34 36.65,-7.883 36.71,-6.828 36.65,-6.481 36.72,-5.39 36.05,-4.301 36.71,-4.328 36.66,-3.59 36.65,-2.859 36.71,-2.532 36.65,-2.531 36.12,-1.801 36.65,-1.418 36.71,-1.441 36.66,-1.059 36.65,-1.101 36.71,-0.699 36.07,-0.731 36.71,-0.738 36.65,-0.332 36.7,-0.731 36.66,-0.359 h 36.66 l 36.11,-0.367 36.66,-0.32 h 36.71" /><path
         id="path328"
         style="fill:none;stroke:#231f20;stroke-width:10;stroke-linecap:butt;stroke-linejoin:miter;stroke-miterlimit:3.79999995;stroke-dasharray:none;stroke-opacity:1"
         d="m 468.063,566.969 36.656,-0.367 h 36.707 l 36.058,0.367 36.715,0.383 36.653,0.32 36.652,0.726 36.711,0.731 36.652,0.332 36.121,0.738 36.649,0.371 h 36.715 l 36.652,-0.73 36.652,-1.07 36.715,-0.731 36.059,-0.367 h 73.36 l 36.71,0.367 36.66,2.16 36.65,3.231 36.12,4.332 36.65,4.277 36.71,3.973 36.66,2.527 36.71,2.492 36.65,1.789 36.11,-0.691 36.66,-5.027 36.66,-6.852 36.7,-9.32 36.66,-10.078 36.71,-7.192 36.06,-5.762 36.71,-6.437 36.65,-1.441 36.66,8.25 36.71,18.699 36.06,26.961 36.71,33.41 36.65,43.48 36.71,55.7 36.65,65.421 36.66,73.297 36.11,77.953 36.66,77.999 36.71,79.06 36.65,86.25 36.71,82.64 36.66,68.28 36.12,61.46 36.65,57.86 36.66,50.31 36.7,39.16 36.66,25.52 36.7,15.44 36.07,6.12 36.71,-2.53 36.65,-11.84 36.66,-21.56 36.71,-29.49 36.65,-34.5 36.11,-37.73 36.66,-43.49 36.71,-49.58 36.65,-48.14 36.66,-46.71 36.11,-49.62 36.65,-50.31 36.72,-48.51 36.65,-46.35 36.71,-44.55 36.65,-43.118 36.13,-40.602 36.65,-37.398 36.65,-35.203 36.72,-32.707 36.65,-30.18 36.7,-26.953 36.07,-24.789 36.71,-22.989 36.65,-20.492 36.65,-17.969 36.72,-16.539 36.65,-14.742 36.11,-12.91 36.66,-11.508 36.71,-10.051 36.65,-8.988 36.65,-7.922 36.72,-6.808 36.05,-5.77 36.71,-5.023 36.66,-4.688 36.71,-3.929 36.65,-3.262 36.65,-2.488 36.13,-2.532 36.65,-2.172 36.71,-1.789" /><path
         id="path330"
         style="fill:none;stroke:#231f20;stroke-width:10;stroke-linecap:butt;stroke-linejoin:miter;stroke-miterlimit:3.79999995;stroke-dasharray:none;stroke-opacity:1"
         d="m 468.43,555.859 19.898,1.993" /><path
         id="path332"
         style="fill:none;stroke:#231f20;stroke-width:10;stroke-linecap:butt;stroke-linejoin:miter;stroke-miterlimit:3.79999995;stroke-dasharray:40.2825, 40.2825;stroke-dashoffset:0;stroke-opacity:1"
         d="m 528.531,559.52 h 415.492 l 36.707,3.671 36.06,-3.671 h 110.08 l 36.65,-3.661 h 219.5 l 36.65,3.661 36.12,3.671 h 36.66 l 36.65,3.68 36.71,3.309 36.65,7.34 36.71,3.671 h 36.06 l 36.71,3.668 36.66,3.321 h 182.79 l 36.71,-3.321 h 36.65 l 36.65,-3.668 36.12,-3.671 h 36.65 l 36.71,-3.668 36.65,-3.672 h 36.72 l 36.65,-3.309 h 36.12 l 36.66,-3.68 h 73.36 l 36.65,-3.671 h 1605.66" /><path
         id="path334"
         style="fill:none;stroke:#231f20;stroke-width:10;stroke-linecap:butt;stroke-linejoin:miter;stroke-miterlimit:3.79999995;stroke-dasharray:none;stroke-opacity:1"
         d="m 4069.5,559.52 h 20" /><path
         id="path336"
         style="fill:none;stroke:#0e0f0f;stroke-width:10;stroke-linecap:butt;stroke-linejoin:miter;stroke-miterlimit:3.79999995;stroke-dasharray:none;stroke-opacity:1"
         d="M 468.063,1711.14 H 4089.13 V 337.691 H 468.063 Z" /><path
         id="path338"
         style="fill:none;stroke:#231f20;stroke-width:5;stroke-linecap:butt;stroke-linejoin:miter;stroke-miterlimit:3.79999995;stroke-dasharray:none;stroke-opacity:1"
         d="m 1805.82,1014.6 56.69,56.7" /><path
         id="path340"
         style="fill:none;stroke:#231f20;stroke-width:5;stroke-linecap:butt;stroke-linejoin:miter;stroke-miterlimit:3.79999995;stroke-dasharray:none;stroke-opacity:1"
         d="m 1862.51,1014.6 -56.69,56.7" /><g
         transform="scale(10)"
         id="g342"><text
           id="text346"
           style="font-variant:normal;font-weight:normal;font-size:14px;font-family:'Times New Roman';-inkscape-font-specification:TimesNewRomanPSMT;writing-mode:lr-tb;fill:#231f20;fill-opacity:1;fill-rule:nonzero;stroke:none"
           transform="matrix(1,0,0,-1,214.362,42.2172)"><tspan
             id="tspan344"
             y="0"
             x="0 10.892 17.108 23.323999 30.323999 34.986 39.647999 43.540001 49.756001 53.647999 60.647999 74.648003 81.648003">mean-field 10</tspan></text>
</g><path
         id="path348"
         style="fill:none;stroke:#231f20;stroke-width:5;stroke-linecap:butt;stroke-linejoin:miter;stroke-miterlimit:3.79999995;stroke-dasharray:none;stroke-opacity:1"
         d="m 2803.13,429.789 56.69,56.691" /><path
         id="path350"
         style="fill:none;stroke:#231f20;stroke-width:5;stroke-linecap:butt;stroke-linejoin:miter;stroke-miterlimit:3.79999995;stroke-dasharray:none;stroke-opacity:1"
         d="m 2859.82,429.789 -56.69,56.691" /><path
         id="path352"
         style="fill:none;stroke:#231f20;stroke-width:7.5;stroke-linecap:butt;stroke-linejoin:miter;stroke-miterlimit:3.79999995;stroke-dasharray:none;stroke-opacity:1"
         d="M 1977.31,588.18 2118.85,435.582" /><path
         id="path354"
         style="fill:none;stroke:#231f20;stroke-width:7.5;stroke-linecap:butt;stroke-linejoin:miter;stroke-miterlimit:3.79999995;stroke-dasharray:none;stroke-opacity:1"
         d="m 2296.66,637.41 127.08,136.539" /><path
         id="path356"
         style="fill:none;stroke:#231f20;stroke-width:10;stroke-linecap:butt;stroke-linejoin:miter;stroke-miterlimit:3.79999995;stroke-dasharray:none;stroke-opacity:1"
         d="m 464.242,1903.76 36.711,9.4 36.766,6.11 36.164,2.91 h 36.707 l 36.769,-2.53 36.707,-4.32 36.77,-5.79 36.16,-6.85 36.711,-6.89 36.766,-6.86 36.769,-5.41 36.707,-3.98 36.77,-1.81 36.16,0.37 36.711,3.24 36.77,5.79 36.71,9.03 36.76,11.94 36.17,14.07 36.7,16.63 36.77,18.76 36.77,20.23 36.71,20.93 36.16,22.04 36.77,22.03 36.71,21.31 36.76,20.96 36.71,19.14 36.17,18.05 36.76,15.88 36.71,13.75 36.77,11.17 36.77,8.69 36.1,6.49 36.77,3.61 36.77,1.44 36.7,-0.7 36.77,-2.91 36.71,-5.05 36.16,-6.49 36.77,-7.96 36.71,-9.39 36.77,-10.47 36.77,-10.84 36.1,-11.57 73.53,-23.81 36.71,-11.56 36.77,-11.91 36.16,-11.2 36.71,-10.84 36.77,-10.46 36.71,-9.77 36.77,-9.03 36.16,-8.29 36.71,-7.96 36.76,-6.86 36.77,-6.52 36.71,-5.75 36.16,-5.42 36.77,-4.34 36.71,-4.35 36.77,-3.61 36.71,-3.25 36.76,-2.5 36.17,-2.55 36.7,-1.8 36.77,-1.81 36.77,-1.44 36.71,-1.43 36.16,-1.11 36.77,-0.7 36.71,-1.1 36.77,-0.37 36.7,-0.7 36.17,-0.37 36.76,-0.37 36.71,-0.37 h 36.77 l 36.77,-0.33 h 36.1 l 36.77,-0.37 h 110.24 l 36.17,-0.37 h 476.47" /><path
         id="path358"
         style="fill:none;stroke:#231f20;stroke-width:10;stroke-linecap:butt;stroke-linejoin:miter;stroke-miterlimit:3.79999995;stroke-dasharray:none;stroke-opacity:1"
         d="m 464.242,1963.35 36.711,9.77 36.766,5.41 36.164,1.07 36.707,-3.61 36.769,-7.96 36.707,-11.53 36.77,-14.82 36.16,-17.69 36.711,-18.79 36.766,-19.87 36.769,-18.76 36.707,-17.72 36.77,-14.78 36.16,-11.57 36.711,-6.85 36.77,-1.81 36.71,3.97 36.76,9.74 36.17,15.55 36.7,21.67 36.77,27.09 36.77,32.5 36.71,36.82 36.16,40.46 36.77,43.34 36.71,45.51 36.76,46.22 36.71,46.21 36.17,45.15 36.76,43.34 36.71,40.46 36.77,37.18 36.77,33.25 36.1,28.52 36.77,23.84 36.77,18.8 36.7,13.34 36.77,8.33 36.71,3.61 36.16,-1.47 36.77,-6.12 36.71,-9.77 36.77,-13.71 36.77,-16.62 36.1,-19.49 36.77,-21.67 36.76,-23.48 36.71,-24.58 36.77,-25.28 36.16,-25.98 36.71,-25.65 36.77,-25.65 36.71,-24.91 36.77,-24.22 36.16,-23.1 36.71,-22.04 36.76,-20.57 36.77,-19.49 36.71,-17.73 36.16,-16.58 36.77,-15.18 36.71,-13.71 36.77,-12.31 36.71,-11.17 36.76,-9.76 36.17,-9.04 36.7,-7.58 36.77,-6.86 36.77,-6.16 36.71,-5.04 36.16,-4.68 36.77,-3.62 36.71,-3.24 36.77,-2.91 36.7,-2.51 36.17,-1.8 36.76,-1.81 36.71,-1.47 73.54,-2.14 36.1,-0.74 36.77,-0.73 36.77,-0.7 36.71,-0.37 36.76,-0.37 36.17,-0.37 h 36.7 l 36.77,-0.33 h 36.71 l 36.77,-0.37 h 109.64 l 36.76,-0.37 h 183.12" /><path
         id="path360"
         style="fill:none;stroke:#231f20;stroke-width:10;stroke-linecap:butt;stroke-linejoin:miter;stroke-miterlimit:3.79999995;stroke-dasharray:none;stroke-opacity:1"
         d="m 464.242,1957.2 36.711,9.76 36.766,6.86 36.164,3.98 h 36.707 l 36.769,-3.61 36.707,-6.49 36.77,-10.13 36.16,-13.01 36.711,-14.78 36.766,-16.62 36.769,-16.99 36.707,-16.62 36.77,-15.89 36.16,-13.34 36.711,-10.5 36.77,-6.86 36.71,-1.81 36.76,2.92 36.17,8.66 36.7,14.08 36.77,20.23 36.77,25.98 36.71,31.81 36.16,36.48 36.77,41.17 36.71,44.41 36.76,47.68 36.71,49.46 36.17,50.56 36.76,50.93 36.71,49.5 36.77,48.02 36.77,45.51 36.1,41.9 36.77,37.92 36.77,33.21 36.7,28.19 36.77,22.74 36.71,17.36 36.16,11.9 36.77,6.16 36.71,1.06 36.77,-3.98 36.77,-9.03 36.1,-13 36.77,-16.96 36.76,-20.6 36.71,-23.1 36.77,-25.65 36.16,-27.79 36.71,-28.89 36.77,-29.64 36.71,-30.32 36.77,-30.33 36.16,-30 36.71,-29.59 36.76,-28.56 36.77,-27.42 36.71,-26.02 36.16,-24.92 36.77,-23.47 36.71,-21.67 36.77,-20.24 36.71,-18.42 36.76,-16.96 36.17,-15.54 36.7,-14.09 36.77,-12.27 36.77,-11.57 36.71,-9.73 36.16,-9.03 36.77,-7.96 36.71,-6.85 36.77,-5.79 36.7,-5.41 36.17,-4.35 36.76,-3.94 36.71,-3.29 36.77,-2.87 36.77,-2.54 36.1,-2.14 36.77,-1.47 36.77,-1.44 36.71,-1.44 36.76,-1.07 36.17,-0.74 36.7,-0.73 36.77,-0.34 36.71,-0.73 73.54,-0.74 h 36.1 l 36.77,-0.33 h 36.76 l 36.71,-0.37 h 146.41" /><path
         id="path362"
         style="fill:none;stroke:#231f20;stroke-width:20;stroke-linecap:butt;stroke-linejoin:miter;stroke-miterlimit:3.79999995;stroke-dasharray:none;stroke-opacity:1"
         d="m 464.242,1934.09 36.711,12.27 36.766,10.5 36.164,8.3 36.707,5.41 36.769,2.18 36.707,-1.11 36.77,-4.31 36.16,-7.59 36.711,-10.1 36.766,-13.01 36.769,-14.45 36.707,-16.25 36.77,-16.25 36.16,-15.88 36.711,-14.82 36.77,-12.27 36.71,-9.03 36.76,-5.41 36.17,-0.37 36.7,5.04 36.77,11.21 36.77,16.95 36.71,23.84 36.16,30.33 36.77,36.49 36.71,42.27 36.76,47.65 36.71,52.37 36.17,56.34 36.76,59.23 36.71,61.4 36.77,62.5 36.77,62.1 36.1,60.69 36.77,58.86 36.77,55.98 36.7,51.67 36.77,46.95 36.71,41.86 36.16,35.79 36.77,29.59 36.71,23.11 36.77,16.25 36.77,9.77 36.1,3.24 36.77,-2.88 36.76,-8.66 36.71,-14.44 36.77,-19.17 36.16,-23.84 36.71,-27.79 36.77,-31.06 36.71,-33.95 36.77,-36.11 36.16,-37.55 36.71,-38.66 36.76,-39.37 36.77,-39.02 36.71,-38.99 36.16,-38.29 36.77,-37.19 36.71,-36.11 36.77,-34.31 36.71,-32.51 36.76,-31.07 36.17,-28.89 36.7,-27.08 36.77,-24.92 36.77,-23.11 36.71,-21.33 36.16,-19.13 36.77,-17.32 36.71,-15.92 36.77,-14.08 36.7,-12.64 36.17,-11.2 36.76,-9.73 36.71,-9.03 36.77,-7.59 36.77,-6.49 36.1,-5.78 36.77,-5.05 36.77,-4.35 36.71,-3.98 36.76,-3.25 36.17,-2.54 36.7,-2.5 36.77,-1.81 36.71,-1.81 36.77,-1.1 36.77,-1.44 36.1,-0.7 73.53,-1.47 36.71,-0.7 36.77,-0.37 36.16,-0.37 36.71,-0.37 h 36.77" /><path
         id="path364"
         style="fill:none;stroke:#231f20;stroke-width:10;stroke-linecap:butt;stroke-linejoin:miter;stroke-miterlimit:3.79999995;stroke-dasharray:none;stroke-opacity:1"
         d="m 464.242,1927.97 36.711,6.12 36.766,7.23 36.164,8.65 36.707,9.03 36.769,9.4 36.707,8.66 36.77,7.59 36.16,5.79 36.711,3.61 36.766,0.74 36.769,-2.55 36.707,-5.78 36.77,-8.66 36.16,-12.28 36.711,-14.81 36.77,-17.32 36.71,-18.79 36.76,-19.87 36.17,-19.49 36.7,-18.43 36.77,-16.25 36.77,-13.38 36.71,-9.03 36.16,-3.94 36.77,1.8 36.71,8.3 36.76,15.51 36.71,22.77 36.17,30.34 36.76,37.55 36.71,44.44 36.77,51.26 36.77,57.09 36.1,62.47 36.77,66.07 36.77,69.36 36.7,71.5 36.77,71.9 36.71,71.49 36.16,69.69 36.77,67.19 36.71,63.56 36.77,58.53 36.77,53.07 36.1,46.95 36.77,40.09 36.76,32.88 36.71,25.65 36.77,18.06 36.16,10.83 36.71,3.24 36.77,-3.98 36.71,-10.09 36.77,-16.62 36.16,-22.41 36.71,-27.46 36.76,-31.77 36.77,-35.37 36.71,-38.67 36.16,-41.53 36.77,-42.97 36.71,-44.07 36.77,-45.15 36.71,-45.14 36.76,-44.78 36.17,-44.41 36.7,-43 36.77,-41.54 36.77,-40.05 36.71,-38.3 36.16,-36.11 36.77,-33.95 36.71,-31.8 36.77,-29.59 36.7,-27.46 36.17,-24.91 36.76,-23.15 36.71,-20.93 36.77,-18.79 36.77,-17.33 36.1,-15.18 36.77,-13.71 36.77,-12.27 36.71,-10.83 36.76,-9.4 36.17,-8.29 36.7,-7.22 36.77,-6.53 36.71,-5.42 36.77,-4.68 36.77,-3.98 36.1,-3.61 36.77,-2.87 36.76,-2.55 36.71,-2.17 36.77,-1.81 36.16,-1.43 36.71,-1.44 36.77,-1.11" /><path
         id="path366"
         style="fill:none;stroke:#231f20;stroke-width:10;stroke-linecap:butt;stroke-linejoin:miter;stroke-miterlimit:3.79999995;stroke-dasharray:30, 30;stroke-dashoffset:0;stroke-opacity:1"
         d="m 464.242,1866.91 36.711,7.59 36.766,3.98 36.164,0.74 36.707,-1.81 36.769,-3.28 36.707,-3.94 36.77,-3.98 36.16,-2.92 36.711,-1.43 36.766,0.36 36.769,3.62 36.707,5.78 36.77,9.03 36.16,11.91 36.711,14.44 36.77,16.99 36.71,18.76 36.76,19.86 36.17,20.97 36.7,21.3 36.77,20.94 36.77,19.86 36.71,19.17 36.16,16.95 36.77,14.81 36.71,13.01 36.76,10.1 36.71,7.59 36.17,5.05 36.76,2.91 h 36.71 l 36.77,-1.81 36.77,-3.98 36.1,-5.78 36.77,-7.22 36.77,-8.3 36.7,-9.03 36.77,-10.13 36.71,-10.1 36.16,-10.83 36.77,-10.47 36.71,-10.13 36.77,-10.1 36.77,-9.77 36.1,-9.02 36.77,-8.3 36.76,-7.96 36.71,-7.22 36.77,-6.49 36.16,-5.78 36.71,-5.42 36.77,-4.68 36.71,-3.98 36.77,-3.61 36.16,-3.25 36.71,-2.91 36.76,-2.14 36.77,-2.17 36.71,-1.44 36.16,-1.47 36.77,-1.07 36.71,-1.07 36.77,-0.74 36.71,-0.73 36.76,-0.7 36.17,-0.37 36.7,-0.37 36.77,-0.37 36.77,-0.33 h 36.71 l 36.16,-0.37 h 146.95 l 36.17,-0.37 h 842.76" /></g></g></svg>