<?xml version="1.0" encoding="UTF-8" standalone="no"?>
<svg
   xmlns:dc="http://purl.org/dc/elements/1.1/"
   xmlns:cc="http://creativecommons.org/ns#"
   xmlns:rdf="http://www.w3.org/1999/02/22-rdf-syntax-ns#"
   xmlns:svg="http://www.w3.org/2000/svg"
   xmlns="http://www.w3.org/2000/svg"
   xmlns:sodipodi="http://sodipodi.sourceforge.net/DTD/sodipodi-0.dtd"
   xmlns:inkscape="http://www.inkscape.org/namespaces/inkscape"
   viewBox="0 0 549.48883 230.64746"
   height="230.64746"
   width="549.48883"
   xml:space="preserve"
   id="svg2"
   version="1.1"
   sodipodi:docname="rwa_only.svg"
   inkscape:version="0.92.5 (2060ec1f9f, 2020-04-08)"><sodipodi:namedview
     pagecolor="#ffffff"
     bordercolor="#666666"
     borderopacity="1"
     objecttolerance="10"
     gridtolerance="10"
     guidetolerance="10"
     inkscape:pageopacity="0"
     inkscape:pageshadow="2"
     inkscape:window-width="1680"
     inkscape:window-height="986"
     id="namedview184"
     showgrid="false"
     showguides="false"
     fit-margin-top="0"
     fit-margin-left="0"
     fit-margin-right="0"
     fit-margin-bottom="0"
     inkscape:zoom="1.1418986"
     inkscape:cx="262.79512"
     inkscape:cy="114.0523"
     inkscape:window-x="0"
     inkscape:window-y="0"
     inkscape:window-maximized="1"
     inkscape:current-layer="svg2"><sodipodi:guide
       position="-223.3962,-53.095845"
       orientation="1,0"
       id="guide1415"
       inkscape:locked="false" /></sodipodi:namedview><metadata
     id="metadata8"><rdf:RDF><cc:Work
         rdf:about=""><dc:format>image/svg+xml</dc:format><dc:type
           rdf:resource="http://purl.org/dc/dcmitype/StillImage" /><dc:title></dc:title></cc:Work></rdf:RDF></metadata><defs
     id="defs6">


















</defs><path
     id="path14"
     style="fill:none;stroke:#231f20;stroke-width:0.5;stroke-linecap:butt;stroke-linejoin:miter;stroke-miterlimit:3.79999995;stroke-dasharray:none;stroke-opacity:1"
     d="M 56.239285,153.99066 H 540.07634"
     inkscape:connector-curvature="0" /><path
     id="path16"
     style="fill:none;stroke:#231f20;stroke-width:1.33333325;stroke-linecap:butt;stroke-linejoin:miter;stroke-miterlimit:3.79999995;stroke-dasharray:none;stroke-opacity:1"
     d="M 56.239285,0.66666663 V 184.656 H 540.07634 V 0.66666663 Z"
     inkscape:connector-curvature="0" /><path
     id="path18"
     style="fill:none;stroke:#231f20;stroke-width:1.33333325;stroke-linecap:butt;stroke-linejoin:miter;stroke-miterlimit:3.79999995;stroke-dasharray:none;stroke-opacity:1"
     d="m 56.239285,123.32666 h 5.325067"
     inkscape:connector-curvature="0" /><path
     id="path20"
     style="fill:none;stroke:#231f20;stroke-width:1.33333325;stroke-linecap:butt;stroke-linejoin:miter;stroke-miterlimit:3.79999995;stroke-dasharray:none;stroke-opacity:1"
     d="m 56.239285,92.661331 h 5.325067"
     inkscape:connector-curvature="0" /><path
     id="path22"
     style="fill:none;stroke:#231f20;stroke-width:1.33333325;stroke-linecap:butt;stroke-linejoin:miter;stroke-miterlimit:3.79999995;stroke-dasharray:none;stroke-opacity:1"
     d="m 56.239285,61.995999 h 5.325067"
     inkscape:connector-curvature="0" /><path
     id="path24"
     style="fill:none;stroke:#231f20;stroke-width:1.33333325;stroke-linecap:butt;stroke-linejoin:miter;stroke-miterlimit:3.79999995;stroke-dasharray:none;stroke-opacity:1"
     d="m 56.239285,31.332 h 5.325067"
     inkscape:connector-curvature="0" /><path
     id="path26"
     style="fill:none;stroke:#231f20;stroke-width:1.33333325;stroke-linecap:butt;stroke-linejoin:miter;stroke-miterlimit:3.79999995;stroke-dasharray:none;stroke-opacity:1"
     d="m 534.75234,123.32666 h 5.324"
     inkscape:connector-curvature="0" /><path
     id="path28"
     style="fill:none;stroke:#231f20;stroke-width:1.33333325;stroke-linecap:butt;stroke-linejoin:miter;stroke-miterlimit:3.79999995;stroke-dasharray:none;stroke-opacity:1"
     d="m 534.75234,92.661331 h 5.324"
     inkscape:connector-curvature="0" /><path
     id="path30"
     style="fill:none;stroke:#231f20;stroke-width:1.33333325;stroke-linecap:butt;stroke-linejoin:miter;stroke-miterlimit:3.79999995;stroke-dasharray:none;stroke-opacity:1"
     d="m 534.75234,61.995999 h 5.324"
     inkscape:connector-curvature="0" /><path
     id="path32"
     style="fill:none;stroke:#231f20;stroke-width:1.33333325;stroke-linecap:butt;stroke-linejoin:miter;stroke-miterlimit:3.79999995;stroke-dasharray:none;stroke-opacity:1"
     d="m 534.75234,31.332 h 5.324"
     inkscape:connector-curvature="0" /><path
     id="path34"
     style="fill:none;stroke:#231f20;stroke-width:1.33333325;stroke-linecap:butt;stroke-linejoin:miter;stroke-miterlimit:3.79999995;stroke-dasharray:none;stroke-opacity:1"
     d="m 540.07634,0.66666663 h -5.324"
     inkscape:connector-curvature="0" /><path
     id="path36"
     style="fill:none;stroke:#231f20;stroke-width:1.33333325;stroke-linecap:butt;stroke-linejoin:miter;stroke-miterlimit:3.79999995;stroke-dasharray:none;stroke-opacity:1"
     d="M 56.239285,184.656 V 181.24"
     inkscape:connector-curvature="0" /><path
     id="path38"
     style="fill:none;stroke:#231f20;stroke-width:1.33333325;stroke-linecap:butt;stroke-linejoin:miter;stroke-miterlimit:3.79999995;stroke-dasharray:none;stroke-opacity:1"
     d="M 540.07768,184.656 V 181.24"
     inkscape:connector-curvature="0" /><path
     id="path40"
     style="fill:none;stroke:#231f20;stroke-width:1.33333325;stroke-linecap:butt;stroke-linejoin:miter;stroke-miterlimit:3.79999995;stroke-dasharray:none;stroke-opacity:1"
     d="M 136.87902,189.95066 V 178.612"
     inkscape:connector-curvature="0" /><path
     id="path42"
     style="fill:none;stroke:#231f20;stroke-width:1.33333325;stroke-linecap:butt;stroke-linejoin:miter;stroke-miterlimit:3.79999995;stroke-dasharray:none;stroke-opacity:1"
     d="M 217.51902,189.95066 V 178.612"
     inkscape:connector-curvature="0" /><path
     id="path44"
     style="fill:none;stroke:#231f20;stroke-width:1.33333325;stroke-linecap:butt;stroke-linejoin:miter;stroke-miterlimit:3.79999995;stroke-dasharray:none;stroke-opacity:1"
     d="M 298.15902,189.95066 V 178.612"
     inkscape:connector-curvature="0" /><path
     id="path46"
     style="fill:none;stroke:#231f20;stroke-width:1.33333325;stroke-linecap:butt;stroke-linejoin:miter;stroke-miterlimit:3.79999995;stroke-dasharray:none;stroke-opacity:1"
     d="M 378.79901,189.95066 V 178.612"
     inkscape:connector-curvature="0" /><path
     id="path48"
     style="fill:none;stroke:#231f20;stroke-width:1.33333325;stroke-linecap:butt;stroke-linejoin:miter;stroke-miterlimit:3.79999995;stroke-dasharray:none;stroke-opacity:1"
     d="M 459.43901,189.95066 V 178.612"
     inkscape:connector-curvature="0" /><path
     id="path50"
     style="fill:none;stroke:#231f20;stroke-width:1.33333325;stroke-linecap:butt;stroke-linejoin:miter;stroke-miterlimit:3.79999995;stroke-dasharray:none;stroke-opacity:1"
     d="m 386.41368,51.645332 h 34.70533"
     inkscape:connector-curvature="0" /><path
     id="path52"
     style="fill:none;stroke:#231f20;stroke-width:2.66666651;stroke-linecap:butt;stroke-linejoin:miter;stroke-miterlimit:3.79999995;stroke-dasharray:3.9999999, 3.9999999;stroke-dashoffset:0;stroke-opacity:1"
     d="m 386.41368,24.978666 h 34.70533"
     inkscape:connector-curvature="0" /><text
     style="font-variant:normal;font-weight:normal;font-size:21.33333206px;font-family:'Times New Roman';-inkscape-font-specification:TimesNewRomanPSMT;writing-mode:lr-tb;fill:#231f20;fill-opacity:1;fill-rule:nonzero;stroke:none;stroke-width:1.33333325"
     id="text72"
     x="27.302885"
     y="160.67601"><tspan
       x="27.302885 37.969551 43.302883"
       y="160.67601"
       id="tspan56"
       style="stroke-width:1.33333325">0.0</tspan><tspan
       x="27.302885 37.969551 43.302883"
       y="99.463463"
       id="tspan58"
       style="stroke-width:1.33333325">0.1</tspan><tspan
       x="27.302885 37.969551 43.302883"
       y="38.251476"
       id="tspan60"
       style="stroke-width:1.33333325">0.2</tspan><tspan
       x="41.525818"
       y="355.27411"
       id="tspan62"
       style="stroke-width:1.33333325">0</tspan><tspan
       x="41.525818"
       y="322.20117"
       id="tspan64"
       style="stroke-width:1.33333325">1</tspan><tspan
       x="41.525818"
       y="289.12625"
       id="tspan66"
       style="stroke-width:1.33333325">2</tspan><tspan
       x="41.525818"
       y="256.0528"
       id="tspan68"
       style="stroke-width:1.33333325">3</tspan><tspan
       x="41.525818"
       y="222.97734"
       id="tspan70"
       style="stroke-width:1.33333325">4</tspan></text>
<text
     transform="rotate(-90)"
     style="font-variant:normal;font-weight:normal;font-size:21.33333206px;font-family:'Times New Roman';-inkscape-font-specification:TimesNewRomanPSMT;writing-mode:lr-tb;fill:#231f20;fill-opacity:1;fill-rule:nonzero;stroke:none;stroke-width:1.33333325"
     id="text76"
     x="-83.915993"
     y="19.057554"><tspan
       x="-83.915993 -76.811996 -69.707993"
       y="19.057554"
       id="tspan74"
       style="stroke-width:1.33333325">[fm</tspan></text>
<text
     transform="rotate(-90)"
     style="font-variant:normal;font-weight:normal;font-size:14.66666603px;font-family:'Times New Roman';-inkscape-font-specification:TimesNewRomanPSMT;writing-mode:lr-tb;fill:#231f20;fill-opacity:1;fill-rule:nonzero;stroke:none;stroke-width:1.33333325"
     id="text80"
     x="-53.113869"
     y="10.183594"><tspan
       x="-53.113869 -48.229866 -40.896534 -36.822327"
       y="10.183594"
       id="tspan78"
       style="stroke-width:1.33333325">-1/2</tspan></text>
<text
     transform="rotate(-90)"
     style="font-variant:normal;font-weight:normal;font-size:21.33333206px;font-family:'Times New Roman';-inkscape-font-specification:TimesNewRomanPSMT;writing-mode:lr-tb;fill:#231f20;fill-opacity:1;fill-rule:nonzero;stroke:none;stroke-width:1.33333325"
     id="text86"
     x="-29.4888"
     y="19.057554"><tspan
       x="-29.4888"
       y="19.057554"
       id="tspan82"
       style="stroke-width:1.33333325">]</tspan><tspan
       x="-343.91678 -330.88553 -311.91672 -296.51047 -291.17712 -284.07312 -274.60437 -267.5108 -256.84412 -251.51082 -246.17747 -235.51082 -224.84415 -218.90665 -212.97958"
       y="27.969526"
       id="tspan84"
       style="stroke-width:1.33333325">TMD (arb. unit)</tspan></text>
<text
     style="font-variant:normal;font-weight:normal;font-size:21.33333206px;font-family:'Times New Roman';-inkscape-font-specification:TimesNewRomanPSMT;writing-mode:lr-tb;fill:#231f20;fill-opacity:1;fill-rule:nonzero;stroke:none;stroke-width:1.33333325"
     id="text90"
     x="433.215"
     y="31.246666"><tspan
       x="433.215 449.81235 459.28433 468.75635 479.423 486.52701 493.63101 499.56168 509.03369 514.96436"
       y="31.246666"
       id="tspan88"
       style="stroke-width:1.33333325">mean-field</tspan></text>
<text
     style="font-variant:normal;font-weight:normal;font-size:18.66666603px;font-family:'Times New Roman';-inkscape-font-specification:TimesNewRomanPSMT;writing-mode:lr-tb;fill:#231f20;fill-opacity:1;fill-rule:nonzero;stroke:none;stroke-width:1.33333325"
     id="text114"
     x="141.21501"
     y="69.288399"><tspan
       x="141.21501 155.73769 164.02568 172.31367 181.647 187.86301 194.07901 199.26834 207.55635 212.74568"
       y="69.288399"
       id="tspan92"
       style="stroke-width:1.33333325">mean-field</tspan><tspan
       x="332.05899 341.39233 346.05899"
       y="24.977467"
       id="tspan94"
       style="stroke-width:1.33333325">5.0</tspan><tspan
       x="320.05899 329.39233 334.05899"
       y="219.68813"
       id="tspan96"
       style="stroke-width:1.33333325">5.0</tspan><tspan
       x="294.06421 303.39755 308.06421"
       y="77.930794"
       id="tspan98"
       style="stroke-width:1.33333325">4.0</tspan><tspan
       x="279.39233 288.72568 293.39233"
       y="311.35611"
       id="tspan100"
       style="stroke-width:1.33333325">4.0</tspan><tspan
       x="267.39233 276.72568 281.39233"
       y="88.017464"
       id="tspan102"
       style="stroke-width:1.33333325">3.5</tspan><tspan
       x="312.49341 321.82675 326.49341"
       y="307.88812"
       id="tspan104"
       style="stroke-width:1.33333325">3.5</tspan><tspan
       x="209.72675 219.06007 223.72675 233.06007 247.06007"
       y="280.96411"
       id="tspan106"
       style="stroke-width:1.33333325">3.0 5</tspan><tspan
       x="251.90274 261.23608 265.90274"
       y="120.02412"
       id="tspan108"
       style="stroke-width:1.33333325">3.0</tspan><tspan
       x="312.49341 321.82675 326.49341"
       y="52.728268"
       id="tspan110"
       style="stroke-width:1.33333325">4.5</tspan><tspan
       x="296.05902 305.39233 310.05902"
       y="274.29224"
       id="tspan112"
       style="stroke-width:1.33333325">4.5</tspan></text>
<text
     style="font-variant:normal;font-weight:normal;font-size:21.33333206px;font-family:'Times New Roman';-inkscape-font-specification:TimesNewRomanPSMT;writing-mode:lr-tb;fill:#231f20;fill-opacity:1;fill-rule:nonzero;stroke:none;stroke-width:1.33333325"
     id="text118"
     x="242.283"
     y="173.02293"><tspan
       x="242.283"
       y="173.02293"
       id="tspan116"
       style="stroke-width:1.33333325">r</tspan></text>
<text
     style="font-variant:normal;font-weight:normal;font-size:16px;font-family:Symbol;-inkscape-font-specification:SymbolMT;writing-mode:lr-tb;fill:#231f20;fill-opacity:1;fill-rule:nonzero;stroke:none;stroke-width:1.33333325"
     id="text122"
     x="249.38718"
     y="174.70679"><tspan
       x="249.38718"
       y="174.70679"
       id="tspan120"
       style="stroke-width:1.33333325">a</tspan></text>
<text
     style="font-variant:normal;font-weight:normal;font-size:21.33333206px;font-family:'Times New Roman';-inkscape-font-specification:TimesNewRomanPSMT;writing-mode:lr-tb;fill:#231f20;fill-opacity:1;fill-rule:nonzero;stroke:none;stroke-width:1.33333325"
     id="text126"
     x="259.48041"
     y="173.02293"><tspan
       x="259.48041 271.51242 276.84573"
       y="173.02293"
       id="tspan124"
       style="stroke-width:1.33333325">+ r</tspan></text>
<text
     style="font-variant:normal;font-weight:normal;font-size:14.66666603px;font-family:'Times New Roman';-inkscape-font-specification:TimesNewRomanPSMT;writing-mode:lr-tb;fill:#231f20;fill-opacity:1;fill-rule:nonzero;stroke:none;stroke-width:1.33333325"
     id="text130"
     x="283.94974"
     y="176.14793"><tspan
       x="283.94974 293.73242"
       y="176.14793"
       id="tspan128"
       style="stroke-width:1.33333325">Ca</tspan></text>
<text
     style="font-variant:normal;font-weight:normal;font-size:21.33333206px;font-family:'Times New Roman';-inkscape-font-specification:TimesNewRomanPSMT;writing-mode:lr-tb;fill:#231f20;fill-opacity:1;fill-rule:nonzero;stroke:none;stroke-width:1.33333325"
     id="text136"
     x="305.57523"
     y="173.02293"><tspan
       x="305.57523 312.6792 323.34589 328.6792 339.34589 350.01254 355.34589 362.44989 379.04721"
       y="173.02293"
       id="tspan132"
       style="stroke-width:1.33333325">(5.19 fm)</tspan><tspan
       x="83.30323"
       y="359.74957"
       id="tspan134"
       style="stroke-width:1.33333325">r</tspan></text>
<text
     style="font-variant:normal;font-weight:normal;font-size:16px;font-family:Symbol;-inkscape-font-specification:SymbolMT;writing-mode:lr-tb;fill:#231f20;fill-opacity:1;fill-rule:nonzero;stroke:none;stroke-width:1.33333325"
     id="text140"
     x="90.407394"
     y="361.43344"><tspan
       x="90.407394"
       y="361.43344"
       id="tspan138"
       style="stroke-width:1.33333325">a</tspan></text>
<text
     style="font-variant:normal;font-weight:normal;font-size:21.33333206px;font-family:'Times New Roman';-inkscape-font-specification:TimesNewRomanPSMT;writing-mode:lr-tb;fill:#231f20;fill-opacity:1;fill-rule:nonzero;stroke:none;stroke-width:1.33333325"
     id="text144"
     x="100.50114"
     y="359.74957"><tspan
       x="100.50114 112.53314 117.86647"
       y="359.74957"
       id="tspan142"
       style="stroke-width:1.33333325">+ r</tspan></text>
<text
     style="font-variant:normal;font-weight:normal;font-size:14.66666603px;font-family:'Times New Roman';-inkscape-font-specification:TimesNewRomanPSMT;writing-mode:lr-tb;fill:#231f20;fill-opacity:1;fill-rule:nonzero;stroke:none;stroke-width:1.33333325"
     id="text148"
     x="124.96993"
     y="362.87457"><tspan
       x="124.96993 134.75259"
       y="362.87457"
       id="tspan146"
       style="stroke-width:1.33333325">Ca</tspan></text>
<text
     style="font-variant:normal;font-weight:normal;font-size:21.33333206px;font-family:'Times New Roman';-inkscape-font-specification:TimesNewRomanPSMT;writing-mode:lr-tb;fill:#231f20;fill-opacity:1;fill-rule:nonzero;stroke:none;stroke-width:1.33333325"
     id="text152"
     x="146.5954"
     y="359.74957"><tspan
       x="146.5954 153.6994 164.36607 169.6994 180.36607 191.03273 196.36607 203.47006 220.0674"
       y="359.74957"
       id="tspan150"
       style="stroke-width:1.33333325">(5.19 fm)</tspan></text>
<path
     id="path154"
     style="fill:none;stroke:#231f20;stroke-width:1.33333325;stroke-linecap:butt;stroke-linejoin:miter;stroke-miterlimit:3.79999995;stroke-dasharray:none;stroke-opacity:1"
     d="M 136.87902,6.3359998 V 0.66666663"
     inkscape:connector-curvature="0" /><path
     id="path156"
     style="fill:none;stroke:#231f20;stroke-width:1.33333325;stroke-linecap:butt;stroke-linejoin:miter;stroke-miterlimit:3.79999995;stroke-dasharray:none;stroke-opacity:1"
     d="M 217.51902,6.3359998 V 0.66666663"
     inkscape:connector-curvature="0" /><path
     id="path158"
     style="fill:none;stroke:#231f20;stroke-width:1.33333325;stroke-linecap:butt;stroke-linejoin:miter;stroke-miterlimit:3.79999995;stroke-dasharray:none;stroke-opacity:1"
     d="M 298.15902,6.3359998 V 0.66666663"
     inkscape:connector-curvature="0" /><path
     id="path160"
     style="fill:none;stroke:#231f20;stroke-width:1.33333325;stroke-linecap:butt;stroke-linejoin:miter;stroke-miterlimit:3.79999995;stroke-dasharray:none;stroke-opacity:1"
     d="M 378.79901,6.3359998 V 0.66666663"
     inkscape:connector-curvature="0" /><path
     id="path162"
     style="fill:none;stroke:#231f20;stroke-width:1.33333325;stroke-linecap:butt;stroke-linejoin:miter;stroke-miterlimit:3.79999995;stroke-dasharray:none;stroke-opacity:1"
     d="M 459.43901,6.3359998 V 0.66666663"
     inkscape:connector-curvature="0" /><text
     style="font-variant:normal;font-weight:normal;font-size:21.33333206px;font-family:'Times New Roman';-inkscape-font-specification:TimesNewRomanPSMT;writing-mode:lr-tb;fill:#231f20;fill-opacity:1;fill-rule:nonzero;stroke:none;stroke-width:1.33333325"
     id="text170"
     x="77.302887"
     y="33.689335"><tspan
       x="77.302887 84.406891 93.878891 100.98289 106.31622 120.54556 140.6842"
       y="33.689335"
       id="tspan166"
       style="stroke-width:1.33333325">(a) RWA</tspan><tspan
       x="77.302887 84.406891 95.073563 102.17755 107.51089 120.54556 139.51088"
       y="219.68933"
       id="tspan168"
       style="stroke-width:1.33333325">(b) TMD</tspan></text>
<path
     id="path174"
     style="fill:#0e0f0f;fill-opacity:1;fill-rule:nonzero;stroke:none;stroke-width:0.13333333"
     d="m 12.07262,119.26666 c -0.235867,0 -0.471333,0 -0.471333,0 -0.471867,0 -0.471867,0.23467 -0.471867,0.47067 0,0.236 0,0.472 0.235333,0.708 0.236534,0 0.707867,0.236 1.179734,0.236 0.471866,0.25067 0.9432,0.25067 1.415066,0.48667 l 3.538133,0.70666 c 0.2364,0.23734 1.650934,0.944 1.650934,2.35867 0,0.944 -0.9432,1.18 -1.650934,1.18 -0.943333,0 -2.1224,-0.472 -3.773466,-1.18 -0.707867,-0.23467 -0.943733,-0.23467 -1.4152,-0.23467 -0.707733,0 -1.4156,0.472 -1.4156,1.41467 0,1.88667 2.8308,2.59467 2.8308,2.59467 0.235333,0 0.235333,-0.236 0.235333,-0.236 0,-0.236 0,-0.236 -0.235333,-0.236 -1.887467,-0.472 -2.359467,-1.41467 -2.359467,-1.88667 0,-0.236 0,-0.472 0.472,-0.472 0.472267,0 0.943734,0 1.4156,0.236 1.8864,0.708 3.066133,1.17867 4.009867,1.17867 1.651066,0 2.122933,-1.17867 2.122933,-2.35867 0,-0.70667 -0.236533,-1.41467 -0.707867,-1.88667 0.9432,0.236 1.887067,0.472 2.8308,1.18 0.706667,0.472 1.179067,1.18 1.179067,2.12267 0,0.236 0,1.18 -0.707733,1.41467 0,-0.23467 0,-0.472 -0.236,-0.94267 -0.235334,0 -0.471867,-0.236 -0.7072,-0.236 -0.707867,0 -0.707867,0.472 -0.707867,0.70667 0,0.472 0.236,0.944 1.179733,0.944 0.9432,0 1.650934,-0.70667 1.650934,-1.88667 0,-1.88667 -1.650934,-4.00933 -3.773867,-4.48133 l -7.312533,-1.90134"
     inkscape:connector-curvature="0" /><path
     id="path176"
     style="fill:#0e0f0f;fill-opacity:1;fill-rule:nonzero;stroke:none;stroke-width:0.13333333"
     d="m 23.866886,112.18933 c 0,0 -0.2364,0 -0.4724,0.472 -2.358266,2.35867 -5.8968,2.83067 -8.963466,2.83067 -3.3016,0 -6.6188126,-0.708 -8.9776666,-3.06667 -0.235933,-0.236 -0.235933,-0.236 -0.235933,-0.236 -0.235427,0 -0.235427,0.236 -0.235427,0.236 0,0.236 1.179174,1.888 3.773427,3.06667 2.1379996,0.944 4.2609326,1.17866 5.6755996,1.17866 1.650933,0 3.7744,-0.23466 6.133333,-1.17866 2.1228,-1.17867 3.538,-2.83067 3.538,-3.06667 l -0.235467,-0.236"
     inkscape:connector-curvature="0" /><path
     id="path178"
     style="fill:#0e0f0f;fill-opacity:1;fill-rule:nonzero;stroke:none;stroke-width:0.13333333"
     d="m 7.5762734,103.91866 c -0.47188,0 -0.707813,0 -0.707813,-0.472 0,-0.23466 0,-0.70666 0,-1.17866 0,-1.41467 0,-3.537335 1.88696,-3.537335 0.7224,0 1.9026666,0.470666 2.6098666,1.178666 0.471466,0.471999 1.1792,1.414669 1.1792,3.302669 v 2.12266 z M 12.780487,101.324 C 12.30902,99.437331 11.12942,97.078665 9.0059534,97.078665 c -1.42968,0 -2.844786,1.652 -2.844786,4.245335 v 5.42533 c 0,0.236 0,0.472 0.47188,0.472 0.235413,0 0.235413,-0.236 0.235413,-0.472 0,0 0,-0.47067 0,-0.708 0,-0.47067 0,-0.47067 0.235933,-0.47067 0.236467,0 0.236467,0 0.47188,0 L 17.734086,108.18 c 0.707867,0.236 0.9432,0.236 0.9432,1.65066 0,0.472 0,0.472 0.471867,0.472 0.236,0 0.236,-0.236 0.236,-0.236 0,-0.472 -0.236,-1.88666 -0.236,-2.37333 0,-0.472 0.236,-1.88667 0.236,-2.35867 0,-0.236 0,-0.472 -0.471867,-0.472 -0.236,0 -0.236,0.236 -0.236,0.472 0,0.70667 0,1.41467 -0.235333,1.41467 -0.236533,0 -0.236533,-0.236 -0.4724,-0.236 l -4.9532,-1.17867 V 102.976 c 0,-1.652 0.9432,-1.88667 1.651067,-1.88667 0.236,0 0.9432,0 1.4156,0.23467 0.471333,0 1.1792,0.23733 1.651066,0.23733 1.8864,0 1.8864,-2.359999 1.8864,-2.595999 0,-1.650666 -1.8864,-2.122666 -2.1228,-2.122666 -0.235466,0 -0.235466,0.236 -0.235466,0.236 0,0 0.235466,0 0.235466,0.236 1.4156,0.472 1.887467,1.18 1.887467,1.650666 0,0.708 -0.471867,0.708 -1.179733,0.708 -0.707734,0 -1.651067,0 -2.3588,-0.236 -0.236,0 -0.471334,0 -0.707867,0 -1.651066,0 -2.1224,1.415999 -2.358266,1.886669"
     inkscape:connector-curvature="0" /><path
     id="path180"
     style="fill:#0e0f0f;fill-opacity:1;fill-rule:nonzero;stroke:none;stroke-width:0.13333333"
     d="m 7.5762734,137.67866 c -0.47188,0 -0.707813,0 -0.707813,-0.472 0,-0.23466 0,-0.70666 0,-1.17866 0,-1.41467 0,-3.53734 1.88696,-3.53734 0.7224,0 1.9026666,0.47067 2.6098666,1.17867 0.471466,0.472 1.1792,1.41467 1.1792,3.30267 v 2.12133 z M 12.780487,135.084 c -0.471467,-1.88667 -1.651067,-4.24534 -3.7745336,-4.24534 -1.42968,0 -2.844786,1.652 -2.844786,4.24534 v 5.42533 c 0,0.236 0,0.472 0.47188,0.472 0.235413,0 0.235413,-0.236 0.235413,-0.472 0,0 0,-0.472 0,-0.708 0,-0.47067 0,-0.47067 0.235933,-0.47067 0.236467,0 0.236467,0 0.47188,0 L 17.734086,141.94 c 0.707867,0.236 0.9432,0.236 0.9432,1.65066 0,0.472 0,0.472 0.471867,0.472 0.236,0 0.236,-0.236 0.236,-0.236 0,-0.472 -0.236,-1.88666 -0.236,-2.37333 0,-0.472 0.236,-1.888 0.236,-2.36 0,-0.23467 0,-0.47067 -0.471867,-0.47067 -0.236,0 -0.236,0.236 -0.236,0.47067 0,0.708 0,1.416 -0.235333,1.416 -0.236533,0 -0.236533,-0.236 -0.4724,-0.236 l -4.9532,-1.18 v -2.35867 c 0,-1.65066 0.9432,-1.88666 1.651067,-1.88666 0.236,0 0.9432,0 1.4156,0.236 0.471333,0 1.1792,0.236 1.651066,0.236 1.8864,0 1.8864,-2.35867 1.8864,-2.59467 0,-1.65067 -1.8864,-2.12267 -2.1228,-2.12267 -0.235466,0 -0.235466,0.236 -0.235466,0.236 0,0 0.235466,0 0.235466,0.236 1.4156,0.472 1.887467,1.18 1.887467,1.65067 0,0.708 -0.471867,0.708 -1.179733,0.708 -0.707734,0 -1.651067,0 -2.3588,-0.236 -0.236,0 -0.471334,0 -0.707867,0 -1.651066,0 -2.1224,1.416 -2.358266,1.88667"
     inkscape:connector-curvature="0" /><path
     id="path182"
     style="fill:#0e0f0f;fill-opacity:1;fill-rule:nonzero;stroke:none;stroke-width:0.13333333"
     d="m 14.43102,90.930665 c -1.414667,0 -3.772933,0.237333 -5.8963996,1.430666 -2.358867,0.944 -3.53804,2.594667 -3.53804,2.830667 0,0.236 0,0.236 0,0.236 0.235947,0 0.235947,0 0.47188,-0.472 1.886453,-1.886667 4.9530926,-2.830667 8.9625596,-2.830667 3.317066,0 6.620266,0.708 8.978533,3.066667 0.236,0.236 0.236,0.236 0.236,0.236 0.235467,0 0.235467,0 0.235467,-0.236 0,-0.236 -1.178667,-1.886667 -3.774,-3.066667 -1.886934,-0.957333 -4.009867,-1.194666 -5.676,-1.194666"
     inkscape:connector-curvature="0" /><path
     id="path184"
     style="fill:#0e0f0f;fill-opacity:1;fill-rule:nonzero;stroke:none;stroke-width:0.13333333"
     d="m 443.09235,52.353332 c 0,-2.821333 -1.532,-3.842666 -3.06134,-3.842666 -2.552,0 -5.10266,2.550666 -5.10266,5.373333 0,1.786667 1.276,3.062667 3.06133,3.062667 2.04133,0 3.57067,-1.276 4.08133,-1.532 0.256,0.765333 0.76534,1.532 1.78667,1.532 0.76533,0 1.52933,-1.021334 1.52933,-1.276 0,-0.256 -0.25333,-0.256 -0.25333,-0.256 -0.25467,0 -0.25467,0 -0.25467,0.256 -0.256,0.509333 -0.76666,0.765333 -1.02133,0.765333 -0.76533,0 -0.76533,-1.530667 -0.76533,-2.041333 0,-0.254667 0,-0.254667 0.25466,-0.510667 0.256,-0.254667 0.76534,-1.02 1.276,-1.785333 0.51067,-1.292 1.02,-2.312 1.02,-2.566667 0,0 0,0 -0.256,0 -0.25333,0 -0.25333,0 -0.508,0.254667 0,0.765333 -0.51066,2.056 -1.78666,3.588 z m -1.276,2.552 c -0.51067,0.254667 -1.78534,1.530667 -3.82667,1.530667 -1.02,0 -1.78533,-0.765333 -1.78533,-2.041333 0,-0.765334 0.51066,-2.552 1.27466,-3.842667 0.51067,-0.765333 1.276,-1.530667 2.552,-1.530667 1.27467,0 1.52934,1.02 1.78534,2.296 0,0.781334 0,2.566667 0,3.588"
     inkscape:connector-curvature="0" /><path
     id="path186"
     style="fill:#0e0f0f;fill-opacity:1;fill-rule:nonzero;stroke:none;stroke-width:0.13333333"
     d="m 461.66301,52.609332 c 0.256,0 0.76533,0 0.76533,-0.510666 0,-0.510667 -0.50933,-0.510667 -0.76533,-0.510667 h -5.37333 v -5.118666 c 0,-0.509334 0,-0.765334 -0.25467,-0.765334 -0.51066,0 -0.51066,0.510667 -0.51066,0.765334 v 5.118666 h -5.10267 c -0.51067,0 -0.76533,0 -0.76533,0.510667 0,0.510666 0.25466,0.510666 0.76533,0.510666 h 5.10267 v 5.102667 c 0,0.254667 0,0.765333 0.51066,0.765333 0.25467,0 0.25467,-0.510666 0.25467,-0.765333 v -5.102667 h 5.37333"
     inkscape:connector-curvature="0" /><path
     id="path188"
     style="fill:#0e0f0f;fill-opacity:1;fill-rule:nonzero;stroke:none;stroke-width:0.13333333"
     d="m 470.43901,46.725332 v -0.510666 h -1.27733 v -5.357333 c 0,-0.256 0,-0.256 -0.25467,-0.256 -0.25467,0 -0.25467,0 -0.51067,0 l -4.352,5.613333 v 0.510666 h 3.82667 v 1.02 c 0,0.510667 0,0.510667 -1.02,0.510667 h -0.25467 v 0.510667 c 0.25467,0 1.27467,0 2.056,0 0.50934,0 1.53067,0 1.78667,0 v -0.510667 h -0.256 c -1.02133,0 -1.02133,0 -1.02133,-0.510667 v -1.02 z m -2.296,-4.846666 v 4.336 h -3.58933 z"
     inkscape:connector-curvature="0" /><path
     id="path190"
     style="fill:#0e0f0f;fill-opacity:1;fill-rule:nonzero;stroke:none;stroke-width:0.13333333"
     d="m 478.09234,46.725332 v -0.510666 h -1.532 v -5.357333 c 0,-0.256 0,-0.256 -0.25466,-0.256 -0.25467,0 -0.25467,0 -0.25467,0 l -4.336,5.613333 v 0.510666 h 3.82667 v 1.02 c 0,0.510667 0,0.510667 -1.02134,0.510667 h -0.25466 v 0.510667 c 0,0 1.276,0 1.78533,0 0.50933,0 1.78533,0 2.04133,0 v -0.510667 h -0.51066 c -1.02134,0 -1.02134,0 -1.02134,-0.510667 v -1.02 z m -2.55066,-4.846666 v 4.336 h -3.31734 z"
     inkscape:connector-curvature="0" /><path
     id="path192"
     style="fill:#0e0f0f;fill-opacity:1;fill-rule:nonzero;stroke:none;stroke-width:0.13333333"
     d="m 490.86434,45.194666 c -0.51066,-0.510667 -1.53066,-1.530667 -3.572,-1.530667 -3.572,0 -6.64933,3.061333 -6.64933,6.633333 0,3.842667 3.33333,6.904 6.64933,6.904 3.316,0 5.10267,-2.552 5.10267,-4.848 0,0 0,-0.254666 -0.25467,-0.254666 -0.256,0 -0.256,0 -0.256,0.254666 -0.25466,2.806667 -2.296,4.082667 -4.336,4.082667 -1.532,0 -4.848,-0.765333 -4.848,-6.138667 0,-5.102666 3.316,-6.123999 4.848,-6.123999 1.78534,0 3.82667,1.530666 4.336,4.338666 0,0.254667 0,0.509333 0.256,0.509333 0.25467,0 0.25467,-0.254666 0.25467,-0.509333 v -4.338666 c 0,-0.254667 0,-0.509334 -0.25467,-0.509334 0,0 -0.256,0 -0.256,0.254667 l -1.02,1.276"
     inkscape:connector-curvature="0" /><path
     id="path194"
     style="fill:#0e0f0f;fill-opacity:1;fill-rule:nonzero;stroke:none;stroke-width:0.13333333"
     d="m 499.80968,55.414666 c 0,0.765333 0.76533,1.532 1.53066,1.532 0.256,0 1.53067,-0.510667 1.53067,-1.786667 v -1.02 h -0.50933 v 1.02 c 0,0 0,1.02 -0.76534,1.02 -0.51066,0 -0.51066,-0.765333 -0.51066,-1.274667 v -3.062666 c 0,-1.036 0,-1.801334 -0.76534,-2.566667 -0.76666,-0.509333 -1.78666,-0.765333 -2.55066,-0.765333 -1.532,0 -2.824,0.765333 -2.824,1.786666 0,0.764 0.256,1.02 0.78133,1.02 0.51067,0 0.76667,-0.510666 0.76667,-1.02 0,-0.765333 -0.76667,-0.765333 -0.76667,-0.765333 0.51067,-0.510667 1.276,-0.765333 2.04267,-0.765333 0.764,0 1.784,0.765333 1.784,2.550666 v 0.525334 c -0.76534,0 -2.29467,0 -3.57067,0.766666 -1.292,0.509334 -1.80267,1.530667 -1.80267,2.296 0,1.530667 1.80267,2.041334 3.07867,2.041334 1.52933,0 2.29467,-1.021334 2.55067,-1.532 z m -0.256,-1.274667 c 0,1.785333 -1.27467,2.296 -2.04,2.296 -1.02,0 -1.78667,-0.510667 -1.78667,-1.530667 0,-1.276 1.02133,-2.552 3.82667,-2.552 v 1.786667"
     inkscape:connector-curvature="0" /><path
     id="path196"
     style="fill:none;stroke:#231f20;stroke-width:1.33333325;stroke-linecap:butt;stroke-linejoin:miter;stroke-miterlimit:3.79999995;stroke-dasharray:none;stroke-opacity:1"
     d="m 232.27368,178.37066 v -20.388"
     inkscape:connector-curvature="0" /><path
     id="path198"
     style="fill:#231f20;fill-opacity:1;fill-rule:nonzero;stroke:none;stroke-width:0.13333333"
     d="m 236.51502,165.86533 -1.25334,0.45467 -2.988,-8.20667 -2.98666,8.20667 -1.252,-0.45467 4.23866,-11.64933 4.24134,11.64933"
     inkscape:connector-curvature="0" /><path
     id="path200"
     style="fill:none;stroke:#231f20;stroke-width:1.33333325;stroke-linecap:butt;stroke-linejoin:miter;stroke-miterlimit:3.79999995;stroke-dasharray:none;stroke-opacity:1"
     d="M 57.070085,337.80506 H 539.87901"
     inkscape:connector-curvature="0" /><path
     id="path202"
     style="fill:none;stroke:#231f20;stroke-width:1;stroke-linecap:butt;stroke-linejoin:miter;stroke-miterlimit:3.79999995;stroke-dasharray:none;stroke-opacity:1"
     d="m 242.17502,134.816 -61.984,-56.885335"
     inkscape:connector-curvature="0" /><path
     id="path204"
     style="fill:none;stroke:#231f20;stroke-width:1.33333325;stroke-linecap:butt;stroke-linejoin:miter;stroke-miterlimit:3.79999995;stroke-dasharray:none;stroke-opacity:1"
     d="M 232.27368,363.58012 V 340.85039"
     inkscape:connector-curvature="0" /><path
     id="path206"
     style="fill:#231f20;fill-opacity:1;fill-rule:nonzero;stroke:none;stroke-width:0.13333333"
     d="m 236.51502,348.73226 -1.25334,0.45573 -2.988,-8.2068 -2.98666,8.2068 -1.252,-0.45573 4.23866,-11.64853 4.24134,11.64853"
     inkscape:connector-curvature="0" /><path
     id="path218"
     style="fill:none;stroke:#231f20;stroke-width:1.33333325;stroke-linecap:butt;stroke-linejoin:miter;stroke-miterlimit:3.79999995;stroke-dasharray:none;stroke-opacity:1"
     d="m 136.87902,368.32652 v -5.66933"
     inkscape:connector-curvature="0" /><path
     id="path220"
     style="fill:none;stroke:#231f20;stroke-width:1.33333325;stroke-linecap:butt;stroke-linejoin:miter;stroke-miterlimit:3.79999995;stroke-dasharray:none;stroke-opacity:1"
     d="m 217.51902,368.32652 v -5.66933"
     inkscape:connector-curvature="0" /><path
     id="path222"
     style="fill:none;stroke:#231f20;stroke-width:1.33333325;stroke-linecap:butt;stroke-linejoin:miter;stroke-miterlimit:3.79999995;stroke-dasharray:none;stroke-opacity:1"
     d="m 298.15902,368.32652 v -5.66933"
     inkscape:connector-curvature="0" /><path
     id="path224"
     style="fill:none;stroke:#231f20;stroke-width:1.33333325;stroke-linecap:butt;stroke-linejoin:miter;stroke-miterlimit:3.79999995;stroke-dasharray:none;stroke-opacity:1"
     d="m 378.79901,368.32652 v -5.66933"
     inkscape:connector-curvature="0" /><path
     id="path226"
     style="fill:none;stroke:#231f20;stroke-width:1.33333325;stroke-linecap:butt;stroke-linejoin:miter;stroke-miterlimit:3.79999995;stroke-dasharray:none;stroke-opacity:1"
     d="m 459.43901,368.32652 v -5.66933"
     inkscape:connector-curvature="0" /><path
     id="path260"
     style="fill:none;stroke:#231f20;stroke-width:1.33333325;stroke-linecap:square;stroke-linejoin:miter;stroke-miterlimit:4;stroke-dasharray:none;stroke-opacity:1"
     d="M 56.239285,184.336 H 539.87901 M 56.239285,368.32652 H 539.87901 m 0,0 V 184.336 M 56.239285,368.32652 V 184.336"
     inkscape:connector-curvature="0" /><path
     id="path262"
     style="fill:none;stroke:#0e0f0f;stroke-width:1.33333325;stroke-linecap:butt;stroke-linejoin:miter;stroke-miterlimit:3.79999995;stroke-dasharray:none;stroke-opacity:1"
     d="m 57.070085,368.32652 h 4.887467"
     inkscape:connector-curvature="0" /><path
     id="path264"
     style="fill:none;stroke:#0e0f0f;stroke-width:1.33333325;stroke-linecap:butt;stroke-linejoin:miter;stroke-miterlimit:3.79999995;stroke-dasharray:none;stroke-opacity:1"
     d="m 539.87901,368.32652 h -4.89467"
     inkscape:connector-curvature="0" /><path
     id="path266"
     style="fill:none;stroke:#0e0f0f;stroke-width:1.33333325;stroke-linecap:butt;stroke-linejoin:miter;stroke-miterlimit:3.79999995;stroke-dasharray:none;stroke-opacity:1"
     d="m 57.070085,337.80506 h 4.887467"
     inkscape:connector-curvature="0" /><path
     id="path268"
     style="fill:none;stroke:#0e0f0f;stroke-width:1.33333325;stroke-linecap:butt;stroke-linejoin:miter;stroke-miterlimit:3.79999995;stroke-dasharray:none;stroke-opacity:1"
     d="m 539.87901,337.80506 h -4.89467"
     inkscape:connector-curvature="0" /><path
     id="path286"
     style="fill:none;stroke:#0e0f0f;stroke-width:1.33333325;stroke-linecap:butt;stroke-linejoin:miter;stroke-miterlimit:3.79999995;stroke-dasharray:none;stroke-opacity:1"
     d="m 57.070085,185.2 h 4.887467"
     inkscape:connector-curvature="0" /><path
     id="path288"
     style="fill:none;stroke:#0e0f0f;stroke-width:1.33333325;stroke-linecap:butt;stroke-linejoin:miter;stroke-miterlimit:3.79999995;stroke-dasharray:none;stroke-opacity:1"
     d="m 539.87901,185.2 h -4.89467"
     inkscape:connector-curvature="0" /><path
     id="path290"
     style="fill:none;stroke:#0e0f0f;stroke-width:1.33333325;stroke-linecap:butt;stroke-linejoin:miter;stroke-miterlimit:3.79999995;stroke-dasharray:none;stroke-opacity:1"
     d="m 57.070085,368.32652 v -3.01986"
     inkscape:connector-curvature="0" /><path
     id="path292"
     style="fill:none;stroke:#0e0f0f;stroke-width:1.33333325;stroke-linecap:butt;stroke-linejoin:miter;stroke-miterlimit:3.79999995;stroke-dasharray:none;stroke-opacity:1"
     d="m 57.070085,185.2 v 3.016"
     inkscape:connector-curvature="0" /><path
     id="path294"
     style="fill:none;stroke:#0e0f0f;stroke-width:1.33333325;stroke-linecap:butt;stroke-linejoin:miter;stroke-miterlimit:3.79999995;stroke-dasharray:none;stroke-opacity:1"
     d="m 137.55902,368.32652 v -3.01986"
     inkscape:connector-curvature="0" /><path
     id="path296"
     style="fill:none;stroke:#0e0f0f;stroke-width:1.33333325;stroke-linecap:butt;stroke-linejoin:miter;stroke-miterlimit:3.79999995;stroke-dasharray:none;stroke-opacity:1"
     d="m 137.55902,185.2 v 3.016"
     inkscape:connector-curvature="0" /><path
     id="path298"
     style="fill:none;stroke:#0e0f0f;stroke-width:1.33333325;stroke-linecap:butt;stroke-linejoin:miter;stroke-miterlimit:3.79999995;stroke-dasharray:none;stroke-opacity:1"
     d="m 217.97768,368.32652 v -3.01986"
     inkscape:connector-curvature="0" /><path
     id="path300"
     style="fill:none;stroke:#0e0f0f;stroke-width:1.33333325;stroke-linecap:butt;stroke-linejoin:miter;stroke-miterlimit:3.79999995;stroke-dasharray:none;stroke-opacity:1"
     d="m 217.97768,185.2 v 3.016"
     inkscape:connector-curvature="0" /><path
     id="path302"
     style="fill:none;stroke:#0e0f0f;stroke-width:1.33333325;stroke-linecap:butt;stroke-linejoin:miter;stroke-miterlimit:3.79999995;stroke-dasharray:none;stroke-opacity:1"
     d="m 298.47502,368.32652 v -3.01986"
     inkscape:connector-curvature="0" /><path
     id="path304"
     style="fill:none;stroke:#0e0f0f;stroke-width:1.33333325;stroke-linecap:butt;stroke-linejoin:miter;stroke-miterlimit:3.79999995;stroke-dasharray:none;stroke-opacity:1"
     d="m 298.47502,185.2 v 3.016"
     inkscape:connector-curvature="0" /><path
     id="path306"
     style="fill:none;stroke:#0e0f0f;stroke-width:1.33333325;stroke-linecap:butt;stroke-linejoin:miter;stroke-miterlimit:3.79999995;stroke-dasharray:none;stroke-opacity:1"
     d="m 378.96435,368.32652 v -3.01986"
     inkscape:connector-curvature="0" /><path
     id="path308"
     style="fill:none;stroke:#0e0f0f;stroke-width:1.33333325;stroke-linecap:butt;stroke-linejoin:miter;stroke-miterlimit:3.79999995;stroke-dasharray:none;stroke-opacity:1"
     d="m 378.96435,185.2 v 3.016"
     inkscape:connector-curvature="0" /><path
     id="path310"
     style="fill:none;stroke:#0e0f0f;stroke-width:1.33333325;stroke-linecap:butt;stroke-linejoin:miter;stroke-miterlimit:3.79999995;stroke-dasharray:none;stroke-opacity:1"
     d="m 459.38301,368.32652 v -3.01986"
     inkscape:connector-curvature="0" /><path
     id="path312"
     style="fill:none;stroke:#0e0f0f;stroke-width:1.33333325;stroke-linecap:butt;stroke-linejoin:miter;stroke-miterlimit:3.79999995;stroke-dasharray:none;stroke-opacity:1"
     d="m 459.38301,185.2 v 3.016"
     inkscape:connector-curvature="0" /><path
     id="path314"
     style="fill:none;stroke:#0e0f0f;stroke-width:1.33333325;stroke-linecap:butt;stroke-linejoin:miter;stroke-miterlimit:3.79999995;stroke-dasharray:none;stroke-opacity:1"
     d="m 539.87901,368.32652 v -3.01986"
     inkscape:connector-curvature="0" /><path
     id="path316"
     style="fill:none;stroke:#0e0f0f;stroke-width:1.33333325;stroke-linecap:butt;stroke-linejoin:miter;stroke-miterlimit:3.79999995;stroke-dasharray:none;stroke-opacity:1"
     d="m 539.87901,185.2 v 3.016"
     inkscape:connector-curvature="0" /><path
     id="path318"
     style="fill:none;stroke:#0e0f0f;stroke-width:1.33333325;stroke-linecap:butt;stroke-linejoin:miter;stroke-miterlimit:3.79999995;stroke-dasharray:none;stroke-opacity:1"
     d="M 57.070085,185.2 H 539.87901 V 368.32652 H 57.070085 Z"
     inkscape:connector-curvature="0" /><path
     id="path320"
     style="fill:none;stroke:#231f20;stroke-width:1.33333325;stroke-linecap:butt;stroke-linejoin:miter;stroke-miterlimit:3.79999995;stroke-dasharray:none;stroke-opacity:1"
     d="m 57.070085,339.25986 h 63.412405 l 4.89533,-0.24387 h 24.37187 l 4.88666,0.24387 h 4.816 l 4.88667,0.24427 4.89467,0.24373 h 4.888 l 4.89466,0.22027 h 14.58934 l 4.88799,-0.464 4.89334,-0.24427 4.888,-0.70787 4.89466,-0.488 4.808,-0.7068 4.89467,-0.97706 4.88667,-0.7068 4.888,-0.952 4.89466,-0.48814 4.808,-0.70666 4.89467,-0.73187 4.88667,-0.4656 4.89466,-0.24267 4.88667,-0.24373 h 4.888 l 4.81467,0.24373 h 4.888 l 4.89466,0.488 4.88667,0.46307 4.89467,0.48907 4.888,0.46293 4.816,0.48907 4.88666,0.48706 4.888,0.46347 4.89334,0.488 4.888,0.46307 4.89333,0.48906 4.80933,0.24267 4.89467,0.4656 9.77466,0.48653 4.89467,0.24534 4.88667,0.24266 4.81466,0.21974 h 4.888 l 4.89467,0.24426 h 9.77467 l 4.81466,0.24387 h 156.1"
     inkscape:connector-curvature="0" /><path
     id="path322"
     style="fill:none;stroke:#231f20;stroke-width:1.33333325;stroke-linecap:butt;stroke-linejoin:miter;stroke-miterlimit:3.79999995;stroke-dasharray:none;stroke-opacity:1"
     d="m 57.070085,337.80506 4.887467,-0.0489 h 24.371333 l 4.8948,0.0489 h 4.886932 l 4.816133,0.048 4.88654,0.0495 4.89533,-0.0495 h 4.88693 l 4.88694,-0.048 4.89533,-0.1 4.80787,-0.0427 4.89466,-0.0968 4.88667,-0.0975 4.89467,-0.0948 h 4.888 l 4.88666,0.0948 4.816,0.0975 4.88667,0.13947 4.89467,0.148 4.888,0.19107 4.89466,0.2396 4.88667,0.288 4.81467,0.14173 h 4.888 l 4.88799,-0.0921 4.89334,-0.19587 4.888,-0.33227 4.89466,-0.5276 4.808,-0.76826 4.89467,-0.90934 4.88667,-1.00786 4.888,-1.05107 4.89466,-1.1052 4.808,-1.1 4.89467,-1.2464 4.88667,-1.00667 4.89466,-0.76826 4.88667,-0.66934 4.888,-0.52813 4.81467,-0.3812 4.888,-0.19067 4.89466,0.048 4.88667,0.19214 4.89467,0.38133 4.888,0.38533 4.816,0.524 4.88666,0.62547 4.888,0.7172 4.89334,0.71987 4.888,0.6692 4.89333,0.7188 4.80933,0.72026 4.89467,0.61987 9.77466,1.15467 4.89467,0.52293 4.88667,0.43427 4.81466,0.38133 4.888,0.3828 4.89467,0.2864 9.77467,0.48027 4.81466,0.19066 4.88667,0.1468 4.896,0.1412 4.88667,0.0973 4.89466,0.0948 4.88667,0.0479 4.81733,0.0975 4.88667,0.0489 h 4.88667 l 4.896,0.0427 h 4.88666 l 4.89334,0.0511 h 14.59066 l 4.88667,0.0489 h 82.90533"
     inkscape:connector-curvature="0" /><path
     id="path324"
     style="fill:none;stroke:#231f20;stroke-width:1.33333325;stroke-linecap:butt;stroke-linejoin:miter;stroke-miterlimit:3.79999995;stroke-dasharray:none;stroke-opacity:1"
     d="m 57.070085,337.80506 4.887467,-0.0489 h 14.597333 l 4.887066,-0.0511 4.886934,0.0511 h 4.8948 l 4.886932,0.0489 4.816133,0.048 4.88654,0.0495 h 4.89533 l 4.88693,-0.0495 h 4.88694 l 4.89533,-0.048 4.80787,-0.1 4.89466,-0.0916 4.88667,-0.14533 4.89467,-0.14267 4.888,-0.0495 4.88666,0.0495 4.816,0.0479 4.88667,0.14266 4.89467,0.18907 4.888,0.24013 4.89466,0.436 4.88667,0.48014 4.81467,0.33186 4.888,0.1468 4.88799,0.0923 4.89334,0.0489 4.888,-0.19066 4.89466,-0.57707 4.808,-1.0084 4.89467,-1.19573 4.88667,-1.48134 4.888,-1.6776 4.89466,-1.87186 4.808,-2.1572 4.89467,-2.3948 4.88667,-2.15734 4.89466,-1.86666 4.88667,-1.8188 4.888,-1.7744 4.81467,-1.488 4.888,-1.05054 4.89466,-0.7188 4.88667,-0.38546 4.89467,-0.14107 4.888,0.18907 4.816,0.43226 4.88666,0.76667 4.888,0.95733 4.89334,1.05574 4.888,1.10146 4.89333,1.2948 4.80933,1.43707 4.89467,1.29053 4.88666,1.24854 4.888,1.29426 4.89467,1.2468 4.88667,1.14947 4.81466,1.05053 4.888,0.95894 4.89467,0.91453 4.88667,0.8104 4.888,0.7188 4.81466,0.62653 4.88667,0.57187 4.896,0.47867 4.88667,0.43066 4.89466,0.3376 4.88667,0.33747 4.81733,0.24013 4.88667,0.23854 4.88667,0.19053 4.896,0.1428 4.88666,0.14627 4.89334,0.0923 4.80933,0.0973 4.89467,0.0948 9.77333,0.0975 4.896,0.0479 4.88666,0.0489 h 4.81467 l 4.888,0.0427 h 4.89467 l 4.88666,0.0511 h 24.372 l 4.89467,0.0489 h 24.372"
     inkscape:connector-curvature="0" /><path
     id="path330"
     style="fill:none;stroke:#231f20;stroke-width:1.33333325;stroke-linecap:butt;stroke-linejoin:miter;stroke-miterlimit:3.79999995;stroke-dasharray:none;stroke-opacity:1"
     d="m 57.119019,339.23746 2.653066,-0.26573"
     inkscape:connector-curvature="0" /><path
     id="path332"
     style="fill:none;stroke:#231f20;stroke-width:1.33333325;stroke-linecap:butt;stroke-linejoin:miter;stroke-miterlimit:3.79999995;stroke-dasharray:5.37099987, 5.37099987;stroke-dashoffset:0;stroke-opacity:1"
     d="m 65.132485,338.74933 h 55.398935 l 4.89427,-0.48947 4.808,0.48947 h 14.67733 l 4.88667,0.48813 h 29.26666 l 4.88667,-0.48813 4.816,-0.48947 h 4.888 l 4.88666,-0.49067 4.89467,-0.4412 4.88667,-0.97866 4.89466,-0.48947 h 4.808 l 4.89467,-0.48907 4.888,-0.4428 h 24.372 l 4.89467,0.4428 h 4.88666 l 4.88667,0.48907 4.816,0.48947 h 4.88667 l 4.89466,0.48906 4.88667,0.4896 h 4.896 l 4.88667,0.4412 h 4.816 l 4.888,0.49067 h 9.78133 l 4.88667,0.48947 h 214.08799"
     inkscape:connector-curvature="0" /><path
     id="path334"
     style="fill:none;stroke:#231f20;stroke-width:1.33333325;stroke-linecap:butt;stroke-linejoin:miter;stroke-miterlimit:3.79999995;stroke-dasharray:none;stroke-opacity:1"
     d="m 537.26168,338.74933 h 2.66666"
     inkscape:connector-curvature="0" /><path
     id="path336"
     style="fill:none;stroke:#0e0f0f;stroke-width:1.33333325;stroke-linecap:butt;stroke-linejoin:miter;stroke-miterlimit:3.79999995;stroke-dasharray:none;stroke-opacity:1"
     d="M 57.070085,185.2 H 539.87901 V 368.32652 H 57.070085 Z"
     inkscape:connector-curvature="0" /><text
     style="font-variant:normal;font-weight:normal;font-size:18.66666603px;font-family:'Times New Roman';-inkscape-font-specification:TimesNewRomanPSMT;writing-mode:lr-tb;fill:#231f20;fill-opacity:1;fill-rule:nonzero;stroke:none;stroke-width:1.33333325"
     id="text346"
     x="280.47766"
     y="357.06238"><tspan
       x="280.47766 295.00034 303.28833 311.57632 320.90967 327.12567 333.34167 338.53101 346.819 352.00833 361.34167 380.00833 389.34167"
       y="357.06238"
       id="tspan344"
       style="stroke-width:1.33333325">mean-field 10</tspan></text>
<path
     id="path348"
     style="fill:none;stroke:#231f20;stroke-width:0.66666663;stroke-linecap:butt;stroke-linejoin:miter;stroke-miterlimit:3.79999995;stroke-dasharray:none;stroke-opacity:1"
     d="m 368.41235,356.04679 7.55866,-7.5588"
     inkscape:connector-curvature="0" /><path
     id="path350"
     style="fill:none;stroke:#231f20;stroke-width:0.66666663;stroke-linecap:butt;stroke-linejoin:miter;stroke-miterlimit:3.79999995;stroke-dasharray:none;stroke-opacity:1"
     d="m 375.97101,356.04679 -7.55866,-7.5588"
     inkscape:connector-curvature="0" /><path
     id="path352"
     style="fill:none;stroke:#231f20;stroke-width:1;stroke-linecap:butt;stroke-linejoin:miter;stroke-miterlimit:3.79999995;stroke-dasharray:none;stroke-opacity:1"
     d="m 258.30302,334.92799 18.872,20.3464"
     inkscape:connector-curvature="0" /><path
     id="path356"
     style="fill:none;stroke:#231f20;stroke-width:1.33333325;stroke-linecap:butt;stroke-linejoin:miter;stroke-miterlimit:3.79999995;stroke-dasharray:none;stroke-opacity:1"
     d="m 56.560619,159.51733 4.8948,-1.25333 4.902133,-0.81467 4.821866,-0.388 h 4.894267 l 4.902533,0.33733 4.894267,0.576 4.902666,0.772 4.821336,0.91334 4.894803,0.91866 4.90213,0.91467 4.90253,0.72133 4.89427,0.53067 4.90267,0.24133 4.82133,-0.0493 4.8948,-0.432 4.90267,-0.772 4.89466,-1.204 4.90134,-1.592 4.82266,-1.876 4.89334,-2.21733 4.90266,-2.50134 4.90267,-2.69733 4.89467,-2.79067 4.82133,-2.93866 4.90267,-2.93734 4.89466,-2.84133 4.90134,-2.79467 4.89466,-2.552 4.82267,-2.40666 4.90133,-2.11734 4.89467,-1.83333 4.90266,-1.48933 4.90267,-1.15867 4.81333,-0.86533 4.90267,-0.48134 4.90267,-0.192 4.89333,0.0933 4.90267,0.388 4.89466,0.67333 4.82134,0.86533 4.90266,1.06134 4.89467,1.252 4.90267,1.396 4.90266,1.44533 4.81334,1.54267 9.804,3.17466 4.89466,1.54134 4.90267,1.588 4.82133,1.49333 4.89467,1.44533 4.90267,1.39467 4.89466,1.30267 4.90267,1.204 4.82133,1.10533 4.89467,1.06133 4.90133,0.91467 4.90267,0.86933 4.89466,0.76667 4.82134,0.72267 4.90266,0.57866 4.89467,0.58 4.90267,0.48134 4.89466,0.43333 4.90134,0.33333 4.82266,0.34 4.89334,0.24 4.90266,0.24134 4.90267,0.192 4.89467,0.19066 4.82133,0.148 4.90267,0.0933 4.89466,0.14666 4.90267,0.0493 4.89333,0.0933 4.82267,0.0493 4.90133,0.0493 4.89467,0.0493 h 4.90267 l 4.90266,0.044 h 4.81334 l 4.90266,0.0493 h 14.69867 l 4.82266,0.0493 h 63.52934"
     inkscape:connector-curvature="0" /><path
     id="path358"
     style="fill:none;stroke:#231f20;stroke-width:1.33333325;stroke-linecap:butt;stroke-linejoin:miter;stroke-miterlimit:3.79999995;stroke-dasharray:none;stroke-opacity:1"
     d="m 56.560619,151.572 4.8948,-1.30267 4.902133,-0.72133 4.821866,-0.14267 4.894267,0.48133 4.902533,1.06134 4.894267,1.53733 4.902666,1.976 4.821336,2.35867 4.894803,2.50533 4.90213,2.64933 4.90253,2.50134 4.89427,2.36266 4.90267,1.97067 4.82133,1.54267 4.8948,0.91333 4.90267,0.24133 4.89466,-0.52933 4.90134,-1.29867 4.82266,-2.07333 4.89334,-2.88933 4.90266,-3.612 4.90267,-4.33334 4.89467,-4.90933 4.82133,-5.39467 4.90267,-5.77866 4.89466,-6.068 4.90134,-6.16267 4.89466,-6.16133 4.82267,-6.02 4.90133,-5.77867 4.89467,-5.39467 4.90266,-4.95733 4.90267,-4.433332 4.81333,-3.802667 4.90267,-3.178666 4.90267,-2.506667 4.89333,-1.778666 4.90267,-1.110667 4.89466,-0.481333 4.82134,0.196 4.90266,0.816 4.89467,1.302666 4.90267,1.828 4.90266,2.216 4.81334,2.598667 4.90266,2.889333 4.90134,3.130667 4.89466,3.277335 4.90267,3.37066 4.82133,3.464 4.89467,3.42 4.90267,3.42 4.89466,3.32134 4.90267,3.22933 4.82133,3.08 4.89467,2.93867 4.90133,2.74266 4.90267,2.59867 4.89466,2.364 4.82134,2.21067 4.90266,2.024 4.89467,1.828 4.90267,1.64133 4.89466,1.48933 4.90134,1.30134 4.82266,1.20533 4.89334,1.01067 4.90266,0.91466 4.90267,0.82134 4.89467,0.672 4.82133,0.624 4.90267,0.48266 4.89466,0.432 4.90267,0.388 4.89333,0.33467 4.82267,0.24 4.90133,0.24133 4.89467,0.196 9.80533,0.28534 4.81334,0.0987 4.90266,0.0973 4.90267,0.0933 4.89466,0.0493 4.90134,0.0493 4.82266,0.0493 h 4.89334 l 4.90266,0.044 h 4.89467 l 4.90267,0.0493 h 14.61866 l 4.90134,0.0493 h 24.416"
     inkscape:connector-curvature="0" /><path
     id="path360"
     style="fill:none;stroke:#231f20;stroke-width:1.33333325;stroke-linecap:butt;stroke-linejoin:miter;stroke-miterlimit:3.79999995;stroke-dasharray:none;stroke-opacity:1"
     d="m 56.560619,152.392 4.8948,-1.30134 4.902133,-0.91466 4.821866,-0.53067 h 4.894267 l 4.902533,0.48133 4.894267,0.86534 4.902666,1.35066 4.821336,1.73467 4.894803,1.97067 4.90213,2.216 4.90253,2.26533 4.89427,2.216 4.90267,2.11867 4.82133,1.77866 4.8948,1.4 4.90267,0.91467 4.89466,0.24133 4.90134,-0.38933 4.82266,-1.15467 4.89334,-1.87733 4.90266,-2.69733 4.90267,-3.464 4.89467,-4.24134 4.82133,-4.864 4.90267,-5.48933 4.89466,-5.92133 4.90134,-6.35734 4.89466,-6.59466 4.82267,-6.74134 4.90133,-6.79066 4.89467,-6.6 4.90266,-6.402669 4.90267,-6.068 4.81333,-5.586666 4.90267,-5.056 4.90267,-4.428 4.89333,-3.758667 4.90267,-3.031999 4.89466,-2.314667 4.82134,-1.586667 4.90266,-0.821333 4.89467,-0.141333 4.90267,0.530666 4.90266,1.204 4.81334,1.733334 4.90266,2.261333 4.90134,2.746666 4.89466,3.08 4.90267,3.42 4.82133,3.705334 4.89467,3.851999 4.90267,3.952 4.89466,4.042667 4.90267,4.044002 4.82133,4 4.89467,3.94533 4.90133,3.808 4.90267,3.656 4.89466,3.46933 4.82134,3.32267 4.90266,3.12933 4.89467,2.88934 4.90267,2.69866 4.89466,2.456 4.90134,2.26134 4.82266,2.072 4.89334,1.87866 4.90266,1.636 4.90267,1.54267 4.89467,1.29733 4.82133,1.204 4.90267,1.06134 4.89466,0.91333 4.90267,0.772 4.89333,0.72133 4.82267,0.58 4.90133,0.52534 4.89467,0.43866 4.90267,0.38267 4.90266,0.33867 4.81334,0.28533 4.90266,0.196 4.90267,0.192 4.89466,0.192 4.90134,0.14267 4.82266,0.0987 4.89334,0.0973 4.90266,0.0453 4.89467,0.0973 9.80533,0.0987 h 4.81334 l 4.90266,0.044 h 4.90134 l 4.89466,0.0493 h 19.52134"
     inkscape:connector-curvature="0" /><path
     id="path362"
     style="fill:none;stroke:#231f20;stroke-width:2.66666651;stroke-linecap:butt;stroke-linejoin:miter;stroke-miterlimit:3.79999995;stroke-dasharray:none;stroke-opacity:1"
     d="m 56.560619,155.47333 4.8948,-1.636 4.902133,-1.4 4.821866,-1.10667 4.894267,-0.72133 4.902533,-0.29067 4.894267,0.148 4.902666,0.57467 4.821336,1.012 4.894803,1.34667 4.90213,1.73466 4.90253,1.92667 4.89427,2.16667 4.90267,2.16666 4.82133,2.11734 4.8948,1.976 4.90267,1.636 4.89466,1.204 4.90134,0.72133 4.82266,0.0493 4.89334,-0.672 4.90266,-1.49466 4.90267,-2.26 4.89467,-3.17867 4.82133,-4.044 4.90267,-4.86533 4.89466,-5.636 4.90134,-6.35334 4.89466,-6.98266 4.82267,-7.512 4.90133,-7.89734 4.89467,-8.18666 4.90266,-8.33334 4.90267,-8.279995 4.81333,-8.092 4.90267,-7.848 4.90267,-7.464 4.89333,-6.889333 4.90267,-6.26 4.89466,-5.581333 4.82134,-4.772 4.90266,-3.945333 4.89467,-3.081333 4.90267,-2.166667 4.90266,-1.302667 4.81334,-0.432 4.90266,0.384 4.90134,1.154667 4.89466,1.925333 4.90267,2.556 4.82133,3.178667 4.89467,3.705333 4.90267,4.141333 4.89466,4.526667 4.90267,4.814666 4.82133,5.006667 4.89467,5.154667 4.90133,5.249333 4.90267,5.202666 4.89466,5.198667 4.82134,5.105333 4.90266,4.958667 4.89467,4.814665 4.90267,4.57467 4.89466,4.33466 4.90134,4.14267 4.82266,3.852 4.89334,3.61067 4.90266,3.32266 4.90267,3.08134 4.89467,2.844 4.82133,2.55066 4.90267,2.30934 4.89466,2.12266 4.90267,1.87734 4.89333,1.68533 4.82267,1.49333 4.90133,1.29734 4.89467,1.204 4.90267,1.012 4.90266,0.86533 4.81334,0.77067 4.90266,0.67333 4.90267,0.58 4.89466,0.53067 4.90134,0.43333 4.82266,0.33867 4.89334,0.33333 4.90266,0.24133 4.89467,0.24134 4.90267,0.14666 4.90266,0.192 4.81334,0.0933 9.804,0.196 4.89466,0.0933 4.90267,0.0493 4.82133,0.0493 4.89467,0.0493 h 4.90267"
     inkscape:connector-curvature="0" /><path
     id="path364"
     style="fill:none;stroke:#231f20;stroke-width:1.33333325;stroke-linecap:butt;stroke-linejoin:miter;stroke-miterlimit:3.79999995;stroke-dasharray:none;stroke-opacity:1"
     d="m 56.560619,156.28933 4.8948,-0.816 4.902133,-0.964 4.821866,-1.15333 4.894267,-1.204 4.902533,-1.25334 4.894267,-1.15466 4.902666,-1.012 4.821336,-0.772 4.894803,-0.48134 4.90213,-0.0987 4.90253,0.34 4.89427,0.77066 4.90267,1.15467 4.82133,1.63733 4.8948,1.97467 4.90267,2.30933 4.89466,2.50534 4.90134,2.64933 4.82266,2.59867 4.89334,2.45733 4.90266,2.16667 4.90267,1.784 4.89467,1.204 4.82133,0.52533 4.90267,-0.24 4.89466,-1.10667 4.90134,-2.068 4.89466,-3.036 4.82267,-4.04533 4.90133,-5.00667 4.89467,-5.92533 4.90266,-6.83467 4.90267,-7.612 4.81333,-8.32933 4.90267,-8.80933 4.90267,-9.248 4.89333,-9.533335 4.90267,-9.586667 4.89466,-9.532 4.82134,-9.291999 4.90266,-8.958667 4.89467,-8.474666 4.90267,-7.804 4.90266,-7.076 4.81334,-6.26 4.90266,-5.345333 4.90134,-4.384 4.89466,-3.42 4.90267,-2.408 4.82133,-1.444 4.89467,-0.432 4.90267,0.530667 4.89466,1.345333 4.90267,2.216 4.82133,2.988 4.89467,3.661333 4.90133,4.236 4.90267,4.716 4.89466,5.156 4.82134,5.537333 4.90266,5.729333 4.89467,5.876 4.90267,6.02 4.89466,6.018667 4.90134,5.970666 4.82266,5.921333 4.89334,5.733333 4.90266,5.538667 4.90267,5.34 4.89467,5.106662 4.82133,4.81467 4.90267,4.52667 4.89466,4.24 4.90267,3.94533 4.89333,3.66133 4.82267,3.32134 4.90133,3.08666 4.89467,2.79067 4.90267,2.50533 4.90266,2.31067 4.81334,2.024 4.90266,1.828 4.90267,1.636 4.89466,1.444 4.90134,1.25333 4.82266,1.10534 4.89334,0.96266 4.90266,0.87067 4.89467,0.72267 4.90267,0.624 4.90266,0.53066 4.81334,0.48134 4.90266,0.38266 4.90134,0.34 4.89466,0.28934 4.90267,0.24133 4.82133,0.19067 4.89467,0.192 4.90267,0.148"
     inkscape:connector-curvature="0" /><path
     id="path366"
     style="fill:none;stroke:#231f20;stroke-width:1.33333325;stroke-linecap:butt;stroke-linejoin:miter;stroke-miterlimit:3.79999995;stroke-dasharray:3.9999999, 3.9999999;stroke-dashoffset:0;stroke-opacity:1"
     d="m 56.560619,164.43066 4.8948,-1.012 4.902133,-0.53066 4.821866,-0.0987 4.894267,0.24133 4.902533,0.43734 4.894267,0.52533 4.902666,0.53067 4.821336,0.38933 4.894803,0.19067 4.90213,-0.048 4.90253,-0.48267 4.89427,-0.77067 4.90267,-1.204 4.82133,-1.588 4.8948,-1.92533 4.90267,-2.26533 4.89466,-2.50134 4.90134,-2.648 4.82266,-2.796 4.89334,-2.84 4.90266,-2.792 4.90267,-2.648 4.89467,-2.556 4.82133,-2.26 4.90267,-1.97466 4.89466,-1.73467 4.90134,-1.34667 4.89466,-1.012 4.82267,-0.67333 4.90133,-0.388 h 4.89467 l 4.90266,0.24133 4.90267,0.53067 4.81333,0.77067 4.90267,0.96266 4.90267,1.10667 4.89333,1.204 4.90267,1.35067 4.89466,1.34666 4.82134,1.444 4.90266,1.396 4.89467,1.35067 4.90267,1.34667 4.90266,1.30266 4.81334,1.20267 4.90266,1.10667 4.90134,1.06133 4.89466,0.96267 4.90267,0.86533 4.82133,0.77067 4.89467,0.72266 4.90267,0.624 4.89466,0.53067 4.90267,0.48133 4.82133,0.43334 4.89467,0.388 4.90133,0.28533 4.90267,0.28933 4.89466,0.192 4.82134,0.196 4.90266,0.14267 4.89467,0.14267 4.90267,0.0987 4.89466,0.0973 4.90134,0.0933 4.82266,0.0493 4.89334,0.0493 4.90266,0.0493 4.90267,0.044 h 4.89467 l 4.82133,0.0493 h 19.59333 l 4.82267,0.0493 h 112.368"
     inkscape:connector-curvature="0" /><rect
     style="fill:#ffffff;fill-opacity:1;fill-rule:evenodd;stroke:none;stroke-width:2.82670069;stroke-miterlimit:3.79999995;stroke-dasharray:none;stroke-dashoffset:0;stroke-opacity:1"
     id="rect1406"
     width="537.70099"
     height="183.90424"
     x="12.307369"
     y="185.98393" /><g
     id="g1413"
     transform="translate(101.5013,-275.85104)"><text
       y="482.24957"
       x="-59.06041"
       id="text244"
       style="font-variant:normal;font-weight:normal;font-size:21.33333206px;font-family:'Times New Roman';-inkscape-font-specification:TimesNewRomanPSMT;writing-mode:lr-tb;fill:#231f20;fill-opacity:1;fill-rule:nonzero;stroke:none;stroke-width:1.33333325"><tspan
         style="stroke-width:1.33333325"
         id="tspan238"
         y="482.24957"
         x="-59.06041 -48.393745 -43.060413 21.129671 31.796343 37.129673">3.04.0</tspan><tspan
         style="stroke-width:1.33333325"
         id="tspan240"
         y="502.25891"
         x="169.57423 174.90758 182.01158 189.11559 205.71291"> [fm]</tspan><tspan
         style="stroke-width:1.33333325"
         id="tspan242"
         y="482.24957"
         x="101.32118 111.98784 117.32117 181.51082 192.17751 197.51082 261.70157 272.36826 277.70157 341.89056 352.55722 357.89056 422.0813 432.74799 438.0813">5.06.07.08.09.0</tspan></text>
<path
       inkscape:connector-curvature="0"
       d="m 161.82652,490.21373 c 0,-0.4708 0,-0.7068 0.472,-0.7068 0.236,0 0.70666,0 1.17866,0 1.416,0 3.53867,0 3.53867,1.88693 0,0.7224 -0.472,1.90267 -1.17867,2.60947 -0.472,0.47293 -1.416,1.1796 -3.30266,1.1796 h -2.12267 z m 2.59466,5.2052 c 1.888,-0.47187 4.24667,-1.65213 4.24667,-3.77347 0,-1.43173 -1.652,-2.84533 -4.24667,-2.84533 h -5.42533 c -0.236,0 -0.472,0 -0.472,0.47093 0,0.23587 0.236,0.23587 0.472,0.23587 0,0 0.472,0 0.708,0 0.472,0 0.472,0 0.472,0.236 0,0.23587 0,0.23587 0,0.4708 l -2.60933,10.15883 c -0.236,0.70781 -0.236,0.94376 -1.652,0.94376 -0.47067,0 -0.47067,0 -0.47067,0.47082 0,0.23595 0.23467,0.23595 0.23467,0.23595 0.472,0 1.888,-0.23595 2.37466,-0.23595 0.47067,0 1.88667,0.23595 2.35867,0.23595 0.23467,0 0.47067,0 0.47067,-0.47188 0,-0.23489 -0.236,-0.23489 -0.47067,-0.23489 -0.708,0 -1.416,0 -1.416,-0.23595 0,-0.23593 0.236,-0.23593 0.236,-0.47187 l 1.18,-4.95365 h 2.35867 c 1.65066,0 1.88666,0.94428 1.88666,1.65104 0,0.23699 0,0.94376 -0.236,1.41459 0,0.47344 -0.236,1.17969 -0.236,1.65208 0,1.88802 2.35867,1.88802 2.59467,1.88802 1.65067,0 2.12267,-1.88802 2.12267,-2.12396 0,-0.23645 -0.23467,-0.23645 -0.23467,-0.23645 0,0 0,0.23645 -0.23733,0.23645 -0.47067,1.41459 -1.17867,1.88647 -1.65067,1.88647 -0.708,0 -0.708,-0.47188 -0.708,-1.17865 0,-0.70782 0,-1.65052 0.23733,-2.35886 0,-0.23593 0,-0.47188 0,-0.70781 0,-1.65052 -1.416,-2.12292 -1.888,-2.35884"
       style="fill:#0e0f0f;fill-opacity:1;fill-rule:nonzero;stroke:none;stroke-width:0.13333333"
       id="path246" /></g></svg>