<?xml version="1.0" encoding="UTF-8" standalone="no"?>
<!-- Created with Inkscape (http://www.inkscape.org/) -->

<svg
   xmlns:dc="http://purl.org/dc/elements/1.1/"
   xmlns:cc="http://creativecommons.org/ns#"
   xmlns:rdf="http://www.w3.org/1999/02/22-rdf-syntax-ns#"
   xmlns:svg="http://www.w3.org/2000/svg"
   xmlns="http://www.w3.org/2000/svg"
   xmlns:sodipodi="http://sodipodi.sourceforge.net/DTD/sodipodi-0.dtd"
   xmlns:inkscape="http://www.inkscape.org/namespaces/inkscape"
   version="1.1"
   id="svg2"
   xml:space="preserve"
   width="254.73466"
   height="175.10304"
   viewBox="0 0 254.73466 175.10304"
   sodipodi:docname="chong_amp.svg"
   inkscape:version="0.92.5 (2060ec1f9f, 2020-04-08)"><metadata
     id="metadata8"><rdf:RDF><cc:Work
         rdf:about=""><dc:format>image/svg+xml</dc:format><dc:type
           rdf:resource="http://purl.org/dc/dcmitype/StillImage" /><dc:title></dc:title></cc:Work></rdf:RDF></metadata><defs
     id="defs6"><clipPath
       clipPathUnits="userSpaceOnUse"
       id="clipPath88"><path
         d="M 257.167,725.139 H 68.076 v -136.41 h 189.091 z"
         id="path86"
         inkscape:connector-curvature="0" /></clipPath><clipPath
       clipPathUnits="userSpaceOnUse"
       id="clipPath98"><path
         d="M 100.332,721.591 H 253.181 V 607.859 H 100.332 Z"
         id="path96"
         inkscape:connector-curvature="0"
         style="clip-rule:evenodd" /></clipPath><clipPath
       clipPathUnits="userSpaceOnUse"
       id="clipPath740"><path
         d="M 521.144,725.046 H 330.093 V 593.724 h 191.051 z"
         id="path738"
         inkscape:connector-curvature="0" /></clipPath><clipPath
       clipPathUnits="userSpaceOnUse"
       id="clipPath750"><path
         d="M 367.515,724.639 H 517.24 V 613.232 H 367.515 Z"
         id="path748"
         inkscape:connector-curvature="0"
         style="clip-rule:evenodd" /></clipPath></defs><sodipodi:namedview
     pagecolor="#ffffff"
     bordercolor="#666666"
     borderopacity="1"
     objecttolerance="10"
     gridtolerance="10"
     guidetolerance="10"
     inkscape:pageopacity="0"
     inkscape:pageshadow="2"
     inkscape:window-width="1920"
     inkscape:window-height="1018"
     id="namedview4"
     showgrid="false"
     inkscape:zoom="1.7878788"
     inkscape:cx="-30.373203"
     inkscape:cy="22.785734"
     inkscape:window-x="0"
     inkscape:window-y="0"
     inkscape:window-maximized="1"
     inkscape:current-layer="g10"
     fit-margin-top="0"
     fit-margin-left="0"
     fit-margin-right="0"
     fit-margin-bottom="0" /><g
     id="g10"
     inkscape:groupmode="layer"
     inkscape:label="PhysRevC.81.064319"
     transform="matrix(1.3333333,0,0,-1.3333333,-440.12399,966.73503)"><text
       transform="matrix(1,0,0,-1,242.41253,570.7921)"
       style="font-style:italic;font-variant:normal;font-weight:normal;font-size:8.96640015px;font-family:MTMI;-inkscape-font-specification:MTMI;writing-mode:lr-tb;fill:#000000;fill-opacity:1;fill-rule:nonzero;stroke:none"
       id="text190"><tspan
         x="0"
         y="0"
         id="tspan188"></tspan></text>
<text
       transform="matrix(1,0,0,-1,81.918455,304.96801)"
       style="font-style:italic;font-variant:normal;font-weight:normal;font-size:9.96259975px;font-family:MTMI;-inkscape-font-specification:MTMI;writing-mode:lr-tb;fill:#000000;fill-opacity:1;fill-rule:nonzero;stroke:none"
       id="text466"><tspan
         x="0"
         y="0"
         id="tspan464"></tspan></text>
<path
       d="m 366.365,607.632 c 0,-0.926 0.109,-1.542 0.326,-1.849 0.216,-0.306 0.483,-0.46 0.802,-0.46 0.318,0 0.585,0.154 0.802,0.462 0.217,0.308 0.325,0.924 0.325,1.847 0,0.929 -0.108,1.546 -0.325,1.851 -0.217,0.305 -0.487,0.459 -0.81,0.459 -0.318,0 -0.572,-0.135 -0.762,-0.405 -0.238,-0.344 -0.358,-0.978 -0.358,-1.905 z m -0.711,0 c 0,0.668 0.068,1.204 0.206,1.611 0.137,0.407 0.34,0.72 0.611,0.941 0.271,0.22 0.611,0.331 1.022,0.331 0.303,0 0.568,-0.061 0.796,-0.183 0.229,-0.122 0.417,-0.298 0.566,-0.527 0.149,-0.23 0.265,-0.51 0.35,-0.839 0.085,-0.33 0.127,-0.774 0.127,-1.334 0,-0.662 -0.068,-1.196 -0.204,-1.603 -0.136,-0.407 -0.339,-0.72 -0.61,-0.943 -0.27,-0.222 -0.612,-0.333 -1.025,-0.333 -0.544,0 -0.971,0.195 -1.281,0.586 -0.372,0.469 -0.558,1.233 -0.558,2.293"
       style="fill:#211e1f;fill-opacity:1;fill-rule:nonzero;stroke:none"
       id="path624"
       inkscape:connector-curvature="0" /><path
       d="m 394.248,605.516 c 0,-0.666 0,0 0,-0.666 -3.729,0 0,0 -3.729,0 -0.005,0.167 0.022,0.327 0.081,0.481 0.095,0.254 0.247,0.504 0.456,0.75 0.209,0.246 0.511,0.531 0.906,0.855 0.613,0.503 1.028,0.901 1.243,1.195 0.215,0.294 0.323,0.571 0.323,0.833 0,0.274 -0.098,0.506 -0.294,0.694 -0.197,0.189 -0.453,0.284 -0.768,0.284 -0.333,0 -0.6,-0.101 -0.8,-0.301 -0.2,-0.199 -0.301,-0.477 -0.304,-0.831 -0.712,0.073 0,0 -0.712,0.073 0.048,0.531 0.232,0.935 0.55,1.214 0.318,0.278 0.745,0.418 1.281,0.418 0.542,0 0.97,-0.151 1.285,-0.45 0.316,-0.3 0.474,-0.672 0.474,-1.117 0,-0.225 -0.046,-0.447 -0.139,-0.666 -0.092,-0.217 -0.245,-0.447 -0.46,-0.688 -0.214,-0.241 -0.57,-0.572 -1.067,-0.993 -0.416,-0.349 -0.683,-0.585 -0.801,-0.71 -0.118,-0.124 -0.215,-0.249 -0.292,-0.375 2.767,0 0,0 2.767,0"
       style="fill:#211e1f;fill-opacity:1;fill-rule:nonzero;stroke:none"
       id="path626"
       inkscape:connector-curvature="0" /><path
       d="m 417.782,606.835 c 0,2.544 0,0 0,2.544 -1.766,-2.544 0,0 -1.766,-2.544 1.766,0 0,0 1.766,0 z m 0,-1.985 c 0,1.35 0,0 0,1.35 -2.447,0 0,0 -2.447,0 0,0.635 0,0 0,0.635 2.574,3.656 0,0 2.574,3.656 0.565,0 0,0 0.565,0 0,-3.656 0,0 0,-3.656 0.762,0 0,0 0.762,0 0,-0.635 0,0 0,-0.635 -0.762,0 0,0 -0.762,0 0,-1.35 0,0 0,-1.35 -0.692,0 0,0 -0.692,0"
       style="fill:#211e1f;fill-opacity:1;fill-rule:nonzero;stroke:none"
       id="path628"
       inkscape:connector-curvature="0" /><path
       d="m 441.282,606.678 c 0,-0.238 0.05,-0.467 0.151,-0.686 0.102,-0.217 0.243,-0.384 0.425,-0.498 0.183,-0.114 0.374,-0.171 0.574,-0.171 0.292,0 0.543,0.119 0.754,0.354 0.21,0.236 0.316,0.556 0.316,0.963 0,0.389 -0.104,0.696 -0.312,0.921 -0.208,0.224 -0.47,0.337 -0.785,0.337 -0.312,0 -0.578,-0.113 -0.797,-0.337 -0.218,-0.225 -0.326,-0.519 -0.326,-0.883 z m 2.828,2.432 c -0.689,-0.054 0,0 -0.689,-0.054 -0.062,0.272 -0.149,0.469 -0.262,0.593 -0.188,0.198 -0.418,0.296 -0.692,0.296 -0.221,0 -0.415,-0.061 -0.582,-0.184 -0.217,-0.159 -0.389,-0.392 -0.515,-0.697 -0.126,-0.305 -0.192,-0.741 -0.196,-1.305 0.167,0.254 0.371,0.442 0.612,0.566 0.241,0.123 0.493,0.185 0.758,0.185 0.461,0 0.854,-0.17 1.179,-0.51 0.325,-0.341 0.487,-0.779 0.487,-1.318 0,-0.355 -0.076,-0.684 -0.229,-0.988 -0.153,-0.303 -0.363,-0.537 -0.63,-0.698 -0.266,-0.162 -0.569,-0.243 -0.908,-0.243 -0.577,0 -1.048,0.213 -1.412,0.638 -0.364,0.424 -0.546,1.124 -0.546,2.098 0,1.091 0.201,1.884 0.604,2.379 0.351,0.431 0.825,0.647 1.42,0.647 0.444,0 0.807,-0.124 1.09,-0.373 0.285,-0.249 0.454,-0.593 0.511,-1.032"
       style="fill:#211e1f;fill-opacity:1;fill-rule:nonzero;stroke:none"
       id="path630"
       inkscape:connector-curvature="0" /><path
       d="m 466.111,606.478 c 0,-0.198 0.047,-0.389 0.141,-0.574 0.093,-0.184 0.233,-0.328 0.418,-0.429 0.184,-0.101 0.382,-0.152 0.595,-0.152 0.331,0 0.605,0.107 0.82,0.32 0.216,0.213 0.324,0.483 0.324,0.811 0,0.334 -0.111,0.61 -0.333,0.828 -0.223,0.218 -0.5,0.327 -0.833,0.327 -0.326,0 -0.596,-0.108 -0.811,-0.323 -0.214,-0.216 -0.321,-0.485 -0.321,-0.808 z m 0.224,2.605 c 0,-0.266 0.086,-0.485 0.258,-0.654 0.171,-0.169 0.394,-0.254 0.669,-0.254 0.266,0 0.485,0.084 0.656,0.252 0.171,0.168 0.256,0.374 0.256,0.617 0,0.255 -0.088,0.468 -0.264,0.642 -0.176,0.172 -0.394,0.259 -0.655,0.259 -0.265,0 -0.485,-0.085 -0.659,-0.253 -0.174,-0.17 -0.261,-0.373 -0.261,-0.609 z m 0.138,-1.174 c -0.287,0.106 -0.501,0.255 -0.638,0.45 -0.139,0.196 -0.208,0.429 -0.208,0.701 0,0.411 0.147,0.756 0.442,1.035 0.295,0.28 0.688,0.42 1.178,0.42 0.492,0 0.888,-0.144 1.188,-0.429 0.3,-0.286 0.45,-0.635 0.45,-1.045 0,-0.262 -0.068,-0.49 -0.206,-0.683 -0.136,-0.194 -0.345,-0.343 -0.625,-0.449 0.347,-0.113 0.611,-0.295 0.791,-0.547 0.181,-0.251 0.272,-0.55 0.272,-0.9 0,-0.482 -0.171,-0.888 -0.513,-1.216 -0.341,-0.328 -0.789,-0.493 -1.345,-0.493 -0.557,0 -1.006,0.165 -1.348,0.495 -0.341,0.33 -0.511,0.741 -0.511,1.234 0,0.367 0.093,0.673 0.278,0.921 0.187,0.248 0.452,0.416 0.795,0.506"
       style="fill:#211e1f;fill-opacity:1;fill-rule:nonzero;stroke:none"
       id="path632"
       inkscape:connector-curvature="0" /><path
       d="m 490.781,604.85 c -0.692,0 0,0 -0.692,0 0,4.414 0,0 0,4.414 -0.167,-0.159 -0.386,-0.319 -0.657,-0.478 -0.27,-0.158 -0.513,-0.277 -0.728,-0.357 0,0.67 0,0 0,0.67 0.387,0.181 0.725,0.402 1.015,0.662 0.29,0.259 0.496,0.51 0.616,0.754 0.446,0 0,0 0.446,0 0,-5.665 0,0 0,-5.665"
       style="fill:#211e1f;fill-opacity:1;fill-rule:nonzero;stroke:none"
       id="path634"
       inkscape:connector-curvature="0" /><path
       d="m 493.262,607.632 c 0,-0.926 0.109,-1.542 0.325,-1.849 0.216,-0.306 0.484,-0.46 0.802,-0.46 0.319,0 0.586,0.154 0.803,0.462 0.216,0.308 0.325,0.924 0.325,1.847 0,0.929 -0.109,1.546 -0.325,1.851 -0.217,0.305 -0.487,0.459 -0.81,0.459 -0.319,0 -0.573,-0.135 -0.762,-0.405 -0.238,-0.344 -0.358,-0.978 -0.358,-1.905 z m -0.711,0 c 0,0.668 0.068,1.204 0.206,1.611 0.136,0.407 0.34,0.72 0.611,0.941 0.27,0.22 0.611,0.331 1.021,0.331 0.303,0 0.569,-0.061 0.797,-0.183 0.229,-0.122 0.417,-0.298 0.566,-0.527 0.148,-0.23 0.265,-0.51 0.349,-0.839 0.085,-0.33 0.128,-0.774 0.128,-1.334 0,-0.662 -0.068,-1.196 -0.204,-1.603 -0.137,-0.407 -0.34,-0.72 -0.61,-0.943 -0.271,-0.222 -0.613,-0.333 -1.026,-0.333 -0.544,0 -0.97,0.195 -1.281,0.586 -0.372,0.469 -0.557,1.233 -0.557,2.293"
       style="fill:#211e1f;fill-opacity:1;fill-rule:nonzero;stroke:none"
       id="path636"
       inkscape:connector-curvature="0" /><path
       d="m 515.735,604.85 c -0.692,0 0,0 -0.692,0 0,4.414 0,0 0,4.414 -0.167,-0.159 -0.386,-0.319 -0.657,-0.478 -0.27,-0.158 -0.513,-0.277 -0.729,-0.357 0,0.67 0,0 0,0.67 0.388,0.181 0.727,0.402 1.017,0.662 0.289,0.259 0.495,0.51 0.615,0.754 0.446,0 0,0 0.446,0 0,-5.665 0,0 0,-5.665"
       style="fill:#211e1f;fill-opacity:1;fill-rule:nonzero;stroke:none"
       id="path638"
       inkscape:connector-curvature="0" /><path
       d="m 521.144,605.516 c 0,-0.666 0,0 0,-0.666 -3.728,0 0,0 -3.728,0 -0.005,0.167 0.021,0.327 0.081,0.481 0.095,0.254 0.247,0.504 0.456,0.75 0.209,0.246 0.511,0.531 0.906,0.855 0.612,0.503 1.026,0.901 1.242,1.195 0.216,0.294 0.324,0.571 0.324,0.833 0,0.274 -0.098,0.506 -0.294,0.694 -0.197,0.189 -0.453,0.284 -0.768,0.284 -0.334,0 -0.601,-0.101 -0.801,-0.301 -0.2,-0.199 -0.301,-0.477 -0.303,-0.831 -0.712,0.073 0,0 -0.712,0.073 0.048,0.531 0.232,0.935 0.549,1.214 0.319,0.278 0.747,0.418 1.283,0.418 0.541,0 0.968,-0.151 1.284,-0.45 0.316,-0.3 0.473,-0.672 0.473,-1.117 0,-0.225 -0.045,-0.447 -0.138,-0.666 -0.092,-0.217 -0.245,-0.447 -0.46,-0.688 -0.214,-0.241 -0.57,-0.572 -1.068,-0.993 -0.415,-0.349 -0.682,-0.585 -0.8,-0.71 -0.118,-0.124 -0.215,-0.249 -0.292,-0.375 2.766,0 0,0 2.766,0"
       style="fill:#211e1f;fill-opacity:1;fill-rule:nonzero;stroke:none"
       id="path640"
       inkscape:connector-curvature="0" /><path
       d="m 343.124,612.799 c 0,0.696 0,0 0,0.696 2.128,0 0,0 2.128,0 0,-0.696 0,0 0,-0.696 -2.128,0 0,0 -2.128,0"
       style="fill:#211e1f;fill-opacity:1;fill-rule:nonzero;stroke:none"
       id="path642"
       inkscape:connector-curvature="0" /><path
       d="m 346.54,613.888 c 0,-0.927 0.108,-1.543 0.325,-1.85 0.217,-0.306 0.484,-0.46 0.802,-0.46 0.318,0 0.586,0.155 0.802,0.462 0.217,0.308 0.326,0.924 0.326,1.848 0,0.929 -0.109,1.545 -0.326,1.85 -0.216,0.306 -0.486,0.458 -0.81,0.458 -0.318,0 -0.571,-0.134 -0.761,-0.403 -0.239,-0.345 -0.358,-0.979 -0.358,-1.905 z m -0.712,0 c 0,0.667 0.069,1.203 0.206,1.61 0.137,0.406 0.341,0.72 0.612,0.941 0.27,0.22 0.611,0.331 1.021,0.331 0.303,0 0.569,-0.061 0.797,-0.183 0.228,-0.122 0.417,-0.297 0.565,-0.527 0.149,-0.23 0.266,-0.509 0.35,-0.839 0.085,-0.329 0.128,-0.775 0.128,-1.333 0,-0.662 -0.069,-1.196 -0.205,-1.604 -0.135,-0.406 -0.339,-0.72 -0.609,-0.942 -0.271,-0.222 -0.613,-0.333 -1.026,-0.333 -0.544,0 -0.97,0.195 -1.281,0.585 -0.372,0.47 -0.558,1.234 -0.558,2.294"
       style="fill:#211e1f;fill-opacity:1;fill-rule:nonzero;stroke:none"
       id="path644"
       inkscape:connector-curvature="0" /><path
       d="m 350.594,611.105 c 0,0.789 0,0 0,0.789 0.789,0 0,0 0.789,0 0,-0.789 0,0 0,-0.789 -0.789,0 0,0 -0.789,0"
       style="fill:#211e1f;fill-opacity:1;fill-rule:nonzero;stroke:none"
       id="path646"
       inkscape:connector-curvature="0" /><path
       d="m 353.107,613.888 c 0,-0.927 0.108,-1.543 0.325,-1.85 0.217,-0.306 0.484,-0.46 0.802,-0.46 0.318,0 0.586,0.155 0.802,0.462 0.217,0.308 0.326,0.924 0.326,1.848 0,0.929 -0.109,1.545 -0.326,1.85 -0.216,0.306 -0.487,0.458 -0.81,0.458 -0.318,0 -0.572,-0.134 -0.761,-0.403 -0.239,-0.345 -0.358,-0.979 -0.358,-1.905 z m -0.712,0 c 0,0.667 0.069,1.203 0.206,1.61 0.137,0.406 0.341,0.72 0.612,0.941 0.27,0.22 0.61,0.331 1.021,0.331 0.303,0 0.568,-0.061 0.796,-0.183 0.229,-0.122 0.417,-0.297 0.566,-0.527 0.149,-0.23 0.266,-0.509 0.351,-0.839 0.084,-0.329 0.126,-0.775 0.126,-1.333 0,-0.662 -0.068,-1.196 -0.204,-1.604 -0.136,-0.406 -0.339,-0.72 -0.61,-0.942 -0.27,-0.222 -0.612,-0.333 -1.025,-0.333 -0.544,0 -0.971,0.195 -1.281,0.585 -0.372,0.47 -0.558,1.234 -0.558,2.294"
       style="fill:#211e1f;fill-opacity:1;fill-rule:nonzero;stroke:none"
       id="path648"
       inkscape:connector-curvature="0" /><path
       d="m 357.485,613.888 c 0,-0.927 0.108,-1.543 0.325,-1.85 0.217,-0.306 0.484,-0.46 0.802,-0.46 0.318,0 0.585,0.155 0.802,0.462 0.217,0.308 0.326,0.924 0.326,1.848 0,0.929 -0.109,1.545 -0.326,1.85 -0.217,0.306 -0.487,0.458 -0.81,0.458 -0.318,0 -0.571,-0.134 -0.762,-0.403 -0.238,-0.345 -0.357,-0.979 -0.357,-1.905 z m -0.712,0 c 0,0.667 0.068,1.203 0.206,1.61 0.137,0.406 0.341,0.72 0.612,0.941 0.27,0.22 0.61,0.331 1.021,0.331 0.303,0 0.568,-0.061 0.796,-0.183 0.229,-0.122 0.417,-0.297 0.566,-0.527 0.149,-0.23 0.266,-0.509 0.35,-0.839 0.085,-0.329 0.127,-0.775 0.127,-1.333 0,-0.662 -0.068,-1.196 -0.204,-1.604 -0.136,-0.406 -0.339,-0.72 -0.61,-0.942 -0.27,-0.222 -0.612,-0.333 -1.025,-0.333 -0.544,0 -0.971,0.195 -1.281,0.585 -0.372,0.47 -0.558,1.234 -0.558,2.294"
       style="fill:#211e1f;fill-opacity:1;fill-rule:nonzero;stroke:none"
       id="path650"
       inkscape:connector-curvature="0" /><path
       d="m 361.151,612.583 c 0.727,0.062 0,0 0.727,0.062 0.054,-0.355 0.179,-0.62 0.375,-0.799 0.196,-0.178 0.433,-0.268 0.71,-0.268 0.334,0 0.616,0.126 0.846,0.377 0.231,0.252 0.347,0.586 0.347,1.001 0,0.396 -0.111,0.707 -0.333,0.936 -0.222,0.228 -0.513,0.341 -0.872,0.341 -0.223,0 -0.424,-0.049 -0.604,-0.151 -0.179,-0.101 -0.32,-0.233 -0.423,-0.394 -0.65,0.084 0,0 -0.65,0.084 0.546,2.898 0,0 0.546,2.898 2.805,0 0,0 2.805,0 0,-0.662 0,0 0,-0.662 -2.251,0 0,0 -2.251,0 -0.304,-1.517 0,0 -0.304,-1.517 0.339,0.237 0.694,0.355 1.066,0.355 0.493,0 0.908,-0.171 1.247,-0.512 0.338,-0.342 0.507,-0.78 0.507,-1.316 0,-0.511 -0.148,-0.952 -0.446,-1.324 -0.361,-0.457 -0.855,-0.685 -1.481,-0.685 -0.513,0 -0.932,0.143 -1.256,0.431 -0.325,0.288 -0.51,0.668 -0.556,1.143"
       style="fill:#211e1f;fill-opacity:1;fill-rule:nonzero;stroke:none"
       id="path652"
       inkscape:connector-curvature="0" /><path
       d="m 346.54,626.961 c 0,-0.926 0.108,-1.542 0.325,-1.849 0.217,-0.307 0.484,-0.46 0.802,-0.46 0.318,0 0.586,0.154 0.802,0.461 0.217,0.309 0.326,0.924 0.326,1.848 0,0.929 -0.109,1.546 -0.326,1.851 -0.216,0.305 -0.486,0.459 -0.81,0.459 -0.318,0 -0.571,-0.135 -0.761,-0.405 -0.239,-0.343 -0.358,-0.979 -0.358,-1.905 z m -0.712,0 c 0,0.667 0.069,1.204 0.206,1.61 0.137,0.408 0.341,0.721 0.611,0.942 0.271,0.221 0.612,0.331 1.022,0.331 0.303,0 0.569,-0.062 0.797,-0.183 0.228,-0.122 0.417,-0.298 0.565,-0.527 0.149,-0.23 0.266,-0.51 0.35,-0.839 0.085,-0.33 0.128,-0.774 0.128,-1.334 0,-0.662 -0.069,-1.196 -0.205,-1.602 -0.135,-0.408 -0.339,-0.721 -0.609,-0.944 -0.271,-0.222 -0.613,-0.333 -1.026,-0.333 -0.544,0 -0.97,0.195 -1.281,0.585 -0.372,0.47 -0.558,1.235 -0.558,2.294"
       style="fill:#211e1f;fill-opacity:1;fill-rule:nonzero;stroke:none"
       id="path654"
       inkscape:connector-curvature="0" /><path
       d="m 350.594,624.179 c 0,0.789 0,0 0,0.789 0.789,0 0,0 0.789,0 0,-0.789 0,0 0,-0.789 -0.789,0 0,0 -0.789,0"
       style="fill:#211e1f;fill-opacity:1;fill-rule:nonzero;stroke:none"
       id="path656"
       inkscape:connector-curvature="0" /><path
       d="m 353.107,626.961 c 0,-0.926 0.108,-1.542 0.325,-1.849 0.217,-0.307 0.484,-0.46 0.802,-0.46 0.318,0 0.586,0.154 0.802,0.461 0.217,0.309 0.326,0.924 0.326,1.848 0,0.929 -0.109,1.546 -0.326,1.851 -0.216,0.305 -0.487,0.459 -0.81,0.459 -0.318,0 -0.572,-0.135 -0.761,-0.405 -0.239,-0.343 -0.358,-0.979 -0.358,-1.905 z m -0.712,0 c 0,0.667 0.069,1.204 0.206,1.61 0.137,0.408 0.341,0.721 0.612,0.942 0.27,0.221 0.61,0.331 1.021,0.331 0.303,0 0.568,-0.062 0.796,-0.183 0.229,-0.122 0.417,-0.298 0.566,-0.527 0.149,-0.23 0.266,-0.51 0.351,-0.839 0.084,-0.33 0.126,-0.774 0.126,-1.334 0,-0.662 -0.068,-1.196 -0.204,-1.602 -0.136,-0.408 -0.339,-0.721 -0.61,-0.944 -0.27,-0.222 -0.612,-0.333 -1.025,-0.333 -0.544,0 -0.971,0.195 -1.281,0.585 -0.372,0.47 -0.558,1.235 -0.558,2.294"
       style="fill:#211e1f;fill-opacity:1;fill-rule:nonzero;stroke:none"
       id="path658"
       inkscape:connector-curvature="0" /><path
       d="m 357.485,626.961 c 0,-0.926 0.108,-1.542 0.325,-1.849 0.217,-0.307 0.484,-0.46 0.802,-0.46 0.318,0 0.585,0.154 0.802,0.461 0.217,0.309 0.326,0.924 0.326,1.848 0,0.929 -0.109,1.546 -0.326,1.851 -0.217,0.305 -0.487,0.459 -0.81,0.459 -0.318,0 -0.572,-0.135 -0.762,-0.405 -0.238,-0.343 -0.357,-0.979 -0.357,-1.905 z m -0.712,0 c 0,0.667 0.068,1.204 0.206,1.61 0.137,0.408 0.341,0.721 0.612,0.942 0.27,0.221 0.61,0.331 1.021,0.331 0.303,0 0.568,-0.062 0.796,-0.183 0.229,-0.122 0.417,-0.298 0.566,-0.527 0.149,-0.23 0.266,-0.51 0.35,-0.839 0.085,-0.33 0.127,-0.774 0.127,-1.334 0,-0.662 -0.068,-1.196 -0.204,-1.602 -0.136,-0.408 -0.339,-0.721 -0.61,-0.944 -0.27,-0.222 -0.612,-0.333 -1.025,-0.333 -0.544,0 -0.971,0.195 -1.281,0.585 -0.372,0.47 -0.558,1.235 -0.558,2.294"
       style="fill:#211e1f;fill-opacity:1;fill-rule:nonzero;stroke:none"
       id="path660"
       inkscape:connector-curvature="0" /><path
       d="m 361.862,626.961 c 0,-0.926 0.109,-1.542 0.326,-1.849 0.216,-0.307 0.484,-0.46 0.802,-0.46 0.318,0 0.585,0.154 0.802,0.461 0.217,0.309 0.325,0.924 0.325,1.848 0,0.929 -0.108,1.546 -0.325,1.851 -0.217,0.305 -0.487,0.459 -0.81,0.459 -0.318,0 -0.572,-0.135 -0.762,-0.405 -0.238,-0.343 -0.358,-0.979 -0.358,-1.905 z m -0.711,0 c 0,0.667 0.068,1.204 0.206,1.61 0.137,0.408 0.341,0.721 0.612,0.942 0.27,0.221 0.61,0.331 1.021,0.331 0.303,0 0.568,-0.062 0.796,-0.183 0.229,-0.122 0.417,-0.298 0.566,-0.527 0.149,-0.23 0.265,-0.51 0.35,-0.839 0.085,-0.33 0.127,-0.774 0.127,-1.334 0,-0.662 -0.068,-1.196 -0.204,-1.602 -0.135,-0.408 -0.339,-0.721 -0.61,-0.944 -0.27,-0.222 -0.612,-0.333 -1.025,-0.333 -0.544,0 -0.971,0.195 -1.281,0.585 -0.372,0.47 -0.558,1.235 -0.558,2.294"
       style="fill:#211e1f;fill-opacity:1;fill-rule:nonzero;stroke:none"
       id="path662"
       inkscape:connector-curvature="0" /><path
       d="m 346.54,640.097 c 0,-0.926 0.108,-1.542 0.325,-1.849 0.217,-0.306 0.484,-0.46 0.802,-0.46 0.318,0 0.586,0.155 0.802,0.462 0.217,0.308 0.326,0.924 0.326,1.847 0,0.93 -0.109,1.546 -0.326,1.851 -0.216,0.306 -0.486,0.458 -0.81,0.458 -0.318,0 -0.571,-0.134 -0.761,-0.404 -0.239,-0.344 -0.358,-0.978 -0.358,-1.905 z m -0.712,0 c 0,0.667 0.069,1.204 0.206,1.611 0.137,0.407 0.341,0.72 0.611,0.941 0.271,0.22 0.612,0.331 1.022,0.331 0.303,0 0.569,-0.061 0.797,-0.183 0.228,-0.122 0.417,-0.298 0.565,-0.527 0.149,-0.23 0.266,-0.509 0.35,-0.839 0.085,-0.33 0.128,-0.775 0.128,-1.334 0,-0.661 -0.069,-1.195 -0.205,-1.603 -0.135,-0.406 -0.339,-0.72 -0.609,-0.942 -0.271,-0.223 -0.613,-0.333 -1.026,-0.333 -0.544,0 -0.97,0.195 -1.281,0.585 -0.372,0.469 -0.558,1.234 -0.558,2.293"
       style="fill:#211e1f;fill-opacity:1;fill-rule:nonzero;stroke:none"
       id="path664"
       inkscape:connector-curvature="0" /><path
       d="m 350.594,637.315 c 0,0.789 0,0 0,0.789 0.789,0 0,0 0.789,0 0,-0.789 0,0 0,-0.789 -0.789,0 0,0 -0.789,0"
       style="fill:#211e1f;fill-opacity:1;fill-rule:nonzero;stroke:none"
       id="path666"
       inkscape:connector-curvature="0" /><path
       d="m 353.107,640.097 c 0,-0.926 0.108,-1.542 0.325,-1.849 0.217,-0.306 0.484,-0.46 0.802,-0.46 0.318,0 0.586,0.155 0.802,0.462 0.217,0.308 0.326,0.924 0.326,1.847 0,0.93 -0.109,1.546 -0.326,1.851 -0.216,0.306 -0.487,0.458 -0.81,0.458 -0.318,0 -0.572,-0.134 -0.761,-0.404 -0.239,-0.344 -0.358,-0.978 -0.358,-1.905 z m -0.712,0 c 0,0.667 0.069,1.204 0.206,1.611 0.137,0.407 0.341,0.72 0.612,0.941 0.27,0.22 0.61,0.331 1.021,0.331 0.303,0 0.568,-0.061 0.796,-0.183 0.229,-0.122 0.417,-0.298 0.566,-0.527 0.149,-0.23 0.266,-0.509 0.351,-0.839 0.084,-0.33 0.126,-0.775 0.126,-1.334 0,-0.661 -0.068,-1.195 -0.204,-1.603 -0.136,-0.406 -0.339,-0.72 -0.61,-0.942 -0.27,-0.223 -0.612,-0.333 -1.025,-0.333 -0.544,0 -0.971,0.195 -1.281,0.585 -0.372,0.469 -0.558,1.234 -0.558,2.293"
       style="fill:#211e1f;fill-opacity:1;fill-rule:nonzero;stroke:none"
       id="path668"
       inkscape:connector-curvature="0" /><path
       d="m 357.485,640.097 c 0,-0.926 0.108,-1.542 0.325,-1.849 0.217,-0.306 0.484,-0.46 0.802,-0.46 0.318,0 0.585,0.155 0.802,0.462 0.217,0.308 0.326,0.924 0.326,1.847 0,0.93 -0.109,1.546 -0.326,1.851 -0.217,0.306 -0.487,0.458 -0.81,0.458 -0.318,0 -0.572,-0.134 -0.762,-0.404 -0.238,-0.344 -0.357,-0.978 -0.357,-1.905 z m -0.712,0 c 0,0.667 0.068,1.204 0.206,1.611 0.137,0.407 0.341,0.72 0.612,0.941 0.27,0.22 0.61,0.331 1.021,0.331 0.303,0 0.568,-0.061 0.796,-0.183 0.229,-0.122 0.417,-0.298 0.566,-0.527 0.149,-0.23 0.266,-0.509 0.35,-0.839 0.085,-0.33 0.127,-0.775 0.127,-1.334 0,-0.661 -0.068,-1.195 -0.204,-1.603 -0.136,-0.406 -0.339,-0.72 -0.61,-0.942 -0.27,-0.223 -0.612,-0.333 -1.025,-0.333 -0.544,0 -0.971,0.195 -1.281,0.585 -0.372,0.469 -0.558,1.234 -0.558,2.293"
       style="fill:#211e1f;fill-opacity:1;fill-rule:nonzero;stroke:none"
       id="path670"
       inkscape:connector-curvature="0" /><path
       d="m 361.151,638.792 c 0.727,0.063 0,0 0.727,0.063 0.054,-0.355 0.179,-0.621 0.375,-0.799 0.196,-0.179 0.433,-0.268 0.71,-0.268 0.334,0 0.616,0.126 0.846,0.377 0.231,0.252 0.347,0.585 0.347,1.001 0,0.396 -0.111,0.707 -0.333,0.935 -0.222,0.228 -0.513,0.343 -0.872,0.343 -0.223,0 -0.424,-0.051 -0.604,-0.153 -0.179,-0.1 -0.32,-0.232 -0.423,-0.393 -0.65,0.084 0,0 -0.65,0.084 0.546,2.898 0,0 0.546,2.898 2.805,0 0,0 2.805,0 0,-0.662 0,0 0,-0.662 -2.251,0 0,0 -2.251,0 -0.304,-1.517 0,0 -0.304,-1.517 0.339,0.237 0.694,0.355 1.066,0.355 0.493,0 0.908,-0.171 1.247,-0.512 0.338,-0.342 0.507,-0.78 0.507,-1.316 0,-0.511 -0.148,-0.952 -0.446,-1.324 -0.361,-0.456 -0.855,-0.685 -1.481,-0.685 -0.513,0 -0.932,0.143 -1.256,0.431 -0.325,0.287 -0.51,0.668 -0.556,1.142"
       style="fill:#211e1f;fill-opacity:1;fill-rule:nonzero;stroke:none"
       id="path672"
       inkscape:connector-curvature="0" /><path
       d="m 346.54,653.171 c 0,-0.927 0.108,-1.543 0.325,-1.85 0.217,-0.306 0.484,-0.46 0.802,-0.46 0.318,0 0.586,0.155 0.802,0.462 0.217,0.309 0.326,0.924 0.326,1.848 0,0.929 -0.109,1.546 -0.326,1.851 -0.216,0.305 -0.486,0.458 -0.81,0.458 -0.318,0 -0.571,-0.135 -0.761,-0.404 -0.239,-0.344 -0.358,-0.979 -0.358,-1.905 z m -0.712,0 c 0,0.667 0.069,1.204 0.206,1.61 0.137,0.407 0.341,0.721 0.611,0.942 0.271,0.22 0.612,0.331 1.022,0.331 0.303,0 0.569,-0.062 0.797,-0.184 0.228,-0.122 0.417,-0.297 0.565,-0.527 0.149,-0.23 0.266,-0.509 0.35,-0.839 0.085,-0.329 0.128,-0.774 0.128,-1.333 0,-0.662 -0.069,-1.196 -0.205,-1.603 -0.135,-0.407 -0.339,-0.721 -0.609,-0.943 -0.271,-0.222 -0.613,-0.333 -1.026,-0.333 -0.544,0 -0.97,0.195 -1.281,0.585 -0.372,0.47 -0.558,1.234 -0.558,2.294"
       style="fill:#211e1f;fill-opacity:1;fill-rule:nonzero;stroke:none"
       id="path674"
       inkscape:connector-curvature="0" /><path
       d="m 350.594,650.389 c 0,0.788 0,0 0,0.788 0.789,0 0,0 0.789,0 0,-0.788 0,0 0,-0.788 -0.789,0 0,0 -0.789,0"
       style="fill:#211e1f;fill-opacity:1;fill-rule:nonzero;stroke:none"
       id="path676"
       inkscape:connector-curvature="0" /><path
       d="m 353.107,653.171 c 0,-0.927 0.108,-1.543 0.325,-1.85 0.217,-0.306 0.484,-0.46 0.802,-0.46 0.318,0 0.586,0.155 0.802,0.462 0.217,0.309 0.326,0.924 0.326,1.848 0,0.929 -0.109,1.546 -0.326,1.851 -0.216,0.305 -0.487,0.458 -0.81,0.458 -0.318,0 -0.572,-0.135 -0.761,-0.404 -0.239,-0.344 -0.358,-0.979 -0.358,-1.905 z m -0.712,0 c 0,0.667 0.069,1.204 0.206,1.61 0.137,0.407 0.341,0.721 0.612,0.942 0.27,0.22 0.61,0.331 1.021,0.331 0.303,0 0.568,-0.062 0.796,-0.184 0.229,-0.122 0.417,-0.297 0.566,-0.527 0.149,-0.23 0.266,-0.509 0.351,-0.839 0.084,-0.329 0.126,-0.774 0.126,-1.333 0,-0.662 -0.068,-1.196 -0.204,-1.603 -0.136,-0.407 -0.339,-0.721 -0.61,-0.943 -0.27,-0.222 -0.612,-0.333 -1.025,-0.333 -0.544,0 -0.971,0.195 -1.281,0.585 -0.372,0.47 -0.558,1.234 -0.558,2.294"
       style="fill:#211e1f;fill-opacity:1;fill-rule:nonzero;stroke:none"
       id="path678"
       inkscape:connector-curvature="0" /><path
       d="m 359.382,650.389 c -0.693,0 0,0 -0.693,0 0,4.414 0,0 0,4.414 -0.167,-0.159 -0.386,-0.318 -0.656,-0.478 -0.271,-0.159 -0.514,-0.278 -0.73,-0.357 0,0.67 0,0 0,0.67 0.388,0.181 0.726,0.402 1.017,0.661 0.29,0.26 0.495,0.511 0.615,0.755 0.447,0 0,0 0.447,0 0,-5.665 0,0 0,-5.665"
       style="fill:#211e1f;fill-opacity:1;fill-rule:nonzero;stroke:none"
       id="path680"
       inkscape:connector-curvature="0" /><path
       d="m 361.862,653.171 c 0,-0.927 0.109,-1.543 0.326,-1.85 0.216,-0.306 0.484,-0.46 0.802,-0.46 0.318,0 0.585,0.155 0.802,0.462 0.217,0.309 0.325,0.924 0.325,1.848 0,0.929 -0.108,1.546 -0.325,1.851 -0.217,0.305 -0.487,0.458 -0.81,0.458 -0.318,0 -0.572,-0.135 -0.762,-0.404 -0.238,-0.344 -0.358,-0.979 -0.358,-1.905 z m -0.711,0 c 0,0.667 0.068,1.204 0.206,1.61 0.137,0.407 0.341,0.721 0.612,0.942 0.27,0.22 0.61,0.331 1.021,0.331 0.303,0 0.568,-0.062 0.796,-0.184 0.229,-0.122 0.417,-0.297 0.566,-0.527 0.149,-0.23 0.265,-0.509 0.35,-0.839 0.085,-0.329 0.127,-0.774 0.127,-1.333 0,-0.662 -0.068,-1.196 -0.204,-1.603 -0.135,-0.407 -0.339,-0.721 -0.61,-0.943 -0.27,-0.222 -0.612,-0.333 -1.025,-0.333 -0.544,0 -0.971,0.195 -1.281,0.585 -0.372,0.47 -0.558,1.234 -0.558,2.294"
       style="fill:#211e1f;fill-opacity:1;fill-rule:nonzero;stroke:none"
       id="path682"
       inkscape:connector-curvature="0" /><path
       d="m 346.54,666.307 c 0,-0.926 0.108,-1.542 0.325,-1.849 0.217,-0.306 0.484,-0.46 0.802,-0.46 0.318,0 0.586,0.154 0.802,0.462 0.217,0.308 0.326,0.923 0.326,1.847 0,0.929 -0.109,1.546 -0.326,1.851 -0.216,0.306 -0.486,0.458 -0.81,0.458 -0.318,0 -0.571,-0.134 -0.761,-0.404 -0.239,-0.344 -0.358,-0.978 -0.358,-1.905 z m -0.712,0 c 0,0.667 0.069,1.204 0.206,1.611 0.137,0.406 0.341,0.72 0.611,0.941 0.271,0.22 0.612,0.331 1.022,0.331 0.303,0 0.569,-0.061 0.797,-0.183 0.228,-0.122 0.417,-0.298 0.565,-0.527 0.149,-0.23 0.266,-0.51 0.35,-0.839 0.085,-0.33 0.128,-0.775 0.128,-1.334 0,-0.662 -0.069,-1.196 -0.205,-1.603 -0.135,-0.406 -0.339,-0.721 -0.609,-0.943 -0.271,-0.222 -0.613,-0.332 -1.026,-0.332 -0.544,0 -0.97,0.195 -1.281,0.584 -0.372,0.47 -0.558,1.235 -0.558,2.294"
       style="fill:#211e1f;fill-opacity:1;fill-rule:nonzero;stroke:none"
       id="path684"
       inkscape:connector-curvature="0" /><path
       d="m 350.594,663.525 c 0,0.789 0,0 0,0.789 0.789,0 0,0 0.789,0 0,-0.789 0,0 0,-0.789 -0.789,0 0,0 -0.789,0"
       style="fill:#211e1f;fill-opacity:1;fill-rule:nonzero;stroke:none"
       id="path686"
       inkscape:connector-curvature="0" /><path
       d="m 353.107,666.307 c 0,-0.926 0.108,-1.542 0.325,-1.849 0.217,-0.306 0.484,-0.46 0.802,-0.46 0.318,0 0.586,0.154 0.802,0.462 0.217,0.308 0.326,0.923 0.326,1.847 0,0.929 -0.109,1.546 -0.326,1.851 -0.216,0.306 -0.487,0.458 -0.81,0.458 -0.318,0 -0.572,-0.134 -0.761,-0.404 -0.239,-0.344 -0.358,-0.978 -0.358,-1.905 z m -0.712,0 c 0,0.667 0.069,1.204 0.206,1.611 0.137,0.406 0.341,0.72 0.612,0.941 0.27,0.22 0.61,0.331 1.021,0.331 0.303,0 0.568,-0.061 0.796,-0.183 0.229,-0.122 0.417,-0.298 0.566,-0.527 0.149,-0.23 0.266,-0.51 0.351,-0.839 0.084,-0.33 0.126,-0.775 0.126,-1.334 0,-0.662 -0.068,-1.196 -0.204,-1.603 -0.136,-0.406 -0.339,-0.721 -0.61,-0.943 -0.27,-0.222 -0.612,-0.332 -1.025,-0.332 -0.544,0 -0.971,0.195 -1.281,0.584 -0.372,0.47 -0.558,1.235 -0.558,2.294"
       style="fill:#211e1f;fill-opacity:1;fill-rule:nonzero;stroke:none"
       id="path688"
       inkscape:connector-curvature="0" /><path
       d="m 359.382,663.525 c -0.693,0 0,0 -0.693,0 0,4.414 0,0 0,4.414 -0.167,-0.159 -0.386,-0.318 -0.656,-0.477 -0.271,-0.159 -0.514,-0.279 -0.73,-0.358 0,0.67 0,0 0,0.67 0.388,0.182 0.726,0.403 1.017,0.661 0.29,0.259 0.495,0.511 0.615,0.755 0.447,0 0,0 0.447,0 0,-5.665 0,0 0,-5.665"
       style="fill:#211e1f;fill-opacity:1;fill-rule:nonzero;stroke:none"
       id="path690"
       inkscape:connector-curvature="0" /><path
       d="m 361.151,665.003 c 0.727,0.062 0,0 0.727,0.062 0.054,-0.355 0.179,-0.621 0.375,-0.799 0.196,-0.179 0.433,-0.268 0.71,-0.268 0.334,0 0.616,0.126 0.846,0.377 0.231,0.252 0.347,0.585 0.347,1.001 0,0.395 -0.111,0.707 -0.333,0.935 -0.222,0.229 -0.513,0.342 -0.872,0.342 -0.223,0 -0.424,-0.05 -0.604,-0.151 -0.179,-0.102 -0.32,-0.233 -0.423,-0.395 -0.65,0.085 0,0 -0.65,0.085 0.546,2.898 0,0 0.546,2.898 2.805,0 0,0 2.805,0 0,-0.662 0,0 0,-0.662 -2.251,0 0,0 -2.251,0 -0.304,-1.517 0,0 -0.304,-1.517 0.339,0.237 0.694,0.355 1.066,0.355 0.493,0 0.908,-0.171 1.247,-0.512 0.338,-0.342 0.507,-0.78 0.507,-1.316 0,-0.511 -0.148,-0.952 -0.446,-1.325 -0.361,-0.456 -0.855,-0.684 -1.481,-0.684 -0.513,0 -0.932,0.144 -1.256,0.431 -0.325,0.287 -0.51,0.668 -0.556,1.143"
       style="fill:#211e1f;fill-opacity:1;fill-rule:nonzero;stroke:none"
       id="path692"
       inkscape:connector-curvature="0" /><path
       d="m 346.54,679.381 c 0,-0.926 0.108,-1.543 0.325,-1.849 0.217,-0.307 0.484,-0.46 0.802,-0.46 0.318,0 0.586,0.154 0.802,0.462 0.217,0.307 0.326,0.923 0.326,1.847 0,0.929 -0.109,1.546 -0.326,1.851 -0.216,0.305 -0.486,0.458 -0.81,0.458 -0.318,0 -0.571,-0.135 -0.761,-0.404 -0.239,-0.344 -0.358,-0.979 -0.358,-1.905 z m -0.712,0 c 0,0.667 0.069,1.204 0.206,1.61 0.137,0.407 0.341,0.721 0.611,0.941 0.271,0.221 0.612,0.331 1.022,0.331 0.303,0 0.569,-0.061 0.797,-0.182 0.228,-0.122 0.417,-0.298 0.565,-0.528 0.149,-0.229 0.266,-0.509 0.35,-0.838 0.085,-0.33 0.128,-0.775 0.128,-1.334 0,-0.662 -0.069,-1.196 -0.205,-1.603 -0.135,-0.407 -0.339,-0.721 -0.609,-0.943 -0.271,-0.222 -0.613,-0.333 -1.026,-0.333 -0.544,0 -0.97,0.196 -1.281,0.585 -0.372,0.47 -0.558,1.234 -0.558,2.294"
       style="fill:#211e1f;fill-opacity:1;fill-rule:nonzero;stroke:none"
       id="path694"
       inkscape:connector-curvature="0" /><path
       d="m 350.594,676.598 c 0,0.789 0,0 0,0.789 0.789,0 0,0 0.789,0 0,-0.789 0,0 0,-0.789 -0.789,0 0,0 -0.789,0"
       style="fill:#211e1f;fill-opacity:1;fill-rule:nonzero;stroke:none"
       id="path696"
       inkscape:connector-curvature="0" /><path
       d="m 353.107,679.381 c 0,-0.926 0.108,-1.543 0.325,-1.849 0.217,-0.307 0.484,-0.46 0.802,-0.46 0.318,0 0.586,0.154 0.802,0.462 0.217,0.307 0.326,0.923 0.326,1.847 0,0.929 -0.109,1.546 -0.326,1.851 -0.216,0.305 -0.487,0.458 -0.81,0.458 -0.318,0 -0.572,-0.135 -0.761,-0.404 -0.239,-0.344 -0.358,-0.979 -0.358,-1.905 z m -0.712,0 c 0,0.667 0.069,1.204 0.206,1.61 0.137,0.407 0.341,0.721 0.612,0.941 0.27,0.221 0.61,0.331 1.021,0.331 0.303,0 0.568,-0.061 0.796,-0.182 0.229,-0.122 0.417,-0.298 0.566,-0.528 0.149,-0.229 0.266,-0.509 0.351,-0.838 0.084,-0.33 0.126,-0.775 0.126,-1.334 0,-0.662 -0.068,-1.196 -0.204,-1.603 -0.136,-0.407 -0.339,-0.721 -0.61,-0.943 -0.27,-0.222 -0.612,-0.333 -1.025,-0.333 -0.544,0 -0.971,0.196 -1.281,0.585 -0.372,0.47 -0.558,1.234 -0.558,2.294"
       style="fill:#211e1f;fill-opacity:1;fill-rule:nonzero;stroke:none"
       id="path698"
       inkscape:connector-curvature="0" /><path
       d="m 360.413,677.264 c 0,-0.666 0,0 0,-0.666 -3.729,0 0,0 -3.729,0 -0.005,0.167 0.022,0.327 0.081,0.481 0.095,0.254 0.247,0.505 0.456,0.751 0.209,0.246 0.511,0.531 0.906,0.854 0.613,0.503 1.027,0.902 1.243,1.195 0.216,0.294 0.323,0.572 0.323,0.834 0,0.274 -0.098,0.506 -0.294,0.694 -0.197,0.189 -0.453,0.283 -0.768,0.283 -0.333,0 -0.6,-0.1 -0.8,-0.3 -0.2,-0.2 -0.302,-0.477 -0.304,-0.832 -0.712,0.073 0,0 -0.712,0.073 0.049,0.532 0.232,0.937 0.55,1.215 0.318,0.278 0.746,0.417 1.282,0.417 0.541,0 0.969,-0.15 1.285,-0.45 0.315,-0.3 0.473,-0.672 0.473,-1.115 0,-0.227 -0.046,-0.448 -0.139,-0.667 -0.092,-0.218 -0.245,-0.447 -0.459,-0.689 -0.215,-0.241 -0.57,-0.572 -1.068,-0.992 -0.416,-0.349 -0.682,-0.586 -0.8,-0.711 -0.119,-0.124 -0.216,-0.249 -0.293,-0.375 2.767,0 0,0 2.767,0"
       style="fill:#211e1f;fill-opacity:1;fill-rule:nonzero;stroke:none"
       id="path700"
       inkscape:connector-curvature="0" /><path
       d="m 361.862,679.381 c 0,-0.926 0.109,-1.543 0.326,-1.849 0.216,-0.307 0.484,-0.46 0.802,-0.46 0.318,0 0.585,0.154 0.802,0.462 0.217,0.307 0.325,0.923 0.325,1.847 0,0.929 -0.108,1.546 -0.325,1.851 -0.217,0.305 -0.487,0.458 -0.81,0.458 -0.318,0 -0.572,-0.135 -0.762,-0.404 -0.238,-0.344 -0.358,-0.979 -0.358,-1.905 z m -0.711,0 c 0,0.667 0.068,1.204 0.206,1.61 0.137,0.407 0.341,0.721 0.612,0.941 0.27,0.221 0.61,0.331 1.021,0.331 0.303,0 0.568,-0.061 0.796,-0.182 0.229,-0.122 0.417,-0.298 0.566,-0.528 0.149,-0.229 0.265,-0.509 0.35,-0.838 0.085,-0.33 0.127,-0.775 0.127,-1.334 0,-0.662 -0.068,-1.196 -0.204,-1.603 -0.135,-0.407 -0.339,-0.721 -0.61,-0.943 -0.27,-0.222 -0.612,-0.333 -1.025,-0.333 -0.544,0 -0.971,0.196 -1.281,0.585 -0.372,0.47 -0.558,1.234 -0.558,2.294"
       style="fill:#211e1f;fill-opacity:1;fill-rule:nonzero;stroke:none"
       id="path702"
       inkscape:connector-curvature="0" /><path
       d="m 346.54,692.454 c 0,-0.926 0.108,-1.542 0.325,-1.849 0.217,-0.307 0.484,-0.46 0.802,-0.46 0.318,0 0.586,0.154 0.802,0.462 0.217,0.308 0.326,0.924 0.326,1.847 0,0.929 -0.109,1.546 -0.326,1.852 -0.216,0.305 -0.486,0.457 -0.81,0.457 -0.318,0 -0.571,-0.134 -0.761,-0.403 -0.239,-0.344 -0.358,-0.979 -0.358,-1.906 z m -0.712,0 c 0,0.668 0.069,1.204 0.206,1.611 0.137,0.407 0.341,0.72 0.611,0.941 0.271,0.221 0.612,0.331 1.022,0.331 0.303,0 0.569,-0.061 0.797,-0.183 0.228,-0.122 0.417,-0.297 0.565,-0.527 0.149,-0.23 0.266,-0.509 0.35,-0.839 0.085,-0.33 0.128,-0.774 0.128,-1.334 0,-0.661 -0.069,-1.196 -0.205,-1.602 -0.135,-0.407 -0.339,-0.721 -0.609,-0.943 -0.271,-0.222 -0.613,-0.333 -1.026,-0.333 -0.544,0 -0.97,0.195 -1.281,0.585 -0.372,0.47 -0.558,1.234 -0.558,2.293"
       style="fill:#211e1f;fill-opacity:1;fill-rule:nonzero;stroke:none"
       id="path704"
       inkscape:connector-curvature="0" /><path
       d="m 350.594,689.672 c 0,0.789 0,0 0,0.789 0.789,0 0,0 0.789,0 0,-0.789 0,0 0,-0.789 -0.789,0 0,0 -0.789,0"
       style="fill:#211e1f;fill-opacity:1;fill-rule:nonzero;stroke:none"
       id="path706"
       inkscape:connector-curvature="0" /><path
       d="m 353.107,692.454 c 0,-0.926 0.108,-1.542 0.325,-1.849 0.217,-0.307 0.484,-0.46 0.802,-0.46 0.318,0 0.586,0.154 0.802,0.462 0.217,0.308 0.326,0.924 0.326,1.847 0,0.929 -0.109,1.546 -0.326,1.852 -0.216,0.305 -0.487,0.457 -0.81,0.457 -0.318,0 -0.572,-0.134 -0.761,-0.403 -0.239,-0.344 -0.358,-0.979 -0.358,-1.906 z m -0.712,0 c 0,0.668 0.069,1.204 0.206,1.611 0.137,0.407 0.341,0.72 0.612,0.941 0.27,0.221 0.61,0.331 1.021,0.331 0.303,0 0.568,-0.061 0.796,-0.183 0.229,-0.122 0.417,-0.297 0.566,-0.527 0.149,-0.23 0.266,-0.509 0.351,-0.839 0.084,-0.33 0.126,-0.774 0.126,-1.334 0,-0.661 -0.068,-1.196 -0.204,-1.602 -0.136,-0.407 -0.339,-0.721 -0.61,-0.943 -0.27,-0.222 -0.612,-0.333 -1.025,-0.333 -0.544,0 -0.971,0.195 -1.281,0.585 -0.372,0.47 -0.558,1.234 -0.558,2.293"
       style="fill:#211e1f;fill-opacity:1;fill-rule:nonzero;stroke:none"
       id="path708"
       inkscape:connector-curvature="0" /><path
       d="m 360.413,690.338 c 0,-0.666 0,0 0,-0.666 -3.729,0 0,0 -3.729,0 -0.005,0.167 0.022,0.327 0.081,0.481 0.095,0.254 0.247,0.504 0.456,0.75 0.209,0.247 0.511,0.532 0.906,0.855 0.613,0.503 1.027,0.901 1.243,1.195 0.216,0.294 0.323,0.571 0.323,0.833 0,0.275 -0.098,0.506 -0.294,0.695 -0.197,0.188 -0.453,0.282 -0.768,0.282 -0.333,0 -0.6,-0.099 -0.8,-0.299 -0.2,-0.201 -0.302,-0.478 -0.304,-0.832 -0.712,0.073 0,0 -0.712,0.073 0.049,0.531 0.232,0.936 0.55,1.215 0.318,0.278 0.746,0.417 1.282,0.417 0.541,0 0.969,-0.15 1.285,-0.45 0.315,-0.3 0.473,-0.672 0.473,-1.116 0,-0.226 -0.046,-0.448 -0.139,-0.666 -0.092,-0.218 -0.245,-0.448 -0.459,-0.689 -0.215,-0.241 -0.57,-0.572 -1.068,-0.993 -0.416,-0.349 -0.682,-0.585 -0.8,-0.71 -0.119,-0.124 -0.216,-0.249 -0.293,-0.375 2.767,0 0,0 2.767,0"
       style="fill:#211e1f;fill-opacity:1;fill-rule:nonzero;stroke:none"
       id="path710"
       inkscape:connector-curvature="0" /><path
       d="m 361.151,691.15 c 0.727,0.062 0,0 0.727,0.062 0.054,-0.354 0.179,-0.621 0.375,-0.799 0.196,-0.178 0.433,-0.268 0.71,-0.268 0.334,0 0.616,0.126 0.846,0.378 0.231,0.251 0.347,0.585 0.347,1 0,0.395 -0.111,0.707 -0.333,0.935 -0.222,0.229 -0.513,0.343 -0.872,0.343 -0.223,0 -0.424,-0.051 -0.604,-0.152 -0.179,-0.101 -0.32,-0.233 -0.423,-0.394 -0.65,0.084 0,0 -0.65,0.084 0.546,2.898 0,0 0.546,2.898 2.805,0 0,0 2.805,0 0,-0.662 0,0 0,-0.662 -2.251,0 0,0 -2.251,0 -0.304,-1.516 0,0 -0.304,-1.516 0.339,0.236 0.694,0.354 1.066,0.354 0.493,0 0.908,-0.171 1.247,-0.512 0.338,-0.341 0.507,-0.78 0.507,-1.316 0,-0.511 -0.148,-0.952 -0.446,-1.324 -0.361,-0.457 -0.855,-0.685 -1.481,-0.685 -0.513,0 -0.932,0.143 -1.256,0.431 -0.325,0.287 -0.51,0.668 -0.556,1.143"
       style="fill:#211e1f;fill-opacity:1;fill-rule:nonzero;stroke:none"
       id="path712"
       inkscape:connector-curvature="0" /><path
       d="m 346.54,705.591 c 0,-0.926 0.108,-1.543 0.325,-1.85 0.217,-0.306 0.484,-0.46 0.802,-0.46 0.318,0 0.586,0.154 0.802,0.462 0.217,0.308 0.326,0.924 0.326,1.848 0,0.928 -0.109,1.545 -0.326,1.851 -0.216,0.305 -0.486,0.458 -0.81,0.458 -0.318,0 -0.571,-0.135 -0.761,-0.404 -0.239,-0.344 -0.358,-0.979 -0.358,-1.905 z m -0.712,0 c 0,0.667 0.069,1.204 0.206,1.61 0.137,0.407 0.341,0.721 0.611,0.941 0.271,0.221 0.612,0.331 1.022,0.331 0.303,0 0.569,-0.061 0.797,-0.183 0.228,-0.121 0.417,-0.297 0.565,-0.527 0.149,-0.23 0.266,-0.509 0.35,-0.839 0.085,-0.33 0.128,-0.774 0.128,-1.333 0,-0.662 -0.069,-1.197 -0.205,-1.604 -0.135,-0.406 -0.339,-0.72 -0.609,-0.942 -0.271,-0.222 -0.613,-0.333 -1.026,-0.333 -0.544,0 -0.97,0.195 -1.281,0.585 -0.372,0.469 -0.558,1.234 -0.558,2.294"
       style="fill:#211e1f;fill-opacity:1;fill-rule:nonzero;stroke:none"
       id="path714"
       inkscape:connector-curvature="0" /><path
       d="m 350.594,702.808 c 0,0.789 0,0 0,0.789 0.789,0 0,0 0.789,0 0,-0.789 0,0 0,-0.789 -0.789,0 0,0 -0.789,0"
       style="fill:#211e1f;fill-opacity:1;fill-rule:nonzero;stroke:none"
       id="path716"
       inkscape:connector-curvature="0" /><path
       d="m 353.107,705.591 c 0,-0.926 0.108,-1.543 0.325,-1.85 0.217,-0.306 0.484,-0.46 0.802,-0.46 0.318,0 0.586,0.154 0.802,0.462 0.217,0.308 0.326,0.924 0.326,1.848 0,0.928 -0.109,1.545 -0.326,1.851 -0.216,0.305 -0.487,0.458 -0.81,0.458 -0.318,0 -0.572,-0.135 -0.761,-0.404 -0.239,-0.344 -0.358,-0.979 -0.358,-1.905 z m -0.712,0 c 0,0.667 0.069,1.204 0.206,1.61 0.137,0.407 0.341,0.721 0.612,0.941 0.27,0.221 0.61,0.331 1.021,0.331 0.303,0 0.568,-0.061 0.796,-0.183 0.229,-0.121 0.417,-0.297 0.566,-0.527 0.149,-0.23 0.266,-0.509 0.351,-0.839 0.084,-0.33 0.126,-0.774 0.126,-1.333 0,-0.662 -0.068,-1.197 -0.204,-1.604 -0.136,-0.406 -0.339,-0.72 -0.61,-0.942 -0.27,-0.222 -0.612,-0.333 -1.025,-0.333 -0.544,0 -0.971,0.195 -1.281,0.585 -0.372,0.469 -0.558,1.234 -0.558,2.294"
       style="fill:#211e1f;fill-opacity:1;fill-rule:nonzero;stroke:none"
       id="path718"
       inkscape:connector-curvature="0" /><path
       d="m 356.777,704.298 c 0.692,0.092 0,0 0.692,0.092 0.08,-0.393 0.215,-0.675 0.406,-0.849 0.191,-0.173 0.424,-0.26 0.698,-0.26 0.326,0 0.601,0.113 0.826,0.339 0.224,0.226 0.337,0.506 0.337,0.839 0,0.318 -0.104,0.581 -0.312,0.787 -0.208,0.207 -0.472,0.31 -0.793,0.31 -0.131,0 -0.293,-0.025 -0.489,-0.077 0.077,0.608 0,0 0.077,0.608 0.047,-0.005 0.084,-0.008 0.112,-0.008 0.295,0 0.561,0.077 0.797,0.231 0.235,0.154 0.354,0.391 0.354,0.712 0,0.255 -0.086,0.464 -0.258,0.631 -0.172,0.167 -0.394,0.25 -0.666,0.25 -0.269,0 -0.494,-0.084 -0.674,-0.253 -0.179,-0.17 -0.294,-0.424 -0.346,-0.762 -0.692,0.123 0,0 -0.692,0.123 0.084,0.464 0.277,0.824 0.577,1.079 0.3,0.255 0.673,0.383 1.12,0.383 0.307,0 0.591,-0.066 0.85,-0.198 0.259,-0.132 0.457,-0.312 0.594,-0.54 0.138,-0.229 0.207,-0.472 0.207,-0.728 0,-0.244 -0.066,-0.466 -0.197,-0.666 -0.131,-0.2 -0.324,-0.359 -0.581,-0.477 0.334,-0.077 0.592,-0.237 0.778,-0.479 0.184,-0.243 0.276,-0.546 0.276,-0.91 0,-0.493 -0.179,-0.91 -0.538,-1.253 -0.36,-0.342 -0.813,-0.514 -1.362,-0.514 -0.496,0 -0.907,0.148 -1.233,0.443 -0.328,0.295 -0.514,0.677 -0.56,1.147"
       style="fill:#211e1f;fill-opacity:1;fill-rule:nonzero;stroke:none"
       id="path720"
       inkscape:connector-curvature="0" /><path
       d="m 361.862,705.591 c 0,-0.926 0.109,-1.543 0.326,-1.85 0.216,-0.306 0.484,-0.46 0.802,-0.46 0.318,0 0.585,0.154 0.802,0.462 0.217,0.308 0.325,0.924 0.325,1.848 0,0.928 -0.108,1.545 -0.325,1.851 -0.217,0.305 -0.487,0.458 -0.81,0.458 -0.318,0 -0.572,-0.135 -0.762,-0.404 -0.238,-0.344 -0.358,-0.979 -0.358,-1.905 z m -0.711,0 c 0,0.667 0.068,1.204 0.206,1.61 0.137,0.407 0.341,0.721 0.612,0.941 0.27,0.221 0.61,0.331 1.021,0.331 0.303,0 0.568,-0.061 0.796,-0.183 0.229,-0.121 0.417,-0.297 0.566,-0.527 0.149,-0.23 0.265,-0.509 0.35,-0.839 0.085,-0.33 0.127,-0.774 0.127,-1.333 0,-0.662 -0.068,-1.197 -0.204,-1.604 -0.135,-0.406 -0.339,-0.72 -0.61,-0.942 -0.27,-0.222 -0.612,-0.333 -1.025,-0.333 -0.544,0 -0.971,0.195 -1.281,0.585 -0.372,0.469 -0.558,1.234 -0.558,2.294"
       style="fill:#211e1f;fill-opacity:1;fill-rule:nonzero;stroke:none"
       id="path722"
       inkscape:connector-curvature="0" /><path
       d="m 346.54,718.664 c 0,-0.926 0.108,-1.542 0.325,-1.849 0.217,-0.307 0.484,-0.46 0.802,-0.46 0.318,0 0.586,0.154 0.802,0.462 0.217,0.308 0.326,0.923 0.326,1.847 0,0.929 -0.109,1.546 -0.326,1.851 -0.216,0.305 -0.486,0.458 -0.81,0.458 -0.318,0 -0.571,-0.134 -0.761,-0.403 -0.239,-0.344 -0.358,-0.979 -0.358,-1.906 z m -0.712,0 c 0,0.667 0.069,1.204 0.206,1.611 0.137,0.406 0.341,0.72 0.611,0.941 0.271,0.22 0.612,0.331 1.022,0.331 0.303,0 0.569,-0.061 0.797,-0.183 0.228,-0.122 0.417,-0.297 0.565,-0.527 0.149,-0.23 0.266,-0.51 0.35,-0.839 0.085,-0.33 0.128,-0.774 0.128,-1.334 0,-0.662 -0.069,-1.196 -0.205,-1.603 -0.135,-0.406 -0.339,-0.72 -0.609,-0.943 -0.271,-0.221 -0.613,-0.332 -1.026,-0.332 -0.544,0 -0.97,0.195 -1.281,0.585 -0.372,0.469 -0.558,1.234 -0.558,2.293"
       style="fill:#211e1f;fill-opacity:1;fill-rule:nonzero;stroke:none"
       id="path724"
       inkscape:connector-curvature="0" /><path
       d="m 350.594,715.882 c 0,0.789 0,0 0,0.789 0.789,0 0,0 0.789,0 0,-0.789 0,0 0,-0.789 -0.789,0 0,0 -0.789,0"
       style="fill:#211e1f;fill-opacity:1;fill-rule:nonzero;stroke:none"
       id="path726"
       inkscape:connector-curvature="0" /><path
       d="m 353.107,718.664 c 0,-0.926 0.108,-1.542 0.325,-1.849 0.217,-0.307 0.484,-0.46 0.802,-0.46 0.318,0 0.586,0.154 0.802,0.462 0.217,0.308 0.326,0.923 0.326,1.847 0,0.929 -0.109,1.546 -0.326,1.851 -0.216,0.305 -0.487,0.458 -0.81,0.458 -0.318,0 -0.572,-0.134 -0.761,-0.403 -0.239,-0.344 -0.358,-0.979 -0.358,-1.906 z m -0.712,0 c 0,0.667 0.069,1.204 0.206,1.611 0.137,0.406 0.341,0.72 0.612,0.941 0.27,0.22 0.61,0.331 1.021,0.331 0.303,0 0.568,-0.061 0.796,-0.183 0.229,-0.122 0.417,-0.297 0.566,-0.527 0.149,-0.23 0.266,-0.51 0.351,-0.839 0.084,-0.33 0.126,-0.774 0.126,-1.334 0,-0.662 -0.068,-1.196 -0.204,-1.603 -0.136,-0.406 -0.339,-0.72 -0.61,-0.943 -0.27,-0.221 -0.612,-0.332 -1.025,-0.332 -0.544,0 -0.971,0.195 -1.281,0.585 -0.372,0.469 -0.558,1.234 -0.558,2.293"
       style="fill:#211e1f;fill-opacity:1;fill-rule:nonzero;stroke:none"
       id="path728"
       inkscape:connector-curvature="0" /><path
       d="m 356.777,717.371 c 0.692,0.093 0,0 0.692,0.093 0.08,-0.393 0.215,-0.676 0.406,-0.849 0.191,-0.173 0.424,-0.26 0.698,-0.26 0.326,0 0.601,0.113 0.826,0.339 0.224,0.226 0.337,0.505 0.337,0.839 0,0.318 -0.104,0.58 -0.312,0.787 -0.208,0.207 -0.472,0.31 -0.793,0.31 -0.131,0 -0.293,-0.026 -0.489,-0.078 0.077,0.609 0,0 0.077,0.609 0.047,-0.006 0.084,-0.008 0.112,-0.008 0.295,0 0.561,0.077 0.797,0.231 0.235,0.154 0.354,0.391 0.354,0.712 0,0.254 -0.086,0.464 -0.258,0.631 -0.172,0.167 -0.394,0.25 -0.666,0.25 -0.269,0 -0.494,-0.084 -0.674,-0.254 -0.179,-0.169 -0.294,-0.423 -0.346,-0.762 -0.692,0.123 0,0 -0.692,0.123 0.084,0.465 0.277,0.824 0.577,1.08 0.3,0.255 0.673,0.383 1.12,0.383 0.307,0 0.591,-0.066 0.85,-0.198 0.259,-0.133 0.457,-0.313 0.594,-0.541 0.138,-0.229 0.207,-0.471 0.207,-0.728 0,-0.243 -0.066,-0.465 -0.197,-0.665 -0.131,-0.2 -0.324,-0.359 -0.581,-0.477 0.334,-0.077 0.592,-0.237 0.778,-0.48 0.184,-0.242 0.276,-0.546 0.276,-0.91 0,-0.492 -0.179,-0.91 -0.538,-1.252 -0.36,-0.343 -0.813,-0.514 -1.362,-0.514 -0.496,0 -0.907,0.147 -1.233,0.442 -0.328,0.295 -0.514,0.678 -0.56,1.147"
       style="fill:#211e1f;fill-opacity:1;fill-rule:nonzero;stroke:none"
       id="path730"
       inkscape:connector-curvature="0" /><path
       d="m 361.151,717.359 c 0.727,0.062 0,0 0.727,0.062 0.054,-0.354 0.179,-0.62 0.375,-0.798 0.196,-0.178 0.433,-0.268 0.71,-0.268 0.334,0 0.616,0.126 0.846,0.378 0.231,0.251 0.347,0.585 0.347,1 0,0.395 -0.111,0.707 -0.333,0.935 -0.222,0.229 -0.513,0.342 -0.872,0.342 -0.223,0 -0.424,-0.05 -0.604,-0.151 -0.179,-0.101 -0.32,-0.233 -0.423,-0.395 -0.65,0.085 0,0 -0.65,0.085 0.546,2.897 0,0 0.546,2.897 2.805,0 0,0 2.805,0 0,-0.661 0,0 0,-0.661 -2.251,0 0,0 -2.251,0 -0.304,-1.517 0,0 -0.304,-1.517 0.339,0.237 0.694,0.355 1.066,0.355 0.493,0 0.908,-0.171 1.247,-0.512 0.338,-0.342 0.507,-0.78 0.507,-1.316 0,-0.511 -0.148,-0.952 -0.446,-1.324 -0.361,-0.457 -0.855,-0.685 -1.481,-0.685 -0.513,0 -0.932,0.143 -1.256,0.43 -0.325,0.288 -0.51,0.669 -0.556,1.143"
       style="fill:#211e1f;fill-opacity:1;fill-rule:nonzero;stroke:none"
       id="path732"
       inkscape:connector-curvature="0" /><path
       d="m 517.177,613.294 v 111.345 h -1.063 m 1.063,-6.568 h -2.126 m 2.126,-6.505 h -1.063 m 1.063,-6.569 h -2.126 m 2.126,-6.568 h -1.063 m 1.063,-6.568 h -2.126 m 2.126,-6.505 h -1.063 m 1.063,-6.568 h -2.126 m 2.126,-6.568 h -1.063 m 1.063,-6.506 h -2.126 m 2.126,-6.568 h -1.063 m 1.063,-6.568 h -2.126 m 2.126,-6.505 h -1.063 m 1.063,-6.569 h -2.126 m 2.126,-6.568 h -1.063 m 1.063,-6.568 h -2.126 m 2.126,-6.506 h -1.063 m 1.063,-6.568 h -2.126 M 367.515,724.639 h 149.662 v -2.127 m -12.446,2.127 v -1.063 m -12.508,1.063 v -2.127 m -12.446,2.127 v -1.063 m -12.508,1.063 v -2.127 m -12.446,2.127 v -1.063 m -12.445,1.063 v -2.127 m -12.509,2.127 v -1.063 m -12.445,1.063 v -2.127 m -12.509,2.127 v -1.063 m -12.446,1.063 v -2.127 m -12.508,2.127 v -1.063 m -12.446,1.063 v -2.127 m 0,-109.218 v 111.345 h 1.064 m -1.064,-6.568 h 2.127 m -2.127,-6.505 h 1.064 m -1.064,-6.569 h 2.127 m -2.127,-6.568 h 1.064 m -1.064,-6.568 h 2.127 m -2.127,-6.505 h 1.064 m -1.064,-6.568 h 2.127 m -2.127,-6.568 h 1.064 m -1.064,-6.506 h 2.127 m -2.127,-6.568 h 1.064 m -1.064,-6.568 h 2.127 m -2.127,-6.505 h 1.064 m -1.064,-6.569 h 2.127 m -2.127,-6.568 h 1.064 m -1.064,-6.568 h 2.127 m -2.127,-6.506 h 1.064 m -1.064,-6.568 h 2.127 m -2.127,0 h 149.662 v 2.127 m -12.446,-2.127 v 1.064 m -12.508,-1.064 v 2.127 m -12.446,-2.127 v 1.064 m -12.508,-1.064 v 2.127 m -12.446,-2.127 v 1.064 m -12.445,-1.064 v 2.127 m -12.509,-2.127 v 1.064 m -12.445,-1.064 v 2.127 m -12.509,-2.127 v 1.064 m -12.446,-1.064 v 2.127 m -12.508,-2.127 v 1.064 m -12.446,-1.064 v 2.127"
       style="fill:none;stroke:#211e1f;stroke-width:0.81300002;stroke-linecap:round;stroke-linejoin:round;stroke-miterlimit:10;stroke-dasharray:none;stroke-opacity:1"
       id="path742"
       inkscape:connector-curvature="0" /><path
       d="m 367.515,626.368 1.251,-0.501 1.251,-0.375 1.251,-0.125 1.251,0.25 1.25,0.438 1.251,0.563 1.251,0.5 1.251,0.251 h 1.188 l 1.251,-0.313 1.251,-0.5 1.251,-0.501 1.251,-0.438 1.251,-0.125 1.251,0.063 1.25,0.375 1.251,0.501 1.251,0.5 1.251,0.312 1.25,0.064 1.251,-0.189 1.251,-0.375 1.251,-0.437 1.251,-0.439 1.251,-0.187 h 1.188 l 1.251,0.313 2.501,1 1.251,0.376 1.251,0.188 1.251,-0.125 1.251,-0.376 1.251,-0.5 1.25,-0.501 1.251,-0.313 1.251,-0.062 1.251,0.313 1.251,0.563 1.251,0.813 1.25,0.875 1.251,0.626 1.188,0.375 1.252,-0.125 1.25,-0.437 1.251,-0.751 1.251,-0.939 1.251,-0.812 1.25,-0.564 1.251,-0.125 1.251,0.313 1.251,0.688 2.502,2.002 1.251,0.875 1.25,0.564 h 1.251 l 1.251,-0.439 1.251,-1 1.251,-1.313 1.188,-1.502 1.25,-1.376 1.251,-1.064 1.251,-0.375 1.251,0.375 1.251,1.376 1.251,2.377 1.251,3.503 1.25,4.442 1.251,5.38 1.251,6.13 1.251,6.755 1.251,7.194 2.502,14.638 1.251,7.068 1.25,6.631 1.188,6.005 1.251,5.129 1.251,4.129 1.251,3.127 1.251,1.877 1.25,0.688 1.251,-0.5 1.251,-1.627 1.251,-2.627 1.251,-3.628 1.251,-4.379 1.251,-4.942 1.25,-5.441 1.251,-5.63 1.251,-5.755 1.251,-5.693 1.251,-5.504 1.188,-5.192 1.25,-4.754 1.251,-4.379 1.251,-3.94 1.251,-3.441 1.251,-3.003 1.251,-2.564 1.251,-2.127 1.25,-1.752 1.251,-1.439 1.251,-1.188 1.251,-0.876 1.251,-0.75 1.25,-0.564 1.252,-0.437 1.25,-0.314 1.251,-0.25 1.189,-0.187 1.251,-0.125 5.003,-0.25 h 5.002"
       style="fill:none;stroke:#211e1f;stroke-width:0.81300002;stroke-linecap:round;stroke-linejoin:round;stroke-miterlimit:10;stroke-dasharray:none;stroke-opacity:1"
       id="path752"
       inkscape:connector-curvature="0" /><path
       d="m 367.515,626.368 1.251,1.876 1.251,1.315 1.251,0.437 1.251,-0.563 1.25,-1.439 1.251,-1.876 1.251,-1.877 1.251,-1.313 1.188,-0.376 1.251,0.626 1.251,1.501 1.251,1.939 1.251,1.877 1.251,1.439 1.251,0.5 1.25,-0.438 1.251,-1.188 1.251,-1.752 1.251,-1.689 1.25,-1.251 1.251,-0.563 1.251,0.376 1.251,1.125 1.251,1.502 1.251,1.563 1.188,1.126 1.251,0.375 1.251,-0.375 1.25,-1.188 1.251,-1.689 1.251,-1.689 1.251,-1.376 1.251,-0.625 1.251,0.312 1.25,1.189 1.251,1.814 1.251,2.126 1.251,2.002 1.251,1.376 1.251,0.626 1.25,-0.375 1.251,-1.189 1.188,-1.814 1.252,-1.939 1.25,-1.752 1.251,-1.125 1.251,-0.376 1.251,0.438 1.25,1.126 1.251,1.564 1.251,1.627 1.251,1.312 1.251,0.751 1.251,-0.062 1.251,-0.939 1.25,-1.563 2.502,-4.129 1.251,-1.876 1.251,-1.126 1.188,-0.25 1.25,0.937 1.251,2.19 1.251,3.44 1.251,4.567 1.251,5.442 1.251,6.193 1.251,6.568 1.25,6.631 1.251,6.568 1.251,6.13 1.251,5.567 1.251,4.817 1.251,3.878 1.251,2.878 1.251,1.814 1.25,0.75 1.188,-0.25 1.251,-1.313 1.251,-2.127 1.251,-2.878 1.251,-3.565 1.25,-4.004 1.251,-4.316 1.251,-4.441 1.251,-4.504 1.251,-4.442 1.251,-4.19 1.251,-3.879 1.25,-3.628 1.251,-3.19 1.251,-2.815 1.251,-2.439 1.251,-2.127 1.188,-1.752 1.25,-1.439 1.251,-1.126 1.251,-1.001 1.251,-0.687 1.251,-0.626 1.251,-0.438 1.251,-0.312 1.25,-0.251 1.251,-0.188 2.502,-0.25 2.501,-0.125 h 1.252 l 1.25,-0.062 h 6.193 l 1.25,-0.063 h 6.253"
       style="fill:none;stroke:#eb2022;stroke-width:0.81300002;stroke-linecap:round;stroke-linejoin:round;stroke-miterlimit:10;stroke-dasharray:none;stroke-opacity:1"
       id="path754"
       inkscape:connector-curvature="0" /><path
       d="m 335.332,640.605 c 0,1.841 0,0 0,1.841 0,0.391 -0.041,0.698 -0.121,0.919 -0.081,0.219 -0.211,0.387 -0.389,0.502 -0.178,0.115 -0.371,0.172 -0.58,0.172 -0.306,0 -0.558,-0.111 -0.754,-0.333 -0.198,-0.222 -0.296,-0.574 -0.296,-1.053 0,-2.048 0,0 0,-2.048 2.14,0 0,0 2.14,0 z m 3.614,-0.856 c -6.469,0 0,0 -6.469,0 0,2.869 0,0 0,2.869 0,0.576 0.058,1.016 0.174,1.315 0.116,0.301 0.321,0.541 0.616,0.719 0.294,0.179 0.619,0.269 0.975,0.269 0.459,0 0.846,-0.148 1.161,-0.445 0.314,-0.297 0.514,-0.756 0.6,-1.377 0.109,0.227 0.216,0.398 0.322,0.517 0.229,0.25 0.516,0.487 0.86,0.71 1.761,1.126 0,0 1.761,1.126 0,-1.078 0,0 0,-1.078 -1.346,-0.855 0,0 -1.346,-0.855 -0.388,-0.25 -0.685,-0.457 -0.891,-0.619 -0.206,-0.162 -0.35,-0.306 -0.433,-0.434 -0.082,-0.129 -0.14,-0.258 -0.172,-0.391 -0.02,-0.097 -0.031,-0.256 -0.031,-0.476 0,-0.994 0,0 0,-0.994 2.873,0 0,0 2.873,0 0,-0.856 0,0 0,-0.856"
       style="fill:#211e1f;fill-opacity:1;fill-rule:nonzero;stroke:none"
       id="path756"
       inkscape:connector-curvature="0" /><path
       d="m 338.946,646.267 c -6.469,0 0,0 -6.469,0 0,4.365 0,0 0,4.365 0.763,0 0,0 0.763,0 0,-3.51 0,0 0,-3.51 2.004,0 0,0 2.004,0 0,3.037 0,0 0,3.037 0.763,0 0,0 0.763,0 0,-3.037 0,0 0,-3.037 2.939,0 0,0 2.939,0 0,-0.855 0,0 0,-0.855"
       style="fill:#211e1f;fill-opacity:1;fill-rule:nonzero;stroke:none"
       id="path758"
       inkscape:connector-curvature="0" /><path
       d="m 340.848,653.116 c -0.553,-0.438 -1.2,-0.809 -1.942,-1.113 -0.741,-0.303 -1.509,-0.454 -2.304,-0.454 -0.699,0 -1.37,0.114 -2.011,0.341 -0.745,0.263 -1.486,0.674 -2.225,1.226 0,0.57 0,0 0,0.57 0.612,-0.357 1.049,-0.591 1.311,-0.706 0.406,-0.18 0.83,-0.321 1.271,-0.424 0.55,-0.127 1.103,-0.19 1.659,-0.19 1.415,0 2.829,0.44 4.241,1.32 0,-0.57 0,0 0,-0.57"
       style="fill:#211e1f;fill-opacity:1;fill-rule:nonzero;stroke:none"
       id="path760"
       inkscape:connector-curvature="0" /><path
       d="m 335.332,655.546 c 0,1.841 0,0 0,1.841 0,0.391 -0.041,0.697 -0.121,0.918 -0.081,0.221 -0.211,0.389 -0.389,0.503 -0.178,0.115 -0.371,0.172 -0.58,0.172 -0.306,0 -0.558,-0.111 -0.754,-0.333 -0.198,-0.222 -0.296,-0.574 -0.296,-1.052 0,-2.049 0,0 0,-2.049 2.14,0 0,0 2.14,0 z m 3.614,-0.855 c -6.469,0 0,0 -6.469,0 0,2.869 0,0 0,2.869 0,0.576 0.058,1.015 0.174,1.314 0.116,0.3 0.321,0.54 0.616,0.72 0.294,0.179 0.619,0.269 0.975,0.269 0.459,0 0.846,-0.148 1.161,-0.446 0.314,-0.297 0.514,-0.756 0.6,-1.377 0.109,0.227 0.216,0.399 0.322,0.516 0.229,0.25 0.516,0.488 0.86,0.711 1.761,1.126 0,0 1.761,1.126 0,-1.077 0,0 0,-1.077 -1.346,-0.857 0,0 -1.346,-0.857 -0.388,-0.249 -0.685,-0.456 -0.891,-0.618 -0.206,-0.161 -0.35,-0.307 -0.433,-0.434 -0.082,-0.129 -0.14,-0.258 -0.172,-0.391 -0.02,-0.097 -0.031,-0.256 -0.031,-0.477 0,-0.993 0,0 0,-0.993 2.873,0 0,0 2.873,0 0,-0.855 0,0 0,-0.855"
       style="fill:#211e1f;fill-opacity:1;fill-rule:nonzero;stroke:none"
       id="path762"
       inkscape:connector-curvature="0" /><path
       d="m 340.848,661.583 c 0,-0.569 0,0 0,-0.569 -1.412,0.88 -2.826,1.319 -4.241,1.319 -0.553,0 -1.101,-0.063 -1.645,-0.189 -0.442,-0.1 -0.866,-0.24 -1.272,-0.42 -0.264,-0.114 -0.706,-0.351 -1.324,-0.71 0,0.569 0,0 0,0.569 0.739,0.553 1.48,0.963 2.225,1.227 0.641,0.227 1.312,0.34 2.011,0.34 0.795,0 1.563,-0.152 2.304,-0.457 0.742,-0.304 1.389,-0.674 1.942,-1.11"
       style="fill:#211e1f;fill-opacity:1;fill-rule:nonzero;stroke:none"
       id="path764"
       inkscape:connector-curvature="0" /><path
       d="m 340.848,665.558 c -0.553,-0.438 -1.2,-0.809 -1.942,-1.112 -0.741,-0.303 -1.509,-0.455 -2.304,-0.455 -0.699,0 -1.37,0.114 -2.011,0.34 -0.745,0.265 -1.486,0.675 -2.225,1.227 0,0.57 0,0 0,0.57 0.612,-0.356 1.049,-0.592 1.311,-0.706 0.406,-0.18 0.83,-0.321 1.271,-0.424 0.55,-0.127 1.103,-0.19 1.659,-0.19 1.415,0 2.829,0.44 4.241,1.32 0,-0.57 0,0 0,-0.57"
       style="fill:#211e1f;fill-opacity:1;fill-rule:nonzero;stroke:none"
       id="path766"
       inkscape:connector-curvature="0" /><path
       d="m 338.946,667.208 c -4.068,0 0,0 -4.068,0 0,-0.702 0,0 0,-0.702 -0.619,0 0,0 -0.619,0 0,0.702 0,0 0,0.702 -0.498,0 0,0 -0.498,0 -0.315,0 -0.548,0.028 -0.702,0.083 -0.206,0.077 -0.372,0.211 -0.501,0.404 -0.128,0.193 -0.192,0.463 -0.192,0.81 0,0.224 0.027,0.471 0.08,0.742 0.692,-0.119 0,0 0.692,-0.119 -0.029,-0.166 -0.044,-0.321 -0.044,-0.469 0,-0.241 0.052,-0.411 0.155,-0.512 0.103,-0.1 0.296,-0.15 0.578,-0.15 0.432,0 0,0 0.432,0 0,0.914 0,0 0,0.914 0.619,0 0,0 0.619,0 0,-0.914 0,0 0,-0.914 4.068,0 0,0 4.068,0 0,-0.789 0,0 0,-0.789"
       style="fill:#211e1f;fill-opacity:1;fill-rule:nonzero;stroke:none"
       id="path768"
       inkscape:connector-curvature="0" /><path
       d="m 338.946,669.517 c -4.687,0 0,0 -4.687,0 0,0.71 0,0 0,0.71 0.658,0 0,0 0.658,0 -0.229,0.147 -0.414,0.343 -0.554,0.587 -0.14,0.244 -0.209,0.522 -0.209,0.835 0,0.346 0.072,0.631 0.216,0.854 0.144,0.222 0.346,0.378 0.604,0.469 -0.547,0.371 -0.82,0.854 -0.82,1.448 0,0.465 0.128,0.822 0.386,1.072 0.257,0.251 0.654,0.376 1.189,0.376 3.217,0 0,0 3.217,0 0,-0.791 0,0 0,-0.791 -2.952,0 0,0 -2.952,0 -0.318,0 -0.547,-0.025 -0.687,-0.077 -0.139,-0.051 -0.252,-0.144 -0.337,-0.28 -0.086,-0.135 -0.128,-0.294 -0.128,-0.476 0,-0.33 0.11,-0.604 0.329,-0.821 0.219,-0.218 0.57,-0.327 1.052,-0.327 2.723,0 0,0 2.723,0 0,-0.794 0,0 0,-0.794 -3.045,0 0,0 -3.045,0 -0.353,0 -0.618,-0.065 -0.794,-0.194 -0.177,-0.13 -0.265,-0.342 -0.265,-0.636 0,-0.224 0.059,-0.43 0.177,-0.62 0.117,-0.19 0.289,-0.327 0.516,-0.413 0.226,-0.085 0.553,-0.128 0.979,-0.128 2.432,0 0,0 2.432,0 0,-0.794 0,0 0,-0.794"
       style="fill:#211e1f;fill-opacity:1;fill-rule:nonzero;stroke:none"
       id="path770"
       inkscape:connector-curvature="0" /><path
       d="m 332.848,676.588 c -0.474,0 0,0 -0.474,0 0,1.45 0,0 0,1.45 0.474,0 0,0 0.474,0 0,-1.45 0,0 0,-1.45"
       style="fill:#211e1f;fill-opacity:1;fill-rule:nonzero;stroke:none"
       id="path772"
       inkscape:connector-curvature="0" /><path
       d="m 334.002,680.226 c 0,-0.472 0,0 0,-0.472 -3.007,0 0,0 -3.007,0 0.108,-0.114 0.217,-0.263 0.325,-0.447 0.108,-0.185 0.189,-0.35 0.244,-0.497 -0.456,0 0,0 -0.456,0 -0.124,0.264 -0.275,0.495 -0.452,0.692 -0.176,0.198 -0.347,0.338 -0.513,0.42 0,0.304 0,0 0,0.304 3.859,0 0,0 3.859,0"
       style="fill:#211e1f;fill-opacity:1;fill-rule:nonzero;stroke:none"
       id="path774"
       inkscape:connector-curvature="0" /><path
       d="m 334.068,681.203 c -3.975,1.115 0,0 -3.975,1.115 0,0.377 0,0 0,0.377 3.975,-1.112 0,0 3.975,-1.112 0,-0.38 0,0 0,-0.38"
       style="fill:#211e1f;fill-opacity:1;fill-rule:nonzero;stroke:none"
       id="path776"
       inkscape:connector-curvature="0" /><path
       d="m 333.549,685.395 c 0.453,0 0,0 0.453,0 0,-2.54 0,0 0,-2.54 -0.114,-0.004 -0.223,0.014 -0.327,0.054 -0.174,0.065 -0.344,0.169 -0.512,0.311 -0.168,0.142 -0.362,0.349 -0.582,0.617 -0.343,0.418 -0.614,0.701 -0.814,0.847 -0.2,0.147 -0.389,0.221 -0.568,0.221 -0.187,0 -0.344,-0.067 -0.473,-0.201 -0.128,-0.134 -0.193,-0.308 -0.193,-0.523 0,-0.227 0.068,-0.409 0.205,-0.546 0.137,-0.135 0.325,-0.205 0.566,-0.207 -0.05,-0.484 0,0 -0.05,-0.484 -0.361,0.033 -0.637,0.157 -0.827,0.375 -0.189,0.216 -0.284,0.507 -0.284,0.873 0,0.368 0.102,0.661 0.306,0.876 0.205,0.214 0.459,0.322 0.761,0.322 0.154,0 0.305,-0.031 0.453,-0.094 0.149,-0.063 0.305,-0.168 0.47,-0.314 0.164,-0.146 0.39,-0.388 0.676,-0.727 0.238,-0.284 0.399,-0.465 0.484,-0.546 0.085,-0.08 0.17,-0.147 0.256,-0.199 0,1.885 0,0 0,1.885"
       style="fill:#211e1f;fill-opacity:1;fill-rule:nonzero;stroke:none"
       id="path778"
       inkscape:connector-curvature="0" /><path
       d="m 340.848,686.786 c 0,-0.57 0,0 0,-0.57 -1.412,0.88 -2.826,1.32 -4.241,1.32 -0.553,0 -1.101,-0.063 -1.645,-0.19 -0.442,-0.1 -0.866,-0.239 -1.272,-0.419 -0.264,-0.115 -0.706,-0.352 -1.324,-0.711 0,0.57 0,0 0,0.57 0.739,0.553 1.48,0.962 2.225,1.226 0.641,0.228 1.312,0.341 2.011,0.341 0.795,0 1.563,-0.153 2.304,-0.457 0.742,-0.305 1.389,-0.675 1.942,-1.11"
       style="fill:#211e1f;fill-opacity:1;fill-rule:nonzero;stroke:none"
       id="path780"
       inkscape:connector-curvature="0" /><path
       d="m 438.319,597.339 c 1.84,0 0,0 1.84,0 0.391,0 0.697,0.039 0.917,0.121 0.222,0.08 0.389,0.209 0.503,0.389 0.115,0.177 0.173,0.371 0.173,0.58 0,0.304 -0.112,0.556 -0.333,0.754 -0.223,0.197 -0.574,0.296 -1.053,0.296 -2.047,0 0,0 -2.047,0 0,-2.14 0,0 0,-2.14 z m -0.856,-3.615 c 0,6.47 0,0 0,6.47 2.868,0 0,0 2.868,0 0.576,0 1.015,-0.059 1.314,-0.174 0.301,-0.117 0.54,-0.323 0.72,-0.617 0.18,-0.295 0.269,-0.619 0.269,-0.974 0,-0.459 -0.149,-0.846 -0.446,-1.161 -0.297,-0.316 -0.756,-0.515 -1.376,-0.601 0.226,-0.109 0.399,-0.216 0.515,-0.322 0.252,-0.229 0.488,-0.516 0.711,-0.86 1.126,-1.761 0,0 1.126,-1.761 -1.077,0 0,0 -1.077,0 -0.856,1.345 0,0 -0.856,1.345 -0.25,0.389 -0.457,0.686 -0.618,0.891 -0.162,0.207 -0.307,0.351 -0.435,0.434 -0.128,0.082 -0.257,0.139 -0.39,0.172 -0.098,0.021 -0.256,0.031 -0.477,0.031 -0.992,0 0,0 -0.992,0 0,-2.873 0,0 0,-2.873 -0.856,0 0,0 -0.856,0"
       style="fill:#211e1f;fill-opacity:1;fill-rule:nonzero;stroke:none"
       id="path782"
       inkscape:connector-curvature="0" /><path
       d="m 373.582,700.806 h 41.903 v 18.078 h -41.903 z"
       style="fill:#ffffff;fill-opacity:1;fill-rule:nonzero;stroke:none"
       id="path784"
       inkscape:connector-curvature="0" /><path
       d="m 373.582,718.884 h 41.903 v -18.078 h -41.903 z"
       style="fill:none;stroke:#211e1f;stroke-width:0.30000001;stroke-linecap:round;stroke-linejoin:round;stroke-miterlimit:10;stroke-dasharray:none;stroke-opacity:1"
       id="path786"
       inkscape:connector-curvature="0" /><path
       d="m 374.833,714.193 h 16.636"
       style="fill:none;stroke:#211e1f;stroke-width:0.81300002;stroke-linecap:round;stroke-linejoin:round;stroke-miterlimit:10;stroke-dasharray:none;stroke-opacity:1"
       id="path788"
       inkscape:connector-curvature="0" /><path
       d="m 397.279,712.319 c 0,-0.628 0,0 0,-0.628 -3.521,0 0,0 -3.521,0 -0.005,0.157 0.021,0.309 0.076,0.454 0.09,0.24 0.234,0.476 0.431,0.709 0.198,0.233 0.483,0.502 0.856,0.807 0.579,0.474 0.97,0.851 1.174,1.128 0.203,0.278 0.305,0.54 0.305,0.787 0,0.26 -0.093,0.478 -0.278,0.656 -0.186,0.178 -0.427,0.267 -0.725,0.267 -0.315,0 -0.567,-0.094 -0.756,-0.283 -0.189,-0.189 -0.285,-0.451 -0.287,-0.785 -0.672,0.069 0,0 -0.672,0.069 0.045,0.502 0.219,0.884 0.519,1.147 0.301,0.262 0.704,0.394 1.21,0.394 0.512,0 0.916,-0.142 1.214,-0.425 0.298,-0.284 0.447,-0.635 0.447,-1.054 0,-0.214 -0.043,-0.423 -0.131,-0.629 -0.087,-0.206 -0.232,-0.423 -0.434,-0.651 -0.202,-0.228 -0.538,-0.54 -1.009,-0.938 -0.392,-0.329 -0.644,-0.552 -0.755,-0.67 -0.112,-0.118 -0.204,-0.236 -0.276,-0.355 2.612,0 0,0 2.612,0"
       style="fill:#211e1f;fill-opacity:1;fill-rule:nonzero;stroke:none"
       id="path790"
       inkscape:connector-curvature="0" /><path
       d="m 400.433,711.691 c -0.654,0 0,0 -0.654,0 0,4.168 0,0 0,4.168 -0.157,-0.15 -0.364,-0.3 -0.62,-0.45 -0.255,-0.15 -0.485,-0.263 -0.688,-0.338 0,0.632 0,0 0,0.632 0.366,0.173 0.685,0.381 0.959,0.626 0.274,0.244 0.468,0.482 0.582,0.712 0.421,0 0,0 0.421,0 0,-5.35 0,0 0,-5.35"
       style="fill:#211e1f;fill-opacity:1;fill-rule:nonzero;stroke:none"
       id="path792"
       inkscape:connector-curvature="0" /><path
       d="m 405.535,712.319 c 0,-0.628 0,0 0,-0.628 -3.522,0 0,0 -3.522,0 -0.005,0.157 0.021,0.309 0.077,0.454 0.089,0.24 0.233,0.476 0.43,0.709 0.198,0.233 0.483,0.502 0.856,0.807 0.579,0.474 0.97,0.851 1.174,1.128 0.204,0.278 0.305,0.54 0.305,0.787 0,0.26 -0.093,0.478 -0.278,0.656 -0.185,0.178 -0.427,0.267 -0.725,0.267 -0.315,0 -0.567,-0.094 -0.756,-0.283 -0.188,-0.189 -0.284,-0.451 -0.287,-0.785 -0.672,0.069 0,0 -0.672,0.069 0.046,0.502 0.219,0.884 0.519,1.147 0.301,0.262 0.705,0.394 1.211,0.394 0.511,0 0.916,-0.142 1.214,-0.425 0.298,-0.284 0.447,-0.635 0.447,-1.054 0,-0.214 -0.044,-0.423 -0.131,-0.629 -0.087,-0.206 -0.232,-0.423 -0.434,-0.651 -0.203,-0.228 -0.539,-0.54 -1.009,-0.938 -0.392,-0.329 -0.644,-0.552 -0.756,-0.67 -0.111,-0.118 -0.203,-0.236 -0.276,-0.355 2.613,0 0,0 2.613,0"
       style="fill:#211e1f;fill-opacity:1;fill-rule:nonzero;stroke:none"
       id="path794"
       inkscape:connector-curvature="0" /><path
       d="m 407.195,714.486 c 1.377,0 0,0 1.377,0 0.456,0 0.779,0.084 0.971,0.254 0.191,0.17 0.287,0.409 0.287,0.716 0,0.223 -0.056,0.414 -0.169,0.573 -0.113,0.159 -0.261,0.263 -0.445,0.314 -0.119,0.032 -0.338,0.047 -0.658,0.047 -1.363,0 0,0 -1.363,0 0,-1.904 0,0 0,-1.904 z m -0.705,-2.795 c 0,5.328 0,0 0,5.328 2.01,0 0,0 2.01,0 0.353,0 0.624,-0.017 0.81,-0.051 0.261,-0.044 0.481,-0.127 0.658,-0.249 0.177,-0.122 0.319,-0.294 0.427,-0.514 0.108,-0.22 0.161,-0.463 0.161,-0.727 0,-0.453 -0.144,-0.837 -0.432,-1.15 -0.288,-0.314 -0.809,-0.471 -1.562,-0.471 -1.367,0 0,0 -1.367,0 0,-2.166 0,0 0,-2.166 -0.705,0 0,0 -0.705,0"
       style="fill:#211e1f;fill-opacity:1;fill-rule:nonzero;stroke:none"
       id="path796"
       inkscape:connector-curvature="0" /><path
       d="m 411.776,713.621 c 0,-0.494 0.108,-0.865 0.323,-1.111 0.216,-0.246 0.488,-0.369 0.815,-0.369 0.324,0 0.594,0.124 0.81,0.371 0.216,0.247 0.324,0.624 0.324,1.131 0,0.477 -0.109,0.839 -0.326,1.085 -0.216,0.245 -0.486,0.368 -0.808,0.368 -0.327,0 -0.599,-0.122 -0.815,-0.366 -0.215,-0.245 -0.323,-0.615 -0.323,-1.109 z m -0.672,0 c 0,0.715 0.198,1.244 0.596,1.588 0.332,0.286 0.736,0.429 1.214,0.429 0.53,0 0.964,-0.174 1.301,-0.522 0.337,-0.347 0.505,-0.828 0.505,-1.441 0,-0.497 -0.075,-0.887 -0.224,-1.172 -0.149,-0.284 -0.365,-0.506 -0.65,-0.663 -0.285,-0.158 -0.596,-0.236 -0.932,-0.236 -0.541,0 -0.977,0.173 -1.31,0.519 -0.334,0.347 -0.5,0.846 -0.5,1.498"
       style="fill:#211e1f;fill-opacity:1;fill-rule:nonzero;stroke:none"
       id="path798"
       inkscape:connector-curvature="0" /><path
       d="m 374.833,705.06 h 16.636"
       style="fill:none;stroke:#eb2022;stroke-width:0.81300002;stroke-linecap:round;stroke-linejoin:round;stroke-miterlimit:10;stroke-dasharray:none;stroke-opacity:1"
       id="path800"
       inkscape:connector-curvature="0" /><path
       d="m 397.279,703.187 c 0,-0.629 0,0 0,-0.629 -3.521,0 0,0 -3.521,0 -0.005,0.157 0.021,0.309 0.076,0.454 0.09,0.24 0.234,0.476 0.431,0.709 0.198,0.233 0.483,0.502 0.856,0.807 0.579,0.475 0.97,0.851 1.174,1.128 0.203,0.278 0.305,0.54 0.305,0.788 0,0.259 -0.093,0.478 -0.278,0.656 -0.186,0.177 -0.427,0.267 -0.725,0.267 -0.315,0 -0.567,-0.095 -0.756,-0.284 -0.189,-0.189 -0.285,-0.451 -0.287,-0.785 -0.672,0.069 0,0 -0.672,0.069 0.045,0.502 0.219,0.884 0.519,1.147 0.301,0.263 0.704,0.394 1.21,0.394 0.512,0 0.916,-0.141 1.214,-0.425 0.298,-0.284 0.447,-0.635 0.447,-1.054 0,-0.214 -0.043,-0.423 -0.131,-0.629 -0.087,-0.206 -0.232,-0.423 -0.434,-0.65 -0.202,-0.228 -0.538,-0.541 -1.009,-0.938 -0.392,-0.33 -0.644,-0.553 -0.755,-0.671 -0.112,-0.118 -0.204,-0.236 -0.276,-0.354 2.612,0 0,0 2.612,0"
       style="fill:#211e1f;fill-opacity:1;fill-rule:nonzero;stroke:none"
       id="path802"
       inkscape:connector-curvature="0" /><path
       d="m 400.433,702.558 c -0.654,0 0,0 -0.654,0 0,4.169 0,0 0,4.169 -0.157,-0.15 -0.364,-0.3 -0.62,-0.45 -0.255,-0.151 -0.485,-0.264 -0.688,-0.339 0,0.632 0,0 0,0.632 0.366,0.173 0.685,0.381 0.959,0.626 0.274,0.245 0.468,0.482 0.582,0.712 0.421,0 0,0 0.421,0 0,-5.35 0,0 0,-5.35"
       style="fill:#211e1f;fill-opacity:1;fill-rule:nonzero;stroke:none"
       id="path804"
       inkscape:connector-curvature="0" /><path
       d="m 402.769,705.186 c 0,-0.875 0.103,-1.457 0.307,-1.746 0.205,-0.29 0.458,-0.435 0.758,-0.435 0.3,0 0.553,0.146 0.758,0.436 0.205,0.291 0.307,0.873 0.307,1.745 0,0.877 -0.102,1.46 -0.307,1.748 -0.205,0.288 -0.46,0.433 -0.765,0.433 -0.3,0 -0.54,-0.127 -0.72,-0.382 -0.225,-0.325 -0.338,-0.924 -0.338,-1.799 z m -0.672,0 c 0,0.63 0.065,1.137 0.195,1.521 0.129,0.384 0.322,0.68 0.577,0.889 0.256,0.208 0.578,0.312 0.965,0.312 0.286,0 0.537,-0.057 0.752,-0.172 0.216,-0.116 0.394,-0.281 0.535,-0.499 0.14,-0.216 0.25,-0.48 0.33,-0.792 0.08,-0.311 0.121,-0.731 0.121,-1.259 0,-0.625 -0.065,-1.13 -0.193,-1.514 -0.129,-0.384 -0.321,-0.681 -0.577,-0.891 -0.255,-0.209 -0.578,-0.314 -0.968,-0.314 -0.514,0 -0.917,0.184 -1.21,0.553 -0.351,0.443 -0.527,1.165 -0.527,2.166"
       style="fill:#211e1f;fill-opacity:1;fill-rule:nonzero;stroke:none"
       id="path806"
       inkscape:connector-curvature="0" /><path
       d="m 407.195,705.353 c 1.377,0 0,0 1.377,0 0.456,0 0.779,0.085 0.971,0.255 0.191,0.169 0.287,0.408 0.287,0.715 0,0.224 -0.056,0.414 -0.169,0.573 -0.113,0.159 -0.261,0.263 -0.445,0.315 -0.119,0.031 -0.338,0.046 -0.658,0.046 -1.363,0 0,0 -1.363,0 0,-1.904 0,0 0,-1.904 z m -0.705,-2.795 c 0,5.328 0,0 0,5.328 2.01,0 0,0 2.01,0 0.353,0 0.624,-0.017 0.81,-0.05 0.261,-0.044 0.481,-0.127 0.658,-0.249 0.177,-0.123 0.319,-0.294 0.427,-0.514 0.108,-0.221 0.161,-0.463 0.161,-0.728 0,-0.453 -0.144,-0.836 -0.432,-1.15 -0.288,-0.314 -0.809,-0.471 -1.562,-0.471 -1.367,0 0,0 -1.367,0 0,-2.166 0,0 0,-2.166 -0.705,0 0,0 -0.705,0"
       style="fill:#211e1f;fill-opacity:1;fill-rule:nonzero;stroke:none"
       id="path808"
       inkscape:connector-curvature="0" /><path
       d="m 411.776,704.488 c 0,-0.494 0.108,-0.864 0.323,-1.11 0.216,-0.247 0.488,-0.369 0.815,-0.369 0.324,0 0.594,0.123 0.81,0.371 0.216,0.247 0.324,0.624 0.324,1.13 0,0.477 -0.109,0.839 -0.326,1.085 -0.216,0.245 -0.486,0.369 -0.808,0.369 -0.327,0 -0.599,-0.123 -0.815,-0.368 -0.215,-0.244 -0.323,-0.613 -0.323,-1.108 z m -0.672,0 c 0,0.715 0.198,1.244 0.596,1.588 0.332,0.286 0.736,0.429 1.214,0.429 0.53,0 0.964,-0.174 1.301,-0.521 0.337,-0.348 0.505,-0.828 0.505,-1.441 0,-0.497 -0.075,-0.888 -0.224,-1.173 -0.149,-0.284 -0.365,-0.505 -0.65,-0.663 -0.285,-0.158 -0.596,-0.236 -0.932,-0.236 -0.541,0 -0.977,0.173 -1.31,0.519 -0.334,0.347 -0.5,0.846 -0.5,1.498"
       style="fill:#211e1f;fill-opacity:1;fill-rule:nonzero;stroke:none"
       id="path810"
       inkscape:connector-curvature="0" /></g></svg>