<?xml version="1.0" encoding="UTF-8" standalone="no"?>
<!-- Created with Inkscape (http://www.inkscape.org/) -->

<svg
   xmlns:ns0="http://www.iki.fi/pav/software/textext/"
   xmlns:dc="http://purl.org/dc/elements/1.1/"
   xmlns:cc="http://creativecommons.org/ns#"
   xmlns:rdf="http://www.w3.org/1999/02/22-rdf-syntax-ns#"
   xmlns:svg="http://www.w3.org/2000/svg"
   xmlns="http://www.w3.org/2000/svg"
   xmlns:xlink="http://www.w3.org/1999/xlink"
   xmlns:sodipodi="http://sodipodi.sourceforge.net/DTD/sodipodi-0.dtd"
   xmlns:inkscape="http://www.inkscape.org/namespaces/inkscape"
   width="85.12886mm"
   height="47.428352mm"
   viewBox="0 0 85.128858 47.428353"
   version="1.1"
   id="svg1941"
   inkscape:version="0.92.5 (2060ec1f9f, 2020-04-08)"
   sodipodi:docname="kinematics.svg">
  <defs
     id="defs1935">
    <marker
       inkscape:stockid="Arrow1Lend"
       orient="auto"
       refY="0"
       refX="0"
       id="Arrow1Lend"
       style="overflow:visible"
       inkscape:isstock="true">
      <path
         id="path858"
         d="M 0,0 5,-5 -12.5,0 5,5 Z"
         style="fill:#000000;fill-opacity:1;fill-rule:evenodd;stroke:#000000;stroke-width:1.00000003pt;stroke-opacity:1"
         transform="matrix(-0.8,0,0,-0.8,-10,0)"
         inkscape:connector-curvature="0" />
    </marker>
    <marker
       inkscape:stockid="Arrow1Lstart"
       orient="auto"
       refY="0"
       refX="0"
       id="Arrow1Lstart"
       style="overflow:visible"
       inkscape:isstock="true">
      <path
         id="path855"
         d="M 0,0 5,-5 -12.5,0 5,5 Z"
         style="fill:#000000;fill-opacity:1;fill-rule:evenodd;stroke:#000000;stroke-width:1.00000003pt;stroke-opacity:1"
         transform="matrix(0.8,0,0,0.8,10,0)"
         inkscape:connector-curvature="0" />
    </marker>
    <marker
       inkscape:stockid="Arrow1Lend"
       orient="auto"
       refY="0"
       refX="0"
       id="Arrow1Lend-3"
       style="overflow:visible"
       inkscape:isstock="true">
      <path
         inkscape:connector-curvature="0"
         id="path858-6"
         d="M 0,0 5,-5 -12.5,0 5,5 Z"
         style="fill:#000000;fill-opacity:1;fill-rule:evenodd;stroke:#000000;stroke-width:1.00000003pt;stroke-opacity:1"
         transform="matrix(-0.8,0,0,-0.8,-10,0)" />
    </marker>
    <marker
       inkscape:stockid="Arrow1Lend"
       orient="auto"
       refY="0"
       refX="0"
       id="Arrow1Lend-35"
       style="overflow:visible"
       inkscape:isstock="true">
      <path
         inkscape:connector-curvature="0"
         id="path858-62"
         d="M 0,0 5,-5 -12.5,0 5,5 Z"
         style="fill:#000000;fill-opacity:1;fill-rule:evenodd;stroke:#000000;stroke-width:1.00000003pt;stroke-opacity:1"
         transform="matrix(-0.8,0,0,-0.8,-10,0)" />
    </marker>
    <marker
       inkscape:stockid="Arrow1Lend"
       orient="auto"
       refY="0"
       refX="0"
       id="Arrow1Lend-1"
       style="overflow:visible"
       inkscape:isstock="true">
      <path
         inkscape:connector-curvature="0"
         id="path858-2"
         d="M 0,0 5,-5 -12.5,0 5,5 Z"
         style="fill:#000000;fill-opacity:1;fill-rule:evenodd;stroke:#000000;stroke-width:1.00000003pt;stroke-opacity:1"
         transform="matrix(-0.8,0,0,-0.8,-10,0)" />
    </marker>
    <marker
       inkscape:stockid="Arrow1Lstart"
       orient="auto"
       refY="0"
       refX="0"
       id="Arrow1Lstart-7"
       style="overflow:visible"
       inkscape:isstock="true">
      <path
         inkscape:connector-curvature="0"
         id="path822-5"
         d="M 0,0 5,-5 -12.5,0 5,5 Z"
         style="fill:#000000;fill-opacity:1;fill-rule:evenodd;stroke:#000000;stroke-width:1.00000003pt;stroke-opacity:1"
         transform="matrix(0.8,0,0,0.8,10,0)" />
    </marker>
    <marker
       inkscape:stockid="Arrow1Lstart"
       orient="auto"
       refY="0"
       refX="0"
       id="Arrow1Lstart-7-5"
       style="overflow:visible"
       inkscape:isstock="true">
      <path
         inkscape:connector-curvature="0"
         id="path822-5-6"
         d="M 0,0 5,-5 -12.5,0 5,5 Z"
         style="fill:#000000;fill-opacity:1;fill-rule:evenodd;stroke:#000000;stroke-width:1.00000003pt;stroke-opacity:1"
         transform="matrix(0.8,0,0,0.8,10,0)" />
    </marker>
  </defs>
  <sodipodi:namedview
     id="base"
     pagecolor="#ffffff"
     bordercolor="#666666"
     borderopacity="1.0"
     inkscape:pageopacity="0.0"
     inkscape:pageshadow="2"
     inkscape:zoom="1.4142136"
     inkscape:cx="-16.434864"
     inkscape:cy="100.67908"
     inkscape:document-units="mm"
     inkscape:current-layer="layer1"
     showgrid="false"
     inkscape:window-width="1920"
     inkscape:window-height="1018"
     inkscape:window-x="0"
     inkscape:window-y="0"
     inkscape:window-maximized="1"
     fit-margin-top="0"
     fit-margin-left="0"
     fit-margin-right="0"
     fit-margin-bottom="0" />
  <metadata
     id="metadata1938">
    <rdf:RDF>
      <cc:Work
         rdf:about="">
        <dc:format>image/svg+xml</dc:format>
        <dc:type
           rdf:resource="http://purl.org/dc/dcmitype/StillImage" />
        <dc:title />
      </cc:Work>
    </rdf:RDF>
  </metadata>
  <g
     inkscape:label="レイヤー 1"
     inkscape:groupmode="layer"
     id="layer1"
     transform="translate(-14.344097,-139.49307)">
    <path
       d="m 24.066105,160.35017 c 0,-1.65691 -1.343152,-3.00006 -3.000065,-3.00006 -1.656912,0 -3.000064,1.34315 -3.000064,3.00006 0,1.65692 1.343152,3.00007 3.000064,3.00007 1.656913,0 3.000065,-1.34315 3.000065,-3.00007 z"
       style="fill:none;stroke:#000000;stroke-width:0.39687499;stroke-linecap:butt;stroke-linejoin:miter;stroke-miterlimit:6.4000001;stroke-dasharray:none;stroke-opacity:1"
       id="path216"
       inkscape:connector-curvature="0" />
    <path
       d="m 67.881499,160.35018 c 0,-5.52299 -4.477139,-10.00012 -10.000123,-10.00012 -5.522981,0 -10.00012,4.47713 -10.00012,10.00012 0,5.52298 4.477139,10.00012 10.00012,10.00012 5.522984,0 10.000123,-4.47714 10.000123,-10.00012 z"
       style="fill:none;stroke:#000000;stroke-width:0.39687499;stroke-linecap:butt;stroke-linejoin:miter;stroke-miterlimit:6.4000001;stroke-dasharray:none;stroke-opacity:1"
       id="path220"
       inkscape:connector-curvature="0" />
    <path
       d="m 77.880053,173.81918 c 0,-2.20916 -1.790829,-3.99999 -3.999989,-3.99999 -2.20916,0 -3.999984,1.79083 -3.999984,3.99999 0,2.20916 1.790824,3.99999 3.999984,3.99999 2.20916,0 3.999989,-1.79083 3.999989,-3.99999 z"
       style="fill:none;stroke:#000000;stroke-width:0.39687499;stroke-linecap:butt;stroke-linejoin:miter;stroke-miterlimit:6.4000001;stroke-dasharray:none;stroke-opacity:1"
       id="path224"
       inkscape:connector-curvature="0" />
    <text
       xml:space="preserve"
       style="font-style:normal;font-variant:normal;font-weight:normal;font-stretch:normal;font-size:5.31206417px;line-height:1.25;font-family:'Times New Roman';-inkscape-font-specification:'Times New Roman, Normal';font-variant-ligatures:normal;font-variant-caps:normal;font-variant-numeric:normal;text-align:start;letter-spacing:0px;word-spacing:0px;writing-mode:lr-tb;text-anchor:start;fill:#000000;fill-opacity:1;stroke:none;stroke-width:0.39687499;stroke-miterlimit:6.4000001;stroke-dasharray:none"
       x="20.673483"
       y="155.03584"
       id="text2581"><tspan
         sodipodi:role="line"
         id="tspan2579"
         x="20.673483"
         y="155.03584"
         style="font-style:italic;stroke-width:0.39687499;stroke-miterlimit:6.4000001;stroke-dasharray:none">p</tspan></text>
    <path
       style="fill:none;stroke:#000000;stroke-width:0.39687499;stroke-linecap:butt;stroke-linejoin:miter;stroke-miterlimit:6.4000001;stroke-dasharray:none;stroke-opacity:1;marker-end:url(#Arrow1Lend)"
       d="m 20.932571,160.35018 h 36.33298"
       id="path853"
       inkscape:connector-curvature="0" />
    <path
       style="fill:none;stroke:#000000;stroke-width:0.39687499;stroke-linecap:butt;stroke-linejoin:miter;stroke-miterlimit:6.4000001;stroke-dasharray:none;stroke-opacity:1;marker-end:url(#Arrow1Lend-3)"
       d="m 81.510136,147.74822 14.448068,-7.49064"
       id="path853-7"
       inkscape:connector-curvature="0" />
    <path
       d="m 84.637235,147.63069 c 0,-1.65691 -1.343152,-3.00006 -3.000065,-3.00006 -1.656912,0 -3.000064,1.34315 -3.000064,3.00006 0,1.65692 1.343152,3.00007 3.000064,3.00007 1.656913,0 3.000065,-1.34315 3.000065,-3.00007 z"
       style="fill:none;stroke:#000000;stroke-width:0.39687499;stroke-linecap:butt;stroke-linejoin:miter;stroke-miterlimit:6.4000001;stroke-dasharray:none;stroke-opacity:1"
       id="path216-5"
       inkscape:connector-curvature="0" />
    <path
       style="fill:none;stroke:#000000;stroke-width:0.39687499;stroke-linecap:butt;stroke-linejoin:miter;stroke-miterlimit:6.4000001;stroke-dasharray:none;stroke-opacity:1;marker-end:url(#Arrow1Lend-35)"
       d="m 73.69126,173.5783 16.080282,12.86186"
       id="path853-9"
       inkscape:connector-curvature="0" />
    <path
       style="fill:none;stroke:#000000;stroke-width:0.5;stroke-linecap:butt;stroke-linejoin:miter;stroke-miterlimit:6.4000001;stroke-dasharray:0.5, 1;stroke-dashoffset:0;stroke-opacity:1"
       d="M 14.344097,160.35018 H 99.472959"
       id="path853-70"
       inkscape:connector-curvature="0" />
    <path
       style="fill:none;stroke:#000000;stroke-width:0.39687499;stroke-linecap:butt;stroke-linejoin:miter;stroke-miterlimit:6.4000001;stroke-dasharray:0.396875, 0.79375;stroke-dashoffset:0;stroke-opacity:1"
       d="M 57.174828,160.50199 90.001525,143.31257"
       id="path853-70-9"
       inkscape:connector-curvature="0" />
    <path
       style="fill:none;stroke:#000000;stroke-width:0.39687499;stroke-linecap:butt;stroke-linejoin:miter;stroke-miterlimit:6.4000001;stroke-dasharray:0.396875, 0.79375;stroke-dashoffset:0;stroke-opacity:1"
       d="m 57.172954,160.44373 30.629627,24.43299"
       id="path853-70-9-3"
       inkscape:connector-curvature="0" />
    <g
       id="g6355"
       ns0:preamble="/home/yoshidak/.config/inkscape/extensions/package.tex"
       ns0:text="$\\theta_p$\n"
       transform="matrix(0.54495844,0,0,0.54495844,-48.2628,83.957977)">
      <defs
         id="defs6344">
        <g
           id="g6342">
          <symbol
             id="textext-c34aa4be-0"
             overflow="visible"
             style="overflow:visible">
            <path
               id="path6330"
               d=""
               style="stroke:none"
               inkscape:connector-curvature="0" />
          </symbol>
          <symbol
             id="textext-c34aa4be-1"
             overflow="visible"
             style="overflow:visible">
            <path
               id="path6333"
               d="m 4.53125,-4.984375 c 0,-0.65625 -0.171875,-2.046875 -1.1875,-2.046875 -1.390625,0 -2.921875,2.8125 -2.921875,5.09375 0,0.9375 0.28125,2.046875 1.1875,2.046875 1.40625,0 2.921875,-2.859375 2.921875,-5.09375 z M 1.46875,-3.625 C 1.640625,-4.25 1.84375,-5.046875 2.25,-5.765625 2.515625,-6.25 2.875,-6.8125 3.328125,-6.8125 c 0.484375,0 0.546875,0.640625 0.546875,1.203125 0,0.5 -0.078125,1 -0.3125,1.984375 z m 2,0.328125 C 3.359375,-2.84375 3.15625,-2 2.765625,-1.28125 c -0.34375,0.6875 -0.71875,1.171875 -1.15625,1.171875 -0.328125,0 -0.53125,-0.296875 -0.53125,-1.21875 0,-0.421875 0.0625,-1 0.3125,-1.96875 z m 0,0"
               style="stroke:none"
               inkscape:connector-curvature="0" />
          </symbol>
          <symbol
             id="textext-c34aa4be-2"
             overflow="visible"
             style="overflow:visible">
            <path
               id="path6336"
               d=""
               style="stroke:none"
               inkscape:connector-curvature="0" />
          </symbol>
          <symbol
             id="textext-c34aa4be-3"
             overflow="visible"
             style="overflow:visible">
            <path
               id="path6339"
               d="m 0.515625,0.84375 c -0.046875,0.203125 -0.0625,0.25 -0.328125,0.25 -0.09375,0 -0.1875,0 -0.1875,0.15625 0,0.078125 0.0625,0.109375 0.09375,0.109375 0.171875,0 0.40625,-0.03125 0.59375,-0.03125 0.234375,0 0.5,0.03125 0.734375,0.03125 0.0625,0 0.140625,-0.03125 0.140625,-0.15625 0,-0.109375 -0.09375,-0.109375 -0.1875,-0.109375 -0.15625,0 -0.34375,0 -0.34375,-0.078125 0,-0.03125 0.0625,-0.21875 0.078125,-0.3125 0.09375,-0.375 0.1875,-0.75 0.265625,-1.046875 0.078125,0.140625 0.296875,0.40625 0.71875,0.40625 0.84375,0 1.78125,-0.9375 1.78125,-1.96875 0,-0.8125 -0.5625,-1.171875 -1.03125,-1.171875 -0.4375,0 -0.8125,0.296875 -1,0.5 -0.109375,-0.40625 -0.5,-0.5 -0.71875,-0.5 -0.265625,0 -0.4375,0.1875 -0.546875,0.375 -0.140625,0.234375 -0.25,0.65625 -0.25,0.703125 0,0.078125 0.09375,0.078125 0.125,0.078125 0.09375,0 0.09375,-0.015625 0.140625,-0.203125 0.109375,-0.40625 0.25,-0.75 0.515625,-0.75 0.1875,0 0.234375,0.15625 0.234375,0.34375 0,0.078125 -0.015625,0.15625 -0.03125,0.203125 z M 1.84375,-2.234375 C 2.25,-2.78125 2.59375,-2.875 2.8125,-2.875 c 0.28125,0 0.515625,0.203125 0.515625,0.671875 0,0.28125 -0.15625,1 -0.359375,1.40625 -0.1875,0.34375 -0.515625,0.671875 -0.875,0.671875 -0.5,0 -0.625,-0.53125 -0.625,-0.609375 0,-0.03125 0.015625,-0.078125 0.015625,-0.109375 z m 0,0"
               style="stroke:none"
               inkscape:connector-curvature="0" />
          </symbol>
        </g>
      </defs>
      <g
         id="textext-c34aa4be-4">
        <g
           id="g6348"
           style="fill:#000000;fill-opacity:1">
          <use
             id="use6346"
             y="134.765"
             x="223.43201"
             xlink:href="#textext-c34aa4be-1"
             width="100%"
             height="100%" />
        </g>
        <g
           id="g6352"
           style="fill:#000000;fill-opacity:1">
          <use
             id="use6350"
             y="136.259"
             x="228.10899"
             xlink:href="#textext-c34aa4be-3"
             width="100%"
             height="100%" />
        </g>
      </g>
    </g>
    <g
       id="g6445"
       ns0:preamble="/home/yoshidak/.config/inkscape/extensions/package.tex"
       ns0:text="$\\theta_\\alpha$\n\n"
       transform="matrix(0.55697197,0,0,0.55697197,-52.829583,92.705256)">
      <defs
         id="defs6434">
        <g
           id="g6432">
          <symbol
             id="textext-e573ffe9-0"
             overflow="visible"
             style="overflow:visible">
            <path
               id="path6420"
               d=""
               style="stroke:none"
               inkscape:connector-curvature="0" />
          </symbol>
          <symbol
             id="textext-e573ffe9-1"
             overflow="visible"
             style="overflow:visible">
            <path
               id="path6423"
               d="m 4.53125,-4.984375 c 0,-0.65625 -0.171875,-2.046875 -1.1875,-2.046875 -1.390625,0 -2.921875,2.8125 -2.921875,5.09375 0,0.9375 0.28125,2.046875 1.1875,2.046875 1.40625,0 2.921875,-2.859375 2.921875,-5.09375 z M 1.46875,-3.625 C 1.640625,-4.25 1.84375,-5.046875 2.25,-5.765625 2.515625,-6.25 2.875,-6.8125 3.328125,-6.8125 c 0.484375,0 0.546875,0.640625 0.546875,1.203125 0,0.5 -0.078125,1 -0.3125,1.984375 z m 2,0.328125 C 3.359375,-2.84375 3.15625,-2 2.765625,-1.28125 c -0.34375,0.6875 -0.71875,1.171875 -1.15625,1.171875 -0.328125,0 -0.53125,-0.296875 -0.53125,-1.21875 0,-0.421875 0.0625,-1 0.3125,-1.96875 z m 0,0"
               style="stroke:none"
               inkscape:connector-curvature="0" />
          </symbol>
          <symbol
             id="textext-e573ffe9-2"
             overflow="visible"
             style="overflow:visible">
            <path
               id="path6426"
               d=""
               style="stroke:none"
               inkscape:connector-curvature="0" />
          </symbol>
          <symbol
             id="textext-e573ffe9-3"
             overflow="visible"
             style="overflow:visible">
            <path
               id="path6429"
               d="m 3.8125,-0.984375 c 0.640625,-0.65625 0.890625,-1.59375 0.890625,-1.65625 0,-0.09375 -0.078125,-0.09375 -0.109375,-0.09375 C 4.5,-2.734375 4.5,-2.71875 4.453125,-2.5625 4.328125,-2.109375 4.09375,-1.671875 3.796875,-1.296875 3.796875,-1.40625 3.78125,-1.875 3.765625,-1.9375 3.65625,-2.625 3.140625,-3.078125 2.4375,-3.078125 c -1.015625,0 -2,0.953125 -2,1.9375 0,0.640625 0.46875,1.203125 1.265625,1.203125 0.640625,0 1.21875,-0.28125 1.609375,-0.578125 0.171875,0.5 0.515625,0.578125 0.734375,0.578125 0.40625,0 0.65625,-0.328125 0.65625,-0.484375 C 4.703125,-0.5 4.609375,-0.5 4.578125,-0.5 c -0.09375,0 -0.109375,0.03125 -0.125,0.0625 -0.09375,0.265625 -0.3125,0.3125 -0.390625,0.3125 -0.09375,0 -0.21875,0 -0.25,-0.859375 z M 3.265625,-0.75 C 2.578125,-0.1875 2,-0.125 1.734375,-0.125 c -0.46875,0 -0.71875,-0.3125 -0.71875,-0.78125 0,-0.1875 0.09375,-0.953125 0.453125,-1.4375 C 1.796875,-2.765625 2.1875,-2.875 2.4375,-2.875 c 0.546875,0 0.71875,0.53125 0.765625,0.96875 0.046875,0.296875 0.03125,0.796875 0.0625,1.15625 z m 0,0"
               style="stroke:none"
               inkscape:connector-curvature="0" />
          </symbol>
        </g>
      </defs>
      <g
         id="textext-e573ffe9-4">
        <g
           id="g6438"
           style="fill:#000000;fill-opacity:1">
          <use
             id="use6436"
             y="134.765"
             x="223.43201"
             xlink:href="#textext-e573ffe9-1"
             width="100%"
             height="100%" />
        </g>
        <g
           id="g6442"
           style="fill:#000000;fill-opacity:1">
          <use
             id="use6440"
             y="136.259"
             x="228.10899"
             xlink:href="#textext-e573ffe9-3"
             width="100%"
             height="100%" />
        </g>
      </g>
    </g>
    <text
       xml:space="preserve"
       style="font-style:normal;font-variant:normal;font-weight:normal;font-stretch:normal;font-size:5.31206417px;line-height:1.25;font-family:'Times New Roman';-inkscape-font-specification:'Times New Roman, Normal';font-variant-ligatures:normal;font-variant-caps:normal;font-variant-numeric:normal;text-align:start;letter-spacing:0px;word-spacing:0px;writing-mode:lr-tb;text-anchor:start;fill:#000000;fill-opacity:1;stroke:none;stroke-width:0.39687499;stroke-miterlimit:6.4000001;stroke-dasharray:none"
       x="82.741676"
       y="141.84044"
       id="text2581-6"><tspan
         sodipodi:role="line"
         id="tspan2579-0"
         x="82.741676"
         y="141.84044"
         style="font-style:italic;stroke-width:0.39687499;stroke-miterlimit:6.4000001;stroke-dasharray:none">p</tspan></text>
    <text
       xml:space="preserve"
       style="font-style:normal;font-variant:normal;font-weight:normal;font-stretch:normal;font-size:6.43394136px;line-height:1.25;font-family:'Times New Roman';-inkscape-font-specification:'Times New Roman, Normal';font-variant-ligatures:normal;font-variant-caps:normal;font-variant-numeric:normal;text-align:start;letter-spacing:0px;word-spacing:0px;writing-mode:lr-tb;text-anchor:start;fill:#000000;fill-opacity:1;stroke:none;stroke-width:0.48069268;stroke-miterlimit:6.4000001;stroke-dasharray:none"
       x="73.977554"
       y="182.68517"
       id="text2581-62"><tspan
         sodipodi:role="line"
         id="tspan2579-6"
         x="73.977554"
         y="182.68517"
         style="font-style:italic;stroke-width:0.48069268;stroke-miterlimit:6.4000001;stroke-dasharray:none">α</tspan></text>
    <g
       id="g5703"
       transform="translate(9.5671537,52.774454)">
      <path
         inkscape:connector-curvature="0"
         id="path820-3"
         d="m 18.309698,114.36289 v 16.54326"
         style="fill:none;stroke:#000000;stroke-width:0.1933108;stroke-linecap:butt;stroke-linejoin:miter;stroke-miterlimit:4;stroke-dasharray:none;stroke-opacity:1;marker-start:url(#Arrow1Lstart-7)" />
      <path
         inkscape:connector-curvature="0"
         id="path820-3-2"
         d="M 31.656152,127.15155 H 13.046546"
         style="fill:none;stroke:#000000;stroke-width:0.20502846;stroke-linecap:butt;stroke-linejoin:miter;stroke-miterlimit:4;stroke-dasharray:none;stroke-opacity:1;marker-start:url(#Arrow1Lstart-7-5)" />
      <g
         id="g5696">
        <path
           d="m 20.299973,127.15155 c 0,-1.09922 -0.891063,-1.99028 -1.990276,-1.99028 -1.099212,0 -1.990274,0.89106 -1.990274,1.99028 0,1.09921 0.891062,1.99027 1.990274,1.99027 1.099213,0 1.990276,-0.89106 1.990276,-1.99027 z"
           style="fill:#ffffff;fill-opacity:1;stroke:#000000;stroke-width:0.10492567;stroke-linecap:butt;stroke-linejoin:miter;stroke-miterlimit:10;stroke-dasharray:none;stroke-opacity:1"
           id="path220-6-3"
           inkscape:connector-curvature="0" />
        <path
           d="m 19.239819,127.15155 c 0,-0.5137 -0.416424,-0.93013 -0.930122,-0.93013 -0.513697,0 -0.93012,0.41643 -0.93012,0.93013 0,0.5137 0.416423,0.93012 0.93012,0.93012 0.513698,0 0.930122,-0.41642 0.930122,-0.93012 z"
           style="fill:#000000;fill-opacity:1;stroke:#000000;stroke-width:0.04903522;stroke-linecap:butt;stroke-linejoin:miter;stroke-miterlimit:10;stroke-dasharray:none;stroke-opacity:1"
           id="path220-6-3-6"
           inkscape:connector-curvature="0" />
      </g>
    </g>
    <text
       xml:space="preserve"
       style="font-style:normal;font-variant:normal;font-weight:normal;font-stretch:normal;font-size:6.05322695px;line-height:1.25;font-family:'Times New Roman';-inkscape-font-specification:'Times New Roman, Normal';font-variant-ligatures:normal;font-variant-caps:normal;font-variant-numeric:normal;text-align:start;letter-spacing:0px;word-spacing:0px;writing-mode:lr-tb;text-anchor:start;fill:#000000;fill-opacity:1;stroke:none;stroke-width:0.15133068"
       x="29.587126"
       y="169.26396"
       id="text5520"><tspan
         sodipodi:role="line"
         id="tspan5518"
         x="29.587126"
         y="169.26396"
         style="font-style:italic;stroke-width:0.15133068">x</tspan></text>
    <text
       xml:space="preserve"
       style="font-style:normal;font-variant:normal;font-weight:normal;font-stretch:normal;font-size:6.05322695px;line-height:1.25;font-family:'Times New Roman';-inkscape-font-specification:'Times New Roman, Normal';font-variant-ligatures:normal;font-variant-caps:normal;font-variant-numeric:normal;text-align:start;letter-spacing:0px;word-spacing:0px;writing-mode:lr-tb;text-anchor:start;fill:#000000;fill-opacity:1;stroke:none;stroke-width:0.15133068"
       x="38.474991"
       y="177.81616"
       id="text5524"><tspan
         sodipodi:role="line"
         id="tspan5522"
         x="38.474991"
         y="177.81616"
         style="font-style:italic;stroke-width:0.15133068">z</tspan></text>
  </g>
</svg>
