<?xml version="1.0" encoding="UTF-8" standalone="no"?>
<!-- Created with Inkscape (http://www.inkscape.org/) -->

<svg
   xmlns:ns0="http://www.iki.fi/pav/software/textext/"
   xmlns:dc="http://purl.org/dc/elements/1.1/"
   xmlns:cc="http://creativecommons.org/ns#"
   xmlns:rdf="http://www.w3.org/1999/02/22-rdf-syntax-ns#"
   xmlns:svg="http://www.w3.org/2000/svg"
   xmlns="http://www.w3.org/2000/svg"
   xmlns:xlink="http://www.w3.org/1999/xlink"
   xmlns:sodipodi="http://sodipodi.sourceforge.net/DTD/sodipodi-0.dtd"
   xmlns:inkscape="http://www.inkscape.org/namespaces/inkscape"
   version="1.1"
   id="svg2"
   xml:space="preserve"
   width="444.47375"
   height="315.08383"
   viewBox="0 0 444.47375 315.08383"
   sodipodi:docname="tdx_vert_th2.svg"
   inkscape:version="0.92.5 (2060ec1f9f, 2020-04-08)"><metadata
     id="metadata8"><rdf:RDF><cc:Work
         rdf:about=""><dc:format>image/svg+xml</dc:format><dc:type
           rdf:resource="http://purl.org/dc/dcmitype/StillImage" /><dc:title></dc:title></cc:Work></rdf:RDF></metadata><defs
     id="defs6"><g
       id="g1608"><symbol
         id="textext-47353512-0"
         overflow="visible"
         style="overflow:visible"><path
           id="path1536"
           d=""
           style="stroke:none"
           inkscape:connector-curvature="0" /></symbol><symbol
         id="textext-47353512-1"
         overflow="visible"
         style="overflow:visible"><path
           id="path1539"
           d="m 5.140625,-6.8125 c 0,0 0,-0.109375 -0.125,-0.109375 -0.15625,0 -1.09375,0.09375 -1.265625,0.109375 -0.078125,0.015625 -0.140625,0.0625 -0.140625,0.1875 0,0.125 0.09375,0.125 0.234375,0.125 0.484375,0 0.5,0.0625 0.5,0.171875 L 4.3125,-6.125 3.71875,-3.765625 C 3.53125,-4.140625 3.25,-4.40625 2.796875,-4.40625 c -1.15625,0 -2.390625,1.46875 -2.390625,2.921875 0,0.9375 0.546875,1.59375 1.3125,1.59375 0.203125,0 0.703125,-0.046875 1.296875,-0.75 0.078125,0.421875 0.4375,0.75 0.90625,0.75 0.359375,0 0.578125,-0.234375 0.75,-0.546875 0.15625,-0.359375 0.296875,-0.96875 0.296875,-0.984375 0,-0.109375 -0.09375,-0.109375 -0.125,-0.109375 -0.09375,0 -0.109375,0.046875 -0.140625,0.1875 -0.171875,0.640625 -0.34375,1.234375 -0.75,1.234375 -0.28125,0 -0.296875,-0.265625 -0.296875,-0.453125 0,-0.25 0.015625,-0.3125 0.046875,-0.484375 z m -2.0625,5.625 C 3.015625,-1 3.015625,-0.984375 2.875,-0.8125 2.4375,-0.265625 2.03125,-0.109375 1.75,-0.109375 c -0.5,0 -0.640625,-0.546875 -0.640625,-0.9375 0,-0.5 0.3125,-1.71875 0.546875,-2.1875 0.3125,-0.578125 0.75,-0.953125 1.15625,-0.953125 0.640625,0 0.78125,0.8125 0.78125,0.875 0,0.0625 -0.015625,0.125 -0.03125,0.171875 z m 0,0"
           style="stroke:none"
           inkscape:connector-curvature="0" /></symbol><symbol
         id="textext-47353512-2"
         overflow="visible"
         style="overflow:visible"><path
           id="path1542"
           d="m 5.15625,-3.71875 c 0.140625,0 0.5,0 0.5,-0.34375 0,-0.234375 -0.21875,-0.234375 -0.390625,-0.234375 h -2.28125 c -1.5,0 -2.609375,1.640625 -2.609375,2.828125 0,0.875 0.59375,1.578125 1.5,1.578125 1.171875,0 2.5,-1.203125 2.5,-2.734375 0,-0.171875 0,-0.65625 -0.3125,-1.09375 z M 1.890625,-0.109375 C 1.390625,-0.109375 1,-0.46875 1,-1.1875 c 0,-0.296875 0.109375,-1.109375 0.46875,-1.703125 0.421875,-0.6875 1.015625,-0.828125 1.359375,-0.828125 0.828125,0 0.90625,0.65625 0.90625,0.96875 0,0.46875 -0.203125,1.28125 -0.53125,1.796875 -0.390625,0.578125 -0.9375,0.84375 -1.3125,0.84375 z m 0,0"
           style="stroke:none"
           inkscape:connector-curvature="0" /></symbol><symbol
         id="textext-47353512-3"
         overflow="visible"
         style="overflow:visible"><path
           id="path1545"
           d="m 4.375,-7.09375 c 0.046875,-0.140625 0.046875,-0.171875 0.046875,-0.1875 0,-0.109375 -0.078125,-0.203125 -0.1875,-0.203125 -0.078125,0 -0.140625,0.03125 -0.171875,0.09375 l -3.46875,9.5 C 0.546875,2.25 0.546875,2.28125 0.546875,2.296875 0.546875,2.40625 0.640625,2.5 0.75,2.5 0.875,2.5 0.90625,2.421875 0.96875,2.25 Z m 0,0"
           style="stroke:none"
           inkscape:connector-curvature="0" /></symbol><symbol
         id="textext-47353512-4"
         overflow="visible"
         style="overflow:visible"><path
           id="path1548"
           d="M 7.0625,-2.328125 C 7.078125,-2.375 7.109375,-2.4375 7.109375,-2.46875 c 0,0 0,-0.109375 -0.125,-0.109375 -0.09375,0 -0.109375,0.0625 -0.125,0.125 C 6.203125,-0.984375 5.84375,-0.3125 4.140625,-0.3125 H 2.6875 c -0.140625,0 -0.171875,0 -0.21875,0 -0.109375,-0.015625 -0.140625,-0.03125 -0.140625,-0.109375 0,-0.03125 0,-0.046875 0.046875,-0.21875 L 3.0625,-3.375 h 0.984375 c 0.84375,0 0.84375,0.21875 0.84375,0.46875 0,0.0625 0,0.1875 -0.0625,0.484375 C 4.8125,-2.375 4.796875,-2.34375 4.796875,-2.3125 c 0,0.046875 0.03125,0.109375 0.125,0.109375 C 5,-2.203125 5.03125,-2.25 5.078125,-2.40625 l 0.5625,-2.328125 c 0,-0.0625 -0.046875,-0.109375 -0.125,-0.109375 -0.078125,0 -0.109375,0.0625 -0.125,0.171875 -0.21875,0.765625 -0.390625,1 -1.3125,1 h -0.9375 l 0.59375,-2.40625 C 3.828125,-6.4375 3.84375,-6.46875 4.28125,-6.46875 H 5.6875 c 1.203125,0 1.515625,0.28125 1.515625,1.109375 0,0.234375 0,0.25 -0.046875,0.53125 0,0.046875 -0.015625,0.125 -0.015625,0.171875 0,0.046875 0.03125,0.125 0.125,0.125 0.109375,0 0.125,-0.0625 0.140625,-0.25 L 7.609375,-6.515625 C 7.640625,-6.78125 7.59375,-6.78125 7.34375,-6.78125 H 2.296875 c -0.1875,0 -0.296875,0 -0.296875,0.203125 0,0.109375 0.09375,0.109375 0.28125,0.109375 0.375,0 0.65625,0 0.65625,0.171875 0,0.046875 0,0.0625 -0.0625,0.25 L 1.5625,-0.78125 c -0.09375,0.390625 -0.109375,0.46875 -0.90625,0.46875 -0.171875,0 -0.28125,0 -0.28125,0.1875 C 0.375,0 0.46875,0 0.65625,0 h 5.171875 c 0.234375,0 0.25,-0.015625 0.3125,-0.171875 z m 0,0"
           style="stroke:none"
           inkscape:connector-curvature="0" /></symbol><symbol
         id="textext-47353512-5"
         overflow="visible"
         style="overflow:visible"><path
           id="path1551"
           d="m 2.296875,-3.5 c 0.0625,-0.203125 0.15625,-0.59375 0.15625,-0.640625 0,-0.171875 -0.125,-0.265625 -0.296875,-0.265625 -0.015625,0 -0.296875,0.015625 -0.390625,0.359375 l -1.4375,5.765625 c -0.03125,0.125 -0.03125,0.140625 -0.03125,0.171875 0,0.140625 0.109375,0.265625 0.28125,0.265625 0.203125,0 0.328125,-0.1875 0.34375,-0.21875 C 0.96875,1.859375 1.09375,1.328125 1.46875,-0.203125 1.796875,0.0625 2.25,0.109375 2.4375,0.109375 c 0.703125,0 1.09375,-0.453125 1.328125,-0.734375 0.09375,0.453125 0.46875,0.734375 0.90625,0.734375 0.34375,0 0.578125,-0.234375 0.734375,-0.546875 0.171875,-0.359375 0.296875,-0.96875 0.296875,-0.984375 0,-0.109375 -0.09375,-0.109375 -0.125,-0.109375 -0.09375,0 -0.109375,0.046875 -0.140625,0.1875 -0.15625,0.640625 -0.34375,1.234375 -0.75,1.234375 -0.265625,0 -0.296875,-0.265625 -0.296875,-0.453125 0,-0.21875 0.109375,-0.6875 0.1875,-1.046875 L 4.859375,-2.6875 C 4.890625,-2.828125 5,-3.203125 5.03125,-3.359375 5.078125,-3.59375 5.1875,-3.96875 5.1875,-4.03125 c 0,-0.171875 -0.140625,-0.265625 -0.296875,-0.265625 -0.046875,0 -0.3125,0.015625 -0.390625,0.34375 l -0.46875,1.875 c -0.109375,0.5 -0.21875,0.90625 -0.25,1.015625 -0.015625,0.046875 -0.484375,0.953125 -1.296875,0.953125 -0.5,0 -0.734375,-0.328125 -0.734375,-0.875 0,-0.28125 0.0625,-0.5625 0.140625,-0.84375 z m 0,0"
           style="stroke:none"
           inkscape:connector-curvature="0" /></symbol><symbol
         id="textext-47353512-6"
         overflow="visible"
         style="overflow:visible"><path
           id="path1554"
           d=""
           style="stroke:none"
           inkscape:connector-curvature="0" /></symbol><symbol
         id="textext-47353512-7"
         overflow="visible"
         style="overflow:visible"><path
           id="path1557"
           d="m 1.90625,-2.328125 c 0.546875,0 0.9375,0.375 0.9375,1.125 0,0.859375 -0.515625,1.125 -0.90625,1.125 -0.28125,0 -0.90625,-0.078125 -1.1875,-0.5 0.328125,0 0.40625,-0.234375 0.40625,-0.390625 0,-0.21875 -0.171875,-0.375 -0.390625,-0.375 -0.1875,0 -0.390625,0.125 -0.390625,0.40625 0,0.65625 0.71875,1.078125 1.5625,1.078125 0.96875,0 1.640625,-0.65625 1.640625,-1.34375 0,-0.546875 -0.4375,-1.09375 -1.203125,-1.25 0.71875,-0.265625 0.984375,-0.78125 0.984375,-1.21875 0,-0.546875 -0.625,-0.953125 -1.40625,-0.953125 -0.765625,0 -1.359375,0.375 -1.359375,0.9375 0,0.234375 0.15625,0.359375 0.359375,0.359375 0.21875,0 0.359375,-0.15625 0.359375,-0.34375 0,-0.203125 -0.140625,-0.359375 -0.359375,-0.375 0.25,-0.296875 0.71875,-0.375 0.984375,-0.375 0.3125,0 0.75,0.15625 0.75,0.75 0,0.296875 -0.09375,0.625 -0.28125,0.828125 -0.21875,0.265625 -0.421875,0.28125 -0.765625,0.3125 -0.171875,0.015625 -0.1875,0.015625 -0.21875,0.015625 -0.015625,0 -0.078125,0.015625 -0.078125,0.09375 0,0.09375 0.0625,0.09375 0.1875,0.09375 z m 0,0"
           style="stroke:none"
           inkscape:connector-curvature="0" /></symbol><symbol
         id="textext-47353512-8"
         overflow="visible"
         style="overflow:visible"><path
           id="path1560"
           d="M 4.53125,-1.828125 H 4.296875 C 4.21875,-1.15625 4.125,-0.25 2.796875,-0.25 h -0.6875 c -0.328125,0 -0.34375,-0.0625 -0.34375,-0.265625 V -4.1875 c 0,-0.234375 0,-0.328125 0.65625,-0.328125 h 0.25 v -0.25 C 2.515625,-4.75 1.625,-4.734375 1.453125,-4.734375 c -0.265625,0 -1.0625,-0.03125 -1.0625,-0.03125 v 0.25 H 0.5625 c 0.53125,0 0.546875,0.078125 0.546875,0.328125 v 3.625 c 0,0.234375 -0.015625,0.3125 -0.546875,0.3125 H 0.390625 V 0 h 3.9375 z m 0,0"
           style="stroke:none"
           inkscape:connector-curvature="0" /></symbol><symbol
         id="textext-47353512-9"
         overflow="visible"
         style="overflow:visible"><path
           id="path1563"
           d="m 2.328125,-4.4375 c 0,-0.1875 0,-0.1875 -0.203125,-0.1875 -0.453125,0.4375 -1.078125,0.4375 -1.359375,0.4375 v 0.25 c 0.15625,0 0.625,0 1,-0.1875 v 3.546875 c 0,0.234375 0,0.328125 -0.6875,0.328125 H 0.8125 V 0 c 0.125,0 0.984375,-0.03125 1.234375,-0.03125 0.21875,0 1.09375,0.03125 1.25,0.03125 V -0.25 H 3.03125 c -0.703125,0 -0.703125,-0.09375 -0.703125,-0.328125 z m 0,0"
           style="stroke:none"
           inkscape:connector-curvature="0" /></symbol><symbol
         id="textext-47353512-10"
         overflow="visible"
         style="overflow:visible"><path
           id="path1566"
           d="M 3.515625,-1.265625 H 3.28125 c -0.015625,0.15625 -0.09375,0.5625 -0.1875,0.625 C 3.046875,-0.59375 2.515625,-0.59375 2.40625,-0.59375 H 1.125 c 0.734375,-0.640625 0.984375,-0.84375 1.390625,-1.171875 0.515625,-0.40625 1,-0.84375 1,-1.5 0,-0.84375 -0.734375,-1.359375 -1.625,-1.359375 -0.859375,0 -1.453125,0.609375 -1.453125,1.25 0,0.34375 0.296875,0.390625 0.375,0.390625 0.15625,0 0.359375,-0.125 0.359375,-0.375 0,-0.125 -0.046875,-0.375 -0.40625,-0.375 C 0.984375,-4.21875 1.453125,-4.375 1.78125,-4.375 c 0.703125,0 1.0625,0.546875 1.0625,1.109375 0,0.609375 -0.4375,1.078125 -0.65625,1.328125 L 0.515625,-0.265625 C 0.4375,-0.203125 0.4375,-0.1875 0.4375,0 h 2.875 z m 0,0"
           style="stroke:none"
           inkscape:connector-curvature="0" /></symbol><symbol
         id="textext-47353512-11"
         overflow="visible"
         style="overflow:visible"><path
           id="path1569"
           d=""
           style="stroke:none"
           inkscape:connector-curvature="0" /></symbol><symbol
         id="textext-47353512-12"
         overflow="visible"
         style="overflow:visible"><path
           id="path1572"
           d="M 6.75,-1.609375 H 6.5 c -0.046875,0.25 -0.09375,0.484375 -0.1875,0.71875 -0.046875,0.15625 -0.078125,0.25 -0.65625,0.25 H 4.859375 C 5,-1.203125 5.296875,-1.6875 5.75,-2.34375 c 0.46875,-0.703125 0.875,-1.390625 0.875,-2.1875 0,-1.375 -1.34375,-2.5 -3.03125,-2.5 -1.703125,0 -3.03125,1.140625 -3.03125,2.5 0,0.796875 0.40625,1.484375 0.875,2.1875 0.4375,0.65625 0.75,1.140625 0.890625,1.703125 H 1.53125 C 0.953125,-0.640625 0.921875,-0.734375 0.875,-0.875 0.78125,-1.109375 0.734375,-1.359375 0.6875,-1.609375 h -0.25 L 0.765625,0 h 1.59375 c 0.21875,0 0.25,0 0.25,-0.203125 0,-0.703125 -0.3125,-1.578125 -0.53125,-2.21875 -0.21875,-0.578125 -0.5,-1.359375 -0.5,-2.109375 0,-1.59375 1.109375,-2.28125 2.015625,-2.28125 0.953125,0 2.015625,0.71875 2.015625,2.28125 0,0.75 -0.28125,1.5 -0.5625,2.3125 -0.15625,0.421875 -0.46875,1.328125 -0.46875,2.015625 C 4.578125,0 4.609375,0 4.828125,0 h 1.59375 z m 0,0"
           style="stroke:none"
           inkscape:connector-curvature="0" /></symbol><symbol
         id="textext-47353512-13"
         overflow="visible"
         style="overflow:visible"><path
           id="path1575"
           d="M 2.546875,2.5 V 2.09375 h -0.96875 v -9.171875 h 0.96875 v -0.40625 h -1.375 V 2.5 Z m 0,0"
           style="stroke:none"
           inkscape:connector-curvature="0" /></symbol><symbol
         id="textext-47353512-14"
         overflow="visible"
         style="overflow:visible"><path
           id="path1578"
           d="m 1.71875,-3.765625 v -3.15625 L 0.28125,-6.8125 V -6.5 c 0.703125,0 0.78125,0.0625 0.78125,0.5625 V 0 h 0.25 c 0,-0.015625 0.078125,-0.15625 0.359375,-0.625 0.140625,0.234375 0.5625,0.734375 1.296875,0.734375 1.1875,0 2.21875,-0.984375 2.21875,-2.265625 0,-1.265625 -0.96875,-2.25 -2.109375,-2.25 -0.78125,0 -1.203125,0.46875 -1.359375,0.640625 z m 0.03125,2.625 V -3.1875 c 0,-0.1875 0,-0.203125 0.109375,-0.359375 C 2.25,-4.109375 2.796875,-4.1875 3.03125,-4.1875 c 0.453125,0 0.8125,0.265625 1.046875,0.640625 0.265625,0.40625 0.28125,0.96875 0.28125,1.390625 0,0.359375 -0.015625,0.953125 -0.296875,1.40625 -0.21875,0.3125 -0.59375,0.640625 -1.125,0.640625 -0.453125,0 -0.8125,-0.234375 -1.046875,-0.609375 C 1.75,-0.921875 1.75,-0.953125 1.75,-1.140625 Z m 0,0"
           style="stroke:none"
           inkscape:connector-curvature="0" /></symbol><symbol
         id="textext-47353512-15"
         overflow="visible"
         style="overflow:visible"><path
           id="path1581"
           d="m 4.359375,-7.09375 c 0.0625,-0.140625 0.0625,-0.15625 0.0625,-0.1875 0,-0.109375 -0.09375,-0.203125 -0.203125,-0.203125 C 4.078125,-7.484375 4.03125,-7.375 4,-7.28125 L 0.609375,2.109375 C 0.5625,2.25 0.5625,2.265625 0.5625,2.296875 0.5625,2.40625 0.640625,2.5 0.75,2.5 0.890625,2.5 0.9375,2.390625 0.96875,2.296875 Z m 0,0"
           style="stroke:none"
           inkscape:connector-curvature="0" /></symbol><symbol
         id="textext-47353512-16"
         overflow="visible"
         style="overflow:visible"><path
           id="path1584"
           d="m 3.296875,2.390625 c 0,-0.03125 0,-0.046875 -0.171875,-0.21875 C 1.890625,0.921875 1.5625,-0.96875 1.5625,-2.5 c 0,-1.734375 0.375,-3.46875 1.609375,-4.703125 0.125,-0.125 0.125,-0.140625 0.125,-0.171875 0,-0.078125 -0.03125,-0.109375 -0.09375,-0.109375 -0.109375,0 -1,0.6875 -1.59375,1.953125 -0.5,1.09375 -0.625,2.203125 -0.625,3.03125 0,0.78125 0.109375,1.984375 0.65625,3.125 C 2.25,1.84375 3.09375,2.5 3.203125,2.5 c 0.0625,0 0.09375,-0.03125 0.09375,-0.109375 z m 0,0"
           style="stroke:none"
           inkscape:connector-curvature="0" /></symbol><symbol
         id="textext-47353512-17"
         overflow="visible"
         style="overflow:visible"><path
           id="path1587"
           d="M 2.40625,-6.59375 C 2.3125,-6.8125 2.28125,-6.8125 2.046875,-6.8125 H 0.375 V -6.5 h 0.234375 c 0.765625,0 0.78125,0.109375 0.78125,0.46875 v 4.984375 c 0,0.265625 0,0.734375 -1.015625,0.734375 V 0 c 0.34375,-0.015625 0.828125,-0.03125 1.15625,-0.03125 0.328125,0 0.828125,0.015625 1.171875,0.03125 v -0.3125 c -1.03125,0 -1.03125,-0.46875 -1.03125,-0.734375 v -5.375 H 1.6875 L 4.09375,-0.21875 C 4.140625,-0.09375 4.1875,0 4.28125,0 4.390625,0 4.421875,-0.078125 4.46875,-0.1875 L 6.921875,-6.5 v 5.71875 c 0,0.359375 -0.015625,0.46875 -0.78125,0.46875 H 5.90625 V 0 c 0.359375,-0.03125 1.046875,-0.03125 1.4375,-0.03125 0.375,0 1.046875,0 1.421875,0.03125 v -0.3125 h -0.25 c -0.765625,0 -0.78125,-0.109375 -0.78125,-0.46875 v -5.25 C 7.734375,-6.390625 7.75,-6.5 8.515625,-6.5 h 0.25 v -0.3125 h -1.6875 C 6.8125,-6.8125 6.8125,-6.796875 6.75,-6.625 L 4.5625,-1 Z m 0,0"
           style="stroke:none"
           inkscape:connector-curvature="0" /></symbol><symbol
         id="textext-47353512-18"
         overflow="visible"
         style="overflow:visible"><path
           id="path1590"
           d="M 1.109375,-2.515625 C 1.171875,-4 2.015625,-4.25 2.359375,-4.25 c 1.015625,0 1.125,1.34375 1.125,1.734375 z m 0,0.21875 h 2.78125 c 0.21875,0 0.25,0 0.25,-0.21875 0,-0.984375 -0.546875,-1.953125 -1.78125,-1.953125 -1.15625,0 -2.078125,1.03125 -2.078125,2.28125 0,1.328125 1.046875,2.296875 2.1875,2.296875 C 3.6875,0.109375 4.140625,-1 4.140625,-1.1875 4.140625,-1.28125 4.0625,-1.3125 4,-1.3125 c -0.078125,0 -0.109375,0.0625 -0.125,0.140625 -0.34375,1.03125 -1.25,1.03125 -1.34375,1.03125 -0.5,0 -0.890625,-0.296875 -1.125,-0.671875 -0.296875,-0.46875 -0.296875,-1.125 -0.296875,-1.484375 z m 0,0"
           style="stroke:none"
           inkscape:connector-curvature="0" /></symbol><symbol
         id="textext-47353512-19"
         overflow="visible"
         style="overflow:visible"><path
           id="path1593"
           d="M 6.1875,-5.828125 C 6.328125,-6.203125 6.59375,-6.484375 7.28125,-6.5 v -0.3125 c -0.3125,0.03125 -0.71875,0.03125 -0.96875,0.03125 -0.296875,0 -0.875,-0.015625 -1.140625,-0.03125 V -6.5 C 5.6875,-6.484375 5.90625,-6.234375 5.90625,-6 c 0,0.078125 -0.03125,0.140625 -0.046875,0.203125 L 4.03125,-1 2.125,-6.03125 C 2.0625,-6.171875 2.0625,-6.1875 2.0625,-6.203125 2.0625,-6.5 2.625,-6.5 2.875,-6.5 v -0.3125 c -0.359375,0.03125 -1.046875,0.03125 -1.421875,0.03125 -0.46875,0 -0.90625,-0.015625 -1.265625,-0.03125 V -6.5 c 0.65625,0 0.84375,0 0.984375,0.375 L 3.484375,0 c 0.0625,0.1875 0.109375,0.21875 0.25,0.21875 0.15625,0 0.1875,-0.046875 0.234375,-0.1875 z m 0,0"
           style="stroke:none"
           inkscape:connector-curvature="0" /></symbol><symbol
         id="textext-47353512-20"
         overflow="visible"
         style="overflow:visible"><path
           id="path1596"
           d="m 2.078125,-1.9375 c 0.21875,0.046875 1.03125,0.203125 1.03125,0.921875 0,0.5 -0.34375,0.90625 -1.125,0.90625 -0.84375,0 -1.203125,-0.5625 -1.390625,-1.421875 C 0.5625,-1.65625 0.5625,-1.6875 0.453125,-1.6875 c -0.125,0 -0.125,0.0625 -0.125,0.234375 V -0.125 c 0,0.171875 0,0.234375 0.109375,0.234375 0.046875,0 0.0625,-0.015625 0.25,-0.203125 0.015625,-0.015625 0.015625,-0.03125 0.203125,-0.21875 0.4375,0.40625 0.890625,0.421875 1.09375,0.421875 1.140625,0 1.609375,-0.671875 1.609375,-1.390625 0,-0.515625 -0.296875,-0.828125 -0.421875,-0.9375 C 2.84375,-2.546875 2.453125,-2.625 2.03125,-2.703125 1.46875,-2.8125 0.8125,-2.9375 0.8125,-3.515625 c 0,-0.359375 0.25,-0.765625 1.109375,-0.765625 1.09375,0 1.15625,0.90625 1.171875,1.203125 0,0.09375 0.09375,0.09375 0.109375,0.09375 0.140625,0 0.140625,-0.046875 0.140625,-0.234375 v -1.015625 c 0,-0.15625 0,-0.234375 -0.109375,-0.234375 -0.046875,0 -0.078125,0 -0.203125,0.125 -0.03125,0.03125 -0.125,0.125 -0.171875,0.15625 -0.375,-0.28125 -0.78125,-0.28125 -0.9375,-0.28125 -1.21875,0 -1.59375,0.671875 -1.59375,1.234375 0,0.34375 0.15625,0.625 0.421875,0.84375 0.328125,0.25 0.609375,0.3125 1.328125,0.453125 z m 0,0"
           style="stroke:none"
           inkscape:connector-curvature="0" /></symbol><symbol
         id="textext-47353512-21"
         overflow="visible"
         style="overflow:visible"><path
           id="path1599"
           d="M 1.671875,-3.3125 V -4.40625 L 0.28125,-4.296875 v 0.3125 c 0.703125,0 0.78125,0.0625 0.78125,0.5625 V -0.75 c 0,0.4375 -0.109375,0.4375 -0.78125,0.4375 V 0 c 0.390625,-0.015625 0.859375,-0.03125 1.140625,-0.03125 0.390625,0 0.859375,0 1.265625,0.03125 V -0.3125 H 2.46875 c -0.734375,0 -0.75,-0.109375 -0.75,-0.46875 V -2.3125 c 0,-0.984375 0.421875,-1.875 1.171875,-1.875 0.0625,0 0.09375,0 0.109375,0.015625 -0.03125,0 -0.234375,0.125 -0.234375,0.390625 0,0.265625 0.21875,0.421875 0.4375,0.421875 0.171875,0 0.421875,-0.125 0.421875,-0.4375 0,-0.3125 -0.3125,-0.609375 -0.734375,-0.609375 -0.734375,0 -1.09375,0.671875 -1.21875,1.09375 z m 0,0"
           style="stroke:none"
           inkscape:connector-curvature="0" /></symbol><symbol
         id="textext-47353512-22"
         overflow="visible"
         style="overflow:visible"><path
           id="path1602"
           d="m 2.875,-2.5 c 0,-0.765625 -0.109375,-1.96875 -0.65625,-3.109375 -0.59375,-1.21875 -1.453125,-1.875 -1.546875,-1.875 -0.0625,0 -0.109375,0.046875 -0.109375,0.109375 0,0.03125 0,0.046875 0.1875,0.234375 0.984375,0.984375 1.546875,2.5625 1.546875,4.640625 0,1.71875 -0.359375,3.46875 -1.59375,4.71875 C 0.5625,2.34375 0.5625,2.359375 0.5625,2.390625 0.5625,2.453125 0.609375,2.5 0.671875,2.5 0.765625,2.5 1.671875,1.8125 2.25,0.546875 2.765625,-0.546875 2.875,-1.65625 2.875,-2.5 Z m 0,0"
           style="stroke:none"
           inkscape:connector-curvature="0" /></symbol><symbol
         id="textext-47353512-23"
         overflow="visible"
         style="overflow:visible"><path
           id="path1605"
           d="M 1.578125,-7.484375 H 0.21875 v 0.40625 H 1.1875 V 2.09375 H 0.21875 V 2.5 h 1.359375 z m 0,0"
           style="stroke:none"
           inkscape:connector-curvature="0" /></symbol></g></defs><sodipodi:namedview
     pagecolor="#ffffff"
     bordercolor="#666666"
     borderopacity="1"
     objecttolerance="10"
     gridtolerance="10"
     guidetolerance="10"
     inkscape:pageopacity="0"
     inkscape:pageshadow="2"
     inkscape:window-width="1920"
     inkscape:window-height="1018"
     id="namedview4"
     showgrid="false"
     inkscape:zoom="1.4047619"
     inkscape:cx="106.88576"
     inkscape:cy="169.42387"
     inkscape:window-x="0"
     inkscape:window-y="0"
     inkscape:window-maximized="1"
     inkscape:current-layer="g10"
     fit-margin-top="0"
     fit-margin-left="0"
     fit-margin-right="0"
     fit-margin-bottom="0" /><g
     id="g10"
     inkscape:groupmode="layer"
     inkscape:label="tdx_vert_th2"
     transform="matrix(1.3333333,0,0,-1.3333333,-15.282159,331.23139)"><path
   d="m 68.75,52.5 h 3.15 m 265.55,0 h -3.15"
   style="fill:none;stroke:#000000;stroke-width:0.25;stroke-linecap:butt;stroke-linejoin:miter;stroke-miterlimit:3.79999995;stroke-dasharray:none;stroke-opacity:1"
   id="path12"
   inkscape:connector-curvature="0" /><text
   transform="matrix(1,0,0,-1,55,48.335)"
   style="font-variant:normal;font-weight:normal;font-size:12.5px;font-family:'Times New Roman';-inkscape-font-specification:Times-Roman;writing-mode:lr-tb;fill:#000000;fill-opacity:1;fill-rule:nonzero;stroke:none"
   id="text16"><tspan
     x="0"
     y="0"
     id="tspan14">0</tspan></text>



<path
   d="m 68.75,89.9 h 3.15 m 265.55,0 h -3.15"
   style="fill:none;stroke:#000000;stroke-width:0.25;stroke-linecap:butt;stroke-linejoin:miter;stroke-miterlimit:3.79999995;stroke-dasharray:none;stroke-opacity:1"
   id="path18"
   inkscape:connector-curvature="0" /><text
   transform="matrix(1,0,0,-1,39.375,85.735)"
   style="font-variant:normal;font-weight:normal;font-size:12.5px;font-family:'Times New Roman';-inkscape-font-specification:Times-Roman;writing-mode:lr-tb;fill:#000000;fill-opacity:1;fill-rule:nonzero;stroke:none"
   id="text22"><tspan
     x="0 6.25 9.375 15.625"
     y="0"
     sodipodi:role="line"
     id="tspan20">0.01</tspan></text>



<path
   d="m 68.75,127.3 h 3.15 m 265.55,0 h -3.15"
   style="fill:none;stroke:#000000;stroke-width:0.25;stroke-linecap:butt;stroke-linejoin:miter;stroke-miterlimit:3.79999995;stroke-dasharray:none;stroke-opacity:1"
   id="path24"
   inkscape:connector-curvature="0" /><text
   transform="matrix(1,0,0,-1,39.375,123.135)"
   style="font-variant:normal;font-weight:normal;font-size:12.5px;font-family:'Times New Roman';-inkscape-font-specification:Times-Roman;writing-mode:lr-tb;fill:#000000;fill-opacity:1;fill-rule:nonzero;stroke:none"
   id="text28"><tspan
     x="0 6.25 9.375 15.625"
     y="0"
     sodipodi:role="line"
     id="tspan26">0.02</tspan></text>



<path
   d="m 68.75,164.65 h 3.15 m 265.55,0 h -3.15"
   style="fill:none;stroke:#000000;stroke-width:0.25;stroke-linecap:butt;stroke-linejoin:miter;stroke-miterlimit:3.79999995;stroke-dasharray:none;stroke-opacity:1"
   id="path30"
   inkscape:connector-curvature="0" /><text
   transform="matrix(1,0,0,-1,39.375,160.485)"
   style="font-variant:normal;font-weight:normal;font-size:12.5px;font-family:'Times New Roman';-inkscape-font-specification:Times-Roman;writing-mode:lr-tb;fill:#000000;fill-opacity:1;fill-rule:nonzero;stroke:none"
   id="text34"><tspan
     x="0 6.25 9.375 15.625"
     y="0"
     sodipodi:role="line"
     id="tspan32">0.03</tspan></text>



<path
   d="m 68.75,202.05 h 3.15 m 265.55,0 h -3.15"
   style="fill:none;stroke:#000000;stroke-width:0.25;stroke-linecap:butt;stroke-linejoin:miter;stroke-miterlimit:3.79999995;stroke-dasharray:none;stroke-opacity:1"
   id="path36"
   inkscape:connector-curvature="0" /><text
   transform="matrix(1,0,0,-1,39.375,197.885)"
   style="font-variant:normal;font-weight:normal;font-size:12.5px;font-family:'Times New Roman';-inkscape-font-specification:Times-Roman;writing-mode:lr-tb;fill:#000000;fill-opacity:1;fill-rule:nonzero;stroke:none"
   id="text40"><tspan
     x="0 6.25 9.375 15.625"
     y="0"
     sodipodi:role="line"
     id="tspan38">0.04</tspan></text>



<path
   d="m 68.75,239.45 h 3.15 m 265.55,0 h -3.15"
   style="fill:none;stroke:#000000;stroke-width:0.25;stroke-linecap:butt;stroke-linejoin:miter;stroke-miterlimit:3.79999995;stroke-dasharray:none;stroke-opacity:1"
   id="path42"
   inkscape:connector-curvature="0" /><text
   transform="matrix(1,0,0,-1,39.375,235.285)"
   style="font-variant:normal;font-weight:normal;font-size:12.5px;font-family:'Times New Roman';-inkscape-font-specification:Times-Roman;writing-mode:lr-tb;fill:#000000;fill-opacity:1;fill-rule:nonzero;stroke:none"
   id="text46"><tspan
     x="0 6.25 9.375 15.625"
     y="0"
     sodipodi:role="line"
     id="tspan44">0.05</tspan></text>



<path
   d="m 68.75,52.5 v 3.15 m 0,183.8 v -3.15"
   style="fill:none;stroke:#000000;stroke-width:0.25;stroke-linecap:butt;stroke-linejoin:miter;stroke-miterlimit:3.79999995;stroke-dasharray:none;stroke-opacity:1"
   id="path48"
   inkscape:connector-curvature="0" /><text
   transform="matrix(1,0,0,-1,64.0625,35.835)"
   style="font-variant:normal;font-weight:normal;font-size:12.5px;font-family:'Times New Roman';-inkscape-font-specification:Times-Roman;writing-mode:lr-tb;fill:#000000;fill-opacity:1;fill-rule:nonzero;stroke:none"
   id="text52"><tspan
     x="0 6.25"
     y="0"
     sodipodi:role="line"
     id="tspan50">30</tspan></text>



<path
   d="m 113.55,52.5 v 3.15 m 0,183.8 v -3.15"
   style="fill:none;stroke:#000000;stroke-width:0.25;stroke-linecap:butt;stroke-linejoin:miter;stroke-miterlimit:3.79999995;stroke-dasharray:none;stroke-opacity:1"
   id="path54"
   inkscape:connector-curvature="0" /><text
   transform="matrix(1,0,0,-1,108.8625,35.835)"
   style="font-variant:normal;font-weight:normal;font-size:12.5px;font-family:'Times New Roman';-inkscape-font-specification:Times-Roman;writing-mode:lr-tb;fill:#000000;fill-opacity:1;fill-rule:nonzero;stroke:none"
   id="text58"><tspan
     x="0 6.25"
     y="0"
     sodipodi:role="line"
     id="tspan56">40</tspan></text>



<path
   d="m 158.3,52.5 v 3.15 m 0,183.8 v -3.15"
   style="fill:none;stroke:#000000;stroke-width:0.25;stroke-linecap:butt;stroke-linejoin:miter;stroke-miterlimit:3.79999995;stroke-dasharray:none;stroke-opacity:1"
   id="path60"
   inkscape:connector-curvature="0" /><text
   transform="matrix(1,0,0,-1,153.6125,35.835)"
   style="font-variant:normal;font-weight:normal;font-size:12.5px;font-family:'Times New Roman';-inkscape-font-specification:Times-Roman;writing-mode:lr-tb;fill:#000000;fill-opacity:1;fill-rule:nonzero;stroke:none"
   id="text64"><tspan
     x="0 6.25"
     y="0"
     sodipodi:role="line"
     id="tspan62">50</tspan></text>



<path
   d="m 203.1,52.5 v 3.15 m 0,183.8 v -3.15"
   style="fill:none;stroke:#000000;stroke-width:0.25;stroke-linecap:butt;stroke-linejoin:miter;stroke-miterlimit:3.79999995;stroke-dasharray:none;stroke-opacity:1"
   id="path66"
   inkscape:connector-curvature="0" /><text
   transform="matrix(1,0,0,-1,198.4125,35.835)"
   style="font-variant:normal;font-weight:normal;font-size:12.5px;font-family:'Times New Roman';-inkscape-font-specification:Times-Roman;writing-mode:lr-tb;fill:#000000;fill-opacity:1;fill-rule:nonzero;stroke:none"
   id="text70"><tspan
     x="0 6.25"
     y="0"
     sodipodi:role="line"
     id="tspan68">60</tspan></text>



<path
   d="m 247.9,52.5 v 3.15 m 0,183.8 v -3.15"
   style="fill:none;stroke:#000000;stroke-width:0.25;stroke-linecap:butt;stroke-linejoin:miter;stroke-miterlimit:3.79999995;stroke-dasharray:none;stroke-opacity:1"
   id="path72"
   inkscape:connector-curvature="0" /><text
   transform="matrix(1,0,0,-1,243.2125,35.835)"
   style="font-variant:normal;font-weight:normal;font-size:12.5px;font-family:'Times New Roman';-inkscape-font-specification:Times-Roman;writing-mode:lr-tb;fill:#000000;fill-opacity:1;fill-rule:nonzero;stroke:none"
   id="text76"><tspan
     x="0 6.25"
     y="0"
     sodipodi:role="line"
     id="tspan74">70</tspan></text>



<path
   d="m 292.65,52.5 v 3.15 m 0,183.8 v -3.15"
   style="fill:none;stroke:#000000;stroke-width:0.25;stroke-linecap:butt;stroke-linejoin:miter;stroke-miterlimit:3.79999995;stroke-dasharray:none;stroke-opacity:1"
   id="path78"
   inkscape:connector-curvature="0" /><text
   transform="matrix(1,0,0,-1,287.9625,35.835)"
   style="font-variant:normal;font-weight:normal;font-size:12.5px;font-family:'Times New Roman';-inkscape-font-specification:Times-Roman;writing-mode:lr-tb;fill:#000000;fill-opacity:1;fill-rule:nonzero;stroke:none"
   id="text82"><tspan
     x="0 6.25"
     y="0"
     sodipodi:role="line"
     id="tspan80">80</tspan></text>



<path
   d="m 337.45,52.5 v 3.15 m 0,183.8 v -3.15"
   style="fill:none;stroke:#000000;stroke-width:0.25;stroke-linecap:butt;stroke-linejoin:miter;stroke-miterlimit:3.79999995;stroke-dasharray:none;stroke-opacity:1"
   id="path84"
   inkscape:connector-curvature="0" /><text
   transform="matrix(1,0,0,-1,332.7625,35.835)"
   style="font-variant:normal;font-weight:normal;font-size:12.5px;font-family:'Times New Roman';-inkscape-font-specification:Times-Roman;writing-mode:lr-tb;fill:#000000;fill-opacity:1;fill-rule:nonzero;stroke:none"
   id="text88"><tspan
     x="0 6.25"
     y="0"
     sodipodi:role="line"
     id="tspan86">90</tspan></text>



<path
   d="m 68.75,52.5 h 268.7 V 239.45 H 68.75 Z"
   style="fill:none;stroke:#000000;stroke-width:0.5;stroke-linecap:butt;stroke-linejoin:miter;stroke-miterlimit:3.79999995;stroke-dasharray:none;stroke-opacity:1"
   id="path90"
   inkscape:connector-curvature="0" />

























<text
   transform="matrix(1,0,0,-1,258.7775,225.885)"
   style="font-variant:normal;font-weight:normal;font-size:12.5px;font-family:'Times New Roman';-inkscape-font-specification:Times-Roman;writing-mode:lr-tb;fill:#000000;fill-opacity:1;fill-rule:nonzero;stroke:none"
   id="text180"><tspan
     x="0 9.7250004 16.775"
     y="0"
     sodipodi:role="line"
     id="tspan178">m=0</tspan></text>



<path
   d="m 289.3,230.05 h 33.15 M 68.75,52.7 l 4.5,0.1 h 2.2 l 2.25,0.05 h 4.5 l 2.2,-0.05 4.5,-0.1 2.25,-0.1 2.25,-0.05 2.2,-0.05 h 4.5 l 2.25,0.05 2.25,0.1 2.2,0.1 2.25,0.1 4.5,0.3 2.2,0.1 4.5,0.1 h 2.25 l 2.25,-0.1 2.2,-0.1 2.25,-0.2 4.5,-0.3 2.25,-0.1 2.2,-0.05 2.25,0.15 2.25,0.25 2.25,0.5 2.2,0.65 2.25,0.95 2.25,1.15 2.25,1.45 2.25,1.6 2.2,1.85 2.25,2.05 2.25,2.15 2.25,2.25 2.2,2.35 2.25,2.35 4.5,4.9 2.25,2.5 2.2,2.45 2.25,2.5 2.25,2.45 2.25,2.4 2.25,2.35 2.2,2.15 2.25,1.95 2.25,1.65 2.25,1.3 2.2,0.9 2.25,0.45 2.25,-0.05 2.25,-0.45 2.25,-0.9 2.2,-1.25 2.25,-1.5 2.25,-1.75 2.25,-1.8 2.2,-1.85 2.25,-1.85 2.25,-1.75 2.25,-1.7 2.25,-1.65 2.2,-1.65 2.25,-1.65 2.25,-1.8 2.25,-1.95 2.25,-2.15 2.2,-2.25 2.25,-2.4 2.25,-2.45 2.25,-2.5 2.2,-2.4 2.25,-2.25 2.25,-2 2.25,-1.75 2.25,-1.4 2.2,-1.1 2.25,-0.75 2.25,-0.45 2.25,-0.2 2.25,-0.05 2.2,0.1 2.25,0.15 2.25,0.2 2.25,0.15 2.2,0.1 h 4.5 l 2.25,-0.1 2.25,-0.1 2.2,-0.15 6.75,-0.3 2.2,-0.05 h 2.25 l 6.75,0.15 2.2,0.05 4.5,0.1 h 8.95 l 4.5,-0.1 2.2,-0.05 2.25,-0.05 h 2.25"
   style="fill:none;stroke:#ff0000;stroke-width:0.75;stroke-linecap:butt;stroke-linejoin:miter;stroke-miterlimit:3.79999995;stroke-dasharray:none;stroke-opacity:1"
   id="path182"
   inkscape:connector-curvature="0" /><text
   transform="matrix(1,0,0,-1,258.7775,213.385)"
   style="font-variant:normal;font-weight:normal;font-size:12.5px;font-family:'Times New Roman';-inkscape-font-specification:Times-Roman;writing-mode:lr-tb;fill:#000000;fill-opacity:1;fill-rule:nonzero;stroke:none"
   id="text186"><tspan
     x="0 9.7250004 16.775"
     y="0"
     sodipodi:role="line"
     id="tspan184">m=2</tspan></text>



<path
   d="m 289.3,217.55 h 33.15 M 68.75,52.9 71,53.05 l 2.25,0.15 2.2,0.15 2.25,0.1 4.5,0.1 2.2,-0.05 2.25,-0.05 2.25,-0.1 2.25,-0.15 2.25,-0.15 2.2,-0.15 2.25,-0.1 2.25,-0.05 h 2.25 l 2.25,0.05 2.2,0.15 2.25,0.15 2.25,0.2 2.25,0.15 2.2,0.1 2.25,0.05 2.25,-0.1 2.25,-0.2 2.25,-0.25 2.2,-0.3 2.25,-0.15 2.25,0.15 2.25,0.6 2.25,1.3 2.2,2.2 2.25,3.35 2.25,4.65 2.25,6.15 2.2,7.6 2.25,9.25 2.25,10.7 2.25,11.9 2.25,12.65 2.2,13 2.25,12.7 2.25,11.8 2.25,10.3 2.2,8.2 2.25,5.6 2.25,2.6 2.25,-0.5 2.25,-3.7 2.2,-6.65 2.25,-9.25 2.25,-11.3 2.25,-12.8 2.25,-13.55 2.2,-13.65 2.25,-13.1 2.25,-12 2.25,-10.5 2.2,-8.8 2.25,-6.9 2.25,-5.1 2.25,-3.5 2.25,-2.1 2.2,-1.05 2.25,-0.25 2.25,0.15 2.25,0.45 2.2,0.45 2.25,0.4 2.25,0.25 2.25,0.05 h 2.25 l 2.2,-0.1 2.25,-0.15 4.5,-0.2 2.25,-0.05 h 4.45 l 2.25,0.05 2.25,-0.05 2.2,-0.05 2.25,-0.1 2.25,-0.15 4.5,-0.4 2.2,-0.2 2.25,-0.2 4.5,-0.2 2.25,-0.05 h 2.2 l 2.25,0.05 4.5,0.2 2.2,0.05 4.5,0.1 h 4.5 l 2.2,-0.05 2.25,-0.05 2.25,-0.1 2.25,-0.05 2.2,-0.05 4.5,-0.1 h 6.7 l 2.25,0.05 h 2.25 l 2.25,0.05 H 324 l 2.25,0.05 2.25,-0.05 h 4.45 l 2.25,-0.05 h 2.25"
   style="fill:none;stroke:#00ff00;stroke-width:0.75;stroke-linecap:butt;stroke-linejoin:miter;stroke-miterlimit:3.79999995;stroke-dasharray:none;stroke-opacity:1"
   id="path188"
   inkscape:connector-curvature="0" /><text
   transform="matrix(1,0,0,-1,254.6149,200.885)"
   style="font-variant:normal;font-weight:normal;font-size:12.5px;font-family:'Times New Roman';-inkscape-font-specification:Times-Roman;writing-mode:lr-tb;fill:#000000;fill-opacity:1;fill-rule:nonzero;stroke:none"
   id="text192"><tspan
     x="0 9.7250004 16.775 20.9375"
     y="0"
     sodipodi:role="line"
     id="tspan190">m=-2</tspan></text>



<path
   d="m 289.3,205.05 h 33.15 M 68.75,52.6 H 82.2 l 2.2,-0.05 h 2.25 L 88.9,52.5 h 6.7 l 9,0.2 2.2,0.05 2.25,0.1 h 2.25 l 2.25,0.05 h 2.2 l 6.75,-0.15 2.25,-0.1 2.2,-0.05 4.5,-0.1 h 2.25 l 2.25,0.05 2.2,0.1 4.5,0.3 2.25,0.2 2.2,0.2 2.25,0.2 2.25,0.15 2.25,0.1 2.25,0.1 h 2.2 l 2.25,-0.05 2.25,-0.1 2.25,-0.15 2.2,-0.2 2.25,-0.15 2.25,-0.2 4.5,-0.3 2.2,-0.1 2.25,-0.1 h 2.25 l 2.25,0.05 2.25,0.2 2.2,0.4 2.25,0.7 2.25,1.15 2.25,1.75 2.2,2.55 2.25,3.65 2.25,4.8 2.25,6.2 2.25,7.7 2.2,9.2 2.25,10.6 2.25,11.75 2.25,12.6 2.2,12.95 2.25,12.75 2.25,11.9 2.25,10.45 2.25,8.35 2.2,5.75 2.25,2.8 2.25,-0.4 2.25,-3.95 2.25,-7 2.2,-9.55 2.25,-11.6 2.25,-13.05 2.25,-13.7 2.2,-13.75 2.25,-13.15 2.25,-12 2.25,-10.45 2.25,-8.7 2.2,-6.85 2.25,-5 2.25,-3.4 2.25,-2.05 2.25,-0.95 2.2,-0.2 2.25,0.25 2.25,0.45 2.25,0.4 2.2,0.25 2.25,0.05 2.25,-0.15 2.25,-0.4 2.25,-0.5 2.2,-0.6 2.25,-0.6 2.25,-0.55 2.25,-0.4 2.2,-0.35 2.25,-0.15 2.25,-0.05 h 2.25 l 2.25,0.1 2.2,0.1 2.25,0.15 2.25,0.1 2.25,0.05 h 2.25 l 2.2,-0.05 2.25,-0.05 4.5,-0.2 2.2,-0.1 4.5,-0.2"
   style="fill:none;stroke:#0000ff;stroke-width:0.75;stroke-linecap:butt;stroke-linejoin:miter;stroke-miterlimit:3.79999995;stroke-dasharray:none;stroke-opacity:1"
   id="path194"
   inkscape:connector-curvature="0" /><text
   transform="matrix(1,0,0,-1,259.5832,188.385)"
   style="font-variant:normal;font-weight:normal;font-size:12.5px;font-family:'Times New Roman';-inkscape-font-specification:Times-Roman;writing-mode:lr-tb;fill:#000000;fill-opacity:1;fill-rule:nonzero;stroke:none"
   id="text198"><tspan
     x="0 3.4749999 9.7250004 13.2 18.75"
     y="0"
     sodipodi:role="line"
     id="tspan196">total</tspan></text>



<path
   d="m 289.3,192.55 h 33.15 M 68.75,53.2 l 4.5,0.4 2.2,0.15 2.25,0.15 2.25,0.05 h 2.25 l 2.2,-0.1 2.25,-0.1 6.75,-0.6 2.2,-0.2 2.25,-0.1 h 2.25 l 2.25,0.1 2.25,0.2 2.2,0.3 6.75,1.05 2.2,0.2 2.25,0.05 2.25,-0.1 2.25,-0.3 2.25,-0.4 2.2,-0.45 2.25,-0.35 2.25,-0.1 2.25,0.45 2.25,1.25 2.2,2.3 2.25,3.6 2.25,5.1 2.25,6.8 2.2,8.45 2.25,10.35 2.25,12.1 2.25,13.4 2.25,14.4 2.2,14.8 2.25,14.65 2.25,13.9 2.25,12.4 2.2,10.35 2.25,7.8 2.25,4.9 2.25,1.75 2.25,-1.35 2.2,-4.25 2.25,-6.85 2.25,-8.9 2.25,-10.3 2.25,-11.1 2.2,-11.1 2.25,-10.45 2.25,-9.2 2.25,-7.45 2.2,-5.25 2.25,-2.9 2.25,-0.3 2.25,2.25 2.25,4.7 2.2,6.95 2.25,8.75 2.25,10.25 2.25,11.2 2.2,11.55 2.25,11.3 2.25,10.4 2.25,8.85 2.25,6.65 2.2,4 2.25,1 2.25,-2.35 2.25,-5.95 2.25,-9.2 2.2,-11.8 2.25,-14 2.25,-15.45 2.25,-16.25 2.2,-16.2 2.25,-15.5 2.25,-14.15 2.25,-12.4 2.25,-10.3 2.2,-8.15 2.25,-5.95 2.25,-3.95 2.25,-2.35 2.25,-1 2.2,-0.1 2.25,0.45 4.5,1.3 2.2,0.45 2.25,0.15 2.25,-0.15 2.25,-0.45 2.25,-0.7 2.2,-0.75 4.5,-1.5 2.25,-0.55 2.2,-0.4 2.25,-0.25 2.25,-0.05 2.25,0.05 2.25,0.15 2.2,0.2 2.25,0.15 2.25,0.2 2.25,0.1 2.25,0.05 2.2,-0.05 2.25,-0.1 4.5,-0.3 2.2,-0.15 2.25,-0.15 2.25,-0.15"
   style="fill:none;stroke:#ff00ff;stroke-width:0.75;stroke-linecap:butt;stroke-linejoin:miter;stroke-miterlimit:3.79999995;stroke-dasharray:1.5, 1.5;stroke-dashoffset:0;stroke-opacity:1"
   id="path200"
   inkscape:connector-curvature="0" /><path
   d="m 68.75,52.5 h 268.7 V 239.45 H 68.75 Z"
   style="fill:none;stroke:#000000;stroke-width:0.5;stroke-linecap:butt;stroke-linejoin:miter;stroke-miterlimit:3.79999995;stroke-dasharray:none;stroke-opacity:1"
   id="path202"
   inkscape:connector-curvature="0" /><g
   id="g1522"
   transform="matrix(0,1.6224269,1.6224269,0,-193.58778,-346.7712)"
   ns0:preamble="/home/yoshidak/.config/inkscape/extensions/package.tex"
   ns0:text="$d^3\\sigma/dE^\\mathrm{L}_1 d\\Omega^\\mathrm{L}_1 d\\Omega^\\mathrm{L}_2$ [$\\mu$b/(MeV sr$^2$)]\n\n\n"><defs
   id="defs1421">
<g
   id="g1419">
<symbol
   id="symbol1325"
   overflow="visible"
   style="overflow:visible">
<path
   id="path1323"
   d=""
   style="stroke:none"
   inkscape:connector-curvature="0" />
</symbol>
<symbol
   id="symbol1329"
   overflow="visible"
   style="overflow:visible">
<path
   id="path1327"
   d="m 5.140625,-6.8125 c 0,0 0,-0.109375 -0.125,-0.109375 -0.15625,0 -1.09375,0.09375 -1.265625,0.109375 -0.078125,0.015625 -0.140625,0.0625 -0.140625,0.1875 0,0.125 0.09375,0.125 0.234375,0.125 0.484375,0 0.5,0.0625 0.5,0.171875 L 4.3125,-6.125 3.71875,-3.765625 C 3.53125,-4.140625 3.25,-4.40625 2.796875,-4.40625 c -1.15625,0 -2.390625,1.46875 -2.390625,2.921875 0,0.9375 0.546875,1.59375 1.3125,1.59375 0.203125,0 0.703125,-0.046875 1.296875,-0.75 0.078125,0.421875 0.4375,0.75 0.90625,0.75 0.359375,0 0.578125,-0.234375 0.75,-0.546875 0.15625,-0.359375 0.296875,-0.96875 0.296875,-0.984375 0,-0.109375 -0.09375,-0.109375 -0.125,-0.109375 -0.09375,0 -0.109375,0.046875 -0.140625,0.1875 -0.171875,0.640625 -0.34375,1.234375 -0.75,1.234375 -0.28125,0 -0.296875,-0.265625 -0.296875,-0.453125 0,-0.25 0.015625,-0.3125 0.046875,-0.484375 z m -2.0625,5.625 C 3.015625,-1 3.015625,-0.984375 2.875,-0.8125 2.4375,-0.265625 2.03125,-0.109375 1.75,-0.109375 c -0.5,0 -0.640625,-0.546875 -0.640625,-0.9375 0,-0.5 0.3125,-1.71875 0.546875,-2.1875 0.3125,-0.578125 0.75,-0.953125 1.15625,-0.953125 0.640625,0 0.78125,0.8125 0.78125,0.875 0,0.0625 -0.015625,0.125 -0.03125,0.171875 z m 0,0"
   style="stroke:none"
   inkscape:connector-curvature="0" />
</symbol>
<symbol
   id="symbol1333"
   overflow="visible"
   style="overflow:visible">
<path
   id="path1331"
   d="m 5.15625,-3.71875 c 0.140625,0 0.5,0 0.5,-0.34375 0,-0.234375 -0.21875,-0.234375 -0.390625,-0.234375 h -2.28125 c -1.5,0 -2.609375,1.640625 -2.609375,2.828125 0,0.875 0.59375,1.578125 1.5,1.578125 1.171875,0 2.5,-1.203125 2.5,-2.734375 0,-0.171875 0,-0.65625 -0.3125,-1.09375 z M 1.890625,-0.109375 C 1.390625,-0.109375 1,-0.46875 1,-1.1875 c 0,-0.296875 0.109375,-1.109375 0.46875,-1.703125 0.421875,-0.6875 1.015625,-0.828125 1.359375,-0.828125 0.828125,0 0.90625,0.65625 0.90625,0.96875 0,0.46875 -0.203125,1.28125 -0.53125,1.796875 -0.390625,0.578125 -0.9375,0.84375 -1.3125,0.84375 z m 0,0"
   style="stroke:none"
   inkscape:connector-curvature="0" />
</symbol>
<symbol
   id="symbol1337"
   overflow="visible"
   style="overflow:visible">
<path
   id="path1335"
   d="m 4.375,-7.09375 c 0.046875,-0.140625 0.046875,-0.171875 0.046875,-0.1875 0,-0.109375 -0.078125,-0.203125 -0.1875,-0.203125 -0.078125,0 -0.140625,0.03125 -0.171875,0.09375 l -3.46875,9.5 C 0.546875,2.25 0.546875,2.28125 0.546875,2.296875 0.546875,2.40625 0.640625,2.5 0.75,2.5 0.875,2.5 0.90625,2.421875 0.96875,2.25 Z m 0,0"
   style="stroke:none"
   inkscape:connector-curvature="0" />
</symbol>
<symbol
   id="symbol1341"
   overflow="visible"
   style="overflow:visible">
<path
   id="path1339"
   d="M 7.0625,-2.328125 C 7.078125,-2.375 7.109375,-2.4375 7.109375,-2.46875 c 0,0 0,-0.109375 -0.125,-0.109375 -0.09375,0 -0.109375,0.0625 -0.125,0.125 C 6.203125,-0.984375 5.84375,-0.3125 4.140625,-0.3125 H 2.6875 c -0.140625,0 -0.171875,0 -0.21875,0 -0.109375,-0.015625 -0.140625,-0.03125 -0.140625,-0.109375 0,-0.03125 0,-0.046875 0.046875,-0.21875 L 3.0625,-3.375 h 0.984375 c 0.84375,0 0.84375,0.21875 0.84375,0.46875 0,0.0625 0,0.1875 -0.0625,0.484375 C 4.8125,-2.375 4.796875,-2.34375 4.796875,-2.3125 c 0,0.046875 0.03125,0.109375 0.125,0.109375 C 5,-2.203125 5.03125,-2.25 5.078125,-2.40625 l 0.5625,-2.328125 c 0,-0.0625 -0.046875,-0.109375 -0.125,-0.109375 -0.078125,0 -0.109375,0.0625 -0.125,0.171875 -0.21875,0.765625 -0.390625,1 -1.3125,1 h -0.9375 l 0.59375,-2.40625 C 3.828125,-6.4375 3.84375,-6.46875 4.28125,-6.46875 H 5.6875 c 1.203125,0 1.515625,0.28125 1.515625,1.109375 0,0.234375 0,0.25 -0.046875,0.53125 0,0.046875 -0.015625,0.125 -0.015625,0.171875 0,0.046875 0.03125,0.125 0.125,0.125 0.109375,0 0.125,-0.0625 0.140625,-0.25 L 7.609375,-6.515625 C 7.640625,-6.78125 7.59375,-6.78125 7.34375,-6.78125 H 2.296875 c -0.1875,0 -0.296875,0 -0.296875,0.203125 0,0.109375 0.09375,0.109375 0.28125,0.109375 0.375,0 0.65625,0 0.65625,0.171875 0,0.046875 0,0.0625 -0.0625,0.25 L 1.5625,-0.78125 c -0.09375,0.390625 -0.109375,0.46875 -0.90625,0.46875 -0.171875,0 -0.28125,0 -0.28125,0.1875 C 0.375,0 0.46875,0 0.65625,0 h 5.171875 c 0.234375,0 0.25,-0.015625 0.3125,-0.171875 z m 0,0"
   style="stroke:none"
   inkscape:connector-curvature="0" />
</symbol>
<symbol
   id="symbol1345"
   overflow="visible"
   style="overflow:visible">
<path
   id="path1343"
   d="m 2.296875,-3.5 c 0.0625,-0.203125 0.15625,-0.59375 0.15625,-0.640625 0,-0.171875 -0.125,-0.265625 -0.296875,-0.265625 -0.015625,0 -0.296875,0.015625 -0.390625,0.359375 l -1.4375,5.765625 c -0.03125,0.125 -0.03125,0.140625 -0.03125,0.171875 0,0.140625 0.109375,0.265625 0.28125,0.265625 0.203125,0 0.328125,-0.1875 0.34375,-0.21875 C 0.96875,1.859375 1.09375,1.328125 1.46875,-0.203125 1.796875,0.0625 2.25,0.109375 2.4375,0.109375 c 0.703125,0 1.09375,-0.453125 1.328125,-0.734375 0.09375,0.453125 0.46875,0.734375 0.90625,0.734375 0.34375,0 0.578125,-0.234375 0.734375,-0.546875 0.171875,-0.359375 0.296875,-0.96875 0.296875,-0.984375 0,-0.109375 -0.09375,-0.109375 -0.125,-0.109375 -0.09375,0 -0.109375,0.046875 -0.140625,0.1875 -0.15625,0.640625 -0.34375,1.234375 -0.75,1.234375 -0.265625,0 -0.296875,-0.265625 -0.296875,-0.453125 0,-0.21875 0.109375,-0.6875 0.1875,-1.046875 L 4.859375,-2.6875 C 4.890625,-2.828125 5,-3.203125 5.03125,-3.359375 5.078125,-3.59375 5.1875,-3.96875 5.1875,-4.03125 c 0,-0.171875 -0.140625,-0.265625 -0.296875,-0.265625 -0.046875,0 -0.3125,0.015625 -0.390625,0.34375 l -0.46875,1.875 c -0.109375,0.5 -0.21875,0.90625 -0.25,1.015625 -0.015625,0.046875 -0.484375,0.953125 -1.296875,0.953125 -0.5,0 -0.734375,-0.328125 -0.734375,-0.875 0,-0.28125 0.0625,-0.5625 0.140625,-0.84375 z m 0,0"
   style="stroke:none"
   inkscape:connector-curvature="0" />
</symbol>
<symbol
   id="symbol1349"
   overflow="visible"
   style="overflow:visible">
<path
   id="path1347"
   d=""
   style="stroke:none"
   inkscape:connector-curvature="0" />
</symbol>
<symbol
   id="symbol1353"
   overflow="visible"
   style="overflow:visible">
<path
   id="path1351"
   d="m 1.90625,-2.328125 c 0.546875,0 0.9375,0.375 0.9375,1.125 0,0.859375 -0.515625,1.125 -0.90625,1.125 -0.28125,0 -0.90625,-0.078125 -1.1875,-0.5 0.328125,0 0.40625,-0.234375 0.40625,-0.390625 0,-0.21875 -0.171875,-0.375 -0.390625,-0.375 -0.1875,0 -0.390625,0.125 -0.390625,0.40625 0,0.65625 0.71875,1.078125 1.5625,1.078125 0.96875,0 1.640625,-0.65625 1.640625,-1.34375 0,-0.546875 -0.4375,-1.09375 -1.203125,-1.25 0.71875,-0.265625 0.984375,-0.78125 0.984375,-1.21875 0,-0.546875 -0.625,-0.953125 -1.40625,-0.953125 -0.765625,0 -1.359375,0.375 -1.359375,0.9375 0,0.234375 0.15625,0.359375 0.359375,0.359375 0.21875,0 0.359375,-0.15625 0.359375,-0.34375 0,-0.203125 -0.140625,-0.359375 -0.359375,-0.375 0.25,-0.296875 0.71875,-0.375 0.984375,-0.375 0.3125,0 0.75,0.15625 0.75,0.75 0,0.296875 -0.09375,0.625 -0.28125,0.828125 -0.21875,0.265625 -0.421875,0.28125 -0.765625,0.3125 -0.171875,0.015625 -0.1875,0.015625 -0.21875,0.015625 -0.015625,0 -0.078125,0.015625 -0.078125,0.09375 0,0.09375 0.0625,0.09375 0.1875,0.09375 z m 0,0"
   style="stroke:none"
   inkscape:connector-curvature="0" />
</symbol>
<symbol
   id="symbol1357"
   overflow="visible"
   style="overflow:visible">
<path
   id="path1355"
   d="M 4.53125,-1.828125 H 4.296875 C 4.21875,-1.15625 4.125,-0.25 2.796875,-0.25 h -0.6875 c -0.328125,0 -0.34375,-0.0625 -0.34375,-0.265625 V -4.1875 c 0,-0.234375 0,-0.328125 0.65625,-0.328125 h 0.25 v -0.25 C 2.515625,-4.75 1.625,-4.734375 1.453125,-4.734375 c -0.265625,0 -1.0625,-0.03125 -1.0625,-0.03125 v 0.25 H 0.5625 c 0.53125,0 0.546875,0.078125 0.546875,0.328125 v 3.625 c 0,0.234375 -0.015625,0.3125 -0.546875,0.3125 H 0.390625 V 0 h 3.9375 z m 0,0"
   style="stroke:none"
   inkscape:connector-curvature="0" />
</symbol>
<symbol
   id="symbol1361"
   overflow="visible"
   style="overflow:visible">
<path
   id="path1359"
   d="m 2.328125,-4.4375 c 0,-0.1875 0,-0.1875 -0.203125,-0.1875 -0.453125,0.4375 -1.078125,0.4375 -1.359375,0.4375 v 0.25 c 0.15625,0 0.625,0 1,-0.1875 v 3.546875 c 0,0.234375 0,0.328125 -0.6875,0.328125 H 0.8125 V 0 c 0.125,0 0.984375,-0.03125 1.234375,-0.03125 0.21875,0 1.09375,0.03125 1.25,0.03125 V -0.25 H 3.03125 c -0.703125,0 -0.703125,-0.09375 -0.703125,-0.328125 z m 0,0"
   style="stroke:none"
   inkscape:connector-curvature="0" />
</symbol>
<symbol
   id="symbol1365"
   overflow="visible"
   style="overflow:visible">
<path
   id="path1363"
   d="M 3.515625,-1.265625 H 3.28125 c -0.015625,0.15625 -0.09375,0.5625 -0.1875,0.625 C 3.046875,-0.59375 2.515625,-0.59375 2.40625,-0.59375 H 1.125 c 0.734375,-0.640625 0.984375,-0.84375 1.390625,-1.171875 0.515625,-0.40625 1,-0.84375 1,-1.5 0,-0.84375 -0.734375,-1.359375 -1.625,-1.359375 -0.859375,0 -1.453125,0.609375 -1.453125,1.25 0,0.34375 0.296875,0.390625 0.375,0.390625 0.15625,0 0.359375,-0.125 0.359375,-0.375 0,-0.125 -0.046875,-0.375 -0.40625,-0.375 C 0.984375,-4.21875 1.453125,-4.375 1.78125,-4.375 c 0.703125,0 1.0625,0.546875 1.0625,1.109375 0,0.609375 -0.4375,1.078125 -0.65625,1.328125 L 0.515625,-0.265625 C 0.4375,-0.203125 0.4375,-0.1875 0.4375,0 h 2.875 z m 0,0"
   style="stroke:none"
   inkscape:connector-curvature="0" />
</symbol>
<symbol
   id="symbol1369"
   overflow="visible"
   style="overflow:visible">
<path
   id="path1367"
   d=""
   style="stroke:none"
   inkscape:connector-curvature="0" />
</symbol>
<symbol
   id="symbol1373"
   overflow="visible"
   style="overflow:visible">
<path
   id="path1371"
   d="M 6.75,-1.609375 H 6.5 c -0.046875,0.25 -0.09375,0.484375 -0.1875,0.71875 -0.046875,0.15625 -0.078125,0.25 -0.65625,0.25 H 4.859375 C 5,-1.203125 5.296875,-1.6875 5.75,-2.34375 c 0.46875,-0.703125 0.875,-1.390625 0.875,-2.1875 0,-1.375 -1.34375,-2.5 -3.03125,-2.5 -1.703125,0 -3.03125,1.140625 -3.03125,2.5 0,0.796875 0.40625,1.484375 0.875,2.1875 0.4375,0.65625 0.75,1.140625 0.890625,1.703125 H 1.53125 C 0.953125,-0.640625 0.921875,-0.734375 0.875,-0.875 0.78125,-1.109375 0.734375,-1.359375 0.6875,-1.609375 h -0.25 L 0.765625,0 h 1.59375 c 0.21875,0 0.25,0 0.25,-0.203125 0,-0.703125 -0.3125,-1.578125 -0.53125,-2.21875 -0.21875,-0.578125 -0.5,-1.359375 -0.5,-2.109375 0,-1.59375 1.109375,-2.28125 2.015625,-2.28125 0.953125,0 2.015625,0.71875 2.015625,2.28125 0,0.75 -0.28125,1.5 -0.5625,2.3125 -0.15625,0.421875 -0.46875,1.328125 -0.46875,2.015625 C 4.578125,0 4.609375,0 4.828125,0 h 1.59375 z m 0,0"
   style="stroke:none"
   inkscape:connector-curvature="0" />
</symbol>
<symbol
   id="symbol1377"
   overflow="visible"
   style="overflow:visible">
<path
   id="path1375"
   d="M 2.546875,2.5 V 2.09375 h -0.96875 v -9.171875 h 0.96875 v -0.40625 h -1.375 V 2.5 Z m 0,0"
   style="stroke:none"
   inkscape:connector-curvature="0" />
</symbol>
<symbol
   id="symbol1381"
   overflow="visible"
   style="overflow:visible">
<path
   id="path1379"
   d="m 1.71875,-3.765625 v -3.15625 L 0.28125,-6.8125 V -6.5 c 0.703125,0 0.78125,0.0625 0.78125,0.5625 V 0 h 0.25 c 0,-0.015625 0.078125,-0.15625 0.359375,-0.625 0.140625,0.234375 0.5625,0.734375 1.296875,0.734375 1.1875,0 2.21875,-0.984375 2.21875,-2.265625 0,-1.265625 -0.96875,-2.25 -2.109375,-2.25 -0.78125,0 -1.203125,0.46875 -1.359375,0.640625 z m 0.03125,2.625 V -3.1875 c 0,-0.1875 0,-0.203125 0.109375,-0.359375 C 2.25,-4.109375 2.796875,-4.1875 3.03125,-4.1875 c 0.453125,0 0.8125,0.265625 1.046875,0.640625 0.265625,0.40625 0.28125,0.96875 0.28125,1.390625 0,0.359375 -0.015625,0.953125 -0.296875,1.40625 -0.21875,0.3125 -0.59375,0.640625 -1.125,0.640625 -0.453125,0 -0.8125,-0.234375 -1.046875,-0.609375 C 1.75,-0.921875 1.75,-0.953125 1.75,-1.140625 Z m 0,0"
   style="stroke:none"
   inkscape:connector-curvature="0" />
</symbol>
<symbol
   id="symbol1385"
   overflow="visible"
   style="overflow:visible">
<path
   id="path1383"
   d="m 4.359375,-7.09375 c 0.0625,-0.140625 0.0625,-0.15625 0.0625,-0.1875 0,-0.109375 -0.09375,-0.203125 -0.203125,-0.203125 C 4.078125,-7.484375 4.03125,-7.375 4,-7.28125 L 0.609375,2.109375 C 0.5625,2.25 0.5625,2.265625 0.5625,2.296875 0.5625,2.40625 0.640625,2.5 0.75,2.5 0.890625,2.5 0.9375,2.390625 0.96875,2.296875 Z m 0,0"
   style="stroke:none"
   inkscape:connector-curvature="0" />
</symbol>
<symbol
   id="symbol1389"
   overflow="visible"
   style="overflow:visible">
<path
   id="path1387"
   d="m 3.296875,2.390625 c 0,-0.03125 0,-0.046875 -0.171875,-0.21875 C 1.890625,0.921875 1.5625,-0.96875 1.5625,-2.5 c 0,-1.734375 0.375,-3.46875 1.609375,-4.703125 0.125,-0.125 0.125,-0.140625 0.125,-0.171875 0,-0.078125 -0.03125,-0.109375 -0.09375,-0.109375 -0.109375,0 -1,0.6875 -1.59375,1.953125 -0.5,1.09375 -0.625,2.203125 -0.625,3.03125 0,0.78125 0.109375,1.984375 0.65625,3.125 C 2.25,1.84375 3.09375,2.5 3.203125,2.5 c 0.0625,0 0.09375,-0.03125 0.09375,-0.109375 z m 0,0"
   style="stroke:none"
   inkscape:connector-curvature="0" />
</symbol>
<symbol
   id="symbol1393"
   overflow="visible"
   style="overflow:visible">
<path
   id="path1391"
   d="M 2.40625,-6.59375 C 2.3125,-6.8125 2.28125,-6.8125 2.046875,-6.8125 H 0.375 V -6.5 h 0.234375 c 0.765625,0 0.78125,0.109375 0.78125,0.46875 v 4.984375 c 0,0.265625 0,0.734375 -1.015625,0.734375 V 0 c 0.34375,-0.015625 0.828125,-0.03125 1.15625,-0.03125 0.328125,0 0.828125,0.015625 1.171875,0.03125 v -0.3125 c -1.03125,0 -1.03125,-0.46875 -1.03125,-0.734375 v -5.375 H 1.6875 L 4.09375,-0.21875 C 4.140625,-0.09375 4.1875,0 4.28125,0 4.390625,0 4.421875,-0.078125 4.46875,-0.1875 L 6.921875,-6.5 v 5.71875 c 0,0.359375 -0.015625,0.46875 -0.78125,0.46875 H 5.90625 V 0 c 0.359375,-0.03125 1.046875,-0.03125 1.4375,-0.03125 0.375,0 1.046875,0 1.421875,0.03125 v -0.3125 h -0.25 c -0.765625,0 -0.78125,-0.109375 -0.78125,-0.46875 v -5.25 C 7.734375,-6.390625 7.75,-6.5 8.515625,-6.5 h 0.25 v -0.3125 h -1.6875 C 6.8125,-6.8125 6.8125,-6.796875 6.75,-6.625 L 4.5625,-1 Z m 0,0"
   style="stroke:none"
   inkscape:connector-curvature="0" />
</symbol>
<symbol
   id="symbol1397"
   overflow="visible"
   style="overflow:visible">
<path
   id="path1395"
   d="M 1.109375,-2.515625 C 1.171875,-4 2.015625,-4.25 2.359375,-4.25 c 1.015625,0 1.125,1.34375 1.125,1.734375 z m 0,0.21875 h 2.78125 c 0.21875,0 0.25,0 0.25,-0.21875 0,-0.984375 -0.546875,-1.953125 -1.78125,-1.953125 -1.15625,0 -2.078125,1.03125 -2.078125,2.28125 0,1.328125 1.046875,2.296875 2.1875,2.296875 C 3.6875,0.109375 4.140625,-1 4.140625,-1.1875 4.140625,-1.28125 4.0625,-1.3125 4,-1.3125 c -0.078125,0 -0.109375,0.0625 -0.125,0.140625 -0.34375,1.03125 -1.25,1.03125 -1.34375,1.03125 -0.5,0 -0.890625,-0.296875 -1.125,-0.671875 -0.296875,-0.46875 -0.296875,-1.125 -0.296875,-1.484375 z m 0,0"
   style="stroke:none"
   inkscape:connector-curvature="0" />
</symbol>
<symbol
   id="symbol1401"
   overflow="visible"
   style="overflow:visible">
<path
   id="path1399"
   d="M 6.1875,-5.828125 C 6.328125,-6.203125 6.59375,-6.484375 7.28125,-6.5 v -0.3125 c -0.3125,0.03125 -0.71875,0.03125 -0.96875,0.03125 -0.296875,0 -0.875,-0.015625 -1.140625,-0.03125 V -6.5 C 5.6875,-6.484375 5.90625,-6.234375 5.90625,-6 c 0,0.078125 -0.03125,0.140625 -0.046875,0.203125 L 4.03125,-1 2.125,-6.03125 C 2.0625,-6.171875 2.0625,-6.1875 2.0625,-6.203125 2.0625,-6.5 2.625,-6.5 2.875,-6.5 v -0.3125 c -0.359375,0.03125 -1.046875,0.03125 -1.421875,0.03125 -0.46875,0 -0.90625,-0.015625 -1.265625,-0.03125 V -6.5 c 0.65625,0 0.84375,0 0.984375,0.375 L 3.484375,0 c 0.0625,0.1875 0.109375,0.21875 0.25,0.21875 0.15625,0 0.1875,-0.046875 0.234375,-0.1875 z m 0,0"
   style="stroke:none"
   inkscape:connector-curvature="0" />
</symbol>
<symbol
   id="symbol1405"
   overflow="visible"
   style="overflow:visible">
<path
   id="path1403"
   d="m 2.078125,-1.9375 c 0.21875,0.046875 1.03125,0.203125 1.03125,0.921875 0,0.5 -0.34375,0.90625 -1.125,0.90625 -0.84375,0 -1.203125,-0.5625 -1.390625,-1.421875 C 0.5625,-1.65625 0.5625,-1.6875 0.453125,-1.6875 c -0.125,0 -0.125,0.0625 -0.125,0.234375 V -0.125 c 0,0.171875 0,0.234375 0.109375,0.234375 0.046875,0 0.0625,-0.015625 0.25,-0.203125 0.015625,-0.015625 0.015625,-0.03125 0.203125,-0.21875 0.4375,0.40625 0.890625,0.421875 1.09375,0.421875 1.140625,0 1.609375,-0.671875 1.609375,-1.390625 0,-0.515625 -0.296875,-0.828125 -0.421875,-0.9375 C 2.84375,-2.546875 2.453125,-2.625 2.03125,-2.703125 1.46875,-2.8125 0.8125,-2.9375 0.8125,-3.515625 c 0,-0.359375 0.25,-0.765625 1.109375,-0.765625 1.09375,0 1.15625,0.90625 1.171875,1.203125 0,0.09375 0.09375,0.09375 0.109375,0.09375 0.140625,0 0.140625,-0.046875 0.140625,-0.234375 v -1.015625 c 0,-0.15625 0,-0.234375 -0.109375,-0.234375 -0.046875,0 -0.078125,0 -0.203125,0.125 -0.03125,0.03125 -0.125,0.125 -0.171875,0.15625 -0.375,-0.28125 -0.78125,-0.28125 -0.9375,-0.28125 -1.21875,0 -1.59375,0.671875 -1.59375,1.234375 0,0.34375 0.15625,0.625 0.421875,0.84375 0.328125,0.25 0.609375,0.3125 1.328125,0.453125 z m 0,0"
   style="stroke:none"
   inkscape:connector-curvature="0" />
</symbol>
<symbol
   id="symbol1409"
   overflow="visible"
   style="overflow:visible">
<path
   id="path1407"
   d="M 1.671875,-3.3125 V -4.40625 L 0.28125,-4.296875 v 0.3125 c 0.703125,0 0.78125,0.0625 0.78125,0.5625 V -0.75 c 0,0.4375 -0.109375,0.4375 -0.78125,0.4375 V 0 c 0.390625,-0.015625 0.859375,-0.03125 1.140625,-0.03125 0.390625,0 0.859375,0 1.265625,0.03125 V -0.3125 H 2.46875 c -0.734375,0 -0.75,-0.109375 -0.75,-0.46875 V -2.3125 c 0,-0.984375 0.421875,-1.875 1.171875,-1.875 0.0625,0 0.09375,0 0.109375,0.015625 -0.03125,0 -0.234375,0.125 -0.234375,0.390625 0,0.265625 0.21875,0.421875 0.4375,0.421875 0.171875,0 0.421875,-0.125 0.421875,-0.4375 0,-0.3125 -0.3125,-0.609375 -0.734375,-0.609375 -0.734375,0 -1.09375,0.671875 -1.21875,1.09375 z m 0,0"
   style="stroke:none"
   inkscape:connector-curvature="0" />
</symbol>
<symbol
   id="symbol1413"
   overflow="visible"
   style="overflow:visible">
<path
   id="path1411"
   d="m 2.875,-2.5 c 0,-0.765625 -0.109375,-1.96875 -0.65625,-3.109375 -0.59375,-1.21875 -1.453125,-1.875 -1.546875,-1.875 -0.0625,0 -0.109375,0.046875 -0.109375,0.109375 0,0.03125 0,0.046875 0.1875,0.234375 0.984375,0.984375 1.546875,2.5625 1.546875,4.640625 0,1.71875 -0.359375,3.46875 -1.59375,4.71875 C 0.5625,2.34375 0.5625,2.359375 0.5625,2.390625 0.5625,2.453125 0.609375,2.5 0.671875,2.5 0.765625,2.5 1.671875,1.8125 2.25,0.546875 2.765625,-0.546875 2.875,-1.65625 2.875,-2.5 Z m 0,0"
   style="stroke:none"
   inkscape:connector-curvature="0" />
</symbol>
<symbol
   id="symbol1417"
   overflow="visible"
   style="overflow:visible">
<path
   id="path1415"
   d="M 1.578125,-7.484375 H 0.21875 v 0.40625 H 1.1875 V 2.09375 H 0.21875 V 2.5 h 1.359375 z m 0,0"
   style="stroke:none"
   inkscape:connector-curvature="0" />
</symbol>
</g>
</defs>
<g
   id="textext-47353512-24">
<g
   id="g1425"
   style="fill:#000000;fill-opacity:1">
  <use
   id="use1423"
   y="134.765"
   x="223.43201"
   xlink:href="#textext-47353512-1"
   width="100%"
   height="100%" />
</g>
<g
   id="g1429"
   style="fill:#000000;fill-opacity:1">
  <use
   id="use1427"
   y="131.14999"
   x="228.618"
   xlink:href="#textext-47353512-7"
   width="100%"
   height="100%" />
</g>
<g
   id="g1433"
   style="fill:#000000;fill-opacity:1">
  <use
   id="use1431"
   y="134.765"
   x="233.08701"
   xlink:href="#textext-47353512-2"
   width="100%"
   height="100%" />
</g>
<g
   id="g1441"
   style="fill:#000000;fill-opacity:1">
  <use
   id="use1435"
   y="134.765"
   x="239.13829"
   xlink:href="#textext-47353512-3"
   width="100%"
   height="100%" />
  <use
   id="use1437"
   y="134.765"
   x="244.11958"
   xlink:href="#textext-47353512-1"
   width="100%"
   height="100%" />
  <use
   id="use1439"
   y="134.765"
   x="249.30511"
   xlink:href="#textext-47353512-4"
   width="100%"
   height="100%" />
</g>
<g
   id="g1445"
   style="fill:#000000;fill-opacity:1">
  <use
   id="use1443"
   y="131.14999"
   x="257.23199"
   xlink:href="#textext-47353512-8"
   width="100%"
   height="100%" />
</g>
<g
   id="g1449"
   style="fill:#000000;fill-opacity:1">
  <use
   id="use1447"
   y="137.23801"
   x="256.65799"
   xlink:href="#textext-47353512-9"
   width="100%"
   height="100%" />
</g>
<g
   id="g1453"
   style="fill:#000000;fill-opacity:1">
  <use
   id="use1451"
   y="134.765"
   x="262.65701"
   xlink:href="#textext-47353512-1"
   width="100%"
   height="100%" />
</g>
<g
   id="g1457"
   style="fill:#000000;fill-opacity:1">
  <use
   id="use1455"
   y="134.765"
   x="267.84201"
   xlink:href="#textext-47353512-12"
   width="100%"
   height="100%" />
</g>
<g
   id="g1461"
   style="fill:#000000;fill-opacity:1">
  <use
   id="use1459"
   y="131.14999"
   x="275.03699"
   xlink:href="#textext-47353512-8"
   width="100%"
   height="100%" />
</g>
<g
   id="g1465"
   style="fill:#000000;fill-opacity:1">
  <use
   id="use1463"
   y="137.23801"
   x="275.03699"
   xlink:href="#textext-47353512-9"
   width="100%"
   height="100%" />
</g>
<g
   id="g1469"
   style="fill:#000000;fill-opacity:1">
  <use
   id="use1467"
   y="134.765"
   x="280.461"
   xlink:href="#textext-47353512-1"
   width="100%"
   height="100%" />
</g>
<g
   id="g1473"
   style="fill:#000000;fill-opacity:1">
  <use
   id="use1471"
   y="134.765"
   x="285.647"
   xlink:href="#textext-47353512-12"
   width="100%"
   height="100%" />
</g>
<g
   id="g1477"
   style="fill:#000000;fill-opacity:1">
  <use
   id="use1475"
   y="131.14999"
   x="292.84201"
   xlink:href="#textext-47353512-8"
   width="100%"
   height="100%" />
</g>
<g
   id="g1481"
   style="fill:#000000;fill-opacity:1">
  <use
   id="use1479"
   y="137.23801"
   x="292.84201"
   xlink:href="#textext-47353512-10"
   width="100%"
   height="100%" />
</g>
<g
   id="g1485"
   style="fill:#000000;fill-opacity:1">
  <use
   id="use1483"
   y="134.765"
   x="301.58701"
   xlink:href="#textext-47353512-13"
   width="100%"
   height="100%" />
</g>
<g
   id="g1489"
   style="fill:#000000;fill-opacity:1">
  <use
   id="use1487"
   y="134.765"
   x="304.354"
   xlink:href="#textext-47353512-5"
   width="100%"
   height="100%" />
</g>
<g
   id="g1503"
   style="fill:#000000;fill-opacity:1">
  <use
   id="use1491"
   y="134.765"
   x="310.35699"
   xlink:href="#textext-47353512-14"
   width="100%"
   height="100%" />
  <use
   id="use1493"
   y="134.765"
   x="315.89221"
   xlink:href="#textext-47353512-15"
   width="100%"
   height="100%" />
  <use
   id="use1495"
   y="134.765"
   x="320.87354"
   xlink:href="#textext-47353512-16"
   width="100%"
   height="100%" />
  <use
   id="use1497"
   y="134.765"
   x="324.74799"
   xlink:href="#textext-47353512-17"
   width="100%"
   height="100%" />
  <use
   id="use1499"
   y="134.765"
   x="333.88068"
   xlink:href="#textext-47353512-18"
   width="100%"
   height="100%" />
  <use
   id="use1501"
   y="134.765"
   x="338.30807"
   xlink:href="#textext-47353512-19"
   width="100%"
   height="100%" />
</g>
<g
   id="g1509"
   style="fill:#000000;fill-opacity:1">
  <use
   id="use1505"
   y="134.765"
   x="349.09756"
   xlink:href="#textext-47353512-20"
   width="100%"
   height="100%" />
  <use
   id="use1507"
   y="134.765"
   x="353.02682"
   xlink:href="#textext-47353512-21"
   width="100%"
   height="100%" />
</g>
<g
   id="g1513"
   style="fill:#000000;fill-opacity:1">
  <use
   id="use1511"
   y="131.14999"
   x="356.93301"
   xlink:href="#textext-47353512-10"
   width="100%"
   height="100%" />
</g>
<g
   id="g1519"
   style="fill:#000000;fill-opacity:1">
  <use
   id="use1515"
   y="134.765"
   x="361.40201"
   xlink:href="#textext-47353512-22"
   width="100%"
   height="100%" />
  <use
   id="use1517"
   y="134.765"
   x="365.27646"
   xlink:href="#textext-47353512-23"
   width="100%"
   height="100%" />
</g>
</g>
</g><g
   id="g1899"
   ns0:preamble="/home/yoshidak/.config/inkscape/extensions/package.tex"
   ns0:text="$\\theta_\\alpha$ (deg.)\n"
   transform="matrix(1.970481,0,0,-1.970481,-285.58493,282.58875)"><defs
   id="defs1874">
<g
   id="g1872">
<symbol
   id="textext-d318ff56-0"
   overflow="visible"
   style="overflow:visible">
<path
   id="path1839"
   d=""
   style="stroke:none"
   inkscape:connector-curvature="0" />
</symbol>
<symbol
   id="textext-d318ff56-1"
   overflow="visible"
   style="overflow:visible">
<path
   id="path1842"
   d="m 4.53125,-4.984375 c 0,-0.65625 -0.171875,-2.046875 -1.1875,-2.046875 -1.390625,0 -2.921875,2.8125 -2.921875,5.09375 0,0.9375 0.28125,2.046875 1.1875,2.046875 1.40625,0 2.921875,-2.859375 2.921875,-5.09375 z M 1.46875,-3.625 C 1.640625,-4.25 1.84375,-5.046875 2.25,-5.765625 2.515625,-6.25 2.875,-6.8125 3.328125,-6.8125 c 0.484375,0 0.546875,0.640625 0.546875,1.203125 0,0.5 -0.078125,1 -0.3125,1.984375 z m 2,0.328125 C 3.359375,-2.84375 3.15625,-2 2.765625,-1.28125 c -0.34375,0.6875 -0.71875,1.171875 -1.15625,1.171875 -0.328125,0 -0.53125,-0.296875 -0.53125,-1.21875 0,-0.421875 0.0625,-1 0.3125,-1.96875 z m 0,0"
   style="stroke:none"
   inkscape:connector-curvature="0" />
</symbol>
<symbol
   id="textext-d318ff56-2"
   overflow="visible"
   style="overflow:visible">
<path
   id="path1845"
   d=""
   style="stroke:none"
   inkscape:connector-curvature="0" />
</symbol>
<symbol
   id="textext-d318ff56-3"
   overflow="visible"
   style="overflow:visible">
<path
   id="path1848"
   d="m 3.8125,-0.984375 c 0.640625,-0.65625 0.890625,-1.59375 0.890625,-1.65625 0,-0.09375 -0.078125,-0.09375 -0.109375,-0.09375 C 4.5,-2.734375 4.5,-2.71875 4.453125,-2.5625 4.328125,-2.109375 4.09375,-1.671875 3.796875,-1.296875 3.796875,-1.40625 3.78125,-1.875 3.765625,-1.9375 3.65625,-2.625 3.140625,-3.078125 2.4375,-3.078125 c -1.015625,0 -2,0.953125 -2,1.9375 0,0.640625 0.46875,1.203125 1.265625,1.203125 0.640625,0 1.21875,-0.28125 1.609375,-0.578125 0.171875,0.5 0.515625,0.578125 0.734375,0.578125 0.40625,0 0.65625,-0.328125 0.65625,-0.484375 C 4.703125,-0.5 4.609375,-0.5 4.578125,-0.5 c -0.09375,0 -0.109375,0.03125 -0.125,0.0625 -0.09375,0.265625 -0.3125,0.3125 -0.390625,0.3125 -0.09375,0 -0.21875,0 -0.25,-0.859375 z M 3.265625,-0.75 C 2.578125,-0.1875 2,-0.125 1.734375,-0.125 c -0.46875,0 -0.71875,-0.3125 -0.71875,-0.78125 0,-0.1875 0.09375,-0.953125 0.453125,-1.4375 C 1.796875,-2.765625 2.1875,-2.875 2.4375,-2.875 c 0.546875,0 0.71875,0.53125 0.765625,0.96875 0.046875,0.296875 0.03125,0.796875 0.0625,1.15625 z m 0,0"
   style="stroke:none"
   inkscape:connector-curvature="0" />
</symbol>
<symbol
   id="textext-d318ff56-4"
   overflow="visible"
   style="overflow:visible">
<path
   id="path1851"
   d=""
   style="stroke:none"
   inkscape:connector-curvature="0" />
</symbol>
<symbol
   id="textext-d318ff56-5"
   overflow="visible"
   style="overflow:visible">
<path
   id="path1854"
   d="m 3.296875,2.390625 c 0,-0.03125 0,-0.046875 -0.171875,-0.21875 C 1.890625,0.921875 1.5625,-0.96875 1.5625,-2.5 c 0,-1.734375 0.375,-3.46875 1.609375,-4.703125 0.125,-0.125 0.125,-0.140625 0.125,-0.171875 0,-0.078125 -0.03125,-0.109375 -0.09375,-0.109375 -0.109375,0 -1,0.6875 -1.59375,1.953125 -0.5,1.09375 -0.625,2.203125 -0.625,3.03125 0,0.78125 0.109375,1.984375 0.65625,3.125 C 2.25,1.84375 3.09375,2.5 3.203125,2.5 c 0.0625,0 0.09375,-0.03125 0.09375,-0.109375 z m 0,0"
   style="stroke:none"
   inkscape:connector-curvature="0" />
</symbol>
<symbol
   id="textext-d318ff56-6"
   overflow="visible"
   style="overflow:visible">
<path
   id="path1857"
   d="m 3.78125,-0.546875 v 0.65625 L 5.25,0 v -0.3125 c -0.6875,0 -0.78125,-0.0625 -0.78125,-0.5625 V -6.921875 L 3.046875,-6.8125 V -6.5 c 0.6875,0 0.765625,0.0625 0.765625,0.5625 v 2.15625 c -0.28125,-0.359375 -0.71875,-0.625 -1.25,-0.625 -1.171875,0 -2.21875,0.984375 -2.21875,2.265625 0,1.265625 0.96875,2.25 2.109375,2.25 0.640625,0 1.078125,-0.34375 1.328125,-0.65625 z m 0,-2.671875 v 2.046875 c 0,0.171875 0,0.1875 -0.109375,0.359375 C 3.375,-0.328125 2.9375,-0.109375 2.5,-0.109375 2.046875,-0.109375 1.6875,-0.375 1.453125,-0.75 1.203125,-1.15625 1.171875,-1.71875 1.171875,-2.140625 1.171875,-2.5 1.1875,-3.09375 1.46875,-3.546875 1.6875,-3.859375 2.0625,-4.1875 2.609375,-4.1875 c 0.34375,0 0.765625,0.15625 1.0625,0.59375 0.109375,0.171875 0.109375,0.1875 0.109375,0.375 z m 0,0"
   style="stroke:none"
   inkscape:connector-curvature="0" />
</symbol>
<symbol
   id="textext-d318ff56-7"
   overflow="visible"
   style="overflow:visible">
<path
   id="path1860"
   d="M 1.109375,-2.515625 C 1.171875,-4 2.015625,-4.25 2.359375,-4.25 c 1.015625,0 1.125,1.34375 1.125,1.734375 z m 0,0.21875 h 2.78125 c 0.21875,0 0.25,0 0.25,-0.21875 0,-0.984375 -0.546875,-1.953125 -1.78125,-1.953125 -1.15625,0 -2.078125,1.03125 -2.078125,2.28125 0,1.328125 1.046875,2.296875 2.1875,2.296875 C 3.6875,0.109375 4.140625,-1 4.140625,-1.1875 4.140625,-1.28125 4.0625,-1.3125 4,-1.3125 c -0.078125,0 -0.109375,0.0625 -0.125,0.140625 -0.34375,1.03125 -1.25,1.03125 -1.34375,1.03125 -0.5,0 -0.890625,-0.296875 -1.125,-0.671875 -0.296875,-0.46875 -0.296875,-1.125 -0.296875,-1.484375 z m 0,0"
   style="stroke:none"
   inkscape:connector-curvature="0" />
</symbol>
<symbol
   id="textext-d318ff56-8"
   overflow="visible"
   style="overflow:visible">
<path
   id="path1863"
   d="m 2.21875,-1.71875 c -0.875,0 -0.875,-1 -0.875,-1.21875 0,-0.265625 0.015625,-0.59375 0.15625,-0.84375 0.078125,-0.109375 0.3125,-0.390625 0.71875,-0.390625 0.859375,0 0.859375,0.984375 0.859375,1.21875 0,0.265625 0,0.59375 -0.15625,0.84375 C 2.84375,-2 2.609375,-1.71875 2.21875,-1.71875 Z M 1.0625,-1.328125 c 0,-0.03125 0,-0.265625 0.15625,-0.46875 0.390625,0.28125 0.8125,0.3125 1,0.3125 0.921875,0 1.609375,-0.6875 1.609375,-1.453125 0,-0.375 -0.15625,-0.734375 -0.40625,-0.96875 C 3.78125,-4.25 4.140625,-4.296875 4.3125,-4.296875 c 0.03125,0 0.078125,0 0.109375,0.015625 C 4.3125,-4.25 4.25,-4.140625 4.25,-4.015625 c 0,0.171875 0.140625,0.28125 0.296875,0.28125 0.09375,0 0.28125,-0.0625 0.28125,-0.296875 0,-0.171875 -0.109375,-0.484375 -0.5,-0.484375 -0.203125,0 -0.640625,0.0625 -1.0625,0.46875 C 2.84375,-4.375 2.4375,-4.40625 2.21875,-4.40625 c -0.9375,0 -1.625,0.6875 -1.625,1.453125 0,0.4375 0.21875,0.8125 0.46875,1.03125 -0.125,0.140625 -0.3125,0.46875 -0.3125,0.828125 0,0.3125 0.140625,0.6875 0.453125,0.890625 -0.609375,0.15625 -0.921875,0.59375 -0.921875,0.984375 0,0.71875 0.984375,1.265625 2.203125,1.265625 1.171875,0 2.203125,-0.5 2.203125,-1.28125 0,-0.34375 -0.125,-0.859375 -0.640625,-1.140625 -0.53125,-0.265625 -1.109375,-0.265625 -1.71875,-0.265625 -0.25,0 -0.671875,0 -0.75,-0.015625 C 1.265625,-0.703125 1.0625,-1 1.0625,-1.328125 Z M 2.5,1.828125 c -1.015625,0 -1.703125,-0.515625 -1.703125,-1.046875 0,-0.453125 0.375,-0.828125 0.8125,-0.84375 h 0.59375 c 0.859375,0 1.96875,0 1.96875,0.84375 0,0.546875 -0.703125,1.046875 -1.671875,1.046875 z m 0,0"
   style="stroke:none"
   inkscape:connector-curvature="0" />
</symbol>
<symbol
   id="textext-d318ff56-9"
   overflow="visible"
   style="overflow:visible">
<path
   id="path1866"
   d="m 1.90625,-0.53125 c 0,-0.28125 -0.234375,-0.53125 -0.515625,-0.53125 -0.296875,0 -0.53125,0.25 -0.53125,0.53125 C 0.859375,-0.234375 1.09375,0 1.390625,0 1.671875,0 1.90625,-0.234375 1.90625,-0.53125 Z m 0,0"
   style="stroke:none"
   inkscape:connector-curvature="0" />
</symbol>
<symbol
   id="textext-d318ff56-10"
   overflow="visible"
   style="overflow:visible">
<path
   id="path1869"
   d="m 2.875,-2.5 c 0,-0.765625 -0.109375,-1.96875 -0.65625,-3.109375 -0.59375,-1.21875 -1.453125,-1.875 -1.546875,-1.875 -0.0625,0 -0.109375,0.046875 -0.109375,0.109375 0,0.03125 0,0.046875 0.1875,0.234375 0.984375,0.984375 1.546875,2.5625 1.546875,4.640625 0,1.71875 -0.359375,3.46875 -1.59375,4.71875 C 0.5625,2.34375 0.5625,2.359375 0.5625,2.390625 0.5625,2.453125 0.609375,2.5 0.671875,2.5 0.765625,2.5 1.671875,1.8125 2.25,0.546875 2.765625,-0.546875 2.875,-1.65625 2.875,-2.5 Z m 0,0"
   style="stroke:none"
   inkscape:connector-curvature="0" />
</symbol>
</g>
</defs>
<g
   id="textext-d318ff56-11">
<g
   id="g1878"
   style="fill:#000000;fill-opacity:1">
  <use
   id="use1876"
   y="134.765"
   x="223.43201"
   xlink:href="#textext-d318ff56-1"
   width="100%"
   height="100%" />
</g>
<g
   id="g1882"
   style="fill:#000000;fill-opacity:1">
  <use
   id="use1880"
   y="136.259"
   x="228.10899"
   xlink:href="#textext-d318ff56-3"
   width="100%"
   height="100%" />
</g>
<g
   id="g1896"
   style="fill:#000000;fill-opacity:1">
  <use
   id="use1884"
   y="134.765"
   x="237.10699"
   xlink:href="#textext-d318ff56-5"
   width="100%"
   height="100%" />
  <use
   id="use1886"
   y="134.765"
   x="240.98146"
   xlink:href="#textext-d318ff56-6"
   width="100%"
   height="100%" />
  <use
   id="use1888"
   y="134.765"
   x="246.51668"
   xlink:href="#textext-d318ff56-7"
   width="100%"
   height="100%" />
  <use
   id="use1890"
   y="134.765"
   x="250.94406"
   xlink:href="#textext-d318ff56-8"
   width="100%"
   height="100%" />
  <use
   id="use1892"
   y="134.765"
   x="255.92535"
   xlink:href="#textext-d318ff56-9"
   width="100%"
   height="100%" />
  <use
   id="use1894"
   y="134.765"
   x="258.69296"
   xlink:href="#textext-d318ff56-10"
   width="100%"
   height="100%" />
</g>
</g>
</g></g></svg>