<?xml version="1.0" encoding="UTF-8" standalone="no"?>
<!-- Created with Inkscape (http://www.inkscape.org/) -->

<svg
   version="1.1"
   id="svg1877"
   xml:space="preserve"
   width="445.38187"
   height="311.26285"
   viewBox="0 0 445.38187 311.26285"
   sodipodi:docname="tdx_vert_pwia_pr_PLB.svg"
   inkscape:version="1.1.2 (1:1.1+202202050950+0a00cf5339)"
   xmlns:inkscape="http://www.inkscape.org/namespaces/inkscape"
   xmlns:sodipodi="http://sodipodi.sourceforge.net/DTD/sodipodi-0.dtd"
   xmlns="http://www.w3.org/2000/svg"
   xmlns:svg="http://www.w3.org/2000/svg"><defs
     id="defs1881" /><sodipodi:namedview
     id="namedview1879"
     pagecolor="#ffffff"
     bordercolor="#666666"
     borderopacity="1.0"
     inkscape:pageshadow="2"
     inkscape:pageopacity="0.0"
     inkscape:pagecheckerboard="0"
     showgrid="false"
     inkscape:zoom="1.3195117"
     inkscape:cx="316.40491"
     inkscape:cy="139.44552"
     inkscape:window-width="1680"
     inkscape:window-height="986"
     inkscape:window-x="0"
     inkscape:window-y="0"
     inkscape:window-maximized="1"
     inkscape:current-layer="g1885"
     fit-margin-top="0"
     fit-margin-left="0"
     fit-margin-right="0"
     fit-margin-bottom="0" /><g
     id="g1883"
     inkscape:groupmode="layer"
     inkscape:label="tdx_vert_pwia_pr_PLB"
     transform="matrix(1.3333333,0,0,1.3333333,-18.734778,-7.6932109)"><g
       id="g1885"><g
         id="g1887"
         transform="scale(1,-1)"><path
           d="m 61.25,-199.5 h 3.148 m 273.051,0 h -3.148"
           style="fill:none;stroke:#000000;stroke-width:0.25;stroke-linecap:butt;stroke-linejoin:miter;stroke-miterlimit:3.8;stroke-dasharray:none;stroke-opacity:1"
           id="path1889" /></g><text
         transform="translate(47.499999,203.665)"
         style="font-variant:normal;font-weight:normal;font-size:12.5px;font-family:Times;-inkscape-font-specification:Times-Roman;writing-mode:lr-tb;fill:#000000;fill-opacity:1;fill-rule:nonzero;stroke:none"
         id="text1893"><tspan
           x="0"
           y="0"
           id="tspan1891">0</tspan></text><g
         id="g1895"
         transform="scale(1,-1)"><path
           d="m 61.25,-176.148 h 3.148 m 273.051,0 h -3.148"
           style="fill:none;stroke:#000000;stroke-width:0.25;stroke-linecap:butt;stroke-linejoin:miter;stroke-miterlimit:3.8;stroke-dasharray:none;stroke-opacity:1"
           id="path1897" /></g><text
         transform="translate(38.124999,180.315)"
         style="font-variant:normal;font-weight:normal;font-size:12.5px;font-family:Times;-inkscape-font-specification:Times-Roman;writing-mode:lr-tb;fill:#000000;fill-opacity:1;fill-rule:nonzero;stroke:none"
         id="text1901"><tspan
           x="0 6.25 9.375"
           y="0"
           sodipodi:role="line"
           id="tspan1899">0.2</tspan></text><g
         id="g1903"
         transform="scale(1,-1)"><path
           d="m 61.25,-152.75 h 3.148 m 273.051,0 h -3.148"
           style="fill:none;stroke:#000000;stroke-width:0.25;stroke-linecap:butt;stroke-linejoin:miter;stroke-miterlimit:3.8;stroke-dasharray:none;stroke-opacity:1"
           id="path1905" /></g><text
         transform="translate(38.124999,156.915)"
         style="font-variant:normal;font-weight:normal;font-size:12.5px;font-family:Times;-inkscape-font-specification:Times-Roman;writing-mode:lr-tb;fill:#000000;fill-opacity:1;fill-rule:nonzero;stroke:none"
         id="text1909"><tspan
           x="0 6.25 9.375"
           y="0"
           sodipodi:role="line"
           id="tspan1907">0.4</tspan></text><g
         id="g1911"
         transform="scale(1,-1)"><path
           d="m 61.25,-129.398 h 3.148 m 273.051,0 h -3.148"
           style="fill:none;stroke:#000000;stroke-width:0.25;stroke-linecap:butt;stroke-linejoin:miter;stroke-miterlimit:3.8;stroke-dasharray:none;stroke-opacity:1"
           id="path1913" /></g><text
         transform="translate(38.124999,133.565)"
         style="font-variant:normal;font-weight:normal;font-size:12.5px;font-family:Times;-inkscape-font-specification:Times-Roman;writing-mode:lr-tb;fill:#000000;fill-opacity:1;fill-rule:nonzero;stroke:none"
         id="text1917"><tspan
           x="0 6.25 9.375"
           y="0"
           sodipodi:role="line"
           id="tspan1915">0.6</tspan></text><g
         id="g1919"
         transform="scale(1,-1)"><path
           d="m 61.25,-106 h 3.148 m 273.051,0 h -3.148"
           style="fill:none;stroke:#000000;stroke-width:0.25;stroke-linecap:butt;stroke-linejoin:miter;stroke-miterlimit:3.8;stroke-dasharray:none;stroke-opacity:1"
           id="path1921" /></g><text
         transform="translate(38.124999,110.165)"
         style="font-variant:normal;font-weight:normal;font-size:12.5px;font-family:Times;-inkscape-font-specification:Times-Roman;writing-mode:lr-tb;fill:#000000;fill-opacity:1;fill-rule:nonzero;stroke:none"
         id="text1925"><tspan
           x="0 6.25 9.375"
           y="0"
           sodipodi:role="line"
           id="tspan1923">0.8</tspan></text><g
         id="g1927"
         transform="scale(1,-1)"><path
           d="m 61.25,-82.648 h 3.148 m 273.051,0 h -3.148"
           style="fill:none;stroke:#000000;stroke-width:0.25;stroke-linecap:butt;stroke-linejoin:miter;stroke-miterlimit:3.8;stroke-dasharray:none;stroke-opacity:1"
           id="path1929" /></g><text
         transform="translate(47.499999,86.815004)"
         style="font-variant:normal;font-weight:normal;font-size:12.5px;font-family:Times;-inkscape-font-specification:Times-Roman;writing-mode:lr-tb;fill:#000000;fill-opacity:1;fill-rule:nonzero;stroke:none"
         id="text1933"><tspan
           x="0"
           y="0"
           id="tspan1931">1</tspan></text><g
         id="g1935"
         transform="scale(1,-1)"><path
           d="m 61.25,-59.301 h 3.148 m 273.051,0 h -3.148"
           style="fill:none;stroke:#000000;stroke-width:0.25;stroke-linecap:butt;stroke-linejoin:miter;stroke-miterlimit:3.8;stroke-dasharray:none;stroke-opacity:1"
           id="path1937" /></g><text
         transform="translate(38.124999,63.465005)"
         style="font-variant:normal;font-weight:normal;font-size:12.5px;font-family:Times;-inkscape-font-specification:Times-Roman;writing-mode:lr-tb;fill:#000000;fill-opacity:1;fill-rule:nonzero;stroke:none"
         id="text1941"><tspan
           x="0 6.25 9.375"
           y="0"
           sodipodi:role="line"
           id="tspan1939">1.2</tspan></text><g
         id="g1943"
         transform="scale(1,-1)"><path
           d="m 61.25,-35.898 h 3.148 m 273.051,0 h -3.148"
           style="fill:none;stroke:#000000;stroke-width:0.25;stroke-linecap:butt;stroke-linejoin:miter;stroke-miterlimit:3.8;stroke-dasharray:none;stroke-opacity:1"
           id="path1945" /></g><text
         transform="translate(38.124999,40.065005)"
         style="font-variant:normal;font-weight:normal;font-size:12.5px;font-family:Times;-inkscape-font-specification:Times-Roman;writing-mode:lr-tb;fill:#000000;fill-opacity:1;fill-rule:nonzero;stroke:none"
         id="text1949"><tspan
           x="0 6.25 9.375"
           y="0"
           sodipodi:role="line"
           id="tspan1947">1.4</tspan></text><g
         id="g1951"
         transform="scale(1,-1)"><path
           d="m 61.25,-12.551 h 3.148 m 273.051,0 h -3.148"
           style="fill:none;stroke:#000000;stroke-width:0.25;stroke-linecap:butt;stroke-linejoin:miter;stroke-miterlimit:3.8;stroke-dasharray:none;stroke-opacity:1"
           id="path1953" /></g><text
         transform="translate(38.124999,16.715006)"
         style="font-variant:normal;font-weight:normal;font-size:12.5px;font-family:Times;-inkscape-font-specification:Times-Roman;writing-mode:lr-tb;fill:#000000;fill-opacity:1;fill-rule:nonzero;stroke:none"
         id="text1957"><tspan
           x="0 6.25 9.375"
           y="0"
           sodipodi:role="line"
           id="tspan1955">1.6</tspan></text><g
         id="g1959"
         transform="scale(1,-1)"><path
           d="m 61.25,-199.5 v 3.148 m 0,183.801 v -3.148"
           style="fill:none;stroke:#000000;stroke-width:0.25;stroke-linecap:butt;stroke-linejoin:miter;stroke-miterlimit:3.8;stroke-dasharray:none;stroke-opacity:1"
           id="path1961" /></g><text
         transform="translate(49.793699,216.165)"
         style="font-variant:normal;font-weight:normal;font-size:12.5px;font-family:Times;-inkscape-font-specification:Times-Roman;writing-mode:lr-tb;fill:#000000;fill-opacity:1;fill-rule:nonzero;stroke:none"
         id="text1965"><tspan
           x="0 4.1624999 10.4125 16.6625"
           y="0"
           sodipodi:role="line"
           id="tspan1963">-300</tspan></text><g
         id="g1967"
         transform="scale(1,-1)"><path
           d="m 107.301,-199.5 v 3.148 m 0,183.801 v -3.148"
           style="fill:none;stroke:#000000;stroke-width:0.25;stroke-linecap:butt;stroke-linejoin:miter;stroke-miterlimit:3.8;stroke-dasharray:none;stroke-opacity:1"
           id="path1969" /></g><text
         transform="translate(95.843698,216.165)"
         style="font-variant:normal;font-weight:normal;font-size:12.5px;font-family:Times;-inkscape-font-specification:Times-Roman;writing-mode:lr-tb;fill:#000000;fill-opacity:1;fill-rule:nonzero;stroke:none"
         id="text1973"><tspan
           x="0 4.1624999 10.4125 16.6625"
           y="0"
           sodipodi:role="line"
           id="tspan1971">-200</tspan></text><g
         id="g1975"
         transform="scale(1,-1)"><path
           d="m 153.301,-199.5 v 3.148 m 0,183.801 v -3.148"
           style="fill:none;stroke:#000000;stroke-width:0.25;stroke-linecap:butt;stroke-linejoin:miter;stroke-miterlimit:3.8;stroke-dasharray:none;stroke-opacity:1"
           id="path1977" /></g><text
         transform="translate(141.8437,216.165)"
         style="font-variant:normal;font-weight:normal;font-size:12.5px;font-family:Times;-inkscape-font-specification:Times-Roman;writing-mode:lr-tb;fill:#000000;fill-opacity:1;fill-rule:nonzero;stroke:none"
         id="text1981"><tspan
           x="0 4.1624999 10.4125 16.6625"
           y="0"
           sodipodi:role="line"
           id="tspan1979">-100</tspan></text><g
         id="g1983"
         transform="scale(1,-1)"><path
           d="m 199.352,-199.5 v 3.148 m 0,183.801 v -3.148"
           style="fill:none;stroke:#000000;stroke-width:0.25;stroke-linecap:butt;stroke-linejoin:miter;stroke-miterlimit:3.8;stroke-dasharray:none;stroke-opacity:1"
           id="path1985" /></g><text
         transform="translate(197.78749,216.165)"
         style="font-variant:normal;font-weight:normal;font-size:12.5px;font-family:Times;-inkscape-font-specification:Times-Roman;writing-mode:lr-tb;fill:#000000;fill-opacity:1;fill-rule:nonzero;stroke:none"
         id="text1989"><tspan
           x="0"
           y="0"
           id="tspan1987">0</tspan></text><g
         id="g1991"
         transform="scale(1,-1)"><path
           d="m 245.398,-199.5 v 3.148 m 0,183.801 v -3.148"
           style="fill:none;stroke:#000000;stroke-width:0.25;stroke-linecap:butt;stroke-linejoin:miter;stroke-miterlimit:3.8;stroke-dasharray:none;stroke-opacity:1"
           id="path1993" /></g><text
         transform="translate(237.58749,216.165)"
         style="font-variant:normal;font-weight:normal;font-size:12.5px;font-family:Times;-inkscape-font-specification:Times-Roman;writing-mode:lr-tb;fill:#000000;fill-opacity:1;fill-rule:nonzero;stroke:none"
         id="text1997"><tspan
           x="0 6.25 12.5"
           y="0"
           sodipodi:role="line"
           id="tspan1995">100</tspan></text><g
         id="g1999"
         transform="scale(1,-1)"><path
           d="m 291.398,-199.5 v 3.148 m 0,183.801 v -3.148"
           style="fill:none;stroke:#000000;stroke-width:0.25;stroke-linecap:butt;stroke-linejoin:miter;stroke-miterlimit:3.8;stroke-dasharray:none;stroke-opacity:1"
           id="path2001" /></g><text
         transform="translate(283.58749,216.165)"
         style="font-variant:normal;font-weight:normal;font-size:12.5px;font-family:Times;-inkscape-font-specification:Times-Roman;writing-mode:lr-tb;fill:#000000;fill-opacity:1;fill-rule:nonzero;stroke:none"
         id="text2005"><tspan
           x="0 6.25 12.5"
           y="0"
           sodipodi:role="line"
           id="tspan2003">200</tspan></text><g
         id="g2007"
         transform="scale(1,-1)"><path
           d="m 337.449,-199.5 v 3.148 m 0,183.801 v -3.148"
           style="fill:none;stroke:#000000;stroke-width:0.25;stroke-linecap:butt;stroke-linejoin:miter;stroke-miterlimit:3.8;stroke-dasharray:none;stroke-opacity:1"
           id="path2009" /></g><text
         transform="translate(329.63749,216.165)"
         style="font-variant:normal;font-weight:normal;font-size:12.5px;font-family:Times;-inkscape-font-specification:Times-Roman;writing-mode:lr-tb;fill:#000000;fill-opacity:1;fill-rule:nonzero;stroke:none"
         id="text2013"><tspan
           x="0 6.25 12.5"
           y="0"
           sodipodi:role="line"
           id="tspan2011">300</tspan></text><g
         id="g2015"
         transform="scale(1,-1)"><path
           d="M 61.25,-12.551 H 337.449 V -199.5 H 61.25 Z"
           style="fill:none;stroke:#000000;stroke-width:0.5;stroke-linecap:butt;stroke-linejoin:miter;stroke-miterlimit:3.8;stroke-dasharray:none;stroke-opacity:1"
           id="path2017" /></g><text
         style="font-style:italic;font-variant:normal;font-size:17.5209px;font-family:Times;-inkscape-font-specification:Times-Italic;writing-mode:lr-tb;fill:#000000;fill-opacity:1;fill-rule:nonzero;stroke:none;stroke-width:1.40168"
         id="text2091"
         x="145.28346"
         y="233.96075"><tspan
           x="145.28346"
           y="233.96075"
           id="tspan2089"
           style="stroke-width:1.40168">p</tspan></text><text
         style="font-variant:normal;font-weight:normal;font-size:14.0168px;font-family:Times;-inkscape-font-specification:Times-Roman;writing-mode:lr-tb;fill:#000000;fill-opacity:1;fill-rule:nonzero;stroke:none;stroke-width:1.40168"
         id="text2095"
         x="154.04396"
         y="239.21706"><tspan
           x="154.04396"
           y="239.21706"
           id="tspan2093"
           style="stroke-width:1.40168">R</tspan></text><text
         style="font-variant:normal;font-weight:normal;font-size:17.5209px;font-family:Times;-inkscape-font-specification:Times-Roman;writing-mode:lr-tb;fill:#000000;fill-opacity:1;fill-rule:nonzero;stroke:none;stroke-width:1.40168"
         id="text2101"
         x="167.77325"
         y="233.96075"><tspan
           x="167.77325"
           y="233.96075"
           sodipodi:role="line"
           id="tspan2099"
           style="stroke-width:1.40168">(MeV/c)</tspan></text><text
         xml:space="preserve"
         style="font-style:normal;font-variant:normal;font-weight:normal;font-stretch:normal;font-size:12.6398px;line-height:1.25;font-family:Times;-inkscape-font-specification:'Times, Normal';font-variant-ligatures:normal;font-variant-caps:normal;font-variant-numeric:normal;font-variant-east-asian:normal;fill:#000000;fill-opacity:1;stroke:none;stroke-width:0.315995"
         x="255.60196"
         y="37.912399"
         id="text17761"><tspan
           sodipodi:role="line"
           id="tspan22081"
           x="255.60196"
           y="37.912399"
           style="stroke-width:0.315995"><tspan
   style="font-style:italic;stroke-width:0.315995"
   id="tspan23453">m</tspan><tspan
   style="font-style:italic;font-size:8.21587px;baseline-shift:sub;stroke-width:0.315995"
   id="tspan22719">y</tspan>=2</tspan></text><text
         xml:space="preserve"
         style="font-style:normal;font-variant:normal;font-weight:normal;font-stretch:normal;font-size:12.6644px;line-height:1.25;font-family:Times;-inkscape-font-specification:'Times, Normal';font-variant-ligatures:normal;font-variant-caps:normal;font-variant-numeric:normal;font-variant-east-asian:normal;fill:#000000;fill-opacity:1;stroke:none;stroke-width:0.316608"
         x="255.71234"
         y="25.280951"
         id="text17761-0"><tspan
           sodipodi:role="line"
           id="tspan22081-4"
           x="255.71234"
           y="25.280951"
           style="stroke-width:0.316608"><tspan
   style="font-style:italic;stroke-width:0.316608"
   id="tspan23453-6">m</tspan><tspan
   style="font-style:italic;font-size:8.23181px;baseline-shift:sub;stroke-width:0.316608"
   id="tspan22719-4">y</tspan>=0</tspan></text><text
         xml:space="preserve"
         style="font-style:normal;font-variant:normal;font-weight:normal;font-stretch:normal;font-size:12.6398px;line-height:1.25;font-family:Times;-inkscape-font-specification:'Times, Normal';font-variant-ligatures:normal;font-variant-caps:normal;font-variant-numeric:normal;font-variant-east-asian:normal;fill:#000000;fill-opacity:1;stroke:none;stroke-width:0.315995"
         x="251.38046"
         y="50.53569"
         id="text17761-3"><tspan
           sodipodi:role="line"
           id="tspan22081-7"
           x="251.38046"
           y="50.53569"
           style="stroke-width:0.315995"><tspan
   style="font-style:italic;stroke-width:0.315995"
   id="tspan23453-5">m</tspan><tspan
   style="font-style:italic;font-size:8.21587px;baseline-shift:sub;stroke-width:0.315995"
   id="tspan22719-7">y</tspan>=-2</tspan></text><g
         id="g2103"
         transform="scale(1,-1)"><path
           d="m 289.301,-21.949 h 33.148 M 61.25,-195.801 l 1.102,0.153 2.546,0.148 2.602,-0.199 2.602,-0.449 2.597,-0.653 5.199,-1.597 2.602,-0.653 2.602,-0.398 h 2.597 l 2.602,0.449 2.648,0.898 2.602,1.204 2.597,1.449 2.653,1.5 2.597,1.347 2.653,1 2.597,0.5 2.653,-0.148 2.648,-0.75 2.602,-1.25 2.648,-1.648 2.653,-1.75 2.648,-1.551 2.648,-1 2.602,-0.25 2.648,0.801 2.653,1.949 2.648,3.148 2.653,4.199 2.648,5.051 2.648,5.551 2.653,5.5 2.648,5.102 2.699,4.25 2.653,2.898 2.648,1.398 2.653,-0.25 2.648,-1.796 2.699,-3.25 2.653,-4.301 2.648,-5 2.648,-5.153 2.704,-5 2.648,-4.449 2.648,-3.648 2.653,-2.75 2.699,-1.903 2.648,-1.097 2.653,-0.551 2.699,-0.199 2.648,-0.051 h 5.352 l 2.648,0.051 2.653,0.301 2.699,0.699 2.648,1.347 2.653,2.204 2.699,3.148 2.648,4.051 2.653,4.847 2.699,5.403 2.648,5.5 2.653,5.199 2.648,4.301 2.699,3.051 2.653,1.449 2.648,-0.199 2.653,-1.954 2.648,-3.546 2.648,-4.75 2.653,-5.551 2.699,-5.903 2.648,-5.699 2.653,-5.097 2.648,-4.153 2.653,-2.949 2.597,-1.699 2.653,-0.551 2.648,0.449 2.648,1.153 2.653,1.5 2.648,1.597 2.602,1.403 2.648,1 2.653,0.449 2.597,-0.153 2.653,-0.648 2.597,-1.051 2.653,-1.25 2.597,-1.301 2.653,-1.25 2.597,-0.949 2.602,-0.648 2.597,-0.301 2.653,0.102 2.597,0.296 2.602,0.551 5.199,1.199 2.602,0.454 2.597,0.296 2.551,0.051 2.602,-0.148 0.648,-0.102"
           style="fill:none;stroke:#ff0000;stroke-width:1.31811;stroke-linecap:butt;stroke-linejoin:miter;stroke-miterlimit:3.8;stroke-dasharray:none;stroke-opacity:1"
           id="path2105" /></g><text
         transform="translate(258.77749,38.615005)"
         style="font-variant:normal;font-weight:normal;font-size:12.5px;font-family:Times;-inkscape-font-specification:Times-Roman;writing-mode:lr-tb;fill:#000000;fill-opacity:1;fill-rule:nonzero;stroke:none"
         id="text2109"><tspan
           x="0"
           y="0"
           sodipodi:role="line"
           id="tspan2107" /></text><g
         id="g2111"
         transform="scale(1,-1)"><path
           d="m 289.301,-34.449 h 33.148 M 61.25,-193.898 l 1.102,0.296 2.546,0.25 2.602,-0.25 2.602,-0.648 2.597,-1 2.602,-1.199 2.597,-1.25 2.602,-1.051 2.602,-0.602 2.597,-0.097 2.602,0.648 2.648,1.25 2.602,1.801 2.597,2.199 2.653,2.301 2.597,2.102 2.653,1.597 2.597,0.801 2.653,-0.051 2.648,-1.051 2.602,-1.847 2.648,-2.403 2.653,-2.648 2.648,-2.398 2.648,-1.704 2.602,-0.546 2.648,1 2.653,2.699 2.648,4.449 2.653,6.148 2.648,7.403 2.648,8.148 2.653,8.25 2.648,7.699 2.699,6.454 2.653,4.597 2.648,2.352 2.653,-0.102 2.648,-2.449 2.699,-4.602 2.653,-6.199 2.648,-7.25 2.648,-7.648 2.704,-7.449 2.648,-6.653 2.648,-5.551 2.653,-4.25 2.699,-2.949 2.648,-1.847 2.653,-1 2.699,-0.454 2.648,-0.25 2.653,-0.148 2.699,-0.102 2.648,-0.046 2.653,0.25 2.699,0.949 2.648,1.847 2.653,3.102 2.699,4.551 2.648,5.949 2.653,7.148 2.699,7.954 2.648,8.199 2.653,7.801 2.648,6.5 2.699,4.648 2.653,2.449 2.648,-0.148 2.653,-2.699 2.648,-5.051 2.648,-6.903 2.653,-8.148 2.699,-8.648 2.648,-8.403 2.653,-7.597 2.648,-6.153 2.653,-4.449 2.597,-2.602 2.653,-0.898 2.648,0.602 2.648,1.597 2.653,2.25 2.648,2.403 2.602,2.046 2.648,1.5 2.653,0.653 2.597,-0.102 2.653,-0.949 2.597,-1.5 2.653,-1.852 2.597,-1.949 2.653,-1.801 2.597,-1.449 2.602,-1 2.597,-0.398 2.653,0.051 2.597,0.5 2.602,0.75 5.199,1.796 2.602,0.653 2.597,0.449 2.551,0.102 2.602,-0.204 0.648,-0.148"
           style="fill:none;stroke:#008000;stroke-width:1.03465;stroke-linecap:butt;stroke-linejoin:miter;stroke-miterlimit:3.8;stroke-dasharray:1.03465, 1.03465;stroke-dashoffset:0;stroke-opacity:1"
           id="path2113" /></g><g
         id="g2119"
         transform="scale(1,-1)"><path
           d="m 289.301,-46.949 h 33.148 m -261.199,-147 1.102,0.25 2.546,0.199 2.602,-0.25 2.602,-0.699 2.597,-1.051 5.199,-2.398 2.602,-0.954 2.602,-0.597 2.597,0.051 2.602,0.648 2.648,1.352 2.602,1.847 2.597,2.199 2.653,2.25 2.597,2 2.653,1.454 2.597,0.699 2.653,-0.199 2.648,-1.153 2.602,-1.898 2.648,-2.449 2.653,-2.602 2.648,-2.301 2.648,-1.551 2.602,-0.347 2.648,1.199 2.653,2.949 2.648,4.699 2.653,6.352 2.648,7.551 5.301,16.5 2.648,7.648 2.699,6.25 2.653,4.403 2.648,2.046 2.653,-0.347 2.648,-2.801 2.699,-4.852 2.653,-6.5 2.648,-7.449 2.648,-7.801 2.704,-7.5 2.648,-6.699 2.648,-5.551 2.653,-4.148 2.699,-2.852 2.648,-1.699 2.653,-0.801 2.699,-0.25 h 2.648 l 2.653,0.153 2.699,0.148 2.648,0.301 2.653,0.602 2.699,1.25 2.648,2.148 2.653,3.301 2.699,4.699 2.648,6 2.653,7.051 2.699,7.75 2.648,7.898 2.653,7.352 2.648,6 2.699,4.097 2.653,1.852 2.648,-0.699 2.653,-3.153 2.648,-5.347 2.648,-7.102 2.653,-8.199 2.699,-8.551 2.648,-8.199 2.653,-7.199 2.648,-5.75 2.653,-4 2.597,-2.199 2.653,-0.5 2.648,0.898 2.648,1.852 2.653,2.347 2.648,2.403 2.602,2 2.648,1.347 2.653,0.5 2.597,-0.347 2.653,-1.051 2.597,-1.653 2.653,-1.949 2.597,-2 2.653,-1.801 2.597,-1.398 2.602,-0.898 2.597,-0.352 2.653,0.199 2.597,0.551 2.602,0.852 2.602,0.949 2.597,0.847 2.602,0.704 2.597,0.347 2.551,0.051 2.602,-0.25 0.648,-0.148"
           style="fill:none;stroke:#0000ff;stroke-width:1.03465;stroke-linecap:butt;stroke-linejoin:miter;stroke-miterlimit:3.8;stroke-dasharray:6.20787, 2.06929;stroke-dashoffset:0;stroke-opacity:1"
           id="path2121" /></g><text
         transform="translate(259.58319,63.615005)"
         style="font-variant:normal;font-weight:normal;font-size:12.5px;font-family:Times;-inkscape-font-specification:Times-Roman;writing-mode:lr-tb;fill:#000000;fill-opacity:1;fill-rule:nonzero;stroke:none"
         id="text2125"><tspan
           x="0 3.4625001 9.7124996 13.175 18.7125"
           y="0"
           sodipodi:role="line"
           id="tspan2123">total</tspan></text><g
         id="g2127"
         transform="scale(1,-1)"><path
           d="m 289.301,-59.449 h 33.148 M 61.25,-184.602 l 1.102,0.704 2.546,0.5 2.602,-0.653 2.602,-1.75 2.597,-2.699 5.199,-6.5 2.602,-2.699 2.602,-1.551 2.597,-0.051 2.602,1.75 2.648,3.449 2.602,4.954 2.597,5.796 2.653,6.051 2.597,5.449 2.653,4.051 2.597,2 2.653,-0.398 2.648,-2.903 2.602,-5.046 2.648,-6.5 2.653,-7 2.648,-6.25 2.648,-4.301 2.602,-1.102 2.648,2.949 2.653,7.602 2.648,12.352 2.653,16.648 2.648,20.051 2.648,21.898 2.653,22.102 2.648,20.449 2.699,16.898 2.653,11.903 2.648,5.801 2.653,-0.704 2.648,-7.097 2.699,-12.653 2.653,-17 2.648,-19.699 2.648,-20.648 2.704,-19.903 2.648,-17.796 2.648,-14.704 2.653,-11.199 2.699,-7.699 2.648,-4.648 2.653,-2.403 2.699,-0.898 2.648,-0.199 2.653,-0.051 2.699,0.051 2.648,0.296 2.653,1.204 2.699,2.847 2.648,5.352 2.653,8.648 2.699,12.301 2.648,16 2.653,19.102 2.699,21.097 2.648,21.653 2.653,20.25 2.648,16.796 2.699,11.852 2.653,5.75 2.648,-1.051 2.653,-7.801 2.648,-13.898 2.648,-18.801 2.653,-21.847 2.699,-23.102 2.648,-22.352 2.653,-19.898 2.648,-16.051 2.653,-11.398 2.597,-6.5 2.653,-1.903 2.648,1.903 2.648,4.597 2.653,6.153 2.648,6.347 2.602,5.454 2.648,3.796 2.653,1.653 2.597,-0.602 2.653,-2.648 2.597,-4.199 2.653,-5.051 2.597,-5.301 2.653,-4.801 2.597,-3.847 2.602,-2.5 2.597,-1.051 2.653,0.301 2.597,1.449 2.602,2.148 2.602,2.403 2.597,2.347 2.602,1.801 2.597,1.102 2.551,0.25 2.602,-0.653 0.648,-0.347"
           style="fill:none;stroke:#ff00ff;stroke-width:1.03465;stroke-linecap:butt;stroke-linejoin:miter;stroke-miterlimit:3.8;stroke-dasharray:4.13858, 2.06929, 1.03465, 2.06929;stroke-dashoffset:0;stroke-opacity:1"
           id="path2129" /></g><g
         id="g2131"
         transform="scale(1,-1)"><path
           d="M 61.25,-12.551 H 337.449 V -199.5 H 61.25 Z"
           style="fill:none;stroke:#000000;stroke-width:0.5;stroke-linecap:butt;stroke-linejoin:miter;stroke-miterlimit:3.8;stroke-dasharray:none;stroke-opacity:1"
           id="path2133" /></g></g></g><g
     inkscape:groupmode="layer"
     id="layer4"
     inkscape:label="Layer 1"
     style="display:inline"
     transform="translate(-18.734778,-7.6932193)"><text
       transform="rotate(-90)"
       style="font-style:normal;font-variant:normal;font-weight:normal;font-stretch:normal;font-size:21.7495px;font-family:Times;-inkscape-font-specification:'Times, Normal';font-variant-ligatures:normal;font-variant-caps:normal;font-variant-numeric:normal;font-variant-east-asian:normal;writing-mode:lr-tb;baseline-shift:baseline;display:inline;fill:#000000;fill-opacity:1;fill-rule:nonzero;stroke:none;stroke-width:1.81245"
       id="text5294-3"
       x="-305.8367"
       y="39.686741"><tspan
         sodipodi:role="line"
         id="tspan7928"
         x="-305.8367"
         y="39.686741"
         dx="0 0 0 0 0 0 0 0 0 0 0 0 0 0 0 0 0 0"
         style="stroke-width:1.81245"><tspan
           style="font-style:italic;font-size:22.6557px;stroke-width:1.81245"
           id="tspan25314">d</tspan><tspan
           style="font-size:18.1245px;baseline-shift:super;stroke-width:1.81245"
           id="tspan25580">3</tspan><tspan
           style="font-style:italic;font-size:22.6557px;stroke-width:1.81245"
           id="tspan25582">σ</tspan><tspan
           style="font-size:22.6557px;stroke-width:1.81245"
           id="tspan71464">/(</tspan><tspan
           style="font-style:italic;font-size:22.6557px;stroke-width:1.81245"
           id="tspan25584">dT</tspan><tspan
           style="font-size:14.1372px;baseline-shift:super;stroke-width:1.81245"
           id="tspan25588"
           dx="1.8124515">L</tspan><tspan
           style="font-size:14.1372px;baseline-shift:sub;stroke-width:1.81245"
           id="tspan25920"
           dx="-8.6997681">1</tspan><tspan
           style="font-style:italic;font-size:22.6557px;stroke-width:1.81245"
           id="tspan26030">d</tspan><tspan
           style="font-size:22.6557px;stroke-width:1.81245"
           id="tspan79374">Ω</tspan><tspan
           style="font-size:14.1372px;baseline-shift:super;stroke-width:1.81245"
           id="tspan26350"
           dx="1.8124515">L</tspan><tspan
           style="font-size:14.1372px;baseline-shift:sub;stroke-width:1.81245"
           id="tspan26748"
           dx="-8.6997681">1</tspan><tspan
           style="font-style:italic;font-size:22.6557px;stroke-width:1.81245"
           id="tspan26950">d</tspan><tspan
           style="font-size:22.6557px;stroke-width:1.81245"
           id="tspan79640">Ω</tspan><tspan
           style="font-size:14.1372px;letter-spacing:0px;baseline-shift:super;stroke-width:1.81245"
           id="tspan9310"
           dx="1.8124515">L</tspan><tspan
           style="font-size:14.1372px;letter-spacing:0px;baseline-shift:sub;stroke-width:1.81245"
           id="tspan9308"
           dx="-8.6997681">2</tspan><tspan
           style="font-size:22.6557px;stroke-width:1.81245"
           id="tspan80038">) [</tspan><tspan
           style="font-style:italic;font-size:22.6557px;stroke-width:1.81245"
           id="tspan9306">μ</tspan><tspan
           style="font-size:22.6557px;stroke-width:1.81245"
           id="tspan80040">b/(MeV sr</tspan><tspan
           style="font-size:14.1372px;baseline-shift:super;stroke-width:1.81245"
           id="tspan9106">2</tspan><tspan
           style="font-size:22.6557px;stroke-width:1.81245"
           id="tspan80042">)]</tspan></tspan></text></g></svg>
