<?xml version="1.0" encoding="UTF-8" standalone="no"?>
<svg
   xmlns:dc="http://purl.org/dc/elements/1.1/"
   xmlns:cc="http://creativecommons.org/ns#"
   xmlns:rdf="http://www.w3.org/1999/02/22-rdf-syntax-ns#"
   xmlns:svg="http://www.w3.org/2000/svg"
   xmlns="http://www.w3.org/2000/svg"
   viewBox="0 0 793.33331 1122.6667"
   height="1122.6667"
   width="793.33331"
   xml:space="preserve"
   id="svg2"
   version="1.1"><metadata
     id="metadata8"><rdf:RDF><cc:Work
         rdf:about=""><dc:format>image/svg+xml</dc:format><dc:type
           rdf:resource="http://purl.org/dc/dcmitype/StillImage" /></cc:Work></rdf:RDF></metadata><defs
     id="defs6" /><g
     transform="matrix(1.3333333,0,0,-1.3333333,0,1122.6667)"
     id="g10"><g
       transform="scale(0.1)"
       id="g12"><path
         id="path14"
         style="fill:#ffffff;fill-opacity:1;fill-rule:nonzero;stroke:none"
         d="M 0,0 H 7919.89 V 6120 H 0 Z" /><path
         id="path16"
         style="fill:none;stroke:#000000;stroke-width:27.54000092;stroke-linecap:butt;stroke-linejoin:miter;stroke-miterlimit:10;stroke-dasharray:none;stroke-opacity:1"
         d="m 917.387,3263.18 14.078,0.62 h 17.746 l 17.75,0.61 h 17.746 l 17.753,0.61 17.74,0.61 17.75,0.61 17.75,0.62 17.75,1.22 17.75,0.61 17.75,1.23 17.74,1.22 18.36,1.22 17.75,1.23 17.75,1.84 17.75,1.83 17.74,1.84 17.75,2.44 17.75,1.84 17.75,3.06 17.75,2.45 17.75,3.06 17.74,3.67 17.75,3.67 17.75,3.67 17.75,4.29 17.74,4.28 17.75,4.9 17.75,5.51 18.36,4.89 17.75,6.12 17.75,5.51 17.75,6.12 17.74,6.73 17.75,7.35 17.75,6.73 17.75,7.95 17.74,7.96 17.75,7.96 17.75,8.56 17.75,9.18 17.75,9.18 17.75,9.18 17.74,10.41 17.75,11.02 17.75,11.62 18.36,12.24 17.75,13.47 17.74,15.3 17.75,15.91 17.75,17.13 17.75,19.59 17.75,22.03 17.75,24.48 17.74,26.93 17.75,30.6 17.75,34.27 17.75,37.94 17.74,41.62 17.75,45.29 17.75,49.57 17.75,54.47 17.75,58.75 18.36,65.48 17.75,70.38 17.74,76.5 17.75,82.01 17.75,83.84 17.75,84.46 17.74,81.4 17.75,72.82 17.75,59.98 17.75,45.29 17.75,31.21 17.75,18.97 17.74,8.57 17.75,3.68 h 17.75 17.75 l 17.74,-3.68 18.36,-8.57 17.75,-18.97 17.75,-31.21 17.75,-45.29 17.75,-59.98 17.75,-72.82 17.74,-81.4 17.75,-84.46 17.75,-83.84 17.75,-82.01 17.74,-76.5 17.75,-70.38 17.75,-65.48 17.75,-58.75 17.75,-54.47 17.75,-49.57 17.74,-45.29 18.36,-41.62 17.75,-37.94 17.75,-34.27 17.75,-30.6 17.74,-26.93 17.75,-24.48 17.75,-22.03 17.75,-19.59 17.75,-17.13 17.75,-15.91 17.74,-15.3 17.75,-13.47 17.75,-12.24 17.75,-11.62 17.74,-11.02 17.75,-10.41 17.75,-9.18 18.36,-9.18 17.75,-9.18 17.75,-8.56 17.75,-7.96 17.74,-7.96 17.75,-7.95 17.75,-6.73 17.75,-7.35 17.74,-6.73 17.75,-6.12 17.75,-5.51 17.75,-6.12 17.75,-4.89 17.74,-5.51 17.75,-4.9 17.75,-4.28 17.75,-4.29 18.36,-3.67 17.75,-3.67 17.74,-3.67 17.75,-3.06 17.75,-2.45 17.75,-3.06 17.75,-1.84 17.75,-2.44 17.74,-1.84 17.75,-1.83 17.75,-1.84 17.75,-1.23 17.74,-1.22 17.75,-1.22 17.75,-1.23 17.75,-0.61 17.75,-1.22 18.36,-0.62 17.75,-0.61 17.74,-0.61 17.75,-0.61 h 17.75 l 17.75,-0.61 h 17.74 l 14.08,-0.62" /><path
         id="path18"
         style="fill:none;stroke:#ff0000;stroke-width:18.36000061;stroke-linecap:butt;stroke-linejoin:miter;stroke-miterlimit:10;stroke-dasharray:none;stroke-opacity:1"
         d="m 917.387,3264.41 h 14.078 l 17.746,0.61 17.75,0.61 17.746,0.61 17.753,0.62 17.74,0.61 17.75,1.22 17.75,0.61 17.75,1.23 17.75,1.22 17.75,1.23 17.74,1.83 18.36,1.23 17.75,1.83 17.75,2.45 17.75,1.84 17.74,2.45 17.75,2.44 17.75,3.06 17.75,3.06 17.75,3.67 17.75,3.68 17.74,4.28 17.75,4.29 17.75,4.28 17.75,4.9 17.74,5.5 17.75,5.51 17.75,6.12 18.36,6.12 17.75,6.73 17.75,7.35 17.75,7.34 17.74,7.95 17.75,8.57 17.75,8.57 17.75,9.18 17.74,9.18 17.75,10.41 17.75,10.4 17.75,11.63 17.75,11.63 17.75,12.85 17.74,13.46 17.75,14.69 17.75,15.3 18.36,17.13 17.75,18.37 17.74,19.58 17.75,22.03 17.75,23.26 17.75,26.32 17.75,28.76 17.75,31.21 17.74,34.88 17.75,39.17 17.75,42.84 17.75,47.13 17.74,52.02 17.75,55.69 17.75,61.2 17.75,65.48 17.75,69.77 18.36,75.28 17.75,80.78 17.74,86.29 17.75,90.58 17.75,92.41 17.75,93.64 17.74,89.35 17.75,81.39 17.75,68.55 17.75,53.24 17.75,37.34 17.75,22.64 17.74,12.24 17.75,4.89 17.75,1.23 17.75,-1.23 17.74,-4.89 18.36,-12.24 17.75,-22.64 17.75,-37.34 17.75,-53.24 17.75,-68.55 17.75,-81.39 17.74,-89.35 17.75,-93.64 17.75,-92.41 17.75,-90.58 17.74,-86.29 17.75,-80.78 17.75,-75.28 17.75,-69.77 17.75,-65.48 17.75,-61.2 17.74,-55.69 18.36,-52.02 17.75,-47.13 17.75,-42.84 17.75,-39.17 17.74,-34.88 17.75,-31.21 17.75,-28.76 17.75,-26.32 17.75,-23.26 17.75,-22.03 17.74,-19.58 17.75,-18.37 17.75,-17.13 17.75,-15.3 17.74,-14.69 17.75,-13.46 17.75,-12.85 18.36,-11.63 17.75,-11.63 17.75,-10.4 17.75,-10.41 17.74,-9.18 17.75,-9.18 17.75,-8.57 17.75,-8.57 17.74,-7.95 17.75,-7.34 17.75,-7.35 17.75,-6.73 17.75,-6.12 17.74,-6.12 17.75,-5.51 17.75,-5.5 17.75,-4.9 18.36,-4.28 17.75,-4.29 17.74,-4.28 17.75,-3.68 17.75,-3.67 17.75,-3.06 17.75,-3.06 17.75,-2.44 17.74,-2.45 17.75,-1.84 17.75,-2.45 17.75,-1.83 17.74,-1.23 17.75,-1.83 17.75,-1.23 17.75,-1.22 17.75,-1.23 18.36,-0.61 17.75,-1.22 17.74,-0.61 17.75,-0.62 17.75,-0.61 17.75,-0.61 17.74,-0.61 h 14.08" /><path
         id="path20"
         style="fill:none;stroke:#0000ff;stroke-width:18.36000061;stroke-linecap:butt;stroke-linejoin:miter;stroke-miterlimit:10;stroke-dasharray:none;stroke-opacity:1"
         d="m 917.387,3266.24 h 9.793 l 4.894,0.62 h 13.465 l 4.899,0.61 h 4.281 4.898 4.281 l 4.899,0.61 h 4.281 4.899 4.285 l 4.894,0.61 h 4.285 4.895 l 4.894,0.61 h 4.29 4.89 l 4.29,0.62 h 4.89 4.29 l 4.89,0.61 h 4.28 4.9 l 4.28,0.61 h 4.9 4.29 l 4.89,0.61 h 4.29 l 4.89,0.61 h 4.9 l 4.28,0.62 h 4.9 l 4.28,0.61 h 4.9 4.28 l 4.9,0.61 h 4.28 l 4.9,0.61 4.28,0.62 h 4.9 l 4.28,0.61 h 4.9 l 4.28,0.61 h 4.9 l 4.28,0.61 4.9,0.61 h 4.89 l 4.29,0.61 h 4.89 l 4.29,0.62 4.9,0.61 h 4.28 l 4.9,0.61 4.28,0.61 4.9,0.61 h 4.28 l 4.9,0.62 4.28,0.61 4.89,0.61 h 4.29 l 4.89,0.61 4.9,0.62 4.28,0.6 4.9,0.62 4.28,0.61 4.9,0.61 4.28,0.61 4.9,0.62 h 4.28 l 4.9,0.61 4.28,1.22 4.9,0.61 4.28,0.62 4.9,0.61 4.28,0.61 4.9,0.61 4.29,0.62 4.89,0.6 4.89,0.62 4.29,1.22 4.89,0.61 4.29,0.62 4.89,0.61 4.29,1.22 4.9,0.61 4.28,0.62 4.9,1.22 4.28,0.61 4.9,1.22 4.28,0.62 4.9,0.61 4.28,1.22 4.9,0.62 4.89,1.22 4.29,0.61 4.89,1.23 4.29,1.22 4.89,0.61 4.29,1.23 4.89,0.61 4.29,1.22 4.89,1.23 4.29,1.22 4.89,0.61 4.28,1.23 4.9,1.22 4.28,1.22 4.9,1.23 4.29,1.22 4.89,1.23 4.9,1.22 4.28,1.23 4.9,1.22 4.28,1.22 4.9,1.23 4.28,1.22 4.9,1.22 4.28,1.84 4.9,1.23 4.28,1.22 4.9,1.83 4.28,1.23 4.9,1.83 4.28,1.23 4.9,1.83 4.89,1.23 4.29,1.83 4.89,1.84 4.29,1.23 4.89,1.83 4.29,1.84 4.89,1.83 4.29,1.23 4.9,1.83 4.28,1.84 4.9,1.83 4.28,1.84 4.9,1.84 4.28,2.45 4.9,1.83 4.28,1.84 4.89,1.83 4.9,2.45 4.28,1.83 4.9,1.84 4.28,2.45 4.9,1.84 4.28,2.44 4.9,2.45 4.28,1.84 4.9,2.45 4.28,2.44 4.9,2.45 4.28,2.45 4.9,2.45 4.28,2.45 4.9,2.44 4.9,2.45 4.28,3.06 4.9,2.45 4.28,2.45 4.89,3.06 4.29,3.06 4.89,2.45 4.29,3.06 4.89,3.06 4.29,3.05 4.9,3.07 4.28,3.06 4.9,3.05 4.28,3.68 4.9,3.06 4.28,3.67 4.9,3.06 4.89,3.67 4.29,3.67 4.89,3.68 4.29,3.67 4.89,3.67 4.29,4.28 4.89,3.68 4.29,4.28 4.89,4.29 4.29,4.28 4.89,4.28 4.29,4.29 4.89,4.89 4.28,4.29 4.9,4.89 4.9,4.9 4.28,4.89 4.9,5.51 4.28,4.9 4.9,5.51 4.28,5.5 4.9,6.12 4.28,5.51 4.9,6.12 4.28,6.12 4.9,6.73 4.28,6.73 4.9,6.74 4.28,6.73 4.9,6.73 4.28,7.35 4.9,7.34 4.89,7.95 4.29,7.35 4.89,7.96 4.29,8.57 4.89,7.95 4.29,8.57 4.89,8.57 4.29,9.18 4.89,9.18 4.29,9.17 4.9,9.18 4.28,9.8 4.9,9.79 4.28,10.4 4.9,9.8 4.89,11.01 4.29,10.41 4.89,11.01 4.28,11.02 4.9,11.63 4.28,11.62 4.9,11.63 4.28,12.24 4.9,12.24 4.28,12.85 4.9,12.86 4.28,12.85 4.9,13.46 4.28,14.08 4.9,14.07 4.28,14.69 4.9,14.69 4.9,15.3 4.28,15.91 4.9,15.91 4.28,16.53 4.9,16.52 4.28,17.14 4.89,17.75 4.29,18.36 4.89,18.36 4.29,18.97 4.89,18.97 4.29,19.58 4.9,19.59 4.28,20.19 4.9,20.81 4.89,20.81 4.29,20.81 4.89,20.81 4.29,21.42 4.89,21.42 4.29,21.42 4.89,21.42 4.29,20.8 4.89,21.43 4.29,20.8 4.89,20.2 4.29,20.19 4.89,19.59 4.29,18.97 4.89,18.36 4.29,18.36 4.89,17.13 4.9,16.53 4.28,15.3 4.9,15.3 4.28,13.46 4.9,13.47 4.28,11.62 4.9,11.63 4.28,10.41 4.9,9.18 4.28,8.57 4.9,7.34 4.28,7.34 4.9,5.51 4.28,5.51 4.9,4.9 4.89,3.67 4.29,3.06 4.89,3.06 4.29,2.45 4.89,1.83 4.29,1.23 4.89,1.22 4.29,1.22 4.89,0.62 4.29,0.61 h 4.89 4.29 4.89 4.29 l 4.9,-0.61 4.28,-0.62 4.9,-1.22 4.89,-1.22 4.29,-1.23 4.89,-1.83 4.29,-2.45 4.89,-3.06 4.28,-3.06 4.9,-3.67 4.28,-4.9 4.9,-5.51 4.28,-5.51 4.9,-7.34 4.28,-7.34 4.9,-8.57 4.28,-9.18 4.9,-10.41 4.9,-11.63 4.28,-11.62 4.9,-13.47 4.28,-13.46 4.9,-15.3 4.28,-15.3 4.9,-16.53 4.28,-17.13 4.9,-18.36 4.28,-18.36 4.89,-18.97 4.29,-19.59 4.89,-20.19 4.29,-20.2 4.89,-20.8 4.29,-21.43 4.9,-20.8 4.89,-21.42 4.29,-21.42 4.89,-21.42 4.29,-21.42 4.89,-20.81 4.29,-20.81 4.89,-20.81 4.29,-20.81 4.89,-20.19 4.29,-19.59 4.89,-19.58 4.29,-18.97 4.89,-18.97 4.29,-18.36 4.89,-18.36 4.9,-17.75 4.28,-17.14 4.9,-16.52 4.28,-16.53 4.9,-15.91 4.28,-15.91 4.9,-15.3 4.28,-14.69 4.9,-14.69 4.28,-14.07 4.9,-14.08 4.28,-13.46 4.9,-12.85 4.28,-12.86 4.9,-12.85 4.28,-12.24 4.9,-12.24 4.89,-11.63 4.29,-11.62 4.89,-11.63 4.29,-11.02 4.89,-11.01 4.29,-10.41 4.89,-11.01 4.29,-9.8 4.89,-10.4 4.29,-9.79 4.89,-9.8 4.29,-9.18 4.89,-9.17 4.29,-9.18 4.89,-9.18 4.9,-8.57 4.29,-8.57 4.89,-7.95 4.29,-8.57 4.89,-7.96 4.29,-7.35 4.89,-7.95 4.29,-7.34 4.89,-7.35 4.28,-6.73 4.9,-6.73 4.28,-6.74 4.9,-6.73 4.28,-6.73 4.9,-6.12 4.28,-6.12 4.9,-5.51 4.9,-6.12 4.28,-5.5 4.9,-5.51 4.28,-4.9 4.9,-5.51 4.28,-4.89 4.9,-4.9 4.28,-4.89 4.9,-4.29 4.28,-4.89 4.9,-4.29 4.28,-4.28 4.89,-4.28 4.29,-4.29 4.89,-4.28 4.9,-3.68 4.28,-4.28 4.9,-3.67 4.29,-3.67 4.89,-3.68 4.29,-3.67 4.89,-3.67 4.29,-3.06 4.89,-3.67 4.29,-3.06 4.89,-3.68 4.29,-3.05 4.89,-3.06 4.29,-3.07 4.89,-3.05 4.29,-3.06 4.89,-3.06 4.9,-2.45 4.28,-3.06 4.9,-3.06 4.28,-2.45 4.9,-2.45 4.28,-3.06 4.9,-2.45 4.28,-2.44 4.9,-2.45 4.28,-2.45 4.9,-2.45 4.28,-2.45 4.9,-2.44 4.28,-2.45 4.9,-1.84 4.9,-2.45 4.28,-2.44 4.89,-1.84 4.29,-2.45 4.89,-1.84 4.29,-1.83 4.89,-2.45 4.29,-1.83 4.89,-1.84 4.29,-1.83 4.89,-2.45 4.29,-1.84 4.89,-1.84 4.29,-1.83 4.89,-1.84 4.29,-1.83 4.89,-1.23 4.9,-1.83 4.28,-1.84 4.9,-1.83 4.29,-1.23 4.89,-1.84 4.29,-1.83 4.89,-1.23 4.29,-1.83 4.89,-1.23 4.29,-1.83 4.89,-1.23 4.28,-1.83 4.9,-1.22 4.28,-1.23 4.9,-1.84 4.9,-1.22 4.28,-1.22 4.9,-1.23 4.28,-1.22 4.9,-1.22 4.28,-1.23 4.9,-1.22 4.28,-1.23 4.9,-1.22 4.28,-1.23 4.9,-1.22 4.28,-1.22 4.9,-1.23 4.28,-0.61 4.9,-1.22 4.28,-1.23 4.89,-1.22 4.9,-0.61 4.28,-1.23 4.9,-0.61 4.28,-1.22 4.9,-1.23 4.29,-0.61 4.89,-1.22 4.29,-0.62 4.89,-1.22 4.29,-0.61 4.89,-0.62 4.29,-1.22 4.89,-0.61 4.29,-1.22 4.89,-0.62 4.9,-0.61 4.28,-1.22 4.9,-0.61 4.28,-0.62 4.9,-0.61 4.28,-1.22 4.9,-0.62 4.28,-0.6 4.9,-0.62 4.28,-0.61 4.9,-0.61 4.28,-0.61 4.9,-0.62 4.28,-0.61 4.9,-1.22 4.28,-0.61 h 4.9 l 4.9,-0.62 4.28,-0.61 4.9,-0.61 4.28,-0.61 4.89,-0.62 4.29,-0.6 4.89,-0.62 4.29,-0.61 h 4.89 l 4.29,-0.61 4.89,-0.61 4.29,-0.62 h 4.89 l 4.29,-0.61 4.89,-0.61 4.9,-0.61 h 4.28 l 4.9,-0.61 4.28,-0.62 h 4.9 l 4.28,-0.61 h 4.9 l 4.29,-0.61 4.89,-0.61 h 4.29 l 4.89,-0.61 h 4.29 l 4.89,-0.61 h 4.29 l 4.89,-0.62 4.28,-0.61 h 4.9 l 4.9,-0.61 h 4.28 4.9 l 4.28,-0.61 h 4.9 l 4.28,-0.62 h 4.9 l 4.28,-0.61 h 4.9 l 4.28,-0.61 h 4.9 4.28 l 4.9,-0.61 h 4.28 4.9 l 4.89,-0.61 h 4.29 4.89 l 4.28,-0.62 h 4.9 4.28 l 4.9,-0.61 h 4.28 4.9 l 4.29,-0.61 h 4.89 4.29 4.89 l 4.29,-0.61 h 4.89 4.29 4.89 l 4.9,-0.61 h 4.28 4.9 4.28 l 4.9,-0.62 h 4.28 4.9 0.61" /><path
         id="path22"
         style="fill:none;stroke:#000000;stroke-width:9.18000031;stroke-linecap:butt;stroke-linejoin:miter;stroke-miterlimit:10;stroke-dasharray:none;stroke-opacity:1"
         d="M 918,3254.62 H 3683.63" /><path
         id="path24"
         style="fill:none;stroke:#000000;stroke-width:9.18000031;stroke-linecap:butt;stroke-linejoin:miter;stroke-miterlimit:10;stroke-dasharray:none;stroke-opacity:1"
         d="M 918,5202 H 3683.63" /><path
         id="path26"
         style="fill:none;stroke:#000000;stroke-width:9.18000031;stroke-linecap:butt;stroke-linejoin:miter;stroke-miterlimit:10;stroke-dasharray:none;stroke-opacity:1"
         d="m 918,3254.62 v 61.2" /><path
         id="path28"
         style="fill:none;stroke:#000000;stroke-width:9.18000031;stroke-linecap:butt;stroke-linejoin:miter;stroke-miterlimit:10;stroke-dasharray:none;stroke-opacity:1"
         d="m 918,5202 v -61.2" /><path
         id="path30"
         style="fill:none;stroke:#000000;stroke-width:9.18000031;stroke-linecap:butt;stroke-linejoin:miter;stroke-miterlimit:10;stroke-dasharray:none;stroke-opacity:1"
         d="m 1839.67,3254.62 v 61.2" /><path
         id="path32"
         style="fill:none;stroke:#000000;stroke-width:9.18000031;stroke-linecap:butt;stroke-linejoin:miter;stroke-miterlimit:10;stroke-dasharray:none;stroke-opacity:1"
         d="m 1839.67,5202 v -61.2" /><path
         id="path34"
         style="fill:none;stroke:#000000;stroke-width:9.18000031;stroke-linecap:butt;stroke-linejoin:miter;stroke-miterlimit:10;stroke-dasharray:none;stroke-opacity:1"
         d="m 2761.34,3254.62 v 61.2" /><path
         id="path36"
         style="fill:none;stroke:#000000;stroke-width:9.18000031;stroke-linecap:butt;stroke-linejoin:miter;stroke-miterlimit:10;stroke-dasharray:none;stroke-opacity:1"
         d="m 2761.34,5202 v -61.2" /><path
         id="path38"
         style="fill:none;stroke:#000000;stroke-width:9.18000031;stroke-linecap:butt;stroke-linejoin:miter;stroke-miterlimit:10;stroke-dasharray:none;stroke-opacity:1"
         d="m 3683.63,3254.62 v 61.2" /><path
         id="path40"
         style="fill:none;stroke:#000000;stroke-width:9.18000031;stroke-linecap:butt;stroke-linejoin:miter;stroke-miterlimit:10;stroke-dasharray:none;stroke-opacity:1"
         d="m 3683.63,5202 v -61.2" /><path
         id="path42"
         style="fill:none;stroke:#000000;stroke-width:9.18000031;stroke-linecap:butt;stroke-linejoin:miter;stroke-miterlimit:10;stroke-dasharray:none;stroke-opacity:1"
         d="m 1378.84,3254.62 v 122.4" /><path
         id="path44"
         style="fill:none;stroke:#000000;stroke-width:9.18000031;stroke-linecap:butt;stroke-linejoin:miter;stroke-miterlimit:10;stroke-dasharray:none;stroke-opacity:1"
         d="M 1378.84,5202 V 5079.6" /><path
         id="path46"
         style="fill:none;stroke:#000000;stroke-width:9.18000031;stroke-linecap:butt;stroke-linejoin:miter;stroke-miterlimit:10;stroke-dasharray:none;stroke-opacity:1"
         d="m 2300.51,3254.62 v 122.4" /><path
         id="path48"
         style="fill:none;stroke:#000000;stroke-width:9.18000031;stroke-linecap:butt;stroke-linejoin:miter;stroke-miterlimit:10;stroke-dasharray:none;stroke-opacity:1"
         d="M 2300.51,5202 V 5079.6" /><path
         id="path50"
         style="fill:none;stroke:#000000;stroke-width:9.18000031;stroke-linecap:butt;stroke-linejoin:miter;stroke-miterlimit:10;stroke-dasharray:none;stroke-opacity:1"
         d="m 3222.79,3254.62 v 122.4" /><path
         id="path52"
         style="fill:none;stroke:#000000;stroke-width:9.18000031;stroke-linecap:butt;stroke-linejoin:miter;stroke-miterlimit:10;stroke-dasharray:none;stroke-opacity:1"
         d="M 3222.79,5202 V 5079.6" /><g
         transform="scale(10)"
         id="g54"><text
           id="text60"
           style="font-variant:normal;font-weight:normal;font-size:17.13599968px;font-family:'Times New Roman';-inkscape-font-specification:Times-Roman;writing-mode:lr-tb;fill:#000000;fill-opacity:1;fill-rule:nonzero;stroke:none"
           transform="matrix(1,0,0,-1,122.4,526.565)"><tspan
             id="tspan56"
             y="0"
             x="0 5.7062879 14.274288 22.842287 103.61179 187.27197 195.83998 204.40797">-2000200</tspan><tspan
             id="tspan58"
             y="-24.480101"
             x="69.155899">p</tspan></text>
<text
           id="text64"
           style="font-variant:normal;font-weight:normal;font-size:12.11760044px;font-family:'Times New Roman';-inkscape-font-specification:Times-Roman;writing-mode:lr-tb;fill:#000000;fill-opacity:1;fill-rule:nonzero;stroke:none"
           transform="matrix(1,0,0,-1,200.1852,544.19041)"><tspan
             id="tspan62"
             y="0"
             x="0">x</tspan></text>
<text
           id="text68"
           style="font-variant:normal;font-weight:normal;font-size:17.13599968px;font-family:'Times New Roman';-inkscape-font-specification:Times-Roman;writing-mode:lr-tb;fill:#000000;fill-opacity:1;fill-rule:nonzero;stroke:none"
           transform="matrix(1,0,0,-1,210.46686,551.0451)"><tspan
             id="tspan66"
             y="0"
             x="0 5.7062879 20.940191 28.548576 40.920769 45.684574 53.292961">(MeV/c)</tspan></text>
</g><path
         id="path70"
         style="fill:none;stroke:#000000;stroke-width:9.18000031;stroke-linecap:butt;stroke-linejoin:miter;stroke-miterlimit:10;stroke-dasharray:none;stroke-opacity:1"
         d="M 918,3254.62 V 5202" /><path
         id="path72"
         style="fill:none;stroke:#000000;stroke-width:9.18000031;stroke-linecap:butt;stroke-linejoin:miter;stroke-miterlimit:10;stroke-dasharray:none;stroke-opacity:1"
         d="M 3683.63,3254.62 V 5202" /><path
         id="path74"
         style="fill:none;stroke:#000000;stroke-width:9.18000031;stroke-linecap:butt;stroke-linejoin:miter;stroke-miterlimit:10;stroke-dasharray:none;stroke-opacity:1"
         d="m 918,3537.97 h 61.199" /><path
         id="path76"
         style="fill:none;stroke:#000000;stroke-width:9.18000031;stroke-linecap:butt;stroke-linejoin:miter;stroke-miterlimit:10;stroke-dasharray:none;stroke-opacity:1"
         d="m 3683.63,3537.97 h -61.2" /><path
         id="path78"
         style="fill:none;stroke:#000000;stroke-width:9.18000031;stroke-linecap:butt;stroke-linejoin:miter;stroke-miterlimit:10;stroke-dasharray:none;stroke-opacity:1"
         d="m 918,4094.28 h 61.199" /><path
         id="path80"
         style="fill:none;stroke:#000000;stroke-width:9.18000031;stroke-linecap:butt;stroke-linejoin:miter;stroke-miterlimit:10;stroke-dasharray:none;stroke-opacity:1"
         d="m 3683.63,4094.28 h -61.2" /><path
         id="path82"
         style="fill:none;stroke:#000000;stroke-width:9.18000031;stroke-linecap:butt;stroke-linejoin:miter;stroke-miterlimit:10;stroke-dasharray:none;stroke-opacity:1"
         d="m 918,4650.59 h 61.199" /><path
         id="path84"
         style="fill:none;stroke:#000000;stroke-width:9.18000031;stroke-linecap:butt;stroke-linejoin:miter;stroke-miterlimit:10;stroke-dasharray:none;stroke-opacity:1"
         d="m 3683.63,4650.59 h -61.2" /><path
         id="path86"
         style="fill:none;stroke:#000000;stroke-width:9.18000031;stroke-linecap:butt;stroke-linejoin:miter;stroke-miterlimit:10;stroke-dasharray:none;stroke-opacity:1"
         d="m 918,3260.13 h 122.4" /><path
         id="path88"
         style="fill:none;stroke:#000000;stroke-width:9.18000031;stroke-linecap:butt;stroke-linejoin:miter;stroke-miterlimit:10;stroke-dasharray:none;stroke-opacity:1"
         d="m 3683.63,3260.13 h -122.4" /><path
         id="path90"
         style="fill:none;stroke:#000000;stroke-width:9.18000031;stroke-linecap:butt;stroke-linejoin:miter;stroke-miterlimit:10;stroke-dasharray:none;stroke-opacity:1"
         d="m 918,3816.43 h 122.4" /><path
         id="path92"
         style="fill:none;stroke:#000000;stroke-width:9.18000031;stroke-linecap:butt;stroke-linejoin:miter;stroke-miterlimit:10;stroke-dasharray:none;stroke-opacity:1"
         d="m 3683.63,3816.43 h -122.4" /><path
         id="path94"
         style="fill:none;stroke:#000000;stroke-width:9.18000031;stroke-linecap:butt;stroke-linejoin:miter;stroke-miterlimit:10;stroke-dasharray:none;stroke-opacity:1"
         d="m 918,4372.74 h 122.4" /><path
         id="path96"
         style="fill:none;stroke:#000000;stroke-width:9.18000031;stroke-linecap:butt;stroke-linejoin:miter;stroke-miterlimit:10;stroke-dasharray:none;stroke-opacity:1"
         d="m 3683.63,4372.74 h -122.4" /><path
         id="path98"
         style="fill:none;stroke:#000000;stroke-width:9.18000031;stroke-linecap:butt;stroke-linejoin:miter;stroke-miterlimit:10;stroke-dasharray:none;stroke-opacity:1"
         d="m 918,4928.44 h 122.4" /><path
         id="path100"
         style="fill:none;stroke:#000000;stroke-width:9.18000031;stroke-linecap:butt;stroke-linejoin:miter;stroke-miterlimit:10;stroke-dasharray:none;stroke-opacity:1"
         d="m 3683.63,4928.44 h -122.4" /><g
         transform="scale(10)"
         id="g102"><text
           id="text112"
           style="font-variant:normal;font-weight:normal;font-size:17.13599968px;font-family:'Times New Roman';-inkscape-font-specification:Times-Roman;writing-mode:lr-tb;fill:#000000;fill-opacity:1;fill-rule:nonzero;stroke:none"
           transform="matrix(1,0,0,-1,77.5402,320.382)"><tspan
             id="tspan104"
             y="0"
             x="0">0</tspan><tspan
             id="tspan106"
             y="-56.671101"
             x="-11.5668 -2.9988 1.2852">0,1</tspan><tspan
             id="tspan108"
             y="-112.302"
             x="-12.97422 -4.40622 -0.12222">0,2</tspan><tspan
             id="tspan110"
             y="-167.93291"
             x="-12.239845 -3.671845 0.61215502">0,3</tspan></text>
<text
           id="text116"
           style="font-variant:normal;font-weight:normal;font-size:17.13599968px;font-family:'Times New Roman';-inkscape-font-specification:Times-Roman;writing-mode:lr-tb;fill:#000000;fill-opacity:1;fill-rule:nonzero;stroke:none"
           transform="matrix(0,1,1,0,51.5914,349.146)"><tspan
             id="tspan114"
             y="0"
             x="0">d</tspan></text>
<text
           id="text120"
           style="font-variant:normal;font-weight:normal;font-size:17.13599968px;font-family:Symbol;-inkscape-font-specification:Symbol;writing-mode:lr-tb;fill:#000000;fill-opacity:1;fill-rule:nonzero;stroke:none"
           transform="matrix(0,1,1,0,51.5914,357.77491)"><tspan
             id="tspan118"
             y="0"
             x="0">σ</tspan></text>
<text
           id="text124"
           style="font-variant:normal;font-weight:normal;font-size:17.13599968px;font-family:'Times New Roman';-inkscape-font-specification:Times-Roman;writing-mode:lr-tb;fill:#000000;fill-opacity:1;fill-rule:nonzero;stroke:none"
           transform="matrix(0,1,1,0,51.5914,368.11791)"><tspan
             id="tspan122"
             y="0"
             x="0 4.7638078 13.331808">/dp</tspan></text>
<text
           id="text128"
           style="font-variant:normal;font-weight:normal;font-size:12.11760044px;font-family:'Times New Roman';-inkscape-font-specification:Times-Roman;writing-mode:lr-tb;fill:#000000;fill-opacity:1;fill-rule:nonzero;stroke:none"
           transform="matrix(0,1,1,0,58.44609,389.96631)"><tspan
             id="tspan126"
             y="0"
             x="0">x</tspan></text>
<text
           id="text132"
           style="font-variant:normal;font-weight:normal;font-size:17.13599968px;font-family:'Times New Roman';-inkscape-font-specification:Times-Roman;writing-mode:lr-tb;fill:#000000;fill-opacity:1;fill-rule:nonzero;stroke:none"
           transform="matrix(0,1,1,0,51.5914,400.24797)"><tspan
             id="tspan130"
             y="0"
             x="0 5.7062879 19.038095 27.606096 32.369904 38.076191 53.310097 60.91848 73.290672 78.054482 85.662865 91.369148">(mb/(MeV/c))</tspan></text>
</g><path
         id="path134"
         style="fill:none;stroke:#000000;stroke-width:9.18000031;stroke-linecap:butt;stroke-linejoin:miter;stroke-miterlimit:10;stroke-dasharray:none;stroke-opacity:1"
         d="M 918,3254.62 V 5202 H 3683.63 V 3254.62 Z" /><path
         id="path136"
         style="fill:none;stroke:#000000;stroke-width:18.36000061;stroke-linecap:butt;stroke-linejoin:miter;stroke-miterlimit:10;stroke-dasharray:none;stroke-opacity:1"
         d="m 4235.65,3259.51 h 138.93 l 17.74,0.62 h 106.49 l 17.75,0.6 h 17.75 l 17.74,0.62 h 17.75 l 17.75,0.61 17.75,0.61 17.75,0.61 17.75,0.62 h 17.74 l 17.75,1.22 17.75,0.61 17.75,0.61 17.75,1.23 17.75,1.22 17.74,1.23 17.75,1.83 17.75,1.23 17.75,2.45 17.74,1.83 17.75,3.06 17.75,3.06 17.75,3.06 17.75,4.28 17.75,4.29 17.74,5.51 17.75,5.5 17.75,6.74 17.75,7.95 17.74,8.57 17.75,9.18 17.75,11.02 17.75,12.23 17.75,14.08 17.75,14.69 17.74,15.91 17.75,18.36 17.75,20.81 17.75,22.03 17.74,23.87 17.75,25.7 17.75,28.77 17.75,29.98 17.75,33.66 17.74,35.5 17.75,39.17 17.75,41 17.75,43.46 17.74,47.73 17.75,53.25 17.75,56.3 17.75,61.2 17.75,60.59 17.75,66.09 17.74,74.06 17.75,72.21 17.75,79.56 17.75,74.67 17.75,66.7 17.75,59.37 17.74,50.79 17.75,39.78 17.75,30.61 17.75,24.48 17.74,12.85 17.75,4.28 17.75,-3.06 17.75,-9.79 17.75,-10.41 18.36,-18.97 17.75,-33.66 17.74,-48.35 17.75,-58.14 17.75,-64.25 17.75,-68.55 17.74,-70.38 17.75,-72.83 17.75,-70.99 17.75,-68.54 17.75,-66.71 17.75,-61.81 17.74,-57.53 17.75,-53.86 17.75,-48.96 17.75,-47.12 17.74,-42.23 17.75,-38.56 17.75,-37.33 17.75,-34.27 17.75,-31.82 17.75,-31.22 17.74,-28.76 17.75,-28.15 17.75,-25.7 17.74,-24.48 17.75,-22.04 17.75,-22.03 17.75,-18.97 17.75,-17.14 17.75,-15.91 17.74,-13.47 17.75,-12.23 17.75,-10.41 17.75,-9.18 17.74,-7.34 17.75,-6.12 17.75,-5.51 17.75,-4.28 17.75,-4.29 17.75,-3.06 17.74,-2.45 17.75,-1.83 17.75,-1.84 17.75,-1.22 17.75,-1.23 17.75,-0.61 17.74,-1.22 17.75,-0.61 17.75,-0.62 h 17.75 l 17.74,-0.61 h 17.75 17.75 17.75 l 17.75,-0.61 17.75,-0.61 h 17.74 l 17.75,0.61 17.75,0.61 17.75,1.84 17.74,-0.61 17.75,-1.84 17.75,-2.45" /><path
         id="path138"
         style="fill:none;stroke:#ff0000;stroke-width:18.36000061;stroke-linecap:butt;stroke-linejoin:miter;stroke-miterlimit:10;stroke-dasharray:none;stroke-opacity:1"
         d="m 4235.65,3259.51 h 104.04 l 17.75,0.62 h 106.49 l 17.75,0.6 h 17.75 17.74 l 17.75,0.62 h 17.75 l 17.75,0.61 17.74,0.61 17.75,1.23 h 17.75 l 17.75,0.61 17.75,0.61 17.74,0.61 17.75,1.23 17.75,1.22 17.75,0.61 17.74,1.84 17.75,1.83 17.75,1.84 17.75,1.84 17.75,3.06 17.75,2.44 17.74,3.67 17.75,4.29 17.75,4.89 17.75,5.51 17.75,6.12 17.75,6.74 17.74,8.56 17.75,9.8 17.75,11.01 17.75,12.24 17.74,13.47 17.75,15.91 17.75,17.75 17.75,19.58 17.75,21.42 17.75,23.26 17.74,25.7 17.75,28.15 17.75,30.6 17.75,33.05 17.74,35.5 17.75,37.94 17.75,40.39 17.75,44.07 17.75,47.12 17.75,48.96 17.74,52.63 17.75,53.86 17.75,57.53 17.75,63.64 17.74,66.1 17.75,68.54 17.75,69.16 17.75,74.66 17.75,76.5 17.74,80.18 17.75,86.9 17.75,74.67 17.75,67.93 17.74,56.91 17.75,45.9 17.75,39.78 17.75,26.93 17.75,23.26 17.75,10.4 17.74,3.06 17.75,-3.67 17.75,-11.02 17.75,-12.24 17.75,-19.58 17.75,-35.5 17.74,-48.96 17.75,-61.2 17.75,-66.09 17.75,-71.61 17.74,-75.89 17.75,-78.94 17.75,-78.95 17.75,-76.5 17.75,-73.44 17.75,-69.77 17.74,-66.71 17.75,-64.87 17.75,-61.81 17.75,-56.31 17.74,-52.63 17.75,-50.18 17.75,-47.74 17.75,-45.29 17.75,-42.22 17.75,-41.62 17.74,-36.72 17.75,-35.5 17.75,-33.04 17.74,-31.22 17.75,-28.15 17.75,-26.93 17.75,-23.86 17.75,-21.42 17.75,-19.59 17.74,-16.52 17.75,-14.69 17.75,-12.85 17.75,-11.02 17.74,-9.18 17.75,-7.34 17.75,-6.73 17.75,-4.9 17.75,-4.28 17.75,-3.67 17.74,-3.07 17.75,-1.83 17.75,-1.84 17.75,-1.83 17.75,-1.23 17.75,-0.61 17.74,-0.61 17.75,-0.61 17.75,-0.62 17.75,-0.61 h 17.74 17.75 17.75 17.75 l 17.75,-0.61 17.75,-0.61 h 17.74 l 17.75,0.61 17.75,1.22 17.75,1.23 17.74,-0.61 17.75,-1.84 17.75,-2.45" /><path
         id="path140"
         style="fill:none;stroke:#0000ff;stroke-width:18.36000061;stroke-linecap:butt;stroke-linejoin:miter;stroke-miterlimit:10;stroke-dasharray:none;stroke-opacity:1"
         d="m 4235.65,3260.73 h 48.96 l 17.75,0.62 h 34.89 l 17.13,0.61 h 17.75 l 17.14,0.61 h 17.74 l 17.75,0.61 17.13,0.62 h 17.75 l 17.14,0.61 17.75,1.22 17.13,0.61 17.75,0.62 17.14,1.22 17.75,0.61 17.74,1.23 17.14,1.22 17.75,1.84 17.13,1.22 17.75,1.84 17.14,1.83 17.75,1.84 17.13,2.45 17.75,2.45 17.75,3.05 17.13,3.06 17.75,3.67 17.14,3.68 17.75,4.28 17.13,4.9 17.75,4.89 17.14,5.51 17.74,6.12 17.75,6.73 17.14,6.73 17.75,7.96 17.13,7.96 17.75,8.56 17.14,9.18 17.75,9.8 17.13,11.01 17.75,11.02 17.74,12.85 17.14,13.47 17.75,14.07 17.14,15.3 17.74,16.53 17.14,17.74 17.75,18.36 17.13,20.2 17.75,20.81 17.75,22.64 17.14,24.48 17.74,25.71 17.14,28.15 17.75,29.37 17.14,32.44 17.74,34.27 17.75,36.72 17.13,38.56 17.75,41.61 17.14,44.07 17.75,45.9 17.13,48.96 17.75,51.41 17.14,53.85 17.75,57.53 17.13,58.75 17.75,59.37 17.75,58.14 17.13,54.47 17.75,50.18 17.14,44.06 17.75,37.33 17.13,28.77 17.75,19.58 17.75,12.85 17.14,8.57 17.74,6.73 17.14,4.9 17.75,-1.22 17.13,-11.63 17.75,-23.26 17.14,-33.66 17.74,-42.84 17.14,-51.41 17.75,-56.91 17.75,-62.43 17.13,-64.87 17.75,-66.71 17.14,-65.48 17.75,-63.65 17.13,-60.58 17.75,-57.54 17.74,-55.69 17.14,-52.63 17.75,-50.18 17.13,-47.12 17.75,-44.68 17.14,-42.23 17.75,-39.17 17.13,-36.72 17.75,-34.27 17.14,-31.83 17.75,-28.76 17.74,-26.93 17.14,-24.48 17.75,-22.03 17.13,-20.19 17.75,-17.75 17.14,-15.91 17.75,-13.47 17.75,-12.85 17.13,-10.4 17.75,-9.18 17.13,-8.57 17.75,-6.73 17.14,-6.12 17.75,-4.9 17.13,-4.28 17.75,-3.06 17.14,-3.06 17.74,-2.45 17.75,-2.45 17.14,-1.84 17.75,-1.22 17.13,-1.22 17.75,-1.23 17.14,-0.61 17.75,-1.22 17.74,-0.62 h 17.14 l 17.75,-0.61 17.13,-0.61 h 17.75 l 17.14,-0.61 h 17.74 17.14 l 17.75,-0.62 h 17.75 l 17.13,-0.6 17.75,-0.62 h 17.14" /><path
         id="path142"
         style="fill:none;stroke:#000000;stroke-width:9.18000031;stroke-linecap:butt;stroke-linejoin:miter;stroke-miterlimit:10;stroke-dasharray:none;stroke-opacity:1"
         d="M 4236.27,3254.62 H 7001.89" /><path
         id="path144"
         style="fill:none;stroke:#000000;stroke-width:9.18000031;stroke-linecap:butt;stroke-linejoin:miter;stroke-miterlimit:10;stroke-dasharray:none;stroke-opacity:1"
         d="M 4236.27,5202 H 7001.89" /><path
         id="path146"
         style="fill:none;stroke:#000000;stroke-width:9.18000031;stroke-linecap:butt;stroke-linejoin:miter;stroke-miterlimit:10;stroke-dasharray:none;stroke-opacity:1"
         d="m 4697.71,3254.62 v 61.2" /><path
         id="path148"
         style="fill:none;stroke:#000000;stroke-width:9.18000031;stroke-linecap:butt;stroke-linejoin:miter;stroke-miterlimit:10;stroke-dasharray:none;stroke-opacity:1"
         d="m 4697.71,5202 v -61.2" /><path
         id="path150"
         style="fill:none;stroke:#000000;stroke-width:9.18000031;stroke-linecap:butt;stroke-linejoin:miter;stroke-miterlimit:10;stroke-dasharray:none;stroke-opacity:1"
         d="m 5619.38,3254.62 v 61.2" /><path
         id="path152"
         style="fill:none;stroke:#000000;stroke-width:9.18000031;stroke-linecap:butt;stroke-linejoin:miter;stroke-miterlimit:10;stroke-dasharray:none;stroke-opacity:1"
         d="m 5619.38,5202 v -61.2" /><path
         id="path154"
         style="fill:none;stroke:#000000;stroke-width:9.18000031;stroke-linecap:butt;stroke-linejoin:miter;stroke-miterlimit:10;stroke-dasharray:none;stroke-opacity:1"
         d="m 4236.27,3254.62 v 122.4" /><path
         id="path156"
         style="fill:none;stroke:#000000;stroke-width:9.18000031;stroke-linecap:butt;stroke-linejoin:miter;stroke-miterlimit:10;stroke-dasharray:none;stroke-opacity:1"
         d="M 4236.27,5202 V 5079.6" /><path
         id="path158"
         style="fill:none;stroke:#000000;stroke-width:9.18000031;stroke-linecap:butt;stroke-linejoin:miter;stroke-miterlimit:10;stroke-dasharray:none;stroke-opacity:1"
         d="m 5158.55,3254.62 v 122.4" /><path
         id="path160"
         style="fill:none;stroke:#000000;stroke-width:9.18000031;stroke-linecap:butt;stroke-linejoin:miter;stroke-miterlimit:10;stroke-dasharray:none;stroke-opacity:1"
         d="M 5158.55,5202 V 5079.6" /><g
         transform="scale(10)"
         id="g162"><text
           id="text168"
           style="font-variant:normal;font-weight:normal;font-size:17.13599968px;font-family:'Times New Roman';-inkscape-font-specification:Times-Roman;writing-mode:lr-tb;fill:#000000;fill-opacity:1;fill-rule:nonzero;stroke:none"
           transform="matrix(1,0,0,-1,411.08,526.565)"><tspan
             id="tspan164"
             y="0"
             x="0 8.5679998 17.136 92.167175 100.73518 109.30318 184.33435 192.90234 201.47035">200400600</tspan><tspan
             id="tspan166"
             y="-24.7246"
             x="112.669">p</tspan></text>
<text
           id="text172"
           style="font-variant:normal;font-weight:normal;font-size:12.11760044px;font-family:'Times New Roman';-inkscape-font-specification:Times-Roman;writing-mode:lr-tb;fill:#000000;fill-opacity:1;fill-rule:nonzero;stroke:none"
           transform="matrix(1,0,0,-1,532.3783,544.4353)"><tspan
             id="tspan170"
             y="0"
             x="0">z</tspan></text>
<text
           id="text176"
           style="font-variant:normal;font-weight:normal;font-size:17.13599968px;font-family:'Times New Roman';-inkscape-font-specification:Times-Roman;writing-mode:lr-tb;fill:#000000;fill-opacity:1;fill-rule:nonzero;stroke:none"
           transform="matrix(1,0,0,-1,541.98652,551.2896)"><tspan
             id="tspan174"
             y="0"
             x="0 5.7062879 20.940191 28.548576 40.920769 45.684574 53.292961">(MeV/c)</tspan></text>
</g><path
         id="path178"
         style="fill:none;stroke:#000000;stroke-width:9.18000031;stroke-linecap:butt;stroke-linejoin:miter;stroke-miterlimit:10;stroke-dasharray:none;stroke-opacity:1"
         d="M 4236.27,3254.62 V 5202" /><path
         id="path180"
         style="fill:none;stroke:#000000;stroke-width:9.18000031;stroke-linecap:butt;stroke-linejoin:miter;stroke-miterlimit:10;stroke-dasharray:none;stroke-opacity:1"
         d="m 4236.27,3501.86 h 61.19" /><path
         id="path182"
         style="fill:none;stroke:#000000;stroke-width:9.18000031;stroke-linecap:butt;stroke-linejoin:miter;stroke-miterlimit:10;stroke-dasharray:none;stroke-opacity:1"
         d="m 4236.27,3985.96 h 61.19" /><path
         id="path184"
         style="fill:none;stroke:#000000;stroke-width:9.18000031;stroke-linecap:butt;stroke-linejoin:miter;stroke-miterlimit:10;stroke-dasharray:none;stroke-opacity:1"
         d="m 4236.27,4470.66 h 61.19" /><path
         id="path186"
         style="fill:none;stroke:#000000;stroke-width:9.18000031;stroke-linecap:butt;stroke-linejoin:miter;stroke-miterlimit:10;stroke-dasharray:none;stroke-opacity:1"
         d="m 4236.27,4954.75 h 61.19" /><path
         id="path188"
         style="fill:none;stroke:#000000;stroke-width:9.18000031;stroke-linecap:butt;stroke-linejoin:miter;stroke-miterlimit:10;stroke-dasharray:none;stroke-opacity:1"
         d="m 4236.27,3259.51 h 122.39" /><path
         id="path190"
         style="fill:none;stroke:#000000;stroke-width:9.18000031;stroke-linecap:butt;stroke-linejoin:miter;stroke-miterlimit:10;stroke-dasharray:none;stroke-opacity:1"
         d="m 4236.27,3744.21 h 122.39" /><path
         id="path192"
         style="fill:none;stroke:#000000;stroke-width:9.18000031;stroke-linecap:butt;stroke-linejoin:miter;stroke-miterlimit:10;stroke-dasharray:none;stroke-opacity:1"
         d="m 4236.27,4228.31 h 122.39" /><path
         id="path194"
         style="fill:none;stroke:#000000;stroke-width:9.18000031;stroke-linecap:butt;stroke-linejoin:miter;stroke-miterlimit:10;stroke-dasharray:none;stroke-opacity:1"
         d="m 4236.27,4713.01 h 122.39" /><path
         id="path196"
         style="fill:none;stroke:#000000;stroke-width:9.18000031;stroke-linecap:butt;stroke-linejoin:miter;stroke-miterlimit:10;stroke-dasharray:none;stroke-opacity:1"
         d="m 4236.27,5197.11 h 122.39" /><path
         id="path198"
         style="fill:none;stroke:#000000;stroke-width:9.18000031;stroke-linecap:butt;stroke-linejoin:miter;stroke-miterlimit:10;stroke-dasharray:none;stroke-opacity:1"
         d="M 4236.27,3254.62 V 5202 H 7001.89 V 3254.62 Z" /><path
         id="path200"
         style="fill:none;stroke:#000000;stroke-width:18.36000061;stroke-linecap:butt;stroke-linejoin:miter;stroke-miterlimit:10;stroke-dasharray:none;stroke-opacity:1"
         d="m 1246.03,918 h 56.31 l 5.5,1.836 4.9,0.613 h 5.51 4.89 5.51 l 4.9,0.61 h 4.9 5.5 l 4.9,0.613 h 5.51 l 4.89,0.613 h 5.51 l 4.9,0.61 h 4.89 l 5.51,0.613 h 4.9 l 5.5,0.613 4.9,0.609 5.51,0.614 h 4.9 l 5.5,0.613 4.9,0.609 4.89,0.614 5.51,0.613 4.9,0.609 5.51,0.614 4.89,0.613 5.51,0.609 4.9,1.227 4.89,0.609 5.51,0.614 4.89,1.222 5.52,1.227 4.89,0.609 5.51,1.227 4.89,1.222 5.51,1.227 4.9,1.223 4.89,1.222 5.51,1.227 4.9,1.836 5.51,1.222 4.89,1.836 5.51,1.836 4.89,1.223 4.9,1.836 5.51,2.449 4.9,1.836 5.5,2.449 4.9,1.836 5.51,2.445 4.89,2.45 5.51,2.449 4.9,3.058 4.89,2.45 5.51,3.058 4.9,3.063 5.5,3.672 4.9,3.058 5.51,3.672 4.9,3.672 4.89,3.672 5.51,4.288 4.9,3.67 5.5,4.28 4.9,4.9 5.51,4.28 4.9,4.9 5.5,4.89 4.9,5.51 4.9,5.51 5.5,5.51 4.9,5.51 5.51,6.12 4.89,6.12 5.51,6.73 4.9,6.12 5.5,7.34 4.9,6.74 4.9,7.34 5.51,7.34 4.89,7.96 5.51,7.95 4.89,7.96 5.51,8.57 4.9,8.57 4.89,9.18 5.51,9.18 4.9,9.18 5.51,9.79 4.89,9.79 5.51,9.79 4.9,10.41 5.51,10.4 4.89,11.02 4.89,11.01 5.51,11.63 4.9,12.24 5.51,12.24 4.89,12.24 5.51,12.85 4.9,12.86 4.89,13.46 5.51,14.08 4.9,14.07 5.5,12.85 4.9,13.47 5.51,14.07 4.9,14.69 5.5,15.3 4.9,15.91 4.9,15.91 5.5,17.14 4.9,17.14 5.51,18.36 4.89,18.35 5.51,18.37 4.9,18.97 4.9,19.58 5.5,20.2 4.9,18.36 5.51,18.97 4.89,19.59 5.51,20.8 4.9,20.81 5.5,21.42 4.9,22.03 4.9,22.03 5.5,22.65 4.9,22.64 5.51,23.26 4.9,23.25 5.5,23.87 4.9,23.26 4.89,24.48 5.51,26.93 4.9,25.7 5.51,25.71 4.89,24.47 5.51,23.87 4.9,23.26 5.51,22.64 4.89,21.42 4.9,20.81 5.51,20.2 4.89,19.58 5.51,18.97 4.89,18.36 5.51,17.14 4.9,17.14 4.89,15.91 5.51,15.91 4.9,14.69 5.51,14.07 4.89,12.85 5.51,12.86 4.89,11.62 5.51,11.02 4.9,10.4 4.9,9.18 5.5,9.18 4.9,7.96 5.51,7.35 4.89,6.73 5.51,5.5 4.9,4.29 4.89,4.28 5.51,3.68 4.9,3.05 5.5,2.45 4.9,1.84 5.51,1.22 4.9,1.22 h 5.5 4.9 l 4.9,-0.6 5.5,-1.23 4.9,-1.84 5.51,-2.44 4.89,-1.23 5.51,-1.22 4.9,-1.84 4.9,-3.67 5.5,-4.28 4.9,-5.51 5.51,-6.12 4.89,-7.35 5.51,-8.56 4.9,-9.18 5.5,-10.41 4.9,-11.02 4.9,-11.62 5.51,-12.24 4.89,-13.47 5.51,-14.68 4.9,-15.92 5.5,-15.91 4.9,-15.91 4.89,-16.52 5.51,-17.14 4.9,-17.14 5.51,-17.13 4.89,-17.14 5.51,-17.75 4.9,-17.75 5.51,-18.36 4.89,-17.74 4.89,-18.36 5.51,-18.36 4.9,-18.97 5.51,-18.98 4.89,-19.58 5.51,-18.36 4.9,-18.97 4.89,-18.36 5.51,-18.36 4.9,-18.36 5.51,-18.36 4.89,-17.75 5.51,-17.75 4.89,-17.75 5.51,-17.13 4.9,-17.14 4.9,-17.13 5.5,-17.14 4.9,-17.14 5.51,-16.52 4.89,-16.52 5.51,-15.92 4.9,-15.91 4.9,-15.91 5.5,-15.3 4.9,-14.69 5.51,-14.69 4.89,-14.68 5.51,-14.08 4.9,-14.08 5.5,-13.46 4.9,-13.46 4.9,-13.47 5.5,-12.85 4.9,-12.24 5.51,-12.85 4.9,-12.24 5.5,-11.63 4.9,-12.24 4.9,-11.63 5.5,-11.01 4.9,-11.02 5.51,-11.01 4.89,-11.02 5.51,-10.41 4.9,-10.4 5.5,-10.4 4.9,-9.79 4.9,-10.41 5.51,-9.18 4.89,-9.79 5.51,-9.18 4.89,-9.18 5.51,-9.18 4.9,-8.57 4.89,-9.18 5.51,-8.57 4.9,-8.56 5.51,-7.96 4.89,-7.96 5.51,-8.57 4.89,-7.34 5.52,-7.96 4.89,-7.34 4.9,-7.34 5.5,-7.35 4.9,-7.34 5.51,-7.34 4.89,-6.74 5.51,-6.73 4.9,-6.73 4.89,-6.73 5.51,-6.73 4.9,-6.13 5.5,-6.73 4.9,-6.12 5.51,-6.12 4.9,-6.12 5.5,-5.51 4.9,-6.11 4.9,-5.51 5.5,-5.51 4.9,-6.12 5.51,-4.9 4.89,-5.51 5.51,-5.51 4.9,-4.89 4.9,-4.89 5.5,-5.51 4.9,-4.29 5.51,-4.89 4.89,-4.9 5.51,-4.9 4.9,-4.28 5.5,-4.29 4.9,-4.28 4.9,-4.28 5.51,-4.29 4.89,-4.28 5.51,-3.67 4.9,-4.29 5.5,-3.67 4.9,-3.67 4.89,-3.67 5.51,-3.67 4.9,-3.67 5.51,-3.07 4.89,-3.67 5.51,-3.06 4.9,-3.06 5.51,-3.06 4.89,-3.06 4.89,-3.06 5.52,-3.06 4.89,-2.45 5.51,-3.06 4.89,-2.445 5.51,-2.446 4.9,-2.449 4.89,-2.449 5.51,-2.446 4.9,-2.449 5.51,-1.836 4.89,-2.449 5.51,-1.836 4.89,-1.836 5.51,-1.836 4.9,-2.445 4.9,-1.84 5.5,-1.223 4.9,-1.835 5.51,-1.836 4.89,-1.836 5.51,-1.223 4.9,-1.836 4.89,-1.226 5.51,-1.836 4.9,-1.223 5.51,-1.223 4.89,-1.226 5.51,-1.223 4.9,-1.223 5.5,-1.226 4.9,-1.223 4.9,-1.222 5.5,-1.227 4.9,-1.223 5.51,-0.613 4.9,-1.223 5.5,-0.613 4.9,-1.223 4.9,-0.613 5.5,-1.223 4.9,-0.613 5.51,-0.609 4.89,-1.227 5.51,-0.609 4.9,-0.613 5.5,-0.614 4.9,-0.609 4.9,-0.613 5.51,-1.227 4.89,-0.609 5.51,-0.614 h 4.89 l 5.51,-0.613 4.9,-0.609 4.89,-0.613 5.51,-0.614 4.9,-0.609 h 5.51 l 4.89,-0.613 5.51,-0.614 h 4.9 l 5.51,-0.609 4.89,-0.613 h 4.89 l 5.51,-0.614 4.9,-0.609 h 5.51 l 4.89,-0.613 h 5.51 l 4.9,-0.614 h 4.89 5.51 l 4.9,-0.609 h 5.5 l 4.9,-0.613 h 5.51 4.9 l 5.5,-0.614 h 4.9 4.9 l 5.5,-0.609 h 4.9 l 5.51,-1.226 h 4.89 5.51 4.9 l 4.9,-0.61 h 5.5 4.9 5.51 4.89 l 5.51,-0.613 h 4.9 5.5 4.9 4.9 5.5 l 4.9,-0.613 h 5.51 4.9 5.5 4.9 4.89 5.51 l 4.9,-0.61 h 5.51 4.89 5.51 4.9 5.51 4.89 4.9 5.51 l 4.89,0.61 h 5.51 4.89 l 5.51,0.613 h 4.9 4.89 l 5.51,-0.613 h 4.9 5.51 4.89 l 5.51,-0.61 h 4.89 l 5.51,-0.613 h 4.9 l 4.9,-0.613 h 5.5 l 4.9,-0.61 h 5.51 4.89 l 5.51,-0.613 4.9,1.223 h 4.89 5.51 4.9 5.5 l 4.9,-0.61 5.51,-0.613 4.9,0.613 h 1.22" /><path
         id="path202"
         style="fill:none;stroke:#ff0000;stroke-width:18.36000061;stroke-linecap:butt;stroke-linejoin:miter;stroke-miterlimit:10;stroke-dasharray:none;stroke-opacity:1"
         d="m 1246.03,918 h 56.31 l 5.5,4.285 h 36.11 l 4.9,0.61 h 5.51 4.89 l 5.51,0.613 h 4.9 l 4.89,0.613 h 5.51 l 4.9,0.609 5.5,0.614 4.9,0.613 5.51,0.609 4.9,0.614 5.5,0.613 4.9,0.609 4.89,0.614 5.51,0.613 4.9,1.223 5.51,0.613 4.89,0.609 5.51,1.227 4.9,0.609 4.89,1.227 5.51,1.222 4.89,1.227 5.52,1.223 4.89,1.222 5.51,1.836 4.89,1.227 5.51,1.836 4.9,1.836 4.89,1.836 5.51,1.836 4.9,1.835 5.51,2.446 4.89,1.836 5.51,2.449 4.89,2.449 4.9,3.059 5.51,2.449 4.9,3.059 5.5,3.058 4.9,3.063 5.51,3.672 4.89,3.671 5.51,3.672 4.9,3.672 4.89,4.285 5.51,4.282 4.9,4.895 5.5,4.9 4.9,4.9 5.51,4.89 4.9,5.51 4.89,5.51 5.51,6.12 4.9,6.11 5.5,6.13 4.9,6.73 5.51,6.73 4.9,6.73 5.5,7.34 4.9,7.96 4.9,7.96 5.5,7.96 4.9,8.56 5.51,8.57 4.89,8.57 5.51,9.18 4.9,9.79 5.5,9.79 4.9,9.79 4.9,10.41 5.51,10.4 4.89,11.02 5.51,11.01 4.89,11.63 5.51,11.63 4.9,11.63 4.89,12.85 5.51,12.24 4.9,12.85 5.51,13.47 4.89,12.85 5.51,13.46 4.9,14.08 5.51,14.08 4.89,14.68 4.89,14.69 5.51,15.3 4.9,15.91 5.51,15.92 4.89,15.91 5.51,16.52 4.9,17.14 4.89,17.13 5.51,17.14 4.9,18.36 5.5,16.52 4.9,17.75 5.51,17.75 4.9,18.36 5.5,18.97 4.9,19.59 4.9,20.19 5.5,20.2 4.9,20.8 5.51,20.81 4.89,22.03 5.51,21.42 4.9,22.65 4.9,22.03 5.5,22.64 4.9,21.42 5.51,22.04 4.89,22.64 5.51,22.65 4.9,23.25 5.5,23.87 4.9,24.48 4.9,23.87 5.5,25.09 4.9,24.48 5.51,25.09 4.9,25.09 5.5,25.1 4.9,25.7 4.89,25.7 5.51,28.77 4.9,28.15 5.51,26.93 4.89,25.7 5.51,25.09 4.9,23.87 5.51,23.26 4.89,22.64 4.9,21.42 5.51,20.81 4.89,19.58 5.51,18.97 4.89,18.36 5.51,17.14 4.9,16.52 4.89,15.3 5.51,14.69 4.9,13.47 5.51,13.46 4.89,12.24 5.51,12.24 4.89,11.02 5.51,10.4 4.9,9.79 4.9,9.18 5.5,8.57 4.9,7.35 5.51,7.34 4.89,6.73 5.51,4.89 4.9,4.9 4.89,3.67 5.51,3.68 4.9,3.06 5.5,2.44 4.9,1.84 5.51,1.84 4.9,0.61 5.5,0.61 4.9,-0.61 4.9,-0.61 5.5,-1.23 4.9,-1.83 5.51,-2.45 4.89,-1.22 5.51,-0.62 4.9,-1.83 4.9,-3.68 5.5,-4.28 4.9,-5.51 5.51,-6.73 4.89,-7.34 5.51,-8.57 4.9,-9.8 5.5,-10.4 4.9,-11.01 4.9,-12.25 5.51,-12.85 4.89,-14.07 5.51,-14.69 4.9,-16.52 5.5,-16.53 4.9,-16.52 4.89,-17.14 5.51,-17.75 4.9,-17.74 5.51,-18.37 4.89,-18.35 5.51,-18.98 4.9,-18.97 5.51,-18.97 4.89,-19.58 4.89,-19.59 5.51,-20.19 4.9,-20.81 5.51,-20.81 4.89,-20.81 5.51,-20.81 4.9,-20.19 4.89,-20.81 5.51,-20.2 4.9,-20.19 5.51,-20.2 4.89,-19.58 5.51,-20.2 4.89,-19.58 5.51,-19.59 4.9,-18.97 4.9,-19.58 5.5,-18.97 4.9,-18.98 5.51,-18.97 4.89,-18.36 5.51,-18.97 4.9,-17.75 4.9,-18.36 5.5,-17.75 4.9,-17.13 5.51,-17.14 4.89,-17.14 5.51,-17.13 4.9,-16.52 5.5,-16.53 4.9,-15.91 4.9,-16.52 5.5,-15.92 4.9,-15.29 5.51,-15.3 4.9,-15.31 5.5,-14.68 4.9,-14.69 4.9,-14.69 5.5,-14.08 4.9,-14.07 5.51,-14.08 4.89,-13.46 5.51,-12.85 4.9,-13.47 5.5,-12.85 4.9,-12.85 4.9,-12.24 5.51,-12.24 4.89,-11.63 5.51,-12.24 4.89,-11.63 5.51,-11.62 4.9,-11.02 4.89,-11.63 5.51,-11.01 4.9,-11.02 5.51,-10.41 4.89,-10.4 5.51,-10.41 4.89,-10.4 5.52,-10.4 4.89,-9.79 4.9,-9.8 5.5,-9.79 4.9,-9.18 5.51,-9.18 4.89,-9.18 5.51,-9.18 4.9,-8.57 4.89,-8.56 5.51,-8.57 4.9,-7.96 5.5,-8.56 4.9,-7.96 5.51,-7.34 4.9,-7.96 5.5,-7.35 4.9,-7.34 4.9,-7.34 5.5,-6.74 4.9,-7.34 5.51,-6.73 4.89,-6.73 5.51,-6.74 4.9,-6.12 4.9,-6.73 5.5,-6.12 4.9,-6.12 5.51,-6.12 4.89,-5.51 5.51,-6.12 4.9,-5.5 5.5,-5.51 4.9,-5.51 4.9,-5.51 5.51,-5.51 4.89,-4.89 5.51,-4.9 4.9,-4.89 5.5,-4.9 4.9,-4.28 4.89,-4.9 5.51,-4.28 4.9,-4.29 5.51,-4.28 4.89,-4.29 5.51,-4.28 4.9,-3.67 5.51,-3.67 4.89,-3.67 4.89,-3.68 5.52,-3.67 4.89,-3.67 5.51,-3.06 4.89,-3.67 5.51,-3.06 4.9,-3.07 4.89,-3.05 5.51,-2.45 4.9,-3.06 5.51,-2.451 4.89,-3.059 5.51,-2.449 4.89,-2.446 5.51,-2.449 4.9,-2.449 4.9,-2.445 5.5,-1.836 4.9,-2.449 5.51,-1.836 4.89,-1.836 5.51,-2.45 4.9,-1.835 4.89,-1.836 5.51,-1.836 4.9,-1.223 5.51,-1.836 4.89,-1.836 5.51,-1.226 4.9,-1.836 5.5,-1.223 4.9,-1.223 4.9,-1.226 5.5,-1.836 4.9,-1.223 5.51,-1.222 4.9,-0.614 5.5,-1.222 4.9,-1.227 4.9,-1.223 5.5,-0.613 4.9,-1.223 5.51,-1.222 4.89,-0.614 5.51,-0.613 4.9,-1.222 5.5,-0.614 4.9,-0.609 4.9,-1.227 5.51,-0.609 4.89,-0.613 5.51,-0.614 4.89,-0.613 5.51,-0.609 4.9,-0.614 4.89,-0.613 5.51,-0.609 4.9,-0.613 5.51,-0.614 4.89,-0.609 h 5.51 l 4.9,-0.613 5.51,-0.614 4.89,-0.609 h 4.89 l 5.51,-0.613 4.9,-0.614 h 5.51 l 4.89,-0.609 h 5.51 l 4.9,-0.613 h 4.89 l 5.51,-0.614 h 4.9 l 5.5,-0.609 h 4.9 l 5.51,-0.613 h 4.9 l 5.5,-0.614 h 4.9 4.9 l 5.5,-0.609 h 4.9 l 5.51,-1.226 h 4.89 5.51 l 4.9,-0.61 h 4.9 5.5 4.9 l 5.51,-0.613 h 4.89 5.51 4.9 5.5 4.9 l 4.9,-0.613 h 5.5 4.9 5.51 4.9 5.5 4.9 l 4.89,-0.61 h 5.51 4.9 5.51 4.89 5.51 4.9 5.51 4.89 4.9 5.51 l 4.89,0.61 h 5.51 4.89 5.51 l 4.9,0.613 4.89,-0.613 h 5.51 4.9 5.51 l 4.89,-0.61 h 5.51 4.89 l 5.51,-0.613 h 4.9 l 4.9,-0.613 h 5.5 l 4.9,-0.61 h 5.51 l 4.89,-0.613 5.51,0.613 4.9,0.61 h 4.89 5.51 4.9 5.5 l 4.9,-0.61 5.51,-0.613 4.9,0.613 h 1.22" /><path
         id="path204"
         style="fill:none;stroke:#0000ff;stroke-width:18.36000061;stroke-linecap:butt;stroke-linejoin:miter;stroke-miterlimit:10;stroke-dasharray:none;stroke-opacity:1"
         d="m 918,918 h 92.41 l 91.8,0.613 92.42,1.836 91.8,5.508 92.41,13.465 92.41,28.762 91.8,52.016 92.41,82.01 92.41,124.85 18.36,31.21 18.36,33.66 18.36,35.5 18.36,39.17 18.36,41.61 18.36,44.07 18.36,47.73 18.97,49.58 18.36,53.24 18.37,55.69 18.36,58.14 18.35,61.2 18.36,64.87 18.36,66.71 18.36,67.93 18.98,66.1 18.35,63.03 18.36,57.53 18.37,50.18 18.36,41.62 18.36,32.44 18.36,23.25 18.36,15.92 18.97,12.24 18.36,10.4 18.36,7.35 18.36,2.44 18.36,-7.34 18.36,-16.53 18.36,-27.54 18.36,-36.72 18.97,-43.45 18.36,-50.18 18.36,-53.86 18.36,-58.14 18.36,-59.97 18.36,-61.2 18.36,-60.59 18.36,-58.75 18.97,-56.31 18.36,-53.24 18.36,-51.41 18.36,-48.96 18.36,-47.13 18.36,-45.28 18.36,-42.84 18.36,-40.39 18.97,-38.56 18.36,-36.72 18.36,-34.27 91.8,-144.44 92.42,-100.98 92.41,-67.31 91.8,-42.233 92.41,-25.089 92.41,-14.692 91.8,-7.953 92.41,-4.285 91.8,-2.449 92.41,-1.223 92.42,-0.613 h 0.61" /><path
         id="path206"
         style="fill:none;stroke:#000000;stroke-width:9.18000031;stroke-linecap:butt;stroke-linejoin:miter;stroke-miterlimit:10;stroke-dasharray:none;stroke-opacity:1"
         d="M 918,918 H 3683.63" /><path
         id="path208"
         style="fill:none;stroke:#000000;stroke-width:9.18000031;stroke-linecap:butt;stroke-linejoin:miter;stroke-miterlimit:10;stroke-dasharray:none;stroke-opacity:1"
         d="M 918,2865.38 H 3683.63" /><path
         id="path210"
         style="fill:none;stroke:#000000;stroke-width:9.18000031;stroke-linecap:butt;stroke-linejoin:miter;stroke-miterlimit:10;stroke-dasharray:none;stroke-opacity:1"
         d="m 1378.84,918 v 61.199" /><path
         id="path212"
         style="fill:none;stroke:#000000;stroke-width:9.18000031;stroke-linecap:butt;stroke-linejoin:miter;stroke-miterlimit:10;stroke-dasharray:none;stroke-opacity:1"
         d="m 1378.84,2865.38 v -61.2" /><path
         id="path214"
         style="fill:none;stroke:#000000;stroke-width:9.18000031;stroke-linecap:butt;stroke-linejoin:miter;stroke-miterlimit:10;stroke-dasharray:none;stroke-opacity:1"
         d="m 2300.51,918 v 61.199" /><path
         id="path216"
         style="fill:none;stroke:#000000;stroke-width:9.18000031;stroke-linecap:butt;stroke-linejoin:miter;stroke-miterlimit:10;stroke-dasharray:none;stroke-opacity:1"
         d="m 2300.51,2865.38 v -61.2" /><path
         id="path218"
         style="fill:none;stroke:#000000;stroke-width:9.18000031;stroke-linecap:butt;stroke-linejoin:miter;stroke-miterlimit:10;stroke-dasharray:none;stroke-opacity:1"
         d="m 3222.79,918 v 61.199" /><path
         id="path220"
         style="fill:none;stroke:#000000;stroke-width:9.18000031;stroke-linecap:butt;stroke-linejoin:miter;stroke-miterlimit:10;stroke-dasharray:none;stroke-opacity:1"
         d="m 3222.79,2865.38 v -61.2" /><path
         id="path222"
         style="fill:none;stroke:#000000;stroke-width:9.18000031;stroke-linecap:butt;stroke-linejoin:miter;stroke-miterlimit:10;stroke-dasharray:none;stroke-opacity:1"
         d="m 918,918 v 122.4" /><path
         id="path224"
         style="fill:none;stroke:#000000;stroke-width:9.18000031;stroke-linecap:butt;stroke-linejoin:miter;stroke-miterlimit:10;stroke-dasharray:none;stroke-opacity:1"
         d="m 918,2865.38 v -122.4" /><path
         id="path226"
         style="fill:none;stroke:#000000;stroke-width:9.18000031;stroke-linecap:butt;stroke-linejoin:miter;stroke-miterlimit:10;stroke-dasharray:none;stroke-opacity:1"
         d="m 1839.67,918 v 122.4" /><path
         id="path228"
         style="fill:none;stroke:#000000;stroke-width:9.18000031;stroke-linecap:butt;stroke-linejoin:miter;stroke-miterlimit:10;stroke-dasharray:none;stroke-opacity:1"
         d="m 1839.67,2865.38 v -122.4" /><path
         id="path230"
         style="fill:none;stroke:#000000;stroke-width:9.18000031;stroke-linecap:butt;stroke-linejoin:miter;stroke-miterlimit:10;stroke-dasharray:none;stroke-opacity:1"
         d="m 2761.34,918 v 122.4" /><path
         id="path232"
         style="fill:none;stroke:#000000;stroke-width:9.18000031;stroke-linecap:butt;stroke-linejoin:miter;stroke-miterlimit:10;stroke-dasharray:none;stroke-opacity:1"
         d="m 2761.34,2865.38 v -122.4" /><path
         id="path234"
         style="fill:none;stroke:#000000;stroke-width:9.18000031;stroke-linecap:butt;stroke-linejoin:miter;stroke-miterlimit:10;stroke-dasharray:none;stroke-opacity:1"
         d="m 3683.63,918 v 122.4" /><path
         id="path236"
         style="fill:none;stroke:#000000;stroke-width:9.18000031;stroke-linecap:butt;stroke-linejoin:miter;stroke-miterlimit:10;stroke-dasharray:none;stroke-opacity:1"
         d="m 3683.63,2865.38 v -122.4" /><g
         transform="scale(10)"
         id="g238"><text
           id="text244"
           style="font-variant:normal;font-weight:normal;font-size:17.13599968px;font-family:'Times New Roman';-inkscape-font-specification:Times-Roman;writing-mode:lr-tb;fill:#000000;fill-opacity:1;fill-rule:nonzero;stroke:none"
           transform="matrix(1,0,0,-1,87.6996,74.1742)"><tspan
             id="tspan240"
             y="0"
             x="0 87.883179 96.451172 180.05035 188.61835 272.21753 280.78552">0102030</tspan><tspan
             id="tspan242"
             y="17.8703"
             x="89.107002">E</tspan></text>
<text
           id="text248"
           style="font-variant:normal;font-weight:normal;font-size:8.56799984px;font-family:'Times New Roman';-inkscape-font-specification:Times-Roman;writing-mode:lr-tb;fill:#000000;fill-opacity:1;fill-rule:nonzero;stroke:none"
           transform="matrix(1,0,0,-1,187.3332,56.671088)"><tspan
             id="tspan246"
             y="0"
             x="0 4.2839999">10</tspan></text>
<text
           id="text252"
           style="font-variant:normal;font-weight:normal;font-size:12.11760044px;font-family:'Times New Roman';-inkscape-font-specification:Times-Roman;writing-mode:lr-tb;fill:#000000;fill-opacity:1;fill-rule:nonzero;stroke:none"
           transform="matrix(1,0,0,-1,195.9625,49.449608)"><tspan
             id="tspan250"
             y="0"
             x="0 8.0824394 13.462653 16.492054 21.872269 24.901669 34.329163">Be c.m.</tspan></text>
<text
           id="text256"
           style="font-variant:normal;font-weight:normal;font-size:17.13599968px;font-family:'Times New Roman';-inkscape-font-specification:Times-Roman;writing-mode:lr-tb;fill:#000000;fill-opacity:1;fill-rule:nonzero;stroke:none"
           transform="matrix(1,0,0,-1,237.7008,56.303908)"><tspan
             id="tspan254"
             y="0"
             x="0 5.7062879 20.940191 28.548576 40.920769">(MeV)</tspan></text>
</g><path
         id="path258"
         style="fill:none;stroke:#000000;stroke-width:9.18000031;stroke-linecap:butt;stroke-linejoin:miter;stroke-miterlimit:10;stroke-dasharray:none;stroke-opacity:1"
         d="M 918,918 V 2865.38" /><path
         id="path260"
         style="fill:none;stroke:#000000;stroke-width:9.18000031;stroke-linecap:butt;stroke-linejoin:miter;stroke-miterlimit:10;stroke-dasharray:none;stroke-opacity:1"
         d="M 3683.63,918 V 2865.38" /><path
         id="path262"
         style="fill:none;stroke:#000000;stroke-width:9.18000031;stroke-linecap:butt;stroke-linejoin:miter;stroke-miterlimit:10;stroke-dasharray:none;stroke-opacity:1"
         d="m 918,1056.93 h 61.199" /><path
         id="path264"
         style="fill:none;stroke:#000000;stroke-width:9.18000031;stroke-linecap:butt;stroke-linejoin:miter;stroke-miterlimit:10;stroke-dasharray:none;stroke-opacity:1"
         d="m 3683.63,1056.93 h -61.2" /><path
         id="path266"
         style="fill:none;stroke:#000000;stroke-width:9.18000031;stroke-linecap:butt;stroke-linejoin:miter;stroke-miterlimit:10;stroke-dasharray:none;stroke-opacity:1"
         d="m 918,1335.38 h 61.199" /><path
         id="path268"
         style="fill:none;stroke:#000000;stroke-width:9.18000031;stroke-linecap:butt;stroke-linejoin:miter;stroke-miterlimit:10;stroke-dasharray:none;stroke-opacity:1"
         d="m 3683.63,1335.38 h -61.2" /><path
         id="path270"
         style="fill:none;stroke:#000000;stroke-width:9.18000031;stroke-linecap:butt;stroke-linejoin:miter;stroke-miterlimit:10;stroke-dasharray:none;stroke-opacity:1"
         d="m 918,1613.23 h 61.199" /><path
         id="path272"
         style="fill:none;stroke:#000000;stroke-width:9.18000031;stroke-linecap:butt;stroke-linejoin:miter;stroke-miterlimit:10;stroke-dasharray:none;stroke-opacity:1"
         d="m 3683.63,1613.23 h -61.2" /><path
         id="path274"
         style="fill:none;stroke:#000000;stroke-width:9.18000031;stroke-linecap:butt;stroke-linejoin:miter;stroke-miterlimit:10;stroke-dasharray:none;stroke-opacity:1"
         d="m 918,1891.69 h 61.199" /><path
         id="path276"
         style="fill:none;stroke:#000000;stroke-width:9.18000031;stroke-linecap:butt;stroke-linejoin:miter;stroke-miterlimit:10;stroke-dasharray:none;stroke-opacity:1"
         d="m 3683.63,1891.69 h -61.2" /><path
         id="path278"
         style="fill:none;stroke:#000000;stroke-width:9.18000031;stroke-linecap:butt;stroke-linejoin:miter;stroke-miterlimit:10;stroke-dasharray:none;stroke-opacity:1"
         d="m 918,2169.54 h 61.199" /><path
         id="path280"
         style="fill:none;stroke:#000000;stroke-width:9.18000031;stroke-linecap:butt;stroke-linejoin:miter;stroke-miterlimit:10;stroke-dasharray:none;stroke-opacity:1"
         d="m 3683.63,2169.54 h -61.2" /><path
         id="path282"
         style="fill:none;stroke:#000000;stroke-width:9.18000031;stroke-linecap:butt;stroke-linejoin:miter;stroke-miterlimit:10;stroke-dasharray:none;stroke-opacity:1"
         d="m 918,2448 h 61.199" /><path
         id="path284"
         style="fill:none;stroke:#000000;stroke-width:9.18000031;stroke-linecap:butt;stroke-linejoin:miter;stroke-miterlimit:10;stroke-dasharray:none;stroke-opacity:1"
         d="m 3683.63,2448 h -61.2" /><path
         id="path286"
         style="fill:none;stroke:#000000;stroke-width:9.18000031;stroke-linecap:butt;stroke-linejoin:miter;stroke-miterlimit:10;stroke-dasharray:none;stroke-opacity:1"
         d="m 918,2726.46 h 61.199" /><path
         id="path288"
         style="fill:none;stroke:#000000;stroke-width:9.18000031;stroke-linecap:butt;stroke-linejoin:miter;stroke-miterlimit:10;stroke-dasharray:none;stroke-opacity:1"
         d="m 3683.63,2726.46 h -61.2" /><path
         id="path290"
         style="fill:none;stroke:#000000;stroke-width:9.18000031;stroke-linecap:butt;stroke-linejoin:miter;stroke-miterlimit:10;stroke-dasharray:none;stroke-opacity:1"
         d="m 918,918 h 122.4" /><path
         id="path292"
         style="fill:none;stroke:#000000;stroke-width:9.18000031;stroke-linecap:butt;stroke-linejoin:miter;stroke-miterlimit:10;stroke-dasharray:none;stroke-opacity:1"
         d="m 3683.63,918 h -122.4" /><path
         id="path294"
         style="fill:none;stroke:#000000;stroke-width:9.18000031;stroke-linecap:butt;stroke-linejoin:miter;stroke-miterlimit:10;stroke-dasharray:none;stroke-opacity:1"
         d="m 918,1196.46 h 122.4" /><path
         id="path296"
         style="fill:none;stroke:#000000;stroke-width:9.18000031;stroke-linecap:butt;stroke-linejoin:miter;stroke-miterlimit:10;stroke-dasharray:none;stroke-opacity:1"
         d="m 3683.63,1196.46 h -122.4" /><path
         id="path298"
         style="fill:none;stroke:#000000;stroke-width:9.18000031;stroke-linecap:butt;stroke-linejoin:miter;stroke-miterlimit:10;stroke-dasharray:none;stroke-opacity:1"
         d="m 918,1474.31 h 122.4" /><path
         id="path300"
         style="fill:none;stroke:#000000;stroke-width:9.18000031;stroke-linecap:butt;stroke-linejoin:miter;stroke-miterlimit:10;stroke-dasharray:none;stroke-opacity:1"
         d="m 3683.63,1474.31 h -122.4" /><path
         id="path302"
         style="fill:none;stroke:#000000;stroke-width:9.18000031;stroke-linecap:butt;stroke-linejoin:miter;stroke-miterlimit:10;stroke-dasharray:none;stroke-opacity:1"
         d="m 918,1752.77 h 122.4" /><path
         id="path304"
         style="fill:none;stroke:#000000;stroke-width:9.18000031;stroke-linecap:butt;stroke-linejoin:miter;stroke-miterlimit:10;stroke-dasharray:none;stroke-opacity:1"
         d="m 3683.63,1752.77 h -122.4" /><path
         id="path306"
         style="fill:none;stroke:#000000;stroke-width:9.18000031;stroke-linecap:butt;stroke-linejoin:miter;stroke-miterlimit:10;stroke-dasharray:none;stroke-opacity:1"
         d="m 918,2030.62 h 122.4" /><path
         id="path308"
         style="fill:none;stroke:#000000;stroke-width:9.18000031;stroke-linecap:butt;stroke-linejoin:miter;stroke-miterlimit:10;stroke-dasharray:none;stroke-opacity:1"
         d="m 3683.63,2030.62 h -122.4" /><path
         id="path310"
         style="fill:none;stroke:#000000;stroke-width:9.18000031;stroke-linecap:butt;stroke-linejoin:miter;stroke-miterlimit:10;stroke-dasharray:none;stroke-opacity:1"
         d="m 918,2309.07 h 122.4" /><path
         id="path312"
         style="fill:none;stroke:#000000;stroke-width:9.18000031;stroke-linecap:butt;stroke-linejoin:miter;stroke-miterlimit:10;stroke-dasharray:none;stroke-opacity:1"
         d="m 3683.63,2309.07 h -122.4" /><path
         id="path314"
         style="fill:none;stroke:#000000;stroke-width:9.18000031;stroke-linecap:butt;stroke-linejoin:miter;stroke-miterlimit:10;stroke-dasharray:none;stroke-opacity:1"
         d="m 918,2586.93 h 122.4" /><path
         id="path316"
         style="fill:none;stroke:#000000;stroke-width:9.18000031;stroke-linecap:butt;stroke-linejoin:miter;stroke-miterlimit:10;stroke-dasharray:none;stroke-opacity:1"
         d="m 3683.63,2586.93 h -122.4" /><path
         id="path318"
         style="fill:none;stroke:#000000;stroke-width:9.18000031;stroke-linecap:butt;stroke-linejoin:miter;stroke-miterlimit:10;stroke-dasharray:none;stroke-opacity:1"
         d="m 918,2865.38 h 122.4" /><path
         id="path320"
         style="fill:none;stroke:#000000;stroke-width:9.18000031;stroke-linecap:butt;stroke-linejoin:miter;stroke-miterlimit:10;stroke-dasharray:none;stroke-opacity:1"
         d="m 3683.63,2865.38 h -122.4" /><g
         transform="scale(10)"
         id="g322"><text
           id="text340"
           style="font-variant:normal;font-weight:normal;font-size:17.13599968px;font-family:'Times New Roman';-inkscape-font-specification:Times-Roman;writing-mode:lr-tb;fill:#000000;fill-opacity:1;fill-rule:nonzero;stroke:none"
           transform="matrix(1,0,0,-1,77.5402,86.1695)"><tspan
             id="tspan324"
             y="0"
             x="0">0</tspan><tspan
             id="tspan326"
             y="-27.6625"
             x="1.40781">1</tspan><tspan
             id="tspan328"
             y="-55.508598"
             x="0">2</tspan><tspan
             id="tspan330"
             y="-83.415604"
             x="0.67343801">3</tspan><tspan
             id="tspan332"
             y="-111.1394"
             x="0">4</tspan><tspan
             id="tspan334"
             y="-138.98511"
             x="0.67343801">5</tspan><tspan
             id="tspan336"
             y="-166.7699"
             x="0.244922">6</tspan><tspan
             id="tspan338"
             y="-194.8609"
             x="0.48984399">7</tspan></text>
<text
           id="text344"
           style="font-variant:normal;font-weight:normal;font-size:17.13599968px;font-family:'Times New Roman';-inkscape-font-specification:Times-Roman;writing-mode:lr-tb;fill:#000000;fill-opacity:1;fill-rule:nonzero;stroke:none"
           transform="matrix(0,1,1,0,64.3211,106.488)"><tspan
             id="tspan342"
             y="0"
             x="0">d</tspan></text>
<text
           id="text348"
           style="font-variant:normal;font-weight:normal;font-size:17.13599968px;font-family:Symbol;-inkscape-font-specification:Symbol;writing-mode:lr-tb;fill:#000000;fill-opacity:1;fill-rule:nonzero;stroke:none"
           transform="matrix(0,1,1,0,64.3211,115.1173)"><tspan
             id="tspan346"
             y="0"
             x="0">σ</tspan></text>
<text
           id="text352"
           style="font-variant:normal;font-weight:normal;font-size:17.13599968px;font-family:'Times New Roman';-inkscape-font-specification:Times-Roman;writing-mode:lr-tb;fill:#000000;fill-opacity:1;fill-rule:nonzero;stroke:none"
           transform="matrix(0,1,1,0,64.3211,125.4603)"><tspan
             id="tspan350"
             y="0"
             x="0 4.7638078 13.331808">/dE</tspan></text>
<text
           id="text356"
           style="font-variant:normal;font-weight:normal;font-size:8.56799984px;font-family:'Times New Roman';-inkscape-font-specification:Times-Roman;writing-mode:lr-tb;fill:#000000;fill-opacity:1;fill-rule:nonzero;stroke:none"
           transform="matrix(0,1,1,0,63.892975,149.2056)"><tspan
             id="tspan354"
             y="0"
             x="0 4.2839999">10</tspan></text>
<text
           id="text360"
           style="font-variant:normal;font-weight:normal;font-size:12.11760044px;font-family:'Times New Roman';-inkscape-font-specification:Times-Roman;writing-mode:lr-tb;fill:#000000;fill-opacity:1;fill-rule:nonzero;stroke:none"
           transform="matrix(0,1,1,0,71.175785,157.8349)"><tspan
             id="tspan358"
             y="0"
             x="0 8.0824394 13.462653 16.492054 21.872269 24.901669 34.329163">Be c.m.</tspan></text>
<text
           id="text364"
           style="font-variant:normal;font-weight:normal;font-size:17.13599968px;font-family:'Times New Roman';-inkscape-font-specification:Times-Roman;writing-mode:lr-tb;fill:#000000;fill-opacity:1;fill-rule:nonzero;stroke:none"
           transform="matrix(0,1,1,0,64.321095,199.5732)"><tspan
             id="tspan362"
             y="0"
             x="0 5.7062879 19.038095 27.606096 32.369904 47.603809 55.212193 67.584381">(mb/MeV)</tspan></text>
</g><path
         id="path366"
         style="fill:none;stroke:#000000;stroke-width:9.18000031;stroke-linecap:butt;stroke-linejoin:miter;stroke-miterlimit:10;stroke-dasharray:none;stroke-opacity:1"
         d="M 918,918 V 2865.38 H 3683.63 V 918 Z" /><path
         id="path368"
         style="fill:none;stroke:#000000;stroke-width:18.36000061;stroke-linecap:butt;stroke-linejoin:miter;stroke-miterlimit:10;stroke-dasharray:none;stroke-opacity:1"
         d="m 4236.27,2308.46 69.15,18.36 69.16,47.74 69.15,55.69 69.16,39.78 69.15,2.45 69.16,-45.29 69.16,-89.35 69.15,-122.4 69.16,-138.31 69.15,-140.15 69.16,-130.35 69.16,-116.29 69.15,-99.75 69.16,-85.07 69.16,-72.83 69.15,-63.65 69.16,-55.69 69.15,-49.57 69.16,-43.45 69.15,-37.33 69.16,-32.44 69.16,-26.93 69.15,-22.64 69.16,-18.97 69.15,-15.91 69.16,-14.08 69.16,-11.63 69.15,-11.02 69.16,-9.18 69.16,-7.95 68.54,-7.35 69.15,-6.115 69.16,-6.121 69.16,-5.508 69.15,-4.894 69.16,-4.899 69.16,-4.894 69.15,-4.285 69.15,-4.286 69.16,-3.671 h 0.61" /><path
         id="path370"
         style="fill:none;stroke:#ff0000;stroke-width:18.36000061;stroke-linecap:butt;stroke-linejoin:miter;stroke-miterlimit:10;stroke-dasharray:none;stroke-opacity:1"
         d="m 4236.27,2550.82 69.15,18.97 69.16,48.35 69.15,55.07 69.16,34.28 69.15,-6.73 69.16,-56.92 69.16,-102.2 69.15,-134.03 69.16,-148.72 69.15,-148.1 69.16,-138.31 69.16,-124.24 69.15,-108.94 69.16,-95.47 69.16,-83.84 69.15,-75.28 69.16,-66.71 69.15,-59.36 69.16,-52.63 69.15,-45.9 69.16,-39.78 69.16,-33.66 69.15,-28.77 69.16,-24.47 69.15,-21.43 69.16,-18.97 69.16,-16.52 69.15,-14.69 69.16,-12.85 69.16,-11.02 68.54,-9.79 69.15,-9.18 69.16,-7.96 69.16,-7.95 69.15,-6.734 69.16,-6.121 69.16,-6.117 69.15,-5.508 69.15,-4.899 69.16,-4.285 0.61,-0.609" /><path
         id="path372"
         style="fill:none;stroke:#0000ff;stroke-width:18.36000061;stroke-linecap:butt;stroke-linejoin:miter;stroke-miterlimit:10;stroke-dasharray:none;stroke-opacity:1"
         d="m 4236.27,2332.33 69.15,13.47 69.16,34.88 69.15,39.17 69.16,24.48 69.15,-7.35 69.16,-47.73 69.16,-86.91 69.15,-117.5 69.16,-132.8 69.15,-135.87 69.16,-127.29 69.16,-113.84 69.15,-97.91 69.16,-82.63 69.16,-69.15 69.15,-59.37 69.16,-51.41 69.15,-45.89 69.16,-40.39 69.15,-36.11 138.32,-59.98 138.31,-44.68 138.31,-32.43 138.31,-23.87 138.32,-18.36 137.69,-15.301 138.32,-12.239 138.31,-9.793 138.31,-8.566 138.31,-7.957 h 0.61" /><path
         id="path374"
         style="fill:none;stroke:#000000;stroke-width:9.18000031;stroke-linecap:butt;stroke-linejoin:miter;stroke-miterlimit:10;stroke-dasharray:none;stroke-opacity:1"
         d="M 4236.27,918 H 7001.89" /><path
         id="path376"
         style="fill:none;stroke:#000000;stroke-width:9.18000031;stroke-linecap:butt;stroke-linejoin:miter;stroke-miterlimit:10;stroke-dasharray:none;stroke-opacity:1"
         d="M 4236.27,2865.38 H 7001.89" /><path
         id="path378"
         style="fill:none;stroke:#000000;stroke-width:9.18000031;stroke-linecap:butt;stroke-linejoin:miter;stroke-miterlimit:10;stroke-dasharray:none;stroke-opacity:1"
         d="m 4927.82,918 v 61.199" /><path
         id="path380"
         style="fill:none;stroke:#000000;stroke-width:9.18000031;stroke-linecap:butt;stroke-linejoin:miter;stroke-miterlimit:10;stroke-dasharray:none;stroke-opacity:1"
         d="m 4927.82,2865.38 v -61.2" /><path
         id="path382"
         style="fill:none;stroke:#000000;stroke-width:9.18000031;stroke-linecap:butt;stroke-linejoin:miter;stroke-miterlimit:10;stroke-dasharray:none;stroke-opacity:1"
         d="m 4236.27,918 v 122.4" /><path
         id="path384"
         style="fill:none;stroke:#000000;stroke-width:9.18000031;stroke-linecap:butt;stroke-linejoin:miter;stroke-miterlimit:10;stroke-dasharray:none;stroke-opacity:1"
         d="m 4236.27,2865.38 v -122.4" /><path
         id="path386"
         style="fill:none;stroke:#000000;stroke-width:9.18000031;stroke-linecap:butt;stroke-linejoin:miter;stroke-miterlimit:10;stroke-dasharray:none;stroke-opacity:1"
         d="m 5619.38,918 v 122.4" /><path
         id="path388"
         style="fill:none;stroke:#000000;stroke-width:9.18000031;stroke-linecap:butt;stroke-linejoin:miter;stroke-miterlimit:10;stroke-dasharray:none;stroke-opacity:1"
         d="m 5619.38,2865.38 v -122.4" /><g
         transform="scale(10)"
         id="g390"><text
           id="text394"
           style="font-variant:normal;font-weight:normal;font-size:17.13599968px;font-family:'Times New Roman';-inkscape-font-specification:Times-Roman;writing-mode:lr-tb;fill:#000000;fill-opacity:1;fill-rule:nonzero;stroke:none"
           transform="matrix(1,0,0,-1,419.587,74.1742)"><tspan
             id="tspan392"
             y="0"
             x="0 133.96684 142.53485">010</tspan></text>
<text
           id="text398"
           style="font-variant:normal;font-weight:normal;font-size:17.13599968px;font-family:Symbol;-inkscape-font-specification:Symbol;writing-mode:lr-tb;fill:#000000;fill-opacity:1;fill-rule:nonzero;stroke:none"
           transform="matrix(1,0,0,-1,537.703,56.0594)"><tspan
             id="tspan396"
             y="0"
             x="0">θ</tspan></text>
<text
           id="text402"
           style="font-variant:normal;font-weight:normal;font-size:17.13599968px;font-family:'Times New Roman';-inkscape-font-specification:Times-Roman;writing-mode:lr-tb;fill:#000000;fill-opacity:1;fill-rule:nonzero;stroke:none"
           transform="matrix(1,0,0,-1,550.86122,56.0594)"><tspan
             id="tspan400"
             y="0"
             x="0 5.7062879 14.274288 21.882671 30.450672">(deg)</tspan></text>
</g><path
         id="path404"
         style="fill:none;stroke:#000000;stroke-width:9.18000031;stroke-linecap:butt;stroke-linejoin:miter;stroke-miterlimit:10;stroke-dasharray:none;stroke-opacity:1"
         d="M 4236.27,918 V 2865.38" /><path
         id="path406"
         style="fill:none;stroke:#000000;stroke-width:9.18000031;stroke-linecap:butt;stroke-linejoin:miter;stroke-miterlimit:10;stroke-dasharray:none;stroke-opacity:1"
         d="m 4236.27,1056.93 h 61.19" /><path
         id="path408"
         style="fill:none;stroke:#000000;stroke-width:9.18000031;stroke-linecap:butt;stroke-linejoin:miter;stroke-miterlimit:10;stroke-dasharray:none;stroke-opacity:1"
         d="m 4236.27,1335.38 h 61.19" /><path
         id="path410"
         style="fill:none;stroke:#000000;stroke-width:9.18000031;stroke-linecap:butt;stroke-linejoin:miter;stroke-miterlimit:10;stroke-dasharray:none;stroke-opacity:1"
         d="m 4236.27,1613.23 h 61.19" /><path
         id="path412"
         style="fill:none;stroke:#000000;stroke-width:9.18000031;stroke-linecap:butt;stroke-linejoin:miter;stroke-miterlimit:10;stroke-dasharray:none;stroke-opacity:1"
         d="m 4236.27,1891.69 h 61.19" /><path
         id="path414"
         style="fill:none;stroke:#000000;stroke-width:9.18000031;stroke-linecap:butt;stroke-linejoin:miter;stroke-miterlimit:10;stroke-dasharray:none;stroke-opacity:1"
         d="m 4236.27,2169.54 h 61.19" /><path
         id="path416"
         style="fill:none;stroke:#000000;stroke-width:9.18000031;stroke-linecap:butt;stroke-linejoin:miter;stroke-miterlimit:10;stroke-dasharray:none;stroke-opacity:1"
         d="m 4236.27,2448 h 61.19" /><path
         id="path418"
         style="fill:none;stroke:#000000;stroke-width:9.18000031;stroke-linecap:butt;stroke-linejoin:miter;stroke-miterlimit:10;stroke-dasharray:none;stroke-opacity:1"
         d="m 4236.27,2726.46 h 61.19" /><path
         id="path420"
         style="fill:none;stroke:#000000;stroke-width:9.18000031;stroke-linecap:butt;stroke-linejoin:miter;stroke-miterlimit:10;stroke-dasharray:none;stroke-opacity:1"
         d="m 4236.27,918 h 122.39" /><path
         id="path422"
         style="fill:none;stroke:#000000;stroke-width:9.18000031;stroke-linecap:butt;stroke-linejoin:miter;stroke-miterlimit:10;stroke-dasharray:none;stroke-opacity:1"
         d="m 4236.27,1196.46 h 122.39" /><path
         id="path424"
         style="fill:none;stroke:#000000;stroke-width:9.18000031;stroke-linecap:butt;stroke-linejoin:miter;stroke-miterlimit:10;stroke-dasharray:none;stroke-opacity:1"
         d="m 4236.27,1474.31 h 122.39" /><path
         id="path426"
         style="fill:none;stroke:#000000;stroke-width:9.18000031;stroke-linecap:butt;stroke-linejoin:miter;stroke-miterlimit:10;stroke-dasharray:none;stroke-opacity:1"
         d="m 4236.27,1752.77 h 122.39" /><path
         id="path428"
         style="fill:none;stroke:#000000;stroke-width:9.18000031;stroke-linecap:butt;stroke-linejoin:miter;stroke-miterlimit:10;stroke-dasharray:none;stroke-opacity:1"
         d="m 4236.27,2030.62 h 122.39" /><path
         id="path430"
         style="fill:none;stroke:#000000;stroke-width:9.18000031;stroke-linecap:butt;stroke-linejoin:miter;stroke-miterlimit:10;stroke-dasharray:none;stroke-opacity:1"
         d="m 4236.27,2309.07 h 122.39" /><path
         id="path432"
         style="fill:none;stroke:#000000;stroke-width:9.18000031;stroke-linecap:butt;stroke-linejoin:miter;stroke-miterlimit:10;stroke-dasharray:none;stroke-opacity:1"
         d="m 4236.27,2586.93 h 122.39" /><path
         id="path434"
         style="fill:none;stroke:#000000;stroke-width:9.18000031;stroke-linecap:butt;stroke-linejoin:miter;stroke-miterlimit:10;stroke-dasharray:none;stroke-opacity:1"
         d="m 4236.27,2865.38 h 122.39" /><path
         id="path436"
         style="fill:none;stroke:#000000;stroke-width:9.18000031;stroke-linecap:butt;stroke-linejoin:miter;stroke-miterlimit:10;stroke-dasharray:none;stroke-opacity:1"
         d="M 4236.27,918 V 2865.38 H 7001.89 V 918 Z" /><path
         id="path438"
         style="fill:#ffffff;fill-opacity:1;fill-rule:nonzero;stroke:none"
         d="m 2824.38,3925.37 h 2176.27 v 813.348 H 2824.38 Z" /><path
         id="path440"
         style="fill:none;stroke:#000000;stroke-width:9.18000031;stroke-linecap:butt;stroke-linejoin:miter;stroke-miterlimit:10;stroke-dasharray:none;stroke-opacity:1"
         d="m 2824.38,4738.71 v -813.34 h 2176.27 v 813.34 z" /><g
         transform="scale(10)"
         id="g442"><text
           id="text446"
           style="font-variant:normal;font-weight:normal;font-size:17.13599968px;font-family:'Times New Roman';-inkscape-font-specification:Times-Roman;writing-mode:lr-tb;fill:#000000;fill-opacity:1;fill-rule:nonzero;stroke:none"
           transform="matrix(1,0,0,-1,326.196,449.269)"><tspan
             id="tspan444"
             y="0"
             x="0 12.372192">Vp</tspan></text>
<text
           id="text450"
           style="font-variant:normal;font-weight:normal;font-size:12.11760044px;font-family:'Times New Roman';-inkscape-font-specification:Times-Roman;writing-mode:lr-tb;fill:#000000;fill-opacity:1;fill-rule:nonzero;stroke:none"
           transform="matrix(1,0,0,-1,347.0651,459.5506)"><tspan
             id="tspan448"
             y="0"
             x="0 6.0588002">11</tspan></text>
<text
           id="text454"
           style="font-variant:normal;font-weight:normal;font-size:17.13599968px;font-family:'Times New Roman';-inkscape-font-specification:Times-Roman;writing-mode:lr-tb;fill:#000000;fill-opacity:1;fill-rule:nonzero;stroke:none"
           transform="matrix(1,0,0,-1,359.0604,449.269)"><tspan
             id="tspan452"
             y="0"
             x="0 11.429712 19.038095 23.322096 32.849712 45.221905 55.692001 68.064194">Be FOLD </tspan></text>
<text
           id="text458"
           style="font-variant:normal;font-weight:normal;font-size:17.13599968px;font-family:Symbol;-inkscape-font-specification:Symbol;writing-mode:lr-tb;fill:#000000;fill-opacity:1;fill-rule:nonzero;stroke:none"
           transform="matrix(1,0,0,-1,431.3374,449.269)"><tspan
             id="tspan456"
             y="0"
             x="0">σ</tspan></text>
<text
           id="text462"
           style="font-variant:normal;font-weight:normal;font-size:17.13599968px;font-family:'Times New Roman';-inkscape-font-specification:Times-Roman;writing-mode:lr-tb;fill:#000000;fill-opacity:1;fill-rule:nonzero;stroke:none"
           transform="matrix(1,0,0,-1,441.619,449.269)"><tspan
             id="tspan460"
             y="0"
             x="0 9.6647043 18.232704 26.800703 31.084703 44.416512">=38 mb</tspan></text>
</g><path
         id="path464"
         style="fill:none;stroke:#000000;stroke-width:18.36000061;stroke-linecap:butt;stroke-linejoin:miter;stroke-miterlimit:10;stroke-dasharray:none;stroke-opacity:1"
         d="m 2894.76,4566.13 h 244.8" /><g
         transform="scale(10)"
         id="g466"><text
           id="text470"
           style="font-variant:normal;font-weight:normal;font-size:17.13599968px;font-family:'Times New Roman';-inkscape-font-specification:Times-Roman;writing-mode:lr-tb;fill:#000000;fill-opacity:1;fill-rule:nonzero;stroke:none"
           transform="matrix(1,0,0,-1,326.196,420.872)"><tspan
             id="tspan468"
             y="0"
             x="0 12.372192">Vp</tspan></text>
<text
           id="text474"
           style="font-variant:normal;font-weight:normal;font-size:12.11760044px;font-family:'Times New Roman';-inkscape-font-specification:Times-Roman;writing-mode:lr-tb;fill:#000000;fill-opacity:1;fill-rule:nonzero;stroke:none"
           transform="matrix(1,0,0,-1,347.0651,431.1536)"><tspan
             id="tspan472"
             y="0"
             x="0 6.0588002">11</tspan></text>
<text
           id="text478"
           style="font-variant:normal;font-weight:normal;font-size:17.13599968px;font-family:'Times New Roman';-inkscape-font-specification:Times-Roman;writing-mode:lr-tb;fill:#000000;fill-opacity:1;fill-rule:nonzero;stroke:none"
           transform="matrix(1,0,0,-1,359.0604,420.872)"><tspan
             id="tspan476"
             y="0"
             x="0 11.429712 19.038095 23.322096 35.694286 48.066479">Be KD </tspan></text>
<text
           id="text482"
           style="font-variant:normal;font-weight:normal;font-size:17.13599968px;font-family:Symbol;-inkscape-font-specification:Symbol;writing-mode:lr-tb;fill:#000000;fill-opacity:1;fill-rule:nonzero;stroke:none"
           transform="matrix(1,0,0,-1,415.7315,420.872)"><tspan
             id="tspan480"
             y="0"
             x="0">σ</tspan></text>
<text
           id="text486"
           style="font-variant:normal;font-weight:normal;font-size:17.13599968px;font-family:'Times New Roman';-inkscape-font-specification:Times-Roman;writing-mode:lr-tb;fill:#000000;fill-opacity:1;fill-rule:nonzero;stroke:none"
           transform="matrix(1,0,0,-1,426.0745,420.872)"><tspan
             id="tspan484"
             y="0"
             x="0 9.6647043 18.232704 26.800703 31.084703 44.416512">=47 mb</tspan></text>
</g><path
         id="path488"
         style="fill:none;stroke:#ff0000;stroke-width:18.36000061;stroke-linecap:butt;stroke-linejoin:miter;stroke-miterlimit:10;stroke-dasharray:none;stroke-opacity:1"
         d="m 2894.76,4282.16 h 244.8" /><g
         transform="scale(10)"
         id="g490"><text
           id="text494"
           style="font-variant:normal;font-weight:normal;font-size:17.13599968px;font-family:'Times New Roman';-inkscape-font-specification:Times-Roman;writing-mode:lr-tb;fill:#000000;fill-opacity:1;fill-rule:nonzero;stroke:none"
           transform="matrix(1,0,0,-1,326.196,399.146)"><tspan
             id="tspan492"
             y="0"
             x="0 9.5276155 17.136 25.704 34.271999 41.880383 49.48877 58.056767">Faddeev </tspan></text>
<text
           id="text498"
           style="font-variant:normal;font-weight:normal;font-size:17.13599968px;font-family:Symbol;-inkscape-font-specification:Symbol;writing-mode:lr-tb;fill:#000000;fill-opacity:1;fill-rule:nonzero;stroke:none"
           transform="matrix(1,0,0,-1,388.6198,399.146)"><tspan
             id="tspan496"
             y="0"
             x="0">σ</tspan></text>
<text
           id="text502"
           style="font-variant:normal;font-weight:normal;font-size:17.13599968px;font-family:'Times New Roman';-inkscape-font-specification:Times-Roman;writing-mode:lr-tb;fill:#000000;fill-opacity:1;fill-rule:nonzero;stroke:none"
           transform="matrix(1,0,0,-1,398.9014,399.146)"><tspan
             id="tspan500"
             y="0"
             x="0 9.6647043 18.232704 26.800703 31.084703 44.416512">=39 mb</tspan></text>
</g><path
         id="path504"
         style="fill:none;stroke:#0000ff;stroke-width:18.36000061;stroke-linecap:butt;stroke-linejoin:miter;stroke-miterlimit:10;stroke-dasharray:none;stroke-opacity:1"
         d="m 2894.76,4047.77 h 244.8" /></g></g></svg>