<?xml version="1.0" encoding="UTF-8" standalone="no"?>
<svg
   xmlns:dc="http://purl.org/dc/elements/1.1/"
   xmlns:cc="http://creativecommons.org/ns#"
   xmlns:rdf="http://www.w3.org/1999/02/22-rdf-syntax-ns#"
   xmlns:svg="http://www.w3.org/2000/svg"
   xmlns="http://www.w3.org/2000/svg"
   viewBox="0 0 793.33331 1122.6667"
   height="1122.6667"
   width="793.33331"
   xml:space="preserve"
   id="svg2"
   version="1.1"><metadata
     id="metadata8"><rdf:RDF><cc:Work
         rdf:about=""><dc:format>image/svg+xml</dc:format><dc:type
           rdf:resource="http://purl.org/dc/dcmitype/StillImage" /></cc:Work></rdf:RDF></metadata><defs
     id="defs6" /><g
     transform="matrix(1.3333333,0,0,-1.3333333,0,1122.6667)"
     id="g10"><g
       transform="scale(0.1)"
       id="g12"><path
         id="path14"
         style="fill:#ffffff;fill-opacity:1;fill-rule:nonzero;stroke:none"
         d="M 0,0 H 7919.89 V 6120 H 0 Z" /><path
         id="path16"
         style="fill:none;stroke:#000000;stroke-width:18.36000061;stroke-linecap:butt;stroke-linejoin:miter;stroke-miterlimit:10;stroke-dasharray:none;stroke-opacity:1"
         d="m 917.387,3258.29 h 14.078 l 17.746,0.61 h 17.75 l 17.746,0.61 17.753,0.62 h 17.74 l 17.75,0.6 17.75,0.62 17.75,0.61 17.75,0.61 17.75,0.61 17.74,0.62 18.36,1.22 17.75,0.61 17.75,0.61 17.75,1.23 17.74,0.61 17.75,1.22 17.75,1.23 17.75,1.22 17.75,1.23 17.75,1.22 17.74,1.23 17.75,1.22 17.75,1.22 17.75,1.23 17.74,1.83 17.75,1.23 17.75,1.83 18.36,1.84 17.75,1.22 17.75,1.84 17.75,2.45 17.74,1.83 17.75,2.45 17.75,2.45 17.75,3.06 17.74,3.06 17.75,3.67 17.75,3.67 17.75,4.29 17.75,4.89 17.75,5.51 17.74,6.12 17.75,6.73 17.75,7.35 18.36,8.56 17.75,9.18 17.74,10.41 17.75,11.63 17.75,12.85 17.75,13.46 17.75,14.08 17.75,14.07 17.74,14.69 17.75,14.69 17.75,14.69 17.75,15.3 17.74,14.68 17.75,15.31 17.75,14.68 17.75,15.3 17.75,15.91 18.36,15.92 17.75,18.97 17.74,23.25 17.75,32.44 17.75,47.13 17.75,67.93 17.74,94.25 17.75,126.68 17.75,159.12 17.75,183.6 17.75,194 17.75,185.44 17.74,153.61 17.75,100.37 17.75,36.11 17.75,-36.11 17.74,-100.37 18.36,-153.61 17.75,-185.44 17.75,-194 17.75,-183.6 17.75,-159.12 17.75,-126.68 17.74,-94.25 17.75,-67.93 17.75,-47.13 17.75,-32.44 17.74,-23.25 17.75,-18.97 17.75,-15.92 17.75,-15.91 17.75,-15.3 17.75,-14.68 17.74,-15.31 18.36,-14.68 17.75,-15.3 17.75,-14.69 17.75,-14.69 17.74,-14.69 17.75,-14.07 17.75,-14.08 17.75,-13.46 17.75,-12.85 17.75,-11.63 17.74,-10.41 17.75,-9.18 17.75,-8.56 17.75,-7.35 17.74,-6.73 17.75,-6.12 17.75,-5.51 18.36,-4.89 17.75,-4.29 17.75,-3.67 17.75,-3.67 17.74,-3.06 17.75,-3.06 17.75,-2.45 17.75,-2.45 17.74,-1.83 17.75,-2.45 17.75,-1.84 17.75,-1.22 17.75,-1.84 17.74,-1.83 17.75,-1.23 17.75,-1.83 17.75,-1.23 18.36,-1.22 17.75,-1.22 17.74,-1.23 17.75,-1.22 17.75,-1.23 17.75,-1.22 17.75,-1.23 17.75,-1.22 17.74,-0.61 17.75,-1.23 17.75,-0.61 17.75,-0.61 17.74,-1.22 17.75,-0.62 17.75,-0.61 17.75,-0.61 17.75,-0.61 18.36,-0.62 17.75,-0.6 h 17.74 l 17.75,-0.62 17.75,-0.61 h 17.75 l 17.74,-0.61 h 14.08" /><path
         id="path18"
         style="fill:none;stroke:#ff0000;stroke-width:18.36000061;stroke-linecap:butt;stroke-linejoin:miter;stroke-miterlimit:10;stroke-dasharray:none;stroke-opacity:1"
         d="m 917.387,3258.9 h 14.078 l 17.746,0.61 17.75,0.62 h 17.746 l 17.753,0.6 17.74,0.62 17.75,0.61 17.75,0.61 17.75,0.61 17.75,0.62 17.75,0.61 17.74,1.22 18.36,0.61 17.75,1.23 17.75,0.61 17.75,1.22 17.74,1.23 17.75,1.22 17.75,1.23 17.75,1.22 17.75,1.23 17.75,1.22 17.74,1.22 17.75,1.84 17.75,1.22 17.75,1.84 17.74,1.22 17.75,1.84 17.75,1.83 18.36,1.84 17.75,1.84 17.75,1.83 17.75,2.45 17.74,2.45 17.75,3.06 17.75,3.06 17.75,3.06 17.74,3.67 17.75,4.28 17.75,4.29 17.75,5.51 17.75,5.5 17.75,6.73 17.74,7.35 17.75,8.57 17.75,9.18 18.36,9.79 17.75,11.02 17.74,11.63 17.75,12.85 17.75,13.46 17.75,14.69 17.75,15.91 17.75,16.52 17.74,17.14 17.75,17.14 17.75,17.74 17.75,17.14 17.74,17.14 17.75,17.13 17.75,16.53 17.75,17.13 17.75,17.75 18.36,19.59 17.75,22.03 17.74,25.7 17.75,34.27 17.75,47.74 17.75,66.09 17.74,93.03 17.75,126.07 17.75,161.57 17.75,193.39 17.75,208.69 17.75,205.63 17.74,176.26 17.75,120.56 17.75,43.46 17.75,-43.46 17.74,-120.56 18.36,-176.26 17.75,-205.63 17.75,-208.69 17.75,-193.39 17.75,-161.57 17.75,-126.07 17.74,-93.03 17.75,-66.09 17.75,-47.74 17.75,-34.27 17.74,-25.7 17.75,-22.03 17.75,-19.59 17.75,-17.75 17.75,-17.13 17.75,-16.53 17.74,-17.13 18.36,-17.14 17.75,-17.14 17.75,-17.74 17.75,-17.14 17.74,-17.14 17.75,-16.52 17.75,-15.91 17.75,-14.69 17.75,-13.46 17.75,-12.85 17.74,-11.63 17.75,-11.02 17.75,-9.79 17.75,-9.18 17.74,-8.57 17.75,-7.35 17.75,-6.73 18.36,-5.5 17.75,-5.51 17.75,-4.29 17.75,-4.28 17.74,-3.67 17.75,-3.06 17.75,-3.06 17.75,-3.06 17.74,-2.45 17.75,-2.45 17.75,-1.83 17.75,-1.84 17.75,-1.84 17.74,-1.83 17.75,-1.84 17.75,-1.22 17.75,-1.84 18.36,-1.22 17.75,-1.84 17.74,-1.22 17.75,-1.22 17.75,-1.23 17.75,-1.22 17.75,-1.23 17.75,-1.22 17.74,-1.23 17.75,-1.22 17.75,-0.61 17.75,-1.23 17.74,-0.61 17.75,-1.22 17.75,-0.61 17.75,-0.62 17.75,-0.61 18.36,-0.61 17.75,-0.61 17.74,-0.62 17.75,-0.6 h 17.75 l 17.75,-0.62 17.74,-0.61 h 14.08" /><path
         id="path20"
         style="fill:none;stroke:#0000ff;stroke-width:18.36000061;stroke-linecap:butt;stroke-linejoin:miter;stroke-miterlimit:10;stroke-dasharray:none;stroke-opacity:1"
         d="m 917.387,3263.18 h 5.508 l 4.285,0.62 h 14.078 l 4.281,0.61 h 4.899 4.281 4.898 l 4.281,0.61 h 4.899 4.281 4.899 l 4.285,0.61 h 4.894 4.285 l 4.895,0.61 h 4.894 4.29 4.89 l 4.29,0.62 h 4.89 4.29 l 4.89,0.61 h 4.28 4.9 l 4.28,0.61 h 4.9 4.29 l 4.89,0.61 h 4.29 4.89 l 4.9,0.61 h 4.28 4.9 l 4.28,0.62 h 4.9 4.28 l 4.9,0.61 h 4.28 l 4.9,0.61 h 4.28 4.9 l 4.28,0.61 h 4.9 l 4.28,0.61 h 4.9 l 4.28,0.62 h 4.9 l 4.89,0.61 h 4.29 4.89 l 4.29,0.61 h 4.9 l 4.28,0.61 h 4.9 l 4.28,0.62 h 4.9 l 4.28,0.61 h 4.9 l 4.28,0.61 4.89,0.61 h 4.29 l 4.89,0.61 h 4.9 l 4.28,0.61 h 4.9 l 4.28,0.62 4.9,0.61 h 4.28 l 4.9,0.61 4.28,0.61 h 4.9 l 4.28,0.61 h 4.9 l 4.28,0.62 4.9,0.61 4.28,0.61 h 4.9 l 4.29,0.61 4.89,0.62 h 4.89 l 4.29,0.6 4.89,0.62 4.29,0.61 4.89,0.61 h 4.29 l 4.9,0.61 4.28,0.62 4.9,0.61 4.28,0.61 4.9,0.61 h 4.28 l 4.9,0.61 4.28,0.62 4.9,0.61 4.89,0.61 4.29,0.61 4.89,0.62 4.29,0.6 4.89,0.62 4.29,0.61 4.89,0.61 4.29,0.61 4.89,0.62 4.29,0.61 4.89,0.61 4.28,1.22 4.9,0.62 4.28,0.61 4.9,0.61 4.29,0.61 4.89,0.61 4.9,1.23 4.28,0.61 4.9,0.61 4.28,0.61 4.9,1.23 4.28,0.61 4.9,0.61 4.28,1.23 4.9,0.61 4.28,0.61 4.9,1.22 4.28,0.62 4.9,1.22 4.28,0.61 4.9,1.23 4.89,0.61 4.29,1.22 4.89,0.62 4.29,1.22 4.89,1.22 4.29,0.61 4.89,1.23 4.29,1.22 4.9,0.61 4.28,1.23 4.9,1.22 4.28,1.22 4.9,0.62 4.28,1.22 4.9,1.23 4.28,1.22 4.89,1.22 4.9,1.23 4.28,1.22 4.9,1.22 4.28,1.23 4.9,1.22 4.28,1.23 4.9,1.22 4.28,1.23 4.9,1.22 4.28,1.22 4.9,1.84 4.28,1.22 4.9,1.23 4.28,1.22 4.9,1.23 4.9,1.22 4.28,1.84 4.9,1.22 4.28,1.22 4.89,1.23 4.29,1.22 4.89,1.84 4.29,1.22 4.89,1.23 4.29,1.83 4.9,1.23 4.28,1.22 4.9,1.83 4.28,1.23 4.9,1.22 4.28,1.84 4.9,1.22 4.89,1.84 4.29,1.22 4.89,1.23 4.29,1.83 4.89,1.23 4.29,1.84 4.89,1.83 4.29,1.22 4.89,1.84 4.29,1.22 4.89,1.84 4.29,1.23 4.89,1.83 4.28,1.84 4.9,1.22 4.9,1.84 4.28,1.83 4.9,1.22 4.28,1.84 4.9,1.84 4.28,1.22 4.9,1.84 4.28,1.22 4.9,1.84 4.28,1.22 4.9,1.84 4.28,1.22 4.9,1.84 4.28,1.22 4.9,1.84 4.28,1.22 4.9,1.84 4.89,1.22 4.29,1.23 4.89,1.83 4.29,1.23 4.89,1.83 4.29,1.23 4.89,1.22 4.29,1.83 4.89,1.23 4.29,1.84 4.9,1.22 4.28,1.84 4.9,1.83 4.28,1.22 4.9,1.84 4.89,1.84 4.29,1.83 4.89,1.84 4.28,2.45 4.9,1.83 4.28,1.84 4.9,2.45 4.28,2.45 4.9,1.83 4.28,2.45 4.9,2.45 4.28,3.06 4.9,2.45 4.28,3.05 4.9,3.07 4.28,3.67 4.9,3.06 4.9,3.67 4.28,4.28 4.9,3.68 4.28,4.89 4.9,4.9 4.28,4.89 4.89,5.51 4.29,6.12 4.89,6.73 4.29,6.74 4.89,7.95 4.29,8.57 4.9,9.18 4.28,10.4 4.9,11.02 4.89,12.24 4.29,13.46 4.89,14.69 4.29,16.53 4.89,17.74 4.29,18.98 4.89,20.8 4.29,22.65 4.89,25.09 4.29,26.32 4.89,28.76 4.29,30.6 4.89,33.05 4.29,35.5 4.89,37.33 4.29,39.77 4.89,41.62 4.9,44.06 4.28,45.91 4.9,47.73 4.28,48.96 4.9,51.41 4.28,52.02 4.9,53.86 4.28,53.85 4.9,55.08 4.28,54.47 4.9,54.47 4.28,53.85 4.9,53.25 4.28,51.41 4.9,50.18 4.89,47.74 4.29,44.67 4.89,42.23 4.29,39.17 4.89,34.88 4.29,31.22 4.89,26.92 4.29,22.03 4.89,17.75 4.29,12.85 4.89,7.96 4.29,3.06 4.89,-3.06 4.29,-7.96 4.9,-12.85 4.28,-17.75 4.9,-22.03 4.89,-26.92 4.29,-31.22 4.89,-34.88 4.29,-39.17 4.89,-42.23 4.28,-44.67 4.9,-47.74 4.28,-50.18 4.9,-51.41 4.28,-53.25 4.9,-53.85 4.28,-54.47 4.9,-54.47 4.28,-55.08 4.9,-53.85 4.9,-53.86 4.28,-52.02 4.9,-51.41 4.28,-48.96 4.9,-47.73 4.28,-45.91 4.9,-44.06 4.28,-41.62 4.9,-39.77 4.28,-37.33 4.89,-35.5 4.29,-33.05 4.89,-30.6 4.29,-28.76 4.89,-26.32 4.29,-25.09 4.9,-22.65 4.89,-20.8 4.29,-18.98 4.89,-17.74 4.29,-16.53 4.89,-14.69 4.29,-13.46 4.89,-12.24 4.29,-11.02 4.89,-10.4 4.29,-9.18 4.89,-8.57 4.29,-7.95 4.89,-6.74 4.29,-6.73 4.89,-6.12 4.9,-5.51 4.28,-4.89 4.9,-4.9 4.28,-4.89 4.9,-3.68 4.28,-4.28 4.9,-3.67 4.28,-3.06 4.9,-3.67 4.28,-3.07 4.9,-3.05 4.28,-2.45 4.9,-3.06 4.28,-2.45 4.9,-2.45 4.28,-1.83 4.9,-2.45 4.89,-2.45 4.29,-1.84 4.89,-1.83 4.29,-2.45 4.89,-1.84 4.29,-1.83 4.89,-1.84 4.29,-1.84 4.89,-1.22 4.29,-1.83 4.89,-1.84 4.29,-1.22 4.89,-1.84 4.29,-1.23 4.89,-1.83 4.9,-1.22 4.29,-1.23 4.89,-1.83 4.29,-1.23 4.89,-1.83 4.29,-1.23 4.89,-1.22 4.29,-1.84 4.89,-1.22 4.28,-1.84 4.9,-1.22 4.28,-1.84 4.9,-1.22 4.28,-1.84 4.9,-1.22 4.28,-1.84 4.9,-1.22 4.9,-1.84 4.28,-1.22 4.9,-1.84 4.28,-1.84 4.9,-1.22 4.28,-1.83 4.9,-1.84 4.28,-1.22 4.9,-1.84 4.28,-1.83 4.9,-1.23 4.28,-1.84 4.89,-1.22 4.29,-1.84 4.89,-1.22 4.9,-1.83 4.28,-1.84 4.9,-1.23 4.29,-1.83 4.89,-1.23 4.29,-1.22 4.89,-1.84 4.29,-1.22 4.89,-1.84 4.29,-1.22 4.89,-1.23 4.29,-1.83 4.89,-1.22 4.29,-1.23 4.89,-1.83 4.29,-1.23 4.89,-1.22 4.9,-1.84 4.28,-1.22 4.9,-1.23 4.28,-1.22 4.9,-1.22 4.28,-1.84 4.9,-1.22 4.28,-1.23 4.9,-1.22 4.28,-1.23 4.9,-1.22 4.28,-1.84 4.9,-1.22 4.28,-1.22 4.9,-1.23 4.9,-1.22 4.28,-1.23 4.89,-1.22 4.29,-1.23 4.89,-1.22 4.29,-1.22 4.89,-1.23 4.29,-1.22 4.89,-1.22 4.29,-1.23 4.89,-1.22 4.29,-0.62 4.89,-1.22 4.29,-1.22 4.89,-1.23 4.29,-0.61 4.89,-1.22 4.9,-1.23 4.28,-0.61 4.9,-1.22 4.29,-1.22 4.89,-0.62 4.29,-1.22 4.89,-0.61 4.29,-1.23 4.89,-0.61 4.29,-1.22 4.89,-0.62 4.28,-1.22 4.9,-0.61 4.28,-0.61 4.9,-1.23 4.9,-0.61 4.28,-0.61 4.9,-1.23 4.28,-0.61 4.9,-0.61 4.28,-0.61 4.9,-1.23 4.28,-0.61 4.9,-0.61 4.28,-0.61 4.9,-0.61 4.28,-0.62 4.9,-1.22 4.28,-0.61 4.9,-0.61 4.28,-0.62 4.89,-0.61 4.9,-0.61 4.28,-0.61 4.9,-0.62 4.28,-0.6 4.9,-0.62 4.29,-0.61 4.89,-0.61 4.29,-0.61 4.89,-0.62 4.29,-0.61 h 4.89 l 4.29,-0.61 4.89,-0.61 4.29,-0.61 4.89,-0.62 4.9,-0.61 h 4.28 l 4.9,-0.61 4.28,-0.61 4.9,-0.62 4.28,-0.6 h 4.9 l 4.28,-0.62 4.9,-0.61 h 4.28 l 4.9,-0.61 4.28,-0.61 4.9,-0.62 h 4.28 l 4.9,-0.61 h 4.28 l 4.9,-0.61 4.9,-0.61 h 4.28 l 4.9,-0.61 4.28,-0.62 h 4.89 l 4.29,-0.61 h 4.89 l 4.29,-0.61 h 4.89 l 4.29,-0.61 4.89,-0.61 h 4.29 l 4.89,-0.61 h 4.29 l 4.89,-0.62 h 4.9 l 4.28,-0.61 h 4.9 l 4.28,-0.61 h 4.9 4.28 l 4.9,-0.61 h 4.29 l 4.89,-0.62 h 4.29 l 4.89,-0.61 h 4.29 l 4.89,-0.61 h 4.29 4.89 l 4.28,-0.61 h 4.9 l 4.9,-0.61 h 4.28 4.9 l 4.28,-0.62 h 4.9 4.28 l 4.9,-0.61 h 4.28 4.9 l 4.28,-0.61 h 4.9 4.28 l 4.9,-0.61 h 4.28 4.9 l 4.89,-0.61 h 4.29 4.89 l 4.28,-0.62 h 4.9 4.28 4.9 l 4.28,-0.61 h 4.9 4.29 l 4.89,-0.61 h 4.29 4.89 4.29 l 4.89,-0.61 h 4.29 4.89 4.9 l 4.28,-0.61 h 4.9 4.28 4.9 l 4.28,-0.62 h 4.9 0.61" /><path
         id="path22"
         style="fill:none;stroke:#000000;stroke-width:9.18000031;stroke-linecap:butt;stroke-linejoin:miter;stroke-miterlimit:10;stroke-dasharray:none;stroke-opacity:1"
         d="M 918,3254.62 H 3683.63" /><path
         id="path24"
         style="fill:none;stroke:#000000;stroke-width:9.18000031;stroke-linecap:butt;stroke-linejoin:miter;stroke-miterlimit:10;stroke-dasharray:none;stroke-opacity:1"
         d="M 918,5202 H 3683.63" /><path
         id="path26"
         style="fill:none;stroke:#000000;stroke-width:9.18000031;stroke-linecap:butt;stroke-linejoin:miter;stroke-miterlimit:10;stroke-dasharray:none;stroke-opacity:1"
         d="m 918,3254.62 v 61.2" /><path
         id="path28"
         style="fill:none;stroke:#000000;stroke-width:9.18000031;stroke-linecap:butt;stroke-linejoin:miter;stroke-miterlimit:10;stroke-dasharray:none;stroke-opacity:1"
         d="m 918,5202 v -61.2" /><path
         id="path30"
         style="fill:none;stroke:#000000;stroke-width:9.18000031;stroke-linecap:butt;stroke-linejoin:miter;stroke-miterlimit:10;stroke-dasharray:none;stroke-opacity:1"
         d="m 1839.67,3254.62 v 61.2" /><path
         id="path32"
         style="fill:none;stroke:#000000;stroke-width:9.18000031;stroke-linecap:butt;stroke-linejoin:miter;stroke-miterlimit:10;stroke-dasharray:none;stroke-opacity:1"
         d="m 1839.67,5202 v -61.2" /><path
         id="path34"
         style="fill:none;stroke:#000000;stroke-width:9.18000031;stroke-linecap:butt;stroke-linejoin:miter;stroke-miterlimit:10;stroke-dasharray:none;stroke-opacity:1"
         d="m 2761.34,3254.62 v 61.2" /><path
         id="path36"
         style="fill:none;stroke:#000000;stroke-width:9.18000031;stroke-linecap:butt;stroke-linejoin:miter;stroke-miterlimit:10;stroke-dasharray:none;stroke-opacity:1"
         d="m 2761.34,5202 v -61.2" /><path
         id="path38"
         style="fill:none;stroke:#000000;stroke-width:9.18000031;stroke-linecap:butt;stroke-linejoin:miter;stroke-miterlimit:10;stroke-dasharray:none;stroke-opacity:1"
         d="m 3683.63,3254.62 v 61.2" /><path
         id="path40"
         style="fill:none;stroke:#000000;stroke-width:9.18000031;stroke-linecap:butt;stroke-linejoin:miter;stroke-miterlimit:10;stroke-dasharray:none;stroke-opacity:1"
         d="m 3683.63,5202 v -61.2" /><path
         id="path42"
         style="fill:none;stroke:#000000;stroke-width:9.18000031;stroke-linecap:butt;stroke-linejoin:miter;stroke-miterlimit:10;stroke-dasharray:none;stroke-opacity:1"
         d="m 1378.84,3254.62 v 122.4" /><path
         id="path44"
         style="fill:none;stroke:#000000;stroke-width:9.18000031;stroke-linecap:butt;stroke-linejoin:miter;stroke-miterlimit:10;stroke-dasharray:none;stroke-opacity:1"
         d="M 1378.84,5202 V 5079.6" /><path
         id="path46"
         style="fill:none;stroke:#000000;stroke-width:9.18000031;stroke-linecap:butt;stroke-linejoin:miter;stroke-miterlimit:10;stroke-dasharray:none;stroke-opacity:1"
         d="m 2300.51,3254.62 v 122.4" /><path
         id="path48"
         style="fill:none;stroke:#000000;stroke-width:9.18000031;stroke-linecap:butt;stroke-linejoin:miter;stroke-miterlimit:10;stroke-dasharray:none;stroke-opacity:1"
         d="M 2300.51,5202 V 5079.6" /><path
         id="path50"
         style="fill:none;stroke:#000000;stroke-width:9.18000031;stroke-linecap:butt;stroke-linejoin:miter;stroke-miterlimit:10;stroke-dasharray:none;stroke-opacity:1"
         d="m 3222.79,3254.62 v 122.4" /><path
         id="path52"
         style="fill:none;stroke:#000000;stroke-width:9.18000031;stroke-linecap:butt;stroke-linejoin:miter;stroke-miterlimit:10;stroke-dasharray:none;stroke-opacity:1"
         d="M 3222.79,5202 V 5079.6" /><g
         transform="scale(10)"
         id="g54"><text
           id="text60"
           style="font-variant:normal;font-weight:normal;font-size:17.13599968px;font-family:'Times New Roman';-inkscape-font-specification:Times-Roman;writing-mode:lr-tb;fill:#000000;fill-opacity:1;fill-rule:nonzero;stroke:none"
           transform="matrix(1,0,0,-1,122.4,526.565)"><tspan
             id="tspan56"
             y="0"
             x="0 5.7062879 14.274288 22.842287 103.61179 187.27197 195.83998 204.40797">-2000200</tspan><tspan
             id="tspan58"
             y="-24.480101"
             x="69.155899">p</tspan></text>
<text
           id="text64"
           style="font-variant:normal;font-weight:normal;font-size:12.11760044px;font-family:'Times New Roman';-inkscape-font-specification:Times-Roman;writing-mode:lr-tb;fill:#000000;fill-opacity:1;fill-rule:nonzero;stroke:none"
           transform="matrix(1,0,0,-1,200.1852,544.19041)"><tspan
             id="tspan62"
             y="0"
             x="0">x</tspan></text>
<text
           id="text68"
           style="font-variant:normal;font-weight:normal;font-size:17.13599968px;font-family:'Times New Roman';-inkscape-font-specification:Times-Roman;writing-mode:lr-tb;fill:#000000;fill-opacity:1;fill-rule:nonzero;stroke:none"
           transform="matrix(1,0,0,-1,210.46686,551.0451)"><tspan
             id="tspan66"
             y="0"
             x="0 5.7062879 20.940191 28.548576 40.920769 45.684574 53.292961">(MeV/c)</tspan></text>
</g><path
         id="path70"
         style="fill:none;stroke:#000000;stroke-width:9.18000031;stroke-linecap:butt;stroke-linejoin:miter;stroke-miterlimit:10;stroke-dasharray:none;stroke-opacity:1"
         d="M 918,3254.62 V 5202" /><path
         id="path72"
         style="fill:none;stroke:#000000;stroke-width:9.18000031;stroke-linecap:butt;stroke-linejoin:miter;stroke-miterlimit:10;stroke-dasharray:none;stroke-opacity:1"
         d="M 3683.63,3254.62 V 5202" /><path
         id="path74"
         style="fill:none;stroke:#000000;stroke-width:9.18000031;stroke-linecap:butt;stroke-linejoin:miter;stroke-miterlimit:10;stroke-dasharray:none;stroke-opacity:1"
         d="m 918,3393.54 h 61.199" /><path
         id="path76"
         style="fill:none;stroke:#000000;stroke-width:9.18000031;stroke-linecap:butt;stroke-linejoin:miter;stroke-miterlimit:10;stroke-dasharray:none;stroke-opacity:1"
         d="m 3683.63,3393.54 h -61.2" /><path
         id="path78"
         style="fill:none;stroke:#000000;stroke-width:9.18000031;stroke-linecap:butt;stroke-linejoin:miter;stroke-miterlimit:10;stroke-dasharray:none;stroke-opacity:1"
         d="m 918,3672 h 61.199" /><path
         id="path80"
         style="fill:none;stroke:#000000;stroke-width:9.18000031;stroke-linecap:butt;stroke-linejoin:miter;stroke-miterlimit:10;stroke-dasharray:none;stroke-opacity:1"
         d="m 3683.63,3672 h -61.2" /><path
         id="path82"
         style="fill:none;stroke:#000000;stroke-width:9.18000031;stroke-linecap:butt;stroke-linejoin:miter;stroke-miterlimit:10;stroke-dasharray:none;stroke-opacity:1"
         d="m 918,3950.46 h 61.199" /><path
         id="path84"
         style="fill:none;stroke:#000000;stroke-width:9.18000031;stroke-linecap:butt;stroke-linejoin:miter;stroke-miterlimit:10;stroke-dasharray:none;stroke-opacity:1"
         d="m 3683.63,3950.46 h -61.2" /><path
         id="path86"
         style="fill:none;stroke:#000000;stroke-width:9.18000031;stroke-linecap:butt;stroke-linejoin:miter;stroke-miterlimit:10;stroke-dasharray:none;stroke-opacity:1"
         d="m 918,4228.31 h 61.199" /><path
         id="path88"
         style="fill:none;stroke:#000000;stroke-width:9.18000031;stroke-linecap:butt;stroke-linejoin:miter;stroke-miterlimit:10;stroke-dasharray:none;stroke-opacity:1"
         d="m 3683.63,4228.31 h -61.2" /><path
         id="path90"
         style="fill:none;stroke:#000000;stroke-width:9.18000031;stroke-linecap:butt;stroke-linejoin:miter;stroke-miterlimit:10;stroke-dasharray:none;stroke-opacity:1"
         d="m 918,4506.77 h 61.199" /><path
         id="path92"
         style="fill:none;stroke:#000000;stroke-width:9.18000031;stroke-linecap:butt;stroke-linejoin:miter;stroke-miterlimit:10;stroke-dasharray:none;stroke-opacity:1"
         d="m 3683.63,4506.77 h -61.2" /><path
         id="path94"
         style="fill:none;stroke:#000000;stroke-width:9.18000031;stroke-linecap:butt;stroke-linejoin:miter;stroke-miterlimit:10;stroke-dasharray:none;stroke-opacity:1"
         d="m 918,4784.62 h 61.199" /><path
         id="path96"
         style="fill:none;stroke:#000000;stroke-width:9.18000031;stroke-linecap:butt;stroke-linejoin:miter;stroke-miterlimit:10;stroke-dasharray:none;stroke-opacity:1"
         d="m 3683.63,4784.62 h -61.2" /><path
         id="path98"
         style="fill:none;stroke:#000000;stroke-width:9.18000031;stroke-linecap:butt;stroke-linejoin:miter;stroke-miterlimit:10;stroke-dasharray:none;stroke-opacity:1"
         d="m 918,5063.08 h 61.199" /><path
         id="path100"
         style="fill:none;stroke:#000000;stroke-width:9.18000031;stroke-linecap:butt;stroke-linejoin:miter;stroke-miterlimit:10;stroke-dasharray:none;stroke-opacity:1"
         d="m 3683.63,5063.08 h -61.2" /><path
         id="path102"
         style="fill:none;stroke:#000000;stroke-width:9.18000031;stroke-linecap:butt;stroke-linejoin:miter;stroke-miterlimit:10;stroke-dasharray:none;stroke-opacity:1"
         d="m 918,3254.62 h 122.4" /><path
         id="path104"
         style="fill:none;stroke:#000000;stroke-width:9.18000031;stroke-linecap:butt;stroke-linejoin:miter;stroke-miterlimit:10;stroke-dasharray:none;stroke-opacity:1"
         d="m 3683.63,3254.62 h -122.4" /><path
         id="path106"
         style="fill:none;stroke:#000000;stroke-width:9.18000031;stroke-linecap:butt;stroke-linejoin:miter;stroke-miterlimit:10;stroke-dasharray:none;stroke-opacity:1"
         d="m 918,3533.08 h 122.4" /><path
         id="path108"
         style="fill:none;stroke:#000000;stroke-width:9.18000031;stroke-linecap:butt;stroke-linejoin:miter;stroke-miterlimit:10;stroke-dasharray:none;stroke-opacity:1"
         d="m 3683.63,3533.08 h -122.4" /><path
         id="path110"
         style="fill:none;stroke:#000000;stroke-width:9.18000031;stroke-linecap:butt;stroke-linejoin:miter;stroke-miterlimit:10;stroke-dasharray:none;stroke-opacity:1"
         d="m 918,3810.93 h 122.4" /><path
         id="path112"
         style="fill:none;stroke:#000000;stroke-width:9.18000031;stroke-linecap:butt;stroke-linejoin:miter;stroke-miterlimit:10;stroke-dasharray:none;stroke-opacity:1"
         d="m 3683.63,3810.93 h -122.4" /><path
         id="path114"
         style="fill:none;stroke:#000000;stroke-width:9.18000031;stroke-linecap:butt;stroke-linejoin:miter;stroke-miterlimit:10;stroke-dasharray:none;stroke-opacity:1"
         d="m 918,4089.38 h 122.4" /><path
         id="path116"
         style="fill:none;stroke:#000000;stroke-width:9.18000031;stroke-linecap:butt;stroke-linejoin:miter;stroke-miterlimit:10;stroke-dasharray:none;stroke-opacity:1"
         d="m 3683.63,4089.38 h -122.4" /><path
         id="path118"
         style="fill:none;stroke:#000000;stroke-width:9.18000031;stroke-linecap:butt;stroke-linejoin:miter;stroke-miterlimit:10;stroke-dasharray:none;stroke-opacity:1"
         d="m 918,4367.23 h 122.4" /><path
         id="path120"
         style="fill:none;stroke:#000000;stroke-width:9.18000031;stroke-linecap:butt;stroke-linejoin:miter;stroke-miterlimit:10;stroke-dasharray:none;stroke-opacity:1"
         d="m 3683.63,4367.23 h -122.4" /><path
         id="path122"
         style="fill:none;stroke:#000000;stroke-width:9.18000031;stroke-linecap:butt;stroke-linejoin:miter;stroke-miterlimit:10;stroke-dasharray:none;stroke-opacity:1"
         d="m 918,4645.69 h 122.4" /><path
         id="path124"
         style="fill:none;stroke:#000000;stroke-width:9.18000031;stroke-linecap:butt;stroke-linejoin:miter;stroke-miterlimit:10;stroke-dasharray:none;stroke-opacity:1"
         d="m 3683.63,4645.69 h -122.4" /><path
         id="path126"
         style="fill:none;stroke:#000000;stroke-width:9.18000031;stroke-linecap:butt;stroke-linejoin:miter;stroke-miterlimit:10;stroke-dasharray:none;stroke-opacity:1"
         d="m 918,4923.54 h 122.4" /><path
         id="path128"
         style="fill:none;stroke:#000000;stroke-width:9.18000031;stroke-linecap:butt;stroke-linejoin:miter;stroke-miterlimit:10;stroke-dasharray:none;stroke-opacity:1"
         d="m 3683.63,4923.54 h -122.4" /><g
         transform="scale(10)"
         id="g130"><text
           id="text146"
           style="font-variant:normal;font-weight:normal;font-size:17.13599968px;font-family:'Times New Roman';-inkscape-font-specification:Times-Roman;writing-mode:lr-tb;fill:#000000;fill-opacity:1;fill-rule:nonzero;stroke:none"
           transform="matrix(1,0,0,-1,77.5402,319.831)"><tspan
             id="tspan132"
             y="0"
             x="0">0</tspan><tspan
             id="tspan134"
             y="-27.8461"
             x="-11.5668 -2.9988 1.2852">0.1</tspan><tspan
             id="tspan136"
             y="-55.630901"
             x="-12.97422 -4.40622 -0.12222">0.2</tspan><tspan
             id="tspan138"
             y="-83.476601"
             x="-12.239845 -3.671845 0.61215502">0.3</tspan><tspan
             id="tspan140"
             y="-111.2618"
             x="-12.97422 -4.40622 -0.12222">0.4</tspan><tspan
             id="tspan142"
             y="-138.9852"
             x="-12.239845 -3.671845 0.61215502">0.5</tspan><tspan
             id="tspan144"
             y="-166.77"
             x="-12.729298 -4.1612978 0.122702">0.6</tspan></text>
<text
           id="text150"
           style="font-variant:normal;font-weight:normal;font-size:17.13599968px;font-family:'Times New Roman';-inkscape-font-specification:Times-Roman;writing-mode:lr-tb;fill:#000000;fill-opacity:1;fill-rule:nonzero;stroke:none"
           transform="matrix(0,1,1,0,51.5914,349.146)"><tspan
             id="tspan148"
             y="0"
             x="0">d</tspan></text>
<text
           id="text154"
           style="font-variant:normal;font-weight:normal;font-size:17.13599968px;font-family:Symbol;-inkscape-font-specification:Symbol;writing-mode:lr-tb;fill:#000000;fill-opacity:1;fill-rule:nonzero;stroke:none"
           transform="matrix(0,1,1,0,51.5914,357.77491)"><tspan
             id="tspan152"
             y="0"
             x="0">σ</tspan></text>
<text
           id="text158"
           style="font-variant:normal;font-weight:normal;font-size:17.13599968px;font-family:'Times New Roman';-inkscape-font-specification:Times-Roman;writing-mode:lr-tb;fill:#000000;fill-opacity:1;fill-rule:nonzero;stroke:none"
           transform="matrix(0,1,1,0,51.5914,368.11791)"><tspan
             id="tspan156"
             y="0"
             x="0 4.7638078 13.331808">/dp</tspan></text>
<text
           id="text162"
           style="font-variant:normal;font-weight:normal;font-size:12.11760044px;font-family:'Times New Roman';-inkscape-font-specification:Times-Roman;writing-mode:lr-tb;fill:#000000;fill-opacity:1;fill-rule:nonzero;stroke:none"
           transform="matrix(0,1,1,0,58.44609,389.96631)"><tspan
             id="tspan160"
             y="0"
             x="0">x</tspan></text>
<text
           id="text166"
           style="font-variant:normal;font-weight:normal;font-size:17.13599968px;font-family:'Times New Roman';-inkscape-font-specification:Times-Roman;writing-mode:lr-tb;fill:#000000;fill-opacity:1;fill-rule:nonzero;stroke:none"
           transform="matrix(0,1,1,0,51.5914,400.24797)"><tspan
             id="tspan164"
             y="0"
             x="0 5.7062879 19.038095 27.606096 32.369904 38.076191 53.310097 60.91848 73.290672 78.054482 85.662865 91.369148">(mb/(MeV/c))</tspan></text>
</g><path
         id="path168"
         style="fill:none;stroke:#000000;stroke-width:9.18000031;stroke-linecap:butt;stroke-linejoin:miter;stroke-miterlimit:10;stroke-dasharray:none;stroke-opacity:1"
         d="M 918,3254.62 V 5202 H 3683.63 V 3254.62 Z" /><path
         id="path170"
         style="fill:none;stroke:#000000;stroke-width:18.36000061;stroke-linecap:butt;stroke-linejoin:miter;stroke-miterlimit:10;stroke-dasharray:none;stroke-opacity:1"
         d="m 4235.65,3254.62 h 1.23 l 21.42,0.61 h 255.2 l 21.42,0.61 h 21.42 20.81 l 21.42,0.61 h 21.42 l 21.42,0.61 h 20.8 l 21.43,0.62 21.41,0.61 21.43,0.61 20.81,0.61 21.41,0.62 21.43,0.6 21.41,0.62 20.81,1.22 21.42,1.23 21.42,1.22 21.42,1.84 20.81,1.22 21.42,2.45 21.42,2.45 21.42,2.45 20.81,3.05 21.42,3.68 21.42,3.67 21.42,4.89 20.8,4.9 21.43,5.51 21.41,6.73 21.43,7.34 20.81,7.96 21.41,9.79 21.42,9.79 21.42,10.41 20.81,11.63 21.42,12.24 21.42,12.24 21.42,12.85 20.81,14.07 21.42,13.47 21.42,13.46 21.42,12.85 20.81,13.47 21.42,14.69 21.42,12.24 21.42,11.01 20.8,9.18 21.43,9.79 21.42,12.25 21.42,9.18 20.8,6.11 21.42,5.51 21.42,4.29 21.42,9.18 20.81,15.3 21.42,20.8 21.42,22.04 21.42,1.83 20.81,51.41 21.42,94.25 21.42,129.13 21.42,184.21 20.81,184.83 21.42,142.59 21.42,140.76 21.42,159.74 20.81,89.35 21.42,7.95 21.42,-69.16 21.42,-162.78 20.8,-190.34 21.42,-173.81 21.42,-156.67 21.42,-146.88 20.81,-123.62 21.42,-94.25 21.42,-68.54 21.42,-42.84 21.42,-31.21 20.81,-21.43 21.42,-10.4 21.42,-4.9 21.42,-3.67 20.81,-2.44 21.42,-1.23 21.42,-1.84 21.42,-3.67 20.81,-4.28 21.42,-6.12 21.42,-7.34 21.42,-8.58 20.8,-10.4 21.42,-11.01 21.43,-12.25 21.41,-12.85 20.81,-13.46 21.42,-14.08 21.42,-14.07 21.42,-14.08 20.81,-12.85 21.42,-12.85 21.42,-12.24 21.42,-11.02 20.81,-10.4 21.42,-9.18 21.42,-8.57 21.42,-7.95 20.81,-6.74 21.42,-6.12 21.42,-5.5 21.42,-4.29 20.81,-3.06 21.41,-3.06 21.43,-2.45 21.41,-1.22 20.81,-1.22 21.42,-0.62 h 0.61" /><path
         id="path172"
         style="fill:none;stroke:#ff0000;stroke-width:18.36000061;stroke-linecap:butt;stroke-linejoin:miter;stroke-miterlimit:10;stroke-dasharray:none;stroke-opacity:1"
         d="m 4235.65,3254.62 h 42.23 l 21.42,0.61 h 255.2 l 21.43,0.61 h 21.41 21.43 l 20.8,0.61 h 21.42 21.42 l 21.42,0.61 20.81,0.62 21.42,0.61 21.42,0.61 21.42,1.23 21.42,0.6 20.81,1.23 21.42,1.22 21.42,1.23 21.42,2.45 20.81,1.83 21.42,2.45 21.42,3.06 21.42,3.06 20.81,4.28 21.41,4.29 21.43,4.28 21.41,6.12 21.43,6.12 20.8,6.74 21.42,7.34 21.42,9.18 21.42,9.18 20.81,11.01 21.42,11.02 21.42,12.24 21.42,14.08 20.81,14.07 21.42,15.3 21.42,15.92 21.42,16.52 21.42,16.52 20.81,17.14 21.42,15.91 21.41,16.52 21.43,15.3 20.81,15.3 21.41,12.86 21.43,12.85 21.41,11.01 20.81,9.8 21.42,9.18 21.42,7.95 21.42,8.57 21.42,9.18 20.81,11.01 21.42,14.69 21.42,21.42 21.42,30.61 20.81,39.77 21.42,65.49 21.42,80.78 21.42,105.88 20.81,159.12 21.41,162.79 21.43,171.97 21.41,194.62 21.43,126.07 20.81,49.57 21.41,-17.74 21.42,-101.6 21.42,-170.74 20.81,-183.61 21.42,-176.86 21.42,-170.75 21.42,-134.03 20.81,-107.71 21.42,-78.95 21.42,-53.86 21.42,-36.1 21.42,-19.59 20.81,-9.79 21.42,-4.29 h 21.42 l 21.42,1.23 20.81,0.61 21.41,-1.22 21.43,-1.84 21.42,-4.89 20.8,-8.57 21.42,-10.4 21.42,-13.47 21.42,-15.91 21.42,-17.14 20.81,-18.36 21.42,-19.58 21.42,-19.58 21.42,-20.2 20.81,-18.36 21.42,-17.75 21.42,-17.75 21.42,-15.3 20.81,-14.69 21.42,-13.46 21.42,-12.85 21.42,-11.02 21.42,-10.4 20.81,-9.18 21.42,-8.57 21.42,-6.73 21.42,-6.12 20.8,-4.9 21.42,-4.28 21.43,-3.67 21.41,-2.45 20.81,-1.84 21.42,-1.84 21.42,-1.22 21.42,-0.61 h 0.61" /><path
         id="path174"
         style="fill:none;stroke:#0000ff;stroke-width:18.36000061;stroke-linecap:butt;stroke-linejoin:miter;stroke-miterlimit:10;stroke-dasharray:none;stroke-opacity:1"
         d="m 4235.65,3257.68 16.53,0.61 h 21.42 l 20.8,0.61 h 20.81 l 20.81,0.61 21.42,0.62 20.81,0.6 20.8,0.62 20.81,0.61 21.43,0.61 20.8,0.61 20.81,1.23 21.42,0.61 20.81,1.22 20.81,0.62 20.81,1.22 21.41,0.61 20.81,1.23 20.81,1.22 20.81,1.22 21.42,1.23 20.81,1.22 20.81,1.23 20.8,1.83 21.42,1.84 20.81,1.83 20.81,1.84 20.81,2.45 21.42,1.83 20.8,2.45 20.81,1.84 21.42,2.44 20.81,1.84 20.81,2.45 20.81,2.45 21.42,1.83 20.8,2.45 20.81,2.45 20.81,2.45 21.42,2.45 20.81,3.06 20.81,3.06 21.42,3.06 20.81,3.06 20.8,3.05 20.81,3.07 21.42,3.06 20.81,3.67 20.81,3.06 20.8,3.06 21.42,3.06 20.81,3.06 20.81,3.06 20.81,3.06 21.42,3.06 20.81,3.06 20.81,3.67 20.8,4.89 21.42,4.9 20.81,6.73 20.81,8.57 21.42,10.41 20.81,13.46 20.8,16.52 20.81,20.2 21.42,24.48 20.81,29.38 20.81,34.27 20.81,39.78 21.41,49.57 20.81,63.04 20.81,78.33 21.42,93.02 20.81,109.56 20.81,128.52 20.81,151.77 21.42,170.75 20.81,184.21 20.8,186.05 20.81,162.18 21.42,112 20.81,33.04 20.8,-56.3 20.81,-126.69 21.43,-168.91 20.8,-192.78 20.81,-206.85 21.42,-198.9 20.81,-168.31 20.81,-141.98 20.81,-110.16 21.41,-86.29 20.81,-66.1 20.81,-51.4 20.81,-39.17 21.42,-28.15 20.81,-22.03 20.8,-16.53 20.81,-13.46 21.42,-9.8 20.81,-8.56 20.81,-7.35 21.42,-6.73 20.81,-6.12 20.8,-6.12 20.81,-5.51 21.42,-6.12 20.81,-5.51 20.81,-5.5 20.81,-5.51 21.42,-5.51 20.8,-5.51 20.81,-6.12 20.81,-5.51 21.42,-5.5 20.81,-5.51 20.81,-4.9 21.42,-4.89 20.81,-4.9 20.8,-4.28 20.81,-3.68 21.42,-3.67 20.81,-3.06 20.81,-2.45 20.8,-2.44 21.42,-1.84 20.81,-1.84 20.81,-1.22 21.42,-0.61 20.81,-1.22 20.81,-0.62 20.81,-0.61 h 3.05" /><path
         id="path176"
         style="fill:none;stroke:#000000;stroke-width:9.18000031;stroke-linecap:butt;stroke-linejoin:miter;stroke-miterlimit:10;stroke-dasharray:none;stroke-opacity:1"
         d="M 4236.27,3254.62 H 7001.89" /><path
         id="path178"
         style="fill:none;stroke:#000000;stroke-width:9.18000031;stroke-linecap:butt;stroke-linejoin:miter;stroke-miterlimit:10;stroke-dasharray:none;stroke-opacity:1"
         d="M 4236.27,5202 H 7001.89" /><path
         id="path180"
         style="fill:none;stroke:#000000;stroke-width:9.18000031;stroke-linecap:butt;stroke-linejoin:miter;stroke-miterlimit:10;stroke-dasharray:none;stroke-opacity:1"
         d="m 4789.51,3254.62 v 61.2" /><path
         id="path182"
         style="fill:none;stroke:#000000;stroke-width:9.18000031;stroke-linecap:butt;stroke-linejoin:miter;stroke-miterlimit:10;stroke-dasharray:none;stroke-opacity:1"
         d="m 4789.51,5202 v -61.2" /><path
         id="path184"
         style="fill:none;stroke:#000000;stroke-width:9.18000031;stroke-linecap:butt;stroke-linejoin:miter;stroke-miterlimit:10;stroke-dasharray:none;stroke-opacity:1"
         d="m 5896.01,3254.62 v 61.2" /><path
         id="path186"
         style="fill:none;stroke:#000000;stroke-width:9.18000031;stroke-linecap:butt;stroke-linejoin:miter;stroke-miterlimit:10;stroke-dasharray:none;stroke-opacity:1"
         d="m 5896.01,5202 v -61.2" /><path
         id="path188"
         style="fill:none;stroke:#000000;stroke-width:9.18000031;stroke-linecap:butt;stroke-linejoin:miter;stroke-miterlimit:10;stroke-dasharray:none;stroke-opacity:1"
         d="m 4236.27,3254.62 v 122.4" /><path
         id="path190"
         style="fill:none;stroke:#000000;stroke-width:9.18000031;stroke-linecap:butt;stroke-linejoin:miter;stroke-miterlimit:10;stroke-dasharray:none;stroke-opacity:1"
         d="M 4236.27,5202 V 5079.6" /><path
         id="path192"
         style="fill:none;stroke:#000000;stroke-width:9.18000031;stroke-linecap:butt;stroke-linejoin:miter;stroke-miterlimit:10;stroke-dasharray:none;stroke-opacity:1"
         d="m 5342.76,3254.62 v 122.4" /><path
         id="path194"
         style="fill:none;stroke:#000000;stroke-width:9.18000031;stroke-linecap:butt;stroke-linejoin:miter;stroke-miterlimit:10;stroke-dasharray:none;stroke-opacity:1"
         d="M 5342.76,5202 V 5079.6" /><g
         transform="scale(10)"
         id="g196"><text
           id="text202"
           style="font-variant:normal;font-weight:normal;font-size:17.13599968px;font-family:'Times New Roman';-inkscape-font-specification:Times-Roman;writing-mode:lr-tb;fill:#000000;fill-opacity:1;fill-rule:nonzero;stroke:none"
           transform="matrix(1,0,0,-1,411.08,526.565)"><tspan
             id="tspan198"
             y="0"
             x="0 8.5679998 17.136 110.5882 119.1562 127.72421">200400</tspan><tspan
             id="tspan200"
             y="-24.7246"
             x="112.669">p</tspan></text>
<text
           id="text206"
           style="font-variant:normal;font-weight:normal;font-size:12.11760044px;font-family:'Times New Roman';-inkscape-font-specification:Times-Roman;writing-mode:lr-tb;fill:#000000;fill-opacity:1;fill-rule:nonzero;stroke:none"
           transform="matrix(1,0,0,-1,532.3783,544.4353)"><tspan
             id="tspan204"
             y="0"
             x="0">z</tspan></text>
<text
           id="text210"
           style="font-variant:normal;font-weight:normal;font-size:17.13599968px;font-family:'Times New Roman';-inkscape-font-specification:Times-Roman;writing-mode:lr-tb;fill:#000000;fill-opacity:1;fill-rule:nonzero;stroke:none"
           transform="matrix(1,0,0,-1,541.98652,551.2896)"><tspan
             id="tspan208"
             y="0"
             x="0 5.7062879 20.940191 28.548576 40.920769 45.684574 53.292961">(MeV/c)</tspan></text>
</g><path
         id="path212"
         style="fill:none;stroke:#000000;stroke-width:9.18000031;stroke-linecap:butt;stroke-linejoin:miter;stroke-miterlimit:10;stroke-dasharray:none;stroke-opacity:1"
         d="M 4236.27,3254.62 V 5202" /><path
         id="path214"
         style="fill:none;stroke:#000000;stroke-width:9.18000031;stroke-linecap:butt;stroke-linejoin:miter;stroke-miterlimit:10;stroke-dasharray:none;stroke-opacity:1"
         d="m 4236.27,3498.19 h 61.19" /><path
         id="path216"
         style="fill:none;stroke:#000000;stroke-width:9.18000031;stroke-linecap:butt;stroke-linejoin:miter;stroke-miterlimit:10;stroke-dasharray:none;stroke-opacity:1"
         d="m 4236.27,3984.73 h 61.19" /><path
         id="path218"
         style="fill:none;stroke:#000000;stroke-width:9.18000031;stroke-linecap:butt;stroke-linejoin:miter;stroke-miterlimit:10;stroke-dasharray:none;stroke-opacity:1"
         d="m 4236.27,4471.88 h 61.19" /><path
         id="path220"
         style="fill:none;stroke:#000000;stroke-width:9.18000031;stroke-linecap:butt;stroke-linejoin:miter;stroke-miterlimit:10;stroke-dasharray:none;stroke-opacity:1"
         d="m 4236.27,4958.43 h 61.19" /><path
         id="path222"
         style="fill:none;stroke:#000000;stroke-width:9.18000031;stroke-linecap:butt;stroke-linejoin:miter;stroke-miterlimit:10;stroke-dasharray:none;stroke-opacity:1"
         d="m 4236.27,3254.62 h 122.39" /><path
         id="path224"
         style="fill:none;stroke:#000000;stroke-width:9.18000031;stroke-linecap:butt;stroke-linejoin:miter;stroke-miterlimit:10;stroke-dasharray:none;stroke-opacity:1"
         d="m 4236.27,3741.77 h 122.39" /><path
         id="path226"
         style="fill:none;stroke:#000000;stroke-width:9.18000031;stroke-linecap:butt;stroke-linejoin:miter;stroke-miterlimit:10;stroke-dasharray:none;stroke-opacity:1"
         d="m 4236.27,4228.31 h 122.39" /><path
         id="path228"
         style="fill:none;stroke:#000000;stroke-width:9.18000031;stroke-linecap:butt;stroke-linejoin:miter;stroke-miterlimit:10;stroke-dasharray:none;stroke-opacity:1"
         d="m 4236.27,4715.46 h 122.39" /><path
         id="path230"
         style="fill:none;stroke:#000000;stroke-width:9.18000031;stroke-linecap:butt;stroke-linejoin:miter;stroke-miterlimit:10;stroke-dasharray:none;stroke-opacity:1"
         d="m 4236.27,5202 h 122.39" /><path
         id="path232"
         style="fill:none;stroke:#000000;stroke-width:9.18000031;stroke-linecap:butt;stroke-linejoin:miter;stroke-miterlimit:10;stroke-dasharray:none;stroke-opacity:1"
         d="M 4236.27,3254.62 V 5202 H 7001.89 V 3254.62 Z" /><path
         id="path234"
         style="fill:none;stroke:#000000;stroke-width:18.36000061;stroke-linecap:butt;stroke-linejoin:miter;stroke-miterlimit:10;stroke-dasharray:none;stroke-opacity:1"
         d="m 1246.03,918 h 56.31 l 5.5,1.836 h 20.81 l 4.9,0.613 h 4.9 5.5 l 4.9,0.61 h 5.51 4.89 l 5.51,0.613 h 4.9 4.89 l 5.51,0.613 h 4.9 l 5.5,0.61 h 4.9 l 5.51,0.613 4.9,0.613 h 5.5 l 4.9,0.609 4.89,0.614 5.51,0.613 4.9,0.609 h 5.51 l 4.89,0.614 5.51,1.222 4.9,0.614 4.89,0.613 5.51,0.609 4.89,0.614 5.52,1.222 4.89,0.614 5.51,1.222 4.89,0.613 5.51,1.223 4.9,1.227 4.89,1.222 5.51,1.227 4.9,1.223 5.51,1.835 4.89,1.223 5.51,1.227 4.89,1.836 4.9,1.836 5.51,1.222 4.9,1.836 5.5,1.836 4.9,1.836 5.51,1.836 4.89,2.449 5.51,1.836 4.9,2.445 4.89,2.45 5.51,2.449 4.9,2.445 5.5,2.449 4.9,3.063 5.51,2.445 4.9,3.063 4.89,3.058 5.51,2.45 4.9,3.058 5.5,3.059 4.9,3.062 5.51,3.671 4.9,3.06 5.5,3.06 4.9,3.06 4.9,3.67 5.5,3.06 4.9,3.06 5.51,3.68 4.89,3.05 5.51,3.68 4.9,3.05 5.5,3.68 4.9,3.67 4.9,3.06 5.51,3.67 4.89,3.06 5.51,3.06 4.89,3.06 5.51,3.06 4.9,3.06 4.89,3.06 5.51,3.06 4.9,3.06 5.51,2.45 4.89,3.67 5.51,3.67 4.9,3.06 5.51,3.06 4.89,3.07 4.89,2.44 5.51,2.45 4.9,2.45 5.51,2.45 4.89,1.83 5.51,1.84 4.9,1.83 4.89,1.84 5.51,1.23 4.9,1.83 5.5,3.06 4.9,3.06 5.51,2.45 4.9,2.45 5.5,1.83 4.9,1.84 4.9,1.22 5.5,1.23 4.9,1.22 5.51,1.22 4.89,0.62 5.51,1.22 4.9,0.61 4.9,1.23 5.5,1.22 4.9,0.61 5.51,0.61 4.89,1.23 5.51,1.83 4.9,1.84 5.5,3.06 4.9,3.06 4.9,3.06 5.5,4.28 4.9,4.9 5.51,4.9 4.9,6.12 5.5,6.12 4.9,7.34 4.89,4.28 5.51,-6.12 4.9,-1.83 5.51,1.83 4.89,5.51 5.51,8.57 4.9,12.24 5.51,14.69 4.89,17.75 4.9,19.58 5.51,22.64 4.89,23.87 5.51,26.93 4.89,28.77 5.51,29.98 4.9,34.89 4.89,41.61 5.51,41.01 4.9,39.78 5.51,38.55 4.89,37.34 5.51,35.49 4.89,34.88 5.51,33.05 4.9,31.83 4.9,29.98 5.5,28.16 4.9,26.92 5.51,25.71 4.89,23.25 5.51,31.21 4.9,37.95 4.89,31.21 5.51,26.32 4.9,20.81 5.5,15.3 4.9,10.4 5.51,6.12 4.9,1.22 5.5,-3.06 4.9,-6.73 4.9,-10.4 5.5,-13.47 4.9,-17.13 5.51,-20.2 4.89,-33.05 5.51,-39.16 4.9,-37.95 4.9,-37.94 5.5,-36.72 4.9,-35.5 5.51,-34.88 4.89,-33.66 5.51,-33.05 4.9,-31.82 5.5,-31.22 4.9,-30.6 4.9,-29.37 5.51,-28.15 4.89,-27.54 5.51,-28.77 4.9,-28.76 5.5,-26.32 4.9,-25.7 4.89,-23.26 5.51,-22.64 4.9,-20.81 5.51,-19.58 4.89,-18.36 5.51,-17.14 4.9,-15.91 5.51,-14.69 4.89,-13.47 4.89,-12.23 5.51,-11.63 4.9,-9.18 5.51,-7.96 4.89,-7.34 5.51,-7.35 4.9,-6.11 4.89,-6.13 5.51,-5.5 4.9,-5.51 5.51,-4.29 4.89,-4.28 5.51,-4.28 4.89,-3.06 5.51,-3.06 4.9,-3.06 4.9,-2.45 5.5,-1.23 4.9,-1.22 5.51,-1.22 4.89,-0.62 5.51,-1.22 4.9,-0.61 4.9,-1.22 5.5,-0.62 4.9,-0.61 5.51,-0.61 4.89,-0.61 5.51,-0.62 4.9,-0.61 5.5,-0.61 4.9,-0.61 4.9,-0.61 h 5.5 l 4.9,-0.62 h 5.51 l 4.9,-0.61 5.5,-0.61 4.9,-0.61 4.9,-0.62 5.5,-0.6 4.9,-0.62 5.51,-1.22 4.89,-0.61 5.51,-1.23 4.9,-0.61 5.5,-1.22 4.9,-1.23 4.9,-1.22 5.51,-0.61 4.89,-1.84 5.51,-1.22 4.89,-1.23 5.51,-1.22 4.9,-1.84 4.89,-1.22 5.51,-1.84 4.9,-1.22 5.51,-1.84 4.89,-1.84 5.51,-1.83 4.89,-1.84 5.52,-1.83 4.89,-1.84 4.9,-1.84 5.5,-1.83 4.9,-1.84 5.51,-2.44 4.89,-1.84 5.51,-1.83 4.9,-2.45 4.89,-1.84 5.51,-2.45 4.9,-1.83 5.5,-2.45 4.9,-2.45 5.51,-1.84 4.9,-2.44 5.5,-2.45 4.9,-2.45 4.9,-1.83 5.5,-2.45 4.9,-2.45 5.51,-1.84 4.89,-2.44 5.51,-2.45 4.9,-2.45 4.9,-1.84 5.5,-2.44 4.9,-2.45 5.51,-1.84 4.89,-2.45 5.51,-1.83 4.9,-2.45 5.5,-2.45 4.9,-1.84 4.9,-2.44 5.51,-1.84 4.89,-1.84 5.51,-2.445 4.9,-1.836 5.5,-1.836 4.9,-1.836 4.89,-1.836 5.51,-1.836 4.9,-1.836 5.51,-1.836 4.89,-1.836 5.51,-1.223 4.9,-1.836 5.51,-1.835 4.89,-1.223 4.89,-1.836 5.52,-1.227 4.89,-1.222 5.51,-1.836 4.89,-1.227 5.51,-1.222 4.9,-1.223 4.89,-1.227 5.51,-1.222 4.9,-1.223 5.51,-1.227 4.89,-1.222 5.51,-1.223 4.89,-1.226 5.51,-0.61 4.9,-1.226 4.9,-1.223 5.5,-0.613 4.9,-1.223 5.51,-0.613 4.89,-1.223 5.51,-0.613 4.9,-1.223 4.89,-0.613 5.51,-1.223 4.9,-0.613 5.51,-0.609 4.89,-0.614 5.51,-1.222 4.9,-0.614 5.5,-0.613 4.9,-0.609 4.9,-0.614 5.5,-1.222 4.9,-0.614 5.51,-0.613 4.9,-0.609 5.5,-0.613 4.9,-0.614 4.9,-0.609 5.5,-0.613 4.9,-0.614 5.51,-0.609 4.89,-0.613 5.51,-0.614 h 4.9 l 5.5,-0.613 4.9,-0.609 4.9,-0.614 5.51,-0.613 4.89,-0.609 h 5.51 l 4.89,-0.613 5.51,-0.614 h 4.9 l 4.89,-0.609 5.51,-0.613 h 4.9 l 5.51,-0.614 4.89,-0.609 h 5.51 l 4.9,-0.613 h 5.51 l 4.89,-0.614 h 4.89 l 5.51,-0.609 h 4.9 l 5.51,-0.613 h 4.89 l 5.51,-0.614 h 4.9 l 4.89,-0.609 h 5.51 l 4.9,-0.613 h 5.5 4.9 l 5.51,-0.614 h 4.9 l 5.5,-0.609 h 4.9 4.9 5.5 l 4.9,-0.613 5.51,-1.836 h 4.89 5.51 4.9 4.9 5.5 l 4.9,-0.613 h 5.51 4.89 5.51 4.9 5.5 4.9 4.9 5.5 l 4.9,-0.61 h 5.51 4.9 5.5 4.9 4.89 5.51 4.9 5.51 4.89 5.51 l 4.9,-0.613 h 5.51 4.89 4.9 l 5.51,0.613 h 4.89 l 5.51,0.61 h 4.89 5.51 4.9 4.89 5.51 4.9 5.51 l 4.89,-0.61 h 5.51 l 4.89,-0.613 h 5.51 4.9 l 4.9,-0.613 h 5.5 l 4.9,-0.61 h 5.51 l 4.89,-0.613 5.51,1.223 h 4.9 4.89 5.51 4.9 5.5 4.9 l 5.51,-1.223 4.9,0.613 h 1.22" /><path
         id="path236"
         style="fill:none;stroke:#ff0000;stroke-width:18.36000061;stroke-linecap:butt;stroke-linejoin:miter;stroke-miterlimit:10;stroke-dasharray:none;stroke-opacity:1"
         d="m 1291.93,918 h 60.59 l 5.51,2.449 h 9.79 l 4.89,0.61 h 5.51 l 4.9,0.613 h 4.9 l 5.5,0.613 h 4.9 l 4.9,0.61 h 4.89 l 5.51,0.613 4.9,0.613 4.89,0.609 5.51,0.614 4.9,0.613 4.89,0.609 4.9,0.614 5.5,0.613 4.9,1.223 4.9,0.613 5.51,1.223 4.89,0.613 4.9,1.223 4.89,1.222 5.51,1.227 4.9,1.222 4.89,1.227 5.51,1.223 4.9,1.222 4.89,1.836 4.9,1.836 5.51,1.227 4.9,1.836 4.89,1.836 5.51,1.836 4.89,1.835 4.9,2.446 4.9,1.836 5.5,2.449 4.9,2.449 4.9,2.445 5.5,2.45 4.9,2.449 4.9,2.445 4.89,3.063 5.51,2.449 4.9,3.059 4.89,3.058 5.51,3.063 4.89,3.058 4.9,3.059 4.9,3.672 5.51,3.672 4.89,3.065 4.9,3.67 5.51,3.67 4.89,3.67 4.9,3.67 5.51,3.68 4.89,4.28 4.9,3.67 4.89,4.28 5.51,4.29 4.9,4.29 4.9,3.67 5.5,4.28 4.9,4.28 4.9,4.29 4.89,4.28 5.51,3.68 4.89,4.28 4.9,4.28 5.51,3.67 4.89,4.29 4.9,3.67 4.9,4.29 5.5,3.67 4.9,3.67 4.9,3.67 5.51,3.67 4.89,3.68 4.89,3.67 4.9,3.67 5.51,3.06 4.9,3.06 4.89,3.06 5.51,3.06 4.9,3.06 4.89,3.06 4.9,2.45 5.51,3.06 4.89,2.45 4.9,2.44 5.51,2.45 4.89,1.84 4.9,2.45 4.89,1.83 5.51,1.84 4.9,1.83 4.9,1.84 5.5,1.83 4.9,1.84 4.89,1.22 4.9,1.84 5.51,1.23 4.89,1.22 4.9,1.22 5.51,1.23 4.89,1.83 4.9,2.45 4.9,1.23 5.5,1.83 4.9,1.84 4.9,2.44 5.51,1.84 4.89,2.45 4.89,2.45 4.9,3.06 5.51,3.05 4.9,4.29 4.89,4.28 5.51,4.29 4.9,5.51 4.89,5.51 4.9,6.73 5.51,7.34 4.89,6.73 4.9,7.35 5.51,9.18 4.89,10.4 4.9,12.24 4.9,13.46 5.5,15.3 4.9,16.53 4.89,17.75 5.51,15.91 4.9,16.52 4.89,18.97 4.9,22.65 5.51,25.09 4.89,26.93 4.9,29.37 5.51,31.22 4.89,33.04 4.9,33.66 4.9,34.89 5.51,36.11 4.89,36.11 4.89,36.1 5.51,36.11 4.9,35.5 4.9,34.27 4.89,34.27 5.51,36.72 4.9,39.78 4.89,34.88 5.51,29.38 4.9,25.09 4.89,19.59 4.9,15.29 5.51,11.02 4.89,6.73 4.9,4.29 5.5,1.84 4.9,-3.07 4.9,-7.95 4.9,-11.63 5.5,-15.3 4.9,-18.97 4.89,-22.65 5.51,-25.09 4.9,-28.76 4.89,-34.89 4.9,-35.49 5.51,-34.88 4.89,-34.89 4.9,-34.88 5.51,-34.89 4.9,-34.27 4.89,-33.66 4.9,-33.66 5.51,-35.5 4.89,-34.27 4.89,-31.82 5.51,-30.6 4.9,-28.77 4.9,-26.92 4.89,-25.71 5.51,-24.48 4.9,-22.64 4.89,-22.03 5.51,-19.59 4.9,-18.97 4.89,-17.13 5.51,-16.53 4.9,-14.69 4.89,-13.46 4.9,-12.24 5.5,-11.02 4.9,-9.79 4.9,-9.18 5.51,-7.96 4.89,-7.34 4.9,-6.73 4.89,-6.12 5.51,-5.51 4.9,-4.29 4.89,-4.28 5.51,-3.06 4.9,-3.06 4.89,-2.45 4.9,-2.44 5.51,-1.84 4.9,-1.22 4.89,-1.23 5.51,-1.22 4.89,-0.61 4.9,-0.62 h 4.9 5.5 l 4.9,-0.61 h 4.9 5.5 4.9 4.9 4.89 5.51 4.9 l 4.89,-0.61 h 5.51 4.89 4.9 l 4.9,-0.61 h 5.51 l 4.89,-0.61 4.9,-0.62 h 5.51 l 4.89,-0.61 4.9,-0.61 4.89,-1.22 5.51,-0.61 4.9,-1.23 4.89,-1.22 5.51,-1.23 4.9,-1.22 4.9,-1.23 4.89,-1.83 5.51,-1.84 4.9,-1.83 4.89,-1.84 5.51,-1.83 4.89,-2.45 4.9,-1.84 4.9,-2.45 5.5,-2.44 4.9,-2.45 4.9,-2.45 5.5,-2.45 4.9,-3.06 4.9,-2.45 4.89,-3.06 5.51,-2.45 4.89,-3.06 4.9,-3.05 5.51,-3.07 4.9,-3.06 4.89,-3.05 4.9,-3.07 5.51,-3.67 4.89,-3.06 4.9,-3.06 5.51,-3.06 4.89,-3.67 4.9,-3.06 4.89,-3.67 5.51,-3.06 4.9,-3.68 4.89,-3.05 5.51,-3.06 4.9,-3.67 4.9,-3.07 4.89,-3.06 5.51,-3.05 4.89,-3.07 4.9,-3.67 5.51,-3.06 4.89,-3.06 4.9,-2.44 4.9,-3.07 5.5,-3.06 4.9,-3.05 4.9,-2.45 5.5,-3.06 4.9,-2.45 4.9,-3.06 4.89,-2.45 5.51,-2.45 4.89,-2.44 4.9,-2.45 5.51,-2.45 4.9,-2.45 4.89,-2.45 4.9,-1.83 5.51,-2.45 4.89,-1.838 4.9,-2.449 5.51,-1.836 4.89,-1.836 4.9,-1.836 4.89,-1.836 5.51,-1.836 4.9,-1.836 4.9,-1.836 5.5,-1.836 4.9,-1.836 4.9,-1.222 4.89,-1.836 5.51,-1.223 4.89,-1.84 4.9,-1.223 5.51,-1.222 4.89,-1.227 4.9,-1.836 4.9,-1.222 5.5,-1.223 4.9,-1.227 4.9,-1.222 5.51,-1.223 4.89,-0.613 4.89,-1.223 4.9,-1.226 5.51,-1.223 4.9,-0.613 4.89,-1.223 5.51,-1.223 4.9,-0.613 4.89,-1.223 5.51,-0.613 4.9,-0.613 4.89,-1.223 4.9,-0.613 5.51,-0.609 4.89,-1.227 4.9,-0.609 5.5,-0.614 4.9,-0.613 4.9,-1.223 4.9,-0.613 5.5,-0.609 4.9,-0.614 4.89,-0.613 5.51,-0.609 4.9,-0.613 4.89,-0.614 4.9,-0.609 5.51,-0.613 4.89,-0.614 4.9,-0.609 5.51,-0.613 4.9,-0.614 4.89,-0.613 h 4.89 l 5.52,-0.609 4.89,-0.614 4.89,-0.613 5.51,-0.609 h 4.9 l 4.9,-0.613 4.89,-0.614 5.51,-0.609 h 4.9 l 4.89,-0.613 5.51,-0.614 h 4.9 l 4.89,-0.609 4.9,-0.613 h 5.51 l 4.89,-0.614 h 4.9 l 5.5,-0.609 h 4.9 l 4.9,-0.613 h 4.89 l 5.51,-0.614 h 4.9 l 4.89,-0.609 h 5.51 l 4.9,-0.613 h 4.89 l 4.9,-0.614 h 5.51 4.89 l 4.9,-0.609 h 5.51 4.9 l 4.89,-0.613 h 4.89 5.51 l 4.9,-0.613 h 4.9 5.5 4.9 l 4.9,-0.61 h 4.89 5.51 4.9 l 4.89,-0.613 h 5.51 4.9 4.89 l 4.9,-0.613 h 5.5 4.9 4.9 5.51 4.89 l 4.9,-0.61 h 4.89 5.51 4.9 4.89 5.51 4.9 4.89 l 4.9,-0.613 h 5.51 4.9 4.89 5.51 4.9 4.89 4.9 5.5 4.9 4.9 5.5 l 4.9,-0.613 h 4.9 4.89 5.51 4.9 4.89 5.51 4.89 l 4.9,0.613 h 4.9 5.51 4.89 4.9 5.51 4.89 4.9 l 4.89,-0.613 h 5.51 l 4.9,-0.61 h 4.89 5.51 4.9 3.67" /><path
         id="path238"
         style="fill:none;stroke:#0000ff;stroke-width:18.36000061;stroke-linecap:butt;stroke-linejoin:miter;stroke-miterlimit:10;stroke-dasharray:none;stroke-opacity:1"
         d="m 918,918 h 92.41 l 91.8,1.223 92.42,3.062 91.8,6.117 92.41,8.571 92.41,11.629 91.8,13.461 92.41,12.855 92.41,14.074 18.36,2.449 18.36,2.446 18.36,3.062 18.36,3.061 18.36,3.67 18.36,4.89 18.36,6.13 18.97,7.95 18.36,10.4 18.37,14.69 18.36,22.04 18.35,50.18 18.36,31.21 18.36,37.33 18.36,62.43 18.98,83.23 18.35,91.19 18.36,137.7 18.37,165.24 18.36,117.5 18.36,160.35 18.36,174.41 18.36,149.33 18.97,80.17 18.36,-5.5 18.36,-89.96 18.36,-138.93 18.36,-145.66 18.36,-116.28 18.36,-132.19 18.36,-182.99 18.97,-97.31 18.36,-124.23 18.36,-74.05 18.36,-59.98 18.36,-44.67 18.36,-39.78 18.36,-47.74 18.36,-25.09 18.97,-18.36 18.36,-14.08 18.36,-11.02 18.36,-9.18 18.36,-6.73 18.36,-5.5 18.36,-4.9 18.36,-3.67 18.97,-3.68 18.36,-3.05 18.36,-3.06 91.8,-13.468 92.42,-13.465 92.41,-15.3 91.8,-13.461 92.41,-9.793 92.41,-7.344 91.8,-4.899 92.41,-3.058 91.8,-1.836 92.41,-0.613 h 92.42 0.61" /><path
         id="path240"
         style="fill:none;stroke:#000000;stroke-width:9.18000031;stroke-linecap:butt;stroke-linejoin:miter;stroke-miterlimit:10;stroke-dasharray:none;stroke-opacity:1"
         d="M 918,918 H 3683.63" /><path
         id="path242"
         style="fill:none;stroke:#000000;stroke-width:9.18000031;stroke-linecap:butt;stroke-linejoin:miter;stroke-miterlimit:10;stroke-dasharray:none;stroke-opacity:1"
         d="M 918,2865.38 H 3683.63" /><path
         id="path244"
         style="fill:none;stroke:#000000;stroke-width:9.18000031;stroke-linecap:butt;stroke-linejoin:miter;stroke-miterlimit:10;stroke-dasharray:none;stroke-opacity:1"
         d="m 1378.84,918 v 61.199" /><path
         id="path246"
         style="fill:none;stroke:#000000;stroke-width:9.18000031;stroke-linecap:butt;stroke-linejoin:miter;stroke-miterlimit:10;stroke-dasharray:none;stroke-opacity:1"
         d="m 1378.84,2865.38 v -61.2" /><path
         id="path248"
         style="fill:none;stroke:#000000;stroke-width:9.18000031;stroke-linecap:butt;stroke-linejoin:miter;stroke-miterlimit:10;stroke-dasharray:none;stroke-opacity:1"
         d="m 2300.51,918 v 61.199" /><path
         id="path250"
         style="fill:none;stroke:#000000;stroke-width:9.18000031;stroke-linecap:butt;stroke-linejoin:miter;stroke-miterlimit:10;stroke-dasharray:none;stroke-opacity:1"
         d="m 2300.51,2865.38 v -61.2" /><path
         id="path252"
         style="fill:none;stroke:#000000;stroke-width:9.18000031;stroke-linecap:butt;stroke-linejoin:miter;stroke-miterlimit:10;stroke-dasharray:none;stroke-opacity:1"
         d="m 3222.79,918 v 61.199" /><path
         id="path254"
         style="fill:none;stroke:#000000;stroke-width:9.18000031;stroke-linecap:butt;stroke-linejoin:miter;stroke-miterlimit:10;stroke-dasharray:none;stroke-opacity:1"
         d="m 3222.79,2865.38 v -61.2" /><path
         id="path256"
         style="fill:none;stroke:#000000;stroke-width:9.18000031;stroke-linecap:butt;stroke-linejoin:miter;stroke-miterlimit:10;stroke-dasharray:none;stroke-opacity:1"
         d="m 918,918 v 122.4" /><path
         id="path258"
         style="fill:none;stroke:#000000;stroke-width:9.18000031;stroke-linecap:butt;stroke-linejoin:miter;stroke-miterlimit:10;stroke-dasharray:none;stroke-opacity:1"
         d="m 918,2865.38 v -122.4" /><path
         id="path260"
         style="fill:none;stroke:#000000;stroke-width:9.18000031;stroke-linecap:butt;stroke-linejoin:miter;stroke-miterlimit:10;stroke-dasharray:none;stroke-opacity:1"
         d="m 1839.67,918 v 122.4" /><path
         id="path262"
         style="fill:none;stroke:#000000;stroke-width:9.18000031;stroke-linecap:butt;stroke-linejoin:miter;stroke-miterlimit:10;stroke-dasharray:none;stroke-opacity:1"
         d="m 1839.67,2865.38 v -122.4" /><path
         id="path264"
         style="fill:none;stroke:#000000;stroke-width:9.18000031;stroke-linecap:butt;stroke-linejoin:miter;stroke-miterlimit:10;stroke-dasharray:none;stroke-opacity:1"
         d="m 2761.34,918 v 122.4" /><path
         id="path266"
         style="fill:none;stroke:#000000;stroke-width:9.18000031;stroke-linecap:butt;stroke-linejoin:miter;stroke-miterlimit:10;stroke-dasharray:none;stroke-opacity:1"
         d="m 2761.34,2865.38 v -122.4" /><path
         id="path268"
         style="fill:none;stroke:#000000;stroke-width:9.18000031;stroke-linecap:butt;stroke-linejoin:miter;stroke-miterlimit:10;stroke-dasharray:none;stroke-opacity:1"
         d="m 3683.63,918 v 122.4" /><path
         id="path270"
         style="fill:none;stroke:#000000;stroke-width:9.18000031;stroke-linecap:butt;stroke-linejoin:miter;stroke-miterlimit:10;stroke-dasharray:none;stroke-opacity:1"
         d="m 3683.63,2865.38 v -122.4" /><g
         transform="scale(10)"
         id="g272"><text
           id="text278"
           style="font-variant:normal;font-weight:normal;font-size:17.13599968px;font-family:'Times New Roman';-inkscape-font-specification:Times-Roman;writing-mode:lr-tb;fill:#000000;fill-opacity:1;fill-rule:nonzero;stroke:none"
           transform="matrix(1,0,0,-1,87.6996,74.1742)"><tspan
             id="tspan274"
             y="0"
             x="0 87.883179 96.451172 180.05035 188.61835 272.21753 280.78552">0102030</tspan><tspan
             id="tspan276"
             y="17.8703"
             x="93.635902">E</tspan></text>
<text
           id="text282"
           style="font-variant:normal;font-weight:normal;font-size:12.11760044px;font-family:'Times New Roman';-inkscape-font-specification:Times-Roman;writing-mode:lr-tb;fill:#000000;fill-opacity:1;fill-rule:nonzero;stroke:none"
           transform="matrix(1,0,0,-1,191.923,49.4496)"><tspan
             id="tspan280"
             y="0"
             x="0 5.3802142">cm</tspan></text>
<text
           id="text286"
           style="font-variant:normal;font-weight:normal;font-size:8.56799984px;font-family:'Times New Roman';-inkscape-font-specification:Times-Roman;writing-mode:lr-tb;fill:#000000;fill-opacity:1;fill-rule:nonzero;stroke:none"
           transform="matrix(1,0,0,-1,206.7949,56.67108)"><tspan
             id="tspan284"
             y="0"
             x="0 4.2839999">10</tspan></text>
<text
           id="text290"
           style="font-variant:normal;font-weight:normal;font-size:12.11760044px;font-family:'Times New Roman';-inkscape-font-specification:Times-Roman;writing-mode:lr-tb;fill:#000000;fill-opacity:1;fill-rule:nonzero;stroke:none"
           transform="matrix(1,0,0,-1,215.42381,49.4496)"><tspan
             id="tspan288"
             y="0"
             x="0 8.0824394">Be</tspan></text>
<text
           id="text294"
           style="font-variant:normal;font-weight:normal;font-size:17.13599968px;font-family:'Times New Roman';-inkscape-font-specification:Times-Roman;writing-mode:lr-tb;fill:#000000;fill-opacity:1;fill-rule:nonzero;stroke:none"
           transform="matrix(1,0,0,-1,233.17191,56.3039)"><tspan
             id="tspan292"
             y="0"
             x="0 5.7062879 20.940191 28.548576 40.920769">(MeV)</tspan></text>
</g><path
         id="path296"
         style="fill:none;stroke:#000000;stroke-width:9.18000031;stroke-linecap:butt;stroke-linejoin:miter;stroke-miterlimit:10;stroke-dasharray:none;stroke-opacity:1"
         d="M 918,918 V 2865.38" /><path
         id="path298"
         style="fill:none;stroke:#000000;stroke-width:9.18000031;stroke-linecap:butt;stroke-linejoin:miter;stroke-miterlimit:10;stroke-dasharray:none;stroke-opacity:1"
         d="M 3683.63,918 V 2865.38" /><path
         id="path300"
         style="fill:none;stroke:#000000;stroke-width:9.18000031;stroke-linecap:butt;stroke-linejoin:miter;stroke-miterlimit:10;stroke-dasharray:none;stroke-opacity:1"
         d="m 918,1161.57 h 61.199" /><path
         id="path302"
         style="fill:none;stroke:#000000;stroke-width:9.18000031;stroke-linecap:butt;stroke-linejoin:miter;stroke-miterlimit:10;stroke-dasharray:none;stroke-opacity:1"
         d="m 3683.63,1161.57 h -61.2" /><path
         id="path304"
         style="fill:none;stroke:#000000;stroke-width:9.18000031;stroke-linecap:butt;stroke-linejoin:miter;stroke-miterlimit:10;stroke-dasharray:none;stroke-opacity:1"
         d="m 918,1648.12 h 61.199" /><path
         id="path306"
         style="fill:none;stroke:#000000;stroke-width:9.18000031;stroke-linecap:butt;stroke-linejoin:miter;stroke-miterlimit:10;stroke-dasharray:none;stroke-opacity:1"
         d="m 3683.63,1648.12 h -61.2" /><path
         id="path308"
         style="fill:none;stroke:#000000;stroke-width:9.18000031;stroke-linecap:butt;stroke-linejoin:miter;stroke-miterlimit:10;stroke-dasharray:none;stroke-opacity:1"
         d="m 918,2135.27 h 61.199" /><path
         id="path310"
         style="fill:none;stroke:#000000;stroke-width:9.18000031;stroke-linecap:butt;stroke-linejoin:miter;stroke-miterlimit:10;stroke-dasharray:none;stroke-opacity:1"
         d="m 3683.63,2135.27 h -61.2" /><path
         id="path312"
         style="fill:none;stroke:#000000;stroke-width:9.18000031;stroke-linecap:butt;stroke-linejoin:miter;stroke-miterlimit:10;stroke-dasharray:none;stroke-opacity:1"
         d="m 918,2621.81 h 61.199" /><path
         id="path314"
         style="fill:none;stroke:#000000;stroke-width:9.18000031;stroke-linecap:butt;stroke-linejoin:miter;stroke-miterlimit:10;stroke-dasharray:none;stroke-opacity:1"
         d="m 3683.63,2621.81 h -61.2" /><path
         id="path316"
         style="fill:none;stroke:#000000;stroke-width:9.18000031;stroke-linecap:butt;stroke-linejoin:miter;stroke-miterlimit:10;stroke-dasharray:none;stroke-opacity:1"
         d="m 918,918 h 122.4" /><path
         id="path318"
         style="fill:none;stroke:#000000;stroke-width:9.18000031;stroke-linecap:butt;stroke-linejoin:miter;stroke-miterlimit:10;stroke-dasharray:none;stroke-opacity:1"
         d="m 3683.63,918 h -122.4" /><path
         id="path320"
         style="fill:none;stroke:#000000;stroke-width:9.18000031;stroke-linecap:butt;stroke-linejoin:miter;stroke-miterlimit:10;stroke-dasharray:none;stroke-opacity:1"
         d="m 918,1404.54 h 122.4" /><path
         id="path322"
         style="fill:none;stroke:#000000;stroke-width:9.18000031;stroke-linecap:butt;stroke-linejoin:miter;stroke-miterlimit:10;stroke-dasharray:none;stroke-opacity:1"
         d="m 3683.63,1404.54 h -122.4" /><path
         id="path324"
         style="fill:none;stroke:#000000;stroke-width:9.18000031;stroke-linecap:butt;stroke-linejoin:miter;stroke-miterlimit:10;stroke-dasharray:none;stroke-opacity:1"
         d="m 918,1891.69 h 122.4" /><path
         id="path326"
         style="fill:none;stroke:#000000;stroke-width:9.18000031;stroke-linecap:butt;stroke-linejoin:miter;stroke-miterlimit:10;stroke-dasharray:none;stroke-opacity:1"
         d="m 3683.63,1891.69 h -122.4" /><path
         id="path328"
         style="fill:none;stroke:#000000;stroke-width:9.18000031;stroke-linecap:butt;stroke-linejoin:miter;stroke-miterlimit:10;stroke-dasharray:none;stroke-opacity:1"
         d="m 918,2378.23 h 122.4" /><path
         id="path330"
         style="fill:none;stroke:#000000;stroke-width:9.18000031;stroke-linecap:butt;stroke-linejoin:miter;stroke-miterlimit:10;stroke-dasharray:none;stroke-opacity:1"
         d="m 3683.63,2378.23 h -122.4" /><path
         id="path332"
         style="fill:none;stroke:#000000;stroke-width:9.18000031;stroke-linecap:butt;stroke-linejoin:miter;stroke-miterlimit:10;stroke-dasharray:none;stroke-opacity:1"
         d="m 918,2865.38 h 122.4" /><path
         id="path334"
         style="fill:none;stroke:#000000;stroke-width:9.18000031;stroke-linecap:butt;stroke-linejoin:miter;stroke-miterlimit:10;stroke-dasharray:none;stroke-opacity:1"
         d="m 3683.63,2865.38 h -122.4" /><g
         transform="scale(10)"
         id="g336"><text
           id="text348"
           style="font-variant:normal;font-weight:normal;font-size:17.13599968px;font-family:'Times New Roman';-inkscape-font-specification:Times-Roman;writing-mode:lr-tb;fill:#000000;fill-opacity:1;fill-rule:nonzero;stroke:none"
           transform="matrix(1,0,0,-1,77.5402,86.1695)"><tspan
             id="tspan338"
             y="0"
             x="0">0</tspan><tspan
             id="tspan340"
             y="-48.531601"
             x="0.67343801">5</tspan><tspan
             id="tspan342"
             y="-97.369102"
             x="-8.6902323 -0.122232">10</tspan><tspan
             id="tspan344"
             y="-145.9007"
             x="-7.9558568 0.61214298">15</tspan><tspan
             id="tspan346"
             y="-194.7382"
             x="-8.6902323 -0.122232">20</tspan></text>
<text
           id="text352"
           style="font-variant:normal;font-weight:normal;font-size:17.13599968px;font-family:'Times New Roman';-inkscape-font-specification:Times-Roman;writing-mode:lr-tb;fill:#000000;fill-opacity:1;fill-rule:nonzero;stroke:none"
           transform="matrix(0,1,1,0,55.6922,111.017)"><tspan
             id="tspan350"
             y="0"
             x="0">d</tspan></text>
<text
           id="text356"
           style="font-variant:normal;font-weight:normal;font-size:17.13599968px;font-family:Symbol;-inkscape-font-specification:Symbol;writing-mode:lr-tb;fill:#000000;fill-opacity:1;fill-rule:nonzero;stroke:none"
           transform="matrix(0,1,1,0,55.6922,119.70723)"><tspan
             id="tspan354"
             y="0"
             x="0">σ</tspan></text>
<text
           id="text360"
           style="font-variant:normal;font-weight:normal;font-size:17.13599968px;font-family:'Times New Roman';-inkscape-font-specification:Times-Roman;writing-mode:lr-tb;fill:#000000;fill-opacity:1;fill-rule:nonzero;stroke:none"
           transform="matrix(0,1,1,0,55.6922,129.98883)"><tspan
             id="tspan358"
             y="0"
             x="0 4.7638078 13.331808">/dE</tspan></text>
<text
           id="text364"
           style="font-variant:normal;font-weight:normal;font-size:12.11760044px;font-family:'Times New Roman';-inkscape-font-specification:Times-Roman;writing-mode:lr-tb;fill:#000000;fill-opacity:1;fill-rule:nonzero;stroke:none"
           transform="matrix(0,1,1,0,62.5465,153.73453)"><tspan
             id="tspan362"
             y="0"
             x="0 5.3802142">cm</tspan></text>
<text
           id="text368"
           style="font-variant:normal;font-weight:normal;font-size:8.56799984px;font-family:'Times New Roman';-inkscape-font-specification:Times-Roman;writing-mode:lr-tb;fill:#000000;fill-opacity:1;fill-rule:nonzero;stroke:none"
           transform="matrix(0,1,1,0,55.26369,168.66733)"><tspan
             id="tspan366"
             y="0"
             x="0 4.2839999">10</tspan></text>
<text
           id="text372"
           style="font-variant:normal;font-weight:normal;font-size:12.11760044px;font-family:'Times New Roman';-inkscape-font-specification:Times-Roman;writing-mode:lr-tb;fill:#000000;fill-opacity:1;fill-rule:nonzero;stroke:none"
           transform="matrix(0,1,1,0,62.5465,177.29663)"><tspan
             id="tspan370"
             y="0"
             x="0 8.0824394">Be</tspan></text>
<text
           id="text376"
           style="font-variant:normal;font-weight:normal;font-size:17.13599968px;font-family:'Times New Roman';-inkscape-font-specification:Times-Roman;writing-mode:lr-tb;fill:#000000;fill-opacity:1;fill-rule:nonzero;stroke:none"
           transform="matrix(0,1,1,0,55.6922,194.98333)"><tspan
             id="tspan374"
             y="0"
             x="0 5.7062879 19.038095 27.606096 32.369904 47.603809 55.212193 67.584381">(mb/MeV)</tspan></text>
</g><path
         id="path378"
         style="fill:none;stroke:#000000;stroke-width:9.18000031;stroke-linecap:butt;stroke-linejoin:miter;stroke-miterlimit:10;stroke-dasharray:none;stroke-opacity:1"
         d="M 918,918 V 2865.38 H 3683.63 V 918 Z" /><path
         id="path380"
         style="fill:none;stroke:#000000;stroke-width:18.36000061;stroke-linecap:butt;stroke-linejoin:miter;stroke-miterlimit:10;stroke-dasharray:none;stroke-opacity:1"
         d="m 4236.27,2492.06 69.15,-51.4 69.16,-144.44 69.15,-210.52 69.16,-239.91 69.15,-233.78 69.16,-200.74 69.16,-155.45 69.15,-107.71 69.16,-68.54 69.15,-39.17 69.16,-22.03 69.16,-11.63 69.15,-7.955 69.16,-5.508 69.16,-4.898 69.15,-4.281 69.16,-4.899 69.15,-3.672 69.16,-4.285 69.15,-3.672 69.16,-4.281 69.16,-3.672 69.15,-4.285 69.16,-4.285 69.15,-4.281 69.16,-3.672 69.16,-3.063 69.15,-3.058 69.16,-2.45 69.16,-1.835 68.54,-1.836 69.15,-1.836 69.16,-1.223 69.16,-1.227 69.15,-1.222 69.16,-0.614 69.16,-1.222 69.15,-0.613 69.15,-0.61 69.16,-0.613 h 0.61" /><path
         id="path382"
         style="fill:none;stroke:#ff0000;stroke-width:18.36000061;stroke-linecap:butt;stroke-linejoin:miter;stroke-miterlimit:10;stroke-dasharray:none;stroke-opacity:1"
         d="m 4236.27,2556.94 69.15,-56.92 69.16,-157.29 69.15,-227.05 69.16,-253.36 69.15,-241.13 69.16,-201.96 69.16,-151.78 69.15,-102.81 69.16,-64.26 69.15,-37.95 69.16,-22.03 69.16,-13.46 69.15,-9.18 69.16,-7.96 69.16,-6.73 69.15,-5.511 69.16,-5.508 69.15,-5.508 69.16,-4.895 69.15,-5.507 69.16,-5.508 69.16,-4.899 69.15,-5.507 69.16,-4.895 69.15,-4.285 69.16,-4.281 69.16,-3.672 69.15,-3.063 69.16,-2.445 69.16,-2.449 68.54,-1.836 69.15,-2.449 69.16,-1.223 69.16,-1.836 69.15,-1.227 69.16,-1.222 69.16,-0.614 69.15,-0.609 69.15,-0.613 69.16,-0.613 h 0.61" /><path
         id="path384"
         style="fill:none;stroke:#0000ff;stroke-width:18.36000061;stroke-linecap:butt;stroke-linejoin:miter;stroke-miterlimit:10;stroke-dasharray:none;stroke-opacity:1"
         d="m 4236.27,2615.69 69.15,-52.64 69.16,-146.87 69.15,-216.04 69.16,-248.47 69.15,-247.25 69.16,-217.87 69.16,-175.03 69.15,-128.52 69.16,-86.91 69.15,-56.3 69.16,-34.27 69.16,-20.813 69.15,-12.852 69.16,-7.957 69.16,-6.117 69.15,-3.672 69.16,-3.062 69.15,-2.445 69.16,-1.836 69.15,-0.614 69.16,-1.222 69.16,-0.614 69.15,-1.222 69.16,-1.227 69.15,-1.222 69.16,-1.223 69.16,-1.836 69.15,-0.613 69.16,-1.227 69.16,-1.223 68.54,-1.222 69.15,-0.613 69.16,-1.223 69.16,-0.613 69.15,-1.223 69.16,-1.227 69.16,-0.609 69.15,-1.227 69.15,-0.609 69.16,-0.613 h 0.61" /><path
         id="path386"
         style="fill:none;stroke:#000000;stroke-width:9.18000031;stroke-linecap:butt;stroke-linejoin:miter;stroke-miterlimit:10;stroke-dasharray:none;stroke-opacity:1"
         d="M 4236.27,918 H 7001.89" /><path
         id="path388"
         style="fill:none;stroke:#000000;stroke-width:9.18000031;stroke-linecap:butt;stroke-linejoin:miter;stroke-miterlimit:10;stroke-dasharray:none;stroke-opacity:1"
         d="M 4236.27,2865.38 H 7001.89" /><path
         id="path390"
         style="fill:none;stroke:#000000;stroke-width:9.18000031;stroke-linecap:butt;stroke-linejoin:miter;stroke-miterlimit:10;stroke-dasharray:none;stroke-opacity:1"
         d="m 4927.82,918 v 61.199" /><path
         id="path392"
         style="fill:none;stroke:#000000;stroke-width:9.18000031;stroke-linecap:butt;stroke-linejoin:miter;stroke-miterlimit:10;stroke-dasharray:none;stroke-opacity:1"
         d="m 4927.82,2865.38 v -61.2" /><path
         id="path394"
         style="fill:none;stroke:#000000;stroke-width:9.18000031;stroke-linecap:butt;stroke-linejoin:miter;stroke-miterlimit:10;stroke-dasharray:none;stroke-opacity:1"
         d="m 4236.27,918 v 122.4" /><path
         id="path396"
         style="fill:none;stroke:#000000;stroke-width:9.18000031;stroke-linecap:butt;stroke-linejoin:miter;stroke-miterlimit:10;stroke-dasharray:none;stroke-opacity:1"
         d="m 4236.27,2865.38 v -122.4" /><path
         id="path398"
         style="fill:none;stroke:#000000;stroke-width:9.18000031;stroke-linecap:butt;stroke-linejoin:miter;stroke-miterlimit:10;stroke-dasharray:none;stroke-opacity:1"
         d="m 5619.38,918 v 122.4" /><path
         id="path400"
         style="fill:none;stroke:#000000;stroke-width:9.18000031;stroke-linecap:butt;stroke-linejoin:miter;stroke-miterlimit:10;stroke-dasharray:none;stroke-opacity:1"
         d="m 5619.38,2865.38 v -122.4" /><g
         transform="scale(10)"
         id="g402"><text
           id="text406"
           style="font-variant:normal;font-weight:normal;font-size:17.13599968px;font-family:'Times New Roman';-inkscape-font-specification:Times-Roman;writing-mode:lr-tb;fill:#000000;fill-opacity:1;fill-rule:nonzero;stroke:none"
           transform="matrix(1,0,0,-1,419.587,74.1742)"><tspan
             id="tspan404"
             y="0"
             x="0 133.96684 142.53485">010</tspan></text>
<text
           id="text410"
           style="font-variant:normal;font-weight:normal;font-size:17.13599968px;font-family:Symbol;-inkscape-font-specification:Symbol;writing-mode:lr-tb;fill:#000000;fill-opacity:1;fill-rule:nonzero;stroke:none"
           transform="matrix(1,0,0,-1,537.703,56.0594)"><tspan
             id="tspan408"
             y="0"
             x="0">θ</tspan></text>
<text
           id="text414"
           style="font-variant:normal;font-weight:normal;font-size:17.13599968px;font-family:'Times New Roman';-inkscape-font-specification:Times-Roman;writing-mode:lr-tb;fill:#000000;fill-opacity:1;fill-rule:nonzero;stroke:none"
           transform="matrix(1,0,0,-1,550.86122,56.0594)"><tspan
             id="tspan412"
             y="0"
             x="0 5.7062879 14.274288 21.882671 30.450672">(deg)</tspan></text>
</g><path
         id="path416"
         style="fill:none;stroke:#000000;stroke-width:9.18000031;stroke-linecap:butt;stroke-linejoin:miter;stroke-miterlimit:10;stroke-dasharray:none;stroke-opacity:1"
         d="M 4236.27,918 V 2865.38" /><path
         id="path418"
         style="fill:none;stroke:#000000;stroke-width:9.18000031;stroke-linecap:butt;stroke-linejoin:miter;stroke-miterlimit:10;stroke-dasharray:none;stroke-opacity:1"
         d="m 4236.27,1159.74 h 61.19" /><path
         id="path420"
         style="fill:none;stroke:#000000;stroke-width:9.18000031;stroke-linecap:butt;stroke-linejoin:miter;stroke-miterlimit:10;stroke-dasharray:none;stroke-opacity:1"
         d="m 4236.27,1646.89 h 61.19" /><path
         id="path422"
         style="fill:none;stroke:#000000;stroke-width:9.18000031;stroke-linecap:butt;stroke-linejoin:miter;stroke-miterlimit:10;stroke-dasharray:none;stroke-opacity:1"
         d="m 4236.27,2134.04 h 61.19" /><path
         id="path424"
         style="fill:none;stroke:#000000;stroke-width:9.18000031;stroke-linecap:butt;stroke-linejoin:miter;stroke-miterlimit:10;stroke-dasharray:none;stroke-opacity:1"
         d="m 4236.27,2621.81 h 61.19" /><path
         id="path426"
         style="fill:none;stroke:#000000;stroke-width:9.18000031;stroke-linecap:butt;stroke-linejoin:miter;stroke-miterlimit:10;stroke-dasharray:none;stroke-opacity:1"
         d="m 4236.27,1403.32 h 122.39" /><path
         id="path428"
         style="fill:none;stroke:#000000;stroke-width:9.18000031;stroke-linecap:butt;stroke-linejoin:miter;stroke-miterlimit:10;stroke-dasharray:none;stroke-opacity:1"
         d="m 4236.27,1890.47 h 122.39" /><path
         id="path430"
         style="fill:none;stroke:#000000;stroke-width:9.18000031;stroke-linecap:butt;stroke-linejoin:miter;stroke-miterlimit:10;stroke-dasharray:none;stroke-opacity:1"
         d="m 4236.27,2378.23 h 122.39" /><path
         id="path432"
         style="fill:none;stroke:#000000;stroke-width:9.18000031;stroke-linecap:butt;stroke-linejoin:miter;stroke-miterlimit:10;stroke-dasharray:none;stroke-opacity:1"
         d="m 4236.27,2865.38 h 122.39" /><path
         id="path434"
         style="fill:none;stroke:#000000;stroke-width:9.18000031;stroke-linecap:butt;stroke-linejoin:miter;stroke-miterlimit:10;stroke-dasharray:none;stroke-opacity:1"
         d="M 4236.27,918 V 2865.38 H 7001.89 V 918 Z" /><path
         id="path436"
         style="fill:#ffffff;fill-opacity:1;fill-rule:nonzero;stroke:none"
         d="M 2861.71,3995.75 H 5038.6 v 810.289 H 2861.71 Z" /><path
         id="path438"
         style="fill:none;stroke:#000000;stroke-width:9.18000031;stroke-linecap:butt;stroke-linejoin:miter;stroke-miterlimit:10;stroke-dasharray:none;stroke-opacity:1"
         d="M 2861.71,4806.04 V 3995.75 H 5038.6 v 810.29 z" /><g
         transform="scale(10)"
         id="g440"><text
           id="text444"
           style="font-variant:normal;font-weight:normal;font-size:17.13599968px;font-family:'Times New Roman';-inkscape-font-specification:Times-Roman;writing-mode:lr-tb;fill:#000000;fill-opacity:1;fill-rule:nonzero;stroke:none"
           transform="matrix(1,0,0,-1,329.929,456.063)"><tspan
             id="tspan442"
             y="0"
             x="0 12.372192">Vp</tspan></text>
<text
           id="text448"
           style="font-variant:normal;font-weight:normal;font-size:12.11760044px;font-family:'Times New Roman';-inkscape-font-specification:Times-Roman;writing-mode:lr-tb;fill:#000000;fill-opacity:1;fill-rule:nonzero;stroke:none"
           transform="matrix(1,0,0,-1,350.8595,466.3446)"><tspan
             id="tspan446"
             y="0"
             x="0 6.0588002">11</tspan></text>
<text
           id="text452"
           style="font-variant:normal;font-weight:normal;font-size:17.13599968px;font-family:'Times New Roman';-inkscape-font-specification:Times-Roman;writing-mode:lr-tb;fill:#000000;fill-opacity:1;fill-rule:nonzero;stroke:none"
           transform="matrix(1,0,0,-1,362.8544,456.063)"><tspan
             id="tspan450"
             y="0"
             x="0 11.429712 19.038095 23.322096 32.849712 45.221905 55.692001 68.064194">Be FOLD </tspan></text>
<text
           id="text456"
           style="font-variant:normal;font-weight:normal;font-size:17.13599968px;font-family:Symbol;-inkscape-font-specification:Symbol;writing-mode:lr-tb;fill:#000000;fill-opacity:1;fill-rule:nonzero;stroke:none"
           transform="matrix(1,0,0,-1,435.0704,456.063)"><tspan
             id="tspan454"
             y="0"
             x="0">σ</tspan></text>
<text
           id="text460"
           style="font-variant:normal;font-weight:normal;font-size:17.13599968px;font-family:'Times New Roman';-inkscape-font-specification:Times-Roman;writing-mode:lr-tb;fill:#000000;fill-opacity:1;fill-rule:nonzero;stroke:none"
           transform="matrix(1,0,0,-1,445.4134,456.063)"><tspan
             id="tspan458"
             y="0"
             x="0 9.6647043 18.232704 26.800703 31.084703 44.416512">=49 mb</tspan></text>
</g><path
         id="path462"
         style="fill:none;stroke:#000000;stroke-width:18.36000061;stroke-linecap:butt;stroke-linejoin:miter;stroke-miterlimit:10;stroke-dasharray:none;stroke-opacity:1"
         d="m 2932.09,4633.45 h 244.8" /><g
         transform="scale(10)"
         id="g464"><text
           id="text468"
           style="font-variant:normal;font-weight:normal;font-size:17.13599968px;font-family:'Times New Roman';-inkscape-font-specification:Times-Roman;writing-mode:lr-tb;fill:#000000;fill-opacity:1;fill-rule:nonzero;stroke:none"
           transform="matrix(1,0,0,-1,329.929,427.666)"><tspan
             id="tspan466"
             y="0"
             x="0 12.372192">Vp</tspan></text>
<text
           id="text472"
           style="font-variant:normal;font-weight:normal;font-size:12.11760044px;font-family:'Times New Roman';-inkscape-font-specification:Times-Roman;writing-mode:lr-tb;fill:#000000;fill-opacity:1;fill-rule:nonzero;stroke:none"
           transform="matrix(1,0,0,-1,350.8595,437.9476)"><tspan
             id="tspan470"
             y="0"
             x="0 6.0588002">11</tspan></text>
<text
           id="text476"
           style="font-variant:normal;font-weight:normal;font-size:17.13599968px;font-family:'Times New Roman';-inkscape-font-specification:Times-Roman;writing-mode:lr-tb;fill:#000000;fill-opacity:1;fill-rule:nonzero;stroke:none"
           transform="matrix(1,0,0,-1,362.8544,427.666)"><tspan
             id="tspan474"
             y="0"
             x="0 11.429712 19.038095 23.322096 35.694286 48.066479">Be KD </tspan></text>
<text
           id="text480"
           style="font-variant:normal;font-weight:normal;font-size:17.13599968px;font-family:Symbol;-inkscape-font-specification:Symbol;writing-mode:lr-tb;fill:#000000;fill-opacity:1;fill-rule:nonzero;stroke:none"
           transform="matrix(1,0,0,-1,415.1806,427.666)"><tspan
             id="tspan478"
             y="0"
             x="0">σ</tspan></text>
<text
           id="text484"
           style="font-variant:normal;font-weight:normal;font-size:17.13599968px;font-family:'Times New Roman';-inkscape-font-specification:Times-Roman;writing-mode:lr-tb;fill:#000000;fill-opacity:1;fill-rule:nonzero;stroke:none"
           transform="matrix(1,0,0,-1,425.4622,427.666)"><tspan
             id="tspan482"
             y="0"
             x="0 9.6647043 18.232704 26.800703 31.084703 44.416512">=54 mb</tspan></text>
</g><path
         id="path486"
         style="fill:none;stroke:#ff0000;stroke-width:18.36000061;stroke-linecap:butt;stroke-linejoin:miter;stroke-miterlimit:10;stroke-dasharray:none;stroke-opacity:1"
         d="m 2932.09,4349.48 h 244.8" /><g
         transform="scale(10)"
         id="g488"><text
           id="text492"
           style="font-variant:normal;font-weight:normal;font-size:17.13599968px;font-family:'Times New Roman';-inkscape-font-specification:Times-Roman;writing-mode:lr-tb;fill:#000000;fill-opacity:1;fill-rule:nonzero;stroke:none"
           transform="matrix(1,0,0,-1,329.929,405.939)"><tspan
             id="tspan490"
             y="0"
             x="0 9.5276155 17.136 25.704 34.271999 41.880383 49.48877 58.056767">Faddeev </tspan></text>
<text
           id="text496"
           style="font-variant:normal;font-weight:normal;font-size:17.13599968px;font-family:Symbol;-inkscape-font-specification:Symbol;writing-mode:lr-tb;fill:#000000;fill-opacity:1;fill-rule:nonzero;stroke:none"
           transform="matrix(1,0,0,-1,392.3528,405.939)"><tspan
             id="tspan494"
             y="0"
             x="0">σ</tspan></text>
<text
           id="text500"
           style="font-variant:normal;font-weight:normal;font-size:17.13599968px;font-family:'Times New Roman';-inkscape-font-specification:Times-Roman;writing-mode:lr-tb;fill:#000000;fill-opacity:1;fill-rule:nonzero;stroke:none"
           transform="matrix(1,0,0,-1,402.6958,405.939)"><tspan
             id="tspan498"
             y="0"
             x="0 9.6647043 18.232704 26.800703 31.084703 44.416512">=51 mb</tspan></text>
</g><path
         id="path502"
         style="fill:none;stroke:#0000ff;stroke-width:18.36000061;stroke-linecap:butt;stroke-linejoin:miter;stroke-miterlimit:10;stroke-dasharray:none;stroke-opacity:1"
         d="m 2932.09,4116.93 h 244.8" /></g></g></svg>