<?xml version="1.0" encoding="UTF-8" standalone="no"?>
<svg
   xmlns:dc="http://purl.org/dc/elements/1.1/"
   xmlns:cc="http://creativecommons.org/ns#"
   xmlns:rdf="http://www.w3.org/1999/02/22-rdf-syntax-ns#"
   xmlns:svg="http://www.w3.org/2000/svg"
   xmlns="http://www.w3.org/2000/svg"
   viewBox="0 0 793.33331 1122.6667"
   height="1122.6667"
   width="793.33331"
   xml:space="preserve"
   id="svg2"
   version="1.1"><metadata
     id="metadata8"><rdf:RDF><cc:Work
         rdf:about=""><dc:format>image/svg+xml</dc:format><dc:type
           rdf:resource="http://purl.org/dc/dcmitype/StillImage" /></cc:Work></rdf:RDF></metadata><defs
     id="defs6" /><g
     transform="matrix(1.3333333,0,0,-1.3333333,0,1122.6667)"
     id="g10"><g
       transform="scale(0.1)"
       id="g12"><path
         id="path14"
         style="fill:#ffffff;fill-opacity:1;fill-rule:nonzero;stroke:none"
         d="M 0,0 H 7919.89 V 6120 H 0 Z" /><path
         id="path16"
         style="fill:none;stroke:#000000;stroke-width:18.36000061;stroke-linecap:butt;stroke-linejoin:miter;stroke-miterlimit:10;stroke-dasharray:none;stroke-opacity:1"
         d="m 917.387,3257.06 h 12.242 l 15.301,0.62 h 15.297 l 15.3,0.61 h 15.301 l 15.912,0.61 h 15.3 l 15.3,0.61 15.3,0.62 15.3,0.6 h 15.3 l 15.91,0.62 15.3,1.22 15.3,0.61 15.3,0.62 15.3,0.61 15.92,1.22 15.29,0.61 15.3,1.23 15.3,1.22 15.3,1.23 15.31,1.83 15.91,1.23 15.3,1.83 15.3,1.84 15.29,1.83 15.31,1.84 15.3,2.45 15.91,2.44 15.3,2.45 15.3,2.45 15.3,3.06 15.3,3.06 15.91,3.67 15.3,3.67 15.3,3.68 15.3,4.28 15.3,4.9 15.3,4.28 15.91,5.51 15.3,5.51 15.3,6.12 15.3,6.12 15.3,6.73 15.3,7.34 15.91,7.96 15.3,7.96 15.31,9.18 15.3,9.79 15.29,10.4 15.92,11.02 15.3,12.24 15.29,12.85 15.31,14.08 15.3,14.68 15.3,16.53 15.91,17.75 15.3,18.97 15.3,20.19 15.3,22.65 15.3,23.87 15.3,26.31 15.91,28.76 15.3,30.61 15.3,33.66 15.3,36.11 15.3,39.16 15.3,41.62 15.91,44.06 15.3,47.74 15.3,50.18 15.3,53.86 15.3,56.91 15.91,60.59 15.31,64.88 15.3,67.93 15.29,70.99 15.3,73.44 15.3,74.05 15.91,72.21 15.31,68.55 15.3,61.2 15.3,52.02 15.3,41.62 15.29,29.99 15.92,19.58 15.3,11.01 15.3,4.9 15.3,1.84 h 15.3 15.91 l 15.3,-1.84 15.3,-4.9 15.3,-11.01 15.3,-19.58 15.3,-29.99 15.91,-41.62 15.3,-52.02 15.3,-61.2 15.3,-68.55 15.3,-72.21 15.3,-74.05 15.91,-73.44 15.3,-70.99 15.3,-67.93 15.3,-64.88 15.31,-60.59 15.91,-56.91 15.3,-53.86 15.3,-50.18 15.3,-47.74 15.29,-44.06 15.31,-41.62 15.91,-39.16 15.3,-36.11 15.3,-33.66 15.3,-30.61 15.3,-28.76 15.3,-26.31 15.91,-23.87 15.3,-22.65 15.3,-20.19 15.3,-18.97 15.3,-17.75 15.91,-16.53 15.3,-14.68 15.3,-14.08 15.3,-12.85 15.3,-12.24 15.3,-11.02 15.91,-10.4 15.3,-9.79 15.3,-9.18 15.31,-7.96 15.29,-7.96 15.3,-7.34 15.92,-6.73 15.3,-6.12 15.29,-6.12 15.31,-5.51 15.3,-5.51 15.91,-4.28 15.3,-4.9 15.3,-4.28 15.3,-3.68 15.3,-3.67 15.3,-3.67 15.91,-3.06 15.3,-3.06 15.3,-2.45 15.3,-2.45 15.3,-2.44 15.3,-2.45 15.91,-1.84 15.3,-1.83 15.3,-1.84 15.3,-1.83 15.3,-1.23 15.3,-1.83 15.91,-1.23 15.31,-1.22 15.29,-1.23 15.3,-0.61 15.3,-1.22 15.92,-0.61 15.3,-0.62 15.3,-0.61 15.3,-1.22 15.3,-0.62 h 15.3 l 15.91,-0.6 15.3,-0.62 15.3,-0.61 h 15.3 l 15.3,-0.61 h 15.3 l 15.91,-0.61 h 15.3 l 15.3,-0.62 h 12.24" /><path
         id="path18"
         style="fill:none;stroke:#ff0000;stroke-width:18.36000061;stroke-linecap:butt;stroke-linejoin:miter;stroke-miterlimit:10;stroke-dasharray:none;stroke-opacity:1"
         d="m 917.387,3257.06 h 27.543 l 15.297,0.62 h 30.601 l 15.912,0.61 15.3,0.61 h 15.3 l 15.3,0.61 15.3,0.62 h 15.3 l 15.91,0.6 15.3,0.62 15.3,0.61 15.3,0.61 15.3,1.23 15.92,0.61 15.29,0.61 15.3,1.22 15.3,1.23 15.3,1.22 15.31,0.61 15.91,1.84 15.3,1.22 15.3,1.23 15.29,1.84 15.31,1.83 15.3,1.84 15.91,1.83 15.3,2.45 15.3,1.83 15.3,2.45 15.3,3.06 15.91,2.45 15.3,3.06 15.3,3.06 15.3,3.67 15.3,3.68 15.3,3.67 15.91,4.28 15.3,4.9 15.3,4.28 15.3,5.51 15.3,5.51 15.3,6.12 15.91,6.73 15.3,6.73 15.31,7.96 15.3,7.96 15.29,9.17 15.92,9.8 15.3,10.4 15.29,11.63 15.31,12.24 15.3,14.08 15.3,14.68 15.91,15.91 15.3,17.14 15.3,18.97 15.3,20.81 15.3,22.65 15.3,25.09 15.91,27.53 15.3,29.99 15.3,32.44 15.3,35.5 15.3,38.55 15.3,41.01 15.91,44.06 15.3,46.51 15.3,49.57 15.3,53.25 15.3,56.3 15.91,59.98 15.31,64.26 15.3,67.93 15.29,70.99 15.3,73.44 15.3,74.05 15.91,72.83 15.31,68.55 15.3,61.2 15.3,52.63 15.3,41 15.29,29.99 15.92,18.97 15.3,11.02 15.3,4.89 15.3,1.23 h 15.3 15.91 l 15.3,-1.23 15.3,-4.89 15.3,-11.02 15.3,-18.97 15.3,-29.99 15.91,-41 15.3,-52.63 15.3,-61.2 15.3,-68.55 15.3,-72.83 15.3,-74.05 15.91,-73.44 15.3,-70.99 15.3,-67.93 15.3,-64.26 15.31,-59.98 15.91,-56.3 15.3,-53.25 15.3,-49.57 15.3,-46.51 15.29,-44.06 15.31,-41.01 15.91,-38.55 15.3,-35.5 15.3,-32.44 15.3,-29.99 15.3,-27.53 15.3,-25.09 15.91,-22.65 15.3,-20.81 15.3,-18.97 15.3,-17.14 15.3,-15.91 15.91,-14.68 15.3,-14.08 15.3,-12.24 15.3,-11.63 15.3,-10.4 15.3,-9.8 15.91,-9.17 15.3,-7.96 15.3,-7.96 15.31,-6.73 15.29,-6.73 15.3,-6.12 15.92,-5.51 15.3,-5.51 15.29,-4.28 15.31,-4.9 15.3,-4.28 15.91,-3.67 15.3,-3.68 15.3,-3.67 15.3,-3.06 15.3,-3.06 15.3,-2.45 15.91,-3.06 15.3,-2.45 15.3,-1.83 15.3,-2.45 15.3,-1.83 15.3,-1.84 15.91,-1.83 15.3,-1.84 15.3,-1.23 15.3,-1.22 15.3,-1.84 15.3,-0.61 15.91,-1.22 15.31,-1.23 15.29,-1.22 15.3,-0.61 15.3,-0.61 15.92,-1.23 15.3,-0.61 15.3,-0.61 15.3,-0.62 15.3,-0.6 h 15.3 l 15.91,-0.62 15.3,-0.61 h 15.3 l 15.3,-0.61 15.3,-0.61 h 15.3 15.91 l 15.3,-0.62 h 15.3 12.24" /><path
         id="path20"
         style="fill:none;stroke:#0000ff;stroke-width:18.36000061;stroke-linecap:butt;stroke-linejoin:miter;stroke-miterlimit:10;stroke-dasharray:none;stroke-opacity:1"
         d="m 917.387,3260.13 0.613,0.6 h 23.258 l 4.281,0.62 h 4.899 4.281 4.898 4.281 l 4.899,0.61 h 4.281 4.899 4.285 l 4.894,0.61 h 4.285 4.895 4.894 l 4.29,0.61 h 4.89 4.29 4.89 l 4.29,0.62 h 4.89 4.28 l 4.9,0.61 h 4.28 4.9 l 4.29,0.61 h 4.89 4.29 l 4.89,0.61 h 4.9 4.28 l 4.9,0.61 h 4.28 4.9 l 4.28,0.62 h 4.9 l 4.28,0.61 h 4.9 4.28 l 4.9,0.61 h 4.28 l 4.9,0.61 h 4.28 l 4.9,0.61 h 4.28 4.9 l 4.89,0.62 h 4.29 l 4.89,0.61 h 4.29 l 4.9,0.61 h 4.28 l 4.9,0.61 4.28,0.61 h 4.9 l 4.28,0.62 h 4.9 l 4.28,0.61 h 4.89 l 4.29,0.61 4.89,0.61 h 4.9 l 4.28,0.62 h 4.9 l 4.28,0.61 4.9,0.61 h 4.28 l 4.9,0.61 4.28,0.61 4.9,0.61 h 4.28 l 4.9,0.62 4.28,0.61 4.9,0.61 h 4.28 l 4.9,0.61 4.29,0.61 4.89,0.62 4.89,0.61 h 4.29 l 4.89,0.61 4.29,0.61 4.89,0.62 4.29,0.6 4.9,0.62 4.28,0.61 4.9,0.61 4.28,0.61 4.9,0.62 4.28,0.61 4.9,0.61 4.28,0.61 4.9,0.61 4.89,0.62 4.29,0.61 4.89,0.61 4.29,0.61 4.89,0.62 4.29,1.22 4.89,0.61 4.29,0.61 4.89,0.61 4.29,1.23 4.89,0.61 4.28,0.61 4.9,0.61 4.28,1.23 4.9,0.61 4.29,1.22 4.89,0.61 4.9,1.23 4.28,0.61 4.9,1.23 4.28,0.61 4.9,1.22 4.28,0.62 4.9,1.22 4.28,1.22 4.9,0.61 4.28,1.23 4.9,1.22 4.28,1.23 4.9,0.61 4.28,1.22 4.9,1.23 4.89,1.22 4.29,1.22 4.89,1.23 4.29,1.22 4.89,1.23 4.29,1.83 4.89,1.22 4.29,1.23 4.9,1.22 4.28,1.84 4.9,1.22 4.28,1.84 4.9,1.23 4.28,1.83 4.9,1.22 4.28,1.84 4.89,1.84 4.9,1.83 4.28,1.84 4.9,1.83 4.28,1.84 4.9,1.84 4.28,1.83 4.9,1.84 4.28,2.45 4.9,1.83 4.28,2.45 4.9,1.84 4.28,2.44 4.9,2.45 4.28,2.45 4.9,2.45 4.9,2.45 4.28,2.44 4.9,2.45 4.28,2.45 4.89,3.06 4.29,2.45 4.89,3.06 4.29,3.06 4.89,3.06 4.29,3.06 4.9,3.06 4.28,3.06 4.9,3.06 4.28,3.06 4.9,3.67 4.28,3.67 4.9,3.06 4.89,3.68 4.29,3.67 4.89,4.28 4.29,3.67 4.89,3.67 4.29,4.29 4.89,4.28 4.29,4.29 4.89,4.28 4.29,4.9 4.89,4.28 4.29,4.9 4.89,4.89 4.28,5.51 4.9,4.89 4.9,5.52 4.28,5.5 4.9,5.51 4.28,6.12 4.9,6.12 4.28,6.12 4.9,6.12 4.28,6.73 4.9,6.73 4.28,6.74 4.9,7.34 4.28,7.35 4.9,7.34 4.28,7.96 4.9,7.95 4.28,7.96 4.9,8.56 4.89,8.57 4.29,8.57 4.89,9.18 4.29,9.18 4.89,9.18 4.29,9.18 4.89,9.79 4.29,9.79 4.89,10.41 4.29,10.4 4.9,10.4 4.28,10.41 4.9,11.02 4.28,11.01 4.9,11.63 4.89,11.02 4.29,12.24 4.89,11.62 4.28,12.25 4.9,12.23 4.28,12.86 4.9,12.85 4.28,12.85 4.9,13.46 4.28,13.47 4.9,14.07 4.28,14.08 4.9,14.69 4.28,15.3 4.9,15.3 4.28,15.3 4.9,15.91 4.9,16.52 4.28,16.53 4.9,17.13 4.28,17.14 4.9,18.36 4.28,17.75 4.89,18.97 4.29,18.97 4.89,19.58 4.29,19.59 4.89,20.2 4.29,20.19 4.9,20.81 4.28,20.81 4.9,21.42 4.89,21.42 4.29,22.03 4.89,21.42 4.29,22.03 4.89,22.03 4.29,21.43 4.89,22.03 4.29,21.41 4.89,20.81 4.29,21.43 4.89,20.19 4.29,20.2 4.89,19.58 4.29,18.36 4.89,18.36 4.29,17.75 4.89,16.52 4.9,15.91 4.28,15.3 4.9,14.08 4.28,12.85 4.9,12.24 4.28,11.02 4.9,10.4 4.28,9.18 4.9,8.57 4.28,7.34 4.9,6.73 4.28,6.13 4.9,4.89 4.28,4.29 4.9,3.67 4.89,2.45 4.29,2.45 4.89,2.44 4.29,1.23 4.89,1.22 4.29,0.61 4.89,0.61 4.29,0.62 4.89,0.61 h 4.29 4.89 4.29 4.89 4.29 4.9 l 4.28,-0.61 4.9,-0.62 4.89,-0.61 4.29,-0.61 4.89,-1.22 4.29,-1.23 4.89,-2.44 4.28,-2.45 4.9,-2.45 4.28,-3.67 4.9,-4.29 4.28,-4.89 4.9,-6.13 4.28,-6.73 4.9,-7.34 4.28,-8.57 4.9,-9.18 4.9,-10.4 4.28,-11.02 4.9,-12.24 4.28,-12.85 4.9,-14.08 4.28,-15.3 4.9,-15.91 4.28,-16.52 4.9,-17.75 4.28,-18.36 4.89,-18.36 4.29,-19.58 4.89,-20.2 4.29,-20.19 4.89,-21.43 4.29,-20.81 4.9,-21.41 4.89,-22.03 4.29,-21.43 4.89,-22.03 4.29,-22.03 4.89,-21.42 4.29,-22.03 4.89,-21.42 4.29,-21.42 4.89,-20.81 4.29,-20.81 4.89,-20.19 4.29,-20.2 4.89,-19.59 4.29,-19.58 4.89,-18.97 4.9,-18.97 4.28,-17.75 4.9,-18.36 4.28,-17.14 4.9,-17.13 4.28,-16.53 4.9,-16.52 4.28,-15.91 4.9,-15.3 4.28,-15.3 4.9,-15.3 4.28,-14.69 4.9,-14.08 4.28,-14.07 4.9,-13.47 4.28,-13.46 4.9,-12.85 4.89,-12.85 4.29,-12.86 4.89,-12.23 4.29,-12.25 4.89,-11.62 4.29,-12.24 4.89,-11.02 4.29,-11.63 4.89,-11.01 4.29,-11.02 4.89,-10.41 4.29,-10.4 4.89,-10.4 4.29,-10.41 4.89,-9.79 4.9,-9.79 4.29,-9.18 4.89,-9.18 4.29,-9.18 4.89,-9.18 4.29,-8.57 4.89,-8.57 4.29,-8.56 4.89,-7.96 4.28,-7.95 4.9,-7.96 4.28,-7.34 4.9,-7.35 4.28,-7.34 4.9,-6.74 4.28,-6.73 4.9,-6.73 4.9,-6.12 4.28,-6.12 4.9,-6.12 4.28,-6.12 4.9,-5.51 4.28,-5.5 4.9,-5.52 4.28,-4.89 4.9,-5.51 4.28,-4.89 4.9,-4.9 4.28,-4.28 4.89,-4.9 4.29,-4.28 4.89,-4.29 4.9,-4.28 4.28,-4.29 4.9,-3.67 4.29,-3.67 4.89,-4.28 4.29,-3.67 4.89,-3.68 4.29,-3.06 4.89,-3.67 4.29,-3.67 4.89,-3.06 4.29,-3.06 4.89,-3.06 4.29,-3.06 4.89,-3.06 4.29,-3.06 4.89,-3.06 4.9,-3.06 4.28,-2.45 4.9,-3.06 4.28,-2.45 4.9,-2.45 4.28,-2.44 4.9,-2.45 4.28,-2.45 4.9,-2.45 4.28,-2.45 4.9,-2.44 4.28,-1.84 4.9,-2.45 4.28,-1.83 4.9,-2.45 4.9,-1.84 4.28,-1.83 4.89,-1.84 4.29,-1.84 4.89,-1.83 4.29,-1.84 4.89,-1.83 4.29,-1.84 4.89,-1.84 4.29,-1.22 4.89,-1.83 4.29,-1.23 4.89,-1.84 4.29,-1.22 4.89,-1.84 4.29,-1.22 4.89,-1.23 4.9,-1.22 4.28,-1.83 4.9,-1.23 4.29,-1.22 4.89,-1.23 4.29,-1.22 4.89,-1.22 4.29,-1.23 4.89,-1.22 4.29,-0.61 4.89,-1.23 4.28,-1.22 4.9,-1.23 4.28,-0.61 4.9,-1.22 4.9,-1.22 4.28,-0.62 4.9,-1.22 4.28,-0.61 4.9,-1.23 4.28,-0.61 4.9,-1.23 4.28,-0.61 4.9,-1.22 4.28,-0.61 4.9,-1.23 4.28,-0.61 4.9,-0.61 4.28,-0.61 4.9,-1.23 4.28,-0.61 4.89,-0.61 4.9,-0.61 4.28,-1.22 4.9,-0.62 4.28,-0.61 4.9,-0.61 4.29,-0.61 4.89,-0.62 4.29,-0.61 4.89,-0.61 4.29,-0.61 4.89,-0.61 4.29,-0.62 4.89,-0.61 4.29,-0.61 4.89,-0.61 4.9,-0.62 4.28,-0.6 4.9,-0.62 4.28,-0.61 4.9,-0.61 h 4.28 l 4.9,-0.61 4.28,-0.62 4.9,-0.61 4.28,-0.61 h 4.9 l 4.28,-0.61 4.9,-0.61 4.28,-0.62 h 4.9 l 4.28,-0.61 4.9,-0.61 4.9,-0.61 h 4.28 l 4.9,-0.61 4.28,-0.61 h 4.89 l 4.29,-0.62 h 4.89 l 4.29,-0.61 4.89,-0.61 h 4.29 l 4.89,-0.61 h 4.29 l 4.89,-0.62 h 4.29 l 4.89,-0.61 4.9,-0.61 h 4.28 l 4.9,-0.61 h 4.28 l 4.9,-0.61 h 4.28 l 4.9,-0.62 h 4.29 4.89 l 4.29,-0.61 h 4.89 l 4.29,-0.61 h 4.89 l 4.29,-0.61 h 4.89 4.28 l 4.9,-0.61 h 4.9 l 4.28,-0.62 h 4.9 4.28 l 4.9,-0.61 h 4.28 4.9 l 4.28,-0.61 h 4.9 4.28 l 4.9,-0.61 h 4.28 4.9 l 4.28,-0.61 h 4.9 4.89 l 4.29,-0.62 h 4.89 4.28 4.9 l 4.28,-0.61 h 4.9 4.28 4.9 l 4.29,-0.61 h 4.89 4.29 4.89 l 4.29,-0.61 h 4.89 4.29 4.89 4.9 l 4.28,-0.62 h 4.9 4.28 4.9 4.28 4.9 l 0.61,-0.6" /><path
         id="path22"
         style="fill:none;stroke:#000000;stroke-width:9.18000031;stroke-linecap:butt;stroke-linejoin:miter;stroke-miterlimit:10;stroke-dasharray:none;stroke-opacity:1"
         d="M 918,3254.62 H 3683.63" /><path
         id="path24"
         style="fill:none;stroke:#000000;stroke-width:9.18000031;stroke-linecap:butt;stroke-linejoin:miter;stroke-miterlimit:10;stroke-dasharray:none;stroke-opacity:1"
         d="M 918,5202 H 3683.63" /><path
         id="path26"
         style="fill:none;stroke:#000000;stroke-width:9.18000031;stroke-linecap:butt;stroke-linejoin:miter;stroke-miterlimit:10;stroke-dasharray:none;stroke-opacity:1"
         d="m 918,3254.62 v 61.2" /><path
         id="path28"
         style="fill:none;stroke:#000000;stroke-width:9.18000031;stroke-linecap:butt;stroke-linejoin:miter;stroke-miterlimit:10;stroke-dasharray:none;stroke-opacity:1"
         d="m 918,5202 v -61.2" /><path
         id="path30"
         style="fill:none;stroke:#000000;stroke-width:9.18000031;stroke-linecap:butt;stroke-linejoin:miter;stroke-miterlimit:10;stroke-dasharray:none;stroke-opacity:1"
         d="m 1839.67,3254.62 v 61.2" /><path
         id="path32"
         style="fill:none;stroke:#000000;stroke-width:9.18000031;stroke-linecap:butt;stroke-linejoin:miter;stroke-miterlimit:10;stroke-dasharray:none;stroke-opacity:1"
         d="m 1839.67,5202 v -61.2" /><path
         id="path34"
         style="fill:none;stroke:#000000;stroke-width:9.18000031;stroke-linecap:butt;stroke-linejoin:miter;stroke-miterlimit:10;stroke-dasharray:none;stroke-opacity:1"
         d="m 2761.34,3254.62 v 61.2" /><path
         id="path36"
         style="fill:none;stroke:#000000;stroke-width:9.18000031;stroke-linecap:butt;stroke-linejoin:miter;stroke-miterlimit:10;stroke-dasharray:none;stroke-opacity:1"
         d="m 2761.34,5202 v -61.2" /><path
         id="path38"
         style="fill:none;stroke:#000000;stroke-width:9.18000031;stroke-linecap:butt;stroke-linejoin:miter;stroke-miterlimit:10;stroke-dasharray:none;stroke-opacity:1"
         d="m 3683.63,3254.62 v 61.2" /><path
         id="path40"
         style="fill:none;stroke:#000000;stroke-width:9.18000031;stroke-linecap:butt;stroke-linejoin:miter;stroke-miterlimit:10;stroke-dasharray:none;stroke-opacity:1"
         d="m 3683.63,5202 v -61.2" /><path
         id="path42"
         style="fill:none;stroke:#000000;stroke-width:9.18000031;stroke-linecap:butt;stroke-linejoin:miter;stroke-miterlimit:10;stroke-dasharray:none;stroke-opacity:1"
         d="m 1378.84,3254.62 v 122.4" /><path
         id="path44"
         style="fill:none;stroke:#000000;stroke-width:9.18000031;stroke-linecap:butt;stroke-linejoin:miter;stroke-miterlimit:10;stroke-dasharray:none;stroke-opacity:1"
         d="M 1378.84,5202 V 5079.6" /><path
         id="path46"
         style="fill:none;stroke:#000000;stroke-width:9.18000031;stroke-linecap:butt;stroke-linejoin:miter;stroke-miterlimit:10;stroke-dasharray:none;stroke-opacity:1"
         d="m 2300.51,3254.62 v 122.4" /><path
         id="path48"
         style="fill:none;stroke:#000000;stroke-width:9.18000031;stroke-linecap:butt;stroke-linejoin:miter;stroke-miterlimit:10;stroke-dasharray:none;stroke-opacity:1"
         d="M 2300.51,5202 V 5079.6" /><path
         id="path50"
         style="fill:none;stroke:#000000;stroke-width:9.18000031;stroke-linecap:butt;stroke-linejoin:miter;stroke-miterlimit:10;stroke-dasharray:none;stroke-opacity:1"
         d="m 3222.79,3254.62 v 122.4" /><path
         id="path52"
         style="fill:none;stroke:#000000;stroke-width:9.18000031;stroke-linecap:butt;stroke-linejoin:miter;stroke-miterlimit:10;stroke-dasharray:none;stroke-opacity:1"
         d="M 3222.79,5202 V 5079.6" /><g
         transform="scale(10)"
         id="g54"><text
           id="text60"
           style="font-variant:normal;font-weight:normal;font-size:17.13599968px;font-family:'Times New Roman';-inkscape-font-specification:Times-Roman;writing-mode:lr-tb;fill:#000000;fill-opacity:1;fill-rule:nonzero;stroke:none"
           transform="matrix(1,0,0,-1,122.4,526.565)"><tspan
             id="tspan56"
             y="0"
             x="0 5.7062879 14.274288 22.842287 103.61179 187.27197 195.83998 204.40797">-2000200</tspan><tspan
             id="tspan58"
             y="-24.480101"
             x="69.155899">p</tspan></text>
<text
           id="text64"
           style="font-variant:normal;font-weight:normal;font-size:12.11760044px;font-family:'Times New Roman';-inkscape-font-specification:Times-Roman;writing-mode:lr-tb;fill:#000000;fill-opacity:1;fill-rule:nonzero;stroke:none"
           transform="matrix(1,0,0,-1,200.1852,544.19041)"><tspan
             id="tspan62"
             y="0"
             x="0">x</tspan></text>
<text
           id="text68"
           style="font-variant:normal;font-weight:normal;font-size:17.13599968px;font-family:'Times New Roman';-inkscape-font-specification:Times-Roman;writing-mode:lr-tb;fill:#000000;fill-opacity:1;fill-rule:nonzero;stroke:none"
           transform="matrix(1,0,0,-1,210.46686,551.0451)"><tspan
             id="tspan66"
             y="0"
             x="0 5.7062879 20.940191 28.548576 40.920769 45.684574 53.292961">(MeV/c)</tspan></text>
</g><path
         id="path70"
         style="fill:none;stroke:#000000;stroke-width:9.18000031;stroke-linecap:butt;stroke-linejoin:miter;stroke-miterlimit:10;stroke-dasharray:none;stroke-opacity:1"
         d="M 918,3254.62 V 5202" /><path
         id="path72"
         style="fill:none;stroke:#000000;stroke-width:9.18000031;stroke-linecap:butt;stroke-linejoin:miter;stroke-miterlimit:10;stroke-dasharray:none;stroke-opacity:1"
         d="M 3683.63,3254.62 V 5202" /><path
         id="path74"
         style="fill:none;stroke:#000000;stroke-width:9.18000031;stroke-linecap:butt;stroke-linejoin:miter;stroke-miterlimit:10;stroke-dasharray:none;stroke-opacity:1"
         d="m 918,3416.8 h 61.199" /><path
         id="path76"
         style="fill:none;stroke:#000000;stroke-width:9.18000031;stroke-linecap:butt;stroke-linejoin:miter;stroke-miterlimit:10;stroke-dasharray:none;stroke-opacity:1"
         d="m 3683.63,3416.8 h -61.2" /><path
         id="path78"
         style="fill:none;stroke:#000000;stroke-width:9.18000031;stroke-linecap:butt;stroke-linejoin:miter;stroke-miterlimit:10;stroke-dasharray:none;stroke-opacity:1"
         d="m 918,3741.77 h 61.199" /><path
         id="path80"
         style="fill:none;stroke:#000000;stroke-width:9.18000031;stroke-linecap:butt;stroke-linejoin:miter;stroke-miterlimit:10;stroke-dasharray:none;stroke-opacity:1"
         d="m 3683.63,3741.77 h -61.2" /><path
         id="path82"
         style="fill:none;stroke:#000000;stroke-width:9.18000031;stroke-linecap:butt;stroke-linejoin:miter;stroke-miterlimit:10;stroke-dasharray:none;stroke-opacity:1"
         d="m 918,4066.13 h 61.199" /><path
         id="path84"
         style="fill:none;stroke:#000000;stroke-width:9.18000031;stroke-linecap:butt;stroke-linejoin:miter;stroke-miterlimit:10;stroke-dasharray:none;stroke-opacity:1"
         d="m 3683.63,4066.13 h -61.2" /><path
         id="path86"
         style="fill:none;stroke:#000000;stroke-width:9.18000031;stroke-linecap:butt;stroke-linejoin:miter;stroke-miterlimit:10;stroke-dasharray:none;stroke-opacity:1"
         d="m 918,4390.49 h 61.199" /><path
         id="path88"
         style="fill:none;stroke:#000000;stroke-width:9.18000031;stroke-linecap:butt;stroke-linejoin:miter;stroke-miterlimit:10;stroke-dasharray:none;stroke-opacity:1"
         d="m 3683.63,4390.49 h -61.2" /><path
         id="path90"
         style="fill:none;stroke:#000000;stroke-width:9.18000031;stroke-linecap:butt;stroke-linejoin:miter;stroke-miterlimit:10;stroke-dasharray:none;stroke-opacity:1"
         d="m 918,4715.46 h 61.199" /><path
         id="path92"
         style="fill:none;stroke:#000000;stroke-width:9.18000031;stroke-linecap:butt;stroke-linejoin:miter;stroke-miterlimit:10;stroke-dasharray:none;stroke-opacity:1"
         d="m 3683.63,4715.46 h -61.2" /><path
         id="path94"
         style="fill:none;stroke:#000000;stroke-width:9.18000031;stroke-linecap:butt;stroke-linejoin:miter;stroke-miterlimit:10;stroke-dasharray:none;stroke-opacity:1"
         d="m 918,5039.82 h 61.199" /><path
         id="path96"
         style="fill:none;stroke:#000000;stroke-width:9.18000031;stroke-linecap:butt;stroke-linejoin:miter;stroke-miterlimit:10;stroke-dasharray:none;stroke-opacity:1"
         d="m 3683.63,5039.82 h -61.2" /><path
         id="path98"
         style="fill:none;stroke:#000000;stroke-width:9.18000031;stroke-linecap:butt;stroke-linejoin:miter;stroke-miterlimit:10;stroke-dasharray:none;stroke-opacity:1"
         d="m 918,3254.62 h 122.4" /><path
         id="path100"
         style="fill:none;stroke:#000000;stroke-width:9.18000031;stroke-linecap:butt;stroke-linejoin:miter;stroke-miterlimit:10;stroke-dasharray:none;stroke-opacity:1"
         d="m 3683.63,3254.62 h -122.4" /><path
         id="path102"
         style="fill:none;stroke:#000000;stroke-width:9.18000031;stroke-linecap:butt;stroke-linejoin:miter;stroke-miterlimit:10;stroke-dasharray:none;stroke-opacity:1"
         d="m 918,3578.98 h 122.4" /><path
         id="path104"
         style="fill:none;stroke:#000000;stroke-width:9.18000031;stroke-linecap:butt;stroke-linejoin:miter;stroke-miterlimit:10;stroke-dasharray:none;stroke-opacity:1"
         d="m 3683.63,3578.98 h -122.4" /><path
         id="path106"
         style="fill:none;stroke:#000000;stroke-width:9.18000031;stroke-linecap:butt;stroke-linejoin:miter;stroke-miterlimit:10;stroke-dasharray:none;stroke-opacity:1"
         d="m 918,3903.95 h 122.4" /><path
         id="path108"
         style="fill:none;stroke:#000000;stroke-width:9.18000031;stroke-linecap:butt;stroke-linejoin:miter;stroke-miterlimit:10;stroke-dasharray:none;stroke-opacity:1"
         d="m 3683.63,3903.95 h -122.4" /><path
         id="path110"
         style="fill:none;stroke:#000000;stroke-width:9.18000031;stroke-linecap:butt;stroke-linejoin:miter;stroke-miterlimit:10;stroke-dasharray:none;stroke-opacity:1"
         d="m 918,4228.31 h 122.4" /><path
         id="path112"
         style="fill:none;stroke:#000000;stroke-width:9.18000031;stroke-linecap:butt;stroke-linejoin:miter;stroke-miterlimit:10;stroke-dasharray:none;stroke-opacity:1"
         d="m 3683.63,4228.31 h -122.4" /><path
         id="path114"
         style="fill:none;stroke:#000000;stroke-width:9.18000031;stroke-linecap:butt;stroke-linejoin:miter;stroke-miterlimit:10;stroke-dasharray:none;stroke-opacity:1"
         d="m 918,4552.67 h 122.4" /><path
         id="path116"
         style="fill:none;stroke:#000000;stroke-width:9.18000031;stroke-linecap:butt;stroke-linejoin:miter;stroke-miterlimit:10;stroke-dasharray:none;stroke-opacity:1"
         d="m 3683.63,4552.67 h -122.4" /><path
         id="path118"
         style="fill:none;stroke:#000000;stroke-width:9.18000031;stroke-linecap:butt;stroke-linejoin:miter;stroke-miterlimit:10;stroke-dasharray:none;stroke-opacity:1"
         d="m 918,4877.64 h 122.4" /><path
         id="path120"
         style="fill:none;stroke:#000000;stroke-width:9.18000031;stroke-linecap:butt;stroke-linejoin:miter;stroke-miterlimit:10;stroke-dasharray:none;stroke-opacity:1"
         d="m 3683.63,4877.64 h -122.4" /><g
         transform="scale(10)"
         id="g122"><text
           id="text136"
           style="font-variant:normal;font-weight:normal;font-size:17.13599968px;font-family:'Times New Roman';-inkscape-font-specification:Times-Roman;writing-mode:lr-tb;fill:#000000;fill-opacity:1;fill-rule:nonzero;stroke:none"
           transform="matrix(1,0,0,-1,77.5402,319.831)"><tspan
             id="tspan124"
             y="0"
             x="0">0</tspan><tspan
             id="tspan126"
             y="-32.313702"
             x="-20.685499 -12.1175 -7.8334999 0.73449999">0.05</tspan><tspan
             id="tspan128"
             y="-64.933197"
             x="-11.56675 -2.99875 1.2852499">0.1</tspan><tspan
             id="tspan130"
             y="-97.246902"
             x="-20.685499 -12.1175 -7.8334999 0.73449999">0.15</tspan><tspan
             id="tspan132"
             y="-129.8051"
             x="-12.97417 -4.4061699 -0.12217">0.2</tspan><tspan
             id="tspan134"
             y="-162.1801"
             x="-20.685499 -12.1175 -7.8334999 0.73449999">0.25</tspan></text>
<text
           id="text140"
           style="font-variant:normal;font-weight:normal;font-size:17.13599968px;font-family:'Times New Roman';-inkscape-font-specification:Times-Roman;writing-mode:lr-tb;fill:#000000;fill-opacity:1;fill-rule:nonzero;stroke:none"
           transform="matrix(0,1,1,0,43.8805,349.146)"><tspan
             id="tspan138"
             y="0"
             x="0">d</tspan></text>
<text
           id="text144"
           style="font-variant:normal;font-weight:normal;font-size:17.13599968px;font-family:Symbol;-inkscape-font-specification:Symbol;writing-mode:lr-tb;fill:#000000;fill-opacity:1;fill-rule:nonzero;stroke:none"
           transform="matrix(0,1,1,0,43.8805,357.77491)"><tspan
             id="tspan142"
             y="0"
             x="0">σ</tspan></text>
<text
           id="text148"
           style="font-variant:normal;font-weight:normal;font-size:17.13599968px;font-family:'Times New Roman';-inkscape-font-specification:Times-Roman;writing-mode:lr-tb;fill:#000000;fill-opacity:1;fill-rule:nonzero;stroke:none"
           transform="matrix(0,1,1,0,43.8805,368.11791)"><tspan
             id="tspan146"
             y="0"
             x="0 4.7638078 13.331808">/dp</tspan></text>
<text
           id="text152"
           style="font-variant:normal;font-weight:normal;font-size:12.11760044px;font-family:'Times New Roman';-inkscape-font-specification:Times-Roman;writing-mode:lr-tb;fill:#000000;fill-opacity:1;fill-rule:nonzero;stroke:none"
           transform="matrix(0,1,1,0,50.7348,389.96631)"><tspan
             id="tspan150"
             y="0"
             x="0">x</tspan></text>
<text
           id="text156"
           style="font-variant:normal;font-weight:normal;font-size:17.13599968px;font-family:'Times New Roman';-inkscape-font-specification:Times-Roman;writing-mode:lr-tb;fill:#000000;fill-opacity:1;fill-rule:nonzero;stroke:none"
           transform="matrix(0,1,1,0,43.8805,400.24797)"><tspan
             id="tspan154"
             y="0"
             x="0 5.7062879 19.038095 27.606096 32.369904 38.076191 53.310097 60.91848 73.290672 78.054482 85.662865 91.369148">(mb/(MeV/c))</tspan></text>
</g><path
         id="path158"
         style="fill:none;stroke:#000000;stroke-width:9.18000031;stroke-linecap:butt;stroke-linejoin:miter;stroke-miterlimit:10;stroke-dasharray:none;stroke-opacity:1"
         d="M 918,3254.62 V 5202 H 3683.63 V 3254.62 Z" /><path
         id="path160"
         style="fill:none;stroke:#000000;stroke-width:18.36000061;stroke-linecap:butt;stroke-linejoin:miter;stroke-miterlimit:10;stroke-dasharray:none;stroke-opacity:1"
         d="m 4235.65,3254.62 h 39.17 l 8.57,0.61 h 174.42 l 8.57,0.61 h 8.57 8.56 9.18 8.57 8.57 8.56 8.57 l 9.18,0.61 h 8.57 8.57 8.57 9.18 l 8.57,0.61 h 8.56 8.57 8.57 l 9.18,0.62 h 8.57 8.57 l 8.56,0.61 h 9.18 l 8.57,0.61 h 8.57 l 8.57,0.61 8.57,0.62 9.18,0.6 h 8.56 8.57 8.57 9.18 8.57 l 8.57,0.62 h 8.57 9.18 l 8.56,0.61 h 8.57 l 8.57,0.61 h 8.57 l 9.18,0.61 h 8.57 l 8.56,0.62 8.57,0.61 9.18,0.61 8.57,0.61 8.56,0.61 8.58,0.62 8.56,0.61 9.18,0.61 8.57,0.61 8.57,0.61 8.56,1.23 9.19,0.61 8.56,1.22 8.57,1.23 8.57,0.61 8.57,1.23 9.18,1.22 8.57,1.22 8.56,1.84 8.57,1.22 9.18,1.84 8.57,1.84 8.57,1.83 8.57,1.84 8.56,1.83 9.18,2.45 8.57,1.83 8.57,3.07 8.57,2.44 9.18,3.06 8.57,2.45 8.56,3.68 8.57,3.67 8.57,3.67 9.18,3.06 8.57,4.28 8.57,4.28 8.57,4.9 9.18,4.28 8.56,5.51 8.57,4.29 8.57,5.51 9.18,6.12 8.56,5.5 8.58,6.73 8.56,6.74 8.57,6.12 9.18,7.95 8.57,7.35 8.56,7.34 8.57,9.18 9.18,8.57 8.57,9.18 8.57,9.79 8.57,9.79 8.57,10.41 9.18,11.01 8.56,11.02 8.57,11.63 8.57,12.85 9.18,11.63 8.57,13.46 8.57,13.47 8.56,13.46 8.57,15.3 9.18,13.47 8.57,14.68 8.57,15.91 8.57,17.14 9.18,14.69 8.56,17.13 8.57,17.14 8.57,17.14 8.57,18.36 9.18,17.74 8.57,18.98 8.57,20.19 8.56,18.36 9.18,21.42 8.57,19.59 8.57,20.8 8.57,22.04 9.18,20.19 8.57,22.65 8.56,22.03 8.57,22.03 8.57,25.09 9.18,22.64 8.56,25.1 8.57,26.31 8.57,23.26 9.18,26.32 8.57,26.92 8.57,24.49 8.57,25.09 8.56,26.31 9.18,27.54 8.57,28.15 8.57,27.55 8.57,29.37 9.18,31.83 8.57,28.76 8.56,28.76 8.57,29.38 8.57,33.04 9.18,34.28 8.57,29.99 8.57,30.6 8.56,29.37 9.18,28.76 8.57,25.71 8.57,27.54 8.57,25.7 8.57,22.03 9.18,22.04 8.56,18.97 8.57,20.81 8.57,15.91 9.18,17.14 8.57,14.69 8.57,16.52 8.57,11.63 9.18,14.69 8.56,9.78 8.57,12.86 8.57,5.51 8.57,7.95 9.17,6.12 8.58,5.51 8.56,6.12 8.57,3.06 9.18,4.9 8.57,2.44 8.57,3.07 8.56,3.05 8.57,4.9 9.18,3.06 8.57,-3.67 8.57,-3.06 8.57,-11.02 9.18,-11.01 8.56,-16.53 8.57,-17.13 8.57,-21.42 8.57,-23.26 9.18,-26.93 8.57,-29.37 8.56,-27.54 8.57,-33.66 9.18,-33.05 8.57,-34.27 8.57,-33.66 8.57,-37.34 8.56,-37.94 9.18,-39.78 8.57,-39.78 8.57,-37.33 8.57,-37.94 9.18,-39.17 8.57,-38.56 8.57,-38.56 8.56,-36.1 9.18,-37.95 8.57,-36.72 8.57,-34.27 8.57,-36.11 8.57,-33.66 9.18,-33.66 8.56,-31.82 8.57,-32.44 8.57,-29.99 9.18,-28.76 8.56,-28.15 8.57,-29.38 8.57,-25.7 8.57,-25.71 9.18,-25.7 8.57,-23.25 8.57,-22.65 8.56,-23.26 9.18,-20.8 8.57,-20.2 8.57,-20.2 8.57,-18.97 8.57,-17.13 9.18,-18.36 8.56,-17.14 8.57,-15.3 8.57,-15.3 9.18,-14.69 8.57,-15.3 8.57,-12.24 8.56,-13.46 8.57,-12.24 9.18,-11.63 8.57,-11.63 8.57,-11.63 8.57,-10.4 9.18,-10.4 8.57,-9.8 8.56,-8.56 8.57,-9.18 9.18,-8.57 8.57,-8.57 8.57,-7.34 8.57,-7.35 8.56,-6.73 9.18,-6.73 8.57,-6.12 8.57,-6.12 8.56,-5.51 9.18,-5.51 8.57,-5.51 8.57,-4.28 8.57,-4.9 8.57,-4.28 9.18,-3.67 8.57,-4.29 8.56,-3.67 8.57,-3.06 9.18,-3.06 8.57,-3.06 8.57,-2.45 8.57,-3.05 8.56,-1.84 9.18,-2.45 8.57,-2.45 8.57,-1.84 8.57,-1.83 9.18,-1.84 8.57,-1.22 8.56,-1.84 8.57,-1.22 8.57,-1.22 9.18,-1.23 8.57,-1.22 8.57,-0.61 8.56,-1.23 9.19,-0.61 8.56,-1.22 8.57,-0.62 8.57,-0.61 8.57,-1.22 9.18,-0.61 8.57,-0.62 8.56,-0.61 h 8.57 l 9.18,-0.61 8.57,-0.61 8.57,-0.61 8.57,-0.62 h 3.05" /><path
         id="path162"
         style="fill:none;stroke:#ff0000;stroke-width:18.36000061;stroke-linecap:butt;stroke-linejoin:miter;stroke-miterlimit:10;stroke-dasharray:none;stroke-opacity:1"
         d="m 4235.65,3254.62 h 91.19 l 8.57,0.61 h 157.28 l 8.57,0.61 h 8.57 8.56 8.57 9.18 8.57 8.57 8.57 l 9.18,0.61 h 8.57 8.56 8.57 8.57 l 9.18,0.61 h 8.57 8.57 l 8.56,0.62 h 9.18 8.57 l 8.57,0.61 8.57,0.61 h 8.57 l 9.18,0.61 h 8.56 8.57 l 8.57,0.62 h 9.18 8.57 l 8.57,0.6 h 8.57 9.18 l 8.56,0.62 h 8.57 l 8.57,0.61 h 8.57 l 9.18,0.61 h 8.57 l 8.56,0.61 8.57,0.62 9.18,0.61 8.57,0.61 h 8.56 l 8.58,0.61 8.56,0.61 9.18,0.62 8.57,1.22 8.57,0.61 8.56,0.61 9.19,0.62 8.56,1.22 8.57,0.61 8.57,1.23 8.57,1.22 9.18,0.61 8.57,1.23 8.56,1.83 8.57,1.23 9.18,1.22 8.57,1.84 8.57,1.83 8.57,1.22 8.56,1.84 9.18,2.45 8.57,1.84 8.57,1.83 8.57,2.45 9.18,2.45 8.57,3.06 8.56,2.44 8.57,3.07 8.57,3.06 9.18,3.67 8.57,3.06 8.57,3.67 8.57,4.28 9.18,4.29 8.56,4.28 8.57,4.28 8.57,4.29 9.18,4.9 8.56,5.51 8.58,5.5 8.56,6.12 8.57,5.51 9.18,6.73 8.57,6.12 8.56,6.73 8.57,7.35 9.18,7.96 8.57,7.34 8.57,8.57 8.57,7.95 8.57,9.18 9.18,9.18 8.56,9.79 8.57,9.8 8.57,11.01 9.18,9.79 8.57,11.63 8.57,11.63 8.56,11.02 8.57,13.46 9.18,11.63 8.57,12.85 8.57,14.08 8.57,14.68 9.18,12.85 8.56,15.31 8.57,14.68 8.57,15.3 8.57,16.53 9.18,15.91 8.57,16.52 8.57,18.36 8.56,16.53 9.18,18.97 8.57,17.75 8.57,18.97 8.57,19.58 9.18,18.98 8.57,20.81 8.56,20.19 8.57,20.81 8.57,23.87 9.18,20.81 8.56,23.86 8.57,25.71 8.57,21.42 9.18,26.31 8.57,25.71 8.57,23.86 8.57,25.09 8.56,26.32 9.18,26.93 8.57,28.15 8.57,27.54 8.57,28.77 9.18,32.43 8.57,28.15 8.56,29.38 8.57,29.99 8.57,33.05 9.18,34.27 8.57,31.21 8.57,30.6 8.56,30.6 9.18,29.38 8.57,26.93 8.57,28.76 8.57,26.93 8.57,23.86 9.18,22.65 8.56,20.81 8.57,22.03 8.57,17.14 9.18,18.97 8.57,15.3 8.57,18.36 8.57,12.85 9.18,15.91 8.56,11.63 8.57,14.69 8.57,6.12 8.57,9.79 9.17,6.73 8.58,6.73 8.56,6.74 8.57,3.67 9.18,4.89 8.57,2.45 8.57,2.45 8.56,3.06 8.57,4.28 9.18,2.45 8.57,-3.67 8.57,-3.67 8.57,-11.02 9.18,-11.02 8.56,-17.13 8.57,-17.14 8.57,-21.42 8.57,-23.25 9.18,-26.32 8.57,-29.38 8.56,-27.53 8.57,-33.05 9.18,-31.83 8.57,-34.27 8.57,-33.05 8.57,-36.11 8.56,-37.94 9.18,-38.56 8.57,-39.16 8.57,-36.11 8.57,-36.72 9.18,-37.95 8.57,-37.33 8.57,-36.72 8.56,-34.88 9.18,-37.33 8.57,-34.89 8.57,-33.05 8.57,-34.27 8.57,-31.21 9.18,-32.43 8.56,-29.99 8.57,-30.6 8.57,-28.16 9.18,-26.92 8.56,-26.32 8.57,-27.54 8.57,-23.87 8.57,-24.48 9.18,-24.48 8.57,-21.42 8.57,-22.03 8.56,-21.42 9.18,-19.58 8.57,-19.59 8.57,-18.97 8.57,-17.75 8.57,-16.52 9.18,-17.14 8.56,-16.52 8.57,-14.08 8.57,-14.69 9.18,-14.07 8.57,-13.47 8.57,-12.23 8.56,-12.25 8.57,-11.63 9.18,-11.01 8.57,-11.02 8.57,-10.4 8.57,-9.79 9.18,-9.79 8.57,-8.57 8.56,-8.57 8.57,-8.57 9.18,-7.95 8.57,-7.96 8.57,-6.73 8.57,-6.73 8.56,-6.74 9.18,-6.73 8.57,-6.12 8.57,-5.51 8.56,-5.5 9.18,-4.9 8.57,-5.51 8.57,-4.28 8.57,-4.29 8.57,-4.28 9.18,-3.67 8.57,-4.29 8.56,-3.05 8.57,-3.68 9.18,-3.06 8.57,-2.45 8.57,-3.06 8.57,-2.45 8.56,-2.44 9.18,-2.45 8.57,-1.84 8.57,-2.45 8.57,-1.83 9.18,-1.22 8.57,-1.84 8.56,-1.84 8.57,-1.22 8.57,-1.22 9.18,-1.23 8.57,-1.22 8.57,-1.23 8.56,-0.61 9.19,-1.22 8.56,-0.61 8.57,-1.23 8.57,-0.61 8.57,-0.61 9.18,-0.61 8.57,-0.62 8.56,-0.61 8.57,-0.61 9.18,-0.61 8.57,-0.61 h 8.57 l 8.57,-0.62 h 3.05" /><path
         id="path164"
         style="fill:none;stroke:#0000ff;stroke-width:18.36000061;stroke-linecap:butt;stroke-linejoin:miter;stroke-miterlimit:10;stroke-dasharray:none;stroke-opacity:1"
         d="m 4235.65,3257.68 h 16.53 l 21.42,0.61 h 41.61 l 20.81,0.61 h 21.42 20.81 l 20.8,0.61 h 20.81 l 21.43,0.62 h 20.8 l 20.81,0.6 21.42,0.62 20.81,0.61 20.81,0.61 20.81,0.61 21.41,0.62 20.81,0.61 20.81,1.22 20.81,1.23 21.42,0.61 20.81,1.22 20.81,1.84 20.8,1.22 21.42,1.84 20.81,1.84 20.81,1.83 20.81,2.45 21.42,2.45 20.8,2.45 20.81,3.05 21.42,3.68 20.81,3.67 20.81,4.28 20.81,4.28 21.42,4.9 20.8,5.51 20.81,6.12 20.81,6.12 21.42,7.34 20.81,7.35 20.81,8.57 21.42,9.18 20.81,9.79 20.8,11.01 20.81,11.63 21.42,12.86 20.81,14.07 20.81,15.3 20.8,16.52 21.42,17.75 20.81,18.97 20.81,21.42 20.81,22.65 21.42,24.48 20.81,26.32 20.81,28.76 21.41,30.6 20.81,33.66 20.81,36.72 20.81,39.78 21.42,42.84 20.81,45.9 20.8,48.35 20.81,52.01 21.42,55.7 20.81,58.14 20.81,61.2 21.42,64.87 20.8,68.54 20.81,71 20.81,72.82 21.42,72.22 20.81,69.77 20.81,65.48 20.81,59.37 21.42,51.4 20.81,42.23 20.8,33.05 20.81,23.87 21.42,18.97 20.81,14.08 20.8,11.62 20.81,8.57 21.43,2.45 20.8,-11.02 20.81,-27.54 21.42,-46.51 20.81,-56.91 20.81,-67.94 20.81,-77.11 21.41,-82.62 20.81,-86.9 20.81,-88.13 20.81,-86.29 21.42,-82.62 20.81,-78.34 20.8,-73.44 21.42,-68.54 20.81,-64.87 20.81,-59.98 20.81,-55.08 21.42,-51.41 20.81,-46.51 20.8,-42.84 20.81,-39.17 21.42,-35.49 20.81,-31.83 20.81,-29.37 20.81,-26.32 21.42,-23.87 20.8,-21.42 20.81,-18.36 20.81,-17.13 21.42,-14.69 20.81,-13.47 20.81,-11.01 21.42,-10.4 20.81,-8.57 20.8,-7.35 20.81,-6.73 21.42,-5.51 20.81,-4.9 20.81,-4.28 20.8,-3.67 21.42,-3.06 20.81,-2.45 20.81,-2.45 21.42,-1.83 20.81,-1.23 20.81,-1.83 20.81,-1.23 h 3.05" /><path
         id="path166"
         style="fill:none;stroke:#000000;stroke-width:9.18000031;stroke-linecap:butt;stroke-linejoin:miter;stroke-miterlimit:10;stroke-dasharray:none;stroke-opacity:1"
         d="M 4236.27,3254.62 H 7001.89" /><path
         id="path168"
         style="fill:none;stroke:#000000;stroke-width:9.18000031;stroke-linecap:butt;stroke-linejoin:miter;stroke-miterlimit:10;stroke-dasharray:none;stroke-opacity:1"
         d="M 4236.27,5202 H 7001.89" /><path
         id="path170"
         style="fill:none;stroke:#000000;stroke-width:9.18000031;stroke-linecap:butt;stroke-linejoin:miter;stroke-miterlimit:10;stroke-dasharray:none;stroke-opacity:1"
         d="m 4789.51,3254.62 v 61.2" /><path
         id="path172"
         style="fill:none;stroke:#000000;stroke-width:9.18000031;stroke-linecap:butt;stroke-linejoin:miter;stroke-miterlimit:10;stroke-dasharray:none;stroke-opacity:1"
         d="m 4789.51,5202 v -61.2" /><path
         id="path174"
         style="fill:none;stroke:#000000;stroke-width:9.18000031;stroke-linecap:butt;stroke-linejoin:miter;stroke-miterlimit:10;stroke-dasharray:none;stroke-opacity:1"
         d="m 5896.01,3254.62 v 61.2" /><path
         id="path176"
         style="fill:none;stroke:#000000;stroke-width:9.18000031;stroke-linecap:butt;stroke-linejoin:miter;stroke-miterlimit:10;stroke-dasharray:none;stroke-opacity:1"
         d="m 5896.01,5202 v -61.2" /><path
         id="path178"
         style="fill:none;stroke:#000000;stroke-width:9.18000031;stroke-linecap:butt;stroke-linejoin:miter;stroke-miterlimit:10;stroke-dasharray:none;stroke-opacity:1"
         d="m 4236.27,3254.62 v 122.4" /><path
         id="path180"
         style="fill:none;stroke:#000000;stroke-width:9.18000031;stroke-linecap:butt;stroke-linejoin:miter;stroke-miterlimit:10;stroke-dasharray:none;stroke-opacity:1"
         d="M 4236.27,5202 V 5079.6" /><path
         id="path182"
         style="fill:none;stroke:#000000;stroke-width:9.18000031;stroke-linecap:butt;stroke-linejoin:miter;stroke-miterlimit:10;stroke-dasharray:none;stroke-opacity:1"
         d="m 5342.76,3254.62 v 122.4" /><path
         id="path184"
         style="fill:none;stroke:#000000;stroke-width:9.18000031;stroke-linecap:butt;stroke-linejoin:miter;stroke-miterlimit:10;stroke-dasharray:none;stroke-opacity:1"
         d="M 5342.76,5202 V 5079.6" /><g
         transform="scale(10)"
         id="g186"><text
           id="text192"
           style="font-variant:normal;font-weight:normal;font-size:17.13599968px;font-family:'Times New Roman';-inkscape-font-specification:Times-Roman;writing-mode:lr-tb;fill:#000000;fill-opacity:1;fill-rule:nonzero;stroke:none"
           transform="matrix(1,0,0,-1,411.08,526.565)"><tspan
             id="tspan188"
             y="0"
             x="0 8.5679998 17.136 110.5882 119.1562 127.72421">200400</tspan><tspan
             id="tspan190"
             y="-24.7246"
             x="112.669">p</tspan></text>
<text
           id="text196"
           style="font-variant:normal;font-weight:normal;font-size:12.11760044px;font-family:'Times New Roman';-inkscape-font-specification:Times-Roman;writing-mode:lr-tb;fill:#000000;fill-opacity:1;fill-rule:nonzero;stroke:none"
           transform="matrix(1,0,0,-1,532.3783,544.4353)"><tspan
             id="tspan194"
             y="0"
             x="0">z</tspan></text>
<text
           id="text200"
           style="font-variant:normal;font-weight:normal;font-size:17.13599968px;font-family:'Times New Roman';-inkscape-font-specification:Times-Roman;writing-mode:lr-tb;fill:#000000;fill-opacity:1;fill-rule:nonzero;stroke:none"
           transform="matrix(1,0,0,-1,541.98652,551.2896)"><tspan
             id="tspan198"
             y="0"
             x="0 5.7062879 20.940191 28.548576 40.920769 45.684574 53.292961">(MeV/c)</tspan></text>
</g><path
         id="path202"
         style="fill:none;stroke:#000000;stroke-width:9.18000031;stroke-linecap:butt;stroke-linejoin:miter;stroke-miterlimit:10;stroke-dasharray:none;stroke-opacity:1"
         d="M 4236.27,3254.62 V 5202" /><path
         id="path204"
         style="fill:none;stroke:#000000;stroke-width:9.18000031;stroke-linecap:butt;stroke-linejoin:miter;stroke-miterlimit:10;stroke-dasharray:none;stroke-opacity:1"
         d="m 4236.27,3416.8 h 61.19" /><path
         id="path206"
         style="fill:none;stroke:#000000;stroke-width:9.18000031;stroke-linecap:butt;stroke-linejoin:miter;stroke-miterlimit:10;stroke-dasharray:none;stroke-opacity:1"
         d="m 4236.27,3741.77 h 61.19" /><path
         id="path208"
         style="fill:none;stroke:#000000;stroke-width:9.18000031;stroke-linecap:butt;stroke-linejoin:miter;stroke-miterlimit:10;stroke-dasharray:none;stroke-opacity:1"
         d="m 4236.27,4066.13 h 61.19" /><path
         id="path210"
         style="fill:none;stroke:#000000;stroke-width:9.18000031;stroke-linecap:butt;stroke-linejoin:miter;stroke-miterlimit:10;stroke-dasharray:none;stroke-opacity:1"
         d="m 4236.27,4390.49 h 61.19" /><path
         id="path212"
         style="fill:none;stroke:#000000;stroke-width:9.18000031;stroke-linecap:butt;stroke-linejoin:miter;stroke-miterlimit:10;stroke-dasharray:none;stroke-opacity:1"
         d="m 4236.27,4715.46 h 61.19" /><path
         id="path214"
         style="fill:none;stroke:#000000;stroke-width:9.18000031;stroke-linecap:butt;stroke-linejoin:miter;stroke-miterlimit:10;stroke-dasharray:none;stroke-opacity:1"
         d="m 4236.27,5039.82 h 61.19" /><path
         id="path216"
         style="fill:none;stroke:#000000;stroke-width:9.18000031;stroke-linecap:butt;stroke-linejoin:miter;stroke-miterlimit:10;stroke-dasharray:none;stroke-opacity:1"
         d="m 4236.27,3254.62 h 122.39" /><path
         id="path218"
         style="fill:none;stroke:#000000;stroke-width:9.18000031;stroke-linecap:butt;stroke-linejoin:miter;stroke-miterlimit:10;stroke-dasharray:none;stroke-opacity:1"
         d="m 4236.27,3578.98 h 122.39" /><path
         id="path220"
         style="fill:none;stroke:#000000;stroke-width:9.18000031;stroke-linecap:butt;stroke-linejoin:miter;stroke-miterlimit:10;stroke-dasharray:none;stroke-opacity:1"
         d="m 4236.27,3903.95 h 122.39" /><path
         id="path222"
         style="fill:none;stroke:#000000;stroke-width:9.18000031;stroke-linecap:butt;stroke-linejoin:miter;stroke-miterlimit:10;stroke-dasharray:none;stroke-opacity:1"
         d="m 4236.27,4228.31 h 122.39" /><path
         id="path224"
         style="fill:none;stroke:#000000;stroke-width:9.18000031;stroke-linecap:butt;stroke-linejoin:miter;stroke-miterlimit:10;stroke-dasharray:none;stroke-opacity:1"
         d="m 4236.27,4552.67 h 122.39" /><path
         id="path226"
         style="fill:none;stroke:#000000;stroke-width:9.18000031;stroke-linecap:butt;stroke-linejoin:miter;stroke-miterlimit:10;stroke-dasharray:none;stroke-opacity:1"
         d="m 4236.27,4877.64 h 122.39" /><path
         id="path228"
         style="fill:none;stroke:#000000;stroke-width:9.18000031;stroke-linecap:butt;stroke-linejoin:miter;stroke-miterlimit:10;stroke-dasharray:none;stroke-opacity:1"
         d="M 4236.27,3254.62 V 5202 H 7001.89 V 3254.62 Z" /><path
         id="path230"
         style="fill:#ffffff;fill-opacity:1;fill-rule:nonzero;stroke:none"
         d="M 3086.93,3755.84 H 5263.2 v 810.289 H 3086.93 Z" /><path
         id="path232"
         style="fill:none;stroke:#000000;stroke-width:9.18000031;stroke-linecap:butt;stroke-linejoin:miter;stroke-miterlimit:10;stroke-dasharray:none;stroke-opacity:1"
         d="M 3086.93,4566.13 V 3755.84 H 5263.2 v 810.29 z" /><g
         transform="scale(10)"
         id="g234"><text
           id="text238"
           style="font-variant:normal;font-weight:normal;font-size:17.13599968px;font-family:'Times New Roman';-inkscape-font-specification:Times-Roman;writing-mode:lr-tb;fill:#000000;fill-opacity:1;fill-rule:nonzero;stroke:none"
           transform="matrix(1,0,0,-1,352.451,432.011)"><tspan
             id="tspan236"
             y="0"
             x="0 12.372192">Vp</tspan></text>
<text
           id="text242"
           style="font-variant:normal;font-weight:normal;font-size:12.11760044px;font-family:'Times New Roman';-inkscape-font-specification:Times-Roman;writing-mode:lr-tb;fill:#000000;fill-opacity:1;fill-rule:nonzero;stroke:none"
           transform="matrix(1,0,0,-1,373.3201,442.2926)"><tspan
             id="tspan240"
             y="0"
             x="0 6.0588002">11</tspan></text>
<text
           id="text246"
           style="font-variant:normal;font-weight:normal;font-size:17.13599968px;font-family:'Times New Roman';-inkscape-font-specification:Times-Roman;writing-mode:lr-tb;fill:#000000;fill-opacity:1;fill-rule:nonzero;stroke:none"
           transform="matrix(1,0,0,-1,385.3154,432.011)"><tspan
             id="tspan244"
             y="0"
             x="0 11.429712 19.038095 23.322096 32.849712 45.221905 55.692001 68.064194">Be FOLD </tspan></text>
<text
           id="text250"
           style="font-variant:normal;font-weight:normal;font-size:17.13599968px;font-family:Symbol;-inkscape-font-specification:Symbol;writing-mode:lr-tb;fill:#000000;fill-opacity:1;fill-rule:nonzero;stroke:none"
           transform="matrix(1,0,0,-1,457.5927,432.011)"><tspan
             id="tspan248"
             y="0"
             x="0">σ</tspan></text>
<text
           id="text254"
           style="font-variant:normal;font-weight:normal;font-size:17.13599968px;font-family:'Times New Roman';-inkscape-font-specification:Times-Roman;writing-mode:lr-tb;fill:#000000;fill-opacity:1;fill-rule:nonzero;stroke:none"
           transform="matrix(1,0,0,-1,467.8743,432.011)"><tspan
             id="tspan252"
             y="0"
             x="0 9.6647043 18.232704 26.800703 31.084703 44.416512">=35 mb</tspan></text>
</g><path
         id="path256"
         style="fill:none;stroke:#000000;stroke-width:18.36000061;stroke-linecap:butt;stroke-linejoin:miter;stroke-miterlimit:10;stroke-dasharray:none;stroke-opacity:1"
         d="m 3157.31,4393.55 h 244.8" /><g
         transform="scale(10)"
         id="g258"><text
           id="text262"
           style="font-variant:normal;font-weight:normal;font-size:17.13599968px;font-family:'Times New Roman';-inkscape-font-specification:Times-Roman;writing-mode:lr-tb;fill:#000000;fill-opacity:1;fill-rule:nonzero;stroke:none"
           transform="matrix(1,0,0,-1,352.451,403.614)"><tspan
             id="tspan260"
             y="0"
             x="0 12.372192">Vp</tspan></text>
<text
           id="text266"
           style="font-variant:normal;font-weight:normal;font-size:12.11760044px;font-family:'Times New Roman';-inkscape-font-specification:Times-Roman;writing-mode:lr-tb;fill:#000000;fill-opacity:1;fill-rule:nonzero;stroke:none"
           transform="matrix(1,0,0,-1,373.3201,413.8956)"><tspan
             id="tspan264"
             y="0"
             x="0 6.0588002">11</tspan></text>
<text
           id="text270"
           style="font-variant:normal;font-weight:normal;font-size:17.13599968px;font-family:'Times New Roman';-inkscape-font-specification:Times-Roman;writing-mode:lr-tb;fill:#000000;fill-opacity:1;fill-rule:nonzero;stroke:none"
           transform="matrix(1,0,0,-1,385.3154,403.614)"><tspan
             id="tspan268"
             y="0"
             x="0 11.429712 19.038095 23.322096 35.694286 48.066479">Be KD </tspan></text>
<text
           id="text274"
           style="font-variant:normal;font-weight:normal;font-size:17.13599968px;font-family:Symbol;-inkscape-font-specification:Symbol;writing-mode:lr-tb;fill:#000000;fill-opacity:1;fill-rule:nonzero;stroke:none"
           transform="matrix(1,0,0,-1,437.6416,403.614)"><tspan
             id="tspan272"
             y="0"
             x="0">σ</tspan></text>
<text
           id="text278"
           style="font-variant:normal;font-weight:normal;font-size:17.13599968px;font-family:'Times New Roman';-inkscape-font-specification:Times-Roman;writing-mode:lr-tb;fill:#000000;fill-opacity:1;fill-rule:nonzero;stroke:none"
           transform="matrix(1,0,0,-1,447.9842,403.614)"><tspan
             id="tspan276"
             y="0"
             x="0 9.6647043 18.232704 26.800703 31.084703 44.416512">=32 mb</tspan></text>
</g><path
         id="path280"
         style="fill:none;stroke:#ff0000;stroke-width:18.36000061;stroke-linecap:butt;stroke-linejoin:miter;stroke-miterlimit:10;stroke-dasharray:none;stroke-opacity:1"
         d="m 3157.31,4109.58 h 244.8" /><g
         transform="scale(10)"
         id="g282"><text
           id="text286"
           style="font-variant:normal;font-weight:normal;font-size:17.13599968px;font-family:'Times New Roman';-inkscape-font-specification:Times-Roman;writing-mode:lr-tb;fill:#000000;fill-opacity:1;fill-rule:nonzero;stroke:none"
           transform="matrix(1,0,0,-1,352.451,381.888)"><tspan
             id="tspan284"
             y="0"
             x="0 9.5276155 17.136 25.704 34.271999 41.880383 49.48877 58.056767">Faddeev </tspan></text>
<text
           id="text290"
           style="font-variant:normal;font-weight:normal;font-size:17.13599968px;font-family:Symbol;-inkscape-font-specification:Symbol;writing-mode:lr-tb;fill:#000000;fill-opacity:1;fill-rule:nonzero;stroke:none"
           transform="matrix(1,0,0,-1,414.8752,381.888)"><tspan
             id="tspan288"
             y="0"
             x="0">σ</tspan></text>
<text
           id="text294"
           style="font-variant:normal;font-weight:normal;font-size:17.13599968px;font-family:'Times New Roman';-inkscape-font-specification:Times-Roman;writing-mode:lr-tb;fill:#000000;fill-opacity:1;fill-rule:nonzero;stroke:none"
           transform="matrix(1,0,0,-1,425.1565,381.888)"><tspan
             id="tspan292"
             y="0"
             x="0 9.6647043 18.232704 26.800703 31.084703 44.416512">=33 mb</tspan></text>
</g><path
         id="path296"
         style="fill:none;stroke:#0000ff;stroke-width:18.36000061;stroke-linecap:butt;stroke-linejoin:miter;stroke-miterlimit:10;stroke-dasharray:none;stroke-opacity:1"
         d="m 3157.31,3877.02 h 244.8" /><path
         id="path298"
         style="fill:none;stroke:#000000;stroke-width:18.36000061;stroke-linecap:butt;stroke-linejoin:miter;stroke-miterlimit:10;stroke-dasharray:none;stroke-opacity:1"
         d="m 1245.42,918 h 56.92 l 4.89,11.016 5.51,-0.614 4.9,-0.609 4.89,-0.613 5.51,-0.614 h 4.9 l 5.51,-0.609 h 4.89 l 5.51,-0.613 h 4.89 4.9 5.51 4.89 5.51 l 4.9,0.613 h 5.51 l 4.89,0.609 4.9,0.614 5.51,0.613 4.89,0.609 5.51,1.227 4.89,0.609 5.51,0.614 4.9,0.613 4.9,1.223 5.5,0.613 4.9,0.609 5.51,1.227 4.89,1.222 5.51,1.227 4.9,0.609 4.89,1.836 5.51,1.227 4.9,1.222 5.51,1.836 4.89,1.223 5.51,1.836 4.9,1.836 4.89,1.836 5.51,2.449 4.9,1.836 5.5,2.449 4.9,2.446 5.51,2.449 4.9,3.058 4.89,2.45 5.51,3.058 4.9,3.063 5.5,3.672 4.9,3.671 5.51,3.672 4.89,3.672 4.9,4.285 5.51,4.282 4.89,4.281 5.51,4.9 4.9,4.9 5.51,5.5 4.89,4.9 4.89,6.12 5.51,5.51 4.9,5.51 5.51,6.12 4.89,6.73 5.51,6.73 4.9,7.35 4.89,7.34 5.51,7.34 4.9,8.57 5.51,7.96 4.89,8.56 5.51,9.18 4.89,9.18 4.9,9.8 5.51,9.79 4.9,10.4 5.5,10.41 4.9,10.4 5.51,11.63 4.89,11.01 4.9,11.63 5.51,12.24 4.9,12.24 5.5,12.85 4.9,12.86 5.51,13.46 4.89,13.47 4.9,14.07 5.51,14.07 4.89,14.7 5.51,14.68 4.9,14.69 5.5,15.3 4.9,15.3 4.9,15.91 5.51,16.53 4.89,16.52 5.51,16.52 4.89,17.14 5.51,17.14 4.9,17.74 4.89,17.75 5.51,18.36 4.9,18.36 5.51,18.36 4.89,18.36 5.51,18.36 4.9,18.98 4.89,18.96 5.51,19.59 4.89,20.2 5.51,20.19 4.9,20.81 5.51,20.81 4.89,21.42 4.9,22.03 5.51,21.42 4.89,22.03 5.51,22.65 4.9,22.64 5.5,20.81 4.9,21.42 4.9,22.03 5.51,22.65 4.89,22.64 5.51,23.87 4.9,23.25 5.5,23.87 4.9,24.48 4.9,24.48 5.5,24.48 4.9,25.09 5.51,24.48 4.9,25.09 5.5,25.71 4.9,28.15 4.9,26.93 5.5,26.93 4.9,25.7 5.51,24.48 4.89,24.48 5.51,23.26 4.9,22.64 5.5,21.42 4.9,21.42 4.9,20.2 5.51,19.58 4.89,18.36 5.51,18.36 4.89,17.14 5.51,15.91 4.9,15.91 4.89,14.69 5.51,14.69 4.9,13.46 5.51,13.46 4.89,12.25 5.51,12.23 4.9,11.63 4.89,10.4 5.51,10.41 4.89,9.79 5.51,8.57 4.9,8.57 5.51,6.73 4.89,5.51 4.9,4.89 5.51,4.9 4.89,4.28 5.51,4.9 4.9,4.28 5.5,4.29 4.9,3.67 4.9,3.67 5.51,3.06 4.89,2.45 5.51,2.45 4.9,1.83 5.5,1.23 4.9,4.28 4.9,5.51 5.5,3.06 4.9,1.83 5.51,0.62 4.9,-1.84 5.5,-3.06 4.9,-4.28 4.89,-5.51 5.51,-7.34 4.9,-8.57 5.51,-9.79 4.89,-11.02 5.51,-12.24 4.9,-13.47 4.89,-14.68 5.51,-16.53 4.9,-17.13 5.51,-17.75 4.89,-18.36 5.51,-19.58 4.89,-19.59 4.9,-20.8 5.51,-20.81 4.89,-21.43 5.51,-22.03 4.9,-22.64 5.51,-23.25 4.89,-23.26 4.9,-23.26 5.51,-25.7 4.89,-25.71 5.51,-25.7 4.9,-25.7 5.5,-25.1 4.9,-25.7 4.9,-25.09 5.5,-25.09 4.9,-25.1 5.51,-25.09 4.89,-25.09 5.51,-24.48 4.9,-24.48 4.9,-24.48 5.5,-23.87 4.9,-24.48 5.51,-24.48 4.89,-23.87 5.51,-23.86 4.9,-23.26 4.89,-23.26 5.51,-22.64 4.9,-22.03 5.5,-22.03 4.9,-21.43 5.51,-21.41 4.9,-20.81 4.89,-20.2 5.51,-20.19 4.89,-20.2 5.51,-19.58 4.9,-19.59 5.51,-18.97 4.89,-18.97 4.9,-17.75 5.51,-18.36 4.89,-17.14 5.51,-17.13 4.9,-17.14 5.51,-15.91 4.89,-16.52 4.89,-15.31 5.51,-15.29 4.9,-15.3 5.51,-14.69 4.89,-14.08 5.51,-14.07 4.9,-14.08 4.89,-13.47 5.51,-12.85 4.9,-12.85 5.5,-12.24 4.9,-12.24 5.51,-12.24 4.9,-11.63 4.89,-11.01 5.51,-11.02 4.9,-11.01 5.5,-10.41 4.9,-10.4 5.51,-9.79 4.89,-9.8 4.9,-9.18 5.51,-9.18 4.9,-9.18 5.5,-8.56 4.9,-9.18 5.51,-7.96 4.89,-8.57 4.9,-7.95 5.51,-7.96 4.89,-7.34 5.51,-7.35 4.9,-7.34 5.5,-7.35 4.9,-6.73 4.9,-6.73 5.51,-6.73 4.89,-6.12 5.51,-6.12 4.89,-6.12 5.51,-6.12 4.9,-5.51 4.89,-6.12 5.51,-5.51 4.9,-5.51 5.51,-4.89 4.89,-5.51 5.51,-4.9 4.89,-4.89 5.52,-4.9 4.89,-4.28 4.9,-4.9 5.5,-4.28 4.9,-4.29 5.51,-4.28 4.89,-3.67 5.51,-4.29 4.9,-3.67 4.89,-3.67 5.51,-3.67 4.9,-3.68 5.5,-3.67 4.9,-3.67 5.51,-3.06 4.9,-3.06 4.89,-3.06 5.51,-3.06 4.9,-3.06 5.5,-3.06 4.9,-2.45 5.51,-3.06 4.89,-2.445 4.9,-2.446 5.51,-2.449 4.9,-2.449 5.5,-2.446 4.9,-2.449 5.51,-1.836 4.89,-2.449 4.9,-1.836 5.51,-1.836 4.89,-1.836 5.51,-2.445 4.9,-1.227 5.51,-1.836 4.89,-1.835 4.9,-1.836 5.51,-1.836 4.89,-1.223 5.51,-1.836 4.89,-1.226 5.51,-1.223 4.9,-1.836 4.89,-1.223 5.51,-1.226 4.9,-1.223 5.51,-1.223 4.89,-0.613 5.51,-1.223 4.89,-1.226 4.9,-1.223 5.51,-0.613 4.9,-1.223 5.5,-0.613 4.9,-1.223 5.51,-0.613 4.89,-1.223 4.9,-0.613 5.51,-0.609 4.89,-1.227 5.51,-0.609 4.9,-0.613 5.5,-0.614 4.9,-0.609 4.9,-0.613 5.51,-0.614 4.89,-0.609 5.51,-0.613 4.9,-0.614 5.5,-0.613 4.9,-0.609 4.9,-0.614 h 5.5 l 4.9,-0.613 5.51,-0.609 4.9,-0.613 h 5.5 l 4.9,-0.614 4.89,-0.609 h 5.51 l 4.9,-0.613 h 5.51 l 4.89,-0.614 5.51,-0.609 h 4.9 l 4.89,-0.613 h 5.51 l 4.89,-0.614 h 5.52 l 4.89,-0.609 h 5.51 4.89 l 4.9,-0.613 h 5.51 l 4.89,-0.614 h 5.51 4.9 l 5.51,-0.609 h 4.89 4.9 l 5.5,-0.613 h 4.9 l 5.51,-0.614 4.9,-0.609 h 5.5 4.9 4.9 l 5.5,-0.613 h 4.9 5.51 4.89 l 5.51,-0.613 h 4.9 4.9 5.5 4.9 l 5.51,-0.61 h 4.89 5.51 4.9 4.89 5.51 l 4.9,-0.613 h 5.51 4.89 5.51 4.9 4.89 5.51 4.89 5.51 l 4.9,-0.613 5.51,0.613 4.89,1.223 h 4.9 l 5.51,0.613 h 4.89 l 5.51,0.613 h 4.89 l 5.51,-0.613 h 4.9 l 4.9,-0.613 h 5.5 l 4.9,-0.61 5.51,-0.613 4.89,-0.613 h 5.51 l 4.9,-0.61 4.89,-0.613 5.51,-0.613 4.9,-0.61 h 5.5 l 4.9,1.223 h 5.51 l 4.9,0.613 5.5,-0.613 h 4.9 4.9 5.5 l 4.9,-1.223 h 5.51 l 3.67,0.61" /><path
         id="path300"
         style="fill:none;stroke:#ff0000;stroke-width:18.36000061;stroke-linecap:butt;stroke-linejoin:miter;stroke-miterlimit:10;stroke-dasharray:none;stroke-opacity:1"
         d="m 1245.42,918 h 56.92 l 4.89,4.285 h 10.41 l 4.89,0.61 h 5.51 4.9 5.51 l 4.89,0.613 h 5.51 l 4.89,0.613 h 4.9 5.51 l 4.89,0.609 h 5.51 l 4.9,0.614 5.51,0.613 4.89,0.609 4.9,0.614 5.51,0.613 4.89,0.609 5.51,0.614 4.89,0.613 5.51,0.609 4.9,0.614 4.9,1.222 5.5,0.614 4.9,1.222 5.51,0.613 4.89,1.223 5.51,0.613 4.9,1.227 4.89,1.223 5.51,1.222 4.9,1.836 5.51,1.227 4.89,1.836 5.51,1.222 4.9,1.836 4.89,1.836 5.51,1.836 4.9,1.836 5.5,2.449 4.9,2.446 5.51,1.836 4.9,3.062 4.89,2.445 5.51,2.45 4.9,3.058 5.5,3.063 4.9,3.058 5.51,3.063 4.89,3.672 4.9,3.672 5.51,4.281 4.89,3.672 5.51,4.287 4.9,4.89 5.51,4.29 4.89,4.9 4.89,4.89 5.51,5.51 4.9,4.89 5.51,5.51 4.89,6.12 5.51,6.12 4.9,6.12 4.89,6.73 5.51,6.73 4.9,7.35 5.51,7.34 4.89,7.35 5.51,7.95 4.89,7.96 4.9,8.57 5.51,8.57 4.9,8.56 5.5,9.18 4.9,9.18 5.51,9.8 4.89,9.79 4.9,10.4 5.51,10.41 4.9,10.4 5.5,11.02 4.9,11.62 5.51,11.63 4.89,11.63 4.9,12.24 5.51,12.24 4.89,12.85 5.51,12.86 4.9,12.85 5.5,13.46 4.9,14.08 4.9,14.07 5.51,14.08 4.89,14.69 5.51,15.3 4.89,14.68 5.51,15.91 4.9,15.92 4.89,15.91 5.51,15.91 4.9,17.14 5.51,16.52 4.89,15.91 5.51,16.53 4.9,17.13 4.89,17.14 5.51,18.36 4.89,18.36 5.51,18.97 4.9,18.97 5.51,19.59 4.89,20.2 4.9,20.19 5.51,20.81 4.89,21.42 5.51,20.81 4.9,22.03 5.5,20.19 4.9,20.81 4.9,21.42 5.51,22.03 4.89,22.04 5.51,23.25 4.9,22.65 5.5,23.86 4.9,23.87 4.9,23.87 5.5,24.48 4.9,24.48 5.51,24.48 4.9,24.48 5.5,25.7 4.9,27.54 4.9,26.93 5.5,26.32 4.9,25.7 5.51,24.48 4.89,24.48 5.51,23.26 4.9,22.64 5.5,22.65 4.9,20.8 4.9,20.81 5.51,20.2 4.89,19.58 5.51,18.36 4.89,18.36 5.51,17.14 4.9,16.52 4.89,15.91 5.51,15.3 4.9,14.69 5.51,14.08 4.89,13.46 5.51,12.85 4.9,12.24 4.89,11.63 5.51,11.63 4.89,10.41 5.51,9.79 4.9,9.18 5.51,7.95 4.89,6.74 4.9,6.11 5.51,6.12 4.89,5.51 5.51,5.51 4.9,4.9 5.5,4.89 4.9,4.29 4.9,3.67 5.51,3.06 4.89,3.06 5.51,2.45 4.9,1.83 5.5,1.23 4.9,4.28 4.9,4.28 5.5,3.06 4.9,1.23 h 5.51 l 4.9,-1.84 5.5,-3.67 4.9,-4.28 4.89,-6.73 5.51,-7.35 4.9,-8.57 5.51,-10.4 4.89,-11.02 5.51,-12.85 4.9,-13.46 4.89,-15.3 5.51,-16.53 4.9,-17.13 5.51,-18.36 4.89,-18.36 5.51,-19.59 4.89,-19.58 4.9,-20.2 5.51,-21.42 4.89,-21.42 5.51,-21.42 4.9,-22.64 5.51,-22.65 4.89,-22.64 4.9,-23.25 5.51,-25.1 4.89,-25.7 5.51,-25.1 4.9,-25.08 5.5,-24.49 4.9,-25.09 4.9,-24.48 5.5,-24.48 4.9,-24.48 5.51,-23.87 4.89,-23.86 5.51,-23.87 4.9,-23.87 4.9,-23.26 5.5,-23.25 4.9,-23.87 5.51,-23.26 4.89,-22.64 5.51,-22.65 4.9,-22.03 4.89,-22.03 5.51,-21.42 4.9,-21.42 5.5,-20.19 4.9,-20.81 5.51,-19.59 4.9,-19.58 4.89,-19.59 5.51,-18.96 4.89,-18.37 5.51,-18.36 4.9,-17.74 5.51,-17.75 4.89,-17.14 4.9,-17.13 5.51,-16.53 4.89,-16.52 5.51,-15.91 4.9,-15.3 5.51,-15.3 4.89,-14.69 4.89,-14.69 5.51,-14.07 4.9,-14.08 5.51,-14.08 4.89,-12.85 5.51,-13.46 4.9,-12.85 4.89,-12.25 5.51,-12.23 4.9,-12.25 5.5,-11.62 4.9,-11.02 5.51,-11.02 4.9,-11.01 4.89,-10.41 5.51,-10.4 4.9,-10.4 5.5,-9.8 4.9,-9.18 5.51,-9.18 4.89,-9.18 4.9,-8.56 5.51,-8.57 4.9,-8.57 5.5,-7.96 4.9,-8.56 5.51,-7.35 4.89,-7.95 4.9,-7.35 5.51,-7.34 4.89,-6.73 5.51,-6.74 4.9,-6.73 5.5,-6.73 4.9,-6.12 4.9,-6.12 5.51,-6.12 4.89,-6.12 5.51,-5.51 4.89,-5.51 5.51,-5.5 4.9,-5.51 4.89,-4.9 5.51,-4.89 4.9,-5.51 5.51,-4.9 4.89,-4.28 5.51,-4.9 4.89,-4.28 5.52,-4.29 4.89,-4.28 4.9,-4.28 5.5,-4.29 4.9,-3.67 5.51,-3.67 4.89,-3.67 5.51,-4.29 4.9,-3.06 4.89,-3.67 5.51,-3.67 4.9,-3.06 5.5,-3.67 4.9,-3.06 5.51,-3.06 4.9,-3.06 4.89,-2.45 5.51,-3.06 4.9,-3.06 5.5,-2.45 4.9,-2.45 5.51,-3.06 4.89,-2.445 4.9,-2.449 5.51,-2.449 4.9,-1.836 5.5,-2.446 4.9,-2.449 5.51,-1.836 4.89,-1.836 4.9,-1.836 5.51,-2.449 4.89,-1.836 5.51,-1.836 4.9,-1.222 5.51,-1.836 4.89,-1.836 4.9,-1.836 5.51,-1.227 4.89,-1.836 5.51,-1.222 4.89,-1.223 5.51,-1.836 4.9,-1.226 4.89,-1.223 5.51,-1.223 4.9,-1.226 5.51,-1.223 4.89,-1.223 5.51,-1.226 4.89,-1.223 4.9,-0.613 5.51,-1.223 4.9,-1.222 5.5,-0.614 4.9,-1.222 5.51,-0.614 4.89,-1.222 4.9,-0.614 5.51,-0.613 4.89,-1.223 5.51,-0.613 4.9,-0.609 5.5,-0.613 4.9,-0.614 4.9,-0.609 5.51,-0.613 4.89,-0.614 5.51,-0.609 4.9,-0.613 5.5,-0.614 4.9,-0.613 4.9,-0.609 5.5,-0.614 4.9,-0.613 h 5.51 l 4.9,-0.609 5.5,-0.613 4.9,-0.614 h 4.89 l 5.51,-0.609 h 4.9 l 5.51,-0.613 4.89,-0.614 h 5.51 l 4.9,-0.609 h 4.89 l 5.51,-0.613 h 4.89 l 5.52,-0.614 h 4.89 l 5.51,-0.609 h 4.89 l 4.9,-0.613 h 5.51 l 4.89,-0.614 h 5.51 4.9 l 5.51,-0.609 h 4.89 4.9 l 5.5,-0.613 h 4.9 l 5.51,-1.223 h 4.9 5.5 4.9 l 4.9,-0.613 h 5.5 4.9 5.51 4.89 l 5.51,-0.613 h 4.9 4.9 5.5 4.9 l 5.51,-0.61 h 4.89 5.51 4.9 4.89 l 5.51,-0.613 h 4.9 5.51 4.89 5.51 4.9 4.89 5.51 l 4.89,-0.613 h 5.51 4.9 l 5.51,0.613 4.89,0.613 4.9,0.61 5.51,0.613 h 4.89 l 5.51,0.613 h 4.89 l 5.51,-0.613 h 4.9 l 4.9,-0.613 h 5.5 l 4.9,-0.61 5.51,-0.613 4.89,-0.613 5.51,-0.61 h 4.9 l 4.89,-0.613 5.51,-0.613 4.9,-0.61 h 5.5 l 4.9,1.223 5.51,0.613 h 4.9 l 5.5,-0.613 h 4.9 4.9 5.5 l 4.9,-1.223 h 5.51 l 3.67,0.61" /><path
         id="path302"
         style="fill:none;stroke:#0000ff;stroke-width:18.36000061;stroke-linecap:butt;stroke-linejoin:miter;stroke-miterlimit:10;stroke-dasharray:none;stroke-opacity:1"
         d="m 918,918 h 92.41 l 91.8,0.613 92.42,2.446 91.8,5.507 92.41,13.465 92.41,27.539 91.8,52.63 92.41,88.75 92.41,143.82 18.36,37.33 18.36,41 18.36,44.68 18.36,48.35 18.36,53.24 18.36,57.52 18.36,61.82 18.97,65.48 18.36,70.38 18.37,74.06 18.36,77.72 18.35,81.4 18.36,85.06 18.36,87.52 18.36,88.13 18.98,85.06 18.35,79.57 18.36,71.6 18.37,60.59 18.36,48.95 18.36,38.56 18.36,27.54 18.36,20.2 18.97,16.52 18.36,14.69 18.36,12.85 18.36,7.35 18.36,-4.29 18.36,-18.97 18.36,-33.05 18.36,-48.34 18.97,-59.37 18.36,-68.54 18.36,-75.28 18.36,-80.78 18.36,-84.46 18.36,-85.68 18.36,-85.07 18.36,-82 18.97,-77.12 18.36,-72.83 18.36,-69.15 18.36,-64.87 18.36,-60.59 18.36,-57.53 18.36,-53.24 18.36,-50.19 18.97,-46.51 18.36,-42.84 18.36,-39.78 91.8,-159.12 92.42,-105.27 92.41,-66.7 91.8,-41.616 92.41,-24.481 92.41,-14.078 91.8,-8.566 92.41,-4.285 91.8,-2.449 92.41,-1.836 92.42,-0.61 h 0.61" /><path
         id="path304"
         style="fill:none;stroke:#000000;stroke-width:9.18000031;stroke-linecap:butt;stroke-linejoin:miter;stroke-miterlimit:10;stroke-dasharray:none;stroke-opacity:1"
         d="M 918,918 H 3683.63" /><path
         id="path306"
         style="fill:none;stroke:#000000;stroke-width:9.18000031;stroke-linecap:butt;stroke-linejoin:miter;stroke-miterlimit:10;stroke-dasharray:none;stroke-opacity:1"
         d="M 918,2865.38 H 3683.63" /><path
         id="path308"
         style="fill:none;stroke:#000000;stroke-width:9.18000031;stroke-linecap:butt;stroke-linejoin:miter;stroke-miterlimit:10;stroke-dasharray:none;stroke-opacity:1"
         d="m 1378.84,918 v 61.199" /><path
         id="path310"
         style="fill:none;stroke:#000000;stroke-width:9.18000031;stroke-linecap:butt;stroke-linejoin:miter;stroke-miterlimit:10;stroke-dasharray:none;stroke-opacity:1"
         d="m 1378.84,2865.38 v -61.2" /><path
         id="path312"
         style="fill:none;stroke:#000000;stroke-width:9.18000031;stroke-linecap:butt;stroke-linejoin:miter;stroke-miterlimit:10;stroke-dasharray:none;stroke-opacity:1"
         d="m 2300.51,918 v 61.199" /><path
         id="path314"
         style="fill:none;stroke:#000000;stroke-width:9.18000031;stroke-linecap:butt;stroke-linejoin:miter;stroke-miterlimit:10;stroke-dasharray:none;stroke-opacity:1"
         d="m 2300.51,2865.38 v -61.2" /><path
         id="path316"
         style="fill:none;stroke:#000000;stroke-width:9.18000031;stroke-linecap:butt;stroke-linejoin:miter;stroke-miterlimit:10;stroke-dasharray:none;stroke-opacity:1"
         d="m 3222.79,918 v 61.199" /><path
         id="path318"
         style="fill:none;stroke:#000000;stroke-width:9.18000031;stroke-linecap:butt;stroke-linejoin:miter;stroke-miterlimit:10;stroke-dasharray:none;stroke-opacity:1"
         d="m 3222.79,2865.38 v -61.2" /><path
         id="path320"
         style="fill:none;stroke:#000000;stroke-width:9.18000031;stroke-linecap:butt;stroke-linejoin:miter;stroke-miterlimit:10;stroke-dasharray:none;stroke-opacity:1"
         d="m 918,918 v 122.4" /><path
         id="path322"
         style="fill:none;stroke:#000000;stroke-width:9.18000031;stroke-linecap:butt;stroke-linejoin:miter;stroke-miterlimit:10;stroke-dasharray:none;stroke-opacity:1"
         d="m 918,2865.38 v -122.4" /><path
         id="path324"
         style="fill:none;stroke:#000000;stroke-width:9.18000031;stroke-linecap:butt;stroke-linejoin:miter;stroke-miterlimit:10;stroke-dasharray:none;stroke-opacity:1"
         d="m 1839.67,918 v 122.4" /><path
         id="path326"
         style="fill:none;stroke:#000000;stroke-width:9.18000031;stroke-linecap:butt;stroke-linejoin:miter;stroke-miterlimit:10;stroke-dasharray:none;stroke-opacity:1"
         d="m 1839.67,2865.38 v -122.4" /><path
         id="path328"
         style="fill:none;stroke:#000000;stroke-width:9.18000031;stroke-linecap:butt;stroke-linejoin:miter;stroke-miterlimit:10;stroke-dasharray:none;stroke-opacity:1"
         d="m 2761.34,918 v 122.4" /><path
         id="path330"
         style="fill:none;stroke:#000000;stroke-width:9.18000031;stroke-linecap:butt;stroke-linejoin:miter;stroke-miterlimit:10;stroke-dasharray:none;stroke-opacity:1"
         d="m 2761.34,2865.38 v -122.4" /><path
         id="path332"
         style="fill:none;stroke:#000000;stroke-width:9.18000031;stroke-linecap:butt;stroke-linejoin:miter;stroke-miterlimit:10;stroke-dasharray:none;stroke-opacity:1"
         d="m 3683.63,918 v 122.4" /><path
         id="path334"
         style="fill:none;stroke:#000000;stroke-width:9.18000031;stroke-linecap:butt;stroke-linejoin:miter;stroke-miterlimit:10;stroke-dasharray:none;stroke-opacity:1"
         d="m 3683.63,2865.38 v -122.4" /><g
         transform="scale(10)"
         id="g336"><text
           id="text342"
           style="font-variant:normal;font-weight:normal;font-size:17.13599968px;font-family:'Times New Roman';-inkscape-font-specification:Times-Roman;writing-mode:lr-tb;fill:#000000;fill-opacity:1;fill-rule:nonzero;stroke:none"
           transform="matrix(1,0,0,-1,87.6996,74.1742)"><tspan
             id="tspan338"
             y="0"
             x="0 87.883179 96.451172 180.05035 188.61835 272.21753 280.78552">0102030</tspan><tspan
             id="tspan340"
             y="17.8703"
             x="89.107002">E</tspan></text>
<text
           id="text346"
           style="font-variant:normal;font-weight:normal;font-size:8.56799984px;font-family:'Times New Roman';-inkscape-font-specification:Times-Roman;writing-mode:lr-tb;fill:#000000;fill-opacity:1;fill-rule:nonzero;stroke:none"
           transform="matrix(1,0,0,-1,187.3332,56.671088)"><tspan
             id="tspan344"
             y="0"
             x="0 4.2839999">10</tspan></text>
<text
           id="text350"
           style="font-variant:normal;font-weight:normal;font-size:12.11760044px;font-family:'Times New Roman';-inkscape-font-specification:Times-Roman;writing-mode:lr-tb;fill:#000000;fill-opacity:1;fill-rule:nonzero;stroke:none"
           transform="matrix(1,0,0,-1,195.9625,49.449608)"><tspan
             id="tspan348"
             y="0"
             x="0 8.0824394 13.462653 16.492054 21.872269 24.901669 34.329163">Be c.m.</tspan></text>
<text
           id="text354"
           style="font-variant:normal;font-weight:normal;font-size:17.13599968px;font-family:'Times New Roman';-inkscape-font-specification:Times-Roman;writing-mode:lr-tb;fill:#000000;fill-opacity:1;fill-rule:nonzero;stroke:none"
           transform="matrix(1,0,0,-1,237.7008,56.303908)"><tspan
             id="tspan352"
             y="0"
             x="0 5.7062879 20.940191 28.548576 40.920769">(MeV)</tspan></text>
</g><path
         id="path356"
         style="fill:none;stroke:#000000;stroke-width:9.18000031;stroke-linecap:butt;stroke-linejoin:miter;stroke-miterlimit:10;stroke-dasharray:none;stroke-opacity:1"
         d="M 918,918 V 2865.38" /><path
         id="path358"
         style="fill:none;stroke:#000000;stroke-width:9.18000031;stroke-linecap:butt;stroke-linejoin:miter;stroke-miterlimit:10;stroke-dasharray:none;stroke-opacity:1"
         d="M 3683.63,918 V 2865.38" /><path
         id="path360"
         style="fill:none;stroke:#000000;stroke-width:9.18000031;stroke-linecap:butt;stroke-linejoin:miter;stroke-miterlimit:10;stroke-dasharray:none;stroke-opacity:1"
         d="m 918,1112.62 h 61.199" /><path
         id="path362"
         style="fill:none;stroke:#000000;stroke-width:9.18000031;stroke-linecap:butt;stroke-linejoin:miter;stroke-miterlimit:10;stroke-dasharray:none;stroke-opacity:1"
         d="m 3683.63,1112.62 h -61.2" /><path
         id="path364"
         style="fill:none;stroke:#000000;stroke-width:9.18000031;stroke-linecap:butt;stroke-linejoin:miter;stroke-miterlimit:10;stroke-dasharray:none;stroke-opacity:1"
         d="m 918,1502.46 h 61.199" /><path
         id="path366"
         style="fill:none;stroke:#000000;stroke-width:9.18000031;stroke-linecap:butt;stroke-linejoin:miter;stroke-miterlimit:10;stroke-dasharray:none;stroke-opacity:1"
         d="m 3683.63,1502.46 h -61.2" /><path
         id="path368"
         style="fill:none;stroke:#000000;stroke-width:9.18000031;stroke-linecap:butt;stroke-linejoin:miter;stroke-miterlimit:10;stroke-dasharray:none;stroke-opacity:1"
         d="m 918,1891.69 h 61.199" /><path
         id="path370"
         style="fill:none;stroke:#000000;stroke-width:9.18000031;stroke-linecap:butt;stroke-linejoin:miter;stroke-miterlimit:10;stroke-dasharray:none;stroke-opacity:1"
         d="m 3683.63,1891.69 h -61.2" /><path
         id="path372"
         style="fill:none;stroke:#000000;stroke-width:9.18000031;stroke-linecap:butt;stroke-linejoin:miter;stroke-miterlimit:10;stroke-dasharray:none;stroke-opacity:1"
         d="m 918,2280.93 h 61.199" /><path
         id="path374"
         style="fill:none;stroke:#000000;stroke-width:9.18000031;stroke-linecap:butt;stroke-linejoin:miter;stroke-miterlimit:10;stroke-dasharray:none;stroke-opacity:1"
         d="m 3683.63,2280.93 h -61.2" /><path
         id="path376"
         style="fill:none;stroke:#000000;stroke-width:9.18000031;stroke-linecap:butt;stroke-linejoin:miter;stroke-miterlimit:10;stroke-dasharray:none;stroke-opacity:1"
         d="m 918,2670.77 h 61.199" /><path
         id="path378"
         style="fill:none;stroke:#000000;stroke-width:9.18000031;stroke-linecap:butt;stroke-linejoin:miter;stroke-miterlimit:10;stroke-dasharray:none;stroke-opacity:1"
         d="m 3683.63,2670.77 h -61.2" /><path
         id="path380"
         style="fill:none;stroke:#000000;stroke-width:9.18000031;stroke-linecap:butt;stroke-linejoin:miter;stroke-miterlimit:10;stroke-dasharray:none;stroke-opacity:1"
         d="m 918,918 h 122.4" /><path
         id="path382"
         style="fill:none;stroke:#000000;stroke-width:9.18000031;stroke-linecap:butt;stroke-linejoin:miter;stroke-miterlimit:10;stroke-dasharray:none;stroke-opacity:1"
         d="m 3683.63,918 h -122.4" /><path
         id="path384"
         style="fill:none;stroke:#000000;stroke-width:9.18000031;stroke-linecap:butt;stroke-linejoin:miter;stroke-miterlimit:10;stroke-dasharray:none;stroke-opacity:1"
         d="m 918,1307.23 h 122.4" /><path
         id="path386"
         style="fill:none;stroke:#000000;stroke-width:9.18000031;stroke-linecap:butt;stroke-linejoin:miter;stroke-miterlimit:10;stroke-dasharray:none;stroke-opacity:1"
         d="m 3683.63,1307.23 h -122.4" /><path
         id="path388"
         style="fill:none;stroke:#000000;stroke-width:9.18000031;stroke-linecap:butt;stroke-linejoin:miter;stroke-miterlimit:10;stroke-dasharray:none;stroke-opacity:1"
         d="m 918,1697.07 h 122.4" /><path
         id="path390"
         style="fill:none;stroke:#000000;stroke-width:9.18000031;stroke-linecap:butt;stroke-linejoin:miter;stroke-miterlimit:10;stroke-dasharray:none;stroke-opacity:1"
         d="m 3683.63,1697.07 h -122.4" /><path
         id="path392"
         style="fill:none;stroke:#000000;stroke-width:9.18000031;stroke-linecap:butt;stroke-linejoin:miter;stroke-miterlimit:10;stroke-dasharray:none;stroke-opacity:1"
         d="m 918,2086.31 h 122.4" /><path
         id="path394"
         style="fill:none;stroke:#000000;stroke-width:9.18000031;stroke-linecap:butt;stroke-linejoin:miter;stroke-miterlimit:10;stroke-dasharray:none;stroke-opacity:1"
         d="m 3683.63,2086.31 h -122.4" /><path
         id="path396"
         style="fill:none;stroke:#000000;stroke-width:9.18000031;stroke-linecap:butt;stroke-linejoin:miter;stroke-miterlimit:10;stroke-dasharray:none;stroke-opacity:1"
         d="m 918,2475.54 h 122.4" /><path
         id="path398"
         style="fill:none;stroke:#000000;stroke-width:9.18000031;stroke-linecap:butt;stroke-linejoin:miter;stroke-miterlimit:10;stroke-dasharray:none;stroke-opacity:1"
         d="m 3683.63,2475.54 h -122.4" /><path
         id="path400"
         style="fill:none;stroke:#000000;stroke-width:9.18000031;stroke-linecap:butt;stroke-linejoin:miter;stroke-miterlimit:10;stroke-dasharray:none;stroke-opacity:1"
         d="m 918,2865.38 h 122.4" /><path
         id="path402"
         style="fill:none;stroke:#000000;stroke-width:9.18000031;stroke-linecap:butt;stroke-linejoin:miter;stroke-miterlimit:10;stroke-dasharray:none;stroke-opacity:1"
         d="m 3683.63,2865.38 h -122.4" /><g
         transform="scale(10)"
         id="g404"><text
           id="text418"
           style="font-variant:normal;font-weight:normal;font-size:17.13599968px;font-family:'Times New Roman';-inkscape-font-specification:Times-Roman;writing-mode:lr-tb;fill:#000000;fill-opacity:1;fill-rule:nonzero;stroke:none"
           transform="matrix(1,0,0,-1,77.5402,86.1695)"><tspan
             id="tspan406"
             y="0"
             x="0">0</tspan><tspan
             id="tspan408"
             y="-38.8008"
             x="1.40781">1</tspan><tspan
             id="tspan410"
             y="-77.785202"
             x="0">2</tspan><tspan
             id="tspan412"
             y="-116.8309"
             x="0.67343801">3</tspan><tspan
             id="tspan414"
             y="-155.6317"
             x="0">4</tspan><tspan
             id="tspan416"
             y="-194.6161"
             x="0.67343801">5</tspan></text>
<text
           id="text422"
           style="font-variant:normal;font-weight:normal;font-size:17.13599968px;font-family:'Times New Roman';-inkscape-font-specification:Times-Roman;writing-mode:lr-tb;fill:#000000;fill-opacity:1;fill-rule:nonzero;stroke:none"
           transform="matrix(0,1,1,0,64.3211,106.488)"><tspan
             id="tspan420"
             y="0"
             x="0">d</tspan></text>
<text
           id="text426"
           style="font-variant:normal;font-weight:normal;font-size:17.13599968px;font-family:Symbol;-inkscape-font-specification:Symbol;writing-mode:lr-tb;fill:#000000;fill-opacity:1;fill-rule:nonzero;stroke:none"
           transform="matrix(0,1,1,0,64.3211,115.1173)"><tspan
             id="tspan424"
             y="0"
             x="0">σ</tspan></text>
<text
           id="text430"
           style="font-variant:normal;font-weight:normal;font-size:17.13599968px;font-family:'Times New Roman';-inkscape-font-specification:Times-Roman;writing-mode:lr-tb;fill:#000000;fill-opacity:1;fill-rule:nonzero;stroke:none"
           transform="matrix(0,1,1,0,64.3211,125.4603)"><tspan
             id="tspan428"
             y="0"
             x="0 4.7638078 13.331808">/dE</tspan></text>
<text
           id="text434"
           style="font-variant:normal;font-weight:normal;font-size:8.56799984px;font-family:'Times New Roman';-inkscape-font-specification:Times-Roman;writing-mode:lr-tb;fill:#000000;fill-opacity:1;fill-rule:nonzero;stroke:none"
           transform="matrix(0,1,1,0,63.892975,149.2056)"><tspan
             id="tspan432"
             y="0"
             x="0 4.2839999">10</tspan></text>
<text
           id="text438"
           style="font-variant:normal;font-weight:normal;font-size:12.11760044px;font-family:'Times New Roman';-inkscape-font-specification:Times-Roman;writing-mode:lr-tb;fill:#000000;fill-opacity:1;fill-rule:nonzero;stroke:none"
           transform="matrix(0,1,1,0,71.175785,157.8349)"><tspan
             id="tspan436"
             y="0"
             x="0 8.0824394 13.462653 16.492054 21.872269 24.901669 34.329163">Be c.m.</tspan></text>
<text
           id="text442"
           style="font-variant:normal;font-weight:normal;font-size:17.13599968px;font-family:'Times New Roman';-inkscape-font-specification:Times-Roman;writing-mode:lr-tb;fill:#000000;fill-opacity:1;fill-rule:nonzero;stroke:none"
           transform="matrix(0,1,1,0,64.321095,199.5732)"><tspan
             id="tspan440"
             y="0"
             x="0 5.7062879 19.038095 27.606096 32.369904 47.603809 55.212193 67.584381">(mb/MeV)</tspan></text>
</g><path
         id="path444"
         style="fill:none;stroke:#000000;stroke-width:9.18000031;stroke-linecap:butt;stroke-linejoin:miter;stroke-miterlimit:10;stroke-dasharray:none;stroke-opacity:1"
         d="M 918,918 V 2865.38 H 3683.63 V 918 Z" /><path
         id="path446"
         style="fill:none;stroke:#000000;stroke-width:18.36000061;stroke-linecap:butt;stroke-linejoin:miter;stroke-miterlimit:10;stroke-dasharray:none;stroke-opacity:1"
         d="m 4236.27,2623.64 28.15,3.68 27.54,11.63 27.54,17.74 27.54,23.87 27.54,26.93 28.15,29.37 27.54,28.77 27.54,26.32 27.54,22.64 27.54,15.91 28.15,8.57 27.54,0.61 27.54,-9.18 27.54,-18.36 27.54,-26.93 27.54,-35.5 28.15,-43.44 27.54,-50.19 27.54,-55.69 27.54,-59.37 27.54,-63.03 28.15,-64.26 27.54,-64.87 27.55,-64.88 27.53,-63.64 27.54,-62.43 28.16,-59.97 27.53,-57.53 27.55,-55.08 27.54,-52.02 27.54,-49.58 27.53,-47.12 28.16,-44.67 27.54,-42.23 27.54,-39.78 27.54,-37.95 27.54,-36.1 28.15,-34.27 27.54,-33.06 27.54,-31.21 27.54,-29.98 27.54,-28.77 28.15,-27.54 27.54,-26.32 27.54,-25.09 27.54,-23.86 27.54,-22.65 27.54,-22.03 28.15,-20.2 27.54,-19.58 27.55,-18.36 27.53,-17.75 27.54,-16.52 28.16,-15.3 27.54,-14.69 27.53,-14.07 27.55,-12.86 27.54,-12.85 28.15,-11.63 27.54,-11.01 27.54,-10.41 27.54,-9.79 27.54,-9.18 27.54,-9.18 28.15,-8.57 27.54,-7.95 27.54,-7.35 27.54,-7.34 27.54,-6.73 28.15,-6.74 27.54,-6.11 27.54,-6.13 27.54,-6.12 27.54,-4.89 28.16,-5.51 27.53,-4.9 27.54,-4.89 27.54,-4.29 27.55,-4.28 27.53,-3.67 28.16,-4.29 27.54,-3.67 27.54,-3.67 27.54,-3.061 27.54,-3.672 28.15,-3.059 27.54,-2.449 27.54,-3.059 27.54,-3.058 27.54,-2.449 27.54,-2.45 28.15,-2.445 27.54,-2.449 27.54,-1.836 27.54,-2.449 27.54,-1.836 28.15,-1.836 27.54,-1.836 27.54,-1.836 27.54,-1.836 h 0.61" /><path
         id="path448"
         style="fill:none;stroke:#ff0000;stroke-width:18.36000061;stroke-linecap:butt;stroke-linejoin:miter;stroke-miterlimit:10;stroke-dasharray:none;stroke-opacity:1"
         d="m 4236.27,2597.94 28.15,3.67 27.54,11.63 27.54,18.97 27.54,23.87 27.54,27.54 28.15,29.99 27.54,29.37 27.54,26.93 27.54,23.26 27.54,17.13 28.15,9.18 27.54,1.23 27.54,-7.96 27.54,-17.75 27.54,-27.54 27.54,-35.49 28.15,-43.45 27.54,-50.8 27.54,-55.69 27.54,-60.59 27.54,-63.65 28.15,-64.87 27.54,-66.1 27.55,-66.09 27.53,-64.26 27.54,-63.04 28.16,-61.2 27.53,-58.14 27.55,-55.08 27.54,-52.63 27.54,-50.18 27.53,-47.13 28.16,-44.06 27.54,-42.23 27.54,-39.78 27.54,-37.33 27.54,-35.5 28.15,-34.27 27.54,-32.44 27.54,-31.21 27.54,-29.98 27.54,-28.16 28.15,-27.54 27.54,-26.31 27.54,-25.1 27.54,-24.48 27.54,-23.25 27.54,-22.04 28.15,-20.8 27.54,-19.59 27.55,-18.97 27.53,-17.14 27.54,-17.13 28.16,-15.3 27.54,-14.69 27.53,-13.46 27.55,-12.85 27.54,-12.25 28.15,-11.01 27.54,-11.02 27.54,-9.79 27.54,-9.18 27.54,-8.57 27.54,-8.57 28.15,-7.95 27.54,-7.34 27.54,-7.35 27.54,-6.73 27.54,-6.12 28.15,-6.12 27.54,-5.51 27.54,-5.5 27.54,-5.51 27.54,-4.9 28.16,-4.9 27.53,-4.28 27.54,-4.29 27.54,-4.28 27.55,-3.67 27.53,-3.671 28.16,-3.672 27.54,-3.062 27.54,-3.059 27.54,-3.058 27.54,-3.063 28.15,-2.445 27.54,-2.449 27.54,-2.45 27.54,-2.449 27.54,-1.836 27.54,-2.445 28.15,-1.836 27.54,-1.836 27.54,-1.836 27.54,-1.836 27.54,-1.836 28.15,-1.836 27.54,-1.226 27.54,-1.836 27.54,-1.223 h 0.61" /><path
         id="path450"
         style="fill:none;stroke:#0000ff;stroke-width:18.36000061;stroke-linecap:butt;stroke-linejoin:miter;stroke-miterlimit:10;stroke-dasharray:none;stroke-opacity:1"
         d="m 4236.27,2556.32 69.15,20.2 69.16,52.63 69.15,64.26 69.16,50.19 69.15,12.24 69.16,-38.56 69.16,-89.96 69.15,-130.36 69.16,-154.83 69.15,-162.18 69.16,-155.45 69.16,-140.15 69.15,-122.4 69.16,-104.04 69.16,-88.74 69.15,-75.28 69.16,-66.71 69.15,-59.36 69.16,-53.86 69.15,-48.34 138.32,-83.24 138.31,-63.03 138.31,-44.68 138.31,-31.82 138.32,-24.48 137.69,-19.585 138.32,-15.301 138.31,-12.242 138.31,-9.179 138.31,-7.344 h 0.61" /><path
         id="path452"
         style="fill:none;stroke:#000000;stroke-width:9.18000031;stroke-linecap:butt;stroke-linejoin:miter;stroke-miterlimit:10;stroke-dasharray:none;stroke-opacity:1"
         d="M 4236.27,918 H 7001.89" /><path
         id="path454"
         style="fill:none;stroke:#000000;stroke-width:9.18000031;stroke-linecap:butt;stroke-linejoin:miter;stroke-miterlimit:10;stroke-dasharray:none;stroke-opacity:1"
         d="M 4236.27,2865.38 H 7001.89" /><path
         id="path456"
         style="fill:none;stroke:#000000;stroke-width:9.18000031;stroke-linecap:butt;stroke-linejoin:miter;stroke-miterlimit:10;stroke-dasharray:none;stroke-opacity:1"
         d="m 4582.04,918 v 61.199" /><path
         id="path458"
         style="fill:none;stroke:#000000;stroke-width:9.18000031;stroke-linecap:butt;stroke-linejoin:miter;stroke-miterlimit:10;stroke-dasharray:none;stroke-opacity:1"
         d="m 4582.04,2865.38 v -61.2" /><path
         id="path460"
         style="fill:none;stroke:#000000;stroke-width:9.18000031;stroke-linecap:butt;stroke-linejoin:miter;stroke-miterlimit:10;stroke-dasharray:none;stroke-opacity:1"
         d="m 5273.61,918 v 61.199" /><path
         id="path462"
         style="fill:none;stroke:#000000;stroke-width:9.18000031;stroke-linecap:butt;stroke-linejoin:miter;stroke-miterlimit:10;stroke-dasharray:none;stroke-opacity:1"
         d="m 5273.61,2865.38 v -61.2" /><path
         id="path464"
         style="fill:none;stroke:#000000;stroke-width:9.18000031;stroke-linecap:butt;stroke-linejoin:miter;stroke-miterlimit:10;stroke-dasharray:none;stroke-opacity:1"
         d="m 4236.27,918 v 122.4" /><path
         id="path466"
         style="fill:none;stroke:#000000;stroke-width:9.18000031;stroke-linecap:butt;stroke-linejoin:miter;stroke-miterlimit:10;stroke-dasharray:none;stroke-opacity:1"
         d="m 4236.27,2865.38 v -122.4" /><path
         id="path468"
         style="fill:none;stroke:#000000;stroke-width:9.18000031;stroke-linecap:butt;stroke-linejoin:miter;stroke-miterlimit:10;stroke-dasharray:none;stroke-opacity:1"
         d="m 4927.82,918 v 122.4" /><path
         id="path470"
         style="fill:none;stroke:#000000;stroke-width:9.18000031;stroke-linecap:butt;stroke-linejoin:miter;stroke-miterlimit:10;stroke-dasharray:none;stroke-opacity:1"
         d="m 4927.82,2865.38 v -122.4" /><path
         id="path472"
         style="fill:none;stroke:#000000;stroke-width:9.18000031;stroke-linecap:butt;stroke-linejoin:miter;stroke-miterlimit:10;stroke-dasharray:none;stroke-opacity:1"
         d="m 5619.38,918 v 122.4" /><path
         id="path474"
         style="fill:none;stroke:#000000;stroke-width:9.18000031;stroke-linecap:butt;stroke-linejoin:miter;stroke-miterlimit:10;stroke-dasharray:none;stroke-opacity:1"
         d="m 5619.38,2865.38 v -122.4" /><g
         transform="scale(10)"
         id="g476"><text
           id="text484"
           style="font-variant:normal;font-weight:normal;font-size:17.13599968px;font-family:'Times New Roman';-inkscape-font-specification:Times-Roman;writing-mode:lr-tb;fill:#000000;fill-opacity:1;fill-rule:nonzero;stroke:none"
           transform="matrix(1,0,0,-1,419.587,74.1742)"><tspan
             id="tspan478"
             y="0"
             x="0">0</tspan><tspan
             id="tspan480"
             y="0.24453101"
             x="69.462097">5</tspan><tspan
             id="tspan482"
             y="0"
             x="133.9668 142.53481">10</tspan></text>
<text
           id="text488"
           style="font-variant:normal;font-weight:normal;font-size:17.13599968px;font-family:Symbol;-inkscape-font-specification:Symbol;writing-mode:lr-tb;fill:#000000;fill-opacity:1;fill-rule:nonzero;stroke:none"
           transform="matrix(1,0,0,-1,537.703,55.8144)"><tspan
             id="tspan486"
             y="0"
             x="0">θ</tspan></text>
<text
           id="text492"
           style="font-variant:normal;font-weight:normal;font-size:17.13599968px;font-family:'Times New Roman';-inkscape-font-specification:Times-Roman;writing-mode:lr-tb;fill:#000000;fill-opacity:1;fill-rule:nonzero;stroke:none"
           transform="matrix(1,0,0,-1,550.86122,55.8144)"><tspan
             id="tspan490"
             y="0"
             x="0 5.7062879 14.274288 21.882671 30.450672">(deg)</tspan></text>
</g><path
         id="path494"
         style="fill:none;stroke:#000000;stroke-width:9.18000031;stroke-linecap:butt;stroke-linejoin:miter;stroke-miterlimit:10;stroke-dasharray:none;stroke-opacity:1"
         d="M 4236.27,918 V 2865.38" /><path
         id="path496"
         style="fill:none;stroke:#000000;stroke-width:9.18000031;stroke-linecap:butt;stroke-linejoin:miter;stroke-miterlimit:10;stroke-dasharray:none;stroke-opacity:1"
         d="m 4236.27,1112.62 h 61.19" /><path
         id="path498"
         style="fill:none;stroke:#000000;stroke-width:9.18000031;stroke-linecap:butt;stroke-linejoin:miter;stroke-miterlimit:10;stroke-dasharray:none;stroke-opacity:1"
         d="m 4236.27,1502.46 h 61.19" /><path
         id="path500"
         style="fill:none;stroke:#000000;stroke-width:9.18000031;stroke-linecap:butt;stroke-linejoin:miter;stroke-miterlimit:10;stroke-dasharray:none;stroke-opacity:1"
         d="m 4236.27,1891.69 h 61.19" /><path
         id="path502"
         style="fill:none;stroke:#000000;stroke-width:9.18000031;stroke-linecap:butt;stroke-linejoin:miter;stroke-miterlimit:10;stroke-dasharray:none;stroke-opacity:1"
         d="m 4236.27,2280.93 h 61.19" /><path
         id="path504"
         style="fill:none;stroke:#000000;stroke-width:9.18000031;stroke-linecap:butt;stroke-linejoin:miter;stroke-miterlimit:10;stroke-dasharray:none;stroke-opacity:1"
         d="m 4236.27,2670.77 h 61.19" /><path
         id="path506"
         style="fill:none;stroke:#000000;stroke-width:9.18000031;stroke-linecap:butt;stroke-linejoin:miter;stroke-miterlimit:10;stroke-dasharray:none;stroke-opacity:1"
         d="m 4236.27,918 h 122.39" /><path
         id="path508"
         style="fill:none;stroke:#000000;stroke-width:9.18000031;stroke-linecap:butt;stroke-linejoin:miter;stroke-miterlimit:10;stroke-dasharray:none;stroke-opacity:1"
         d="m 4236.27,1307.23 h 122.39" /><path
         id="path510"
         style="fill:none;stroke:#000000;stroke-width:9.18000031;stroke-linecap:butt;stroke-linejoin:miter;stroke-miterlimit:10;stroke-dasharray:none;stroke-opacity:1"
         d="m 4236.27,1697.07 h 122.39" /><path
         id="path512"
         style="fill:none;stroke:#000000;stroke-width:9.18000031;stroke-linecap:butt;stroke-linejoin:miter;stroke-miterlimit:10;stroke-dasharray:none;stroke-opacity:1"
         d="m 4236.27,2086.31 h 122.39" /><path
         id="path514"
         style="fill:none;stroke:#000000;stroke-width:9.18000031;stroke-linecap:butt;stroke-linejoin:miter;stroke-miterlimit:10;stroke-dasharray:none;stroke-opacity:1"
         d="m 4236.27,2475.54 h 122.39" /><path
         id="path516"
         style="fill:none;stroke:#000000;stroke-width:9.18000031;stroke-linecap:butt;stroke-linejoin:miter;stroke-miterlimit:10;stroke-dasharray:none;stroke-opacity:1"
         d="m 4236.27,2865.38 h 122.39" /><path
         id="path518"
         style="fill:none;stroke:#000000;stroke-width:9.18000031;stroke-linecap:butt;stroke-linejoin:miter;stroke-miterlimit:10;stroke-dasharray:none;stroke-opacity:1"
         d="M 4236.27,918 V 2865.38 H 7001.89 V 918 Z" /></g></g></svg>