<?xml version="1.0" encoding="UTF-8" standalone="no"?>
<svg
   xmlns:dc="http://purl.org/dc/elements/1.1/"
   xmlns:cc="http://creativecommons.org/ns#"
   xmlns:rdf="http://www.w3.org/1999/02/22-rdf-syntax-ns#"
   xmlns:svg="http://www.w3.org/2000/svg"
   xmlns="http://www.w3.org/2000/svg"
   viewBox="0 0 793.33331 1122.6667"
   height="1122.6667"
   width="793.33331"
   xml:space="preserve"
   id="svg2"
   version="1.1"><metadata
     id="metadata8"><rdf:RDF><cc:Work
         rdf:about=""><dc:format>image/svg+xml</dc:format><dc:type
           rdf:resource="http://purl.org/dc/dcmitype/StillImage" /></cc:Work></rdf:RDF></metadata><defs
     id="defs6" /><g
     transform="matrix(1.3333333,0,0,-1.3333333,0,1122.6667)"
     id="g10"><g
       transform="scale(0.1)"
       id="g12"><path
         id="path14"
         style="fill:#ffffff;fill-opacity:1;fill-rule:nonzero;stroke:none"
         d="M 0,0 H 7919.89 V 6120 H 0 Z" /><path
         id="path16"
         style="fill:none;stroke:#0000ff;stroke-width:18.36000061;stroke-linecap:butt;stroke-linejoin:miter;stroke-miterlimit:10;stroke-dasharray:none;stroke-opacity:1"
         d="m 917.387,3261.35 h 5.508 l 4.285,0.61 h 36.718 l 4.899,0.61 h 4.281 4.899 4.285 4.894 4.285 4.895 4.894 l 4.29,0.61 h 4.89 4.29 4.89 4.29 4.89 4.28 4.9 l 4.28,0.62 h 4.9 4.29 4.89 4.29 4.89 l 4.9,0.61 h 4.28 4.9 4.28 4.9 4.28 l 4.9,0.61 h 4.28 4.9 4.28 4.9 4.28 l 4.9,0.61 h 4.28 4.9 4.28 l 4.9,0.61 h 4.89 4.29 4.89 4.29 l 4.9,0.62 h 4.28 4.9 4.28 l 4.9,0.61 h 4.28 4.9 l 4.28,0.61 h 4.89 4.29 4.89 l 4.9,0.61 h 4.28 4.9 l 4.28,0.61 h 4.9 4.28 l 4.9,0.62 h 4.28 4.9 l 4.28,0.61 h 4.9 4.28 l 4.9,0.61 h 4.28 l 4.9,0.61 h 4.29 4.89 l 4.89,0.61 h 4.29 l 4.89,0.62 h 4.29 l 4.89,0.61 h 4.29 l 4.9,0.61 h 4.28 l 4.9,0.61 h 4.28 l 4.9,0.62 h 4.28 l 4.9,0.61 4.28,0.61 h 4.9 l 4.89,0.61 h 4.29 l 4.89,0.61 4.29,0.61 h 4.89 l 4.29,0.62 4.89,0.61 h 4.29 l 4.89,0.61 4.29,0.61 h 4.89 l 4.28,0.61 4.9,0.62 4.28,0.61 h 4.9 l 4.29,0.61 4.89,0.61 4.9,0.62 h 4.28 l 4.9,0.6 4.28,0.62 4.9,0.61 4.28,0.61 4.9,0.61 h 4.28 l 4.9,0.62 4.28,0.61 4.9,0.61 4.28,0.61 4.9,0.61 4.28,0.62 4.9,0.61 4.89,0.61 4.29,0.61 4.89,0.62 4.29,0.6 4.89,0.62 4.29,0.61 4.89,0.61 4.29,0.61 4.9,0.62 4.28,1.22 4.9,0.61 4.28,0.61 4.9,0.62 4.28,0.61 4.9,1.22 4.28,0.61 4.89,0.61 4.9,1.23 4.28,0.61 4.9,0.61 4.28,0.62 4.9,1.22 4.28,0.61 4.9,0.62 4.28,1.22 4.9,0.61 4.28,0.61 4.9,1.23 4.28,0.61 4.9,0.61 4.28,1.22 4.9,0.62 4.9,0.61 4.28,0.61 4.9,1.23 4.28,0.61 4.89,0.61 4.29,0.61 4.89,1.22 4.29,0.62 4.89,0.61 4.29,1.22 4.9,0.61 4.28,0.62 4.9,0.61 4.28,1.22 4.9,0.62 4.28,0.6 4.9,1.23 4.89,0.61 4.29,0.61 4.89,1.23 4.29,0.61 4.89,0.61 4.29,1.23 4.89,0.61 4.29,1.22 4.89,0.62 4.29,0.6 4.89,1.23 4.29,0.61 4.89,1.23 4.28,0.61 4.9,1.22 4.9,0.61 4.28,0.62 4.9,1.22 4.28,0.61 4.9,1.23 4.28,0.61 4.9,0.61 4.28,1.22 4.9,0.62 4.28,0.61 4.9,0.61 4.28,1.23 4.9,0.61 4.28,0.61 4.9,0.61 4.28,0.61 4.9,0.61 4.89,1.23 4.29,0.61 4.89,0.61 4.29,0.61 4.89,0.62 4.29,1.22 4.89,0.61 4.29,0.62 4.89,1.22 4.29,0.61 4.9,1.22 4.28,0.62 4.9,1.22 4.28,1.22 4.9,0.62 4.89,1.22 4.29,1.83 4.89,1.23 4.28,1.22 4.9,1.84 4.28,1.22 4.9,1.84 4.28,1.83 4.9,1.84 4.28,2.45 4.9,1.84 4.28,2.44 4.9,2.45 4.28,3.06 4.9,2.45 4.28,3.06 4.9,3.67 4.9,3.06 4.28,4.29 4.9,3.67 4.28,4.9 4.9,4.89 4.28,4.9 4.89,5.5 4.29,6.12 4.89,7.35 4.29,7.34 4.89,7.96 4.29,8.57 4.9,9.79 4.28,11.01 4.9,11.63 4.89,12.85 4.29,13.47 4.89,15.3 4.29,16.52 4.89,18.36 4.29,19.58 4.89,21.43 4.29,22.64 4.89,25.09 4.29,26.93 4.89,28.76 4.29,30.6 4.89,33.05 4.29,34.89 4.89,36.72 4.29,39.16 4.89,41.01 4.9,42.84 4.28,44.67 4.9,46.52 4.28,47.73 4.9,48.96 4.28,50.8 4.9,51.41 4.28,52.02 4.9,52.02 4.28,52.63 4.9,52.02 4.28,50.8 4.9,50.79 4.28,48.96 4.9,47.12 4.89,45.29 4.29,42.84 4.89,39.78 4.29,36.72 4.89,33.05 4.29,28.76 4.89,25.1 4.29,21.42 4.89,16.52 4.29,12.24 4.89,7.34 4.29,2.45 4.89,-2.45 4.29,-7.34 4.9,-12.24 4.28,-16.52 4.9,-21.42 4.89,-25.1 4.29,-28.76 4.89,-33.05 4.29,-36.72 4.89,-39.78 4.28,-42.84 4.9,-45.29 4.28,-47.12 4.9,-48.96 4.28,-50.79 4.9,-50.8 4.28,-52.02 4.9,-52.63 4.28,-52.02 4.9,-52.02 4.9,-51.41 4.28,-50.8 4.9,-48.96 4.28,-47.73 4.9,-46.52 4.28,-44.67 4.9,-42.84 4.28,-41.01 4.9,-39.16 4.28,-36.72 4.89,-34.89 4.29,-33.05 4.89,-30.6 4.29,-28.76 4.89,-26.93 4.29,-25.09 4.9,-22.64 4.89,-21.43 4.29,-19.58 4.89,-18.36 4.29,-16.52 4.89,-15.3 4.29,-13.47 4.89,-12.85 4.29,-11.63 4.89,-11.01 4.29,-9.79 4.89,-8.57 4.29,-7.96 4.89,-7.34 4.29,-7.35 4.89,-6.12 4.9,-5.5 4.28,-4.9 4.9,-4.89 4.28,-4.9 4.9,-3.67 4.28,-4.29 4.9,-3.06 4.28,-3.67 4.9,-3.06 4.28,-2.45 4.9,-3.06 4.28,-2.45 4.9,-2.44 4.28,-1.84 4.9,-2.45 4.28,-1.84 4.9,-1.83 4.89,-1.84 4.29,-1.22 4.89,-1.84 4.29,-1.22 4.89,-1.23 4.29,-1.83 4.89,-1.22 4.29,-0.62 4.89,-1.22 4.29,-1.22 4.89,-0.62 4.29,-1.22 4.89,-0.61 4.29,-1.22 4.89,-0.62 4.9,-0.61 4.29,-1.22 4.89,-0.62 4.29,-0.61 4.89,-0.61 4.29,-0.61 4.89,-1.23 4.29,-0.61 4.89,-0.61 4.28,-0.61 4.9,-0.61 4.28,-0.61 4.9,-1.23 4.28,-0.61 4.9,-0.61 4.28,-0.62 4.9,-1.22 4.9,-0.61 4.28,-0.61 4.9,-1.23 4.28,-0.61 4.9,-1.22 4.28,-0.62 4.9,-0.61 4.28,-1.22 4.9,-0.61 4.28,-1.23 4.9,-0.61 4.28,-1.23 4.89,-0.6 4.29,-0.62 4.89,-1.22 4.9,-0.61 4.28,-1.23 4.9,-0.61 4.29,-0.61 4.89,-1.23 4.29,-0.61 4.89,-0.61 4.29,-1.23 4.89,-0.6 4.29,-0.62 4.89,-1.22 4.29,-0.61 4.89,-0.62 4.29,-0.61 4.89,-1.22 4.29,-0.61 4.89,-0.62 4.9,-1.22 4.28,-0.61 4.9,-0.61 4.28,-0.61 4.9,-1.23 4.28,-0.61 4.9,-0.61 4.28,-0.62 4.9,-1.22 4.28,-0.61 4.9,-0.61 4.28,-1.23 4.9,-0.61 4.28,-0.61 4.9,-1.22 4.9,-0.62 4.28,-0.61 4.89,-1.22 4.29,-0.62 4.89,-0.61 4.29,-0.61 4.89,-1.23 4.29,-0.61 4.89,-0.61 4.29,-1.22 4.89,-0.61 4.29,-0.62 4.89,-0.61 4.29,-0.61 4.89,-1.22 4.29,-0.62 4.89,-0.61 4.9,-0.61 4.28,-0.61 4.9,-0.62 4.29,-0.6 4.89,-0.62 4.29,-0.61 4.89,-0.61 4.29,-0.61 4.89,-0.62 4.29,-0.61 4.89,-0.61 4.28,-0.61 4.9,-0.61 4.28,-0.62 h 4.9 l 4.9,-0.61 4.28,-0.61 4.9,-0.61 4.28,-0.62 4.9,-0.6 h 4.28 l 4.9,-0.62 4.28,-0.61 4.9,-0.61 h 4.28 l 4.9,-0.61 4.28,-0.62 4.9,-0.61 h 4.28 l 4.9,-0.61 4.28,-0.61 h 4.89 l 4.9,-0.61 4.28,-0.62 h 4.9 l 4.28,-0.61 4.9,-0.61 h 4.29 l 4.89,-0.61 h 4.29 l 4.89,-0.61 4.29,-0.61 h 4.89 l 4.29,-0.62 h 4.89 l 4.29,-0.61 h 4.89 l 4.9,-0.61 h 4.28 l 4.9,-0.61 h 4.28 l 4.9,-0.62 h 4.28 l 4.9,-0.61 h 4.28 4.9 l 4.28,-0.61 h 4.9 l 4.28,-0.61 h 4.9 4.28 l 4.9,-0.61 h 4.28 4.9 l 4.9,-0.62 h 4.28 4.9 l 4.28,-0.61 h 4.89 4.29 l 4.89,-0.61 h 4.29 4.89 4.29 l 4.89,-0.61 h 4.29 4.89 l 4.29,-0.61 h 4.89 4.9 4.28 l 4.9,-0.62 h 4.28 4.9 4.28 4.9 l 4.29,-0.61 h 4.89 4.29 4.89 l 4.29,-0.61 h 4.89 4.29 4.89 4.28 4.9 l 4.9,-0.61 h 4.28 4.9 4.28 4.9 4.28 l 4.9,-0.61 h 4.28 4.9 4.28 4.9 4.28 l 4.9,-0.62 h 4.28 4.9 4.89 4.29 4.89 4.28 4.9 l 4.28,-0.61 h 4.9 4.28 4.9 4.29 4.89 4.29 4.89 l 4.29,-0.61 h 4.89 4.29 4.89 4.9 4.28 4.9 4.28 4.9 l 4.28,-0.61 h 4.9 0.61" /><path
         id="path18"
         style="fill:none;stroke:#000000;stroke-width:18.36000061;stroke-linecap:butt;stroke-linejoin:miter;stroke-miterlimit:10;stroke-dasharray:none;stroke-opacity:1"
         d="m 917.387,3257.68 h 14.687 l 15.301,0.61 h 30.602 l 15.3,0.61 h 15.293 l 15.31,0.61 h 15.91 15.3 l 15.3,0.62 h 15.3 l 15.3,0.6 h 15.3 l 15.3,0.62 h 15.91 l 15.3,0.61 15.3,0.61 h 15.3 l 15.3,0.61 15.3,0.62 15.3,0.61 h 15.3 l 15.91,0.61 15.3,0.61 15.3,0.61 15.3,0.62 15.3,1.22 15.3,0.61 15.3,0.61 15.91,1.23 15.3,0.61 15.3,1.22 15.31,1.23 15.3,1.22 15.29,1.23 15.3,1.22 15.3,1.84 15.91,1.22 15.31,1.84 15.3,1.83 15.3,1.84 15.3,2.45 15.29,1.83 15.31,2.45 15.3,2.45 15.91,2.45 15.3,3.06 15.3,3.05 15.3,3.07 15.3,3.06 15.3,3.06 15.3,3.67 15.91,3.06 15.3,3.67 15.3,3.67 15.3,3.06 15.3,3.67 15.3,3.67 15.3,4.29 15.3,3.67 15.91,3.67 15.3,4.29 15.3,4.28 15.3,3.68 15.3,4.28 15.3,4.28 15.3,4.9 15.3,4.89 15.91,6.74 15.31,7.34 15.3,9.18 15.29,11.01 15.3,13.47 15.3,17.75 15.31,22.03 15.91,28.15 15.3,36.72 15.3,48.35 15.3,63.65 15.29,83.23 15.31,105.88 15.3,130.97 15.3,156.05 15.91,176.87 15.3,188.5 15.3,187.27 15.3,170.75 15.3,137.7 15.3,89.35 15.3,31.83 15.3,-31.83 15.91,-89.35 15.3,-137.7 15.3,-170.75 15.3,-187.27 15.3,-188.5 15.3,-176.87 15.3,-156.05 15.91,-130.97 15.3,-105.88 15.3,-83.23 15.3,-63.65 15.3,-48.35 15.3,-36.72 15.3,-28.15 15.3,-22.03 15.92,-17.75 15.3,-13.47 15.29,-11.01 15.3,-9.18 15.3,-7.34 15.31,-6.74 15.29,-4.89 15.92,-4.9 15.3,-4.28 15.3,-4.28 15.29,-3.68 15.31,-4.28 15.3,-4.29 15.3,-3.67 15.3,-3.67 15.91,-4.29 15.3,-3.67 15.3,-3.67 15.3,-3.06 15.3,-3.67 15.3,-3.67 15.3,-3.06 15.3,-3.67 15.91,-3.06 15.3,-3.06 15.3,-3.07 15.3,-3.05 15.3,-3.06 15.3,-2.45 15.3,-2.45 15.91,-2.45 15.3,-1.83 15.3,-2.45 15.3,-1.84 15.3,-1.83 15.3,-1.84 15.3,-1.22 15.3,-1.84 15.91,-1.22 15.3,-1.23 15.3,-1.22 15.3,-1.23 15.31,-1.22 15.29,-0.61 15.3,-1.23 15.3,-0.61 15.92,-0.61 15.29,-1.22 15.31,-0.62 15.3,-0.61 15.3,-0.61 15.3,-0.61 h 15.29 l 15.92,-0.61 15.3,-0.62 15.3,-0.61 h 15.3 l 15.3,-0.61 15.3,-0.61 h 15.3 l 15.3,-0.62 h 15.91 l 15.3,-0.6 h 15.3 l 15.3,-0.62 h 15.3 15.3 l 15.3,-0.61 h 15.3 l 15.91,-0.61 h 15.3 15.3 l 15.3,-0.61 h 14.69" /><path
         id="path20"
         style="fill:none;stroke:#ff0000;stroke-width:18.36000061;stroke-linecap:butt;stroke-linejoin:miter;stroke-miterlimit:10;stroke-dasharray:none;stroke-opacity:1"
         d="m 917.387,3257.68 14.687,0.61 h 35.496 l 17.75,0.61 h 17.75 l 17.75,0.61 h 17.74 17.75 l 17.75,0.62 h 17.75 l 17.74,0.6 17.75,0.62 h 17.75 l 17.75,0.61 17.75,0.61 h 17.75 l 17.74,0.61 17.75,0.62 17.75,0.61 18.36,0.61 17.75,0.61 17.74,0.61 17.75,0.62 17.75,0.61 17.75,1.22 17.75,0.61 17.75,1.23 17.74,0.61 17.75,1.22 17.75,1.84 17.75,1.23 17.75,1.83 17.75,1.22 17.74,1.84 17.75,2.45 17.75,1.84 17.75,2.44 17.74,1.84 17.75,3.06 17.75,2.44 18.36,3.07 17.75,3.06 17.74,3.67 17.75,3.67 17.75,3.67 17.75,3.67 17.75,3.68 17.75,3.67 17.74,3.67 17.75,3.67 17.75,4.29 17.75,4.28 17.75,4.28 17.75,4.29 17.74,4.28 17.75,4.29 17.75,4.89 17.75,4.9 17.74,5.5 17.75,7.35 18.36,8.57 17.75,11.01 17.75,14.69 17.75,18.36 17.75,24.48 17.74,33.05 17.75,45.9 17.75,61.81 17.75,85.68 17.74,113.22 17.75,146.88 17.75,179.32 17.75,206.24 17.75,219.1 17.75,210.53 17.74,176.25 17.75,118.12 17.75,42.23 17.75,-42.23 17.74,-118.12 18.36,-176.25 17.75,-210.53 17.75,-219.1 17.75,-206.24 17.75,-179.32 17.75,-146.88 17.74,-113.22 17.75,-85.68 17.75,-61.81 17.75,-45.9 17.74,-33.05 17.75,-24.48 17.75,-18.36 17.75,-14.69 17.75,-11.01 17.75,-8.57 17.74,-7.35 17.75,-5.5 17.75,-4.9 17.74,-4.89 17.75,-4.29 18.36,-4.28 17.75,-4.29 17.75,-4.28 17.75,-4.28 17.75,-4.29 17.75,-3.67 17.74,-3.67 17.75,-3.67 17.75,-3.68 17.75,-3.67 17.74,-3.67 17.75,-3.67 17.75,-3.67 17.75,-3.06 17.75,-3.07 17.74,-2.44 17.75,-3.06 17.75,-1.84 17.75,-2.44 17.74,-1.84 18.37,-2.45 17.74,-1.84 17.75,-1.22 17.75,-1.83 17.75,-1.23 17.75,-1.84 17.74,-1.22 17.75,-0.61 17.75,-1.23 17.75,-0.61 17.74,-1.22 17.75,-0.61 17.75,-0.62 17.75,-0.61 17.75,-0.61 17.75,-0.61 17.74,-0.61 17.75,-0.62 17.75,-0.61 h 17.75 l 17.74,-0.61 18.37,-0.61 h 17.74 l 17.75,-0.62 17.75,-0.6 h 17.75 l 17.75,-0.62 h 17.74 17.75 l 17.75,-0.61 h 17.75 l 17.74,-0.61 h 17.75 17.75 l 14.69,-0.61" /><path
         id="path22"
         style="fill:none;stroke:#000000;stroke-width:9.18000031;stroke-linecap:butt;stroke-linejoin:miter;stroke-miterlimit:10;stroke-dasharray:none;stroke-opacity:1"
         d="M 918,3254.62 H 3683.63" /><path
         id="path24"
         style="fill:none;stroke:#000000;stroke-width:9.18000031;stroke-linecap:butt;stroke-linejoin:miter;stroke-miterlimit:10;stroke-dasharray:none;stroke-opacity:1"
         d="M 918,5202 H 3683.63" /><path
         id="path26"
         style="fill:none;stroke:#000000;stroke-width:9.18000031;stroke-linecap:butt;stroke-linejoin:miter;stroke-miterlimit:10;stroke-dasharray:none;stroke-opacity:1"
         d="m 918,3254.62 v 61.2" /><path
         id="path28"
         style="fill:none;stroke:#000000;stroke-width:9.18000031;stroke-linecap:butt;stroke-linejoin:miter;stroke-miterlimit:10;stroke-dasharray:none;stroke-opacity:1"
         d="m 918,5202 v -61.2" /><path
         id="path30"
         style="fill:none;stroke:#000000;stroke-width:9.18000031;stroke-linecap:butt;stroke-linejoin:miter;stroke-miterlimit:10;stroke-dasharray:none;stroke-opacity:1"
         d="m 1839.67,3254.62 v 61.2" /><path
         id="path32"
         style="fill:none;stroke:#000000;stroke-width:9.18000031;stroke-linecap:butt;stroke-linejoin:miter;stroke-miterlimit:10;stroke-dasharray:none;stroke-opacity:1"
         d="m 1839.67,5202 v -61.2" /><path
         id="path34"
         style="fill:none;stroke:#000000;stroke-width:9.18000031;stroke-linecap:butt;stroke-linejoin:miter;stroke-miterlimit:10;stroke-dasharray:none;stroke-opacity:1"
         d="m 2761.34,3254.62 v 61.2" /><path
         id="path36"
         style="fill:none;stroke:#000000;stroke-width:9.18000031;stroke-linecap:butt;stroke-linejoin:miter;stroke-miterlimit:10;stroke-dasharray:none;stroke-opacity:1"
         d="m 2761.34,5202 v -61.2" /><path
         id="path38"
         style="fill:none;stroke:#000000;stroke-width:9.18000031;stroke-linecap:butt;stroke-linejoin:miter;stroke-miterlimit:10;stroke-dasharray:none;stroke-opacity:1"
         d="m 3683.63,3254.62 v 61.2" /><path
         id="path40"
         style="fill:none;stroke:#000000;stroke-width:9.18000031;stroke-linecap:butt;stroke-linejoin:miter;stroke-miterlimit:10;stroke-dasharray:none;stroke-opacity:1"
         d="m 3683.63,5202 v -61.2" /><path
         id="path42"
         style="fill:none;stroke:#000000;stroke-width:9.18000031;stroke-linecap:butt;stroke-linejoin:miter;stroke-miterlimit:10;stroke-dasharray:none;stroke-opacity:1"
         d="m 1378.84,3254.62 v 122.4" /><path
         id="path44"
         style="fill:none;stroke:#000000;stroke-width:9.18000031;stroke-linecap:butt;stroke-linejoin:miter;stroke-miterlimit:10;stroke-dasharray:none;stroke-opacity:1"
         d="M 1378.84,5202 V 5079.6" /><path
         id="path46"
         style="fill:none;stroke:#000000;stroke-width:9.18000031;stroke-linecap:butt;stroke-linejoin:miter;stroke-miterlimit:10;stroke-dasharray:none;stroke-opacity:1"
         d="m 2300.51,3254.62 v 122.4" /><path
         id="path48"
         style="fill:none;stroke:#000000;stroke-width:9.18000031;stroke-linecap:butt;stroke-linejoin:miter;stroke-miterlimit:10;stroke-dasharray:none;stroke-opacity:1"
         d="M 2300.51,5202 V 5079.6" /><path
         id="path50"
         style="fill:none;stroke:#000000;stroke-width:9.18000031;stroke-linecap:butt;stroke-linejoin:miter;stroke-miterlimit:10;stroke-dasharray:none;stroke-opacity:1"
         d="m 3222.79,3254.62 v 122.4" /><path
         id="path52"
         style="fill:none;stroke:#000000;stroke-width:9.18000031;stroke-linecap:butt;stroke-linejoin:miter;stroke-miterlimit:10;stroke-dasharray:none;stroke-opacity:1"
         d="M 3222.79,5202 V 5079.6" /><g
         transform="scale(10)"
         id="g54"><text
           id="text60"
           style="font-variant:normal;font-weight:normal;font-size:17.13599968px;font-family:'Times New Roman';-inkscape-font-specification:Times-Roman;writing-mode:lr-tb;fill:#000000;fill-opacity:1;fill-rule:nonzero;stroke:none"
           transform="matrix(1,0,0,-1,122.4,526.565)"><tspan
             id="tspan56"
             y="0"
             x="0 5.7062879 14.274288 22.842287 103.61179 187.27197 195.83998 204.40797">-2000200</tspan><tspan
             id="tspan58"
             y="-24.480101"
             x="69.155899">p</tspan></text>
<text
           id="text64"
           style="font-variant:normal;font-weight:normal;font-size:12.11760044px;font-family:'Times New Roman';-inkscape-font-specification:Times-Roman;writing-mode:lr-tb;fill:#000000;fill-opacity:1;fill-rule:nonzero;stroke:none"
           transform="matrix(1,0,0,-1,200.1852,544.19041)"><tspan
             id="tspan62"
             y="0"
             x="0">x</tspan></text>
<text
           id="text68"
           style="font-variant:normal;font-weight:normal;font-size:17.13599968px;font-family:'Times New Roman';-inkscape-font-specification:Times-Roman;writing-mode:lr-tb;fill:#000000;fill-opacity:1;fill-rule:nonzero;stroke:none"
           transform="matrix(1,0,0,-1,210.46686,551.0451)"><tspan
             id="tspan66"
             y="0"
             x="0 5.7062879 20.940191 28.548576 40.920769 45.684574 53.292961">(MeV/c)</tspan></text>
</g><path
         id="path70"
         style="fill:none;stroke:#000000;stroke-width:9.18000031;stroke-linecap:butt;stroke-linejoin:miter;stroke-miterlimit:10;stroke-dasharray:none;stroke-opacity:1"
         d="M 918,3254.62 V 5202" /><path
         id="path72"
         style="fill:none;stroke:#000000;stroke-width:9.18000031;stroke-linecap:butt;stroke-linejoin:miter;stroke-miterlimit:10;stroke-dasharray:none;stroke-opacity:1"
         d="M 3683.63,3254.62 V 5202" /><path
         id="path74"
         style="fill:none;stroke:#000000;stroke-width:9.18000031;stroke-linecap:butt;stroke-linejoin:miter;stroke-miterlimit:10;stroke-dasharray:none;stroke-opacity:1"
         d="m 918,3393.54 h 61.199" /><path
         id="path76"
         style="fill:none;stroke:#000000;stroke-width:9.18000031;stroke-linecap:butt;stroke-linejoin:miter;stroke-miterlimit:10;stroke-dasharray:none;stroke-opacity:1"
         d="m 3683.63,3393.54 h -61.2" /><path
         id="path78"
         style="fill:none;stroke:#000000;stroke-width:9.18000031;stroke-linecap:butt;stroke-linejoin:miter;stroke-miterlimit:10;stroke-dasharray:none;stroke-opacity:1"
         d="m 918,3672 h 61.199" /><path
         id="path80"
         style="fill:none;stroke:#000000;stroke-width:9.18000031;stroke-linecap:butt;stroke-linejoin:miter;stroke-miterlimit:10;stroke-dasharray:none;stroke-opacity:1"
         d="m 3683.63,3672 h -61.2" /><path
         id="path82"
         style="fill:none;stroke:#000000;stroke-width:9.18000031;stroke-linecap:butt;stroke-linejoin:miter;stroke-miterlimit:10;stroke-dasharray:none;stroke-opacity:1"
         d="m 918,3950.46 h 61.199" /><path
         id="path84"
         style="fill:none;stroke:#000000;stroke-width:9.18000031;stroke-linecap:butt;stroke-linejoin:miter;stroke-miterlimit:10;stroke-dasharray:none;stroke-opacity:1"
         d="m 3683.63,3950.46 h -61.2" /><path
         id="path86"
         style="fill:none;stroke:#000000;stroke-width:9.18000031;stroke-linecap:butt;stroke-linejoin:miter;stroke-miterlimit:10;stroke-dasharray:none;stroke-opacity:1"
         d="m 918,4228.31 h 61.199" /><path
         id="path88"
         style="fill:none;stroke:#000000;stroke-width:9.18000031;stroke-linecap:butt;stroke-linejoin:miter;stroke-miterlimit:10;stroke-dasharray:none;stroke-opacity:1"
         d="m 3683.63,4228.31 h -61.2" /><path
         id="path90"
         style="fill:none;stroke:#000000;stroke-width:9.18000031;stroke-linecap:butt;stroke-linejoin:miter;stroke-miterlimit:10;stroke-dasharray:none;stroke-opacity:1"
         d="m 918,4506.77 h 61.199" /><path
         id="path92"
         style="fill:none;stroke:#000000;stroke-width:9.18000031;stroke-linecap:butt;stroke-linejoin:miter;stroke-miterlimit:10;stroke-dasharray:none;stroke-opacity:1"
         d="m 3683.63,4506.77 h -61.2" /><path
         id="path94"
         style="fill:none;stroke:#000000;stroke-width:9.18000031;stroke-linecap:butt;stroke-linejoin:miter;stroke-miterlimit:10;stroke-dasharray:none;stroke-opacity:1"
         d="m 918,4784.62 h 61.199" /><path
         id="path96"
         style="fill:none;stroke:#000000;stroke-width:9.18000031;stroke-linecap:butt;stroke-linejoin:miter;stroke-miterlimit:10;stroke-dasharray:none;stroke-opacity:1"
         d="m 3683.63,4784.62 h -61.2" /><path
         id="path98"
         style="fill:none;stroke:#000000;stroke-width:9.18000031;stroke-linecap:butt;stroke-linejoin:miter;stroke-miterlimit:10;stroke-dasharray:none;stroke-opacity:1"
         d="m 918,5063.08 h 61.199" /><path
         id="path100"
         style="fill:none;stroke:#000000;stroke-width:9.18000031;stroke-linecap:butt;stroke-linejoin:miter;stroke-miterlimit:10;stroke-dasharray:none;stroke-opacity:1"
         d="m 3683.63,5063.08 h -61.2" /><path
         id="path102"
         style="fill:none;stroke:#000000;stroke-width:9.18000031;stroke-linecap:butt;stroke-linejoin:miter;stroke-miterlimit:10;stroke-dasharray:none;stroke-opacity:1"
         d="m 918,3254.62 h 122.4" /><path
         id="path104"
         style="fill:none;stroke:#000000;stroke-width:9.18000031;stroke-linecap:butt;stroke-linejoin:miter;stroke-miterlimit:10;stroke-dasharray:none;stroke-opacity:1"
         d="m 3683.63,3254.62 h -122.4" /><path
         id="path106"
         style="fill:none;stroke:#000000;stroke-width:9.18000031;stroke-linecap:butt;stroke-linejoin:miter;stroke-miterlimit:10;stroke-dasharray:none;stroke-opacity:1"
         d="m 918,3533.08 h 122.4" /><path
         id="path108"
         style="fill:none;stroke:#000000;stroke-width:9.18000031;stroke-linecap:butt;stroke-linejoin:miter;stroke-miterlimit:10;stroke-dasharray:none;stroke-opacity:1"
         d="m 3683.63,3533.08 h -122.4" /><path
         id="path110"
         style="fill:none;stroke:#000000;stroke-width:9.18000031;stroke-linecap:butt;stroke-linejoin:miter;stroke-miterlimit:10;stroke-dasharray:none;stroke-opacity:1"
         d="m 918,3810.93 h 122.4" /><path
         id="path112"
         style="fill:none;stroke:#000000;stroke-width:9.18000031;stroke-linecap:butt;stroke-linejoin:miter;stroke-miterlimit:10;stroke-dasharray:none;stroke-opacity:1"
         d="m 3683.63,3810.93 h -122.4" /><path
         id="path114"
         style="fill:none;stroke:#000000;stroke-width:9.18000031;stroke-linecap:butt;stroke-linejoin:miter;stroke-miterlimit:10;stroke-dasharray:none;stroke-opacity:1"
         d="m 918,4089.38 h 122.4" /><path
         id="path116"
         style="fill:none;stroke:#000000;stroke-width:9.18000031;stroke-linecap:butt;stroke-linejoin:miter;stroke-miterlimit:10;stroke-dasharray:none;stroke-opacity:1"
         d="m 3683.63,4089.38 h -122.4" /><path
         id="path118"
         style="fill:none;stroke:#000000;stroke-width:9.18000031;stroke-linecap:butt;stroke-linejoin:miter;stroke-miterlimit:10;stroke-dasharray:none;stroke-opacity:1"
         d="m 918,4367.23 h 122.4" /><path
         id="path120"
         style="fill:none;stroke:#000000;stroke-width:9.18000031;stroke-linecap:butt;stroke-linejoin:miter;stroke-miterlimit:10;stroke-dasharray:none;stroke-opacity:1"
         d="m 3683.63,4367.23 h -122.4" /><path
         id="path122"
         style="fill:none;stroke:#000000;stroke-width:9.18000031;stroke-linecap:butt;stroke-linejoin:miter;stroke-miterlimit:10;stroke-dasharray:none;stroke-opacity:1"
         d="m 918,4645.69 h 122.4" /><path
         id="path124"
         style="fill:none;stroke:#000000;stroke-width:9.18000031;stroke-linecap:butt;stroke-linejoin:miter;stroke-miterlimit:10;stroke-dasharray:none;stroke-opacity:1"
         d="m 3683.63,4645.69 h -122.4" /><path
         id="path126"
         style="fill:none;stroke:#000000;stroke-width:9.18000031;stroke-linecap:butt;stroke-linejoin:miter;stroke-miterlimit:10;stroke-dasharray:none;stroke-opacity:1"
         d="m 918,4923.54 h 122.4" /><path
         id="path128"
         style="fill:none;stroke:#000000;stroke-width:9.18000031;stroke-linecap:butt;stroke-linejoin:miter;stroke-miterlimit:10;stroke-dasharray:none;stroke-opacity:1"
         d="m 3683.63,4923.54 h -122.4" /><g
         transform="scale(10)"
         id="g130"><text
           id="text146"
           style="font-variant:normal;font-weight:normal;font-size:17.13599968px;font-family:'Times New Roman';-inkscape-font-specification:Times-Roman;writing-mode:lr-tb;fill:#000000;fill-opacity:1;fill-rule:nonzero;stroke:none"
           transform="matrix(1,0,0,-1,77.5402,319.831)"><tspan
             id="tspan132"
             y="0"
             x="0">0</tspan><tspan
             id="tspan134"
             y="-27.8461"
             x="-11.5668 -2.9988 1.2852">0.1</tspan><tspan
             id="tspan136"
             y="-55.630901"
             x="-12.97422 -4.40622 -0.12222">0.2</tspan><tspan
             id="tspan138"
             y="-83.476601"
             x="-12.239845 -3.671845 0.61215502">0.3</tspan><tspan
             id="tspan140"
             y="-111.2618"
             x="-12.97422 -4.40622 -0.12222">0.4</tspan><tspan
             id="tspan142"
             y="-138.9852"
             x="-12.239845 -3.671845 0.61215502">0.5</tspan><tspan
             id="tspan144"
             y="-166.77"
             x="-12.729298 -4.1612978 0.122702">0.6</tspan></text>
<text
           id="text150"
           style="font-variant:normal;font-weight:normal;font-size:17.13599968px;font-family:'Times New Roman';-inkscape-font-specification:Times-Roman;writing-mode:lr-tb;fill:#000000;fill-opacity:1;fill-rule:nonzero;stroke:none"
           transform="matrix(0,1,1,0,51.5914,349.146)"><tspan
             id="tspan148"
             y="0"
             x="0">d</tspan></text>
<text
           id="text154"
           style="font-variant:normal;font-weight:normal;font-size:17.13599968px;font-family:Symbol;-inkscape-font-specification:Symbol;writing-mode:lr-tb;fill:#000000;fill-opacity:1;fill-rule:nonzero;stroke:none"
           transform="matrix(0,1,1,0,51.5914,357.77491)"><tspan
             id="tspan152"
             y="0"
             x="0">σ</tspan></text>
<text
           id="text158"
           style="font-variant:normal;font-weight:normal;font-size:17.13599968px;font-family:'Times New Roman';-inkscape-font-specification:Times-Roman;writing-mode:lr-tb;fill:#000000;fill-opacity:1;fill-rule:nonzero;stroke:none"
           transform="matrix(0,1,1,0,51.5914,368.11791)"><tspan
             id="tspan156"
             y="0"
             x="0 4.7638078 13.331808">/dp</tspan></text>
<text
           id="text162"
           style="font-variant:normal;font-weight:normal;font-size:12.11760044px;font-family:'Times New Roman';-inkscape-font-specification:Times-Roman;writing-mode:lr-tb;fill:#000000;fill-opacity:1;fill-rule:nonzero;stroke:none"
           transform="matrix(0,1,1,0,58.44609,389.96631)"><tspan
             id="tspan160"
             y="0"
             x="0">x</tspan></text>
<text
           id="text166"
           style="font-variant:normal;font-weight:normal;font-size:17.13599968px;font-family:'Times New Roman';-inkscape-font-specification:Times-Roman;writing-mode:lr-tb;fill:#000000;fill-opacity:1;fill-rule:nonzero;stroke:none"
           transform="matrix(0,1,1,0,51.5914,400.24797)"><tspan
             id="tspan164"
             y="0"
             x="0 5.7062879 19.038095 27.606096 32.369904 38.076191 53.310097 60.91848 73.290672 78.054482 85.662865 91.369148">(mb/(MeV/c))</tspan></text>
</g><path
         id="path168"
         style="fill:none;stroke:#000000;stroke-width:9.18000031;stroke-linecap:butt;stroke-linejoin:miter;stroke-miterlimit:10;stroke-dasharray:none;stroke-opacity:1"
         d="M 918,3254.62 V 5202 H 3683.63 V 3254.62 Z" /><path
         id="path170"
         style="fill:none;stroke:#0000ff;stroke-width:18.36000061;stroke-linecap:butt;stroke-linejoin:miter;stroke-miterlimit:10;stroke-dasharray:none;stroke-opacity:1"
         d="m 4235.65,3261.96 h 16.53 l 21.42,0.61 20.8,0.61 20.81,0.62 20.81,0.61 h 21.42 l 20.81,0.61 20.8,0.61 20.81,1.23 21.43,0.61 20.8,0.61 20.81,0.61 21.42,0.61 20.81,1.23 20.81,0.61 20.81,1.22 21.41,0.62 20.81,1.22 20.81,1.23 20.81,0.61 21.42,1.22 20.81,1.22 20.81,1.23 20.8,1.22 21.42,1.23 20.81,1.22 20.81,1.23 20.81,1.83 21.42,1.22 20.8,1.23 20.81,1.83 21.42,1.23 20.81,1.84 20.81,1.22 20.81,1.83 21.42,1.23 20.8,1.83 20.81,1.23 20.81,1.22 21.42,1.84 20.81,1.83 20.81,1.23 21.42,1.84 20.81,1.22 20.8,1.83 20.81,1.23 21.42,1.83 20.81,1.84 20.81,1.23 20.8,1.83 21.42,1.22 20.81,1.84 20.81,1.84 20.81,1.83 21.42,2.45 20.81,3.06 20.81,3.67 20.8,4.29 21.42,5.5 20.81,6.74 20.81,7.95 21.42,10.4 20.81,12.25 20.8,14.07 20.81,17.14 21.42,20.81 20.81,25.7 20.81,31.21 20.81,39.17 21.41,48.35 20.81,61.2 20.81,75.27 21.42,91.19 20.81,109.55 20.81,129.74 20.81,153.62 21.42,175.03 20.81,186.66 20.8,183.6 20.81,162.79 21.42,113.22 20.81,37.94 20.8,-47.12 20.81,-127.91 21.43,-182.37 20.8,-206.86 20.81,-209.3 21.42,-190.34 20.81,-167.07 20.81,-140.15 20.81,-108.32 21.41,-83.85 20.81,-64.26 20.81,-47.73 20.81,-36.11 21.42,-26.32 20.81,-19.58 20.8,-14.08 20.81,-10.4 21.42,-7.96 20.81,-6.73 20.81,-4.9 21.42,-4.89 20.81,-4.9 20.8,-4.28 20.81,-4.9 21.42,-4.28 20.81,-4.9 20.81,-4.89 20.81,-4.29 21.42,-4.89 20.8,-4.9 20.81,-4.9 20.81,-4.89 21.42,-4.29 20.81,-4.28 20.81,-4.28 21.42,-3.67 20.81,-3.68 20.8,-3.06 20.81,-3.06 21.42,-2.45 20.81,-1.83 20.81,-1.84 20.8,-1.83 21.42,-1.84 20.81,-1.22 20.81,-0.62 21.42,-1.22 20.81,-0.61 20.81,-0.62 20.81,-0.6 h 3.05" /><path
         id="path172"
         style="fill:none;stroke:#000000;stroke-width:18.36000061;stroke-linecap:butt;stroke-linejoin:miter;stroke-miterlimit:10;stroke-dasharray:none;stroke-opacity:1"
         d="m 4235.65,3255.23 h 222.16 l 8.57,0.61 h 78.33 l 8.57,0.61 h 8.57 9.18 8.57 8.56 8.57 8.57 9.18 l 8.57,0.61 h 8.57 8.56 9.18 l 8.57,0.62 h 8.57 8.57 l 8.57,0.61 h 9.18 8.56 8.57 l 8.57,0.61 h 9.18 8.57 8.57 l 8.57,0.61 h 9.18 l 8.56,0.62 h 8.57 l 8.57,0.6 h 8.57 l 9.18,0.62 8.57,0.61 h 8.56 l 8.57,0.61 9.18,0.61 h 8.57 l 8.56,0.62 8.58,0.61 8.56,0.61 9.18,0.61 8.57,0.61 8.57,0.62 8.56,1.22 9.19,0.61 8.56,0.61 8.57,0.62 8.57,1.22 8.57,0.61 9.18,1.23 8.57,0.61 8.56,1.22 8.57,0.62 9.18,1.22 8.57,1.22 8.57,1.23 8.57,1.22 8.56,1.22 9.18,1.23 8.57,1.22 8.57,1.22 8.57,1.23 9.18,1.84 8.57,1.22 8.56,1.84 8.57,1.83 8.57,1.22 9.18,1.84 8.57,1.84 8.57,1.83 8.57,1.84 9.18,1.83 8.56,1.84 8.57,1.84 8.57,1.84 9.18,1.83 8.56,1.84 8.58,2.44 8.56,1.84 8.57,2.45 9.18,1.83 8.57,1.84 8.56,1.84 8.57,2.45 9.18,1.83 8.57,1.84 8.57,1.83 8.57,1.84 8.57,1.22 9.18,1.84 8.56,1.83 8.57,1.84 8.57,1.84 9.18,1.83 8.57,1.84 8.57,1.22 8.56,1.84 8.57,1.22 9.18,1.23 8.57,1.22 8.57,1.22 8.57,1.23 9.18,1.22 8.56,1.84 8.57,2.44 8.57,1.84 8.57,1.84 9.18,1.83 8.57,2.45 8.57,1.84 8.56,1.83 9.18,2.45 8.57,2.45 8.57,2.45 8.57,3.06 9.18,3.67 8.57,6.73 8.56,5.51 8.57,4.89 8.57,6.74 9.18,5.51 8.56,6.73 8.57,7.95 8.57,6.73 9.18,9.18 8.57,8.57 8.57,7.96 8.57,9.18 8.56,11.63 9.18,12.85 8.57,17.13 8.57,17.75 8.57,20.81 9.18,23.26 8.57,25.7 8.56,27.54 8.57,27.54 8.57,16.53 9.18,14.68 8.57,23.87 8.57,34.27 8.56,42.84 9.18,53.86 8.57,63.65 8.57,54.47 8.57,78.33 8.57,67.93 9.18,98.54 8.56,94.24 8.57,96.7 8.57,99.14 9.18,71.61 8.57,96.69 8.57,60.59 8.57,78.95 9.18,50.18 8.56,63.04 8.57,44.68 8.57,85.68 8.57,39.17 9.17,43.44 8.58,11.02 8.56,1.84 8.57,-13.46 9.18,-30.61 8.57,-39.16 8.57,-61.82 8.56,-76.5 8.57,-104.04 9.18,-105.87 8.57,-89.97 8.57,-97.92 8.57,-91.19 9.18,-81.39 8.56,-85.07 8.57,-77.72 8.57,-94.86 8.57,-59.98 9.18,-84.46 8.57,-68.54 8.56,-56.91 8.57,-63.04 9.18,-45.9 8.57,-48.35 8.57,-37.94 8.57,-36.72 8.56,-29.99 9.18,-23.25 8.57,-22.65 8.57,-20.81 8.57,-17.13 9.18,-15.91 8.57,-14.08 8.57,-10.4 8.56,-8.57 9.18,-7.35 8.57,-4.89 8.57,-4.29 8.57,-4.28 8.57,-3.06 9.18,-3.06 8.56,-2.45 8.57,-1.84 8.57,-1.22 9.18,-0.61 8.56,-1.22 8.57,-0.62 8.57,-0.61 8.57,-1.22 9.18,-0.62 8.57,-1.22 8.57,-1.22 8.56,-1.23 9.18,-1.22 8.57,-1.22 8.57,-1.84 8.57,-1.84 8.57,-1.84 9.18,-2.44 8.56,-1.84 8.57,-2.45 8.57,-2.45 9.18,-3.05 8.57,-2.45 8.57,-3.06 8.56,-3.06 8.57,-3.06 9.18,-2.45 8.57,-3.67 8.57,-3.06 8.57,-3.06 9.18,-3.67 8.57,-3.07 8.56,-3.05 8.57,-3.06 9.18,-3.07 8.57,-3.05 8.57,-3.06 8.57,-3.06 8.56,-3.06 9.18,-2.45 8.57,-3.06 8.57,-2.45 8.56,-2.45 9.18,-2.45 8.57,-3.06 8.57,-1.83 8.57,-2.45 8.57,-2.45 9.18,-1.83 8.57,-2.45 8.56,-1.84 8.57,-1.84 9.18,-1.83 8.57,-1.84 8.57,-1.83 8.57,-1.23 8.56,-1.83 9.18,-1.22 8.57,-1.23 8.57,-1.22 8.57,-1.23 9.18,-1.22 8.57,-0.61 8.56,-1.23 8.57,-0.61 8.57,-1.22 9.18,-0.62 8.57,-0.61 8.57,-0.61 8.56,-0.61 9.19,-0.61 h 8.56 l 8.57,-0.62 8.57,-0.61 h 8.57 l 9.18,-0.61 h 8.57 l 8.56,-0.61 h 8.57 9.18 l 8.57,-0.62 h 8.57 8.57 3.05" /><path
         id="path174"
         style="fill:none;stroke:#ff0000;stroke-width:18.36000061;stroke-linecap:butt;stroke-linejoin:miter;stroke-miterlimit:10;stroke-dasharray:none;stroke-opacity:1"
         d="m 4235.65,3254.62 18.36,0.61 h 191.56 l 21.42,0.61 h 21.42 21.42 21.42 20.8 l 21.43,0.61 h 21.41 21.43 l 21.41,0.61 h 20.81 l 21.42,0.62 21.42,0.61 21.42,0.61 21.42,0.61 20.81,0.62 21.42,0.6 21.42,0.62 21.42,1.22 21.42,1.23 20.81,1.22 21.42,1.22 21.42,1.84 21.42,1.84 21.42,1.83 20.81,2.45 21.42,2.45 21.42,2.45 21.42,2.44 21.42,3.67 20.81,3.07 21.42,3.67 21.42,3.67 21.42,3.67 21.42,4.28 20.8,4.29 21.42,4.28 21.42,4.29 21.42,4.28 21.42,4.29 20.81,3.67 21.42,3.67 21.42,4.29 21.42,3.67 21.42,3.06 20.81,3.06 21.42,3.06 21.42,4.89 21.42,5.51 21.42,4.9 20.81,6.11 21.42,6.74 21.42,13.46 21.42,14.08 21.42,16.52 20.81,20.2 21.42,20.81 21.42,28.15 21.42,42.84 21.42,58.75 20.81,66.71 21.41,44.67 21.43,89.36 21.41,145.65 21.43,170.75 20.8,262.55 21.42,200.73 21.42,193.4 21.42,140.76 21.42,136.47 20.81,80.79 21.42,-25.1 21.42,-97.91 21.42,-220.94 21.42,-247.24 20.81,-216.04 21.42,-198.9 21.42,-179.32 21.42,-153 20.81,-122.4 21.42,-91.8 21.42,-61.2 21.41,-46.51 21.43,-33.05 20.81,-20.19 21.41,-11.63 21.43,-7.96 21.41,-5.5 21.43,-3.07 20.8,-2.45 21.42,-2.44 21.42,-2.45 21.42,-3.67 21.42,-3.67 20.81,-4.9 21.42,-5.51 21.42,-5.5 21.42,-6.74 21.42,-6.73 20.81,-6.73 21.42,-6.73 21.42,-6.73 21.42,-6.13 21.42,-5.5 20.8,-6.12 21.43,-4.9 21.41,-4.9 21.43,-4.28 21.42,-4.28 20.8,-3.68 21.42,-3.05 21.42,-3.07 21.42,-2.44 21.42,-2.45 20.81,-1.84 21.42,-1.22 21.42,-1.23 21.42,-0.61 21.42,-1.22 20.81,-0.62 h 21.42 l 1.22,-0.6" /><path
         id="path176"
         style="fill:none;stroke:#000000;stroke-width:9.18000031;stroke-linecap:butt;stroke-linejoin:miter;stroke-miterlimit:10;stroke-dasharray:none;stroke-opacity:1"
         d="M 4236.27,3254.62 H 7001.89" /><path
         id="path178"
         style="fill:none;stroke:#000000;stroke-width:9.18000031;stroke-linecap:butt;stroke-linejoin:miter;stroke-miterlimit:10;stroke-dasharray:none;stroke-opacity:1"
         d="M 4236.27,5202 H 7001.89" /><path
         id="path180"
         style="fill:none;stroke:#000000;stroke-width:9.18000031;stroke-linecap:butt;stroke-linejoin:miter;stroke-miterlimit:10;stroke-dasharray:none;stroke-opacity:1"
         d="m 4789.51,3254.62 v 61.2" /><path
         id="path182"
         style="fill:none;stroke:#000000;stroke-width:9.18000031;stroke-linecap:butt;stroke-linejoin:miter;stroke-miterlimit:10;stroke-dasharray:none;stroke-opacity:1"
         d="m 4789.51,5202 v -61.2" /><path
         id="path184"
         style="fill:none;stroke:#000000;stroke-width:9.18000031;stroke-linecap:butt;stroke-linejoin:miter;stroke-miterlimit:10;stroke-dasharray:none;stroke-opacity:1"
         d="m 5896.01,3254.62 v 61.2" /><path
         id="path186"
         style="fill:none;stroke:#000000;stroke-width:9.18000031;stroke-linecap:butt;stroke-linejoin:miter;stroke-miterlimit:10;stroke-dasharray:none;stroke-opacity:1"
         d="m 5896.01,5202 v -61.2" /><path
         id="path188"
         style="fill:none;stroke:#000000;stroke-width:9.18000031;stroke-linecap:butt;stroke-linejoin:miter;stroke-miterlimit:10;stroke-dasharray:none;stroke-opacity:1"
         d="m 4236.27,3254.62 v 122.4" /><path
         id="path190"
         style="fill:none;stroke:#000000;stroke-width:9.18000031;stroke-linecap:butt;stroke-linejoin:miter;stroke-miterlimit:10;stroke-dasharray:none;stroke-opacity:1"
         d="M 4236.27,5202 V 5079.6" /><path
         id="path192"
         style="fill:none;stroke:#000000;stroke-width:9.18000031;stroke-linecap:butt;stroke-linejoin:miter;stroke-miterlimit:10;stroke-dasharray:none;stroke-opacity:1"
         d="m 5342.76,3254.62 v 122.4" /><path
         id="path194"
         style="fill:none;stroke:#000000;stroke-width:9.18000031;stroke-linecap:butt;stroke-linejoin:miter;stroke-miterlimit:10;stroke-dasharray:none;stroke-opacity:1"
         d="M 5342.76,5202 V 5079.6" /><g
         transform="scale(10)"
         id="g196"><text
           id="text202"
           style="font-variant:normal;font-weight:normal;font-size:17.13599968px;font-family:'Times New Roman';-inkscape-font-specification:Times-Roman;writing-mode:lr-tb;fill:#000000;fill-opacity:1;fill-rule:nonzero;stroke:none"
           transform="matrix(1,0,0,-1,411.08,526.565)"><tspan
             id="tspan198"
             y="0"
             x="0 8.5679998 17.136 110.5882 119.1562 127.72421">200400</tspan><tspan
             id="tspan200"
             y="-24.7246"
             x="112.669">p</tspan></text>
<text
           id="text206"
           style="font-variant:normal;font-weight:normal;font-size:12.11760044px;font-family:'Times New Roman';-inkscape-font-specification:Times-Roman;writing-mode:lr-tb;fill:#000000;fill-opacity:1;fill-rule:nonzero;stroke:none"
           transform="matrix(1,0,0,-1,532.3783,544.4353)"><tspan
             id="tspan204"
             y="0"
             x="0">z</tspan></text>
<text
           id="text210"
           style="font-variant:normal;font-weight:normal;font-size:17.13599968px;font-family:'Times New Roman';-inkscape-font-specification:Times-Roman;writing-mode:lr-tb;fill:#000000;fill-opacity:1;fill-rule:nonzero;stroke:none"
           transform="matrix(1,0,0,-1,541.98652,551.2896)"><tspan
             id="tspan208"
             y="0"
             x="0 5.7062879 20.940191 28.548576 40.920769 45.684574 53.292961">(MeV/c)</tspan></text>
</g><path
         id="path212"
         style="fill:none;stroke:#000000;stroke-width:9.18000031;stroke-linecap:butt;stroke-linejoin:miter;stroke-miterlimit:10;stroke-dasharray:none;stroke-opacity:1"
         d="M 4236.27,3254.62 V 5202" /><path
         id="path214"
         style="fill:none;stroke:#000000;stroke-width:9.18000031;stroke-linecap:butt;stroke-linejoin:miter;stroke-miterlimit:10;stroke-dasharray:none;stroke-opacity:1"
         d="m 4236.27,3393.54 h 61.19" /><path
         id="path216"
         style="fill:none;stroke:#000000;stroke-width:9.18000031;stroke-linecap:butt;stroke-linejoin:miter;stroke-miterlimit:10;stroke-dasharray:none;stroke-opacity:1"
         d="m 4236.27,3672 h 61.19" /><path
         id="path218"
         style="fill:none;stroke:#000000;stroke-width:9.18000031;stroke-linecap:butt;stroke-linejoin:miter;stroke-miterlimit:10;stroke-dasharray:none;stroke-opacity:1"
         d="m 4236.27,3950.46 h 61.19" /><path
         id="path220"
         style="fill:none;stroke:#000000;stroke-width:9.18000031;stroke-linecap:butt;stroke-linejoin:miter;stroke-miterlimit:10;stroke-dasharray:none;stroke-opacity:1"
         d="m 4236.27,4228.31 h 61.19" /><path
         id="path222"
         style="fill:none;stroke:#000000;stroke-width:9.18000031;stroke-linecap:butt;stroke-linejoin:miter;stroke-miterlimit:10;stroke-dasharray:none;stroke-opacity:1"
         d="m 4236.27,4506.77 h 61.19" /><path
         id="path224"
         style="fill:none;stroke:#000000;stroke-width:9.18000031;stroke-linecap:butt;stroke-linejoin:miter;stroke-miterlimit:10;stroke-dasharray:none;stroke-opacity:1"
         d="m 4236.27,4784.62 h 61.19" /><path
         id="path226"
         style="fill:none;stroke:#000000;stroke-width:9.18000031;stroke-linecap:butt;stroke-linejoin:miter;stroke-miterlimit:10;stroke-dasharray:none;stroke-opacity:1"
         d="m 4236.27,5063.08 h 61.19" /><path
         id="path228"
         style="fill:none;stroke:#000000;stroke-width:9.18000031;stroke-linecap:butt;stroke-linejoin:miter;stroke-miterlimit:10;stroke-dasharray:none;stroke-opacity:1"
         d="m 4236.27,3254.62 h 122.39" /><path
         id="path230"
         style="fill:none;stroke:#000000;stroke-width:9.18000031;stroke-linecap:butt;stroke-linejoin:miter;stroke-miterlimit:10;stroke-dasharray:none;stroke-opacity:1"
         d="m 4236.27,3533.08 h 122.39" /><path
         id="path232"
         style="fill:none;stroke:#000000;stroke-width:9.18000031;stroke-linecap:butt;stroke-linejoin:miter;stroke-miterlimit:10;stroke-dasharray:none;stroke-opacity:1"
         d="m 4236.27,3810.93 h 122.39" /><path
         id="path234"
         style="fill:none;stroke:#000000;stroke-width:9.18000031;stroke-linecap:butt;stroke-linejoin:miter;stroke-miterlimit:10;stroke-dasharray:none;stroke-opacity:1"
         d="m 4236.27,4089.38 h 122.39" /><path
         id="path236"
         style="fill:none;stroke:#000000;stroke-width:9.18000031;stroke-linecap:butt;stroke-linejoin:miter;stroke-miterlimit:10;stroke-dasharray:none;stroke-opacity:1"
         d="m 4236.27,4367.23 h 122.39" /><path
         id="path238"
         style="fill:none;stroke:#000000;stroke-width:9.18000031;stroke-linecap:butt;stroke-linejoin:miter;stroke-miterlimit:10;stroke-dasharray:none;stroke-opacity:1"
         d="m 4236.27,4645.69 h 122.39" /><path
         id="path240"
         style="fill:none;stroke:#000000;stroke-width:9.18000031;stroke-linecap:butt;stroke-linejoin:miter;stroke-miterlimit:10;stroke-dasharray:none;stroke-opacity:1"
         d="m 4236.27,4923.54 h 122.39" /><path
         id="path242"
         style="fill:none;stroke:#000000;stroke-width:9.18000031;stroke-linecap:butt;stroke-linejoin:miter;stroke-miterlimit:10;stroke-dasharray:none;stroke-opacity:1"
         d="M 4236.27,3254.62 V 5202 H 7001.89 V 3254.62 Z" /><path
         id="path244"
         style="fill:#ffffff;fill-opacity:1;fill-rule:nonzero;stroke:none"
         d="m 3026.95,3881.3 h 2092.43 v 774.793 H 3026.95 Z" /><path
         id="path246"
         style="fill:none;stroke:#000000;stroke-width:9.18000031;stroke-linecap:butt;stroke-linejoin:miter;stroke-miterlimit:10;stroke-dasharray:none;stroke-opacity:1"
         d="m 3026.95,4656.1 v -774.8 h 2092.43 v 774.8 z" /><g
         transform="scale(10)"
         id="g248"><text
           id="text252"
           style="font-variant:normal;font-weight:normal;font-size:17.13599968px;font-family:'Times New Roman';-inkscape-font-specification:Times-Roman;writing-mode:lr-tb;fill:#000000;fill-opacity:1;fill-rule:nonzero;stroke:none"
           transform="matrix(1,0,0,-1,346.453,447.739)"><tspan
             id="tspan250"
             y="0"
             x="0 9.5276155 17.136 25.704 34.271999 41.880383 49.48877 58.056767">Faddeev </tspan></text>
<text
           id="text256"
           style="font-variant:normal;font-weight:normal;font-size:17.13599968px;font-family:Symbol;-inkscape-font-specification:Symbol;writing-mode:lr-tb;fill:#000000;fill-opacity:1;fill-rule:nonzero;stroke:none"
           transform="matrix(1,0,0,-1,408.8772,447.739)"><tspan
             id="tspan254"
             y="0"
             x="0">σ</tspan></text>
<text
           id="text260"
           style="font-variant:normal;font-weight:normal;font-size:17.13599968px;font-family:'Times New Roman';-inkscape-font-specification:Times-Roman;writing-mode:lr-tb;fill:#000000;fill-opacity:1;fill-rule:nonzero;stroke:none"
           transform="matrix(1,0,0,-1,419.1588,447.739)"><tspan
             id="tspan258"
             y="0"
             x="0 9.6647043 18.232704 26.800703 31.084703 44.416512">=41 mb</tspan></text>
</g><path
         id="path262"
         style="fill:none;stroke:#0000ff;stroke-width:18.36000061;stroke-linecap:butt;stroke-linejoin:miter;stroke-miterlimit:10;stroke-dasharray:none;stroke-opacity:1"
         d="m 3097.33,4534.92 h 244.8" /><g
         transform="scale(10)"
         id="g264"><text
           id="text268"
           style="font-variant:normal;font-weight:normal;font-size:17.13599968px;font-family:'Times New Roman';-inkscape-font-specification:Times-Roman;writing-mode:lr-tb;fill:#000000;fill-opacity:1;fill-rule:nonzero;stroke:none"
           transform="matrix(1,0,0,-1,346.453,422.892)"><tspan
             id="tspan266"
             y="0"
             x="0">V</tspan></text>
<text
           id="text272"
           style="font-variant:normal;font-weight:normal;font-size:12.11760044px;font-family:'Times New Roman';-inkscape-font-specification:Times-Roman;writing-mode:lr-tb;fill:#000000;fill-opacity:1;fill-rule:nonzero;stroke:none"
           transform="matrix(1,0,0,-1,358.9378,433.1733)"><tspan
             id="tspan270"
             y="0"
             x="0 6.0588002">11</tspan></text>
<text
           id="text276"
           style="font-variant:normal;font-weight:normal;font-size:17.13599968px;font-family:'Times New Roman';-inkscape-font-specification:Times-Roman;writing-mode:lr-tb;fill:#000000;fill-opacity:1;fill-rule:nonzero;stroke:none"
           transform="matrix(1,0,0,-1,370.9331,422.892)"><tspan
             id="tspan274"
             y="0"
             x="0 11.429712 19.038095 23.322096 32.849712 45.221905 55.692001 68.064194">Be FOLD </tspan></text>
<text
           id="text280"
           style="font-variant:normal;font-weight:normal;font-size:17.13599968px;font-family:Symbol;-inkscape-font-specification:Symbol;writing-mode:lr-tb;fill:#000000;fill-opacity:1;fill-rule:nonzero;stroke:none"
           transform="matrix(1,0,0,-1,443.1491,422.892)"><tspan
             id="tspan278"
             y="0"
             x="0">σ</tspan></text>
<text
           id="text284"
           style="font-variant:normal;font-weight:normal;font-size:17.13599968px;font-family:'Times New Roman';-inkscape-font-specification:Times-Roman;writing-mode:lr-tb;fill:#000000;fill-opacity:1;fill-rule:nonzero;stroke:none"
           transform="matrix(1,0,0,-1,453.4921,422.892)"><tspan
             id="tspan282"
             y="0"
             x="0 9.6647043 18.232704 26.800703 31.084703 44.416512">=41 mb</tspan></text>
</g><path
         id="path286"
         style="fill:none;stroke:#000000;stroke-width:18.36000061;stroke-linecap:butt;stroke-linejoin:miter;stroke-miterlimit:10;stroke-dasharray:none;stroke-opacity:1"
         d="m 3097.33,4320.11 h 244.8" /><g
         transform="scale(10)"
         id="g288"><text
           id="text292"
           style="font-variant:normal;font-weight:normal;font-size:17.13599968px;font-family:'Times New Roman';-inkscape-font-specification:Times-Roman;writing-mode:lr-tb;fill:#000000;fill-opacity:1;fill-rule:nonzero;stroke:none"
           transform="matrix(1,0,0,-1,346.453,398.106)"><tspan
             id="tspan290"
             y="0"
             x="0 12.372192">Vp</tspan></text>
<text
           id="text296"
           style="font-variant:normal;font-weight:normal;font-size:12.11760044px;font-family:'Times New Roman';-inkscape-font-specification:Times-Roman;writing-mode:lr-tb;fill:#000000;fill-opacity:1;fill-rule:nonzero;stroke:none"
           transform="matrix(1,0,0,-1,367.3221,408.3876)"><tspan
             id="tspan294"
             y="0"
             x="0 6.0588002">11</tspan></text>
<text
           id="text300"
           style="font-variant:normal;font-weight:normal;font-size:17.13599968px;font-family:'Times New Roman';-inkscape-font-specification:Times-Roman;writing-mode:lr-tb;fill:#000000;fill-opacity:1;fill-rule:nonzero;stroke:none"
           transform="matrix(1,0,0,-1,379.3174,398.106)"><tspan
             id="tspan298"
             y="0"
             x="0 11.429712 19.038095 23.322096 35.694286 48.066479">Be KD </tspan></text>
<text
           id="text304"
           style="font-variant:normal;font-weight:normal;font-size:17.13599968px;font-family:Symbol;-inkscape-font-specification:Symbol;writing-mode:lr-tb;fill:#000000;fill-opacity:1;fill-rule:nonzero;stroke:none"
           transform="matrix(1,0,0,-1,431.6436,398.106)"><tspan
             id="tspan302"
             y="0"
             x="0">σ</tspan></text>
<text
           id="text308"
           style="font-variant:normal;font-weight:normal;font-size:17.13599968px;font-family:'Times New Roman';-inkscape-font-specification:Times-Roman;writing-mode:lr-tb;fill:#000000;fill-opacity:1;fill-rule:nonzero;stroke:none"
           transform="matrix(1,0,0,-1,441.9862,398.106)"><tspan
             id="tspan306"
             y="0"
             x="0 9.6647043 18.232704 26.800703 31.084703 44.416512">=40 mb</tspan></text>
</g><path
         id="path310"
         style="fill:none;stroke:#ff0000;stroke-width:18.36000061;stroke-linecap:butt;stroke-linejoin:miter;stroke-miterlimit:10;stroke-dasharray:none;stroke-opacity:1"
         d="m 3097.33,4053.89 h 244.8" /><path
         id="path312"
         style="fill:none;stroke:#0000ff;stroke-width:18.36000061;stroke-linecap:butt;stroke-linejoin:miter;stroke-miterlimit:10;stroke-dasharray:none;stroke-opacity:1"
         d="m 918,918 92.41,1.223 91.8,2.449 92.42,4.894 91.8,7.344 92.41,9.184 92.41,10.402 91.8,10.402 92.41,8.571 92.41,11.015 18.36,3.059 18.36,3.672 18.36,4.898 18.36,5.507 18.36,7.95 18.36,9.19 18.36,11.62 18.97,14.08 18.36,16.52 18.37,20.81 18.36,26.93 18.35,38.56 18.36,46.51 18.36,58.14 18.36,75.27 18.98,91.8 18.35,123.63 18.36,135.86 18.37,165.24 18.36,186.05 18.36,173.2 18.36,151.77 18.36,118.12 18.97,58.14 18.36,-14.08 18.36,-83.84 18.36,-136.48 18.36,-162.79 18.36,-184.21 18.36,-176.26 18.36,-149.33 18.97,-138.92 18.36,-107.71 18.36,-88.13 18.36,-66.1 18.36,-50.79 18.36,-40.39 18.36,-34.28 18.36,-23.25 18.97,-17.14 18.36,-12.85 18.36,-9.79 18.36,-6.73 18.36,-5.51 18.36,-4.29 18.36,-3.05 18.36,-3.07 18.97,-2.45 18.36,-3.05 18.36,-2.45 91.8,-12.855 92.42,-14.688 92.41,-15.3 91.8,-12.852 92.41,-10.402 92.41,-7.344 91.8,-4.285 92.41,-3.059 91.8,-1.226 92.41,-0.61 92.42,-0.613 h 0.61" /><path
         id="path314"
         style="fill:none;stroke:#000000;stroke-width:18.36000061;stroke-linecap:butt;stroke-linejoin:miter;stroke-miterlimit:10;stroke-dasharray:none;stroke-opacity:1"
         d="m 1245.42,918 h 56.92 l 4.89,3.059 h 36.11 l 5.51,0.613 h 4.89 4.9 5.51 l 4.89,0.613 h 5.51 l 4.9,0.61 h 5.51 l 4.89,0.613 4.9,0.613 h 5.51 l 4.89,0.609 5.51,0.614 h 4.89 l 5.51,0.613 4.9,0.609 4.9,0.614 5.5,0.613 4.9,0.609 5.51,0.614 4.89,0.613 5.51,0.609 4.9,1.227 4.89,0.609 5.51,0.614 4.9,0.613 5.51,0.609 4.89,1.227 5.51,0.609 4.9,1.227 4.89,0.613 5.51,1.223 4.9,1.222 5.5,0.614 4.9,1.222 5.51,1.227 4.9,1.222 4.89,1.223 5.51,1.227 4.9,1.222 5.5,1.223 4.9,1.836 5.51,1.226 4.89,1.223 4.9,1.223 5.51,1.226 4.89,1.836 5.51,1.223 4.9,1.223 5.51,1.836 4.89,1.226 4.89,1.223 5.51,1.836 4.9,1.836 5.51,1.836 4.89,1.222 5.51,1.836 4.9,1.227 4.89,1.836 5.51,1.222 4.9,1.227 5.51,1.223 4.89,1.222 5.51,1.836 4.89,1.227 4.9,1.222 5.51,0.614 4.9,1.836 5.5,1.835 4.9,1.223 5.51,1.223 4.89,1.226 4.9,1.223 5.51,1.223 4.9,1.226 5.5,1.223 4.9,0.613 5.51,1.225 4.89,0.61 4.9,1.22 5.51,0.62 4.89,1.22 5.51,1.22 4.9,1.84 5.5,1.22 4.9,1.84 4.9,1.22 5.51,1.23 4.89,1.22 5.51,1.23 4.89,1.22 5.51,1.84 4.9,1.22 4.89,1.22 5.51,1.84 4.9,1.84 5.51,1.83 4.89,3.67 5.51,3.67 4.9,3.07 4.89,3.67 5.51,3.06 4.89,3.67 5.51,3.67 4.9,3.67 5.51,4.29 4.89,4.28 4.9,4.9 5.51,4.89 4.89,4.9 5.51,6.12 4.9,5.51 5.5,4.28 4.9,5.51 4.9,6.12 5.51,7.34 4.89,8.57 5.51,9.79 4.9,11.02 5.5,12.24 4.9,12.85 4.9,14.08 5.5,15.91 4.9,16.52 5.51,17.75 4.9,18.97 5.5,15.92 4.9,2.44 4.9,8.57 5.5,12.85 4.9,17.14 5.51,21.42 4.89,25.7 5.51,29.38 4.9,32.43 5.5,36.11 4.9,38.56 4.9,41 5.51,43.46 4.89,45.28 5.51,47.13 4.89,54.46 5.51,65.49 4.9,62.42 4.89,59.98 5.51,57.53 4.9,54.47 5.51,51.4 4.89,48.96 5.51,45.9 4.9,42.84 4.89,40.4 5.51,37.33 4.89,34.27 5.51,31.21 4.9,28.15 5.51,36.11 4.89,43.45 4.9,35.5 5.51,27.54 4.89,20.81 5.51,13.46 4.9,7.35 5.5,0.61 4.9,-4.9 4.9,-10.4 5.51,-15.91 4.89,-20.81 5.51,-25.71 4.9,-29.37 5.5,-33.66 4.9,-50.18 4.9,-59.37 5.5,-58.14 4.9,-56.92 5.51,-55.07 4.9,-53.86 5.5,-53.25 4.9,-51.4 4.89,-50.19 5.51,-48.35 4.9,-47.73 5.51,-45.9 4.89,-45.29 5.51,-43.45 4.9,-42.23 4.89,-44.07 5.51,-42.84 4.9,-41 5.51,-39.17 4.89,-36.72 5.51,-34.27 4.89,-32.43 4.9,-30.6 5.51,-28.77 4.89,-26.93 5.51,-25.09 4.9,-23.25 5.51,-21.43 4.89,-20.19 4.9,-18.36 5.51,-15.3 4.89,-13.46 5.51,-13.47 4.9,-11.63 5.5,-11.01 4.9,-10.41 4.9,-9.79 5.5,-9.18 4.9,-7.95 5.51,-7.35 4.89,-6.73 5.51,-6.12 4.9,-6.12 4.9,-4.89 5.5,-4.29 4.9,-2.45 5.51,-2.44 4.89,-2.45 5.51,-1.84 4.9,-1.84 4.89,-1.83 5.51,-1.23 4.9,-1.22 5.5,-1.22 4.9,-1.23 5.51,-0.61 4.9,-1.23 4.89,-0.6 5.51,-0.62 4.89,-0.61 5.51,0.61 h 4.9 5.51 4.89 4.9 5.51 l 4.89,-0.61 h 5.51 4.9 5.51 l 4.89,-0.61 h 4.89 l 5.51,-0.61 h 4.9 l 5.51,-0.62 h 4.89 l 5.51,-0.61 h 4.9 l 4.89,-0.61 5.51,-0.61 4.9,-0.61 5.5,-0.62 4.9,-0.61 5.51,-0.61 4.9,-1.23 4.89,-0.6 5.51,-1.23 4.9,-0.61 5.5,-1.23 4.9,-1.22 5.51,-1.22 4.89,-1.23 4.9,-1.22 5.51,-1.22 4.9,-1.23 5.5,-1.22 4.9,-1.23 5.51,-1.22 4.89,-1.23 4.9,-1.83 5.51,-1.22 4.89,-1.23 5.51,-1.84 4.9,-1.22 5.5,-1.84 4.9,-1.22 4.9,-1.84 5.51,-1.22 4.89,-1.84 5.51,-1.22 4.89,-1.835 5.51,-1.226 4.9,-1.836 4.89,-1.223 5.51,-1.836 4.9,-1.223 5.51,-1.226 4.89,-1.836 5.51,-1.223 4.89,-1.222 5.52,-1.836 4.89,-1.227 4.9,-1.223 5.5,-1.835 4.9,-1.223 5.51,-1.227 4.89,-1.222 5.51,-1.223 4.9,-1.227 4.89,-1.222 5.51,-1.227 4.9,-1.222 5.5,-1.223 4.9,-1.227 5.51,-1.222 4.9,-1.223 4.89,-1.227 5.51,-0.609 4.9,-1.226 5.5,-1.223 4.9,-1.223 5.51,-0.613 4.89,-1.223 4.9,-0.613 5.51,-1.223 4.9,-1.226 5.5,-0.61 4.9,-1.226 5.51,-0.61 4.89,-0.613 4.9,-1.222 5.51,-0.614 4.89,-1.222 5.51,-0.614 4.9,-0.613 5.51,-0.609 4.89,-1.227 4.9,-0.609 5.51,-0.614 4.89,-0.613 5.51,-0.609 4.89,-0.614 5.51,-1.222 4.9,-0.613 4.89,-0.614 5.51,-0.609 4.9,-0.613 5.51,-0.614 h 4.89 l 5.51,-0.609 4.89,-0.613 4.9,-0.614 5.51,-0.613 4.9,-0.609 5.5,-0.614 h 4.9 l 5.51,-0.613 4.89,-0.609 h 4.9 l 5.51,-0.613 4.89,-0.614 h 5.51 l 4.9,-0.609 5.5,-0.613 h 4.9 l 4.9,-0.614 h 5.51 l 4.89,-0.609 h 5.51 l 4.9,-0.613 h 5.5 l 4.9,-0.614 h 4.9 l 5.5,-0.609 h 4.9 l 5.51,-0.613 h 4.9 5.5 l 4.9,-0.614 h 4.89 5.51 l 4.9,-0.609 h 5.51 4.89 l 5.51,-0.613 h 4.9 4.89 l 5.51,-0.614 h 4.89 5.52 4.89 5.51 l 4.89,-0.609 h 4.9 5.51 4.89 l 5.51,-0.613 h 4.9 5.51 4.89 4.9 l 5.5,-0.613 h 4.9 l 5.51,-1.223 h 4.9 5.5 4.9 4.9 5.5 4.9 5.51 4.89 5.51 l 4.9,-0.613 h 4.9 5.5 4.9 5.51 4.89 5.51 4.9 4.89 5.51 l 4.9,-0.61 h 5.51 4.89 5.51 4.9 4.89 5.51 4.89 5.51 4.9 l 5.51,0.61 4.89,0.613 4.9,0.613 5.51,0.61 h 4.89 l 5.51,0.613 h 4.89 l 5.51,-0.613 h 4.9 4.9 l 5.5,-0.61 4.9,-0.613 5.51,-0.613 h 4.89 l 5.51,-0.61 4.9,-0.613 4.89,-0.613 5.51,-0.61 h 4.9 l 5.5,1.223 h 4.9 5.51 4.9 5.5 4.9 4.9 5.5 l 4.9,-1.836 5.51,0.613 3.67,0.61" /><path
         id="path316"
         style="fill:none;stroke:#ff0000;stroke-width:18.36000061;stroke-linecap:butt;stroke-linejoin:miter;stroke-miterlimit:10;stroke-dasharray:none;stroke-opacity:1"
         d="m 1246.03,918 h 56.31 l 5.5,2.449 h 10.41 l 4.89,0.61 h 5.51 4.9 4.9 5.5 l 4.9,0.613 h 5.51 4.89 l 5.51,0.613 h 4.9 l 4.89,0.61 h 5.51 l 4.9,0.613 h 5.5 l 4.9,0.613 h 5.51 l 4.9,0.609 5.5,0.614 4.9,0.613 h 4.89 l 5.51,0.609 4.9,0.614 5.51,0.613 4.89,0.609 5.51,0.614 4.9,0.613 4.89,0.609 5.51,0.614 4.89,0.613 5.52,0.609 4.89,0.614 5.51,1.222 4.89,0.613 5.51,0.614 4.9,1.222 4.89,0.614 5.51,1.222 4.9,0.614 5.51,1.222 4.89,1.227 5.51,0.609 4.89,1.227 4.9,1.222 5.51,1.223 4.9,0.613 5.5,1.223 4.9,1.227 5.51,1.222 4.89,1.223 5.51,1.226 4.9,1.223 4.89,1.223 5.51,1.226 4.9,1.223 5.5,1.223 4.9,1.226 5.51,1.223 4.9,1.836 4.89,1.222 5.51,1.836 4.9,1.227 5.5,1.223 4.9,1.222 5.51,1.836 4.9,1.227 5.5,1.222 4.9,1.227 4.9,0.609 5.5,1.227 4.9,1.223 5.51,1.222 4.89,0.614 5.51,1.835 4.9,1.223 5.5,1.227 4.9,1.222 4.9,1.223 5.51,1.227 4.89,1.222 5.51,0.613 4.89,1.223 5.51,0.613 4.9,1.223 4.89,0.613 5.51,1.223 4.9,0.613 5.51,1.223 4.89,1.836 5.51,1.223 4.9,1.835 5.51,1.23 4.89,1.83 4.89,1.23 5.51,1.22 4.9,1.83 5.51,1.23 4.89,1.22 5.51,1.84 4.9,1.84 4.89,1.22 5.51,2.45 4.9,1.83 5.5,3.68 4.9,3.67 5.51,3.67 4.9,3.67 5.5,3.06 4.9,3.68 4.9,4.28 5.5,3.67 4.9,4.28 5.51,4.29 4.89,4.89 5.51,4.9 4.9,5.51 4.9,5.51 5.5,6.11 4.9,4.29 5.51,4.9 4.89,6.12 5.51,7.34 4.9,8.57 5.5,9.79 4.9,11.02 4.9,12.24 5.5,13.46 4.9,14.08 5.51,15.91 4.9,17.14 5.5,17.74 4.9,19.59 4.89,15.91 5.51,3.06 4.9,8.57 5.51,13.46 4.89,17.13 5.51,22.04 4.9,25.7 5.51,29.99 4.89,32.43 4.9,36.11 5.51,38.56 4.89,41 5.51,43.46 4.89,45.28 5.51,47.13 4.9,54.46 4.89,66.72 5.51,63.03 4.9,60.59 5.51,56.91 4.89,54.47 5.51,51.41 4.89,47.74 5.51,45.28 4.9,41.62 4.9,39.17 5.5,35.49 4.9,33.05 5.51,29.38 4.89,26.31 5.51,33.66 4.9,39.78 4.89,32.44 5.51,24.48 4.9,18.36 5.5,11.02 4.9,4.89 5.51,-0.61 4.9,-6.73 5.5,-12.24 4.9,-17.14 4.9,-22.03 5.5,-26.31 4.9,-30.61 5.51,-34.27 4.89,-50.79 5.51,-59.37 4.9,-57.53 4.9,-56.91 5.5,-55.08 4.9,-53.86 5.51,-52.63 4.89,-50.79 5.51,-49.58 4.9,-47.73 5.5,-47.13 4.9,-45.29 4.9,-43.45 5.51,-42.84 4.89,-41 5.51,-42.84 4.9,-41.62 5.5,-39.17 4.9,-37.33 4.89,-35.49 5.51,-33.05 4.9,-31.82 5.51,-29.38 4.89,-27.54 5.51,-25.71 4.9,-23.86 5.51,-22.65 4.89,-20.81 4.89,-18.97 5.51,-17.74 4.9,-14.69 5.51,-12.86 4.89,-12.85 5.51,-11.01 4.9,-11.02 4.89,-9.79 5.51,-9.18 4.9,-8.57 5.51,-7.96 4.89,-7.34 5.51,-6.73 4.89,-5.51 5.51,-5.51 4.9,-4.89 4.9,-4.29 5.5,-3.06 4.9,-1.83 5.51,-2.45 4.89,-1.84 5.51,-1.84 4.9,-1.83 4.9,-1.84 5.5,-1.22 4.9,-1.22 5.51,-1.23 4.89,-0.61 5.51,-1.23 4.9,-0.6 5.5,-0.62 4.9,-0.61 h 4.9 l 5.5,-0.61 h 4.9 5.51 4.9 l 5.5,-0.61 h 4.9 4.9 l 5.5,-0.62 h 4.9 l 5.51,-0.61 h 4.89 l 5.51,-0.61 4.9,-0.61 h 5.5 l 4.9,-0.61 h 4.9 l 5.51,-0.62 4.89,-0.61 5.51,-0.61 4.89,-0.61 5.51,-0.61 4.9,-0.61 4.89,-0.62 5.51,-0.61 4.9,-1.22 5.51,-0.62 4.89,-1.22 5.51,-0.61 4.89,-1.23 5.52,-0.61 4.89,-1.22 4.9,-1.22 5.5,-1.23 4.9,-0.61 5.51,-1.23 4.89,-1.22 5.51,-1.23 4.9,-1.22 4.89,-1.22 5.51,-1.23 4.9,-1.22 5.5,-1.22 4.9,-1.23 5.51,-1.835 4.9,-1.223 5.5,-1.223 4.9,-1.226 4.9,-1.223 5.5,-1.836 4.9,-1.223 5.51,-1.226 4.89,-1.223 5.51,-1.222 4.9,-1.227 4.9,-1.223 5.5,-1.222 4.9,-1.227 5.51,-1.836 4.89,-1.222 5.51,-1.223 4.9,-1.227 5.5,-1.222 4.9,-0.614 4.9,-1.222 5.51,-1.227 4.89,-1.223 5.51,-1.222 4.9,-1.227 5.5,-0.609 4.9,-1.227 4.89,-1.222 5.51,-1.223 4.9,-0.613 5.51,-1.223 4.89,-0.613 5.51,-1.223 4.9,-1.226 5.51,-0.61 4.89,-1.226 4.89,-0.61 5.52,-0.613 4.89,-1.223 5.51,-0.613 4.89,-1.223 5.51,-0.613 4.9,-0.613 4.89,-1.223 5.51,-0.613 4.9,-0.609 5.51,-0.614 4.89,-1.222 5.51,-0.614 4.89,-0.613 5.51,-0.609 4.9,-0.614 4.9,-0.613 5.5,-0.609 4.9,-0.614 5.51,-0.613 4.89,-0.609 5.51,-0.614 4.9,-0.613 4.89,-0.609 5.51,-0.613 4.9,-0.614 5.51,-0.609 4.89,-0.613 5.51,-0.614 4.9,-0.609 h 5.5 l 4.9,-0.613 4.9,-0.614 5.5,-0.613 4.9,-0.609 h 5.51 l 4.9,-0.614 5.5,-0.613 h 4.9 l 4.9,-0.609 5.5,-0.613 h 4.9 l 5.51,-0.614 4.89,-0.609 h 5.51 l 4.9,-0.613 h 5.5 l 4.9,-0.614 h 4.9 l 5.51,-0.609 4.89,-0.613 h 5.51 4.89 l 5.51,-0.614 h 4.9 l 4.89,-0.609 h 5.51 l 4.9,-0.613 h 5.51 4.89 l 5.51,-0.614 h 4.9 l 5.51,-0.609 h 4.89 4.89 l 5.51,-0.613 h 4.9 5.51 l 4.89,-0.614 h 5.51 4.9 4.89 l 5.51,-0.609 h 4.9 5.5 4.9 l 5.51,-0.613 h 4.9 5.5 4.9 4.9 l 5.5,-0.613 h 4.9 l 5.51,-1.223 h 4.89 5.51 4.9 4.9 5.5 4.9 5.51 l 4.89,-0.613 h 5.51 4.9 5.5 4.9 4.9 5.5 4.9 5.51 4.9 l 5.5,-0.61 h 4.9 4.89 5.51 4.9 5.51 4.89 5.51 4.9 5.51 4.89 4.9 l 5.51,0.61 4.89,0.613 5.51,0.613 4.89,0.61 h 5.51 4.9 4.89 5.51 4.9 l 5.51,-0.61 h 4.89 l 5.51,-0.613 4.89,-0.613 5.51,-0.61 h 4.9 l 4.9,-0.613 5.5,-0.613 4.9,-0.61 h 5.51 l 4.89,1.223 h 5.51 4.9 4.89 5.51 4.9 5.5 4.9 l 5.51,-1.836 4.9,0.613 h 1.22" /><path
         id="path318"
         style="fill:none;stroke:#000000;stroke-width:9.18000031;stroke-linecap:butt;stroke-linejoin:miter;stroke-miterlimit:10;stroke-dasharray:none;stroke-opacity:1"
         d="M 918,918 H 3683.63" /><path
         id="path320"
         style="fill:none;stroke:#000000;stroke-width:9.18000031;stroke-linecap:butt;stroke-linejoin:miter;stroke-miterlimit:10;stroke-dasharray:none;stroke-opacity:1"
         d="M 918,2865.38 H 3683.63" /><path
         id="path322"
         style="fill:none;stroke:#000000;stroke-width:9.18000031;stroke-linecap:butt;stroke-linejoin:miter;stroke-miterlimit:10;stroke-dasharray:none;stroke-opacity:1"
         d="m 1378.84,918 v 61.199" /><path
         id="path324"
         style="fill:none;stroke:#000000;stroke-width:9.18000031;stroke-linecap:butt;stroke-linejoin:miter;stroke-miterlimit:10;stroke-dasharray:none;stroke-opacity:1"
         d="m 1378.84,2865.38 v -61.2" /><path
         id="path326"
         style="fill:none;stroke:#000000;stroke-width:9.18000031;stroke-linecap:butt;stroke-linejoin:miter;stroke-miterlimit:10;stroke-dasharray:none;stroke-opacity:1"
         d="m 2300.51,918 v 61.199" /><path
         id="path328"
         style="fill:none;stroke:#000000;stroke-width:9.18000031;stroke-linecap:butt;stroke-linejoin:miter;stroke-miterlimit:10;stroke-dasharray:none;stroke-opacity:1"
         d="m 2300.51,2865.38 v -61.2" /><path
         id="path330"
         style="fill:none;stroke:#000000;stroke-width:9.18000031;stroke-linecap:butt;stroke-linejoin:miter;stroke-miterlimit:10;stroke-dasharray:none;stroke-opacity:1"
         d="m 3222.79,918 v 61.199" /><path
         id="path332"
         style="fill:none;stroke:#000000;stroke-width:9.18000031;stroke-linecap:butt;stroke-linejoin:miter;stroke-miterlimit:10;stroke-dasharray:none;stroke-opacity:1"
         d="m 3222.79,2865.38 v -61.2" /><path
         id="path334"
         style="fill:none;stroke:#000000;stroke-width:9.18000031;stroke-linecap:butt;stroke-linejoin:miter;stroke-miterlimit:10;stroke-dasharray:none;stroke-opacity:1"
         d="m 918,918 v 122.4" /><path
         id="path336"
         style="fill:none;stroke:#000000;stroke-width:9.18000031;stroke-linecap:butt;stroke-linejoin:miter;stroke-miterlimit:10;stroke-dasharray:none;stroke-opacity:1"
         d="m 918,2865.38 v -122.4" /><path
         id="path338"
         style="fill:none;stroke:#000000;stroke-width:9.18000031;stroke-linecap:butt;stroke-linejoin:miter;stroke-miterlimit:10;stroke-dasharray:none;stroke-opacity:1"
         d="m 1839.67,918 v 122.4" /><path
         id="path340"
         style="fill:none;stroke:#000000;stroke-width:9.18000031;stroke-linecap:butt;stroke-linejoin:miter;stroke-miterlimit:10;stroke-dasharray:none;stroke-opacity:1"
         d="m 1839.67,2865.38 v -122.4" /><path
         id="path342"
         style="fill:none;stroke:#000000;stroke-width:9.18000031;stroke-linecap:butt;stroke-linejoin:miter;stroke-miterlimit:10;stroke-dasharray:none;stroke-opacity:1"
         d="m 2761.34,918 v 122.4" /><path
         id="path344"
         style="fill:none;stroke:#000000;stroke-width:9.18000031;stroke-linecap:butt;stroke-linejoin:miter;stroke-miterlimit:10;stroke-dasharray:none;stroke-opacity:1"
         d="m 2761.34,2865.38 v -122.4" /><path
         id="path346"
         style="fill:none;stroke:#000000;stroke-width:9.18000031;stroke-linecap:butt;stroke-linejoin:miter;stroke-miterlimit:10;stroke-dasharray:none;stroke-opacity:1"
         d="m 3683.63,918 v 122.4" /><path
         id="path348"
         style="fill:none;stroke:#000000;stroke-width:9.18000031;stroke-linecap:butt;stroke-linejoin:miter;stroke-miterlimit:10;stroke-dasharray:none;stroke-opacity:1"
         d="m 3683.63,2865.38 v -122.4" /><g
         transform="scale(10)"
         id="g350"><text
           id="text356"
           style="font-variant:normal;font-weight:normal;font-size:17.13599968px;font-family:'Times New Roman';-inkscape-font-specification:Times-Roman;writing-mode:lr-tb;fill:#000000;fill-opacity:1;fill-rule:nonzero;stroke:none"
           transform="matrix(1,0,0,-1,87.6996,74.1742)"><tspan
             id="tspan352"
             y="0"
             x="0 87.883179 96.451172 180.05035 188.61835 272.21753 280.78552">0102030</tspan><tspan
             id="tspan354"
             y="17.8703"
             x="86.9039">E</tspan></text>
<text
           id="text360"
           style="font-variant:normal;font-weight:normal;font-size:8.56799984px;font-family:'Times New Roman';-inkscape-font-specification:Times-Roman;writing-mode:lr-tb;fill:#000000;fill-opacity:1;fill-rule:nonzero;stroke:none"
           transform="matrix(1,0,0,-1,185.191,56.671088)"><tspan
             id="tspan358"
             y="0"
             x="0 4.2839999">10</tspan></text>
<text
           id="text364"
           style="font-variant:normal;font-weight:normal;font-size:12.11760044px;font-family:'Times New Roman';-inkscape-font-specification:Times-Roman;writing-mode:lr-tb;fill:#000000;fill-opacity:1;fill-rule:nonzero;stroke:none"
           transform="matrix(1,0,0,-1,193.8203,49.449608)"><tspan
             id="tspan362"
             y="0"
             x="0 8.0824394 13.462653 16.492054 21.872269 24.901669 34.329163">Be c.m.</tspan></text>
<text
           id="text368"
           style="font-variant:normal;font-weight:normal;font-size:17.13599968px;font-family:'Times New Roman';-inkscape-font-specification:Times-Roman;writing-mode:lr-tb;fill:#000000;fill-opacity:1;fill-rule:nonzero;stroke:none"
           transform="matrix(1,0,0,-1,239.843,56.303908)"><tspan
             id="tspan366"
             y="0"
             x="0 5.7062879 20.940191 28.548576 40.920769">(MeV)</tspan></text>
</g><path
         id="path370"
         style="fill:none;stroke:#000000;stroke-width:9.18000031;stroke-linecap:butt;stroke-linejoin:miter;stroke-miterlimit:10;stroke-dasharray:none;stroke-opacity:1"
         d="M 918,918 V 2865.38" /><path
         id="path372"
         style="fill:none;stroke:#000000;stroke-width:9.18000031;stroke-linecap:butt;stroke-linejoin:miter;stroke-miterlimit:10;stroke-dasharray:none;stroke-opacity:1"
         d="M 3683.63,918 V 2865.38" /><path
         id="path374"
         style="fill:none;stroke:#000000;stroke-width:9.18000031;stroke-linecap:butt;stroke-linejoin:miter;stroke-miterlimit:10;stroke-dasharray:none;stroke-opacity:1"
         d="m 918,1242.36 h 61.199" /><path
         id="path376"
         style="fill:none;stroke:#000000;stroke-width:9.18000031;stroke-linecap:butt;stroke-linejoin:miter;stroke-miterlimit:10;stroke-dasharray:none;stroke-opacity:1"
         d="m 3683.63,1242.36 h -61.2" /><path
         id="path378"
         style="fill:none;stroke:#000000;stroke-width:9.18000031;stroke-linecap:butt;stroke-linejoin:miter;stroke-miterlimit:10;stroke-dasharray:none;stroke-opacity:1"
         d="m 918,1891.69 h 61.199" /><path
         id="path380"
         style="fill:none;stroke:#000000;stroke-width:9.18000031;stroke-linecap:butt;stroke-linejoin:miter;stroke-miterlimit:10;stroke-dasharray:none;stroke-opacity:1"
         d="m 3683.63,1891.69 h -61.2" /><path
         id="path382"
         style="fill:none;stroke:#000000;stroke-width:9.18000031;stroke-linecap:butt;stroke-linejoin:miter;stroke-miterlimit:10;stroke-dasharray:none;stroke-opacity:1"
         d="m 918,2541.02 h 61.199" /><path
         id="path384"
         style="fill:none;stroke:#000000;stroke-width:9.18000031;stroke-linecap:butt;stroke-linejoin:miter;stroke-miterlimit:10;stroke-dasharray:none;stroke-opacity:1"
         d="m 3683.63,2541.02 h -61.2" /><path
         id="path386"
         style="fill:none;stroke:#000000;stroke-width:9.18000031;stroke-linecap:butt;stroke-linejoin:miter;stroke-miterlimit:10;stroke-dasharray:none;stroke-opacity:1"
         d="m 918,918 h 122.4" /><path
         id="path388"
         style="fill:none;stroke:#000000;stroke-width:9.18000031;stroke-linecap:butt;stroke-linejoin:miter;stroke-miterlimit:10;stroke-dasharray:none;stroke-opacity:1"
         d="m 3683.63,918 h -122.4" /><path
         id="path390"
         style="fill:none;stroke:#000000;stroke-width:9.18000031;stroke-linecap:butt;stroke-linejoin:miter;stroke-miterlimit:10;stroke-dasharray:none;stroke-opacity:1"
         d="m 918,1567.33 h 122.4" /><path
         id="path392"
         style="fill:none;stroke:#000000;stroke-width:9.18000031;stroke-linecap:butt;stroke-linejoin:miter;stroke-miterlimit:10;stroke-dasharray:none;stroke-opacity:1"
         d="m 3683.63,1567.33 h -122.4" /><path
         id="path394"
         style="fill:none;stroke:#000000;stroke-width:9.18000031;stroke-linecap:butt;stroke-linejoin:miter;stroke-miterlimit:10;stroke-dasharray:none;stroke-opacity:1"
         d="m 918,2216.05 h 122.4" /><path
         id="path396"
         style="fill:none;stroke:#000000;stroke-width:9.18000031;stroke-linecap:butt;stroke-linejoin:miter;stroke-miterlimit:10;stroke-dasharray:none;stroke-opacity:1"
         d="m 3683.63,2216.05 h -122.4" /><path
         id="path398"
         style="fill:none;stroke:#000000;stroke-width:9.18000031;stroke-linecap:butt;stroke-linejoin:miter;stroke-miterlimit:10;stroke-dasharray:none;stroke-opacity:1"
         d="m 918,2865.38 h 122.4" /><path
         id="path400"
         style="fill:none;stroke:#000000;stroke-width:9.18000031;stroke-linecap:butt;stroke-linejoin:miter;stroke-miterlimit:10;stroke-dasharray:none;stroke-opacity:1"
         d="m 3683.63,2865.38 h -122.4" /><g
         transform="scale(10)"
         id="g402"><text
           id="text412"
           style="font-variant:normal;font-weight:normal;font-size:17.13599968px;font-family:'Times New Roman';-inkscape-font-specification:Times-Roman;writing-mode:lr-tb;fill:#000000;fill-opacity:1;fill-rule:nonzero;stroke:none"
           transform="matrix(1,0,0,-1,77.5402,86.1695)"><tspan
             id="tspan404"
             y="0"
             x="0">0</tspan><tspan
             id="tspan406"
             y="-64.749603"
             x="0.67343801">5</tspan><tspan
             id="tspan408"
             y="-129.8055"
             x="-8.6902323 -0.122232">10</tspan><tspan
             id="tspan410"
             y="-194.616"
             x="-7.9558568 0.61214298">15</tspan></text>
<text
           id="text416"
           style="font-variant:normal;font-weight:normal;font-size:17.13599968px;font-family:'Times New Roman';-inkscape-font-specification:Times-Roman;writing-mode:lr-tb;fill:#000000;fill-opacity:1;fill-rule:nonzero;stroke:none"
           transform="matrix(0,1,1,0,55.6922,106.488)"><tspan
             id="tspan414"
             y="0"
             x="0">d</tspan></text>
<text
           id="text420"
           style="font-variant:normal;font-weight:normal;font-size:17.13599968px;font-family:Symbol;-inkscape-font-specification:Symbol;writing-mode:lr-tb;fill:#000000;fill-opacity:1;fill-rule:nonzero;stroke:none"
           transform="matrix(0,1,1,0,55.6922,115.1173)"><tspan
             id="tspan418"
             y="0"
             x="0">σ</tspan></text>
<text
           id="text424"
           style="font-variant:normal;font-weight:normal;font-size:17.13599968px;font-family:'Times New Roman';-inkscape-font-specification:Times-Roman;writing-mode:lr-tb;fill:#000000;fill-opacity:1;fill-rule:nonzero;stroke:none"
           transform="matrix(0,1,1,0,55.6922,125.4603)"><tspan
             id="tspan422"
             y="0"
             x="0 4.7638078 13.331808">/dE</tspan></text>
<text
           id="text428"
           style="font-variant:normal;font-weight:normal;font-size:8.56799984px;font-family:'Times New Roman';-inkscape-font-specification:Times-Roman;writing-mode:lr-tb;fill:#000000;fill-opacity:1;fill-rule:nonzero;stroke:none"
           transform="matrix(0,1,1,0,55.263684,149.2056)"><tspan
             id="tspan426"
             y="0"
             x="0 4.2839999">10</tspan></text>
<text
           id="text432"
           style="font-variant:normal;font-weight:normal;font-size:12.11760044px;font-family:'Times New Roman';-inkscape-font-specification:Times-Roman;writing-mode:lr-tb;fill:#000000;fill-opacity:1;fill-rule:nonzero;stroke:none"
           transform="matrix(0,1,1,0,62.546494,157.8349)"><tspan
             id="tspan430"
             y="0"
             x="0 8.0824394 13.462653 16.492054 21.872269 24.901669 34.329163">Be c.m.</tspan></text>
<text
           id="text436"
           style="font-variant:normal;font-weight:normal;font-size:17.13599968px;font-family:'Times New Roman';-inkscape-font-specification:Times-Roman;writing-mode:lr-tb;fill:#000000;fill-opacity:1;fill-rule:nonzero;stroke:none"
           transform="matrix(0,1,1,0,55.692194,199.5732)"><tspan
             id="tspan434"
             y="0"
             x="0 5.7062879 19.038095 27.606096 32.369904 47.603809 55.212193 67.584381">(mb/MeV)</tspan></text>
</g><path
         id="path438"
         style="fill:none;stroke:#000000;stroke-width:9.18000031;stroke-linecap:butt;stroke-linejoin:miter;stroke-miterlimit:10;stroke-dasharray:none;stroke-opacity:1"
         d="M 918,918 V 2865.38 H 3683.63 V 918 Z" /><path
         id="path440"
         style="fill:none;stroke:#0000ff;stroke-width:18.36000061;stroke-linecap:butt;stroke-linejoin:miter;stroke-miterlimit:10;stroke-dasharray:none;stroke-opacity:1"
         d="m 4236.27,2524.5 69.15,-48.35 69.16,-135.25 69.15,-199.51 69.16,-231.34 69.15,-231.34 69.16,-206.85 69.16,-168.3 69.15,-125.46 69.16,-87.51 69.15,-56.92 69.16,-36.111 69.16,-22.641 69.15,-14.078 69.16,-8.567 69.16,-6.121 69.15,-4.285 69.16,-3.058 69.15,-2.45 69.16,-1.222 69.15,-0.614 h 69.16 l 69.16,-0.613 69.15,-0.609 69.16,-0.613 69.15,-0.614 69.16,-0.609 69.16,-0.613 69.15,-0.614 69.16,-0.609 69.16,-0.613 68.54,-0.614 69.15,-0.609 69.16,-0.613 69.16,-0.614 69.15,-0.609 69.16,-0.613 69.16,-0.614 69.15,-0.609 69.15,-0.613 h 69.16 0.61" /><path
         id="path442"
         style="fill:none;stroke:#000000;stroke-width:18.36000061;stroke-linecap:butt;stroke-linejoin:miter;stroke-miterlimit:10;stroke-dasharray:none;stroke-opacity:1"
         d="m 4236.27,2686.68 28.15,-9.79 27.54,-28.76 27.54,-47.13 27.54,-63.04 27.54,-77.72 28.15,-89.35 27.54,-97.92 27.54,-104.65 27.54,-107.71 27.54,-108.94 28.15,-106.49 27.54,-102.82 27.54,-97.31 27.54,-90.57 27.54,-82.62 27.54,-75.27 28.15,-66.1 27.54,-58.14 27.54,-50.8 27.54,-44.06 27.54,-36.72 28.15,-31.82 27.54,-26.32 27.55,-22.65 27.53,-18.35 27.54,-15.31 28.16,-13.46 27.53,-10.4 27.55,-9.183 27.54,-7.957 27.54,-6.73 27.53,-5.512 28.16,-4.894 27.54,-4.286 27.54,-3.671 27.54,-3.059 27.54,-3.059 28.15,-2.449 27.54,-1.836 27.54,-1.836 27.54,-1.222 27.54,-1.836 28.15,-0.614 27.54,-1.222 27.54,-0.614 27.54,-0.613 27.54,-0.609 27.54,-0.613 28.15,-0.614 27.54,-0.609 27.55,-0.613 27.53,-0.614 H 5702 l 28.16,-0.609 27.54,-0.613 27.53,-0.614 h 27.55 l 27.54,-0.613 28.15,-0.609 27.54,-0.614 h 27.54 l 27.54,-0.613 27.54,-0.609 h 27.54 l 28.15,-0.613 27.54,-0.614 h 27.54 l 27.54,-0.609 h 27.54 l 28.15,-0.613 h 27.54 l 27.54,-0.614 h 27.54 l 27.54,-0.609 28.16,-0.613 h 27.53 l 27.54,-0.614 h 27.54 l 27.55,-0.609 27.53,-0.613 h 28.16 l 27.54,-0.614 h 27.54 l 27.54,-0.609 h 27.54 l 28.15,-0.613 h 27.54 l 27.54,-0.614 h 27.54 27.54 l 27.54,-0.609 h 28.15 27.54 l 27.54,-0.613 h 27.54 27.54 l 28.15,-0.613 h 27.54 27.54 l 27.54,-0.61 h 0.61" /><path
         id="path444"
         style="fill:none;stroke:#ff0000;stroke-width:18.36000061;stroke-linecap:butt;stroke-linejoin:miter;stroke-miterlimit:10;stroke-dasharray:none;stroke-opacity:1"
         d="m 4236.27,2689.74 69.15,-59.97 69.16,-167.7 69.15,-241.12 69.16,-270.5 69.15,-260.11 69.16,-222.15 69.16,-171.36 69.15,-122.4 69.16,-82.62 69.15,-53.25 69.16,-33.66 69.16,-22.029 69.15,-14.687 69.16,-9.793 69.16,-7.344 69.15,-4.895 69.16,-3.058 69.15,-2.449 69.16,-1.223 69.15,-1.227 69.16,-1.222 69.16,-1.227 69.15,-1.223 69.16,-1.222 69.15,-0.613 69.16,-1.223 69.16,-0.613 69.15,-0.614 69.16,-1.222 69.16,-0.614 68.54,-1.222 69.15,-0.614 69.16,-0.609 69.16,-0.613 69.15,-1.223 h 69.16 l 69.16,-0.613 69.15,-0.613 69.15,-0.61 h 69.16 0.61" /><path
         id="path446"
         style="fill:none;stroke:#000000;stroke-width:9.18000031;stroke-linecap:butt;stroke-linejoin:miter;stroke-miterlimit:10;stroke-dasharray:none;stroke-opacity:1"
         d="M 4236.27,918 H 7001.89" /><path
         id="path448"
         style="fill:none;stroke:#000000;stroke-width:9.18000031;stroke-linecap:butt;stroke-linejoin:miter;stroke-miterlimit:10;stroke-dasharray:none;stroke-opacity:1"
         d="M 4236.27,2865.38 H 7001.89" /><path
         id="path450"
         style="fill:none;stroke:#000000;stroke-width:9.18000031;stroke-linecap:butt;stroke-linejoin:miter;stroke-miterlimit:10;stroke-dasharray:none;stroke-opacity:1"
         d="m 4582.04,918 v 61.199" /><path
         id="path452"
         style="fill:none;stroke:#000000;stroke-width:9.18000031;stroke-linecap:butt;stroke-linejoin:miter;stroke-miterlimit:10;stroke-dasharray:none;stroke-opacity:1"
         d="m 4582.04,2865.38 v -61.2" /><path
         id="path454"
         style="fill:none;stroke:#000000;stroke-width:9.18000031;stroke-linecap:butt;stroke-linejoin:miter;stroke-miterlimit:10;stroke-dasharray:none;stroke-opacity:1"
         d="m 5273.61,918 v 61.199" /><path
         id="path456"
         style="fill:none;stroke:#000000;stroke-width:9.18000031;stroke-linecap:butt;stroke-linejoin:miter;stroke-miterlimit:10;stroke-dasharray:none;stroke-opacity:1"
         d="m 5273.61,2865.38 v -61.2" /><path
         id="path458"
         style="fill:none;stroke:#000000;stroke-width:9.18000031;stroke-linecap:butt;stroke-linejoin:miter;stroke-miterlimit:10;stroke-dasharray:none;stroke-opacity:1"
         d="m 4236.27,918 v 122.4" /><path
         id="path460"
         style="fill:none;stroke:#000000;stroke-width:9.18000031;stroke-linecap:butt;stroke-linejoin:miter;stroke-miterlimit:10;stroke-dasharray:none;stroke-opacity:1"
         d="m 4236.27,2865.38 v -122.4" /><path
         id="path462"
         style="fill:none;stroke:#000000;stroke-width:9.18000031;stroke-linecap:butt;stroke-linejoin:miter;stroke-miterlimit:10;stroke-dasharray:none;stroke-opacity:1"
         d="m 4927.82,918 v 122.4" /><path
         id="path464"
         style="fill:none;stroke:#000000;stroke-width:9.18000031;stroke-linecap:butt;stroke-linejoin:miter;stroke-miterlimit:10;stroke-dasharray:none;stroke-opacity:1"
         d="m 4927.82,2865.38 v -122.4" /><path
         id="path466"
         style="fill:none;stroke:#000000;stroke-width:9.18000031;stroke-linecap:butt;stroke-linejoin:miter;stroke-miterlimit:10;stroke-dasharray:none;stroke-opacity:1"
         d="m 5619.38,918 v 122.4" /><path
         id="path468"
         style="fill:none;stroke:#000000;stroke-width:9.18000031;stroke-linecap:butt;stroke-linejoin:miter;stroke-miterlimit:10;stroke-dasharray:none;stroke-opacity:1"
         d="m 5619.38,2865.38 v -122.4" /><g
         transform="scale(10)"
         id="g470"><text
           id="text478"
           style="font-variant:normal;font-weight:normal;font-size:17.13599968px;font-family:'Times New Roman';-inkscape-font-specification:Times-Roman;writing-mode:lr-tb;fill:#000000;fill-opacity:1;fill-rule:nonzero;stroke:none"
           transform="matrix(1,0,0,-1,419.587,74.1742)"><tspan
             id="tspan472"
             y="0"
             x="0">0</tspan><tspan
             id="tspan474"
             y="0.24453101"
             x="69.462097">5</tspan><tspan
             id="tspan476"
             y="0"
             x="133.9668 142.53481">10</tspan></text>
<text
           id="text482"
           style="font-variant:normal;font-weight:normal;font-size:17.13599968px;font-family:Symbol;-inkscape-font-specification:Symbol;writing-mode:lr-tb;fill:#000000;fill-opacity:1;fill-rule:nonzero;stroke:none"
           transform="matrix(1,0,0,-1,537.703,55.8144)"><tspan
             id="tspan480"
             y="0"
             x="0">θ</tspan></text>
<text
           id="text486"
           style="font-variant:normal;font-weight:normal;font-size:17.13599968px;font-family:'Times New Roman';-inkscape-font-specification:Times-Roman;writing-mode:lr-tb;fill:#000000;fill-opacity:1;fill-rule:nonzero;stroke:none"
           transform="matrix(1,0,0,-1,550.86122,55.8144)"><tspan
             id="tspan484"
             y="0"
             x="0 5.7062879 14.274288 21.882671 30.450672">(deg)</tspan></text>
</g><path
         id="path488"
         style="fill:none;stroke:#000000;stroke-width:9.18000031;stroke-linecap:butt;stroke-linejoin:miter;stroke-miterlimit:10;stroke-dasharray:none;stroke-opacity:1"
         d="M 4236.27,918 V 2865.38" /><path
         id="path490"
         style="fill:none;stroke:#000000;stroke-width:9.18000031;stroke-linecap:butt;stroke-linejoin:miter;stroke-miterlimit:10;stroke-dasharray:none;stroke-opacity:1"
         d="m 4236.27,1161.57 h 61.19" /><path
         id="path492"
         style="fill:none;stroke:#000000;stroke-width:9.18000031;stroke-linecap:butt;stroke-linejoin:miter;stroke-miterlimit:10;stroke-dasharray:none;stroke-opacity:1"
         d="m 4236.27,1648.12 h 61.19" /><path
         id="path494"
         style="fill:none;stroke:#000000;stroke-width:9.18000031;stroke-linecap:butt;stroke-linejoin:miter;stroke-miterlimit:10;stroke-dasharray:none;stroke-opacity:1"
         d="m 4236.27,2135.27 h 61.19" /><path
         id="path496"
         style="fill:none;stroke:#000000;stroke-width:9.18000031;stroke-linecap:butt;stroke-linejoin:miter;stroke-miterlimit:10;stroke-dasharray:none;stroke-opacity:1"
         d="m 4236.27,2621.81 h 61.19" /><path
         id="path498"
         style="fill:none;stroke:#000000;stroke-width:9.18000031;stroke-linecap:butt;stroke-linejoin:miter;stroke-miterlimit:10;stroke-dasharray:none;stroke-opacity:1"
         d="m 4236.27,918 h 122.39" /><path
         id="path500"
         style="fill:none;stroke:#000000;stroke-width:9.18000031;stroke-linecap:butt;stroke-linejoin:miter;stroke-miterlimit:10;stroke-dasharray:none;stroke-opacity:1"
         d="m 4236.27,1404.54 h 122.39" /><path
         id="path502"
         style="fill:none;stroke:#000000;stroke-width:9.18000031;stroke-linecap:butt;stroke-linejoin:miter;stroke-miterlimit:10;stroke-dasharray:none;stroke-opacity:1"
         d="m 4236.27,1891.69 h 122.39" /><path
         id="path504"
         style="fill:none;stroke:#000000;stroke-width:9.18000031;stroke-linecap:butt;stroke-linejoin:miter;stroke-miterlimit:10;stroke-dasharray:none;stroke-opacity:1"
         d="m 4236.27,2378.23 h 122.39" /><path
         id="path506"
         style="fill:none;stroke:#000000;stroke-width:9.18000031;stroke-linecap:butt;stroke-linejoin:miter;stroke-miterlimit:10;stroke-dasharray:none;stroke-opacity:1"
         d="m 4236.27,2865.38 h 122.39" /><path
         id="path508"
         style="fill:none;stroke:#000000;stroke-width:9.18000031;stroke-linecap:butt;stroke-linejoin:miter;stroke-miterlimit:10;stroke-dasharray:none;stroke-opacity:1"
         d="M 4236.27,918 V 2865.38 H 7001.89 V 918 Z" /></g></g></svg>