<?xml version="1.0" encoding="UTF-8" standalone="no"?>
<svg
   xmlns:dc="http://purl.org/dc/elements/1.1/"
   xmlns:cc="http://creativecommons.org/ns#"
   xmlns:rdf="http://www.w3.org/1999/02/22-rdf-syntax-ns#"
   xmlns:svg="http://www.w3.org/2000/svg"
   xmlns="http://www.w3.org/2000/svg"
   viewBox="0 0 793.33331 1122.6667"
   height="1122.6667"
   width="793.33331"
   xml:space="preserve"
   id="svg2"
   version="1.1"><metadata
     id="metadata8"><rdf:RDF><cc:Work
         rdf:about=""><dc:format>image/svg+xml</dc:format><dc:type
           rdf:resource="http://purl.org/dc/dcmitype/StillImage" /></cc:Work></rdf:RDF></metadata><defs
     id="defs6" /><g
     transform="matrix(1.3333333,0,0,-1.3333333,0,1122.6667)"
     id="g10"><g
       transform="scale(0.1)"
       id="g12"><path
         id="path14"
         style="fill:#ffffff;fill-opacity:1;fill-rule:nonzero;stroke:none"
         d="M 0,0 H 7919.89 V 6120 H 0 Z" /><path
         id="path16"
         style="fill:none;stroke:#0000ff;stroke-width:18.36000061;stroke-linecap:butt;stroke-linejoin:miter;stroke-miterlimit:10;stroke-dasharray:none;stroke-opacity:1"
         d="M 917.387,3281.54 H 918 l 4.895,0.62 4.285,0.61 4.894,0.61 h 4.285 l 4.899,0.61 4.281,0.62 4.899,0.6 h 4.281 l 4.898,0.62 4.281,0.61 4.899,0.61 4.281,0.61 4.899,0.62 h 4.285 l 4.894,0.61 4.285,0.61 4.895,0.61 4.894,0.61 4.29,0.62 4.89,0.61 4.29,0.61 4.89,0.61 4.29,0.62 4.89,0.6 4.28,0.62 4.9,0.61 4.28,0.61 4.9,0.61 4.29,0.62 4.89,0.61 4.29,0.61 4.89,0.61 4.9,0.61 4.28,0.62 4.9,1.22 4.28,0.61 4.9,0.61 4.28,0.61 4.9,0.62 4.28,0.61 4.9,1.22 4.28,0.62 4.9,0.61 4.28,1.22 4.9,0.62 4.28,0.61 4.9,0.61 4.28,1.22 4.9,0.61 4.89,1.23 4.29,0.61 4.89,0.61 4.29,1.23 4.9,0.61 4.28,1.22 4.9,0.62 4.28,1.22 4.9,0.61 4.28,1.22 4.9,0.62 4.28,1.22 4.89,1.22 4.29,0.62 4.89,1.22 4.9,1.23 4.28,0.6 4.9,1.23 4.28,1.22 4.9,1.23 4.28,0.61 4.9,1.22 4.28,1.23 4.9,1.22 4.28,1.22 4.9,1.23 4.28,0.61 4.9,1.23 4.28,1.22 4.9,1.22 4.29,1.23 4.89,1.22 4.89,1.84 4.29,1.22 4.89,1.23 4.29,1.22 4.89,1.23 4.29,1.22 4.9,1.83 4.28,1.23 4.9,1.22 4.28,1.23 4.9,1.83 4.28,1.22 4.9,1.84 4.28,1.23 4.9,1.22 4.89,1.84 4.29,1.83 4.89,1.22 4.29,1.84 4.89,1.23 4.29,1.83 4.89,1.84 4.29,1.83 4.89,1.84 4.29,1.22 4.89,1.84 4.28,1.84 4.9,1.83 4.28,1.84 4.9,1.83 4.29,2.45 4.89,1.84 4.9,1.83 4.28,1.84 4.9,2.45 4.28,1.84 4.9,1.83 4.28,2.45 4.9,2.45 4.28,1.83 4.9,2.45 4.28,2.45 4.9,1.84 4.28,2.44 4.9,2.45 4.28,2.45 4.9,2.45 4.89,3.06 4.29,2.44 4.89,2.45 4.29,3.06 4.89,2.45 4.29,3.06 4.89,2.45 4.29,3.06 4.9,3.06 4.28,3.06 4.9,3.06 4.28,3.06 4.9,3.06 4.28,3.67 4.9,3.06 4.28,3.67 4.89,3.06 4.9,3.67 4.28,3.68 4.9,3.67 4.28,3.67 4.9,3.67 4.28,3.67 4.9,4.29 4.28,4.28 4.9,3.68 4.28,4.28 4.9,4.28 4.28,4.29 4.9,4.89 4.28,4.29 4.9,4.89 4.9,4.29 4.28,4.89 4.9,4.9 4.28,4.89 4.89,5.51 4.29,4.9 4.89,5.5 4.29,5.52 4.89,5.5 4.29,5.51 4.9,5.51 4.28,6.12 4.9,6.12 4.28,6.12 4.9,6.12 4.28,6.12 4.9,6.12 4.89,6.73 4.29,6.73 4.89,6.73 4.29,6.74 4.89,6.73 4.29,7.34 4.89,7.35 4.29,7.34 4.89,7.34 4.29,7.35 4.89,7.95 4.29,7.35 4.89,7.95 4.28,7.96 4.9,7.95 4.9,8.58 4.28,8.56 4.9,7.96 4.28,8.57 4.9,8.57 4.28,9.18 4.9,8.56 4.28,9.18 4.9,9.18 4.28,9.18 4.9,9.18 4.28,9.18 4.9,9.79 4.28,9.18 4.9,9.8 4.28,9.79 4.9,9.79 4.89,9.79 4.29,9.79 4.89,9.8 4.29,10.4 4.89,9.79 4.29,10.4 4.89,9.8 4.29,10.4 4.89,10.41 4.29,9.79 4.9,10.4 4.28,10.41 4.9,10.4 4.28,10.41 4.9,9.78 4.89,10.41 4.29,10.4 4.89,9.8 4.28,10.4 4.9,10.41 4.28,9.79 4.9,9.79 4.28,9.79 4.9,10.4 4.28,9.19 4.9,9.79 4.28,9.79 4.9,9.18 4.28,9.79 4.9,9.18 4.28,8.57 4.9,9.18 4.9,8.57 4.28,9.18 4.9,7.95 4.28,8.57 4.9,7.96 4.28,7.95 4.89,7.96 4.29,7.95 4.89,7.35 4.29,6.73 4.89,7.35 4.29,6.73 4.9,6.73 4.28,6.12 4.9,6.12 4.89,6.12 4.29,5.51 4.89,5.51 4.29,5.5 4.89,4.9 4.29,4.89 4.89,4.29 4.29,4.9 4.89,3.67 4.29,4.28 4.89,3.67 4.29,3.67 4.89,3.07 4.29,3.05 4.89,3.06 4.29,2.45 4.89,3.06 4.9,1.84 4.28,2.45 4.9,1.83 4.28,1.84 4.9,1.83 4.28,1.84 4.9,1.23 4.28,1.22 4.9,1.22 4.28,1.23 4.9,1.22 4.28,0.61 4.9,0.61 4.28,0.62 4.9,0.61 4.89,0.61 4.29,0.61 h 4.89 l 4.29,0.62 4.89,0.61 h 4.29 4.89 4.29 l 4.89,0.61 h 4.29 4.89 4.29 4.89 4.29 4.9 l 4.28,-0.61 h 4.9 4.89 4.29 l 4.89,-0.61 4.29,-0.62 h 4.89 l 4.28,-0.61 4.9,-0.61 4.28,-0.61 4.9,-0.62 4.28,-0.61 4.9,-0.61 4.28,-1.22 4.9,-1.23 4.28,-1.22 4.9,-1.22 4.9,-1.23 4.28,-1.84 4.9,-1.83 4.28,-1.84 4.9,-1.83 4.28,-2.45 4.9,-1.84 4.28,-3.06 4.9,-2.45 4.28,-3.06 4.89,-3.05 4.29,-3.07 4.89,-3.67 4.29,-3.67 4.89,-4.28 4.29,-3.67 4.9,-4.9 4.89,-4.29 4.29,-4.89 4.89,-4.9 4.29,-5.5 4.89,-5.51 4.29,-5.51 4.89,-6.12 4.29,-6.12 4.89,-6.12 4.29,-6.73 4.89,-6.73 4.29,-7.35 4.89,-6.73 4.29,-7.35 4.89,-7.95 4.9,-7.96 4.28,-7.95 4.9,-7.96 4.28,-8.57 4.9,-7.95 4.28,-9.18 4.9,-8.57 4.28,-9.18 4.9,-8.57 4.28,-9.18 4.9,-9.79 4.28,-9.18 4.9,-9.79 4.28,-9.79 4.9,-9.19 4.28,-10.4 4.9,-9.79 4.89,-9.79 4.29,-9.79 4.89,-10.41 4.29,-10.4 4.89,-9.8 4.29,-10.4 4.89,-10.41 4.29,-9.78 4.89,-10.41 4.29,-10.4 4.89,-10.41 4.29,-10.4 4.89,-9.79 4.29,-10.41 4.89,-10.4 4.9,-9.8 4.29,-10.4 4.89,-9.79 4.29,-10.4 4.89,-9.8 4.29,-9.79 4.89,-9.79 4.29,-9.79 4.89,-9.79 4.28,-9.8 4.9,-9.18 4.28,-9.79 4.9,-9.18 4.28,-9.18 4.9,-9.18 4.28,-9.18 4.9,-9.18 4.9,-8.56 4.28,-9.18 4.9,-8.57 4.28,-8.57 4.9,-7.96 4.28,-8.56 4.9,-8.58 4.28,-7.95 4.9,-7.96 4.28,-7.95 4.9,-7.35 4.28,-7.95 4.89,-7.35 4.29,-7.34 4.89,-7.34 4.9,-7.35 4.28,-7.34 4.9,-6.73 4.29,-6.74 4.89,-6.73 4.29,-6.73 4.89,-6.73 4.29,-6.12 4.89,-6.12 4.29,-6.12 4.89,-6.12 4.29,-6.12 4.89,-6.12 4.29,-5.51 4.89,-5.51 4.29,-5.5 4.89,-5.52 4.9,-5.5 4.28,-4.9 4.9,-5.51 4.28,-4.89 4.9,-4.9 4.28,-4.89 4.9,-4.29 4.28,-4.89 4.9,-4.29 4.28,-4.89 4.9,-4.29 4.28,-4.28 4.9,-4.28 4.28,-3.68 4.9,-4.28 4.9,-4.29 4.28,-3.67 4.89,-3.67 4.29,-3.67 4.89,-3.67 4.29,-3.68 4.89,-3.67 4.29,-3.06 4.89,-3.67 4.29,-3.06 4.89,-3.67 4.29,-3.06 4.89,-3.06 4.29,-3.06 4.89,-3.06 4.29,-3.06 4.89,-3.06 4.9,-2.45 4.28,-3.06 4.9,-2.45 4.29,-3.06 4.89,-2.45 4.29,-2.44 4.89,-3.06 4.29,-2.45 4.89,-2.45 4.29,-2.45 4.89,-2.44 4.28,-1.84 4.9,-2.45 4.28,-2.45 4.9,-1.83 4.9,-2.45 4.28,-2.45 4.9,-1.83 4.28,-1.84 4.9,-2.45 4.28,-1.84 4.9,-1.83 4.28,-1.84 4.9,-2.45 4.28,-1.83 4.9,-1.84 4.28,-1.83 4.9,-1.84 4.28,-1.84 4.9,-1.22 4.28,-1.84 4.89,-1.83 4.9,-1.84 4.28,-1.83 4.9,-1.23 4.28,-1.84 4.9,-1.22 4.29,-1.83 4.89,-1.84 4.29,-1.22 4.89,-1.23 4.29,-1.84 4.89,-1.22 4.29,-1.83 4.89,-1.23 4.29,-1.22 4.89,-1.23 4.9,-1.83 4.28,-1.22 4.9,-1.23 4.28,-1.22 4.9,-1.23 4.28,-1.22 4.9,-1.84 4.28,-1.22 4.9,-1.23 4.28,-1.22 4.9,-1.22 4.28,-1.23 4.9,-0.61 4.28,-1.23 4.9,-1.22 4.28,-1.22 4.9,-1.23 4.9,-1.22 4.28,-0.61 4.9,-1.23 4.28,-1.22 4.89,-1.23 4.29,-0.6 4.89,-1.23 4.29,-1.22 4.89,-0.62 4.29,-1.22 4.89,-1.22 4.29,-0.62 4.89,-1.22 4.29,-0.61 4.89,-1.22 4.9,-0.62 4.28,-1.22 4.9,-0.61 4.28,-1.23 4.9,-0.61 4.28,-0.61 4.9,-1.23 4.29,-0.61 4.89,-1.22 4.29,-0.61 4.89,-0.61 4.29,-0.62 4.89,-1.22 4.29,-0.61 4.89,-0.62 4.28,-1.22 4.9,-0.61 4.9,-0.62 4.28,-0.61 4.9,-0.61 4.28,-0.61 4.9,-1.22 4.28,-0.62 4.9,-0.61 4.28,-0.61 4.9,-0.61 4.28,-0.61 4.9,-0.62 4.28,-0.61 4.9,-0.61 4.28,-0.61 4.9,-0.62 4.89,-0.6 4.29,-0.62 4.89,-0.61 4.28,-0.61 4.9,-0.61 4.28,-0.62 4.9,-0.61 4.28,-0.61 4.9,-0.61 4.29,-0.61 h 4.89 l 4.29,-0.62 4.89,-0.61 4.29,-0.61 4.89,-0.61 4.29,-0.62 h 4.89 l 4.9,-0.6 4.28,-0.62 4.9,-0.61 h 4.28 l 4.9,-0.61 4.28,-0.61 4.9,-0.62 h 0.61" /><path
         id="path18"
         style="fill:none;stroke:#ff0000;stroke-width:18.36000061;stroke-linecap:butt;stroke-linejoin:miter;stroke-miterlimit:10;stroke-dasharray:none;stroke-opacity:1"
         d="m 917.387,3257.68 v 0 l 17.136,0.61 h 17.75 l 17.133,0.61 17.137,0.61 17.137,0.62 17.75,0.6 17.13,0.62 17.14,0.61 17.14,1.22 17.75,0.62 17.13,1.22 17.14,1.22 17.13,1.23 17.75,1.22 17.14,1.84 17.13,1.83 17.14,1.84 17.74,2.45 17.14,1.83 17.14,3.06 17.13,3.07 17.75,3.05 17.14,3.68 17.13,3.67 17.14,4.89 17.75,4.9 17.13,5.51 17.14,6.12 17.14,6.73 17.74,7.96 17.14,8.56 17.14,9.18 17.13,10.41 17.75,11.62 17.14,12.86 17.13,14.07 17.14,15.91 17.75,17.14 17.13,18.97 17.14,20.81 17.75,22.65 17.13,24.48 17.14,26.92 17.14,29.38 17.74,31.21 17.14,33.66 17.14,36.11 17.13,39.17 17.75,41 17.13,43.45 17.14,45.91 17.13,47.73 17.75,50.18 17.14,52.02 17.14,53.25 17.13,54.46 17.75,55.7 17.14,55.69 17.13,56.31 17.14,55.69 17.75,54.47 17.13,53.24 17.14,50.8 17.13,47.73 17.75,44.07 17.14,40.39 17.13,36.72 17.14,31.82 17.75,27.54 17.14,23.26 17.13,18.36 17.14,14.68 17.75,11.02 17.13,7.34 17.13,5.51 17.14,3.06 17.75,1.84 17.13,0.61 17.14,0.61 h 17.14 17.75 l 17.13,-0.61 17.14,-0.61 17.13,-1.84 17.75,-3.06 17.14,-5.51 17.13,-7.34 17.14,-11.02 17.75,-14.68 17.13,-18.36 17.14,-23.26 17.14,-27.54 17.74,-31.82 17.14,-36.72 17.14,-40.39 17.13,-44.07 17.75,-48.35 17.14,-50.18 17.13,-53.24 17.14,-54.47 17.75,-55.69 17.13,-56.31 17.14,-55.69 17.14,-55.7 17.74,-54.46 17.14,-53.25 17.13,-52.02 17.14,-50.18 17.75,-47.73 17.13,-45.91 17.14,-43.45 17.14,-41 17.74,-39.17 17.14,-36.11 17.14,-33.66 17.13,-31.21 17.75,-29.38 17.14,-26.92 17.13,-24.48 17.14,-22.65 17.75,-20.81 17.13,-18.97 17.14,-17.14 17.13,-15.91 17.75,-14.07 17.14,-12.86 17.14,-11.62 17.13,-10.41 17.75,-9.18 17.14,-8.56 17.13,-7.96 17.75,-6.73 17.14,-6.12 17.13,-5.51 17.13,-4.9 17.75,-4.89 17.14,-3.67 17.13,-3.68 17.14,-3.05 17.75,-3.07 17.14,-3.06 17.13,-1.83 17.14,-2.45 17.75,-1.84 17.13,-1.83 17.14,-1.84 17.13,-1.22 17.75,-1.23 17.14,-1.22 17.13,-1.22 17.14,-0.62 17.75,-1.22 17.13,-0.61 17.14,-0.62 17.14,-0.6 17.74,-0.62 17.14,-0.61 17.14,-0.61 h 17.13 l 17.75,-0.61 v 0" /><path
         id="path20"
         style="fill:none;stroke:#000000;stroke-width:18.36000061;stroke-linecap:butt;stroke-linejoin:miter;stroke-miterlimit:10;stroke-dasharray:none;stroke-opacity:1"
         d="m 917.387,3258.29 v 0 l 17.136,0.61 17.75,0.61 h 17.133 l 17.137,0.62 17.137,0.6 17.75,1.23 17.13,0.61 17.14,0.61 17.14,1.23 17.75,0.61 17.13,1.22 17.14,1.23 17.13,1.83 17.75,1.23 17.14,1.83 17.13,1.23 17.14,1.84 17.74,2.44 17.14,1.84 17.14,2.45 17.13,3.05 17.75,2.45 17.14,3.06 17.13,3.07 17.14,3.67 17.75,4.28 17.13,4.28 17.14,4.29 17.14,4.89 17.74,6.12 17.14,5.51 17.14,6.73 17.13,7.35 17.75,7.95 17.14,9.18 17.13,9.18 17.14,11.02 17.75,11.63 17.13,12.85 17.14,14.08 17.75,15.3 17.13,17.13 17.14,18.36 17.14,20.2 17.74,21.42 17.14,23.87 17.14,25.7 17.13,27.54 17.75,29.38 17.13,31.21 17.14,33.66 17.13,34.88 17.75,36.72 17.14,38.56 17.14,39.78 17.13,41.62 17.75,41.61 17.14,42.84 17.13,42.84 17.14,42.23 17.75,42.23 17.13,40.39 17.14,39.17 17.13,36.72 17.75,33.66 17.14,31.21 17.13,27.54 17.14,23.87 17.75,20.19 17.14,15.91 17.13,12.85 17.14,9.19 17.75,6.73 17.13,4.28 17.13,1.84 17.14,1.22 h 17.75 l 17.13,-0.61 17.14,-0.61 h 17.14 17.75 l 17.13,0.61 17.14,0.61 h 17.13 l 17.75,-1.22 17.14,-1.84 17.13,-4.28 17.14,-6.73 17.75,-9.19 17.13,-12.85 17.14,-15.91 17.14,-20.19 17.74,-23.87 17.14,-27.54 17.14,-31.21 17.13,-33.66 17.75,-36.72 17.14,-39.17 17.13,-40.39 17.14,-42.23 17.75,-42.23 17.13,-42.84 17.14,-42.84 17.14,-41.61 17.74,-41.62 17.14,-39.78 17.13,-38.56 17.14,-36.72 17.75,-34.88 17.13,-33.66 17.14,-31.21 17.14,-29.38 17.74,-27.54 17.14,-25.7 17.14,-23.87 17.13,-21.42 17.75,-20.2 17.14,-18.36 17.13,-17.13 17.14,-15.3 17.75,-14.08 17.13,-12.85 17.14,-11.63 17.13,-11.02 17.75,-9.18 17.14,-9.18 17.14,-7.95 17.13,-7.35 17.75,-6.73 17.14,-5.51 17.13,-6.12 17.75,-4.89 17.14,-4.29 17.13,-4.28 17.13,-4.28 17.75,-3.67 17.14,-3.07 17.13,-3.06 17.14,-2.45 17.75,-3.05 17.14,-2.45 17.13,-1.84 17.14,-2.44 17.75,-1.84 17.13,-1.23 17.14,-1.83 17.13,-1.23 17.75,-1.83 17.14,-1.23 17.13,-1.22 17.14,-0.61 17.75,-1.23 17.13,-0.61 17.14,-0.61 17.14,-1.23 17.74,-0.6 17.14,-0.62 h 17.14 l 17.13,-0.61 17.75,-0.61 v 0" /><path
         id="path22"
         style="fill:none;stroke:#000000;stroke-width:9.18000031;stroke-linecap:butt;stroke-linejoin:miter;stroke-miterlimit:10;stroke-dasharray:none;stroke-opacity:1"
         d="M 918,3254.62 H 3683.63" /><path
         id="path24"
         style="fill:none;stroke:#000000;stroke-width:9.18000031;stroke-linecap:butt;stroke-linejoin:miter;stroke-miterlimit:10;stroke-dasharray:none;stroke-opacity:1"
         d="M 918,5202 H 3683.63" /><path
         id="path26"
         style="fill:none;stroke:#000000;stroke-width:9.18000031;stroke-linecap:butt;stroke-linejoin:miter;stroke-miterlimit:10;stroke-dasharray:none;stroke-opacity:1"
         d="m 918,3254.62 v 61.2" /><path
         id="path28"
         style="fill:none;stroke:#000000;stroke-width:9.18000031;stroke-linecap:butt;stroke-linejoin:miter;stroke-miterlimit:10;stroke-dasharray:none;stroke-opacity:1"
         d="m 918,5202 v -61.2" /><path
         id="path30"
         style="fill:none;stroke:#000000;stroke-width:9.18000031;stroke-linecap:butt;stroke-linejoin:miter;stroke-miterlimit:10;stroke-dasharray:none;stroke-opacity:1"
         d="m 1839.67,3254.62 v 61.2" /><path
         id="path32"
         style="fill:none;stroke:#000000;stroke-width:9.18000031;stroke-linecap:butt;stroke-linejoin:miter;stroke-miterlimit:10;stroke-dasharray:none;stroke-opacity:1"
         d="m 1839.67,5202 v -61.2" /><path
         id="path34"
         style="fill:none;stroke:#000000;stroke-width:9.18000031;stroke-linecap:butt;stroke-linejoin:miter;stroke-miterlimit:10;stroke-dasharray:none;stroke-opacity:1"
         d="m 2761.34,3254.62 v 61.2" /><path
         id="path36"
         style="fill:none;stroke:#000000;stroke-width:9.18000031;stroke-linecap:butt;stroke-linejoin:miter;stroke-miterlimit:10;stroke-dasharray:none;stroke-opacity:1"
         d="m 2761.34,5202 v -61.2" /><path
         id="path38"
         style="fill:none;stroke:#000000;stroke-width:9.18000031;stroke-linecap:butt;stroke-linejoin:miter;stroke-miterlimit:10;stroke-dasharray:none;stroke-opacity:1"
         d="m 3683.63,3254.62 v 61.2" /><path
         id="path40"
         style="fill:none;stroke:#000000;stroke-width:9.18000031;stroke-linecap:butt;stroke-linejoin:miter;stroke-miterlimit:10;stroke-dasharray:none;stroke-opacity:1"
         d="m 3683.63,5202 v -61.2" /><path
         id="path42"
         style="fill:none;stroke:#000000;stroke-width:9.18000031;stroke-linecap:butt;stroke-linejoin:miter;stroke-miterlimit:10;stroke-dasharray:none;stroke-opacity:1"
         d="m 1378.84,3254.62 v 122.4" /><path
         id="path44"
         style="fill:none;stroke:#000000;stroke-width:9.18000031;stroke-linecap:butt;stroke-linejoin:miter;stroke-miterlimit:10;stroke-dasharray:none;stroke-opacity:1"
         d="M 1378.84,5202 V 5079.6" /><path
         id="path46"
         style="fill:none;stroke:#000000;stroke-width:9.18000031;stroke-linecap:butt;stroke-linejoin:miter;stroke-miterlimit:10;stroke-dasharray:none;stroke-opacity:1"
         d="m 2300.51,3254.62 v 122.4" /><path
         id="path48"
         style="fill:none;stroke:#000000;stroke-width:9.18000031;stroke-linecap:butt;stroke-linejoin:miter;stroke-miterlimit:10;stroke-dasharray:none;stroke-opacity:1"
         d="M 2300.51,5202 V 5079.6" /><path
         id="path50"
         style="fill:none;stroke:#000000;stroke-width:9.18000031;stroke-linecap:butt;stroke-linejoin:miter;stroke-miterlimit:10;stroke-dasharray:none;stroke-opacity:1"
         d="m 3222.79,3254.62 v 122.4" /><path
         id="path52"
         style="fill:none;stroke:#000000;stroke-width:9.18000031;stroke-linecap:butt;stroke-linejoin:miter;stroke-miterlimit:10;stroke-dasharray:none;stroke-opacity:1"
         d="M 3222.79,5202 V 5079.6" /><g
         transform="scale(10)"
         id="g54"><text
           id="text60"
           style="font-variant:normal;font-weight:normal;font-size:17.13599968px;font-family:'Times New Roman';-inkscape-font-specification:Times-Roman;writing-mode:lr-tb;fill:#000000;fill-opacity:1;fill-rule:nonzero;stroke:none"
           transform="matrix(1,0,0,-1,122.4,526.565)"><tspan
             id="tspan56"
             y="0"
             x="0 5.7062879 14.274288 22.842287 103.61179 187.27197 195.83998 204.40797">-2000200</tspan><tspan
             id="tspan58"
             y="-24.480101"
             x="69.155899">p</tspan></text>
<text
           id="text64"
           style="font-variant:normal;font-weight:normal;font-size:12.11760044px;font-family:'Times New Roman';-inkscape-font-specification:Times-Roman;writing-mode:lr-tb;fill:#000000;fill-opacity:1;fill-rule:nonzero;stroke:none"
           transform="matrix(1,0,0,-1,200.1852,544.19041)"><tspan
             id="tspan62"
             y="0"
             x="0">x</tspan></text>
<text
           id="text68"
           style="font-variant:normal;font-weight:normal;font-size:17.13599968px;font-family:'Times New Roman';-inkscape-font-specification:Times-Roman;writing-mode:lr-tb;fill:#000000;fill-opacity:1;fill-rule:nonzero;stroke:none"
           transform="matrix(1,0,0,-1,210.46686,551.0451)"><tspan
             id="tspan66"
             y="0"
             x="0 5.7062879 20.940191 28.548576 40.920769 45.684574 53.292961">(MeV/c)</tspan></text>
</g><path
         id="path70"
         style="fill:none;stroke:#000000;stroke-width:9.18000031;stroke-linecap:butt;stroke-linejoin:miter;stroke-miterlimit:10;stroke-dasharray:none;stroke-opacity:1"
         d="M 918,3254.62 V 5202" /><path
         id="path72"
         style="fill:none;stroke:#000000;stroke-width:9.18000031;stroke-linecap:butt;stroke-linejoin:miter;stroke-miterlimit:10;stroke-dasharray:none;stroke-opacity:1"
         d="M 3683.63,3254.62 V 5202" /><path
         id="path74"
         style="fill:none;stroke:#000000;stroke-width:9.18000031;stroke-linecap:butt;stroke-linejoin:miter;stroke-miterlimit:10;stroke-dasharray:none;stroke-opacity:1"
         d="m 918,3578.98 h 61.199" /><path
         id="path76"
         style="fill:none;stroke:#000000;stroke-width:9.18000031;stroke-linecap:butt;stroke-linejoin:miter;stroke-miterlimit:10;stroke-dasharray:none;stroke-opacity:1"
         d="m 3683.63,3578.98 h -61.2" /><path
         id="path78"
         style="fill:none;stroke:#000000;stroke-width:9.18000031;stroke-linecap:butt;stroke-linejoin:miter;stroke-miterlimit:10;stroke-dasharray:none;stroke-opacity:1"
         d="m 918,4228.31 h 61.199" /><path
         id="path80"
         style="fill:none;stroke:#000000;stroke-width:9.18000031;stroke-linecap:butt;stroke-linejoin:miter;stroke-miterlimit:10;stroke-dasharray:none;stroke-opacity:1"
         d="m 3683.63,4228.31 h -61.2" /><path
         id="path82"
         style="fill:none;stroke:#000000;stroke-width:9.18000031;stroke-linecap:butt;stroke-linejoin:miter;stroke-miterlimit:10;stroke-dasharray:none;stroke-opacity:1"
         d="m 918,4877.64 h 61.199" /><path
         id="path84"
         style="fill:none;stroke:#000000;stroke-width:9.18000031;stroke-linecap:butt;stroke-linejoin:miter;stroke-miterlimit:10;stroke-dasharray:none;stroke-opacity:1"
         d="m 3683.63,4877.64 h -61.2" /><path
         id="path86"
         style="fill:none;stroke:#000000;stroke-width:9.18000031;stroke-linecap:butt;stroke-linejoin:miter;stroke-miterlimit:10;stroke-dasharray:none;stroke-opacity:1"
         d="m 918,3254.62 h 122.4" /><path
         id="path88"
         style="fill:none;stroke:#000000;stroke-width:9.18000031;stroke-linecap:butt;stroke-linejoin:miter;stroke-miterlimit:10;stroke-dasharray:none;stroke-opacity:1"
         d="m 3683.63,3254.62 h -122.4" /><path
         id="path90"
         style="fill:none;stroke:#000000;stroke-width:9.18000031;stroke-linecap:butt;stroke-linejoin:miter;stroke-miterlimit:10;stroke-dasharray:none;stroke-opacity:1"
         d="m 918,3903.95 h 122.4" /><path
         id="path92"
         style="fill:none;stroke:#000000;stroke-width:9.18000031;stroke-linecap:butt;stroke-linejoin:miter;stroke-miterlimit:10;stroke-dasharray:none;stroke-opacity:1"
         d="m 3683.63,3903.95 h -122.4" /><path
         id="path94"
         style="fill:none;stroke:#000000;stroke-width:9.18000031;stroke-linecap:butt;stroke-linejoin:miter;stroke-miterlimit:10;stroke-dasharray:none;stroke-opacity:1"
         d="m 918,4552.67 h 122.4" /><path
         id="path96"
         style="fill:none;stroke:#000000;stroke-width:9.18000031;stroke-linecap:butt;stroke-linejoin:miter;stroke-miterlimit:10;stroke-dasharray:none;stroke-opacity:1"
         d="m 3683.63,4552.67 h -122.4" /><g
         transform="scale(10)"
         id="g98"><text
           id="text106"
           style="font-variant:normal;font-weight:normal;font-size:17.13599968px;font-family:'Times New Roman';-inkscape-font-specification:Times-Roman;writing-mode:lr-tb;fill:#000000;fill-opacity:1;fill-rule:nonzero;stroke:none"
           transform="matrix(1,0,0,-1,77.5402,319.831)"><tspan
             id="tspan100"
             y="0"
             x="0">0</tspan><tspan
             id="tspan102"
             y="-65.851196"
             x="-20.685499 -12.1175 -7.8334999 0.73449999">0,05</tspan><tspan
             id="tspan104"
             y="-130.90669"
             x="-11.56675 -2.99875 1.2852499">0,1</tspan></text>
<text
           id="text110"
           style="font-variant:normal;font-weight:normal;font-size:17.13599968px;font-family:'Times New Roman';-inkscape-font-specification:Times-Roman;writing-mode:lr-tb;fill:#000000;fill-opacity:1;fill-rule:nonzero;stroke:none"
           transform="matrix(0,1,1,0,43.8805,349.146)"><tspan
             id="tspan108"
             y="0"
             x="0">d</tspan></text>
<text
           id="text114"
           style="font-variant:normal;font-weight:normal;font-size:17.13599968px;font-family:Symbol;-inkscape-font-specification:Symbol;writing-mode:lr-tb;fill:#000000;fill-opacity:1;fill-rule:nonzero;stroke:none"
           transform="matrix(0,1,1,0,43.8805,357.77491)"><tspan
             id="tspan112"
             y="0"
             x="0">σ</tspan></text>
<text
           id="text118"
           style="font-variant:normal;font-weight:normal;font-size:17.13599968px;font-family:'Times New Roman';-inkscape-font-specification:Times-Roman;writing-mode:lr-tb;fill:#000000;fill-opacity:1;fill-rule:nonzero;stroke:none"
           transform="matrix(0,1,1,0,43.8805,368.11791)"><tspan
             id="tspan116"
             y="0"
             x="0 4.7638078 13.331808">/dp</tspan></text>
<text
           id="text122"
           style="font-variant:normal;font-weight:normal;font-size:12.11760044px;font-family:'Times New Roman';-inkscape-font-specification:Times-Roman;writing-mode:lr-tb;fill:#000000;fill-opacity:1;fill-rule:nonzero;stroke:none"
           transform="matrix(0,1,1,0,50.7348,389.96631)"><tspan
             id="tspan120"
             y="0"
             x="0">x</tspan></text>
<text
           id="text126"
           style="font-variant:normal;font-weight:normal;font-size:17.13599968px;font-family:'Times New Roman';-inkscape-font-specification:Times-Roman;writing-mode:lr-tb;fill:#000000;fill-opacity:1;fill-rule:nonzero;stroke:none"
           transform="matrix(0,1,1,0,43.8805,400.24797)"><tspan
             id="tspan124"
             y="0"
             x="0 5.7062879 19.038095 27.606096 32.369904 38.076191 53.310097 60.91848 73.290672 78.054482 85.662865 91.369148">(mb/(MeV/c))</tspan></text>
</g><path
         id="path128"
         style="fill:none;stroke:#000000;stroke-width:9.18000031;stroke-linecap:butt;stroke-linejoin:miter;stroke-miterlimit:10;stroke-dasharray:none;stroke-opacity:1"
         d="M 918,3254.62 V 5202 H 3683.63 V 3254.62 Z" /><path
         id="path130"
         style="fill:none;stroke:#0000ff;stroke-width:18.36000061;stroke-linecap:butt;stroke-linejoin:miter;stroke-miterlimit:10;stroke-dasharray:none;stroke-opacity:1"
         d="m 4235.65,3273.59 h 2.45 l 18.97,1.22 18.97,1.23 18.98,1.22 18.36,1.22 18.97,1.23 18.97,1.22 18.97,1.84 18.36,1.22 18.98,1.84 18.97,1.83 18.97,1.84 18.36,2.45 18.97,1.84 18.97,2.44 18.97,2.45 18.98,2.45 18.36,3.06 18.97,3.06 18.97,3.06 18.97,3.67 18.36,3.06 18.98,4.28 18.96,3.68 18.98,4.89 18.36,4.29 18.97,5.5 18.97,4.9 18.97,6.12 18.36,6.12 18.98,6.73 18.97,6.74 18.97,7.95 18.97,7.96 18.36,9.18 18.97,9.17 18.98,10.41 18.97,10.4 18.36,11.63 18.97,12.24 18.97,13.47 18.98,13.46 18.97,15.3 18.36,15.91 18.97,16.52 18.97,17.75 18.97,18.98 18.36,20.19 18.97,21.42 18.98,22.65 18.97,23.86 18.36,25.1 18.97,26.31 18.97,27.54 18.97,28.15 18.37,29.38 18.96,29.99 18.98,30.6 18.97,31.21 18.97,31.21 18.36,31.82 18.97,31.83 18.98,31.21 18.97,31.83 18.36,31.82 18.97,31.82 18.97,31.83 18.97,31.21 18.37,29.99 18.97,29.37 18.97,27.54 18.97,25.71 18.36,23.25 18.97,20.81 18.98,18.36 18.97,15.3 18.97,12.24 18.36,10.41 18.97,8.56 18.97,7.96 18.97,6.73 18.36,6.73 18.98,6.74 18.97,7.34 18.97,7.34 18.36,8.57 18.97,8.57 18.98,7.96 18.96,7.34 18.98,5.51 18.36,2.45 18.97,-0.61 18.97,-3.68 18.97,-7.95 18.36,-11.02 18.98,-15.3 18.97,-18.97 18.97,-22.03 18.36,-25.71 18.97,-28.15 18.97,-31.21 18.98,-33.05 18.35,-35.5 18.98,-36.72 18.97,-38.55 18.97,-39.17 18.98,-41 18.35,-41.62 18.98,-41.62 18.97,-42.22 18.97,-41.01 18.36,-41 18.97,-39.78 18.97,-38.56 18.98,-37.33 18.36,-35.49 18.97,-34.28 18.97,-32.43 18.97,-31.22 18.36,-28.76 18.98,-26.93 18.97,-25.7 18.97,-23.87 18.97,-22.03 18.36,-20.81 18.97,-18.97 18.97,-17.75 18.98,-16.52 18.36,-14.69 18.97,-14.08 18.97,-12.24 18.97,-11.01 18.97,-10.41 18.36,-9.18 18.98,-7.95 18.97,-7.96 18.97,-7.34 18.36,-7.35 18.97,-7.34 18.98,-7.96 18.97,-8.56 18.36,-8.58 18.97,-8.56 18.97,-7.96 18.97,-7.34 18.36,-4.9 18.97,-1.83" /><path
         id="path132"
         style="fill:none;stroke:#ff0000;stroke-width:18.36000061;stroke-linecap:butt;stroke-linejoin:miter;stroke-miterlimit:10;stroke-dasharray:none;stroke-opacity:1"
         d="m 4235.65,3254.62 h 1.84 l 18.97,0.61 h 131.58 l 18.97,0.61 h 18.97 l 18.36,0.61 h 18.98 l 18.97,0.61 18.97,0.62 18.36,0.61 18.97,0.61 18.97,0.61 18.37,0.62 18.96,0.6 18.98,0.62 18.97,1.22 18.36,1.23 18.97,1.22 18.97,1.22 18.98,1.84 18.36,1.84 18.97,2.44 18.97,2.45 18.97,3.06 18.36,3.67 18.97,3.67 18.98,4.9 18.97,5.51 18.36,6.12 18.97,7.35 18.97,7.34 18.98,9.18 18.35,9.79 18.98,11.63 18.97,12.85 18.97,13.46 18.36,15.92 18.97,16.52 18.97,18.97 18.98,20.81 18.36,23.26 18.97,24.48 18.97,26.31 18.97,30.6 18.36,31.22 18.98,33.65 18.97,37.34 18.97,37.33 18.36,42.23 18.97,44.06 18.97,45.9 18.97,47.74 18.36,50.79 18.98,51.41 18.97,53.85 18.36,55.7 18.97,52.02 18.97,53.85 18.97,56.92 18.37,53.24 18.96,52.64 18.98,50.79 18.97,49.57 18.36,46.52 18.97,44.67 18.97,39.78 18.98,36.11 18.36,33.05 18.97,28.76 18.97,25.7 18.97,22.65 18.36,17.75 18.97,15.3 18.98,14.69 18.97,11.62 18.36,9.8 18.97,7.95 18.97,6.73 18.98,6.12 18.35,4.9 18.98,4.28 18.97,2.45 h 18.97 l 18.36,-1.83 18.97,-4.29 18.97,-8.56 18.98,-11.02 18.36,-13.46 18.97,-17.14 18.97,-23.26 18.97,-25.09 18.36,-29.37 18.98,-33.66 18.97,-36.11 18.36,-39.79 18.97,-42.22 18.97,-46.51 18.97,-45.29 18.36,-49.57 18.97,-51.41 18.98,-50.8 18.97,-53.24 18.36,-54.47 18.97,-50.18 18.97,-53.86 18.98,-51.41 18.36,-49.57 18.97,-48.35 18.97,-45.9 18.97,-42.84 18.36,-42.23 18.97,-41 18.97,-37.94 18.98,-37.33 18.36,-33.05 18.97,-31.22 18.97,-29.37 18.97,-27.54 18.36,-25.71 18.97,-23.86 18.98,-22.04 18.97,-20.8 18.36,-19.59 18.97,-17.75 18.97,-17.13 18.98,-15.91 18.35,-14.69 18.98,-13.47 18.97,-11.62 18.97,-10.41 18.36,-9.18 18.97,-8.57 18.97,-7.34 18.98,-7.34 18.36,-6.12 18.97,-6.74 18.97,-7.34 18.36,-8.57 18.97,-10.4 18.98,-14.69 18.97,-15.3" /><path
         id="path134"
         style="fill:none;stroke:#000000;stroke-width:18.36000061;stroke-linecap:butt;stroke-linejoin:miter;stroke-miterlimit:10;stroke-dasharray:none;stroke-opacity:1"
         d="m 4235.65,3255.23 h 152.39 l 18.97,0.61 h 56.31 l 18.97,0.61 h 18.97 l 18.36,0.61 18.97,0.62 h 18.97 l 18.37,0.61 18.96,0.61 18.98,0.61 18.97,0.62 18.36,0.6 18.97,0.62 18.97,0.61 18.98,1.22 18.36,1.23 18.97,1.22 18.97,1.23 18.97,1.83 18.36,1.84 18.97,1.83 18.98,2.45 18.97,3.06 18.36,3.06 18.97,3.68 18.97,4.28 18.98,4.9 18.35,4.89 18.98,6.12 18.97,7.34 18.97,7.96 18.36,9.18 18.97,9.18 18.97,11.63 18.98,12.24 18.36,14.07 18.97,14.69 18.97,16.53 18.97,18.97 18.36,20.2 18.98,21.41 18.97,24.48 18.97,25.1 18.36,28.76 18.97,30.6 18.97,31.82 18.97,34.27 18.36,37.34 18.98,37.33 18.97,40.39 18.36,42.84 18.97,39.78 18.97,42.84 18.97,45.9 18.37,44.68 18.96,45.9 18.98,45.29 18.97,45.9 18.36,42.84 18.97,41.61 18.97,37.33 18.98,34.28 18.36,31.21 18.97,27.54 18.97,24.48 18.97,20.81 18.36,17.13 18.97,15.3 18.98,13.47 18.97,11.01 18.36,8.57 18.97,6.73 18.97,4.9 18.98,3.06 18.35,1.83 18.98,1.23 18.97,-1.84 18.97,-3.06 18.36,-5.51 18.97,-6.73 18.97,-9.79 18.98,-11.63 18.36,-13.46 18.97,-15.3 18.97,-19.59 18.97,-20.8 18.36,-23.87 18.98,-25.71 18.97,-27.53 18.36,-29.99 18.97,-30.6 18.97,-33.66 18.97,-31.83 18.36,-34.27 18.97,-35.49 18.98,-34.28 18.97,-35.49 18.36,-36.11 18.97,-33.66 18.97,-36.11 18.98,-34.27 18.36,-33.66 18.97,-34.28 18.97,-31.82 18.97,-30.6 18.36,-30.6 18.97,-29.37 18.97,-27.54 18.98,-26.93 18.36,-25.09 18.97,-23.26 18.97,-23.25 18.97,-22.04 18.36,-20.8 18.97,-18.98 18.98,-18.36 18.97,-16.52 18.36,-15.91 18.97,-14.69 18.97,-13.47 18.98,-13.46 18.35,-12.24 18.98,-11.01 18.97,-10.41 18.97,-9.18 18.36,-7.96 18.97,-7.34 18.97,-6.73 18.98,-6.73 18.36,-5.51 18.97,-6.73 18.97,-6.74 18.36,-7.95 18.97,-10.4 18.98,-14.08 18.97,-14.69" /><path
         id="path136"
         style="fill:none;stroke:#000000;stroke-width:9.18000031;stroke-linecap:butt;stroke-linejoin:miter;stroke-miterlimit:10;stroke-dasharray:none;stroke-opacity:1"
         d="M 4236.27,3254.62 H 7001.89" /><path
         id="path138"
         style="fill:none;stroke:#000000;stroke-width:9.18000031;stroke-linecap:butt;stroke-linejoin:miter;stroke-miterlimit:10;stroke-dasharray:none;stroke-opacity:1"
         d="M 4236.27,5202 H 7001.89" /><path
         id="path140"
         style="fill:none;stroke:#000000;stroke-width:9.18000031;stroke-linecap:butt;stroke-linejoin:miter;stroke-miterlimit:10;stroke-dasharray:none;stroke-opacity:1"
         d="m 4739.33,3254.62 v 61.2" /><path
         id="path142"
         style="fill:none;stroke:#000000;stroke-width:9.18000031;stroke-linecap:butt;stroke-linejoin:miter;stroke-miterlimit:10;stroke-dasharray:none;stroke-opacity:1"
         d="m 4739.33,5202 v -61.2" /><path
         id="path144"
         style="fill:none;stroke:#000000;stroke-width:9.18000031;stroke-linecap:butt;stroke-linejoin:miter;stroke-miterlimit:10;stroke-dasharray:none;stroke-opacity:1"
         d="m 5744.84,3254.62 v 61.2" /><path
         id="path146"
         style="fill:none;stroke:#000000;stroke-width:9.18000031;stroke-linecap:butt;stroke-linejoin:miter;stroke-miterlimit:10;stroke-dasharray:none;stroke-opacity:1"
         d="m 5744.84,5202 v -61.2" /><path
         id="path148"
         style="fill:none;stroke:#000000;stroke-width:9.18000031;stroke-linecap:butt;stroke-linejoin:miter;stroke-miterlimit:10;stroke-dasharray:none;stroke-opacity:1"
         d="m 4236.27,3254.62 v 122.4" /><path
         id="path150"
         style="fill:none;stroke:#000000;stroke-width:9.18000031;stroke-linecap:butt;stroke-linejoin:miter;stroke-miterlimit:10;stroke-dasharray:none;stroke-opacity:1"
         d="M 4236.27,5202 V 5079.6" /><path
         id="path152"
         style="fill:none;stroke:#000000;stroke-width:9.18000031;stroke-linecap:butt;stroke-linejoin:miter;stroke-miterlimit:10;stroke-dasharray:none;stroke-opacity:1"
         d="m 5242.39,3254.62 v 122.4" /><path
         id="path154"
         style="fill:none;stroke:#000000;stroke-width:9.18000031;stroke-linecap:butt;stroke-linejoin:miter;stroke-miterlimit:10;stroke-dasharray:none;stroke-opacity:1"
         d="M 5242.39,5202 V 5079.6" /><g
         transform="scale(10)"
         id="g156"><text
           id="text162"
           style="font-variant:normal;font-weight:normal;font-size:17.13599968px;font-family:'Times New Roman';-inkscape-font-specification:Times-Roman;writing-mode:lr-tb;fill:#000000;fill-opacity:1;fill-rule:nonzero;stroke:none"
           transform="matrix(1,0,0,-1,411.08,526.565)"><tspan
             id="tspan158"
             y="0"
             x="0 8.5679998 17.136 100.55148 109.11948 117.68748">200400</tspan><tspan
             id="tspan160"
             y="-24.7246"
             x="112.669">p</tspan></text>
<text
           id="text166"
           style="font-variant:normal;font-weight:normal;font-size:12.11760044px;font-family:'Times New Roman';-inkscape-font-specification:Times-Roman;writing-mode:lr-tb;fill:#000000;fill-opacity:1;fill-rule:nonzero;stroke:none"
           transform="matrix(1,0,0,-1,532.3783,544.4353)"><tspan
             id="tspan164"
             y="0"
             x="0">z</tspan></text>
<text
           id="text170"
           style="font-variant:normal;font-weight:normal;font-size:17.13599968px;font-family:'Times New Roman';-inkscape-font-specification:Times-Roman;writing-mode:lr-tb;fill:#000000;fill-opacity:1;fill-rule:nonzero;stroke:none"
           transform="matrix(1,0,0,-1,541.98652,551.2896)"><tspan
             id="tspan168"
             y="0"
             x="0 5.7062879 20.940191 28.548576 40.920769 45.684574 53.292961">(MeV/c)</tspan></text>
</g><path
         id="path172"
         style="fill:none;stroke:#000000;stroke-width:9.18000031;stroke-linecap:butt;stroke-linejoin:miter;stroke-miterlimit:10;stroke-dasharray:none;stroke-opacity:1"
         d="M 4236.27,3254.62 V 5202" /><path
         id="path174"
         style="fill:none;stroke:#000000;stroke-width:9.18000031;stroke-linecap:butt;stroke-linejoin:miter;stroke-miterlimit:10;stroke-dasharray:none;stroke-opacity:1"
         d="m 4236.27,3578.98 h 61.19" /><path
         id="path176"
         style="fill:none;stroke:#000000;stroke-width:9.18000031;stroke-linecap:butt;stroke-linejoin:miter;stroke-miterlimit:10;stroke-dasharray:none;stroke-opacity:1"
         d="m 4236.27,4228.31 h 61.19" /><path
         id="path178"
         style="fill:none;stroke:#000000;stroke-width:9.18000031;stroke-linecap:butt;stroke-linejoin:miter;stroke-miterlimit:10;stroke-dasharray:none;stroke-opacity:1"
         d="m 4236.27,4877.64 h 61.19" /><path
         id="path180"
         style="fill:none;stroke:#000000;stroke-width:9.18000031;stroke-linecap:butt;stroke-linejoin:miter;stroke-miterlimit:10;stroke-dasharray:none;stroke-opacity:1"
         d="m 4236.27,3254.62 h 122.39" /><path
         id="path182"
         style="fill:none;stroke:#000000;stroke-width:9.18000031;stroke-linecap:butt;stroke-linejoin:miter;stroke-miterlimit:10;stroke-dasharray:none;stroke-opacity:1"
         d="m 4236.27,3903.95 h 122.39" /><path
         id="path184"
         style="fill:none;stroke:#000000;stroke-width:9.18000031;stroke-linecap:butt;stroke-linejoin:miter;stroke-miterlimit:10;stroke-dasharray:none;stroke-opacity:1"
         d="m 4236.27,4552.67 h 122.39" /><path
         id="path186"
         style="fill:none;stroke:#000000;stroke-width:9.18000031;stroke-linecap:butt;stroke-linejoin:miter;stroke-miterlimit:10;stroke-dasharray:none;stroke-opacity:1"
         d="M 4236.27,3254.62 V 5202 H 7001.89 V 3254.62 Z" /><path
         id="path188"
         style="fill:none;stroke:#0000ff;stroke-width:18.36000061;stroke-linecap:butt;stroke-linejoin:miter;stroke-miterlimit:10;stroke-dasharray:none;stroke-opacity:1"
         d="m 918,918 184.21,11.016 184.22,28.765 184.82,80.779 184.21,206.86 184.21,346.39 36.72,68.55 37.33,69.15 36.73,63.65 36.71,57.53 36.72,47.74 37.33,36.1 36.73,23.26 36.72,15.91 36.72,12.24 37.33,12.24 36.72,14.08 36.72,14.69 36.72,12.85 37.33,4.89 36.72,-6.12 36.72,-17.13 36.72,-28.77 37.33,-38.55 36.72,-47.13 36.72,-52.63 36.72,-56.91 37.33,-59.98 36.72,-61.81 36.73,-63.04 36.71,-62.42 184.83,-268.06 184.21,-173.19 184.21,-97.31 L 3498.8,963.289 3657.93,918" /><path
         id="path190"
         style="fill:none;stroke:#ff0000;stroke-width:18.36000061;stroke-linecap:butt;stroke-linejoin:miter;stroke-miterlimit:10;stroke-dasharray:none;stroke-opacity:1"
         d="m 1207.48,918 h 29.98 l 4.9,3.059 h 4.9 l 4.89,0.613 h 4.9 l 4.9,0.613 h 4.89 l 4.89,0.61 h 5.51 l 4.9,0.613 h 4.9 l 4.89,0.613 4.9,0.609 h 4.89 l 4.9,0.614 4.9,0.613 h 5.5 l 4.9,0.609 4.9,0.614 4.89,1.222 4.9,0.614 4.89,0.613 4.9,0.609 4.9,0.614 5.5,1.222 4.9,0.614 4.9,1.222 4.89,0.613 4.9,1.223 4.9,1.227 4.89,1.222 4.89,1.227 5.52,1.223 4.89,1.222 4.9,1.836 4.89,1.227 4.9,1.836 4.89,1.836 4.9,1.836 4.9,1.835 5.5,1.836 4.9,2.446 4.9,2.449 4.89,2.449 4.9,2.445 4.89,2.45 4.9,3.058 4.9,2.449 5.5,3.063 4.9,3.059 4.9,3.671 4.89,3.059 4.9,3.672 4.9,3.672 4.89,4.285 4.9,4.284 5.51,4.28 4.89,4.29 4.89,4.9 4.9,4.89 4.9,4.9 4.89,4.89 4.9,5.51 4.9,5.51 5.5,5.51 4.9,6.12 4.9,6.12 4.89,6.12 4.9,6.73 4.89,6.73 4.9,6.73 4.9,7.35 5.5,7.34 4.9,7.96 4.9,7.34 4.89,8.57 4.9,7.95 4.89,8.57 4.9,8.57 4.9,8.57 5.51,9.18 4.89,9.18 4.89,9.18 4.9,9.79 4.9,10.4 4.89,9.8 4.9,11.01 4.9,10.41 5.5,11.01 4.9,11.02 4.9,11.63 4.89,11.62 4.9,11.63 4.89,12.24 4.9,11.63 4.9,12.24 5.5,12.85 4.9,12.24 4.9,13.47 4.89,12.85 4.9,13.46 4.89,13.47 4.9,13.46 4.9,14.08 5.51,14.07 4.89,14.08 4.89,14.69 4.9,14.07 4.9,14.69 4.9,14.69 4.89,14.68 4.9,15.31 5.5,14.68 4.9,15.3 4.9,15.3 4.89,15.31 4.9,15.3 4.89,14.68 4.9,15.3 4.9,15.3 5.5,15.3 4.9,15.3 4.9,15.3 4.89,15.3 4.9,15.3 4.89,15.3 4.9,15.3 4.9,15.3 5.51,15.3 4.89,14.69 4.89,14.69 4.9,14.69 4.9,14.68 4.9,14.08 4.89,14.08 4.89,14.07 5.51,13.47 4.9,13.46 4.9,13.47 4.89,12.85 4.9,13.46 4.89,13.46 4.9,12.85 4.9,12.86 5.5,12.24 4.9,11.63 4.9,11.63 4.89,11.62 4.9,11.02 4.89,11.02 4.9,10.4 4.9,10.4 5.51,9.79 4.89,9.8 4.89,9.18 4.9,9.18 4.9,9.18 4.9,8.57 4.89,8.56 4.89,7.96 5.51,7.95 4.9,7.35 4.9,7.34 4.89,7.35 4.9,6.73 4.89,6.12 4.9,6.73 4.9,6.12 5.5,5.51 4.9,5.51 4.9,5.5 4.89,4.9 4.9,4.9 4.89,4.28 4.9,4.9 4.9,4.28 5.51,4.28 4.89,3.68 4.9,4.28 4.89,3.67 4.9,3.67 4.9,3.68 4.89,3.67 4.89,3.67 5.51,3.06 4.9,3.06 4.9,3.06 4.89,2.45 4.9,2.45 4.89,2.44 4.9,3.07 4.9,1.83 5.5,2.45 4.9,2.45 4.9,2.45 4.89,1.83 4.9,2.45 4.89,1.83 4.9,1.84 4.9,1.83 5.5,1.84 4.9,1.84 4.9,1.84 4.89,1.83 4.9,1.22 4.9,1.23 4.89,1.22 4.89,1.23 5.51,0.61 4.9,0.61 4.9,0.61 4.89,0.62 h 4.9 4.89 4.9 4.9 l 5.5,-0.62 4.9,-0.61 4.9,-0.61 4.89,-0.61 4.9,-1.23 4.89,-1.22 4.9,-1.23 4.9,-1.83 5.5,-1.84 4.9,-2.45 4.9,-2.45 4.89,-2.44 4.9,-3.06 4.9,-3.06 4.89,-3.06 4.9,-3.67 5.51,-3.67 4.89,-3.68 4.9,-3.67 4.89,-4.28 4.9,-4.9 4.89,-4.28 4.9,-5.51 4.9,-4.9 5.5,-5.51 4.9,-5.5 4.9,-6.12 4.89,-6.12 4.9,-6.74 4.89,-6.11 4.9,-6.74 4.9,-7.34 5.5,-7.35 4.9,-7.34 4.9,-7.34 4.89,-7.96 4.9,-7.95 4.9,-7.96 4.89,-8.57 4.9,-7.95 5.51,-8.57 4.89,-9.18 4.89,-8.57 4.9,-9.18 4.9,-9.18 4.89,-9.18 4.9,-9.18 4.9,-9.79 5.5,-9.8 4.9,-9.79 4.9,-9.79 4.89,-9.79 4.9,-9.79 4.89,-10.41 4.9,-10.4 4.9,-9.8 5.5,-10.4 4.9,-10.4 4.9,-10.41 4.89,-10.4 4.9,-10.4 4.89,-10.41 4.9,-10.4 4.9,-10.41 5.51,-11.01 4.89,-10.41 4.89,-10.4 4.9,-11.02 4.9,-10.4 4.89,-10.4 4.9,-11.02 4.9,-10.4 5.5,-11.02 4.9,-10.4 4.9,-11.02 4.89,-10.41 4.9,-11.01 4.89,-10.4 4.9,-11.02 4.9,-10.41 5.5,-11.01 4.9,-10.4 4.9,-11.02 4.89,-10.41 4.9,-10.4 4.89,-10.4 4.9,-10.41 4.9,-10.4 5.51,-10.41 4.89,-10.4 4.89,-9.79 4.9,-10.4 4.9,-9.8 4.9,-10.4 4.89,-9.79 4.9,-10.41 5.5,-9.79 4.9,-9.79 4.9,-9.79 4.89,-9.18 4.9,-9.79 4.89,-9.18 4.9,-9.18 4.9,-9.8 5.5,-8.56 4.9,-9.18 4.9,-9.18 4.89,-8.57 4.9,-8.57 4.89,-8.57 4.9,-8.57 4.9,-8.56 5.51,-7.96 4.89,-8.57 4.89,-7.95 4.9,-7.96 4.9,-7.96 4.9,-7.95 4.89,-7.96 4.89,-7.34 5.51,-7.96 4.9,-7.34 4.9,-7.35 4.89,-7.95 4.9,-7.35 4.89,-6.73 4.9,-7.34 4.9,-7.34 5.5,-6.74 4.9,-7.34 4.9,-6.73 4.89,-6.74 4.9,-6.73 4.89,-6.12 4.9,-6.73 4.9,-6.12 5.51,-6.12 4.89,-6.12 4.89,-6.12 4.9,-6.12 4.9,-6.12 4.9,-5.51 4.89,-6.12 4.89,-5.51 5.51,-5.5 4.9,-5.51 4.9,-4.9 4.89,-5.51 4.9,-4.89 4.89,-5.51 4.9,-4.9 4.9,-4.89 5.5,-4.9 4.9,-4.9 4.9,-4.28 4.89,-4.89 4.9,-4.29 4.89,-4.89 4.9,-4.29 4.9,-4.28 5.51,-4.29 4.89,-3.67 4.9,-4.28 4.89,-4.28 4.9,-3.68 4.9,-4.28 4.89,-3.67 4.89,-3.68 5.51,-3.67 4.9,-3.67 4.9,-3.67 4.89,-3.67 4.9,-3.07 4.89,-3.67 4.9,-3.06 4.9,-3.05 5.5,-3.68 4.9,-3.06 4.9,-3.06 4.89,-3.06 4.9,-3.06 4.89,-3.06 4.9,-3.06 4.9,-3.06 5.5,-3.06 4.9,-2.45 4.9,-3.05 4.89,-3.07 4.9,-2.44 4.9,-3.06 4.89,-2.45 4.89,-3.06 5.51,-2.45 4.9,-2.45 4.9,-2.45 4.89,-3.05 4.9,-2.45 4.89,-2.45 4.9,-1.84 4.9,-2.44 5.5,-2.45 4.9,-2.45 4.9,-4.28 4.89,-1.84 4.9,-2.45 4.89,-1.84 4.9,-1.83 4.9,-1.84 5.5,-2.45 4.9,-1.83 4.9,-1.84 4.89,-1.22 4.9,-1.84 4.9,-1.83 4.89,-1.84 4.89,-1.835 5.52,-1.226 4.89,-1.836 4.9,-1.223 4.89,-1.223 4.9,-1.836 4.89,-1.226 4.9,-1.223 4.9,-1.836 5.5,-1.222 4.9,-1.227 4.9,-1.223 4.89,-1.222 4.9,-1.227 4.89,-0.609 4.9,-1.227 4.9,-1.222 5.5,-1.223 4.9,-0.613 4.9,-1.223 4.89,-0.613 4.9,-1.227 4.9,-0.609 4.89,-1.227 4.9,-0.609 5.51,-1.227 4.89,-0.609 4.89,-0.613 4.9,-1.223 4.9,-0.613 4.89,-0.614 4.9,-0.609 4.9,-1.227 5.5,-0.609 4.9,-0.613 4.9,-0.613 4.89,-0.61 h 4.9 l 4.89,-0.613 4.9,-0.613 4.9,-0.61 5.5,-0.613 h 4.9 l 4.9,-0.613 4.89,-0.61 4.9,-0.613 4.89,-0.613 4.9,-0.61 4.9,-0.613 5.51,-0.613 4.89,-1.223 4.89,-1.223 4.9,-1.226 4.9,-3.672 4.89,-1.223 4.9,-8.566 4.9,-19.586 h 5.5 4.9 4.9 4.89 4.9 0.61" /><path
         id="path192"
         style="fill:none;stroke:#000000;stroke-width:18.36000061;stroke-linecap:butt;stroke-linejoin:miter;stroke-miterlimit:10;stroke-dasharray:none;stroke-opacity:1"
         d="m 1207.48,918 h 29.98 l 4.9,1.836 h 14.69 l 4.9,0.613 h 4.89 4.89 5.51 l 4.9,0.61 h 4.9 4.89 4.9 l 4.89,0.613 h 4.9 l 4.9,0.613 h 5.5 4.9 l 4.9,0.61 4.89,0.613 h 4.9 l 4.89,0.613 h 4.9 l 4.9,0.609 5.5,0.614 h 4.9 l 4.9,0.613 4.89,0.609 4.9,0.614 h 4.9 l 4.89,0.613 4.89,0.609 5.52,0.614 4.89,1.222 4.9,0.614 4.89,0.613 4.9,0.609 4.89,1.227 4.9,0.609 4.9,1.227 5.5,0.609 4.9,1.227 4.9,1.222 4.89,1.227 4.9,1.223 4.89,1.222 4.9,1.227 4.9,1.222 5.5,1.836 4.9,1.223 4.9,1.836 4.89,1.836 4.9,1.836 4.9,1.836 4.89,1.836 4.9,1.836 5.51,2.449 4.89,2.449 4.89,2.445 4.9,2.45 4.9,2.449 4.89,3.058 4.9,2.45 4.9,3.058 5.5,3.063 4.9,3.672 4.9,3.058 4.89,3.672 4.9,3.672 4.89,3.674 4.9,3.67 4.9,4.28 5.5,4.29 4.9,4.28 4.9,4.29 4.89,4.89 4.9,4.29 4.89,5.5 4.9,4.9 4.9,4.9 5.51,4.89 4.89,5.51 4.89,5.51 4.9,6.12 4.9,6.12 4.89,6.12 4.9,6.73 4.9,6.12 5.5,7.35 4.9,6.73 4.9,7.34 4.89,7.34 4.9,7.96 4.89,7.96 4.9,7.34 4.9,7.95 5.5,8.57 4.9,8.57 4.9,8.57 4.89,8.57 4.9,9.18 4.89,9.79 4.9,9.18 4.9,9.79 5.51,10.41 4.89,9.79 4.89,10.4 4.9,10.41 4.9,11.01 4.9,10.41 4.89,11.01 4.9,11.63 5.5,11.02 4.9,11.01 4.9,11.63 4.89,11.63 4.9,11.63 4.89,11.62 4.9,12.24 4.9,11.63 5.5,12.24 4.9,12.24 4.9,11.63 4.89,12.24 4.9,12.24 4.89,12.24 4.9,11.63 4.9,12.24 5.51,12.24 4.89,12.24 4.89,12.24 4.9,12.24 4.9,12.24 4.9,12.24 4.89,12.24 4.89,12.24 5.51,12.24 4.9,12.24 4.9,12.24 4.89,11.62 4.9,12.86 4.89,12.24 4.9,12.85 4.9,11.63 5.5,11.63 4.9,11.62 4.9,11.63 4.89,10.41 4.9,11.01 4.89,10.41 4.9,10.4 4.9,9.79 5.51,9.18 4.89,9.79 4.89,9.18 4.9,8.57 4.9,9.18 4.9,8.57 4.89,7.96 4.89,7.95 5.51,7.96 4.9,7.34 4.9,7.34 4.89,6.74 4.9,6.73 4.89,6.12 4.9,6.12 4.9,6.12 5.5,5.51 4.9,5.5 4.9,4.9 4.89,4.9 4.9,4.28 4.89,4.29 4.9,4.28 4.9,4.28 5.51,3.68 4.89,3.67 4.9,3.67 4.89,3.67 4.9,3.67 4.9,3.07 4.89,3.05 4.89,3.06 5.51,2.45 4.9,3.06 4.9,2.45 4.89,2.45 4.9,1.84 4.89,2.44 4.9,1.84 4.9,1.83 5.5,1.84 4.9,1.83 4.9,1.84 4.89,1.23 4.9,1.22 4.89,1.22 4.9,1.23 4.9,1.22 5.5,1.22 4.9,0.62 4.9,1.22 4.89,0.61 4.9,0.62 4.9,0.61 h 4.89 l 4.89,0.61 h 5.51 4.9 l 4.9,-0.61 h 4.89 l 4.9,-0.61 4.89,-0.62 4.9,-1.22 4.9,-0.61 5.5,-1.23 4.9,-1.22 4.9,-1.22 4.89,-1.23 4.9,-1.83 4.89,-1.23 4.9,-1.84 4.9,-2.44 5.5,-1.84 4.9,-2.45 4.9,-2.45 4.89,-3.05 4.9,-2.45 4.9,-3.06 4.89,-3.06 4.9,-3.06 5.51,-3.67 4.89,-3.06 4.9,-3.67 4.89,-3.68 4.9,-3.67 4.89,-4.28 4.9,-4.29 4.9,-4.28 5.5,-4.29 4.9,-4.89 4.9,-4.29 4.89,-4.89 4.9,-5.51 4.89,-4.9 4.9,-5.5 4.9,-5.51 5.5,-5.51 4.9,-5.51 4.9,-6.12 4.89,-5.51 4.9,-6.12 4.9,-6.11 4.89,-6.13 4.9,-6.73 5.51,-6.12 4.89,-6.73 4.89,-6.12 4.9,-6.73 4.9,-6.73 4.89,-6.74 4.9,-6.73 4.9,-7.34 5.5,-6.73 4.9,-7.35 4.9,-7.34 4.89,-7.35 4.9,-7.34 4.89,-6.73 4.9,-7.35 4.9,-7.34 5.5,-7.34 4.9,-7.35 4.9,-7.34 4.89,-7.34 4.9,-7.35 4.89,-7.35 4.9,-7.34 4.9,-7.34 5.51,-7.96 4.89,-7.34 4.89,-7.35 4.9,-7.34 4.9,-7.35 4.89,-7.34 4.9,-7.34 4.9,-7.35 5.5,-7.34 4.9,-7.34 4.9,-7.35 4.89,-7.34 4.9,-7.35 4.89,-7.34 4.9,-7.34 4.9,-7.35 5.5,-6.73 4.9,-7.34 4.9,-7.35 4.89,-6.73 4.9,-7.34 4.89,-7.35 4.9,-6.73 4.9,-7.34 5.51,-6.73 4.89,-6.74 4.89,-6.73 4.9,-7.34 4.9,-6.73 4.9,-6.74 4.89,-6.73 4.9,-6.73 5.5,-6.73 4.9,-6.12 4.9,-6.74 4.89,-6.73 4.9,-6.12 4.89,-6.73 4.9,-6.12 4.9,-6.73 5.5,-6.12 4.9,-6.12 4.9,-6.12 4.89,-6.12 4.9,-6.12 4.89,-6.12 4.9,-6.12 4.9,-6.12 5.51,-6.12 4.89,-6.12 4.89,-5.51 4.9,-6.12 4.9,-5.51 4.9,-5.51 4.89,-5.5 4.89,-5.51 5.51,-5.51 4.9,-5.51 4.9,-5.51 4.89,-5.5 4.9,-4.9 4.89,-5.51 4.9,-4.89 4.9,-5.51 5.5,-4.9 4.9,-4.89 4.9,-4.9 4.89,-4.89 4.9,-4.9 4.89,-4.9 4.9,-4.9 4.9,-4.28 5.51,-4.9 4.89,-4.28 4.89,-4.89 4.9,-4.29 4.9,-4.28 4.9,-4.29 4.89,-4.28 4.89,-4.28 5.51,-4.29 4.9,-4.28 4.9,-4.28 4.89,-3.68 4.9,-4.28 4.89,-3.67 4.9,-4.29 4.9,-3.67 5.5,-3.67 4.9,-4.29 4.9,-3.67 4.89,-3.67 4.9,-3.67 4.89,-3.67 4.9,-3.68 4.9,-3.67 5.51,-3.06 4.89,-3.67 4.9,-3.06 4.89,-3.67 4.9,-3.06 4.9,-3.06 4.89,-3.06 4.89,-3.06 5.51,-3.06 4.9,-3.06 4.9,-3.06 4.89,-3.06 4.9,-2.45 4.89,-3.06 4.9,-2.45 4.9,-2.45 5.5,-3.05 4.9,-2.45 4.9,-2.45 4.89,-2.45 4.9,-2.45 4.89,-2.45 4.9,-2.44 4.9,-2.45 5.5,-2.45 4.9,-2.45 4.9,-2.45 4.89,-2.44 4.9,-2.45 4.9,-1.84 4.89,-2.44 4.89,-1.84 5.51,-2.45 4.9,-1.84 4.9,-2.45 4.89,-1.83 4.9,-2.45 4.89,-1.83 4.9,-1.84 4.9,-1.83 5.5,-2.45 4.9,-1.84 4.9,-3.67 4.89,-1.84 4.9,-1.83 4.89,-1.84 4.9,-1.23 4.9,-1.83 5.5,-1.84 4.9,-1.83 4.9,-1.23 4.89,-1.83 4.9,-1.225 4.9,-1.836 4.89,-1.226 4.89,-1.223 5.52,-1.836 4.89,-1.223 4.9,-1.226 4.89,-1.223 4.9,-1.222 4.89,-1.227 4.9,-1.223 4.9,-1.222 5.5,-1.227 4.9,-1.223 4.9,-0.613 4.89,-1.222 4.9,-1.223 4.89,-0.613 4.9,-1.223 4.9,-1.227 5.5,-0.609 4.9,-1.227 4.9,-0.613 4.89,-0.609 4.9,-1.227 4.9,-0.609 4.89,-1.227 4.9,-0.609 5.51,-0.613 4.89,-0.614 4.89,-1.222 4.9,-0.614 4.9,-0.609 4.89,-0.613 4.9,-0.614 4.9,-0.609 5.5,-0.613 4.9,-0.613 4.9,-0.61 4.89,-0.613 4.9,-0.613 h 4.89 l 4.9,-0.61 4.9,-0.613 5.5,-0.613 h 4.9 l 4.9,-0.61 4.89,-0.613 4.9,-0.613 h 4.89 l 4.9,-0.61 4.9,-0.613 5.51,-1.223 4.89,-1.226 4.89,-0.61 4.9,-1.835 4.9,-3.063 4.89,-1.836 4.9,-7.953 4.9,-19.586 h 5.5 4.9 4.9 4.89 4.9 0.61" /><path
         id="path194"
         style="fill:none;stroke:#000000;stroke-width:9.18000031;stroke-linecap:butt;stroke-linejoin:miter;stroke-miterlimit:10;stroke-dasharray:none;stroke-opacity:1"
         d="M 918,918 H 3683.63" /><path
         id="path196"
         style="fill:none;stroke:#000000;stroke-width:9.18000031;stroke-linecap:butt;stroke-linejoin:miter;stroke-miterlimit:10;stroke-dasharray:none;stroke-opacity:1"
         d="M 918,2865.38 H 3683.63" /><path
         id="path198"
         style="fill:none;stroke:#000000;stroke-width:9.18000031;stroke-linecap:butt;stroke-linejoin:miter;stroke-miterlimit:10;stroke-dasharray:none;stroke-opacity:1"
         d="m 1378.84,918 v 61.199" /><path
         id="path200"
         style="fill:none;stroke:#000000;stroke-width:9.18000031;stroke-linecap:butt;stroke-linejoin:miter;stroke-miterlimit:10;stroke-dasharray:none;stroke-opacity:1"
         d="m 1378.84,2865.38 v -61.2" /><path
         id="path202"
         style="fill:none;stroke:#000000;stroke-width:9.18000031;stroke-linecap:butt;stroke-linejoin:miter;stroke-miterlimit:10;stroke-dasharray:none;stroke-opacity:1"
         d="m 2300.51,918 v 61.199" /><path
         id="path204"
         style="fill:none;stroke:#000000;stroke-width:9.18000031;stroke-linecap:butt;stroke-linejoin:miter;stroke-miterlimit:10;stroke-dasharray:none;stroke-opacity:1"
         d="m 2300.51,2865.38 v -61.2" /><path
         id="path206"
         style="fill:none;stroke:#000000;stroke-width:9.18000031;stroke-linecap:butt;stroke-linejoin:miter;stroke-miterlimit:10;stroke-dasharray:none;stroke-opacity:1"
         d="m 3222.79,918 v 61.199" /><path
         id="path208"
         style="fill:none;stroke:#000000;stroke-width:9.18000031;stroke-linecap:butt;stroke-linejoin:miter;stroke-miterlimit:10;stroke-dasharray:none;stroke-opacity:1"
         d="m 3222.79,2865.38 v -61.2" /><path
         id="path210"
         style="fill:none;stroke:#000000;stroke-width:9.18000031;stroke-linecap:butt;stroke-linejoin:miter;stroke-miterlimit:10;stroke-dasharray:none;stroke-opacity:1"
         d="m 918,918 v 122.4" /><path
         id="path212"
         style="fill:none;stroke:#000000;stroke-width:9.18000031;stroke-linecap:butt;stroke-linejoin:miter;stroke-miterlimit:10;stroke-dasharray:none;stroke-opacity:1"
         d="m 918,2865.38 v -122.4" /><path
         id="path214"
         style="fill:none;stroke:#000000;stroke-width:9.18000031;stroke-linecap:butt;stroke-linejoin:miter;stroke-miterlimit:10;stroke-dasharray:none;stroke-opacity:1"
         d="m 1839.67,918 v 122.4" /><path
         id="path216"
         style="fill:none;stroke:#000000;stroke-width:9.18000031;stroke-linecap:butt;stroke-linejoin:miter;stroke-miterlimit:10;stroke-dasharray:none;stroke-opacity:1"
         d="m 1839.67,2865.38 v -122.4" /><path
         id="path218"
         style="fill:none;stroke:#000000;stroke-width:9.18000031;stroke-linecap:butt;stroke-linejoin:miter;stroke-miterlimit:10;stroke-dasharray:none;stroke-opacity:1"
         d="m 2761.34,918 v 122.4" /><path
         id="path220"
         style="fill:none;stroke:#000000;stroke-width:9.18000031;stroke-linecap:butt;stroke-linejoin:miter;stroke-miterlimit:10;stroke-dasharray:none;stroke-opacity:1"
         d="m 2761.34,2865.38 v -122.4" /><path
         id="path222"
         style="fill:none;stroke:#000000;stroke-width:9.18000031;stroke-linecap:butt;stroke-linejoin:miter;stroke-miterlimit:10;stroke-dasharray:none;stroke-opacity:1"
         d="m 3683.63,918 v 122.4" /><path
         id="path224"
         style="fill:none;stroke:#000000;stroke-width:9.18000031;stroke-linecap:butt;stroke-linejoin:miter;stroke-miterlimit:10;stroke-dasharray:none;stroke-opacity:1"
         d="m 3683.63,2865.38 v -122.4" /><g
         transform="scale(10)"
         id="g226"><text
           id="text232"
           style="font-variant:normal;font-weight:normal;font-size:17.13599968px;font-family:'Times New Roman';-inkscape-font-specification:Times-Roman;writing-mode:lr-tb;fill:#000000;fill-opacity:1;fill-rule:nonzero;stroke:none"
           transform="matrix(1,0,0,-1,87.6996,74.1742)"><tspan
             id="tspan228"
             y="0"
             x="0 87.883179 96.451172 180.05035 188.61835 272.21753 280.78552">0102030</tspan><tspan
             id="tspan230"
             y="17.8703"
             x="89.107002">E</tspan></text>
<text
           id="text236"
           style="font-variant:normal;font-weight:normal;font-size:8.56799984px;font-family:'Times New Roman';-inkscape-font-specification:Times-Roman;writing-mode:lr-tb;fill:#000000;fill-opacity:1;fill-rule:nonzero;stroke:none"
           transform="matrix(1,0,0,-1,187.3332,56.671088)"><tspan
             id="tspan234"
             y="0"
             x="0 4.2839999">10</tspan></text>
<text
           id="text240"
           style="font-variant:normal;font-weight:normal;font-size:12.11760044px;font-family:'Times New Roman';-inkscape-font-specification:Times-Roman;writing-mode:lr-tb;fill:#000000;fill-opacity:1;fill-rule:nonzero;stroke:none"
           transform="matrix(1,0,0,-1,195.9625,49.449608)"><tspan
             id="tspan238"
             y="0"
             x="0 8.0824394 13.462653 16.492054 21.872269 24.901669 34.329163">Be c.m.</tspan></text>
<text
           id="text244"
           style="font-variant:normal;font-weight:normal;font-size:17.13599968px;font-family:'Times New Roman';-inkscape-font-specification:Times-Roman;writing-mode:lr-tb;fill:#000000;fill-opacity:1;fill-rule:nonzero;stroke:none"
           transform="matrix(1,0,0,-1,237.7008,56.303908)"><tspan
             id="tspan242"
             y="0"
             x="0 5.7062879 20.940191 28.548576 40.920769">(MeV)</tspan></text>
</g><path
         id="path246"
         style="fill:none;stroke:#000000;stroke-width:9.18000031;stroke-linecap:butt;stroke-linejoin:miter;stroke-miterlimit:10;stroke-dasharray:none;stroke-opacity:1"
         d="M 918,918 V 2865.38" /><path
         id="path248"
         style="fill:none;stroke:#000000;stroke-width:9.18000031;stroke-linecap:butt;stroke-linejoin:miter;stroke-miterlimit:10;stroke-dasharray:none;stroke-opacity:1"
         d="M 3683.63,918 V 2865.38" /><path
         id="path250"
         style="fill:none;stroke:#000000;stroke-width:9.18000031;stroke-linecap:butt;stroke-linejoin:miter;stroke-miterlimit:10;stroke-dasharray:none;stroke-opacity:1"
         d="m 918,1080.18 h 61.199" /><path
         id="path252"
         style="fill:none;stroke:#000000;stroke-width:9.18000031;stroke-linecap:butt;stroke-linejoin:miter;stroke-miterlimit:10;stroke-dasharray:none;stroke-opacity:1"
         d="m 3683.63,1080.18 h -61.2" /><path
         id="path254"
         style="fill:none;stroke:#000000;stroke-width:9.18000031;stroke-linecap:butt;stroke-linejoin:miter;stroke-miterlimit:10;stroke-dasharray:none;stroke-opacity:1"
         d="m 918,1404.54 h 61.199" /><path
         id="path256"
         style="fill:none;stroke:#000000;stroke-width:9.18000031;stroke-linecap:butt;stroke-linejoin:miter;stroke-miterlimit:10;stroke-dasharray:none;stroke-opacity:1"
         d="m 3683.63,1404.54 h -61.2" /><path
         id="path258"
         style="fill:none;stroke:#000000;stroke-width:9.18000031;stroke-linecap:butt;stroke-linejoin:miter;stroke-miterlimit:10;stroke-dasharray:none;stroke-opacity:1"
         d="m 918,1729.51 h 61.199" /><path
         id="path260"
         style="fill:none;stroke:#000000;stroke-width:9.18000031;stroke-linecap:butt;stroke-linejoin:miter;stroke-miterlimit:10;stroke-dasharray:none;stroke-opacity:1"
         d="m 3683.63,1729.51 h -61.2" /><path
         id="path262"
         style="fill:none;stroke:#000000;stroke-width:9.18000031;stroke-linecap:butt;stroke-linejoin:miter;stroke-miterlimit:10;stroke-dasharray:none;stroke-opacity:1"
         d="m 918,2053.87 h 61.199" /><path
         id="path264"
         style="fill:none;stroke:#000000;stroke-width:9.18000031;stroke-linecap:butt;stroke-linejoin:miter;stroke-miterlimit:10;stroke-dasharray:none;stroke-opacity:1"
         d="m 3683.63,2053.87 h -61.2" /><path
         id="path266"
         style="fill:none;stroke:#000000;stroke-width:9.18000031;stroke-linecap:butt;stroke-linejoin:miter;stroke-miterlimit:10;stroke-dasharray:none;stroke-opacity:1"
         d="m 918,2378.23 h 61.199" /><path
         id="path268"
         style="fill:none;stroke:#000000;stroke-width:9.18000031;stroke-linecap:butt;stroke-linejoin:miter;stroke-miterlimit:10;stroke-dasharray:none;stroke-opacity:1"
         d="m 3683.63,2378.23 h -61.2" /><path
         id="path270"
         style="fill:none;stroke:#000000;stroke-width:9.18000031;stroke-linecap:butt;stroke-linejoin:miter;stroke-miterlimit:10;stroke-dasharray:none;stroke-opacity:1"
         d="m 918,2703.2 h 61.199" /><path
         id="path272"
         style="fill:none;stroke:#000000;stroke-width:9.18000031;stroke-linecap:butt;stroke-linejoin:miter;stroke-miterlimit:10;stroke-dasharray:none;stroke-opacity:1"
         d="m 3683.63,2703.2 h -61.2" /><path
         id="path274"
         style="fill:none;stroke:#000000;stroke-width:9.18000031;stroke-linecap:butt;stroke-linejoin:miter;stroke-miterlimit:10;stroke-dasharray:none;stroke-opacity:1"
         d="m 918,918 h 122.4" /><path
         id="path276"
         style="fill:none;stroke:#000000;stroke-width:9.18000031;stroke-linecap:butt;stroke-linejoin:miter;stroke-miterlimit:10;stroke-dasharray:none;stroke-opacity:1"
         d="m 3683.63,918 h -122.4" /><path
         id="path278"
         style="fill:none;stroke:#000000;stroke-width:9.18000031;stroke-linecap:butt;stroke-linejoin:miter;stroke-miterlimit:10;stroke-dasharray:none;stroke-opacity:1"
         d="m 918,1242.36 h 122.4" /><path
         id="path280"
         style="fill:none;stroke:#000000;stroke-width:9.18000031;stroke-linecap:butt;stroke-linejoin:miter;stroke-miterlimit:10;stroke-dasharray:none;stroke-opacity:1"
         d="m 3683.63,1242.36 h -122.4" /><path
         id="path282"
         style="fill:none;stroke:#000000;stroke-width:9.18000031;stroke-linecap:butt;stroke-linejoin:miter;stroke-miterlimit:10;stroke-dasharray:none;stroke-opacity:1"
         d="m 918,1567.33 h 122.4" /><path
         id="path284"
         style="fill:none;stroke:#000000;stroke-width:9.18000031;stroke-linecap:butt;stroke-linejoin:miter;stroke-miterlimit:10;stroke-dasharray:none;stroke-opacity:1"
         d="m 3683.63,1567.33 h -122.4" /><path
         id="path286"
         style="fill:none;stroke:#000000;stroke-width:9.18000031;stroke-linecap:butt;stroke-linejoin:miter;stroke-miterlimit:10;stroke-dasharray:none;stroke-opacity:1"
         d="m 918,1891.69 h 122.4" /><path
         id="path288"
         style="fill:none;stroke:#000000;stroke-width:9.18000031;stroke-linecap:butt;stroke-linejoin:miter;stroke-miterlimit:10;stroke-dasharray:none;stroke-opacity:1"
         d="m 3683.63,1891.69 h -122.4" /><path
         id="path290"
         style="fill:none;stroke:#000000;stroke-width:9.18000031;stroke-linecap:butt;stroke-linejoin:miter;stroke-miterlimit:10;stroke-dasharray:none;stroke-opacity:1"
         d="m 918,2216.05 h 122.4" /><path
         id="path292"
         style="fill:none;stroke:#000000;stroke-width:9.18000031;stroke-linecap:butt;stroke-linejoin:miter;stroke-miterlimit:10;stroke-dasharray:none;stroke-opacity:1"
         d="m 3683.63,2216.05 h -122.4" /><path
         id="path294"
         style="fill:none;stroke:#000000;stroke-width:9.18000031;stroke-linecap:butt;stroke-linejoin:miter;stroke-miterlimit:10;stroke-dasharray:none;stroke-opacity:1"
         d="m 918,2541.02 h 122.4" /><path
         id="path296"
         style="fill:none;stroke:#000000;stroke-width:9.18000031;stroke-linecap:butt;stroke-linejoin:miter;stroke-miterlimit:10;stroke-dasharray:none;stroke-opacity:1"
         d="m 3683.63,2541.02 h -122.4" /><path
         id="path298"
         style="fill:none;stroke:#000000;stroke-width:9.18000031;stroke-linecap:butt;stroke-linejoin:miter;stroke-miterlimit:10;stroke-dasharray:none;stroke-opacity:1"
         d="m 918,2865.38 h 122.4" /><path
         id="path300"
         style="fill:none;stroke:#000000;stroke-width:9.18000031;stroke-linecap:butt;stroke-linejoin:miter;stroke-miterlimit:10;stroke-dasharray:none;stroke-opacity:1"
         d="m 3683.63,2865.38 h -122.4" /><g
         transform="scale(10)"
         id="g302"><text
           id="text318"
           style="font-variant:normal;font-weight:normal;font-size:17.13599968px;font-family:'Times New Roman';-inkscape-font-specification:Times-Roman;writing-mode:lr-tb;fill:#000000;fill-opacity:1;fill-rule:nonzero;stroke:none"
           transform="matrix(1,0,0,-1,77.5402,86.1695)"><tspan
             id="tspan304"
             y="0"
             x="0">0</tspan><tspan
             id="tspan306"
             y="-33.415199"
             x="-12.2398 -3.6717999 0.61220002">0,5</tspan><tspan
             id="tspan308"
             y="-64.749603"
             x="1.4079">1</tspan><tspan
             id="tspan310"
             y="-98.287102"
             x="-12.2398 -3.6717999 0.61220002">1,5</tspan><tspan
             id="tspan312"
             y="-129.6828"
             x="0">2</tspan><tspan
             id="tspan314"
             y="-163.22031"
             x="-12.2398 -3.6717999 0.61220002">2,5</tspan><tspan
             id="tspan316"
             y="-194.7383"
             x="0.6735">3</tspan></text>
<text
           id="text322"
           style="font-variant:normal;font-weight:normal;font-size:17.13599968px;font-family:'Times New Roman';-inkscape-font-specification:Times-Roman;writing-mode:lr-tb;fill:#000000;fill-opacity:1;fill-rule:nonzero;stroke:none"
           transform="matrix(0,1,1,0,52.0813,106.488)"><tspan
             id="tspan320"
             y="0"
             x="0">d</tspan></text>
<text
           id="text326"
           style="font-variant:normal;font-weight:normal;font-size:17.13599968px;font-family:Symbol;-inkscape-font-specification:Symbol;writing-mode:lr-tb;fill:#000000;fill-opacity:1;fill-rule:nonzero;stroke:none"
           transform="matrix(0,1,1,0,52.0813,115.1173)"><tspan
             id="tspan324"
             y="0"
             x="0">σ</tspan></text>
<text
           id="text330"
           style="font-variant:normal;font-weight:normal;font-size:17.13599968px;font-family:'Times New Roman';-inkscape-font-specification:Times-Roman;writing-mode:lr-tb;fill:#000000;fill-opacity:1;fill-rule:nonzero;stroke:none"
           transform="matrix(0,1,1,0,52.0813,125.4603)"><tspan
             id="tspan328"
             y="0"
             x="0 4.7638078 13.331808">/dE</tspan></text>
<text
           id="text334"
           style="font-variant:normal;font-weight:normal;font-size:8.56799984px;font-family:'Times New Roman';-inkscape-font-specification:Times-Roman;writing-mode:lr-tb;fill:#000000;fill-opacity:1;fill-rule:nonzero;stroke:none"
           transform="matrix(0,1,1,0,51.652784,149.2056)"><tspan
             id="tspan332"
             y="0"
             x="0 4.2839999">10</tspan></text>
<text
           id="text338"
           style="font-variant:normal;font-weight:normal;font-size:12.11760044px;font-family:'Times New Roman';-inkscape-font-specification:Times-Roman;writing-mode:lr-tb;fill:#000000;fill-opacity:1;fill-rule:nonzero;stroke:none"
           transform="matrix(0,1,1,0,58.935594,157.8349)"><tspan
             id="tspan336"
             y="0"
             x="0 8.0824394 13.462653 16.492054 21.872269 24.901669 34.329163">Be c.m.</tspan></text>
<text
           id="text342"
           style="font-variant:normal;font-weight:normal;font-size:17.13599968px;font-family:'Times New Roman';-inkscape-font-specification:Times-Roman;writing-mode:lr-tb;fill:#000000;fill-opacity:1;fill-rule:nonzero;stroke:none"
           transform="matrix(0,1,1,0,52.081294,199.5732)"><tspan
             id="tspan340"
             y="0"
             x="0 5.7062879 19.038095 27.606096 32.369904 47.603809 55.212193 67.584381">(mb/MeV)</tspan></text>
</g><path
         id="path344"
         style="fill:none;stroke:#000000;stroke-width:9.18000031;stroke-linecap:butt;stroke-linejoin:miter;stroke-miterlimit:10;stroke-dasharray:none;stroke-opacity:1"
         d="M 918,918 V 2865.38 H 3683.63 V 918 Z" /><path
         id="path346"
         style="fill:none;stroke:#0000ff;stroke-width:18.36000061;stroke-linecap:butt;stroke-linejoin:miter;stroke-miterlimit:10;stroke-dasharray:none;stroke-opacity:1"
         d="m 4236.27,1925.35 92.41,10.41 92.41,26.31 91.8,26.93 92.41,12.85 92.41,-14.69 91.8,-46.51 92.42,-74.05 91.79,-95.47 92.42,-105.27 92.41,-107.71 91.8,-102.2 92.41,-92.41 92.41,-80.18 91.8,-66.7 92.41,-54.47 91.8,-44.06 92.42,-34.28 92.41,-26.92 91.8,-21.43 92.41,-16.52 92.41,-13.46 91.8,-11.02 92.41,-9.18 91.8,-7.957 92.41,-7.343 92.42,-6.122 91.8,-5.507 92.41,-4.895 92.41,-4.285 91.8,-3.672 h 0.61" /><path
         id="path348"
         style="fill:none;stroke:#ff0000;stroke-width:18.36000061;stroke-linecap:butt;stroke-linejoin:miter;stroke-miterlimit:10;stroke-dasharray:none;stroke-opacity:1"
         d="m 4236.27,2261.95 46.51,4.28 45.9,11.63 45.9,18.36 46.51,22.65 45.9,24.48 45.9,23.86 46.51,19.59 45.9,13.47 45.9,4.89 46.51,-4.89 45.9,-15.92 45.9,-26.92 46.51,-37.34 45.91,-47.73 45.89,-56.31 45.9,-63.03 46.51,-67.93 45.91,-72.22 45.9,-74.67 46.51,-74.66 45.9,-74.66 45.9,-72.83 46.51,-70.38 45.9,-67.32 45.9,-63.65 46.51,-59.98 45.9,-56.3 45.9,-52.02 46.51,-47.12 45.9,-44.07 45.91,-39.17 45.89,-36.1 46.52,-31.83 45.9,-28.76 45.9,-25.09 46.51,-22.65 45.9,-19.58 45.9,-17.75 46.51,-15.3 45.9,-12.85 45.9,-11.63 46.51,-9.793 45.9,-8.566 45.9,-7.957 46.52,-6.121 45.89,-5.508 45.91,-4.895 45.89,-4.285 46.52,-3.672 45.89,-3.058 45.91,-2.45 46.51,-2.449 45.9,-2.445 45.9,-1.836 46.51,-1.227 45.9,-1.222 45.9,-1.223 46.51,-1.227 45.9,-1.222 45.9,-0.614 h 0.61" /><path
         id="path350"
         style="fill:none;stroke:#000000;stroke-width:14.07600021;stroke-linecap:butt;stroke-linejoin:miter;stroke-miterlimit:10;stroke-dasharray:none;stroke-opacity:1"
         d="m 4236.27,1892.92 46.51,3.67 45.9,12.24 45.9,18.36 46.51,23.26 45.9,25.09 45.9,25.09 46.51,22.03 45.9,15.91 45.9,9.18 h 46.51 l 45.9,-9.79 45.9,-19.58 46.51,-29.38 45.91,-37.33 45.89,-45.29 45.9,-50.79 46.51,-55.7 45.91,-58.75 45.9,-59.98 46.51,-59.97 45.9,-59.98 45.9,-57.53 46.51,-55.69 45.9,-52.63 45.9,-48.96 46.51,-45.9 45.9,-42.84 45.9,-38.55 46.51,-34.89 45.9,-31.83 45.91,-28.76 45.89,-25.09 46.52,-22.65 45.9,-19.58 45.9,-17.75 46.51,-14.68 45.9,-13.47 45.9,-11.015 46.51,-10.403 45.9,-7.957 45.9,-7.344 46.51,-6.73 45.9,-5.508 45.9,-4.898 46.52,-3.672 45.89,-3.672 45.91,-3.059 45.89,-3.058 46.52,-2.449 45.89,-2.45 45.91,-1.836 46.51,-1.836 45.9,-1.222 45.9,-1.227 46.51,-1.836 45.9,-1.222 45.9,-0.614 46.51,-1.222 45.9,-1.223 45.9,-0.613 h 0.61" /><path
         id="path352"
         style="fill:none;stroke:#000000;stroke-width:9.18000031;stroke-linecap:butt;stroke-linejoin:miter;stroke-miterlimit:10;stroke-dasharray:none;stroke-opacity:1"
         d="M 4236.27,918 H 7001.89" /><path
         id="path354"
         style="fill:none;stroke:#000000;stroke-width:9.18000031;stroke-linecap:butt;stroke-linejoin:miter;stroke-miterlimit:10;stroke-dasharray:none;stroke-opacity:1"
         d="M 4236.27,2865.38 H 7001.89" /><path
         id="path356"
         style="fill:none;stroke:#000000;stroke-width:9.18000031;stroke-linecap:butt;stroke-linejoin:miter;stroke-miterlimit:10;stroke-dasharray:none;stroke-opacity:1"
         d="m 4697.71,918 v 61.199" /><path
         id="path358"
         style="fill:none;stroke:#000000;stroke-width:9.18000031;stroke-linecap:butt;stroke-linejoin:miter;stroke-miterlimit:10;stroke-dasharray:none;stroke-opacity:1"
         d="m 4697.71,2865.38 v -61.2" /><path
         id="path360"
         style="fill:none;stroke:#000000;stroke-width:9.18000031;stroke-linecap:butt;stroke-linejoin:miter;stroke-miterlimit:10;stroke-dasharray:none;stroke-opacity:1"
         d="m 5619.38,918 v 61.199" /><path
         id="path362"
         style="fill:none;stroke:#000000;stroke-width:9.18000031;stroke-linecap:butt;stroke-linejoin:miter;stroke-miterlimit:10;stroke-dasharray:none;stroke-opacity:1"
         d="m 5619.38,2865.38 v -61.2" /><path
         id="path364"
         style="fill:none;stroke:#000000;stroke-width:9.18000031;stroke-linecap:butt;stroke-linejoin:miter;stroke-miterlimit:10;stroke-dasharray:none;stroke-opacity:1"
         d="m 4236.27,918 v 122.4" /><path
         id="path366"
         style="fill:none;stroke:#000000;stroke-width:9.18000031;stroke-linecap:butt;stroke-linejoin:miter;stroke-miterlimit:10;stroke-dasharray:none;stroke-opacity:1"
         d="m 4236.27,2865.38 v -122.4" /><path
         id="path368"
         style="fill:none;stroke:#000000;stroke-width:9.18000031;stroke-linecap:butt;stroke-linejoin:miter;stroke-miterlimit:10;stroke-dasharray:none;stroke-opacity:1"
         d="m 5158.55,918 v 122.4" /><path
         id="path370"
         style="fill:none;stroke:#000000;stroke-width:9.18000031;stroke-linecap:butt;stroke-linejoin:miter;stroke-miterlimit:10;stroke-dasharray:none;stroke-opacity:1"
         d="m 5158.55,2865.38 v -122.4" /><g
         transform="scale(10)"
         id="g372"><text
           id="text376"
           style="font-variant:normal;font-weight:normal;font-size:17.13599968px;font-family:'Times New Roman';-inkscape-font-specification:Times-Roman;writing-mode:lr-tb;fill:#000000;fill-opacity:1;fill-rule:nonzero;stroke:none"
           transform="matrix(1,0,0,-1,419.587,74.1742)"><tspan
             id="tspan374"
             y="0"
             x="0 87.822174 96.390175">010</tspan></text>
<text
           id="text380"
           style="font-variant:normal;font-weight:normal;font-size:17.13599968px;font-family:Symbol;-inkscape-font-specification:Symbol;writing-mode:lr-tb;fill:#000000;fill-opacity:1;fill-rule:nonzero;stroke:none"
           transform="matrix(1,0,0,-1,537.703,56.0594)"><tspan
             id="tspan378"
             y="0"
             x="0">θ</tspan></text>
<text
           id="text384"
           style="font-variant:normal;font-weight:normal;font-size:17.13599968px;font-family:'Times New Roman';-inkscape-font-specification:Times-Roman;writing-mode:lr-tb;fill:#000000;fill-opacity:1;fill-rule:nonzero;stroke:none"
           transform="matrix(1,0,0,-1,550.86122,56.0594)"><tspan
             id="tspan382"
             y="0"
             x="0 5.7062879 14.274288 21.882671 30.450672">(deg)</tspan></text>
</g><path
         id="path386"
         style="fill:none;stroke:#000000;stroke-width:9.18000031;stroke-linecap:butt;stroke-linejoin:miter;stroke-miterlimit:10;stroke-dasharray:none;stroke-opacity:1"
         d="M 4236.27,918 V 2865.38" /><path
         id="path388"
         style="fill:none;stroke:#000000;stroke-width:9.18000031;stroke-linecap:butt;stroke-linejoin:miter;stroke-miterlimit:10;stroke-dasharray:none;stroke-opacity:1"
         d="m 4236.27,1161.57 h 61.19" /><path
         id="path390"
         style="fill:none;stroke:#000000;stroke-width:9.18000031;stroke-linecap:butt;stroke-linejoin:miter;stroke-miterlimit:10;stroke-dasharray:none;stroke-opacity:1"
         d="m 4236.27,1648.12 h 61.19" /><path
         id="path392"
         style="fill:none;stroke:#000000;stroke-width:9.18000031;stroke-linecap:butt;stroke-linejoin:miter;stroke-miterlimit:10;stroke-dasharray:none;stroke-opacity:1"
         d="m 4236.27,2135.27 h 61.19" /><path
         id="path394"
         style="fill:none;stroke:#000000;stroke-width:9.18000031;stroke-linecap:butt;stroke-linejoin:miter;stroke-miterlimit:10;stroke-dasharray:none;stroke-opacity:1"
         d="m 4236.27,2621.81 h 61.19" /><path
         id="path396"
         style="fill:none;stroke:#000000;stroke-width:9.18000031;stroke-linecap:butt;stroke-linejoin:miter;stroke-miterlimit:10;stroke-dasharray:none;stroke-opacity:1"
         d="m 4236.27,918 h 122.39" /><path
         id="path398"
         style="fill:none;stroke:#000000;stroke-width:9.18000031;stroke-linecap:butt;stroke-linejoin:miter;stroke-miterlimit:10;stroke-dasharray:none;stroke-opacity:1"
         d="m 4236.27,1404.54 h 122.39" /><path
         id="path400"
         style="fill:none;stroke:#000000;stroke-width:9.18000031;stroke-linecap:butt;stroke-linejoin:miter;stroke-miterlimit:10;stroke-dasharray:none;stroke-opacity:1"
         d="m 4236.27,1891.69 h 122.39" /><path
         id="path402"
         style="fill:none;stroke:#000000;stroke-width:9.18000031;stroke-linecap:butt;stroke-linejoin:miter;stroke-miterlimit:10;stroke-dasharray:none;stroke-opacity:1"
         d="m 4236.27,2378.23 h 122.39" /><path
         id="path404"
         style="fill:none;stroke:#000000;stroke-width:9.18000031;stroke-linecap:butt;stroke-linejoin:miter;stroke-miterlimit:10;stroke-dasharray:none;stroke-opacity:1"
         d="m 4236.27,2865.38 h 122.39" /><path
         id="path406"
         style="fill:none;stroke:#000000;stroke-width:9.18000031;stroke-linecap:butt;stroke-linejoin:miter;stroke-miterlimit:10;stroke-dasharray:none;stroke-opacity:1"
         d="M 4236.27,918 V 2865.38 H 7001.89 V 918 Z" /><path
         id="path408"
         style="fill:#ffffff;fill-opacity:1;fill-rule:nonzero;stroke:none"
         d="m 3042.25,3875.8 h 2044.08 v 810.289 H 3042.25 Z" /><path
         id="path410"
         style="fill:none;stroke:#000000;stroke-width:9.18000031;stroke-linecap:butt;stroke-linejoin:miter;stroke-miterlimit:10;stroke-dasharray:none;stroke-opacity:1"
         d="M 3042.25,4686.09 V 3875.8 h 2044.08 v 810.29 z" /><g
         transform="scale(10)"
         id="g412"><text
           id="text416"
           style="font-variant:normal;font-weight:normal;font-size:17.13599968px;font-family:'Times New Roman';-inkscape-font-specification:Times-Roman;writing-mode:lr-tb;fill:#000000;fill-opacity:1;fill-rule:nonzero;stroke:none"
           transform="matrix(1,0,0,-1,347.983,450.738)"><tspan
             id="tspan414"
             y="0"
             x="0 9.5276155 17.136 25.704 34.271999 41.880383 49.48877 58.056767">Faddeev </tspan></text>
<text
           id="text420"
           style="font-variant:normal;font-weight:normal;font-size:17.13599968px;font-family:Symbol;-inkscape-font-specification:Symbol;writing-mode:lr-tb;fill:#000000;fill-opacity:1;fill-rule:nonzero;stroke:none"
           transform="matrix(1,0,0,-1,410.3459,450.738)"><tspan
             id="tspan418"
             y="0"
             x="0">σ</tspan></text>
<text
           id="text424"
           style="font-variant:normal;font-weight:normal;font-size:17.13599968px;font-family:'Times New Roman';-inkscape-font-specification:Times-Roman;writing-mode:lr-tb;fill:#000000;fill-opacity:1;fill-rule:nonzero;stroke:none"
           transform="matrix(1,0,0,-1,420.6885,450.738)"><tspan
             id="tspan422"
             y="0"
             x="0 9.6647043 18.232704 26.800703 31.084703 44.416512">=20 mb</tspan></text>
</g><path
         id="path426"
         style="fill:none;stroke:#0000ff;stroke-width:18.36000061;stroke-linecap:butt;stroke-linejoin:miter;stroke-miterlimit:10;stroke-dasharray:none;stroke-opacity:1"
         d="m 3112.63,4564.91 h 244.8" /><g
         transform="scale(10)"
         id="g428"><text
           id="text432"
           style="font-variant:normal;font-weight:normal;font-size:17.13599968px;font-family:'Times New Roman';-inkscape-font-specification:Times-Roman;writing-mode:lr-tb;fill:#000000;fill-opacity:1;fill-rule:nonzero;stroke:none"
           transform="matrix(1,0,0,-1,347.983,425.891)"><tspan
             id="tspan430"
             y="0"
             x="0 12.372192">Vp</tspan></text>
<text
           id="text436"
           style="font-variant:normal;font-weight:normal;font-size:12.11760044px;font-family:'Times New Roman';-inkscape-font-specification:Times-Roman;writing-mode:lr-tb;fill:#000000;fill-opacity:1;fill-rule:nonzero;stroke:none"
           transform="matrix(1,0,0,-1,368.8521,436.1723)"><tspan
             id="tspan434"
             y="0"
             x="0 6.0588002">11</tspan></text>
<text
           id="text440"
           style="font-variant:normal;font-weight:normal;font-size:17.13599968px;font-family:'Times New Roman';-inkscape-font-specification:Times-Roman;writing-mode:lr-tb;fill:#000000;fill-opacity:1;fill-rule:nonzero;stroke:none"
           transform="matrix(1,0,0,-1,380.8474,425.891)"><tspan
             id="tspan438"
             y="0"
             x="0 11.429712 19.038095 23.322096 35.694286 48.066479">Be KD </tspan></text>
<text
           id="text444"
           style="font-variant:normal;font-weight:normal;font-size:17.13599968px;font-family:Symbol;-inkscape-font-specification:Symbol;writing-mode:lr-tb;fill:#000000;fill-opacity:1;fill-rule:nonzero;stroke:none"
           transform="matrix(1,0,0,-1,433.1732,425.891)"><tspan
             id="tspan442"
             y="0"
             x="0">σ</tspan></text>
<text
           id="text448"
           style="font-variant:normal;font-weight:normal;font-size:17.13599968px;font-family:'Times New Roman';-inkscape-font-specification:Times-Roman;writing-mode:lr-tb;fill:#000000;fill-opacity:1;fill-rule:nonzero;stroke:none"
           transform="matrix(1,0,0,-1,443.4548,425.891)"><tspan
             id="tspan446"
             y="0"
             x="0 9.6647043 18.232704 26.800703 31.084703 44.416512">=24 mb</tspan></text>
</g><path
         id="path450"
         style="fill:none;stroke:#ff0000;stroke-width:18.36000061;stroke-linecap:butt;stroke-linejoin:miter;stroke-miterlimit:10;stroke-dasharray:none;stroke-opacity:1"
         d="m 3112.63,4332.35 h 244.8" /><g
         transform="scale(10)"
         id="g452"><text
           id="text456"
           style="font-variant:normal;font-weight:normal;font-size:17.13599968px;font-family:'Times New Roman';-inkscape-font-specification:Times-Roman;writing-mode:lr-tb;fill:#000000;fill-opacity:1;fill-rule:nonzero;stroke:none"
           transform="matrix(1,0,0,-1,347.983,397.494)"><tspan
             id="tspan454"
             y="0"
             x="0 12.372192">Vp</tspan></text>
<text
           id="text460"
           style="font-variant:normal;font-weight:normal;font-size:12.11760044px;font-family:'Times New Roman';-inkscape-font-specification:Times-Roman;writing-mode:lr-tb;fill:#000000;fill-opacity:1;fill-rule:nonzero;stroke:none"
           transform="matrix(1,0,0,-1,368.8521,407.7756)"><tspan
             id="tspan458"
             y="0"
             x="0 6.0588002">11</tspan></text>
<text
           id="text464"
           style="font-variant:normal;font-weight:normal;font-size:17.13599968px;font-family:'Times New Roman';-inkscape-font-specification:Times-Roman;writing-mode:lr-tb;fill:#000000;fill-opacity:1;fill-rule:nonzero;stroke:none"
           transform="matrix(1,0,0,-1,380.8474,397.494)"><tspan
             id="tspan462"
             y="0"
             x="0 11.429712 19.038095 23.322096 32.849712 41.417713 46.181519 54.749519">Be Fold </tspan></text>
<text
           id="text468"
           style="font-variant:normal;font-weight:normal;font-size:17.13599968px;font-family:Symbol;-inkscape-font-specification:Symbol;writing-mode:lr-tb;fill:#000000;fill-opacity:1;fill-rule:nonzero;stroke:none"
           transform="matrix(1,0,0,-1,439.9052,397.494)"><tspan
             id="tspan466"
             y="0"
             x="0">σ</tspan></text>
<text
           id="text472"
           style="font-variant:normal;font-weight:normal;font-size:17.13599968px;font-family:'Times New Roman';-inkscape-font-specification:Times-Roman;writing-mode:lr-tb;fill:#000000;fill-opacity:1;fill-rule:nonzero;stroke:none"
           transform="matrix(1,0,0,-1,450.1868,397.494)"><tspan
             id="tspan470"
             y="0"
             x="0 9.6647043 18.232704 26.800703 31.084703 44.416512">=18 mb</tspan></text>
</g><path
         id="path474"
         style="fill:none;stroke:#000000;stroke-width:14.07600021;stroke-linecap:butt;stroke-linejoin:miter;stroke-miterlimit:10;stroke-dasharray:none;stroke-opacity:1"
         d="m 3112.63,4048.38 h 244.8" /></g></g></svg>