<?xml version="1.0" encoding="UTF-8" standalone="no"?>
<svg
   xmlns:dc="http://purl.org/dc/elements/1.1/"
   xmlns:cc="http://creativecommons.org/ns#"
   xmlns:rdf="http://www.w3.org/1999/02/22-rdf-syntax-ns#"
   xmlns:svg="http://www.w3.org/2000/svg"
   xmlns="http://www.w3.org/2000/svg"
   viewBox="0 0 793.33331 1122.6667"
   height="1122.6667"
   width="793.33331"
   xml:space="preserve"
   id="svg2"
   version="1.1"><metadata
     id="metadata8"><rdf:RDF><cc:Work
         rdf:about=""><dc:format>image/svg+xml</dc:format><dc:type
           rdf:resource="http://purl.org/dc/dcmitype/StillImage" /></cc:Work></rdf:RDF></metadata><defs
     id="defs6" /><g
     transform="matrix(1.3333333,0,0,-1.3333333,0,1122.6667)"
     id="g10"><g
       transform="scale(0.1)"
       id="g12"><path
         id="path14"
         style="fill:#ffffff;fill-opacity:1;fill-rule:nonzero;stroke:none"
         d="M 0,0 H 7919.89 V 6120 H 0 Z" /><path
         id="path16"
         style="fill:none;stroke:#000000;stroke-width:18.36000061;stroke-linecap:butt;stroke-linejoin:miter;stroke-miterlimit:10;stroke-dasharray:none;stroke-opacity:1"
         d="m 917.387,3255.23 h 106.493 l 15.91,0.61 h 76.5 l 15.3,0.61 h 15.91 15.3 15.3 l 15.3,0.61 h 15.3 15.3 l 15.3,0.62 h 15.3 l 15.91,0.61 h 15.3 l 15.3,0.61 15.3,0.61 15.3,0.62 h 15.3 l 15.3,0.6 15.91,0.62 15.3,0.61 15.3,0.61 15.31,0.61 15.3,0.62 15.29,1.22 15.3,0.61 15.3,1.23 15.91,0.61 15.31,1.22 15.3,1.23 15.3,1.22 15.3,1.22 15.29,0.62 15.31,1.22 15.3,1.23 15.91,1.83 15.3,1.22 15.3,1.23 15.3,1.83 15.3,1.23 15.3,1.22 15.3,1.84 15.91,1.22 15.3,1.23 15.3,1.22 15.3,0.61 15.3,1.23 15.3,1.22 15.3,0.61 15.3,1.22 15.91,0.62 15.3,1.22 15.3,0.61 15.3,1.23 15.3,0.61 15.3,1.22 15.3,1.84 15.3,2.45 15.91,3.67 15.31,4.9 15.3,6.73 15.29,8.56 15.3,11.02 15.3,14.08 15.31,18.97 15.91,24.48 15.3,31.83 15.3,42.22 15.3,55.08 15.29,70.99 15.31,90.58 15.3,111.38 15.3,131.59 15.91,148.71 15.3,157.9 15.3,156.06 15.3,143.2 15.3,115.06 15.3,74.66 15.3,26.32 15.3,-26.32 15.91,-74.66 15.3,-115.06 15.3,-143.2 15.3,-156.06 15.3,-157.9 15.3,-148.71 15.3,-131.59 15.91,-111.38 15.3,-90.58 15.3,-70.99 15.3,-55.08 15.3,-42.22 15.3,-31.83 15.3,-24.48 15.3,-18.97 15.92,-14.08 15.3,-11.02 15.29,-8.56 15.3,-6.73 15.3,-4.9 15.31,-3.67 15.29,-2.45 15.92,-1.84 15.3,-1.22 15.3,-0.61 15.29,-1.23 15.31,-0.61 15.3,-1.22 15.3,-0.62 15.3,-1.22 15.91,-0.61 15.3,-1.22 15.3,-1.23 15.3,-0.61 15.3,-1.22 15.3,-1.23 15.3,-1.22 15.3,-1.84 15.91,-1.22 15.3,-1.23 15.3,-1.83 15.3,-1.23 15.3,-1.22 15.3,-1.83 15.3,-1.23 15.91,-1.22 15.3,-0.62 15.3,-1.22 15.3,-1.22 15.3,-1.23 15.3,-1.22 15.3,-0.61 15.3,-1.23 15.91,-0.61 15.3,-1.22 15.3,-0.62 15.3,-0.61 15.31,-0.61 15.29,-0.61 15.3,-0.62 15.3,-0.6 h 15.92 l 15.29,-0.62 15.31,-0.61 15.3,-0.61 h 15.3 l 15.3,-0.61 h 15.29 l 15.92,-0.62 h 15.3 15.3 l 15.3,-0.61 h 15.3 15.3 15.3 l 15.3,-0.61 h 15.91 15.3 15.3 15.3 15.3 l 15.3,-0.61 h 15.3 15.3 15.91 15.3 15.3 15.3 14.69" /><path
         id="path18"
         style="fill:none;stroke:#ff0000;stroke-width:18.36000061;stroke-linecap:butt;stroke-linejoin:miter;stroke-miterlimit:10;stroke-dasharray:none;stroke-opacity:1"
         d="m 917.387,3255.23 h 106.493 l 15.91,0.61 h 76.5 l 15.3,0.61 h 15.91 15.3 15.3 l 15.3,0.61 h 15.3 l 15.3,0.62 h 15.3 15.3 l 15.91,0.61 15.3,0.61 h 15.3 l 15.3,0.61 15.3,0.62 h 15.3 l 15.3,0.6 15.91,0.62 15.3,0.61 15.3,0.61 15.31,0.61 15.3,0.62 15.29,1.22 15.3,0.61 15.3,1.23 15.91,0.61 15.31,1.22 15.3,1.23 15.3,1.22 15.3,0.61 15.29,1.23 15.31,1.22 15.3,1.23 15.91,1.22 15.3,1.22 15.3,1.84 15.3,1.22 15.3,1.23 15.3,1.83 15.3,1.22 15.91,1.23 15.3,1.22 15.3,1.23 15.3,0.61 15.3,1.22 15.3,0.62 15.3,0.61 15.3,1.22 15.91,0.62 15.3,0.6 15.3,0.62 15.3,1.22 15.3,0.61 15.3,1.23 15.3,1.22 15.3,2.45 15.91,3.06 15.31,4.9 15.3,6.12 15.29,8.56 15.3,11.02 15.3,14.08 15.31,18.36 15.91,24.48 15.3,31.82 15.3,42.23 15.3,55.08 15.29,70.99 15.31,90.58 15.3,111.38 15.3,132.19 15.91,149.33 15.3,157.9 15.3,156.67 15.3,143.21 15.3,115.05 15.3,74.67 15.3,26.31 15.3,-26.31 15.91,-74.67 15.3,-115.05 15.3,-143.21 15.3,-156.67 15.3,-157.9 15.3,-149.33 15.3,-132.19 15.91,-111.38 15.3,-90.58 15.3,-70.99 15.3,-55.08 15.3,-42.23 15.3,-31.82 15.3,-24.48 15.3,-18.36 15.92,-14.08 15.3,-11.02 15.29,-8.56 15.3,-6.12 15.3,-4.9 15.31,-3.06 15.29,-2.45 15.92,-1.22 15.3,-1.23 15.3,-0.61 15.29,-1.22 15.31,-0.62 15.3,-0.6 15.3,-0.62 15.3,-1.22 15.91,-0.61 15.3,-0.62 15.3,-1.22 15.3,-0.61 15.3,-1.23 15.3,-1.22 15.3,-1.23 15.3,-1.22 15.91,-1.83 15.3,-1.23 15.3,-1.22 15.3,-1.84 15.3,-1.22 15.3,-1.22 15.3,-1.23 15.91,-1.22 15.3,-1.23 15.3,-0.61 15.3,-1.22 15.3,-1.23 15.3,-1.22 15.3,-0.61 15.3,-1.23 15.91,-0.61 15.3,-1.22 15.3,-0.62 15.3,-0.61 15.31,-0.61 15.29,-0.61 15.3,-0.62 15.3,-0.6 h 15.92 l 15.29,-0.62 15.31,-0.61 h 15.3 l 15.3,-0.61 15.3,-0.61 h 15.29 15.92 l 15.3,-0.62 h 15.3 l 15.3,-0.61 h 15.3 15.3 15.3 l 15.3,-0.61 h 15.91 15.3 15.3 15.3 15.3 l 15.3,-0.61 h 15.3 15.3 15.91 15.3 15.3 15.3 14.69" /><path
         id="path20"
         style="fill:none;stroke:#0000ff;stroke-width:18.36000061;stroke-linecap:butt;stroke-linejoin:miter;stroke-miterlimit:10;stroke-dasharray:none;stroke-opacity:1"
         d="m 917.387,3255.84 h 33.051 l 4.281,0.61 H 1060.6 l 4.89,0.61 h 4.9 4.28 4.9 4.28 4.9 4.28 4.9 4.28 4.9 4.28 4.9 4.28 l 4.9,0.62 h 4.28 4.9 4.28 4.9 4.89 4.29 4.89 4.29 4.9 l 4.28,0.61 h 4.9 4.28 4.9 4.28 4.9 4.28 l 4.89,0.61 h 4.29 4.89 4.9 4.28 4.9 l 4.28,0.61 h 4.9 4.28 4.9 4.28 4.9 l 4.28,0.62 h 4.9 4.28 4.9 4.28 l 4.9,0.6 h 4.29 4.89 4.89 l 4.29,0.62 h 4.89 4.29 4.89 l 4.29,0.61 h 4.9 4.28 l 4.9,0.61 h 4.28 4.9 l 4.28,0.61 h 4.9 4.28 l 4.9,0.62 h 4.89 4.29 l 4.89,0.61 h 4.29 l 4.89,0.61 h 4.29 4.89 l 4.29,0.61 h 4.89 l 4.29,0.61 h 4.89 4.28 l 4.9,0.62 h 4.28 l 4.9,0.61 h 4.29 l 4.89,0.61 h 4.9 l 4.28,0.61 h 4.9 l 4.28,0.61 h 4.9 4.28 l 4.9,0.62 h 4.28 l 4.9,0.61 h 4.28 l 4.9,0.61 4.28,0.61 h 4.9 l 4.28,0.61 h 4.9 l 4.89,0.62 h 4.29 l 4.89,0.61 4.29,0.61 h 4.89 l 4.29,0.61 h 4.89 l 4.29,0.62 4.9,0.61 h 4.28 l 4.9,0.61 4.28,0.61 h 4.9 l 4.28,0.61 4.9,0.61 4.28,0.62 h 4.89 l 4.9,0.61 4.28,0.61 h 4.9 l 4.28,0.61 4.9,0.61 h 4.28 l 4.9,0.62 4.28,0.61 4.9,0.61 h 4.28 l 4.9,0.61 4.28,0.62 h 4.9 l 4.28,0.6 4.9,0.62 h 4.9 l 4.28,0.61 4.9,0.61 h 4.28 l 4.89,0.61 h 4.29 l 4.89,0.62 4.29,0.61 h 4.89 l 4.29,0.61 h 4.9 l 4.28,0.61 4.9,0.61 h 4.28 l 4.9,0.62 h 4.28 l 4.9,0.61 4.89,0.61 h 4.29 l 4.89,0.61 h 4.29 l 4.89,0.62 4.29,0.6 h 4.89 l 4.29,0.62 h 4.89 l 4.29,0.61 4.89,0.61 h 4.29 l 4.89,0.61 h 4.28 l 4.9,0.62 4.9,0.61 h 4.28 l 4.9,0.61 h 4.28 l 4.9,0.61 h 4.28 l 4.9,0.61 4.28,0.62 h 4.9 l 4.28,0.61 h 4.9 l 4.28,0.61 h 4.9 l 4.28,0.61 h 4.9 l 4.28,0.61 h 4.9 l 4.89,0.61 4.29,0.62 h 4.89 l 4.29,0.61 4.89,0.61 h 4.29 l 4.89,0.61 4.29,0.62 4.89,0.61 4.29,0.61 4.9,0.61 4.28,1.23 4.9,0.61 4.28,1.22 4.9,0.61 4.89,1.23 4.29,1.22 4.89,0.61 4.28,1.84 4.9,1.23 4.28,1.22 4.9,1.83 4.28,1.23 4.9,1.83 4.28,1.84 4.9,2.45 4.28,1.83 4.9,2.45 4.28,2.45 4.9,2.45 4.28,3.06 4.9,3.06 4.9,3.06 4.28,3.67 4.9,3.67 4.28,3.67 4.9,4.9 4.28,4.9 4.89,4.89 4.29,5.51 4.89,6.12 4.29,6.73 4.89,7.35 4.29,7.95 4.9,9.18 4.28,9.18 4.9,10.41 4.89,11.63 4.29,12.23 4.89,12.86 4.29,14.68 4.89,15.92 4.29,17.13 4.89,18.36 4.29,20.2 4.89,20.81 4.29,23.25 4.89,24.48 4.29,26.32 4.89,27.54 4.29,29.38 4.89,31.21 4.29,33.04 4.89,34.28 4.9,36.11 4.28,37.33 4.9,38.55 4.28,39.78 4.9,41.01 4.28,41.61 4.9,42.23 4.28,43.45 4.9,42.84 4.28,42.84 4.9,42.84 4.28,42.23 4.9,41 4.28,40.4 4.9,38.55 4.89,37.34 4.29,34.88 4.89,32.43 4.29,29.99 4.89,26.93 4.29,23.87 4.89,20.81 4.29,16.52 4.89,14.08 4.29,9.79 4.89,6.12 4.29,1.83 4.89,-1.83 4.29,-6.12 4.9,-9.79 4.28,-14.08 4.9,-16.52 4.89,-20.81 4.29,-23.87 4.89,-26.93 4.29,-29.99 4.89,-32.43 4.28,-34.88 4.9,-37.34 4.28,-38.55 4.9,-40.4 4.28,-41 4.9,-42.23 4.28,-42.84 4.9,-42.84 4.28,-42.84 4.9,-43.45 4.9,-42.23 4.28,-41.61 4.9,-41.01 4.28,-39.78 4.9,-38.55 4.28,-37.33 4.9,-36.11 4.28,-34.28 4.9,-33.04 4.28,-31.21 4.89,-29.38 4.29,-27.54 4.89,-26.32 4.29,-24.48 4.89,-23.25 4.29,-20.81 4.9,-20.2 4.89,-18.36 4.29,-17.13 4.89,-15.92 4.29,-14.68 4.89,-12.86 4.29,-12.23 4.89,-11.63 4.29,-10.41 4.89,-9.18 4.29,-9.18 4.89,-7.95 4.29,-7.35 4.89,-6.73 4.29,-6.12 4.89,-5.51 4.9,-4.89 4.28,-4.9 4.9,-4.9 4.28,-3.67 4.9,-3.67 4.28,-3.67 4.9,-3.06 4.28,-3.06 4.9,-3.06 4.28,-2.45 4.9,-2.45 4.28,-2.45 4.9,-1.83 4.28,-2.45 4.9,-1.84 4.28,-1.83 4.9,-1.23 4.89,-1.83 4.29,-1.22 4.89,-1.23 4.29,-1.84 4.89,-0.61 4.29,-1.22 4.89,-1.23 4.29,-0.61 4.89,-1.22 4.29,-0.61 4.89,-1.23 4.29,-0.61 4.89,-0.61 4.29,-0.61 4.89,-0.62 4.9,-0.61 h 4.29 l 4.89,-0.61 4.29,-0.61 h 4.89 l 4.29,-0.62 4.89,-0.61 h 4.29 l 4.89,-0.61 h 4.28 l 4.9,-0.61 h 4.28 l 4.9,-0.61 h 4.28 l 4.9,-0.61 h 4.28 l 4.9,-0.62 4.9,-0.61 h 4.28 l 4.9,-0.61 h 4.28 l 4.9,-0.61 h 4.28 l 4.9,-0.61 4.28,-0.62 h 4.9 l 4.28,-0.61 h 4.9 l 4.28,-0.61 4.89,-0.61 h 4.29 l 4.89,-0.62 h 4.9 l 4.28,-0.6 4.9,-0.62 h 4.29 l 4.89,-0.61 h 4.29 l 4.89,-0.61 4.29,-0.61 h 4.89 l 4.29,-0.62 h 4.89 l 4.29,-0.61 4.89,-0.61 h 4.29 l 4.89,-0.61 h 4.29 l 4.89,-0.61 4.9,-0.62 h 4.28 l 4.9,-0.61 h 4.28 l 4.9,-0.61 4.28,-0.61 h 4.9 l 4.28,-0.62 4.9,-0.6 h 4.28 l 4.9,-0.62 4.28,-0.61 h 4.9 l 4.28,-0.61 4.9,-0.61 4.9,-0.62 h 4.28 l 4.89,-0.61 4.29,-0.61 h 4.89 l 4.29,-0.61 4.89,-0.61 h 4.29 l 4.89,-0.62 4.29,-0.61 4.89,-0.61 h 4.29 l 4.89,-0.61 4.29,-0.61 h 4.89 l 4.29,-0.61 4.89,-0.62 h 4.9 l 4.28,-0.61 h 4.9 l 4.29,-0.61 4.89,-0.61 h 4.29 l 4.89,-0.62 h 4.29 l 4.89,-0.61 h 4.29 l 4.89,-0.61 4.28,-0.61 h 4.9 l 4.28,-0.61 h 4.9 l 4.9,-0.62 h 4.28 4.9 l 4.28,-0.61 h 4.9 l 4.28,-0.61 h 4.9 l 4.28,-0.61 h 4.9 l 4.28,-0.61 h 4.9 l 4.28,-0.62 h 4.9 4.28 l 4.9,-0.61 h 4.28 l 4.89,-0.61 h 4.9 4.28 l 4.9,-0.61 h 4.28 l 4.9,-0.61 h 4.29 4.89 l 4.29,-0.62 h 4.89 4.29 l 4.89,-0.61 h 4.29 4.89 l 4.29,-0.61 h 4.89 4.9 l 4.28,-0.61 h 4.9 4.28 4.9 l 4.28,-0.62 h 4.9 4.28 4.9 l 4.28,-0.6 h 4.9 4.28 4.9 4.28 l 4.9,-0.62 h 4.28 4.9 4.9 4.28 4.9 l 4.28,-0.61 h 4.89 4.29 4.89 4.29 4.89 l 4.29,-0.61 h 4.89 4.29 4.89 4.29 4.89 4.9 l 4.28,-0.61 h 4.9 4.28 4.9 4.28 4.9 4.29 4.89 4.29 4.89 l 4.29,-0.62 h 4.89 4.29 4.89 4.28 4.9 4.9 4.28 4.9 4.28 4.9 4.28 4.9 l 4.28,-0.61 h 4.9 4.28 4.9 4.28 4.9 4.28 4.9 4.89 4.29 4.89 4.28 4.9 4.28 4.9 4.28 4.9 4.29 4.89 4.29 4.89 4.29 4.89 4.29 l 4.89,-0.61 h 4.9 4.28 4.9 4.28 4.9 4.28 4.9 0.61" /><path
         id="path22"
         style="fill:none;stroke:#000000;stroke-width:9.18000031;stroke-linecap:butt;stroke-linejoin:miter;stroke-miterlimit:10;stroke-dasharray:none;stroke-opacity:1"
         d="M 918,3254.62 H 3683.63" /><path
         id="path24"
         style="fill:none;stroke:#000000;stroke-width:9.18000031;stroke-linecap:butt;stroke-linejoin:miter;stroke-miterlimit:10;stroke-dasharray:none;stroke-opacity:1"
         d="M 918,5202 H 3683.63" /><path
         id="path26"
         style="fill:none;stroke:#000000;stroke-width:9.18000031;stroke-linecap:butt;stroke-linejoin:miter;stroke-miterlimit:10;stroke-dasharray:none;stroke-opacity:1"
         d="m 918,3254.62 v 61.2" /><path
         id="path28"
         style="fill:none;stroke:#000000;stroke-width:9.18000031;stroke-linecap:butt;stroke-linejoin:miter;stroke-miterlimit:10;stroke-dasharray:none;stroke-opacity:1"
         d="m 918,5202 v -61.2" /><path
         id="path30"
         style="fill:none;stroke:#000000;stroke-width:9.18000031;stroke-linecap:butt;stroke-linejoin:miter;stroke-miterlimit:10;stroke-dasharray:none;stroke-opacity:1"
         d="m 1839.67,3254.62 v 61.2" /><path
         id="path32"
         style="fill:none;stroke:#000000;stroke-width:9.18000031;stroke-linecap:butt;stroke-linejoin:miter;stroke-miterlimit:10;stroke-dasharray:none;stroke-opacity:1"
         d="m 1839.67,5202 v -61.2" /><path
         id="path34"
         style="fill:none;stroke:#000000;stroke-width:9.18000031;stroke-linecap:butt;stroke-linejoin:miter;stroke-miterlimit:10;stroke-dasharray:none;stroke-opacity:1"
         d="m 2761.34,3254.62 v 61.2" /><path
         id="path36"
         style="fill:none;stroke:#000000;stroke-width:9.18000031;stroke-linecap:butt;stroke-linejoin:miter;stroke-miterlimit:10;stroke-dasharray:none;stroke-opacity:1"
         d="m 2761.34,5202 v -61.2" /><path
         id="path38"
         style="fill:none;stroke:#000000;stroke-width:9.18000031;stroke-linecap:butt;stroke-linejoin:miter;stroke-miterlimit:10;stroke-dasharray:none;stroke-opacity:1"
         d="m 3683.63,3254.62 v 61.2" /><path
         id="path40"
         style="fill:none;stroke:#000000;stroke-width:9.18000031;stroke-linecap:butt;stroke-linejoin:miter;stroke-miterlimit:10;stroke-dasharray:none;stroke-opacity:1"
         d="m 3683.63,5202 v -61.2" /><path
         id="path42"
         style="fill:none;stroke:#000000;stroke-width:9.18000031;stroke-linecap:butt;stroke-linejoin:miter;stroke-miterlimit:10;stroke-dasharray:none;stroke-opacity:1"
         d="m 1378.84,3254.62 v 122.4" /><path
         id="path44"
         style="fill:none;stroke:#000000;stroke-width:9.18000031;stroke-linecap:butt;stroke-linejoin:miter;stroke-miterlimit:10;stroke-dasharray:none;stroke-opacity:1"
         d="M 1378.84,5202 V 5079.6" /><path
         id="path46"
         style="fill:none;stroke:#000000;stroke-width:9.18000031;stroke-linecap:butt;stroke-linejoin:miter;stroke-miterlimit:10;stroke-dasharray:none;stroke-opacity:1"
         d="m 2300.51,3254.62 v 122.4" /><path
         id="path48"
         style="fill:none;stroke:#000000;stroke-width:9.18000031;stroke-linecap:butt;stroke-linejoin:miter;stroke-miterlimit:10;stroke-dasharray:none;stroke-opacity:1"
         d="M 2300.51,5202 V 5079.6" /><path
         id="path50"
         style="fill:none;stroke:#000000;stroke-width:9.18000031;stroke-linecap:butt;stroke-linejoin:miter;stroke-miterlimit:10;stroke-dasharray:none;stroke-opacity:1"
         d="m 3222.79,3254.62 v 122.4" /><path
         id="path52"
         style="fill:none;stroke:#000000;stroke-width:9.18000031;stroke-linecap:butt;stroke-linejoin:miter;stroke-miterlimit:10;stroke-dasharray:none;stroke-opacity:1"
         d="M 3222.79,5202 V 5079.6" /><g
         transform="scale(10)"
         id="g54"><text
           id="text60"
           style="font-variant:normal;font-weight:normal;font-size:17.13599968px;font-family:'Times New Roman';-inkscape-font-specification:Times-Roman;writing-mode:lr-tb;fill:#000000;fill-opacity:1;fill-rule:nonzero;stroke:none"
           transform="matrix(1,0,0,-1,122.4,526.565)"><tspan
             id="tspan56"
             y="0"
             x="0 5.7062879 14.274288 22.842287 103.61179 187.27197 195.83998 204.40797">-2000200</tspan><tspan
             id="tspan58"
             y="-24.480101"
             x="69.155899">p</tspan></text>
<text
           id="text64"
           style="font-variant:normal;font-weight:normal;font-size:12.11760044px;font-family:'Times New Roman';-inkscape-font-specification:Times-Roman;writing-mode:lr-tb;fill:#000000;fill-opacity:1;fill-rule:nonzero;stroke:none"
           transform="matrix(1,0,0,-1,200.1852,544.19041)"><tspan
             id="tspan62"
             y="0"
             x="0">x</tspan></text>
<text
           id="text68"
           style="font-variant:normal;font-weight:normal;font-size:17.13599968px;font-family:'Times New Roman';-inkscape-font-specification:Times-Roman;writing-mode:lr-tb;fill:#000000;fill-opacity:1;fill-rule:nonzero;stroke:none"
           transform="matrix(1,0,0,-1,210.46686,551.0451)"><tspan
             id="tspan66"
             y="0"
             x="0 5.7062879 20.940191 28.548576 40.920769 45.684574 53.292961">(MeV/c)</tspan></text>
</g><path
         id="path70"
         style="fill:none;stroke:#000000;stroke-width:9.18000031;stroke-linecap:butt;stroke-linejoin:miter;stroke-miterlimit:10;stroke-dasharray:none;stroke-opacity:1"
         d="M 918,3254.62 V 5202" /><path
         id="path72"
         style="fill:none;stroke:#000000;stroke-width:9.18000031;stroke-linecap:butt;stroke-linejoin:miter;stroke-miterlimit:10;stroke-dasharray:none;stroke-opacity:1"
         d="M 3683.63,3254.62 V 5202" /><path
         id="path74"
         style="fill:none;stroke:#000000;stroke-width:9.18000031;stroke-linecap:butt;stroke-linejoin:miter;stroke-miterlimit:10;stroke-dasharray:none;stroke-opacity:1"
         d="m 918,3471.27 h 61.199" /><path
         id="path76"
         style="fill:none;stroke:#000000;stroke-width:9.18000031;stroke-linecap:butt;stroke-linejoin:miter;stroke-miterlimit:10;stroke-dasharray:none;stroke-opacity:1"
         d="m 3683.63,3471.27 h -61.2" /><path
         id="path78"
         style="fill:none;stroke:#000000;stroke-width:9.18000031;stroke-linecap:butt;stroke-linejoin:miter;stroke-miterlimit:10;stroke-dasharray:none;stroke-opacity:1"
         d="m 918,3903.95 h 61.199" /><path
         id="path80"
         style="fill:none;stroke:#000000;stroke-width:9.18000031;stroke-linecap:butt;stroke-linejoin:miter;stroke-miterlimit:10;stroke-dasharray:none;stroke-opacity:1"
         d="m 3683.63,3903.95 h -61.2" /><path
         id="path82"
         style="fill:none;stroke:#000000;stroke-width:9.18000031;stroke-linecap:butt;stroke-linejoin:miter;stroke-miterlimit:10;stroke-dasharray:none;stroke-opacity:1"
         d="m 918,4336.63 h 61.199" /><path
         id="path84"
         style="fill:none;stroke:#000000;stroke-width:9.18000031;stroke-linecap:butt;stroke-linejoin:miter;stroke-miterlimit:10;stroke-dasharray:none;stroke-opacity:1"
         d="m 3683.63,4336.63 h -61.2" /><path
         id="path86"
         style="fill:none;stroke:#000000;stroke-width:9.18000031;stroke-linecap:butt;stroke-linejoin:miter;stroke-miterlimit:10;stroke-dasharray:none;stroke-opacity:1"
         d="m 918,4769.32 h 61.199" /><path
         id="path88"
         style="fill:none;stroke:#000000;stroke-width:9.18000031;stroke-linecap:butt;stroke-linejoin:miter;stroke-miterlimit:10;stroke-dasharray:none;stroke-opacity:1"
         d="m 3683.63,4769.32 h -61.2" /><path
         id="path90"
         style="fill:none;stroke:#000000;stroke-width:9.18000031;stroke-linecap:butt;stroke-linejoin:miter;stroke-miterlimit:10;stroke-dasharray:none;stroke-opacity:1"
         d="m 918,5202 h 61.199" /><path
         id="path92"
         style="fill:none;stroke:#000000;stroke-width:9.18000031;stroke-linecap:butt;stroke-linejoin:miter;stroke-miterlimit:10;stroke-dasharray:none;stroke-opacity:1"
         d="m 3683.63,5202 h -61.2" /><path
         id="path94"
         style="fill:none;stroke:#000000;stroke-width:9.18000031;stroke-linecap:butt;stroke-linejoin:miter;stroke-miterlimit:10;stroke-dasharray:none;stroke-opacity:1"
         d="m 918,3254.62 h 122.4" /><path
         id="path96"
         style="fill:none;stroke:#000000;stroke-width:9.18000031;stroke-linecap:butt;stroke-linejoin:miter;stroke-miterlimit:10;stroke-dasharray:none;stroke-opacity:1"
         d="m 3683.63,3254.62 h -122.4" /><path
         id="path98"
         style="fill:none;stroke:#000000;stroke-width:9.18000031;stroke-linecap:butt;stroke-linejoin:miter;stroke-miterlimit:10;stroke-dasharray:none;stroke-opacity:1"
         d="m 918,3687.3 h 122.4" /><path
         id="path100"
         style="fill:none;stroke:#000000;stroke-width:9.18000031;stroke-linecap:butt;stroke-linejoin:miter;stroke-miterlimit:10;stroke-dasharray:none;stroke-opacity:1"
         d="m 3683.63,3687.3 h -122.4" /><path
         id="path102"
         style="fill:none;stroke:#000000;stroke-width:9.18000031;stroke-linecap:butt;stroke-linejoin:miter;stroke-miterlimit:10;stroke-dasharray:none;stroke-opacity:1"
         d="m 918,4119.98 h 122.4" /><path
         id="path104"
         style="fill:none;stroke:#000000;stroke-width:9.18000031;stroke-linecap:butt;stroke-linejoin:miter;stroke-miterlimit:10;stroke-dasharray:none;stroke-opacity:1"
         d="m 3683.63,4119.98 h -122.4" /><path
         id="path106"
         style="fill:none;stroke:#000000;stroke-width:9.18000031;stroke-linecap:butt;stroke-linejoin:miter;stroke-miterlimit:10;stroke-dasharray:none;stroke-opacity:1"
         d="m 918,4552.67 h 122.4" /><path
         id="path108"
         style="fill:none;stroke:#000000;stroke-width:9.18000031;stroke-linecap:butt;stroke-linejoin:miter;stroke-miterlimit:10;stroke-dasharray:none;stroke-opacity:1"
         d="m 3683.63,4552.67 h -122.4" /><path
         id="path110"
         style="fill:none;stroke:#000000;stroke-width:9.18000031;stroke-linecap:butt;stroke-linejoin:miter;stroke-miterlimit:10;stroke-dasharray:none;stroke-opacity:1"
         d="m 918,4985.35 h 122.4" /><path
         id="path112"
         style="fill:none;stroke:#000000;stroke-width:9.18000031;stroke-linecap:butt;stroke-linejoin:miter;stroke-miterlimit:10;stroke-dasharray:none;stroke-opacity:1"
         d="m 3683.63,4985.35 h -122.4" /><g
         transform="scale(10)"
         id="g114"><text
           id="text126"
           style="font-variant:normal;font-weight:normal;font-size:17.13599968px;font-family:'Times New Roman';-inkscape-font-specification:Times-Roman;writing-mode:lr-tb;fill:#000000;fill-opacity:1;fill-rule:nonzero;stroke:none"
           transform="matrix(1,0,0,-1,77.5402,319.831)"><tspan
             id="tspan116"
             y="0"
             x="0">0</tspan><tspan
             id="tspan118"
             y="-44.3699"
             x="-12.9742 -4.4061999 -0.1222">0,2</tspan><tspan
             id="tspan120"
             y="-87.638298"
             x="-12.9742 -4.4061999 -0.1222">0,4</tspan><tspan
             id="tspan122"
             y="-130.78439"
             x="-12.729278 -4.1612778 0.122722">0,6</tspan><tspan
             id="tspan124"
             y="-174.175"
             x="-12.484747 -3.9167471 0.36725301">0,8</tspan></text>
<text
           id="text130"
           style="font-variant:normal;font-weight:normal;font-size:17.13599968px;font-family:'Times New Roman';-inkscape-font-specification:Times-Roman;writing-mode:lr-tb;fill:#000000;fill-opacity:1;fill-rule:nonzero;stroke:none"
           transform="matrix(0,1,1,0,51.5914,349.146)"><tspan
             id="tspan128"
             y="0"
             x="0">d</tspan></text>
<text
           id="text134"
           style="font-variant:normal;font-weight:normal;font-size:17.13599968px;font-family:Symbol;-inkscape-font-specification:Symbol;writing-mode:lr-tb;fill:#000000;fill-opacity:1;fill-rule:nonzero;stroke:none"
           transform="matrix(0,1,1,0,51.5914,357.77491)"><tspan
             id="tspan132"
             y="0"
             x="0">σ</tspan></text>
<text
           id="text138"
           style="font-variant:normal;font-weight:normal;font-size:17.13599968px;font-family:'Times New Roman';-inkscape-font-specification:Times-Roman;writing-mode:lr-tb;fill:#000000;fill-opacity:1;fill-rule:nonzero;stroke:none"
           transform="matrix(0,1,1,0,51.5914,368.11791)"><tspan
             id="tspan136"
             y="0"
             x="0 4.7638078 13.331808">/dp</tspan></text>
<text
           id="text142"
           style="font-variant:normal;font-weight:normal;font-size:12.11760044px;font-family:'Times New Roman';-inkscape-font-specification:Times-Roman;writing-mode:lr-tb;fill:#000000;fill-opacity:1;fill-rule:nonzero;stroke:none"
           transform="matrix(0,1,1,0,58.44609,389.96631)"><tspan
             id="tspan140"
             y="0"
             x="0">x</tspan></text>
<text
           id="text146"
           style="font-variant:normal;font-weight:normal;font-size:17.13599968px;font-family:'Times New Roman';-inkscape-font-specification:Times-Roman;writing-mode:lr-tb;fill:#000000;fill-opacity:1;fill-rule:nonzero;stroke:none"
           transform="matrix(0,1,1,0,51.5914,400.24797)"><tspan
             id="tspan144"
             y="0"
             x="0 5.7062879 19.038095 27.606096 32.369904 38.076191 53.310097 60.91848 73.290672 78.054482 85.662865 91.369148">(mb/(MeV/c))</tspan></text>
</g><path
         id="path148"
         style="fill:none;stroke:#000000;stroke-width:9.18000031;stroke-linecap:butt;stroke-linejoin:miter;stroke-miterlimit:10;stroke-dasharray:none;stroke-opacity:1"
         d="M 918,3254.62 V 5202 H 3683.63 V 3254.62 Z" /><path
         id="path150"
         style="fill:none;stroke:#000000;stroke-width:18.36000061;stroke-linecap:butt;stroke-linejoin:miter;stroke-miterlimit:10;stroke-dasharray:none;stroke-opacity:1"
         d="m 4235.65,3254.62 h 187.28 l 8.56,0.61 h 156.67 l 8.57,0.61 h 8.57 9.18 8.57 8.57 8.56 9.18 l 8.57,0.61 h 8.57 8.57 l 8.57,0.61 h 9.18 8.56 8.57 8.57 9.18 l 8.57,0.62 h 8.57 8.57 9.18 8.56 l 8.57,0.61 h 8.57 8.57 l 9.18,0.61 h 8.57 8.56 8.57 l 9.18,0.61 h 8.57 l 8.56,0.62 h 8.58 8.56 l 9.18,0.6 h 8.57 l 8.57,0.62 h 8.56 l 9.19,0.61 h 8.56 l 8.57,0.61 h 8.57 l 8.57,0.61 9.18,0.62 h 8.57 l 8.56,0.61 h 8.57 l 9.18,0.61 8.57,0.61 h 8.57 l 8.57,0.61 8.56,0.62 9.18,0.61 h 8.57 l 8.57,0.61 8.57,0.61 9.18,0.61 8.57,0.62 8.56,0.61 8.57,0.61 8.57,0.61 9.18,0.61 8.57,0.62 8.57,0.61 8.57,0.61 9.18,0.61 8.56,0.62 8.57,0.61 8.57,0.61 9.18,0.61 8.56,0.61 8.58,0.61 8.56,1.23 8.57,0.61 9.18,0.61 8.57,0.61 8.56,0.62 8.57,0.61 9.18,0.61 8.57,0.61 8.57,0.62 8.57,0.6 8.57,0.62 9.18,0.61 8.56,0.61 8.57,0.61 8.57,1.23 9.18,0.61 h 8.57 l 8.57,0.61 8.56,0.61 h 8.57 l 9.18,0.62 h 8.57 8.57 l 8.57,0.61 h 9.18 l 8.56,0.61 8.57,1.23 8.57,0.6 8.57,0.62 9.18,0.61 h 8.57 l 8.57,0.61 h 8.56 l 9.18,0.61 8.57,0.62 h 8.57 l 8.57,0.61 9.18,1.83 8.57,3.67 8.56,1.84 8.57,2.45 8.57,2.45 9.18,2.45 8.56,2.44 8.57,3.68 8.57,2.44 9.18,4.29 8.57,4.28 8.57,3.06 8.57,4.28 8.56,6.13 9.18,7.95 8.57,9.8 8.57,11.01 8.57,12.85 9.18,15.3 8.57,17.14 8.56,18.97 8.57,18.36 8.57,8.57 9.18,7.34 8.57,16.53 8.57,24.48 8.56,31.82 9.18,42.23 8.57,50.18 8.57,42.84 8.57,63.65 8.57,54.47 9.18,79.56 8.56,75.89 8.57,79.56 8.57,82.62 9.18,62.42 8.57,83.85 8.57,56.3 8.57,72.83 9.18,50.79 8.56,61.81 8.57,48.97 8.57,86.9 8.57,45.9 9.17,51.41 8.58,20.8 8.56,17.14 8.57,0.61 9.18,-11.62 8.57,-20.2 8.57,-37.94 8.56,-50.8 8.57,-74.05 9.18,-76.5 8.57,-66.1 8.57,-73.44 8.57,-70.38 9.18,-63.65 8.56,-67.93 8.57,-63.04 8.57,-80.17 8.57,-52.02 9.18,-73.44 8.57,-61.2 8.56,-51.41 8.57,-58.14 9.18,-42.84 8.57,-46.51 8.57,-37.33 8.57,-36.72 8.56,-32.44 9.18,-26.31 8.57,-25.71 8.57,-23.86 8.57,-20.2 9.18,-18.97 8.57,-17.75 8.57,-14.08 8.56,-12.24 9.18,-10.4 8.57,-8.57 8.57,-7.34 8.57,-7.35 8.57,-6.11 9.18,-4.9 8.56,-4.9 8.57,-3.67 8.57,-2.45 9.18,-1.83 8.56,-1.84 8.57,-1.84 8.57,-1.22 8.57,-0.61 9.18,-1.23 8.57,-0.61 8.57,-0.61 h 8.56 9.18 8.57 l 8.57,-0.61 h 8.57 l 8.57,-0.61 h 9.18 8.56 l 8.57,-0.62 h 8.57 l 9.18,-0.61 8.57,-0.61 h 8.57 l 8.56,-0.61 8.57,-0.61 9.18,-0.62 8.57,-0.61 8.57,-1.22 8.57,-0.62 9.18,-0.6 8.57,-0.62 8.56,-1.22 8.57,-0.61 9.18,-0.62 8.57,-1.22 8.57,-0.61 8.57,-1.23 8.56,-0.61 9.18,-0.61 8.57,-1.23 8.57,-0.6 8.56,-0.62 9.18,-0.61 8.57,-1.22 8.57,-0.62 8.57,-0.61 8.57,-0.61 9.18,-0.61 8.57,-0.61 8.56,-0.62 8.57,-0.61 9.18,-0.61 8.57,-0.61 8.57,-0.61 8.57,-0.61 8.56,-0.62 9.18,-0.61 8.57,-0.61 h 8.57 l 8.57,-0.61 9.18,-0.62 h 8.57 l 8.56,-0.61 8.57,-0.61 h 8.57 l 9.18,-0.61 8.57,-0.61 h 8.57 l 8.56,-0.62 h 9.19 l 8.56,-0.61 h 8.57 8.57 l 8.57,-0.61 h 9.18 8.57 l 8.56,-0.61 h 8.57 9.18 l 8.57,-0.61 h 8.57 8.57 3.05" /><path
         id="path152"
         style="fill:none;stroke:#ff0000;stroke-width:18.36000061;stroke-linecap:butt;stroke-linejoin:miter;stroke-miterlimit:10;stroke-dasharray:none;stroke-opacity:1"
         d="m 4235.65,3254.62 h 195.84 l 8.57,0.61 h 156.67 l 8.57,0.61 h 9.18 8.57 8.57 8.56 9.18 l 8.57,0.61 h 8.57 8.57 8.57 l 9.18,0.61 h 8.56 8.57 8.57 9.18 8.57 l 8.57,0.62 h 8.57 9.18 8.56 l 8.57,0.61 h 8.57 8.57 9.18 l 8.57,0.61 h 8.56 8.57 l 9.18,0.61 h 8.57 l 8.56,0.62 h 8.58 8.56 l 9.18,0.6 h 8.57 l 8.57,0.62 h 8.56 l 9.19,0.61 h 8.56 l 8.57,0.61 h 8.57 l 8.57,0.61 9.18,0.62 h 8.57 l 8.56,0.61 h 8.57 l 9.18,0.61 8.57,0.61 h 8.57 l 8.57,0.61 8.56,0.62 9.18,0.61 h 8.57 l 8.57,0.61 8.57,0.61 9.18,0.61 8.57,0.62 8.56,0.61 8.57,0.61 8.57,0.61 9.18,0.61 8.57,0.62 h 8.57 l 8.57,0.61 9.18,1.22 h 8.56 l 8.57,0.62 8.57,0.61 9.18,0.61 8.56,1.22 8.58,0.61 8.56,0.62 8.57,0.61 9.18,0.61 8.57,0.61 8.56,0.61 8.57,0.62 9.18,0.61 8.57,0.61 8.57,0.61 8.57,0.62 8.57,0.6 9.18,0.62 8.56,0.61 8.57,0.61 8.57,0.61 9.18,0.62 8.57,0.61 h 8.57 l 8.56,0.61 h 8.57 l 9.18,0.61 h 8.57 8.57 l 8.57,0.61 h 9.18 l 8.56,0.62 8.57,1.22 8.57,0.61 8.57,0.62 h 9.18 l 8.57,0.6 8.57,0.62 h 8.56 l 9.18,0.61 h 8.57 l 8.57,0.61 8.57,0.61 9.18,1.84 8.57,3.06 8.56,2.45 8.57,2.45 8.57,2.45 9.18,2.44 8.56,2.45 8.57,3.06 8.57,3.06 9.18,4.28 8.57,3.67 8.57,3.07 8.57,4.28 8.56,6.12 9.18,7.34 8.57,9.8 8.57,11.01 8.57,12.85 9.18,15.3 8.57,17.14 8.56,18.36 8.57,18.97 8.57,8.57 9.18,7.96 8.57,15.91 8.57,25.09 8.56,31.82 9.18,42.23 8.57,50.18 8.57,42.84 8.57,63.04 8.57,55.08 9.18,78.95 8.56,75.89 8.57,79.56 8.57,82.62 9.18,62.42 8.57,83.23 8.57,56.31 8.57,71.6 9.18,50.8 8.56,61.2 8.57,47.73 8.57,85.68 8.57,45.29 9.17,50.19 8.58,20.81 8.56,16.52 h 8.57 l 9.18,-11.63 8.57,-20.81 8.57,-37.94 8.56,-50.8 8.57,-74.05 9.18,-76.5 8.57,-65.48 8.57,-73.44 8.57,-70.38 9.18,-63.04 8.56,-67.32 8.57,-62.42 8.57,-79.56 8.57,-50.8 9.18,-72.21 8.57,-60.59 8.56,-50.8 8.57,-56.91 9.18,-42.24 8.57,-46.51 8.57,-36.72 8.57,-36.71 8.56,-31.83 9.18,-25.7 8.57,-25.71 8.57,-23.25 8.57,-20.2 9.18,-18.97 8.57,-17.75 8.57,-14.08 8.56,-12.24 9.18,-11.01 8.57,-7.96 8.57,-7.95 8.57,-6.74 8.57,-6.73 9.18,-5.51 8.56,-4.28 8.57,-4.28 8.57,-2.45 9.18,-2.45 8.56,-1.84 8.57,-1.22 8.57,-1.84 8.57,-1.22 9.18,-0.61 8.57,-0.61 8.57,-0.62 8.56,-0.61 h 9.18 8.57 l 8.57,-0.61 h 8.57 8.57 l 9.18,-0.61 h 8.56 l 8.57,-0.61 h 8.57 l 9.18,-0.62 h 8.57 l 8.57,-0.61 8.56,-0.61 h 8.57 l 9.18,-0.61 8.57,-0.62 8.57,-0.6 8.57,-0.62 9.18,-1.22 8.57,-0.61 8.56,-0.62 8.57,-0.61 9.18,-0.61 8.57,-0.61 8.57,-0.61 8.57,-1.23 8.56,-0.61 9.18,-0.61 8.57,-0.62 8.57,-0.6 8.56,-0.62 9.18,-1.22 8.57,-0.61 8.57,-0.62 8.57,-0.61 8.57,-0.61 9.18,-0.61 8.57,-0.61 8.56,-0.62 8.57,-0.61 9.18,-0.61 8.57,-0.61 8.57,-0.61 h 8.57 l 8.56,-0.61 9.18,-0.62 8.57,-0.61 8.57,-0.61 h 8.57 l 9.18,-0.61 8.57,-0.62 h 8.56 l 8.57,-0.61 8.57,-0.61 h 9.18 l 8.57,-0.61 h 8.57 l 8.56,-0.61 h 9.19 l 8.56,-0.62 h 8.57 l 8.57,-0.61 h 8.57 9.18 l 8.57,-0.61 h 8.56 8.57 l 9.18,-0.61 h 8.57 8.57 8.57 3.05" /><path
         id="path154"
         style="fill:none;stroke:#0000ff;stroke-width:18.36000061;stroke-linecap:butt;stroke-linejoin:miter;stroke-miterlimit:10;stroke-dasharray:none;stroke-opacity:1"
         d="m 4235.65,3255.84 h 79.56 l 20.81,0.61 h 83.84 l 21.43,0.61 h 20.8 20.81 21.42 l 20.81,0.62 h 20.81 20.81 l 21.41,0.61 h 20.81 l 20.81,0.61 h 20.81 l 21.42,0.61 h 20.81 l 20.81,0.62 h 20.8 l 21.42,0.6 20.81,0.62 20.81,0.61 h 20.81 l 21.42,0.61 20.8,0.61 20.81,1.23 21.42,0.61 20.81,0.61 20.81,0.61 20.81,1.23 21.42,0.61 20.8,0.61 20.81,1.23 20.81,1.22 21.42,0.61 20.81,1.23 20.81,1.22 21.42,1.23 20.81,1.22 20.8,1.22 20.81,1.23 21.42,1.22 20.81,0.61 20.81,1.23 20.8,1.22 21.42,1.23 20.81,1.22 20.81,0.61 20.81,1.22 21.42,1.23 20.81,1.22 20.81,1.23 20.8,1.83 21.42,2.45 20.81,3.67 20.81,4.28 21.42,4.9 20.81,7.35 20.8,8.56 20.81,11.02 21.42,13.46 20.81,18.36 20.81,23.26 20.81,29.38 21.41,37.33 20.81,47.12 20.81,58.75 21.42,72.22 20.81,88.74 20.81,108.32 20.81,129.75 21.42,148.71 20.81,160.35 20.8,161.56 20.81,145.05 21.42,103.43 20.81,42.23 20.8,-28.15 20.81,-90.58 21.43,-136.48 20.8,-160.34 20.81,-166.47 21.42,-160.95 20.81,-143.21 20.81,-121.18 20.81,-97.92 21.41,-77.72 20.81,-61.81 20.81,-47.74 20.81,-36.1 21.42,-27.55 20.81,-20.8 20.8,-14.69 20.81,-11.02 21.42,-8.57 20.81,-5.5 20.81,-4.29 21.42,-3.06 20.81,-2.45 20.8,-2.45 20.81,-1.22 21.42,-1.83 20.81,-1.23 20.81,-1.22 20.81,-1.23 21.42,-1.83 20.8,-1.22 20.81,-1.23 20.81,-1.84 21.42,-1.22 20.81,-1.22 20.81,-1.23 21.42,-1.83 20.81,-1.23 20.8,-1.22 20.81,-1.23 21.42,-1.22 20.81,-0.61 20.81,-1.23 20.8,-0.61 21.42,-1.22 20.81,-0.61 20.81,-0.62 21.42,-0.61 20.81,-0.61 20.81,-0.61 20.81,-0.61 h 3.05" /><path
         id="path156"
         style="fill:none;stroke:#000000;stroke-width:9.18000031;stroke-linecap:butt;stroke-linejoin:miter;stroke-miterlimit:10;stroke-dasharray:none;stroke-opacity:1"
         d="M 4236.27,3254.62 H 7001.89" /><path
         id="path158"
         style="fill:none;stroke:#000000;stroke-width:9.18000031;stroke-linecap:butt;stroke-linejoin:miter;stroke-miterlimit:10;stroke-dasharray:none;stroke-opacity:1"
         d="M 4236.27,5202 H 7001.89" /><path
         id="path160"
         style="fill:none;stroke:#000000;stroke-width:9.18000031;stroke-linecap:butt;stroke-linejoin:miter;stroke-miterlimit:10;stroke-dasharray:none;stroke-opacity:1"
         d="m 4789.51,3254.62 v 61.2" /><path
         id="path162"
         style="fill:none;stroke:#000000;stroke-width:9.18000031;stroke-linecap:butt;stroke-linejoin:miter;stroke-miterlimit:10;stroke-dasharray:none;stroke-opacity:1"
         d="m 4789.51,5202 v -61.2" /><path
         id="path164"
         style="fill:none;stroke:#000000;stroke-width:9.18000031;stroke-linecap:butt;stroke-linejoin:miter;stroke-miterlimit:10;stroke-dasharray:none;stroke-opacity:1"
         d="m 5896.01,3254.62 v 61.2" /><path
         id="path166"
         style="fill:none;stroke:#000000;stroke-width:9.18000031;stroke-linecap:butt;stroke-linejoin:miter;stroke-miterlimit:10;stroke-dasharray:none;stroke-opacity:1"
         d="m 5896.01,5202 v -61.2" /><path
         id="path168"
         style="fill:none;stroke:#000000;stroke-width:9.18000031;stroke-linecap:butt;stroke-linejoin:miter;stroke-miterlimit:10;stroke-dasharray:none;stroke-opacity:1"
         d="m 4236.27,3254.62 v 122.4" /><path
         id="path170"
         style="fill:none;stroke:#000000;stroke-width:9.18000031;stroke-linecap:butt;stroke-linejoin:miter;stroke-miterlimit:10;stroke-dasharray:none;stroke-opacity:1"
         d="M 4236.27,5202 V 5079.6" /><path
         id="path172"
         style="fill:none;stroke:#000000;stroke-width:9.18000031;stroke-linecap:butt;stroke-linejoin:miter;stroke-miterlimit:10;stroke-dasharray:none;stroke-opacity:1"
         d="m 5342.76,3254.62 v 122.4" /><path
         id="path174"
         style="fill:none;stroke:#000000;stroke-width:9.18000031;stroke-linecap:butt;stroke-linejoin:miter;stroke-miterlimit:10;stroke-dasharray:none;stroke-opacity:1"
         d="M 5342.76,5202 V 5079.6" /><g
         transform="scale(10)"
         id="g176"><text
           id="text182"
           style="font-variant:normal;font-weight:normal;font-size:17.13599968px;font-family:'Times New Roman';-inkscape-font-specification:Times-Roman;writing-mode:lr-tb;fill:#000000;fill-opacity:1;fill-rule:nonzero;stroke:none"
           transform="matrix(1,0,0,-1,411.08,526.565)"><tspan
             id="tspan178"
             y="0"
             x="0 8.5679998 17.136 110.5882 119.1562 127.72421">200400</tspan><tspan
             id="tspan180"
             y="-24.7246"
             x="112.669">p</tspan></text>
<text
           id="text186"
           style="font-variant:normal;font-weight:normal;font-size:12.11760044px;font-family:'Times New Roman';-inkscape-font-specification:Times-Roman;writing-mode:lr-tb;fill:#000000;fill-opacity:1;fill-rule:nonzero;stroke:none"
           transform="matrix(1,0,0,-1,532.3783,544.4353)"><tspan
             id="tspan184"
             y="0"
             x="0">z</tspan></text>
<text
           id="text190"
           style="font-variant:normal;font-weight:normal;font-size:17.13599968px;font-family:'Times New Roman';-inkscape-font-specification:Times-Roman;writing-mode:lr-tb;fill:#000000;fill-opacity:1;fill-rule:nonzero;stroke:none"
           transform="matrix(1,0,0,-1,541.98652,551.2896)"><tspan
             id="tspan188"
             y="0"
             x="0 5.7062879 20.940191 28.548576 40.920769 45.684574 53.292961">(MeV/c)</tspan></text>
</g><path
         id="path192"
         style="fill:none;stroke:#000000;stroke-width:9.18000031;stroke-linecap:butt;stroke-linejoin:miter;stroke-miterlimit:10;stroke-dasharray:none;stroke-opacity:1"
         d="M 4236.27,3254.62 V 5202" /><path
         id="path194"
         style="fill:none;stroke:#000000;stroke-width:9.18000031;stroke-linecap:butt;stroke-linejoin:miter;stroke-miterlimit:10;stroke-dasharray:none;stroke-opacity:1"
         d="m 4236.27,3471.27 h 61.19" /><path
         id="path196"
         style="fill:none;stroke:#000000;stroke-width:9.18000031;stroke-linecap:butt;stroke-linejoin:miter;stroke-miterlimit:10;stroke-dasharray:none;stroke-opacity:1"
         d="m 4236.27,3903.95 h 61.19" /><path
         id="path198"
         style="fill:none;stroke:#000000;stroke-width:9.18000031;stroke-linecap:butt;stroke-linejoin:miter;stroke-miterlimit:10;stroke-dasharray:none;stroke-opacity:1"
         d="m 4236.27,4336.63 h 61.19" /><path
         id="path200"
         style="fill:none;stroke:#000000;stroke-width:9.18000031;stroke-linecap:butt;stroke-linejoin:miter;stroke-miterlimit:10;stroke-dasharray:none;stroke-opacity:1"
         d="m 4236.27,4769.32 h 61.19" /><path
         id="path202"
         style="fill:none;stroke:#000000;stroke-width:9.18000031;stroke-linecap:butt;stroke-linejoin:miter;stroke-miterlimit:10;stroke-dasharray:none;stroke-opacity:1"
         d="m 4236.27,5202 h 61.19" /><path
         id="path204"
         style="fill:none;stroke:#000000;stroke-width:9.18000031;stroke-linecap:butt;stroke-linejoin:miter;stroke-miterlimit:10;stroke-dasharray:none;stroke-opacity:1"
         d="m 4236.27,3254.62 h 122.39" /><path
         id="path206"
         style="fill:none;stroke:#000000;stroke-width:9.18000031;stroke-linecap:butt;stroke-linejoin:miter;stroke-miterlimit:10;stroke-dasharray:none;stroke-opacity:1"
         d="m 4236.27,3687.3 h 122.39" /><path
         id="path208"
         style="fill:none;stroke:#000000;stroke-width:9.18000031;stroke-linecap:butt;stroke-linejoin:miter;stroke-miterlimit:10;stroke-dasharray:none;stroke-opacity:1"
         d="m 4236.27,4119.98 h 122.39" /><path
         id="path210"
         style="fill:none;stroke:#000000;stroke-width:9.18000031;stroke-linecap:butt;stroke-linejoin:miter;stroke-miterlimit:10;stroke-dasharray:none;stroke-opacity:1"
         d="m 4236.27,4552.67 h 122.39" /><path
         id="path212"
         style="fill:none;stroke:#000000;stroke-width:9.18000031;stroke-linecap:butt;stroke-linejoin:miter;stroke-miterlimit:10;stroke-dasharray:none;stroke-opacity:1"
         d="m 4236.27,4985.35 h 122.39" /><path
         id="path214"
         style="fill:none;stroke:#000000;stroke-width:9.18000031;stroke-linecap:butt;stroke-linejoin:miter;stroke-miterlimit:10;stroke-dasharray:none;stroke-opacity:1"
         d="M 4236.27,3254.62 V 5202 H 7001.89 V 3254.62 Z" /><path
         id="path216"
         style="fill:#ffffff;fill-opacity:1;fill-rule:nonzero;stroke:none"
         d="m 3139.56,3633.45 h 2176.27 v 812.734 H 3139.56 Z" /><path
         id="path218"
         style="fill:none;stroke:#000000;stroke-width:9.18000031;stroke-linecap:butt;stroke-linejoin:miter;stroke-miterlimit:10;stroke-dasharray:none;stroke-opacity:1"
         d="m 3139.56,4446.18 v -812.73 h 2176.27 v 812.73 z" /><g
         transform="scale(10)"
         id="g220"><text
           id="text224"
           style="font-variant:normal;font-weight:normal;font-size:17.13599968px;font-family:'Times New Roman';-inkscape-font-specification:Times-Roman;writing-mode:lr-tb;fill:#000000;fill-opacity:1;fill-rule:nonzero;stroke:none"
           transform="matrix(1,0,0,-1,357.714,420.016)"><tspan
             id="tspan222"
             y="0"
             x="0 12.372192">Vp</tspan></text>
<text
           id="text228"
           style="font-variant:normal;font-weight:normal;font-size:12.11760044px;font-family:'Times New Roman';-inkscape-font-specification:Times-Roman;writing-mode:lr-tb;fill:#000000;fill-opacity:1;fill-rule:nonzero;stroke:none"
           transform="matrix(1,0,0,-1,378.5831,430.2976)"><tspan
             id="tspan226"
             y="0"
             x="0 6.0588002">11</tspan></text>
<text
           id="text232"
           style="font-variant:normal;font-weight:normal;font-size:17.13599968px;font-family:'Times New Roman';-inkscape-font-specification:Times-Roman;writing-mode:lr-tb;fill:#000000;fill-opacity:1;fill-rule:nonzero;stroke:none"
           transform="matrix(1,0,0,-1,390.5784,420.016)"><tspan
             id="tspan230"
             y="0"
             x="0 11.429712 19.038095 23.322096 32.849712 45.221905 55.692001 68.064194">Be FOLD </tspan></text>
<text
           id="text236"
           style="font-variant:normal;font-weight:normal;font-size:17.13599968px;font-family:Symbol;-inkscape-font-specification:Symbol;writing-mode:lr-tb;fill:#000000;fill-opacity:1;fill-rule:nonzero;stroke:none"
           transform="matrix(1,0,0,-1,462.8554,420.016)"><tspan
             id="tspan234"
             y="0"
             x="0">σ</tspan></text>
<text
           id="text240"
           style="font-variant:normal;font-weight:normal;font-size:17.13599968px;font-family:'Times New Roman';-inkscape-font-specification:Times-Roman;writing-mode:lr-tb;fill:#000000;fill-opacity:1;fill-rule:nonzero;stroke:none"
           transform="matrix(1,0,0,-1,473.137,420.016)"><tspan
             id="tspan238"
             y="0"
             x="0 9.6647043 18.232704 26.800703 31.084703 44.416512">=38 mb</tspan></text>
</g><path
         id="path242"
         style="fill:none;stroke:#000000;stroke-width:18.36000061;stroke-linecap:butt;stroke-linejoin:miter;stroke-miterlimit:10;stroke-dasharray:none;stroke-opacity:1"
         d="m 3209.94,4273.6 h 244.8" /><g
         transform="scale(10)"
         id="g244"><text
           id="text248"
           style="font-variant:normal;font-weight:normal;font-size:17.13599968px;font-family:'Times New Roman';-inkscape-font-specification:Times-Roman;writing-mode:lr-tb;fill:#000000;fill-opacity:1;fill-rule:nonzero;stroke:none"
           transform="matrix(1,0,0,-1,357.714,391.619)"><tspan
             id="tspan246"
             y="0"
             x="0 12.372192">Vp</tspan></text>
<text
           id="text252"
           style="font-variant:normal;font-weight:normal;font-size:12.11760044px;font-family:'Times New Roman';-inkscape-font-specification:Times-Roman;writing-mode:lr-tb;fill:#000000;fill-opacity:1;fill-rule:nonzero;stroke:none"
           transform="matrix(1,0,0,-1,378.5831,401.9006)"><tspan
             id="tspan250"
             y="0"
             x="0 6.0588002">11</tspan></text>
<text
           id="text256"
           style="font-variant:normal;font-weight:normal;font-size:17.13599968px;font-family:'Times New Roman';-inkscape-font-specification:Times-Roman;writing-mode:lr-tb;fill:#000000;fill-opacity:1;fill-rule:nonzero;stroke:none"
           transform="matrix(1,0,0,-1,390.5784,391.619)"><tspan
             id="tspan254"
             y="0"
             x="0 11.429712 19.038095 23.322096 35.694286 48.066479">Be KD </tspan></text>
<text
           id="text260"
           style="font-variant:normal;font-weight:normal;font-size:17.13599968px;font-family:Symbol;-inkscape-font-specification:Symbol;writing-mode:lr-tb;fill:#000000;fill-opacity:1;fill-rule:nonzero;stroke:none"
           transform="matrix(1,0,0,-1,442.9042,391.619)"><tspan
             id="tspan258"
             y="0"
             x="0">σ</tspan></text>
<text
           id="text264"
           style="font-variant:normal;font-weight:normal;font-size:17.13599968px;font-family:'Times New Roman';-inkscape-font-specification:Times-Roman;writing-mode:lr-tb;fill:#000000;fill-opacity:1;fill-rule:nonzero;stroke:none"
           transform="matrix(1,0,0,-1,453.2472,391.619)"><tspan
             id="tspan262"
             y="0"
             x="0 9.6647043 18.232704 26.800703 31.084703 44.416512">=38 mb</tspan></text>
</g><path
         id="path266"
         style="fill:none;stroke:#ff0000;stroke-width:18.36000061;stroke-linecap:butt;stroke-linejoin:miter;stroke-miterlimit:10;stroke-dasharray:none;stroke-opacity:1"
         d="m 3209.94,3989.63 h 244.8" /><g
         transform="scale(10)"
         id="g268"><text
           id="text272"
           style="font-variant:normal;font-weight:normal;font-size:17.13599968px;font-family:'Times New Roman';-inkscape-font-specification:Times-Roman;writing-mode:lr-tb;fill:#000000;fill-opacity:1;fill-rule:nonzero;stroke:none"
           transform="matrix(1,0,0,-1,357.714,369.893)"><tspan
             id="tspan270"
             y="0"
             x="0 9.5276155 17.136 25.704 34.271999 41.880383 49.48877 58.056767">Faddeev </tspan></text>
<text
           id="text276"
           style="font-variant:normal;font-weight:normal;font-size:17.13599968px;font-family:Symbol;-inkscape-font-specification:Symbol;writing-mode:lr-tb;fill:#000000;fill-opacity:1;fill-rule:nonzero;stroke:none"
           transform="matrix(1,0,0,-1,420.1378,369.893)"><tspan
             id="tspan274"
             y="0"
             x="0">σ</tspan></text>
<text
           id="text280"
           style="font-variant:normal;font-weight:normal;font-size:17.13599968px;font-family:'Times New Roman';-inkscape-font-specification:Times-Roman;writing-mode:lr-tb;fill:#000000;fill-opacity:1;fill-rule:nonzero;stroke:none"
           transform="matrix(1,0,0,-1,430.4194,369.893)"><tspan
             id="tspan278"
             y="0"
             x="0 9.6647043 18.232704 26.800703 31.084703 44.416512">=39 mb</tspan></text>
</g><path
         id="path282"
         style="fill:none;stroke:#0000ff;stroke-width:18.36000061;stroke-linecap:butt;stroke-linejoin:miter;stroke-miterlimit:10;stroke-dasharray:none;stroke-opacity:1"
         d="m 3209.94,3755.84 h 244.8" /><path
         id="path284"
         style="fill:none;stroke:#0000ff;stroke-width:18.36000061;stroke-linecap:butt;stroke-linejoin:miter;stroke-miterlimit:10;stroke-dasharray:none;stroke-opacity:1"
         d="m 918,918 92.41,0.613 h 91.8 l 92.42,1.223 91.8,2.449 92.41,3.672 92.41,6.117 91.8,7.957 92.41,8.571 92.41,7.343 18.36,1.223 18.36,1.836 18.36,1.836 18.36,3.672 18.36,4.894 18.36,6.735 18.36,8.566 18.97,11.629 18.36,14.684 18.37,18.98 18.36,25.09 18.35,33.05 18.36,44.67 18.36,60.59 18.36,78.95 18.98,101.59 18.35,126.69 18.36,153 18.37,176.86 18.36,190.33 18.36,192.79 18.36,174.41 18.36,132.81 18.97,69.15 18.36,-7.34 18.36,-79.56 18.36,-135.25 18.36,-167.69 18.36,-178.7 18.36,-176.26 18.36,-164.63 18.97,-144.43 18.36,-121.17 18.36,-97.93 18.36,-78.95 18.36,-63.64 18.36,-50.19 18.36,-39.17 18.36,-30.59 18.97,-23.26 18.36,-17.75 18.36,-13.46 18.36,-9.795 18.36,-7.953 18.36,-5.508 18.36,-4.285 18.36,-3.063 18.97,-3.058 18.36,-1.836 18.36,-1.836 91.8,-5.508 92.42,-6.121 92.41,-5.508 91.8,-6.117 92.41,-4.285 92.41,-3.672 91.8,-3.063 92.41,-2.445 91.8,-1.227 92.41,-0.609 92.42,-0.613 h 0.61" /><path
         id="path286"
         style="fill:none;stroke:#000000;stroke-width:18.36000061;stroke-linecap:butt;stroke-linejoin:miter;stroke-miterlimit:10;stroke-dasharray:none;stroke-opacity:1"
         d="m 1245.42,918 h 56.92 l 4.89,3.672 h 46.51 l 4.9,0.613 h 5.51 4.89 5.51 l 4.9,0.61 h 5.51 4.89 l 4.9,0.613 h 5.51 l 4.89,0.613 h 5.51 l 4.89,0.609 h 5.51 l 4.9,0.614 h 4.9 l 5.5,0.613 4.9,0.609 h 5.51 l 4.89,0.614 5.51,0.613 h 4.9 l 4.89,0.609 h 5.51 l 4.9,0.614 5.51,0.613 4.89,0.609 h 5.51 l 4.9,0.614 4.89,0.613 5.51,0.609 4.9,0.614 5.5,0.613 h 4.9 l 5.51,0.609 4.9,0.613 4.89,0.614 5.51,0.609 4.9,0.613 5.5,0.614 4.9,0.613 5.51,0.609 4.89,0.614 4.9,0.613 5.51,0.609 4.89,0.614 5.51,0.613 4.9,0.609 5.51,0.613 4.89,0.614 4.89,0.609 5.51,0.613 4.9,1.223 5.51,0.613 4.89,0.614 5.51,0.609 4.9,0.613 4.89,0.614 5.51,0.609 h 4.9 l 5.51,0.613 4.89,0.614 5.51,0.609 h 4.89 l 4.9,0.613 5.51,0.613 4.9,0.61 5.5,0.613 4.9,0.613 5.51,0.61 4.89,0.613 h 4.9 l 5.51,0.613 h 4.9 5.5 4.9 l 5.51,0.61 h 4.89 4.9 5.51 4.89 l 5.51,0.613 4.9,1.223 5.5,0.613 4.9,0.613 4.9,0.61 h 5.51 4.89 l 5.51,0.613 h 4.89 5.51 l 4.9,0.613 h 4.89 5.51 l 4.9,0.61 5.51,0.613 4.89,2.449 5.51,1.836 4.9,2.445 4.89,1.836 5.51,1.836 4.89,1.84 5.51,1.836 4.9,1.836 5.51,2.445 4.89,1.836 4.9,3.063 5.51,2.445 4.89,3.672 5.51,3.062 4.9,4.282 5.5,2.445 4.9,3.06 4.9,4.29 5.51,5.51 4.89,6.73 5.51,7.95 4.9,8.57 5.5,9.79 4.9,11.02 4.9,12.24 5.5,13.46 4.9,14.69 5.51,15.91 4.9,17.14 5.5,13.46 h 4.9 l 4.9,5.51 5.5,10.4 4.9,15.92 5.51,20.19 4.89,24.48 5.51,28.77 4.9,33.05 5.5,36.11 4.9,39.77 4.9,42.23 5.51,44.68 4.89,47.73 5.51,49.57 4.89,56.31 5.51,66.1 4.9,64.25 4.89,62.43 5.51,60.59 4.9,58.14 5.51,56.3 4.89,54.47 5.51,52.02 4.9,49.57 4.89,47.13 5.51,44.67 4.89,42.23 5.51,39.78 4.9,36.72 5.51,47.74 4.89,55.69 4.9,47.74 5.51,39.16 4.89,31.21 5.51,23.87 4.9,17.14 5.5,10.4 4.9,3.67 4.9,-2.44 5.51,-8.57 4.89,-13.46 5.51,-18.98 4.9,-23.86 5.5,-27.55 4.9,-44.67 4.9,-53.24 5.5,-52.64 4.9,-52.63 5.51,-51.41 4.9,-51.41 5.5,-50.79 4.9,-49.57 4.89,-49.57 5.51,-48.35 4.9,-47.74 5.51,-47.13 4.89,-46.51 5.51,-45.28 4.9,-44.07 4.89,-47.73 5.51,-47.74 4.9,-45.29 5.51,-43.45 4.89,-41 5.51,-39.78 4.89,-36.72 4.9,-35.5 5.51,-33.66 4.89,-31.82 5.51,-29.99 4.9,-28.15 5.51,-26.93 4.89,-25.09 4.9,-23.87 5.51,-20.81 4.89,-18.97 5.51,-18.98 4.9,-17.13 5.5,-16.53 4.9,-15.29 4.9,-14.69 5.5,-13.46 4.9,-12.25 5.51,-12.24 4.89,-11.01 5.51,-10.41 4.9,-9.18 4.9,-9.18 5.5,-7.95 4.9,-6.12 5.51,-6.12 4.89,-5.51 5.51,-4.89 4.9,-4.9 4.89,-4.29 5.51,-4.28 4.9,-3.671 5.5,-3.672 4.9,-3.062 5.51,-3.059 4.9,-2.449 4.89,-2.445 5.51,-2.449 4.89,-1.836 5.51,-1.223 4.9,-1.227 5.51,-1.222 4.89,-0.614 4.9,-1.222 5.51,-0.614 4.89,-0.613 5.51,-0.609 4.9,-0.613 5.51,-0.614 4.89,-0.609 4.89,-0.613 h 5.51 l 4.9,-0.614 h 5.51 4.89 l 5.51,-0.609 h 4.9 4.89 5.51 4.9 5.5 4.9 l 5.51,-0.613 h 4.9 4.89 5.51 l 4.9,-0.614 h 5.5 4.9 l 5.51,-0.609 h 4.89 4.9 l 5.51,-0.613 h 4.9 l 5.5,-0.614 h 4.9 l 5.51,-0.609 h 4.89 l 4.9,-0.613 h 5.51 l 4.89,-0.613 h 5.51 l 4.9,-0.61 5.5,-0.613 h 4.9 l 4.9,-0.613 5.51,-0.61 h 4.89 l 5.51,-0.613 4.89,-0.613 h 5.51 l 4.9,-0.61 4.89,-0.613 h 5.51 l 4.9,-0.613 5.51,-0.61 4.89,-0.613 h 5.51 l 4.89,-0.613 5.52,-0.61 4.89,-0.613 h 4.9 l 5.5,-0.613 4.9,-0.61 h 5.51 l 4.89,-0.613 5.51,-0.613 4.9,-0.609 h 4.89 l 5.51,-0.614 4.9,-0.613 h 5.5 l 4.9,-0.609 5.51,-0.614 h 4.9 l 4.89,-0.613 5.51,-0.609 h 4.9 l 5.5,-0.614 h 4.9 l 5.51,-0.613 4.89,-0.609 h 4.9 l 5.51,-0.614 h 4.9 l 5.5,-0.613 h 4.9 l 5.51,-0.609 4.89,-0.614 h 4.9 l 5.51,-0.613 h 4.89 l 5.51,-0.609 h 4.9 l 5.51,-0.613 h 4.89 l 4.9,-0.614 h 5.51 l 4.89,-0.609 h 5.51 l 4.89,-0.613 h 5.51 4.9 l 4.89,-0.614 h 5.51 l 4.9,-0.609 h 5.51 l 4.89,-0.613 h 5.51 l 4.89,-0.614 h 4.9 5.51 l 4.9,-0.613 h 5.5 l 4.9,-0.609 h 5.51 4.89 l 4.9,-0.614 h 5.51 4.89 l 5.51,-0.613 h 4.9 5.5 l 4.9,-0.609 h 4.9 5.51 l 4.89,-0.613 h 5.51 4.9 l 5.5,-0.614 h 4.9 4.9 5.5 l 4.9,-0.609 h 5.51 4.9 l 5.5,-0.613 h 4.9 4.89 5.51 4.9 l 5.51,-0.614 h 4.89 5.51 4.9 l 4.89,-0.609 h 5.51 4.89 5.52 4.89 l 5.51,-0.613 h 4.89 4.9 5.51 4.89 5.51 l 4.9,-0.614 h 5.51 4.89 4.9 5.5 4.9 l 5.51,-0.609 h 4.9 5.5 4.9 4.9 5.5 l 4.9,-0.613 h 5.51 4.89 5.51 4.9 4.9 5.5 4.9 l 5.51,-0.614 h 4.89 5.51 4.9 4.89 5.51 4.9 5.51 l 4.89,-0.609 h 5.51 4.9 4.89 5.51 4.89 5.51 4.9 l 5.51,2.445 4.89,3.063 4.9,2.445 5.51,1.227 4.89,1.222 5.51,0.614 h 4.89 l 5.51,-0.614 4.9,-0.613 4.9,-1.223 5.5,-1.222 4.9,-1.836 5.51,-1.227 4.89,-2.445 5.51,-1.836 4.9,-1.836 4.89,-1.836 5.51,-1.836 h 4.9 l 5.5,4.281 h 4.9 5.51 4.9 5.5 4.9 l 4.9,-0.609 h 5.5 l 4.9,-1.226 5.51,-2.446 3.67,2.446" /><path
         id="path288"
         style="fill:none;stroke:#ff0000;stroke-width:18.36000061;stroke-linecap:butt;stroke-linejoin:miter;stroke-miterlimit:10;stroke-dasharray:none;stroke-opacity:1"
         d="m 1245.42,918 h 56.92 l 4.89,2.449 h 10.41 l 4.89,0.61 h 5.51 4.9 5.51 4.89 l 5.51,0.613 h 4.89 4.9 l 5.51,0.613 h 4.89 5.51 l 4.9,0.61 h 5.51 4.89 l 4.9,0.613 h 5.51 l 4.89,0.613 h 5.51 l 4.89,0.609 h 5.51 l 4.9,0.614 h 4.9 l 5.5,0.613 4.9,0.609 h 5.51 l 4.89,0.614 h 5.51 l 4.9,0.613 4.89,0.609 h 5.51 l 4.9,0.614 5.51,0.613 4.89,0.609 h 5.51 l 4.9,0.614 4.89,0.613 5.51,0.609 4.9,0.614 h 5.5 l 4.9,0.613 5.51,0.609 4.9,0.613 4.89,0.614 5.51,0.609 4.9,0.613 5.5,0.614 4.9,0.613 5.51,0.609 4.89,0.614 4.9,0.613 5.51,0.609 4.89,0.614 5.51,0.613 4.9,0.609 5.51,0.613 h 4.89 l 4.89,0.614 5.51,1.222 4.9,0.614 5.51,0.609 4.89,0.613 5.51,0.614 4.9,0.609 4.89,0.613 h 5.51 l 4.9,0.614 5.51,0.609 4.89,0.613 h 5.51 l 4.89,0.614 h 4.9 l 5.51,0.609 4.9,0.613 5.5,0.613 4.9,0.61 5.51,0.613 4.89,0.613 h 4.9 l 5.51,0.61 h 4.9 5.5 4.9 l 5.51,0.613 h 4.89 4.9 5.51 4.89 l 5.51,0.613 4.9,1.223 5.5,0.613 4.9,0.61 4.9,0.613 h 5.51 l 4.89,0.613 h 5.51 4.89 5.51 l 4.9,0.61 h 4.89 l 5.51,0.613 h 4.9 l 5.51,0.613 4.89,2.445 5.51,2.45 4.9,1.836 4.89,2.449 5.51,1.836 4.89,1.836 5.51,1.836 4.9,1.836 5.51,1.836 4.89,2.449 4.9,2.445 5.51,3.063 4.89,3.058 5.51,3.672 4.9,3.672 5.5,1.838 4.9,3.67 4.9,4.28 5.51,4.9 4.89,6.73 5.51,7.35 4.9,8.56 5.5,10.41 4.9,11.02 4.9,12.23 5.5,13.47 4.9,14.69 5.51,15.91 4.9,17.13 5.5,13.47 h 4.9 l 4.9,5.51 5.5,10.4 4.9,15.91 5.51,20.81 4.89,24.48 5.51,28.76 4.9,33.05 5.5,36.11 4.9,39.17 4.9,42.84 5.51,44.67 4.89,47.13 5.51,49.57 4.89,56.3 5.51,66.1 4.9,64.26 4.89,62.42 5.51,59.98 4.9,58.75 5.51,55.7 4.89,53.85 5.51,52.02 4.9,48.96 4.89,47.12 5.51,44.07 4.89,41.61 5.51,39.17 4.9,36.72 5.51,46.52 4.89,54.46 4.9,46.52 5.51,38.55 4.89,30.6 5.51,23.87 4.9,15.91 5.5,9.79 4.9,3.06 4.9,-2.44 5.51,-8.57 4.89,-14.08 5.51,-18.97 4.9,-23.87 5.5,-28.15 4.9,-44.68 4.9,-53.24 5.5,-52.63 4.9,-52.63 5.51,-51.41 4.9,-51.41 5.5,-50.18 4.9,-49.58 4.89,-48.96 5.51,-48.35 4.9,-47.73 5.51,-46.51 4.89,-45.9 5.51,-44.68 4.9,-44.06 4.89,-47.13 5.51,-46.51 4.9,-44.68 5.51,-42.84 4.89,-40.39 5.51,-38.55 4.89,-36.72 4.9,-34.89 5.51,-33.04 4.89,-31.22 5.51,-29.99 4.9,-27.54 5.51,-26.31 4.89,-25.09 4.9,-23.26 5.51,-20.2 4.89,-19.58 5.51,-17.75 4.9,-17.13 5.5,-16.53 4.9,-14.69 4.9,-14.68 5.5,-13.47 4.9,-12.24 5.51,-11.63 4.89,-11.01 5.51,-10.41 4.9,-9.18 4.9,-9.18 5.5,-7.95 4.9,-6.12 5.51,-6.12 4.89,-5.51 5.51,-4.89 4.9,-4.9 4.89,-4.29 5.51,-4.28 4.9,-3.671 5.5,-3.672 4.9,-3.062 5.51,-3.059 4.9,-3.058 4.89,-2.45 5.51,-2.449 4.89,-1.836 5.51,-1.222 4.9,-1.223 5.51,-1.227 4.89,-1.222 4.9,-0.614 5.51,-1.222 4.89,-0.613 5.51,-0.614 4.9,-1.222 5.51,-0.614 4.89,-0.609 h 4.89 l 5.51,-0.613 4.9,-0.614 h 5.51 l 4.89,-0.609 h 5.51 4.9 4.89 5.51 l 4.9,-0.613 h 5.5 4.9 5.51 l 4.9,-0.614 h 4.89 5.51 l 4.9,-0.609 h 5.5 4.9 5.51 l 4.89,-0.613 h 4.9 5.51 l 4.9,-0.613 h 5.5 4.9 l 5.51,-0.61 h 4.89 l 4.9,-0.613 h 5.51 l 4.89,-0.613 h 5.51 l 4.9,-0.61 h 5.5 l 4.9,-0.613 4.9,-0.613 h 5.51 l 4.89,-0.61 h 5.51 l 4.89,-0.613 5.51,-0.613 h 4.9 l 4.89,-0.61 5.51,-0.613 h 4.9 l 5.51,-0.613 4.89,-0.61 h 5.51 l 4.89,-0.613 h 5.52 l 4.89,-0.613 4.9,-0.61 h 5.5 l 4.9,-0.613 5.51,-0.613 h 4.89 l 5.51,-0.609 h 4.9 l 4.89,-0.614 5.51,-0.613 h 4.9 l 5.5,-0.609 h 4.9 l 5.51,-0.614 4.9,-0.613 h 4.89 l 5.51,-0.609 h 4.9 l 5.5,-0.614 h 4.9 l 5.51,-0.613 4.89,-0.609 h 4.9 l 5.51,-0.614 h 4.9 l 5.5,-0.613 h 4.9 l 5.51,-0.609 h 4.89 l 4.9,-0.614 h 5.51 l 4.89,-0.613 h 5.51 l 4.9,-0.609 h 5.51 l 4.89,-0.613 h 4.9 l 5.51,-0.614 h 4.89 l 5.51,-0.609 h 4.89 5.51 l 4.9,-0.613 h 4.89 l 5.51,-0.614 h 4.9 l 5.51,-0.609 h 4.89 5.51 l 4.89,-0.613 h 4.9 l 5.51,-0.614 h 4.9 5.5 l 4.9,-0.613 h 5.51 4.89 l 4.9,-0.609 h 5.51 l 4.89,-0.614 h 5.51 4.9 l 5.5,-0.613 h 4.9 4.9 l 5.51,-0.609 h 4.89 5.51 4.9 l 5.5,-0.613 h 4.9 4.9 l 5.5,-0.614 h 4.9 5.51 4.9 l 5.5,-0.609 h 4.9 4.89 5.51 l 4.9,-0.613 h 5.51 4.89 5.51 4.9 l 4.89,-0.614 h 5.51 4.89 5.52 4.89 l 5.51,-0.609 h 4.89 4.9 5.51 4.89 l 5.51,-0.613 h 4.9 5.51 4.89 4.9 5.5 l 4.9,-0.614 h 5.51 4.9 5.5 l 4.9,-0.609 h 4.9 5.5 4.9 5.51 4.89 5.51 l 4.9,-0.613 h 4.9 5.5 4.9 5.51 4.89 5.51 l 4.9,-0.614 h 4.89 5.51 4.9 5.51 4.89 5.51 4.9 4.89 5.51 4.89 l 5.51,-0.609 h 4.9 l 5.51,2.445 4.89,3.063 4.9,2.445 5.51,1.836 4.89,0.613 5.51,0.614 h 4.89 5.51 l 4.9,-1.227 4.9,-0.609 5.5,-1.836 4.9,-1.227 5.51,-1.836 4.89,-1.836 5.51,-2.445 4.9,-1.836 4.89,-1.836 5.51,-1.836 4.9,-0.613 5.5,4.894 h 4.9 5.51 4.9 5.5 4.9 l 4.9,-0.609 h 5.5 l 4.9,-1.836 5.51,-1.836 3.67,2.446" /><path
         id="path290"
         style="fill:none;stroke:#000000;stroke-width:9.18000031;stroke-linecap:butt;stroke-linejoin:miter;stroke-miterlimit:10;stroke-dasharray:none;stroke-opacity:1"
         d="M 918,918 H 3683.63" /><path
         id="path292"
         style="fill:none;stroke:#000000;stroke-width:9.18000031;stroke-linecap:butt;stroke-linejoin:miter;stroke-miterlimit:10;stroke-dasharray:none;stroke-opacity:1"
         d="M 918,2865.38 H 3683.63" /><path
         id="path294"
         style="fill:none;stroke:#000000;stroke-width:9.18000031;stroke-linecap:butt;stroke-linejoin:miter;stroke-miterlimit:10;stroke-dasharray:none;stroke-opacity:1"
         d="m 1378.84,918 v 61.199" /><path
         id="path296"
         style="fill:none;stroke:#000000;stroke-width:9.18000031;stroke-linecap:butt;stroke-linejoin:miter;stroke-miterlimit:10;stroke-dasharray:none;stroke-opacity:1"
         d="m 1378.84,2865.38 v -61.2" /><path
         id="path298"
         style="fill:none;stroke:#000000;stroke-width:9.18000031;stroke-linecap:butt;stroke-linejoin:miter;stroke-miterlimit:10;stroke-dasharray:none;stroke-opacity:1"
         d="m 2300.51,918 v 61.199" /><path
         id="path300"
         style="fill:none;stroke:#000000;stroke-width:9.18000031;stroke-linecap:butt;stroke-linejoin:miter;stroke-miterlimit:10;stroke-dasharray:none;stroke-opacity:1"
         d="m 2300.51,2865.38 v -61.2" /><path
         id="path302"
         style="fill:none;stroke:#000000;stroke-width:9.18000031;stroke-linecap:butt;stroke-linejoin:miter;stroke-miterlimit:10;stroke-dasharray:none;stroke-opacity:1"
         d="m 3222.79,918 v 61.199" /><path
         id="path304"
         style="fill:none;stroke:#000000;stroke-width:9.18000031;stroke-linecap:butt;stroke-linejoin:miter;stroke-miterlimit:10;stroke-dasharray:none;stroke-opacity:1"
         d="m 3222.79,2865.38 v -61.2" /><path
         id="path306"
         style="fill:none;stroke:#000000;stroke-width:9.18000031;stroke-linecap:butt;stroke-linejoin:miter;stroke-miterlimit:10;stroke-dasharray:none;stroke-opacity:1"
         d="m 918,918 v 122.4" /><path
         id="path308"
         style="fill:none;stroke:#000000;stroke-width:9.18000031;stroke-linecap:butt;stroke-linejoin:miter;stroke-miterlimit:10;stroke-dasharray:none;stroke-opacity:1"
         d="m 918,2865.38 v -122.4" /><path
         id="path310"
         style="fill:none;stroke:#000000;stroke-width:9.18000031;stroke-linecap:butt;stroke-linejoin:miter;stroke-miterlimit:10;stroke-dasharray:none;stroke-opacity:1"
         d="m 1839.67,918 v 122.4" /><path
         id="path312"
         style="fill:none;stroke:#000000;stroke-width:9.18000031;stroke-linecap:butt;stroke-linejoin:miter;stroke-miterlimit:10;stroke-dasharray:none;stroke-opacity:1"
         d="m 1839.67,2865.38 v -122.4" /><path
         id="path314"
         style="fill:none;stroke:#000000;stroke-width:9.18000031;stroke-linecap:butt;stroke-linejoin:miter;stroke-miterlimit:10;stroke-dasharray:none;stroke-opacity:1"
         d="m 2761.34,918 v 122.4" /><path
         id="path316"
         style="fill:none;stroke:#000000;stroke-width:9.18000031;stroke-linecap:butt;stroke-linejoin:miter;stroke-miterlimit:10;stroke-dasharray:none;stroke-opacity:1"
         d="m 2761.34,2865.38 v -122.4" /><path
         id="path318"
         style="fill:none;stroke:#000000;stroke-width:9.18000031;stroke-linecap:butt;stroke-linejoin:miter;stroke-miterlimit:10;stroke-dasharray:none;stroke-opacity:1"
         d="m 3683.63,918 v 122.4" /><path
         id="path320"
         style="fill:none;stroke:#000000;stroke-width:9.18000031;stroke-linecap:butt;stroke-linejoin:miter;stroke-miterlimit:10;stroke-dasharray:none;stroke-opacity:1"
         d="m 3683.63,2865.38 v -122.4" /><g
         transform="scale(10)"
         id="g322"><text
           id="text328"
           style="font-variant:normal;font-weight:normal;font-size:17.13599968px;font-family:'Times New Roman';-inkscape-font-specification:Times-Roman;writing-mode:lr-tb;fill:#000000;fill-opacity:1;fill-rule:nonzero;stroke:none"
           transform="matrix(1,0,0,-1,87.6996,74.1742)"><tspan
             id="tspan324"
             y="0"
             x="0 87.883179 96.451172 180.05035 188.61835 272.21753 280.78552">0102030</tspan><tspan
             id="tspan326"
             y="17.8703"
             x="89.107002">E</tspan></text>
<text
           id="text332"
           style="font-variant:normal;font-weight:normal;font-size:8.56799984px;font-family:'Times New Roman';-inkscape-font-specification:Times-Roman;writing-mode:lr-tb;fill:#000000;fill-opacity:1;fill-rule:nonzero;stroke:none"
           transform="matrix(1,0,0,-1,187.3332,56.671088)"><tspan
             id="tspan330"
             y="0"
             x="0 4.2839999">10</tspan></text>
<text
           id="text336"
           style="font-variant:normal;font-weight:normal;font-size:12.11760044px;font-family:'Times New Roman';-inkscape-font-specification:Times-Roman;writing-mode:lr-tb;fill:#000000;fill-opacity:1;fill-rule:nonzero;stroke:none"
           transform="matrix(1,0,0,-1,195.9625,49.449608)"><tspan
             id="tspan334"
             y="0"
             x="0 8.0824394 13.462653 16.492054 21.872269 24.901669 34.329163">Be c.m.</tspan></text>
<text
           id="text340"
           style="font-variant:normal;font-weight:normal;font-size:17.13599968px;font-family:'Times New Roman';-inkscape-font-specification:Times-Roman;writing-mode:lr-tb;fill:#000000;fill-opacity:1;fill-rule:nonzero;stroke:none"
           transform="matrix(1,0,0,-1,237.7008,56.303908)"><tspan
             id="tspan338"
             y="0"
             x="0 5.7062879 20.940191 28.548576 40.920769">(MeV)</tspan></text>
</g><path
         id="path342"
         style="fill:none;stroke:#000000;stroke-width:9.18000031;stroke-linecap:butt;stroke-linejoin:miter;stroke-miterlimit:10;stroke-dasharray:none;stroke-opacity:1"
         d="M 918,918 V 2865.38" /><path
         id="path344"
         style="fill:none;stroke:#000000;stroke-width:9.18000031;stroke-linecap:butt;stroke-linejoin:miter;stroke-miterlimit:10;stroke-dasharray:none;stroke-opacity:1"
         d="M 3683.63,918 V 2865.38" /><path
         id="path346"
         style="fill:none;stroke:#000000;stroke-width:9.18000031;stroke-linecap:butt;stroke-linejoin:miter;stroke-miterlimit:10;stroke-dasharray:none;stroke-opacity:1"
         d="m 918,1242.36 h 61.199" /><path
         id="path348"
         style="fill:none;stroke:#000000;stroke-width:9.18000031;stroke-linecap:butt;stroke-linejoin:miter;stroke-miterlimit:10;stroke-dasharray:none;stroke-opacity:1"
         d="m 3683.63,1242.36 h -61.2" /><path
         id="path350"
         style="fill:none;stroke:#000000;stroke-width:9.18000031;stroke-linecap:butt;stroke-linejoin:miter;stroke-miterlimit:10;stroke-dasharray:none;stroke-opacity:1"
         d="m 918,1891.69 h 61.199" /><path
         id="path352"
         style="fill:none;stroke:#000000;stroke-width:9.18000031;stroke-linecap:butt;stroke-linejoin:miter;stroke-miterlimit:10;stroke-dasharray:none;stroke-opacity:1"
         d="m 3683.63,1891.69 h -61.2" /><path
         id="path354"
         style="fill:none;stroke:#000000;stroke-width:9.18000031;stroke-linecap:butt;stroke-linejoin:miter;stroke-miterlimit:10;stroke-dasharray:none;stroke-opacity:1"
         d="m 918,2541.02 h 61.199" /><path
         id="path356"
         style="fill:none;stroke:#000000;stroke-width:9.18000031;stroke-linecap:butt;stroke-linejoin:miter;stroke-miterlimit:10;stroke-dasharray:none;stroke-opacity:1"
         d="m 3683.63,2541.02 h -61.2" /><path
         id="path358"
         style="fill:none;stroke:#000000;stroke-width:9.18000031;stroke-linecap:butt;stroke-linejoin:miter;stroke-miterlimit:10;stroke-dasharray:none;stroke-opacity:1"
         d="m 918,918 h 122.4" /><path
         id="path360"
         style="fill:none;stroke:#000000;stroke-width:9.18000031;stroke-linecap:butt;stroke-linejoin:miter;stroke-miterlimit:10;stroke-dasharray:none;stroke-opacity:1"
         d="m 3683.63,918 h -122.4" /><path
         id="path362"
         style="fill:none;stroke:#000000;stroke-width:9.18000031;stroke-linecap:butt;stroke-linejoin:miter;stroke-miterlimit:10;stroke-dasharray:none;stroke-opacity:1"
         d="m 918,1567.33 h 122.4" /><path
         id="path364"
         style="fill:none;stroke:#000000;stroke-width:9.18000031;stroke-linecap:butt;stroke-linejoin:miter;stroke-miterlimit:10;stroke-dasharray:none;stroke-opacity:1"
         d="m 3683.63,1567.33 h -122.4" /><path
         id="path366"
         style="fill:none;stroke:#000000;stroke-width:9.18000031;stroke-linecap:butt;stroke-linejoin:miter;stroke-miterlimit:10;stroke-dasharray:none;stroke-opacity:1"
         d="m 918,2216.05 h 122.4" /><path
         id="path368"
         style="fill:none;stroke:#000000;stroke-width:9.18000031;stroke-linecap:butt;stroke-linejoin:miter;stroke-miterlimit:10;stroke-dasharray:none;stroke-opacity:1"
         d="m 3683.63,2216.05 h -122.4" /><path
         id="path370"
         style="fill:none;stroke:#000000;stroke-width:9.18000031;stroke-linecap:butt;stroke-linejoin:miter;stroke-miterlimit:10;stroke-dasharray:none;stroke-opacity:1"
         d="m 918,2865.38 h 122.4" /><path
         id="path372"
         style="fill:none;stroke:#000000;stroke-width:9.18000031;stroke-linecap:butt;stroke-linejoin:miter;stroke-miterlimit:10;stroke-dasharray:none;stroke-opacity:1"
         d="m 3683.63,2865.38 h -122.4" /><g
         transform="scale(10)"
         id="g374"><text
           id="text384"
           style="font-variant:normal;font-weight:normal;font-size:17.13599968px;font-family:'Times New Roman';-inkscape-font-specification:Times-Roman;writing-mode:lr-tb;fill:#000000;fill-opacity:1;fill-rule:nonzero;stroke:none"
           transform="matrix(1,0,0,-1,77.5402,86.1695)"><tspan
             id="tspan376"
             y="0"
             x="0">0</tspan><tspan
             id="tspan378"
             y="-64.749603"
             x="0.67343801">5</tspan><tspan
             id="tspan380"
             y="-129.8055"
             x="-8.6902323 -0.122232">10</tspan><tspan
             id="tspan382"
             y="-194.616"
             x="-7.9558568 0.61214298">15</tspan></text>
<text
           id="text388"
           style="font-variant:normal;font-weight:normal;font-size:17.13599968px;font-family:'Times New Roman';-inkscape-font-specification:Times-Roman;writing-mode:lr-tb;fill:#000000;fill-opacity:1;fill-rule:nonzero;stroke:none"
           transform="matrix(0,1,1,0,55.6922,106.488)"><tspan
             id="tspan386"
             y="0"
             x="0">d</tspan></text>
<text
           id="text392"
           style="font-variant:normal;font-weight:normal;font-size:17.13599968px;font-family:Symbol;-inkscape-font-specification:Symbol;writing-mode:lr-tb;fill:#000000;fill-opacity:1;fill-rule:nonzero;stroke:none"
           transform="matrix(0,1,1,0,55.6922,115.1173)"><tspan
             id="tspan390"
             y="0"
             x="0">σ</tspan></text>
<text
           id="text396"
           style="font-variant:normal;font-weight:normal;font-size:17.13599968px;font-family:'Times New Roman';-inkscape-font-specification:Times-Roman;writing-mode:lr-tb;fill:#000000;fill-opacity:1;fill-rule:nonzero;stroke:none"
           transform="matrix(0,1,1,0,55.6922,125.4603)"><tspan
             id="tspan394"
             y="0"
             x="0 4.7638078 13.331808">/dE</tspan></text>
<text
           id="text400"
           style="font-variant:normal;font-weight:normal;font-size:8.56799984px;font-family:'Times New Roman';-inkscape-font-specification:Times-Roman;writing-mode:lr-tb;fill:#000000;fill-opacity:1;fill-rule:nonzero;stroke:none"
           transform="matrix(0,1,1,0,55.263684,149.2056)"><tspan
             id="tspan398"
             y="0"
             x="0 4.2839999">10</tspan></text>
<text
           id="text404"
           style="font-variant:normal;font-weight:normal;font-size:12.11760044px;font-family:'Times New Roman';-inkscape-font-specification:Times-Roman;writing-mode:lr-tb;fill:#000000;fill-opacity:1;fill-rule:nonzero;stroke:none"
           transform="matrix(0,1,1,0,62.546494,157.8349)"><tspan
             id="tspan402"
             y="0"
             x="0 8.0824394 13.462653 16.492054 21.872269 24.901669 34.329163">Be c.m.</tspan></text>
<text
           id="text408"
           style="font-variant:normal;font-weight:normal;font-size:17.13599968px;font-family:'Times New Roman';-inkscape-font-specification:Times-Roman;writing-mode:lr-tb;fill:#000000;fill-opacity:1;fill-rule:nonzero;stroke:none"
           transform="matrix(0,1,1,0,55.692194,199.5732)"><tspan
             id="tspan406"
             y="0"
             x="0 5.7062879 19.038095 27.606096 32.369904 47.603809 55.212193 67.584381">(mb/MeV)</tspan></text>
</g><path
         id="path410"
         style="fill:none;stroke:#000000;stroke-width:9.18000031;stroke-linecap:butt;stroke-linejoin:miter;stroke-miterlimit:10;stroke-dasharray:none;stroke-opacity:1"
         d="M 918,918 V 2865.38 H 3683.63 V 918 Z" /><path
         id="path412"
         style="fill:none;stroke:#0000ff;stroke-width:18.36000061;stroke-linecap:butt;stroke-linejoin:miter;stroke-miterlimit:10;stroke-dasharray:none;stroke-opacity:1"
         d="m 4236.27,2622.42 69.15,-49.57 69.16,-140.76 69.15,-207.47 69.16,-241.74 69.15,-242.96 69.16,-218.49 69.16,-179.31 69.15,-135.87 69.16,-96.08 69.15,-63.65 69.16,-41.62 69.16,-26.31 69.15,-16.527 69.16,-11.016 69.16,-7.344 69.15,-5.508 69.16,-4.285 69.15,-2.445 69.16,-1.836 69.15,-1.227 69.16,-0.609 h 69.16 69.15 l 69.16,-0.613 h 69.15 l 69.16,-0.614 h 69.16 l 69.15,-0.609 h 69.16 l 69.16,-0.613 h 68.54 l 69.15,-0.614 h 69.16 l 69.16,-0.609 h 69.15 l 69.16,-0.613 69.16,-0.613 69.15,-0.61 h 69.15 l 69.16,-0.613 h 0.61" /><path
         id="path414"
         style="fill:none;stroke:#000000;stroke-width:18.36000061;stroke-linecap:butt;stroke-linejoin:miter;stroke-miterlimit:10;stroke-dasharray:none;stroke-opacity:1"
         d="m 4236.27,2825.61 28.15,-10.41 27.54,-30.6 27.54,-50.8 27.54,-67.32 27.54,-83.23 28.15,-96.08 27.54,-105.88 27.54,-112.61 27.54,-115.66 27.54,-116.89 28.15,-115.06 27.54,-111.39 27.54,-104.65 27.54,-98.53 27.54,-89.35 27.54,-81.4 28.15,-72.82 27.54,-63.65 27.54,-55.69 27.54,-48.36 27.54,-41.61 28.15,-34.89 27.54,-29.98 27.55,-25.09 27.53,-20.81 27.54,-17.75 28.16,-15.3 27.53,-12.851 27.55,-10.406 27.54,-9.18 27.54,-7.957 27.53,-6.117 28.16,-6.121 27.54,-4.895 27.54,-4.285 27.54,-3.672 27.54,-3.058 28.15,-3.063 27.54,-2.449 27.54,-1.836 27.54,-1.222 27.54,-1.836 28.15,-0.614 27.54,-1.222 27.54,-0.614 h 27.54 l 27.54,-0.609 27.54,-0.613 h 28.15 27.54 27.55 l 27.53,-0.614 h 27.54 28.16 27.54 27.53 27.55 l 27.54,-0.609 h 28.15 27.54 27.54 27.54 27.54 27.54 28.15 27.54 27.54 27.54 l 27.54,-0.613 h 28.15 27.54 27.54 27.54 27.54 l 28.16,-0.614 h 27.53 27.54 l 27.54,-0.609 h 27.55 27.53 l 28.16,-0.613 h 27.54 27.54 27.54 l 27.54,-0.613 h 28.15 27.54 l 27.54,-0.61 h 27.54 27.54 27.54 28.15 l 27.54,-0.613 h 27.54 27.54 27.54 28.15 l 27.54,-0.613 h 27.54 27.54 0.61" /><path
         id="path416"
         style="fill:none;stroke:#ff0000;stroke-width:18.36000061;stroke-linecap:butt;stroke-linejoin:miter;stroke-miterlimit:10;stroke-dasharray:none;stroke-opacity:1"
         d="m 4236.27,2826.83 28.15,-10.4 27.54,-31.22 27.54,-50.18 27.54,-67.93 27.54,-83.24 28.15,-96.08 27.54,-105.88 27.54,-111.99 27.54,-116.28 27.54,-116.9 28.15,-115.66 27.54,-110.77 27.54,-105.27 27.54,-98.53 27.54,-89.96 27.54,-81.4 28.15,-72.83 27.54,-64.26 27.54,-55.69 27.54,-48.35 27.54,-41.62 28.15,-34.88 27.54,-29.99 27.55,-25.09 27.53,-21.42 27.54,-17.74 28.16,-15.31 27.53,-12.237 27.55,-11.016 27.54,-8.566 27.54,-7.957 27.53,-6.731 28.16,-5.508 27.54,-4.898 27.54,-4.281 27.54,-3.672 27.54,-3.063 28.15,-3.058 27.54,-1.836 27.54,-2.449 27.54,-1.223 27.54,-1.227 28.15,-1.222 27.54,-0.614 27.54,-0.609 27.54,-0.613 h 27.54 l 27.54,-0.614 h 28.15 27.54 27.55 l 27.53,-0.609 h 27.54 28.16 27.54 27.53 27.55 27.54 28.15 27.54 27.54 27.54 l 27.54,-0.613 h 27.54 28.15 27.54 27.54 27.54 27.54 28.15 27.54 27.54 27.54 l 27.54,-0.614 h 28.16 27.53 27.54 l 27.54,-0.609 h 27.55 27.53 l 28.16,-0.613 h 27.54 27.54 l 27.54,-0.613 h 27.54 28.15 27.54 l 27.54,-0.61 h 27.54 27.54 27.54 28.15 l 27.54,-0.613 h 27.54 27.54 27.54 28.15 l 27.54,-0.613 h 27.54 27.54 0.61" /><path
         id="path418"
         style="fill:none;stroke:#000000;stroke-width:9.18000031;stroke-linecap:butt;stroke-linejoin:miter;stroke-miterlimit:10;stroke-dasharray:none;stroke-opacity:1"
         d="M 4236.27,918 H 7001.89" /><path
         id="path420"
         style="fill:none;stroke:#000000;stroke-width:9.18000031;stroke-linecap:butt;stroke-linejoin:miter;stroke-miterlimit:10;stroke-dasharray:none;stroke-opacity:1"
         d="M 4236.27,2865.38 H 7001.89" /><path
         id="path422"
         style="fill:none;stroke:#000000;stroke-width:9.18000031;stroke-linecap:butt;stroke-linejoin:miter;stroke-miterlimit:10;stroke-dasharray:none;stroke-opacity:1"
         d="m 4582.04,918 v 61.199" /><path
         id="path424"
         style="fill:none;stroke:#000000;stroke-width:9.18000031;stroke-linecap:butt;stroke-linejoin:miter;stroke-miterlimit:10;stroke-dasharray:none;stroke-opacity:1"
         d="m 4582.04,2865.38 v -61.2" /><path
         id="path426"
         style="fill:none;stroke:#000000;stroke-width:9.18000031;stroke-linecap:butt;stroke-linejoin:miter;stroke-miterlimit:10;stroke-dasharray:none;stroke-opacity:1"
         d="m 5273.61,918 v 61.199" /><path
         id="path428"
         style="fill:none;stroke:#000000;stroke-width:9.18000031;stroke-linecap:butt;stroke-linejoin:miter;stroke-miterlimit:10;stroke-dasharray:none;stroke-opacity:1"
         d="m 5273.61,2865.38 v -61.2" /><path
         id="path430"
         style="fill:none;stroke:#000000;stroke-width:9.18000031;stroke-linecap:butt;stroke-linejoin:miter;stroke-miterlimit:10;stroke-dasharray:none;stroke-opacity:1"
         d="m 4236.27,918 v 122.4" /><path
         id="path432"
         style="fill:none;stroke:#000000;stroke-width:9.18000031;stroke-linecap:butt;stroke-linejoin:miter;stroke-miterlimit:10;stroke-dasharray:none;stroke-opacity:1"
         d="m 4236.27,2865.38 v -122.4" /><path
         id="path434"
         style="fill:none;stroke:#000000;stroke-width:9.18000031;stroke-linecap:butt;stroke-linejoin:miter;stroke-miterlimit:10;stroke-dasharray:none;stroke-opacity:1"
         d="m 4927.82,918 v 122.4" /><path
         id="path436"
         style="fill:none;stroke:#000000;stroke-width:9.18000031;stroke-linecap:butt;stroke-linejoin:miter;stroke-miterlimit:10;stroke-dasharray:none;stroke-opacity:1"
         d="m 4927.82,2865.38 v -122.4" /><path
         id="path438"
         style="fill:none;stroke:#000000;stroke-width:9.18000031;stroke-linecap:butt;stroke-linejoin:miter;stroke-miterlimit:10;stroke-dasharray:none;stroke-opacity:1"
         d="m 5619.38,918 v 122.4" /><path
         id="path440"
         style="fill:none;stroke:#000000;stroke-width:9.18000031;stroke-linecap:butt;stroke-linejoin:miter;stroke-miterlimit:10;stroke-dasharray:none;stroke-opacity:1"
         d="m 5619.38,2865.38 v -122.4" /><g
         transform="scale(10)"
         id="g442"><text
           id="text450"
           style="font-variant:normal;font-weight:normal;font-size:17.13599968px;font-family:'Times New Roman';-inkscape-font-specification:Times-Roman;writing-mode:lr-tb;fill:#000000;fill-opacity:1;fill-rule:nonzero;stroke:none"
           transform="matrix(1,0,0,-1,419.587,74.1742)"><tspan
             id="tspan444"
             y="0"
             x="0">0</tspan><tspan
             id="tspan446"
             y="0.24453101"
             x="69.462097">5</tspan><tspan
             id="tspan448"
             y="0"
             x="133.9668 142.53481">10</tspan></text>
<text
           id="text454"
           style="font-variant:normal;font-weight:normal;font-size:17.13599968px;font-family:Symbol;-inkscape-font-specification:Symbol;writing-mode:lr-tb;fill:#000000;fill-opacity:1;fill-rule:nonzero;stroke:none"
           transform="matrix(1,0,0,-1,537.703,55.8144)"><tspan
             id="tspan452"
             y="0"
             x="0">θ</tspan></text>
<text
           id="text458"
           style="font-variant:normal;font-weight:normal;font-size:17.13599968px;font-family:'Times New Roman';-inkscape-font-specification:Times-Roman;writing-mode:lr-tb;fill:#000000;fill-opacity:1;fill-rule:nonzero;stroke:none"
           transform="matrix(1,0,0,-1,550.86122,55.8144)"><tspan
             id="tspan456"
             y="0"
             x="0 5.7062879 14.274288 21.882671 30.450672">(deg)</tspan></text>
</g><path
         id="path460"
         style="fill:none;stroke:#000000;stroke-width:9.18000031;stroke-linecap:butt;stroke-linejoin:miter;stroke-miterlimit:10;stroke-dasharray:none;stroke-opacity:1"
         d="M 4236.27,918 V 2865.38" /><path
         id="path462"
         style="fill:none;stroke:#000000;stroke-width:9.18000031;stroke-linecap:butt;stroke-linejoin:miter;stroke-miterlimit:10;stroke-dasharray:none;stroke-opacity:1"
         d="m 4236.27,1161.57 h 61.19" /><path
         id="path464"
         style="fill:none;stroke:#000000;stroke-width:9.18000031;stroke-linecap:butt;stroke-linejoin:miter;stroke-miterlimit:10;stroke-dasharray:none;stroke-opacity:1"
         d="m 4236.27,1648.12 h 61.19" /><path
         id="path466"
         style="fill:none;stroke:#000000;stroke-width:9.18000031;stroke-linecap:butt;stroke-linejoin:miter;stroke-miterlimit:10;stroke-dasharray:none;stroke-opacity:1"
         d="m 4236.27,2135.27 h 61.19" /><path
         id="path468"
         style="fill:none;stroke:#000000;stroke-width:9.18000031;stroke-linecap:butt;stroke-linejoin:miter;stroke-miterlimit:10;stroke-dasharray:none;stroke-opacity:1"
         d="m 4236.27,2621.81 h 61.19" /><path
         id="path470"
         style="fill:none;stroke:#000000;stroke-width:9.18000031;stroke-linecap:butt;stroke-linejoin:miter;stroke-miterlimit:10;stroke-dasharray:none;stroke-opacity:1"
         d="m 4236.27,918 h 122.39" /><path
         id="path472"
         style="fill:none;stroke:#000000;stroke-width:9.18000031;stroke-linecap:butt;stroke-linejoin:miter;stroke-miterlimit:10;stroke-dasharray:none;stroke-opacity:1"
         d="m 4236.27,1404.54 h 122.39" /><path
         id="path474"
         style="fill:none;stroke:#000000;stroke-width:9.18000031;stroke-linecap:butt;stroke-linejoin:miter;stroke-miterlimit:10;stroke-dasharray:none;stroke-opacity:1"
         d="m 4236.27,1891.69 h 122.39" /><path
         id="path476"
         style="fill:none;stroke:#000000;stroke-width:9.18000031;stroke-linecap:butt;stroke-linejoin:miter;stroke-miterlimit:10;stroke-dasharray:none;stroke-opacity:1"
         d="m 4236.27,2378.23 h 122.39" /><path
         id="path478"
         style="fill:none;stroke:#000000;stroke-width:9.18000031;stroke-linecap:butt;stroke-linejoin:miter;stroke-miterlimit:10;stroke-dasharray:none;stroke-opacity:1"
         d="m 4236.27,2865.38 h 122.39" /><path
         id="path480"
         style="fill:none;stroke:#000000;stroke-width:9.18000031;stroke-linecap:butt;stroke-linejoin:miter;stroke-miterlimit:10;stroke-dasharray:none;stroke-opacity:1"
         d="M 4236.27,918 V 2865.38 H 7001.89 V 918 Z" /></g></g></svg>