<?xml version="1.0" encoding="UTF-8" standalone="no"?>
<svg
   xmlns:dc="http://purl.org/dc/elements/1.1/"
   xmlns:cc="http://creativecommons.org/ns#"
   xmlns:rdf="http://www.w3.org/1999/02/22-rdf-syntax-ns#"
   xmlns:svg="http://www.w3.org/2000/svg"
   xmlns="http://www.w3.org/2000/svg"
   viewBox="0 0 793.33331 1122.6667"
   height="1122.6667"
   width="793.33331"
   xml:space="preserve"
   id="svg2"
   version="1.1"><metadata
     id="metadata8"><rdf:RDF><cc:Work
         rdf:about=""><dc:format>image/svg+xml</dc:format><dc:type
           rdf:resource="http://purl.org/dc/dcmitype/StillImage" /></cc:Work></rdf:RDF></metadata><defs
     id="defs6" /><g
     transform="matrix(1.3333333,0,0,-1.3333333,0,1122.6667)"
     id="g10"><g
       transform="scale(0.1)"
       id="g12"><path
         id="path14"
         style="fill:#ffffff;fill-opacity:1;fill-rule:nonzero;stroke:none"
         d="M 0,0 H 7919.89 V 6120 H 0 Z" /><path
         id="path16"
         style="fill:none;stroke:#000000;stroke-width:18.36000061;stroke-linecap:butt;stroke-linejoin:miter;stroke-miterlimit:10;stroke-dasharray:none;stroke-opacity:1"
         d="m 917.387,3254.62 h 34.273 l 17.746,0.61 h 53.244 l 17.75,0.61 h 17.75 17.74 l 17.75,0.61 h 17.75 l 17.75,0.61 h 17.75 l 17.75,0.62 17.74,0.61 17.75,0.61 17.75,0.61 17.75,0.62 17.75,0.6 17.75,0.62 17.74,0.61 17.75,1.22 17.75,0.62 17.75,1.22 17.74,1.22 17.75,1.23 17.75,1.83 17.75,1.23 17.75,1.83 17.75,1.84 17.74,1.84 17.75,2.44 17.75,2.45 17.75,2.45 17.74,3.06 17.75,3.06 17.75,3.67 17.75,3.67 17.75,4.9 17.75,4.9 17.74,5.5 17.75,6.74 17.75,6.73 17.74,8.57 17.75,9.18 17.75,10.4 17.75,11.63 17.75,13.46 17.75,15.3 17.74,16.53 17.75,18.97 17.75,22.03 17.75,24.48 17.74,28.15 17.75,31.83 17.75,36.1 17.75,39.78 17.75,44.68 17.75,48.96 17.74,53.24 17.75,58.14 17.75,62.43 17.75,67.93 17.75,74.05 17.75,79.56 17.74,86.29 17.75,91.81 17.75,94.24 17.75,94.86 17.74,90.58 17.75,80.78 17.75,66.1 17.75,48.96 17.75,32.43 17.75,17.14 17.74,7.96 17.75,1.22 h 17.75 17.75 l 17.74,-1.22 17.75,-7.96 17.75,-17.14 17.75,-32.43 17.75,-48.96 17.74,-66.1 17.75,-80.78 17.75,-90.58 17.75,-94.86 17.74,-94.24 17.75,-91.81 17.75,-86.29 17.75,-79.56 17.75,-74.05 17.75,-67.93 17.74,-63.04 17.75,-57.53 17.75,-53.24 18.36,-48.96 17.75,-44.68 17.74,-39.78 17.75,-36.1 17.75,-31.83 17.75,-28.15 17.75,-24.48 17.75,-22.03 17.74,-18.97 17.75,-16.53 17.75,-15.3 17.75,-13.46 17.74,-11.63 17.75,-10.4 17.75,-9.18 17.75,-8.57 17.75,-6.73 17.75,-6.74 17.74,-5.5 17.75,-4.9 17.75,-4.9 17.75,-3.67 17.75,-3.67 17.75,-3.06 17.74,-3.06 17.75,-2.45 17.75,-2.45 17.75,-2.44 17.74,-1.84 17.75,-1.84 17.75,-1.83 17.75,-1.23 17.75,-1.83 17.75,-1.23 17.74,-1.22 17.75,-1.22 17.75,-0.62 17.75,-1.22 17.74,-0.61 17.75,-0.62 17.75,-0.6 17.75,-0.62 17.75,-0.61 17.75,-0.61 17.74,-0.61 17.75,-0.62 h 17.75 l 17.74,-0.61 h 17.75 l 17.75,-0.61 h 17.75 17.75 l 17.75,-0.61 h 17.74 17.75 17.75 l 17.75,-0.61 h 17.74 16.53" /><path
         id="path18"
         style="fill:none;stroke:#ff0000;stroke-width:18.36000061;stroke-linecap:butt;stroke-linejoin:miter;stroke-miterlimit:10;stroke-dasharray:none;stroke-opacity:1"
         d="m 917.387,3254.62 h 15.301 l 17.75,0.61 h 70.992 l 17.75,0.61 h 17.75 17.74 l 17.75,0.61 h 17.75 l 17.75,0.61 17.74,0.62 h 17.75 l 17.75,0.61 17.75,0.61 17.75,0.61 17.74,0.62 17.75,0.6 17.75,0.62 17.75,0.61 18.36,1.22 17.75,0.62 17.74,1.22 17.75,1.22 17.75,1.23 17.75,1.83 17.75,1.23 17.74,1.83 17.75,1.84 17.75,2.45 17.75,2.45 17.74,2.44 17.75,3.07 17.75,3.67 17.75,3.67 17.75,4.28 17.75,4.9 17.74,5.51 17.75,6.73 17.75,7.34 17.75,7.96 17.74,9.18 17.75,11.01 17.75,11.63 17.75,14.08 17.75,14.69 17.75,17.13 17.74,18.36 17.75,21.42 17.75,23.87 18.36,27.54 17.75,30.6 17.74,34.27 17.75,39.17 17.75,43.45 17.75,47.74 17.75,52.02 17.75,56.92 17.74,61.2 17.75,65.48 17.75,70.99 17.75,76.5 17.75,82.62 17.75,89.35 17.74,96.09 17.75,100.98 17.75,103.42 17.75,102.82 17.74,96.69 17.75,86.3 17.75,71.6 17.75,53.25 17.75,34.27 17.75,19.58 17.74,8.57 17.75,2.45 h 17.75 17.75 l 17.74,-2.45 17.75,-8.57 17.75,-19.58 18.36,-34.27 17.75,-53.25 17.75,-71.6 17.75,-86.3 17.74,-96.69 17.75,-102.82 17.75,-103.42 17.75,-100.98 17.74,-96.09 17.75,-89.35 17.75,-82.62 17.75,-76.5 17.75,-70.99 17.75,-65.48 17.74,-61.2 17.75,-56.92 17.75,-52.02 17.74,-47.74 17.75,-43.45 17.75,-39.17 17.75,-34.27 17.75,-30.6 17.75,-27.54 17.74,-23.87 17.75,-21.42 17.75,-18.36 17.75,-17.13 17.74,-14.69 17.75,-14.08 17.75,-11.63 18.36,-11.01 17.75,-9.18 17.75,-7.96 17.75,-7.34 17.74,-6.73 17.75,-5.51 17.75,-4.9 17.75,-4.28 17.74,-3.67 17.75,-3.67 17.75,-3.07 17.75,-2.44 17.75,-2.45 17.75,-2.45 17.74,-1.84 17.75,-1.83 17.75,-1.23 17.75,-1.83 17.75,-1.23 17.75,-1.22 17.74,-1.22 17.75,-0.62 17.75,-1.22 17.75,-0.61 17.74,-0.62 17.75,-0.6 17.75,-0.62 17.75,-0.61 17.75,-0.61 17.75,-0.61 h 18.35 l 17.75,-0.62 17.75,-0.61 h 17.75 l 17.75,-0.61 h 17.74 17.75 l 17.75,-0.61 h 17.75 17.75 17.75 17.74 l 17.75,-0.61 h 15.3" /><path
         id="path20"
         style="fill:none;stroke:#0000ff;stroke-width:18.36000061;stroke-linecap:butt;stroke-linejoin:miter;stroke-miterlimit:10;stroke-dasharray:none;stroke-opacity:1"
         d="m 917.387,3261.96 0.613,0.61 h 18.359 l 4.899,0.61 h 4.281 4.899 l 4.281,0.62 h 4.898 4.281 4.899 l 4.281,0.61 h 4.899 4.285 l 4.894,0.61 h 4.285 4.895 l 4.894,0.61 h 4.29 4.89 l 4.29,0.61 h 4.89 4.29 l 4.89,0.62 h 4.28 4.9 l 4.28,0.61 h 4.9 l 4.29,0.61 h 4.89 4.29 l 4.89,0.61 h 4.9 l 4.28,0.61 h 4.9 l 4.28,0.62 h 4.9 l 4.28,0.61 h 4.9 4.28 l 4.9,0.61 h 4.28 l 4.9,0.61 h 4.28 l 4.9,0.61 4.28,0.62 h 4.9 l 4.28,0.61 h 4.9 l 4.89,0.61 h 4.29 l 4.89,0.61 h 4.29 l 4.9,0.62 4.28,0.61 h 4.9 l 4.28,0.61 4.9,0.61 h 4.28 l 4.9,0.61 4.28,0.61 h 4.89 l 4.29,0.62 4.89,0.61 h 4.9 l 4.28,0.61 4.9,0.61 4.28,0.61 h 4.9 l 4.28,0.62 4.9,0.61 4.28,0.61 4.9,0.61 4.28,0.62 h 4.9 l 4.28,0.6 4.9,0.62 4.28,0.61 4.9,0.61 4.29,0.61 4.89,0.62 4.89,0.61 4.29,0.61 4.89,0.61 4.29,0.61 4.89,0.62 4.29,0.61 4.9,0.61 4.28,0.61 4.9,0.62 4.28,1.22 4.9,0.61 4.28,0.61 4.9,0.61 4.28,0.62 4.9,0.61 4.89,1.22 4.29,0.61 4.89,0.62 4.29,0.61 4.89,1.22 4.29,0.61 4.89,0.61 4.29,1.23 4.89,0.61 4.29,1.23 4.89,0.61 4.28,0.61 4.9,1.23 4.28,0.61 4.9,1.22 4.29,0.61 4.89,1.23 4.9,1.22 4.28,0.61 4.9,1.23 4.28,1.22 4.9,0.61 4.28,1.23 4.9,1.22 4.28,1.22 4.9,1.23 4.28,1.22 4.9,1.23 4.28,1.22 4.9,1.23 4.28,1.22 4.9,1.22 4.89,1.23 4.29,1.22 4.89,1.22 4.29,1.84 4.89,1.23 4.29,1.22 4.89,1.83 4.29,1.23 4.9,1.83 4.28,1.23 4.9,1.83 4.28,1.23 4.9,1.83 4.28,1.84 4.9,1.23 4.28,1.83 4.89,1.84 4.9,1.83 4.28,1.84 4.9,1.84 4.28,1.83 4.9,1.84 4.28,1.83 4.9,1.84 4.28,1.84 4.9,2.44 4.28,1.84 4.9,2.45 4.28,1.83 4.9,2.45 4.28,2.45 4.9,1.84 4.9,2.44 4.28,2.45 4.9,2.45 4.28,2.45 4.89,2.44 4.29,3.06 4.89,2.45 4.29,2.45 4.89,3.06 4.29,2.45 4.9,3.06 4.28,3.06 4.9,3.06 4.28,3.06 4.9,3.06 4.28,3.06 4.9,3.67 4.89,3.06 4.29,3.67 4.89,3.67 4.29,3.67 4.89,3.68 4.29,3.67 4.89,3.67 4.29,4.29 4.89,3.67 4.29,4.28 4.89,4.29 4.29,4.89 4.89,4.29 4.28,4.89 4.9,4.29 4.9,5.5 4.28,4.9 4.9,4.9 4.28,5.51 4.9,5.5 4.28,6.12 4.9,5.51 4.28,6.12 4.9,6.12 4.28,6.73 4.9,6.74 4.28,6.73 4.9,6.73 4.28,7.34 4.9,7.35 4.28,7.34 4.9,7.95 4.89,7.96 4.29,7.96 4.89,8.57 4.29,8.57 4.89,8.56 4.29,9.18 4.89,9.18 4.29,9.18 4.89,9.79 4.29,9.8 4.9,10.4 4.28,9.79 4.9,10.4 4.28,11.02 4.9,11.02 4.89,11.02 4.29,11.01 4.89,11.63 4.28,12.24 4.9,12.24 4.28,12.24 4.9,12.24 4.28,13.46 4.9,12.85 4.28,13.47 4.9,14.08 4.28,14.07 4.9,14.69 4.28,15.3 4.9,15.3 4.28,15.91 4.9,15.91 4.9,16.53 4.28,17.13 4.9,17.75 4.28,17.75 4.9,18.36 4.28,18.97 4.89,18.97 4.29,20.2 4.89,20.2 4.29,20.8 4.89,20.81 4.29,22.03 4.9,22.03 4.28,22.04 4.9,22.64 4.89,23.25 4.29,23.26 4.89,23.26 4.29,23.87 4.89,23.86 4.29,23.26 4.89,23.87 4.29,23.25 4.89,23.87 4.29,22.65 4.89,22.64 4.29,22.64 4.89,21.43 4.29,21.41 4.89,20.2 4.29,19.59 4.89,18.97 4.9,17.74 4.28,17.14 4.9,15.91 4.28,15.3 4.9,14.08 4.28,12.85 4.9,11.63 4.28,11.02 4.9,9.79 4.28,8.57 4.9,7.95 4.28,6.73 4.9,5.51 4.28,5.51 4.9,4.28 4.89,3.68 4.29,3.05 4.89,2.45 4.29,1.84 4.89,1.22 4.29,1.22 4.89,1.23 4.29,0.61 4.89,0.61 h 4.29 4.89 l 4.29,0.62 4.89,-0.62 h 4.29 4.9 l 4.28,-0.61 4.9,-0.61 4.89,-1.23 4.29,-1.22 4.89,-1.22 4.29,-1.84 4.89,-2.45 4.28,-3.05 4.9,-3.68 4.28,-4.28 4.9,-5.51 4.28,-5.51 4.9,-6.73 4.28,-7.95 4.9,-8.57 4.28,-9.79 4.9,-11.02 4.9,-11.63 4.28,-12.85 4.9,-14.08 4.28,-15.3 4.9,-15.91 4.28,-17.14 4.9,-17.74 4.28,-18.97 4.9,-19.59 4.28,-20.2 4.89,-21.41 4.29,-21.43 4.89,-22.64 4.29,-22.64 4.89,-22.65 4.29,-23.87 4.9,-23.25 4.89,-23.87 4.29,-23.26 4.89,-23.86 4.29,-23.87 4.89,-23.26 4.29,-23.26 4.89,-23.25 4.29,-22.64 4.89,-22.04 4.29,-22.03 4.89,-22.03 4.29,-20.81 4.89,-20.8 4.29,-20.2 4.89,-20.2 4.9,-18.97 4.28,-18.97 4.9,-18.36 4.28,-17.75 4.9,-17.75 4.28,-17.13 4.9,-16.53 4.28,-15.91 4.9,-15.91 4.28,-15.3 4.9,-15.3 4.28,-14.69 4.9,-14.07 4.28,-14.08 4.9,-13.47 4.28,-12.85 4.9,-13.46 4.89,-12.24 4.29,-12.24 4.89,-12.24 4.29,-12.24 4.89,-11.63 4.29,-11.01 4.89,-11.02 4.29,-11.02 4.89,-11.02 4.29,-10.4 4.89,-9.79 4.29,-10.4 4.89,-9.8 4.29,-9.79 4.89,-9.18 4.9,-9.18 4.29,-9.18 4.89,-8.56 4.29,-8.57 4.89,-8.57 4.29,-7.96 4.89,-7.96 4.29,-7.95 4.89,-7.34 4.28,-7.35 4.9,-7.34 4.28,-6.73 4.9,-6.73 4.28,-6.74 4.9,-6.73 4.28,-6.12 4.9,-6.12 4.9,-5.51 4.28,-6.12 4.9,-5.5 4.28,-5.51 4.9,-4.9 4.28,-4.9 4.9,-5.5 4.28,-4.29 4.9,-4.89 4.28,-4.29 4.9,-4.89 4.28,-4.29 4.89,-4.28 4.29,-3.67 4.89,-4.29 4.9,-3.67 4.28,-3.67 4.9,-3.68 4.29,-3.67 4.89,-3.67 4.29,-3.67 4.89,-3.06 4.29,-3.67 4.89,-3.06 4.29,-3.06 4.89,-3.06 4.29,-3.06 4.89,-3.06 4.29,-3.06 4.89,-2.45 4.29,-3.06 4.89,-2.45 4.9,-2.45 4.28,-3.06 4.9,-2.44 4.28,-2.45 4.9,-2.45 4.28,-2.45 4.9,-2.44 4.28,-1.84 4.9,-2.45 4.28,-2.45 4.9,-1.83 4.28,-2.45 4.9,-1.84 4.28,-2.44 4.9,-1.84 4.9,-1.84 4.28,-1.83 4.89,-1.84 4.29,-1.83 4.89,-1.84 4.29,-1.84 4.89,-1.83 4.29,-1.84 4.89,-1.83 4.29,-1.23 4.89,-1.84 4.29,-1.83 4.89,-1.23 4.29,-1.83 4.89,-1.23 4.29,-1.83 4.89,-1.23 4.9,-1.83 4.28,-1.22 4.9,-1.23 4.29,-1.84 4.89,-1.22 4.29,-1.22 4.89,-1.23 4.29,-1.22 4.89,-1.22 4.29,-1.23 4.89,-1.22 4.28,-1.23 4.9,-1.22 4.28,-1.23 4.9,-1.22 4.9,-1.22 4.28,-1.23 4.9,-0.61 4.28,-1.22 4.9,-1.23 4.28,-0.61 4.9,-1.22 4.28,-1.23 4.9,-0.61 4.28,-1.22 4.9,-0.61 4.28,-1.23 4.9,-0.61 4.28,-0.61 4.9,-1.23 4.28,-0.61 4.89,-1.23 4.9,-0.61 4.28,-0.61 4.9,-1.22 4.28,-0.61 4.9,-0.62 4.29,-0.61 4.89,-1.22 4.29,-0.61 4.89,-0.62 4.29,-0.61 4.89,-0.61 4.29,-0.61 4.89,-1.22 4.29,-0.62 4.89,-0.61 4.9,-0.61 4.28,-0.61 4.9,-0.62 4.28,-0.61 4.9,-0.61 4.28,-0.61 4.9,-0.61 4.28,-0.62 4.9,-0.61 4.28,-0.61 4.9,-0.61 4.28,-0.62 4.9,-0.6 h 4.28 l 4.9,-0.62 4.28,-0.61 4.9,-0.61 4.9,-0.61 4.28,-0.62 h 4.9 l 4.28,-0.61 4.89,-0.61 4.29,-0.61 h 4.89 l 4.29,-0.61 4.89,-0.62 h 4.29 l 4.89,-0.61 4.29,-0.61 h 4.89 l 4.29,-0.61 4.89,-0.61 h 4.9 l 4.28,-0.61 4.9,-0.62 h 4.28 l 4.9,-0.61 h 4.28 l 4.9,-0.61 h 4.29 l 4.89,-0.61 h 4.29 l 4.89,-0.62 4.29,-0.61 h 4.89 l 4.29,-0.61 h 4.89 l 4.28,-0.61 h 4.9 4.9 l 4.28,-0.61 h 4.9 l 4.28,-0.62 h 4.9 l 4.28,-0.61 h 4.9 l 4.28,-0.61 h 4.9 4.28 l 4.9,-0.61 h 4.28 l 4.9,-0.61 h 4.28 4.9 l 4.89,-0.62 h 4.29 4.89 l 4.28,-0.61 h 4.9 4.28 l 4.9,-0.61 h 4.28 4.9 l 4.29,-0.61 h 4.89 4.29 l 4.89,-0.61 h 4.29 4.89 4.29 l 4.89,-0.62 h 4.9 4.28 l 4.9,-0.61 h 4.28 4.9 4.28 4.9 l 0.61,-0.61" /><path
         id="path22"
         style="fill:none;stroke:#000000;stroke-width:9.18000031;stroke-linecap:butt;stroke-linejoin:miter;stroke-miterlimit:10;stroke-dasharray:none;stroke-opacity:1"
         d="M 918,3254.62 H 3683.63" /><path
         id="path24"
         style="fill:none;stroke:#000000;stroke-width:9.18000031;stroke-linecap:butt;stroke-linejoin:miter;stroke-miterlimit:10;stroke-dasharray:none;stroke-opacity:1"
         d="M 918,5202 H 3683.63" /><path
         id="path26"
         style="fill:none;stroke:#000000;stroke-width:9.18000031;stroke-linecap:butt;stroke-linejoin:miter;stroke-miterlimit:10;stroke-dasharray:none;stroke-opacity:1"
         d="m 918,3254.62 v 61.2" /><path
         id="path28"
         style="fill:none;stroke:#000000;stroke-width:9.18000031;stroke-linecap:butt;stroke-linejoin:miter;stroke-miterlimit:10;stroke-dasharray:none;stroke-opacity:1"
         d="m 918,5202 v -61.2" /><path
         id="path30"
         style="fill:none;stroke:#000000;stroke-width:9.18000031;stroke-linecap:butt;stroke-linejoin:miter;stroke-miterlimit:10;stroke-dasharray:none;stroke-opacity:1"
         d="m 1839.67,3254.62 v 61.2" /><path
         id="path32"
         style="fill:none;stroke:#000000;stroke-width:9.18000031;stroke-linecap:butt;stroke-linejoin:miter;stroke-miterlimit:10;stroke-dasharray:none;stroke-opacity:1"
         d="m 1839.67,5202 v -61.2" /><path
         id="path34"
         style="fill:none;stroke:#000000;stroke-width:9.18000031;stroke-linecap:butt;stroke-linejoin:miter;stroke-miterlimit:10;stroke-dasharray:none;stroke-opacity:1"
         d="m 2761.34,3254.62 v 61.2" /><path
         id="path36"
         style="fill:none;stroke:#000000;stroke-width:9.18000031;stroke-linecap:butt;stroke-linejoin:miter;stroke-miterlimit:10;stroke-dasharray:none;stroke-opacity:1"
         d="m 2761.34,5202 v -61.2" /><path
         id="path38"
         style="fill:none;stroke:#000000;stroke-width:9.18000031;stroke-linecap:butt;stroke-linejoin:miter;stroke-miterlimit:10;stroke-dasharray:none;stroke-opacity:1"
         d="m 3683.63,3254.62 v 61.2" /><path
         id="path40"
         style="fill:none;stroke:#000000;stroke-width:9.18000031;stroke-linecap:butt;stroke-linejoin:miter;stroke-miterlimit:10;stroke-dasharray:none;stroke-opacity:1"
         d="m 3683.63,5202 v -61.2" /><path
         id="path42"
         style="fill:none;stroke:#000000;stroke-width:9.18000031;stroke-linecap:butt;stroke-linejoin:miter;stroke-miterlimit:10;stroke-dasharray:none;stroke-opacity:1"
         d="m 1378.84,3254.62 v 122.4" /><path
         id="path44"
         style="fill:none;stroke:#000000;stroke-width:9.18000031;stroke-linecap:butt;stroke-linejoin:miter;stroke-miterlimit:10;stroke-dasharray:none;stroke-opacity:1"
         d="M 1378.84,5202 V 5079.6" /><path
         id="path46"
         style="fill:none;stroke:#000000;stroke-width:9.18000031;stroke-linecap:butt;stroke-linejoin:miter;stroke-miterlimit:10;stroke-dasharray:none;stroke-opacity:1"
         d="m 2300.51,3254.62 v 122.4" /><path
         id="path48"
         style="fill:none;stroke:#000000;stroke-width:9.18000031;stroke-linecap:butt;stroke-linejoin:miter;stroke-miterlimit:10;stroke-dasharray:none;stroke-opacity:1"
         d="M 2300.51,5202 V 5079.6" /><path
         id="path50"
         style="fill:none;stroke:#000000;stroke-width:9.18000031;stroke-linecap:butt;stroke-linejoin:miter;stroke-miterlimit:10;stroke-dasharray:none;stroke-opacity:1"
         d="m 3222.79,3254.62 v 122.4" /><path
         id="path52"
         style="fill:none;stroke:#000000;stroke-width:9.18000031;stroke-linecap:butt;stroke-linejoin:miter;stroke-miterlimit:10;stroke-dasharray:none;stroke-opacity:1"
         d="M 3222.79,5202 V 5079.6" /><g
         transform="scale(10)"
         id="g54"><text
           id="text60"
           style="font-variant:normal;font-weight:normal;font-size:17.13599968px;font-family:'Times New Roman';-inkscape-font-specification:Times-Roman;writing-mode:lr-tb;fill:#000000;fill-opacity:1;fill-rule:nonzero;stroke:none"
           transform="matrix(1,0,0,-1,122.4,526.565)"><tspan
             id="tspan56"
             y="0"
             x="0 5.7062879 14.274288 22.842287 103.61179 187.27197 195.83998 204.40797">-2000200</tspan><tspan
             id="tspan58"
             y="-24.480101"
             x="69.155899">p</tspan></text>
<text
           id="text64"
           style="font-variant:normal;font-weight:normal;font-size:12.11760044px;font-family:'Times New Roman';-inkscape-font-specification:Times-Roman;writing-mode:lr-tb;fill:#000000;fill-opacity:1;fill-rule:nonzero;stroke:none"
           transform="matrix(1,0,0,-1,200.1852,544.19041)"><tspan
             id="tspan62"
             y="0"
             x="0">x</tspan></text>
<text
           id="text68"
           style="font-variant:normal;font-weight:normal;font-size:17.13599968px;font-family:'Times New Roman';-inkscape-font-specification:Times-Roman;writing-mode:lr-tb;fill:#000000;fill-opacity:1;fill-rule:nonzero;stroke:none"
           transform="matrix(1,0,0,-1,210.46686,551.0451)"><tspan
             id="tspan66"
             y="0"
             x="0 5.7062879 20.940191 28.548576 40.920769 45.684574 53.292961">(MeV/c)</tspan></text>
</g><path
         id="path70"
         style="fill:none;stroke:#000000;stroke-width:9.18000031;stroke-linecap:butt;stroke-linejoin:miter;stroke-miterlimit:10;stroke-dasharray:none;stroke-opacity:1"
         d="M 918,3254.62 V 5202" /><path
         id="path72"
         style="fill:none;stroke:#000000;stroke-width:9.18000031;stroke-linecap:butt;stroke-linejoin:miter;stroke-miterlimit:10;stroke-dasharray:none;stroke-opacity:1"
         d="M 3683.63,3254.62 V 5202" /><path
         id="path74"
         style="fill:none;stroke:#000000;stroke-width:9.18000031;stroke-linecap:butt;stroke-linejoin:miter;stroke-miterlimit:10;stroke-dasharray:none;stroke-opacity:1"
         d="m 918,3421.69 h 61.199" /><path
         id="path76"
         style="fill:none;stroke:#000000;stroke-width:9.18000031;stroke-linecap:butt;stroke-linejoin:miter;stroke-miterlimit:10;stroke-dasharray:none;stroke-opacity:1"
         d="m 3683.63,3421.69 h -61.2" /><path
         id="path78"
         style="fill:none;stroke:#000000;stroke-width:9.18000031;stroke-linecap:butt;stroke-linejoin:miter;stroke-miterlimit:10;stroke-dasharray:none;stroke-opacity:1"
         d="m 918,3756.46 h 61.199" /><path
         id="path80"
         style="fill:none;stroke:#000000;stroke-width:9.18000031;stroke-linecap:butt;stroke-linejoin:miter;stroke-miterlimit:10;stroke-dasharray:none;stroke-opacity:1"
         d="m 3683.63,3756.46 h -61.2" /><path
         id="path82"
         style="fill:none;stroke:#000000;stroke-width:9.18000031;stroke-linecap:butt;stroke-linejoin:miter;stroke-miterlimit:10;stroke-dasharray:none;stroke-opacity:1"
         d="m 918,4091.22 h 61.199" /><path
         id="path84"
         style="fill:none;stroke:#000000;stroke-width:9.18000031;stroke-linecap:butt;stroke-linejoin:miter;stroke-miterlimit:10;stroke-dasharray:none;stroke-opacity:1"
         d="m 3683.63,4091.22 h -61.2" /><path
         id="path86"
         style="fill:none;stroke:#000000;stroke-width:9.18000031;stroke-linecap:butt;stroke-linejoin:miter;stroke-miterlimit:10;stroke-dasharray:none;stroke-opacity:1"
         d="m 918,4425.98 h 61.199" /><path
         id="path88"
         style="fill:none;stroke:#000000;stroke-width:9.18000031;stroke-linecap:butt;stroke-linejoin:miter;stroke-miterlimit:10;stroke-dasharray:none;stroke-opacity:1"
         d="m 3683.63,4425.98 h -61.2" /><path
         id="path90"
         style="fill:none;stroke:#000000;stroke-width:9.18000031;stroke-linecap:butt;stroke-linejoin:miter;stroke-miterlimit:10;stroke-dasharray:none;stroke-opacity:1"
         d="m 918,4760.75 h 61.199" /><path
         id="path92"
         style="fill:none;stroke:#000000;stroke-width:9.18000031;stroke-linecap:butt;stroke-linejoin:miter;stroke-miterlimit:10;stroke-dasharray:none;stroke-opacity:1"
         d="m 3683.63,4760.75 h -61.2" /><path
         id="path94"
         style="fill:none;stroke:#000000;stroke-width:9.18000031;stroke-linecap:butt;stroke-linejoin:miter;stroke-miterlimit:10;stroke-dasharray:none;stroke-opacity:1"
         d="m 918,5095.51 h 61.199" /><path
         id="path96"
         style="fill:none;stroke:#000000;stroke-width:9.18000031;stroke-linecap:butt;stroke-linejoin:miter;stroke-miterlimit:10;stroke-dasharray:none;stroke-opacity:1"
         d="m 3683.63,5095.51 h -61.2" /><path
         id="path98"
         style="fill:none;stroke:#000000;stroke-width:9.18000031;stroke-linecap:butt;stroke-linejoin:miter;stroke-miterlimit:10;stroke-dasharray:none;stroke-opacity:1"
         d="m 918,3588.77 h 122.4" /><path
         id="path100"
         style="fill:none;stroke:#000000;stroke-width:9.18000031;stroke-linecap:butt;stroke-linejoin:miter;stroke-miterlimit:10;stroke-dasharray:none;stroke-opacity:1"
         d="m 3683.63,3588.77 h -122.4" /><path
         id="path102"
         style="fill:none;stroke:#000000;stroke-width:9.18000031;stroke-linecap:butt;stroke-linejoin:miter;stroke-miterlimit:10;stroke-dasharray:none;stroke-opacity:1"
         d="m 918,3923.53 h 122.4" /><path
         id="path104"
         style="fill:none;stroke:#000000;stroke-width:9.18000031;stroke-linecap:butt;stroke-linejoin:miter;stroke-miterlimit:10;stroke-dasharray:none;stroke-opacity:1"
         d="m 3683.63,3923.53 h -122.4" /><path
         id="path106"
         style="fill:none;stroke:#000000;stroke-width:9.18000031;stroke-linecap:butt;stroke-linejoin:miter;stroke-miterlimit:10;stroke-dasharray:none;stroke-opacity:1"
         d="m 918,4258.3 h 122.4" /><path
         id="path108"
         style="fill:none;stroke:#000000;stroke-width:9.18000031;stroke-linecap:butt;stroke-linejoin:miter;stroke-miterlimit:10;stroke-dasharray:none;stroke-opacity:1"
         d="m 3683.63,4258.3 h -122.4" /><path
         id="path110"
         style="fill:none;stroke:#000000;stroke-width:9.18000031;stroke-linecap:butt;stroke-linejoin:miter;stroke-miterlimit:10;stroke-dasharray:none;stroke-opacity:1"
         d="m 918,4593.06 h 122.4" /><path
         id="path112"
         style="fill:none;stroke:#000000;stroke-width:9.18000031;stroke-linecap:butt;stroke-linejoin:miter;stroke-miterlimit:10;stroke-dasharray:none;stroke-opacity:1"
         d="m 3683.63,4593.06 h -122.4" /><path
         id="path114"
         style="fill:none;stroke:#000000;stroke-width:9.18000031;stroke-linecap:butt;stroke-linejoin:miter;stroke-miterlimit:10;stroke-dasharray:none;stroke-opacity:1"
         d="m 918,4927.82 h 122.4" /><path
         id="path116"
         style="fill:none;stroke:#000000;stroke-width:9.18000031;stroke-linecap:butt;stroke-linejoin:miter;stroke-miterlimit:10;stroke-dasharray:none;stroke-opacity:1"
         d="m 3683.63,4927.82 h -122.4" /><g
         transform="scale(10)"
         id="g118"><text
           id="text130"
           style="font-variant:normal;font-weight:normal;font-size:17.13599968px;font-family:'Times New Roman';-inkscape-font-specification:Times-Roman;writing-mode:lr-tb;fill:#000000;fill-opacity:1;fill-rule:nonzero;stroke:none"
           transform="matrix(1,0,0,-1,56.8547,354.226)"><tspan
             id="tspan120"
             y="0"
             x="0 8.5679998 12.852 21.42">0,05</tspan><tspan
             id="tspan122"
             y="-33.598801"
             x="9.1187496 17.68675 21.970751">0,1</tspan><tspan
             id="tspan124"
             y="-66.952698"
             x="0 8.5679998 12.852 21.42">0,15</tspan><tspan
             id="tspan126"
             y="-100.5515"
             x="7.7113299 16.279329 20.56333">0,2</tspan><tspan
             id="tspan128"
             y="-133.9054"
             x="0 8.5679998 12.852 21.42">0,25</tspan></text>
<text
           id="text134"
           style="font-variant:normal;font-weight:normal;font-size:17.13599968px;font-family:'Times New Roman';-inkscape-font-specification:Times-Roman;writing-mode:lr-tb;fill:#000000;fill-opacity:1;fill-rule:nonzero;stroke:none"
           transform="matrix(0,1,1,0,43.8805,349.146)"><tspan
             id="tspan132"
             y="0"
             x="0">d</tspan></text>
<text
           id="text138"
           style="font-variant:normal;font-weight:normal;font-size:17.13599968px;font-family:Symbol;-inkscape-font-specification:Symbol;writing-mode:lr-tb;fill:#000000;fill-opacity:1;fill-rule:nonzero;stroke:none"
           transform="matrix(0,1,1,0,43.8805,357.77491)"><tspan
             id="tspan136"
             y="0"
             x="0">σ</tspan></text>
<text
           id="text142"
           style="font-variant:normal;font-weight:normal;font-size:17.13599968px;font-family:'Times New Roman';-inkscape-font-specification:Times-Roman;writing-mode:lr-tb;fill:#000000;fill-opacity:1;fill-rule:nonzero;stroke:none"
           transform="matrix(0,1,1,0,43.8805,368.11791)"><tspan
             id="tspan140"
             y="0"
             x="0 4.7638078 13.331808">/dp</tspan></text>
<text
           id="text146"
           style="font-variant:normal;font-weight:normal;font-size:12.11760044px;font-family:'Times New Roman';-inkscape-font-specification:Times-Roman;writing-mode:lr-tb;fill:#000000;fill-opacity:1;fill-rule:nonzero;stroke:none"
           transform="matrix(0,1,1,0,50.7348,389.96631)"><tspan
             id="tspan144"
             y="0"
             x="0">x</tspan></text>
<text
           id="text150"
           style="font-variant:normal;font-weight:normal;font-size:17.13599968px;font-family:'Times New Roman';-inkscape-font-specification:Times-Roman;writing-mode:lr-tb;fill:#000000;fill-opacity:1;fill-rule:nonzero;stroke:none"
           transform="matrix(0,1,1,0,43.8805,400.24797)"><tspan
             id="tspan148"
             y="0"
             x="0 5.7062879 19.038095 27.606096 32.369904 38.076191 53.310097 60.91848 73.290672 78.054482 85.662865 91.369148">(mb/(MeV/c))</tspan></text>
</g><path
         id="path152"
         style="fill:none;stroke:#000000;stroke-width:9.18000031;stroke-linecap:butt;stroke-linejoin:miter;stroke-miterlimit:10;stroke-dasharray:none;stroke-opacity:1"
         d="M 918,3254.62 V 5202 H 3683.63 V 3254.62 Z" /><path
         id="path154"
         style="fill:none;stroke:#000000;stroke-width:18.36000061;stroke-linecap:butt;stroke-linejoin:miter;stroke-miterlimit:10;stroke-dasharray:none;stroke-opacity:1"
         d="m 4235.65,3256.45 h 359.24 l 21.43,0.61 h 42.22 l 21.42,0.62 h 21.42 l 21.42,0.61 h 21.42 20.81 21.42 l 21.42,0.61 21.42,0.61 h 21.42 l 20.81,0.62 21.42,0.6 21.42,1.23 21.42,0.61 21.42,1.23 20.81,1.22 21.42,1.22 21.42,1.84 21.42,1.84 21.42,2.44 20.81,2.45 21.42,3.06 21.42,3.67 21.42,4.29 21.42,4.89 20.8,4.9 21.42,6.73 21.42,7.35 21.42,8.57 21.42,9.18 20.81,11.01 21.42,12.24 21.42,14.08 21.42,16.52 21.42,18.97 20.81,20.81 21.42,22.64 21.42,26.93 21.42,30.6 21.42,34.27 20.81,37.34 21.42,41.61 21.42,45.29 21.42,51.41 21.42,59.36 20.81,66.71 21.42,70.38 21.42,74.67 21.42,82.61 21.42,91.19 20.81,96.7 21.41,108.93 21.43,96.09 21.41,92.41 21.43,85.68 20.8,70.99 21.42,63.65 21.42,45.9 21.42,42.23 21.42,23.87 20.81,12.85 21.42,4.28 21.42,-5.51 21.42,-8.56 21.42,-20.2 20.81,-37.94 21.42,-57.53 21.42,-72.83 21.42,-77.72 20.81,-84.46 21.42,-87.52 21.42,-89.35 21.41,-89.96 21.43,-85.07 20.81,-80.79 21.41,-73.43 21.43,-69.16 21.41,-63.65 21.43,-58.75 20.8,-52.02 21.42,-46.51 21.42,-42.23 21.42,-38.55 21.42,-36.11 20.81,-32.44 21.42,-31.21 21.42,-26.93 21.42,-25.7 21.42,-23.26 20.81,-21.42 21.42,-19.58 21.42,-18.36 21.42,-16.53 21.42,-14.69 20.8,-14.07 21.43,-12.24 21.41,-11.63 21.43,-10.4 21.42,-9.8 20.8,-7.95 21.42,-7.34 21.42,-6.74 21.42,-5.51 21.42,-4.89 20.81,-4.29 21.42,-4.28 21.42,-3.67 21.42,-3.68 21.42,-3.05 20.81,-2.45 21.42,-2.45 h 1.22" /><path
         id="path156"
         style="fill:none;stroke:#ff0000;stroke-width:18.36000061;stroke-linecap:butt;stroke-linejoin:miter;stroke-miterlimit:10;stroke-dasharray:none;stroke-opacity:1"
         d="m 4235.65,3256.45 h 365.37 l 20.8,0.61 h 42.84 l 20.81,0.62 21.42,0.61 h 21.42 l 21.42,0.61 h 20.81 l 21.42,0.61 21.42,0.62 20.81,0.6 21.42,0.62 21.42,1.22 21.42,0.61 20.81,1.23 21.42,1.22 21.42,1.84 21.42,1.83 20.8,2.45 21.43,2.45 21.41,3.06 20.81,3.06 21.42,4.29 21.42,4.89 21.42,5.51 20.81,5.51 21.42,7.34 21.42,7.96 21.42,9.18 20.81,10.4 21.42,11.63 21.42,13.46 20.81,15.3 21.42,17.75 21.42,18.97 21.42,21.42 20.8,24.48 21.43,26.93 21.41,29.37 21.43,34.28 20.8,38.55 21.42,41.62 21.42,45.9 20.81,49.57 21.42,55.08 21.42,59.37 21.42,72.82 20.81,69.77 21.42,77.12 21.42,86.28 21.42,89.36 20.81,100.37 21.42,104.65 21.42,108.93 20.8,104.05 21.43,89.96 21.41,84.45 21.43,70.38 20.8,54.47 21.42,50.19 21.42,39.16 21.42,25.71 20.81,14.07 21.42,5.51 21.42,-4.28 20.81,-2.45 21.42,-23.87 21.42,-41 21.42,-56.92 20.81,-73.44 21.42,-82.62 21.42,-86.29 21.42,-91.19 20.81,-97.31 21.41,-96.08 21.43,-91.8 20.8,-86.29 21.42,-85.68 21.42,-77.11 21.42,-74.67 20.81,-65.48 21.42,-62.42 21.42,-56.31 21.42,-53.24 20.81,-48.35 21.42,-44.07 21.42,-41.61 20.81,-36.72 21.42,-33.66 21.42,-31.21 21.42,-28.15 20.81,-25.71 21.41,-23.26 21.43,-22.03 20.8,-19.58 21.42,-17.14 21.42,-15.91 21.42,-14.69 20.81,-12.24 21.42,-11.62 21.42,-9.8 21.42,-9.18 20.81,-7.95 21.42,-7.35 21.42,-6.12 20.81,-5.51 21.42,-5.5 21.42,-4.9 21.42,-3.67 20.81,-4.29 21.41,-3.05 21.43,-3.68 21.41,-2.45 v 0" /><path
         id="path158"
         style="fill:none;stroke:#0000ff;stroke-width:18.36000061;stroke-linecap:butt;stroke-linejoin:miter;stroke-miterlimit:10;stroke-dasharray:none;stroke-opacity:1"
         d="m 4235.65,3259.51 16.53,0.62 h 42.22 l 20.81,0.6 h 20.81 l 21.42,0.62 h 20.81 l 20.8,0.61 20.81,0.61 h 21.43 l 20.8,0.61 20.81,0.62 21.42,0.61 20.81,0.61 20.81,0.61 20.81,0.61 21.41,0.62 20.81,1.22 20.81,0.61 20.81,1.23 21.42,1.22 20.81,1.22 20.81,1.23 20.8,1.22 21.42,1.84 20.81,1.22 20.81,1.84 20.81,2.45 21.42,1.83 20.8,3.06 20.81,2.45 21.42,3.06 20.81,3.06 20.81,3.67 20.81,3.67 21.42,4.29 20.8,4.89 20.81,4.9 20.81,5.51 21.42,5.5 20.81,6.74 20.81,7.34 21.42,7.35 20.81,8.56 20.8,9.18 20.81,9.8 21.42,11.01 20.81,12.24 20.81,12.86 20.8,14.68 21.42,15.3 20.81,17.14 20.81,18.97 20.81,20.2 21.42,22.03 20.81,24.48 20.81,26.93 21.41,28.76 20.81,32.43 20.81,34.89 20.81,39.17 21.42,42.23 20.81,45.89 20.8,49.58 20.81,53.85 21.42,57.53 20.81,62.43 20.81,66.09 21.42,70.38 20.8,75.28 20.81,79.56 20.81,83.23 21.42,83.23 20.81,82.62 20.81,77.72 20.81,71.61 21.42,62.43 20.81,52.62 20.8,39.79 20.81,26.31 21.42,14.69 20.81,8.57 20.8,4.28 20.81,1.23 21.43,-6.74 20.8,-20.81 20.81,-36.1 21.42,-48.96 20.81,-59.98 20.81,-70.99 20.81,-75.89 21.41,-81.4 20.81,-84.45 20.81,-84.46 20.81,-82.62 21.42,-78.33 20.81,-73.44 20.8,-69.16 21.42,-64.87 20.81,-61.2 20.81,-56.91 20.81,-53.25 21.42,-49.57 20.81,-45.9 20.8,-42.23 20.81,-39.17 21.42,-36.11 20.81,-33.66 20.81,-29.98 20.81,-28.15 21.42,-25.1 20.8,-23.25 20.81,-21.42 20.81,-18.98 21.42,-17.13 20.81,-15.3 20.81,-14.08 21.42,-12.24 20.81,-11.01 20.8,-9.79 20.81,-9.18 21.42,-7.96 20.81,-6.73 20.81,-6.12 20.8,-5.51 21.42,-5.51 20.81,-4.28 20.81,-3.68 21.42,-3.67 20.81,-3.06 20.81,-2.45 20.81,-2.44 3.05,-0.61" /><path
         id="path160"
         style="fill:none;stroke:#000000;stroke-width:9.18000031;stroke-linecap:butt;stroke-linejoin:miter;stroke-miterlimit:10;stroke-dasharray:none;stroke-opacity:1"
         d="M 4236.27,3254.62 H 7001.89" /><path
         id="path162"
         style="fill:none;stroke:#000000;stroke-width:9.18000031;stroke-linecap:butt;stroke-linejoin:miter;stroke-miterlimit:10;stroke-dasharray:none;stroke-opacity:1"
         d="M 4236.27,5202 H 7001.89" /><path
         id="path164"
         style="fill:none;stroke:#000000;stroke-width:9.18000031;stroke-linecap:butt;stroke-linejoin:miter;stroke-miterlimit:10;stroke-dasharray:none;stroke-opacity:1"
         d="m 4789.51,3254.62 v 61.2" /><path
         id="path166"
         style="fill:none;stroke:#000000;stroke-width:9.18000031;stroke-linecap:butt;stroke-linejoin:miter;stroke-miterlimit:10;stroke-dasharray:none;stroke-opacity:1"
         d="m 4789.51,5202 v -61.2" /><path
         id="path168"
         style="fill:none;stroke:#000000;stroke-width:9.18000031;stroke-linecap:butt;stroke-linejoin:miter;stroke-miterlimit:10;stroke-dasharray:none;stroke-opacity:1"
         d="m 5896.01,3254.62 v 61.2" /><path
         id="path170"
         style="fill:none;stroke:#000000;stroke-width:9.18000031;stroke-linecap:butt;stroke-linejoin:miter;stroke-miterlimit:10;stroke-dasharray:none;stroke-opacity:1"
         d="m 5896.01,5202 v -61.2" /><path
         id="path172"
         style="fill:none;stroke:#000000;stroke-width:9.18000031;stroke-linecap:butt;stroke-linejoin:miter;stroke-miterlimit:10;stroke-dasharray:none;stroke-opacity:1"
         d="m 4236.27,3254.62 v 122.4" /><path
         id="path174"
         style="fill:none;stroke:#000000;stroke-width:9.18000031;stroke-linecap:butt;stroke-linejoin:miter;stroke-miterlimit:10;stroke-dasharray:none;stroke-opacity:1"
         d="M 4236.27,5202 V 5079.6" /><path
         id="path176"
         style="fill:none;stroke:#000000;stroke-width:9.18000031;stroke-linecap:butt;stroke-linejoin:miter;stroke-miterlimit:10;stroke-dasharray:none;stroke-opacity:1"
         d="m 5342.76,3254.62 v 122.4" /><path
         id="path178"
         style="fill:none;stroke:#000000;stroke-width:9.18000031;stroke-linecap:butt;stroke-linejoin:miter;stroke-miterlimit:10;stroke-dasharray:none;stroke-opacity:1"
         d="M 5342.76,5202 V 5079.6" /><g
         transform="scale(10)"
         id="g180"><text
           id="text186"
           style="font-variant:normal;font-weight:normal;font-size:17.13599968px;font-family:'Times New Roman';-inkscape-font-specification:Times-Roman;writing-mode:lr-tb;fill:#000000;fill-opacity:1;fill-rule:nonzero;stroke:none"
           transform="matrix(1,0,0,-1,411.08,526.565)"><tspan
             id="tspan182"
             y="0"
             x="0 8.5679998 17.136 110.5882 119.1562 127.72421">200400</tspan><tspan
             id="tspan184"
             y="-24.7246"
             x="112.669">p</tspan></text>
<text
           id="text190"
           style="font-variant:normal;font-weight:normal;font-size:12.11760044px;font-family:'Times New Roman';-inkscape-font-specification:Times-Roman;writing-mode:lr-tb;fill:#000000;fill-opacity:1;fill-rule:nonzero;stroke:none"
           transform="matrix(1,0,0,-1,532.3783,544.4353)"><tspan
             id="tspan188"
             y="0"
             x="0">z</tspan></text>
<text
           id="text194"
           style="font-variant:normal;font-weight:normal;font-size:17.13599968px;font-family:'Times New Roman';-inkscape-font-specification:Times-Roman;writing-mode:lr-tb;fill:#000000;fill-opacity:1;fill-rule:nonzero;stroke:none"
           transform="matrix(1,0,0,-1,541.98652,551.2896)"><tspan
             id="tspan192"
             y="0"
             x="0 5.7062879 20.940191 28.548576 40.920769 45.684574 53.292961">(MeV/c)</tspan></text>
</g><path
         id="path196"
         style="fill:none;stroke:#000000;stroke-width:9.18000031;stroke-linecap:butt;stroke-linejoin:miter;stroke-miterlimit:10;stroke-dasharray:none;stroke-opacity:1"
         d="M 4236.27,3254.62 V 5202" /><path
         id="path198"
         style="fill:none;stroke:#000000;stroke-width:9.18000031;stroke-linecap:butt;stroke-linejoin:miter;stroke-miterlimit:10;stroke-dasharray:none;stroke-opacity:1"
         d="m 4236.27,3424.14 h 61.19" /><path
         id="path200"
         style="fill:none;stroke:#000000;stroke-width:9.18000031;stroke-linecap:butt;stroke-linejoin:miter;stroke-miterlimit:10;stroke-dasharray:none;stroke-opacity:1"
         d="m 4236.27,3760.13 h 61.19" /><path
         id="path202"
         style="fill:none;stroke:#000000;stroke-width:9.18000031;stroke-linecap:butt;stroke-linejoin:miter;stroke-miterlimit:10;stroke-dasharray:none;stroke-opacity:1"
         d="m 4236.27,4095.5 h 61.19" /><path
         id="path204"
         style="fill:none;stroke:#000000;stroke-width:9.18000031;stroke-linecap:butt;stroke-linejoin:miter;stroke-miterlimit:10;stroke-dasharray:none;stroke-opacity:1"
         d="m 4236.27,4431.49 h 61.19" /><path
         id="path206"
         style="fill:none;stroke:#000000;stroke-width:9.18000031;stroke-linecap:butt;stroke-linejoin:miter;stroke-miterlimit:10;stroke-dasharray:none;stroke-opacity:1"
         d="m 4236.27,4767.48 h 61.19" /><path
         id="path208"
         style="fill:none;stroke:#000000;stroke-width:9.18000031;stroke-linecap:butt;stroke-linejoin:miter;stroke-miterlimit:10;stroke-dasharray:none;stroke-opacity:1"
         d="m 4236.27,5103.47 h 61.19" /><path
         id="path210"
         style="fill:none;stroke:#000000;stroke-width:9.18000031;stroke-linecap:butt;stroke-linejoin:miter;stroke-miterlimit:10;stroke-dasharray:none;stroke-opacity:1"
         d="m 4236.27,3255.84 h 122.39" /><path
         id="path212"
         style="fill:none;stroke:#000000;stroke-width:9.18000031;stroke-linecap:butt;stroke-linejoin:miter;stroke-miterlimit:10;stroke-dasharray:none;stroke-opacity:1"
         d="m 4236.27,3591.83 h 122.39" /><path
         id="path214"
         style="fill:none;stroke:#000000;stroke-width:9.18000031;stroke-linecap:butt;stroke-linejoin:miter;stroke-miterlimit:10;stroke-dasharray:none;stroke-opacity:1"
         d="m 4236.27,3927.82 h 122.39" /><path
         id="path216"
         style="fill:none;stroke:#000000;stroke-width:9.18000031;stroke-linecap:butt;stroke-linejoin:miter;stroke-miterlimit:10;stroke-dasharray:none;stroke-opacity:1"
         d="m 4236.27,4263.8 h 122.39" /><path
         id="path218"
         style="fill:none;stroke:#000000;stroke-width:9.18000031;stroke-linecap:butt;stroke-linejoin:miter;stroke-miterlimit:10;stroke-dasharray:none;stroke-opacity:1"
         d="m 4236.27,4599.18 h 122.39" /><path
         id="path220"
         style="fill:none;stroke:#000000;stroke-width:9.18000031;stroke-linecap:butt;stroke-linejoin:miter;stroke-miterlimit:10;stroke-dasharray:none;stroke-opacity:1"
         d="m 4236.27,4935.17 h 122.39" /><path
         id="path222"
         style="fill:none;stroke:#000000;stroke-width:9.18000031;stroke-linecap:butt;stroke-linejoin:miter;stroke-miterlimit:10;stroke-dasharray:none;stroke-opacity:1"
         d="M 4236.27,3254.62 V 5202 H 7001.89 V 3254.62 Z" /><path
         id="path224"
         style="fill:none;stroke:#000000;stroke-width:18.36000061;stroke-linecap:butt;stroke-linejoin:miter;stroke-miterlimit:10;stroke-dasharray:none;stroke-opacity:1"
         d="m 1246.03,918 h 56.31 l 5.5,2.449 h 72.22 l 4.9,0.61 h 5.5 4.9 l 5.51,0.613 h 4.9 l 5.5,0.613 h 4.9 l 4.89,0.61 h 5.51 l 4.9,0.613 h 5.51 l 4.89,0.613 h 5.51 l 4.9,0.609 4.89,0.614 5.51,0.613 h 4.89 l 5.52,0.609 4.89,0.614 5.51,1.222 4.89,0.614 5.51,0.613 4.9,0.609 4.89,0.614 5.51,1.222 4.9,0.614 5.51,0.613 4.89,1.222 5.51,1.223 4.89,0.613 4.9,1.227 5.51,1.223 4.9,1.836 5.5,1.222 4.9,1.227 5.51,1.836 4.89,1.836 5.51,1.222 4.9,1.836 4.89,1.836 5.51,1.836 4.9,2.449 5.5,1.836 4.9,2.446 5.51,2.449 4.9,2.449 4.89,2.445 5.51,3.063 4.9,3.058 5.5,3.063 4.9,3.059 5.51,3.058 4.9,3.672 5.5,3.672 4.9,3.672 4.9,3.672 5.5,4.281 4.9,4.29 5.51,4.28 4.89,4.9 5.51,4.89 4.9,4.9 5.5,5.51 4.9,5.51 4.9,5.51 5.51,6.11 4.89,6.12 5.51,6.74 4.89,6.73 5.51,7.34 4.9,7.35 4.89,7.34 5.51,7.96 4.9,8.56 5.51,8.57 4.89,8.57 5.51,9.18 4.9,9.18 5.51,10.41 4.89,9.78 4.89,11.02 5.51,11.02 4.9,11.62 5.51,12.25 4.89,12.23 5.51,12.86 4.9,13.46 4.89,13.47 5.51,14.68 4.9,14.69 5.5,12.85 4.9,14.08 5.51,14.69 4.9,15.3 5.5,16.52 4.9,17.75 4.9,18.36 5.5,18.97 4.9,19.59 5.51,20.19 4.89,21.42 5.51,21.42 4.9,22.65 4.9,22.64 5.5,23.87 4.9,21.42 5.51,22.64 4.89,23.26 5.51,24.48 4.9,25.7 5.5,26.32 4.9,26.93 4.9,27.54 5.5,28.15 4.9,28.76 5.51,28.77 4.9,29.37 5.5,29.99 4.9,29.99 4.89,31.21 5.51,34.89 4.9,33.65 5.51,32.44 4.89,31.82 5.51,31.21 4.9,30.61 5.51,29.37 4.89,28.15 4.9,27.54 5.51,26.93 4.89,26.32 5.51,25.09 4.89,23.87 5.51,23.25 4.9,23.26 4.89,22.03 5.51,21.42 4.9,20.2 5.51,18.97 4.89,18.36 5.51,17.13 4.89,16.53 5.51,14.69 4.9,14.69 4.9,12.85 5.5,12.24 4.9,11.01 5.51,10.41 4.89,9.79 5.51,7.35 4.9,6.73 4.89,6.12 5.51,4.89 4.9,4.9 5.5,3.67 4.9,3.06 5.51,1.84 4.9,1.83 5.5,0.62 h 4.9 l 4.9,-0.62 5.5,-1.22 4.9,-2.45 5.51,-3.06 4.89,-1.22 5.51,-1.23 4.9,-2.45 4.9,-4.28 5.5,-5.51 4.9,-7.34 5.51,-7.96 4.89,-9.79 5.51,-11.01 4.9,-12.25 5.5,-12.85 4.9,-14.69 4.9,-15.3 5.51,-16.52 4.89,-17.14 5.51,-19.58 4.9,-20.81 5.5,-20.81 4.9,-21.41 4.89,-22.04 5.51,-21.42 4.9,-22.64 5.51,-22.03 4.89,-22.65 5.51,-22.64 4.9,-23.26 5.51,-23.25 4.89,-22.65 4.89,-23.25 5.51,-23.26 4.9,-24.48 5.51,-24.48 4.89,-24.48 5.51,-23.87 4.9,-23.25 4.89,-23.26 5.51,-23.25 4.9,-22.65 5.51,-22.64 4.89,-22.03 5.51,-22.04 4.89,-21.42 5.51,-21.42 4.9,-20.8 4.9,-20.81 5.5,-20.81 4.9,-20.81 5.51,-20.2 4.89,-19.58 5.51,-19.58 4.9,-18.98 4.9,-18.36 5.5,-17.75 4.9,-17.74 5.51,-17.14 4.89,-16.52 5.51,-16.53 4.9,-15.91 5.5,-15.91 4.9,-15.3 4.9,-14.69 5.5,-14.69 4.9,-14.07 5.51,-14.08 4.9,-13.46 5.5,-12.85 4.9,-12.86 4.9,-12.24 5.5,-12.24 4.9,-12.23 5.51,-11.63 4.89,-11.02 5.51,-11.01 4.9,-10.41 5.5,-10.4 4.9,-9.8 4.9,-9.79 5.51,-9.79 4.89,-9.18 5.51,-9.18 4.89,-8.57 5.51,-8.56 4.9,-8.57 4.89,-8.57 5.51,-8.57 4.9,-7.95 5.51,-7.96 4.89,-7.34 5.51,-7.96 4.89,-7.35 5.52,-7.34 4.89,-6.73 4.9,-7.35 5.5,-6.73 4.9,-6.12 5.51,-6.73 4.89,-6.73 5.51,-6.12 4.9,-6.12 4.89,-6.12 5.51,-5.51 4.9,-5.51 5.5,-6.12 4.9,-5.5 5.51,-4.9 4.9,-5.51 5.5,-4.89 4.9,-4.9 4.9,-4.9 5.5,-4.89 4.9,-4.9 5.51,-4.28 4.89,-4.9 5.51,-4.29 4.9,-4.28 4.9,-4.28 5.5,-4.29 4.9,-4.28 5.51,-3.67 4.89,-4.29 5.51,-3.67 4.9,-3.67 5.5,-3.67 4.9,-3.67 4.9,-3.67 5.51,-3.68 4.89,-3.06 5.51,-3.67 4.9,-3.06 5.5,-3.06 4.9,-3.67 4.89,-3.06 5.51,-2.45 4.9,-3.06 5.51,-3.06 4.89,-2.45 5.51,-2.45 4.9,-3.06 5.51,-2.45 4.89,-2.44 4.89,-2.45 5.52,-2.45 4.89,-2.44 5.51,-2.45 4.89,-2.45 5.51,-2.45 4.9,-1.83 4.89,-2.45 5.51,-2.45 4.9,-1.84 5.51,-2.45 4.89,-2.44 5.51,-1.84 4.89,-1.835 5.51,-2.449 4.9,-1.836 4.9,-1.836 5.5,-1.836 4.9,-1.836 5.51,-1.836 4.89,-1.222 5.51,-1.836 4.9,-1.836 4.89,-1.227 5.51,-1.836 4.9,-1.222 5.51,-1.223 4.89,-1.227 5.51,-1.836 4.9,-1.222 5.5,-1.227 4.9,-1.222 4.9,-1.223 5.5,-1.227 4.9,-0.609 5.51,-1.227 4.9,-1.222 5.5,-1.223 4.9,-0.613 4.9,-1.223 5.5,-0.613 4.9,-1.223 5.51,-0.613 4.89,-1.223 5.51,-0.613 4.9,-1.223 5.5,-0.613 4.9,-0.613 4.9,-0.61 5.51,-1.226 4.89,-0.61 5.51,-0.613 4.89,-0.613 5.51,-1.223 4.9,-0.613 4.89,-0.609 5.51,-0.614 4.9,-0.613 5.51,-0.609 4.89,-0.614 5.51,-0.613 4.9,-0.609 5.51,-0.614 4.89,-0.613 4.89,-0.609 5.51,-0.614 4.9,-0.613 5.51,-0.609 h 4.89 l 5.51,-0.613 4.9,-0.614 4.89,-0.609 5.51,-0.613 4.9,-0.614 h 5.5 l 4.9,-0.609 5.51,-0.613 4.9,-0.614 h 5.5 l 4.9,-0.613 4.9,-0.609 h 5.5 l 4.9,-0.614 5.51,-0.613 4.89,-0.609 h 5.51 l 4.9,-0.613 4.9,-0.614 h 5.5 l 4.9,-0.609 h 5.51 l 4.89,-0.613 h 5.51 l 4.9,-0.614 h 5.5 l 4.9,-0.609 h 4.9 l 5.5,-0.613 h 4.9 l 5.51,-0.614 h 4.9 5.5 l 4.9,-0.609 h 4.89 5.51 l 4.9,-0.613 h 5.51 4.89 l 5.51,-0.614 h 4.9 5.51 4.89 l 4.9,-0.609 5.51,1.836 4.89,1.223 5.51,1.222 4.89,1.227 5.51,0.609 h 4.9 4.89 l 5.51,-0.609 4.9,-0.613 5.51,-0.614 4.89,-1.222 5.51,-0.614 4.89,-1.222 5.51,-1.223 4.9,-1.227 4.9,-1.835 5.5,-1.223 4.9,-1.223 5.51,-0.613 h 4.89 l 5.51,3.059 h 4.9 4.89 5.51 4.9 l 5.5,-0.61 h 4.9 l 5.51,-3.672 4.9,1.223 1.22,0.613" /><path
         id="path226"
         style="fill:none;stroke:#ff0000;stroke-width:18.36000061;stroke-linecap:butt;stroke-linejoin:miter;stroke-miterlimit:10;stroke-dasharray:none;stroke-opacity:1"
         d="m 1246.03,918 h 56.31 l 5.5,1.836 h 15.3 l 5.51,0.613 h 4.9 4.9 5.5 l 4.9,0.61 h 5.51 4.89 5.51 l 4.9,0.613 h 4.89 l 5.51,0.613 h 4.9 l 5.5,0.61 h 4.9 l 5.51,0.613 4.9,0.613 h 5.5 l 4.9,0.609 4.89,0.614 5.51,0.613 h 4.9 l 5.51,0.609 4.89,0.614 5.51,0.613 4.9,0.609 4.89,0.614 5.51,1.222 4.89,0.614 5.52,1.222 4.89,0.614 5.51,1.222 4.89,0.613 5.51,1.223 4.9,1.227 4.89,1.222 5.51,1.227 4.9,1.223 5.51,1.835 4.89,1.223 5.51,1.836 4.89,1.227 4.9,1.836 5.51,1.836 4.9,2.445 5.5,1.836 4.9,2.449 5.51,1.836 4.89,2.449 5.51,2.445 4.9,3.063 4.89,2.445 5.51,3.063 4.9,3.058 5.5,3.063 4.9,3.058 5.51,3.672 4.9,3.672 4.89,3.672 5.51,4.285 4.9,3.671 5.5,4.28 4.9,4.9 5.51,4.29 4.9,4.89 5.5,5.51 4.9,4.89 4.9,5.51 5.5,5.51 4.9,6.12 5.51,6.12 4.89,6.12 5.51,6.73 4.9,6.73 5.5,7.35 4.9,7.34 4.9,7.96 5.51,7.95 4.89,7.96 5.51,8.57 4.89,9.18 5.51,9.18 4.9,9.79 4.89,9.79 5.51,9.8 4.9,11.01 5.51,11.02 4.89,10.4 5.51,11.63 4.9,11.63 5.51,12.24 4.89,12.85 4.89,12.85 5.51,13.46 4.9,14.08 5.51,14.69 4.89,15.3 5.51,15.3 4.9,15.91 4.89,16.52 5.51,17.14 4.9,17.75 5.5,15.91 4.9,16.52 5.51,17.75 4.9,18.97 5.5,18.98 4.9,20.19 4.9,20.81 5.5,22.03 4.9,22.03 5.51,23.26 4.89,23.25 5.51,24.48 4.9,24.49 4.9,25.7 5.5,25.09 4.9,23.87 5.51,24.48 4.89,25.7 5.51,26.32 4.9,27.54 5.5,28.15 4.9,28.77 4.9,29.37 5.5,29.99 4.9,30.6 5.51,30.6 4.9,31.21 5.5,31.21 4.9,31.83 4.89,32.43 5.51,36.73 4.9,35.49 5.51,34.88 4.89,33.05 5.51,32.44 4.9,31.82 5.51,29.99 4.89,29.38 4.9,28.76 5.51,27.54 4.89,26.32 5.51,25.09 4.89,24.48 5.51,23.86 4.9,22.65 4.89,21.42 5.51,20.2 4.9,19.58 5.51,18.97 4.89,17.75 5.51,17.14 4.89,15.91 5.51,15.3 4.9,14.07 4.9,13.47 5.5,12.24 4.9,11.62 5.51,11.02 4.89,9.79 5.51,8.57 4.9,7.96 4.89,6.73 5.51,6.12 4.9,5.51 5.5,4.89 4.9,3.68 5.51,3.06 4.9,2.44 5.5,1.84 4.9,0.61 4.9,0.61 5.5,-0.61 4.9,-1.83 5.51,-1.84 4.89,-0.61 5.51,-0.61 4.9,-1.84 4.9,-3.67 5.5,-4.9 4.9,-6.12 5.51,-7.96 4.89,-9.78 5.51,-10.41 4.9,-12.24 5.5,-12.85 4.9,-14.08 4.9,-15.3 5.51,-16.52 4.89,-17.75 5.51,-19.58 4.9,-20.81 5.5,-21.42 4.9,-21.42 4.89,-22.03 5.51,-22.65 4.9,-22.64 5.51,-23.26 4.89,-23.86 5.51,-23.87 4.9,-23.87 5.51,-23.87 4.89,-24.48 4.89,-25.09 5.51,-24.48 4.9,-26.32 5.51,-26.31 4.89,-25.71 5.51,-25.7 4.9,-25.71 4.89,-25.09 5.51,-25.09 4.9,-25.09 5.51,-24.48 4.89,-23.87 5.51,-23.87 4.89,-23.87 5.51,-23.25 4.9,-23.26 4.9,-22.64 5.5,-23.26 4.9,-22.64 5.51,-22.03 4.89,-22.04 5.51,-21.42 4.9,-21.42 4.9,-20.19 5.5,-20.81 4.9,-19.58 5.51,-19.59 4.89,-19.58 5.51,-18.97 4.9,-18.36 5.5,-18.36 4.9,-17.75 4.9,-17.75 5.5,-17.14 4.9,-17.13 5.51,-16.53 4.9,-15.91 5.5,-15.91 4.9,-15.91 4.9,-14.69 5.5,-15.3 4.9,-14.08 5.51,-14.07 4.89,-14.08 5.51,-13.46 4.9,-13.46 5.5,-12.86 4.9,-12.24 4.9,-12.24 5.51,-12.24 4.89,-11.63 5.51,-11.62 4.89,-11.02 5.51,-11.01 4.9,-11.02 4.89,-10.41 5.51,-10.4 4.9,-10.4 5.51,-9.8 4.89,-9.79 5.51,-9.18 4.89,-9.79 5.52,-9.18 4.89,-8.57 4.9,-8.57 5.5,-8.56 4.9,-8.57 5.51,-7.96 4.89,-7.95 5.51,-7.96 4.9,-7.34 4.89,-7.35 5.51,-7.34 4.9,-7.34 5.5,-6.74 4.9,-6.73 5.51,-6.12 4.9,-6.73 5.5,-6.12 4.9,-6.12 4.9,-6.12 5.5,-5.51 4.9,-5.51 5.51,-6.12 4.89,-4.9 5.51,-5.5 4.9,-5.51 4.9,-4.9 5.5,-5.5 4.9,-4.9 5.51,-4.9 4.89,-4.28 5.51,-4.9 4.9,-4.28 5.5,-4.28 4.9,-4.29 4.9,-4.28 5.51,-4.28 4.89,-4.29 5.51,-3.67 4.9,-4.29 5.5,-3.67 4.9,-3.67 4.89,-3.67 5.51,-3.67 4.9,-3.06 5.51,-3.67 4.89,-3.07 5.51,-3.67 4.9,-3.06 5.51,-3.06 4.89,-3.06 4.89,-2.45 5.52,-3.06 4.89,-3.05 5.51,-2.45 4.89,-3.06 5.51,-2.45 4.9,-2.45 4.89,-2.45 5.51,-2.45 4.9,-2.44 5.51,-1.84 4.89,-2.45 5.51,-2.45 4.89,-1.83 5.51,-1.84 4.9,-2.45 4.9,-1.83 5.5,-1.838 4.9,-1.836 5.51,-1.836 4.89,-1.836 5.51,-1.836 4.9,-1.836 4.89,-1.222 5.51,-1.836 4.9,-1.227 5.51,-1.836 4.89,-1.223 5.51,-1.835 4.9,-1.223 5.5,-1.227 4.9,-1.836 4.9,-1.222 5.5,-1.227 4.9,-1.223 5.51,-1.222 4.9,-1.227 5.5,-1.222 4.9,-1.223 4.9,-0.613 5.5,-1.223 4.9,-1.227 5.51,-1.222 4.89,-0.613 5.51,-1.223 4.9,-0.613 5.5,-1.223 4.9,-1.223 4.9,-0.613 5.51,-0.613 4.89,-1.223 5.51,-0.613 4.89,-1.223 5.51,-0.613 4.9,-0.61 4.89,-1.226 5.51,-0.609 4.9,-0.614 5.51,-0.613 4.89,-0.609 5.51,-1.227 4.9,-0.609 5.51,-0.614 4.89,-0.613 4.89,-0.609 5.51,-0.614 4.9,-0.613 5.51,-0.609 4.89,-0.614 5.51,-0.613 4.9,-0.609 4.89,-0.613 5.51,-0.614 4.9,-0.609 h 5.5 l 4.9,-0.613 5.51,-0.614 4.9,-0.609 5.5,-0.613 h 4.9 l 4.9,-0.614 5.5,-0.613 4.9,-0.609 5.51,-0.614 4.89,-0.613 h 5.51 l 4.9,-0.609 4.9,-0.613 h 5.5 l 4.9,-0.614 h 5.51 l 4.89,-0.609 h 5.51 l 4.9,-0.613 h 5.5 l 4.9,-0.614 h 4.9 l 5.5,-0.609 h 4.9 l 5.51,-0.613 h 4.9 l 5.5,-0.614 h 4.9 4.89 l 5.51,-0.609 h 4.9 5.51 l 4.89,-0.613 h 5.51 4.9 l 5.51,-0.614 h 4.89 4.9 l 5.51,1.227 4.89,1.223 5.51,1.222 4.89,1.227 h 5.51 l 4.9,0.609 h 4.89 l 5.51,-0.609 4.9,-0.613 5.51,-0.614 4.89,-1.222 5.51,-0.614 4.89,-1.222 5.51,-1.223 4.9,-1.227 4.9,-1.222 5.5,-1.223 4.9,-1.226 5.51,-1.223 4.89,-0.613 5.51,3.062 4.9,0.61 h 4.89 5.51 4.9 l 5.5,-0.61 4.9,-0.613 5.51,-2.449 4.9,1.226 h 1.22" /><path
         id="path228"
         style="fill:none;stroke:#0000ff;stroke-width:18.36000061;stroke-linecap:butt;stroke-linejoin:miter;stroke-miterlimit:10;stroke-dasharray:none;stroke-opacity:1"
         d="m 918,918 92.41,0.613 91.8,1.223 92.42,2.449 91.8,4.895 92.41,10.406 92.41,21.418 91.8,39.781 92.41,69.765 92.41,120.57 18.36,33.04 18.36,36.11 18.36,39.78 18.36,44.68 18.36,49.57 18.36,54.47 18.36,59.36 18.97,64.26 18.36,70.38 18.37,74.67 18.36,80.78 18.35,85.68 18.36,91.19 18.36,96.08 18.36,97.31 18.98,96.08 18.35,92.42 18.36,85.06 18.37,74.06 18.36,62.42 18.36,48.96 18.36,35.5 18.36,23.86 18.97,16.53 18.36,13.46 18.36,8.57 h 18.36 l 18.36,-12.85 18.36,-25.71 18.36,-40.39 18.36,-53.85 18.97,-61.81 18.36,-71 18.36,-74.66 18.36,-79.56 18.36,-81.4 18.36,-82.62 18.36,-80.78 18.36,-77.73 18.97,-72.21 18.36,-67.94 18.36,-63.64 18.36,-59.98 18.36,-56.3 18.36,-53.25 18.36,-49.57 18.36,-47.12 18.97,-43.46 18.36,-40.39 18.36,-37.94 91.8,-154.84 92.42,-107.1 92.41,-72.21 91.8,-48.35 92.41,-31.213 92.41,-20.195 91.8,-13.465 92.41,-8.566 91.8,-5.508 92.41,-3.063 92.42,-1.835 h 0.61" /><path
         id="path230"
         style="fill:none;stroke:#000000;stroke-width:9.18000031;stroke-linecap:butt;stroke-linejoin:miter;stroke-miterlimit:10;stroke-dasharray:none;stroke-opacity:1"
         d="M 918,918 H 3683.63" /><path
         id="path232"
         style="fill:none;stroke:#000000;stroke-width:9.18000031;stroke-linecap:butt;stroke-linejoin:miter;stroke-miterlimit:10;stroke-dasharray:none;stroke-opacity:1"
         d="M 918,2865.38 H 3683.63" /><path
         id="path234"
         style="fill:none;stroke:#000000;stroke-width:9.18000031;stroke-linecap:butt;stroke-linejoin:miter;stroke-miterlimit:10;stroke-dasharray:none;stroke-opacity:1"
         d="m 1378.84,918 v 61.199" /><path
         id="path236"
         style="fill:none;stroke:#000000;stroke-width:9.18000031;stroke-linecap:butt;stroke-linejoin:miter;stroke-miterlimit:10;stroke-dasharray:none;stroke-opacity:1"
         d="m 1378.84,2865.38 v -61.2" /><path
         id="path238"
         style="fill:none;stroke:#000000;stroke-width:9.18000031;stroke-linecap:butt;stroke-linejoin:miter;stroke-miterlimit:10;stroke-dasharray:none;stroke-opacity:1"
         d="m 2300.51,918 v 61.199" /><path
         id="path240"
         style="fill:none;stroke:#000000;stroke-width:9.18000031;stroke-linecap:butt;stroke-linejoin:miter;stroke-miterlimit:10;stroke-dasharray:none;stroke-opacity:1"
         d="m 2300.51,2865.38 v -61.2" /><path
         id="path242"
         style="fill:none;stroke:#000000;stroke-width:9.18000031;stroke-linecap:butt;stroke-linejoin:miter;stroke-miterlimit:10;stroke-dasharray:none;stroke-opacity:1"
         d="m 3222.79,918 v 61.199" /><path
         id="path244"
         style="fill:none;stroke:#000000;stroke-width:9.18000031;stroke-linecap:butt;stroke-linejoin:miter;stroke-miterlimit:10;stroke-dasharray:none;stroke-opacity:1"
         d="m 3222.79,2865.38 v -61.2" /><path
         id="path246"
         style="fill:none;stroke:#000000;stroke-width:9.18000031;stroke-linecap:butt;stroke-linejoin:miter;stroke-miterlimit:10;stroke-dasharray:none;stroke-opacity:1"
         d="m 918,918 v 122.4" /><path
         id="path248"
         style="fill:none;stroke:#000000;stroke-width:9.18000031;stroke-linecap:butt;stroke-linejoin:miter;stroke-miterlimit:10;stroke-dasharray:none;stroke-opacity:1"
         d="m 918,2865.38 v -122.4" /><path
         id="path250"
         style="fill:none;stroke:#000000;stroke-width:9.18000031;stroke-linecap:butt;stroke-linejoin:miter;stroke-miterlimit:10;stroke-dasharray:none;stroke-opacity:1"
         d="m 1839.67,918 v 122.4" /><path
         id="path252"
         style="fill:none;stroke:#000000;stroke-width:9.18000031;stroke-linecap:butt;stroke-linejoin:miter;stroke-miterlimit:10;stroke-dasharray:none;stroke-opacity:1"
         d="m 1839.67,2865.38 v -122.4" /><path
         id="path254"
         style="fill:none;stroke:#000000;stroke-width:9.18000031;stroke-linecap:butt;stroke-linejoin:miter;stroke-miterlimit:10;stroke-dasharray:none;stroke-opacity:1"
         d="m 2761.34,918 v 122.4" /><path
         id="path256"
         style="fill:none;stroke:#000000;stroke-width:9.18000031;stroke-linecap:butt;stroke-linejoin:miter;stroke-miterlimit:10;stroke-dasharray:none;stroke-opacity:1"
         d="m 2761.34,2865.38 v -122.4" /><path
         id="path258"
         style="fill:none;stroke:#000000;stroke-width:9.18000031;stroke-linecap:butt;stroke-linejoin:miter;stroke-miterlimit:10;stroke-dasharray:none;stroke-opacity:1"
         d="m 3683.63,918 v 122.4" /><path
         id="path260"
         style="fill:none;stroke:#000000;stroke-width:9.18000031;stroke-linecap:butt;stroke-linejoin:miter;stroke-miterlimit:10;stroke-dasharray:none;stroke-opacity:1"
         d="m 3683.63,2865.38 v -122.4" /><g
         transform="scale(10)"
         id="g262"><text
           id="text268"
           style="font-variant:normal;font-weight:normal;font-size:17.13599968px;font-family:'Times New Roman';-inkscape-font-specification:Times-Roman;writing-mode:lr-tb;fill:#000000;fill-opacity:1;fill-rule:nonzero;stroke:none"
           transform="matrix(1,0,0,-1,87.6996,74.1742)"><tspan
             id="tspan264"
             y="0"
             x="0 87.883179 96.451172 180.05035 188.61835 272.21753 280.78552">0102030</tspan><tspan
             id="tspan266"
             y="17.8703"
             x="89.107002">E</tspan></text>
<text
           id="text272"
           style="font-variant:normal;font-weight:normal;font-size:8.56799984px;font-family:'Times New Roman';-inkscape-font-specification:Times-Roman;writing-mode:lr-tb;fill:#000000;fill-opacity:1;fill-rule:nonzero;stroke:none"
           transform="matrix(1,0,0,-1,187.3332,56.671088)"><tspan
             id="tspan270"
             y="0"
             x="0 4.2839999">10</tspan></text>
<text
           id="text276"
           style="font-variant:normal;font-weight:normal;font-size:12.11760044px;font-family:'Times New Roman';-inkscape-font-specification:Times-Roman;writing-mode:lr-tb;fill:#000000;fill-opacity:1;fill-rule:nonzero;stroke:none"
           transform="matrix(1,0,0,-1,195.9625,49.449608)"><tspan
             id="tspan274"
             y="0"
             x="0 8.0824394 13.462653 16.492054 21.872269 24.901669 34.329163">Be c.m.</tspan></text>
<text
           id="text280"
           style="font-variant:normal;font-weight:normal;font-size:17.13599968px;font-family:'Times New Roman';-inkscape-font-specification:Times-Roman;writing-mode:lr-tb;fill:#000000;fill-opacity:1;fill-rule:nonzero;stroke:none"
           transform="matrix(1,0,0,-1,237.7008,56.303908)"><tspan
             id="tspan278"
             y="0"
             x="0 5.7062879 20.940191 28.548576 40.920769">(MeV)</tspan></text>
</g><path
         id="path282"
         style="fill:none;stroke:#000000;stroke-width:9.18000031;stroke-linecap:butt;stroke-linejoin:miter;stroke-miterlimit:10;stroke-dasharray:none;stroke-opacity:1"
         d="M 918,918 V 2865.38" /><path
         id="path284"
         style="fill:none;stroke:#000000;stroke-width:9.18000031;stroke-linecap:butt;stroke-linejoin:miter;stroke-miterlimit:10;stroke-dasharray:none;stroke-opacity:1"
         d="M 3683.63,918 V 2865.38" /><path
         id="path286"
         style="fill:none;stroke:#000000;stroke-width:9.18000031;stroke-linecap:butt;stroke-linejoin:miter;stroke-miterlimit:10;stroke-dasharray:none;stroke-opacity:1"
         d="m 918,1112.62 h 61.199" /><path
         id="path288"
         style="fill:none;stroke:#000000;stroke-width:9.18000031;stroke-linecap:butt;stroke-linejoin:miter;stroke-miterlimit:10;stroke-dasharray:none;stroke-opacity:1"
         d="m 3683.63,1112.62 h -61.2" /><path
         id="path290"
         style="fill:none;stroke:#000000;stroke-width:9.18000031;stroke-linecap:butt;stroke-linejoin:miter;stroke-miterlimit:10;stroke-dasharray:none;stroke-opacity:1"
         d="m 918,1502.46 h 61.199" /><path
         id="path292"
         style="fill:none;stroke:#000000;stroke-width:9.18000031;stroke-linecap:butt;stroke-linejoin:miter;stroke-miterlimit:10;stroke-dasharray:none;stroke-opacity:1"
         d="m 3683.63,1502.46 h -61.2" /><path
         id="path294"
         style="fill:none;stroke:#000000;stroke-width:9.18000031;stroke-linecap:butt;stroke-linejoin:miter;stroke-miterlimit:10;stroke-dasharray:none;stroke-opacity:1"
         d="m 918,1891.69 h 61.199" /><path
         id="path296"
         style="fill:none;stroke:#000000;stroke-width:9.18000031;stroke-linecap:butt;stroke-linejoin:miter;stroke-miterlimit:10;stroke-dasharray:none;stroke-opacity:1"
         d="m 3683.63,1891.69 h -61.2" /><path
         id="path298"
         style="fill:none;stroke:#000000;stroke-width:9.18000031;stroke-linecap:butt;stroke-linejoin:miter;stroke-miterlimit:10;stroke-dasharray:none;stroke-opacity:1"
         d="m 918,2280.93 h 61.199" /><path
         id="path300"
         style="fill:none;stroke:#000000;stroke-width:9.18000031;stroke-linecap:butt;stroke-linejoin:miter;stroke-miterlimit:10;stroke-dasharray:none;stroke-opacity:1"
         d="m 3683.63,2280.93 h -61.2" /><path
         id="path302"
         style="fill:none;stroke:#000000;stroke-width:9.18000031;stroke-linecap:butt;stroke-linejoin:miter;stroke-miterlimit:10;stroke-dasharray:none;stroke-opacity:1"
         d="m 918,2670.77 h 61.199" /><path
         id="path304"
         style="fill:none;stroke:#000000;stroke-width:9.18000031;stroke-linecap:butt;stroke-linejoin:miter;stroke-miterlimit:10;stroke-dasharray:none;stroke-opacity:1"
         d="m 3683.63,2670.77 h -61.2" /><path
         id="path306"
         style="fill:none;stroke:#000000;stroke-width:9.18000031;stroke-linecap:butt;stroke-linejoin:miter;stroke-miterlimit:10;stroke-dasharray:none;stroke-opacity:1"
         d="m 918,918 h 122.4" /><path
         id="path308"
         style="fill:none;stroke:#000000;stroke-width:9.18000031;stroke-linecap:butt;stroke-linejoin:miter;stroke-miterlimit:10;stroke-dasharray:none;stroke-opacity:1"
         d="m 3683.63,918 h -122.4" /><path
         id="path310"
         style="fill:none;stroke:#000000;stroke-width:9.18000031;stroke-linecap:butt;stroke-linejoin:miter;stroke-miterlimit:10;stroke-dasharray:none;stroke-opacity:1"
         d="m 918,1307.23 h 122.4" /><path
         id="path312"
         style="fill:none;stroke:#000000;stroke-width:9.18000031;stroke-linecap:butt;stroke-linejoin:miter;stroke-miterlimit:10;stroke-dasharray:none;stroke-opacity:1"
         d="m 3683.63,1307.23 h -122.4" /><path
         id="path314"
         style="fill:none;stroke:#000000;stroke-width:9.18000031;stroke-linecap:butt;stroke-linejoin:miter;stroke-miterlimit:10;stroke-dasharray:none;stroke-opacity:1"
         d="m 918,1697.07 h 122.4" /><path
         id="path316"
         style="fill:none;stroke:#000000;stroke-width:9.18000031;stroke-linecap:butt;stroke-linejoin:miter;stroke-miterlimit:10;stroke-dasharray:none;stroke-opacity:1"
         d="m 3683.63,1697.07 h -122.4" /><path
         id="path318"
         style="fill:none;stroke:#000000;stroke-width:9.18000031;stroke-linecap:butt;stroke-linejoin:miter;stroke-miterlimit:10;stroke-dasharray:none;stroke-opacity:1"
         d="m 918,2086.31 h 122.4" /><path
         id="path320"
         style="fill:none;stroke:#000000;stroke-width:9.18000031;stroke-linecap:butt;stroke-linejoin:miter;stroke-miterlimit:10;stroke-dasharray:none;stroke-opacity:1"
         d="m 3683.63,2086.31 h -122.4" /><path
         id="path322"
         style="fill:none;stroke:#000000;stroke-width:9.18000031;stroke-linecap:butt;stroke-linejoin:miter;stroke-miterlimit:10;stroke-dasharray:none;stroke-opacity:1"
         d="m 918,2475.54 h 122.4" /><path
         id="path324"
         style="fill:none;stroke:#000000;stroke-width:9.18000031;stroke-linecap:butt;stroke-linejoin:miter;stroke-miterlimit:10;stroke-dasharray:none;stroke-opacity:1"
         d="m 3683.63,2475.54 h -122.4" /><path
         id="path326"
         style="fill:none;stroke:#000000;stroke-width:9.18000031;stroke-linecap:butt;stroke-linejoin:miter;stroke-miterlimit:10;stroke-dasharray:none;stroke-opacity:1"
         d="m 918,2865.38 h 122.4" /><path
         id="path328"
         style="fill:none;stroke:#000000;stroke-width:9.18000031;stroke-linecap:butt;stroke-linejoin:miter;stroke-miterlimit:10;stroke-dasharray:none;stroke-opacity:1"
         d="m 3683.63,2865.38 h -122.4" /><g
         transform="scale(10)"
         id="g330"><text
           id="text344"
           style="font-variant:normal;font-weight:normal;font-size:17.13599968px;font-family:'Times New Roman';-inkscape-font-specification:Times-Roman;writing-mode:lr-tb;fill:#000000;fill-opacity:1;fill-rule:nonzero;stroke:none"
           transform="matrix(1,0,0,-1,77.5402,86.1695)"><tspan
             id="tspan332"
             y="0"
             x="0">0</tspan><tspan
             id="tspan334"
             y="-38.8008"
             x="1.40781">1</tspan><tspan
             id="tspan336"
             y="-77.785202"
             x="0">2</tspan><tspan
             id="tspan338"
             y="-116.8309"
             x="0.67343801">3</tspan><tspan
             id="tspan340"
             y="-155.6317"
             x="0">4</tspan><tspan
             id="tspan342"
             y="-194.6161"
             x="0.67343801">5</tspan></text>
<text
           id="text348"
           style="font-variant:normal;font-weight:normal;font-size:17.13599968px;font-family:'Times New Roman';-inkscape-font-specification:Times-Roman;writing-mode:lr-tb;fill:#000000;fill-opacity:1;fill-rule:nonzero;stroke:none"
           transform="matrix(0,1,1,0,64.3211,106.488)"><tspan
             id="tspan346"
             y="0"
             x="0">d</tspan></text>
<text
           id="text352"
           style="font-variant:normal;font-weight:normal;font-size:17.13599968px;font-family:Symbol;-inkscape-font-specification:Symbol;writing-mode:lr-tb;fill:#000000;fill-opacity:1;fill-rule:nonzero;stroke:none"
           transform="matrix(0,1,1,0,64.3211,115.1173)"><tspan
             id="tspan350"
             y="0"
             x="0">σ</tspan></text>
<text
           id="text356"
           style="font-variant:normal;font-weight:normal;font-size:17.13599968px;font-family:'Times New Roman';-inkscape-font-specification:Times-Roman;writing-mode:lr-tb;fill:#000000;fill-opacity:1;fill-rule:nonzero;stroke:none"
           transform="matrix(0,1,1,0,64.3211,125.4603)"><tspan
             id="tspan354"
             y="0"
             x="0 4.7638078 13.331808">/dE</tspan></text>
<text
           id="text360"
           style="font-variant:normal;font-weight:normal;font-size:8.56799984px;font-family:'Times New Roman';-inkscape-font-specification:Times-Roman;writing-mode:lr-tb;fill:#000000;fill-opacity:1;fill-rule:nonzero;stroke:none"
           transform="matrix(0,1,1,0,63.892975,149.2056)"><tspan
             id="tspan358"
             y="0"
             x="0 4.2839999">10</tspan></text>
<text
           id="text364"
           style="font-variant:normal;font-weight:normal;font-size:12.11760044px;font-family:'Times New Roman';-inkscape-font-specification:Times-Roman;writing-mode:lr-tb;fill:#000000;fill-opacity:1;fill-rule:nonzero;stroke:none"
           transform="matrix(0,1,1,0,71.175785,157.8349)"><tspan
             id="tspan362"
             y="0"
             x="0 8.0824394 13.462653 16.492054 21.872269 24.901669 34.329163">Be c.m.</tspan></text>
<text
           id="text368"
           style="font-variant:normal;font-weight:normal;font-size:17.13599968px;font-family:'Times New Roman';-inkscape-font-specification:Times-Roman;writing-mode:lr-tb;fill:#000000;fill-opacity:1;fill-rule:nonzero;stroke:none"
           transform="matrix(0,1,1,0,64.321095,199.5732)"><tspan
             id="tspan366"
             y="0"
             x="0 5.7062879 19.038095 27.606096 32.369904 47.603809 55.212193 67.584381">(mb/MeV)</tspan></text>
</g><path
         id="path370"
         style="fill:none;stroke:#000000;stroke-width:9.18000031;stroke-linecap:butt;stroke-linejoin:miter;stroke-miterlimit:10;stroke-dasharray:none;stroke-opacity:1"
         d="M 918,918 V 2865.38 H 3683.63 V 918 Z" /><path
         id="path372"
         style="fill:none;stroke:#000000;stroke-width:18.36000061;stroke-linecap:butt;stroke-linejoin:miter;stroke-miterlimit:10;stroke-dasharray:none;stroke-opacity:1"
         d="m 4236.27,2360.48 69.15,25.71 69.16,66.7 69.15,78.95 69.16,57.53 69.15,10.41 69.16,-47.74 69.16,-99.15 69.15,-135.25 69.16,-151.16 69.15,-149.94 69.16,-139.54 69.16,-123.01 69.15,-108.32 69.16,-94.25 69.16,-83.23 69.15,-74.67 69.16,-67.32 69.15,-59.97 69.16,-52.63 69.15,-45.9 69.16,-37.95 69.16,-32.43 69.15,-26.93 69.16,-22.03 69.15,-18.98 69.16,-16.52 69.16,-14.075 69.15,-11.629 69.16,-10.402 69.16,-8.57 68.54,-7.344 69.15,-6.121 69.16,-4.895 69.16,-4.285 69.15,-3.672 69.16,-3.058 69.16,-2.45 69.15,-2.449 69.15,-1.836 69.16,-1.222 h 0.61" /><path
         id="path374"
         style="fill:none;stroke:#ff0000;stroke-width:18.36000061;stroke-linecap:butt;stroke-linejoin:miter;stroke-miterlimit:10;stroke-dasharray:none;stroke-opacity:1"
         d="m 4236.27,2524.5 69.15,23.87 69.16,62.42 69.15,76.5 69.16,58.75 69.15,15.92 69.16,-41.01 69.16,-94.86 69.15,-136.47 69.16,-157.9 69.15,-162.79 69.16,-154.23 69.16,-138.92 69.15,-121.17 69.16,-104.66 69.16,-91.18 69.15,-80.18 69.16,-72.21 69.15,-65.49 69.16,-59.36 69.15,-52.64 69.16,-46.51 69.16,-39.77 69.15,-33.66 69.16,-28.16 69.15,-23.86 69.16,-19.59 69.16,-17.14 69.15,-14.68 69.16,-12.856 69.16,-11.016 68.54,-9.793 69.15,-7.957 69.16,-6.73 69.16,-6.121 69.15,-4.281 69.16,-4.286 69.16,-3.058 69.15,-3.063 69.15,-2.449 69.16,-1.836 h 0.61" /><path
         id="path376"
         style="fill:none;stroke:#0000ff;stroke-width:18.36000061;stroke-linecap:butt;stroke-linejoin:miter;stroke-miterlimit:10;stroke-dasharray:none;stroke-opacity:1"
         d="m 4236.27,2366.61 69.15,17.74 69.16,45.29 69.15,54.47 69.16,39.17 69.15,3.06 69.16,-43.46 69.16,-90.57 69.15,-125.46 69.16,-145.66 69.15,-149.33 69.16,-141.37 69.16,-124.85 69.15,-107.71 69.16,-89.96 69.16,-75.28 69.15,-63.65 69.16,-55.08 69.15,-48.34 69.16,-43.46 69.15,-38.55 138.32,-64.26 138.31,-47.13 138.31,-33.04 138.31,-23.87 138.32,-17.751 137.69,-14.075 138.32,-11.015 138.31,-8.571 138.31,-7.343 138.31,-6.117 h 0.61" /><path
         id="path378"
         style="fill:none;stroke:#000000;stroke-width:9.18000031;stroke-linecap:butt;stroke-linejoin:miter;stroke-miterlimit:10;stroke-dasharray:none;stroke-opacity:1"
         d="M 4236.27,918 H 7001.89" /><path
         id="path380"
         style="fill:none;stroke:#000000;stroke-width:9.18000031;stroke-linecap:butt;stroke-linejoin:miter;stroke-miterlimit:10;stroke-dasharray:none;stroke-opacity:1"
         d="M 4236.27,2865.38 H 7001.89" /><path
         id="path382"
         style="fill:none;stroke:#000000;stroke-width:9.18000031;stroke-linecap:butt;stroke-linejoin:miter;stroke-miterlimit:10;stroke-dasharray:none;stroke-opacity:1"
         d="m 4582.04,918 v 61.199" /><path
         id="path384"
         style="fill:none;stroke:#000000;stroke-width:9.18000031;stroke-linecap:butt;stroke-linejoin:miter;stroke-miterlimit:10;stroke-dasharray:none;stroke-opacity:1"
         d="m 4582.04,2865.38 v -61.2" /><path
         id="path386"
         style="fill:none;stroke:#000000;stroke-width:9.18000031;stroke-linecap:butt;stroke-linejoin:miter;stroke-miterlimit:10;stroke-dasharray:none;stroke-opacity:1"
         d="m 5273.61,918 v 61.199" /><path
         id="path388"
         style="fill:none;stroke:#000000;stroke-width:9.18000031;stroke-linecap:butt;stroke-linejoin:miter;stroke-miterlimit:10;stroke-dasharray:none;stroke-opacity:1"
         d="m 5273.61,2865.38 v -61.2" /><path
         id="path390"
         style="fill:none;stroke:#000000;stroke-width:9.18000031;stroke-linecap:butt;stroke-linejoin:miter;stroke-miterlimit:10;stroke-dasharray:none;stroke-opacity:1"
         d="m 4236.27,918 v 122.4" /><path
         id="path392"
         style="fill:none;stroke:#000000;stroke-width:9.18000031;stroke-linecap:butt;stroke-linejoin:miter;stroke-miterlimit:10;stroke-dasharray:none;stroke-opacity:1"
         d="m 4236.27,2865.38 v -122.4" /><path
         id="path394"
         style="fill:none;stroke:#000000;stroke-width:9.18000031;stroke-linecap:butt;stroke-linejoin:miter;stroke-miterlimit:10;stroke-dasharray:none;stroke-opacity:1"
         d="m 4927.82,918 v 122.4" /><path
         id="path396"
         style="fill:none;stroke:#000000;stroke-width:9.18000031;stroke-linecap:butt;stroke-linejoin:miter;stroke-miterlimit:10;stroke-dasharray:none;stroke-opacity:1"
         d="m 4927.82,2865.38 v -122.4" /><path
         id="path398"
         style="fill:none;stroke:#000000;stroke-width:9.18000031;stroke-linecap:butt;stroke-linejoin:miter;stroke-miterlimit:10;stroke-dasharray:none;stroke-opacity:1"
         d="m 5619.38,918 v 122.4" /><path
         id="path400"
         style="fill:none;stroke:#000000;stroke-width:9.18000031;stroke-linecap:butt;stroke-linejoin:miter;stroke-miterlimit:10;stroke-dasharray:none;stroke-opacity:1"
         d="m 5619.38,2865.38 v -122.4" /><g
         transform="scale(10)"
         id="g402"><text
           id="text410"
           style="font-variant:normal;font-weight:normal;font-size:17.13599968px;font-family:'Times New Roman';-inkscape-font-specification:Times-Roman;writing-mode:lr-tb;fill:#000000;fill-opacity:1;fill-rule:nonzero;stroke:none"
           transform="matrix(1,0,0,-1,419.587,74.1742)"><tspan
             id="tspan404"
             y="0"
             x="0">0</tspan><tspan
             id="tspan406"
             y="0.24453101"
             x="69.462097">5</tspan><tspan
             id="tspan408"
             y="0"
             x="133.9668 142.53481">10</tspan></text>
<text
           id="text414"
           style="font-variant:normal;font-weight:normal;font-size:17.13599968px;font-family:Symbol;-inkscape-font-specification:Symbol;writing-mode:lr-tb;fill:#000000;fill-opacity:1;fill-rule:nonzero;stroke:none"
           transform="matrix(1,0,0,-1,539.8452,55.8144)"><tspan
             id="tspan412"
             y="0"
             x="0">θ</tspan></text>
<text
           id="text418"
           style="font-variant:normal;font-weight:normal;font-size:17.13599968px;font-family:'Times New Roman';-inkscape-font-specification:Times-Roman;writing-mode:lr-tb;fill:#000000;fill-opacity:1;fill-rule:nonzero;stroke:none"
           transform="matrix(1,0,0,-1,548.71903,55.8144)"><tspan
             id="tspan416"
             y="0"
             x="0 5.7062879 14.274288 21.882671 30.450672">(deg)</tspan></text>
</g><path
         id="path420"
         style="fill:none;stroke:#000000;stroke-width:9.18000031;stroke-linecap:butt;stroke-linejoin:miter;stroke-miterlimit:10;stroke-dasharray:none;stroke-opacity:1"
         d="M 4236.27,918 V 2865.38" /><path
         id="path422"
         style="fill:none;stroke:#000000;stroke-width:9.18000031;stroke-linecap:butt;stroke-linejoin:miter;stroke-miterlimit:10;stroke-dasharray:none;stroke-opacity:1"
         d="m 4236.27,1080.18 h 61.19" /><path
         id="path424"
         style="fill:none;stroke:#000000;stroke-width:9.18000031;stroke-linecap:butt;stroke-linejoin:miter;stroke-miterlimit:10;stroke-dasharray:none;stroke-opacity:1"
         d="m 4236.27,1404.54 h 61.19" /><path
         id="path426"
         style="fill:none;stroke:#000000;stroke-width:9.18000031;stroke-linecap:butt;stroke-linejoin:miter;stroke-miterlimit:10;stroke-dasharray:none;stroke-opacity:1"
         d="m 4236.27,1729.51 h 61.19" /><path
         id="path428"
         style="fill:none;stroke:#000000;stroke-width:9.18000031;stroke-linecap:butt;stroke-linejoin:miter;stroke-miterlimit:10;stroke-dasharray:none;stroke-opacity:1"
         d="m 4236.27,2053.87 h 61.19" /><path
         id="path430"
         style="fill:none;stroke:#000000;stroke-width:9.18000031;stroke-linecap:butt;stroke-linejoin:miter;stroke-miterlimit:10;stroke-dasharray:none;stroke-opacity:1"
         d="m 4236.27,2378.23 h 61.19" /><path
         id="path432"
         style="fill:none;stroke:#000000;stroke-width:9.18000031;stroke-linecap:butt;stroke-linejoin:miter;stroke-miterlimit:10;stroke-dasharray:none;stroke-opacity:1"
         d="m 4236.27,2703.2 h 61.19" /><path
         id="path434"
         style="fill:none;stroke:#000000;stroke-width:9.18000031;stroke-linecap:butt;stroke-linejoin:miter;stroke-miterlimit:10;stroke-dasharray:none;stroke-opacity:1"
         d="m 4236.27,918 h 122.39" /><path
         id="path436"
         style="fill:none;stroke:#000000;stroke-width:9.18000031;stroke-linecap:butt;stroke-linejoin:miter;stroke-miterlimit:10;stroke-dasharray:none;stroke-opacity:1"
         d="m 4236.27,1242.36 h 122.39" /><path
         id="path438"
         style="fill:none;stroke:#000000;stroke-width:9.18000031;stroke-linecap:butt;stroke-linejoin:miter;stroke-miterlimit:10;stroke-dasharray:none;stroke-opacity:1"
         d="m 4236.27,1567.33 h 122.39" /><path
         id="path440"
         style="fill:none;stroke:#000000;stroke-width:9.18000031;stroke-linecap:butt;stroke-linejoin:miter;stroke-miterlimit:10;stroke-dasharray:none;stroke-opacity:1"
         d="m 4236.27,1891.69 h 122.39" /><path
         id="path442"
         style="fill:none;stroke:#000000;stroke-width:9.18000031;stroke-linecap:butt;stroke-linejoin:miter;stroke-miterlimit:10;stroke-dasharray:none;stroke-opacity:1"
         d="m 4236.27,2216.05 h 122.39" /><path
         id="path444"
         style="fill:none;stroke:#000000;stroke-width:9.18000031;stroke-linecap:butt;stroke-linejoin:miter;stroke-miterlimit:10;stroke-dasharray:none;stroke-opacity:1"
         d="m 4236.27,2541.02 h 122.39" /><path
         id="path446"
         style="fill:none;stroke:#000000;stroke-width:9.18000031;stroke-linecap:butt;stroke-linejoin:miter;stroke-miterlimit:10;stroke-dasharray:none;stroke-opacity:1"
         d="m 4236.27,2865.38 h 122.39" /><path
         id="path448"
         style="fill:none;stroke:#000000;stroke-width:9.18000031;stroke-linecap:butt;stroke-linejoin:miter;stroke-miterlimit:10;stroke-dasharray:none;stroke-opacity:1"
         d="M 4236.27,918 V 2865.38 H 7001.89 V 918 Z" /><path
         id="path450"
         style="fill:#ffffff;fill-opacity:1;fill-rule:nonzero;stroke:none"
         d="m 3064.29,3867.84 h 2176.88 v 810.902 H 3064.29 Z" /><path
         id="path452"
         style="fill:none;stroke:#000000;stroke-width:9.18000031;stroke-linecap:butt;stroke-linejoin:miter;stroke-miterlimit:10;stroke-dasharray:none;stroke-opacity:1"
         d="m 3064.29,4678.74 v -810.9 h 2176.88 v 810.9 z" /><g
         transform="scale(10)"
         id="g454"><text
           id="text458"
           style="font-variant:normal;font-weight:normal;font-size:17.13599968px;font-family:'Times New Roman';-inkscape-font-specification:Times-Roman;writing-mode:lr-tb;fill:#000000;fill-opacity:1;fill-rule:nonzero;stroke:none"
           transform="matrix(1,0,0,-1,350.186,443.271)"><tspan
             id="tspan456"
             y="0"
             x="0 12.372192">Vp</tspan></text>
<text
           id="text462"
           style="font-variant:normal;font-weight:normal;font-size:12.11760044px;font-family:'Times New Roman';-inkscape-font-specification:Times-Roman;writing-mode:lr-tb;fill:#000000;fill-opacity:1;fill-rule:nonzero;stroke:none"
           transform="matrix(1,0,0,-1,371.1165,453.5526)"><tspan
             id="tspan460"
             y="0"
             x="0 6.0588002">11</tspan></text>
<text
           id="text466"
           style="font-variant:normal;font-weight:normal;font-size:17.13599968px;font-family:'Times New Roman';-inkscape-font-specification:Times-Roman;writing-mode:lr-tb;fill:#000000;fill-opacity:1;fill-rule:nonzero;stroke:none"
           transform="matrix(1,0,0,-1,383.1118,443.271)"><tspan
             id="tspan464"
             y="0"
             x="0 11.429712 19.038095 23.322096 32.849712 45.221905 55.692001 68.064194">Be FOLD </tspan></text>
<text
           id="text470"
           style="font-variant:normal;font-weight:normal;font-size:17.13599968px;font-family:Symbol;-inkscape-font-specification:Symbol;writing-mode:lr-tb;fill:#000000;fill-opacity:1;fill-rule:nonzero;stroke:none"
           transform="matrix(1,0,0,-1,455.3278,443.271)"><tspan
             id="tspan468"
             y="0"
             x="0">σ</tspan></text>
<text
           id="text474"
           style="font-variant:normal;font-weight:normal;font-size:17.13599968px;font-family:'Times New Roman';-inkscape-font-specification:Times-Roman;writing-mode:lr-tb;fill:#000000;fill-opacity:1;fill-rule:nonzero;stroke:none"
           transform="matrix(1,0,0,-1,465.6704,443.271)"><tspan
             id="tspan472"
             y="0"
             x="0 9.6647043 18.232704 26.800703 31.084703 44.416512">=29 mb</tspan></text>
</g><path
         id="path476"
         style="fill:none;stroke:#000000;stroke-width:18.36000061;stroke-linecap:butt;stroke-linejoin:miter;stroke-miterlimit:10;stroke-dasharray:none;stroke-opacity:1"
         d="m 3134.66,4506.16 h 244.8" /><g
         transform="scale(10)"
         id="g478"><text
           id="text482"
           style="font-variant:normal;font-weight:normal;font-size:17.13599968px;font-family:'Times New Roman';-inkscape-font-specification:Times-Roman;writing-mode:lr-tb;fill:#000000;fill-opacity:1;fill-rule:nonzero;stroke:none"
           transform="matrix(1,0,0,-1,350.186,414.875)"><tspan
             id="tspan480"
             y="0"
             x="0 12.372192">Vp</tspan></text>
<text
           id="text486"
           style="font-variant:normal;font-weight:normal;font-size:12.11760044px;font-family:'Times New Roman';-inkscape-font-specification:Times-Roman;writing-mode:lr-tb;fill:#000000;fill-opacity:1;fill-rule:nonzero;stroke:none"
           transform="matrix(1,0,0,-1,371.1165,425.1563)"><tspan
             id="tspan484"
             y="0"
             x="0 6.0588002">11</tspan></text>
<text
           id="text490"
           style="font-variant:normal;font-weight:normal;font-size:17.13599968px;font-family:'Times New Roman';-inkscape-font-specification:Times-Roman;writing-mode:lr-tb;fill:#000000;fill-opacity:1;fill-rule:nonzero;stroke:none"
           transform="matrix(1,0,0,-1,383.1118,414.875)"><tspan
             id="tspan488"
             y="0"
             x="0 11.429712 19.038095 23.322096 35.694286 48.066479">Be KD </tspan></text>
<text
           id="text494"
           style="font-variant:normal;font-weight:normal;font-size:17.13599968px;font-family:Symbol;-inkscape-font-specification:Symbol;writing-mode:lr-tb;fill:#000000;fill-opacity:1;fill-rule:nonzero;stroke:none"
           transform="matrix(1,0,0,-1,435.4376,414.875)"><tspan
             id="tspan492"
             y="0"
             x="0">σ</tspan></text>
<text
           id="text498"
           style="font-variant:normal;font-weight:normal;font-size:17.13599968px;font-family:'Times New Roman';-inkscape-font-specification:Times-Roman;writing-mode:lr-tb;fill:#000000;fill-opacity:1;fill-rule:nonzero;stroke:none"
           transform="matrix(1,0,0,-1,445.7192,414.875)"><tspan
             id="tspan496"
             y="0"
             x="0 9.6647043 18.232704 26.800703 31.084703 44.416512">=34 mb</tspan></text>
</g><path
         id="path500"
         style="fill:none;stroke:#ff0000;stroke-width:18.36000061;stroke-linecap:butt;stroke-linejoin:miter;stroke-miterlimit:10;stroke-dasharray:none;stroke-opacity:1"
         d="m 3134.66,4221.58 h 244.8" /><g
         transform="scale(10)"
         id="g502"><text
           id="text506"
           style="font-variant:normal;font-weight:normal;font-size:17.13599968px;font-family:'Times New Roman';-inkscape-font-specification:Times-Roman;writing-mode:lr-tb;fill:#000000;fill-opacity:1;fill-rule:nonzero;stroke:none"
           transform="matrix(1,0,0,-1,350.186,393.149)"><tspan
             id="tspan504"
             y="0"
             x="0 9.5276155 17.136 25.704 34.271999 41.880383 49.48877 58.056767">Faddeev </tspan></text>
<text
           id="text510"
           style="font-variant:normal;font-weight:normal;font-size:17.13599968px;font-family:Symbol;-inkscape-font-specification:Symbol;writing-mode:lr-tb;fill:#000000;fill-opacity:1;fill-rule:nonzero;stroke:none"
           transform="matrix(1,0,0,-1,412.6102,393.149)"><tspan
             id="tspan508"
             y="0"
             x="0">σ</tspan></text>
<text
           id="text514"
           style="font-variant:normal;font-weight:normal;font-size:17.13599968px;font-family:'Times New Roman';-inkscape-font-specification:Times-Roman;writing-mode:lr-tb;fill:#000000;fill-opacity:1;fill-rule:nonzero;stroke:none"
           transform="matrix(1,0,0,-1,422.9528,393.149)"><tspan
             id="tspan512"
             y="0"
             x="0 9.6647043 18.232704 26.800703 31.084703 44.416512">=33 mb</tspan></text>
</g><path
         id="path516"
         style="fill:none;stroke:#0000ff;stroke-width:18.36000061;stroke-linecap:butt;stroke-linejoin:miter;stroke-miterlimit:10;stroke-dasharray:none;stroke-opacity:1"
         d="m 3134.66,3989.02 h 244.8" /></g></g></svg>