<?xml version="1.0" encoding="UTF-8" standalone="no"?>
<svg
   xmlns:dc="http://purl.org/dc/elements/1.1/"
   xmlns:cc="http://creativecommons.org/ns#"
   xmlns:rdf="http://www.w3.org/1999/02/22-rdf-syntax-ns#"
   xmlns:svg="http://www.w3.org/2000/svg"
   xmlns="http://www.w3.org/2000/svg"
   viewBox="0 0 793.33331 1122.6667"
   height="1122.6667"
   width="793.33331"
   xml:space="preserve"
   id="svg2"
   version="1.1"><metadata
     id="metadata8"><rdf:RDF><cc:Work
         rdf:about=""><dc:format>image/svg+xml</dc:format><dc:type
           rdf:resource="http://purl.org/dc/dcmitype/StillImage" /></cc:Work></rdf:RDF></metadata><defs
     id="defs6" /><g
     transform="matrix(1.3333333,0,0,-1.3333333,0,1122.6667)"
     id="g10"><g
       transform="scale(0.1)"
       id="g12"><path
         id="path14"
         style="fill:#ffffff;fill-opacity:1;fill-rule:nonzero;stroke:none"
         d="M 0,0 H 7919.89 V 6120 H 0 Z" /><path
         id="path16"
         style="fill:none;stroke:#000000;stroke-width:18.36000061;stroke-linecap:butt;stroke-linejoin:miter;stroke-miterlimit:10;stroke-dasharray:none;stroke-opacity:1"
         d="M 917.387,3255.23 H 994.5 l 15.3,0.61 h 77.11 l 15.3,0.61 h 15.3 15.3 15.3 l 15.3,0.61 h 15.3 15.92 l 15.3,0.62 h 15.29 15.3 l 15.3,0.61 h 15.31 l 15.3,0.61 15.29,0.61 h 15.3 l 15.92,0.62 15.29,0.6 h 15.31 l 15.3,0.62 15.3,0.61 15.3,0.61 15.29,1.23 15.31,0.61 15.3,0.61 15.91,1.22 15.3,0.62 15.3,1.22 15.3,0.61 15.3,1.23 15.3,0.61 15.3,1.22 15.3,1.23 15.3,1.83 15.3,1.23 15.91,1.83 15.3,1.23 15.3,1.83 15.3,1.23 15.3,1.83 15.3,1.22 15.3,1.23 15.3,1.22 15.3,1.84 15.91,1.22 15.3,1.23 15.3,1.22 15.3,1.22 15.3,1.23 15.3,1.22 15.3,0.62 15.3,0.61 15.3,1.22 h 15.91 l 15.31,1.23 15.3,0.61 15.29,1.22 15.3,1.22 15.3,2.45 15.31,3.68 15.3,4.89 15.29,7.35 15.92,10.4 15.3,13.46 15.29,18.98 15.31,25.09 15.3,33.05 15.3,44.06 15.3,58.75 15.29,75.89 15.31,97.31 15.3,121.78 15.91,145.66 15.3,167.08 15.3,180.54 15.3,181.15 15.3,168.3 15.3,136.48 15.3,89.96 15.3,31.21 15.3,-31.21 15.91,-89.96 15.3,-136.48 15.3,-168.3 15.3,-181.15 15.3,-180.54 15.3,-167.08 15.3,-145.66 15.3,-121.78 15.3,-97.31 15.91,-75.89 15.3,-58.75 15.3,-44.06 15.3,-33.05 15.3,-25.09 15.3,-18.98 15.3,-13.46 15.3,-10.4 15.3,-7.35 15.91,-4.89 15.3,-3.68 15.31,-2.45 15.29,-1.22 15.3,-1.22 15.3,-0.61 15.3,-1.23 h 15.31 l 15.3,-1.22 15.91,-0.61 15.3,-0.62 15.3,-1.22 15.29,-1.23 15.31,-1.22 15.3,-1.22 15.3,-1.23 15.3,-1.22 15.29,-1.84 15.31,-1.22 15.91,-1.23 15.3,-1.22 15.3,-1.83 15.3,-1.23 15.3,-1.83 15.3,-1.23 15.3,-1.83 15.3,-1.23 15.3,-1.83 15.91,-1.23 15.3,-1.22 15.3,-0.61 15.3,-1.23 15.3,-0.61 15.3,-1.22 15.3,-0.62 15.3,-1.22 15.3,-0.61 15.91,-0.61 15.3,-1.23 15.3,-0.61 15.3,-0.61 15.3,-0.62 h 15.3 l 15.3,-0.6 15.3,-0.62 h 15.3 l 15.91,-0.61 15.3,-0.61 h 15.3 l 15.31,-0.61 h 15.29 15.3 l 15.3,-0.62 h 15.3 15.31 l 15.29,-0.61 h 15.92 15.3 15.3 l 15.29,-0.61 h 15.31 15.3 15.3 15.29 15.3 l 15.92,-0.61 h 15.3 15.3 15.3 15.3 15.3 0.61" /><path
         id="path18"
         style="fill:none;stroke:#ff0000;stroke-width:18.36000061;stroke-linecap:butt;stroke-linejoin:miter;stroke-miterlimit:10;stroke-dasharray:none;stroke-opacity:1"
         d="m 917.387,3255.23 h 69.769 l 17.744,0.61 h 70.99 l 17.75,0.61 h 17.75 17.75 l 17.75,0.61 h 17.75 17.74 l 17.75,0.62 h 17.75 l 17.75,0.61 17.75,0.61 h 17.75 l 17.74,0.61 17.75,0.62 17.75,0.6 17.75,0.62 17.74,0.61 17.75,0.61 17.75,1.23 17.75,0.61 17.75,1.22 17.75,1.23 17.74,1.22 17.75,1.22 17.75,1.23 17.75,1.83 17.74,1.23 17.75,1.84 17.75,1.22 17.75,1.83 17.75,1.84 17.75,1.84 17.74,1.83 17.75,2.45 17.75,1.84 17.74,2.44 17.75,1.84 17.75,1.83 17.75,1.84 17.75,1.23 17.75,1.22 17.74,1.22 17.75,1.23 17.75,1.22 17.75,0.61 17.74,1.23 17.75,0.61 17.75,0.61 17.75,1.23 17.75,1.22 17.75,2.45 17.74,4.28 17.75,6.12 17.75,8.57 17.75,12.85 17.75,17.14 17.75,23.87 17.74,33.04 17.75,45.91 17.75,63.03 17.75,85.68 17.74,113.83 17.75,146.88 17.75,179.32 17.75,205.02 17.75,215.42 17.75,205.63 17.74,173.2 17.75,118.11 17.75,41.62 17.75,-41.62 17.74,-118.11 17.75,-173.2 17.75,-205.63 17.75,-215.42 17.75,-205.02 17.74,-179.32 17.75,-146.88 17.75,-113.83 17.75,-85.68 17.74,-63.03 17.75,-45.91 17.75,-33.04 17.75,-23.87 17.75,-17.14 17.75,-12.85 17.74,-8.57 17.75,-6.12 17.75,-4.28 18.36,-2.45 17.75,-1.22 17.74,-1.23 17.75,-0.61 17.75,-0.61 17.75,-1.23 17.75,-0.61 17.75,-1.22 17.74,-1.23 17.75,-1.22 17.75,-1.22 17.75,-1.23 17.74,-1.84 17.75,-1.83 17.75,-1.84 17.75,-2.44 17.75,-1.84 17.75,-2.45 17.74,-1.83 17.75,-1.84 17.75,-1.84 17.75,-1.83 17.75,-1.22 17.75,-1.84 17.74,-1.23 17.75,-1.83 17.75,-1.23 17.75,-1.22 17.74,-1.22 17.75,-1.23 17.75,-1.22 17.75,-0.61 17.75,-1.23 17.75,-0.61 17.74,-0.61 17.75,-0.62 17.75,-0.6 17.75,-0.62 17.74,-0.61 h 17.75 l 17.75,-0.61 17.75,-0.61 h 17.75 l 17.75,-0.62 h 17.74 17.75 l 17.75,-0.61 h 17.74 17.75 l 17.75,-0.61 h 17.75 17.75 17.75 17.74 l 17.75,-0.61 h 17.75 17.75 17.74 16.53" /><path
         id="path20"
         style="fill:none;stroke:#0000ff;stroke-width:18.36000061;stroke-linecap:butt;stroke-linejoin:miter;stroke-miterlimit:10;stroke-dasharray:none;stroke-opacity:1"
         d="m 917.387,3258.29 h 69.769 l 4.285,0.61 h 55.689 l 4.29,0.61 h 4.89 4.29 4.89 4.9 4.28 4.9 4.28 4.9 4.28 4.9 l 4.28,0.62 h 4.9 4.28 4.9 4.28 4.9 4.28 4.9 4.28 l 4.9,0.6 h 4.89 4.29 4.89 4.29 4.9 4.28 4.9 l 4.28,0.62 h 4.9 4.28 4.9 4.28 4.89 4.29 l 4.89,0.61 h 4.9 4.28 4.9 4.28 4.9 4.28 l 4.9,0.61 h 4.28 4.9 4.28 4.9 l 4.28,0.61 h 4.9 4.28 4.9 4.29 l 4.89,0.62 h 4.89 4.29 4.89 4.29 l 4.89,0.61 h 4.29 4.9 4.28 l 4.9,0.61 h 4.28 4.9 4.28 l 4.9,0.61 h 4.28 4.9 4.89 l 4.29,0.61 h 4.89 4.29 l 4.89,0.62 h 4.29 4.89 l 4.29,0.61 h 4.89 4.29 4.89 l 4.28,0.61 h 4.9 4.28 l 4.9,0.61 h 4.29 4.89 l 4.9,0.61 h 4.28 l 4.9,0.62 h 4.28 4.9 l 4.28,0.61 h 4.9 4.28 l 4.9,0.61 h 4.28 l 4.9,0.61 h 4.28 4.9 l 4.28,0.61 h 4.9 l 4.89,0.62 h 4.29 l 4.89,0.61 h 4.29 4.89 l 4.29,0.61 h 4.89 l 4.29,0.61 h 4.9 l 4.28,0.62 4.9,0.61 h 4.28 l 4.9,0.61 h 4.28 l 4.9,0.61 h 4.28 l 4.89,0.61 4.9,0.61 h 4.28 l 4.9,0.62 h 4.28 l 4.9,0.61 h 4.28 l 4.9,0.61 4.28,0.61 h 4.9 l 4.28,0.61 h 4.9 l 4.28,0.62 h 4.9 l 4.28,0.61 4.9,0.61 h 4.9 l 4.28,0.61 h 4.9 l 4.28,0.62 h 4.89 l 4.29,0.6 h 4.89 l 4.29,0.62 h 4.89 l 4.29,0.61 h 4.9 l 4.28,0.61 h 4.9 l 4.28,0.61 h 4.9 l 4.28,0.62 h 4.9 l 4.89,0.61 4.29,0.61 h 4.89 l 4.29,0.61 h 4.89 l 4.29,0.61 4.89,0.62 h 4.29 l 4.89,0.61 h 4.29 l 4.89,0.61 4.29,0.61 h 4.89 l 4.28,0.62 4.9,0.6 h 4.9 l 4.28,0.62 4.9,0.61 4.28,0.61 h 4.9 l 4.28,0.61 4.9,0.62 h 4.28 l 4.9,0.61 4.28,0.61 h 4.9 l 4.28,0.61 4.9,0.61 4.28,0.62 h 4.9 l 4.28,0.61 4.9,0.61 4.89,0.61 4.29,0.61 h 4.89 l 4.29,0.61 4.89,0.62 4.29,0.61 4.89,1.22 4.29,0.62 4.89,0.61 4.29,0.61 4.9,1.23 4.28,1.22 4.9,0.61 4.28,1.22 4.9,1.23 4.89,1.22 4.29,1.23 4.89,1.83 4.28,1.23 4.9,1.83 4.28,1.84 4.9,1.83 4.28,1.84 4.9,2.45 4.28,2.45 4.9,2.44 4.28,2.45 4.9,2.45 4.28,3.06 4.9,3.06 4.28,3.67 4.9,3.06 4.9,4.29 4.28,3.67 4.9,4.89 4.28,4.29 4.9,5.51 4.28,5.5 4.89,6.13 4.29,6.11 4.89,7.35 4.29,7.95 4.89,7.96 4.29,9.18 4.9,9.79 4.28,11.02 4.9,11.63 4.89,12.85 4.29,14.07 4.89,15.3 4.29,16.53 4.89,17.75 4.29,19.58 4.89,20.81 4.29,22.64 4.89,24.48 4.29,25.71 4.89,28.15 4.29,29.99 4.89,31.21 4.29,33.66 4.89,36.11 4.29,37.33 4.89,39.17 4.9,41 4.28,42.84 4.9,44.06 4.28,45.9 4.9,46.51 4.28,48.36 4.9,48.95 4.28,48.96 4.9,49.58 4.28,49.57 4.9,48.96 4.28,48.96 4.9,47.12 4.28,46.51 4.9,44.68 4.89,42.23 4.29,40.39 4.89,37.95 4.29,34.26 4.89,31.22 4.29,27.54 4.89,23.87 4.29,19.58 4.89,15.91 4.29,11.02 4.89,7.34 4.29,2.45 4.89,-2.45 4.29,-7.34 4.9,-11.02 4.28,-15.91 4.9,-19.58 4.89,-23.87 4.29,-27.54 4.89,-31.22 4.29,-34.26 4.89,-37.95 4.28,-40.39 4.9,-42.23 4.28,-44.68 4.9,-46.51 4.28,-47.12 4.9,-48.96 4.28,-48.96 4.9,-49.57 4.28,-49.58 4.9,-48.96 4.9,-48.95 4.28,-48.36 4.9,-46.51 4.28,-45.9 4.9,-44.06 4.28,-42.84 4.9,-41 4.28,-39.17 4.9,-37.33 4.28,-36.11 4.89,-33.66 4.29,-31.21 4.89,-29.99 4.29,-28.15 4.89,-25.71 4.29,-24.48 4.9,-22.64 4.89,-20.81 4.29,-19.58 4.89,-17.75 4.29,-16.53 4.89,-15.3 4.29,-14.07 4.89,-12.85 4.29,-11.63 4.89,-11.02 4.29,-9.79 4.89,-9.18 4.29,-7.96 4.89,-7.95 4.29,-7.35 4.89,-6.11 4.9,-6.13 4.28,-5.5 4.9,-5.51 4.28,-4.29 4.9,-4.89 4.28,-3.67 4.9,-4.29 4.28,-3.06 4.9,-3.67 4.28,-3.06 4.9,-3.06 4.28,-2.45 4.9,-2.45 4.28,-2.44 4.9,-2.45 4.28,-2.45 4.9,-1.84 4.89,-1.83 4.29,-1.84 4.89,-1.83 4.29,-1.23 4.89,-1.83 4.29,-1.23 4.89,-1.22 4.29,-1.23 4.89,-1.22 4.29,-0.61 4.89,-1.22 4.29,-1.23 4.89,-0.61 4.29,-0.61 4.89,-0.62 4.9,-1.22 4.29,-0.61 4.89,-0.62 4.29,-0.61 h 4.89 l 4.29,-0.61 4.89,-0.61 4.29,-0.61 4.89,-0.61 h 4.28 l 4.9,-0.62 4.28,-0.61 4.9,-0.61 h 4.28 l 4.9,-0.61 4.28,-0.61 h 4.9 l 4.9,-0.62 4.28,-0.61 h 4.9 l 4.28,-0.61 4.9,-0.61 4.28,-0.62 h 4.9 l 4.28,-0.6 4.9,-0.62 h 4.28 l 4.9,-0.61 4.28,-0.61 h 4.89 l 4.29,-0.61 h 4.89 l 4.9,-0.62 4.28,-0.61 h 4.9 l 4.29,-0.61 h 4.89 l 4.29,-0.61 4.89,-0.61 h 4.29 l 4.89,-0.62 h 4.29 l 4.89,-0.61 h 4.29 l 4.89,-0.61 h 4.29 l 4.89,-0.61 h 4.29 l 4.89,-0.62 h 4.9 l 4.28,-0.6 h 4.9 l 4.28,-0.62 h 4.9 l 4.28,-0.61 h 4.9 l 4.28,-0.61 4.9,-0.61 h 4.28 l 4.9,-0.62 h 4.28 l 4.9,-0.61 h 4.28 l 4.9,-0.61 4.9,-0.61 h 4.28 l 4.89,-0.61 h 4.29 l 4.89,-0.62 h 4.29 l 4.89,-0.61 4.29,-0.61 h 4.89 l 4.29,-0.61 h 4.89 l 4.29,-0.61 h 4.89 l 4.29,-0.61 4.89,-0.62 h 4.29 l 4.89,-0.61 h 4.9 l 4.28,-0.61 h 4.9 4.29 l 4.89,-0.61 h 4.29 l 4.89,-0.62 h 4.29 l 4.89,-0.61 h 4.29 4.89 l 4.28,-0.61 h 4.9 l 4.28,-0.61 h 4.9 4.9 l 4.28,-0.61 h 4.9 4.28 l 4.9,-0.62 h 4.28 l 4.9,-0.61 h 4.28 4.9 l 4.28,-0.61 h 4.9 4.28 l 4.9,-0.61 h 4.28 4.9 4.28 l 4.89,-0.61 h 4.9 4.28 l 4.9,-0.62 h 4.28 4.9 l 4.29,-0.61 h 4.89 4.29 4.89 l 4.29,-0.61 h 4.89 4.29 4.89 l 4.29,-0.61 h 4.89 4.9 4.28 l 4.9,-0.61 h 4.28 4.9 4.28 4.9 l 4.28,-0.62 h 4.9 4.28 4.9 4.28 l 4.9,-0.61 h 4.28 4.9 4.28 4.9 l 4.9,-0.61 h 4.28 4.9 4.28 4.89 4.29 4.89 l 4.29,-0.61 h 4.89 4.29 4.89 4.29 4.89 4.29 l 4.89,-0.62 h 4.9 4.28 4.9 4.28 4.9 4.28 4.9 l 4.29,-0.6 h 4.89 4.29 4.89 4.29 4.89 4.29 4.89 4.28 l 4.9,-0.62 h 4.9 4.28 4.9 4.28 4.9 4.28 4.9 4.28 4.9 4.28 l 4.9,-0.61 h 4.28 4.9 4.28 4.9 4.89 4.29 4.89 4.28 4.9 4.28 4.9 4.28 l 4.9,-0.61 h 4.29 4.89 4.29 4.89 4.29 4.89 4.29 4.89 4.9 4.28 4.9 4.28 4.9 4.28 4.9 0.61" /><path
         id="path22"
         style="fill:none;stroke:#000000;stroke-width:9.18000031;stroke-linecap:butt;stroke-linejoin:miter;stroke-miterlimit:10;stroke-dasharray:none;stroke-opacity:1"
         d="M 918,3254.62 H 3683.63" /><path
         id="path24"
         style="fill:none;stroke:#000000;stroke-width:9.18000031;stroke-linecap:butt;stroke-linejoin:miter;stroke-miterlimit:10;stroke-dasharray:none;stroke-opacity:1"
         d="M 918,5202 H 3683.63" /><path
         id="path26"
         style="fill:none;stroke:#000000;stroke-width:9.18000031;stroke-linecap:butt;stroke-linejoin:miter;stroke-miterlimit:10;stroke-dasharray:none;stroke-opacity:1"
         d="m 918,3254.62 v 61.2" /><path
         id="path28"
         style="fill:none;stroke:#000000;stroke-width:9.18000031;stroke-linecap:butt;stroke-linejoin:miter;stroke-miterlimit:10;stroke-dasharray:none;stroke-opacity:1"
         d="m 918,5202 v -61.2" /><path
         id="path30"
         style="fill:none;stroke:#000000;stroke-width:9.18000031;stroke-linecap:butt;stroke-linejoin:miter;stroke-miterlimit:10;stroke-dasharray:none;stroke-opacity:1"
         d="m 1839.67,3254.62 v 61.2" /><path
         id="path32"
         style="fill:none;stroke:#000000;stroke-width:9.18000031;stroke-linecap:butt;stroke-linejoin:miter;stroke-miterlimit:10;stroke-dasharray:none;stroke-opacity:1"
         d="m 1839.67,5202 v -61.2" /><path
         id="path34"
         style="fill:none;stroke:#000000;stroke-width:9.18000031;stroke-linecap:butt;stroke-linejoin:miter;stroke-miterlimit:10;stroke-dasharray:none;stroke-opacity:1"
         d="m 2761.34,3254.62 v 61.2" /><path
         id="path36"
         style="fill:none;stroke:#000000;stroke-width:9.18000031;stroke-linecap:butt;stroke-linejoin:miter;stroke-miterlimit:10;stroke-dasharray:none;stroke-opacity:1"
         d="m 2761.34,5202 v -61.2" /><path
         id="path38"
         style="fill:none;stroke:#000000;stroke-width:9.18000031;stroke-linecap:butt;stroke-linejoin:miter;stroke-miterlimit:10;stroke-dasharray:none;stroke-opacity:1"
         d="m 3683.63,3254.62 v 61.2" /><path
         id="path40"
         style="fill:none;stroke:#000000;stroke-width:9.18000031;stroke-linecap:butt;stroke-linejoin:miter;stroke-miterlimit:10;stroke-dasharray:none;stroke-opacity:1"
         d="m 3683.63,5202 v -61.2" /><path
         id="path42"
         style="fill:none;stroke:#000000;stroke-width:9.18000031;stroke-linecap:butt;stroke-linejoin:miter;stroke-miterlimit:10;stroke-dasharray:none;stroke-opacity:1"
         d="m 1378.84,3254.62 v 122.4" /><path
         id="path44"
         style="fill:none;stroke:#000000;stroke-width:9.18000031;stroke-linecap:butt;stroke-linejoin:miter;stroke-miterlimit:10;stroke-dasharray:none;stroke-opacity:1"
         d="M 1378.84,5202 V 5079.6" /><path
         id="path46"
         style="fill:none;stroke:#000000;stroke-width:9.18000031;stroke-linecap:butt;stroke-linejoin:miter;stroke-miterlimit:10;stroke-dasharray:none;stroke-opacity:1"
         d="m 2300.51,3254.62 v 122.4" /><path
         id="path48"
         style="fill:none;stroke:#000000;stroke-width:9.18000031;stroke-linecap:butt;stroke-linejoin:miter;stroke-miterlimit:10;stroke-dasharray:none;stroke-opacity:1"
         d="M 2300.51,5202 V 5079.6" /><path
         id="path50"
         style="fill:none;stroke:#000000;stroke-width:9.18000031;stroke-linecap:butt;stroke-linejoin:miter;stroke-miterlimit:10;stroke-dasharray:none;stroke-opacity:1"
         d="m 3222.79,3254.62 v 122.4" /><path
         id="path52"
         style="fill:none;stroke:#000000;stroke-width:9.18000031;stroke-linecap:butt;stroke-linejoin:miter;stroke-miterlimit:10;stroke-dasharray:none;stroke-opacity:1"
         d="M 3222.79,5202 V 5079.6" /><g
         transform="scale(10)"
         id="g54"><text
           id="text60"
           style="font-variant:normal;font-weight:normal;font-size:17.13599968px;font-family:'Times New Roman';-inkscape-font-specification:Times-Roman;writing-mode:lr-tb;fill:#000000;fill-opacity:1;fill-rule:nonzero;stroke:none"
           transform="matrix(1,0,0,-1,122.4,526.565)"><tspan
             id="tspan56"
             y="0"
             x="0 5.7062879 14.274288 22.842287 103.61179 187.27197 195.83998 204.40797">-2000200</tspan><tspan
             id="tspan58"
             y="-24.480101"
             x="69.155899">p</tspan></text>
<text
           id="text64"
           style="font-variant:normal;font-weight:normal;font-size:12.11760044px;font-family:'Times New Roman';-inkscape-font-specification:Times-Roman;writing-mode:lr-tb;fill:#000000;fill-opacity:1;fill-rule:nonzero;stroke:none"
           transform="matrix(1,0,0,-1,200.1852,544.19041)"><tspan
             id="tspan62"
             y="0"
             x="0">x</tspan></text>
<text
           id="text68"
           style="font-variant:normal;font-weight:normal;font-size:17.13599968px;font-family:'Times New Roman';-inkscape-font-specification:Times-Roman;writing-mode:lr-tb;fill:#000000;fill-opacity:1;fill-rule:nonzero;stroke:none"
           transform="matrix(1,0,0,-1,210.46686,551.0451)"><tspan
             id="tspan66"
             y="0"
             x="0 5.7062879 20.940191 28.548576 40.920769 45.684574 53.292961">(MeV/c)</tspan></text>
</g><path
         id="path70"
         style="fill:none;stroke:#000000;stroke-width:9.18000031;stroke-linecap:butt;stroke-linejoin:miter;stroke-miterlimit:10;stroke-dasharray:none;stroke-opacity:1"
         d="M 918,3254.62 V 5202" /><path
         id="path72"
         style="fill:none;stroke:#000000;stroke-width:9.18000031;stroke-linecap:butt;stroke-linejoin:miter;stroke-miterlimit:10;stroke-dasharray:none;stroke-opacity:1"
         d="M 3683.63,3254.62 V 5202" /><path
         id="path74"
         style="fill:none;stroke:#000000;stroke-width:9.18000031;stroke-linecap:butt;stroke-linejoin:miter;stroke-miterlimit:10;stroke-dasharray:none;stroke-opacity:1"
         d="m 918,3471.27 h 61.199" /><path
         id="path76"
         style="fill:none;stroke:#000000;stroke-width:9.18000031;stroke-linecap:butt;stroke-linejoin:miter;stroke-miterlimit:10;stroke-dasharray:none;stroke-opacity:1"
         d="m 3683.63,3471.27 h -61.2" /><path
         id="path78"
         style="fill:none;stroke:#000000;stroke-width:9.18000031;stroke-linecap:butt;stroke-linejoin:miter;stroke-miterlimit:10;stroke-dasharray:none;stroke-opacity:1"
         d="m 918,3903.95 h 61.199" /><path
         id="path80"
         style="fill:none;stroke:#000000;stroke-width:9.18000031;stroke-linecap:butt;stroke-linejoin:miter;stroke-miterlimit:10;stroke-dasharray:none;stroke-opacity:1"
         d="m 3683.63,3903.95 h -61.2" /><path
         id="path82"
         style="fill:none;stroke:#000000;stroke-width:9.18000031;stroke-linecap:butt;stroke-linejoin:miter;stroke-miterlimit:10;stroke-dasharray:none;stroke-opacity:1"
         d="m 918,4336.63 h 61.199" /><path
         id="path84"
         style="fill:none;stroke:#000000;stroke-width:9.18000031;stroke-linecap:butt;stroke-linejoin:miter;stroke-miterlimit:10;stroke-dasharray:none;stroke-opacity:1"
         d="m 3683.63,4336.63 h -61.2" /><path
         id="path86"
         style="fill:none;stroke:#000000;stroke-width:9.18000031;stroke-linecap:butt;stroke-linejoin:miter;stroke-miterlimit:10;stroke-dasharray:none;stroke-opacity:1"
         d="m 918,4769.32 h 61.199" /><path
         id="path88"
         style="fill:none;stroke:#000000;stroke-width:9.18000031;stroke-linecap:butt;stroke-linejoin:miter;stroke-miterlimit:10;stroke-dasharray:none;stroke-opacity:1"
         d="m 3683.63,4769.32 h -61.2" /><path
         id="path90"
         style="fill:none;stroke:#000000;stroke-width:9.18000031;stroke-linecap:butt;stroke-linejoin:miter;stroke-miterlimit:10;stroke-dasharray:none;stroke-opacity:1"
         d="m 918,5202 h 61.199" /><path
         id="path92"
         style="fill:none;stroke:#000000;stroke-width:9.18000031;stroke-linecap:butt;stroke-linejoin:miter;stroke-miterlimit:10;stroke-dasharray:none;stroke-opacity:1"
         d="m 3683.63,5202 h -61.2" /><path
         id="path94"
         style="fill:none;stroke:#000000;stroke-width:9.18000031;stroke-linecap:butt;stroke-linejoin:miter;stroke-miterlimit:10;stroke-dasharray:none;stroke-opacity:1"
         d="m 918,3254.62 h 122.4" /><path
         id="path96"
         style="fill:none;stroke:#000000;stroke-width:9.18000031;stroke-linecap:butt;stroke-linejoin:miter;stroke-miterlimit:10;stroke-dasharray:none;stroke-opacity:1"
         d="m 3683.63,3254.62 h -122.4" /><path
         id="path98"
         style="fill:none;stroke:#000000;stroke-width:9.18000031;stroke-linecap:butt;stroke-linejoin:miter;stroke-miterlimit:10;stroke-dasharray:none;stroke-opacity:1"
         d="m 918,3687.3 h 122.4" /><path
         id="path100"
         style="fill:none;stroke:#000000;stroke-width:9.18000031;stroke-linecap:butt;stroke-linejoin:miter;stroke-miterlimit:10;stroke-dasharray:none;stroke-opacity:1"
         d="m 3683.63,3687.3 h -122.4" /><path
         id="path102"
         style="fill:none;stroke:#000000;stroke-width:9.18000031;stroke-linecap:butt;stroke-linejoin:miter;stroke-miterlimit:10;stroke-dasharray:none;stroke-opacity:1"
         d="m 918,4119.98 h 122.4" /><path
         id="path104"
         style="fill:none;stroke:#000000;stroke-width:9.18000031;stroke-linecap:butt;stroke-linejoin:miter;stroke-miterlimit:10;stroke-dasharray:none;stroke-opacity:1"
         d="m 3683.63,4119.98 h -122.4" /><path
         id="path106"
         style="fill:none;stroke:#000000;stroke-width:9.18000031;stroke-linecap:butt;stroke-linejoin:miter;stroke-miterlimit:10;stroke-dasharray:none;stroke-opacity:1"
         d="m 918,4552.67 h 122.4" /><path
         id="path108"
         style="fill:none;stroke:#000000;stroke-width:9.18000031;stroke-linecap:butt;stroke-linejoin:miter;stroke-miterlimit:10;stroke-dasharray:none;stroke-opacity:1"
         d="m 3683.63,4552.67 h -122.4" /><path
         id="path110"
         style="fill:none;stroke:#000000;stroke-width:9.18000031;stroke-linecap:butt;stroke-linejoin:miter;stroke-miterlimit:10;stroke-dasharray:none;stroke-opacity:1"
         d="m 918,4985.35 h 122.4" /><path
         id="path112"
         style="fill:none;stroke:#000000;stroke-width:9.18000031;stroke-linecap:butt;stroke-linejoin:miter;stroke-miterlimit:10;stroke-dasharray:none;stroke-opacity:1"
         d="m 3683.63,4985.35 h -122.4" /><g
         transform="scale(10)"
         id="g114"><text
           id="text126"
           style="font-variant:normal;font-weight:normal;font-size:17.13599968px;font-family:'Times New Roman';-inkscape-font-specification:Times-Roman;writing-mode:lr-tb;fill:#000000;fill-opacity:1;fill-rule:nonzero;stroke:none"
           transform="matrix(1,0,0,-1,77.5402,319.831)"><tspan
             id="tspan116"
             y="0"
             x="0">0</tspan><tspan
             id="tspan118"
             y="-44.3699"
             x="-12.9742 -4.4061999 -0.1222">0,2</tspan><tspan
             id="tspan120"
             y="-87.638298"
             x="-12.9742 -4.4061999 -0.1222">0,4</tspan><tspan
             id="tspan122"
             y="-130.78439"
             x="-12.729278 -4.1612778 0.122722">0,6</tspan><tspan
             id="tspan124"
             y="-174.175"
             x="-12.484747 -3.9167471 0.36725301">0,8</tspan></text>
<text
           id="text130"
           style="font-variant:normal;font-weight:normal;font-size:17.13599968px;font-family:'Times New Roman';-inkscape-font-specification:Times-Roman;writing-mode:lr-tb;fill:#000000;fill-opacity:1;fill-rule:nonzero;stroke:none"
           transform="matrix(0,1,1,0,51.5914,349.146)"><tspan
             id="tspan128"
             y="0"
             x="0">d</tspan></text>
<text
           id="text134"
           style="font-variant:normal;font-weight:normal;font-size:17.13599968px;font-family:Symbol;-inkscape-font-specification:Symbol;writing-mode:lr-tb;fill:#000000;fill-opacity:1;fill-rule:nonzero;stroke:none"
           transform="matrix(0,1,1,0,51.5914,357.77491)"><tspan
             id="tspan132"
             y="0"
             x="0">σ</tspan></text>
<text
           id="text138"
           style="font-variant:normal;font-weight:normal;font-size:17.13599968px;font-family:'Times New Roman';-inkscape-font-specification:Times-Roman;writing-mode:lr-tb;fill:#000000;fill-opacity:1;fill-rule:nonzero;stroke:none"
           transform="matrix(0,1,1,0,51.5914,368.11791)"><tspan
             id="tspan136"
             y="0"
             x="0 4.7638078 13.331808">/dp</tspan></text>
<text
           id="text142"
           style="font-variant:normal;font-weight:normal;font-size:12.11760044px;font-family:'Times New Roman';-inkscape-font-specification:Times-Roman;writing-mode:lr-tb;fill:#000000;fill-opacity:1;fill-rule:nonzero;stroke:none"
           transform="matrix(0,1,1,0,58.44609,389.96631)"><tspan
             id="tspan140"
             y="0"
             x="0">x</tspan></text>
<text
           id="text146"
           style="font-variant:normal;font-weight:normal;font-size:17.13599968px;font-family:'Times New Roman';-inkscape-font-specification:Times-Roman;writing-mode:lr-tb;fill:#000000;fill-opacity:1;fill-rule:nonzero;stroke:none"
           transform="matrix(0,1,1,0,51.5914,400.24797)"><tspan
             id="tspan144"
             y="0"
             x="0 5.7062879 19.038095 27.606096 32.369904 38.076191 53.310097 60.91848 73.290672 78.054482 85.662865 91.369148">(mb/(MeV/c))</tspan></text>
</g><path
         id="path148"
         style="fill:none;stroke:#000000;stroke-width:9.18000031;stroke-linecap:butt;stroke-linejoin:miter;stroke-miterlimit:10;stroke-dasharray:none;stroke-opacity:1"
         d="M 918,3254.62 V 5202 H 3683.63 V 3254.62 Z" /><path
         id="path150"
         style="fill:none;stroke:#000000;stroke-width:18.36000061;stroke-linecap:butt;stroke-linejoin:miter;stroke-miterlimit:10;stroke-dasharray:none;stroke-opacity:1"
         d="m 4235.65,3254.62 h 178.71 l 8.57,0.61 h 156.67 l 8.56,0.61 h 8.57 8.57 9.18 8.57 8.57 8.56 l 9.18,0.61 h 8.57 8.57 l 8.57,0.61 h 8.57 9.18 8.56 8.57 8.57 9.18 8.57 8.57 l 8.57,0.62 h 9.18 8.56 8.57 8.57 8.57 l 9.18,0.61 h 8.57 8.56 l 8.57,0.61 h 9.18 8.57 l 8.56,0.61 h 8.58 8.56 l 9.18,0.62 h 8.57 l 8.57,0.6 h 8.56 l 9.19,0.62 h 8.56 8.57 l 8.57,0.61 8.57,0.61 h 9.18 l 8.57,0.61 h 8.56 l 8.57,0.62 h 9.18 l 8.57,0.61 h 8.57 l 8.57,0.61 8.56,0.61 h 9.18 l 8.57,0.61 8.57,0.62 h 8.57 l 9.18,0.61 8.57,0.61 h 8.56 l 8.57,0.61 8.57,0.61 9.18,0.62 8.57,0.61 8.57,0.61 h 8.57 l 9.18,0.61 8.56,0.61 8.57,0.62 8.57,0.61 9.18,0.61 8.56,0.61 8.58,0.62 8.56,0.61 8.57,0.61 9.18,0.61 8.57,0.61 8.56,0.61 8.57,0.62 9.18,0.61 8.57,0.61 8.57,0.61 h 8.57 l 8.57,0.61 9.18,0.62 8.56,0.61 8.57,0.61 8.57,0.61 9.18,0.62 8.57,0.6 8.57,0.62 h 8.56 l 8.57,0.61 h 9.18 l 8.57,0.61 h 8.57 l 8.57,0.61 h 9.18 l 8.56,1.23 8.57,1.22 8.57,1.23 8.57,0.61 9.18,1.22 8.57,0.62 8.57,0.6 8.56,0.62 9.18,0.61 8.57,0.61 8.57,0.61 8.57,1.23 9.18,1.83 8.57,4.9 8.56,2.45 8.57,3.06 8.57,3.67 9.18,2.45 8.56,3.67 8.57,3.67 8.57,3.68 9.18,4.89 8.57,4.89 8.57,3.07 8.57,3.67 8.56,6.73 9.18,7.96 8.57,11.63 8.57,12.85 8.57,15.3 9.18,18.97 8.57,20.8 8.56,23.88 8.57,23.25 8.57,12.24 9.18,10.4 8.57,21.42 8.57,30.6 8.56,39.17 9.18,45.9 8.57,64.88 8.57,48.95 8.57,74.67 8.57,63.64 9.18,96.09 8.56,95.47 8.57,95.48 8.57,99.75 9.18,69.77 8.57,93.63 8.57,58.76 8.57,74.05 9.18,48.34 8.56,56.92 8.57,41.01 8.57,68.54 8.57,33.66 9.17,32.44 8.58,10.4 h 8.56 l 8.57,-10.4 9.18,-26.93 8.57,-31.21 8.57,-47.13 8.56,-67.93 8.57,-88.13 9.18,-89.96 8.57,-74.67 8.57,-83.23 8.57,-74.66 9.18,-70.99 8.56,-71.61 8.57,-65.48 8.57,-80.79 8.57,-49.57 9.18,-71.6 8.57,-58.14 8.56,-49.57 8.57,-55.08 9.18,-41.01 8.57,-44.67 8.57,-35.5 8.57,-34.88 8.56,-29.99 9.18,-24.48 8.57,-23.87 8.57,-22.03 8.57,-18.97 9.18,-18.36 8.57,-16.53 8.57,-13.46 8.56,-11.63 9.18,-10.4 8.57,-7.96 8.57,-7.34 8.57,-6.73 8.57,-6.74 9.18,-4.89 8.56,-4.9 8.57,-4.28 8.57,-3.06 9.18,-2.45 8.56,-1.84 8.57,-1.83 8.57,-1.84 8.57,-1.23 9.18,-1.22 8.57,-1.22 8.57,-0.61 8.56,-0.62 h 9.18 8.57 l 8.57,-0.61 h 8.57 8.57 9.18 l 8.56,-0.61 h 8.57 8.57 9.18 8.57 8.57 8.56 l 8.57,-0.61 h 9.18 8.57 l 8.57,-0.61 h 8.57 l 9.18,-0.62 8.57,-0.61 h 8.56 l 8.57,-0.61 9.18,-0.61 8.57,-0.62 8.57,-0.6 8.57,-0.62 8.56,-0.61 9.18,-0.61 8.57,-0.61 8.57,-0.62 8.56,-1.22 9.18,-0.61 8.57,-0.61 8.57,-0.62 8.57,-0.61 8.57,-1.22 9.18,-0.62 8.57,-0.6 8.56,-0.62 8.57,-0.61 9.18,-0.61 8.57,-0.61 8.57,-0.62 8.57,-0.61 8.56,-0.61 9.18,-0.61 8.57,-0.61 8.57,-0.62 8.57,-0.61 h 9.18 l 8.57,-0.61 8.56,-0.61 8.57,-0.61 h 8.57 l 9.18,-0.61 8.57,-0.62 8.57,-0.61 h 8.56 l 9.19,-0.61 8.56,-0.61 h 8.57 l 8.57,-0.62 h 8.57 l 9.18,-0.61 h 8.57 l 8.56,-0.61 h 8.57 l 9.18,-0.61 h 8.57 l 8.57,-0.61 h 8.57 3.05" /><path
         id="path152"
         style="fill:none;stroke:#ff0000;stroke-width:18.36000061;stroke-linecap:butt;stroke-linejoin:miter;stroke-miterlimit:10;stroke-dasharray:none;stroke-opacity:1"
         d="m 4235.65,3254.62 h 253.98 l 21.42,0.61 h 106.49 l 21.42,0.61 h 20.81 l 21.42,0.61 h 21.42 l 21.42,0.61 h 20.81 l 21.42,0.62 21.42,0.61 21.42,0.61 21.42,0.61 20.8,0.62 21.42,0.6 21.42,0.62 21.43,0.61 21.41,1.22 20.81,0.62 21.42,1.22 21.42,1.22 21.42,1.23 20.81,1.22 21.42,1.23 21.42,1.22 21.42,1.84 21.42,1.22 20.81,1.84 21.42,1.83 21.42,1.23 21.42,1.83 21.42,1.84 20.81,1.84 21.42,1.83 21.42,1.22 21.42,1.84 20.81,1.84 21.41,1.22 21.43,1.23 21.41,0.6 21.43,0.62 20.8,3.06 21.42,1.83 21.42,1.23 21.42,1.83 20.81,1.84 21.42,8.57 21.42,7.34 21.42,7.96 21.42,11.01 20.81,10.41 21.42,17.13 21.42,33.66 21.42,49.58 21.42,56.3 20.81,35.5 21.42,85.68 21.42,153 21.41,164.62 20.81,268.67 21.43,215.43 21.41,198.29 21.43,156.67 21.41,132.19 20.81,80.78 21.42,-13.46 21.42,-80.79 21.42,-189.11 20.81,-219.09 21.42,-195.84 21.42,-186.66 21.42,-175.64 21.42,-148.11 20.81,-118.11 21.42,-97.92 21.42,-71.61 21.42,-57.53 21.42,-43.45 20.8,-29.98 21.43,-20.2 21.41,-15.3 21.43,-11.02 20.81,-6.12 21.41,-3.67 21.42,-2.45 21.42,-0.61 21.42,-0.61 h 20.81 21.42 l 21.42,-0.61 21.42,-0.61 21.42,-0.62 20.81,-1.22 21.42,-1.84 21.42,-1.84 21.42,-2.44 20.81,-1.84 21.42,-2.45 21.42,-1.83 21.42,-2.45 21.42,-1.84 20.81,-2.44 21.42,-1.84 21.42,-1.83 21.42,-2.45 20.8,-1.23 21.42,-1.83 21.42,-1.23 21.42,-1.22 21.43,-1.22 20.8,-1.23 21.42,-1.22 21.42,-1.23 21.42,-0.61 21.42,-0.61 0.61,-0.61" /><path
         id="path154"
         style="fill:none;stroke:#0000ff;stroke-width:18.36000061;stroke-linecap:butt;stroke-linejoin:miter;stroke-miterlimit:10;stroke-dasharray:none;stroke-opacity:1"
         d="m 4235.65,3257.68 h 37.95 l 20.8,0.61 h 83.85 l 20.8,0.61 h 20.81 21.43 l 20.8,0.61 h 20.81 21.42 l 20.81,0.62 h 20.81 l 20.81,0.6 h 21.41 20.81 l 20.81,0.62 h 20.81 l 21.42,0.61 20.81,0.61 h 20.81 l 20.8,0.61 h 21.42 l 20.81,0.62 h 20.81 l 20.81,0.61 21.42,0.61 20.8,0.61 h 20.81 l 21.42,0.61 20.81,0.62 20.81,0.61 20.81,0.61 21.42,0.61 20.8,0.61 20.81,0.62 20.81,0.61 21.42,0.61 20.81,0.61 20.81,0.61 21.42,0.62 20.81,1.22 20.8,0.61 20.81,0.62 21.42,0.61 20.81,0.61 20.81,0.61 20.8,0.61 21.42,0.61 20.81,0.62 20.81,1.22 20.81,0.61 21.42,1.23 20.81,1.22 20.81,1.23 20.8,2.44 21.42,2.45 20.81,3.67 20.81,4.9 21.42,6.73 20.81,7.96 20.8,9.79 20.81,12.85 21.42,15.91 20.81,20.81 20.81,26.93 20.81,33.66 21.41,42.84 20.81,55.08 20.81,67.93 21.42,83.84 20.81,102.21 20.81,124.85 20.81,149.33 21.42,171.35 20.81,185.44 20.8,187.88 20.81,168.92 21.42,122.4 20.81,53.85 20.8,-26.93 20.81,-100.98 21.43,-154.22 20.8,-182.37 20.81,-189.73 21.42,-183.6 20.81,-165.85 20.81,-141.98 20.81,-115.06 21.41,-93.63 20.81,-74.06 20.81,-58.75 20.81,-45.9 21.42,-35.5 20.81,-26.92 20.8,-20.2 20.81,-14.68 21.42,-11.02 20.81,-8.57 20.81,-5.51 21.42,-4.28 20.81,-3.06 20.8,-2.45 20.81,-1.22 21.42,-1.23 20.81,-0.61 20.81,-1.22 20.81,-0.62 21.42,-0.61 20.8,-0.61 20.81,-0.61 20.81,-0.61 21.42,-0.61 20.81,-1.23 20.81,-0.61 21.42,-1.23 20.81,-0.61 20.8,-1.22 20.81,-0.61 21.42,-1.23 20.81,-0.61 20.81,-0.61 20.8,-1.23 21.42,-0.61 20.81,-0.61 20.81,-0.61 21.42,-0.61 20.81,-0.62 20.81,-0.61 h 20.81 3.05" /><path
         id="path156"
         style="fill:none;stroke:#000000;stroke-width:9.18000031;stroke-linecap:butt;stroke-linejoin:miter;stroke-miterlimit:10;stroke-dasharray:none;stroke-opacity:1"
         d="M 4236.27,3254.62 H 7001.89" /><path
         id="path158"
         style="fill:none;stroke:#000000;stroke-width:9.18000031;stroke-linecap:butt;stroke-linejoin:miter;stroke-miterlimit:10;stroke-dasharray:none;stroke-opacity:1"
         d="M 4236.27,5202 H 7001.89" /><path
         id="path160"
         style="fill:none;stroke:#000000;stroke-width:9.18000031;stroke-linecap:butt;stroke-linejoin:miter;stroke-miterlimit:10;stroke-dasharray:none;stroke-opacity:1"
         d="m 4789.51,3254.62 v 61.2" /><path
         id="path162"
         style="fill:none;stroke:#000000;stroke-width:9.18000031;stroke-linecap:butt;stroke-linejoin:miter;stroke-miterlimit:10;stroke-dasharray:none;stroke-opacity:1"
         d="m 4789.51,5202 v -61.2" /><path
         id="path164"
         style="fill:none;stroke:#000000;stroke-width:9.18000031;stroke-linecap:butt;stroke-linejoin:miter;stroke-miterlimit:10;stroke-dasharray:none;stroke-opacity:1"
         d="m 5896.01,3254.62 v 61.2" /><path
         id="path166"
         style="fill:none;stroke:#000000;stroke-width:9.18000031;stroke-linecap:butt;stroke-linejoin:miter;stroke-miterlimit:10;stroke-dasharray:none;stroke-opacity:1"
         d="m 5896.01,5202 v -61.2" /><path
         id="path168"
         style="fill:none;stroke:#000000;stroke-width:9.18000031;stroke-linecap:butt;stroke-linejoin:miter;stroke-miterlimit:10;stroke-dasharray:none;stroke-opacity:1"
         d="m 4236.27,3254.62 v 122.4" /><path
         id="path170"
         style="fill:none;stroke:#000000;stroke-width:9.18000031;stroke-linecap:butt;stroke-linejoin:miter;stroke-miterlimit:10;stroke-dasharray:none;stroke-opacity:1"
         d="M 4236.27,5202 V 5079.6" /><path
         id="path172"
         style="fill:none;stroke:#000000;stroke-width:9.18000031;stroke-linecap:butt;stroke-linejoin:miter;stroke-miterlimit:10;stroke-dasharray:none;stroke-opacity:1"
         d="m 5342.76,3254.62 v 122.4" /><path
         id="path174"
         style="fill:none;stroke:#000000;stroke-width:9.18000031;stroke-linecap:butt;stroke-linejoin:miter;stroke-miterlimit:10;stroke-dasharray:none;stroke-opacity:1"
         d="M 5342.76,5202 V 5079.6" /><g
         transform="scale(10)"
         id="g176"><text
           id="text182"
           style="font-variant:normal;font-weight:normal;font-size:17.13599968px;font-family:'Times New Roman';-inkscape-font-specification:Times-Roman;writing-mode:lr-tb;fill:#000000;fill-opacity:1;fill-rule:nonzero;stroke:none"
           transform="matrix(1,0,0,-1,411.08,526.565)"><tspan
             id="tspan178"
             y="0"
             x="0 8.5679998 17.136 110.5882 119.1562 127.72421">200400</tspan><tspan
             id="tspan180"
             y="-24.7246"
             x="112.669">p</tspan></text>
<text
           id="text186"
           style="font-variant:normal;font-weight:normal;font-size:12.11760044px;font-family:'Times New Roman';-inkscape-font-specification:Times-Roman;writing-mode:lr-tb;fill:#000000;fill-opacity:1;fill-rule:nonzero;stroke:none"
           transform="matrix(1,0,0,-1,532.3783,544.4353)"><tspan
             id="tspan184"
             y="0"
             x="0">z</tspan></text>
<text
           id="text190"
           style="font-variant:normal;font-weight:normal;font-size:17.13599968px;font-family:'Times New Roman';-inkscape-font-specification:Times-Roman;writing-mode:lr-tb;fill:#000000;fill-opacity:1;fill-rule:nonzero;stroke:none"
           transform="matrix(1,0,0,-1,541.98652,551.2896)"><tspan
             id="tspan188"
             y="0"
             x="0 5.7062879 20.940191 28.548576 40.920769 45.684574 53.292961">(MeV/c)</tspan></text>
</g><path
         id="path192"
         style="fill:none;stroke:#000000;stroke-width:9.18000031;stroke-linecap:butt;stroke-linejoin:miter;stroke-miterlimit:10;stroke-dasharray:none;stroke-opacity:1"
         d="M 4236.27,3254.62 V 5202" /><path
         id="path194"
         style="fill:none;stroke:#000000;stroke-width:9.18000031;stroke-linecap:butt;stroke-linejoin:miter;stroke-miterlimit:10;stroke-dasharray:none;stroke-opacity:1"
         d="m 4236.27,3471.27 h 61.19" /><path
         id="path196"
         style="fill:none;stroke:#000000;stroke-width:9.18000031;stroke-linecap:butt;stroke-linejoin:miter;stroke-miterlimit:10;stroke-dasharray:none;stroke-opacity:1"
         d="m 4236.27,3903.95 h 61.19" /><path
         id="path198"
         style="fill:none;stroke:#000000;stroke-width:9.18000031;stroke-linecap:butt;stroke-linejoin:miter;stroke-miterlimit:10;stroke-dasharray:none;stroke-opacity:1"
         d="m 4236.27,4336.63 h 61.19" /><path
         id="path200"
         style="fill:none;stroke:#000000;stroke-width:9.18000031;stroke-linecap:butt;stroke-linejoin:miter;stroke-miterlimit:10;stroke-dasharray:none;stroke-opacity:1"
         d="m 4236.27,4769.32 h 61.19" /><path
         id="path202"
         style="fill:none;stroke:#000000;stroke-width:9.18000031;stroke-linecap:butt;stroke-linejoin:miter;stroke-miterlimit:10;stroke-dasharray:none;stroke-opacity:1"
         d="m 4236.27,5202 h 61.19" /><path
         id="path204"
         style="fill:none;stroke:#000000;stroke-width:9.18000031;stroke-linecap:butt;stroke-linejoin:miter;stroke-miterlimit:10;stroke-dasharray:none;stroke-opacity:1"
         d="m 4236.27,3254.62 h 122.39" /><path
         id="path206"
         style="fill:none;stroke:#000000;stroke-width:9.18000031;stroke-linecap:butt;stroke-linejoin:miter;stroke-miterlimit:10;stroke-dasharray:none;stroke-opacity:1"
         d="m 4236.27,3687.3 h 122.39" /><path
         id="path208"
         style="fill:none;stroke:#000000;stroke-width:9.18000031;stroke-linecap:butt;stroke-linejoin:miter;stroke-miterlimit:10;stroke-dasharray:none;stroke-opacity:1"
         d="m 4236.27,4119.98 h 122.39" /><path
         id="path210"
         style="fill:none;stroke:#000000;stroke-width:9.18000031;stroke-linecap:butt;stroke-linejoin:miter;stroke-miterlimit:10;stroke-dasharray:none;stroke-opacity:1"
         d="m 4236.27,4552.67 h 122.39" /><path
         id="path212"
         style="fill:none;stroke:#000000;stroke-width:9.18000031;stroke-linecap:butt;stroke-linejoin:miter;stroke-miterlimit:10;stroke-dasharray:none;stroke-opacity:1"
         d="m 4236.27,4985.35 h 122.39" /><path
         id="path214"
         style="fill:none;stroke:#000000;stroke-width:9.18000031;stroke-linecap:butt;stroke-linejoin:miter;stroke-miterlimit:10;stroke-dasharray:none;stroke-opacity:1"
         d="M 4236.27,3254.62 V 5202 H 7001.89 V 3254.62 Z" /><path
         id="path216"
         style="fill:none;stroke:#000000;stroke-width:18.36000061;stroke-linecap:butt;stroke-linejoin:miter;stroke-miterlimit:10;stroke-dasharray:none;stroke-opacity:1"
         d="m 1245.42,918 h 56.92 l 4.89,4.285 h 5.51 l 4.9,-0.613 h 4.89 5.51 4.9 l 5.51,-0.613 h 4.89 5.51 4.89 4.9 5.51 4.89 5.51 4.9 5.51 l 4.89,0.613 h 4.9 5.51 l 4.89,0.613 h 5.51 4.89 l 5.51,0.61 h 4.9 4.9 l 5.5,0.613 h 4.9 l 5.51,0.613 h 4.89 5.51 l 4.9,0.609 h 4.89 l 5.51,0.614 h 4.9 l 5.51,0.613 h 4.89 l 5.51,0.609 h 4.9 l 4.89,0.614 h 5.51 l 4.9,0.613 h 5.5 l 4.9,0.609 5.51,0.614 h 4.9 l 4.89,0.613 h 5.51 l 4.9,0.609 h 5.5 l 4.9,0.614 5.51,0.613 h 4.89 l 4.9,0.609 h 5.51 l 4.89,0.614 h 5.51 l 4.9,0.613 5.51,0.609 h 4.89 l 4.89,0.613 5.51,0.614 4.9,0.609 h 5.51 l 4.89,0.613 5.51,0.614 h 4.9 l 4.89,0.613 5.51,0.609 h 4.9 l 5.51,0.614 h 4.89 l 5.51,0.613 h 4.89 4.9 l 5.51,0.609 4.9,0.614 5.5,0.613 h 4.9 l 5.51,0.609 4.89,0.613 h 4.9 5.51 l 4.9,0.614 h 5.5 4.9 5.51 4.89 l 4.9,0.609 h 5.51 4.89 l 5.51,0.613 4.9,1.223 5.5,0.613 4.9,0.614 4.9,0.609 5.51,0.613 h 4.89 l 5.51,0.614 h 4.89 l 5.51,0.609 h 4.9 l 4.89,0.613 h 5.51 l 4.9,0.614 5.51,0.609 4.89,2.449 5.51,1.836 4.9,2.449 4.89,1.836 5.51,1.836 4.89,1.836 5.51,1.223 4.9,1.836 5.51,2.449 4.89,1.836 4.9,2.445 5.51,2.449 4.89,3.063 5.51,3.058 4.9,3.059 5.5,1.227 4.9,1.836 4.9,3.671 5.51,4.282 4.89,5.507 5.51,6.73 4.9,7.35 5.5,9.18 4.9,10.4 4.9,11.02 5.5,12.85 4.9,13.46 5.51,15.3 4.9,15.92 5.5,12.85 4.9,1.22 4.9,6.12 5.5,11.02 4.9,14.69 5.51,18.97 4.89,22.64 5.51,26.32 4.9,29.37 5.5,32.44 4.9,35.49 4.9,37.34 5.51,39.78 4.89,41.61 5.51,42.84 4.89,51.41 5.51,63.04 4.9,59.97 4.89,56.92 5.51,53.86 4.9,50.79 5.51,47.74 4.89,44.67 5.51,41.62 4.9,39.17 4.89,35.49 5.51,33.05 4.89,29.38 5.51,26.93 4.9,23.86 5.51,29.38 4.89,32.44 4.9,26.31 5.51,20.81 4.89,15.3 5.51,9.18 4.9,4.28 h 5.5 l 4.9,-5.51 4.9,-9.18 5.51,-13.46 4.89,-17.75 5.51,-20.8 4.9,-24.49 5.5,-27.53 4.9,-41.01 4.9,-47.73 5.5,-47.13 4.9,-45.29 5.51,-44.67 4.9,-44.06 5.5,-42.24 4.9,-41.61 4.89,-40.39 5.51,-39.17 4.9,-38.56 5.51,-37.33 4.89,-36.11 5.51,-35.49 4.9,-33.66 4.89,-35.5 5.51,-34.27 4.9,-32.44 5.51,-31.21 4.89,-29.99 5.51,-28.15 4.89,-26.31 4.9,-25.71 5.51,-23.86 4.89,-22.65 5.51,-21.42 4.9,-20.2 5.51,-18.97 4.89,-17.75 4.9,-16.52 5.51,-14.69 4.89,-12.85 5.51,-12.85 4.9,-12.24 5.5,-11.63 4.9,-10.4 4.9,-10.41 5.5,-9.18 4.9,-9.18 5.51,-7.96 4.89,-7.95 5.51,-7.34 4.9,-6.74 4.9,-6.11 5.5,-5.52 4.9,-4.89 5.51,-3.67 4.89,-4.287 5.51,-3.672 4.9,-3.672 4.89,-3.059 5.51,-3.058 4.9,-3.063 5.5,-2.445 4.9,-2.449 5.51,-2.45 4.9,-1.835 4.89,-1.836 5.51,-1.836 4.89,-1.836 5.51,-1.223 4.9,-1.226 5.51,-0.61 4.89,-1.226 4.9,-1.223 5.51,-0.613 4.89,-0.61 5.51,-0.613 4.9,-0.613 5.51,-0.61 4.89,-0.613 4.89,-0.613 5.51,-0.61 h 4.9 l 5.51,-0.613 h 4.89 l 5.51,-0.613 h 4.9 4.89 5.51 l 4.9,-0.61 h 5.5 4.9 5.51 4.9 l 4.89,-0.613 h 5.51 4.9 5.5 4.9 5.51 4.89 l 4.9,-0.613 h 5.51 4.9 5.5 4.9 5.51 4.89 4.9 l 5.51,-0.609 h 4.89 5.51 4.9 5.5 4.9 4.9 l 5.51,-0.614 h 4.89 5.51 4.89 5.51 l 4.9,-0.613 h 4.89 5.51 l 4.9,-0.609 h 5.51 4.89 5.51 l 4.89,-0.614 h 5.52 4.89 l 4.9,-0.613 h 5.5 4.9 l 5.51,-0.609 h 4.89 5.51 l 4.9,-0.614 h 4.89 l 5.51,-0.613 h 4.9 5.5 l 4.9,-0.609 h 5.51 l 4.9,-0.614 h 4.89 5.51 l 4.9,-0.613 h 5.5 l 4.9,-0.609 h 5.51 l 4.89,-0.614 h 4.9 5.51 l 4.9,-0.613 h 5.5 l 4.9,-0.609 h 5.51 l 4.89,-0.613 h 4.9 5.51 l 4.89,-0.614 h 5.51 l 4.9,-0.609 h 5.51 l 4.89,-0.613 h 4.9 5.51 l 4.89,-0.614 h 5.51 l 4.89,-0.609 h 5.51 4.9 l 4.89,-0.613 h 5.51 4.9 l 5.51,-0.614 h 4.89 5.51 l 4.89,-0.613 h 4.9 5.51 l 4.9,-0.609 h 5.5 4.9 l 5.51,-0.614 h 4.89 4.9 l 5.51,-0.613 h 4.89 5.51 l 4.9,-0.609 h 5.5 4.9 4.9 l 5.51,-0.613 h 4.89 5.51 4.9 l 5.5,-0.614 h 4.9 4.9 5.5 l 4.9,-0.609 h 5.51 4.9 5.5 l 4.9,-0.613 h 4.89 5.51 4.9 l 5.51,-0.614 h 4.89 5.51 4.9 4.89 l 5.51,-0.609 h 4.89 5.52 4.89 5.51 l 4.89,-0.613 h 4.9 5.51 4.89 5.51 l 4.9,-0.614 h 5.51 4.89 4.9 5.5 l 4.9,-0.609 h 5.51 4.9 5.5 l 4.9,-0.613 h 4.9 5.5 4.9 5.51 l 4.89,-0.614 h 5.51 4.9 4.9 5.5 4.9 l 5.51,-0.609 h 4.89 5.51 4.9 4.89 5.51 l 4.9,-0.613 h 5.51 4.89 5.51 4.9 4.89 5.51 4.89 l 5.51,-0.614 h 4.9 l 5.51,1.836 4.89,2.45 4.9,1.222 5.51,1.227 4.89,0.609 5.51,0.614 h 4.89 l 5.51,-0.614 4.9,-0.609 4.9,-0.613 5.5,-1.223 4.9,-1.227 5.51,-1.222 4.89,-1.223 5.51,-1.836 4.9,-1.226 4.89,-1.223 5.51,-1.836 4.9,-0.613 5.5,3.672 4.9,0.613 h 5.51 l 4.9,-0.613 h 5.5 4.9 4.9 5.5 l 4.9,-1.836 5.51,-1.223 3.67,1.836" /><path
         id="path218"
         style="fill:none;stroke:#ff0000;stroke-width:18.36000061;stroke-linecap:butt;stroke-linejoin:miter;stroke-miterlimit:10;stroke-dasharray:none;stroke-opacity:1"
         d="m 1246.03,918 h 56.31 l 5.5,1.223 h 36.11 l 4.9,0.613 h 5.51 4.89 5.51 4.9 4.89 l 5.51,0.613 4.9,1.836 h 5.5 4.9 l 5.51,0.61 h 4.9 5.5 l 4.9,0.613 h 4.89 l 5.51,0.613 h 4.9 l 5.51,0.609 h 4.89 l 5.51,0.614 h 4.9 l 4.89,0.613 h 5.51 l 4.89,0.609 h 5.52 l 4.89,0.614 h 5.51 l 4.89,0.613 5.51,0.609 h 4.9 l 4.89,0.614 5.51,0.613 h 4.9 l 5.51,0.609 4.89,0.614 5.51,0.613 h 4.89 l 4.9,0.609 5.51,0.614 4.9,0.613 h 5.5 l 4.9,0.609 5.51,0.613 4.89,0.614 5.51,0.609 h 4.9 l 4.89,0.613 5.51,0.614 4.9,0.613 5.5,0.609 h 4.9 l 5.51,0.614 4.9,0.613 4.89,0.609 5.51,0.614 4.9,0.613 5.5,0.609 4.9,0.613 h 5.51 l 4.9,0.614 5.5,0.609 h 4.9 l 4.9,0.613 h 5.5 l 4.9,0.614 h 5.51 l 4.89,0.609 5.51,0.613 4.9,0.614 h 5.5 l 4.9,0.609 4.9,0.613 h 5.51 l 4.89,0.614 h 5.51 4.89 5.51 4.9 l 4.89,0.609 h 5.51 4.9 5.51 l 4.89,0.613 5.51,1.223 4.9,0.613 5.51,0.613 4.89,0.61 h 4.89 l 5.51,0.613 h 4.9 l 5.51,0.613 h 4.89 5.51 l 4.9,0.61 h 4.89 l 5.51,0.613 h 4.9 l 5.5,2.449 4.9,2.446 5.51,2.449 4.9,1.836 5.5,1.836 4.9,1.836 4.9,1.836 5.5,1.835 4.9,1.836 5.51,1.836 4.89,2.45 5.51,3.058 4.9,3.063 4.9,3.058 5.5,3.672 4.9,0.613 5.51,2.446 4.89,3.672 5.51,4.281 4.9,6.12 5.5,6.74 4.9,8.57 4.9,9.18 5.5,11.01 4.9,11.63 5.51,13.46 4.9,14.08 5.5,15.3 4.9,17.13 4.89,13.47 5.51,1.22 4.9,5.51 5.51,11.02 4.89,15.91 5.51,19.58 4.9,23.87 5.51,28.15 4.89,30.6 4.9,34.27 5.51,37.34 4.89,39.78 5.51,41.61 4.89,44.07 5.51,45.9 4.9,53.85 4.89,66.1 5.51,63.65 4.9,59.97 5.51,56.92 4.89,53.85 5.51,50.8 4.89,47.73 5.51,44.68 4.9,41.62 4.9,38.56 5.5,35.49 4.9,32.44 5.51,29.98 4.89,26.32 5.51,31.82 4.9,36.72 4.89,29.38 5.51,23.87 4.9,17.14 5.5,11.62 4.9,6.12 5.51,0.62 4.9,-4.29 5.5,-9.18 4.9,-12.85 4.9,-17.75 5.5,-21.42 4.9,-25.09 5.51,-28.76 4.89,-42.23 5.51,-49.58 4.9,-48.96 4.9,-47.73 5.5,-47.13 4.9,-45.89 5.51,-44.68 4.89,-44.07 5.51,-42.84 4.9,-41.61 5.5,-41.01 4.9,-39.77 4.9,-38.56 5.51,-37.94 4.89,-36.73 5.51,-37.94 4.9,-37.33 5.5,-36.11 4.9,-33.66 4.89,-32.44 5.51,-30.6 4.9,-29.37 5.51,-27.54 4.89,-26.32 5.51,-25.09 4.9,-23.26 5.51,-22.03 4.89,-20.81 4.89,-19.58 5.51,-18.36 4.9,-15.91 5.51,-14.69 4.89,-14.07 5.51,-13.47 4.9,-12.24 4.89,-11.63 5.51,-11.02 4.9,-11.01 5.51,-9.18 4.89,-9.18 5.51,-8.57 4.89,-7.95 5.51,-7.35 4.9,-7.34 4.9,-6.12 5.5,-4.9 4.9,-4.28 5.51,-4.29 4.89,-4.28 5.51,-3.671 4.9,-3.672 4.9,-3.062 5.5,-3.059 4.9,-3.058 5.51,-2.45 4.89,-2.449 5.51,-2.445 4.9,-1.836 5.5,-1.84 4.9,-1.836 4.9,-0.609 5.5,-1.227 4.9,-0.609 5.51,-1.227 4.9,-0.609 5.5,-0.613 4.9,-0.614 4.9,-0.609 5.5,-0.613 4.9,-0.614 5.51,-0.609 4.89,-0.613 h 5.51 l 4.9,-0.613 h 5.5 4.9 4.9 l 5.51,-0.61 h 4.89 5.51 4.89 5.51 4.9 4.89 l 5.51,-0.613 h 4.9 5.51 4.89 5.51 4.89 5.52 4.89 l 4.9,-0.613 h 5.5 4.9 5.51 4.89 5.51 l 4.9,-0.61 h 4.89 5.51 4.9 l 5.5,-0.613 h 4.9 5.51 l 4.9,-0.613 h 5.5 4.9 l 4.9,-0.61 h 5.5 l 4.9,-0.613 h 5.51 4.89 l 5.51,-0.613 h 4.9 l 4.9,-0.61 h 5.5 l 4.9,-0.613 h 5.51 l 4.89,-0.613 5.51,-0.61 h 4.9 l 5.5,-0.613 h 4.9 l 4.9,-0.613 h 5.51 l 4.89,-0.61 5.51,-0.613 h 4.9 l 5.5,-0.613 h 4.9 l 4.89,-0.609 h 5.51 l 4.9,-0.614 h 5.51 l 4.89,-0.613 h 5.51 l 4.9,-0.609 h 5.51 l 4.89,-0.614 h 4.89 l 5.52,-0.613 h 4.89 l 5.51,-0.609 h 4.89 l 5.51,-0.614 h 4.9 l 4.89,-0.613 5.51,-0.609 h 4.9 l 5.51,-0.614 h 4.89 l 5.51,-0.613 h 4.89 l 5.51,-0.609 4.9,-0.614 h 4.9 l 5.5,-0.613 h 4.9 l 5.51,-0.609 h 4.89 l 5.51,-0.613 h 4.9 l 4.89,-0.614 h 5.51 l 4.9,-0.609 h 5.51 l 4.89,-0.613 h 5.51 l 4.9,-0.614 h 5.5 l 4.9,-0.609 h 4.9 5.5 l 4.9,-0.613 h 5.51 l 4.9,-0.614 h 5.5 4.9 l 4.9,-0.613 h 5.5 l 4.9,-0.609 h 5.51 4.89 l 5.51,-0.614 h 4.9 5.5 l 4.9,-0.613 h 4.9 5.51 l 4.89,-0.609 h 5.51 4.89 l 5.51,-0.613 h 4.9 4.89 l 5.51,-0.614 h 4.9 5.51 4.89 l 5.51,-0.609 h 4.9 5.51 l 4.89,-0.613 h 4.89 5.51 4.9 l 5.51,-0.614 h 4.89 5.51 4.9 l 4.89,-0.609 h 5.51 4.9 5.5 4.9 l 5.51,-0.613 h 4.9 5.5 4.9 l 4.9,-0.614 h 5.5 4.9 5.51 l 4.89,-0.609 h 5.51 4.9 4.9 l 5.5,-0.613 h 4.9 5.51 4.89 5.51 l 4.9,-0.614 h 5.5 4.9 4.9 5.5 l 4.9,-0.609 h 5.51 4.9 5.5 l 4.9,-0.613 h 4.89 5.51 4.9 5.51 4.89 5.51 l 4.9,-0.614 h 5.51 4.89 4.9 l 5.51,1.836 4.89,1.836 5.51,1.836 4.89,0.614 5.51,0.613 4.9,0.609 h 4.89 l 5.51,-0.609 4.9,-0.613 5.51,-0.614 4.89,-0.609 5.51,-1.227 4.89,-1.222 5.51,-1.836 4.9,-1.223 4.9,-1.226 5.5,-1.223 4.9,-1.836 5.51,-1.223 4.89,4.282 h 5.51 4.9 4.89 5.51 4.9 5.5 l 4.9,-0.61 5.51,-1.836 4.9,-0.613 1.22,0.613" /><path
         id="path220"
         style="fill:none;stroke:#0000ff;stroke-width:18.36000061;stroke-linecap:butt;stroke-linejoin:miter;stroke-miterlimit:10;stroke-dasharray:none;stroke-opacity:1"
         d="m 918,918 92.41,1.223 91.8,0.613 92.42,1.223 91.8,1.836 92.41,2.449 92.41,3.058 91.8,3.063 92.41,3.058 92.41,4.286 18.36,0.613 18.36,1.836 18.36,2.445 18.36,3.063 18.36,4.281 18.36,6.121 18.36,7.957 18.97,10.402 18.36,12.852 18.37,16.521 18.36,22.04 18.35,29.37 18.36,38.56 18.36,52.02 18.36,67.93 18.98,86.29 18.35,108.33 18.36,130.35 18.37,151.17 18.36,164.01 18.36,166.47 18.36,154.22 18.36,118.73 18.97,64.87 18.36,-1.22 18.36,-63.65 18.36,-112 18.36,-141.98 18.36,-151.78 18.36,-150.55 18.36,-141.98 18.97,-125.46 18.36,-105.27 18.36,-86.9 18.36,-70.99 18.36,-56.92 18.36,-46.51 18.36,-36.72 18.36,-28.77 18.97,-23.25 18.36,-17.751 18.36,-13.461 18.36,-11.02 18.36,-7.953 18.36,-6.121 18.36,-4.895 18.36,-3.671 18.97,-3.063 18.36,-1.836 18.36,-1.836 91.8,-3.672 92.42,-1.836 92.41,-2.449 91.8,-2.445 92.41,-2.449 92.41,-2.45 91.8,-2.445 92.41,-1.227 91.8,-1.835 92.41,-0.61 92.42,-0.613 h 0.61" /><path
         id="path222"
         style="fill:none;stroke:#000000;stroke-width:9.18000031;stroke-linecap:butt;stroke-linejoin:miter;stroke-miterlimit:10;stroke-dasharray:none;stroke-opacity:1"
         d="M 918,918 H 3683.63" /><path
         id="path224"
         style="fill:none;stroke:#000000;stroke-width:9.18000031;stroke-linecap:butt;stroke-linejoin:miter;stroke-miterlimit:10;stroke-dasharray:none;stroke-opacity:1"
         d="M 918,2865.38 H 3683.63" /><path
         id="path226"
         style="fill:none;stroke:#000000;stroke-width:9.18000031;stroke-linecap:butt;stroke-linejoin:miter;stroke-miterlimit:10;stroke-dasharray:none;stroke-opacity:1"
         d="m 1378.84,918 v 61.199" /><path
         id="path228"
         style="fill:none;stroke:#000000;stroke-width:9.18000031;stroke-linecap:butt;stroke-linejoin:miter;stroke-miterlimit:10;stroke-dasharray:none;stroke-opacity:1"
         d="m 1378.84,2865.38 v -61.2" /><path
         id="path230"
         style="fill:none;stroke:#000000;stroke-width:9.18000031;stroke-linecap:butt;stroke-linejoin:miter;stroke-miterlimit:10;stroke-dasharray:none;stroke-opacity:1"
         d="m 2300.51,918 v 61.199" /><path
         id="path232"
         style="fill:none;stroke:#000000;stroke-width:9.18000031;stroke-linecap:butt;stroke-linejoin:miter;stroke-miterlimit:10;stroke-dasharray:none;stroke-opacity:1"
         d="m 2300.51,2865.38 v -61.2" /><path
         id="path234"
         style="fill:none;stroke:#000000;stroke-width:9.18000031;stroke-linecap:butt;stroke-linejoin:miter;stroke-miterlimit:10;stroke-dasharray:none;stroke-opacity:1"
         d="m 3222.79,918 v 61.199" /><path
         id="path236"
         style="fill:none;stroke:#000000;stroke-width:9.18000031;stroke-linecap:butt;stroke-linejoin:miter;stroke-miterlimit:10;stroke-dasharray:none;stroke-opacity:1"
         d="m 3222.79,2865.38 v -61.2" /><path
         id="path238"
         style="fill:none;stroke:#000000;stroke-width:9.18000031;stroke-linecap:butt;stroke-linejoin:miter;stroke-miterlimit:10;stroke-dasharray:none;stroke-opacity:1"
         d="m 918,918 v 122.4" /><path
         id="path240"
         style="fill:none;stroke:#000000;stroke-width:9.18000031;stroke-linecap:butt;stroke-linejoin:miter;stroke-miterlimit:10;stroke-dasharray:none;stroke-opacity:1"
         d="m 918,2865.38 v -122.4" /><path
         id="path242"
         style="fill:none;stroke:#000000;stroke-width:9.18000031;stroke-linecap:butt;stroke-linejoin:miter;stroke-miterlimit:10;stroke-dasharray:none;stroke-opacity:1"
         d="m 1839.67,918 v 122.4" /><path
         id="path244"
         style="fill:none;stroke:#000000;stroke-width:9.18000031;stroke-linecap:butt;stroke-linejoin:miter;stroke-miterlimit:10;stroke-dasharray:none;stroke-opacity:1"
         d="m 1839.67,2865.38 v -122.4" /><path
         id="path246"
         style="fill:none;stroke:#000000;stroke-width:9.18000031;stroke-linecap:butt;stroke-linejoin:miter;stroke-miterlimit:10;stroke-dasharray:none;stroke-opacity:1"
         d="m 2761.34,918 v 122.4" /><path
         id="path248"
         style="fill:none;stroke:#000000;stroke-width:9.18000031;stroke-linecap:butt;stroke-linejoin:miter;stroke-miterlimit:10;stroke-dasharray:none;stroke-opacity:1"
         d="m 2761.34,2865.38 v -122.4" /><path
         id="path250"
         style="fill:none;stroke:#000000;stroke-width:9.18000031;stroke-linecap:butt;stroke-linejoin:miter;stroke-miterlimit:10;stroke-dasharray:none;stroke-opacity:1"
         d="m 3683.63,918 v 122.4" /><path
         id="path252"
         style="fill:none;stroke:#000000;stroke-width:9.18000031;stroke-linecap:butt;stroke-linejoin:miter;stroke-miterlimit:10;stroke-dasharray:none;stroke-opacity:1"
         d="m 3683.63,2865.38 v -122.4" /><g
         transform="scale(10)"
         id="g254"><text
           id="text260"
           style="font-variant:normal;font-weight:normal;font-size:17.13599968px;font-family:'Times New Roman';-inkscape-font-specification:Times-Roman;writing-mode:lr-tb;fill:#000000;fill-opacity:1;fill-rule:nonzero;stroke:none"
           transform="matrix(1,0,0,-1,87.6996,74.1742)"><tspan
             id="tspan256"
             y="0"
             x="0 87.883179 96.451172 180.05035 188.61835 272.21753 280.78552">0102030</tspan><tspan
             id="tspan258"
             y="17.8703"
             x="93.635902">E</tspan></text>
<text
           id="text264"
           style="font-variant:normal;font-weight:normal;font-size:12.11760044px;font-family:'Times New Roman';-inkscape-font-specification:Times-Roman;writing-mode:lr-tb;fill:#000000;fill-opacity:1;fill-rule:nonzero;stroke:none"
           transform="matrix(1,0,0,-1,191.923,49.4496)"><tspan
             id="tspan262"
             y="0"
             x="0 5.3802142">cm</tspan></text>
<text
           id="text268"
           style="font-variant:normal;font-weight:normal;font-size:8.56799984px;font-family:'Times New Roman';-inkscape-font-specification:Times-Roman;writing-mode:lr-tb;fill:#000000;fill-opacity:1;fill-rule:nonzero;stroke:none"
           transform="matrix(1,0,0,-1,206.7949,56.67108)"><tspan
             id="tspan266"
             y="0"
             x="0 4.2839999">10</tspan></text>
<text
           id="text272"
           style="font-variant:normal;font-weight:normal;font-size:12.11760044px;font-family:'Times New Roman';-inkscape-font-specification:Times-Roman;writing-mode:lr-tb;fill:#000000;fill-opacity:1;fill-rule:nonzero;stroke:none"
           transform="matrix(1,0,0,-1,215.42381,49.4496)"><tspan
             id="tspan270"
             y="0"
             x="0 8.0824394">Be</tspan></text>
<text
           id="text276"
           style="font-variant:normal;font-weight:normal;font-size:17.13599968px;font-family:'Times New Roman';-inkscape-font-specification:Times-Roman;writing-mode:lr-tb;fill:#000000;fill-opacity:1;fill-rule:nonzero;stroke:none"
           transform="matrix(1,0,0,-1,233.17191,56.3039)"><tspan
             id="tspan274"
             y="0"
             x="0 5.7062879 20.940191 28.548576 40.920769">(MeV)</tspan></text>
</g><path
         id="path278"
         style="fill:none;stroke:#000000;stroke-width:9.18000031;stroke-linecap:butt;stroke-linejoin:miter;stroke-miterlimit:10;stroke-dasharray:none;stroke-opacity:1"
         d="M 918,918 V 2865.38" /><path
         id="path280"
         style="fill:none;stroke:#000000;stroke-width:9.18000031;stroke-linecap:butt;stroke-linejoin:miter;stroke-miterlimit:10;stroke-dasharray:none;stroke-opacity:1"
         d="M 3683.63,918 V 2865.38" /><path
         id="path282"
         style="fill:none;stroke:#000000;stroke-width:9.18000031;stroke-linecap:butt;stroke-linejoin:miter;stroke-miterlimit:10;stroke-dasharray:none;stroke-opacity:1"
         d="m 918,1161.57 h 61.199" /><path
         id="path284"
         style="fill:none;stroke:#000000;stroke-width:9.18000031;stroke-linecap:butt;stroke-linejoin:miter;stroke-miterlimit:10;stroke-dasharray:none;stroke-opacity:1"
         d="m 3683.63,1161.57 h -61.2" /><path
         id="path286"
         style="fill:none;stroke:#000000;stroke-width:9.18000031;stroke-linecap:butt;stroke-linejoin:miter;stroke-miterlimit:10;stroke-dasharray:none;stroke-opacity:1"
         d="m 918,1648.12 h 61.199" /><path
         id="path288"
         style="fill:none;stroke:#000000;stroke-width:9.18000031;stroke-linecap:butt;stroke-linejoin:miter;stroke-miterlimit:10;stroke-dasharray:none;stroke-opacity:1"
         d="m 3683.63,1648.12 h -61.2" /><path
         id="path290"
         style="fill:none;stroke:#000000;stroke-width:9.18000031;stroke-linecap:butt;stroke-linejoin:miter;stroke-miterlimit:10;stroke-dasharray:none;stroke-opacity:1"
         d="m 918,2135.27 h 61.199" /><path
         id="path292"
         style="fill:none;stroke:#000000;stroke-width:9.18000031;stroke-linecap:butt;stroke-linejoin:miter;stroke-miterlimit:10;stroke-dasharray:none;stroke-opacity:1"
         d="m 3683.63,2135.27 h -61.2" /><path
         id="path294"
         style="fill:none;stroke:#000000;stroke-width:9.18000031;stroke-linecap:butt;stroke-linejoin:miter;stroke-miterlimit:10;stroke-dasharray:none;stroke-opacity:1"
         d="m 918,2621.81 h 61.199" /><path
         id="path296"
         style="fill:none;stroke:#000000;stroke-width:9.18000031;stroke-linecap:butt;stroke-linejoin:miter;stroke-miterlimit:10;stroke-dasharray:none;stroke-opacity:1"
         d="m 3683.63,2621.81 h -61.2" /><path
         id="path298"
         style="fill:none;stroke:#000000;stroke-width:9.18000031;stroke-linecap:butt;stroke-linejoin:miter;stroke-miterlimit:10;stroke-dasharray:none;stroke-opacity:1"
         d="m 918,918 h 122.4" /><path
         id="path300"
         style="fill:none;stroke:#000000;stroke-width:9.18000031;stroke-linecap:butt;stroke-linejoin:miter;stroke-miterlimit:10;stroke-dasharray:none;stroke-opacity:1"
         d="m 3683.63,918 h -122.4" /><path
         id="path302"
         style="fill:none;stroke:#000000;stroke-width:9.18000031;stroke-linecap:butt;stroke-linejoin:miter;stroke-miterlimit:10;stroke-dasharray:none;stroke-opacity:1"
         d="m 918,1404.54 h 122.4" /><path
         id="path304"
         style="fill:none;stroke:#000000;stroke-width:9.18000031;stroke-linecap:butt;stroke-linejoin:miter;stroke-miterlimit:10;stroke-dasharray:none;stroke-opacity:1"
         d="m 3683.63,1404.54 h -122.4" /><path
         id="path306"
         style="fill:none;stroke:#000000;stroke-width:9.18000031;stroke-linecap:butt;stroke-linejoin:miter;stroke-miterlimit:10;stroke-dasharray:none;stroke-opacity:1"
         d="m 918,1891.69 h 122.4" /><path
         id="path308"
         style="fill:none;stroke:#000000;stroke-width:9.18000031;stroke-linecap:butt;stroke-linejoin:miter;stroke-miterlimit:10;stroke-dasharray:none;stroke-opacity:1"
         d="m 3683.63,1891.69 h -122.4" /><path
         id="path310"
         style="fill:none;stroke:#000000;stroke-width:9.18000031;stroke-linecap:butt;stroke-linejoin:miter;stroke-miterlimit:10;stroke-dasharray:none;stroke-opacity:1"
         d="m 918,2378.23 h 122.4" /><path
         id="path312"
         style="fill:none;stroke:#000000;stroke-width:9.18000031;stroke-linecap:butt;stroke-linejoin:miter;stroke-miterlimit:10;stroke-dasharray:none;stroke-opacity:1"
         d="m 3683.63,2378.23 h -122.4" /><path
         id="path314"
         style="fill:none;stroke:#000000;stroke-width:9.18000031;stroke-linecap:butt;stroke-linejoin:miter;stroke-miterlimit:10;stroke-dasharray:none;stroke-opacity:1"
         d="m 918,2865.38 h 122.4" /><path
         id="path316"
         style="fill:none;stroke:#000000;stroke-width:9.18000031;stroke-linecap:butt;stroke-linejoin:miter;stroke-miterlimit:10;stroke-dasharray:none;stroke-opacity:1"
         d="m 3683.63,2865.38 h -122.4" /><g
         transform="scale(10)"
         id="g318"><text
           id="text330"
           style="font-variant:normal;font-weight:normal;font-size:17.13599968px;font-family:'Times New Roman';-inkscape-font-specification:Times-Roman;writing-mode:lr-tb;fill:#000000;fill-opacity:1;fill-rule:nonzero;stroke:none"
           transform="matrix(1,0,0,-1,77.5402,86.1695)"><tspan
             id="tspan320"
             y="0"
             x="0">0</tspan><tspan
             id="tspan322"
             y="-48.531601"
             x="0.67343801">5</tspan><tspan
             id="tspan324"
             y="-97.369102"
             x="-8.6902323 -0.122232">10</tspan><tspan
             id="tspan326"
             y="-145.9007"
             x="-7.9558568 0.61214298">15</tspan><tspan
             id="tspan328"
             y="-194.7382"
             x="-8.6902323 -0.122232">20</tspan></text>
<text
           id="text334"
           style="font-variant:normal;font-weight:normal;font-size:17.13599968px;font-family:'Times New Roman';-inkscape-font-specification:Times-Roman;writing-mode:lr-tb;fill:#000000;fill-opacity:1;fill-rule:nonzero;stroke:none"
           transform="matrix(0,1,1,0,55.6922,111.017)"><tspan
             id="tspan332"
             y="0"
             x="0">d</tspan></text>
<text
           id="text338"
           style="font-variant:normal;font-weight:normal;font-size:17.13599968px;font-family:Symbol;-inkscape-font-specification:Symbol;writing-mode:lr-tb;fill:#000000;fill-opacity:1;fill-rule:nonzero;stroke:none"
           transform="matrix(0,1,1,0,55.6922,119.70723)"><tspan
             id="tspan336"
             y="0"
             x="0">σ</tspan></text>
<text
           id="text342"
           style="font-variant:normal;font-weight:normal;font-size:17.13599968px;font-family:'Times New Roman';-inkscape-font-specification:Times-Roman;writing-mode:lr-tb;fill:#000000;fill-opacity:1;fill-rule:nonzero;stroke:none"
           transform="matrix(0,1,1,0,55.6922,129.98883)"><tspan
             id="tspan340"
             y="0"
             x="0 4.7638078 13.331808">/dE</tspan></text>
<text
           id="text346"
           style="font-variant:normal;font-weight:normal;font-size:12.11760044px;font-family:'Times New Roman';-inkscape-font-specification:Times-Roman;writing-mode:lr-tb;fill:#000000;fill-opacity:1;fill-rule:nonzero;stroke:none"
           transform="matrix(0,1,1,0,62.5465,153.73453)"><tspan
             id="tspan344"
             y="0"
             x="0 5.3802142">cm</tspan></text>
<text
           id="text350"
           style="font-variant:normal;font-weight:normal;font-size:8.56799984px;font-family:'Times New Roman';-inkscape-font-specification:Times-Roman;writing-mode:lr-tb;fill:#000000;fill-opacity:1;fill-rule:nonzero;stroke:none"
           transform="matrix(0,1,1,0,55.26369,168.66733)"><tspan
             id="tspan348"
             y="0"
             x="0 4.2839999">10</tspan></text>
<text
           id="text354"
           style="font-variant:normal;font-weight:normal;font-size:12.11760044px;font-family:'Times New Roman';-inkscape-font-specification:Times-Roman;writing-mode:lr-tb;fill:#000000;fill-opacity:1;fill-rule:nonzero;stroke:none"
           transform="matrix(0,1,1,0,62.5465,177.29663)"><tspan
             id="tspan352"
             y="0"
             x="0 8.0824394">Be</tspan></text>
<text
           id="text358"
           style="font-variant:normal;font-weight:normal;font-size:17.13599968px;font-family:'Times New Roman';-inkscape-font-specification:Times-Roman;writing-mode:lr-tb;fill:#000000;fill-opacity:1;fill-rule:nonzero;stroke:none"
           transform="matrix(0,1,1,0,55.6922,194.98333)"><tspan
             id="tspan356"
             y="0"
             x="0 5.7062879 19.038095 27.606096 32.369904 47.603809 55.212193 67.584381">(mb/MeV)</tspan></text>
</g><path
         id="path360"
         style="fill:none;stroke:#000000;stroke-width:9.18000031;stroke-linecap:butt;stroke-linejoin:miter;stroke-miterlimit:10;stroke-dasharray:none;stroke-opacity:1"
         d="M 918,918 V 2865.38 H 3683.63 V 918 Z" /><path
         id="path362"
         style="fill:none;stroke:#000000;stroke-width:18.36000061;stroke-linecap:butt;stroke-linejoin:miter;stroke-miterlimit:10;stroke-dasharray:none;stroke-opacity:1"
         d="m 4236.27,2672.61 28.15,-10.41 27.54,-30.6 27.54,-49.57 27.54,-67.32 27.54,-81.4 28.15,-93.63 27.54,-102.82 27.54,-107.71 27.54,-110.77 27.54,-110.17 28.15,-107.71 27.54,-102.81 27.54,-96.08 27.54,-88.75 27.54,-80.78 27.54,-72.22 28.15,-64.25 27.54,-55.7 27.54,-48.35 27.54,-41.61 27.54,-36.11 28.15,-29.99 27.54,-25.7 27.55,-22.03 27.53,-17.75 27.54,-15.3 28.16,-13.465 27.53,-10.406 27.55,-9.179 27.54,-7.957 27.54,-6.731 27.53,-5.508 28.16,-4.285 27.54,-4.281 27.54,-3.063 27.54,-2.449 27.54,-2.445 28.15,-1.836 27.54,-1.227 27.54,-1.222 27.54,-1.223 27.54,-0.613 28.15,-0.614 27.54,-0.609 h 27.54 27.54 l 27.54,-0.613 h 27.54 28.15 27.54 27.55 27.53 27.54 28.16 27.54 27.53 27.55 27.54 28.15 27.54 27.54 27.54 27.54 27.54 l 28.15,-0.614 h 27.54 27.54 27.54 27.54 l 28.15,-0.609 h 27.54 27.54 27.54 27.54 28.16 l 27.53,-0.613 h 27.54 27.54 27.55 27.53 l 28.16,-0.613 h 27.54 27.54 l 27.54,-0.61 h 27.54 28.15 27.54 l 27.54,-0.613 h 27.54 27.54 l 27.54,-0.613 h 28.15 27.54 27.54 l 27.54,-0.61 h 27.54 28.15 27.54 27.54 27.54 0.61" /><path
         id="path364"
         style="fill:none;stroke:#ff0000;stroke-width:18.36000061;stroke-linecap:butt;stroke-linejoin:miter;stroke-miterlimit:10;stroke-dasharray:none;stroke-opacity:1"
         d="m 4236.27,2720.34 69.15,-60.59 69.16,-169.52 69.15,-244.19 69.16,-274.79 69.15,-264.99 69.16,-227.67 69.16,-176.87 69.15,-127.29 69.16,-86.91 69.15,-56.91 69.16,-36.723 69.16,-23.867 69.15,-15.911 69.16,-11.015 69.16,-7.348 69.15,-4.894 69.16,-2.45 69.15,-1.836 69.16,-0.609 h 69.15 69.16 69.16 69.15 69.16 69.15 69.16 69.16 l 69.15,-0.613 h 69.16 l 69.16,-0.614 h 68.54 l 69.15,-0.609 69.16,-0.613 69.16,-0.613 h 69.15 l 69.16,-0.61 69.16,-0.613 h 69.15 l 69.15,-0.613 h 69.16 0.61" /><path
         id="path366"
         style="fill:none;stroke:#0000ff;stroke-width:18.36000061;stroke-linecap:butt;stroke-linejoin:miter;stroke-miterlimit:10;stroke-dasharray:none;stroke-opacity:1"
         d="m 4236.27,2489 69.15,-46.51 69.16,-130.97 69.15,-192.16 69.16,-224 69.15,-224.6 69.16,-201.35 69.16,-164.62 69.15,-124.24 69.16,-86.91 69.15,-58.14 69.16,-37.328 69.16,-23.867 69.15,-15.301 69.16,-9.793 69.16,-7.344 69.15,-5.508 69.16,-3.671 69.15,-2.45 69.16,-1.836 69.15,-1.222 69.16,-0.614 69.16,-0.609 69.15,-0.613 69.16,-0.614 h 69.15 l 69.16,-0.609 69.16,-0.613 h 69.15 l 69.16,-0.613 h 69.16 68.54 l 69.15,-0.61 h 69.16 69.16 l 69.15,-0.613 h 69.16 l 69.16,-0.613 h 69.15 l 69.15,-0.61 h 69.16 0.61" /><path
         id="path368"
         style="fill:none;stroke:#000000;stroke-width:9.18000031;stroke-linecap:butt;stroke-linejoin:miter;stroke-miterlimit:10;stroke-dasharray:none;stroke-opacity:1"
         d="M 4236.27,918 H 7001.89" /><path
         id="path370"
         style="fill:none;stroke:#000000;stroke-width:9.18000031;stroke-linecap:butt;stroke-linejoin:miter;stroke-miterlimit:10;stroke-dasharray:none;stroke-opacity:1"
         d="M 4236.27,2865.38 H 7001.89" /><path
         id="path372"
         style="fill:none;stroke:#000000;stroke-width:9.18000031;stroke-linecap:butt;stroke-linejoin:miter;stroke-miterlimit:10;stroke-dasharray:none;stroke-opacity:1"
         d="m 4582.04,918 v 61.199" /><path
         id="path374"
         style="fill:none;stroke:#000000;stroke-width:9.18000031;stroke-linecap:butt;stroke-linejoin:miter;stroke-miterlimit:10;stroke-dasharray:none;stroke-opacity:1"
         d="m 4582.04,2865.38 v -61.2" /><path
         id="path376"
         style="fill:none;stroke:#000000;stroke-width:9.18000031;stroke-linecap:butt;stroke-linejoin:miter;stroke-miterlimit:10;stroke-dasharray:none;stroke-opacity:1"
         d="m 5273.61,918 v 61.199" /><path
         id="path378"
         style="fill:none;stroke:#000000;stroke-width:9.18000031;stroke-linecap:butt;stroke-linejoin:miter;stroke-miterlimit:10;stroke-dasharray:none;stroke-opacity:1"
         d="m 5273.61,2865.38 v -61.2" /><path
         id="path380"
         style="fill:none;stroke:#000000;stroke-width:9.18000031;stroke-linecap:butt;stroke-linejoin:miter;stroke-miterlimit:10;stroke-dasharray:none;stroke-opacity:1"
         d="m 4236.27,918 v 122.4" /><path
         id="path382"
         style="fill:none;stroke:#000000;stroke-width:9.18000031;stroke-linecap:butt;stroke-linejoin:miter;stroke-miterlimit:10;stroke-dasharray:none;stroke-opacity:1"
         d="m 4236.27,2865.38 v -122.4" /><path
         id="path384"
         style="fill:none;stroke:#000000;stroke-width:9.18000031;stroke-linecap:butt;stroke-linejoin:miter;stroke-miterlimit:10;stroke-dasharray:none;stroke-opacity:1"
         d="m 4927.82,918 v 122.4" /><path
         id="path386"
         style="fill:none;stroke:#000000;stroke-width:9.18000031;stroke-linecap:butt;stroke-linejoin:miter;stroke-miterlimit:10;stroke-dasharray:none;stroke-opacity:1"
         d="m 4927.82,2865.38 v -122.4" /><path
         id="path388"
         style="fill:none;stroke:#000000;stroke-width:9.18000031;stroke-linecap:butt;stroke-linejoin:miter;stroke-miterlimit:10;stroke-dasharray:none;stroke-opacity:1"
         d="m 5619.38,918 v 122.4" /><path
         id="path390"
         style="fill:none;stroke:#000000;stroke-width:9.18000031;stroke-linecap:butt;stroke-linejoin:miter;stroke-miterlimit:10;stroke-dasharray:none;stroke-opacity:1"
         d="m 5619.38,2865.38 v -122.4" /><g
         transform="scale(10)"
         id="g392"><text
           id="text400"
           style="font-variant:normal;font-weight:normal;font-size:17.13599968px;font-family:'Times New Roman';-inkscape-font-specification:Times-Roman;writing-mode:lr-tb;fill:#000000;fill-opacity:1;fill-rule:nonzero;stroke:none"
           transform="matrix(1,0,0,-1,419.587,74.1742)"><tspan
             id="tspan394"
             y="0"
             x="0">0</tspan><tspan
             id="tspan396"
             y="0.24453101"
             x="69.462097">5</tspan><tspan
             id="tspan398"
             y="0"
             x="133.9668 142.53481">10</tspan></text>
<text
           id="text404"
           style="font-variant:normal;font-weight:normal;font-size:17.13599968px;font-family:Symbol;-inkscape-font-specification:Symbol;writing-mode:lr-tb;fill:#000000;fill-opacity:1;fill-rule:nonzero;stroke:none"
           transform="matrix(1,0,0,-1,537.703,55.8144)"><tspan
             id="tspan402"
             y="0"
             x="0">θ</tspan></text>
<text
           id="text408"
           style="font-variant:normal;font-weight:normal;font-size:17.13599968px;font-family:'Times New Roman';-inkscape-font-specification:Times-Roman;writing-mode:lr-tb;fill:#000000;fill-opacity:1;fill-rule:nonzero;stroke:none"
           transform="matrix(1,0,0,-1,550.86122,55.8144)"><tspan
             id="tspan406"
             y="0"
             x="0 5.7062879 14.274288 21.882671 30.450672">(deg)</tspan></text>
</g><path
         id="path410"
         style="fill:none;stroke:#000000;stroke-width:9.18000031;stroke-linecap:butt;stroke-linejoin:miter;stroke-miterlimit:10;stroke-dasharray:none;stroke-opacity:1"
         d="M 4236.27,918 V 2865.38" /><path
         id="path412"
         style="fill:none;stroke:#000000;stroke-width:9.18000031;stroke-linecap:butt;stroke-linejoin:miter;stroke-miterlimit:10;stroke-dasharray:none;stroke-opacity:1"
         d="m 4236.27,1112.62 h 61.19" /><path
         id="path414"
         style="fill:none;stroke:#000000;stroke-width:9.18000031;stroke-linecap:butt;stroke-linejoin:miter;stroke-miterlimit:10;stroke-dasharray:none;stroke-opacity:1"
         d="m 4236.27,1502.46 h 61.19" /><path
         id="path416"
         style="fill:none;stroke:#000000;stroke-width:9.18000031;stroke-linecap:butt;stroke-linejoin:miter;stroke-miterlimit:10;stroke-dasharray:none;stroke-opacity:1"
         d="m 4236.27,1891.69 h 61.19" /><path
         id="path418"
         style="fill:none;stroke:#000000;stroke-width:9.18000031;stroke-linecap:butt;stroke-linejoin:miter;stroke-miterlimit:10;stroke-dasharray:none;stroke-opacity:1"
         d="m 4236.27,2280.93 h 61.19" /><path
         id="path420"
         style="fill:none;stroke:#000000;stroke-width:9.18000031;stroke-linecap:butt;stroke-linejoin:miter;stroke-miterlimit:10;stroke-dasharray:none;stroke-opacity:1"
         d="m 4236.27,2670.77 h 61.19" /><path
         id="path422"
         style="fill:none;stroke:#000000;stroke-width:9.18000031;stroke-linecap:butt;stroke-linejoin:miter;stroke-miterlimit:10;stroke-dasharray:none;stroke-opacity:1"
         d="m 4236.27,918 h 122.39" /><path
         id="path424"
         style="fill:none;stroke:#000000;stroke-width:9.18000031;stroke-linecap:butt;stroke-linejoin:miter;stroke-miterlimit:10;stroke-dasharray:none;stroke-opacity:1"
         d="m 4236.27,1307.23 h 122.39" /><path
         id="path426"
         style="fill:none;stroke:#000000;stroke-width:9.18000031;stroke-linecap:butt;stroke-linejoin:miter;stroke-miterlimit:10;stroke-dasharray:none;stroke-opacity:1"
         d="m 4236.27,1697.07 h 122.39" /><path
         id="path428"
         style="fill:none;stroke:#000000;stroke-width:9.18000031;stroke-linecap:butt;stroke-linejoin:miter;stroke-miterlimit:10;stroke-dasharray:none;stroke-opacity:1"
         d="m 4236.27,2086.31 h 122.39" /><path
         id="path430"
         style="fill:none;stroke:#000000;stroke-width:9.18000031;stroke-linecap:butt;stroke-linejoin:miter;stroke-miterlimit:10;stroke-dasharray:none;stroke-opacity:1"
         d="m 4236.27,2475.54 h 122.39" /><path
         id="path432"
         style="fill:none;stroke:#000000;stroke-width:9.18000031;stroke-linecap:butt;stroke-linejoin:miter;stroke-miterlimit:10;stroke-dasharray:none;stroke-opacity:1"
         d="m 4236.27,2865.38 h 122.39" /><path
         id="path434"
         style="fill:none;stroke:#000000;stroke-width:9.18000031;stroke-linecap:butt;stroke-linejoin:miter;stroke-miterlimit:10;stroke-dasharray:none;stroke-opacity:1"
         d="M 4236.27,918 V 2865.38 H 7001.89 V 918 Z" /><path
         id="path436"
         style="fill:#ffffff;fill-opacity:1;fill-rule:nonzero;stroke:none"
         d="m 3049.6,3643.23 h 2176.27 v 810.289 H 3049.6 Z" /><path
         id="path438"
         style="fill:none;stroke:#000000;stroke-width:9.18000031;stroke-linecap:butt;stroke-linejoin:miter;stroke-miterlimit:10;stroke-dasharray:none;stroke-opacity:1"
         d="m 3049.6,4453.52 v -810.29 h 2176.27 v 810.29 z" /><g
         transform="scale(10)"
         id="g440"><text
           id="text444"
           style="font-variant:normal;font-weight:normal;font-size:17.13599968px;font-family:'Times New Roman';-inkscape-font-specification:Times-Roman;writing-mode:lr-tb;fill:#000000;fill-opacity:1;fill-rule:nonzero;stroke:none"
           transform="matrix(1,0,0,-1,348.718,420.811)"><tspan
             id="tspan442"
             y="0"
             x="0 12.372192">Vp</tspan></text>
<text
           id="text448"
           style="font-variant:normal;font-weight:normal;font-size:12.11760044px;font-family:'Times New Roman';-inkscape-font-specification:Times-Roman;writing-mode:lr-tb;fill:#000000;fill-opacity:1;fill-rule:nonzero;stroke:none"
           transform="matrix(1,0,0,-1,369.5871,431.0926)"><tspan
             id="tspan446"
             y="0"
             x="0 6.0588002">11</tspan></text>
<text
           id="text452"
           style="font-variant:normal;font-weight:normal;font-size:17.13599968px;font-family:'Times New Roman';-inkscape-font-specification:Times-Roman;writing-mode:lr-tb;fill:#000000;fill-opacity:1;fill-rule:nonzero;stroke:none"
           transform="matrix(1,0,0,-1,381.5824,420.811)"><tspan
             id="tspan450"
             y="0"
             x="0 11.429712 19.038095 23.322096 32.849712 45.221905 55.692001 68.064194">Be FOLD </tspan></text>
<text
           id="text456"
           style="font-variant:normal;font-weight:normal;font-size:17.13599968px;font-family:Symbol;-inkscape-font-specification:Symbol;writing-mode:lr-tb;fill:#000000;fill-opacity:1;fill-rule:nonzero;stroke:none"
           transform="matrix(1,0,0,-1,453.7984,420.811)"><tspan
             id="tspan454"
             y="0"
             x="0">σ</tspan></text>
<text
           id="text460"
           style="font-variant:normal;font-weight:normal;font-size:17.13599968px;font-family:'Times New Roman';-inkscape-font-specification:Times-Roman;writing-mode:lr-tb;fill:#000000;fill-opacity:1;fill-rule:nonzero;stroke:none"
           transform="matrix(1,0,0,-1,464.1414,420.811)"><tspan
             id="tspan458"
             y="0"
             x="0 9.6647043 18.232704 26.800703 31.084703 44.416512">=40 mb</tspan></text>
</g><path
         id="path462"
         style="fill:none;stroke:#000000;stroke-width:18.36000061;stroke-linecap:butt;stroke-linejoin:miter;stroke-miterlimit:10;stroke-dasharray:none;stroke-opacity:1"
         d="m 3119.98,4280.94 h 244.8" /><g
         transform="scale(10)"
         id="g464"><text
           id="text468"
           style="font-variant:normal;font-weight:normal;font-size:17.13599968px;font-family:'Times New Roman';-inkscape-font-specification:Times-Roman;writing-mode:lr-tb;fill:#000000;fill-opacity:1;fill-rule:nonzero;stroke:none"
           transform="matrix(1,0,0,-1,348.718,392.414)"><tspan
             id="tspan466"
             y="0"
             x="0 12.372192">Vp</tspan></text>
<text
           id="text472"
           style="font-variant:normal;font-weight:normal;font-size:12.11760044px;font-family:'Times New Roman';-inkscape-font-specification:Times-Roman;writing-mode:lr-tb;fill:#000000;fill-opacity:1;fill-rule:nonzero;stroke:none"
           transform="matrix(1,0,0,-1,369.5871,402.6956)"><tspan
             id="tspan470"
             y="0"
             x="0 6.0588002">11</tspan></text>
<text
           id="text476"
           style="font-variant:normal;font-weight:normal;font-size:17.13599968px;font-family:'Times New Roman';-inkscape-font-specification:Times-Roman;writing-mode:lr-tb;fill:#000000;fill-opacity:1;fill-rule:nonzero;stroke:none"
           transform="matrix(1,0,0,-1,381.5824,392.414)"><tspan
             id="tspan474"
             y="0"
             x="0 11.429712 19.038095 23.322096 35.694286 48.066479">Be KD </tspan></text>
<text
           id="text480"
           style="font-variant:normal;font-weight:normal;font-size:17.13599968px;font-family:Symbol;-inkscape-font-specification:Symbol;writing-mode:lr-tb;fill:#000000;fill-opacity:1;fill-rule:nonzero;stroke:none"
           transform="matrix(1,0,0,-1,433.9086,392.414)"><tspan
             id="tspan478"
             y="0"
             x="0">σ</tspan></text>
<text
           id="text484"
           style="font-variant:normal;font-weight:normal;font-size:17.13599968px;font-family:'Times New Roman';-inkscape-font-specification:Times-Roman;writing-mode:lr-tb;fill:#000000;fill-opacity:1;fill-rule:nonzero;stroke:none"
           transform="matrix(1,0,0,-1,444.2512,392.414)"><tspan
             id="tspan482"
             y="0"
             x="0 9.6647043 18.232704 26.800703 31.084703 44.416512">=44 mb</tspan></text>
</g><path
         id="path486"
         style="fill:none;stroke:#ff0000;stroke-width:18.36000061;stroke-linecap:butt;stroke-linejoin:miter;stroke-miterlimit:10;stroke-dasharray:none;stroke-opacity:1"
         d="m 3119.98,3996.97 h 244.8" /><g
         transform="scale(10)"
         id="g488"><text
           id="text492"
           style="font-variant:normal;font-weight:normal;font-size:17.13599968px;font-family:'Times New Roman';-inkscape-font-specification:Times-Roman;writing-mode:lr-tb;fill:#000000;fill-opacity:1;fill-rule:nonzero;stroke:none"
           transform="matrix(1,0,0,-1,348.718,370.688)"><tspan
             id="tspan490"
             y="0"
             x="0 9.5276155 17.136 25.704 34.271999 41.880383 49.48877 58.056767">Faddeev </tspan></text>
<text
           id="text496"
           style="font-variant:normal;font-weight:normal;font-size:17.13599968px;font-family:Symbol;-inkscape-font-specification:Symbol;writing-mode:lr-tb;fill:#000000;fill-opacity:1;fill-rule:nonzero;stroke:none"
           transform="matrix(1,0,0,-1,411.0809,370.688)"><tspan
             id="tspan494"
             y="0"
             x="0">σ</tspan></text>
<text
           id="text500"
           style="font-variant:normal;font-weight:normal;font-size:17.13599968px;font-family:'Times New Roman';-inkscape-font-specification:Times-Roman;writing-mode:lr-tb;fill:#000000;fill-opacity:1;fill-rule:nonzero;stroke:none"
           transform="matrix(1,0,0,-1,421.4235,370.688)"><tspan
             id="tspan498"
             y="0"
             x="0 9.6647043 18.232704 26.800703 31.084703 44.416512">=44 mb</tspan></text>
</g><path
         id="path502"
         style="fill:none;stroke:#0000ff;stroke-width:18.36000061;stroke-linecap:butt;stroke-linejoin:miter;stroke-miterlimit:10;stroke-dasharray:none;stroke-opacity:1"
         d="m 3119.98,3764.41 h 244.8" /></g></g></svg>