<?xml version="1.0" encoding="UTF-8" standalone="no"?>
<svg
   xmlns:dc="http://purl.org/dc/elements/1.1/"
   xmlns:cc="http://creativecommons.org/ns#"
   xmlns:rdf="http://www.w3.org/1999/02/22-rdf-syntax-ns#"
   xmlns:svg="http://www.w3.org/2000/svg"
   xmlns="http://www.w3.org/2000/svg"
   viewBox="0 0 793.33331 1122.6667"
   height="1122.6667"
   width="793.33331"
   xml:space="preserve"
   id="svg2"
   version="1.1"><metadata
     id="metadata8"><rdf:RDF><cc:Work
         rdf:about=""><dc:format>image/svg+xml</dc:format><dc:type
           rdf:resource="http://purl.org/dc/dcmitype/StillImage" /></cc:Work></rdf:RDF></metadata><defs
     id="defs6" /><g
     transform="matrix(1.3333333,0,0,-1.3333333,0,1122.6667)"
     id="g10"><g
       transform="scale(0.1)"
       id="g12"><path
         id="path14"
         style="fill:#ffffff;fill-opacity:1;fill-rule:nonzero;stroke:none"
         d="M 0,0 H 7919.89 V 6120 H 0 Z" /><path
         id="path16"
         style="fill:none;stroke:#ff0000;stroke-width:18.36000061;stroke-linecap:butt;stroke-linejoin:miter;stroke-miterlimit:10;stroke-dasharray:none;stroke-opacity:1"
         d="m 917.387,3258.29 v 0 h 17.136 l 17.75,0.61 17.133,0.61 h 17.137 l 17.137,0.62 17.75,0.6 17.13,0.62 17.14,1.22 17.14,0.61 17.75,1.23 17.13,0.61 17.14,1.22 17.13,1.23 17.75,1.83 17.14,1.23 17.13,1.83 17.14,2.45 17.74,1.84 17.14,2.45 17.14,3.06 17.13,3.05 17.75,3.68 17.14,3.67 17.13,4.28 17.14,4.9 17.75,5.51 17.13,6.12 17.14,6.73 17.14,7.35 17.74,8.56 17.14,9.18 17.14,10.41 17.13,11.62 17.75,12.85 17.14,14.08 17.13,15.91 17.14,17.14 17.75,18.97 17.13,20.81 17.14,23.25 17.75,25.1 17.13,26.93 17.14,29.98 17.14,31.83 17.74,34.88 17.14,37.34 17.14,40.39 17.13,42.22 17.75,45.29 17.13,48.35 17.14,50.18 17.13,53.25 17.75,55.08 17.14,57.52 17.14,58.76 17.13,60.59 17.75,61.2 17.14,61.81 17.13,62.42 17.14,61.2 17.75,60.59 17.13,58.75 17.14,56.31 17.13,53.24 17.75,49.57 17.14,45.9 17.13,40.39 17.14,36.11 17.75,31.22 17.14,26.31 17.13,20.81 17.14,17.13 17.75,12.85 17.13,9.19 17.13,6.12 17.14,3.67 17.75,2.45 17.13,1.22 17.14,0.61 h 17.14 17.75 l 17.13,-0.61 17.14,-1.22 17.13,-2.45 17.75,-3.67 17.14,-6.12 17.13,-9.19 17.14,-12.85 17.75,-17.13 17.13,-20.81 17.14,-26.31 17.14,-31.22 17.74,-36.11 17.14,-40.39 17.14,-45.9 17.13,-49.57 17.75,-53.24 17.14,-56.31 17.13,-58.75 17.14,-60.59 17.75,-61.2 17.13,-62.42 17.14,-61.81 17.14,-61.2 17.74,-60.59 17.14,-58.76 17.13,-57.52 17.14,-55.08 17.75,-53.25 17.13,-50.18 17.14,-48.35 17.14,-45.29 17.74,-42.22 17.14,-40.39 17.14,-37.34 17.13,-34.88 17.75,-31.83 17.14,-29.98 17.13,-26.93 17.14,-25.1 17.75,-23.25 17.13,-20.81 17.14,-18.97 17.13,-17.14 17.75,-15.91 17.14,-14.08 17.14,-12.85 17.13,-11.62 17.75,-10.41 17.14,-9.18 17.13,-8.56 17.75,-7.35 17.14,-6.73 17.13,-6.12 17.13,-5.51 17.75,-4.9 17.14,-4.28 17.13,-3.67 17.14,-3.68 17.75,-3.05 17.14,-3.06 17.13,-2.45 17.14,-1.84 17.75,-2.45 17.13,-1.83 17.14,-1.23 17.13,-1.83 17.75,-1.23 17.14,-1.22 17.13,-0.61 17.14,-1.23 17.75,-0.61 17.13,-1.22 17.14,-0.62 17.14,-0.6 17.74,-0.62 h 17.14 l 17.14,-0.61 17.13,-0.61 h 17.75 v 0" /><path
         id="path18"
         style="fill:none;stroke:#0000ff;stroke-width:18.36000061;stroke-linecap:butt;stroke-linejoin:miter;stroke-miterlimit:10;stroke-dasharray:none;stroke-opacity:1"
         d="m 917.387,3271.14 h 5.508 l 4.285,0.61 h 4.894 l 4.285,0.61 h 4.899 l 4.281,0.62 h 4.899 4.281 l 4.898,0.61 h 4.281 l 4.899,0.61 h 4.281 l 4.899,0.61 h 4.285 l 4.894,0.62 h 4.285 l 4.895,0.61 h 4.894 l 4.29,0.61 h 4.89 l 4.29,0.61 h 4.89 l 4.29,0.61 h 4.89 l 4.28,0.61 4.9,0.62 h 4.28 l 4.9,0.61 h 4.29 l 4.89,0.61 4.29,0.61 h 4.89 l 4.9,0.61 4.28,0.62 h 4.9 l 4.28,0.61 4.9,0.61 h 4.28 l 4.9,0.61 4.28,0.62 4.9,0.6 h 4.28 l 4.9,0.62 4.28,0.61 4.9,0.61 4.28,0.61 h 4.9 l 4.28,0.62 4.9,0.61 4.89,0.61 4.29,0.61 4.89,0.61 4.29,0.62 4.9,0.61 4.28,0.61 4.9,0.61 4.28,0.62 4.9,0.6 4.28,0.62 4.9,0.61 4.28,0.61 4.89,0.61 4.29,1.23 4.89,0.61 4.9,0.61 4.28,0.61 4.9,0.62 4.28,1.22 4.9,0.61 4.28,1.22 4.9,0.62 4.28,0.61 4.9,1.22 4.28,0.62 4.9,1.22 4.28,1.23 4.9,0.61 4.28,1.22 4.9,1.22 4.29,0.62 4.89,1.22 4.89,1.22 4.29,1.23 4.89,1.22 4.29,1.23 4.89,1.22 4.29,1.22 4.9,1.23 4.28,1.22 4.9,1.23 4.28,1.83 4.9,1.22 4.28,1.84 4.9,1.23 4.28,1.83 4.9,1.23 4.89,1.83 4.29,1.84 4.89,1.83 4.29,1.84 4.89,1.84 4.29,1.83 4.89,1.84 4.29,1.83 4.89,2.45 4.29,1.84 4.89,1.83 4.28,2.45 4.9,2.45 4.28,2.45 4.9,2.45 4.29,2.44 4.89,2.45 4.9,2.45 4.28,2.45 4.9,3.06 4.28,2.44 4.9,3.07 4.28,3.06 4.9,3.06 4.28,3.06 4.9,3.06 4.28,3.67 4.9,3.06 4.28,3.67 4.9,3.67 4.28,3.68 4.9,3.67 4.89,3.67 4.29,4.28 4.89,3.68 4.29,4.28 4.89,4.28 4.29,4.29 4.89,4.28 4.29,4.9 4.9,4.28 4.28,4.9 4.9,4.89 4.28,5.51 4.9,4.9 4.28,5.51 4.9,5.5 4.28,5.51 4.89,5.51 4.9,5.51 4.28,6.12 4.9,6.11 4.28,6.13 4.9,6.73 4.28,6.12 4.9,6.73 4.28,6.73 4.9,7.35 4.28,6.73 4.9,7.34 4.28,7.34 4.9,7.96 4.28,7.34 4.9,7.96 4.9,8.57 4.28,7.96 4.9,8.57 4.28,8.56 4.89,8.57 4.29,9.18 4.89,9.18 4.29,9.18 4.89,9.18 4.29,9.79 4.9,9.79 4.28,9.8 4.9,10.4 4.28,10.4 4.9,10.41 4.28,10.4 4.9,11.02 4.89,11.01 4.29,11.63 4.89,11.02 4.29,11.63 4.89,12.24 4.29,11.63 4.89,12.23 4.29,12.25 4.89,12.23 4.29,12.86 4.89,12.85 4.29,12.85 4.89,13.46 4.28,13.47 4.9,13.46 4.9,13.46 4.28,13.47 4.9,14.08 4.28,14.07 4.9,14.08 4.28,14.69 4.9,14.68 4.28,14.69 4.9,14.69 4.28,14.69 4.9,15.3 4.28,14.69 4.9,15.3 4.28,15.3 4.9,15.3 4.28,15.91 4.9,15.3 4.89,15.91 4.29,15.3 4.89,15.91 4.29,15.91 4.89,15.92 4.29,15.91 4.89,15.91 4.29,15.3 4.89,15.91 4.29,15.91 4.9,15.92 4.28,15.91 4.9,15.91 4.28,15.91 4.9,15.3 4.89,15.91 4.29,15.3 4.89,15.3 4.28,15.92 4.9,14.69 4.28,15.29 4.9,15.3 4.28,14.69 4.9,14.69 4.28,14.69 4.9,14.07 4.28,14.08 4.9,14.08 4.28,13.46 4.9,13.47 4.28,13.46 4.9,12.85 4.9,12.85 4.28,12.86 4.9,12.23 4.28,12.25 4.9,11.62 4.28,11.63 4.89,11.02 4.29,10.4 4.89,11.02 4.29,9.79 4.89,10.4 4.29,9.18 4.9,9.18 4.28,9.18 4.9,8.57 4.89,8.57 4.29,7.96 4.89,7.34 4.29,7.34 4.89,6.73 4.29,6.74 4.89,6.11 4.29,6.13 4.89,5.5 4.29,5.51 4.89,4.9 4.29,4.89 4.89,4.29 4.29,4.28 4.89,4.29 4.29,3.67 4.89,3.06 4.9,3.06 4.28,3.06 4.9,2.45 4.28,2.45 4.9,2.44 4.28,1.84 4.9,1.83 4.28,1.23 4.9,1.84 4.28,1.22 4.9,1.22 4.28,1.23 4.9,0.61 4.28,0.61 4.9,1.22 4.89,0.62 h 4.29 l 4.89,0.61 4.29,0.61 h 4.89 l 4.29,0.61 h 4.89 4.29 l 4.89,0.62 h 4.29 4.89 4.29 4.89 4.29 4.9 l 4.28,-0.62 h 4.9 4.89 l 4.29,-0.61 h 4.89 l 4.29,-0.61 4.89,-0.61 h 4.28 l 4.9,-0.62 4.28,-1.22 4.9,-0.61 4.28,-0.61 4.9,-1.23 4.28,-1.22 4.9,-1.22 4.28,-1.84 4.9,-1.23 4.9,-1.83 4.28,-1.84 4.9,-2.44 4.28,-2.45 4.9,-2.45 4.28,-3.06 4.9,-3.06 4.28,-3.06 4.9,-3.67 4.28,-4.29 4.89,-4.28 4.29,-4.29 4.89,-4.89 4.29,-4.9 4.89,-5.51 4.29,-5.5 4.9,-6.13 4.89,-6.11 4.29,-6.74 4.89,-6.73 4.29,-7.34 4.89,-7.34 4.29,-7.96 4.89,-8.57 4.29,-8.57 4.89,-9.18 4.29,-9.18 4.89,-9.18 4.29,-10.4 4.89,-9.79 4.29,-11.02 4.89,-10.4 4.9,-11.02 4.28,-11.63 4.9,-11.62 4.28,-12.25 4.9,-12.23 4.28,-12.86 4.9,-12.85 4.28,-12.85 4.9,-13.46 4.28,-13.47 4.9,-13.46 4.28,-14.08 4.9,-14.08 4.28,-14.07 4.9,-14.69 4.28,-14.69 4.9,-14.69 4.89,-15.3 4.29,-15.29 4.89,-14.69 4.29,-15.92 4.89,-15.3 4.29,-15.3 4.89,-15.91 4.29,-15.3 4.89,-15.91 4.29,-15.91 4.89,-15.91 4.29,-15.92 4.89,-15.91 4.29,-15.91 4.89,-15.3 4.9,-15.91 4.29,-15.91 4.89,-15.92 4.29,-15.91 4.89,-15.91 4.29,-15.3 4.89,-15.91 4.29,-15.3 4.89,-15.91 4.28,-15.3 4.9,-15.3 4.28,-15.3 4.9,-14.69 4.28,-15.3 4.9,-14.69 4.28,-14.69 4.9,-14.69 4.9,-14.68 4.28,-14.69 4.9,-14.08 4.28,-14.07 4.9,-14.08 4.28,-13.47 4.9,-13.46 4.28,-13.46 4.9,-13.47 4.28,-13.46 4.9,-12.85 4.28,-12.85 4.89,-12.86 4.29,-12.23 4.89,-12.25 4.9,-12.23 4.28,-11.63 4.9,-12.24 4.29,-11.63 4.89,-11.02 4.29,-11.63 4.89,-11.01 4.29,-11.02 4.89,-10.4 4.29,-10.41 4.89,-10.4 4.29,-10.4 4.89,-9.8 4.29,-9.79 4.89,-9.79 4.29,-9.18 4.89,-9.18 4.9,-9.18 4.28,-9.18 4.9,-8.57 4.28,-8.56 4.9,-8.57 4.28,-7.96 4.9,-8.57 4.28,-7.96 4.9,-7.34 4.28,-7.96 4.9,-7.34 4.28,-7.34 4.9,-6.73 4.28,-7.35 4.9,-6.73 4.9,-6.73 4.28,-6.12 4.89,-6.73 4.29,-6.13 4.89,-6.11 4.29,-6.12 4.89,-5.51 4.29,-5.51 4.89,-5.51 4.29,-5.5 4.89,-5.51 4.29,-4.9 4.89,-5.51 4.29,-4.89 4.89,-4.9 4.29,-4.28 4.89,-4.9 4.9,-4.28 4.28,-4.29 4.9,-4.28 4.29,-4.28 4.89,-3.68 4.29,-4.28 4.89,-3.67 4.29,-3.67 4.89,-3.68 4.29,-3.67 4.89,-3.67 4.28,-3.06 4.9,-3.67 4.28,-3.06 4.9,-3.06 4.9,-3.06 4.28,-3.06 4.9,-3.07 4.28,-2.44 4.9,-3.06 4.28,-2.45 4.9,-2.45 4.28,-2.45 4.9,-2.44 4.28,-2.45 4.9,-2.45 4.28,-2.45 4.9,-2.45 4.28,-1.83 4.9,-1.84 4.28,-2.45 4.89,-1.83 4.9,-1.84 4.28,-1.83 4.9,-1.84 4.28,-1.84 4.9,-1.83 4.29,-1.84 4.89,-1.83 4.29,-1.23 4.89,-1.83 4.29,-1.23 4.89,-1.84 4.29,-1.22 4.89,-1.83 4.29,-1.23 4.89,-1.22 4.9,-1.23 4.28,-1.22 4.9,-1.22 4.28,-1.23 4.9,-1.22 4.28,-1.23 4.9,-1.22 4.28,-1.22 4.9,-0.62 4.28,-1.22 4.9,-1.22 4.28,-0.61 4.9,-1.23 4.28,-1.22 4.9,-0.62 4.28,-1.22 4.9,-0.61 4.9,-0.62 4.28,-1.22 4.9,-0.61 4.28,-1.22 4.89,-0.62 4.29,-0.61 4.89,-0.61 4.29,-0.61 4.89,-1.23 4.29,-0.61 4.89,-0.61 4.29,-0.61 4.89,-0.62 4.29,-0.6 4.89,-0.62 4.9,-0.61 4.28,-0.61 4.9,-0.61 4.28,-0.62 4.9,-0.61 4.28,-0.61 4.9,-0.61 4.29,-0.61 4.89,-0.62 h 4.29 l 4.89,-0.61 4.29,-0.61 4.89,-0.61 4.29,-0.62 h 4.89 l 4.28,-0.6 4.9,-0.62 4.9,-0.61 h 4.28 l 4.9,-0.61 4.28,-0.61 h 4.9 l 4.28,-0.62 4.9,-0.61 h 4.28 l 4.9,-0.61 4.28,-0.61 h 4.9 l 4.28,-0.61 h 4.9 l 4.28,-0.62 4.9,-0.61 h 4.89 l 4.29,-0.61 h 4.89 l 4.28,-0.61 h 4.9 l 4.28,-0.61 h 4.9 l 4.28,-0.61 h 4.9 l 4.29,-0.62 h 4.89 l 4.29,-0.61 h 4.89 l 4.29,-0.61 h 4.89 l 4.29,-0.61 h 4.89 4.9 l 4.28,-0.62 h 4.9 l 4.28,-0.61 h 4.9 l 4.28,-0.61 h 4.9 0.61" /><path
         id="path20"
         style="fill:none;stroke:#000000;stroke-width:18.36000061;stroke-linecap:butt;stroke-linejoin:miter;stroke-miterlimit:10;stroke-dasharray:none;stroke-opacity:1"
         d="m 917.387,3258.9 v 0 l 17.136,0.61 17.75,0.62 17.133,0.6 17.137,0.62 17.137,0.61 17.75,1.22 17.13,0.62 17.14,1.22 17.14,1.22 17.75,1.23 17.13,1.22 17.14,1.23 17.13,1.83 17.75,1.84 17.14,2.45 17.13,2.44 17.14,2.45 17.74,3.06 17.14,3.06 17.14,3.67 17.13,3.67 17.75,4.29 17.14,4.89 17.13,5.52 17.14,6.11 17.75,6.12 17.13,7.35 17.14,7.96 17.14,9.17 17.74,9.18 17.14,11.02 17.14,11.63 17.13,13.46 17.75,14.08 17.14,15.91 17.13,17.13 17.14,18.98 17.75,20.81 17.13,22.64 17.14,24.48 17.75,26.32 17.13,29.37 17.14,31.21 17.14,33.66 17.74,36.11 17.14,39.17 17.14,41 17.13,44.07 17.75,46.51 17.13,49.57 17.14,52.02 17.13,53.86 17.75,56.3 17.14,58.14 17.14,59.98 17.13,61.81 17.75,61.81 17.14,63.04 17.13,63.04 17.14,62.42 17.75,61.2 17.13,59.97 17.14,56.92 17.13,54.47 17.75,50.18 17.14,46.52 17.13,41.61 17.14,37.33 17.75,31.82 17.14,27.55 17.13,22.03 17.14,17.75 17.75,13.46 17.13,10.41 17.13,6.73 17.14,4.89 17.75,2.45 17.13,1.84 17.14,0.61 17.14,0.61 17.75,-0.61 17.13,-0.61 17.14,-1.84 17.13,-2.45 17.75,-4.89 17.14,-6.73 17.13,-10.41 17.14,-13.46 17.75,-17.75 17.13,-22.03 17.14,-27.55 17.14,-31.82 17.74,-37.33 17.14,-41.61 17.14,-46.52 17.13,-50.18 17.75,-54.47 17.14,-56.92 17.13,-59.97 17.14,-61.2 17.75,-62.42 17.13,-63.04 17.14,-63.04 17.14,-61.81 17.74,-61.81 17.14,-59.98 17.13,-58.14 17.14,-56.3 17.75,-53.86 17.13,-52.02 17.14,-49.57 17.14,-46.51 17.74,-44.07 17.14,-41 17.14,-39.17 17.13,-36.11 17.75,-33.66 17.14,-31.21 17.13,-29.37 17.14,-26.32 17.75,-24.48 17.13,-22.64 17.14,-20.81 17.13,-18.98 17.75,-17.13 17.14,-15.91 17.14,-14.08 17.13,-13.46 17.75,-11.63 17.14,-11.02 17.13,-9.18 17.75,-9.17 17.14,-7.96 17.13,-7.35 17.13,-6.12 17.75,-6.11 17.14,-5.52 17.13,-4.89 17.14,-4.29 17.75,-3.67 17.14,-3.67 17.13,-3.06 17.14,-3.06 17.75,-2.45 17.13,-2.44 17.14,-2.45 17.13,-1.84 17.75,-1.83 17.14,-1.23 17.13,-1.22 17.14,-1.23 17.75,-1.22 17.13,-1.22 17.14,-0.62 17.14,-1.22 17.74,-0.61 17.14,-0.62 17.14,-0.6 17.13,-0.62 17.75,-0.61 v 0" /><path
         id="path22"
         style="fill:none;stroke:#000000;stroke-width:9.18000031;stroke-linecap:butt;stroke-linejoin:miter;stroke-miterlimit:10;stroke-dasharray:none;stroke-opacity:1"
         d="M 918,3254.62 H 3683.63" /><path
         id="path24"
         style="fill:none;stroke:#000000;stroke-width:9.18000031;stroke-linecap:butt;stroke-linejoin:miter;stroke-miterlimit:10;stroke-dasharray:none;stroke-opacity:1"
         d="M 918,5202 H 3683.63" /><path
         id="path26"
         style="fill:none;stroke:#000000;stroke-width:9.18000031;stroke-linecap:butt;stroke-linejoin:miter;stroke-miterlimit:10;stroke-dasharray:none;stroke-opacity:1"
         d="m 918,3254.62 v 61.2" /><path
         id="path28"
         style="fill:none;stroke:#000000;stroke-width:9.18000031;stroke-linecap:butt;stroke-linejoin:miter;stroke-miterlimit:10;stroke-dasharray:none;stroke-opacity:1"
         d="m 918,5202 v -61.2" /><path
         id="path30"
         style="fill:none;stroke:#000000;stroke-width:9.18000031;stroke-linecap:butt;stroke-linejoin:miter;stroke-miterlimit:10;stroke-dasharray:none;stroke-opacity:1"
         d="m 1839.67,3254.62 v 61.2" /><path
         id="path32"
         style="fill:none;stroke:#000000;stroke-width:9.18000031;stroke-linecap:butt;stroke-linejoin:miter;stroke-miterlimit:10;stroke-dasharray:none;stroke-opacity:1"
         d="m 1839.67,5202 v -61.2" /><path
         id="path34"
         style="fill:none;stroke:#000000;stroke-width:9.18000031;stroke-linecap:butt;stroke-linejoin:miter;stroke-miterlimit:10;stroke-dasharray:none;stroke-opacity:1"
         d="m 2761.34,3254.62 v 61.2" /><path
         id="path36"
         style="fill:none;stroke:#000000;stroke-width:9.18000031;stroke-linecap:butt;stroke-linejoin:miter;stroke-miterlimit:10;stroke-dasharray:none;stroke-opacity:1"
         d="m 2761.34,5202 v -61.2" /><path
         id="path38"
         style="fill:none;stroke:#000000;stroke-width:9.18000031;stroke-linecap:butt;stroke-linejoin:miter;stroke-miterlimit:10;stroke-dasharray:none;stroke-opacity:1"
         d="m 3683.63,3254.62 v 61.2" /><path
         id="path40"
         style="fill:none;stroke:#000000;stroke-width:9.18000031;stroke-linecap:butt;stroke-linejoin:miter;stroke-miterlimit:10;stroke-dasharray:none;stroke-opacity:1"
         d="m 3683.63,5202 v -61.2" /><path
         id="path42"
         style="fill:none;stroke:#000000;stroke-width:9.18000031;stroke-linecap:butt;stroke-linejoin:miter;stroke-miterlimit:10;stroke-dasharray:none;stroke-opacity:1"
         d="m 1378.84,3254.62 v 122.4" /><path
         id="path44"
         style="fill:none;stroke:#000000;stroke-width:9.18000031;stroke-linecap:butt;stroke-linejoin:miter;stroke-miterlimit:10;stroke-dasharray:none;stroke-opacity:1"
         d="M 1378.84,5202 V 5079.6" /><path
         id="path46"
         style="fill:none;stroke:#000000;stroke-width:9.18000031;stroke-linecap:butt;stroke-linejoin:miter;stroke-miterlimit:10;stroke-dasharray:none;stroke-opacity:1"
         d="m 2300.51,3254.62 v 122.4" /><path
         id="path48"
         style="fill:none;stroke:#000000;stroke-width:9.18000031;stroke-linecap:butt;stroke-linejoin:miter;stroke-miterlimit:10;stroke-dasharray:none;stroke-opacity:1"
         d="M 2300.51,5202 V 5079.6" /><path
         id="path50"
         style="fill:none;stroke:#000000;stroke-width:9.18000031;stroke-linecap:butt;stroke-linejoin:miter;stroke-miterlimit:10;stroke-dasharray:none;stroke-opacity:1"
         d="m 3222.79,3254.62 v 122.4" /><path
         id="path52"
         style="fill:none;stroke:#000000;stroke-width:9.18000031;stroke-linecap:butt;stroke-linejoin:miter;stroke-miterlimit:10;stroke-dasharray:none;stroke-opacity:1"
         d="M 3222.79,5202 V 5079.6" /><g
         transform="scale(10)"
         id="g54"><text
           id="text60"
           style="font-variant:normal;font-weight:normal;font-size:17.13599968px;font-family:'Times New Roman';-inkscape-font-specification:Times-Roman;writing-mode:lr-tb;fill:#000000;fill-opacity:1;fill-rule:nonzero;stroke:none"
           transform="matrix(1,0,0,-1,122.4,526.565)"><tspan
             id="tspan56"
             y="0"
             x="0 5.7062879 14.274288 22.842287 103.61179 187.27197 195.83998 204.40797">-2000200</tspan><tspan
             id="tspan58"
             y="-24.480101"
             x="69.155899">p</tspan></text>
<text
           id="text64"
           style="font-variant:normal;font-weight:normal;font-size:12.11760044px;font-family:'Times New Roman';-inkscape-font-specification:Times-Roman;writing-mode:lr-tb;fill:#000000;fill-opacity:1;fill-rule:nonzero;stroke:none"
           transform="matrix(1,0,0,-1,200.1852,544.19041)"><tspan
             id="tspan62"
             y="0"
             x="0">x</tspan></text>
<text
           id="text68"
           style="font-variant:normal;font-weight:normal;font-size:17.13599968px;font-family:'Times New Roman';-inkscape-font-specification:Times-Roman;writing-mode:lr-tb;fill:#000000;fill-opacity:1;fill-rule:nonzero;stroke:none"
           transform="matrix(1,0,0,-1,210.46686,551.0451)"><tspan
             id="tspan66"
             y="0"
             x="0 5.7062879 20.940191 28.548576 40.920769 45.684574 53.292961">(MeV/c)</tspan></text>
</g><path
         id="path70"
         style="fill:none;stroke:#000000;stroke-width:9.18000031;stroke-linecap:butt;stroke-linejoin:miter;stroke-miterlimit:10;stroke-dasharray:none;stroke-opacity:1"
         d="M 918,3254.62 V 5202" /><path
         id="path72"
         style="fill:none;stroke:#000000;stroke-width:9.18000031;stroke-linecap:butt;stroke-linejoin:miter;stroke-miterlimit:10;stroke-dasharray:none;stroke-opacity:1"
         d="M 3683.63,3254.62 V 5202" /><path
         id="path74"
         style="fill:none;stroke:#000000;stroke-width:9.18000031;stroke-linecap:butt;stroke-linejoin:miter;stroke-miterlimit:10;stroke-dasharray:none;stroke-opacity:1"
         d="m 918,3431.48 h 61.199" /><path
         id="path76"
         style="fill:none;stroke:#000000;stroke-width:9.18000031;stroke-linecap:butt;stroke-linejoin:miter;stroke-miterlimit:10;stroke-dasharray:none;stroke-opacity:1"
         d="m 3683.63,3431.48 h -61.2" /><path
         id="path78"
         style="fill:none;stroke:#000000;stroke-width:9.18000031;stroke-linecap:butt;stroke-linejoin:miter;stroke-miterlimit:10;stroke-dasharray:none;stroke-opacity:1"
         d="m 918,3785.83 h 61.199" /><path
         id="path80"
         style="fill:none;stroke:#000000;stroke-width:9.18000031;stroke-linecap:butt;stroke-linejoin:miter;stroke-miterlimit:10;stroke-dasharray:none;stroke-opacity:1"
         d="m 3683.63,3785.83 h -61.2" /><path
         id="path82"
         style="fill:none;stroke:#000000;stroke-width:9.18000031;stroke-linecap:butt;stroke-linejoin:miter;stroke-miterlimit:10;stroke-dasharray:none;stroke-opacity:1"
         d="m 918,4139.57 h 61.199" /><path
         id="path84"
         style="fill:none;stroke:#000000;stroke-width:9.18000031;stroke-linecap:butt;stroke-linejoin:miter;stroke-miterlimit:10;stroke-dasharray:none;stroke-opacity:1"
         d="m 3683.63,4139.57 h -61.2" /><path
         id="path86"
         style="fill:none;stroke:#000000;stroke-width:9.18000031;stroke-linecap:butt;stroke-linejoin:miter;stroke-miterlimit:10;stroke-dasharray:none;stroke-opacity:1"
         d="m 918,4493.92 h 61.199" /><path
         id="path88"
         style="fill:none;stroke:#000000;stroke-width:9.18000031;stroke-linecap:butt;stroke-linejoin:miter;stroke-miterlimit:10;stroke-dasharray:none;stroke-opacity:1"
         d="m 3683.63,4493.92 h -61.2" /><path
         id="path90"
         style="fill:none;stroke:#000000;stroke-width:9.18000031;stroke-linecap:butt;stroke-linejoin:miter;stroke-miterlimit:10;stroke-dasharray:none;stroke-opacity:1"
         d="m 918,4847.65 h 61.199" /><path
         id="path92"
         style="fill:none;stroke:#000000;stroke-width:9.18000031;stroke-linecap:butt;stroke-linejoin:miter;stroke-miterlimit:10;stroke-dasharray:none;stroke-opacity:1"
         d="m 3683.63,4847.65 h -61.2" /><path
         id="path94"
         style="fill:none;stroke:#000000;stroke-width:9.18000031;stroke-linecap:butt;stroke-linejoin:miter;stroke-miterlimit:10;stroke-dasharray:none;stroke-opacity:1"
         d="m 918,5202 h 61.199" /><path
         id="path96"
         style="fill:none;stroke:#000000;stroke-width:9.18000031;stroke-linecap:butt;stroke-linejoin:miter;stroke-miterlimit:10;stroke-dasharray:none;stroke-opacity:1"
         d="m 3683.63,5202 h -61.2" /><path
         id="path98"
         style="fill:none;stroke:#000000;stroke-width:9.18000031;stroke-linecap:butt;stroke-linejoin:miter;stroke-miterlimit:10;stroke-dasharray:none;stroke-opacity:1"
         d="m 918,3254.62 h 122.4" /><path
         id="path100"
         style="fill:none;stroke:#000000;stroke-width:9.18000031;stroke-linecap:butt;stroke-linejoin:miter;stroke-miterlimit:10;stroke-dasharray:none;stroke-opacity:1"
         d="m 3683.63,3254.62 h -122.4" /><path
         id="path102"
         style="fill:none;stroke:#000000;stroke-width:9.18000031;stroke-linecap:butt;stroke-linejoin:miter;stroke-miterlimit:10;stroke-dasharray:none;stroke-opacity:1"
         d="m 918,3608.96 h 122.4" /><path
         id="path104"
         style="fill:none;stroke:#000000;stroke-width:9.18000031;stroke-linecap:butt;stroke-linejoin:miter;stroke-miterlimit:10;stroke-dasharray:none;stroke-opacity:1"
         d="m 3683.63,3608.96 h -122.4" /><path
         id="path106"
         style="fill:none;stroke:#000000;stroke-width:9.18000031;stroke-linecap:butt;stroke-linejoin:miter;stroke-miterlimit:10;stroke-dasharray:none;stroke-opacity:1"
         d="m 918,3962.7 h 122.4" /><path
         id="path108"
         style="fill:none;stroke:#000000;stroke-width:9.18000031;stroke-linecap:butt;stroke-linejoin:miter;stroke-miterlimit:10;stroke-dasharray:none;stroke-opacity:1"
         d="m 3683.63,3962.7 h -122.4" /><path
         id="path110"
         style="fill:none;stroke:#000000;stroke-width:9.18000031;stroke-linecap:butt;stroke-linejoin:miter;stroke-miterlimit:10;stroke-dasharray:none;stroke-opacity:1"
         d="m 918,4317.05 h 122.4" /><path
         id="path112"
         style="fill:none;stroke:#000000;stroke-width:9.18000031;stroke-linecap:butt;stroke-linejoin:miter;stroke-miterlimit:10;stroke-dasharray:none;stroke-opacity:1"
         d="m 3683.63,4317.05 h -122.4" /><path
         id="path114"
         style="fill:none;stroke:#000000;stroke-width:9.18000031;stroke-linecap:butt;stroke-linejoin:miter;stroke-miterlimit:10;stroke-dasharray:none;stroke-opacity:1"
         d="m 918,4670.79 h 122.4" /><path
         id="path116"
         style="fill:none;stroke:#000000;stroke-width:9.18000031;stroke-linecap:butt;stroke-linejoin:miter;stroke-miterlimit:10;stroke-dasharray:none;stroke-opacity:1"
         d="m 3683.63,4670.79 h -122.4" /><path
         id="path118"
         style="fill:none;stroke:#000000;stroke-width:9.18000031;stroke-linecap:butt;stroke-linejoin:miter;stroke-miterlimit:10;stroke-dasharray:none;stroke-opacity:1"
         d="m 918,5025.13 h 122.4" /><path
         id="path120"
         style="fill:none;stroke:#000000;stroke-width:9.18000031;stroke-linecap:butt;stroke-linejoin:miter;stroke-miterlimit:10;stroke-dasharray:none;stroke-opacity:1"
         d="m 3683.63,5025.13 h -122.4" /><g
         transform="scale(10)"
         id="g122"><text
           id="text136"
           style="font-variant:normal;font-weight:normal;font-size:17.13599968px;font-family:'Times New Roman';-inkscape-font-specification:Times-Roman;writing-mode:lr-tb;fill:#000000;fill-opacity:1;fill-rule:nonzero;stroke:none"
           transform="matrix(1,0,0,-1,77.5402,319.831)"><tspan
             id="tspan124"
             y="0"
             x="0">0</tspan><tspan
             id="tspan126"
             y="-36.474998"
             x="-21.358601 -12.7906 -8.5066004 0.0614">0,02</tspan><tspan
             id="tspan128"
             y="-71.910202"
             x="-21.358601 -12.7906 -8.5066004 0.0614">0,04</tspan><tspan
             id="tspan130"
             y="-107.1614"
             x="-21.113678 -12.545678 -8.2616777 0.30632201">0,06</tspan><tspan
             id="tspan132"
             y="-142.7184"
             x="-20.930084 -12.362084 -8.078084 0.489916">0,08</tspan><tspan
             id="tspan134"
             y="-178.0918"
             x="-11.566804 -2.9988041 1.2851959">0,1</tspan></text>
<text
           id="text140"
           style="font-variant:normal;font-weight:normal;font-size:17.13599968px;font-family:'Times New Roman';-inkscape-font-specification:Times-Roman;writing-mode:lr-tb;fill:#000000;fill-opacity:1;fill-rule:nonzero;stroke:none"
           transform="matrix(0,1,1,0,43.207,349.146)"><tspan
             id="tspan138"
             y="0"
             x="0">d</tspan></text>
<text
           id="text144"
           style="font-variant:normal;font-weight:normal;font-size:17.13599968px;font-family:Symbol;-inkscape-font-specification:Symbol;writing-mode:lr-tb;fill:#000000;fill-opacity:1;fill-rule:nonzero;stroke:none"
           transform="matrix(0,1,1,0,43.207,357.77491)"><tspan
             id="tspan142"
             y="0"
             x="0">σ</tspan></text>
<text
           id="text148"
           style="font-variant:normal;font-weight:normal;font-size:17.13599968px;font-family:'Times New Roman';-inkscape-font-specification:Times-Roman;writing-mode:lr-tb;fill:#000000;fill-opacity:1;fill-rule:nonzero;stroke:none"
           transform="matrix(0,1,1,0,43.207,368.11791)"><tspan
             id="tspan146"
             y="0"
             x="0 4.7638078 13.331808">/dp</tspan></text>
<text
           id="text152"
           style="font-variant:normal;font-weight:normal;font-size:12.11760044px;font-family:'Times New Roman';-inkscape-font-specification:Times-Roman;writing-mode:lr-tb;fill:#000000;fill-opacity:1;fill-rule:nonzero;stroke:none"
           transform="matrix(0,1,1,0,50.06169,389.96631)"><tspan
             id="tspan150"
             y="0"
             x="0">x</tspan></text>
<text
           id="text156"
           style="font-variant:normal;font-weight:normal;font-size:17.13599968px;font-family:'Times New Roman';-inkscape-font-specification:Times-Roman;writing-mode:lr-tb;fill:#000000;fill-opacity:1;fill-rule:nonzero;stroke:none"
           transform="matrix(0,1,1,0,43.207,400.24797)"><tspan
             id="tspan154"
             y="0"
             x="0 5.7062879 19.038095 27.606096 32.369904 38.076191 53.310097 60.91848 73.290672 78.054482 85.662865 91.369148">(mb/(MeV/c))</tspan></text>
</g><path
         id="path158"
         style="fill:none;stroke:#000000;stroke-width:9.18000031;stroke-linecap:butt;stroke-linejoin:miter;stroke-miterlimit:10;stroke-dasharray:none;stroke-opacity:1"
         d="M 918,3254.62 V 5202 H 3683.63 V 3254.62 Z" /><path
         id="path160"
         style="fill:none;stroke:#ff0000;stroke-width:18.36000061;stroke-linecap:butt;stroke-linejoin:miter;stroke-miterlimit:10;stroke-dasharray:none;stroke-opacity:1"
         d="m 4235.65,3255.23 h 96.08 l 18.98,0.61 h 37.33 l 18.97,0.61 h 18.97 l 18.36,0.61 h 18.98 l 18.97,0.62 18.97,1.22 18.36,0.61 18.97,0.62 18.97,1.22 18.37,0.61 18.96,0.61 18.98,1.23 18.97,1.22 18.36,1.22 18.97,1.84 18.97,1.84 18.98,2.44 18.36,2.45 18.97,3.06 18.97,3.06 18.97,4.28 18.36,4.9 18.97,5.51 18.98,5.51 18.97,7.34 18.36,7.96 18.97,9.18 18.97,9.79 18.98,12.24 18.35,12.24 18.98,15.3 18.97,16.52 18.97,17.14 18.36,20.81 18.97,20.81 18.97,24.48 18.98,26.31 18.36,29.99 18.97,30.6 18.97,33.05 18.97,37.94 18.36,39.17 18.98,41 18.97,45.9 18.97,45.9 18.36,51.41 18.97,53.25 18.97,55.08 18.97,56.91 18.36,59.98 18.98,59.97 18.97,63.04 18.36,64.26 18.97,58.75 18.97,61.2 18.97,63.65 18.37,58.14 18.96,57.53 18.98,53.85 18.97,52.02 18.36,48.35 18.97,44.68 18.97,39.17 18.98,34.27 18.36,30.6 18.97,25.7 18.97,22.03 18.97,17.75 18.36,12.86 18.97,10.4 18.98,8.56 18.97,6.13 18.36,4.28 18.97,2.45 18.97,1.83 18.98,0.62 h 18.35 l 18.98,-0.62 18.97,-3.06 18.97,-4.89 18.36,-7.96 18.97,-9.79 18.97,-15.3 18.98,-17.75 18.36,-20.81 18.97,-25.09 18.97,-31.82 18.97,-33.66 18.36,-38.56 18.98,-43.45 18.97,-45.29 18.36,-50.18 18.97,-52.02 18.97,-56.31 18.97,-53.85 18.36,-58.14 18.97,-59.98 18.98,-58.75 18.97,-59.36 18.36,-60.59 18.97,-55.69 18.97,-58.76 18.98,-54.46 18.36,-52.02 18.97,-50.8 18.97,-46.51 18.97,-43.45 18.36,-42.23 18.97,-41.01 18.97,-36.72 18.98,-36.1 18.36,-31.22 18.97,-29.37 18.97,-26.93 18.97,-25.09 18.36,-22.64 18.97,-20.81 18.98,-19.59 18.97,-17.13 18.36,-16.53 18.97,-15.3 18.97,-14.07 18.98,-12.86 18.35,-11.62 18.98,-10.41 18.97,-9.18 18.97,-8.57 18.36,-7.34 18.97,-6.73 18.97,-6.12 18.98,-6.12 18.36,-5.51 18.97,-6.73 18.97,-8.57 18.36,-9.79 18.97,-14.08 18.98,-18.97 18.97,-21.42" /><path
         id="path162"
         style="fill:none;stroke:#0000ff;stroke-width:18.36000061;stroke-linecap:butt;stroke-linejoin:miter;stroke-miterlimit:10;stroke-dasharray:none;stroke-opacity:1"
         d="m 4235.65,3263.8 h 2.45 l 18.97,0.61 h 18.97 l 18.98,0.61 18.36,0.61 18.97,0.61 18.97,0.62 18.97,1.22 18.36,0.61 18.98,1.23 18.97,0.61 18.97,1.22 18.36,1.23 18.97,1.22 18.97,1.84 18.97,1.83 18.98,1.84 18.36,1.83 18.97,2.45 18.97,2.45 18.97,3.06 18.36,3.06 18.98,3.67 18.96,3.67 18.98,4.29 18.36,4.9 18.97,4.89 18.97,6.12 18.97,6.12 18.36,7.34 18.98,7.35 18.97,8.57 18.97,9.79 18.97,9.79 18.36,11.63 18.97,12.24 18.98,13.46 18.97,14.69 18.36,15.91 18.97,17.75 18.97,18.36 18.98,20.81 18.97,22.03 18.36,23.26 18.97,25.7 18.97,27.54 18.97,29.38 18.36,31.82 18.97,33.66 18.98,36.11 18.97,37.94 18.36,41.01 18.97,42.23 18.97,44.67 18.97,46.51 18.37,48.35 18.96,50.18 18.98,50.8 18.97,52.63 18.97,53.25 18.36,54.47 18.97,54.46 18.98,55.08 18.97,53.86 18.36,53.24 18.97,52.63 18.97,50.19 18.97,48.35 18.37,45.28 18.97,42.84 18.97,38.56 18.97,34.88 18.36,31.22 18.97,27.54 18.98,24.47 18.97,20.81 18.97,17.75 18.36,15.3 18.97,13.47 18.97,11.62 18.97,11.02 18.36,9.79 18.98,9.18 18.97,9.18 18.97,8.57 18.36,7.96 18.97,6.12 18.98,4.89 18.96,2.45 18.98,-1.22 18.36,-4.29 18.97,-8.56 18.97,-13.47 18.97,-18.97 18.36,-23.87 18.98,-29.99 18.97,-35.49 18.97,-41.01 18.36,-45.9 18.97,-50.79 18.97,-53.86 18.98,-57.53 18.35,-59.98 18.98,-61.19 18.97,-63.04 18.97,-63.04 18.98,-63.64 18.35,-63.04 18.98,-61.81 18.97,-60.59 18.97,-58.75 18.36,-56.92 18.97,-54.47 18.97,-51.4 18.98,-49.57 18.36,-46.52 18.97,-44.06 18.97,-41.01 18.97,-38.55 18.36,-35.5 18.98,-33.05 18.97,-30.6 18.97,-27.53 18.97,-26.32 18.36,-23.26 18.97,-21.42 18.97,-19.58 18.98,-18.36 18.36,-15.91 18.97,-14.69 18.97,-13.46 18.97,-12.25 18.97,-11.01 18.36,-9.8 18.98,-9.18 18.97,-7.95 18.97,-6.73 18.36,-6.12 18.97,-5.51 18.98,-5.51 18.97,-6.12 18.36,-6.73 18.97,-9.18 18.97,-11.02 18.97,-14.68 18.36,-15.3 18.97,-12.24" /><path
         id="path164"
         style="fill:none;stroke:#000000;stroke-width:18.36000061;stroke-linecap:butt;stroke-linejoin:miter;stroke-miterlimit:10;stroke-dasharray:none;stroke-opacity:1"
         d="m 4235.65,3255.23 h 39.78 l 18.36,0.61 h 56.92 l 18.36,0.61 h 18.97 l 18.97,0.61 h 18.97 l 18.36,0.62 18.98,1.22 18.97,0.61 18.97,1.22 18.36,1.23 18.97,0.61 18.97,1.23 18.37,0.61 18.96,1.22 18.98,1.23 18.97,1.83 18.36,1.84 18.97,1.83 18.97,1.84 18.98,3.06 18.36,3.06 18.97,3.06 18.97,4.28 18.97,4.9 18.36,4.9 18.97,6.11 18.98,7.35 18.97,7.96 18.36,9.17 18.97,10.41 18.97,11.63 18.98,12.85 18.35,14.69 18.98,16.52 18.97,18.98 18.97,19.58 18.36,23.87 18.97,23.87 18.97,26.92 18.98,29.99 18.36,33.05 18.97,34.27 18.97,36.72 18.97,42.23 18.36,43.45 18.98,45.29 18.97,51.41 18.97,50.18 18.36,55.69 18.97,58.14 18.97,59.37 18.97,61.2 18.36,64.26 18.98,63.65 18.97,65.48 18.36,66.71 18.97,61.2 18.97,63.03 18.97,65.49 18.37,60.59 18.96,59.97 18.98,56.3 18.97,55.09 18.36,49.57 18.97,45.9 18.97,39.17 18.98,33.04 18.36,28.77 18.97,23.87 18.97,19.58 18.97,15.91 18.36,11.02 18.97,9.18 18.98,7.95 18.97,5.51 18.36,4.28 18.97,3.07 18.97,1.83 18.98,1.22 h 18.35 l 18.98,0.62 18.97,-3.07 18.97,-4.28 18.36,-7.34 18.97,-10.41 18.97,-14.68 18.98,-18.98 18.36,-22.64 18.97,-26.93 18.97,-34.27 18.97,-37.33 18.36,-43.46 18.98,-48.34 18.97,-52.02 18.36,-56.92 18.97,-59.36 18.97,-64.26 18.97,-63.04 18.36,-66.7 18.97,-68.55 18.98,-66.09 18.97,-66.1 18.36,-67.32 18.97,-60.59 18.97,-63.65 18.98,-59.36 18.36,-55.7 18.97,-53.85 18.97,-49.57 18.97,-45.29 18.36,-44.06 18.97,-40.4 18.97,-36.72 18.98,-34.88 18.36,-31.21 18.97,-28.15 18.97,-26.93 18.97,-24.48 18.36,-22.65 18.97,-20.19 18.98,-18.97 18.97,-17.14 18.36,-15.91 18.97,-14.08 18.97,-12.85 18.98,-11.63 18.35,-10.4 18.98,-9.8 18.97,-9.18 18.97,-7.95 18.36,-6.73 18.97,-6.12 18.97,-6.12 18.98,-5.51 18.36,-5.51 18.97,-6.73 18.97,-7.95 18.36,-9.18 18.97,-14.08 18.98,-18.36 18.97,-20.81" /><path
         id="path166"
         style="fill:none;stroke:#000000;stroke-width:9.18000031;stroke-linecap:butt;stroke-linejoin:miter;stroke-miterlimit:10;stroke-dasharray:none;stroke-opacity:1"
         d="M 4236.27,3254.62 H 7001.89" /><path
         id="path168"
         style="fill:none;stroke:#000000;stroke-width:9.18000031;stroke-linecap:butt;stroke-linejoin:miter;stroke-miterlimit:10;stroke-dasharray:none;stroke-opacity:1"
         d="M 4236.27,5202 H 7001.89" /><path
         id="path170"
         style="fill:none;stroke:#000000;stroke-width:9.18000031;stroke-linecap:butt;stroke-linejoin:miter;stroke-miterlimit:10;stroke-dasharray:none;stroke-opacity:1"
         d="m 4487.8,3254.62 v 61.2" /><path
         id="path172"
         style="fill:none;stroke:#000000;stroke-width:9.18000031;stroke-linecap:butt;stroke-linejoin:miter;stroke-miterlimit:10;stroke-dasharray:none;stroke-opacity:1"
         d="m 4487.8,5202 v -61.2" /><path
         id="path174"
         style="fill:none;stroke:#000000;stroke-width:9.18000031;stroke-linecap:butt;stroke-linejoin:miter;stroke-miterlimit:10;stroke-dasharray:none;stroke-opacity:1"
         d="m 4990.86,3254.62 v 61.2" /><path
         id="path176"
         style="fill:none;stroke:#000000;stroke-width:9.18000031;stroke-linecap:butt;stroke-linejoin:miter;stroke-miterlimit:10;stroke-dasharray:none;stroke-opacity:1"
         d="m 4990.86,5202 v -61.2" /><path
         id="path178"
         style="fill:none;stroke:#000000;stroke-width:9.18000031;stroke-linecap:butt;stroke-linejoin:miter;stroke-miterlimit:10;stroke-dasharray:none;stroke-opacity:1"
         d="m 5493.31,3254.62 v 61.2" /><path
         id="path180"
         style="fill:none;stroke:#000000;stroke-width:9.18000031;stroke-linecap:butt;stroke-linejoin:miter;stroke-miterlimit:10;stroke-dasharray:none;stroke-opacity:1"
         d="m 5493.31,5202 v -61.2" /><path
         id="path182"
         style="fill:none;stroke:#000000;stroke-width:9.18000031;stroke-linecap:butt;stroke-linejoin:miter;stroke-miterlimit:10;stroke-dasharray:none;stroke-opacity:1"
         d="m 4236.27,3254.62 v 122.4" /><path
         id="path184"
         style="fill:none;stroke:#000000;stroke-width:9.18000031;stroke-linecap:butt;stroke-linejoin:miter;stroke-miterlimit:10;stroke-dasharray:none;stroke-opacity:1"
         d="M 4236.27,5202 V 5079.6" /><path
         id="path186"
         style="fill:none;stroke:#000000;stroke-width:9.18000031;stroke-linecap:butt;stroke-linejoin:miter;stroke-miterlimit:10;stroke-dasharray:none;stroke-opacity:1"
         d="m 4739.33,3254.62 v 122.4" /><path
         id="path188"
         style="fill:none;stroke:#000000;stroke-width:9.18000031;stroke-linecap:butt;stroke-linejoin:miter;stroke-miterlimit:10;stroke-dasharray:none;stroke-opacity:1"
         d="M 4739.33,5202 V 5079.6" /><path
         id="path190"
         style="fill:none;stroke:#000000;stroke-width:9.18000031;stroke-linecap:butt;stroke-linejoin:miter;stroke-miterlimit:10;stroke-dasharray:none;stroke-opacity:1"
         d="m 5242.39,3254.62 v 122.4" /><path
         id="path192"
         style="fill:none;stroke:#000000;stroke-width:9.18000031;stroke-linecap:butt;stroke-linejoin:miter;stroke-miterlimit:10;stroke-dasharray:none;stroke-opacity:1"
         d="M 5242.39,5202 V 5079.6" /><path
         id="path194"
         style="fill:none;stroke:#000000;stroke-width:9.18000031;stroke-linecap:butt;stroke-linejoin:miter;stroke-miterlimit:10;stroke-dasharray:none;stroke-opacity:1"
         d="m 5744.84,3254.62 v 122.4" /><path
         id="path196"
         style="fill:none;stroke:#000000;stroke-width:9.18000031;stroke-linecap:butt;stroke-linejoin:miter;stroke-miterlimit:10;stroke-dasharray:none;stroke-opacity:1"
         d="M 5744.84,5202 V 5079.6" /><g
         transform="scale(10)"
         id="g198"><text
           id="text204"
           style="font-variant:normal;font-weight:normal;font-size:17.13599968px;font-family:'Times New Roman';-inkscape-font-specification:Times-Roman;writing-mode:lr-tb;fill:#000000;fill-opacity:1;fill-rule:nonzero;stroke:none"
           transform="matrix(1,0,0,-1,411.08,526.565)"><tspan
             id="tspan200"
             y="0"
             x="0 8.5679998 17.136 50.245323 58.813324 67.381325 100.55165 109.11965 117.68765 150.79697 159.36497 167.93297">200300400500</tspan><tspan
             id="tspan202"
             y="-24.7246"
             x="112.669">p</tspan></text>
<text
           id="text208"
           style="font-variant:normal;font-weight:normal;font-size:12.11760044px;font-family:'Times New Roman';-inkscape-font-specification:Times-Roman;writing-mode:lr-tb;fill:#000000;fill-opacity:1;fill-rule:nonzero;stroke:none"
           transform="matrix(1,0,0,-1,532.3783,544.4353)"><tspan
             id="tspan206"
             y="0"
             x="0">z</tspan></text>
<text
           id="text212"
           style="font-variant:normal;font-weight:normal;font-size:17.13599968px;font-family:'Times New Roman';-inkscape-font-specification:Times-Roman;writing-mode:lr-tb;fill:#000000;fill-opacity:1;fill-rule:nonzero;stroke:none"
           transform="matrix(1,0,0,-1,541.98652,551.2896)"><tspan
             id="tspan210"
             y="0"
             x="0 5.7062879 20.940191 28.548576 40.920769 45.684574 53.292961">(MeV/c)</tspan></text>
</g><path
         id="path214"
         style="fill:none;stroke:#000000;stroke-width:9.18000031;stroke-linecap:butt;stroke-linejoin:miter;stroke-miterlimit:10;stroke-dasharray:none;stroke-opacity:1"
         d="M 4236.27,3254.62 V 5202" /><path
         id="path216"
         style="fill:none;stroke:#000000;stroke-width:9.18000031;stroke-linecap:butt;stroke-linejoin:miter;stroke-miterlimit:10;stroke-dasharray:none;stroke-opacity:1"
         d="m 4236.27,3431.48 h 61.19" /><path
         id="path218"
         style="fill:none;stroke:#000000;stroke-width:9.18000031;stroke-linecap:butt;stroke-linejoin:miter;stroke-miterlimit:10;stroke-dasharray:none;stroke-opacity:1"
         d="m 4236.27,3785.83 h 61.19" /><path
         id="path220"
         style="fill:none;stroke:#000000;stroke-width:9.18000031;stroke-linecap:butt;stroke-linejoin:miter;stroke-miterlimit:10;stroke-dasharray:none;stroke-opacity:1"
         d="m 4236.27,4139.57 h 61.19" /><path
         id="path222"
         style="fill:none;stroke:#000000;stroke-width:9.18000031;stroke-linecap:butt;stroke-linejoin:miter;stroke-miterlimit:10;stroke-dasharray:none;stroke-opacity:1"
         d="m 4236.27,4493.92 h 61.19" /><path
         id="path224"
         style="fill:none;stroke:#000000;stroke-width:9.18000031;stroke-linecap:butt;stroke-linejoin:miter;stroke-miterlimit:10;stroke-dasharray:none;stroke-opacity:1"
         d="m 4236.27,4847.65 h 61.19" /><path
         id="path226"
         style="fill:none;stroke:#000000;stroke-width:9.18000031;stroke-linecap:butt;stroke-linejoin:miter;stroke-miterlimit:10;stroke-dasharray:none;stroke-opacity:1"
         d="m 4236.27,5202 h 61.19" /><path
         id="path228"
         style="fill:none;stroke:#000000;stroke-width:9.18000031;stroke-linecap:butt;stroke-linejoin:miter;stroke-miterlimit:10;stroke-dasharray:none;stroke-opacity:1"
         d="m 4236.27,3254.62 h 122.39" /><path
         id="path230"
         style="fill:none;stroke:#000000;stroke-width:9.18000031;stroke-linecap:butt;stroke-linejoin:miter;stroke-miterlimit:10;stroke-dasharray:none;stroke-opacity:1"
         d="m 4236.27,3608.96 h 122.39" /><path
         id="path232"
         style="fill:none;stroke:#000000;stroke-width:9.18000031;stroke-linecap:butt;stroke-linejoin:miter;stroke-miterlimit:10;stroke-dasharray:none;stroke-opacity:1"
         d="m 4236.27,3962.7 h 122.39" /><path
         id="path234"
         style="fill:none;stroke:#000000;stroke-width:9.18000031;stroke-linecap:butt;stroke-linejoin:miter;stroke-miterlimit:10;stroke-dasharray:none;stroke-opacity:1"
         d="m 4236.27,4317.05 h 122.39" /><path
         id="path236"
         style="fill:none;stroke:#000000;stroke-width:9.18000031;stroke-linecap:butt;stroke-linejoin:miter;stroke-miterlimit:10;stroke-dasharray:none;stroke-opacity:1"
         d="m 4236.27,4670.79 h 122.39" /><path
         id="path238"
         style="fill:none;stroke:#000000;stroke-width:9.18000031;stroke-linecap:butt;stroke-linejoin:miter;stroke-miterlimit:10;stroke-dasharray:none;stroke-opacity:1"
         d="m 4236.27,5025.13 h 122.39" /><path
         id="path240"
         style="fill:none;stroke:#000000;stroke-width:9.18000031;stroke-linecap:butt;stroke-linejoin:miter;stroke-miterlimit:10;stroke-dasharray:none;stroke-opacity:1"
         d="M 4236.27,3254.62 V 5202 H 7001.89 V 3254.62 Z" /><path
         id="path242"
         style="fill:#ffffff;fill-opacity:1;fill-rule:nonzero;stroke:none"
         d="m 3034.3,3890.48 h 1977.37 v 810.289 H 3034.3 Z" /><path
         id="path244"
         style="fill:none;stroke:#000000;stroke-width:9.18000031;stroke-linecap:butt;stroke-linejoin:miter;stroke-miterlimit:10;stroke-dasharray:none;stroke-opacity:1"
         d="m 3034.3,4700.77 v -810.29 h 1977.37 v 810.29 z" /><g
         transform="scale(10)"
         id="g246"><text
           id="text250"
           style="font-variant:normal;font-weight:normal;font-size:17.13599968px;font-family:'Times New Roman';-inkscape-font-specification:Times-Roman;writing-mode:lr-tb;fill:#000000;fill-opacity:1;fill-rule:nonzero;stroke:none"
           transform="matrix(1,0,0,-1,347.188,445.536)"><tspan
             id="tspan248"
             y="0"
             x="0 12.372192">Vp</tspan></text>
<text
           id="text254"
           style="font-variant:normal;font-weight:normal;font-size:12.11760044px;font-family:'Times New Roman';-inkscape-font-specification:Times-Roman;writing-mode:lr-tb;fill:#000000;fill-opacity:1;fill-rule:nonzero;stroke:none"
           transform="matrix(1,0,0,-1,368.1185,455.8176)"><tspan
             id="tspan252"
             y="0"
             x="0 6.0588002">11</tspan></text>
<text
           id="text258"
           style="font-variant:normal;font-weight:normal;font-size:17.13599968px;font-family:'Times New Roman';-inkscape-font-specification:Times-Roman;writing-mode:lr-tb;fill:#000000;fill-opacity:1;fill-rule:nonzero;stroke:none"
           transform="matrix(1,0,0,-1,380.1138,445.536)"><tspan
             id="tspan256"
             y="0"
             x="0 11.429712 19.038095 23.322096 35.694286 48.066479">Be KD </tspan></text>
<text
           id="text262"
           style="font-variant:normal;font-weight:normal;font-size:17.13599968px;font-family:Symbol;-inkscape-font-specification:Symbol;writing-mode:lr-tb;fill:#000000;fill-opacity:1;fill-rule:nonzero;stroke:none"
           transform="matrix(1,0,0,-1,432.3786,445.536)"><tspan
             id="tspan260"
             y="0"
             x="0">σ</tspan></text>
<text
           id="text266"
           style="font-variant:normal;font-weight:normal;font-size:17.13599968px;font-family:'Times New Roman';-inkscape-font-specification:Times-Roman;writing-mode:lr-tb;fill:#000000;fill-opacity:1;fill-rule:nonzero;stroke:none"
           transform="matrix(1,0,0,-1,442.7212,445.536)"><tspan
             id="tspan264"
             y="0"
             x="0 9.6647043 18.232704 26.800703 31.084703 44.416512">=20 mb</tspan></text>
</g><path
         id="path268"
         style="fill:none;stroke:#ff0000;stroke-width:18.36000061;stroke-linecap:butt;stroke-linejoin:miter;stroke-miterlimit:10;stroke-dasharray:none;stroke-opacity:1"
         d="m 3104.68,4528.19 h 244.8" /><g
         transform="scale(10)"
         id="g270"><text
           id="text274"
           style="font-variant:normal;font-weight:normal;font-size:17.13599968px;font-family:'Times New Roman';-inkscape-font-specification:Times-Roman;writing-mode:lr-tb;fill:#000000;fill-opacity:1;fill-rule:nonzero;stroke:none"
           transform="matrix(1,0,0,-1,347.188,423.81)"><tspan
             id="tspan272"
             y="0"
             x="0 9.5276155 17.136 25.704 34.271999 41.880383 49.48877 58.056767">Faddeev </tspan></text>
<text
           id="text278"
           style="font-variant:normal;font-weight:normal;font-size:17.13599968px;font-family:Symbol;-inkscape-font-specification:Symbol;writing-mode:lr-tb;fill:#000000;fill-opacity:1;fill-rule:nonzero;stroke:none"
           transform="matrix(1,0,0,-1,409.6122,423.81)"><tspan
             id="tspan276"
             y="0"
             x="0">σ</tspan></text>
<text
           id="text282"
           style="font-variant:normal;font-weight:normal;font-size:17.13599968px;font-family:'Times New Roman';-inkscape-font-specification:Times-Roman;writing-mode:lr-tb;fill:#000000;fill-opacity:1;fill-rule:nonzero;stroke:none"
           transform="matrix(1,0,0,-1,419.9548,423.81)"><tspan
             id="tspan280"
             y="0"
             x="0 9.6647043 18.232704 26.800703 31.084703 44.416512">=20 mb</tspan></text>
</g><path
         id="path284"
         style="fill:none;stroke:#0000ff;stroke-width:18.36000061;stroke-linecap:butt;stroke-linejoin:miter;stroke-miterlimit:10;stroke-dasharray:none;stroke-opacity:1"
         d="m 3104.68,4295.63 h 244.8" /><g
         transform="scale(10)"
         id="g286"><text
           id="text290"
           style="font-variant:normal;font-weight:normal;font-size:17.13599968px;font-family:'Times New Roman';-inkscape-font-specification:Times-Roman;writing-mode:lr-tb;fill:#000000;fill-opacity:1;fill-rule:nonzero;stroke:none"
           transform="matrix(1,0,0,-1,347.188,399.024)"><tspan
             id="tspan288"
             y="0"
             x="0 12.372192">Vp</tspan></text>
<text
           id="text294"
           style="font-variant:normal;font-weight:normal;font-size:12.11760044px;font-family:'Times New Roman';-inkscape-font-specification:Times-Roman;writing-mode:lr-tb;fill:#000000;fill-opacity:1;fill-rule:nonzero;stroke:none"
           transform="matrix(1,0,0,-1,368.1185,409.3056)"><tspan
             id="tspan292"
             y="0"
             x="0 6.0588002">11</tspan></text>
<text
           id="text298"
           style="font-variant:normal;font-weight:normal;font-size:17.13599968px;font-family:'Times New Roman';-inkscape-font-specification:Times-Roman;writing-mode:lr-tb;fill:#000000;fill-opacity:1;fill-rule:nonzero;stroke:none"
           transform="matrix(1,0,0,-1,380.1138,399.024)"><tspan
             id="tspan296"
             y="0"
             x="0 11.429712 19.038095">Be </tspan></text>
<text
           id="text302"
           style="font-variant:normal;font-weight:normal;font-size:17.13599968px;font-family:Symbol;-inkscape-font-specification:Symbol;writing-mode:lr-tb;fill:#000000;fill-opacity:1;fill-rule:nonzero;stroke:none"
           transform="matrix(1,0,0,-1,403.3697,399.024)"><tspan
             id="tspan300"
             y="0"
             x="0">σ</tspan></text>
<text
           id="text306"
           style="font-variant:normal;font-weight:normal;font-size:17.13599968px;font-family:'Times New Roman';-inkscape-font-specification:Times-Roman;writing-mode:lr-tb;fill:#000000;fill-opacity:1;fill-rule:nonzero;stroke:none"
           transform="matrix(1,0,0,-1,413.7127,399.024)"><tspan
             id="tspan304"
             y="0"
             x="0 9.6647043 18.232704 26.800703 31.084703 44.416512">=21 mb</tspan></text>
</g><path
         id="path308"
         style="fill:none;stroke:#000000;stroke-width:18.36000061;stroke-linecap:butt;stroke-linejoin:miter;stroke-miterlimit:10;stroke-dasharray:none;stroke-opacity:1"
         d="m 3104.68,4063.07 h 244.8" /><path
         id="path310"
         style="fill:none;stroke:#0000ff;stroke-width:18.36000061;stroke-linecap:butt;stroke-linejoin:miter;stroke-miterlimit:10;stroke-dasharray:none;stroke-opacity:1"
         d="m 918,918 92.41,2.449 91.8,3.059 92.42,6.73 91.8,17.137 92.41,37.332 92.41,77.113 91.8,137.09 92.41,220.93 92.41,290.09 18.36,63.64 18.36,64.27 18.36,65.48 18.36,65.48 18.36,65.49 18.36,64.87 18.36,53.24 18.97,58.14 18.36,55.69 18.37,52.64 18.36,49.57 18.35,45.9 18.36,41 18.36,37.34 18.36,31.82 18.98,26.32 18.35,21.41 18.36,15.92 18.37,11.63 18.36,8.56 18.36,6.73 18.36,6.13 18.36,6.73 18.97,6.73 18.36,7.96 18.36,8.56 18.36,10.41 18.36,10.4 18.36,9.8 18.36,8.56 18.36,6.12 18.97,2.45 18.36,-3.06 18.36,-8.57 18.36,-13.46 18.36,-18.97 18.36,-24.48 18.36,-29.38 18.36,-34.27 18.97,-38.56 18.36,-42.22 18.36,-44.68 18.36,-48.35 18.36,-49.57 18.36,-51.41 18.36,-52.63 18.36,-53.25 18.97,-53.24 18.36,-53.25 18.36,-53.24 91.8,-258.26 92.42,-224 92.41,-174.41 91.8,-130.36 92.41,-94.25 92.41,-66.09 91.8,-45.29 92.41,-30.6 91.8,-19.586 92.41,-11.629 66.72,-53.855" /><path
         id="path312"
         style="fill:none;stroke:#ff0000;stroke-width:18.36000061;stroke-linecap:butt;stroke-linejoin:miter;stroke-miterlimit:10;stroke-dasharray:none;stroke-opacity:1"
         d="m 1207.48,918 h 29.98 l 4.9,4.285 4.9,0.61 4.89,0.613 h 4.9 l 4.9,0.613 4.89,0.609 4.89,0.614 h 5.51 l 4.9,0.613 4.9,0.609 4.89,0.614 4.9,0.613 4.89,0.609 4.9,0.614 4.9,0.613 5.5,0.609 4.9,1.227 4.9,0.609 4.89,1.227 4.9,0.609 4.89,1.227 4.9,1.222 4.9,1.227 5.5,1.223 4.9,1.222 4.9,1.227 4.89,1.222 4.9,1.836 4.9,1.836 4.89,1.836 4.89,1.836 5.52,1.836 4.89,1.836 4.9,2.449 4.89,1.836 4.9,2.446 4.89,3.062 4.9,2.445 4.9,3.063 5.5,3.058 4.9,3.063 4.9,3.672 4.89,3.058 4.9,3.672 4.89,4.285 4.9,3.672 4.9,4.282 5.5,4.281 4.9,4.29 4.9,4.89 4.89,4.9 4.9,5.51 4.9,5.51 4.89,5.51 4.9,6.11 5.51,6.12 4.89,6.12 4.89,6.74 4.9,7.34 4.9,6.73 4.89,7.96 4.9,7.34 4.9,7.96 5.5,7.95 4.9,8.57 4.9,8.57 4.89,8.57 4.9,9.18 4.89,9.79 4.9,9.79 4.9,10.41 5.5,10.4 4.9,11.02 4.9,11.01 4.89,11.02 4.9,11.63 4.89,12.24 4.9,11.62 4.9,12.24 5.51,12.85 4.89,12.25 4.89,13.46 4.9,13.46 4.9,14.08 4.89,14.07 4.9,14.08 4.9,14.69 5.5,15.3 4.9,15.3 4.9,15.3 4.89,15.91 4.9,16.53 4.89,15.91 4.9,16.52 4.9,16.53 5.5,16.52 4.9,17.14 4.9,17.13 4.89,17.75 4.9,17.75 4.89,18.36 4.9,17.75 4.9,18.36 5.51,18.97 4.89,18.36 4.89,18.97 4.9,18.97 4.9,19.58 4.9,18.98 4.89,19.58 4.9,19.59 5.5,19.58 4.9,19.58 4.9,19.59 4.89,19.58 4.9,19.59 4.89,19.58 4.9,19.58 4.9,19.59 5.5,18.97 4.9,19.59 4.9,18.96 4.89,18.98 4.9,18.97 4.89,19.59 4.9,18.96 4.9,18.98 5.51,18.97 4.89,18.36 4.89,17.75 4.9,17.75 4.9,17.75 4.9,17.13 4.89,17.13 4.89,16.53 5.51,15.91 4.9,16.53 4.9,15.3 4.89,15.91 4.9,15.3 4.89,15.91 4.9,14.69 4.9,14.69 5.5,14.07 4.9,13.47 4.9,13.46 4.89,12.85 4.9,12.24 4.89,11.63 4.9,11.63 4.9,11.63 5.51,10.4 4.89,10.41 4.89,10.4 4.9,9.18 4.9,9.79 4.9,8.57 4.89,8.57 4.89,8.56 5.51,7.96 4.9,7.34 4.9,7.35 4.89,7.34 4.9,6.12 4.89,6.73 4.9,6.12 4.9,5.51 5.5,5.51 4.9,5.51 4.9,4.89 4.89,4.29 4.9,3.67 4.89,4.28 4.9,3.68 4.9,3.67 5.51,3.06 4.89,3.67 4.9,3.06 4.89,3.06 4.9,2.45 4.9,3.06 4.89,2.45 4.89,2.44 5.51,2.45 4.9,1.84 4.9,1.83 4.89,1.23 4.9,1.84 4.89,1.22 4.9,1.22 4.9,1.23 5.5,1.22 4.9,1.22 4.9,1.23 4.89,0.61 4.9,1.23 4.89,0.6 4.9,1.23 4.9,0.61 5.5,0.61 h 4.9 l 4.9,1.23 h 4.89 l 4.9,0.61 h 4.9 4.89 l 4.89,-0.61 h 5.51 l 4.9,-0.61 4.9,-1.23 4.89,-0.61 4.9,-1.23 4.89,-1.83 4.9,-1.84 4.9,-1.83 5.5,-1.84 4.9,-1.83 4.9,-2.45 4.89,-2.45 4.9,-3.06 4.89,-3.06 4.9,-3.06 4.9,-3.67 5.5,-4.29 4.9,-3.67 4.9,-4.89 4.89,-4.9 4.9,-4.9 4.9,-5.5 4.89,-5.51 4.9,-6.12 5.51,-6.12 4.89,-6.12 4.9,-6.12 4.89,-6.73 4.9,-7.35 4.89,-7.34 4.9,-7.35 4.9,-7.95 5.5,-8.57 4.9,-8.57 4.9,-8.57 4.89,-9.18 4.9,-9.18 4.89,-9.79 4.9,-9.79 4.9,-9.79 5.5,-10.4 4.9,-10.41 4.9,-11.02 4.89,-10.4 4.9,-11.63 4.9,-11.01 4.89,-11.63 4.9,-11.63 5.51,-11.63 4.89,-12.24 4.89,-12.24 4.9,-12.24 4.9,-12.24 4.89,-12.85 4.9,-12.24 4.9,-12.85 5.5,-13.47 4.9,-13.46 4.9,-12.85 4.89,-13.46 4.9,-13.47 4.89,-13.46 4.9,-13.47 4.9,-13.46 5.5,-13.46 4.9,-13.47 4.9,-13.46 4.89,-13.47 4.9,-14.07 4.89,-13.47 4.9,-13.46 4.9,-14.08 5.51,-13.46 4.89,-13.47 4.89,-13.46 4.9,-14.08 4.9,-13.46 4.89,-13.47 4.9,-13.46 4.9,-13.46 5.5,-13.47 4.9,-13.46 4.9,-13.47 4.89,-13.46 4.9,-13.46 4.89,-13.47 4.9,-13.46 4.9,-13.46 5.5,-12.86 4.9,-13.46 4.9,-12.85 4.89,-13.46 4.9,-12.86 4.89,-12.85 4.9,-12.24 4.9,-12.85 5.51,-12.24 4.89,-12.86 4.89,-12.23 4.9,-12.24 4.9,-11.63 4.9,-12.24 4.89,-12.24 4.9,-11.63 5.5,-11.63 4.9,-11.62 4.9,-11.63 4.89,-11.02 4.9,-11.01 4.89,-11.02 4.9,-11.02 4.9,-10.4 5.5,-11.02 4.9,-10.4 4.9,-9.79 4.89,-10.41 4.9,-9.79 4.89,-9.79 4.9,-9.79 4.9,-9.18 5.51,-9.8 4.89,-9.18 4.89,-9.18 4.9,-9.18 4.9,-8.56 4.9,-9.18 4.89,-8.57 4.89,-8.57 5.51,-8.57 4.9,-8.57 4.9,-7.95 4.89,-8.57 4.9,-7.96 4.89,-7.95 4.9,-7.96 4.9,-7.95 5.5,-7.35 4.9,-7.95 4.9,-7.35 4.89,-7.34 4.9,-7.35 4.89,-6.73 4.9,-7.34 4.9,-6.73 5.51,-6.73 4.89,-6.74 4.89,-6.12 4.9,-6.12 4.9,-6.73 4.9,-6.12 4.89,-6.12 4.89,-5.51 5.51,-6.12 4.9,-5.51 4.9,-5.5 4.89,-5.51 4.9,-5.51 4.89,-5.51 4.9,-4.89 4.9,-4.9 5.5,-4.89 4.9,-4.9 4.9,-4.9 4.89,-4.89 4.9,-4.29 4.89,-4.28 4.9,-4.9 4.9,-4.28 5.51,-3.67 4.89,-4.29 4.9,-4.28 4.89,-3.67 4.9,-4.29 4.9,-3.67 4.89,-3.67 4.89,-3.67 5.51,-3.68 4.9,-3.67 4.9,-3.67 4.89,-3.06 4.9,-3.67 4.89,-3.06 4.9,-3.06 4.9,-3.67 5.5,-3.06 4.9,-3.06 4.9,-3.06 4.89,-3.06 4.9,-3.06 4.89,-2.45 4.9,-3.06 4.9,-3.06 5.5,-2.45 4.9,-3.06 4.9,-2.45 4.89,-2.45 4.9,-3.05 4.9,-2.45 4.89,-2.45 4.89,-2.45 5.51,-2.45 4.9,-2.45 4.9,-1.83 4.89,-2.45 4.9,-2.45 4.89,-1.83 4.9,-2.45 4.9,-1.84 5.5,-2.45 4.9,-1.83 4.9,-4.9 4.89,-1.83 4.9,-1.84 4.89,-1.84 4.9,-1.22 4.9,-1.83 5.5,-1.84 4.9,-1.23 4.9,-1.83 4.89,-1.23 4.9,-1.83 4.9,-1.22 4.89,-1.23 4.89,-1.84 5.52,-1.22 4.89,-1.23 4.9,-1.22 4.89,-1.83 4.9,-1.23 4.89,-1.22 4.9,-1.23 4.9,-1.22 5.5,-0.61 4.9,-1.225 4.9,-1.226 4.89,-1.223 4.9,-0.613 4.89,-1.223 4.9,-0.613 4.9,-1.223 5.5,-0.613 4.9,-1.223 4.9,-0.613 4.89,-0.61 4.9,-0.613 4.9,-0.613 4.89,-1.223 4.9,-0.613 5.51,-0.609 4.89,-0.614 4.89,-0.613 4.9,-0.609 4.9,-0.614 4.89,-0.613 4.9,-0.609 4.9,-0.614 5.5,-0.613 4.9,-0.609 4.9,-0.613 4.89,-0.614 h 4.9 l 4.89,-0.609 4.9,-0.613 4.9,-0.614 h 5.5 l 4.9,-0.609 4.9,-0.613 h 4.89 l 4.9,-0.614 4.89,-0.609 4.9,-0.613 4.9,-0.614 5.51,-1.222 4.89,-1.227 4.89,-1.836 4.9,-1.836 4.9,-5.507 4.89,-1.836 4.9,-12.852 4.9,-29.375 h 5.5 4.9 4.9 4.89 4.9 0.61" /><path
         id="path314"
         style="fill:none;stroke:#000000;stroke-width:18.36000061;stroke-linecap:butt;stroke-linejoin:miter;stroke-miterlimit:10;stroke-dasharray:none;stroke-opacity:1"
         d="m 1207.48,918 h 29.98 l 4.9,6.73 4.9,0.614 4.89,0.613 4.9,0.609 4.9,0.614 4.89,0.613 4.89,0.609 5.51,0.614 4.9,0.613 4.9,0.609 4.89,0.614 4.9,0.613 4.89,0.609 4.9,0.614 4.9,1.222 5.5,0.613 4.9,1.223 4.9,0.613 4.89,1.227 4.9,1.223 4.89,1.222 4.9,1.227 4.9,1.222 5.5,1.223 4.9,1.227 4.9,1.836 4.89,1.222 4.9,1.836 4.9,1.836 4.89,1.836 4.89,2.449 5.52,1.836 4.89,2.446 4.9,2.449 4.89,2.449 4.9,3.059 4.89,2.449 4.9,3.058 4.9,3.063 5.5,3.672 4.9,3.672 4.9,3.672 4.89,3.671 4.9,4.282 4.89,3.672 4.9,4.895 4.9,4.28 5.5,4.9 4.9,4.9 4.9,4.9 4.89,5.5 4.9,5.51 4.9,6.12 4.89,6.12 4.9,6.73 5.51,6.73 4.89,6.73 4.89,7.96 4.9,7.35 4.9,7.95 4.89,8.57 4.9,8.57 4.9,8.57 5.5,8.56 4.9,9.19 4.9,9.78 4.89,9.8 4.9,10.4 4.89,10.41 4.9,11.01 4.9,11.63 5.5,11.02 4.9,12.23 4.9,12.25 4.89,12.24 4.9,12.85 4.89,12.85 4.9,13.46 4.9,12.85 5.51,13.47 4.89,14.08 4.89,14.07 4.9,14.69 4.9,15.3 4.89,15.3 4.9,15.91 4.9,15.92 5.5,16.52 4.9,16.52 4.9,17.14 4.89,17.75 4.9,17.75 4.89,17.74 4.9,17.75 4.9,18.36 5.5,18.36 4.9,18.36 4.9,18.97 4.89,19.59 4.9,19.58 4.89,19.59 4.9,19.58 4.9,20.19 5.51,20.2 4.89,20.2 4.89,20.19 4.9,20.81 4.9,20.2 4.9,21.41 4.89,20.81 4.9,21.43 5.5,20.8 4.9,20.81 4.9,21.42 4.89,20.81 4.9,20.81 4.89,20.8 4.9,20.2 4.9,20.81 5.5,20.2 4.9,20.19 4.9,20.2 4.89,20.19 4.9,19.59 4.89,20.19 4.9,19.58 4.9,18.98 5.51,19.58 4.89,18.98 4.89,18.36 4.9,18.97 4.9,18.36 4.9,17.74 4.89,17.75 4.89,17.75 5.51,17.14 4.9,17.13 4.9,16.53 4.89,16.52 4.9,17.14 4.89,16.52 4.9,16.52 4.9,15.92 5.5,14.69 4.9,14.68 4.9,14.08 4.89,14.07 4.9,12.86 4.89,12.85 4.9,12.24 4.9,11.63 5.51,11.01 4.89,10.41 4.89,10.4 4.9,9.79 4.9,9.8 4.9,9.18 4.89,8.56 4.89,7.96 5.51,7.96 4.9,7.34 4.9,7.34 4.89,6.73 4.9,6.12 4.89,6.13 4.9,5.5 4.9,5.51 5.5,4.9 4.9,4.89 4.9,4.29 4.89,3.67 4.9,3.06 4.89,3.67 4.9,3.06 4.9,3.06 5.51,2.45 4.89,3.06 4.9,2.45 4.89,2.45 4.9,3.05 4.9,1.84 4.89,2.45 4.89,2.45 5.51,1.83 4.9,1.84 4.9,1.84 4.89,1.22 4.9,1.22 4.89,1.84 4.9,1.22 4.9,1.23 5.5,1.22 4.9,1.23 4.9,1.22 4.89,0.61 4.9,1.22 4.89,1.23 4.9,0.61 4.9,0.61 5.5,0.61 4.9,0.62 4.9,0.61 4.89,0.61 4.9,0.61 h 4.9 4.89 4.89 5.51 l 4.9,-0.61 4.9,-0.61 4.89,-1.23 4.9,-1.22 4.89,-1.22 4.9,-1.23 4.9,-1.83 5.5,-1.84 4.9,-1.84 4.9,-2.44 4.89,-1.84 4.9,-3.06 4.89,-2.45 4.9,-3.67 4.9,-3.06 5.5,-4.29 4.9,-4.28 4.9,-4.28 4.89,-4.9 4.9,-4.89 4.9,-5.51 4.89,-6.12 4.9,-5.51 5.51,-6.73 4.89,-6.12 4.9,-6.73 4.89,-6.73 4.9,-7.35 4.89,-7.95 4.9,-7.96 4.9,-8.57 5.5,-8.57 4.9,-9.18 4.9,-9.18 4.89,-9.79 4.9,-9.79 4.89,-10.41 4.9,-10.4 4.9,-11.01 5.5,-11.02 4.9,-11.02 4.9,-11.62 4.89,-11.63 4.9,-12.25 4.9,-12.23 4.89,-12.86 4.9,-12.24 5.51,-13.46 4.89,-12.85 4.89,-13.46 4.9,-13.47 4.9,-14.08 4.89,-13.46 4.9,-14.08 4.9,-14.68 5.5,-14.69 4.9,-14.08 4.9,-15.3 4.89,-14.68 4.9,-14.7 4.89,-15.29 4.9,-14.69 4.9,-15.3 5.5,-15.3 4.9,-15.3 4.9,-15.3 4.89,-15.3 4.9,-15.91 4.89,-15.3 4.9,-15.31 4.9,-15.91 5.51,-15.3 4.89,-15.91 4.89,-15.91 4.9,-15.3 4.9,-15.91 4.89,-15.3 4.9,-15.3 4.9,-15.3 5.5,-15.3 4.9,-15.3 4.9,-15.3 4.89,-14.69 4.9,-15.3 4.89,-14.69 4.9,-15.3 4.9,-14.69 5.5,-14.68 4.9,-14.69 4.9,-14.69 4.89,-14.69 4.9,-14.07 4.89,-14.08 4.9,-14.08 4.9,-14.07 5.51,-13.47 4.89,-14.07 4.89,-13.47 4.9,-13.46 4.9,-12.85 4.9,-13.47 4.89,-12.85 4.9,-12.85 5.5,-12.85 4.9,-12.85 4.9,-12.24 4.89,-12.24 4.9,-12.25 4.89,-12.23 4.9,-11.63 4.9,-11.63 5.5,-11.63 4.9,-11.01 4.9,-11.02 4.89,-11.02 4.9,-11.01 4.89,-10.41 4.9,-11.01 4.9,-10.41 5.51,-10.4 4.89,-9.79 4.89,-9.8 4.9,-9.78 4.9,-9.8 4.9,-9.18 4.89,-9.18 4.89,-9.18 5.51,-9.18 4.9,-8.57 4.9,-8.56 4.89,-8.57 4.9,-8.57 4.89,-7.96 4.9,-7.95 4.9,-7.96 5.5,-7.95 4.9,-7.96 4.9,-7.34 4.89,-7.35 4.9,-7.34 4.89,-6.73 4.9,-7.35 4.9,-6.73 5.51,-6.73 4.89,-6.74 4.89,-6.11 4.9,-6.74 4.9,-6.11 4.9,-6.13 4.89,-5.5 4.89,-6.12 5.51,-5.51 4.9,-6.12 4.9,-5.51 4.89,-5.51 4.9,-4.89 4.89,-5.51 4.9,-4.9 4.9,-5.51 5.5,-4.89 4.9,-4.9 4.9,-4.89 4.89,-4.29 4.9,-4.89 4.89,-4.29 4.9,-4.28 4.9,-4.29 5.51,-4.28 4.89,-4.28 4.9,-4.29 4.89,-3.67 4.9,-4.28 4.9,-3.68 4.89,-3.67 4.89,-3.67 5.51,-3.67 4.9,-3.67 4.9,-3.68 4.89,-3.05 4.9,-3.68 4.89,-3.06 4.9,-3.67 4.9,-3.06 5.5,-3.06 4.9,-3.06 4.9,-3.06 4.89,-3.06 4.9,-2.45 4.89,-3.06 4.9,-3.06 4.9,-2.45 5.5,-2.44 4.9,-2.45 4.9,-2.45 4.89,-2.45 4.9,-2.45 4.9,-2.44 4.89,-2.45 4.89,-1.84 5.51,-2.45 4.9,-1.83 4.9,-2.45 4.89,-1.84 4.9,-1.83 4.89,-2.45 4.9,-1.84 4.9,-1.83 5.5,-1.84 4.9,-1.84 4.9,-4.28 4.89,-1.83 4.9,-1.84 4.89,-1.83 4.9,-1.23 4.9,-1.84 5.5,-1.22 4.9,-1.84 4.9,-1.22 4.89,-1.22 4.9,-1.84 4.9,-1.22 4.89,-1.23 4.89,-1.22 5.52,-1.84 4.89,-1.22 4.9,-1.23 4.89,-1.22 4.9,-1.22 4.89,-1.23 4.9,-1.22 4.9,-1.225 5.5,-0.613 4.9,-1.223 4.9,-1.226 4.89,-0.61 4.9,-1.226 4.89,-0.61 4.9,-1.226 4.9,-0.61 5.5,-1.226 4.9,-0.61 4.9,-0.613 4.89,-0.613 4.9,-1.223 4.9,-0.613 4.89,-0.609 4.9,-0.614 5.51,-0.613 4.89,-0.609 4.89,-0.614 4.9,-0.613 4.9,-0.609 4.89,-0.614 4.9,-0.613 4.9,-0.609 5.5,-0.613 h 4.9 l 4.9,-0.614 4.89,-0.609 h 4.9 l 4.89,-0.613 4.9,-0.614 h 4.9 l 5.5,-0.609 h 4.9 l 4.9,-0.613 4.89,-0.614 4.9,-0.609 h 4.89 l 4.9,-1.227 4.9,-0.613 5.51,-0.609 4.89,-1.836 4.89,-1.227 4.9,-1.836 4.9,-5.507 4.89,-1.836 4.9,-12.852 4.9,-29.375 h 5.5 4.9 4.9 4.89 4.9 0.61" /><path
         id="path316"
         style="fill:none;stroke:#000000;stroke-width:9.18000031;stroke-linecap:butt;stroke-linejoin:miter;stroke-miterlimit:10;stroke-dasharray:none;stroke-opacity:1"
         d="M 918,918 H 3683.63" /><path
         id="path318"
         style="fill:none;stroke:#000000;stroke-width:9.18000031;stroke-linecap:butt;stroke-linejoin:miter;stroke-miterlimit:10;stroke-dasharray:none;stroke-opacity:1"
         d="M 918,2865.38 H 3683.63" /><path
         id="path320"
         style="fill:none;stroke:#000000;stroke-width:9.18000031;stroke-linecap:butt;stroke-linejoin:miter;stroke-miterlimit:10;stroke-dasharray:none;stroke-opacity:1"
         d="m 1378.84,918 v 61.199" /><path
         id="path322"
         style="fill:none;stroke:#000000;stroke-width:9.18000031;stroke-linecap:butt;stroke-linejoin:miter;stroke-miterlimit:10;stroke-dasharray:none;stroke-opacity:1"
         d="m 1378.84,2865.38 v -61.2" /><path
         id="path324"
         style="fill:none;stroke:#000000;stroke-width:9.18000031;stroke-linecap:butt;stroke-linejoin:miter;stroke-miterlimit:10;stroke-dasharray:none;stroke-opacity:1"
         d="m 2300.51,918 v 61.199" /><path
         id="path326"
         style="fill:none;stroke:#000000;stroke-width:9.18000031;stroke-linecap:butt;stroke-linejoin:miter;stroke-miterlimit:10;stroke-dasharray:none;stroke-opacity:1"
         d="m 2300.51,2865.38 v -61.2" /><path
         id="path328"
         style="fill:none;stroke:#000000;stroke-width:9.18000031;stroke-linecap:butt;stroke-linejoin:miter;stroke-miterlimit:10;stroke-dasharray:none;stroke-opacity:1"
         d="m 3222.79,918 v 61.199" /><path
         id="path330"
         style="fill:none;stroke:#000000;stroke-width:9.18000031;stroke-linecap:butt;stroke-linejoin:miter;stroke-miterlimit:10;stroke-dasharray:none;stroke-opacity:1"
         d="m 3222.79,2865.38 v -61.2" /><path
         id="path332"
         style="fill:none;stroke:#000000;stroke-width:9.18000031;stroke-linecap:butt;stroke-linejoin:miter;stroke-miterlimit:10;stroke-dasharray:none;stroke-opacity:1"
         d="m 918,918 v 122.4" /><path
         id="path334"
         style="fill:none;stroke:#000000;stroke-width:9.18000031;stroke-linecap:butt;stroke-linejoin:miter;stroke-miterlimit:10;stroke-dasharray:none;stroke-opacity:1"
         d="m 918,2865.38 v -122.4" /><path
         id="path336"
         style="fill:none;stroke:#000000;stroke-width:9.18000031;stroke-linecap:butt;stroke-linejoin:miter;stroke-miterlimit:10;stroke-dasharray:none;stroke-opacity:1"
         d="m 1839.67,918 v 122.4" /><path
         id="path338"
         style="fill:none;stroke:#000000;stroke-width:9.18000031;stroke-linecap:butt;stroke-linejoin:miter;stroke-miterlimit:10;stroke-dasharray:none;stroke-opacity:1"
         d="m 1839.67,2865.38 v -122.4" /><path
         id="path340"
         style="fill:none;stroke:#000000;stroke-width:9.18000031;stroke-linecap:butt;stroke-linejoin:miter;stroke-miterlimit:10;stroke-dasharray:none;stroke-opacity:1"
         d="m 2761.34,918 v 122.4" /><path
         id="path342"
         style="fill:none;stroke:#000000;stroke-width:9.18000031;stroke-linecap:butt;stroke-linejoin:miter;stroke-miterlimit:10;stroke-dasharray:none;stroke-opacity:1"
         d="m 2761.34,2865.38 v -122.4" /><path
         id="path344"
         style="fill:none;stroke:#000000;stroke-width:9.18000031;stroke-linecap:butt;stroke-linejoin:miter;stroke-miterlimit:10;stroke-dasharray:none;stroke-opacity:1"
         d="m 3683.63,918 v 122.4" /><path
         id="path346"
         style="fill:none;stroke:#000000;stroke-width:9.18000031;stroke-linecap:butt;stroke-linejoin:miter;stroke-miterlimit:10;stroke-dasharray:none;stroke-opacity:1"
         d="m 3683.63,2865.38 v -122.4" /><g
         transform="scale(10)"
         id="g348"><text
           id="text354"
           style="font-variant:normal;font-weight:normal;font-size:17.13599968px;font-family:'Times New Roman';-inkscape-font-specification:Times-Roman;writing-mode:lr-tb;fill:#000000;fill-opacity:1;fill-rule:nonzero;stroke:none"
           transform="matrix(1,0,0,-1,87.6996,74.1742)"><tspan
             id="tspan350"
             y="0"
             x="0 87.883179 96.451172 180.05035 188.61835 272.21753 280.78552">0102030</tspan><tspan
             id="tspan352"
             y="17.8703"
             x="89.107002">E</tspan></text>
<text
           id="text358"
           style="font-variant:normal;font-weight:normal;font-size:8.56799984px;font-family:'Times New Roman';-inkscape-font-specification:Times-Roman;writing-mode:lr-tb;fill:#000000;fill-opacity:1;fill-rule:nonzero;stroke:none"
           transform="matrix(1,0,0,-1,187.3332,56.671088)"><tspan
             id="tspan356"
             y="0"
             x="0 4.2839999">10</tspan></text>
<text
           id="text362"
           style="font-variant:normal;font-weight:normal;font-size:12.11760044px;font-family:'Times New Roman';-inkscape-font-specification:Times-Roman;writing-mode:lr-tb;fill:#000000;fill-opacity:1;fill-rule:nonzero;stroke:none"
           transform="matrix(1,0,0,-1,195.9625,49.449608)"><tspan
             id="tspan360"
             y="0"
             x="0 8.0824394 13.462653 16.492054 21.872269 24.901669 34.329163">Be c.m.</tspan></text>
<text
           id="text366"
           style="font-variant:normal;font-weight:normal;font-size:17.13599968px;font-family:'Times New Roman';-inkscape-font-specification:Times-Roman;writing-mode:lr-tb;fill:#000000;fill-opacity:1;fill-rule:nonzero;stroke:none"
           transform="matrix(1,0,0,-1,237.7008,56.303908)"><tspan
             id="tspan364"
             y="0"
             x="0 5.7062879 20.940191 28.548576 40.920769">(MeV)</tspan></text>
</g><path
         id="path368"
         style="fill:none;stroke:#000000;stroke-width:9.18000031;stroke-linecap:butt;stroke-linejoin:miter;stroke-miterlimit:10;stroke-dasharray:none;stroke-opacity:1"
         d="M 918,918 V 2865.38" /><path
         id="path370"
         style="fill:none;stroke:#000000;stroke-width:9.18000031;stroke-linecap:butt;stroke-linejoin:miter;stroke-miterlimit:10;stroke-dasharray:none;stroke-opacity:1"
         d="M 3683.63,918 V 2865.38" /><path
         id="path372"
         style="fill:none;stroke:#000000;stroke-width:9.18000031;stroke-linecap:butt;stroke-linejoin:miter;stroke-miterlimit:10;stroke-dasharray:none;stroke-opacity:1"
         d="m 918,1161.57 h 61.199" /><path
         id="path374"
         style="fill:none;stroke:#000000;stroke-width:9.18000031;stroke-linecap:butt;stroke-linejoin:miter;stroke-miterlimit:10;stroke-dasharray:none;stroke-opacity:1"
         d="m 3683.63,1161.57 h -61.2" /><path
         id="path376"
         style="fill:none;stroke:#000000;stroke-width:9.18000031;stroke-linecap:butt;stroke-linejoin:miter;stroke-miterlimit:10;stroke-dasharray:none;stroke-opacity:1"
         d="m 918,1648.12 h 61.199" /><path
         id="path378"
         style="fill:none;stroke:#000000;stroke-width:9.18000031;stroke-linecap:butt;stroke-linejoin:miter;stroke-miterlimit:10;stroke-dasharray:none;stroke-opacity:1"
         d="m 3683.63,1648.12 h -61.2" /><path
         id="path380"
         style="fill:none;stroke:#000000;stroke-width:9.18000031;stroke-linecap:butt;stroke-linejoin:miter;stroke-miterlimit:10;stroke-dasharray:none;stroke-opacity:1"
         d="m 918,2135.27 h 61.199" /><path
         id="path382"
         style="fill:none;stroke:#000000;stroke-width:9.18000031;stroke-linecap:butt;stroke-linejoin:miter;stroke-miterlimit:10;stroke-dasharray:none;stroke-opacity:1"
         d="m 3683.63,2135.27 h -61.2" /><path
         id="path384"
         style="fill:none;stroke:#000000;stroke-width:9.18000031;stroke-linecap:butt;stroke-linejoin:miter;stroke-miterlimit:10;stroke-dasharray:none;stroke-opacity:1"
         d="m 918,2621.81 h 61.199" /><path
         id="path386"
         style="fill:none;stroke:#000000;stroke-width:9.18000031;stroke-linecap:butt;stroke-linejoin:miter;stroke-miterlimit:10;stroke-dasharray:none;stroke-opacity:1"
         d="m 3683.63,2621.81 h -61.2" /><path
         id="path388"
         style="fill:none;stroke:#000000;stroke-width:9.18000031;stroke-linecap:butt;stroke-linejoin:miter;stroke-miterlimit:10;stroke-dasharray:none;stroke-opacity:1"
         d="m 918,918 h 122.4" /><path
         id="path390"
         style="fill:none;stroke:#000000;stroke-width:9.18000031;stroke-linecap:butt;stroke-linejoin:miter;stroke-miterlimit:10;stroke-dasharray:none;stroke-opacity:1"
         d="m 3683.63,918 h -122.4" /><path
         id="path392"
         style="fill:none;stroke:#000000;stroke-width:9.18000031;stroke-linecap:butt;stroke-linejoin:miter;stroke-miterlimit:10;stroke-dasharray:none;stroke-opacity:1"
         d="m 918,1404.54 h 122.4" /><path
         id="path394"
         style="fill:none;stroke:#000000;stroke-width:9.18000031;stroke-linecap:butt;stroke-linejoin:miter;stroke-miterlimit:10;stroke-dasharray:none;stroke-opacity:1"
         d="m 3683.63,1404.54 h -122.4" /><path
         id="path396"
         style="fill:none;stroke:#000000;stroke-width:9.18000031;stroke-linecap:butt;stroke-linejoin:miter;stroke-miterlimit:10;stroke-dasharray:none;stroke-opacity:1"
         d="m 918,1891.69 h 122.4" /><path
         id="path398"
         style="fill:none;stroke:#000000;stroke-width:9.18000031;stroke-linecap:butt;stroke-linejoin:miter;stroke-miterlimit:10;stroke-dasharray:none;stroke-opacity:1"
         d="m 3683.63,1891.69 h -122.4" /><path
         id="path400"
         style="fill:none;stroke:#000000;stroke-width:9.18000031;stroke-linecap:butt;stroke-linejoin:miter;stroke-miterlimit:10;stroke-dasharray:none;stroke-opacity:1"
         d="m 918,2378.23 h 122.4" /><path
         id="path402"
         style="fill:none;stroke:#000000;stroke-width:9.18000031;stroke-linecap:butt;stroke-linejoin:miter;stroke-miterlimit:10;stroke-dasharray:none;stroke-opacity:1"
         d="m 3683.63,2378.23 h -122.4" /><path
         id="path404"
         style="fill:none;stroke:#000000;stroke-width:9.18000031;stroke-linecap:butt;stroke-linejoin:miter;stroke-miterlimit:10;stroke-dasharray:none;stroke-opacity:1"
         d="m 918,2865.38 h 122.4" /><path
         id="path406"
         style="fill:none;stroke:#000000;stroke-width:9.18000031;stroke-linecap:butt;stroke-linejoin:miter;stroke-miterlimit:10;stroke-dasharray:none;stroke-opacity:1"
         d="m 3683.63,2865.38 h -122.4" /><g
         transform="scale(10)"
         id="g408"><text
           id="text420"
           style="font-variant:normal;font-weight:normal;font-size:17.13599968px;font-family:'Times New Roman';-inkscape-font-specification:Times-Roman;writing-mode:lr-tb;fill:#000000;fill-opacity:1;fill-rule:nonzero;stroke:none"
           transform="matrix(1,0,0,-1,77.5402,86.1695)"><tspan
             id="tspan410"
             y="0"
             x="0">0</tspan><tspan
             id="tspan412"
             y="-49.633202"
             x="-12.2398 -3.6717999 0.61220002">0,5</tspan><tspan
             id="tspan414"
             y="-97.246902"
             x="1.4079">1</tspan><tspan
             id="tspan416"
             y="-147.0024"
             x="-12.2398 -3.6717999 0.61220002">1,5</tspan><tspan
             id="tspan418"
             y="-194.6161"
             x="0">2</tspan></text>
<text
           id="text424"
           style="font-variant:normal;font-weight:normal;font-size:17.13599968px;font-family:'Times New Roman';-inkscape-font-specification:Times-Roman;writing-mode:lr-tb;fill:#000000;fill-opacity:1;fill-rule:nonzero;stroke:none"
           transform="matrix(0,1,1,0,52.0813,106.488)"><tspan
             id="tspan422"
             y="0"
             x="0">d</tspan></text>
<text
           id="text428"
           style="font-variant:normal;font-weight:normal;font-size:17.13599968px;font-family:Symbol;-inkscape-font-specification:Symbol;writing-mode:lr-tb;fill:#000000;fill-opacity:1;fill-rule:nonzero;stroke:none"
           transform="matrix(0,1,1,0,52.0813,115.1173)"><tspan
             id="tspan426"
             y="0"
             x="0">σ</tspan></text>
<text
           id="text432"
           style="font-variant:normal;font-weight:normal;font-size:17.13599968px;font-family:'Times New Roman';-inkscape-font-specification:Times-Roman;writing-mode:lr-tb;fill:#000000;fill-opacity:1;fill-rule:nonzero;stroke:none"
           transform="matrix(0,1,1,0,52.0813,125.4603)"><tspan
             id="tspan430"
             y="0"
             x="0 4.7638078 13.331808">/dE</tspan></text>
<text
           id="text436"
           style="font-variant:normal;font-weight:normal;font-size:8.56799984px;font-family:'Times New Roman';-inkscape-font-specification:Times-Roman;writing-mode:lr-tb;fill:#000000;fill-opacity:1;fill-rule:nonzero;stroke:none"
           transform="matrix(0,1,1,0,51.652784,149.2056)"><tspan
             id="tspan434"
             y="0"
             x="0 4.2839999">10</tspan></text>
<text
           id="text440"
           style="font-variant:normal;font-weight:normal;font-size:12.11760044px;font-family:'Times New Roman';-inkscape-font-specification:Times-Roman;writing-mode:lr-tb;fill:#000000;fill-opacity:1;fill-rule:nonzero;stroke:none"
           transform="matrix(0,1,1,0,58.935594,157.8349)"><tspan
             id="tspan438"
             y="0"
             x="0 8.0824394 13.462653 16.492054 21.872269 24.901669 34.329163">Be c.m.</tspan></text>
<text
           id="text444"
           style="font-variant:normal;font-weight:normal;font-size:17.13599968px;font-family:'Times New Roman';-inkscape-font-specification:Times-Roman;writing-mode:lr-tb;fill:#000000;fill-opacity:1;fill-rule:nonzero;stroke:none"
           transform="matrix(0,1,1,0,52.081294,199.5732)"><tspan
             id="tspan442"
             y="0"
             x="0 5.7062879 19.038095 27.606096 32.369904 47.603809 55.212193 67.584381">(mb/MeV)</tspan></text>
</g><path
         id="path446"
         style="fill:none;stroke:#000000;stroke-width:9.18000031;stroke-linecap:butt;stroke-linejoin:miter;stroke-miterlimit:10;stroke-dasharray:none;stroke-opacity:1"
         d="M 918,918 V 2865.38 H 3683.63 V 918 Z" /><path
         id="path448"
         style="fill:none;stroke:#0000ff;stroke-width:18.36000061;stroke-linecap:butt;stroke-linejoin:miter;stroke-miterlimit:10;stroke-dasharray:none;stroke-opacity:1"
         d="m 4236.27,2524.5 92.41,18.36 92.41,46.51 91.8,53.86 92.41,34.88 92.41,-4.28 91.8,-52.63 92.42,-99.15 91.79,-136.47 92.42,-160.35 92.41,-170.75 91.8,-170.13 92.41,-159.73 92.41,-143.82 91.8,-126.08 92.41,-107.09 91.8,-88.75 92.42,-72.83 92.41,-57.52 91.8,-45.29 92.41,-35.5 92.41,-27.54 91.8,-20.805 92.41,-15.911 91.8,-12.242 92.41,-9.789 92.42,-7.344 91.8,-5.507 92.41,-4.899 92.41,-4.281 91.8,-3.063 h 0.61" /><path
         id="path450"
         style="fill:none;stroke:#ff0000;stroke-width:18.36000061;stroke-linecap:butt;stroke-linejoin:miter;stroke-miterlimit:10;stroke-dasharray:none;stroke-opacity:1"
         d="m 4236.27,2580.19 46.51,4.9 45.9,14.07 45.9,22.04 46.51,27.53 45.9,29.38 45.9,28.77 46.51,23.87 45.9,15.91 45.9,5.5 46.51,-6.12 45.9,-19.58 45.9,-33.66 46.51,-45.9 45.91,-58.14 45.89,-68.55 45.9,-77.1 46.51,-83.85 45.91,-88.13 45.9,-90.58 46.51,-91.18 45.9,-90.58 45.9,-89.35 46.51,-85.68 45.9,-82.62 45.9,-78.34 46.51,-73.44 45.9,-68.54 45.9,-63.65 46.51,-58.75 45.9,-53.86 45.91,-48.95 45.89,-44.68 46.52,-39.78 45.9,-35.5 45.9,-32.44 46.51,-28.15 45.9,-25.09 45.9,-22.03 46.51,-18.97 45.9,-17.14 45.9,-14.69 46.51,-12.85 45.9,-11.626 45.9,-9.793 46.52,-7.953 45.89,-7.348 45.91,-6.73 45.89,-5.508 46.52,-4.894 45.89,-3.672 45.91,-3.672 46.51,-3.063 45.9,-3.058 45.9,-1.836 46.51,-2.449 45.9,-1.836 45.9,-1.223 46.51,-1.227 45.9,-1.222 45.9,-1.223 h 0.61" /><path
         id="path452"
         style="fill:none;stroke:#000000;stroke-width:18.36000061;stroke-linecap:butt;stroke-linejoin:miter;stroke-miterlimit:10;stroke-dasharray:none;stroke-opacity:1"
         d="m 4236.27,2632.82 46.51,4.9 45.9,14.08 45.9,20.81 46.51,26.31 45.9,28.76 45.9,26.93 46.51,22.03 45.9,14.69 45.9,3.67 46.51,-7.34 45.9,-21.42 45.9,-34.27 46.51,-47.13 45.91,-58.75 45.89,-69.15 45.9,-77.12 46.51,-83.84 45.91,-88.13 45.9,-90.57 46.51,-91.19 45.9,-90.58 45.9,-89.35 46.51,-85.68 45.9,-82.62 45.9,-78.34 46.51,-74.05 45.9,-69.15 45.9,-64.27 46.51,-59.36 45.9,-54.47 45.91,-50.18 45.89,-45.29 46.52,-41 45.9,-36.72 45.9,-33.05 46.51,-29.99 45.9,-26.31 45.9,-23.26 46.51,-20.81 45.9,-18.36 45.9,-15.91 46.51,-14.07 45.9,-12.86 45.9,-11.015 46.52,-9.79 45.89,-8.57 45.91,-7.344 45.89,-6.73 46.52,-5.508 45.89,-5.508 45.91,-4.285 46.51,-3.672 45.9,-3.672 45.9,-3.058 46.51,-2.449 45.9,-2.45 45.9,-2.449 46.51,-1.836 45.9,-1.836 45.9,-1.222 h 0.61" /><path
         id="path454"
         style="fill:none;stroke:#000000;stroke-width:9.18000031;stroke-linecap:butt;stroke-linejoin:miter;stroke-miterlimit:10;stroke-dasharray:none;stroke-opacity:1"
         d="M 4236.27,918 H 7001.89" /><path
         id="path456"
         style="fill:none;stroke:#000000;stroke-width:9.18000031;stroke-linecap:butt;stroke-linejoin:miter;stroke-miterlimit:10;stroke-dasharray:none;stroke-opacity:1"
         d="M 4236.27,2865.38 H 7001.89" /><path
         id="path458"
         style="fill:none;stroke:#000000;stroke-width:9.18000031;stroke-linecap:butt;stroke-linejoin:miter;stroke-miterlimit:10;stroke-dasharray:none;stroke-opacity:1"
         d="m 4697.71,918 v 61.199" /><path
         id="path460"
         style="fill:none;stroke:#000000;stroke-width:9.18000031;stroke-linecap:butt;stroke-linejoin:miter;stroke-miterlimit:10;stroke-dasharray:none;stroke-opacity:1"
         d="m 4697.71,2865.38 v -61.2" /><path
         id="path462"
         style="fill:none;stroke:#000000;stroke-width:9.18000031;stroke-linecap:butt;stroke-linejoin:miter;stroke-miterlimit:10;stroke-dasharray:none;stroke-opacity:1"
         d="m 5619.38,918 v 61.199" /><path
         id="path464"
         style="fill:none;stroke:#000000;stroke-width:9.18000031;stroke-linecap:butt;stroke-linejoin:miter;stroke-miterlimit:10;stroke-dasharray:none;stroke-opacity:1"
         d="m 5619.38,2865.38 v -61.2" /><path
         id="path466"
         style="fill:none;stroke:#000000;stroke-width:9.18000031;stroke-linecap:butt;stroke-linejoin:miter;stroke-miterlimit:10;stroke-dasharray:none;stroke-opacity:1"
         d="m 4236.27,918 v 122.4" /><path
         id="path468"
         style="fill:none;stroke:#000000;stroke-width:9.18000031;stroke-linecap:butt;stroke-linejoin:miter;stroke-miterlimit:10;stroke-dasharray:none;stroke-opacity:1"
         d="m 4236.27,2865.38 v -122.4" /><path
         id="path470"
         style="fill:none;stroke:#000000;stroke-width:9.18000031;stroke-linecap:butt;stroke-linejoin:miter;stroke-miterlimit:10;stroke-dasharray:none;stroke-opacity:1"
         d="m 5158.55,918 v 122.4" /><path
         id="path472"
         style="fill:none;stroke:#000000;stroke-width:9.18000031;stroke-linecap:butt;stroke-linejoin:miter;stroke-miterlimit:10;stroke-dasharray:none;stroke-opacity:1"
         d="m 5158.55,2865.38 v -122.4" /><g
         transform="scale(10)"
         id="g474"><text
           id="text478"
           style="font-variant:normal;font-weight:normal;font-size:17.13599968px;font-family:'Times New Roman';-inkscape-font-specification:Times-Roman;writing-mode:lr-tb;fill:#000000;fill-opacity:1;fill-rule:nonzero;stroke:none"
           transform="matrix(1,0,0,-1,419.587,74.1742)"><tspan
             id="tspan476"
             y="0"
             x="0 87.822174 96.390175">010</tspan></text>
<text
           id="text482"
           style="font-variant:normal;font-weight:normal;font-size:17.13599968px;font-family:Symbol;-inkscape-font-specification:Symbol;writing-mode:lr-tb;fill:#000000;fill-opacity:1;fill-rule:nonzero;stroke:none"
           transform="matrix(1,0,0,-1,537.703,56.0594)"><tspan
             id="tspan480"
             y="0"
             x="0">θ</tspan></text>
<text
           id="text486"
           style="font-variant:normal;font-weight:normal;font-size:17.13599968px;font-family:'Times New Roman';-inkscape-font-specification:Times-Roman;writing-mode:lr-tb;fill:#000000;fill-opacity:1;fill-rule:nonzero;stroke:none"
           transform="matrix(1,0,0,-1,550.86122,56.0594)"><tspan
             id="tspan484"
             y="0"
             x="0 5.7062879 14.274288 21.882671 30.450672">(deg)</tspan></text>
</g><path
         id="path488"
         style="fill:none;stroke:#000000;stroke-width:9.18000031;stroke-linecap:butt;stroke-linejoin:miter;stroke-miterlimit:10;stroke-dasharray:none;stroke-opacity:1"
         d="M 4236.27,918 V 2865.38" /><path
         id="path490"
         style="fill:none;stroke:#000000;stroke-width:9.18000031;stroke-linecap:butt;stroke-linejoin:miter;stroke-miterlimit:10;stroke-dasharray:none;stroke-opacity:1"
         d="m 4236.27,1067.94 h 61.19" /><path
         id="path492"
         style="fill:none;stroke:#000000;stroke-width:9.18000031;stroke-linecap:butt;stroke-linejoin:miter;stroke-miterlimit:10;stroke-dasharray:none;stroke-opacity:1"
         d="m 4236.27,1367.21 h 61.19" /><path
         id="path494"
         style="fill:none;stroke:#000000;stroke-width:9.18000031;stroke-linecap:butt;stroke-linejoin:miter;stroke-miterlimit:10;stroke-dasharray:none;stroke-opacity:1"
         d="m 4236.27,1667.09 h 61.19" /><path
         id="path496"
         style="fill:none;stroke:#000000;stroke-width:9.18000031;stroke-linecap:butt;stroke-linejoin:miter;stroke-miterlimit:10;stroke-dasharray:none;stroke-opacity:1"
         d="m 4236.27,1966.36 h 61.19" /><path
         id="path498"
         style="fill:none;stroke:#000000;stroke-width:9.18000031;stroke-linecap:butt;stroke-linejoin:miter;stroke-miterlimit:10;stroke-dasharray:none;stroke-opacity:1"
         d="m 4236.27,2266.23 h 61.19" /><path
         id="path500"
         style="fill:none;stroke:#000000;stroke-width:9.18000031;stroke-linecap:butt;stroke-linejoin:miter;stroke-miterlimit:10;stroke-dasharray:none;stroke-opacity:1"
         d="m 4236.27,2565.5 h 61.19" /><path
         id="path502"
         style="fill:none;stroke:#000000;stroke-width:9.18000031;stroke-linecap:butt;stroke-linejoin:miter;stroke-miterlimit:10;stroke-dasharray:none;stroke-opacity:1"
         d="m 4236.27,2865.38 h 61.19" /><path
         id="path504"
         style="fill:none;stroke:#000000;stroke-width:9.18000031;stroke-linecap:butt;stroke-linejoin:miter;stroke-miterlimit:10;stroke-dasharray:none;stroke-opacity:1"
         d="m 4236.27,918 h 122.39" /><path
         id="path506"
         style="fill:none;stroke:#000000;stroke-width:9.18000031;stroke-linecap:butt;stroke-linejoin:miter;stroke-miterlimit:10;stroke-dasharray:none;stroke-opacity:1"
         d="m 4236.27,1217.88 h 122.39" /><path
         id="path508"
         style="fill:none;stroke:#000000;stroke-width:9.18000031;stroke-linecap:butt;stroke-linejoin:miter;stroke-miterlimit:10;stroke-dasharray:none;stroke-opacity:1"
         d="m 4236.27,1517.15 h 122.39" /><path
         id="path510"
         style="fill:none;stroke:#000000;stroke-width:9.18000031;stroke-linecap:butt;stroke-linejoin:miter;stroke-miterlimit:10;stroke-dasharray:none;stroke-opacity:1"
         d="m 4236.27,1817.03 h 122.39" /><path
         id="path512"
         style="fill:none;stroke:#000000;stroke-width:9.18000031;stroke-linecap:butt;stroke-linejoin:miter;stroke-miterlimit:10;stroke-dasharray:none;stroke-opacity:1"
         d="m 4236.27,2116.3 h 122.39" /><path
         id="path514"
         style="fill:none;stroke:#000000;stroke-width:9.18000031;stroke-linecap:butt;stroke-linejoin:miter;stroke-miterlimit:10;stroke-dasharray:none;stroke-opacity:1"
         d="m 4236.27,2416.18 h 122.39" /><path
         id="path516"
         style="fill:none;stroke:#000000;stroke-width:9.18000031;stroke-linecap:butt;stroke-linejoin:miter;stroke-miterlimit:10;stroke-dasharray:none;stroke-opacity:1"
         d="m 4236.27,2715.45 h 122.39" /><path
         id="path518"
         style="fill:none;stroke:#000000;stroke-width:9.18000031;stroke-linecap:butt;stroke-linejoin:miter;stroke-miterlimit:10;stroke-dasharray:none;stroke-opacity:1"
         d="M 4236.27,918 V 2865.38 H 7001.89 V 918 Z" /></g></g></svg>