<?xml version="1.0" encoding="UTF-8" standalone="no"?>
<svg
   xmlns:dc="http://purl.org/dc/elements/1.1/"
   xmlns:cc="http://creativecommons.org/ns#"
   xmlns:rdf="http://www.w3.org/1999/02/22-rdf-syntax-ns#"
   xmlns:svg="http://www.w3.org/2000/svg"
   xmlns="http://www.w3.org/2000/svg"
   viewBox="0 0 793.33331 1122.6667"
   height="1122.6667"
   width="793.33331"
   xml:space="preserve"
   id="svg2"
   version="1.1"><metadata
     id="metadata8"><rdf:RDF><cc:Work
         rdf:about=""><dc:format>image/svg+xml</dc:format><dc:type
           rdf:resource="http://purl.org/dc/dcmitype/StillImage" /></cc:Work></rdf:RDF></metadata><defs
     id="defs6" /><g
     transform="matrix(1.3333333,0,0,-1.3333333,0,1122.6667)"
     id="g10"><g
       transform="scale(0.1)"
       id="g12"><path
         id="path14"
         style="fill:#ffffff;fill-opacity:1;fill-rule:nonzero;stroke:none"
         d="M 0,0 H 7919.89 V 6120 H 0 Z" /><path
         id="path16"
         style="fill:none;stroke:#000000;stroke-width:18.36000061;stroke-linecap:butt;stroke-linejoin:miter;stroke-miterlimit:10;stroke-dasharray:none;stroke-opacity:1"
         d="m 917.387,3255.84 h 55.691 l 4.899,0.61 h 59.973 l 4.28,0.61 h 4.9 4.29 4.89 4.29 4.89 4.9 4.28 4.9 4.28 l 4.9,0.62 h 4.28 4.9 4.28 4.9 4.28 4.9 4.28 l 4.9,0.61 h 4.28 4.9 4.28 4.9 4.89 4.29 l 4.89,0.61 h 4.29 4.9 4.28 4.9 4.28 l 4.9,0.61 h 4.28 4.9 4.28 4.89 l 4.29,0.62 h 4.89 4.9 4.28 l 4.9,0.6 h 4.28 4.9 4.28 l 4.9,0.62 h 4.28 4.9 l 4.28,0.61 h 4.9 4.28 4.9 l 4.28,0.61 h 4.9 4.29 l 4.89,0.61 h 4.89 l 4.29,0.62 h 4.89 4.29 l 4.89,0.61 h 4.29 l 4.9,0.61 h 4.28 l 4.9,0.61 h 4.28 l 4.9,0.61 h 4.28 l 4.9,0.62 h 4.28 l 4.9,0.61 h 4.89 l 4.29,0.61 h 4.89 l 4.29,0.61 4.89,0.61 h 4.29 l 4.89,0.62 4.29,0.61 h 4.89 l 4.29,0.61 4.89,0.61 4.28,0.61 4.9,0.62 h 4.28 l 4.9,0.61 4.29,0.61 4.89,0.61 4.9,0.62 4.28,0.61 4.9,0.61 4.28,0.61 4.9,0.61 4.28,0.61 4.9,0.62 4.28,0.61 4.9,1.22 4.28,0.61 4.9,0.62 4.28,0.61 4.9,1.22 4.28,0.62 4.9,0.6 4.89,1.23 4.29,0.61 4.89,1.23 4.29,1.22 4.89,0.61 4.29,1.23 4.89,1.22 4.29,1.23 4.9,1.22 4.28,1.22 4.9,1.23 4.28,1.22 4.9,1.22 4.28,1.23 4.9,1.83 4.28,1.23 4.89,1.83 4.9,1.23 4.28,1.84 4.9,1.22 4.28,1.83 4.9,1.84 4.28,1.84 4.9,1.83 4.28,1.84 4.9,2.45 4.28,1.83 4.9,2.45 4.28,1.83 4.9,2.45 4.28,2.45 4.9,2.45 4.9,2.45 4.28,2.45 4.9,2.44 4.28,2.45 4.89,3.06 4.29,2.45 4.89,3.06 4.29,3.06 4.89,3.06 4.29,3.06 4.9,3.06 4.28,3.67 4.9,3.06 4.28,3.67 4.9,3.67 4.28,3.68 4.9,3.67 4.89,4.28 4.29,3.68 4.89,4.28 4.29,4.29 4.89,4.28 4.29,4.9 4.89,4.28 4.29,4.89 4.89,4.9 4.29,4.9 4.89,5.51 4.29,4.89 4.89,5.51 4.28,5.51 4.9,6.12 4.9,6.12 4.28,6.12 4.9,6.12 4.28,6.73 4.9,6.73 4.28,6.73 4.9,7.35 4.28,7.34 4.9,7.34 4.28,7.35 4.9,7.95 4.28,7.96 4.9,8.57 4.28,8.57 4.9,8.56 4.28,9.18 4.9,8.57 4.89,9.79 4.29,9.18 4.89,9.8 4.29,9.79 4.89,10.4 4.29,10.41 4.89,10.4 4.29,11.01 4.89,11.02 4.29,11.02 4.9,11.63 4.28,11.62 4.9,11.63 4.28,12.24 4.9,12.24 4.89,12.85 4.29,12.24 4.89,13.47 4.28,12.85 4.9,14.08 4.28,13.46 4.9,14.08 4.28,14.68 4.9,14.08 4.28,15.3 4.9,15.3 4.28,15.3 4.9,15.91 4.28,16.52 4.9,16.53 4.28,17.13 4.9,17.14 4.9,17.75 4.28,17.75 4.9,18.36 4.28,18.97 4.9,18.97 4.28,19.59 4.89,19.58 4.29,20.2 4.89,20.8 4.29,20.81 4.89,20.81 4.29,21.42 4.9,22.03 4.28,22.04 4.9,22.03 4.89,22.03 4.29,22.03 4.89,22.03 4.29,22.04 4.89,22.03 4.29,22.03 4.89,22.03 4.29,21.42 4.89,20.81 4.29,20.8 4.89,20.2 4.29,19.59 4.89,18.97 4.29,18.36 4.89,17.13 4.29,17.14 4.89,15.91 4.9,14.69 4.28,14.08 4.9,12.85 4.28,12.24 4.9,11.01 4.28,9.8 4.9,9.18 4.28,7.95 4.9,7.35 4.28,6.73 4.9,4.89 4.28,4.9 4.9,4.28 4.28,3.06 4.9,2.45 4.89,1.84 4.29,1.83 4.89,1.23 4.29,0.61 4.89,0.61 h 4.29 4.89 l 4.29,0.61 h 4.89 4.29 4.89 4.29 4.89 4.29 4.9 4.28 4.9 l 4.89,-0.61 h 4.29 l 4.89,-0.61 4.29,-0.61 4.89,-1.23 4.28,-1.83 4.9,-1.84 4.28,-2.45 4.9,-3.06 4.28,-4.28 4.9,-4.28 4.28,-5.51 4.9,-6.73 4.28,-7.35 4.9,-7.95 4.9,-8.57 4.28,-10.41 4.9,-11.01 4.28,-12.24 4.9,-12.85 4.28,-14.08 4.9,-14.69 4.28,-15.91 4.9,-17.14 4.28,-17.13 4.89,-18.36 4.29,-18.97 4.89,-19.59 4.29,-20.2 4.89,-20.8 4.29,-21.42 4.9,-20.81 4.89,-22.03 4.29,-21.42 4.89,-22.03 4.29,-22.65 4.89,-22.03 4.29,-22.03 4.89,-22.03 4.29,-22.03 4.89,-22.04 4.29,-22.03 4.89,-21.42 4.29,-20.81 4.89,-20.81 4.29,-20.8 4.89,-19.59 4.9,-20.19 4.28,-19.59 4.9,-18.97 4.28,-18.97 4.9,-18.36 4.28,-17.75 4.9,-17.75 4.28,-17.14 4.9,-17.13 4.28,-16.53 4.9,-16.52 4.28,-15.91 4.9,-15.3 4.28,-15.3 4.9,-14.69 4.28,-14.69 4.9,-14.68 4.89,-14.08 4.29,-13.46 4.89,-14.08 4.29,-12.85 4.89,-13.47 4.29,-12.85 4.89,-12.24 4.29,-12.24 4.89,-12.24 4.29,-11.63 4.89,-11.62 4.29,-11.63 4.89,-11.02 4.29,-11.02 4.89,-11.01 4.9,-10.4 4.29,-10.41 4.89,-10.4 4.29,-9.79 4.89,-9.8 4.29,-9.18 4.89,-9.79 4.29,-8.57 4.89,-9.18 4.28,-8.56 4.9,-8.57 4.28,-8.57 4.9,-7.96 4.28,-7.95 4.9,-7.35 4.28,-7.34 4.9,-7.34 4.9,-7.35 4.28,-6.73 4.9,-6.73 4.28,-6.73 4.9,-6.12 4.28,-6.12 4.9,-6.12 4.28,-6.12 4.9,-5.51 4.28,-5.51 4.9,-4.89 4.28,-5.51 4.89,-4.9 4.29,-4.9 4.89,-4.89 4.9,-4.28 4.28,-4.9 4.9,-4.28 4.29,-4.29 4.89,-4.28 4.29,-3.68 4.89,-4.28 4.29,-3.67 4.89,-3.68 4.29,-3.67 4.89,-3.67 4.29,-3.06 4.89,-3.67 4.29,-3.06 4.89,-3.06 4.29,-3.06 4.89,-3.06 4.9,-3.06 4.28,-2.45 4.9,-3.06 4.28,-2.45 4.9,-2.44 4.28,-2.45 4.9,-2.45 4.28,-2.45 4.9,-2.45 4.28,-2.45 4.9,-1.83 4.28,-2.45 4.9,-1.83 4.28,-2.45 4.9,-1.84 4.9,-1.83 4.28,-1.84 4.89,-1.84 4.29,-1.83 4.89,-1.22 4.29,-1.84 4.89,-1.23 4.29,-1.83 4.89,-1.23 4.29,-1.83 4.89,-1.23 4.29,-1.22 4.89,-1.22 4.29,-1.23 4.89,-1.22 4.29,-1.22 4.89,-1.23 4.9,-1.22 4.28,-1.23 4.9,-0.61 4.29,-1.22 4.89,-1.23 4.29,-0.61 4.89,-1.23 4.29,-0.6 4.89,-0.62 4.29,-1.22 4.89,-0.61 4.28,-0.62 4.9,-0.61 4.28,-1.22 4.9,-0.61 4.9,-0.62 4.28,-0.61 4.9,-0.61 4.28,-0.61 4.9,-0.61 4.28,-0.61 4.9,-0.62 4.28,-0.61 4.9,-0.61 4.28,-0.61 h 4.9 l 4.28,-0.62 4.9,-0.61 4.28,-0.61 4.9,-0.61 h 4.28 l 4.89,-0.61 4.9,-0.62 h 4.28 l 4.9,-0.61 4.28,-0.61 h 4.9 l 4.29,-0.61 h 4.89 l 4.29,-0.61 h 4.89 l 4.29,-0.62 h 4.89 l 4.29,-0.61 h 4.89 l 4.29,-0.61 h 4.89 l 4.9,-0.61 h 4.28 l 4.9,-0.61 h 4.28 4.9 l 4.28,-0.62 h 4.9 l 4.28,-0.61 h 4.9 4.28 l 4.9,-0.61 h 4.28 4.9 4.28 l 4.9,-0.61 h 4.28 4.9 l 4.9,-0.62 h 4.28 4.9 4.28 l 4.89,-0.6 h 4.29 4.89 4.29 l 4.89,-0.62 h 4.29 4.89 4.29 4.89 l 4.29,-0.61 h 4.89 4.9 4.28 4.9 4.28 l 4.9,-0.61 h 4.28 4.9 4.29 4.89 4.29 4.89 l 4.29,-0.61 h 4.89 4.29 4.89 4.28 4.9 4.9 4.28 l 4.9,-0.62 h 4.28 4.9 4.28 4.9 4.28 4.9 4.28 4.9 4.28 l 4.9,-0.61 h 4.28 4.9 4.89 4.29 4.89 4.28 4.9 4.28 4.9 4.28 4.9 4.29 4.89 l 4.29,-0.61 h 4.89 4.29 4.89 4.29 4.89 4.9 4.28 4.9 4.28 4.9 4.28 4.9 0.61" /><path
         id="path18"
         style="fill:none;stroke:#ff0000;stroke-width:18.36000061;stroke-linecap:butt;stroke-linejoin:miter;stroke-miterlimit:10;stroke-dasharray:none;stroke-opacity:1"
         d="m 917.387,3255.84 h 51.41 l 4.281,0.61 h 64.872 l 4.28,0.61 h 4.9 4.29 4.89 4.29 4.89 4.9 4.28 4.9 4.28 l 4.9,0.62 h 4.28 4.9 4.28 4.9 4.28 4.9 4.28 l 4.9,0.61 h 4.28 4.9 4.28 4.9 4.89 4.29 l 4.89,0.61 h 4.29 4.9 4.28 4.9 l 4.28,0.61 h 4.9 4.28 4.9 4.28 l 4.89,0.62 h 4.29 4.89 4.9 l 4.28,0.6 h 4.9 4.28 4.9 l 4.28,0.62 h 4.9 4.28 4.9 l 4.28,0.61 h 4.9 4.28 l 4.9,0.61 h 4.28 4.9 l 4.29,0.61 h 4.89 l 4.89,0.62 h 4.29 4.89 l 4.29,0.61 h 4.89 l 4.29,0.61 h 4.9 l 4.28,0.61 h 4.9 l 4.28,0.61 h 4.9 l 4.28,0.62 h 4.9 l 4.28,0.61 h 4.9 l 4.89,0.61 h 4.29 l 4.89,0.61 4.29,0.61 h 4.89 l 4.29,0.62 4.89,0.61 h 4.29 l 4.89,0.61 4.29,0.61 4.89,0.61 4.28,0.62 h 4.9 l 4.28,0.61 4.9,0.61 4.29,0.61 4.89,0.62 4.9,0.61 4.28,0.61 4.9,0.61 4.28,0.61 4.9,0.61 4.28,0.62 4.9,0.61 4.28,0.61 4.9,1.22 4.28,0.62 4.9,0.61 4.28,1.22 4.9,0.62 4.28,0.6 4.9,1.23 4.89,0.61 4.29,1.23 4.89,0.61 4.29,1.22 4.89,1.23 4.29,0.61 4.89,1.22 4.29,1.22 4.9,1.23 4.28,1.22 4.9,1.23 4.28,1.22 4.9,1.84 4.28,1.22 4.9,1.22 4.28,1.84 4.89,1.23 4.9,1.83 4.28,1.23 4.9,1.83 4.28,1.84 4.9,1.83 4.28,1.84 4.9,1.84 4.28,1.83 4.9,1.84 4.28,2.45 4.9,1.83 4.28,2.45 4.9,1.84 4.28,2.44 4.9,2.45 4.9,2.45 4.28,2.45 4.9,3.06 4.28,2.45 4.89,2.44 4.29,3.07 4.89,3.05 4.29,2.45 4.89,3.06 4.29,3.67 4.9,3.06 4.28,3.07 4.9,3.67 4.28,3.06 4.9,3.67 4.28,3.67 4.9,4.28 4.89,3.68 4.29,4.28 4.89,3.67 4.29,4.28 4.89,4.29 4.29,4.89 4.89,4.29 4.29,4.9 4.89,4.89 4.29,4.9 4.89,4.9 4.29,5.5 4.89,5.51 4.28,5.51 4.9,6.12 4.9,5.51 4.28,6.12 4.9,6.73 4.28,6.12 4.9,6.73 4.28,6.73 4.9,7.35 4.28,7.34 4.9,7.34 4.28,7.35 4.9,7.95 4.28,7.96 4.9,8.57 4.28,7.95 4.9,9.18 4.28,8.57 4.9,9.18 4.89,9.18 4.29,9.18 4.89,9.79 4.29,9.8 4.89,10.4 4.29,10.4 4.89,10.41 4.29,10.4 4.89,11.02 4.29,11.01 4.9,11.63 4.28,11.63 4.9,11.63 4.28,12.24 4.9,12.24 4.89,12.24 4.29,12.85 4.89,12.85 4.28,13.47 4.9,13.46 4.28,13.46 4.9,14.08 4.28,14.08 4.9,14.68 4.28,14.69 4.9,15.3 4.28,15.91 4.9,15.92 4.28,15.91 4.9,16.52 4.28,16.53 4.9,17.74 4.9,17.14 4.28,18.36 4.9,18.36 4.28,18.36 4.9,18.97 4.28,19.59 4.89,19.58 4.29,20.2 4.89,20.19 4.29,20.81 4.89,21.42 4.29,21.42 4.9,21.42 4.28,22.03 4.9,22.03 4.89,22.04 4.29,22.03 4.89,22.03 4.29,22.03 4.89,22.04 4.29,21.41 4.89,22.04 4.29,20.8 4.89,21.42 4.29,20.2 4.89,20.2 4.29,19.58 4.89,18.97 4.29,18.36 4.89,17.14 4.29,17.13 4.89,15.3 4.9,15.3 4.28,14.08 4.9,12.85 4.28,12.24 4.9,11.02 4.28,9.79 4.9,9.18 4.28,7.96 4.9,6.73 4.28,6.73 4.9,5.51 4.28,4.28 4.9,4.29 4.28,3.06 4.9,2.44 4.89,1.84 4.29,1.84 4.89,1.22 4.29,0.61 4.89,0.62 h 4.29 l 4.89,0.61 h 4.29 4.89 4.29 4.89 4.29 4.89 4.29 4.9 4.28 4.9 4.89 l 4.29,-0.61 4.89,-0.62 4.29,-0.61 4.89,-1.22 4.28,-1.23 4.9,-2.45 4.28,-2.44 4.9,-3.06 4.28,-4.29 4.9,-4.28 4.28,-5.51 4.9,-6.73 4.28,-6.73 4.9,-7.96 4.9,-9.18 4.28,-9.79 4.9,-11.02 4.28,-12.24 4.9,-12.85 4.28,-14.08 4.9,-15.3 4.28,-15.3 4.9,-17.13 4.28,-17.14 4.89,-18.36 4.29,-18.97 4.89,-19.58 4.29,-20.2 4.89,-20.2 4.29,-21.42 4.9,-21.42 4.89,-21.42 4.29,-21.41 4.89,-22.04 4.29,-22.03 4.89,-22.03 4.29,-22.65 4.89,-22.03 4.29,-21.42 4.89,-22.03 4.29,-21.42 4.89,-21.42 4.29,-21.42 4.89,-20.19 4.29,-20.81 4.89,-20.2 4.9,-19.58 4.28,-19.59 4.9,-18.97 4.28,-18.36 4.9,-18.36 4.28,-18.36 4.9,-17.14 4.28,-17.74 4.9,-16.53 4.28,-16.52 4.9,-16.52 4.28,-15.31 4.9,-15.91 4.28,-15.3 4.9,-14.69 4.28,-14.68 4.9,-14.08 4.89,-14.08 4.29,-13.46 4.89,-13.46 4.29,-13.47 4.89,-12.85 4.29,-12.85 4.89,-12.24 4.29,-12.24 4.89,-12.24 4.29,-11.63 4.89,-11.63 4.29,-11.63 4.89,-11.01 4.29,-11.02 4.89,-10.4 4.9,-10.41 4.29,-10.4 4.89,-10.4 4.29,-9.8 4.89,-9.79 4.29,-9.18 4.89,-9.18 4.29,-9.18 4.89,-8.57 4.28,-9.18 4.9,-7.95 4.28,-8.57 4.9,-7.96 4.28,-7.95 4.9,-7.35 4.28,-7.34 4.9,-7.34 4.9,-7.35 4.28,-6.73 4.9,-6.73 4.28,-6.12 4.9,-6.73 4.28,-6.12 4.9,-5.51 4.28,-6.12 4.9,-5.51 4.28,-5.51 4.9,-5.5 4.28,-4.9 4.89,-4.9 4.29,-4.89 4.89,-4.9 4.9,-4.29 4.28,-4.89 4.9,-4.29 4.29,-4.28 4.89,-3.67 4.29,-4.28 4.89,-3.68 4.29,-4.28 4.89,-3.67 4.29,-3.67 4.89,-3.06 4.29,-3.67 4.89,-3.07 4.29,-3.06 4.89,-3.67 4.29,-3.06 4.89,-2.45 4.9,-3.05 4.28,-3.07 4.9,-2.44 4.28,-2.45 4.9,-3.06 4.28,-2.45 4.9,-2.45 4.28,-2.45 4.9,-2.44 4.28,-1.84 4.9,-2.45 4.28,-1.83 4.9,-2.45 4.28,-1.84 4.9,-1.83 4.9,-1.84 4.28,-1.84 4.89,-1.83 4.29,-1.84 4.89,-1.83 4.29,-1.23 4.89,-1.83 4.29,-1.23 4.89,-1.84 4.29,-1.22 4.89,-1.22 4.29,-1.84 4.89,-1.22 4.29,-1.23 4.89,-1.22 4.29,-1.23 4.89,-1.22 4.9,-1.22 4.28,-0.61 4.9,-1.23 4.29,-1.22 4.89,-0.61 4.29,-1.23 4.89,-0.61 4.29,-1.23 4.89,-0.6 4.29,-1.23 4.89,-0.61 4.28,-0.61 4.9,-0.62 4.28,-1.22 4.9,-0.61 4.9,-0.61 4.28,-0.62 4.9,-0.61 4.28,-0.61 4.9,-0.61 4.28,-0.61 4.9,-0.61 4.28,-0.62 4.9,-0.61 4.28,-0.61 4.9,-0.61 h 4.28 l 4.9,-0.62 4.28,-0.61 4.9,-0.61 4.28,-0.61 h 4.89 l 4.9,-0.61 4.28,-0.62 h 4.9 l 4.28,-0.61 4.9,-0.61 h 4.29 l 4.89,-0.61 h 4.29 l 4.89,-0.61 h 4.29 l 4.89,-0.62 h 4.29 l 4.89,-0.61 h 4.29 l 4.89,-0.61 h 4.9 l 4.28,-0.61 h 4.9 l 4.28,-0.61 h 4.9 4.28 l 4.9,-0.62 h 4.28 l 4.9,-0.61 h 4.28 4.9 l 4.28,-0.61 h 4.9 4.28 l 4.9,-0.61 h 4.28 4.9 4.9 l 4.28,-0.62 h 4.9 4.28 4.89 l 4.29,-0.6 h 4.89 4.29 4.89 l 4.29,-0.62 h 4.89 4.29 4.89 4.29 l 4.89,-0.61 h 4.9 4.28 4.9 4.28 l 4.9,-0.61 h 4.28 4.9 4.29 4.89 4.29 4.89 l 4.29,-0.61 h 4.89 4.29 4.89 4.28 4.9 4.9 4.28 l 4.9,-0.62 h 4.28 4.9 4.28 4.9 4.28 4.9 4.28 4.9 4.28 l 4.9,-0.61 h 4.28 4.9 4.89 4.29 4.89 4.28 4.9 4.28 4.9 4.28 4.9 4.29 4.89 4.29 l 4.89,-0.61 h 4.29 4.89 4.29 4.89 4.9 4.28 4.9 4.28 4.9 4.28 4.9 0.61" /><path
         id="path20"
         style="fill:none;stroke:#0000ff;stroke-width:14.07600021;stroke-linecap:butt;stroke-linejoin:miter;stroke-miterlimit:10;stroke-dasharray:none;stroke-opacity:1"
         d="m 917.387,3258.29 h 14.687 l 4.285,0.61 h 32.438 l 4.281,0.61 h 4.899 4.285 4.894 4.285 4.895 4.894 l 4.29,0.62 h 4.89 4.29 4.89 4.29 4.89 l 4.28,0.6 h 4.9 4.28 4.9 4.29 l 4.89,0.62 h 4.29 4.89 4.9 l 4.28,0.61 h 4.9 4.28 4.9 4.28 l 4.9,0.61 h 4.28 4.9 4.28 l 4.9,0.61 h 4.28 4.9 l 4.28,0.62 h 4.9 4.28 4.9 l 4.89,0.61 h 4.29 4.89 l 4.29,0.61 h 4.9 4.28 l 4.9,0.61 h 4.28 4.9 l 4.28,0.61 h 4.9 l 4.28,0.62 h 4.89 4.29 l 4.89,0.61 h 4.9 l 4.28,0.61 h 4.9 l 4.28,0.61 h 4.9 l 4.28,0.61 h 4.9 l 4.28,0.62 h 4.9 l 4.28,0.61 h 4.9 l 4.28,0.61 h 4.9 l 4.28,0.61 h 4.9 l 4.29,0.61 4.89,0.62 h 4.89 l 4.29,0.61 4.89,0.61 h 4.29 l 4.89,0.61 4.29,0.62 h 4.9 l 4.28,0.61 4.9,0.61 4.28,0.61 4.9,0.61 h 4.28 l 4.9,0.61 4.28,0.62 4.9,0.61 4.89,0.61 4.29,0.61 4.89,0.61 4.29,0.62 4.89,0.61 4.29,0.61 4.89,0.61 4.29,0.62 4.89,0.6 4.29,0.62 4.89,0.61 4.28,0.61 4.9,0.61 4.28,1.23 4.9,0.61 4.29,0.61 4.89,0.61 4.9,1.23 4.28,0.61 4.9,1.23 4.28,0.6 4.9,1.23 4.28,0.61 4.9,1.23 4.28,0.61 4.9,1.22 4.28,1.23 4.9,0.61 4.28,1.22 4.9,1.22 4.28,1.23 4.9,1.22 4.89,1.23 4.29,1.22 4.89,1.23 4.29,1.22 4.89,1.22 4.29,1.23 4.89,1.83 4.29,1.23 4.9,1.22 4.28,1.84 4.9,1.22 4.28,1.84 4.9,1.83 4.28,1.23 4.9,1.84 4.28,1.83 4.89,1.84 4.9,1.83 4.28,1.84 4.9,2.44 4.28,1.84 4.9,1.84 4.28,2.45 4.9,2.44 4.28,1.84 4.9,2.45 4.28,2.45 4.9,2.44 4.28,2.45 4.9,3.06 4.28,2.45 4.9,2.45 4.9,3.06 4.28,3.06 4.9,3.06 4.28,2.45 4.89,3.67 4.29,3.06 4.89,3.06 4.29,3.06 4.89,3.67 4.29,3.67 4.9,3.06 4.28,3.68 4.9,3.67 4.28,4.28 4.9,3.67 4.28,4.29 4.9,3.67 4.89,4.28 4.29,4.29 4.89,4.28 4.29,4.9 4.89,4.28 4.29,4.9 4.89,4.89 4.29,4.9 4.89,5.51 4.29,4.89 4.89,5.51 4.29,5.51 4.89,6.12 4.28,5.51 4.9,6.12 4.9,6.12 4.28,6.73 4.9,6.73 4.28,6.73 4.9,6.73 4.28,7.35 4.9,7.34 4.28,7.35 4.9,7.95 4.28,7.96 4.9,7.95 4.28,8.57 4.9,8.57 4.28,9.18 4.9,8.57 4.28,9.79 4.9,9.18 4.89,9.79 4.29,9.79 4.89,9.8 4.29,10.4 4.89,11.02 4.29,10.4 4.89,11.02 4.29,11.01 4.89,11.63 4.29,11.02 4.9,12.24 4.28,11.62 4.9,12.24 4.28,12.25 4.9,12.23 4.89,12.86 4.29,12.85 4.89,13.46 4.28,13.47 4.9,13.46 4.28,14.08 4.9,14.07 4.28,14.08 4.9,14.69 4.28,15.3 4.9,14.68 4.28,15.92 4.9,15.29 4.28,16.53 4.9,16.53 4.28,16.52 4.9,17.14 4.9,17.74 4.28,17.75 4.9,18.36 4.28,18.36 4.9,18.97 4.28,19.59 4.89,19.58 4.29,20.2 4.89,20.19 4.29,20.81 4.89,21.42 4.29,21.42 4.9,21.42 4.28,22.03 4.9,22.03 4.89,22.65 4.29,22.03 4.89,22.64 4.29,22.65 4.89,22.64 4.29,22.04 4.89,22.64 4.29,21.42 4.89,22.03 4.29,21.42 4.89,20.2 4.29,20.8 4.89,19.59 4.29,18.97 4.89,17.75 4.29,17.75 4.89,16.52 4.9,15.91 4.28,14.69 4.9,14.07 4.28,12.86 4.9,11.63 4.28,11.01 4.9,9.18 4.28,9.18 4.9,7.96 4.28,6.73 4.9,6.12 4.28,5.51 4.9,4.28 4.28,3.67 4.9,3.07 4.89,2.44 4.29,1.84 4.89,1.22 4.29,1.23 4.89,0.61 4.29,0.61 h 4.89 l 4.29,0.61 h 4.89 4.29 4.89 4.29 4.89 4.29 4.9 4.28 l 4.9,-0.61 h 4.89 l 4.29,-0.61 4.89,-0.61 4.29,-1.23 4.89,-1.22 4.28,-1.84 4.9,-2.44 4.28,-3.07 4.9,-3.67 4.28,-4.28 4.9,-5.51 4.28,-6.12 4.9,-6.73 4.28,-7.96 4.9,-9.18 4.9,-9.18 4.28,-11.01 4.9,-11.63 4.28,-12.86 4.9,-14.07 4.28,-14.69 4.9,-15.91 4.28,-16.52 4.9,-17.75 4.28,-17.75 4.89,-18.97 4.29,-19.59 4.89,-20.8 4.29,-20.2 4.89,-21.42 4.29,-22.03 4.9,-21.42 4.89,-22.64 4.29,-22.04 4.89,-22.64 4.29,-22.65 4.89,-22.64 4.29,-22.03 4.89,-22.65 4.29,-22.03 4.89,-22.03 4.29,-21.42 4.89,-21.42 4.29,-21.42 4.89,-20.81 4.29,-20.19 4.89,-20.2 4.9,-19.58 4.28,-19.59 4.9,-18.97 4.28,-18.36 4.9,-18.36 4.28,-17.75 4.9,-17.74 4.28,-17.14 4.9,-16.52 4.28,-16.53 4.9,-16.53 4.28,-15.29 4.9,-15.92 4.28,-14.68 4.9,-15.3 4.28,-14.69 4.9,-14.08 4.89,-14.07 4.29,-14.08 4.89,-13.46 4.29,-13.47 4.89,-13.46 4.29,-12.85 4.89,-12.86 4.29,-12.23 4.89,-12.25 4.29,-12.24 4.89,-11.62 4.29,-12.24 4.89,-11.02 4.29,-11.63 4.89,-11.01 4.9,-11.02 4.29,-10.4 4.89,-11.02 4.29,-10.4 4.89,-9.8 4.29,-9.79 4.89,-9.79 4.29,-9.18 4.89,-9.79 4.28,-8.57 4.9,-9.18 4.28,-8.57 4.9,-8.57 4.28,-7.95 4.9,-7.96 4.28,-7.95 4.9,-7.35 4.9,-7.34 4.28,-7.35 4.9,-6.73 4.28,-6.73 4.9,-6.73 4.28,-6.73 4.9,-6.12 4.28,-6.12 4.9,-5.51 4.28,-6.12 4.9,-5.51 4.28,-5.51 4.89,-4.89 4.29,-5.51 4.89,-4.9 4.9,-4.89 4.28,-4.9 4.9,-4.28 4.29,-4.9 4.89,-4.28 4.29,-4.29 4.89,-4.28 4.29,-3.67 4.89,-4.29 4.29,-3.67 4.89,-4.28 4.29,-3.67 4.89,-3.68 4.29,-3.06 4.89,-3.67 4.29,-3.67 4.89,-3.06 4.9,-3.06 4.28,-3.06 4.9,-3.67 4.28,-2.45 4.9,-3.06 4.28,-3.06 4.9,-3.06 4.28,-2.45 4.9,-2.45 4.28,-3.06 4.9,-2.45 4.28,-2.44 4.9,-2.45 4.28,-2.45 4.9,-1.84 4.9,-2.44 4.28,-2.45 4.89,-1.84 4.29,-1.84 4.89,-2.44 4.29,-1.84 4.89,-1.83 4.29,-1.84 4.89,-1.83 4.29,-1.84 4.89,-1.23 4.29,-1.83 4.89,-1.84 4.29,-1.22 4.89,-1.84 4.29,-1.22 4.89,-1.23 4.9,-1.83 4.28,-1.23 4.9,-1.22 4.29,-1.22 4.89,-1.23 4.29,-1.22 4.89,-1.23 4.29,-1.22 4.89,-1.23 4.29,-1.22 4.89,-1.22 4.28,-0.61 4.9,-1.23 4.28,-1.22 4.9,-0.61 4.9,-1.23 4.28,-0.61 4.9,-1.23 4.28,-0.6 4.9,-1.23 4.28,-0.61 4.9,-1.23 4.28,-0.61 4.9,-0.61 4.28,-0.61 4.9,-1.23 4.28,-0.61 4.9,-0.61 4.28,-0.61 4.9,-0.62 4.28,-0.6 4.89,-0.62 4.9,-0.61 4.28,-0.61 4.9,-0.61 4.28,-0.62 4.9,-0.61 4.29,-0.61 4.89,-0.61 4.29,-0.61 4.89,-0.62 4.29,-0.61 h 4.89 l 4.29,-0.61 4.89,-0.61 4.29,-0.61 4.89,-0.61 h 4.9 l 4.28,-0.62 4.9,-0.61 h 4.28 l 4.9,-0.61 4.28,-0.61 h 4.9 l 4.28,-0.62 4.9,-0.61 h 4.28 l 4.9,-0.61 h 4.28 l 4.9,-0.61 h 4.28 l 4.9,-0.61 h 4.28 l 4.9,-0.62 h 4.9 l 4.28,-0.61 h 4.9 l 4.28,-0.61 h 4.89 l 4.29,-0.61 h 4.89 l 4.29,-0.61 h 4.89 4.29 l 4.89,-0.62 h 4.29 l 4.89,-0.61 h 4.29 4.89 l 4.9,-0.61 h 4.28 4.9 l 4.28,-0.61 h 4.9 4.28 l 4.9,-0.61 h 4.29 4.89 4.29 l 4.89,-0.62 h 4.29 4.89 l 4.29,-0.61 h 4.89 4.28 4.9 l 4.9,-0.61 h 4.28 4.9 4.28 4.9 l 4.28,-0.61 h 4.9 4.28 4.9 l 4.28,-0.62 h 4.9 4.28 4.9 4.28 l 4.9,-0.6 h 4.89 4.29 4.89 4.28 4.9 l 4.28,-0.62 h 4.9 4.28 4.9 4.29 4.89 4.29 l 4.89,-0.61 h 4.29 4.89 4.29 4.89 4.9 4.28 4.9 l 4.28,-0.61 h 4.9 4.28 4.9 0.61" /><path
         id="path22"
         style="fill:none;stroke:#000000;stroke-width:9.18000031;stroke-linecap:butt;stroke-linejoin:miter;stroke-miterlimit:10;stroke-dasharray:none;stroke-opacity:1"
         d="M 918,3254.62 H 3683.63" /><path
         id="path24"
         style="fill:none;stroke:#000000;stroke-width:9.18000031;stroke-linecap:butt;stroke-linejoin:miter;stroke-miterlimit:10;stroke-dasharray:none;stroke-opacity:1"
         d="M 918,5202 H 3683.63" /><path
         id="path26"
         style="fill:none;stroke:#000000;stroke-width:9.18000031;stroke-linecap:butt;stroke-linejoin:miter;stroke-miterlimit:10;stroke-dasharray:none;stroke-opacity:1"
         d="m 1148.72,3254.62 v 61.2" /><path
         id="path28"
         style="fill:none;stroke:#000000;stroke-width:9.18000031;stroke-linecap:butt;stroke-linejoin:miter;stroke-miterlimit:10;stroke-dasharray:none;stroke-opacity:1"
         d="m 1148.72,5202 v -61.2" /><path
         id="path30"
         style="fill:none;stroke:#000000;stroke-width:9.18000031;stroke-linecap:butt;stroke-linejoin:miter;stroke-miterlimit:10;stroke-dasharray:none;stroke-opacity:1"
         d="m 3452.9,3254.62 v 61.2" /><path
         id="path32"
         style="fill:none;stroke:#000000;stroke-width:9.18000031;stroke-linecap:butt;stroke-linejoin:miter;stroke-miterlimit:10;stroke-dasharray:none;stroke-opacity:1"
         d="m 3452.9,5202 v -61.2" /><path
         id="path34"
         style="fill:none;stroke:#000000;stroke-width:9.18000031;stroke-linecap:butt;stroke-linejoin:miter;stroke-miterlimit:10;stroke-dasharray:none;stroke-opacity:1"
         d="m 2300.51,3254.62 v 122.4" /><path
         id="path36"
         style="fill:none;stroke:#000000;stroke-width:9.18000031;stroke-linecap:butt;stroke-linejoin:miter;stroke-miterlimit:10;stroke-dasharray:none;stroke-opacity:1"
         d="M 2300.51,5202 V 5079.6" /><g
         transform="scale(10)"
         id="g38"><text
           id="text44"
           style="font-variant:normal;font-weight:normal;font-size:17.13599968px;font-family:'Times New Roman';-inkscape-font-specification:Times-Roman;writing-mode:lr-tb;fill:#000000;fill-opacity:1;fill-rule:nonzero;stroke:none"
           transform="matrix(1,0,0,-1,226.012,526.565)"><tspan
             id="tspan40"
             y="0"
             x="0">0</tspan><tspan
             id="tspan42"
             y="-24.480101"
             x="-34.455898">p</tspan></text>
<text
           id="text48"
           style="font-variant:normal;font-weight:normal;font-size:12.11760044px;font-family:'Times New Roman';-inkscape-font-specification:Times-Roman;writing-mode:lr-tb;fill:#000000;fill-opacity:1;fill-rule:nonzero;stroke:none"
           transform="matrix(1,0,0,-1,200.1854,544.19041)"><tspan
             id="tspan46"
             y="0"
             x="0">x</tspan></text>
<text
           id="text52"
           style="font-variant:normal;font-weight:normal;font-size:17.13599968px;font-family:'Times New Roman';-inkscape-font-specification:Times-Roman;writing-mode:lr-tb;fill:#000000;fill-opacity:1;fill-rule:nonzero;stroke:none"
           transform="matrix(1,0,0,-1,210.46706,551.0451)"><tspan
             id="tspan50"
             y="0"
             x="0 5.7062879 20.940191 28.548576 40.920769 45.684574 53.292961">(MeV/c)</tspan></text>
</g><path
         id="path54"
         style="fill:none;stroke:#000000;stroke-width:9.18000031;stroke-linecap:butt;stroke-linejoin:miter;stroke-miterlimit:10;stroke-dasharray:none;stroke-opacity:1"
         d="M 918,3254.62 V 5202" /><path
         id="path56"
         style="fill:none;stroke:#000000;stroke-width:9.18000031;stroke-linecap:butt;stroke-linejoin:miter;stroke-miterlimit:10;stroke-dasharray:none;stroke-opacity:1"
         d="M 3683.63,3254.62 V 5202" /><path
         id="path58"
         style="fill:none;stroke:#000000;stroke-width:9.18000031;stroke-linecap:butt;stroke-linejoin:miter;stroke-miterlimit:10;stroke-dasharray:none;stroke-opacity:1"
         d="m 918,3498.19 h 61.199" /><path
         id="path60"
         style="fill:none;stroke:#000000;stroke-width:9.18000031;stroke-linecap:butt;stroke-linejoin:miter;stroke-miterlimit:10;stroke-dasharray:none;stroke-opacity:1"
         d="m 3683.63,3498.19 h -61.2" /><path
         id="path62"
         style="fill:none;stroke:#000000;stroke-width:9.18000031;stroke-linecap:butt;stroke-linejoin:miter;stroke-miterlimit:10;stroke-dasharray:none;stroke-opacity:1"
         d="m 918,3984.73 h 61.199" /><path
         id="path64"
         style="fill:none;stroke:#000000;stroke-width:9.18000031;stroke-linecap:butt;stroke-linejoin:miter;stroke-miterlimit:10;stroke-dasharray:none;stroke-opacity:1"
         d="m 3683.63,3984.73 h -61.2" /><path
         id="path66"
         style="fill:none;stroke:#000000;stroke-width:9.18000031;stroke-linecap:butt;stroke-linejoin:miter;stroke-miterlimit:10;stroke-dasharray:none;stroke-opacity:1"
         d="m 918,4471.88 h 61.199" /><path
         id="path68"
         style="fill:none;stroke:#000000;stroke-width:9.18000031;stroke-linecap:butt;stroke-linejoin:miter;stroke-miterlimit:10;stroke-dasharray:none;stroke-opacity:1"
         d="m 3683.63,4471.88 h -61.2" /><path
         id="path70"
         style="fill:none;stroke:#000000;stroke-width:9.18000031;stroke-linecap:butt;stroke-linejoin:miter;stroke-miterlimit:10;stroke-dasharray:none;stroke-opacity:1"
         d="m 918,4958.43 h 61.199" /><path
         id="path72"
         style="fill:none;stroke:#000000;stroke-width:9.18000031;stroke-linecap:butt;stroke-linejoin:miter;stroke-miterlimit:10;stroke-dasharray:none;stroke-opacity:1"
         d="m 3683.63,4958.43 h -61.2" /><path
         id="path74"
         style="fill:none;stroke:#000000;stroke-width:9.18000031;stroke-linecap:butt;stroke-linejoin:miter;stroke-miterlimit:10;stroke-dasharray:none;stroke-opacity:1"
         d="m 918,3254.62 h 122.4" /><path
         id="path76"
         style="fill:none;stroke:#000000;stroke-width:9.18000031;stroke-linecap:butt;stroke-linejoin:miter;stroke-miterlimit:10;stroke-dasharray:none;stroke-opacity:1"
         d="m 3683.63,3254.62 h -122.4" /><path
         id="path78"
         style="fill:none;stroke:#000000;stroke-width:9.18000031;stroke-linecap:butt;stroke-linejoin:miter;stroke-miterlimit:10;stroke-dasharray:none;stroke-opacity:1"
         d="m 918,3741.77 h 122.4" /><path
         id="path80"
         style="fill:none;stroke:#000000;stroke-width:9.18000031;stroke-linecap:butt;stroke-linejoin:miter;stroke-miterlimit:10;stroke-dasharray:none;stroke-opacity:1"
         d="m 3683.63,3741.77 h -122.4" /><path
         id="path82"
         style="fill:none;stroke:#000000;stroke-width:9.18000031;stroke-linecap:butt;stroke-linejoin:miter;stroke-miterlimit:10;stroke-dasharray:none;stroke-opacity:1"
         d="m 918,4228.31 h 122.4" /><path
         id="path84"
         style="fill:none;stroke:#000000;stroke-width:9.18000031;stroke-linecap:butt;stroke-linejoin:miter;stroke-miterlimit:10;stroke-dasharray:none;stroke-opacity:1"
         d="m 3683.63,4228.31 h -122.4" /><path
         id="path86"
         style="fill:none;stroke:#000000;stroke-width:9.18000031;stroke-linecap:butt;stroke-linejoin:miter;stroke-miterlimit:10;stroke-dasharray:none;stroke-opacity:1"
         d="m 918,4715.46 h 122.4" /><path
         id="path88"
         style="fill:none;stroke:#000000;stroke-width:9.18000031;stroke-linecap:butt;stroke-linejoin:miter;stroke-miterlimit:10;stroke-dasharray:none;stroke-opacity:1"
         d="m 3683.63,4715.46 h -122.4" /><path
         id="path90"
         style="fill:none;stroke:#000000;stroke-width:9.18000031;stroke-linecap:butt;stroke-linejoin:miter;stroke-miterlimit:10;stroke-dasharray:none;stroke-opacity:1"
         d="m 918,5202 h 122.4" /><path
         id="path92"
         style="fill:none;stroke:#000000;stroke-width:9.18000031;stroke-linecap:butt;stroke-linejoin:miter;stroke-miterlimit:10;stroke-dasharray:none;stroke-opacity:1"
         d="m 3683.63,5202 h -122.4" /><g
         transform="scale(10)"
         id="g94"><text
           id="text106"
           style="font-variant:normal;font-weight:normal;font-size:17.13599968px;font-family:'Times New Roman';-inkscape-font-specification:Times-Roman;writing-mode:lr-tb;fill:#000000;fill-opacity:1;fill-rule:nonzero;stroke:none"
           transform="matrix(1,0,0,-1,77.5402,319.831)"><tspan
             id="tspan96"
             y="0"
             x="0">0</tspan><tspan
             id="tspan98"
             y="-48.592602"
             x="-20.685499 -12.1175 -7.8334999 0.73449999">0.05</tspan><tspan
             id="tspan100"
             y="-97.369202"
             x="-11.56675 -2.99875 1.2852499">0.1</tspan><tspan
             id="tspan102"
             y="-145.9008"
             x="-20.685499 -12.1175 -7.8334999 0.73449999">0.15</tspan><tspan
             id="tspan104"
             y="-194.7383"
             x="-12.97417 -4.4061699 -0.12217">0.2</tspan></text>
<text
           id="text110"
           style="font-variant:normal;font-weight:normal;font-size:17.13599968px;font-family:'Times New Roman';-inkscape-font-specification:Times-Roman;writing-mode:lr-tb;fill:#000000;fill-opacity:1;fill-rule:nonzero;stroke:none"
           transform="matrix(0,1,1,0,43.8805,349.146)"><tspan
             id="tspan108"
             y="0"
             x="0">d</tspan></text>
<text
           id="text114"
           style="font-variant:normal;font-weight:normal;font-size:17.13599968px;font-family:Symbol;-inkscape-font-specification:Symbol;writing-mode:lr-tb;fill:#000000;fill-opacity:1;fill-rule:nonzero;stroke:none"
           transform="matrix(0,1,1,0,43.8805,357.77491)"><tspan
             id="tspan112"
             y="0"
             x="0">σ</tspan></text>
<text
           id="text118"
           style="font-variant:normal;font-weight:normal;font-size:17.13599968px;font-family:'Times New Roman';-inkscape-font-specification:Times-Roman;writing-mode:lr-tb;fill:#000000;fill-opacity:1;fill-rule:nonzero;stroke:none"
           transform="matrix(0,1,1,0,43.8805,368.11791)"><tspan
             id="tspan116"
             y="0"
             x="0 4.7638078 13.331808">/dp</tspan></text>
<text
           id="text122"
           style="font-variant:normal;font-weight:normal;font-size:12.11760044px;font-family:'Times New Roman';-inkscape-font-specification:Times-Roman;writing-mode:lr-tb;fill:#000000;fill-opacity:1;fill-rule:nonzero;stroke:none"
           transform="matrix(0,1,1,0,50.7348,389.96631)"><tspan
             id="tspan120"
             y="0"
             x="0">x</tspan></text>
<text
           id="text126"
           style="font-variant:normal;font-weight:normal;font-size:17.13599968px;font-family:'Times New Roman';-inkscape-font-specification:Times-Roman;writing-mode:lr-tb;fill:#000000;fill-opacity:1;fill-rule:nonzero;stroke:none"
           transform="matrix(0,1,1,0,43.8805,400.24797)"><tspan
             id="tspan124"
             y="0"
             x="0 5.7062879 19.038095 27.606096 32.369904 38.076191 53.310097 60.91848 73.290672 78.054482 85.662865 91.369148">(mb/(MeV/c))</tspan></text>
</g><path
         id="path128"
         style="fill:none;stroke:#000000;stroke-width:9.18000031;stroke-linecap:butt;stroke-linejoin:miter;stroke-miterlimit:10;stroke-dasharray:none;stroke-opacity:1"
         d="M 918,3254.62 V 5202 H 3683.63 V 3254.62 Z" /><path
         id="path130"
         style="fill:none;stroke:#000000;stroke-width:18.36000061;stroke-linecap:butt;stroke-linejoin:miter;stroke-miterlimit:10;stroke-dasharray:none;stroke-opacity:1"
         d="m 4235.65,3254.62 h 51.41 l 4.9,0.61 h 316.4 l 5.51,0.61 h 4.9 4.89 4.89 5.51 4.9 4.9 4.89 4.9 5.51 4.89 l 4.9,0.61 h 4.89 4.9 5.51 4.89 4.9 4.9 5.51 4.89 l 4.89,0.61 h 4.9 4.9 5.51 4.89 l 4.9,0.62 h 4.89 4.9 l 5.51,0.61 h 4.89 4.9 l 4.9,0.61 h 5.5 4.9 l 4.9,0.61 h 4.89 l 4.9,0.62 h 5.51 4.89 l 4.9,0.6 h 4.9 l 4.89,0.62 5.51,0.61 h 4.89 l 4.9,0.61 h 4.9 l 5.5,0.61 4.9,0.62 4.9,0.61 4.89,0.61 4.9,0.61 h 5.51 l 4.89,0.61 4.9,1.23 4.89,0.61 5.51,1.22 4.9,0.62 4.9,1.22 4.89,0.61 4.89,0.61 5.52,1.23 4.89,0.61 4.9,0.61 4.89,0.62 4.9,1.22 5.51,0.61 4.89,0.61 4.9,1.23 4.89,0.61 5.51,1.22 4.9,1.23 4.89,0.61 4.9,1.22 4.9,1.22 5.5,1.23 4.9,1.22 4.9,1.23 4.89,1.22 4.9,1.23 5.5,1.22 4.9,1.83 4.9,1.23 4.9,1.22 5.5,1.84 4.9,1.84 4.89,1.22 4.9,1.83 4.9,1.84 5.5,1.84 4.9,1.84 4.9,1.83 4.89,2.45 5.51,1.83 4.9,2.45 4.89,1.84 4.9,2.45 4.9,2.44 5.5,1.84 4.9,2.45 4.9,3.06 4.89,2.45 4.89,3.05 5.51,2.45 4.9,3.06 4.9,3.06 4.89,3.06 5.51,3.07 4.9,3.05 4.89,3.68 4.9,3.67 4.89,3.06 5.51,3.67 4.9,3.67 4.89,3.67 4.9,3.67 4.9,3.68 5.51,4.28 4.89,4.29 4.89,4.28 4.9,4.9 5.51,4.28 4.9,4.9 4.89,4.89 4.9,4.9 4.89,5.51 5.51,4.89 4.9,5.51 4.89,5.51 4.9,5.5 4.9,6.13 5.5,6.12 4.9,6.12 4.9,6.73 4.89,6.73 5.51,6.73 4.89,6.73 4.9,7.35 4.9,6.73 4.9,7.35 5.5,7.95 4.9,7.96 4.89,7.95 4.9,7.96 5.51,8.57 4.89,8.56 4.9,8.57 4.9,9.18 4.89,9.18 5.51,9.8 4.9,9.78 4.89,9.8 4.9,9.79 4.89,9.79 5.51,10.41 4.9,10.4 4.9,11.02 4.89,11.01 5.51,11.63 4.9,11.63 4.89,11.63 4.9,11.62 4.89,11.63 5.51,12.24 4.9,12.24 4.89,12.86 4.9,13.46 4.89,14.07 5.51,14.08 4.9,14.08 4.89,14.68 4.9,15.31 5.51,15.91 4.9,15.91 4.89,16.52 4.9,15.91 4.89,16.53 5.51,16.52 4.89,16.53 4.9,17.13 4.9,17.14 5.51,17.75 4.89,17.74 4.9,18.36 4.89,18.98 4.9,18.97 5.51,20.19 4.89,20.2 4.9,21.42 4.9,21.42 4.89,20.81 5.51,20.2 4.9,19.58 4.89,21.42 4.9,22.03 5.5,23.26 4.9,23.87 4.9,23.25 4.9,23.26 4.89,22.64 5.51,22.03 4.89,21.42 4.9,21.42 4.9,20.81 4.89,20.2 5.51,19.58 4.9,18.97 4.89,18.97 4.9,18.36 5.51,16.53 4.89,16.52 4.9,15.3 4.89,14.69 4.9,14.69 5.51,13.46 4.9,12.85 4.89,12.85 4.89,11.63 4.9,11.63 5.51,11.02 4.9,10.4 4.89,9.79 4.9,9.8 5.51,9.18 4.89,8.56 4.9,7.96 4.89,6.73 4.9,6.73 5.51,4.9 4.89,4.28 4.9,3.68 4.9,3.05 5.51,3.07 4.89,3.67 4.89,3.06 4.9,2.45 4.9,1.83 5.51,1.23 h 4.89 l 4.9,1.22 4.89,0.61 4.9,0.61 5.51,1.23 4.89,1.22 4.9,1.84 4.9,1.22 h 5.5 l 4.9,-1.22 4.9,-2.45 4.89,-3.67 4.9,-5.51 5.51,-6.12 4.89,-6.73 4.9,-7.96 4.9,-9.18 4.89,-10.4 5.51,-11.63 4.9,-12.24 4.89,-13.46 4.9,-13.47 5.5,-14.07 4.9,-15.31 4.9,-15.91 4.89,-17.13 4.9,-17.14 5.51,-18.36 4.89,-18.36 4.9,-18.97 4.89,-18.97 4.9,-19.59 5.51,-20.19 4.9,-20.81 4.89,-22.03 4.9,-22.04 5.51,-22.64 4.89,-23.25 4.9,-22.65 4.89,-22.64 4.9,-22.64 5.51,-22.65 4.89,-22.03 4.9,-22.03 4.89,-21.42 5.51,-21.42 4.9,-21.42 4.89,-21.42 4.9,-20.81 4.9,-20.81 5.5,-20.2 4.9,-20.19 4.9,-20.2 4.89,-19.58 4.9,-19.59 5.5,-18.97 4.9,-18.97 4.9,-18.36 4.9,-17.75 5.5,-17.75 4.9,-17.13 4.89,-17.14 4.9,-16.52 4.9,-17.14 5.5,-15.91 4.9,-15.91 4.9,-15.3 4.89,-15.3 4.9,-14.69 5.51,-14.08 4.89,-14.68 4.9,-14.08 4.9,-13.46 5.5,-13.47 4.9,-13.46 4.9,-12.86 4.89,-12.85 4.89,-12.23 5.51,-12.25 4.9,-11.62 4.9,-11.63 4.89,-11.02 5.51,-11.01 4.9,-11.02 4.89,-10.4 4.9,-9.8 4.89,-10.4 5.51,-9.18 4.9,-9.79 4.89,-9.18 4.9,-9.18 4.9,-8.57 5.51,-7.95 4.89,-8.58 4.89,-7.95 4.9,-7.96 5.51,-7.34 4.9,-7.96 4.89,-7.34 4.9,-6.73 4.89,-6.73 5.51,-6.74 4.9,-6.12 4.89,-6.73 4.9,-6.12 4.9,-5.51 5.5,-6.12 4.9,-5.5 4.9,-6.12 4.89,-4.9 5.51,-5.51 4.9,-4.89 4.89,-4.9 4.9,-4.9 4.9,-4.89 5.5,-4.29 4.9,-4.89 4.89,-4.28 4.9,-3.68 4.9,-4.28 5.5,-4.29 4.9,-3.67 4.9,-4.28 4.89,-3.67 5.51,-3.67 4.9,-3.68 4.89,-3.67 4.9,-3.06 4.89,-3.06 5.51,-3.06 4.9,-3.06 4.9,-3.06 4.89,-3.06 5.51,-3.06 4.89,-2.45 4.9,-3.06 4.9,-2.45 4.89,-3.06 5.51,-2.44 4.9,-2.45 4.89,-2.45 4.9,-2.45 4.89,-1.83 5.51,-2.45 4.9,-1.84 4.89,-2.44 4.9,-1.84 5.51,-1.84 4.9,-1.83 4.89,-1.84 4.9,-1.83 4.89,-1.84 5.51,-1.23 4.89,-1.83 4.9,-1.84 4.9,-1.22 4.89,-1.84 5.51,-1.22 4.9,-1.23 4.89,-1.22 4.9,-1.23 5.51,-1.22 4.89,-1.22 4.9,-1.23 4.9,-1.22 4.89,-1.22 5.51,-1.23 4.9,-1.22 4.89,-0.62 4.9,-1.22 5.5,-0.61 4.9,-1.22 4.9,-0.62 4.9,-1.22 4.89,-0.61 5.51,-1.23 4.89,-0.61 4.9,-0.61 4.9,-0.61 4.89,-1.22 5.51,-0.62 4.9,-0.61 4.89,-0.61 4.9,-0.61 5.51,-0.62 4.89,-0.61 4.9,-0.61 4.89,-0.61 4.9,-0.61 5.51,-0.62 4.9,-0.61 4.89,-0.61 h 4.89 l 4.9,-0.61 5.51,-0.61 h 4.9 l 4.89,-0.61 4.9,-0.62 h 5.51 l 4.89,-0.61 h 4.9 l 4.89,-0.61 h 4.9 5.51 l 4.89,-0.61 h 4.9 4.9 4.89 5.51 4.9 4.89 4.9 5.51 4.89 l 4.9,0.61 4.89,0.61 4.9,1.23 5.51,0.61 h 4.89 4.9 4.9 l 5.5,-0.61 4.9,-0.62 4.9,-1.83 4.89,-1.23 4.9,-0.61 5.51,-0.61 4.89,-0.61 4.9,-0.62 4.9,0.62 h 4.89 l 5.51,1.22 4.89,1.22 4.9,1.23 4.9,1.22 5.5,0.62 4.9,1.22 4.9,1.83 4.89,1.84 h 0.61" /><path
         id="path132"
         style="fill:none;stroke:#ff0000;stroke-width:18.36000061;stroke-linecap:butt;stroke-linejoin:miter;stroke-miterlimit:10;stroke-dasharray:none;stroke-opacity:1"
         d="m 4235.65,3254.62 h 91.19 l 5.51,0.61 h 281.52 l 4.9,0.61 h 4.89 4.89 5.51 4.9 4.9 4.89 4.9 5.51 4.89 4.9 l 4.89,0.61 h 4.9 5.51 4.89 4.9 4.9 5.51 l 4.89,0.61 h 4.89 4.9 4.9 5.51 l 4.89,0.62 h 4.9 4.89 4.9 l 5.51,0.61 h 4.89 4.9 l 4.9,0.61 h 5.5 l 4.9,0.61 h 4.9 l 4.89,0.62 h 4.9 5.51 l 4.89,0.6 h 4.9 l 4.9,0.62 h 4.89 l 5.51,0.61 4.89,0.61 h 4.9 l 4.9,0.61 5.5,0.62 h 4.9 l 4.9,0.61 4.89,0.61 4.9,0.61 5.51,0.61 4.89,0.62 4.9,0.61 4.89,1.22 5.51,0.61 4.9,1.23 4.9,1.22 4.89,0.61 4.89,0.62 5.52,0.61 4.89,1.22 4.9,0.62 4.89,0.61 4.9,0.61 5.51,1.22 4.89,0.61 4.9,1.23 4.89,0.61 5.51,1.22 4.9,1.23 4.89,1.22 4.9,0.62 4.9,1.22 5.5,1.22 4.9,1.23 4.9,1.22 4.89,1.22 4.9,1.84 5.5,1.23 4.9,1.22 4.9,1.83 4.9,1.23 5.5,1.83 4.9,1.84 4.89,1.22 4.9,1.84 4.9,1.84 5.5,1.83 4.9,2.45 4.9,1.84 4.89,1.83 5.51,2.45 4.9,1.84 4.89,2.44 4.9,2.45 4.9,2.45 5.5,2.45 4.9,2.45 4.9,2.44 4.89,3.07 4.89,2.44 5.51,3.06 4.9,3.06 4.9,3.06 4.89,3.06 5.51,3.06 4.9,3.67 4.89,3.07 4.9,3.67 4.89,3.67 5.51,3.67 4.9,3.67 4.89,3.67 4.9,3.68 4.9,4.28 5.51,4.28 4.89,4.29 4.89,4.28 4.9,4.28 5.51,4.9 4.9,4.9 4.89,4.9 4.9,4.89 4.89,5.51 5.51,5.51 4.9,5.5 4.89,5.51 4.9,5.51 4.9,6.12 5.5,6.12 4.9,6.12 4.9,6.73 4.89,6.73 5.51,6.73 4.89,6.74 4.9,7.34 4.9,7.35 4.9,7.34 5.5,7.96 4.9,7.34 4.89,8.57 4.9,7.95 5.51,8.57 4.89,8.57 4.9,9.18 4.9,9.18 4.89,9.18 5.51,9.18 4.9,9.79 4.89,9.8 4.9,9.78 4.89,10.41 5.51,10.4 4.9,10.41 4.9,11.02 4.89,11.01 5.51,11.63 4.9,11.62 4.89,11.63 4.9,11.63 4.89,11.63 5.51,12.24 4.9,12.24 4.89,12.85 4.9,12.86 4.89,14.07 5.51,14.08 4.9,14.68 4.89,14.69 4.9,15.3 5.51,15.91 4.9,15.92 4.89,15.91 4.9,15.91 4.89,16.53 5.51,16.52 4.89,16.52 4.9,17.14 4.9,17.14 5.51,17.13 4.89,17.75 4.9,18.36 4.89,18.97 4.9,19.58 5.51,19.59 4.89,20.81 4.9,20.81 4.9,21.41 4.89,20.81 5.51,20.81 4.9,19.58 4.89,20.81 4.9,22.03 5.5,23.26 4.9,23.87 4.9,23.86 4.9,22.65 4.89,22.64 5.51,22.03 4.89,21.43 4.9,21.41 4.9,20.2 4.89,20.81 5.51,19.58 4.9,18.98 4.89,18.97 4.9,17.75 5.51,17.13 4.89,15.91 4.9,15.3 4.89,14.69 4.9,13.47 5.51,13.46 4.9,13.47 4.89,12.23 4.89,11.02 4.9,11.02 5.51,10.4 4.9,9.79 4.89,9.79 4.9,9.18 5.51,9.18 4.89,7.96 4.9,7.96 4.89,6.73 4.9,6.12 5.51,5.51 4.89,3.67 4.9,3.06 4.9,3.06 5.51,3.06 4.89,2.45 4.89,3.06 4.9,1.83 4.9,1.84 5.51,0.61 4.89,0.61 4.9,0.61 4.89,0.62 h 4.9 l 5.51,1.22 4.89,1.23 4.9,1.22 4.9,1.22 h 5.5 l 4.9,-1.83 4.9,-3.06 4.89,-4.29 4.9,-4.89 5.51,-6.12 4.89,-7.35 4.9,-8.56 4.9,-9.18 4.89,-11.02 5.51,-11.63 4.9,-12.24 4.89,-13.47 4.9,-13.46 5.5,-14.68 4.9,-15.3 4.9,-16.53 4.89,-17.13 4.9,-17.75 5.51,-17.75 4.89,-18.36 4.9,-18.97 4.89,-18.98 4.9,-19.58 5.51,-20.81 4.9,-20.8 4.89,-22.04 4.9,-22.03 5.51,-22.64 4.89,-22.65 4.9,-22.64 4.89,-22.65 4.9,-22.03 5.51,-22.03 4.89,-22.03 4.9,-22.03 4.89,-21.42 5.51,-21.42 4.9,-21.42 4.89,-20.81 4.9,-20.81 4.9,-20.81 5.5,-20.19 4.9,-20.2 4.9,-19.58 4.89,-19.59 4.9,-19.58 5.5,-18.98 4.9,-18.97 4.9,-18.36 4.9,-17.74 5.5,-17.75 4.9,-17.14 4.89,-16.52 4.9,-17.14 4.9,-16.52 5.5,-15.91 4.9,-15.91 4.9,-15.3 4.89,-14.69 4.9,-14.69 5.51,-14.69 4.89,-14.08 4.9,-14.07 4.9,-14.08 5.5,-13.46 4.9,-12.85 4.9,-12.86 4.89,-12.24 4.89,-12.24 5.51,-12.23 4.9,-11.63 4.9,-11.63 4.89,-11.02 5.51,-11.01 4.9,-10.41 4.89,-10.4 4.9,-10.4 4.89,-9.8 5.51,-9.79 4.9,-9.18 4.89,-9.79 4.9,-8.57 4.9,-8.57 5.51,-8.57 4.89,-7.95 4.89,-7.96 4.9,-7.95 5.51,-7.35 4.9,-7.95 4.89,-6.73 4.9,-7.35 4.89,-6.73 5.51,-6.12 4.9,-6.73 4.89,-6.13 4.9,-5.5 4.9,-6.12 5.5,-5.51 4.9,-6.12 4.9,-5.51 4.89,-4.9 5.51,-5.5 4.9,-4.9 4.89,-4.89 4.9,-4.9 4.9,-4.28 5.5,-4.9 4.9,-4.29 4.89,-4.28 4.9,-3.67 4.9,-4.28 5.5,-4.29 4.9,-3.67 4.9,-3.67 4.89,-3.67 5.51,-3.68 4.9,-3.67 4.89,-3.67 4.9,-3.06 4.89,-3.06 5.51,-3.06 4.9,-3.06 4.9,-3.06 4.89,-2.45 5.51,-3.06 4.89,-3.06 4.9,-2.45 4.9,-2.44 4.89,-2.45 5.51,-2.45 4.9,-2.45 4.89,-2.44 4.9,-2.45 4.89,-1.84 5.51,-2.45 4.9,-1.84 4.89,-1.83 4.9,-2.45 5.51,-1.83 4.9,-1.84 4.89,-1.83 4.9,-1.23 4.89,-1.84 5.51,-1.83 4.89,-1.23 4.9,-1.83 4.9,-1.22 4.89,-1.84 5.51,-1.23 4.9,-1.22 4.89,-1.23 4.9,-1.22 5.51,-1.22 4.89,-1.23 4.9,-1.22 4.9,-1.22 4.89,-1.23 5.51,-1.22 4.9,-0.62 4.89,-1.22 4.9,-0.61 5.5,-1.22 4.9,-0.62 4.9,-1.22 4.9,-0.61 4.89,-1.23 5.51,-0.61 4.89,-0.61 4.9,-0.61 4.9,-1.22 4.89,-0.62 5.51,-0.61 4.9,-0.61 4.89,-0.61 4.9,-0.62 5.51,-0.61 4.89,-0.61 4.9,-0.61 4.89,-0.61 4.9,-0.62 5.51,-0.61 4.9,-0.61 h 4.89 l 4.89,-0.61 4.9,-0.61 5.51,-0.61 h 4.9 l 4.89,-0.62 h 4.9 l 5.51,-0.61 4.89,-0.61 h 4.9 4.89 l 4.9,-0.61 h 5.51 4.89 l 4.9,-0.62 h 4.9 4.89 5.51 4.9 4.89 4.9 5.51 l 4.89,0.62 h 4.9 l 4.89,1.22 4.9,0.61 5.51,0.62 h 4.89 4.9 4.9 l 5.5,-0.62 4.9,-0.61 4.9,-1.22 4.89,-1.23 4.9,-1.22 5.51,-0.61 4.89,-0.62 h 4.9 4.9 l 4.89,0.62 5.51,0.61 4.89,1.22 4.9,1.23 4.9,1.22 5.5,1.23 4.9,1.22 4.9,1.83 4.89,1.84 h 0.61" /><path
         id="path134"
         style="fill:none;stroke:#0000ff;stroke-width:18.36000061;stroke-linecap:butt;stroke-linejoin:miter;stroke-miterlimit:10;stroke-dasharray:none;stroke-opacity:1"
         d="m 4235.65,3257.06 h 15.3 l 18.98,0.62 h 57.52 l 18.98,0.61 h 18.96 l 18.98,0.61 h 18.97 l 18.97,0.61 h 19.58 l 18.98,0.62 18.97,0.6 18.97,0.62 18.98,0.61 18.97,0.61 18.97,0.61 19.58,0.62 18.98,0.61 18.97,1.22 18.97,1.23 18.97,0.61 18.97,1.83 18.97,1.23 19.59,1.22 18.97,1.84 18.97,1.84 18.97,1.83 18.98,2.45 18.97,2.45 19.58,3.05 18.97,3.07 18.98,3.06 18.97,3.67 18.97,3.67 18.97,4.89 18.97,4.29 19.59,5.51 18.97,5.51 18.97,6.73 18.97,6.73 18.98,7.96 18.97,7.95 18.97,9.18 19.58,10.41 18.98,11.01 18.97,11.63 18.97,13.47 18.97,14.07 18.97,15.91 19.59,17.14 18.97,18.97 18.97,20.81 18.97,22.64 18.98,24.48 18.97,26.93 19.58,29.38 18.97,31.82 18.98,35.5 18.97,38.55 18.97,42.84 18.97,46.51 18.97,50.19 19.59,53.85 18.97,58.14 18.97,62.43 18.97,66.09 18.98,70.39 18.97,74.05 18.97,77.72 19.58,81.4 18.98,83.23 18.97,82.62 18.97,79.56 18.97,72.83 18.98,64.87 19.58,53.85 18.97,42.84 18.97,29.99 18.98,17.14 18.96,7.95 18.98,2.45 18.97,-0.61 19.59,-4.28 18.96,-11.02 18.98,-22.64 18.97,-36.72 18.97,-50.19 18.98,-61.2 18.97,-69.77 19.58,-75.88 18.97,-80.79 18.98,-83.84 18.97,-84.46 18.97,-82.62 18.97,-78.34 19.59,-74.05 18.97,-70.38 18.97,-65.48 18.97,-61.81 18.97,-58.14 18.97,-53.24 18.98,-49.58 19.58,-45.28 18.97,-42.23 18.97,-38.56 18.98,-35.5 18.97,-31.82 18.97,-29.99 19.58,-26.31 18.98,-24.48 18.97,-22.04 18.97,-20.19 18.97,-17.75 18.97,-16.52 18.98,-14.08 19.58,-13.46 18.97,-11.63 18.97,-10.41 18.98,-9.79 18.97,-7.96 18.97,-7.95 19.58,-6.73 18.98,-6.12 18.97,-4.9 18.97,-4.89 18.97,-4.29 18.97,-3.67 18.98,-3.67 19.58,-3.06 18.97,-2.45 18.97,-2.45 18.98,-2.44 18.97,-1.84 18.97,-1.84 18.97,-1.22 19.59,-1.23 18.97,-1.22 18.97,-1.22 18.97,-0.62 18.97,-0.61 18.98,-0.61 19.58,-0.61 18.97,-2.45 18.97,-2.45 6.12,-1.22" /><path
         id="path136"
         style="fill:none;stroke:#000000;stroke-width:9.18000031;stroke-linecap:butt;stroke-linejoin:miter;stroke-miterlimit:10;stroke-dasharray:none;stroke-opacity:1"
         d="M 4236.27,3254.62 H 7001.89" /><path
         id="path138"
         style="fill:none;stroke:#000000;stroke-width:9.18000031;stroke-linecap:butt;stroke-linejoin:miter;stroke-miterlimit:10;stroke-dasharray:none;stroke-opacity:1"
         d="M 4236.27,5202 H 7001.89" /><path
         id="path140"
         style="fill:none;stroke:#000000;stroke-width:9.18000031;stroke-linecap:butt;stroke-linejoin:miter;stroke-miterlimit:10;stroke-dasharray:none;stroke-opacity:1"
         d="m 4739.33,3254.62 v 61.2" /><path
         id="path142"
         style="fill:none;stroke:#000000;stroke-width:9.18000031;stroke-linecap:butt;stroke-linejoin:miter;stroke-miterlimit:10;stroke-dasharray:none;stroke-opacity:1"
         d="m 4739.33,5202 v -61.2" /><path
         id="path144"
         style="fill:none;stroke:#000000;stroke-width:9.18000031;stroke-linecap:butt;stroke-linejoin:miter;stroke-miterlimit:10;stroke-dasharray:none;stroke-opacity:1"
         d="m 5744.84,3254.62 v 61.2" /><path
         id="path146"
         style="fill:none;stroke:#000000;stroke-width:9.18000031;stroke-linecap:butt;stroke-linejoin:miter;stroke-miterlimit:10;stroke-dasharray:none;stroke-opacity:1"
         d="m 5744.84,5202 v -61.2" /><path
         id="path148"
         style="fill:none;stroke:#000000;stroke-width:9.18000031;stroke-linecap:butt;stroke-linejoin:miter;stroke-miterlimit:10;stroke-dasharray:none;stroke-opacity:1"
         d="m 4236.27,3254.62 v 122.4" /><path
         id="path150"
         style="fill:none;stroke:#000000;stroke-width:9.18000031;stroke-linecap:butt;stroke-linejoin:miter;stroke-miterlimit:10;stroke-dasharray:none;stroke-opacity:1"
         d="M 4236.27,5202 V 5079.6" /><path
         id="path152"
         style="fill:none;stroke:#000000;stroke-width:9.18000031;stroke-linecap:butt;stroke-linejoin:miter;stroke-miterlimit:10;stroke-dasharray:none;stroke-opacity:1"
         d="m 5242.39,3254.62 v 122.4" /><path
         id="path154"
         style="fill:none;stroke:#000000;stroke-width:9.18000031;stroke-linecap:butt;stroke-linejoin:miter;stroke-miterlimit:10;stroke-dasharray:none;stroke-opacity:1"
         d="M 5242.39,5202 V 5079.6" /><g
         transform="scale(10)"
         id="g156"><text
           id="text162"
           style="font-variant:normal;font-weight:normal;font-size:17.13599968px;font-family:'Times New Roman';-inkscape-font-specification:Times-Roman;writing-mode:lr-tb;fill:#000000;fill-opacity:1;fill-rule:nonzero;stroke:none"
           transform="matrix(1,0,0,-1,411.08,526.565)"><tspan
             id="tspan158"
             y="0"
             x="0 8.5679998 17.136 100.55148 109.11948 117.68748">200400</tspan><tspan
             id="tspan160"
             y="-24.7246"
             x="112.669">p</tspan></text>
<text
           id="text166"
           style="font-variant:normal;font-weight:normal;font-size:12.11760044px;font-family:'Times New Roman';-inkscape-font-specification:Times-Roman;writing-mode:lr-tb;fill:#000000;fill-opacity:1;fill-rule:nonzero;stroke:none"
           transform="matrix(1,0,0,-1,532.3783,544.4353)"><tspan
             id="tspan164"
             y="0"
             x="0">z</tspan></text>
<text
           id="text170"
           style="font-variant:normal;font-weight:normal;font-size:17.13599968px;font-family:'Times New Roman';-inkscape-font-specification:Times-Roman;writing-mode:lr-tb;fill:#000000;fill-opacity:1;fill-rule:nonzero;stroke:none"
           transform="matrix(1,0,0,-1,541.98652,551.2896)"><tspan
             id="tspan168"
             y="0"
             x="0 5.7062879 20.940191 28.548576 40.920769 45.684574 53.292961">(MeV/c)</tspan></text>
</g><path
         id="path172"
         style="fill:none;stroke:#000000;stroke-width:9.18000031;stroke-linecap:butt;stroke-linejoin:miter;stroke-miterlimit:10;stroke-dasharray:none;stroke-opacity:1"
         d="M 4236.27,3254.62 V 5202" /><path
         id="path174"
         style="fill:none;stroke:#000000;stroke-width:9.18000031;stroke-linecap:butt;stroke-linejoin:miter;stroke-miterlimit:10;stroke-dasharray:none;stroke-opacity:1"
         d="m 4236.27,3498.19 h 61.19" /><path
         id="path176"
         style="fill:none;stroke:#000000;stroke-width:9.18000031;stroke-linecap:butt;stroke-linejoin:miter;stroke-miterlimit:10;stroke-dasharray:none;stroke-opacity:1"
         d="m 4236.27,3984.73 h 61.19" /><path
         id="path178"
         style="fill:none;stroke:#000000;stroke-width:9.18000031;stroke-linecap:butt;stroke-linejoin:miter;stroke-miterlimit:10;stroke-dasharray:none;stroke-opacity:1"
         d="m 4236.27,4471.88 h 61.19" /><path
         id="path180"
         style="fill:none;stroke:#000000;stroke-width:9.18000031;stroke-linecap:butt;stroke-linejoin:miter;stroke-miterlimit:10;stroke-dasharray:none;stroke-opacity:1"
         d="m 4236.27,4958.43 h 61.19" /><path
         id="path182"
         style="fill:none;stroke:#000000;stroke-width:9.18000031;stroke-linecap:butt;stroke-linejoin:miter;stroke-miterlimit:10;stroke-dasharray:none;stroke-opacity:1"
         d="m 4236.27,3254.62 h 122.39" /><path
         id="path184"
         style="fill:none;stroke:#000000;stroke-width:9.18000031;stroke-linecap:butt;stroke-linejoin:miter;stroke-miterlimit:10;stroke-dasharray:none;stroke-opacity:1"
         d="m 4236.27,3741.77 h 122.39" /><path
         id="path186"
         style="fill:none;stroke:#000000;stroke-width:9.18000031;stroke-linecap:butt;stroke-linejoin:miter;stroke-miterlimit:10;stroke-dasharray:none;stroke-opacity:1"
         d="m 4236.27,4228.31 h 122.39" /><path
         id="path188"
         style="fill:none;stroke:#000000;stroke-width:9.18000031;stroke-linecap:butt;stroke-linejoin:miter;stroke-miterlimit:10;stroke-dasharray:none;stroke-opacity:1"
         d="m 4236.27,4715.46 h 122.39" /><path
         id="path190"
         style="fill:none;stroke:#000000;stroke-width:9.18000031;stroke-linecap:butt;stroke-linejoin:miter;stroke-miterlimit:10;stroke-dasharray:none;stroke-opacity:1"
         d="m 4236.27,5202 h 122.39" /><path
         id="path192"
         style="fill:none;stroke:#000000;stroke-width:9.18000031;stroke-linecap:butt;stroke-linejoin:miter;stroke-miterlimit:10;stroke-dasharray:none;stroke-opacity:1"
         d="M 4236.27,3254.62 V 5202 H 7001.89 V 3254.62 Z" /><path
         id="path194"
         style="fill:#ffffff;fill-opacity:1;fill-rule:nonzero;stroke:none"
         d="m 3139.56,3633.45 h 2306.02 v 812.734 H 3139.56 Z" /><path
         id="path196"
         style="fill:none;stroke:#000000;stroke-width:9.18000031;stroke-linecap:butt;stroke-linejoin:miter;stroke-miterlimit:10;stroke-dasharray:none;stroke-opacity:1"
         d="m 3139.56,4446.18 v -812.73 h 2306.02 v 812.73 z" /><g
         transform="scale(10)"
         id="g198"><text
           id="text202"
           style="font-variant:normal;font-weight:normal;font-size:17.13599968px;font-family:'Times New Roman';-inkscape-font-specification:Times-Roman;writing-mode:lr-tb;fill:#000000;fill-opacity:1;fill-rule:nonzero;stroke:none"
           transform="matrix(1,0,0,-1,357.714,420.016)"><tspan
             id="tspan200"
             y="0"
             x="0 12.372192">Vp</tspan></text>
<text
           id="text206"
           style="font-variant:normal;font-weight:normal;font-size:12.11760044px;font-family:'Times New Roman';-inkscape-font-specification:Times-Roman;writing-mode:lr-tb;fill:#000000;fill-opacity:1;fill-rule:nonzero;stroke:none"
           transform="matrix(1,0,0,-1,378.5831,430.2976)"><tspan
             id="tspan204"
             y="0"
             x="0 6.0588002">11</tspan></text>
<text
           id="text210"
           style="font-variant:normal;font-weight:normal;font-size:17.13599968px;font-family:'Times New Roman';-inkscape-font-specification:Times-Roman;writing-mode:lr-tb;fill:#000000;fill-opacity:1;fill-rule:nonzero;stroke:none"
           transform="matrix(1,0,0,-1,390.5784,420.016)"><tspan
             id="tspan208"
             y="0"
             x="0 11.429712 19.038095 23.322096 32.849712 45.221905 55.692001 68.064194">Be FOLD </tspan></text>
<text
           id="text214"
           style="font-variant:normal;font-weight:normal;font-size:17.13599968px;font-family:Symbol;-inkscape-font-specification:Symbol;writing-mode:lr-tb;fill:#000000;fill-opacity:1;fill-rule:nonzero;stroke:none"
           transform="matrix(1,0,0,-1,462.8554,420.016)"><tspan
             id="tspan212"
             y="0"
             x="0">σ</tspan></text>
<text
           id="text218"
           style="font-variant:normal;font-weight:normal;font-size:17.13599968px;font-family:'Times New Roman';-inkscape-font-specification:Times-Roman;writing-mode:lr-tb;fill:#000000;fill-opacity:1;fill-rule:nonzero;stroke:none"
           transform="matrix(1,0,0,-1,473.137,420.016)"><tspan
             id="tspan216"
             y="0"
             x="0 9.6647043 18.232704 26.800703 31.084703 39.652702 43.936703 57.268513">=21.1 mb</tspan></text>
</g><path
         id="path220"
         style="fill:none;stroke:#000000;stroke-width:18.36000061;stroke-linecap:butt;stroke-linejoin:miter;stroke-miterlimit:10;stroke-dasharray:none;stroke-opacity:1"
         d="m 3209.94,4273.6 h 244.8" /><g
         transform="scale(10)"
         id="g222"><text
           id="text226"
           style="font-variant:normal;font-weight:normal;font-size:17.13599968px;font-family:'Times New Roman';-inkscape-font-specification:Times-Roman;writing-mode:lr-tb;fill:#000000;fill-opacity:1;fill-rule:nonzero;stroke:none"
           transform="matrix(1,0,0,-1,357.714,391.619)"><tspan
             id="tspan224"
             y="0"
             x="0 12.372192">Vp</tspan></text>
<text
           id="text230"
           style="font-variant:normal;font-weight:normal;font-size:12.11760044px;font-family:'Times New Roman';-inkscape-font-specification:Times-Roman;writing-mode:lr-tb;fill:#000000;fill-opacity:1;fill-rule:nonzero;stroke:none"
           transform="matrix(1,0,0,-1,378.5831,401.9006)"><tspan
             id="tspan228"
             y="0"
             x="0 6.0588002">11</tspan></text>
<text
           id="text234"
           style="font-variant:normal;font-weight:normal;font-size:17.13599968px;font-family:'Times New Roman';-inkscape-font-specification:Times-Roman;writing-mode:lr-tb;fill:#000000;fill-opacity:1;fill-rule:nonzero;stroke:none"
           transform="matrix(1,0,0,-1,390.5784,391.619)"><tspan
             id="tspan232"
             y="0"
             x="0 11.429712 19.038095 23.322096 35.694286 48.066479">Be KD </tspan></text>
<text
           id="text238"
           style="font-variant:normal;font-weight:normal;font-size:17.13599968px;font-family:Symbol;-inkscape-font-specification:Symbol;writing-mode:lr-tb;fill:#000000;fill-opacity:1;fill-rule:nonzero;stroke:none"
           transform="matrix(1,0,0,-1,442.9042,391.619)"><tspan
             id="tspan236"
             y="0"
             x="0">σ</tspan></text>
<text
           id="text242"
           style="font-variant:normal;font-weight:normal;font-size:17.13599968px;font-family:'Times New Roman';-inkscape-font-specification:Times-Roman;writing-mode:lr-tb;fill:#000000;fill-opacity:1;fill-rule:nonzero;stroke:none"
           transform="matrix(1,0,0,-1,453.2472,391.619)"><tspan
             id="tspan240"
             y="0"
             x="0 9.6647043 18.232704 26.800703 31.084703 39.652702 43.936703 57.268513">=21.0 mb</tspan></text>
</g><path
         id="path244"
         style="fill:none;stroke:#ff0000;stroke-width:18.36000061;stroke-linecap:butt;stroke-linejoin:miter;stroke-miterlimit:10;stroke-dasharray:none;stroke-opacity:1"
         d="m 3209.94,3989.63 h 244.8" /><g
         transform="scale(10)"
         id="g246"><text
           id="text250"
           style="font-variant:normal;font-weight:normal;font-size:17.13599968px;font-family:'Times New Roman';-inkscape-font-specification:Times-Roman;writing-mode:lr-tb;fill:#000000;fill-opacity:1;fill-rule:nonzero;stroke:none"
           transform="matrix(1,0,0,-1,357.714,369.893)"><tspan
             id="tspan248"
             y="0"
             x="0 9.5276155 17.136 25.704 34.271999 41.880383 49.48877 58.056767">Faddeev </tspan></text>
<text
           id="text254"
           style="font-variant:normal;font-weight:normal;font-size:17.13599968px;font-family:Symbol;-inkscape-font-specification:Symbol;writing-mode:lr-tb;fill:#000000;fill-opacity:1;fill-rule:nonzero;stroke:none"
           transform="matrix(1,0,0,-1,420.1378,369.893)"><tspan
             id="tspan252"
             y="0"
             x="0">σ</tspan></text>
<text
           id="text258"
           style="font-variant:normal;font-weight:normal;font-size:17.13599968px;font-family:'Times New Roman';-inkscape-font-specification:Times-Roman;writing-mode:lr-tb;fill:#000000;fill-opacity:1;fill-rule:nonzero;stroke:none"
           transform="matrix(1,0,0,-1,430.4194,369.893)"><tspan
             id="tspan256"
             y="0"
             x="0 9.6647043 18.232704 26.800703 31.084703 39.652702 43.936703 57.268513">=22.9 mb</tspan></text>
</g><path
         id="path260"
         style="fill:none;stroke:#0000ff;stroke-width:18.36000061;stroke-linecap:butt;stroke-linejoin:miter;stroke-miterlimit:10;stroke-dasharray:none;stroke-opacity:1"
         d="m 3209.94,3755.84 h 244.8" /><path
         id="path262"
         style="fill:none;stroke:#0000ff;stroke-width:18.36000061;stroke-linecap:butt;stroke-linejoin:miter;stroke-miterlimit:10;stroke-dasharray:none;stroke-opacity:1"
         d="m 918,918 92.41,0.613 91.8,0.61 92.42,1.836 91.8,5.507 92.41,11.629 92.41,22.645 91.8,41.62 92.41,72.21 92.41,120.56 18.36,31.83 18.36,34.89 18.36,38.55 18.36,42.23 18.36,46.51 18.36,50.8 18.36,55.08 18.97,58.75 18.36,63.65 18.37,67.32 18.36,70.99 18.35,75.28 18.36,78.94 18.36,81.4 18.36,82.01 18.98,79.56 18.35,74.05 18.36,66.09 18.37,55.7 18.36,43.45 18.36,31.82 18.36,19.58 18.36,10.41 18.97,5.51 18.36,3.06 h 18.36 l 18.36,-4.9 18.36,-12.24 18.36,-24.48 18.36,-34.88 18.36,-46.51 18.97,-54.47 18.36,-60.59 18.36,-64.87 18.36,-68.55 18.36,-70.99 18.36,-70.99 18.36,-69.77 18.36,-66.71 18.97,-63.03 18.36,-59.37 18.36,-55.69 18.36,-52.02 18.36,-48.96 18.36,-45.9 18.36,-42.84 18.36,-40.39 18.97,-37.33 18.36,-34.89 18.36,-31.82 91.8,-129.13 92.42,-86.3 92.41,-57.52 91.8,-37.335 92.41,-24.481 92.41,-15.91 91.8,-9.793 92.41,-6.73 91.8,-4.285 92.41,-2.45 92.42,-1.222 0.61,-0.614" /><path
         id="path264"
         style="fill:none;stroke:#000000;stroke-width:18.36000061;stroke-linecap:butt;stroke-linejoin:miter;stroke-miterlimit:10;stroke-dasharray:none;stroke-opacity:1"
         d="m 1378.84,919.836 h 3.05 l 3.07,1.223 3.06,0.613 h 3.05 3.68 3.06 l 3.06,0.613 h 3.06 3.06 l 3.06,0.61 h 3.06 3.06 l 3.06,0.613 h 3.06 3.06 l 3.06,0.613 h 3.67 l 3.06,0.609 h 3.06 3.06 l 3.06,0.614 h 3.06 l 3.06,0.613 3.06,-0.613 3.06,0.613 3.06,4.281 3.06,2.45 3.06,0.613 3.67,0.609 3.06,0.613 3.06,0.614 3.06,0.609 3.06,1.227 3.06,0.613 3.06,0.609 3.06,0.614 3.06,0.613 3.06,1.223 3.06,0.613 3.06,0.609 3.67,1.227 3.06,0.609 3.06,0.613 3.07,1.223 3.05,0.613 3.06,1.223 3.07,1.227 3.05,0.609 3.06,1.227 3.07,1.222 3.05,1.223 3.06,1.226 3.67,1.223 3.07,1.223 3.06,1.226 3.06,1.223 3.06,1.223 3.06,1.226 3.06,1.223 3.06,1.836 3.05,1.222 3.07,1.836 3.06,1.227 3.05,1.836 3.68,1.222 3.06,1.836 3.06,1.836 3.06,1.836 3.06,1.836 3.06,1.227 3.06,2.445 3.06,1.836 3.06,1.836 3.06,1.836 3.06,1.836 3.06,2.449 3.67,1.836 3.06,2.449 3.06,2.446 3.06,1.835 3.06,2.45 3.06,2.45 3.06,2.44 3.06,2.45 3.06,2.45 3.06,3.06 3.06,2.45 3.06,3.06 3.67,2.45 3.06,2.45 3.06,3.06 3.06,3.05 3.06,2.45 3.06,3.06 3.06,3.07 3.06,3.05 3.06,3.06 3.06,3.68 3.06,3.06 3.06,3.67 3.67,3.67 3.06,3.06 3.06,3.67 3.07,3.67 3.05,3.67 3.06,4.29 3.07,3.67 3.05,4.29 3.06,3.67 3.07,4.28 3.05,4.29 3.06,4.28 3.67,4.89 3.07,4.29 3.06,4.89 3.06,4.29 3.06,4.9 3.06,4.89 3.06,4.9 3.06,5.5 3.05,4.9 3.07,5.51 3.06,5.51 3.05,4.89 3.68,6.12 3.06,5.51 3.06,5.51 3.06,5.51 3.06,6.12 3.06,6.12 3.06,5.51 3.06,6.73 3.06,6.12 3.06,6.12 3.06,6.73 3.06,6.73 3.67,6.74 3.06,6.73 3.06,6.73 3.06,6.73 3.06,6.73 3.06,7.35 3.06,7.34 3.06,7.34 3.06,7.35 3.06,7.34 3.06,7.96 3.06,7.95 3.67,7.96 3.06,7.35 3.06,7.95 3.06,7.34 3.06,7.96 3.06,7.96 3.06,7.95 3.06,8.57 3.06,8.57 3.06,9.18 3.06,8.57 3.06,9.18 3.67,9.18 3.07,9.79 3.05,9.79 3.06,9.79 3.06,9.79 3.06,10.41 3.07,9.79 3.05,10.41 3.06,11.01 3.07,10.4 3.05,11.02 3.06,11.01 3.67,11.02 3.07,11.02 3.06,11.02 3.05,10.4 3.07,10.4 3.06,11.02 3.06,11.01 3.06,11.02 3.06,11.63 3.06,11.62 3.06,12.25 3.05,11.63 3.68,12.23 3.06,12.25 3.06,12.85 3.06,12.85 3.06,12.85 3.06,13.47 3.06,12.85 3.06,13.46 3.06,12.85 3.06,13.46 3.06,13.47 3.06,13.46 3.67,13.47 3.06,13.46 3.06,14.08 3.06,14.69 3.06,15.3 3.06,15.3 3.06,14.68 3.06,14.69 3.06,14.08 3.06,14.07 3.06,14.08 3.67,13.46 3.06,12.86 3.06,12.85 3.06,12.85 3.06,12.24 3.06,12.24 3.06,11.63 3.06,11.63 3.06,11.63 3.06,11.01 3.06,11.02 3.06,10.4 3.67,10.41 3.06,9.78 3.07,9.8 3.05,9.79 3.06,9.18 3.06,9.18 3.06,8.57 3.07,8.57 3.05,7.95 3.06,8.57 3.07,7.34 3.05,7.96 3.68,7.34 3.05,7.35 3.07,6.73 3.06,6.73 3.05,6.73 3.07,6.74 3.06,6.11 3.06,6.13 3.06,6.12 3.06,5.5 3.06,5.51 3.06,4.9 3.67,4.9 3.06,4.89 3.06,4.89 3.06,4.29 3.06,4.29 3.06,3.05 3.06,3.07 3.06,2.44 3.06,2.45 3.06,2.45 3.06,2.45 3.06,2.44 3.67,2.45 3.06,1.84 3.06,1.84 3.06,2.44 3.06,1.84 3.06,1.83 3.06,1.23 3.06,1.84 3.06,1.22 3.06,0.61 3.06,1.22 3.06,0.62 3.67,0.61 3.06,0.61 3.06,0.61 h 3.06 3.06 3.06 l 3.06,1.84 3.06,1.22 3.06,1.23 3.06,1.22 h 3.06 3.06 l 3.67,-0.61 3.06,-1.23 3.07,-1.22 3.05,-1.84 3.06,-1.83 3.07,-3.06 3.05,-3.06 3.06,-3.06 3.06,-4.28 3.06,-3.68 3.07,-4.89 3.05,-4.9 3.68,-4.89 3.05,-5.52 3.07,-6.11 3.06,-6.12 3.05,-6.12 3.07,-6.74 3.06,-7.34 3.05,-7.34 3.07,-7.96 3.06,-7.96 3.06,-8.56 3.06,-7.96 3.67,-9.18 3.06,-8.57 3.06,-9.18 3.06,-9.18 3.06,-9.18 3.06,-9.79 3.06,-9.79 3.06,-9.79 3.06,-9.8 3.06,-10.4 3.06,-10.4 3.06,-10.41 3.67,-10.4 3.06,-10.41 3.06,-11.01 3.06,-11.02 3.06,-11.01 3.06,-10.41 3.06,-11.63 3.06,-11.62 3.06,-12.24 3.06,-12.24 3.06,-12.24 3.06,-12.24 3.67,-11.63 3.06,-12.24 3.06,-12.24 3.06,-11.63 3.06,-11.63 3.06,-11.63 3.06,-12.24 3.06,-11.62 3.06,-11.63 3.06,-11.63 3.06,-11.63 3.06,-11.01 3.67,-11.63 3.06,-11.63 3.07,-11.02 3.05,-11.01 3.06,-11.02 3.07,-11.01 3.05,-11.02 3.06,-11.01 3.06,-11.02 3.06,-10.41 3.07,-11.01 3.05,-10.4 3.68,-10.41 3.06,-10.4 3.06,-10.41 3.06,-10.4 3.05,-9.79 3.07,-10.41 3.06,-9.79 3.05,-9.79 3.07,-9.8 3.06,-9.18 3.06,-9.78 3.06,-9.18 3.67,-9.19 3.06,-9.18 3.06,-9.18 3.06,-9.18 3.06,-8.56 3.06,-9.18 3.06,-8.57 3.06,-8.57 3.06,-8.57 3.06,-8.57 3.06,-7.95 3.06,-8.57 3.67,-7.96 3.06,-7.95 3.06,-7.96 3.06,-7.95 3.06,-7.96 3.06,-7.95 3.06,-7.35 3.06,-7.35 3.06,-7.95 3.06,-7.34 3.06,-6.74 3.06,-7.34 3.67,-7.34 3.06,-6.73 3.06,-6.74 3.06,-7.34 3.06,-6.73 3.06,-6.74 3.06,-6.11 3.06,-6.74 3.06,-6.12 3.06,-6.73 3.06,-6.12 3.06,-6.12 3.67,-6.12 3.06,-6.12 3.07,-6.12 3.05,-6.12 3.06,-5.51 3.07,-6.12 3.05,-5.51 3.06,-5.5 3.07,-5.51 3.05,-5.51 3.06,-4.89 3.06,-5.51 3.68,-5.51 3.06,-4.9 3.06,-4.89 3.06,-4.9 3.05,-4.9 3.07,-4.89 3.06,-4.9 3.05,-4.89 3.07,-4.29 3.06,-4.89 3.05,-4.29 3.07,-4.28 3.67,-4.9 3.06,-4.28 3.06,-3.67 3.06,-4.29 3.06,-4.28 3.06,-4.29 3.06,-3.67 3.06,-4.28 3.06,-3.68 3.06,-3.67 3.06,-3.67 3.06,-3.67 3.67,-3.67 3.06,-3.67 3.06,-3.68 3.06,-3.67 3.06,-3.06 3.06,-3.67 3.06,-3.06 3.06,-3.06 3.06,-3.67 3.06,-3.06 3.06,-3.06 3.06,-3.06 3.67,-3.06 3.06,-3.06 3.06,-3.06 3.06,-2.45 3.06,-3.06 3.06,-3.06 3.06,-2.45 3.06,-3.06 3.06,-2.44 3.06,-2.45 3.06,-3.06 3.06,-2.45 3.67,-2.45 3.06,-2.45 3.07,-2.45 3.05,-2.44 3.06,-2.45 3.07,-2.45 3.05,-2.45 3.06,-2.45 3.07,-1.83 3.05,-2.45 3.06,-2.45 3.06,-1.83 3.68,-2.45 3.06,-1.84 3.06,-1.84 3.06,-2.44 3.06,-1.84 3.06,-1.83 3.06,-1.84 3.05,-2.45 3.07,-1.83 3.06,-1.84 3.05,-1.84 3.07,-1.83 3.67,-1.84 3.06,-1.83 3.06,-1.84 3.06,-1.23 3.06,-1.83 3.06,-1.84 3.06,-1.83 3.06,-1.23 3.06,-1.83 3.06,-1.84 3.06,-1.22 3.06,-1.84 3.67,-1.22 3.06,-1.84 3.06,-1.22 3.06,-1.84 3.06,-1.22 3.06,-1.23 3.06,-1.83 3.06,-1.23 3.06,-1.22 3.06,-1.22 3.06,-1.84 3.06,-1.22 3.67,-1.23 3.06,-1.22 3.06,-1.23 3.06,-1.22 3.06,-1.22 3.06,-1.23 3.06,-1.22 3.06,-1.23 3.06,-1.22 3.06,-1.225 3.06,-1.223 3.06,-0.613 3.67,-1.223 3.06,-1.223 3.07,-1.226 3.05,-1.223 3.06,-0.613 3.07,-1.223 3.05,-1.223 3.06,-0.613 3.07,-1.222 3.05,-0.614 3.06,-1.222 3.07,-0.614 3.67,-1.222 3.06,-0.614 3.06,-1.222 3.06,-0.614 3.06,-1.222 3.06,-0.613 3.06,-1.223 3.05,-0.613 3.07,-0.614 3.06,-1.222 3.05,-0.614 3.07,-0.609 3.67,-0.613 3.06,-1.227 3.06,-0.609 3.06,-0.614 3.06,-0.613 3.06,-0.609 3.06,-0.613 3.06,-1.223 3.06,-0.613 3.06,-0.614 3.06,-0.609 3.06,-0.613 3.67,-0.614 3.06,-0.609 3.06,-0.613 3.06,-0.614 3.06,-0.609 3.06,-0.613 3.06,-0.613 3.06,-0.61 3.06,-0.613 3.06,-0.613 3.06,-0.61 3.06,-0.613 h 3.67 l 3.06,-0.613 3.06,-0.61 3.06,-0.613 3.06,-0.613 3.06,-0.61 h 3.06 l 3.06,-0.613 3.06,-0.613 3.06,-0.61 h 3.06 l 3.67,-0.613 3.07,-0.613 3.05,-0.61 h 3.06 l 3.06,-0.613 3.06,-0.613 h 3.07 l 3.05,-0.609 3.06,-0.614 h 3.07 l 3.05,-0.613 3.06,-0.609 h 3.67 l 3.07,-0.614 h 3.06 l 3.05,-0.613 3.07,-0.609 h 3.06 l 3.06,-0.614 h 3.06 l 3.06,-0.613 h 3.06 l 3.06,-0.609 h 3.05 l 3.68,-0.614 3.06,-0.613 h 3.06 l 3.06,-0.609 h 3.06 l 3.06,-0.614 h 3.06 l 3.06,-0.613 h 3.06 3.06 l 3.06,-0.609 h 3.06 l 3.67,-0.613 h 3.06 l 3.06,-0.614 h 3.06 l 3.06,-0.609 h 3.06 3.06 l 3.06,-0.613 h 3.06 l 3.06,-0.614 h 3.06 3.06 l 3.67,-0.609 h 3.06 l 3.06,-0.613 h 3.06 3.06 l 3.06,-0.614 h 3.06 3.06 l 3.06,-0.613 h 3.06 3.06 l 3.06,-0.609 h 3.67 3.07 l 3.05,-0.614 h 3.06 3.06 l 3.06,-0.613 h 3.07 3.05 3.06 l 3.07,-0.609 h 3.05 3.06 l 3.67,-0.613 h 3.07 3.06 3.05 l 3.07,-0.614 h 3.06 3.06 3.06 l 3.06,-0.609 h 3.06 3.06 3.05 3.68 l 3.06,-0.613 h 3.06 3.06 3.06 3.06 l 3.06,-0.614 h 3.06 3.06 3.06 3.06 l 3.06,-0.609 h 3.67 3.06 3.06 3.06 l 3.06,-0.613 h 3.06 3.06 3.06 3.06 3.06 3.06 3.06 l 3.67,-0.614 h 3.06 3.06 3.06 3.06 3.06 l 3.06,0.614 3.06,1.222 3.06,1.227 3.06,1.223 3.06,1.222 3.06,0.613 3.67,0.614 3.07,0.609 3.05,0.613 h 3.06 3.07 3.05 3.06 3.06 l 3.06,-0.613 3.07,-0.609 3.05,-0.614 3.06,-0.613 3.67,-0.609 3.07,-1.227 3.06,-0.609 3.05,-0.613 3.07,-1.223 3.06,-1.227 3.05,-0.609 3.07,-1.227 3.06,-0.609 3.06,-1.227 3.06,-0.609 3.06,-1.226 3.67,-1.223 3.06,-0.613 3.06,-0.61 3.06,2.446 3.06,2.449 3.06,0.613 h 3.06 3.06 3.06 3.06 3.06 l 3.06,-0.613 h 3.67 l 3.06,1.222 3.06,-0.609 3.06,-4.285 3.06,-1.223 3.06,1.223 3.06,1.836" /><path
         id="path266"
         style="fill:none;stroke:#ff0000;stroke-width:14.07600021;stroke-linecap:butt;stroke-linejoin:miter;stroke-miterlimit:10;stroke-dasharray:none;stroke-opacity:1"
         d="m 917.387,918 v 0 h 383.723 l 4.28,1.223 h 4.29 4.28 4.29 4.28 4.29 4.28 4.28 4.29 4.28 4.28 l 4.29,0.613 h 4.28 4.29 4.28 4.29 4.28 4.28 4.29 l 4.28,1.836 h 4.28 l 3.68,0.613 h 4.28 4.29 l 4.28,0.61 h 4.28 l 4.29,0.613 h 4.28 l 4.28,0.613 h 4.29 l 4.28,0.609 4.29,0.614 h 4.28 l 4.29,0.613 4.28,0.609 4.28,-1.222 4.29,4.285 4.28,3.672 4.28,0.609 4.29,1.227 4.28,0.609 4.29,1.227 4.28,0.613 4.29,1.223 4.28,1.222 4.28,0.614 4.29,1.222 4.28,1.227 4.29,1.222 4.28,1.223 4.28,1.227 3.68,1.222 4.28,1.836 4.28,1.223 4.29,1.836 4.28,1.226 4.28,1.836 4.29,1.836 4.28,1.836 4.29,1.836 4.28,1.836 4.29,1.836 4.28,2.445 4.28,1.836 4.29,2.449 4.28,2.45 4.29,1.836 4.28,2.449 4.28,2.445 4.29,3.063 4.28,2.445 4.29,3.062 4.28,2.446 4.28,3.062 4.29,3.059 4.28,3.058 4.29,3.67 4.28,3.06 4.28,3.68 4.29,3.67 3.67,3.67 4.28,3.67 4.29,3.67 4.28,3.68 4.29,3.67 4.28,4.28 4.28,4.28 4.29,4.29 4.28,4.28 4.29,4.9 4.28,4.28 4.28,4.9 4.29,4.9 4.28,5.51 4.29,4.89 4.28,5.51 4.28,5.51 4.29,6.12 4.28,5.5 4.29,6.13 4.28,6.11 4.28,6.74 4.29,6.12 4.28,6.73 4.29,6.73 4.28,7.34 4.28,7.35 4.29,7.34 4.28,7.35 4.29,7.34 3.67,7.95 4.28,7.96 4.29,8.57 4.28,7.96 4.28,8.57 4.29,9.18 4.28,8.56 4.29,9.18 4.28,9.18 4.28,9.79 4.29,9.18 4.28,9.8 4.29,9.79 4.28,10.4 4.28,10.4 4.29,11.02 4.28,10.41 4.29,10.4 4.28,10.4 4.29,11.02 4.28,11.02 4.28,11.62 4.29,11.63 4.28,12.24 4.28,12.24 4.29,12.86 4.28,13.46 4.29,12.85 4.28,14.08 4.29,14.07 3.67,14.08 4.28,14.69 4.28,14.68 4.29,15.3 4.28,15.31 4.29,14.68 4.28,14.08 4.29,14.68 4.28,15.31 4.28,15.3 4.29,15.91 4.28,16.52 4.28,16.53 4.29,16.52 4.28,17.75 4.29,17.75 4.28,17.74 4.29,18.37 4.28,18.36 4.28,18.35 4.29,18.36 4.28,18.36 4.28,18.36 4.29,20.2 4.28,20.81 4.29,20.81 4.28,20.19 4.29,19.59 4.28,18.97 4.28,18.36 3.67,17.74 4.29,17.75 4.28,17.14 4.29,15.91 4.28,16.53 4.29,15.3 4.28,14.68 4.28,14.69 4.29,14.08 4.28,13.46 4.28,12.86 4.29,12.85 4.28,11.63 4.29,11.62 4.28,11.02 4.29,11.02 4.28,9.79 4.28,9.79 4.29,9.79 4.28,9.18 4.28,8.57 4.29,8.57 4.28,7.95 4.29,7.96 4.28,7.34 4.29,6.74 4.28,6.11 4.28,6.12 4.29,6.13 3.67,4.28 4.28,3.67 4.29,3.06 4.28,3.67 4.29,3.06 4.28,3.06 4.28,2.45 4.29,2.45 4.28,2.45 4.28,2.44 4.29,1.84 4.28,1.23 4.29,1.22 4.28,0.61 4.29,1.22 4.28,0.62 h 4.28 l 4.29,-0.62 4.28,1.23 4.28,1.83 4.29,1.23 4.28,0.61 4.29,-0.61 4.28,-1.23 4.29,-1.83 4.28,-3.06 4.28,-3.06 4.29,-4.29 4.28,-5.5 4.28,-5.51 3.68,-6.73 4.28,-6.74 4.29,-7.95 4.28,-7.96 4.28,-8.57 4.29,-9.79 4.28,-9.79 4.28,-11.01 4.29,-11.02 4.28,-11.63 4.29,-11.63 4.28,-12.85 4.29,-12.24 4.28,-12.85 4.28,-13.46 4.29,-13.47 4.28,-14.08 4.28,-14.07 4.29,-14.08 4.28,-14.69 4.28,-14.68 4.29,-14.69 4.29,-15.3 4.28,-15.3 4.28,-15.91 4.29,-16.53 4.28,-16.52 4.28,-17.14 4.29,-15.91 4.28,-16.52 3.68,-16.53 4.28,-15.91 4.28,-15.91 4.29,-15.91 4.28,-15.92 4.28,-15.91 4.29,-15.91 4.28,-15.3 4.28,-15.3 4.29,-15.3 4.29,-14.69 4.28,-15.3 4.28,-14.69 4.29,-14.68 4.28,-14.69 4.28,-14.08 4.29,-14.69 4.28,-14.07 4.28,-13.46 4.29,-13.47 4.29,-13.46 4.28,-13.47 4.28,-12.85 4.29,-12.85 4.28,-12.85 4.28,-12.24 4.29,-12.85 4.28,-11.63 4.28,-12.24 3.68,-11.63 4.28,-11.63 4.29,-11.63 4.28,-11.01 4.28,-11.02 4.29,-11.01 4.28,-11.02 4.28,-10.41 4.29,-10.4 4.29,-10.41 4.28,-9.78 4.28,-10.41 4.29,-9.79 4.28,-9.18 4.28,-9.79 4.29,-9.19 4.28,-9.18 4.28,-8.56 4.29,-9.18 4.28,-8.57 4.29,-8.57 4.28,-8.56 4.29,-7.96 4.28,-7.96 4.28,-7.96 4.29,-7.95 4.28,-7.96 4.28,-7.34 4.29,-7.34 4.28,-7.35 3.68,-6.73 4.28,-7.35 4.28,-6.73 4.29,-6.73 4.28,-6.73 4.28,-6.12 4.29,-6.12 4.28,-6.12 4.29,-6.12 4.28,-6.12 4.29,-5.51 4.28,-6.12 4.28,-5.5 4.29,-5.51 4.28,-4.9 4.28,-5.51 4.29,-4.89 4.28,-5.51 4.29,-4.9 4.28,-4.28 4.29,-4.9 4.28,-4.89 4.28,-4.29 4.29,-4.28 4.28,-4.29 4.29,-4.28 4.28,-4.28 4.28,-4.29 4.29,-3.67 4.28,-3.67 3.67,-4.29 4.29,-3.67 4.28,-3.67 4.28,-3.06 4.29,-3.67 4.28,-3.67 4.29,-3.06 4.28,-3.68 4.29,-3.06 4.28,-3.06 4.28,-3.67 4.29,-3.06 4.28,-2.45 4.28,-3.06 4.29,-3.05 4.28,-2.45 4.29,-3.06 4.28,-2.45 4.29,-3.06 4.28,-2.45 4.28,-2.45 4.29,-2.45 4.28,-2.44 4.29,-2.45 4.28,-2.45 4.28,-2.45 4.29,-2.45 4.28,-1.83 4.29,-2.45 4.28,-1.84 3.67,-2.44 4.28,-1.84 4.29,-1.83 4.28,-2.45 4.29,-1.84 4.28,-1.84 4.29,-1.83 4.28,-1.84 4.28,-1.83 4.29,-1.84 4.28,-1.84 4.29,-1.83 4.28,-1.23 4.28,-1.83 4.29,-1.84 4.28,-1.22 4.29,-1.838 4.28,-1.223 4.28,-1.836 4.29,-1.226 4.28,-1.836 4.29,-1.223 4.28,-1.223 4.28,-1.226 4.29,-1.836 4.28,-1.223 4.29,-1.222 4.28,-1.227 4.28,-1.223 3.68,-1.222 4.28,-1.227 4.28,-0.609 4.29,-1.227 4.28,-1.222 4.29,-1.223 4.28,-1.227 4.28,-0.613 4.29,-1.223 4.28,-1.222 4.29,-0.613 4.28,-1.223 4.28,-0.613 4.29,-1.223 4.28,-0.613 4.29,-1.223 4.28,-0.613 4.29,-0.614 4.28,-1.222 4.28,-0.613 4.29,-0.61 4.28,-1.226 4.28,-0.61 4.29,-0.613 4.28,-0.613 4.29,-0.61 4.28,-1.226 4.29,-0.61 4.28,-0.613 4.28,-0.613 3.67,-0.61 4.29,-0.613 4.28,-0.613 4.29,-0.61 4.28,-0.613 4.28,-0.613 4.29,-0.609 h 4.28 l 4.29,-0.614 4.28,-0.613 4.28,-0.609 4.29,-0.614 4.28,-0.613 4.29,-0.609 h 4.28 l 4.28,-0.614 4.29,-0.613 4.28,-0.609 h 4.29 l 4.28,-0.614 4.28,-0.613 4.29,-0.609 h 4.28 l 4.29,-0.614 4.28,-0.613 h 4.29 l 4.28,-0.609 h 4.28 l 4.29,-0.613 4.28,-0.614 h 3.67 l 4.29,-0.609 h 4.28 l 4.29,-0.613 4.28,-0.614 h 4.28 l 4.29,-0.609 h 4.28 l 4.28,-0.613 h 4.29 l 4.28,-0.614 h 4.29 l 4.28,-0.613 h 4.29 l 4.28,-0.609 h 4.28 4.29 l 4.28,-0.614 h 4.28 l 4.29,-0.613 h 4.28 4.29 l 4.28,-0.609 h 4.29 l 4.28,-0.613 h 4.28 4.29 l 4.28,-0.614 h 4.28 4.29 l 3.67,-0.609 h 4.29 4.28 l 4.28,-0.613 h 4.29 4.28 4.28 l 4.29,-0.614 h 4.28 4.29 l 4.28,-0.609 h 4.29 4.28 4.28 l 4.29,-0.613 h 4.28 4.28 4.29 4.28 l 4.29,-0.614 h 4.28 4.29 4.28 4.28 4.29 l 4.28,-0.609 4.28,0.609 4.29,1.836 4.28,1.836 3.68,1.836 4.28,1.227 4.28,0.609 4.29,0.613 h 4.28 4.28 l 4.29,-0.613 h 4.28 l 4.29,-1.223 4.28,-0.613 4.29,-1.222 4.28,-0.614 4.28,-1.222 4.29,-1.223 4.28,-1.227 4.28,-1.836 4.29,-1.222 4.28,-1.223 4.29,-1.226 4.28,-1.223 4.29,-1.223 4.28,2.446 4.28,3.062 h 4.29 4.28 4.28 l 4.29,-0.613 h 4.28 l 4.28,0.613 h 4.29 l 3.67,-5.508 4.29,0.61 4.28,1.836" /><path
         id="path268"
         style="fill:none;stroke:#000000;stroke-width:9.18000031;stroke-linecap:butt;stroke-linejoin:miter;stroke-miterlimit:10;stroke-dasharray:none;stroke-opacity:1"
         d="M 918,918 H 3683.63" /><path
         id="path270"
         style="fill:none;stroke:#000000;stroke-width:9.18000031;stroke-linecap:butt;stroke-linejoin:miter;stroke-miterlimit:10;stroke-dasharray:none;stroke-opacity:1"
         d="M 918,2865.38 H 3683.63" /><path
         id="path272"
         style="fill:none;stroke:#000000;stroke-width:9.18000031;stroke-linecap:butt;stroke-linejoin:miter;stroke-miterlimit:10;stroke-dasharray:none;stroke-opacity:1"
         d="m 1378.84,918 v 61.199" /><path
         id="path274"
         style="fill:none;stroke:#000000;stroke-width:9.18000031;stroke-linecap:butt;stroke-linejoin:miter;stroke-miterlimit:10;stroke-dasharray:none;stroke-opacity:1"
         d="m 1378.84,2865.38 v -61.2" /><path
         id="path276"
         style="fill:none;stroke:#000000;stroke-width:9.18000031;stroke-linecap:butt;stroke-linejoin:miter;stroke-miterlimit:10;stroke-dasharray:none;stroke-opacity:1"
         d="m 2300.51,918 v 61.199" /><path
         id="path278"
         style="fill:none;stroke:#000000;stroke-width:9.18000031;stroke-linecap:butt;stroke-linejoin:miter;stroke-miterlimit:10;stroke-dasharray:none;stroke-opacity:1"
         d="m 2300.51,2865.38 v -61.2" /><path
         id="path280"
         style="fill:none;stroke:#000000;stroke-width:9.18000031;stroke-linecap:butt;stroke-linejoin:miter;stroke-miterlimit:10;stroke-dasharray:none;stroke-opacity:1"
         d="m 3222.79,918 v 61.199" /><path
         id="path282"
         style="fill:none;stroke:#000000;stroke-width:9.18000031;stroke-linecap:butt;stroke-linejoin:miter;stroke-miterlimit:10;stroke-dasharray:none;stroke-opacity:1"
         d="m 3222.79,2865.38 v -61.2" /><path
         id="path284"
         style="fill:none;stroke:#000000;stroke-width:9.18000031;stroke-linecap:butt;stroke-linejoin:miter;stroke-miterlimit:10;stroke-dasharray:none;stroke-opacity:1"
         d="m 918,918 v 122.4" /><path
         id="path286"
         style="fill:none;stroke:#000000;stroke-width:9.18000031;stroke-linecap:butt;stroke-linejoin:miter;stroke-miterlimit:10;stroke-dasharray:none;stroke-opacity:1"
         d="m 918,2865.38 v -122.4" /><path
         id="path288"
         style="fill:none;stroke:#000000;stroke-width:9.18000031;stroke-linecap:butt;stroke-linejoin:miter;stroke-miterlimit:10;stroke-dasharray:none;stroke-opacity:1"
         d="m 1839.67,918 v 122.4" /><path
         id="path290"
         style="fill:none;stroke:#000000;stroke-width:9.18000031;stroke-linecap:butt;stroke-linejoin:miter;stroke-miterlimit:10;stroke-dasharray:none;stroke-opacity:1"
         d="m 1839.67,2865.38 v -122.4" /><path
         id="path292"
         style="fill:none;stroke:#000000;stroke-width:9.18000031;stroke-linecap:butt;stroke-linejoin:miter;stroke-miterlimit:10;stroke-dasharray:none;stroke-opacity:1"
         d="m 2761.34,918 v 122.4" /><path
         id="path294"
         style="fill:none;stroke:#000000;stroke-width:9.18000031;stroke-linecap:butt;stroke-linejoin:miter;stroke-miterlimit:10;stroke-dasharray:none;stroke-opacity:1"
         d="m 2761.34,2865.38 v -122.4" /><path
         id="path296"
         style="fill:none;stroke:#000000;stroke-width:9.18000031;stroke-linecap:butt;stroke-linejoin:miter;stroke-miterlimit:10;stroke-dasharray:none;stroke-opacity:1"
         d="m 3683.63,918 v 122.4" /><path
         id="path298"
         style="fill:none;stroke:#000000;stroke-width:9.18000031;stroke-linecap:butt;stroke-linejoin:miter;stroke-miterlimit:10;stroke-dasharray:none;stroke-opacity:1"
         d="m 3683.63,2865.38 v -122.4" /><g
         transform="scale(10)"
         id="g300"><text
           id="text306"
           style="font-variant:normal;font-weight:normal;font-size:17.13599968px;font-family:'Times New Roman';-inkscape-font-specification:Times-Roman;writing-mode:lr-tb;fill:#000000;fill-opacity:1;fill-rule:nonzero;stroke:none"
           transform="matrix(1,0,0,-1,87.6996,74.1742)"><tspan
             id="tspan302"
             y="0"
             x="0 87.883179 96.451172 180.05035 188.61835 272.21753 280.78552">0102030</tspan><tspan
             id="tspan304"
             y="17.8703"
             x="89.107002">E</tspan></text>
<text
           id="text310"
           style="font-variant:normal;font-weight:normal;font-size:8.56799984px;font-family:'Times New Roman';-inkscape-font-specification:Times-Roman;writing-mode:lr-tb;fill:#000000;fill-opacity:1;fill-rule:nonzero;stroke:none"
           transform="matrix(1,0,0,-1,187.3332,56.671088)"><tspan
             id="tspan308"
             y="0"
             x="0 4.2839999">10</tspan></text>
<text
           id="text314"
           style="font-variant:normal;font-weight:normal;font-size:12.11760044px;font-family:'Times New Roman';-inkscape-font-specification:Times-Roman;writing-mode:lr-tb;fill:#000000;fill-opacity:1;fill-rule:nonzero;stroke:none"
           transform="matrix(1,0,0,-1,195.9625,49.449608)"><tspan
             id="tspan312"
             y="0"
             x="0 8.0824394 13.462653 16.492054 21.872269 24.901669 34.329163">Be c.m.</tspan></text>
<text
           id="text318"
           style="font-variant:normal;font-weight:normal;font-size:17.13599968px;font-family:'Times New Roman';-inkscape-font-specification:Times-Roman;writing-mode:lr-tb;fill:#000000;fill-opacity:1;fill-rule:nonzero;stroke:none"
           transform="matrix(1,0,0,-1,237.7008,56.303908)"><tspan
             id="tspan316"
             y="0"
             x="0 5.7062879 20.940191 28.548576 40.920769">(MeV)</tspan></text>
</g><path
         id="path320"
         style="fill:none;stroke:#000000;stroke-width:9.18000031;stroke-linecap:butt;stroke-linejoin:miter;stroke-miterlimit:10;stroke-dasharray:none;stroke-opacity:1"
         d="M 918,918 V 2865.38" /><path
         id="path322"
         style="fill:none;stroke:#000000;stroke-width:9.18000031;stroke-linecap:butt;stroke-linejoin:miter;stroke-miterlimit:10;stroke-dasharray:none;stroke-opacity:1"
         d="M 3683.63,918 V 2865.38" /><path
         id="path324"
         style="fill:none;stroke:#000000;stroke-width:9.18000031;stroke-linecap:butt;stroke-linejoin:miter;stroke-miterlimit:10;stroke-dasharray:none;stroke-opacity:1"
         d="m 918,1161.57 h 61.199" /><path
         id="path326"
         style="fill:none;stroke:#000000;stroke-width:9.18000031;stroke-linecap:butt;stroke-linejoin:miter;stroke-miterlimit:10;stroke-dasharray:none;stroke-opacity:1"
         d="m 3683.63,1161.57 h -61.2" /><path
         id="path328"
         style="fill:none;stroke:#000000;stroke-width:9.18000031;stroke-linecap:butt;stroke-linejoin:miter;stroke-miterlimit:10;stroke-dasharray:none;stroke-opacity:1"
         d="m 918,1648.12 h 61.199" /><path
         id="path330"
         style="fill:none;stroke:#000000;stroke-width:9.18000031;stroke-linecap:butt;stroke-linejoin:miter;stroke-miterlimit:10;stroke-dasharray:none;stroke-opacity:1"
         d="m 3683.63,1648.12 h -61.2" /><path
         id="path332"
         style="fill:none;stroke:#000000;stroke-width:9.18000031;stroke-linecap:butt;stroke-linejoin:miter;stroke-miterlimit:10;stroke-dasharray:none;stroke-opacity:1"
         d="m 918,2135.27 h 61.199" /><path
         id="path334"
         style="fill:none;stroke:#000000;stroke-width:9.18000031;stroke-linecap:butt;stroke-linejoin:miter;stroke-miterlimit:10;stroke-dasharray:none;stroke-opacity:1"
         d="m 3683.63,2135.27 h -61.2" /><path
         id="path336"
         style="fill:none;stroke:#000000;stroke-width:9.18000031;stroke-linecap:butt;stroke-linejoin:miter;stroke-miterlimit:10;stroke-dasharray:none;stroke-opacity:1"
         d="m 918,2621.81 h 61.199" /><path
         id="path338"
         style="fill:none;stroke:#000000;stroke-width:9.18000031;stroke-linecap:butt;stroke-linejoin:miter;stroke-miterlimit:10;stroke-dasharray:none;stroke-opacity:1"
         d="m 3683.63,2621.81 h -61.2" /><path
         id="path340"
         style="fill:none;stroke:#000000;stroke-width:9.18000031;stroke-linecap:butt;stroke-linejoin:miter;stroke-miterlimit:10;stroke-dasharray:none;stroke-opacity:1"
         d="m 918,918 h 122.4" /><path
         id="path342"
         style="fill:none;stroke:#000000;stroke-width:9.18000031;stroke-linecap:butt;stroke-linejoin:miter;stroke-miterlimit:10;stroke-dasharray:none;stroke-opacity:1"
         d="m 3683.63,918 h -122.4" /><path
         id="path344"
         style="fill:none;stroke:#000000;stroke-width:9.18000031;stroke-linecap:butt;stroke-linejoin:miter;stroke-miterlimit:10;stroke-dasharray:none;stroke-opacity:1"
         d="m 918,1404.54 h 122.4" /><path
         id="path346"
         style="fill:none;stroke:#000000;stroke-width:9.18000031;stroke-linecap:butt;stroke-linejoin:miter;stroke-miterlimit:10;stroke-dasharray:none;stroke-opacity:1"
         d="m 3683.63,1404.54 h -122.4" /><path
         id="path348"
         style="fill:none;stroke:#000000;stroke-width:9.18000031;stroke-linecap:butt;stroke-linejoin:miter;stroke-miterlimit:10;stroke-dasharray:none;stroke-opacity:1"
         d="m 918,1891.69 h 122.4" /><path
         id="path350"
         style="fill:none;stroke:#000000;stroke-width:9.18000031;stroke-linecap:butt;stroke-linejoin:miter;stroke-miterlimit:10;stroke-dasharray:none;stroke-opacity:1"
         d="m 3683.63,1891.69 h -122.4" /><path
         id="path352"
         style="fill:none;stroke:#000000;stroke-width:9.18000031;stroke-linecap:butt;stroke-linejoin:miter;stroke-miterlimit:10;stroke-dasharray:none;stroke-opacity:1"
         d="m 918,2378.23 h 122.4" /><path
         id="path354"
         style="fill:none;stroke:#000000;stroke-width:9.18000031;stroke-linecap:butt;stroke-linejoin:miter;stroke-miterlimit:10;stroke-dasharray:none;stroke-opacity:1"
         d="m 3683.63,2378.23 h -122.4" /><path
         id="path356"
         style="fill:none;stroke:#000000;stroke-width:9.18000031;stroke-linecap:butt;stroke-linejoin:miter;stroke-miterlimit:10;stroke-dasharray:none;stroke-opacity:1"
         d="m 918,2865.38 h 122.4" /><path
         id="path358"
         style="fill:none;stroke:#000000;stroke-width:9.18000031;stroke-linecap:butt;stroke-linejoin:miter;stroke-miterlimit:10;stroke-dasharray:none;stroke-opacity:1"
         d="m 3683.63,2865.38 h -122.4" /><g
         transform="scale(10)"
         id="g360"><text
           id="text372"
           style="font-variant:normal;font-weight:normal;font-size:17.13599968px;font-family:'Times New Roman';-inkscape-font-specification:Times-Roman;writing-mode:lr-tb;fill:#000000;fill-opacity:1;fill-rule:nonzero;stroke:none"
           transform="matrix(1,0,0,-1,77.5402,86.1695)"><tspan
             id="tspan362"
             y="0"
             x="0">0</tspan><tspan
             id="tspan364"
             y="-48.531601"
             x="1.40781">1</tspan><tspan
             id="tspan366"
             y="-97.246803"
             x="0">2</tspan><tspan
             id="tspan368"
             y="-146.02341"
             x="0.67343801">3</tspan><tspan
             id="tspan370"
             y="-194.616"
             x="0">4</tspan></text>
<text
           id="text376"
           style="font-variant:normal;font-weight:normal;font-size:17.13599968px;font-family:'Times New Roman';-inkscape-font-specification:Times-Roman;writing-mode:lr-tb;fill:#000000;fill-opacity:1;fill-rule:nonzero;stroke:none"
           transform="matrix(0,1,1,0,64.3211,106.488)"><tspan
             id="tspan374"
             y="0"
             x="0">d</tspan></text>
<text
           id="text380"
           style="font-variant:normal;font-weight:normal;font-size:17.13599968px;font-family:Symbol;-inkscape-font-specification:Symbol;writing-mode:lr-tb;fill:#000000;fill-opacity:1;fill-rule:nonzero;stroke:none"
           transform="matrix(0,1,1,0,64.3211,115.1173)"><tspan
             id="tspan378"
             y="0"
             x="0">σ</tspan></text>
<text
           id="text384"
           style="font-variant:normal;font-weight:normal;font-size:17.13599968px;font-family:'Times New Roman';-inkscape-font-specification:Times-Roman;writing-mode:lr-tb;fill:#000000;fill-opacity:1;fill-rule:nonzero;stroke:none"
           transform="matrix(0,1,1,0,64.3211,125.4603)"><tspan
             id="tspan382"
             y="0"
             x="0 4.7638078 13.331808">/dE</tspan></text>
<text
           id="text388"
           style="font-variant:normal;font-weight:normal;font-size:8.56799984px;font-family:'Times New Roman';-inkscape-font-specification:Times-Roman;writing-mode:lr-tb;fill:#000000;fill-opacity:1;fill-rule:nonzero;stroke:none"
           transform="matrix(0,1,1,0,63.892975,149.2056)"><tspan
             id="tspan386"
             y="0"
             x="0 4.2839999">10</tspan></text>
<text
           id="text392"
           style="font-variant:normal;font-weight:normal;font-size:12.11760044px;font-family:'Times New Roman';-inkscape-font-specification:Times-Roman;writing-mode:lr-tb;fill:#000000;fill-opacity:1;fill-rule:nonzero;stroke:none"
           transform="matrix(0,1,1,0,71.175785,157.8349)"><tspan
             id="tspan390"
             y="0"
             x="0 8.0824394 13.462653 16.492054 21.872269 24.901669 34.329163">Be c.m.</tspan></text>
<text
           id="text396"
           style="font-variant:normal;font-weight:normal;font-size:17.13599968px;font-family:'Times New Roman';-inkscape-font-specification:Times-Roman;writing-mode:lr-tb;fill:#000000;fill-opacity:1;fill-rule:nonzero;stroke:none"
           transform="matrix(0,1,1,0,64.321095,199.5732)"><tspan
             id="tspan394"
             y="0"
             x="0 5.7062879 19.038095 27.606096 32.369904 47.603809 55.212193 67.584381">(mb/MeV)</tspan></text>
</g><path
         id="path398"
         style="fill:none;stroke:#000000;stroke-width:9.18000031;stroke-linecap:butt;stroke-linejoin:miter;stroke-miterlimit:10;stroke-dasharray:none;stroke-opacity:1"
         d="M 918,918 V 2865.38 H 3683.63 V 918 Z" /><path
         id="path400"
         style="fill:none;stroke:#0000ff;stroke-width:18.36000061;stroke-linecap:butt;stroke-linejoin:miter;stroke-miterlimit:10;stroke-dasharray:none;stroke-opacity:1"
         d="m 4236.27,2291.33 69.15,19.58 69.16,51.41 69.15,64.26 69.16,53.86 69.15,22.64 69.16,-21.42 69.16,-66.1 69.15,-103.42 69.16,-126.69 69.15,-135.25 69.16,-131.58 69.16,-120.57 69.15,-105.87 69.16,-91.19 69.16,-77.72 69.15,-67.93 69.16,-59.98 69.15,-53.86 69.16,-49.57 69.15,-45.29 138.32,-78.94 138.31,-60.59 138.31,-44.68 138.31,-31.82 138.32,-24.48 137.69,-19.587 138.32,-15.301 138.31,-12.238 138.31,-8.566 138.31,-6.735 h 0.61" /><path
         id="path402"
         style="fill:none;stroke:#000000;stroke-width:18.36000061;stroke-linecap:butt;stroke-linejoin:miter;stroke-miterlimit:10;stroke-dasharray:none;stroke-opacity:1"
         d="m 4236.27,2246.04 69.15,19.59 69.16,51.4 69.15,65.49 69.16,56.3 69.15,26.32 69.16,-16.53 69.16,-60.59 69.15,-97.91 69.16,-121.79 69.15,-132.19 69.16,-130.36 69.16,-121.18 69.15,-107.1 69.16,-93.02 69.16,-80.17 69.15,-69.77 69.16,-61.2 69.15,-54.47 69.16,-48.96 69.15,-44.68 69.16,-40.39 69.16,-35.49 69.15,-31.21 69.16,-27.54 69.15,-23.88 69.16,-20.19 69.16,-17.14 69.15,-14.68 69.16,-12.86 69.16,-11.012 68.54,-9.793 69.15,-8.566 69.16,-7.344 69.16,-6.734 69.15,-5.508 69.16,-4.895 69.16,-4.285 69.15,-3.672 69.15,-3.058 69.16,-2.45 h 0.61" /><path
         id="path404"
         style="fill:none;stroke:#ff0000;stroke-width:18.36000061;stroke-linecap:butt;stroke-linejoin:miter;stroke-miterlimit:10;stroke-dasharray:none;stroke-opacity:1"
         d="m 4236.27,2238.09 69.15,19.58 69.16,51.4 69.15,66.1 69.16,56.31 69.15,26.31 69.16,-15.91 69.16,-60.59 69.15,-97.92 69.16,-121.17 69.15,-131.58 69.16,-130.36 69.16,-119.95 69.15,-107.1 69.16,-92.41 69.16,-80.17 69.15,-69.16 69.16,-60.59 69.15,-54.47 69.16,-48.96 69.15,-44.06 69.16,-39.78 69.16,-35.5 69.15,-31.21 69.16,-26.93 69.15,-23.26 69.16,-20.19 69.16,-17.14 69.15,-14.68 69.16,-12.24 69.16,-11.019 68.54,-9.793 69.15,-8.57 69.16,-7.344 69.16,-6.73 69.15,-5.508 69.16,-4.894 69.16,-4.286 69.15,-3.671 69.15,-3.059 69.16,-2.449 h 0.61" /><path
         id="path406"
         style="fill:none;stroke:#000000;stroke-width:9.18000031;stroke-linecap:butt;stroke-linejoin:miter;stroke-miterlimit:10;stroke-dasharray:none;stroke-opacity:1"
         d="M 4236.27,918 H 7001.89" /><path
         id="path408"
         style="fill:none;stroke:#000000;stroke-width:9.18000031;stroke-linecap:butt;stroke-linejoin:miter;stroke-miterlimit:10;stroke-dasharray:none;stroke-opacity:1"
         d="M 4236.27,2865.38 H 7001.89" /><path
         id="path410"
         style="fill:none;stroke:#000000;stroke-width:9.18000031;stroke-linecap:butt;stroke-linejoin:miter;stroke-miterlimit:10;stroke-dasharray:none;stroke-opacity:1"
         d="m 4582.04,918 v 61.199" /><path
         id="path412"
         style="fill:none;stroke:#000000;stroke-width:9.18000031;stroke-linecap:butt;stroke-linejoin:miter;stroke-miterlimit:10;stroke-dasharray:none;stroke-opacity:1"
         d="m 4582.04,2865.38 v -61.2" /><path
         id="path414"
         style="fill:none;stroke:#000000;stroke-width:9.18000031;stroke-linecap:butt;stroke-linejoin:miter;stroke-miterlimit:10;stroke-dasharray:none;stroke-opacity:1"
         d="m 5273.61,918 v 61.199" /><path
         id="path416"
         style="fill:none;stroke:#000000;stroke-width:9.18000031;stroke-linecap:butt;stroke-linejoin:miter;stroke-miterlimit:10;stroke-dasharray:none;stroke-opacity:1"
         d="m 5273.61,2865.38 v -61.2" /><path
         id="path418"
         style="fill:none;stroke:#000000;stroke-width:9.18000031;stroke-linecap:butt;stroke-linejoin:miter;stroke-miterlimit:10;stroke-dasharray:none;stroke-opacity:1"
         d="m 4236.27,918 v 122.4" /><path
         id="path420"
         style="fill:none;stroke:#000000;stroke-width:9.18000031;stroke-linecap:butt;stroke-linejoin:miter;stroke-miterlimit:10;stroke-dasharray:none;stroke-opacity:1"
         d="m 4236.27,2865.38 v -122.4" /><path
         id="path422"
         style="fill:none;stroke:#000000;stroke-width:9.18000031;stroke-linecap:butt;stroke-linejoin:miter;stroke-miterlimit:10;stroke-dasharray:none;stroke-opacity:1"
         d="m 4927.82,918 v 122.4" /><path
         id="path424"
         style="fill:none;stroke:#000000;stroke-width:9.18000031;stroke-linecap:butt;stroke-linejoin:miter;stroke-miterlimit:10;stroke-dasharray:none;stroke-opacity:1"
         d="m 4927.82,2865.38 v -122.4" /><path
         id="path426"
         style="fill:none;stroke:#000000;stroke-width:9.18000031;stroke-linecap:butt;stroke-linejoin:miter;stroke-miterlimit:10;stroke-dasharray:none;stroke-opacity:1"
         d="m 5619.38,918 v 122.4" /><path
         id="path428"
         style="fill:none;stroke:#000000;stroke-width:9.18000031;stroke-linecap:butt;stroke-linejoin:miter;stroke-miterlimit:10;stroke-dasharray:none;stroke-opacity:1"
         d="m 5619.38,2865.38 v -122.4" /><g
         transform="scale(10)"
         id="g430"><text
           id="text438"
           style="font-variant:normal;font-weight:normal;font-size:17.13599968px;font-family:'Times New Roman';-inkscape-font-specification:Times-Roman;writing-mode:lr-tb;fill:#000000;fill-opacity:1;fill-rule:nonzero;stroke:none"
           transform="matrix(1,0,0,-1,419.587,74.1742)"><tspan
             id="tspan432"
             y="0"
             x="0">0</tspan><tspan
             id="tspan434"
             y="0.24453101"
             x="69.462097">5</tspan><tspan
             id="tspan436"
             y="0"
             x="133.9668 142.53481">10</tspan></text>
<text
           id="text442"
           style="font-variant:normal;font-weight:normal;font-size:17.13599968px;font-family:Symbol;-inkscape-font-specification:Symbol;writing-mode:lr-tb;fill:#000000;fill-opacity:1;fill-rule:nonzero;stroke:none"
           transform="matrix(1,0,0,-1,537.703,55.8144)"><tspan
             id="tspan440"
             y="0"
             x="0">θ</tspan></text>
<text
           id="text446"
           style="font-variant:normal;font-weight:normal;font-size:17.13599968px;font-family:'Times New Roman';-inkscape-font-specification:Times-Roman;writing-mode:lr-tb;fill:#000000;fill-opacity:1;fill-rule:nonzero;stroke:none"
           transform="matrix(1,0,0,-1,550.86122,55.8144)"><tspan
             id="tspan444"
             y="0"
             x="0 5.7062879 14.274288 21.882671 30.450672">(deg)</tspan></text>
</g><path
         id="path448"
         style="fill:none;stroke:#000000;stroke-width:9.18000031;stroke-linecap:butt;stroke-linejoin:miter;stroke-miterlimit:10;stroke-dasharray:none;stroke-opacity:1"
         d="M 4236.27,918 V 2865.38" /><path
         id="path450"
         style="fill:none;stroke:#000000;stroke-width:9.18000031;stroke-linecap:butt;stroke-linejoin:miter;stroke-miterlimit:10;stroke-dasharray:none;stroke-opacity:1"
         d="m 4236.27,1161.57 h 61.19" /><path
         id="path452"
         style="fill:none;stroke:#000000;stroke-width:9.18000031;stroke-linecap:butt;stroke-linejoin:miter;stroke-miterlimit:10;stroke-dasharray:none;stroke-opacity:1"
         d="m 4236.27,1648.12 h 61.19" /><path
         id="path454"
         style="fill:none;stroke:#000000;stroke-width:9.18000031;stroke-linecap:butt;stroke-linejoin:miter;stroke-miterlimit:10;stroke-dasharray:none;stroke-opacity:1"
         d="m 4236.27,2135.27 h 61.19" /><path
         id="path456"
         style="fill:none;stroke:#000000;stroke-width:9.18000031;stroke-linecap:butt;stroke-linejoin:miter;stroke-miterlimit:10;stroke-dasharray:none;stroke-opacity:1"
         d="m 4236.27,2621.81 h 61.19" /><path
         id="path458"
         style="fill:none;stroke:#000000;stroke-width:9.18000031;stroke-linecap:butt;stroke-linejoin:miter;stroke-miterlimit:10;stroke-dasharray:none;stroke-opacity:1"
         d="m 4236.27,918 h 122.39" /><path
         id="path460"
         style="fill:none;stroke:#000000;stroke-width:9.18000031;stroke-linecap:butt;stroke-linejoin:miter;stroke-miterlimit:10;stroke-dasharray:none;stroke-opacity:1"
         d="m 4236.27,1404.54 h 122.39" /><path
         id="path462"
         style="fill:none;stroke:#000000;stroke-width:9.18000031;stroke-linecap:butt;stroke-linejoin:miter;stroke-miterlimit:10;stroke-dasharray:none;stroke-opacity:1"
         d="m 4236.27,1891.69 h 122.39" /><path
         id="path464"
         style="fill:none;stroke:#000000;stroke-width:9.18000031;stroke-linecap:butt;stroke-linejoin:miter;stroke-miterlimit:10;stroke-dasharray:none;stroke-opacity:1"
         d="m 4236.27,2378.23 h 122.39" /><path
         id="path466"
         style="fill:none;stroke:#000000;stroke-width:9.18000031;stroke-linecap:butt;stroke-linejoin:miter;stroke-miterlimit:10;stroke-dasharray:none;stroke-opacity:1"
         d="m 4236.27,2865.38 h 122.39" /><path
         id="path468"
         style="fill:none;stroke:#000000;stroke-width:9.18000031;stroke-linecap:butt;stroke-linejoin:miter;stroke-miterlimit:10;stroke-dasharray:none;stroke-opacity:1"
         d="M 4236.27,918 V 2865.38 H 7001.89 V 918 Z" /></g></g></svg>