<?xml version="1.0" encoding="UTF-8" standalone="no"?>
<svg
   xmlns:dc="http://purl.org/dc/elements/1.1/"
   xmlns:cc="http://creativecommons.org/ns#"
   xmlns:rdf="http://www.w3.org/1999/02/22-rdf-syntax-ns#"
   xmlns:svg="http://www.w3.org/2000/svg"
   xmlns="http://www.w3.org/2000/svg"
   viewBox="0 0 793.33331 1122.6667"
   height="1122.6667"
   width="793.33331"
   xml:space="preserve"
   id="svg2"
   version="1.1"><metadata
     id="metadata8"><rdf:RDF><cc:Work
         rdf:about=""><dc:format>image/svg+xml</dc:format><dc:type
           rdf:resource="http://purl.org/dc/dcmitype/StillImage" /></cc:Work></rdf:RDF></metadata><defs
     id="defs6" /><g
     transform="matrix(1.3333333,0,0,-1.3333333,0,1122.6667)"
     id="g10"><g
       transform="scale(0.1)"
       id="g12"><path
         id="path14"
         style="fill:#ffffff;fill-opacity:1;fill-rule:nonzero;stroke:none"
         d="M 0,0 H 7919.89 V 6120 H 0 Z" /><path
         id="path16"
         style="fill:none;stroke:#000000;stroke-width:18.36000061;stroke-linecap:butt;stroke-linejoin:miter;stroke-miterlimit:10;stroke-dasharray:none;stroke-opacity:1"
         d="m 917.387,3255.84 h 60.59 l 4.285,0.61 h 55.688 l 4.28,0.61 h 4.9 4.29 4.89 4.29 4.89 4.9 4.28 4.9 4.28 4.9 l 4.28,0.62 h 4.9 4.28 4.9 4.28 4.9 4.28 4.9 l 4.28,0.61 h 4.9 4.28 4.9 4.89 4.29 4.89 l 4.29,0.61 h 4.9 4.28 4.9 4.28 l 4.9,0.61 h 4.28 4.9 4.28 4.89 4.29 l 4.89,0.62 h 4.9 4.28 4.9 l 4.28,0.6 h 4.9 4.28 4.9 l 4.28,0.62 h 4.9 4.28 4.9 l 4.28,0.61 h 4.9 4.28 l 4.9,0.61 h 4.29 4.89 4.89 l 4.29,0.61 h 4.89 4.29 l 4.89,0.62 h 4.29 4.9 l 4.28,0.61 h 4.9 l 4.28,0.61 h 4.9 4.28 l 4.9,0.61 h 4.28 l 4.9,0.61 h 4.89 4.29 l 4.89,0.62 h 4.29 l 4.89,0.61 h 4.29 l 4.89,0.61 h 4.29 l 4.89,0.61 h 4.29 l 4.89,0.61 h 4.28 l 4.9,0.62 h 4.28 l 4.9,0.61 h 4.29 l 4.89,0.61 4.9,0.61 h 4.28 l 4.9,0.61 h 4.28 l 4.9,0.62 4.28,0.61 h 4.9 l 4.28,0.61 4.9,0.61 h 4.28 l 4.9,0.62 4.28,0.61 h 4.9 l 4.28,0.61 4.9,0.61 h 4.89 l 4.29,0.61 4.89,0.61 h 4.29 l 4.89,0.62 4.29,0.61 4.89,0.61 h 4.29 l 4.9,0.61 4.28,0.61 h 4.9 l 4.28,0.62 4.9,0.61 4.28,0.61 h 4.9 l 4.28,0.61 4.89,0.62 h 4.9 l 4.28,0.6 4.9,0.62 4.28,0.61 h 4.9 l 4.28,0.61 4.9,0.61 h 4.28 l 4.9,0.62 4.28,0.61 h 4.9 l 4.28,0.61 4.9,0.61 4.28,0.61 h 4.9 l 4.9,0.62 4.28,0.61 h 4.9 l 4.28,0.61 4.89,0.61 h 4.29 l 4.89,0.62 4.29,0.6 h 4.89 l 4.29,0.62 h 4.9 l 4.28,0.61 h 4.9 l 4.28,0.61 4.9,0.61 h 4.28 l 4.9,0.62 h 4.89 l 4.29,0.61 h 4.89 l 4.29,0.61 h 4.89 4.29 l 4.89,0.61 h 4.29 4.89 l 4.29,0.61 h 4.89 4.29 l 4.89,0.62 h 4.28 4.9 4.9 4.28 l 4.9,0.61 h 4.28 4.9 4.28 4.9 l 4.28,0.61 h 4.9 4.28 4.9 4.28 4.9 l 4.28,0.61 h 4.9 4.28 4.9 4.89 4.29 l 4.89,0.61 h 4.29 4.89 l 4.29,0.61 h 4.89 l 4.29,0.62 h 4.89 l 4.29,0.61 4.9,0.61 4.28,0.61 4.9,0.62 4.28,0.61 4.9,0.61 4.89,0.61 4.29,1.23 4.89,1.22 4.28,1.22 4.9,1.23 4.28,1.22 4.9,1.84 4.28,1.84 4.9,1.83 4.28,2.45 4.9,1.83 4.28,3.07 4.9,2.44 4.28,3.06 4.9,3.68 4.28,3.67 4.9,3.67 4.9,4.28 4.28,4.9 4.9,4.89 4.28,5.51 4.9,6.12 4.28,6.73 4.89,6.74 4.29,7.95 4.89,8.57 4.29,8.57 4.89,10.4 4.29,11.02 4.9,11.63 4.28,12.85 4.9,14.07 4.89,15.3 4.29,16.53 4.89,18.36 4.29,18.97 4.89,21.42 4.29,22.65 4.89,24.47 4.29,26.32 4.89,28.15 4.29,30.6 4.89,32.44 4.29,34.27 4.89,36.72 4.29,39.17 4.89,40.39 4.29,42.84 4.89,45.29 4.9,46.51 4.28,48.35 4.9,50.18 4.28,52.02 4.9,53.24 4.28,54.47 4.9,55.69 4.28,56.31 4.9,56.92 4.28,56.3 4.9,56.3 4.28,55.7 4.9,53.85 4.28,53.25 4.9,50.18 4.89,48.35 4.29,45.9 4.89,42.84 4.29,39.17 4.89,36.1 4.29,31.83 4.89,27.54 4.29,23.25 4.89,18.36 4.29,13.47 4.89,7.96 4.29,2.44 4.89,-2.44 4.29,-7.96 4.9,-13.47 4.28,-18.36 4.9,-23.25 4.89,-27.54 4.29,-31.83 4.89,-36.1 4.29,-39.17 4.89,-42.84 4.28,-45.9 4.9,-48.35 4.28,-50.8 4.9,-52.63 4.28,-53.85 4.9,-56.31 4.28,-56.3 4.9,-56.31 4.28,-56.3 4.9,-56.31 4.9,-55.69 4.28,-54.47 4.9,-53.24 4.28,-52.02 4.9,-50.18 4.28,-48.35 4.9,-46.51 4.28,-45.29 4.9,-42.84 4.28,-40.39 4.89,-39.17 4.29,-36.72 4.89,-34.27 4.29,-32.44 4.89,-30.6 4.29,-28.15 4.9,-26.32 4.89,-24.47 4.29,-22.65 4.89,-21.42 4.29,-18.97 4.89,-18.36 4.29,-16.53 4.89,-15.3 4.29,-14.07 4.89,-12.85 4.29,-11.63 4.89,-11.02 4.29,-9.79 4.89,-9.18 4.29,-8.57 4.89,-7.95 4.9,-7.35 4.28,-6.12 4.9,-6.12 4.28,-5.51 4.9,-4.89 4.28,-4.9 4.9,-4.28 4.28,-3.67 4.9,-3.67 4.28,-3.68 4.9,-3.06 4.28,-2.44 4.9,-3.07 4.28,-1.83 4.9,-2.45 4.28,-1.83 4.9,-1.84 4.89,-1.84 4.29,-1.22 4.89,-1.23 4.29,-1.22 4.89,-1.22 4.29,-1.23 4.89,-0.61 4.29,-0.61 4.89,-0.61 4.29,-0.62 4.89,-0.61 4.29,-0.61 4.89,-0.61 h 4.29 l 4.89,-0.62 h 4.9 l 4.29,-0.61 h 4.89 4.29 4.89 l 4.29,-0.61 h 4.89 4.29 4.89 4.28 l 4.9,-0.61 h 4.28 4.9 4.28 4.9 4.28 l 4.9,-0.61 h 4.9 4.28 4.9 4.28 l 4.9,-0.61 h 4.28 4.9 4.28 4.9 l 4.28,-0.62 h 4.9 4.28 l 4.89,-0.61 h 4.29 4.89 l 4.9,-0.61 h 4.28 4.9 l 4.29,-0.61 h 4.89 l 4.29,-0.61 h 4.89 l 4.29,-0.62 h 4.89 l 4.29,-0.61 4.89,-0.61 h 4.29 l 4.89,-0.61 h 4.29 l 4.89,-0.62 h 4.29 l 4.89,-0.6 4.9,-0.62 h 4.28 l 4.9,-0.61 4.28,-0.61 h 4.9 l 4.28,-0.61 4.9,-0.62 h 4.28 l 4.9,-0.61 4.28,-0.61 4.9,-0.61 h 4.28 l 4.9,-0.61 4.28,-0.62 h 4.9 l 4.9,-0.61 4.28,-0.61 h 4.89 l 4.29,-0.61 4.89,-0.62 4.29,-0.6 h 4.89 l 4.29,-0.62 4.89,-0.61 h 4.29 l 4.89,-0.61 4.29,-0.61 4.89,-0.62 h 4.29 l 4.89,-0.61 4.29,-0.61 h 4.89 l 4.9,-0.61 4.28,-0.61 4.9,-0.62 h 4.29 l 4.89,-0.61 4.29,-0.61 h 4.89 l 4.29,-0.61 4.89,-0.61 h 4.29 l 4.89,-0.61 4.28,-0.62 h 4.9 l 4.28,-0.61 4.9,-0.61 h 4.9 l 4.28,-0.61 4.9,-0.62 h 4.28 l 4.9,-0.61 h 4.28 l 4.9,-0.61 4.28,-0.61 h 4.9 l 4.28,-0.61 h 4.9 l 4.28,-0.62 h 4.9 l 4.28,-0.61 h 4.9 l 4.28,-0.61 h 4.89 l 4.9,-0.61 h 4.28 l 4.9,-0.61 h 4.28 l 4.9,-0.62 h 4.29 4.89 l 4.29,-0.61 h 4.89 l 4.29,-0.61 h 4.89 4.29 l 4.89,-0.61 h 4.29 l 4.89,-0.61 h 4.9 4.28 l 4.9,-0.62 h 4.28 4.9 l 4.28,-0.61 h 4.9 4.28 4.9 l 4.28,-0.61 h 4.9 4.28 l 4.9,-0.61 h 4.28 4.9 4.28 l 4.9,-0.62 h 4.9 4.28 4.9 l 4.28,-0.6 h 4.89 4.29 4.89 l 4.29,-0.62 h 4.89 4.29 4.89 4.29 4.89 l 4.29,-0.61 h 4.89 4.9 4.28 4.9 l 4.28,-0.61 h 4.9 4.28 4.9 4.29 4.89 4.29 l 4.89,-0.61 h 4.29 4.89 4.29 4.89 4.28 4.9 4.9 l 4.28,-0.62 h 4.9 4.28 4.9 4.28 4.9 4.28 4.9 4.28 4.9 4.28 l 4.9,-0.61 h 4.28 4.9 4.89 4.29 4.89 4.28 4.9 4.28 4.9 4.28 4.9 4.29 l 4.89,-0.61 h 4.29 4.89 4.29 4.89 4.29 4.89 4.9 4.28 4.9 4.28 4.9 4.28 4.9 0.61" /><path
         id="path18"
         style="fill:none;stroke:#ff0000;stroke-width:18.36000061;stroke-linecap:butt;stroke-linejoin:miter;stroke-miterlimit:10;stroke-dasharray:none;stroke-opacity:1"
         d="m 917.387,3255.84 h 74.054 l 4.895,0.61 h 55.084 l 4.89,0.61 h 4.29 4.89 4.9 4.28 4.9 4.28 4.9 4.28 4.9 l 4.28,0.62 h 4.9 4.28 4.9 4.28 4.9 4.28 4.9 l 4.28,0.61 h 4.9 4.89 4.29 4.89 4.29 4.9 l 4.28,0.61 h 4.9 4.28 4.9 4.28 l 4.9,0.61 h 4.28 4.89 4.29 4.89 4.9 l 4.28,0.62 h 4.9 4.28 4.9 l 4.28,0.6 h 4.9 4.28 4.9 l 4.28,0.62 h 4.9 4.28 4.9 l 4.28,0.61 h 4.9 4.29 l 4.89,0.61 h 4.89 4.29 l 4.89,0.61 h 4.29 4.89 l 4.29,0.62 h 4.9 4.28 l 4.9,0.61 h 4.28 4.9 l 4.28,0.61 h 4.9 l 4.28,0.61 h 4.9 4.89 l 4.29,0.61 h 4.89 l 4.29,0.62 h 4.89 l 4.29,0.61 h 4.89 4.29 l 4.89,0.61 h 4.29 l 4.89,0.61 4.28,0.61 h 4.9 l 4.28,0.62 h 4.9 l 4.29,0.61 h 4.89 l 4.9,0.61 h 4.28 l 4.9,0.61 4.28,0.61 h 4.9 l 4.28,0.62 h 4.9 l 4.28,0.61 4.9,0.61 h 4.28 l 4.9,0.61 4.28,0.62 4.9,0.61 h 4.28 l 4.9,0.61 4.89,0.61 h 4.29 l 4.89,0.61 4.29,0.61 h 4.89 l 4.29,0.62 4.89,0.61 h 4.29 l 4.9,0.61 4.28,0.61 4.9,0.61 h 4.28 l 4.9,0.62 4.28,0.61 4.9,0.61 h 4.28 l 4.89,0.61 4.9,0.62 h 4.28 l 4.9,0.6 4.28,0.62 4.9,0.61 h 4.28 l 4.9,0.61 4.28,0.61 h 4.9 l 4.28,0.62 4.9,0.61 4.28,0.61 h 4.9 l 4.28,0.61 4.9,0.61 4.9,0.62 h 4.28 l 4.9,0.61 4.28,0.61 h 4.89 l 4.29,0.61 4.89,0.62 h 4.29 l 4.89,0.6 h 4.29 l 4.9,0.62 4.28,0.61 h 4.9 l 4.28,0.61 h 4.9 l 4.28,0.61 h 4.9 l 4.89,0.62 h 4.29 l 4.89,0.61 h 4.29 l 4.89,0.61 h 4.29 4.89 l 4.29,0.61 h 4.89 4.29 l 4.89,0.61 h 4.29 4.89 l 4.28,0.62 h 4.9 4.9 4.28 l 4.9,0.61 h 4.28 4.9 4.28 4.9 4.28 l 4.9,0.61 h 4.28 4.9 4.28 4.9 4.28 l 4.9,0.61 h 4.28 4.9 4.89 l 4.29,0.61 h 4.89 4.29 4.89 l 4.29,0.61 h 4.89 l 4.29,0.62 h 4.89 l 4.29,0.61 4.9,0.61 4.28,0.61 4.9,0.62 4.28,0.61 4.9,0.61 4.89,0.61 4.29,1.23 4.89,1.22 4.28,1.22 4.9,1.23 4.28,1.22 4.9,1.84 4.28,1.84 4.9,1.83 4.28,1.84 4.9,2.44 4.28,2.45 4.9,3.06 4.28,3.06 4.9,3.06 4.28,3.67 4.9,3.68 4.9,4.28 4.28,4.9 4.9,4.89 4.28,5.51 4.9,5.51 4.28,6.73 4.89,7.34 4.29,7.35 4.89,8.57 4.29,8.56 4.89,10.41 4.29,10.4 4.9,11.63 4.28,12.85 4.9,14.08 4.89,15.3 4.29,16.52 4.89,17.75 4.29,18.97 4.89,21.42 4.29,22.65 4.89,23.86 4.29,26.32 4.89,28.77 4.29,29.98 4.89,32.44 4.29,34.27 4.89,36.72 4.29,38.55 4.89,40.4 4.29,42.84 4.89,44.67 4.9,46.52 4.28,48.34 4.9,50.19 4.28,52.02 4.9,53.24 4.28,54.47 4.9,55.69 4.28,56.31 4.9,56.3 4.28,56.92 4.9,56.3 4.28,55.08 4.9,54.47 4.28,52.63 4.9,50.8 4.89,48.35 4.29,45.89 4.89,42.84 4.29,39.17 4.89,36.11 4.29,31.83 4.89,27.53 4.29,22.65 4.89,18.97 4.29,13.46 4.89,7.96 4.29,2.45 4.89,-3.06 4.29,-7.96 4.9,-13.46 4.28,-18.36 4.9,-22.65 4.89,-28.15 4.29,-31.82 4.89,-35.5 4.29,-39.17 4.89,-42.84 4.28,-45.89 4.9,-48.35 4.28,-50.8 4.9,-52.63 4.28,-54.47 4.9,-55.69 4.28,-56.31 4.9,-56.3 4.28,-56.3 4.9,-56.31 4.9,-55.69 4.28,-54.47 4.9,-53.24 4.28,-52.02 4.9,-49.57 4.28,-48.96 4.9,-46.52 4.28,-44.67 4.9,-42.84 4.28,-40.4 4.89,-38.55 4.29,-36.72 4.89,-34.27 4.29,-32.44 4.89,-29.98 4.29,-28.77 4.9,-25.7 4.89,-24.48 4.29,-22.65 4.89,-20.81 4.29,-19.58 4.89,-17.75 4.29,-16.52 4.89,-15.3 4.29,-14.08 4.89,-12.85 4.29,-11.63 4.89,-10.4 4.29,-10.41 4.89,-8.56 4.29,-8.57 4.89,-7.96 4.9,-6.73 4.28,-6.73 4.9,-5.51 4.28,-5.51 4.9,-4.89 4.28,-4.9 4.9,-4.28 4.28,-3.68 4.9,-3.67 4.28,-3.06 4.9,-3.06 4.28,-3.06 4.9,-2.45 4.28,-2.44 4.9,-1.84 4.28,-1.83 4.9,-1.84 4.89,-1.84 4.29,-1.22 4.89,-1.23 4.29,-1.22 4.89,-1.22 4.29,-1.23 4.89,-0.61 4.29,-0.61 4.89,-0.61 4.29,-0.62 4.89,-0.61 4.29,-0.61 4.89,-0.61 h 4.29 l 4.89,-0.62 h 4.9 l 4.29,-0.61 h 4.89 4.29 4.89 l 4.29,-0.61 h 4.89 4.29 4.89 l 4.28,-0.61 h 4.9 4.28 4.9 4.28 4.9 l 4.28,-0.61 h 4.9 4.9 4.28 4.9 4.28 l 4.9,-0.61 h 4.28 4.9 4.28 l 4.9,-0.62 h 4.28 4.9 l 4.28,-0.61 h 4.89 4.29 l 4.89,-0.61 h 4.9 4.28 l 4.9,-0.61 h 4.29 l 4.89,-0.61 h 4.29 l 4.89,-0.62 h 4.29 l 4.89,-0.61 h 4.29 l 4.89,-0.61 h 4.29 l 4.89,-0.61 4.29,-0.62 h 4.89 l 4.29,-0.6 h 4.89 l 4.9,-0.62 4.28,-0.61 h 4.9 l 4.28,-0.61 4.9,-0.61 h 4.28 l 4.9,-0.62 4.28,-0.61 4.9,-0.61 h 4.28 l 4.9,-0.61 4.28,-0.61 4.9,-0.62 h 4.28 l 4.9,-0.61 4.9,-0.61 h 4.28 l 4.89,-0.61 4.29,-0.62 4.89,-0.6 h 4.29 l 4.89,-0.62 4.29,-0.61 h 4.89 l 4.29,-0.61 4.89,-0.61 4.29,-0.62 h 4.89 l 4.29,-0.61 4.89,-0.61 4.29,-0.61 h 4.89 l 4.9,-0.61 4.28,-0.62 h 4.9 l 4.29,-0.61 4.89,-0.61 h 4.29 l 4.89,-0.61 4.29,-0.61 h 4.89 l 4.29,-0.61 4.89,-0.62 4.28,-0.61 h 4.9 l 4.28,-0.61 4.9,-0.61 h 4.9 l 4.28,-0.62 h 4.9 l 4.28,-0.61 4.9,-0.61 h 4.28 l 4.9,-0.61 h 4.28 l 4.9,-0.61 h 4.28 l 4.9,-0.62 h 4.28 l 4.9,-0.61 4.28,-0.61 h 4.9 l 4.28,-0.61 h 4.89 4.9 l 4.28,-0.61 h 4.9 l 4.28,-0.62 h 4.9 l 4.29,-0.61 h 4.89 4.29 l 4.89,-0.61 h 4.29 l 4.89,-0.61 h 4.29 4.89 l 4.29,-0.61 h 4.89 4.9 l 4.28,-0.62 h 4.9 4.28 l 4.9,-0.61 h 4.28 4.9 l 4.28,-0.61 h 4.9 4.28 l 4.9,-0.61 h 4.28 4.9 4.28 l 4.9,-0.62 h 4.28 4.9 4.9 l 4.28,-0.6 h 4.9 4.28 4.89 l 4.29,-0.62 h 4.89 4.29 4.89 4.29 4.89 l 4.29,-0.61 h 4.89 4.29 4.89 4.9 l 4.28,-0.61 h 4.9 4.28 4.9 4.28 4.9 4.29 l 4.89,-0.61 h 4.29 4.89 4.29 4.89 4.29 4.89 4.28 l 4.9,-0.62 h 4.9 4.28 4.9 4.28 4.9 4.28 4.9 4.28 4.9 l 4.28,-0.61 h 4.9 4.28 4.9 4.28 4.9 4.89 4.29 4.89 4.28 4.9 4.28 4.9 l 4.28,-0.61 h 4.9 4.29 4.89 4.29 4.89 4.29 4.89 4.29 4.89 4.9 4.28 4.9 4.28 4.9 4.28 4.9 0.61" /><path
         id="path20"
         style="fill:none;stroke:#0000ff;stroke-width:14.07600021;stroke-linecap:butt;stroke-linejoin:miter;stroke-miterlimit:10;stroke-dasharray:none;stroke-opacity:1"
         d="m 917.387,3257.68 h 23.871 l 4.281,0.61 h 64.871 l 4.29,0.61 h 4.89 4.29 4.89 4.28 4.9 4.28 4.9 4.29 4.89 l 4.29,0.61 h 4.89 4.9 4.28 4.9 4.28 4.9 4.28 l 4.9,0.62 h 4.28 4.9 4.28 4.9 4.28 4.9 l 4.28,0.6 h 4.9 4.28 4.9 4.89 4.29 l 4.89,0.62 h 4.29 4.9 4.28 l 4.9,0.61 h 4.28 4.9 4.28 4.9 l 4.28,0.61 h 4.89 4.29 l 4.89,0.61 h 4.9 4.28 4.9 l 4.28,0.62 h 4.9 4.28 l 4.9,0.61 h 4.28 4.9 l 4.28,0.61 h 4.9 4.28 l 4.9,0.61 h 4.28 l 4.9,0.61 h 4.29 4.89 l 4.89,0.62 h 4.29 l 4.89,0.61 h 4.29 l 4.89,0.61 h 4.29 l 4.9,0.61 h 4.28 l 4.9,0.61 h 4.28 l 4.9,0.62 h 4.28 l 4.9,0.61 h 4.28 l 4.9,0.61 4.89,0.61 h 4.29 l 4.89,0.61 4.29,0.62 h 4.89 l 4.29,0.61 h 4.89 l 4.29,0.61 4.89,0.61 4.29,0.62 h 4.89 l 4.28,0.61 4.9,0.61 h 4.28 l 4.9,0.61 4.29,0.61 4.89,0.61 h 4.9 l 4.28,0.62 4.9,0.61 4.28,0.61 h 4.9 l 4.28,0.61 4.9,0.61 4.28,0.62 4.9,0.61 4.28,0.61 h 4.9 l 4.28,0.61 4.9,0.62 4.28,0.6 4.9,0.62 4.89,0.61 4.29,0.61 4.89,0.61 4.29,0.62 4.89,0.61 4.29,0.61 h 4.89 l 4.29,0.61 4.9,0.61 4.28,0.62 4.9,1.22 4.28,0.61 4.9,0.62 4.28,0.6 4.9,0.62 4.28,0.61 4.89,0.61 4.9,0.61 4.28,0.62 4.9,0.61 4.28,0.61 4.9,0.61 4.28,0.61 4.9,0.62 4.28,0.61 4.9,0.61 4.28,0.61 4.9,0.61 4.28,0.61 4.9,0.62 4.28,0.61 4.9,0.61 4.9,0.61 4.28,0.62 4.9,0.61 h 4.28 l 4.89,0.61 4.29,0.61 4.89,0.62 4.29,0.61 4.89,0.61 h 4.29 l 4.9,0.61 4.28,0.61 4.9,0.61 4.28,0.62 h 4.9 l 4.28,0.61 4.9,0.61 4.89,0.61 h 4.29 l 4.89,0.61 4.29,0.62 4.89,0.61 h 4.29 l 4.89,0.61 4.29,0.61 h 4.89 l 4.29,0.62 4.89,0.61 h 4.29 l 4.89,0.61 4.28,0.61 h 4.9 l 4.9,0.61 4.28,0.61 h 4.9 l 4.28,0.62 4.9,0.61 h 4.28 l 4.9,0.61 h 4.28 l 4.9,0.61 h 4.28 l 4.9,0.61 h 4.28 l 4.9,0.62 h 4.28 l 4.9,0.61 4.28,0.61 h 4.9 l 4.89,0.61 h 4.29 l 4.89,0.62 4.29,0.6 4.89,0.62 4.29,0.61 4.89,0.61 4.29,0.61 4.89,0.62 4.29,0.61 4.9,1.22 4.28,0.61 4.9,1.23 4.28,1.22 4.9,1.22 4.89,1.23 4.29,1.84 4.89,1.22 4.28,1.84 4.9,1.83 4.28,1.84 4.9,2.45 4.28,1.83 4.9,2.45 4.28,2.45 4.9,3.06 4.28,3.06 4.9,3.06 4.28,3.06 4.9,3.67 4.28,4.28 4.9,3.67 4.9,4.9 4.28,4.9 4.9,4.9 4.28,6.11 4.9,6.12 4.28,6.73 4.89,7.35 4.29,7.35 4.89,8.56 4.29,9.8 4.89,9.79 4.29,11.01 4.9,12.24 4.28,12.85 4.9,14.08 4.89,15.3 4.29,17.14 4.89,18.35 4.29,19.59 4.89,21.42 4.29,22.64 4.89,25.1 4.29,26.92 4.89,28.77 4.29,30.6 4.89,32.43 4.29,34.89 4.89,37.33 4.29,39.17 4.89,41.61 4.29,43.46 4.89,45.9 4.9,47.12 4.28,49.57 4.9,50.8 4.28,52.63 4.9,53.86 4.28,55.08 4.9,55.69 4.28,56.3 4.9,56.92 4.28,56.3 4.9,56.31 4.28,55.08 4.9,53.85 4.28,52.63 4.9,50.8 4.89,48.35 4.29,45.9 4.89,42.23 4.29,39.16 4.89,35.5 4.29,31.21 4.89,26.32 4.29,22.64 4.89,17.75 4.29,12.85 4.89,7.96 4.29,2.45 4.89,-2.45 4.29,-7.96 4.9,-12.85 4.28,-17.75 4.9,-22.64 4.89,-26.32 4.29,-31.21 4.89,-35.5 4.29,-39.16 4.89,-42.23 4.28,-45.9 4.9,-48.35 4.28,-50.8 4.9,-52.63 4.28,-53.85 4.9,-55.08 4.28,-56.31 4.9,-56.3 4.28,-56.92 4.9,-56.3 4.9,-55.69 4.28,-55.08 4.9,-53.86 4.28,-52.63 4.9,-50.8 4.28,-49.57 4.9,-47.12 4.28,-45.9 4.9,-43.46 4.28,-41.61 4.89,-39.17 4.29,-37.33 4.89,-34.89 4.29,-32.43 4.89,-30.6 4.29,-28.77 4.9,-26.92 4.89,-25.1 4.29,-22.64 4.89,-21.42 4.29,-19.59 4.89,-18.35 4.29,-17.14 4.89,-15.3 4.29,-14.08 4.89,-12.85 4.29,-12.24 4.89,-11.01 4.29,-9.79 4.89,-9.8 4.29,-8.56 4.89,-7.35 4.9,-7.35 4.28,-6.73 4.9,-6.12 4.28,-6.11 4.9,-4.9 4.28,-4.9 4.9,-4.9 4.28,-3.67 4.9,-4.28 4.28,-3.67 4.9,-3.06 4.28,-3.06 4.9,-3.06 4.28,-3.06 4.9,-2.45 4.28,-2.45 4.9,-1.83 4.89,-2.45 4.29,-1.84 4.89,-1.83 4.29,-1.84 4.89,-1.22 4.29,-1.84 4.89,-1.23 4.29,-1.22 4.89,-1.22 4.29,-1.23 4.89,-0.61 4.29,-1.22 4.89,-0.61 4.29,-0.62 4.89,-0.61 4.9,-0.61 4.29,-0.61 4.89,-0.62 4.29,-0.6 4.89,-0.62 h 4.29 l 4.89,-0.61 h 4.29 l 4.89,-0.61 4.28,-0.61 h 4.9 l 4.28,-0.62 h 4.9 l 4.28,-0.61 h 4.9 l 4.28,-0.61 h 4.9 l 4.9,-0.61 h 4.28 l 4.9,-0.61 4.28,-0.62 h 4.9 l 4.28,-0.61 4.9,-0.61 h 4.28 l 4.9,-0.61 4.28,-0.61 h 4.9 l 4.28,-0.61 4.89,-0.62 h 4.29 l 4.89,-0.61 4.9,-0.61 h 4.28 l 4.9,-0.61 4.29,-0.62 4.89,-0.61 h 4.29 l 4.89,-0.61 4.29,-0.61 4.89,-0.61 h 4.29 l 4.89,-0.62 4.29,-0.61 4.89,-0.61 4.29,-0.61 h 4.89 l 4.29,-0.61 4.89,-0.61 4.9,-0.62 4.28,-0.61 4.9,-0.61 h 4.28 l 4.9,-0.61 4.28,-0.62 4.9,-0.61 4.28,-0.61 4.9,-0.61 4.28,-0.62 4.9,-0.61 4.28,-0.61 4.9,-0.61 4.28,-0.61 4.9,-0.61 4.9,-0.62 4.28,-0.61 4.89,-0.61 4.29,-0.61 4.89,-0.61 4.29,-0.62 4.89,-0.61 4.29,-0.61 4.89,-0.61 4.29,-0.62 4.89,-0.6 4.29,-0.62 4.89,-0.61 4.29,-1.22 4.89,-0.62 4.29,-0.61 4.89,-0.61 h 4.9 l 4.28,-0.61 4.9,-0.61 4.29,-0.62 4.89,-0.61 4.29,-0.61 4.89,-0.61 4.29,-0.62 4.89,-0.6 4.29,-0.62 4.89,-0.61 h 4.28 l 4.9,-0.61 4.28,-0.61 4.9,-0.62 4.9,-0.61 4.28,-0.61 h 4.9 l 4.28,-0.61 4.9,-0.61 4.28,-0.62 h 4.9 l 4.28,-0.61 4.9,-0.61 4.28,-0.61 h 4.9 l 4.28,-0.61 4.9,-0.61 h 4.28 l 4.9,-0.62 4.28,-0.61 4.89,-0.61 h 4.9 l 4.28,-0.61 h 4.9 l 4.28,-0.62 4.9,-0.61 h 4.29 l 4.89,-0.61 4.29,-0.61 h 4.89 l 4.29,-0.61 h 4.89 l 4.29,-0.62 h 4.89 l 4.29,-0.61 h 4.89 l 4.9,-0.61 h 4.28 l 4.9,-0.61 h 4.28 l 4.9,-0.61 h 4.28 l 4.9,-0.62 h 4.28 4.9 l 4.28,-0.61 h 4.9 l 4.28,-0.61 h 4.9 4.28 l 4.9,-0.61 h 4.28 4.9 l 4.9,-0.61 h 4.28 4.9 l 4.28,-0.62 h 4.89 4.29 4.89 l 4.29,-0.61 h 4.89 4.29 l 4.89,-0.61 h 4.29 4.89 4.29 4.89 l 4.9,-0.61 h 4.28 4.9 4.28 l 4.9,-0.62 h 4.28 4.9 4.29 4.89 4.29 l 4.89,-0.6 h 4.29 4.89 4.29 4.89 4.28 4.9 l 4.9,-0.62 h 4.28 4.9 4.28 4.9 4.28 4.9 4.28 l 4.9,-0.61 h 4.28 4.9 4.28 4.9 4.28 4.9 4.89 4.29 4.89 l 4.28,-0.61 h 4.9 4.28 4.9 4.28 4.9 4.29 4.89 4.29 4.89 4.29 4.89 4.29 4.89 4.9 l 4.28,-0.61 h 4.9 4.28 4.9 4.28 4.9 0.61" /><path
         id="path22"
         style="fill:none;stroke:#000000;stroke-width:9.18000031;stroke-linecap:butt;stroke-linejoin:miter;stroke-miterlimit:10;stroke-dasharray:none;stroke-opacity:1"
         d="M 918,3254.62 H 3683.63" /><path
         id="path24"
         style="fill:none;stroke:#000000;stroke-width:9.18000031;stroke-linecap:butt;stroke-linejoin:miter;stroke-miterlimit:10;stroke-dasharray:none;stroke-opacity:1"
         d="M 918,5202 H 3683.63" /><path
         id="path26"
         style="fill:none;stroke:#000000;stroke-width:9.18000031;stroke-linecap:butt;stroke-linejoin:miter;stroke-miterlimit:10;stroke-dasharray:none;stroke-opacity:1"
         d="m 918,3254.62 v 61.2" /><path
         id="path28"
         style="fill:none;stroke:#000000;stroke-width:9.18000031;stroke-linecap:butt;stroke-linejoin:miter;stroke-miterlimit:10;stroke-dasharray:none;stroke-opacity:1"
         d="m 918,5202 v -61.2" /><path
         id="path30"
         style="fill:none;stroke:#000000;stroke-width:9.18000031;stroke-linecap:butt;stroke-linejoin:miter;stroke-miterlimit:10;stroke-dasharray:none;stroke-opacity:1"
         d="m 1839.67,3254.62 v 61.2" /><path
         id="path32"
         style="fill:none;stroke:#000000;stroke-width:9.18000031;stroke-linecap:butt;stroke-linejoin:miter;stroke-miterlimit:10;stroke-dasharray:none;stroke-opacity:1"
         d="m 1839.67,5202 v -61.2" /><path
         id="path34"
         style="fill:none;stroke:#000000;stroke-width:9.18000031;stroke-linecap:butt;stroke-linejoin:miter;stroke-miterlimit:10;stroke-dasharray:none;stroke-opacity:1"
         d="m 2761.34,3254.62 v 61.2" /><path
         id="path36"
         style="fill:none;stroke:#000000;stroke-width:9.18000031;stroke-linecap:butt;stroke-linejoin:miter;stroke-miterlimit:10;stroke-dasharray:none;stroke-opacity:1"
         d="m 2761.34,5202 v -61.2" /><path
         id="path38"
         style="fill:none;stroke:#000000;stroke-width:9.18000031;stroke-linecap:butt;stroke-linejoin:miter;stroke-miterlimit:10;stroke-dasharray:none;stroke-opacity:1"
         d="m 3683.63,3254.62 v 61.2" /><path
         id="path40"
         style="fill:none;stroke:#000000;stroke-width:9.18000031;stroke-linecap:butt;stroke-linejoin:miter;stroke-miterlimit:10;stroke-dasharray:none;stroke-opacity:1"
         d="m 3683.63,5202 v -61.2" /><path
         id="path42"
         style="fill:none;stroke:#000000;stroke-width:9.18000031;stroke-linecap:butt;stroke-linejoin:miter;stroke-miterlimit:10;stroke-dasharray:none;stroke-opacity:1"
         d="m 1378.84,3254.62 v 122.4" /><path
         id="path44"
         style="fill:none;stroke:#000000;stroke-width:9.18000031;stroke-linecap:butt;stroke-linejoin:miter;stroke-miterlimit:10;stroke-dasharray:none;stroke-opacity:1"
         d="M 1378.84,5202 V 5079.6" /><path
         id="path46"
         style="fill:none;stroke:#000000;stroke-width:9.18000031;stroke-linecap:butt;stroke-linejoin:miter;stroke-miterlimit:10;stroke-dasharray:none;stroke-opacity:1"
         d="m 2300.51,3254.62 v 122.4" /><path
         id="path48"
         style="fill:none;stroke:#000000;stroke-width:9.18000031;stroke-linecap:butt;stroke-linejoin:miter;stroke-miterlimit:10;stroke-dasharray:none;stroke-opacity:1"
         d="M 2300.51,5202 V 5079.6" /><path
         id="path50"
         style="fill:none;stroke:#000000;stroke-width:9.18000031;stroke-linecap:butt;stroke-linejoin:miter;stroke-miterlimit:10;stroke-dasharray:none;stroke-opacity:1"
         d="m 3222.79,3254.62 v 122.4" /><path
         id="path52"
         style="fill:none;stroke:#000000;stroke-width:9.18000031;stroke-linecap:butt;stroke-linejoin:miter;stroke-miterlimit:10;stroke-dasharray:none;stroke-opacity:1"
         d="M 3222.79,5202 V 5079.6" /><g
         transform="scale(10)"
         id="g54"><text
           id="text60"
           style="font-variant:normal;font-weight:normal;font-size:17.13599968px;font-family:'Times New Roman';-inkscape-font-specification:Times-Roman;writing-mode:lr-tb;fill:#000000;fill-opacity:1;fill-rule:nonzero;stroke:none"
           transform="matrix(1,0,0,-1,122.4,526.565)"><tspan
             id="tspan56"
             y="0"
             x="0 5.7062879 14.274288 22.842287 103.61179 187.27197 195.83998 204.40797">-2000200</tspan><tspan
             id="tspan58"
             y="-24.480101"
             x="69.155899">p</tspan></text>
<text
           id="text64"
           style="font-variant:normal;font-weight:normal;font-size:12.11760044px;font-family:'Times New Roman';-inkscape-font-specification:Times-Roman;writing-mode:lr-tb;fill:#000000;fill-opacity:1;fill-rule:nonzero;stroke:none"
           transform="matrix(1,0,0,-1,200.1852,544.19041)"><tspan
             id="tspan62"
             y="0"
             x="0">x</tspan></text>
<text
           id="text68"
           style="font-variant:normal;font-weight:normal;font-size:17.13599968px;font-family:'Times New Roman';-inkscape-font-specification:Times-Roman;writing-mode:lr-tb;fill:#000000;fill-opacity:1;fill-rule:nonzero;stroke:none"
           transform="matrix(1,0,0,-1,210.46686,551.0451)"><tspan
             id="tspan66"
             y="0"
             x="0 5.7062879 20.940191 28.548576 40.920769 45.684574 53.292961">(MeV/c)</tspan></text>
</g><path
         id="path70"
         style="fill:none;stroke:#000000;stroke-width:9.18000031;stroke-linecap:butt;stroke-linejoin:miter;stroke-miterlimit:10;stroke-dasharray:none;stroke-opacity:1"
         d="M 918,3254.62 V 5202" /><path
         id="path72"
         style="fill:none;stroke:#000000;stroke-width:9.18000031;stroke-linecap:butt;stroke-linejoin:miter;stroke-miterlimit:10;stroke-dasharray:none;stroke-opacity:1"
         d="M 3683.63,3254.62 V 5202" /><path
         id="path74"
         style="fill:none;stroke:#000000;stroke-width:9.18000031;stroke-linecap:butt;stroke-linejoin:miter;stroke-miterlimit:10;stroke-dasharray:none;stroke-opacity:1"
         d="m 918,3449.23 h 61.199" /><path
         id="path76"
         style="fill:none;stroke:#000000;stroke-width:9.18000031;stroke-linecap:butt;stroke-linejoin:miter;stroke-miterlimit:10;stroke-dasharray:none;stroke-opacity:1"
         d="m 3683.63,3449.23 h -61.2" /><path
         id="path78"
         style="fill:none;stroke:#000000;stroke-width:9.18000031;stroke-linecap:butt;stroke-linejoin:miter;stroke-miterlimit:10;stroke-dasharray:none;stroke-opacity:1"
         d="m 918,3839.08 h 61.199" /><path
         id="path80"
         style="fill:none;stroke:#000000;stroke-width:9.18000031;stroke-linecap:butt;stroke-linejoin:miter;stroke-miterlimit:10;stroke-dasharray:none;stroke-opacity:1"
         d="m 3683.63,3839.08 h -61.2" /><path
         id="path82"
         style="fill:none;stroke:#000000;stroke-width:9.18000031;stroke-linecap:butt;stroke-linejoin:miter;stroke-miterlimit:10;stroke-dasharray:none;stroke-opacity:1"
         d="m 918,4228.31 h 61.199" /><path
         id="path84"
         style="fill:none;stroke:#000000;stroke-width:9.18000031;stroke-linecap:butt;stroke-linejoin:miter;stroke-miterlimit:10;stroke-dasharray:none;stroke-opacity:1"
         d="m 3683.63,4228.31 h -61.2" /><path
         id="path86"
         style="fill:none;stroke:#000000;stroke-width:9.18000031;stroke-linecap:butt;stroke-linejoin:miter;stroke-miterlimit:10;stroke-dasharray:none;stroke-opacity:1"
         d="m 918,4617.54 h 61.199" /><path
         id="path88"
         style="fill:none;stroke:#000000;stroke-width:9.18000031;stroke-linecap:butt;stroke-linejoin:miter;stroke-miterlimit:10;stroke-dasharray:none;stroke-opacity:1"
         d="m 3683.63,4617.54 h -61.2" /><path
         id="path90"
         style="fill:none;stroke:#000000;stroke-width:9.18000031;stroke-linecap:butt;stroke-linejoin:miter;stroke-miterlimit:10;stroke-dasharray:none;stroke-opacity:1"
         d="m 918,5007.38 h 61.199" /><path
         id="path92"
         style="fill:none;stroke:#000000;stroke-width:9.18000031;stroke-linecap:butt;stroke-linejoin:miter;stroke-miterlimit:10;stroke-dasharray:none;stroke-opacity:1"
         d="m 3683.63,5007.38 h -61.2" /><path
         id="path94"
         style="fill:none;stroke:#000000;stroke-width:9.18000031;stroke-linecap:butt;stroke-linejoin:miter;stroke-miterlimit:10;stroke-dasharray:none;stroke-opacity:1"
         d="m 918,3254.62 h 122.4" /><path
         id="path96"
         style="fill:none;stroke:#000000;stroke-width:9.18000031;stroke-linecap:butt;stroke-linejoin:miter;stroke-miterlimit:10;stroke-dasharray:none;stroke-opacity:1"
         d="m 3683.63,3254.62 h -122.4" /><path
         id="path98"
         style="fill:none;stroke:#000000;stroke-width:9.18000031;stroke-linecap:butt;stroke-linejoin:miter;stroke-miterlimit:10;stroke-dasharray:none;stroke-opacity:1"
         d="m 918,3644.46 h 122.4" /><path
         id="path100"
         style="fill:none;stroke:#000000;stroke-width:9.18000031;stroke-linecap:butt;stroke-linejoin:miter;stroke-miterlimit:10;stroke-dasharray:none;stroke-opacity:1"
         d="m 3683.63,3644.46 h -122.4" /><path
         id="path102"
         style="fill:none;stroke:#000000;stroke-width:9.18000031;stroke-linecap:butt;stroke-linejoin:miter;stroke-miterlimit:10;stroke-dasharray:none;stroke-opacity:1"
         d="m 918,4033.69 h 122.4" /><path
         id="path104"
         style="fill:none;stroke:#000000;stroke-width:9.18000031;stroke-linecap:butt;stroke-linejoin:miter;stroke-miterlimit:10;stroke-dasharray:none;stroke-opacity:1"
         d="m 3683.63,4033.69 h -122.4" /><path
         id="path106"
         style="fill:none;stroke:#000000;stroke-width:9.18000031;stroke-linecap:butt;stroke-linejoin:miter;stroke-miterlimit:10;stroke-dasharray:none;stroke-opacity:1"
         d="m 918,4422.93 h 122.4" /><path
         id="path108"
         style="fill:none;stroke:#000000;stroke-width:9.18000031;stroke-linecap:butt;stroke-linejoin:miter;stroke-miterlimit:10;stroke-dasharray:none;stroke-opacity:1"
         d="m 3683.63,4422.93 h -122.4" /><path
         id="path110"
         style="fill:none;stroke:#000000;stroke-width:9.18000031;stroke-linecap:butt;stroke-linejoin:miter;stroke-miterlimit:10;stroke-dasharray:none;stroke-opacity:1"
         d="m 918,4812.77 h 122.4" /><path
         id="path112"
         style="fill:none;stroke:#000000;stroke-width:9.18000031;stroke-linecap:butt;stroke-linejoin:miter;stroke-miterlimit:10;stroke-dasharray:none;stroke-opacity:1"
         d="m 3683.63,4812.77 h -122.4" /><path
         id="path114"
         style="fill:none;stroke:#000000;stroke-width:9.18000031;stroke-linecap:butt;stroke-linejoin:miter;stroke-miterlimit:10;stroke-dasharray:none;stroke-opacity:1"
         d="m 918,5202 h 122.4" /><path
         id="path116"
         style="fill:none;stroke:#000000;stroke-width:9.18000031;stroke-linecap:butt;stroke-linejoin:miter;stroke-miterlimit:10;stroke-dasharray:none;stroke-opacity:1"
         d="m 3683.63,5202 h -122.4" /><g
         transform="scale(10)"
         id="g118"><text
           id="text132"
           style="font-variant:normal;font-weight:normal;font-size:17.13599968px;font-family:'Times New Roman';-inkscape-font-specification:Times-Roman;writing-mode:lr-tb;fill:#000000;fill-opacity:1;fill-rule:nonzero;stroke:none"
           transform="matrix(1,0,0,-1,77.5402,319.831)"><tspan
             id="tspan120"
             y="0"
             x="0">0</tspan><tspan
             id="tspan122"
             y="-38.923"
             x="-11.5668 -2.9988 1.2852">0.1</tspan><tspan
             id="tspan124"
             y="-77.907402"
             x="-12.97422 -4.40622 -0.12222">0.2</tspan><tspan
             id="tspan126"
             y="-116.8308"
             x="-12.239845 -3.671845 0.61215502">0.3</tspan><tspan
             id="tspan128"
             y="-155.7538"
             x="-12.97422 -4.40622 -0.12222">0.4</tspan><tspan
             id="tspan130"
             y="-194.61591"
             x="-12.239845 -3.671845 0.61215502">0.5</tspan></text>
<text
           id="text136"
           style="font-variant:normal;font-weight:normal;font-size:17.13599968px;font-family:'Times New Roman';-inkscape-font-specification:Times-Roman;writing-mode:lr-tb;fill:#000000;fill-opacity:1;fill-rule:nonzero;stroke:none"
           transform="matrix(0,1,1,0,51.5914,349.146)"><tspan
             id="tspan134"
             y="0"
             x="0">d</tspan></text>
<text
           id="text140"
           style="font-variant:normal;font-weight:normal;font-size:17.13599968px;font-family:Symbol;-inkscape-font-specification:Symbol;writing-mode:lr-tb;fill:#000000;fill-opacity:1;fill-rule:nonzero;stroke:none"
           transform="matrix(0,1,1,0,51.5914,357.77491)"><tspan
             id="tspan138"
             y="0"
             x="0">σ</tspan></text>
<text
           id="text144"
           style="font-variant:normal;font-weight:normal;font-size:17.13599968px;font-family:'Times New Roman';-inkscape-font-specification:Times-Roman;writing-mode:lr-tb;fill:#000000;fill-opacity:1;fill-rule:nonzero;stroke:none"
           transform="matrix(0,1,1,0,51.5914,368.11791)"><tspan
             id="tspan142"
             y="0"
             x="0 4.7638078 13.331808">/dp</tspan></text>
<text
           id="text148"
           style="font-variant:normal;font-weight:normal;font-size:12.11760044px;font-family:'Times New Roman';-inkscape-font-specification:Times-Roman;writing-mode:lr-tb;fill:#000000;fill-opacity:1;fill-rule:nonzero;stroke:none"
           transform="matrix(0,1,1,0,58.44609,389.96631)"><tspan
             id="tspan146"
             y="0"
             x="0">x</tspan></text>
<text
           id="text152"
           style="font-variant:normal;font-weight:normal;font-size:17.13599968px;font-family:'Times New Roman';-inkscape-font-specification:Times-Roman;writing-mode:lr-tb;fill:#000000;fill-opacity:1;fill-rule:nonzero;stroke:none"
           transform="matrix(0,1,1,0,51.5914,400.24797)"><tspan
             id="tspan150"
             y="0"
             x="0 5.7062879 19.038095 27.606096 32.369904 38.076191 53.310097 60.91848 73.290672 78.054482 85.662865 91.369148">(mb/(MeV/c))</tspan></text>
</g><path
         id="path154"
         style="fill:none;stroke:#000000;stroke-width:9.18000031;stroke-linecap:butt;stroke-linejoin:miter;stroke-miterlimit:10;stroke-dasharray:none;stroke-opacity:1"
         d="M 918,3254.62 V 5202 H 3683.63 V 3254.62 Z" /><path
         id="path156"
         style="fill:none;stroke:#000000;stroke-width:18.36000061;stroke-linecap:butt;stroke-linejoin:miter;stroke-miterlimit:10;stroke-dasharray:none;stroke-opacity:1"
         d="m 4235.65,3254.62 h 116.28 l 5.51,0.61 h 190.94 l 4.9,0.61 h 4.9 4.89 5.51 4.9 4.89 4.9 5.51 4.89 4.9 4.89 l 4.9,0.61 h 5.51 4.9 4.89 4.89 l 5.51,0.61 h 4.9 4.9 4.89 4.9 5.51 l 4.89,0.62 h 4.9 4.89 4.9 5.51 l 4.89,0.61 h 4.9 4.9 5.51 l 4.89,0.61 h 4.89 4.9 4.9 l 5.51,0.61 h 4.89 4.9 l 4.89,0.62 h 4.9 5.51 l 4.89,0.6 h 4.9 4.9 l 5.5,0.62 h 4.9 l 4.9,0.61 h 4.89 4.9 l 5.51,0.61 h 4.89 4.9 l 4.9,0.61 h 4.89 l 5.51,0.62 h 4.89 l 4.9,0.61 h 4.9 l 5.5,0.61 h 4.9 l 4.9,0.61 h 4.89 l 4.9,0.61 h 5.51 l 4.89,0.62 h 4.9 l 4.89,0.61 5.51,0.61 h 4.9 l 4.9,0.61 h 4.89 l 4.89,0.61 h 5.52 l 4.89,0.62 h 4.9 l 4.89,0.61 h 4.9 l 5.51,0.61 h 4.89 l 4.9,0.61 h 4.89 l 5.51,0.61 h 4.9 l 4.89,0.62 h 4.9 l 4.9,0.61 h 5.5 l 4.9,0.61 4.9,0.61 h 4.89 l 4.9,0.62 h 5.5 l 4.9,0.61 h 4.9 l 4.9,0.61 5.5,0.61 h 4.9 l 4.89,0.61 h 4.9 l 4.9,0.61 h 5.5 l 4.9,0.62 h 4.9 l 4.89,0.61 h 5.51 l 4.9,0.61 h 4.89 l 4.9,0.61 h 4.9 l 5.5,0.61 h 4.9 l 4.9,0.62 h 4.89 l 4.89,0.61 h 5.51 l 4.9,0.61 h 4.9 l 4.89,0.61 h 5.51 l 4.9,0.62 h 4.89 l 4.9,0.6 h 4.89 l 5.51,0.62 h 4.9 l 4.89,0.61 4.9,0.61 4.9,0.61 h 5.51 l 4.89,0.62 4.89,0.61 h 4.9 l 5.51,0.61 4.9,0.61 4.89,0.61 h 4.9 l 4.89,0.62 5.51,0.61 4.9,0.61 h 4.89 l 4.9,0.61 h 4.9 l 5.5,0.62 h 4.9 4.9 l 4.89,0.6 h 5.51 l 4.89,0.62 h 4.9 4.9 4.9 l 5.5,0.61 h 4.9 l 4.89,0.61 4.9,0.61 5.51,1.23 4.89,0.61 4.9,0.61 4.9,0.61 h 4.89 l 5.51,0.62 4.9,0.61 4.89,1.22 4.9,0.61 4.89,0.61 5.51,1.23 4.9,0.61 4.9,1.23 4.89,1.22 5.51,0.61 4.9,1.84 4.89,1.83 4.9,1.84 4.89,3.06 5.51,2.45 4.9,2.45 4.89,2.44 4.9,2.45 4.89,2.45 5.51,2.45 4.9,2.45 4.89,3.05 4.9,2.45 5.51,3.06 4.9,3.68 4.89,3.67 4.9,2.45 4.89,2.44 5.51,3.06 4.89,2.45 4.9,2.45 4.9,2.45 5.51,2.45 4.89,3.67 4.9,5.51 4.89,6.73 4.9,8.57 5.51,10.4 4.89,11.63 4.9,12.24 4.9,14.07 4.89,14.69 5.51,16.53 4.9,20.19 4.89,16.53 4.9,14.07 5.5,11.02 4.9,8.57 4.9,12.85 4.9,15.3 4.89,18.97 5.51,21.42 4.89,23.25 4.9,25.1 4.9,26.31 4.89,28.77 5.51,31.21 4.9,33.66 4.89,35.5 4.9,39.78 5.51,43.45 4.89,46.51 4.9,47.73 4.89,49.58 4.9,50.8 5.51,52.01 4.9,52.02 4.89,50.19 4.89,47.73 4.9,45.29 5.51,45.29 4.9,43.45 4.89,41.62 4.9,39.78 5.51,38.55 4.89,39.17 4.9,39.17 4.89,37.33 4.9,37.95 5.51,36.71 4.89,36.11 4.9,34.28 4.9,29.37 5.51,23.26 4.89,16.52 4.89,11.63 4.9,7.34 4.9,3.67 h 5.51 l 4.89,-4.89 4.9,-11.02 4.89,-17.13 4.9,-22.03 5.51,-28.16 4.89,-33.04 4.9,-37.33 4.9,-40.4 5.5,-41.61 4.9,-42.84 4.9,-42.84 4.89,-43.46 4.9,-44.67 5.51,-45.29 4.89,-44.68 4.9,-45.29 4.9,-45.28 4.89,-46.51 5.51,-47.74 4.9,-48.96 4.89,-48.96 4.9,-47.74 5.5,-47.73 4.9,-45.29 4.9,-44.06 4.89,-42.23 4.9,-41.01 5.51,-38.55 4.89,-36.72 4.9,-35.5 4.89,-33.66 4.9,-30.6 5.51,-28.76 4.9,-26.32 4.89,-25.09 4.9,-23.26 5.51,-22.03 4.89,-20.19 4.9,-18.98 4.89,-17.74 4.9,-16.53 5.51,-15.3 4.89,-14.68 4.9,-14.08 4.89,-12.85 5.51,-11.63 4.9,-11.02 4.89,-9.18 4.9,-8.57 4.9,-7.34 5.5,-7.34 4.9,-6.12 4.9,-5.51 4.89,-5.51 4.9,-4.9 5.5,-4.89 4.9,-4.9 4.9,-4.28 4.9,-3.67 5.5,-3.68 4.9,-3.05 4.89,-2.45 4.9,-2.45 4.9,-1.84 5.5,-1.83 4.9,-1.84 4.9,-1.22 4.89,-1.23 4.9,-1.22 5.51,-1.23 4.89,-1.22 4.9,-0.61 4.9,-0.61 5.5,-0.62 h 4.9 l 4.9,-0.61 h 4.89 4.89 5.51 l 4.9,-0.61 h 4.9 4.89 5.51 4.9 4.89 4.9 4.89 l 5.51,0.61 h 4.9 4.89 4.9 4.9 5.51 l 4.89,0.61 h 4.89 4.9 5.51 4.9 4.89 4.9 4.89 l 5.51,-0.61 h 4.9 4.89 4.9 4.9 l 5.5,-0.61 h 4.9 4.9 l 4.89,-0.61 h 5.51 l 4.9,-0.61 h 4.89 l 4.9,-0.62 h 4.9 l 5.5,-0.61 h 4.9 l 4.89,-0.61 h 4.9 l 4.9,-0.61 5.5,-0.62 h 4.9 l 4.9,-0.6 4.89,-0.62 h 5.51 l 4.9,-0.61 4.89,-0.61 h 4.9 l 4.89,-0.61 5.51,-0.62 4.9,-0.61 h 4.9 l 4.89,-0.61 5.51,-0.61 h 4.89 l 4.9,-0.61 4.9,-0.62 4.89,-0.61 h 5.51 l 4.9,-0.61 4.89,-0.61 h 4.9 l 4.89,-0.62 5.51,-0.6 h 4.9 l 4.89,-0.62 4.9,-0.61 h 5.51 l 4.9,-0.61 4.89,-0.61 h 4.9 l 4.89,-0.62 h 5.51 l 4.89,-0.61 4.9,-0.61 h 4.9 l 4.89,-0.61 h 5.51 l 4.9,-0.61 h 4.89 l 4.9,-0.62 h 5.51 l 4.89,-0.61 h 4.9 l 4.9,-0.61 h 4.89 l 5.51,-0.61 h 4.9 l 4.89,-0.61 h 4.9 l 5.5,-0.61 h 4.9 4.9 l 4.9,-0.62 h 4.89 5.51 l 4.89,-0.61 h 4.9 4.9 l 4.89,-0.61 h 5.51 4.9 4.89 l 4.9,-0.61 h 5.51 4.89 4.9 4.89 4.9 l 5.51,-0.62 h 4.9 4.89 4.89 4.9 5.51 4.9 4.89 4.9 5.51 l 4.89,0.62 h 4.9 4.89 4.9 5.51 4.89 l 4.9,0.61 h 4.9 l 4.89,0.61 h 5.51 4.9 l 4.89,0.61 4.9,0.62 h 5.51 l 4.89,0.61 4.9,0.61 4.89,0.61 4.9,1.22 5.51,0.62 h 4.89 l 4.9,0.61 4.9,-0.61 h 5.5 l 4.9,-0.62 4.9,-0.61 4.89,-1.22 4.9,-0.61 h 5.51 4.89 4.9 4.9 l 4.89,1.22 5.51,0.61 4.89,1.23 4.9,1.22 4.9,1.22 5.5,0.62 4.9,1.22 4.9,1.23 4.89,1.22 h 0.61" /><path
         id="path158"
         style="fill:none;stroke:#ff0000;stroke-width:18.36000061;stroke-linecap:butt;stroke-linejoin:miter;stroke-miterlimit:10;stroke-dasharray:none;stroke-opacity:1"
         d="m 4235.65,3254.62 h 171.98 l 4.89,0.61 h 140.76 l 4.9,0.61 h 4.89 5.51 4.9 4.89 4.9 5.51 4.89 4.9 4.89 l 4.9,0.61 h 5.51 4.9 4.89 4.89 l 5.51,0.61 h 4.9 4.9 4.89 4.9 5.51 l 4.89,0.62 h 4.9 4.89 4.9 5.51 l 4.89,0.61 h 4.9 4.9 5.51 l 4.89,0.61 h 4.89 4.9 4.9 l 5.51,0.61 h 4.89 4.9 l 4.89,0.62 h 4.9 5.51 l 4.89,0.6 h 4.9 4.9 l 5.5,0.62 h 4.9 l 4.9,0.61 h 4.89 4.9 l 5.51,0.61 h 4.89 4.9 l 4.9,0.61 h 4.89 l 5.51,0.62 h 4.89 4.9 l 4.9,0.61 h 5.5 l 4.9,0.61 h 4.9 l 4.89,0.61 h 4.9 l 5.51,0.61 h 4.89 l 4.9,0.62 h 4.89 l 5.51,0.61 4.9,0.61 h 4.9 l 4.89,0.61 h 4.89 l 5.52,0.61 h 4.89 l 4.9,0.62 h 4.89 4.9 l 5.51,0.61 h 4.89 l 4.9,0.61 h 4.89 l 5.51,0.61 h 4.9 l 4.89,0.61 4.9,0.62 h 4.9 l 5.5,0.61 h 4.9 l 4.9,0.61 h 4.89 l 4.9,0.61 h 5.5 l 4.9,0.62 h 4.9 l 4.9,0.61 5.5,0.61 h 4.9 l 4.89,0.61 h 4.9 l 4.9,0.61 h 5.5 l 4.9,0.61 h 4.9 l 4.89,0.62 h 5.51 l 4.9,0.61 h 4.89 l 4.9,0.61 h 4.9 l 5.5,0.61 h 4.9 l 4.9,0.61 h 4.89 l 4.89,0.62 h 5.51 l 4.9,0.61 h 4.9 l 4.89,0.61 h 5.51 4.9 l 4.89,0.61 h 4.9 l 4.89,0.62 h 5.51 l 4.9,0.6 4.89,0.62 h 4.9 l 4.9,0.61 5.51,0.61 4.89,0.61 h 4.89 l 4.9,0.62 5.51,0.61 h 4.9 l 4.89,0.61 4.9,0.61 4.89,0.61 5.51,0.62 h 4.9 l 4.89,0.61 h 4.9 l 4.9,0.61 h 5.5 l 4.9,0.61 h 4.9 l 4.89,0.62 h 5.51 4.89 l 4.9,0.6 h 4.9 4.9 l 5.5,0.62 h 4.9 l 4.89,0.61 4.9,1.22 5.51,0.62 4.89,0.61 4.9,0.61 4.9,0.61 4.89,0.61 5.51,0.62 4.9,0.61 4.89,0.61 4.9,1.22 4.89,0.61 5.51,1.23 4.9,0.61 4.9,1.23 4.89,1.22 5.51,0.61 4.9,1.84 4.89,1.83 4.9,2.45 4.89,2.45 5.51,3.06 4.9,2.45 4.89,2.45 4.9,2.45 4.89,2.44 5.51,3.06 4.9,2.45 4.89,2.45 4.9,2.45 5.51,3.06 4.9,4.28 4.89,3.06 4.9,3.06 4.89,2.45 5.51,2.45 4.89,2.45 4.9,3.05 4.9,2.45 5.51,2.45 4.89,3.67 4.9,5.51 4.89,6.73 4.9,8.57 5.51,9.79 4.89,11.63 4.9,12.24 4.9,14.08 4.89,14.68 5.51,16.53 4.9,19.58 4.89,16.53 4.9,14.07 5.5,11.02 4.9,9.18 4.9,12.24 4.9,15.3 4.89,18.97 5.51,21.42 4.89,23.25 4.9,24.49 4.9,26.31 4.89,28.15 5.51,31.21 4.9,34.28 4.89,34.88 4.9,39.78 5.51,42.84 4.89,45.9 4.9,47.74 4.89,49.57 4.9,50.18 5.51,51.41 4.9,52.02 4.89,49.57 4.89,47.74 4.9,45.29 5.51,44.68 4.9,43.45 4.89,41.61 4.9,39.78 5.51,38.56 4.89,39.17 4.9,38.55 4.89,37.95 4.9,37.33 5.51,37.33 4.89,36.11 4.9,34.88 4.9,29.38 5.51,23.26 4.89,17.13 4.89,11.63 4.9,7.95 4.9,3.68 h 5.51 l 4.89,-4.29 4.9,-11.01 4.89,-17.14 4.9,-21.42 5.51,-28.77 4.89,-32.43 4.9,-37.33 4.9,-41 5.5,-41.01 4.9,-42.23 4.9,-42.84 4.89,-44.06 4.9,-44.68 5.51,-44.67 4.89,-45.29 4.9,-44.68 4.9,-45.29 4.89,-46.51 5.51,-47.73 4.9,-48.35 4.89,-48.96 4.9,-48.35 5.5,-47.12 4.9,-45.29 4.9,-44.07 4.89,-42.22 4.9,-41.01 5.51,-38.55 4.89,-36.72 4.9,-35.5 4.89,-33.05 4.9,-31.21 5.51,-28.76 4.9,-26.32 4.89,-25.09 4.9,-23.26 5.51,-22.03 4.89,-20.2 4.9,-18.97 4.89,-17.75 4.9,-16.52 5.51,-15.3 4.89,-14.69 4.9,-13.46 4.89,-13.46 5.51,-11.63 4.9,-10.41 4.89,-9.79 4.9,-7.96 4.9,-7.95 5.5,-6.73 4.9,-6.12 4.9,-6.12 4.89,-5.51 4.9,-4.9 5.5,-4.9 4.9,-4.28 4.9,-4.28 4.9,-4.29 5.5,-3.67 4.9,-3.06 4.89,-2.45 4.9,-2.44 4.9,-2.45 5.5,-1.84 4.9,-1.22 4.9,-1.84 4.89,-1.22 4.9,-1.23 5.51,-1.22 4.89,-0.61 4.9,-1.23 4.9,-0.61 h 5.5 l 4.9,-0.61 h 4.9 l 4.89,-0.61 h 4.89 5.51 4.9 4.9 l 4.89,-0.61 h 5.51 4.9 4.89 4.9 4.89 5.51 l 4.9,0.61 h 4.89 4.9 4.9 5.51 4.89 4.89 4.9 5.51 4.9 4.89 4.9 4.89 5.51 4.9 l 4.89,-0.61 h 4.9 4.9 5.5 l 4.9,-0.62 h 4.9 4.89 l 5.51,-0.61 h 4.9 l 4.89,-0.61 h 4.9 l 4.9,-0.61 h 5.5 l 4.9,-0.62 h 4.89 l 4.9,-0.6 4.9,-0.62 h 5.5 l 4.9,-0.61 4.9,-0.61 h 4.89 l 5.51,-0.61 4.9,-0.62 h 4.89 l 4.9,-0.61 4.89,-0.61 h 5.51 l 4.9,-0.61 4.9,-0.61 h 4.89 l 5.51,-0.62 4.89,-0.61 4.9,-0.61 h 4.9 l 4.89,-0.61 5.51,-0.62 h 4.9 l 4.89,-0.6 h 4.9 l 4.89,-0.62 5.51,-0.61 h 4.9 l 4.89,-0.61 4.9,-0.61 h 5.51 l 4.9,-0.62 4.89,-0.61 h 4.9 l 4.89,-0.61 h 5.51 l 4.89,-0.61 h 4.9 l 4.9,-0.61 4.89,-0.62 h 5.51 l 4.9,-0.61 h 4.89 l 4.9,-0.61 h 5.51 l 4.89,-0.61 h 4.9 l 4.9,-0.61 h 4.89 l 5.51,-0.61 h 4.9 4.89 l 4.9,-0.62 h 5.5 l 4.9,-0.61 h 4.9 4.9 l 4.89,-0.61 h 5.51 4.89 l 4.9,-0.61 h 4.9 4.89 5.51 l 4.9,-0.62 h 4.89 4.9 5.51 4.89 l 4.9,-0.61 h 4.89 4.9 5.51 4.9 4.89 4.89 4.9 5.51 4.9 4.89 4.9 5.51 4.89 4.9 4.89 l 4.9,0.61 h 5.51 4.89 4.9 l 4.9,0.62 h 4.89 5.51 l 4.9,0.61 4.89,0.61 h 4.9 l 5.51,0.61 4.89,0.62 4.9,0.61 4.89,0.61 4.9,0.61 5.51,0.61 4.89,0.61 h 4.9 4.9 l 5.5,-0.61 4.9,-0.61 4.9,-0.61 4.89,-0.61 4.9,-0.61 5.51,-0.62 h 4.89 4.9 l 4.9,0.62 4.89,0.61 5.51,1.22 4.89,1.22 4.9,0.62 4.9,1.22 5.5,0.61 4.9,1.23 4.9,1.22 4.89,1.23 h 0.61" /><path
         id="path160"
         style="fill:none;stroke:#0000ff;stroke-width:18.36000061;stroke-linecap:butt;stroke-linejoin:miter;stroke-miterlimit:10;stroke-dasharray:none;stroke-opacity:1"
         d="m 4235.65,3257.68 h 53.24 l 18.98,0.61 h 57.52 l 18.98,0.61 h 18.97 18.97 l 18.98,0.61 h 19.58 l 18.97,0.62 h 18.97 l 18.98,0.6 h 18.97 l 18.97,0.62 h 19.58 l 18.98,0.61 18.97,0.61 h 18.97 l 18.97,0.61 18.97,0.62 18.97,0.61 19.59,0.61 18.97,0.61 18.97,0.61 18.97,0.62 18.98,1.22 18.97,0.61 19.58,0.61 18.97,1.23 18.98,0.61 18.97,1.22 18.97,0.62 18.97,1.22 18.97,1.23 19.59,0.61 18.97,1.22 18.97,1.22 18.97,1.23 18.98,1.22 18.97,1.23 18.97,1.22 19.58,1.23 18.98,1.22 18.97,1.83 18.97,1.23 18.97,1.22 18.97,1.23 19.59,1.22 18.97,1.23 18.97,1.83 18.97,1.22 18.98,1.23 18.97,1.83 18.97,2.45 19.58,3.06 18.98,3.68 18.97,5.5 18.97,6.12 18.97,8.57 18.97,9.79 18.98,12.86 19.58,16.52 18.97,20.19 18.97,25.71 18.98,32.44 18.97,41 18.97,51.41 19.58,63.03 18.98,75.89 18.97,90.58 18.97,108.32 18.97,127.3 18.98,151.77 19.58,177.48 18.97,194.62 18.97,196.45 18.98,175.03 18.96,126.69 18.98,51.41 18.97,-37.95 19.59,-120.56 18.96,-176.26 18.98,-203.18 18.97,-208.09 18.97,-198.89 18.98,-177.48 18.97,-148.72 19.58,-119.34 18.97,-94.86 18.98,-74.66 18.97,-58.14 18.97,-44.68 18.97,-33.66 19.59,-25.09 18.97,-18.36 18.97,-13.47 18.97,-9.79 18.97,-6.73 18.97,-4.9 18.98,-3.06 19.58,-1.83 18.97,-1.84 18.97,-1.22 18.98,-0.62 18.97,-0.6 18.97,-0.62 18.97,-1.22 19.59,-0.61 18.97,-1.23 18.97,-1.22 18.97,-0.61 18.97,-1.84 18.98,-1.23 19.58,-1.22 18.97,-1.22 18.97,-1.84 18.98,-1.22 18.97,-1.23 18.97,-1.22 19.58,-1.22 18.98,-1.23 18.97,-1.22 18.97,-1.23 18.97,-0.61 18.97,-1.22 18.98,-0.61 19.58,-0.62 18.97,-0.61 18.97,-0.61 18.98,-0.61 18.97,-0.61 18.97,-0.62 h 18.97 l 19.59,-0.61 18.97,-0.61 h 18.97 l 18.97,-0.61 h 18.97 l 18.98,-0.61 19.58,-0.62 18.97,-1.83 18.97,-3.06 6.12,-0.61" /><path
         id="path162"
         style="fill:none;stroke:#000000;stroke-width:9.18000031;stroke-linecap:butt;stroke-linejoin:miter;stroke-miterlimit:10;stroke-dasharray:none;stroke-opacity:1"
         d="M 4236.27,3254.62 H 7001.89" /><path
         id="path164"
         style="fill:none;stroke:#000000;stroke-width:9.18000031;stroke-linecap:butt;stroke-linejoin:miter;stroke-miterlimit:10;stroke-dasharray:none;stroke-opacity:1"
         d="M 4236.27,5202 H 7001.89" /><path
         id="path166"
         style="fill:none;stroke:#000000;stroke-width:9.18000031;stroke-linecap:butt;stroke-linejoin:miter;stroke-miterlimit:10;stroke-dasharray:none;stroke-opacity:1"
         d="m 4739.33,3254.62 v 61.2" /><path
         id="path168"
         style="fill:none;stroke:#000000;stroke-width:9.18000031;stroke-linecap:butt;stroke-linejoin:miter;stroke-miterlimit:10;stroke-dasharray:none;stroke-opacity:1"
         d="m 4739.33,5202 v -61.2" /><path
         id="path170"
         style="fill:none;stroke:#000000;stroke-width:9.18000031;stroke-linecap:butt;stroke-linejoin:miter;stroke-miterlimit:10;stroke-dasharray:none;stroke-opacity:1"
         d="m 5744.84,3254.62 v 61.2" /><path
         id="path172"
         style="fill:none;stroke:#000000;stroke-width:9.18000031;stroke-linecap:butt;stroke-linejoin:miter;stroke-miterlimit:10;stroke-dasharray:none;stroke-opacity:1"
         d="m 5744.84,5202 v -61.2" /><path
         id="path174"
         style="fill:none;stroke:#000000;stroke-width:9.18000031;stroke-linecap:butt;stroke-linejoin:miter;stroke-miterlimit:10;stroke-dasharray:none;stroke-opacity:1"
         d="m 4236.27,3254.62 v 122.4" /><path
         id="path176"
         style="fill:none;stroke:#000000;stroke-width:9.18000031;stroke-linecap:butt;stroke-linejoin:miter;stroke-miterlimit:10;stroke-dasharray:none;stroke-opacity:1"
         d="M 4236.27,5202 V 5079.6" /><path
         id="path178"
         style="fill:none;stroke:#000000;stroke-width:9.18000031;stroke-linecap:butt;stroke-linejoin:miter;stroke-miterlimit:10;stroke-dasharray:none;stroke-opacity:1"
         d="m 5242.39,3254.62 v 122.4" /><path
         id="path180"
         style="fill:none;stroke:#000000;stroke-width:9.18000031;stroke-linecap:butt;stroke-linejoin:miter;stroke-miterlimit:10;stroke-dasharray:none;stroke-opacity:1"
         d="M 5242.39,5202 V 5079.6" /><g
         transform="scale(10)"
         id="g182"><text
           id="text188"
           style="font-variant:normal;font-weight:normal;font-size:17.13599968px;font-family:'Times New Roman';-inkscape-font-specification:Times-Roman;writing-mode:lr-tb;fill:#000000;fill-opacity:1;fill-rule:nonzero;stroke:none"
           transform="matrix(1,0,0,-1,411.08,526.565)"><tspan
             id="tspan184"
             y="0"
             x="0 8.5679998 17.136 100.55148 109.11948 117.68748">200400</tspan><tspan
             id="tspan186"
             y="-24.7246"
             x="112.669">p</tspan></text>
<text
           id="text192"
           style="font-variant:normal;font-weight:normal;font-size:12.11760044px;font-family:'Times New Roman';-inkscape-font-specification:Times-Roman;writing-mode:lr-tb;fill:#000000;fill-opacity:1;fill-rule:nonzero;stroke:none"
           transform="matrix(1,0,0,-1,532.3783,544.4353)"><tspan
             id="tspan190"
             y="0"
             x="0">z</tspan></text>
<text
           id="text196"
           style="font-variant:normal;font-weight:normal;font-size:17.13599968px;font-family:'Times New Roman';-inkscape-font-specification:Times-Roman;writing-mode:lr-tb;fill:#000000;fill-opacity:1;fill-rule:nonzero;stroke:none"
           transform="matrix(1,0,0,-1,541.98652,551.2896)"><tspan
             id="tspan194"
             y="0"
             x="0 5.7062879 20.940191 28.548576 40.920769 45.684574 53.292961">(MeV/c)</tspan></text>
</g><path
         id="path198"
         style="fill:none;stroke:#000000;stroke-width:9.18000031;stroke-linecap:butt;stroke-linejoin:miter;stroke-miterlimit:10;stroke-dasharray:none;stroke-opacity:1"
         d="M 4236.27,3254.62 V 5202" /><path
         id="path200"
         style="fill:none;stroke:#000000;stroke-width:9.18000031;stroke-linecap:butt;stroke-linejoin:miter;stroke-miterlimit:10;stroke-dasharray:none;stroke-opacity:1"
         d="m 4236.27,3431.48 h 61.19" /><path
         id="path202"
         style="fill:none;stroke:#000000;stroke-width:9.18000031;stroke-linecap:butt;stroke-linejoin:miter;stroke-miterlimit:10;stroke-dasharray:none;stroke-opacity:1"
         d="m 4236.27,3785.83 h 61.19" /><path
         id="path204"
         style="fill:none;stroke:#000000;stroke-width:9.18000031;stroke-linecap:butt;stroke-linejoin:miter;stroke-miterlimit:10;stroke-dasharray:none;stroke-opacity:1"
         d="m 4236.27,4139.57 h 61.19" /><path
         id="path206"
         style="fill:none;stroke:#000000;stroke-width:9.18000031;stroke-linecap:butt;stroke-linejoin:miter;stroke-miterlimit:10;stroke-dasharray:none;stroke-opacity:1"
         d="m 4236.27,4493.92 h 61.19" /><path
         id="path208"
         style="fill:none;stroke:#000000;stroke-width:9.18000031;stroke-linecap:butt;stroke-linejoin:miter;stroke-miterlimit:10;stroke-dasharray:none;stroke-opacity:1"
         d="m 4236.27,4847.65 h 61.19" /><path
         id="path210"
         style="fill:none;stroke:#000000;stroke-width:9.18000031;stroke-linecap:butt;stroke-linejoin:miter;stroke-miterlimit:10;stroke-dasharray:none;stroke-opacity:1"
         d="m 4236.27,5202 h 61.19" /><path
         id="path212"
         style="fill:none;stroke:#000000;stroke-width:9.18000031;stroke-linecap:butt;stroke-linejoin:miter;stroke-miterlimit:10;stroke-dasharray:none;stroke-opacity:1"
         d="m 4236.27,3254.62 h 122.39" /><path
         id="path214"
         style="fill:none;stroke:#000000;stroke-width:9.18000031;stroke-linecap:butt;stroke-linejoin:miter;stroke-miterlimit:10;stroke-dasharray:none;stroke-opacity:1"
         d="m 4236.27,3608.96 h 122.39" /><path
         id="path216"
         style="fill:none;stroke:#000000;stroke-width:9.18000031;stroke-linecap:butt;stroke-linejoin:miter;stroke-miterlimit:10;stroke-dasharray:none;stroke-opacity:1"
         d="m 4236.27,3962.7 h 122.39" /><path
         id="path218"
         style="fill:none;stroke:#000000;stroke-width:9.18000031;stroke-linecap:butt;stroke-linejoin:miter;stroke-miterlimit:10;stroke-dasharray:none;stroke-opacity:1"
         d="m 4236.27,4317.05 h 122.39" /><path
         id="path220"
         style="fill:none;stroke:#000000;stroke-width:9.18000031;stroke-linecap:butt;stroke-linejoin:miter;stroke-miterlimit:10;stroke-dasharray:none;stroke-opacity:1"
         d="m 4236.27,4670.79 h 122.39" /><path
         id="path222"
         style="fill:none;stroke:#000000;stroke-width:9.18000031;stroke-linecap:butt;stroke-linejoin:miter;stroke-miterlimit:10;stroke-dasharray:none;stroke-opacity:1"
         d="m 4236.27,5025.13 h 122.39" /><path
         id="path224"
         style="fill:none;stroke:#000000;stroke-width:9.18000031;stroke-linecap:butt;stroke-linejoin:miter;stroke-miterlimit:10;stroke-dasharray:none;stroke-opacity:1"
         d="M 4236.27,3254.62 V 5202 H 7001.89 V 3254.62 Z" /><path
         id="path226"
         style="fill:#ffffff;fill-opacity:1;fill-rule:nonzero;stroke:none"
         d="m 3139.56,3633.45 h 2306.02 v 812.734 H 3139.56 Z" /><path
         id="path228"
         style="fill:none;stroke:#000000;stroke-width:9.18000031;stroke-linecap:butt;stroke-linejoin:miter;stroke-miterlimit:10;stroke-dasharray:none;stroke-opacity:1"
         d="m 3139.56,4446.18 v -812.73 h 2306.02 v 812.73 z" /><g
         transform="scale(10)"
         id="g230"><text
           id="text234"
           style="font-variant:normal;font-weight:normal;font-size:17.13599968px;font-family:'Times New Roman';-inkscape-font-specification:Times-Roman;writing-mode:lr-tb;fill:#000000;fill-opacity:1;fill-rule:nonzero;stroke:none"
           transform="matrix(1,0,0,-1,357.714,420.016)"><tspan
             id="tspan232"
             y="0"
             x="0 12.372192">Vp</tspan></text>
<text
           id="text238"
           style="font-variant:normal;font-weight:normal;font-size:12.11760044px;font-family:'Times New Roman';-inkscape-font-specification:Times-Roman;writing-mode:lr-tb;fill:#000000;fill-opacity:1;fill-rule:nonzero;stroke:none"
           transform="matrix(1,0,0,-1,378.5831,430.2976)"><tspan
             id="tspan236"
             y="0"
             x="0 6.0588002">11</tspan></text>
<text
           id="text242"
           style="font-variant:normal;font-weight:normal;font-size:17.13599968px;font-family:'Times New Roman';-inkscape-font-specification:Times-Roman;writing-mode:lr-tb;fill:#000000;fill-opacity:1;fill-rule:nonzero;stroke:none"
           transform="matrix(1,0,0,-1,390.5784,420.016)"><tspan
             id="tspan240"
             y="0"
             x="0 11.429712 19.038095 23.322096 32.849712 45.221905 55.692001 68.064194">Be FOLD </tspan></text>
<text
           id="text246"
           style="font-variant:normal;font-weight:normal;font-size:17.13599968px;font-family:Symbol;-inkscape-font-specification:Symbol;writing-mode:lr-tb;fill:#000000;fill-opacity:1;fill-rule:nonzero;stroke:none"
           transform="matrix(1,0,0,-1,462.8554,420.016)"><tspan
             id="tspan244"
             y="0"
             x="0">σ</tspan></text>
<text
           id="text250"
           style="font-variant:normal;font-weight:normal;font-size:17.13599968px;font-family:'Times New Roman';-inkscape-font-specification:Times-Roman;writing-mode:lr-tb;fill:#000000;fill-opacity:1;fill-rule:nonzero;stroke:none"
           transform="matrix(1,0,0,-1,473.137,420.016)"><tspan
             id="tspan248"
             y="0"
             x="0 9.6647043 18.232704 26.800703 31.084703 39.652702 43.936703 57.268513">=26.8 mb</tspan></text>
</g><path
         id="path252"
         style="fill:none;stroke:#000000;stroke-width:18.36000061;stroke-linecap:butt;stroke-linejoin:miter;stroke-miterlimit:10;stroke-dasharray:none;stroke-opacity:1"
         d="m 3209.94,4273.6 h 244.8" /><g
         transform="scale(10)"
         id="g254"><text
           id="text258"
           style="font-variant:normal;font-weight:normal;font-size:17.13599968px;font-family:'Times New Roman';-inkscape-font-specification:Times-Roman;writing-mode:lr-tb;fill:#000000;fill-opacity:1;fill-rule:nonzero;stroke:none"
           transform="matrix(1,0,0,-1,357.714,391.619)"><tspan
             id="tspan256"
             y="0"
             x="0 12.372192">Vp</tspan></text>
<text
           id="text262"
           style="font-variant:normal;font-weight:normal;font-size:12.11760044px;font-family:'Times New Roman';-inkscape-font-specification:Times-Roman;writing-mode:lr-tb;fill:#000000;fill-opacity:1;fill-rule:nonzero;stroke:none"
           transform="matrix(1,0,0,-1,378.5831,401.9006)"><tspan
             id="tspan260"
             y="0"
             x="0 6.0588002">11</tspan></text>
<text
           id="text266"
           style="font-variant:normal;font-weight:normal;font-size:17.13599968px;font-family:'Times New Roman';-inkscape-font-specification:Times-Roman;writing-mode:lr-tb;fill:#000000;fill-opacity:1;fill-rule:nonzero;stroke:none"
           transform="matrix(1,0,0,-1,390.5784,391.619)"><tspan
             id="tspan264"
             y="0"
             x="0 11.429712 19.038095 23.322096 35.694286 48.066479">Be KD </tspan></text>
<text
           id="text270"
           style="font-variant:normal;font-weight:normal;font-size:17.13599968px;font-family:Symbol;-inkscape-font-specification:Symbol;writing-mode:lr-tb;fill:#000000;fill-opacity:1;fill-rule:nonzero;stroke:none"
           transform="matrix(1,0,0,-1,442.9042,391.619)"><tspan
             id="tspan268"
             y="0"
             x="0">σ</tspan></text>
<text
           id="text274"
           style="font-variant:normal;font-weight:normal;font-size:17.13599968px;font-family:'Times New Roman';-inkscape-font-specification:Times-Roman;writing-mode:lr-tb;fill:#000000;fill-opacity:1;fill-rule:nonzero;stroke:none"
           transform="matrix(1,0,0,-1,453.2472,391.619)"><tspan
             id="tspan272"
             y="0"
             x="0 9.6647043 18.232704 26.800703 31.084703 39.652702 43.936703 57.268513">=26.7 mb</tspan></text>
</g><path
         id="path276"
         style="fill:none;stroke:#ff0000;stroke-width:18.36000061;stroke-linecap:butt;stroke-linejoin:miter;stroke-miterlimit:10;stroke-dasharray:none;stroke-opacity:1"
         d="m 3209.94,3989.63 h 244.8" /><g
         transform="scale(10)"
         id="g278"><text
           id="text282"
           style="font-variant:normal;font-weight:normal;font-size:17.13599968px;font-family:'Times New Roman';-inkscape-font-specification:Times-Roman;writing-mode:lr-tb;fill:#000000;fill-opacity:1;fill-rule:nonzero;stroke:none"
           transform="matrix(1,0,0,-1,357.714,369.893)"><tspan
             id="tspan280"
             y="0"
             x="0 9.5276155 17.136 25.704 34.271999 41.880383 49.48877 58.056767">Faddeev </tspan></text>
<text
           id="text286"
           style="font-variant:normal;font-weight:normal;font-size:17.13599968px;font-family:Symbol;-inkscape-font-specification:Symbol;writing-mode:lr-tb;fill:#000000;fill-opacity:1;fill-rule:nonzero;stroke:none"
           transform="matrix(1,0,0,-1,420.1378,369.893)"><tspan
             id="tspan284"
             y="0"
             x="0">σ</tspan></text>
<text
           id="text290"
           style="font-variant:normal;font-weight:normal;font-size:17.13599968px;font-family:'Times New Roman';-inkscape-font-specification:Times-Roman;writing-mode:lr-tb;fill:#000000;fill-opacity:1;fill-rule:nonzero;stroke:none"
           transform="matrix(1,0,0,-1,430.4194,369.893)"><tspan
             id="tspan288"
             y="0"
             x="0 9.6647043 18.232704 26.800703 31.084703 39.652702 43.936703 57.268513">=29.6 mb</tspan></text>
</g><path
         id="path292"
         style="fill:none;stroke:#0000ff;stroke-width:18.36000061;stroke-linecap:butt;stroke-linejoin:miter;stroke-miterlimit:10;stroke-dasharray:none;stroke-opacity:1"
         d="m 3209.94,3755.84 h 244.8" /><path
         id="path294"
         style="fill:none;stroke:#0000ff;stroke-width:18.36000061;stroke-linecap:butt;stroke-linejoin:miter;stroke-miterlimit:10;stroke-dasharray:none;stroke-opacity:1"
         d="m 918,918 92.41,0.613 91.8,1.223 92.42,1.223 91.8,3.062 92.41,4.895 92.41,6.121 91.8,7.343 92.41,7.344 92.41,9.18 18.36,2.449 18.36,2.445 18.36,3.672 18.36,4.899 18.36,7.344 18.36,9.179 18.36,12.238 18.97,14.69 18.36,17.75 18.37,22.03 18.36,28.76 18.35,37.34 18.36,50.79 18.36,69.16 18.36,90.57 18.98,117.51 18.35,145.04 18.36,173.81 18.37,202.57 18.36,221.55 18.36,223.99 18.36,202.57 18.36,153.61 18.97,80.79 18.36,-9.19 18.36,-97.3 18.36,-161.57 18.36,-197.06 18.36,-208.69 18.36,-205.02 18.36,-189.73 18.97,-166.46 18.36,-138.92 18.36,-112.61 18.36,-90.58 18.36,-72.83 18.36,-57.52 18.36,-44.68 18.36,-35.49 18.97,-27.55 18.36,-20.8 18.36,-15.92 18.36,-11.625 18.36,-9.18 18.36,-6.73 18.36,-4.899 18.36,-3.672 18.97,-2.445 18.36,-1.836 18.36,-1.226 91.8,-3.059 92.42,-3.059 92.41,-4.285 91.8,-4.894 92.41,-4.899 92.41,-4.285 91.8,-3.672 92.41,-2.445 91.8,-1.836 92.41,-0.613 92.42,-0.614 h 0.61" /><path
         id="path296"
         style="fill:none;stroke:#000000;stroke-width:18.36000061;stroke-linecap:butt;stroke-linejoin:miter;stroke-miterlimit:10;stroke-dasharray:none;stroke-opacity:1"
         d="m 1378.84,921.059 4.89,1.226 4.29,1.223 h 9.18 l 4.89,0.613 h 4.29 4.89 4.28 l 4.9,0.609 h 4.28 4.9 l 4.29,0.614 h 4.89 4.9 l 4.28,0.613 h 4.9 4.28 l 4.9,4.895 4.28,0.613 4.9,0.609 h 4.28 l 4.9,0.614 4.28,0.613 h 4.9 l 4.28,0.609 h 4.9 l 4.28,0.613 4.9,0.614 h 4.89 l 4.29,0.609 4.89,0.613 h 4.29 l 4.89,0.614 4.29,0.613 h 4.89 l 4.29,0.609 4.9,0.614 h 4.28 l 4.9,0.613 h 4.28 l 4.9,0.609 4.28,0.614 h 4.9 l 4.28,0.613 h 4.89 l 4.9,0.609 h 4.28 4.9 l 4.28,0.613 h 4.9 l 4.28,0.614 h 4.9 l 4.28,0.609 h 4.9 l 4.28,0.613 h 4.9 l 4.28,0.614 h 4.9 4.28 l 4.9,0.609 4.9,0.613 4.28,0.614 4.9,0.609 4.28,0.613 h 4.89 l 4.29,0.614 4.89,0.609 4.29,0.613 4.89,0.614 h 4.29 l 4.9,0.609 4.28,0.613 h 4.9 l 4.28,0.613 h 4.9 l 4.28,0.61 h 4.9 4.89 l 4.29,0.613 h 4.89 4.29 4.89 l 4.29,0.613 h 4.89 l 4.29,0.61 4.89,0.613 4.29,1.223 4.89,0.613 4.29,0.613 4.89,0.61 4.28,0.613 4.9,0.613 4.9,0.61 4.28,1.226 4.9,1.223 4.28,1.222 4.9,0.614 4.28,1.222 4.9,1.836 4.28,1.227 4.9,1.223 4.28,3.671 4.9,3.063 4.28,3.059 4.9,3.058 4.28,3.063 4.9,2.445 4.28,3.062 4.9,2.446 4.89,3.062 4.29,3.061 4.89,3.06 4.29,3.06 4.89,3.67 4.29,3.67 4.89,3.06 4.29,4.9 4.89,2.45 4.29,1.83 4.9,1.84 4.28,2.45 4.9,3.67 4.28,6.12 4.9,7.95 4.89,9.8 4.29,10.4 4.89,12.85 4.28,14.69 4.9,14.69 4.28,16.52 4.9,17.14 4.28,17.74 4.9,18.98 4.28,20.81 4.9,11.62 4.28,9.18 4.9,12.86 4.28,15.91 4.9,18.97 4.28,21.42 4.9,25.09 4.9,26.93 4.28,29.99 4.9,31.82 4.28,34.28 4.9,35.49 4.28,37.94 4.89,39.17 4.29,41.01 4.89,40.39 4.29,44.68 4.89,53.24 4.29,54.47 4.9,52.02 4.28,51.4 4.9,48.96 4.89,47.13 4.29,45.9 4.89,43.45 4.29,43.45 4.89,41.62 4.29,39.78 4.89,37.33 4.29,35.5 4.89,33.04 4.29,31.83 4.89,26.31 4.29,34.28 4.89,41 4.29,36.11 4.89,30.6 4.29,25.7 4.89,20.2 4.9,15.91 4.28,11.02 4.9,6.12 4.28,2.45 4.9,-1.84 4.28,-6.12 4.9,-9.18 4.28,-13.47 4.9,-16.52 4.28,-19.59 4.9,-22.03 4.28,-33.04 4.9,-38.56 4.28,-38.56 4.9,-39.16 4.89,-39.17 4.29,-39.78 4.89,-39.78 4.29,-39.78 4.89,-41.01 4.29,-41.61 4.89,-42.23 4.29,-41.62 4.89,-41 4.29,-41.61 4.89,-41.01 4.29,-39.17 4.89,-41 4.29,-45.29 4.9,-44.67 4.28,-42.84 4.9,-41.01 4.89,-39.17 4.29,-37.94 4.89,-36.11 4.29,-34.27 4.89,-33.05 4.28,-31.21 4.9,-29.99 4.28,-28.15 4.9,-26.93 4.28,-25.7 4.9,-24.48 4.28,-23.26 4.9,-21.42 4.28,-18.97 4.9,-18.36 4.9,-17.75 4.28,-16.52 4.9,-15.91 4.28,-14.7 4.9,-14.68 4.28,-12.85 4.9,-12.24 4.28,-11.63 4.9,-11.02 4.28,-9.79 4.89,-9.79 4.29,-9.18 4.89,-8.57 4.29,-7.96 4.89,-6.12 4.29,-6.11 4.9,-5.51 4.89,-4.9 4.29,-4.9 4.89,-4.89 4.29,-4.29 4.89,-4.28 4.29,-3.67 4.89,-3.674 4.29,-3.672 4.89,-3.059 4.29,-3.062 4.89,-3.059 4.29,-2.449 4.89,-2.445 4.29,-2.449 4.89,-1.836 4.9,-1.227 4.28,-1.836 4.9,-1.222 4.28,-1.223 4.9,-1.227 4.28,-1.222 4.9,-0.614 4.28,-1.222 4.9,-0.614 4.28,-0.609 4.9,-0.613 4.28,-0.613 4.9,-0.61 4.28,-0.613 h 4.9 l 4.28,-0.613 h 4.9 4.89 4.29 4.89 4.29 4.89 l 4.29,-0.61 h 4.89 4.29 4.89 4.29 4.89 4.29 l 4.89,0.61 h 4.29 4.89 4.9 4.29 4.89 4.29 4.89 4.29 l 4.89,0.613 h 4.29 4.89 4.28 4.9 4.28 4.9 4.28 4.9 4.28 4.9 l 4.9,-0.613 h 4.28 4.9 4.28 4.9 4.28 4.9 l 4.28,-0.61 h 4.9 4.28 4.9 4.28 l 4.89,-0.613 h 4.29 4.89 l 4.9,-0.613 h 4.28 4.9 l 4.29,-0.61 h 4.89 4.29 l 4.89,-0.613 h 4.29 4.89 l 4.29,-0.613 h 4.89 l 4.29,-0.61 h 4.89 l 4.29,-0.613 h 4.89 4.29 l 4.89,-0.613 h 4.9 l 4.28,-0.61 h 4.9 l 4.28,-0.613 h 4.9 l 4.28,-0.613 h 4.9 l 4.28,-0.61 h 4.9 l 4.28,-0.613 h 4.9 l 4.28,-0.613 h 4.9 4.28 l 4.9,-0.609 h 4.9 l 4.28,-0.614 h 4.89 l 4.29,-0.613 h 4.89 l 4.29,-0.609 h 4.89 l 4.29,-0.614 h 4.89 l 4.29,-0.613 h 4.89 l 4.29,-0.609 h 4.89 l 4.29,-0.614 h 4.89 l 4.29,-0.613 h 4.89 4.9 l 4.28,-0.609 h 4.9 l 4.29,-0.614 h 4.89 l 4.29,-0.613 h 4.89 l 4.29,-0.609 h 4.89 l 4.29,-0.614 h 4.89 4.28 l 4.9,-0.613 h 4.28 l 4.9,-0.609 h 4.9 4.28 l 4.9,-0.613 h 4.28 l 4.9,-0.614 h 4.28 l 4.9,-0.609 h 4.28 4.9 l 4.28,-0.613 h 4.9 4.28 l 4.9,-0.614 h 4.28 4.9 l 4.28,-0.609 h 4.89 l 4.9,-0.613 h 4.28 4.9 l 4.28,-0.614 h 4.9 4.29 4.89 l 4.29,-0.613 h 4.89 4.29 l 4.89,-0.609 h 4.29 4.89 4.29 l 4.89,-0.614 h 4.9 4.28 l 4.9,-0.613 h 4.28 4.9 4.28 l 4.9,-0.609 h 4.28 4.9 4.28 l 4.9,-0.613 h 4.28 4.9 4.28 l 4.9,-0.614 h 4.28 4.9 4.9 4.28 l 4.9,-0.609 h 4.28 4.89 4.29 4.89 l 4.29,-0.613 h 4.89 4.29 4.89 4.29 l 4.89,-0.614 h 4.29 4.89 4.9 4.28 4.9 l 4.28,-0.609 h 4.9 4.28 4.9 4.29 4.89 l 4.29,-0.613 h 4.89 4.29 4.89 4.29 4.89 4.28 4.9 l 4.9,-0.614 h 4.28 4.9 4.28 4.9 4.28 l 4.9,1.227 4.28,3.672 4.9,3.058 4.28,1.836 4.9,1.836 4.28,1.227 4.9,0.609 h 4.28 4.9 l 4.89,-0.609 4.29,-1.227 4.89,-1.222 4.28,-1.836 4.9,-1.836 4.28,-1.836 4.9,-1.836 4.28,-2.449 4.9,-1.836 4.29,-1.836 4.89,-3.672 4.29,0.613 4.89,3.672 4.29,1.836 h 4.89 4.29 4.89 l 4.9,-0.613 h 4.28 4.9 4.28 l 4.9,1.222 4.28,-4.281 4.9,-0.613 0.61,0.613" /><path
         id="path298"
         style="fill:none;stroke:#ff0000;stroke-width:18.36000061;stroke-linecap:butt;stroke-linejoin:miter;stroke-miterlimit:10;stroke-dasharray:none;stroke-opacity:1"
         d="m 1378.84,921.059 4.89,1.226 4.29,1.223 4.89,0.613 h 4.29 4.89 4.29 l 4.89,0.609 h 4.28 4.9 l 4.9,0.614 h 4.28 l 4.9,0.613 h 4.28 4.9 l 4.28,0.609 h 4.9 4.28 l 4.9,4.286 4.28,0.613 h 4.9 l 4.89,0.609 h 4.29 l 4.89,0.614 h 4.29 l 4.89,0.613 4.29,0.609 h 4.89 l 4.29,0.613 4.89,0.614 h 4.29 l 4.89,0.609 4.9,0.613 h 4.28 l 4.9,0.614 4.28,0.613 h 4.9 l 4.29,0.609 h 4.89 l 4.29,0.614 4.89,0.613 h 4.29 l 4.89,0.609 h 4.89 l 4.29,0.614 h 4.9 4.28 l 4.9,0.613 h 4.28 l 4.9,0.609 h 4.28 l 4.9,0.613 h 4.28 l 4.9,0.614 h 4.89 l 4.29,0.609 h 4.89 4.29 l 4.89,0.613 h 4.29 l 4.89,0.614 4.29,0.609 4.89,0.613 4.29,0.614 h 4.89 l 4.9,0.609 4.28,0.613 h 4.9 l 4.28,0.614 4.9,0.609 4.28,0.613 4.9,0.614 h 4.28 l 4.9,0.609 h 4.28 l 4.9,0.613 h 4.9 l 4.28,0.613 h 4.89 4.29 4.89 l 4.29,0.61 h 4.89 4.29 4.89 l 4.29,1.226 4.89,1.223 4.9,0.613 4.28,0.61 4.9,0.613 4.28,0.613 4.9,1.223 h 4.28 l 4.9,1.223 4.28,1.226 4.9,0.61 4.29,1.226 4.89,1.223 4.89,1.222 4.29,1.227 4.89,1.223 4.29,2.449 4.89,3.058 4.29,3.672 4.9,3.063 4.28,3.058 4.9,3.059 4.28,2.449 4.9,3.059 4.89,3.062 4.29,3.059 4.89,2.448 4.29,3.06 4.89,3.67 4.29,3.06 4.89,3.68 4.29,3.67 4.89,4.28 4.29,2.45 4.89,1.22 4.9,3.06 4.28,2.45 4.9,4.28 4.28,6.13 4.9,8.56 4.28,9.79 4.9,11.02 4.28,13.46 4.9,14.08 4.28,15.91 4.9,15.91 4.9,17.14 4.28,18.36 4.9,19.59 4.28,19.58 4.89,9.18 4.29,10.4 4.89,12.85 4.29,17.14 4.89,19.58 4.29,22.65 4.89,25.09 4.9,28.15 4.28,29.99 4.9,32.44 4.28,34.27 4.9,36.11 4.28,37.94 4.9,39.78 4.28,41.01 4.9,40.39 4.28,47.73 4.9,53.86 4.9,53.24 4.28,52.02 4.9,50.19 4.28,48.34 4.89,47.13 4.29,44.67 4.89,43.46 4.29,42.84 4.9,41 4.28,39.17 4.9,36.72 4.89,34.88 4.29,33.05 4.89,29.99 4.29,27.54 4.89,37.94 4.29,40.39 4.89,34.28 4.29,29.37 4.89,24.48 4.29,18.98 4.89,14.68 4.9,9.8 4.28,4.89 4.9,1.22 4.28,-3.06 4.9,-6.73 4.28,-11.02 4.9,-14.07 4.28,-17.75 4.9,-19.58 4.28,-25.1 4.9,-36.1 4.9,-38.56 4.28,-38.55 4.9,-39.17 4.28,-39.78 4.9,-39.78 4.28,-39.78 4.9,-39.78 4.28,-41.62 4.89,-41.61 4.29,-42.23 4.89,-41.62 4.9,-41 4.28,-41.01 4.9,-40.39 4.28,-39.78 4.9,-42.84 4.28,-45.29 4.9,-44.06 4.28,-42.23 4.9,-40.39 4.28,-38.55 4.9,-37.34 4.9,-35.49 4.28,-33.66 4.9,-32.44 4.28,-30.6 4.9,-29.38 4.28,-28.15 4.89,-26.32 4.29,-25.09 4.89,-23.86 4.29,-22.65 4.9,-20.19 4.89,-18.97 4.29,-18.36 4.89,-17.14 4.29,-15.91 4.89,-15.92 4.29,-14.68 4.89,-13.47 4.29,-12.85 4.89,-12.24 4.29,-11.02 4.89,-11.01 4.9,-9.8 4.28,-9.18 4.9,-8.56 4.28,-8.57 4.9,-7.35 4.28,-6.11 4.9,-5.51 4.28,-5.51 4.9,-4.9 4.28,-4.89 4.9,-4.9 4.89,-4.28 4.29,-4.29 4.89,-3.668 4.29,-3.672 4.9,-3.059 4.28,-3.062 4.9,-3.059 4.28,-3.058 4.9,-2.449 4.28,-2.45 4.89,-1.836 4.9,-1.836 4.28,-1.836 4.9,-1.222 4.28,-1.227 4.9,-1.222 4.28,-1.223 4.9,-1.227 4.28,-1.222 4.9,-0.614 4.28,-0.609 4.9,-0.613 4.9,-0.613 4.28,-0.61 4.9,-0.613 4.28,-0.613 4.9,-0.61 h 4.28 4.9 4.28 4.9 l 4.28,-0.613 h 4.89 4.29 4.89 4.9 4.29 4.89 4.29 4.89 4.29 4.89 4.29 4.89 4.29 4.89 4.9 4.28 4.9 4.28 l 4.9,0.613 h 4.28 4.9 4.28 4.9 4.28 4.9 l 4.89,-0.613 h 4.29 4.89 4.29 4.9 4.28 4.9 4.28 l 4.9,-0.613 h 4.28 4.9 4.89 4.28 l 4.9,-0.61 h 4.28 4.9 4.28 l 4.9,-0.613 h 4.28 4.9 l 4.28,-0.613 h 4.9 4.9 l 4.28,-0.61 h 4.9 4.28 l 4.9,-0.613 h 4.28 l 4.9,-0.613 h 4.28 l 4.9,-0.61 h 4.28 4.89 l 4.9,-0.613 h 4.28 l 4.9,-0.613 h 4.28 l 4.9,-0.61 h 4.29 l 4.89,-0.613 h 4.29 4.89 l 4.29,-0.613 h 4.89 l 4.9,-0.609 h 4.28 l 4.9,-0.614 h 4.28 l 4.9,-0.613 h 4.28 l 4.9,-0.609 h 4.28 l 4.9,-0.614 h 4.28 l 4.9,-0.613 h 4.89 4.29 l 4.89,-0.609 h 4.29 l 4.89,-0.614 h 4.29 l 4.89,-0.613 h 4.29 l 4.9,-0.609 h 4.28 l 4.9,-0.614 h 4.89 l 4.29,-0.613 h 4.89 4.28 l 4.9,-0.609 h 4.28 l 4.9,-0.614 h 4.28 l 4.9,-0.613 h 4.28 4.9 l 4.9,-0.609 h 4.28 l 4.9,-0.613 h 4.28 l 4.9,-0.614 h 4.28 4.9 l 4.28,-0.609 h 4.9 l 4.28,-0.613 h 4.9 4.89 l 4.29,-0.614 h 4.89 4.28 l 4.9,-0.609 h 4.28 4.9 l 4.28,-0.613 h 4.9 4.29 l 4.89,-0.614 h 4.9 4.28 l 4.9,-0.613 h 4.28 4.9 l 4.28,-0.609 h 4.9 4.28 l 4.9,-0.614 h 4.28 4.9 4.89 l 4.29,-0.613 h 4.89 4.29 4.89 l 4.29,-0.609 h 4.89 4.29 4.89 l 4.29,-0.613 h 4.9 4.89 4.29 l 4.89,-0.614 h 4.29 4.89 4.29 4.89 l 4.28,-0.609 h 4.9 4.28 4.9 4.9 l 4.28,-0.613 h 4.9 4.28 4.9 4.28 l 4.9,-0.614 h 4.28 4.9 4.28 4.9 4.89 l 4.29,-0.609 h 4.89 4.29 4.89 4.28 4.9 l 4.28,-0.613 h 4.9 4.29 4.89 4.9 4.28 l 4.9,-0.614 h 4.28 4.9 4.28 4.9 4.28 4.9 4.28 4.9 4.89 4.29 4.89 l 4.29,-0.609 4.89,1.223 4.29,3.058 4.89,3.063 4.29,2.449 4.89,1.223 4.29,1.222 4.89,0.614 4.9,0.613 4.28,-0.613 4.9,-0.614 4.29,-0.609 4.89,-1.227 4.29,-1.836 4.89,-1.836 4.29,-1.835 4.89,-1.836 4.28,-1.836 4.9,-2.45 4.9,-1.222 4.28,-3.059 4.9,-0.613 4.28,3.672 4.9,1.836 h 4.28 4.9 4.28 4.9 4.28 4.9 l 4.89,-0.614 4.29,1.227 4.89,-3.672 4.29,-1.226 1.22,0.613" /><path
         id="path300"
         style="fill:none;stroke:#000000;stroke-width:9.18000031;stroke-linecap:butt;stroke-linejoin:miter;stroke-miterlimit:10;stroke-dasharray:none;stroke-opacity:1"
         d="M 918,918 H 3683.63" /><path
         id="path302"
         style="fill:none;stroke:#000000;stroke-width:9.18000031;stroke-linecap:butt;stroke-linejoin:miter;stroke-miterlimit:10;stroke-dasharray:none;stroke-opacity:1"
         d="M 918,2865.38 H 3683.63" /><path
         id="path304"
         style="fill:none;stroke:#000000;stroke-width:9.18000031;stroke-linecap:butt;stroke-linejoin:miter;stroke-miterlimit:10;stroke-dasharray:none;stroke-opacity:1"
         d="m 1378.84,918 v 61.199" /><path
         id="path306"
         style="fill:none;stroke:#000000;stroke-width:9.18000031;stroke-linecap:butt;stroke-linejoin:miter;stroke-miterlimit:10;stroke-dasharray:none;stroke-opacity:1"
         d="m 1378.84,2865.38 v -61.2" /><path
         id="path308"
         style="fill:none;stroke:#000000;stroke-width:9.18000031;stroke-linecap:butt;stroke-linejoin:miter;stroke-miterlimit:10;stroke-dasharray:none;stroke-opacity:1"
         d="m 2300.51,918 v 61.199" /><path
         id="path310"
         style="fill:none;stroke:#000000;stroke-width:9.18000031;stroke-linecap:butt;stroke-linejoin:miter;stroke-miterlimit:10;stroke-dasharray:none;stroke-opacity:1"
         d="m 2300.51,2865.38 v -61.2" /><path
         id="path312"
         style="fill:none;stroke:#000000;stroke-width:9.18000031;stroke-linecap:butt;stroke-linejoin:miter;stroke-miterlimit:10;stroke-dasharray:none;stroke-opacity:1"
         d="m 3222.79,918 v 61.199" /><path
         id="path314"
         style="fill:none;stroke:#000000;stroke-width:9.18000031;stroke-linecap:butt;stroke-linejoin:miter;stroke-miterlimit:10;stroke-dasharray:none;stroke-opacity:1"
         d="m 3222.79,2865.38 v -61.2" /><path
         id="path316"
         style="fill:none;stroke:#000000;stroke-width:9.18000031;stroke-linecap:butt;stroke-linejoin:miter;stroke-miterlimit:10;stroke-dasharray:none;stroke-opacity:1"
         d="m 918,918 v 122.4" /><path
         id="path318"
         style="fill:none;stroke:#000000;stroke-width:9.18000031;stroke-linecap:butt;stroke-linejoin:miter;stroke-miterlimit:10;stroke-dasharray:none;stroke-opacity:1"
         d="m 918,2865.38 v -122.4" /><path
         id="path320"
         style="fill:none;stroke:#000000;stroke-width:9.18000031;stroke-linecap:butt;stroke-linejoin:miter;stroke-miterlimit:10;stroke-dasharray:none;stroke-opacity:1"
         d="m 1839.67,918 v 122.4" /><path
         id="path322"
         style="fill:none;stroke:#000000;stroke-width:9.18000031;stroke-linecap:butt;stroke-linejoin:miter;stroke-miterlimit:10;stroke-dasharray:none;stroke-opacity:1"
         d="m 1839.67,2865.38 v -122.4" /><path
         id="path324"
         style="fill:none;stroke:#000000;stroke-width:9.18000031;stroke-linecap:butt;stroke-linejoin:miter;stroke-miterlimit:10;stroke-dasharray:none;stroke-opacity:1"
         d="m 2761.34,918 v 122.4" /><path
         id="path326"
         style="fill:none;stroke:#000000;stroke-width:9.18000031;stroke-linecap:butt;stroke-linejoin:miter;stroke-miterlimit:10;stroke-dasharray:none;stroke-opacity:1"
         d="m 2761.34,2865.38 v -122.4" /><path
         id="path328"
         style="fill:none;stroke:#000000;stroke-width:9.18000031;stroke-linecap:butt;stroke-linejoin:miter;stroke-miterlimit:10;stroke-dasharray:none;stroke-opacity:1"
         d="m 3683.63,918 v 122.4" /><path
         id="path330"
         style="fill:none;stroke:#000000;stroke-width:9.18000031;stroke-linecap:butt;stroke-linejoin:miter;stroke-miterlimit:10;stroke-dasharray:none;stroke-opacity:1"
         d="m 3683.63,2865.38 v -122.4" /><g
         transform="scale(10)"
         id="g332"><text
           id="text338"
           style="font-variant:normal;font-weight:normal;font-size:17.13599968px;font-family:'Times New Roman';-inkscape-font-specification:Times-Roman;writing-mode:lr-tb;fill:#000000;fill-opacity:1;fill-rule:nonzero;stroke:none"
           transform="matrix(1,0,0,-1,87.6996,74.1742)"><tspan
             id="tspan334"
             y="0"
             x="0 87.883179 96.451172 180.05035 188.61835 272.21753 280.78552">0102030</tspan><tspan
             id="tspan336"
             y="17.8703"
             x="89.107002">E</tspan></text>
<text
           id="text342"
           style="font-variant:normal;font-weight:normal;font-size:8.56799984px;font-family:'Times New Roman';-inkscape-font-specification:Times-Roman;writing-mode:lr-tb;fill:#000000;fill-opacity:1;fill-rule:nonzero;stroke:none"
           transform="matrix(1,0,0,-1,187.3332,56.671088)"><tspan
             id="tspan340"
             y="0"
             x="0 4.2839999">10</tspan></text>
<text
           id="text346"
           style="font-variant:normal;font-weight:normal;font-size:12.11760044px;font-family:'Times New Roman';-inkscape-font-specification:Times-Roman;writing-mode:lr-tb;fill:#000000;fill-opacity:1;fill-rule:nonzero;stroke:none"
           transform="matrix(1,0,0,-1,195.9625,49.449608)"><tspan
             id="tspan344"
             y="0"
             x="0 8.0824394 13.462653 16.492054 21.872269 24.901669 34.329163">Be c.m.</tspan></text>
<text
           id="text350"
           style="font-variant:normal;font-weight:normal;font-size:17.13599968px;font-family:'Times New Roman';-inkscape-font-specification:Times-Roman;writing-mode:lr-tb;fill:#000000;fill-opacity:1;fill-rule:nonzero;stroke:none"
           transform="matrix(1,0,0,-1,237.7008,56.303908)"><tspan
             id="tspan348"
             y="0"
             x="0 5.7062879 20.940191 28.548576 40.920769">(MeV)</tspan></text>
</g><path
         id="path352"
         style="fill:none;stroke:#000000;stroke-width:9.18000031;stroke-linecap:butt;stroke-linejoin:miter;stroke-miterlimit:10;stroke-dasharray:none;stroke-opacity:1"
         d="M 918,918 V 2865.38" /><path
         id="path354"
         style="fill:none;stroke:#000000;stroke-width:9.18000031;stroke-linecap:butt;stroke-linejoin:miter;stroke-miterlimit:10;stroke-dasharray:none;stroke-opacity:1"
         d="M 3683.63,918 V 2865.38" /><path
         id="path356"
         style="fill:none;stroke:#000000;stroke-width:9.18000031;stroke-linecap:butt;stroke-linejoin:miter;stroke-miterlimit:10;stroke-dasharray:none;stroke-opacity:1"
         d="m 918,1404.54 h 61.199" /><path
         id="path358"
         style="fill:none;stroke:#000000;stroke-width:9.18000031;stroke-linecap:butt;stroke-linejoin:miter;stroke-miterlimit:10;stroke-dasharray:none;stroke-opacity:1"
         d="m 3683.63,1404.54 h -61.2" /><path
         id="path360"
         style="fill:none;stroke:#000000;stroke-width:9.18000031;stroke-linecap:butt;stroke-linejoin:miter;stroke-miterlimit:10;stroke-dasharray:none;stroke-opacity:1"
         d="m 918,2378.23 h 61.199" /><path
         id="path362"
         style="fill:none;stroke:#000000;stroke-width:9.18000031;stroke-linecap:butt;stroke-linejoin:miter;stroke-miterlimit:10;stroke-dasharray:none;stroke-opacity:1"
         d="m 3683.63,2378.23 h -61.2" /><path
         id="path364"
         style="fill:none;stroke:#000000;stroke-width:9.18000031;stroke-linecap:butt;stroke-linejoin:miter;stroke-miterlimit:10;stroke-dasharray:none;stroke-opacity:1"
         d="m 918,918 h 122.4" /><path
         id="path366"
         style="fill:none;stroke:#000000;stroke-width:9.18000031;stroke-linecap:butt;stroke-linejoin:miter;stroke-miterlimit:10;stroke-dasharray:none;stroke-opacity:1"
         d="m 3683.63,918 h -122.4" /><path
         id="path368"
         style="fill:none;stroke:#000000;stroke-width:9.18000031;stroke-linecap:butt;stroke-linejoin:miter;stroke-miterlimit:10;stroke-dasharray:none;stroke-opacity:1"
         d="m 918,1891.69 h 122.4" /><path
         id="path370"
         style="fill:none;stroke:#000000;stroke-width:9.18000031;stroke-linecap:butt;stroke-linejoin:miter;stroke-miterlimit:10;stroke-dasharray:none;stroke-opacity:1"
         d="m 3683.63,1891.69 h -122.4" /><path
         id="path372"
         style="fill:none;stroke:#000000;stroke-width:9.18000031;stroke-linecap:butt;stroke-linejoin:miter;stroke-miterlimit:10;stroke-dasharray:none;stroke-opacity:1"
         d="m 918,2865.38 h 122.4" /><path
         id="path374"
         style="fill:none;stroke:#000000;stroke-width:9.18000031;stroke-linecap:butt;stroke-linejoin:miter;stroke-miterlimit:10;stroke-dasharray:none;stroke-opacity:1"
         d="m 3683.63,2865.38 h -122.4" /><g
         transform="scale(10)"
         id="g376"><text
           id="text384"
           style="font-variant:normal;font-weight:normal;font-size:17.13599968px;font-family:'Times New Roman';-inkscape-font-specification:Times-Roman;writing-mode:lr-tb;fill:#000000;fill-opacity:1;fill-rule:nonzero;stroke:none"
           transform="matrix(1,0,0,-1,77.5402,86.1695)"><tspan
             id="tspan378"
             y="0"
             x="0">0</tspan><tspan
             id="tspan380"
             y="-97.246902"
             x="0.67343801">5</tspan><tspan
             id="tspan382"
             y="-194.7383"
             x="-8.6902323 -0.122232">10</tspan></text>
<text
           id="text388"
           style="font-variant:normal;font-weight:normal;font-size:17.13599968px;font-family:'Times New Roman';-inkscape-font-specification:Times-Roman;writing-mode:lr-tb;fill:#000000;fill-opacity:1;fill-rule:nonzero;stroke:none"
           transform="matrix(0,1,1,0,55.6922,106.488)"><tspan
             id="tspan386"
             y="0"
             x="0">d</tspan></text>
<text
           id="text392"
           style="font-variant:normal;font-weight:normal;font-size:17.13599968px;font-family:Symbol;-inkscape-font-specification:Symbol;writing-mode:lr-tb;fill:#000000;fill-opacity:1;fill-rule:nonzero;stroke:none"
           transform="matrix(0,1,1,0,55.6922,115.1173)"><tspan
             id="tspan390"
             y="0"
             x="0">σ</tspan></text>
<text
           id="text396"
           style="font-variant:normal;font-weight:normal;font-size:17.13599968px;font-family:'Times New Roman';-inkscape-font-specification:Times-Roman;writing-mode:lr-tb;fill:#000000;fill-opacity:1;fill-rule:nonzero;stroke:none"
           transform="matrix(0,1,1,0,55.6922,125.4603)"><tspan
             id="tspan394"
             y="0"
             x="0 4.7638078 13.331808">/dE</tspan></text>
<text
           id="text400"
           style="font-variant:normal;font-weight:normal;font-size:8.56799984px;font-family:'Times New Roman';-inkscape-font-specification:Times-Roman;writing-mode:lr-tb;fill:#000000;fill-opacity:1;fill-rule:nonzero;stroke:none"
           transform="matrix(0,1,1,0,55.263684,149.2056)"><tspan
             id="tspan398"
             y="0"
             x="0 4.2839999">10</tspan></text>
<text
           id="text404"
           style="font-variant:normal;font-weight:normal;font-size:12.11760044px;font-family:'Times New Roman';-inkscape-font-specification:Times-Roman;writing-mode:lr-tb;fill:#000000;fill-opacity:1;fill-rule:nonzero;stroke:none"
           transform="matrix(0,1,1,0,62.546494,157.8349)"><tspan
             id="tspan402"
             y="0"
             x="0 8.0824394 13.462653 16.492054 21.872269 24.901669 34.329163">Be c.m.</tspan></text>
<text
           id="text408"
           style="font-variant:normal;font-weight:normal;font-size:17.13599968px;font-family:'Times New Roman';-inkscape-font-specification:Times-Roman;writing-mode:lr-tb;fill:#000000;fill-opacity:1;fill-rule:nonzero;stroke:none"
           transform="matrix(0,1,1,0,55.692194,199.5732)"><tspan
             id="tspan406"
             y="0"
             x="0 5.7062879 19.038095 27.606096 32.369904 47.603809 55.212193 67.584381">(mb/MeV)</tspan></text>
</g><path
         id="path410"
         style="fill:none;stroke:#000000;stroke-width:9.18000031;stroke-linecap:butt;stroke-linejoin:miter;stroke-miterlimit:10;stroke-dasharray:none;stroke-opacity:1"
         d="M 918,918 V 2865.38 H 3683.63 V 918 Z" /><path
         id="path412"
         style="fill:none;stroke:#0000ff;stroke-width:18.36000061;stroke-linecap:butt;stroke-linejoin:miter;stroke-miterlimit:10;stroke-dasharray:none;stroke-opacity:1"
         d="m 4236.27,2577.75 69.15,-47.74 69.16,-135.25 69.15,-199.51 69.16,-233.18 69.15,-234.39 69.16,-212.37 69.16,-174.42 69.15,-132.8 69.16,-94.86 69.15,-64.26 69.16,-41.62 69.16,-26.924 69.15,-17.137 69.16,-11.629 69.16,-7.957 69.15,-5.508 69.16,-4.285 69.15,-3.058 69.16,-1.836 69.15,-1.223 138.32,-0.613 h 138.31 l 138.31,-0.614 h 138.31 l 138.32,-0.609 h 137.69 l 138.32,-0.613 138.31,-1.223 138.31,-0.613 138.31,-0.613 h 0.61" /><path
         id="path414"
         style="fill:none;stroke:#000000;stroke-width:18.36000061;stroke-linecap:butt;stroke-linejoin:miter;stroke-miterlimit:10;stroke-dasharray:none;stroke-opacity:1"
         d="m 4236.27,2574.68 69.15,-50.18 69.16,-139.54 69.15,-204.41 69.16,-236.84 69.15,-236.23 69.16,-210.53 69.16,-171.36 69.15,-129.74 69.16,-91.8 69.15,-62.42 69.16,-41.01 69.16,-26.315 69.15,-17.75 69.16,-11.625 69.16,-7.957 69.15,-5.508 69.16,-3.063 69.15,-2.445 69.16,-1.227 69.15,-0.609 69.16,-0.613 h 69.16 69.15 l 69.16,0.613 h 69.15 69.16 69.16 69.15 69.16 l 69.16,-0.613 h 68.54 69.15 l 69.16,-0.613 h 69.16 69.15 l 69.16,-0.61 h 69.16 l 69.15,-0.613 h 69.15 69.16 0.61" /><path
         id="path416"
         style="fill:none;stroke:#ff0000;stroke-width:18.36000061;stroke-linecap:butt;stroke-linejoin:miter;stroke-miterlimit:10;stroke-dasharray:none;stroke-opacity:1"
         d="m 4236.27,2572.85 69.15,-49.57 69.16,-139.54 69.15,-205.02 69.16,-236.84 69.15,-236.24 69.16,-210.52 69.16,-171.36 69.15,-129.75 69.16,-91.8 69.15,-61.81 69.16,-40.39 69.16,-26.932 69.15,-17.133 69.16,-11.629 69.16,-7.343 69.15,-5.508 69.16,-3.063 69.15,-2.445 69.16,-1.227 69.15,-0.609 h 69.16 l 69.16,-0.613 h 69.15 l 69.16,0.613 h 69.15 69.16 69.16 69.15 69.16 l 69.16,-0.613 h 68.54 69.15 l 69.16,-0.613 h 69.16 69.15 l 69.16,-0.61 h 69.16 l 69.15,-0.613 h 69.15 l 69.16,-0.613 h 0.61" /><path
         id="path418"
         style="fill:none;stroke:#000000;stroke-width:9.18000031;stroke-linecap:butt;stroke-linejoin:miter;stroke-miterlimit:10;stroke-dasharray:none;stroke-opacity:1"
         d="M 4236.27,918 H 7001.89" /><path
         id="path420"
         style="fill:none;stroke:#000000;stroke-width:9.18000031;stroke-linecap:butt;stroke-linejoin:miter;stroke-miterlimit:10;stroke-dasharray:none;stroke-opacity:1"
         d="M 4236.27,2865.38 H 7001.89" /><path
         id="path422"
         style="fill:none;stroke:#000000;stroke-width:9.18000031;stroke-linecap:butt;stroke-linejoin:miter;stroke-miterlimit:10;stroke-dasharray:none;stroke-opacity:1"
         d="m 4582.04,918 v 61.199" /><path
         id="path424"
         style="fill:none;stroke:#000000;stroke-width:9.18000031;stroke-linecap:butt;stroke-linejoin:miter;stroke-miterlimit:10;stroke-dasharray:none;stroke-opacity:1"
         d="m 4582.04,2865.38 v -61.2" /><path
         id="path426"
         style="fill:none;stroke:#000000;stroke-width:9.18000031;stroke-linecap:butt;stroke-linejoin:miter;stroke-miterlimit:10;stroke-dasharray:none;stroke-opacity:1"
         d="m 5273.61,918 v 61.199" /><path
         id="path428"
         style="fill:none;stroke:#000000;stroke-width:9.18000031;stroke-linecap:butt;stroke-linejoin:miter;stroke-miterlimit:10;stroke-dasharray:none;stroke-opacity:1"
         d="m 5273.61,2865.38 v -61.2" /><path
         id="path430"
         style="fill:none;stroke:#000000;stroke-width:9.18000031;stroke-linecap:butt;stroke-linejoin:miter;stroke-miterlimit:10;stroke-dasharray:none;stroke-opacity:1"
         d="m 4236.27,918 v 122.4" /><path
         id="path432"
         style="fill:none;stroke:#000000;stroke-width:9.18000031;stroke-linecap:butt;stroke-linejoin:miter;stroke-miterlimit:10;stroke-dasharray:none;stroke-opacity:1"
         d="m 4236.27,2865.38 v -122.4" /><path
         id="path434"
         style="fill:none;stroke:#000000;stroke-width:9.18000031;stroke-linecap:butt;stroke-linejoin:miter;stroke-miterlimit:10;stroke-dasharray:none;stroke-opacity:1"
         d="m 4927.82,918 v 122.4" /><path
         id="path436"
         style="fill:none;stroke:#000000;stroke-width:9.18000031;stroke-linecap:butt;stroke-linejoin:miter;stroke-miterlimit:10;stroke-dasharray:none;stroke-opacity:1"
         d="m 4927.82,2865.38 v -122.4" /><path
         id="path438"
         style="fill:none;stroke:#000000;stroke-width:9.18000031;stroke-linecap:butt;stroke-linejoin:miter;stroke-miterlimit:10;stroke-dasharray:none;stroke-opacity:1"
         d="m 5619.38,918 v 122.4" /><path
         id="path440"
         style="fill:none;stroke:#000000;stroke-width:9.18000031;stroke-linecap:butt;stroke-linejoin:miter;stroke-miterlimit:10;stroke-dasharray:none;stroke-opacity:1"
         d="m 5619.38,2865.38 v -122.4" /><g
         transform="scale(10)"
         id="g442"><text
           id="text450"
           style="font-variant:normal;font-weight:normal;font-size:17.13599968px;font-family:'Times New Roman';-inkscape-font-specification:Times-Roman;writing-mode:lr-tb;fill:#000000;fill-opacity:1;fill-rule:nonzero;stroke:none"
           transform="matrix(1,0,0,-1,419.587,74.1742)"><tspan
             id="tspan444"
             y="0"
             x="0">0</tspan><tspan
             id="tspan446"
             y="0.24453101"
             x="69.462097">5</tspan><tspan
             id="tspan448"
             y="0"
             x="133.9668 142.53481">10</tspan></text>
<text
           id="text454"
           style="font-variant:normal;font-weight:normal;font-size:17.13599968px;font-family:Symbol;-inkscape-font-specification:Symbol;writing-mode:lr-tb;fill:#000000;fill-opacity:1;fill-rule:nonzero;stroke:none"
           transform="matrix(1,0,0,-1,537.703,55.8144)"><tspan
             id="tspan452"
             y="0"
             x="0">θ</tspan></text>
<text
           id="text458"
           style="font-variant:normal;font-weight:normal;font-size:17.13599968px;font-family:'Times New Roman';-inkscape-font-specification:Times-Roman;writing-mode:lr-tb;fill:#000000;fill-opacity:1;fill-rule:nonzero;stroke:none"
           transform="matrix(1,0,0,-1,550.86122,55.8144)"><tspan
             id="tspan456"
             y="0"
             x="0 5.7062879 14.274288 21.882671 30.450672">(deg)</tspan></text>
</g><path
         id="path460"
         style="fill:none;stroke:#000000;stroke-width:9.18000031;stroke-linecap:butt;stroke-linejoin:miter;stroke-miterlimit:10;stroke-dasharray:none;stroke-opacity:1"
         d="M 4236.27,918 V 2865.38" /><path
         id="path462"
         style="fill:none;stroke:#000000;stroke-width:9.18000031;stroke-linecap:butt;stroke-linejoin:miter;stroke-miterlimit:10;stroke-dasharray:none;stroke-opacity:1"
         d="m 4236.27,1242.36 h 61.19" /><path
         id="path464"
         style="fill:none;stroke:#000000;stroke-width:9.18000031;stroke-linecap:butt;stroke-linejoin:miter;stroke-miterlimit:10;stroke-dasharray:none;stroke-opacity:1"
         d="m 4236.27,1891.69 h 61.19" /><path
         id="path466"
         style="fill:none;stroke:#000000;stroke-width:9.18000031;stroke-linecap:butt;stroke-linejoin:miter;stroke-miterlimit:10;stroke-dasharray:none;stroke-opacity:1"
         d="m 4236.27,2541.02 h 61.19" /><path
         id="path468"
         style="fill:none;stroke:#000000;stroke-width:9.18000031;stroke-linecap:butt;stroke-linejoin:miter;stroke-miterlimit:10;stroke-dasharray:none;stroke-opacity:1"
         d="m 4236.27,918 h 122.39" /><path
         id="path470"
         style="fill:none;stroke:#000000;stroke-width:9.18000031;stroke-linecap:butt;stroke-linejoin:miter;stroke-miterlimit:10;stroke-dasharray:none;stroke-opacity:1"
         d="m 4236.27,1567.33 h 122.39" /><path
         id="path472"
         style="fill:none;stroke:#000000;stroke-width:9.18000031;stroke-linecap:butt;stroke-linejoin:miter;stroke-miterlimit:10;stroke-dasharray:none;stroke-opacity:1"
         d="m 4236.27,2216.05 h 122.39" /><path
         id="path474"
         style="fill:none;stroke:#000000;stroke-width:9.18000031;stroke-linecap:butt;stroke-linejoin:miter;stroke-miterlimit:10;stroke-dasharray:none;stroke-opacity:1"
         d="m 4236.27,2865.38 h 122.39" /><path
         id="path476"
         style="fill:none;stroke:#000000;stroke-width:9.18000031;stroke-linecap:butt;stroke-linejoin:miter;stroke-miterlimit:10;stroke-dasharray:none;stroke-opacity:1"
         d="M 4236.27,918 V 2865.38 H 7001.89 V 918 Z" /></g></g></svg>